<?xml version="1.0" encoding="UTF-8" standalone="no"?>
<svg
   xmlns:dc="http://purl.org/dc/elements/1.1/"
   xmlns:cc="http://creativecommons.org/ns#"
   xmlns:rdf="http://www.w3.org/1999/02/22-rdf-syntax-ns#"
   xmlns:svg="http://www.w3.org/2000/svg"
   xmlns="http://www.w3.org/2000/svg"
   id="svg6"
   version="1.1"
   viewBox="0 0 16 16"><metadata
   id="metadata10">
  <rdf:RDF>
    <cc:Work
       rdf:about="">
      <dc:format>image/svg+xml</dc:format>
      <dc:type
         rdf:resource="http://purl.org/dc/dcmitype/StillImage" />
      <dc:title></dc:title>
    </cc:Work>
  </rdf:RDF>
</metadata>
<defs
   id="defs3051">
  <style
     id="current-color-scheme"
     type="text/css">
      .ColorScheme-Text {
        color:#4d4d4d;
      }
      .ColorScheme-NegativeText {
        color:#da4453;
      }
      </style>
  <style
     type="text/css"
     id="current-color-scheme-3">
      .ColorScheme-Text {
        color:#4d4d4d;
      }
      .ColorScheme-NegativeText {
        color:#da4453;
      }
      </style>
</defs>



  /&gt;
<path
   id="path2-3"
   d="m 1.0727499,5.5168902 0.8763735,0.7125736 -0.824836,1.6443434 c -0.41240493,0.7582311 0.2960824,1.4968534 0.7474948,1.7539804 0.4443862,0.253104 1.1341135,0.283195 1.7785071,0.274077 L 4.8101803,7.928626 5.6865451,8.4219333 4.1657867,5.4895114 1.0727499,5.5168989 Z m 0.1288612,4.0252264 1.8815996,3.6175744 c 0.3780437,0.502425 1.0911772,0.621189 1.8300708,0.602927 h 1.9847008 v -3.42572 L 3.1347744,10.30951 C 2.5505546,10.345998 1.7858572,10.218117 1.2016111,9.5421256 Z M 13.039756,2.8753441 12.016015,3.3275352 11.03388,1.7796343 C 10.59659,1.0366808 9.6322872,1.3234269 9.1973686,1.6096393 8.7692224,1.8914068 8.4095275,2.5045979 8.1048001,3.095529 L 9.2008686,5.1078803 8.3613938,5.6663664 11.563237,5.7039039 13.039756,2.8753703 Z M 9.5942685,1.0412045 5.6416401,0.999992 C 5.0361053,1.100477 4.5905554,1.6919593 4.2476867,2.3733742 L 3.2854844,4.1798025 6.1646537,5.8406402 8.0121288,2.4287179 C 8.2646538,1.8792093 8.7428674,1.245237 9.5942685,1.041222 Z m 0.1719377,13.9587685 0.1162525,-1.151036 1.7771073,-0.14343 c 0.836404,-0.03789 1.062924,-1.054523 1.033226,-1.589148 -0.02923,-0.526304 -0.370221,-1.150966 -0.719145,-1.714807 L 9.75099,10.423602 9.688515,9.3887646 8.1047032,12.284814 9.7661537,15.000008 Z M 12.97813,12.75321 14.929038,9.1756496 C 15.138172,8.5757671 14.857113,7.8834672 14.450588,7.2410424 L 13.398856,5.4894851 10.60716,7.3048473 12.579033,10.640514 c 0.339413,0.49623 0.640386,1.238833 0.399097,2.112696 z"
   style="fill:#c51818;fill-opacity:1;stroke-width:1" />
</svg>
