<svg xmlns="http://www.w3.org/2000/svg" xmlns:xlink="http://www.w3.org/1999/xlink" viewBox="0 0 64 64"><defs><linearGradient xlink:href="#1" id="3" x1="-661.86" y1="588.27" x2="-659.32" y2="416.19" gradientUnits="userSpaceOnUse"/><linearGradient gradientUnits="userSpaceOnUse" y2="354.29" x2="-704.05" y1="647.77" x1="-701.19" id="2"><stop stop-color="#93cfff"/><stop offset="1" stop-color="#cde8fe"/></linearGradient><linearGradient xlink:href="#1" id="0" x1="59.12" y1="-13.295" x2="59.15" y2="-37.783" gradientUnits="userSpaceOnUse" gradientTransform="matrix(4.17478 0 0 4.16765-1066.12 447.73)"/><linearGradient id="1"><stop stop-color="#289bf7"/><stop offset="1" stop-color="#71b9f1"/></linearGradient></defs><g transform="matrix(.12614 0 0 .12614 115.04-27.788)"><path d="m-880.52 294.78c-4.626 0-8.349 3.718-8.349 8.335v161.41l461.02 1v-121.2c0-4.618-3.724-8.335-8.35-8.335h-265.48c-8.51.751-9.607-.377-13.812-5.981-5.964-7.968-14.969-21.443-20.84-29.21-4.712-6.805-5.477-6.02-13.292-6.02z" fill="url(#0)" color="#000"/><rect width="463.85" height="295.13" x="-890.28" y="356.85" fill="url(#2)" stroke="url(#2)" stroke-width="2.378" rx="9.63"/><path d="m-571.86 478.96l-57.4-8.414-25.727-52.45c-1.447-3.151-3.316-4.726-5.603-4.726-2.286 0-4.154 1.575-5.603 4.726l-25.728 52.45-57.4 8.414c-4.268.692-6.403 2.459-6.403 5.303 0 1.614.953 3.459 2.859 5.533l41.621 40.806-9.833 57.635c-.153 1.077-.229 1.846-.229 2.306 0 1.614.4 2.977 1.2 4.093.8 1.115 2 1.671 3.601 1.671 1.372 0 2.897-.458 4.574-1.382l51.34-27.21 51.34 27.21c1.603.922 3.127 1.382 4.572 1.382 1.528 0 2.689-.555 3.489-1.671.799-1.115 1.199-2.479 1.199-4.093 0-.999-.038-1.767-.115-2.306l-9.834-57.635 41.506-40.806c1.985-1.998 2.974-3.843 2.974-5.533 0-2.844-2.133-4.611-6.405-5.303" fill="url(#3)"/></g></svg>