<svg xmlns="http://www.w3.org/2000/svg" xmlns:xlink="http://www.w3.org/1999/xlink" viewBox="0 0 64 64"><defs><linearGradient xlink:href="#1" id="3" x1="-19.915" y1="1048.7" x2="-19.996" y2="1025.51" gradientUnits="userSpaceOnUse"/><linearGradient gradientUnits="userSpaceOnUse" y2="354.29" x2="-704.05" y1="647.77" x1="-701.19" id="2"><stop stop-color="#93cfff"/><stop offset="1" stop-color="#cde8fe"/></linearGradient><linearGradient xlink:href="#1" id="0" x1="59.12" y1="-13.295" x2="59.15" y2="-37.783" gradientUnits="userSpaceOnUse" gradientTransform="matrix(4.17478 0 0 4.16765-1066.12 447.73)"/><linearGradient id="1"><stop stop-color="#289bf7"/><stop offset="1" stop-color="#71b9f1"/></linearGradient></defs><g transform="translate(51.949-1001.46)" fill="#2793f5"><path d="m-880.52 294.78c-4.626 0-8.349 3.718-8.349 8.335v161.41l461.02 1v-121.2c0-4.618-3.724-8.335-8.35-8.335h-265.48c-8.51.751-9.607-.377-13.812-5.981-5.964-7.968-14.969-21.443-20.84-29.21-4.712-6.805-5.477-6.02-13.292-6.02z" transform="matrix(.12614 0 0 .12614 63.09 973.66)" fill="url(#0)" color="#000"/><rect y="356.85" x="-890.28" height="295.13" width="463.85" transform="matrix(.12614 0 0 .12614 63.09 973.66)" fill="url(#2)" stroke="url(#2)" stroke-width="2.378" rx="9.63"/><path d="m-12.623 1035.66v-2.979c0-4.04-3.29-7.333-7.333-7.333-4.04 0-7.333 3.29-7.333 7.333v2.979c-.578.121-1.013.635-1.013 1.248v11.164c0 .703.572 1.275 1.276 1.275h14.14c.703 0 1.276-.572 1.276-1.275v-11.164c0-.613-.435-1.127-1.013-1.248m-5.62 9.517c.026.139-.067.251-.208.251h-2.977c-.14 0-.234-.113-.208-.251l.474-2.512c-.359-.327-.584-.799-.584-1.322 0-.988.801-1.789 1.789-1.789.988 0 1.789.801 1.789 1.789 0 .51-.213.969-.555 1.295zm3.069-9.544h-9.564v-2.952c0-2.637 2.145-4.782 4.782-4.782 2.637 0 4.782 2.145 4.782 4.782z" fill="url(#3)"/></g></svg>