<svg xmlns="http://www.w3.org/2000/svg" viewBox="0 0 48 48"><defs><linearGradient y1="545.8" x2="0" y2="517.8" gradientUnits="userSpaceOnUse"><stop stop-color="#3889e9"/><stop offset="1" stop-color="#5ea5fb"/></linearGradient><linearGradient id="0" gradientUnits="userSpaceOnUse" y1="545.14" x2="0" y2="518.14"><stop stop-color="#ff5a4e"/><stop offset="1" stop-color="#ff8077"/></linearGradient></defs><g transform="translate(-384.57-499.8)"><circle cx="400.57" cy="531.8" r="14" fill="url(#0)" transform="matrix(1.7143 0 0 1.7143-278.14-387.86)"/><g transform="matrix(.18399 0 0 .18399 260.28 400.65)" fill="#fff" fill-opacity=".85"><path d="m878.6 605.07c8.07 8.06-14.297 43.508-18.08 47.29-3.78 3.774-13.383.302-21.448-7.764-8.07-8.06-11.541-17.669-7.761-21.448 3.781-3.783 39.22-26.14 47.29-18.08"/><path d="m765.47 613.6c-12.314-6.987-29.839-14.761-35.414-9.187-5.648 5.647 2.41 23.566 9.47 35.904 6.283-10.924 15.225-20.12 25.944-26.717"/><path d="m866.29 649.58c1.135 3.848.928 7.02-.908 8.86-4.299 4.298-15.901-.276-26.362-10.233-.729-.653-1.454-1.333-2.167-2.046-3.78-3.784-6.725-7.813-8.607-11.522-3.663-6.572-4.58-12.377-1.81-15.15 1.508-1.508 3.923-1.919 6.868-1.389 1.92-1.214 4.186-2.568 6.674-3.953-10.111-5.273-21.603-8.252-33.799-8.252-40.441 0-73.23 32.781-73.23 73.23 0 40.44 32.786 73.23 73.23 73.23 40.442 0 73.23-32.784 73.23-73.23 0-13.06-3.427-25.308-9.416-35.926-1.295 2.362-2.553 4.526-3.702 6.381"/></g></g></svg>