<svg xmlns="http://www.w3.org/2000/svg" viewBox="0 0 48 48"><defs><linearGradient y1="545.8" x2="0" y2="517.8" gradientUnits="userSpaceOnUse"><stop stop-color="#3889e9"/><stop offset="1" stop-color="#5ea5fb"/></linearGradient><linearGradient id="0" gradientUnits="userSpaceOnUse" y1="545.14" x2="0" y2="518.14"><stop stop-color="#9662ff"/><stop offset="1" stop-color="#bc9bff"/></linearGradient></defs><g transform="matrix(1.03209 0 0 1.03209-397.94-516.76)"><circle r="14" cy="531.8" cx="400.57" fill="url(#0)" transform="matrix(1.66098 0 0 1.66098-256.54-359.36)"/><g transform="matrix(1.23959 0 0 1.23959-129.99-134.84)"><path transform="matrix(.03847 0 0 .03869 423.2 518.68)" d="m25.757 521.91c.068-26.26 22.392-62.92 54.11-96.23 21.2-22.26 42.731-41.8 89.66-81.81-32.47-17.81-82.955-39.31-108.29-67.45-9.371-10.42-26.361-34.01-23.07-65.53 6.717-64.25 86.02-161.75 198.74-182.36 37.504-6.859 80.56-1.908 116 14.02 111.18 49.984 247.15 174.16 263.88 234.79 5.888 21.342 4.757 55.36-5.395 74.32-12.581 23.498-56.14 71.23-115.72 120.47-93.5 77.27-224.52 160.25-322.35 174.21-31.611 4.511-63.908-.194-86.57-12.983-35.481-20.01-47.25-46.72-51.39-54.73-11-21.29-9.637-48.27-9.613-56.73z" fill="#fff" fill-rule="evenodd" fill-opacity=".85"/><ellipse rx="2.254" transform="matrix(.44099-.89751.89751.44099 0 0)" ry="2.705" cy="624.1" cx="-279.13" fill="#b088ff"/></g></g></svg>