<svg xmlns="http://www.w3.org/2000/svg" viewBox="0 0 48 48"><defs><clipPath><path d="m556.75 546.2h27.01v-29.575h-27.01v29.575"/></clipPath><clipPath><path d="m558.32 524.53h38.19v-12.815h-38.19v12.815"/></clipPath><clipPath><path d="m556.75 516.63c2.252 9.368 8.092 26.19 18.874 29.12 6.02 1.639 11.393-1.373 5.753-5.147-11.502-7.696-17.738-10.542-24.627-23.971"/></clipPath><clipPath><path d="m548.84 543.24h11.247v-38.495h-11.247v38.495"/></clipPath><clipPath><path d="m556.74 544.61h28.84v-27.979h-28.84v27.979"/></clipPath><clipPath><path d="m596.51 511.71c-7.452 6.109-22.261 15.989-32.626 11.818-5.793-2.332-8.254-7.974-1.48-7.577 13.816.809 20.506 2.306 34.11-4.241"/></clipPath><clipPath><path d="m547.05 542.87h13.05v-38.14h-13.05v38.14"/></clipPath><clipPath><path d="m0 792h612v-792h-612v792"/></clipPath><clipPath><path d="m596.5 511.72c-6.962 6.661-20.973 17.643-31.626 14.277-5.954-1.882-8.839-7.319-2.055-7.441 13.837-.25 20.622.731 33.681-6.836"/></clipPath><clipPath><path d="m558.89 526.62h37.604v-14.904h-37.604v14.904"/></clipPath><linearGradient id="0" gradientUnits="userSpaceOnUse" y1="545.14" x2="0" y2="518.14"><stop stop-color="#3985dd"/><stop offset="1" stop-color="#5cc4ff"/></linearGradient><linearGradient y1="545.8" x2="0" y2="517.8" gradientUnits="userSpaceOnUse"><stop stop-color="#3889e9"/><stop offset="1" stop-color="#5ea5fb"/></linearGradient></defs><g transform="translate(-384.57-499.8)"><circle r="14" cy="531.8" cx="400.57" fill="url(#0)" transform="matrix(1.71428 0 0 1.71428-278.14-387.85)"/><g transform="matrix(1.08333 0 0 1.08333 28.318-51.778)" fill="#def0fd" fill-rule="evenodd"><path d="m363.98 540.15c-3.974-3.795-11.971-10.05-18.05-8.134-3.398 1.072-5.04 4.17-1.173 4.239 7.898.142 11.77-.416 19.224 3.895"/><path d="m342.16 536.15c1.285-5.337 4.619-14.919 10.773-16.589 3.438-.934 6.503.782 3.284 2.932-6.565 4.385-10.124 6.01-14.06 13.657"/><path d="m345.48 543.3c-3.523-4.215-9.234-12.604-6.903-18.53 1.302-3.311 4.51-4.741 4.317-.88-.394 7.875-1.216 11.693 2.586 19.409"/></g></g></svg>