<svg xmlns="http://www.w3.org/2000/svg" viewBox="0 0 48 48"><defs><linearGradient y2="517.8" x2="0" y1="545.8" gradientUnits="userSpaceOnUse"><stop stop-color="#3889e9"/><stop offset="1" stop-color="#5ea5fb"/></linearGradient><linearGradient x1="-324.94" y1="649.74" x2="-328.21" y2="307.75" gradientUnits="userSpaceOnUse"><stop stop-color="#016ed4"/><stop offset="1" stop-color="#00b1ff"/></linearGradient><linearGradient gradientUnits="userSpaceOnUse" x1="346.57" y1="513.8" x2="361.57" y2="528.8"><stop stop-color="#2e5d89"/><stop offset="1" stop-color="#1b92f4"/></linearGradient><linearGradient gradientUnits="userSpaceOnUse" y2="516.48" x2="0" y1="546.93" id="0"><stop stop-color="#787dab"/><stop offset="1" stop-color="#a5aceb"/></linearGradient></defs><g transform="translate(-384.57-499.8)"><circle cx="400.57" cy="531.8" r="14" fill="url(#0)" stroke="url(#0)" stroke-width="1.427" transform="matrix(1.63106 0 0 1.63114-244.78-343.64)"/><path d="m416.41 512.5c-.856.082-1.764.232-2.711.432l-6 6.161c.688.083 1.318.219 1.892.412l6.822-7.01m4.227.346l-8.307 8.521c2.336 3.03 1.513 9.11-3.403 19.13 3.638-3.971 19.513-23.704 12.25-27.425-.169-.087-.353-.161-.539-.229m-11.07 1.201c-1.149.366-2.319.78-3.485 1.221l-3.973 4.075c.911-.148 1.776-.247 2.589-.3l4.868-4.996m-5.957 2.193c-7.248 2.982-13.73 6.624-13.73 6.624 3.851-1.443 7.328-2.522 10.363-3.169l3.368-3.454" fill="#fff" fill-opacity=".843"/></g></svg>