<svg xmlns="http://www.w3.org/2000/svg" viewBox="0 0 48 48"><defs><linearGradient y1="545.8" x2="0" y2="517.8" gradientUnits="userSpaceOnUse"><stop stop-color="#3889e9"/><stop offset="1" stop-color="#5ea5fb"/></linearGradient><linearGradient id="0" gradientUnits="userSpaceOnUse" y1="545.14" x2="0" y2="518.14"><stop stop-color="#4469b9"/><stop offset="1" stop-color="#5d91ff"/></linearGradient></defs><g transform="matrix(1.52735 0 0 1.52735-648.1-787.2)"><circle r="14" cy="531.8" cx="400.57" fill="url(#0)" transform="matrix(1.1224 0 0 1.1224-9.572-65.769)"/><g fill="#fff"><path d="m444.24 521.27c-3.189 0-5.774 2.585-5.774 5.774v3.062h-3.047c-3.189 0-5.774 2.572-5.774 5.761 0 3.189 2.585 5.774 5.774 5.774 3.188 0 5.773-2.585 5.773-5.774v-3.075h3.048c3.188 0 5.773-2.56 5.773-5.748 0-3.189-2.585-5.774-5.773-5.774m-5.774 14.6c-.002 1.68-1.366 3.042-3.047 3.042-1.683 0-3.06-1.364-3.06-3.047 0-1.684 1.377-3.073 3.06-3.073h2.617c.238 0 .43.192.43.43v2.647zm5.773-5.766h-2.617c-.238 0-.43-.192-.43-.43v-2.635c.003-1.681 1.366-3.043 3.047-3.043 1.683 0 3.06 1.364 3.06 3.048 0 1.683-1.377 3.06-3.06 3.06" opacity=".2"/><path d="m438.46 530.12v-3.062c0-3.189 2.585-5.774 5.774-5.774.484 0 .827.055 1.275.172.653.171 1.186.706 1.187 1.329 0 .753-.546 1.3-1.363 1.3-.389 0-.53-.074-1.099-.074-1.681 0-3.045 1.362-3.047 3.043v2.635c0 .238.192.43.43.43h2c.746 0 1.348.597 1.349 1.345 0 .748-.603 1.344-1.349 1.344h-2.433v3.075c0 3.188-2.585 5.773-5.773 5.773-.484 0-.828-.055-1.275-.172-.653-.171-1.186-.706-1.187-1.329 0-.753.546-1.3 1.363-1.3.389 0 .53.075 1.099.075 1.681 0 3.045-1.362 3.048-3.042v-2.648c0-.237-.193-.43-.43-.43h-2c-.746 0-1.349-.595-1.349-1.343 0-.752.609-1.345 1.363-1.345h2.418" fill-opacity=".85"/></g></g></svg>