<svg xmlns="http://www.w3.org/2000/svg" viewBox="0 0 48 48"><defs><linearGradient y1="545.8" x2="0" y2="517.8" gradientUnits="userSpaceOnUse"><stop stop-color="#3889e9"/><stop offset="1" stop-color="#5ea5fb"/></linearGradient><linearGradient id="0" gradientUnits="userSpaceOnUse" x1="396.12" y1="544.26" x2="395.64" y2="518.27"><stop stop-color="#030303"/><stop offset="1" stop-color="#383838"/></linearGradient><linearGradient id="1" x1="270.91" y1="568.02" x2="270.4" y2="536.48" gradientUnits="userSpaceOnUse"><stop stop-color="#197cf1"/><stop offset="1" stop-color="#20bcfa"/></linearGradient></defs><circle cx="400.57" cy="531.8" r="14" fill="url(#0)" transform="matrix(1.71429 0 0 1.71429-662.72-887.65)"/><path d="m265.72 566.04c2.445 1.098 4.691 1.697 7.186 1.697 6.837 0 11.228-3.643 11.228-9.03 0-4.591-2.894-7.336-8.583-8.08l-3.892-.499c-3.743-.499-5.589-1.946-5.589-4.391 0-3.094 2.645-5.29 6.637-5.29 2.595 0 4.691.998 5.739 2.545 1.048 1.547.749 3.344 2.695 3.344 1.148 0 1.846-.649 1.846-1.797 0-.1 0-.15 0-.25l-.349-5.09c-.1-1.297-.25-1.846-1.996-1.846-1.098 0-1.547.299-1.547 1.248-2.246-.898-4.192-1.447-6.188-1.447-6.288 0-10.779 3.942-10.779 8.783 0 4.891 3.194 7.236 9.681 8.134l3.593.499c3.094.449 4.741 2.046 4.741 4.591 0 2.994-2.745 5.29-7.086 5.29-3.493 0-6.04-1.397-7.086-3.543-.898-1.797-.649-3.693-2.695-3.693-1.497 0-1.896.699-1.896 2.096 0 .15 0 .299 0 .499l.299 5.639c.1 1.747.699 2.545 2.096 2.545 1.347 0 1.797-.499 1.946-1.946" transform="matrix(1.0077 0 0 .9079-250.84-477.67)" fill="url(#1)"/></svg>