<svg xmlns="http://www.w3.org/2000/svg" xmlns:xlink="http://www.w3.org/1999/xlink" viewBox="0 0 48 48"><defs><linearGradient y2="517.8" x2="0" y1="545.8" gradientUnits="userSpaceOnUse"><stop stop-color="#3889e9"/><stop offset="1" stop-color="#5ea5fb"/></linearGradient><linearGradient gradientUnits="userSpaceOnUse" y2="500.88" x2="409.88" y1="547.13" x1="409.76" id="2" xlink:href="#0"/><linearGradient x1="-324.94" y1="649.74" x2="-328.21" y2="307.75" gradientUnits="userSpaceOnUse"><stop stop-color="#016ed4"/><stop offset="1" stop-color="#00b1ff"/></linearGradient><linearGradient gradientUnits="userSpaceOnUse" x1="346.57" y1="513.8" x2="361.57" y2="528.8"><stop stop-color="#2e5d89"/><stop offset="1" stop-color="#1b92f4"/></linearGradient><linearGradient id="0"><stop stop-color="#9662ff"/><stop offset="1" stop-color="#bc9bff"/></linearGradient><linearGradient gradientUnits="userSpaceOnUse" y2="516.48" x2="0" y1="546.93" id="1" xlink:href="#0"/></defs><g transform="translate(-384.57-499.8)"><circle cx="400.57" cy="531.8" r="14" fill="url(#1)" stroke="url(#1)" stroke-width="1.427" transform="matrix(1.63106 0 0 1.63114-244.78-343.64)"/><path d="m390.87 510.87c0-4.517 2.785-8.384 6.732-9.977 3.03-1.058 5.56.631 5.955 1.083.458.525-.057.974-.057.974 2.033-.2 3.207-2.138 3.207-2.138 0 0-.573.391-1.164.601-.592.21-1.403.124-1.079-.096.324-.22.478-.796.478-.796-.816.537-1.611.236-1.611.236-1.439-1.074-3.264-1.46-3.264-1.46 1.374-.752 3.03-.816 3.03-.816.236 1.01-.58 1.374-.58 1.374 1.331-.129 2.02-.966 2.02-.966.15.794-.58 1.439-.58 1.439 1.503-.193 2.02-1.074 2.02-1.074.236.494-.042 1.701-.042 1.701 2.147-1.044 2.655-3.728 2.655-3.728-3.162 1.372-7.397-3.549-7.397-3.549-3.609-.09-6.502-4.743-6.502-4.743-.883 3.484.94 6.392 1.106 6.648-5.844 1.805-9.377 5.738-9.336 12.13" fill-opacity=".681" transform="matrix(1.45885 0 0 1.45885-175.58-204.99)"/><ellipse ry="22.836" rx="22.836" cx="408.57" cy="523.8" fill="none" stroke="url(#2)" stroke-width="2.328"/></g></svg>