<svg xmlns="http://www.w3.org/2000/svg" xmlns:xlink="http://www.w3.org/1999/xlink" viewBox="0 0 64 64"><defs><linearGradient xlink:href="#1" id="3" x1="-423.69" y1="447.89" x2="-422.39" y2="290.14" gradientUnits="userSpaceOnUse"/><linearGradient gradientUnits="userSpaceOnUse" y2="354.29" x2="-704.05" y1="647.77" x1="-701.19" id="2"><stop stop-color="#93cfff"/><stop offset="1" stop-color="#cde8fe"/></linearGradient><linearGradient xlink:href="#1" id="0" x1="59.12" y1="-13.295" x2="59.15" y2="-37.783" gradientUnits="userSpaceOnUse" gradientTransform="matrix(4.17478 0 0 4.16765-1066.12 447.73)"/><linearGradient id="1"><stop stop-color="#289bf7"/><stop offset="1" stop-color="#71b9f1"/></linearGradient></defs><g transform="matrix(.12614 0 0 .12614 85.51-10.1)"><path d="m-880.52 294.78c-4.626 0-8.349 3.718-8.349 8.335v161.41l461.02 1v-121.2c0-4.618-3.724-8.335-8.35-8.335h-265.48c-8.51.751-9.607-.377-13.812-5.981-5.964-7.968-14.969-21.443-20.84-29.21-4.712-6.805-5.477-6.02-13.292-6.02z" transform="translate(234.13-140.27)" fill="url(#0)" color="#000"/><rect y="356.85" x="-890.28" height="295.13" width="463.85" transform="translate(234.13-140.27)" fill="url(#2)" stroke="url(#2)" stroke-width="2.378" rx="9.63"/><path d="m-342.57 300.65c-8.989-8.861-21.411-13.29-37.27-13.29-4.388 0-8.866.768-13.431 2.303-4.566 1.536-8.813 3.61-12.74 6.217-3.929 2.607-7.307 5.055-10.14 7.342-2.831 2.286-5.52 4.716-8.07 7.288-2.549-2.572-5.239-5-8.07-7.288-2.832-2.286-6.211-4.733-10.14-7.342-3.929-2.609-8.176-4.68-12.741-6.217-4.565-1.535-9.04-2.303-13.431-2.303-15.856 0-28.28 4.431-37.27 13.29-8.989 8.86-13.484 21.15-13.484 36.868 0 4.787.833 9.719 2.496 14.79 1.663 5.072 3.558 9.396 5.681 12.968 2.123 3.572 4.53 7.06 7.22 10.45 2.69 3.394 4.655 5.733 5.893 7.02 1.238 1.285 2.212 2.214 2.919 2.785l66.25 64.52c1.275 1.288 2.832 1.931 4.672 1.931 1.84 0 3.397-.643 4.672-1.928l66.15-64.31c16.209-16.361 24.314-32.437 24.314-48.23 0-15.719-4.496-28.01-13.485-36.868" fill="url(#3)"/></g></svg>