<?xml version="1.0" encoding="UTF-8" standalone="no"?>
<svg
   xmlns:dc="http://purl.org/dc/elements/1.1/"
   xmlns:cc="http://creativecommons.org/ns#"
   xmlns:rdf="http://www.w3.org/1999/02/22-rdf-syntax-ns#"
   xmlns:svg="http://www.w3.org/2000/svg"
   xmlns="http://www.w3.org/2000/svg"
   xmlns:xlink="http://www.w3.org/1999/xlink"
   xmlns:sodipodi="http://sodipodi.sourceforge.net/DTD/sodipodi-0.dtd"
   xmlns:inkscape="http://www.inkscape.org/namespaces/inkscape"
   viewBox="0 0 64 64"
   id="svg2"
   version="1.1"
   inkscape:version="0.92.1 r15371"
   sodipodi:docname="folder-pictures.svg"
   width="68.26667"
   height="68.26667">
  <metadata
     id="metadata28">
    <rdf:RDF>
      <cc:Work
         rdf:about="">
        <dc:format>image/svg+xml</dc:format>
        <dc:type
           rdf:resource="http://purl.org/dc/dcmitype/StillImage" />
      </cc:Work>
    </rdf:RDF>
  </metadata>
  <sodipodi:namedview
     pagecolor="#ffffff"
     bordercolor="#666666"
     borderopacity="1"
     objecttolerance="10"
     gridtolerance="10"
     guidetolerance="10"
     inkscape:pageopacity="0"
     inkscape:pageshadow="2"
     inkscape:window-width="1366"
     inkscape:window-height="695"
     id="namedview26"
     showgrid="false"
     inkscape:zoom="3.6875"
     inkscape:cx="-14.101695"
     inkscape:cy="32"
     inkscape:window-x="0"
     inkscape:window-y="0"
     inkscape:window-maximized="1"
     inkscape:current-layer="svg2" />
  <defs
     id="defs4">
    <linearGradient
       xlink:href="#1"
       id="3"
       x1="167.58"
       y1="26.964001"
       x2="167.7"
       y2="-19.476"
       gradientUnits="userSpaceOnUse"
       gradientTransform="matrix(0.4922,0,0,0.4922,-50.18,33.912)" />
    <linearGradient
       gradientUnits="userSpaceOnUse"
       y2="354.29001"
       x2="-704.04999"
       y1="647.77002"
       x1="-701.19"
       id="2"
       gradientTransform="matrix(0.01591156,0,0,0.01591156,129.55872,-31.295675)">
      <stop
         stop-color="#93cfff"
         id="stop8" />
      <stop
         offset="1"
         stop-color="#cde8fe"
         id="stop10" />
    </linearGradient>
    <linearGradient
       xlink:href="#1"
       id="0"
       x1="59.119999"
       y1="-13.295"
       x2="59.150002"
       y2="-37.783001"
       gradientUnits="userSpaceOnUse"
       gradientTransform="matrix(0.52661101,0,0,0.52571162,-19.434844,28.686927)" />
    <linearGradient
       id="1">
      <stop
         stop-color="#289bf7"
         id="stop14" />
      <stop
         offset="1"
         stop-color="#71b9f1"
         id="stop16" />
    </linearGradient>
  </defs>
  <path
     inkscape:connector-curvature="0"
     style="color:#000000;fill:#92e5d5;fill-opacity:1"
     id="path20"
     d="m 3.9769291,9.3936579 c -0.5835284,0 -1.0531514,0.4689923 -1.0531514,1.0513851 V 30.805465 L 61.077311,30.931606 V 15.643315 c 0,-0.58252 -0.469749,-1.051386 -1.053278,-1.051386 H 26.536115 c -1.07346,0.09473 -1.211837,-0.04756 -1.74226,-0.754449 C 24.04155,12.832388 22.905651,11.132638 22.165077,10.152901 21.5707,9.294511 21.474202,9.3935317 20.48841,9.3935317 Z" />
  <rect
     style="fill:#67d8c3;fill-opacity:1;stroke:none;stroke-width:0.29996336"
     id="rect22"
     rx="1.214738"
     width="58.510513"
     height="37.228001"
     x="2.7457891"
     y="17.223232" />
  <path
     inkscape:connector-curvature="0"
     style="fill:#ffffff;fill-opacity:1"
     id="path24"
     d="m 31.973102,23.837158 c -0.425753,0.497122 -3.159432,2.165188 -3.621115,2.449187 -1.135998,0.851999 -1.491366,2.093819 -1.419997,2.697256 0.01723,0.145692 0.03642,0.284984 0.06251,0.423785 0.0571,0.0315 0.108284,0.07383 0.150613,0.128956 l 4.080338,5.33594 c 0.08466,-0.02855 0.167348,-0.06103 0.255944,-0.08023 V 32.81833 c 0,-0.272187 0.220014,-0.4922 0.4922,-0.4922 0.272187,0 0.4922,0.220013 0.4922,0.4922 v 1.978644 c 0.150613,0.03199 0.293844,0.07728 0.43166,0.136831 l 4.068525,-5.609603 c 0.0187,-0.110745 0.03249,-0.221982 0.04676,-0.337649 0.07088,-0.603438 -0.284,-1.845258 -1.419997,-2.697256 -0.461684,-0.284 -3.192902,-1.952066 -3.619147,-2.449188 m 7.379063,5.710997 c -0.536991,-0.05906 -0.999166,0.01772 -1.275291,0.144707 -0.08712,0.04036 -0.171285,0.08121 -0.253975,0.12305 l -4.129066,5.693277 c 0.111238,0.121574 0.206232,0.254468 0.288922,0.396713 l 1.888571,-0.613281 c 0.256929,-0.08417 0.534529,0.05759 0.619188,0.316485 0.08417,0.257913 -0.05759,0.53699 -0.316485,0.621156 l -1.888571,0.613281 c 0.0079,0.07826 0.02559,0.153567 0.02559,0.234288 0,0.0079 -0.0039,0.01575 -0.0039,0.02362 l 6.623043,2.226713 c 0.08663,-0.01427 0.173746,-0.03052 0.26185,-0.04873 0.596054,-0.119112 1.666589,-0.839201 2.124828,-2.183399 0.127972,-0.526654 0.869717,-3.640803 1.210812,-4.19945 -0.602945,-0.251515 -3.034413,-2.336474 -3.4454,-2.687412 -0.580304,-0.408526 -1.191617,-0.601469 -1.728607,-0.660041 m -14.695615,0.08614 c -0.53699,0.05906 -1.149779,0.251515 -1.730575,0.660041 -0.412464,0.350938 -2.845409,2.433929 -3.450322,2.685443 0.341094,0.558647 1.083332,3.675257 1.210812,4.201419 0.459222,1.343706 1.531234,2.064287 2.126796,2.183399 0.13437,0.02707 0.264311,0.04873 0.394744,0.06645 l 6.442898,-2.17011 c -4.92e-4,-0.06202 -0.01772,-0.120589 -0.01772,-0.18359 0,-0.08023 0.01575,-0.157996 0.02363,-0.236256 l -1.888572,-0.613281 c -0.258405,-0.08417 -0.400158,-0.360291 -0.316484,-0.619188 0.08367,-0.258897 0.361274,-0.399666 0.619187,-0.316485 l 1.888572,0.613282 c 0.113698,-0.193927 0.249545,-0.372104 0.411971,-0.525178 l -4.009953,-5.24636 c -0.04331,-0.0571 -0.07088,-0.120096 -0.08614,-0.185559 -0.112714,-0.06005 -0.226905,-0.116651 -0.347494,-0.171778 -0.275632,-0.126987 -0.736331,-0.20131 -1.273321,-0.142738 m 7.316553,6.088022 c -0.03298,0 -0.06546,0.0074 -0.09746,0.0098 -0.227396,0.01624 -0.43855,0.08613 -0.621156,0.20131 -0.0089,0.0054 -0.0192,0.0098 -0.02756,0.01575 -0.09352,0.06202 -0.174731,0.137816 -0.250038,0.220506 -0.219029,0.240686 -0.357337,0.55717 -0.357337,0.908109 0,0.123542 0.02166,0.239701 0.05267,0.353399 0.003,0.01034 0.0069,0.02067 0.0098,0.03101 0.166856,0.558647 0.679236,0.96865 1.291041,0.96865 0.01083,0 0.02067,-0.0034 0.0315,-0.0039 0.01083,0 0.02264,-0.0015 0.03298,-0.002 0.594086,-0.02806 1.084809,-0.439534 1.236407,-0.994244 0.003,-0.01034 0.0054,-0.02018 0.0079,-0.03101 0.02609,-0.104347 0.04479,-0.212139 0.04479,-0.32436 0,-0.445933 -0.219521,-0.83674 -0.552741,-1.083825 -0.0089,-0.0064 -0.01526,-0.01378 -0.02362,-0.01969 -0.220998,-0.155535 -0.487278,-0.250037 -0.777184,-0.250037 m 2.111538,2.341887 c -0.09696,0.207709 -0.22592,0.396221 -0.377025,0.564554 l 1.166022,1.605556 c 0.159965,0.220014 0.113206,0.528131 -0.1073,0.687604 -0.08761,0.06349 -0.18802,0.09204 -0.288921,0.09204 -0.152582,0 -0.303196,-0.0694 -0.400159,-0.20131 l -1.162084,-1.601619 c -0.109761,0.04922 -0.224936,0.08367 -0.343556,0.115175 v 6.882925 c 0.03888,0.07432 0.07826,0.148644 0.121081,0.224443 0.297289,0.529607 1.314667,1.325987 2.734171,1.347644 0.539944,-0.04134 3.732353,-0.297781 4.36926,-0.146676 0.05168,-0.652657 1.282673,-3.60881 1.486444,-4.109378 0.418862,-1.357487 -0.02461,-2.57076 -0.437566,-3.017678 -0.08121,-0.08761 -0.163903,-0.171778 -0.248069,-0.253975 L 34.083188,38.06711 m -4.148261,0.14077 -6.523619,2.19718 c -0.05119,0.05217 -0.101393,0.106316 -0.152582,0.161934 -0.411971,0.446426 -0.855936,1.661175 -0.437566,3.017678 0.206232,0.50106 1.438209,3.455244 1.491366,4.109378 0.636907,-0.15209 3.826855,0.105331 4.367291,0.146676 1.419505,-0.02166 2.436882,-0.818037 2.734171,-1.347644 0.06152,-0.10976 0.118128,-0.217552 0.171778,-0.326328 v -6.786946 c -0.194912,-0.03248 -0.380963,-0.08466 -0.556679,-0.161934 l -1.162084,1.597681 c -0.09598,0.133386 -0.2461,0.203279 -0.398682,0.203279 -0.100409,0 -0.20131,-0.03002 -0.288921,-0.09352 -0.219521,-0.158981 -0.269234,-0.467098 -0.109269,-0.687604 l 1.166022,-1.605556 C 30.119994,38.502705 30.02057,38.361444 29.935419,38.20837 Z" />
</svg>
