<svg xmlns="http://www.w3.org/2000/svg" xmlns:xlink="http://www.w3.org/1999/xlink" viewBox="0 0 64 64"><defs><linearGradient xlink:href="#1" id="3" x1="142.86" y1="262.96" x2="151.78" y2="129.09" gradientUnits="userSpaceOnUse"/><linearGradient gradientUnits="userSpaceOnUse" y2="354.29" x2="-704.05" y1="647.77" x1="-701.19" id="2"><stop stop-color="#93cfff"/><stop offset="1" stop-color="#cde8fe"/></linearGradient><linearGradient xlink:href="#1" id="0" x1="59.12" y1="-13.295" x2="59.15" y2="-37.783" gradientUnits="userSpaceOnUse" gradientTransform="matrix(4.17478 0 0 4.16765-1066.12 447.73)"/><linearGradient id="1"><stop stop-color="#289bf7"/><stop offset="1" stop-color="#71b9f1"/></linearGradient></defs><g transform="matrix(.17024 0 0 .17024 4.289 2.212)" fill="#60aae5"><path d="m-880.52 294.78c-4.626 0-8.349 3.718-8.349 8.335v161.41l461.02 1v-121.2c0-4.618-3.724-8.335-8.35-8.335h-265.48c-8.51.751-9.607-.377-13.812-5.981-5.964-7.968-14.969-21.443-20.84-29.21-4.712-6.805-5.477-6.02-13.292-6.02z" transform="matrix(.74095 0 0 .74095 650.61-176.22)" fill="url(#0)" color="#000"/><rect y="356.85" x="-890.28" height="295.13" width="463.85" transform="matrix(.74095 0 0 .74095 650.61-176.22)" fill="url(#2)" stroke="url(#2)" stroke-width="2.378" rx="9.63"/><path d="m182.19 128.27c-.455-.003-.912.078-1.342.252-.86.349-1.555 1.027-1.916 1.882l-54.989 130.08c-.753 1.78.078 3.836 1.859 4.589l9.213 3.901c.435.185.89.275 1.354.275.447 0 .897-.093 1.319-.264.86-.349 1.542-1.027 1.904-1.882l55-130.08c.752-1.78-.079-3.836-1.859-4.589l-9.213-3.889c-.427-.181-.875-.272-1.331-.275m-65.14 24.322c-.886-.128-1.819.086-2.593.665l-52.16 38.996c-.883.66-1.411 1.707-1.411 2.811 0 1.104.528 2.139 1.411 2.799l52.16 39.01c.628.471 1.359.7 2.088.7 1.066 0 2.124-.492 2.811-1.411l5.989-8.01c.556-.745.797-1.674.665-2.593-.133-.919-.634-1.75-1.377-2.306l-37.7-28.19 37.7-28.2c.743-.556 1.244-1.376 1.377-2.295.132-.919-.108-1.859-.665-2.604l-5.989-8.01c-.579-.774-1.42-1.237-2.306-1.365m84.44 0c-.886.128-1.727.592-2.306 1.365l-5.989 8.01c-.556.744-.786 1.685-.654 2.604.133.918.621 1.739 1.365 2.295l37.7 28.2-37.7 28.19c-.744.556-1.232 1.388-1.365 2.306-.132.919.097 1.849.654 2.593l5.989 8.01c.688.919 1.745 1.411 2.811 1.411.729 0 1.459-.23 2.088-.7l52.16-39.01c.883-.66 1.411-1.695 1.411-2.799 0-1.104-.528-2.151-1.411-2.811l-52.16-38.996c-.774-.579-1.707-.793-2.593-.665" fill="url(#3)"/></g></svg>