<?xml version="1.0" encoding="UTF-8" standalone="no"?>
<svg
   xmlns:dc="http://purl.org/dc/elements/1.1/"
   xmlns:cc="http://creativecommons.org/ns#"
   xmlns:rdf="http://www.w3.org/1999/02/22-rdf-syntax-ns#"
   xmlns:svg="http://www.w3.org/2000/svg"
   xmlns="http://www.w3.org/2000/svg"
   xmlns:xlink="http://www.w3.org/1999/xlink"
   xmlns:sodipodi="http://sodipodi.sourceforge.net/DTD/sodipodi-0.dtd"
   xmlns:inkscape="http://www.inkscape.org/namespaces/inkscape"
   viewBox="0 0 64 64"
   id="svg2"
   version="1.1"
   inkscape:version="0.92.1 r15371"
   sodipodi:docname="folder-download.svg"
   width="68.26667"
   height="68.26667">
  <metadata
     id="metadata28">
    <rdf:RDF>
      <cc:Work
         rdf:about="">
        <dc:format>image/svg+xml</dc:format>
        <dc:type
           rdf:resource="http://purl.org/dc/dcmitype/StillImage" />
      </cc:Work>
    </rdf:RDF>
  </metadata>
  <sodipodi:namedview
     pagecolor="#ffffff"
     bordercolor="#666666"
     borderopacity="1"
     objecttolerance="10"
     gridtolerance="10"
     guidetolerance="10"
     inkscape:pageopacity="0"
     inkscape:pageshadow="2"
     inkscape:window-width="1366"
     inkscape:window-height="695"
     id="namedview26"
     showgrid="false"
     inkscape:zoom="3.6875"
     inkscape:cx="-58.305085"
     inkscape:cy="32"
     inkscape:window-x="0"
     inkscape:window-y="0"
     inkscape:window-maximized="1"
     inkscape:current-layer="svg2" />
  <defs
     id="defs4">
    <linearGradient
       xlink:href="#1"
       id="3"
       x1="243.91"
       y1="557.25"
       x2="231.11"
       y2="-25.615999"
       gradientUnits="userSpaceOnUse"
       gradientTransform="matrix(0.03922,0,0,0.03922,22.2,25.445)" />
    <linearGradient
       gradientUnits="userSpaceOnUse"
       y2="354.29001"
       x2="-704.04999"
       y1="647.77002"
       x1="-701.19"
       id="2"
       gradientTransform="matrix(0.0159146,0,0,0.0159146,129.56415,-31.296978)"
       xlink:href="#1">
      <stop
         stop-color="#93cfff"
         id="stop8" />
      <stop
         offset="1"
         stop-color="#cde8fe"
         id="stop10" />
    </linearGradient>
    <linearGradient
       xlink:href="#1"
       id="0"
       x1="59.119999"
       y1="-13.295"
       x2="59.150002"
       y2="-37.783001"
       gradientUnits="userSpaceOnUse"
       gradientTransform="matrix(0.5266614,0,0,0.52576193,-19.444122,28.691472)" />
    <linearGradient
       id="1">
      <stop
         stop-color="#289bf7"
         id="stop14" />
      <stop
         offset="1"
         stop-color="#71b9f1"
         id="stop16" />
    </linearGradient>
  </defs>
  <path
     inkscape:connector-curvature="0"
     style="color:#000000;fill:#94e391;fill-opacity:1"
     id="path20"
     d="m 3.9698912,9.3963569 c -0.5835842,0 -1.0532522,0.4690372 -1.0532522,1.0514861 v 20.36237 l 58.159098,0.126153 V 15.646612 c 0,-0.582575 -0.469795,-1.051486 -1.053379,-1.051486 H 26.531236 c -1.073563,0.09474 -1.211953,-0.04756 -1.742427,-0.754522 -0.752377,-1.005188 -1.888385,-2.705101 -2.62903,-3.684932 -0.594433,-0.8584715 -0.69094,-0.7594413 -1.676827,-0.7594413 z" />
  <rect
     style="fill:#80db7b;fill-opacity:1;stroke:none;stroke-width:0.29999205"
     id="rect22"
     rx="1.2148542"
     width="58.516113"
     height="37.231564"
     x="2.7386334"
     y="17.226681" />
  <path
     inkscape:connector-curvature="0"
     style="fill:#ffffff;fill-opacity:1"
     id="path24"
     d="m 31.597112,24.444694 c -6.627788,0 -12.00132,5.372748 -12.00132,12.00132 0,6.628572 5.373532,12.00132 12.00132,12.00132 6.627788,0 12.00132,-5.373532 12.00132,-12.00132 0,-6.627788 -5.372748,-12.00132 -12.00132,-12.00132 m 0,6.209702 c 0.447265,0 0.808677,0.363374 0.808677,0.810639 v 8.577021 l 3.340368,-3.340367 c 0.316897,-0.316113 0.82911,-0.314937 1.146792,0.002 0.316898,0.316113 0.316898,0.827935 0,1.144832 l -4.582464,4.584426 c -0.194453,0.19359 -0.461777,0.253518 -0.71302,0.208964 -0.252028,0.04455 -0.518528,-0.01455 -0.71302,-0.209003 l -4.582464,-4.584426 c -0.316898,-0.316113 -0.316898,-0.827934 0,-1.144832 0.316113,-0.316898 0.827934,-0.316898 1.144831,0 l 3.340368,3.338406 v -8.577021 c 0,-0.447265 0.363373,-0.810639 0.810638,-0.810639" />
</svg>
