<?xml version="1.0" encoding="UTF-8" standalone="no"?>
<svg
   xmlns:dc="http://purl.org/dc/elements/1.1/"
   xmlns:cc="http://creativecommons.org/ns#"
   xmlns:rdf="http://www.w3.org/1999/02/22-rdf-syntax-ns#"
   xmlns:svg="http://www.w3.org/2000/svg"
   xmlns="http://www.w3.org/2000/svg"
   xmlns:xlink="http://www.w3.org/1999/xlink"
   xmlns:sodipodi="http://sodipodi.sourceforge.net/DTD/sodipodi-0.dtd"
   xmlns:inkscape="http://www.inkscape.org/namespaces/inkscape"
   viewBox="0 0 64 64"
   id="svg2"
   version="1.1"
   inkscape:version="0.92.1 r15371"
   sodipodi:docname="folder-gdrive.svg"
   width="68.26667"
   height="68.26667">
  <metadata
     id="metadata28">
    <rdf:RDF>
      <cc:Work
         rdf:about="">
        <dc:format>image/svg+xml</dc:format>
        <dc:type
           rdf:resource="http://purl.org/dc/dcmitype/StillImage" />
      </cc:Work>
    </rdf:RDF>
  </metadata>
  <sodipodi:namedview
     pagecolor="#ffffff"
     bordercolor="#666666"
     borderopacity="1"
     objecttolerance="10"
     gridtolerance="10"
     guidetolerance="10"
     inkscape:pageopacity="0"
     inkscape:pageshadow="2"
     inkscape:window-width="1366"
     inkscape:window-height="695"
     id="namedview26"
     showgrid="false"
     inkscape:zoom="3.6875"
     inkscape:cx="-14.101695"
     inkscape:cy="32"
     inkscape:window-x="0"
     inkscape:window-y="0"
     inkscape:window-maximized="1"
     inkscape:current-layer="svg2" />
  <defs
     id="defs4">
    <linearGradient
       xlink:href="#1"
       id="3"
       x1="-424.64999"
       y1="459.85999"
       x2="-425.09"
       y2="276.04999"
       gradientUnits="userSpaceOnUse"
       gradientTransform="matrix(0.12614,0,0,0.12614,85.51,-10.1)" />
    <linearGradient
       gradientUnits="userSpaceOnUse"
       y2="354.29001"
       x2="-704.04999"
       y1="647.77002"
       x1="-701.19"
       id="2"
       gradientTransform="matrix(0.0159113,0,0,0.0159113,129.5547,-31.29955)">
      <stop
         stop-color="#93cfff"
         id="stop8" />
      <stop
         offset="1"
         stop-color="#cde8fe"
         id="stop10" />
    </linearGradient>
    <linearGradient
       xlink:href="#1"
       id="0"
       x1="59.119999"
       y1="-13.295"
       x2="59.150002"
       y2="-37.783001"
       gradientUnits="userSpaceOnUse"
       gradientTransform="matrix(0.52660675,0,0,0.52570737,-19.437217,28.683004)" />
    <linearGradient
       id="1">
      <stop
         stop-color="#289bf7"
         id="stop14" />
      <stop
         offset="1"
         stop-color="#71b9f1"
         id="stop16" />
    </linearGradient>
  </defs>
  <path
     inkscape:connector-curvature="0"
     style="color:#000000;fill:#47c678;fill-opacity:1"
     id="path20"
     d="m 3.9743672,9.3898912 c -0.5835236,0 -1.0531429,0.4689885 -1.0531429,1.0513768 v 20.360257 l 58.1530627,0.12614 V 15.639497 c 0,-0.582514 -0.469745,-1.051376 -1.053269,-1.051376 H 26.533371 c -1.073451,0.09473 -1.211827,-0.04755 -1.742246,-0.754444 -0.752299,-1.005083 -1.888189,-2.70482 -2.628757,-3.684549 C 21.567996,9.2907452 21.471499,9.3897651 20.485715,9.3897651 Z" />
  <rect
     style="fill:#0dc078;fill-opacity:1;stroke:none;stroke-width:0.29996091"
     id="rect22"
     rx="1.2147282"
     width="58.51004"
     height="37.227699"
     x="2.743237"
     y="17.219402" />
  <path
     inkscape:connector-curvature="0"
     style="fill:#ffffff;fill-opacity:1"
     id="path24"
     d="m 23.685002,47.297484 8.049624,-13.918287 c 0,0 -2.314165,-4.10283 -3.510729,-6.143018 -0.158179,-0.269688 -0.380942,-0.709033 -0.585541,-1.02514 -0.171172,-0.26502 -0.280788,-0.475926 -0.280788,-0.475926 0,0 -0.0251,-0.02207 -0.03772,0 -2.67934,4.687362 -8.038145,14.130202 -8.038145,14.130202 l 4.403295,7.432295 m 0.445274,0.09902 h 15.976892 l 4.609156,-7.3527 -16.318732,-0.0169 -4.266938,7.37036 m 3.557148,-22.000077 h 8.857551 l 8.072582,14.205886 h -8.819457 l -8.10954,-14.205886" />
</svg>
