<?xml version="1.0" encoding="UTF-8" standalone="no"?>
<svg
   xmlns:dc="http://purl.org/dc/elements/1.1/"
   xmlns:cc="http://creativecommons.org/ns#"
   xmlns:rdf="http://www.w3.org/1999/02/22-rdf-syntax-ns#"
   xmlns:svg="http://www.w3.org/2000/svg"
   xmlns="http://www.w3.org/2000/svg"
   xmlns:xlink="http://www.w3.org/1999/xlink"
   xmlns:sodipodi="http://sodipodi.sourceforge.net/DTD/sodipodi-0.dtd"
   xmlns:inkscape="http://www.inkscape.org/namespaces/inkscape"
   viewBox="0 0 64 64"
   id="svg2"
   version="1.1"
   inkscape:version="0.92.1 r15371"
   sodipodi:docname="folder-mega.svg"
   width="68.26667"
   height="68.26667">
  <metadata
     id="metadata28">
    <rdf:RDF>
      <cc:Work
         rdf:about="">
        <dc:format>image/svg+xml</dc:format>
        <dc:type
           rdf:resource="http://purl.org/dc/dcmitype/StillImage" />
      </cc:Work>
    </rdf:RDF>
  </metadata>
  <sodipodi:namedview
     pagecolor="#ffffff"
     bordercolor="#666666"
     borderopacity="1"
     objecttolerance="10"
     gridtolerance="10"
     guidetolerance="10"
     inkscape:pageopacity="0"
     inkscape:pageshadow="2"
     inkscape:window-width="1366"
     inkscape:window-height="695"
     id="namedview26"
     showgrid="false"
     inkscape:zoom="3.6875"
     inkscape:cx="-58.305085"
     inkscape:cy="32"
     inkscape:window-x="0"
     inkscape:window-y="0"
     inkscape:window-maximized="1"
     inkscape:current-layer="svg2" />
  <defs
     id="defs4">
    <linearGradient
       xlink:href="#1"
       id="3"
       x1="-425.32999"
       y1="458.98999"
       x2="-423.10999"
       y2="275.54001"
       gradientUnits="userSpaceOnUse"
       gradientTransform="matrix(0.12614,0,0,0.12614,85.51,-10.1)" />
    <linearGradient
       gradientUnits="userSpaceOnUse"
       y2="354.29001"
       x2="-704.04999"
       y1="647.77002"
       x1="-701.19"
       id="2"
       gradientTransform="matrix(0.0159113,0,0,0.0159113,129.5547,-31.29955)">
      <stop
         stop-color="#93cfff"
         id="stop8" />
      <stop
         offset="1"
         stop-color="#cde8fe"
         id="stop10" />
    </linearGradient>
    <linearGradient
       xlink:href="#1"
       id="0"
       x1="59.119999"
       y1="-13.295"
       x2="59.150002"
       y2="-37.783001"
       gradientUnits="userSpaceOnUse"
       gradientTransform="matrix(0.52660675,0,0,0.52570737,-19.437217,28.683004)" />
    <linearGradient
       id="1">
      <stop
         stop-color="#289bf7"
         id="stop14" />
      <stop
         offset="1"
         stop-color="#71b9f1"
         id="stop16" />
    </linearGradient>
    <clipPath
       id="clipPath-619459513">
      <g
         transform="translate(0,-1004.3622)"
         id="g17">
        <path
           inkscape:connector-curvature="0"
           d="m -24,13 c 0,1.105 -0.672,2 -1.5,2 -0.828,0 -1.5,-0.895 -1.5,-2 0,-1.105 0.672,-2 1.5,-2 0.828,0 1.5,0.895 1.5,2 z"
           transform="matrix(15.333333,0,0,11.5,414.99999,878.8622)"
           style="fill:#1890d0"
           id="path19" />
      </g>
    </clipPath>
  </defs>
  <path
     inkscape:connector-curvature="0"
     style="color:#000000;fill:#e7383c;fill-opacity:1"
     id="path20"
     d="m 3.9743672,9.3898912 c -0.5835236,0 -1.0531429,0.4689885 -1.0531429,1.0513768 v 20.360257 l 58.1530627,0.12614 V 15.639497 c 0,-0.582514 -0.469745,-1.051376 -1.053269,-1.051376 H 26.533371 c -1.073451,0.09473 -1.211827,-0.04755 -1.742246,-0.754444 -0.752299,-1.005083 -1.888189,-2.70482 -2.628757,-3.684549 C 21.567996,9.2907452 21.471499,9.3897651 20.485715,9.3897651 Z" />
  <rect
     style="fill:#ec0112;fill-opacity:1;stroke:none;stroke-width:0.29996091"
     id="rect22"
     rx="1.2147282"
     width="58.51004"
     height="37.227699"
     x="2.743237"
     y="17.219402" />
  <path
     inkscape:connector-curvature="0"
     id="path4154"
     d="m 118.91525,13.610169 a 12.559322,12.01695 0 0 0 -12.55932,12.01695 12.559322,12.01695 0 0 0 12.55932,12.016948 12.559322,12.01695 0 0 0 12.55933,-12.016948 12.559322,12.01695 0 0 0 -12.55933,-12.01695 z m -7.17675,5.150121 h 3.58838 v 0.01013 l 0.004,-0.0033 3.58479,5.143426 3.58837,-5.150121 h 0.004 3.58479 v 13.733656 h -3.58838 v -6.866828 l -3.58837,3.433414 -3.58838,-3.433414 v 6.866828 h -3.58838 V 18.760425 Z"
     style="fill:#ffffff;fill-opacity:1" />
  <g
     transform="translate(8.8135564,11.525424)"
     id="g49">
    <g
       id="g51"
       clip-path="url(#clipPath-619459513)">
      <!-- color: #ed0112 -->
      <g
         id="g53">
        <path
           inkscape:connector-curvature="0"
           d="M 12,32 V 16 h 4 v 16 m -4,0"
           style="fill:#f9f9f9"
           id="path55" />
        <path
           inkscape:connector-curvature="0"
           d="M 32,32 V 16 h 4 v 16 m -4,0"
           style="fill:#f9f9f9"
           id="path57" />
        <path
           inkscape:connector-curvature="0"
           d="m 15,16 h 1 l 8,8 8,-8 h 1 v 4 l -8,7 h -2 l -8,-7 m 0,-4"
           style="fill:#f9f9f9"
           id="path59" />
      </g>
    </g>
  </g>
</svg>
