<?xml version="1.0" encoding="UTF-8" standalone="no"?>
<svg
   xmlns:dc="http://purl.org/dc/elements/1.1/"
   xmlns:cc="http://creativecommons.org/ns#"
   xmlns:rdf="http://www.w3.org/1999/02/22-rdf-syntax-ns#"
   xmlns:svg="http://www.w3.org/2000/svg"
   xmlns="http://www.w3.org/2000/svg"
   xmlns:xlink="http://www.w3.org/1999/xlink"
   xmlns:sodipodi="http://sodipodi.sourceforge.net/DTD/sodipodi-0.dtd"
   xmlns:inkscape="http://www.inkscape.org/namespaces/inkscape"
   viewBox="0 0 64 64"
   id="svg2"
   version="1.1"
   inkscape:version="0.92.1 r15371"
   sodipodi:docname="folder-video.svg"
   width="68.26667"
   height="68.26667">
  <metadata
     id="metadata28">
    <rdf:RDF>
      <cc:Work
         rdf:about="">
        <dc:format>image/svg+xml</dc:format>
        <dc:type
           rdf:resource="http://purl.org/dc/dcmitype/StillImage" />
      </cc:Work>
    </rdf:RDF>
  </metadata>
  <sodipodi:namedview
     pagecolor="#ffffff"
     bordercolor="#666666"
     borderopacity="1"
     objecttolerance="10"
     gridtolerance="10"
     guidetolerance="10"
     inkscape:pageopacity="0"
     inkscape:pageshadow="2"
     inkscape:window-width="1366"
     inkscape:window-height="695"
     id="namedview26"
     showgrid="false"
     inkscape:zoom="3.6875"
     inkscape:cx="-14.101695"
     inkscape:cy="32"
     inkscape:window-x="0"
     inkscape:window-y="0"
     inkscape:window-maximized="1"
     inkscape:current-layer="svg2" />
  <defs
     id="defs4">
    <linearGradient
       xlink:href="#1"
       id="3"
       x1="205.2"
       y1="394.60001"
       x2="202.64"
       y2="-39.585999"
       gradientUnits="userSpaceOnUse"
       gradientTransform="matrix(0.05899,0,0,0.05899,19.999,24.15)" />
    <linearGradient
       gradientUnits="userSpaceOnUse"
       y2="354.29001"
       x2="-704.04999"
       y1="647.77002"
       x1="-701.19"
       id="2"
       gradientTransform="matrix(0.01590879,0,0,0.01590879,129.54552,-31.294608)">
      <stop
         stop-color="#93cfff"
         id="stop8" />
      <stop
         offset="1"
         stop-color="#cde8fe"
         id="stop10" />
    </linearGradient>
    <linearGradient
       xlink:href="#1"
       id="0"
       x1="59.119999"
       y1="-13.295"
       x2="59.150002"
       y2="-37.783001"
       gradientUnits="userSpaceOnUse"
       gradientTransform="matrix(0.52656525,0,0,0.52566594,-19.43376,28.682697)" />
    <linearGradient
       id="1">
      <stop
         stop-color="#289bf7"
         id="stop14" />
      <stop
         offset="1"
         stop-color="#71b9f1"
         id="stop16" />
    </linearGradient>
  </defs>
  <path
     inkscape:connector-curvature="0"
     style="color:#000000;fill:#ef93fe;fill-opacity:1"
     id="path20"
     d="m 3.9759796,9.3911041 c -0.5834777,0 -1.0530599,0.4689515 -1.0530599,1.0512939 V 30.801051 L 61.0714,30.927181 V 15.640218 c 0,-0.582469 -0.469708,-1.051294 -1.053186,-1.051294 H 26.533206 c -1.073367,0.09472 -1.211732,-0.04755 -1.742109,-0.754384 -0.752239,-1.005004 -1.888041,-2.704607 -2.62855,-3.684259 C 21.568222,9.2919659 21.471732,9.390978 20.486026,9.390978 Z" />
  <rect
     style="fill:#e276f4;fill-opacity:1;stroke:none;stroke-width:0.29993728"
     id="rect22"
     rx="1.2146325"
     width="58.505428"
     height="37.224766"
     x="2.7449465"
     y="17.219997" />
  <path
     inkscape:connector-curvature="0"
     style="fill:#ffffff;fill-opacity:1"
     id="path24"
     d="m 22.12323,48.148312 h 19.751032 c 0.841079,0 1.529138,-0.687588 1.529138,-1.528195 v -20.94204 c 0,-0.838661 -0.68859,-1.528195 -1.529138,-1.528195 H 22.12323 c -0.842967,0 -1.530142,0.689534 -1.530142,1.528195 v 20.94204 c 0,0.840607 0.687175,1.528195 1.530142,1.528195 M 39.672755,26.019393 c 0,-0.253657 0.207645,-0.458411 0.458883,-0.458411 h 1.433693 c 0.253185,0 0.457939,0.204754 0.457939,0.458411 v 1.47652 c 0,0.253657 -0.204754,0.458411 -0.457939,0.458411 h -1.433693 c -0.251238,0 -0.458883,-0.204282 -0.458883,-0.458411 v -1.47652 m 0,3.755893 c 0,-0.253657 0.207645,-0.458883 0.458883,-0.458883 h 1.433693 c 0.253185,0 0.457939,0.205226 0.457939,0.458883 v 1.47652 c 0,0.253185 -0.204754,0.459827 -0.457939,0.459827 h -1.433693 c -0.251238,0 -0.458883,-0.206642 -0.458883,-0.459827 v -1.47652 m 0,3.758843 c 0,-0.253185 0.207645,-0.459827 0.458883,-0.459827 h 1.433693 c 0.253185,0 0.457939,0.206642 0.457939,0.459827 v 1.47711 c 0,0.251238 -0.204754,0.457939 -0.457939,0.457939 h -1.433693 c -0.251238,0 -0.458883,-0.206642 -0.458883,-0.457939 v -1.47711 m 0,3.755893 c 0,-0.253656 0.207645,-0.459827 0.458883,-0.459827 h 1.433693 c 0.253185,0 0.457939,0.206171 0.457939,0.459827 v 1.47711 c 0,0.253185 -0.204754,0.458411 -0.457939,0.458411 h -1.433693 c -0.251238,0 -0.458883,-0.205226 -0.458883,-0.458411 v -1.47711 m 0,3.755894 c 0,-0.253657 0.207645,-0.458411 0.458883,-0.458411 h 1.433693 c 0.253185,0 0.457939,0.204282 0.457939,0.458411 v 1.477699 c 0,0.252242 -0.204754,0.457468 -0.457939,0.457468 h -1.433693 c -0.251238,0 -0.458883,-0.205226 -0.458883,-0.457468 v -1.477699 m 0,3.755893 c 0,-0.252241 0.207645,-0.458411 0.458883,-0.458411 h 1.433693 c 0.253185,0 0.457939,0.20617 0.457939,0.458411 v 1.479469 c 0,0.250295 -0.204754,0.457468 -0.457939,0.457468 h -1.433693 c -0.251238,0 -0.458883,-0.206642 -0.458883,-0.457468 V 44.801809 M 25.89682,27.127225 c 0,-0.253657 0.206642,-0.458411 0.459827,-0.458411 h 11.284787 c 0.25177,0 0.45794,0.204754 0.45794,0.458411 v 7.311221 c 0,0.251238 -0.20617,0.459827 -0.45794,0.459827 H 26.356647 c -0.253185,0 -0.459827,-0.208589 -0.459827,-0.459827 -6e-6,0 -6e-6,-7.311221 -6e-6,-7.311221 m 0,11.274169 c 0,-0.251769 0.206642,-0.456995 0.459827,-0.456995 h 11.284787 c 0.25177,0 0.45794,0.205226 0.45794,0.456995 v 6.758484 c 0,0.252242 -0.20617,0.458412 -0.45794,0.458412 H 26.356641 c -0.253185,0 -0.459827,-0.20617 -0.459827,-0.458412 -6e-6,0 -6e-6,-6.758484 -6e-6,-6.758484 M 21.972794,26.018803 c 0,-0.253657 0.20617,-0.458411 0.458883,-0.458411 h 1.434224 c 0.251769,0 0.457467,0.204754 0.457467,0.458411 v 1.47652 c 0,0.253657 -0.205698,0.458411 -0.457467,0.458411 h -1.434224 c -0.252713,0 -0.458883,-0.204282 -0.458883,-0.458411 0,0 0,-1.47652 0,-1.47652 m 0,3.755893 c 0,-0.253657 0.20617,-0.458883 0.458883,-0.458883 h 1.434224 c 0.251769,0 0.457467,0.205226 0.457467,0.458883 v 1.47652 c 0,0.253185 -0.205698,0.459827 -0.457467,0.459827 h -1.434224 c -0.252713,0 -0.458883,-0.206642 -0.458883,-0.459827 0,0 0,-1.47652 0,-1.47652 m 0,3.758843 c 0,-0.253185 0.20617,-0.459827 0.458883,-0.459827 h 1.434224 c 0.251769,0 0.457467,0.206642 0.457467,0.459827 v 1.47711 c 0,0.251238 -0.205698,0.457939 -0.457467,0.457939 h -1.434224 c -0.252713,0 -0.458883,-0.206642 -0.458883,-0.457939 0,0 0,-1.47711 0,-1.47711 m 0,3.755894 c 0,-0.253657 0.20617,-0.459827 0.458883,-0.459827 h 1.434224 c 0.251769,0 0.457467,0.20617 0.457467,0.459827 v 1.477109 c 0,0.253185 -0.205698,0.458411 -0.457467,0.458411 h -1.434224 c -0.252713,0 -0.458883,-0.205226 -0.458883,-0.458411 0,0 0,-1.477109 0,-1.477109 m 0,3.755893 c 0,-0.253657 0.20617,-0.458411 0.458883,-0.458411 h 1.434224 c 0.251769,0 0.457467,0.204282 0.457467,0.458411 v 1.477699 c 0,0.252242 -0.205698,0.457468 -0.457467,0.457468 h -1.434224 c -0.252713,0 -0.458883,-0.205226 -0.458883,-0.457468 0,0 0,-1.477699 0,-1.477699 m 0,3.755893 c 0,-0.252241 0.20617,-0.458411 0.458883,-0.458411 h 1.434224 c 0.251769,0 0.457467,0.20617 0.457467,0.458411 v 1.479469 c 0,0.250295 -0.205698,0.457468 -0.457467,0.457468 h -1.434224 c -0.252713,0 -0.458883,-0.206642 -0.458883,-0.457468 0,-5e-6 0,-1.479469 0,-1.479469" />
</svg>
