<?xml version="1.0" encoding="UTF-8" standalone="no"?>
<svg
   xmlns:dc="http://purl.org/dc/elements/1.1/"
   xmlns:cc="http://creativecommons.org/ns#"
   xmlns:rdf="http://www.w3.org/1999/02/22-rdf-syntax-ns#"
   xmlns:svg="http://www.w3.org/2000/svg"
   xmlns="http://www.w3.org/2000/svg"
   xmlns:xlink="http://www.w3.org/1999/xlink"
   xmlns:sodipodi="http://sodipodi.sourceforge.net/DTD/sodipodi-0.dtd"
   xmlns:inkscape="http://www.inkscape.org/namespaces/inkscape"
   viewBox="0 0 64 64"
   version="1.1"
   id="svg26"
   sodipodi:docname="network-server-database.svg"
   inkscape:version="0.92.1 r15371">
  <metadata
     id="metadata30">
    <rdf:RDF>
      <cc:Work
         rdf:about="">
        <dc:format>image/svg+xml</dc:format>
        <dc:type
           rdf:resource="http://purl.org/dc/dcmitype/StillImage" />
      </cc:Work>
    </rdf:RDF>
  </metadata>
  <sodipodi:namedview
     pagecolor="#ffffff"
     bordercolor="#666666"
     borderopacity="1"
     objecttolerance="10"
     gridtolerance="10"
     guidetolerance="10"
     inkscape:pageopacity="0"
     inkscape:pageshadow="2"
     inkscape:window-width="1360"
     inkscape:window-height="740"
     id="namedview28"
     showgrid="false"
     inkscape:zoom="3.6875"
     inkscape:cx="32"
     inkscape:cy="32"
     inkscape:window-x="0"
     inkscape:window-y="0"
     inkscape:window-maximized="1"
     inkscape:current-layer="svg26" />
  <defs
     id="defs14">
    <linearGradient
       xlink:href="#1"
       id="3"
       x1="-31.485"
       y1="38.37"
       x2="-31.395"
       y2="29.28"
       gradientUnits="userSpaceOnUse"
       gradientTransform="matrix(2.37788,0,0,2.37788,106.293,-44.19)" />
    <linearGradient
       gradientUnits="userSpaceOnUse"
       y2="354.29"
       x2="-704.05"
       y1="647.77"
       x1="-701.19"
       id="2"
       gradientTransform="matrix(0.01591194,0,0,0.01591194,129.55692,-31.286632)">
      <stop
         stop-color="#93cfff"
         id="stop3" />
      <stop
         offset="1"
         stop-color="#cde8fe"
         id="stop5" />
    </linearGradient>
    <linearGradient
       xlink:href="#1"
       id="0"
       x1="59.12"
       y1="-13.295"
       x2="59.15"
       y2="-37.783"
       gradientUnits="userSpaceOnUse"
       gradientTransform="matrix(0.52661739,0,0,0.525718,-19.438225,28.69568)" />
    <linearGradient
       id="1">
      <stop
         stop-color="#289bf7"
         id="stop9" />
      <stop
         offset="1"
         stop-color="#71b9f1"
         id="stop11" />
    </linearGradient>
  </defs>
  <path
     d="m 3.9738319,9.4021769 c -0.5835355,0 -1.0531642,0.468998 -1.0531642,1.0513981 V 30.814244 L 61.074906,30.940387 V 15.65191 c 0,-0.582527 -0.469755,-1.051399 -1.05329,-1.051399 H 26.533292 C 25.459819,14.695244 25.32144,14.552956 24.791011,13.846053 24.038697,12.840949 22.902783,11.141178 22.1622,10.161429 21.567816,9.3030288 21.471317,9.4020507 20.485513,9.4020507 Z"
     id="path16"
     style="color:#000000;fill:#48bef9;stroke-width:0.12614255;fill-opacity:1"
     inkscape:connector-curvature="0" />
  <rect
     y="17.231846"
     x="2.742677"
     height="37.228451"
     width="58.511223"
     rx="1.2147528"
     id="rect18"
     style="fill:#1fb7f9;stroke:url(#2);stroke-width:0.29996699;fill-opacity:1" />
  <path
     inkscape:connector-curvature="0"
     style="fill:#ffffff;stroke-width:2.3778801"
     id="path22"
     d="m 32.008029,25.826677 c -5.837696,0 -11.328221,2.270875 -15.45622,6.398875 l 2.358857,2.358857 c 3.497861,-3.497862 8.148995,-5.4287 13.097363,-5.4287 4.948368,0 9.606635,1.930838 13.097363,5.4287 l 2.358857,-2.358857 c -4.128,-4.128 -9.618525,-6.398875 -15.45622,-6.398875 m 0,5.920921 c -4.256405,0 -8.256,1.657382 -11.266396,4.667778 l 2.354102,2.354101 c 2.37788,-2.37788 5.545216,-3.692847 8.912294,-3.692847 3.367078,0 6.532036,1.31259 8.912294,3.692847 l 2.354101,-2.354101 C 40.264028,33.40498 36.264434,31.747598 32.008029,31.747598 m 0,5.925677 c -2.672737,0 -5.188534,1.039133 -7.078949,2.929548 l 2.358857,2.358857 c 1.260276,-1.260277 2.936682,-1.954617 4.717714,-1.954617 1.78341,0 3.457437,0.69434 4.717714,1.954617 l 2.358857,-2.358857 c -1.890415,-1.890415 -4.403834,-2.929548 -7.078949,-2.929548 m 0,6.622396 c -0.865548,0 -1.731097,0.332903 -2.401659,0.993953 -0.0024,0.0024 -0.04756,0.04518 -0.06896,0.06896 l 2.461106,2.465861 2.465861,-2.45635 c -0.0024,-0.02616 -0.04993,-0.05469 -0.07371,-0.07847 -0.661051,-0.66105 -1.526599,-0.993953 -2.401659,-0.993953" />
</svg>
