<svg xmlns="http://www.w3.org/2000/svg" viewBox="0 0 48 48"><defs><linearGradient y1="545.8" x2="0" y2="517.8" gradientUnits="userSpaceOnUse"><stop stop-color="#3889e9"/><stop offset="1" stop-color="#5ea5fb"/></linearGradient><linearGradient id="0" gradientUnits="userSpaceOnUse" y1="545.14" x2="0" y2="518.14"><stop stop-color="#ff6835"/><stop offset="1" stop-color="#ff956f"/></linearGradient></defs><g transform="matrix(1.03209 0 0 1.03209-671.3-802.6)" fill="#e9afaf"><circle r="14" cy="531.8" cx="400.57" fill="url(#0)" transform="matrix(1.66099 0 0 1.66099 8.318-82.41)"/><path d="m682.12 784.32c-.156-.001-.309-.008-.461.002-1.01.071-1.942.63-2.486 1.572-.867 1.505-.348 3.418 1.16 4.288 1.505.867 3.421.363 4.288-1.147.87-1.501.372-3.449-1.134-4.317-.424-.244-.901-.369-1.368-.398m-8.261 3.336c-2.176 0-4.211.514-6.04 1.42l2.187 3.948c1.178-.55 2.468-.874 3.85-.874 4.81 0 8.779 3.68 9.193 8.386l4.465-.056c-.223-3.468-1.74-6.588-4.069-8.878-1.199.45-2.561.381-3.756-.313-1.195-.691-1.95-1.846-2.158-3.114-1.165-.32-2.41-.519-3.676-.519m-7.579 2.307c-2.757 1.841-4.788 4.666-5.641 7.964.998.811 1.599 2.025 1.599 3.414 0 1.38-.599 2.638-1.599 3.454.853 3.297 2.884 6.11 5.641 7.95l2.307-3.879c-2.366-1.663-3.906-4.413-3.906-7.526 0-3.116 1.54-5.863 3.906-7.526zm-8.456 8.237c-1.742 0-3.141 1.399-3.141 3.141 0 1.736 1.399 3.141 3.141 3.141 1.743 0 3.157-1.406 3.157-3.141 0-1.742-1.414-3.141-3.157-3.141m25.23 3.975c-.414 4.698-4.384 8.386-9.193 8.386-1.383 0-2.672-.311-3.85-.861l-2.187 3.919c1.825.909 3.861 1.406 6.04 1.406 1.266 0 2.51-.169 3.676-.492.207-1.267.961-2.418 2.158-3.112 1.198-.691 2.557-.758 3.756-.302 2.329-2.294 3.846-5.407 4.069-8.878zm-1.38 9.929c-.456.039-.916.19-1.339.436-1.508.864-2.027 2.773-1.16 4.275.87 1.51 2.808 2.02 4.315 1.149 1.507-.869 2-2.785 1.134-4.29-.544-.942-1.491-1.499-2.5-1.57-.151-.013-.298-.013-.449 0" fill="#fff" fill-opacity=".85"/></g></svg>