<svg xmlns="http://www.w3.org/2000/svg" viewBox="0 0 48 48"><defs><linearGradient y1="545.8" x2="0" y2="517.8" gradientUnits="userSpaceOnUse"><stop stop-color="#3889e9"/><stop offset="1" stop-color="#5ea5fb"/></linearGradient><linearGradient id="0" gradientUnits="userSpaceOnUse" y1="545.14" x2="0" y2="518.14"><stop stop-color="#348cfa"/><stop offset="1" stop-color="#36bdff"/></linearGradient></defs><g transform="matrix(1.03209 0 0 1.03209-397.94-516.76)"><circle r="14" cy="531.8" cx="400.57" fill="url(#0)" transform="matrix(1.66098 0 0 1.66098-256.54-359.36)"/><path d="m406.79 508.35l-2.732.732 2.33 5.963.841.487c4.191-.884 8.784 1.653 10.18 5.728.022.06.036.122.057.182l1.047.603 6.33-.963-.733-2.732-5.33-.768-2.097-2.367 1.632-4.83-2.597-1.5-3.365 3.83-3.098-.633-2.465-3.732m-8.531 3.996l-2 2 2 5-1 3-5 1v3l5 1 1 3-2 4 2 2 4-5v-1.035c-1.152-1.274-1.95-2.861-2.178-4.594-.467-2.636.444-5.345 2.178-7.322v-1.049l-4-5m20.353 14.305l-1.16.67c-1.173 3.252-4.274 5.798-7.795 5.986-.798.081-1.594.031-2.367-.119l-.803.463-2.33 5.963 2.733.732 3.33-4.232 3.097-.633 3.368 3.83 2.597-1.5-1.635-4.83 2.1-2.367 4.463-.268.732-2.732-6.33-.963" fill="#fff" fill-opacity=".85"/></g></svg>