<svg xmlns="http://www.w3.org/2000/svg" viewBox="0 0 48 48"><defs><linearGradient y1="545.8" x2="0" y2="517.8" gradientUnits="userSpaceOnUse"><stop stop-color="#3889e9"/><stop offset="1" stop-color="#5ea5fb"/></linearGradient><linearGradient id="0" gradientUnits="userSpaceOnUse" x1="396.12" y1="544.26" x2="395.64" y2="518.27"><stop stop-color="#016ed4"/><stop offset="1" stop-color="#00b1ff"/></linearGradient></defs><g transform="matrix(1.09312 0 0 1.09312-351.26-550.28)"><circle r="14" cy="531.8" cx="400.57" fill="url(#0)" transform="matrix(1.56825 0 0 1.56825-284.93-308.63)"/><path d="m351.02 511.85c3.209 1.506 4.66 5.111 3.243 8.07-1.03 2.155-2.957 3.161-4.837 3-2.028-.168-3.438-1.669-3.737-3.041-.478-2.191 1.776-4.488 3.53-3.215.29.211.853.896.347 1.526-.402.501-.897-.23-1.323.296-.4.494-.095 1.188.305 1.5.823.644 1.692.401 2.243.083 1.805-1.043 1.596-3.476.561-4.764-2.088-2.6-6.154-1.745-7.705 1.287-1.169 2.286-.652 4.57.73 6.339.772.988 1.899 1.825 3.18 2.249 1.177.39 2.406.531 3.567 1.22 2.218 1.316 3.192 2.956 3.688 4.558.597 1.931.611 4.361-1.04 6.712-1.531 2.179-4.14 3.073-6.422 2.686-3.873-.657-5.994-4.646-4.17-7.77 1.315-2.252 4.456-3.042 6.179-.94.556.678.745 1.695.499 2.419-.557 1.637-2.223 1.528-2.529.778-.254-.623.587-.648.471-1.265-.184-.982-1.716-.751-2.301.111-.743 1.094-.239 2.372.196 2.925.887 1.129 2.3 1.29 3.196 1.169.993-.133 2.098-.723 2.772-1.663 1.044-1.453 1.054-3.088.68-4.292-.408-1.311-1.227-2.497-2.92-3.353-2.496-1.262-5.211-.51-6.929.949-1.14.968-1.813 1.875-2.949 2.531-2.826 1.634-7.505 1.936-10.371-1.915-1.273-1.711-2.032-4.414-.772-6.938 1.28-2.565 3.701-3.671 5.798-3.461 2.835.285 4.477 2.615 4.48 4.575.002 1.489-1.189 3.313-2.704 3.652-1.145.257-2.331-.294-2.825-1.119-.563-.941.099-2.44.959-2.176.679.208.191.732.785.986.992.423 1.579-1.375.926-2.311-1.187-1.7-3.597-1.068-4.578.18-1.072 1.365-.946 2.864-.562 3.904.319.862.951 1.849 2.059 2.494 2.659 1.547 6.236.567 7.906-2.771 1.01-2.02.583-3.676.08-5.682-.433-1.726-.544-3.727.459-5.742 1.131-2.271 2.761-3.439 4.364-4.03 1.563-.579 3.589-.643 5.472.241" fill="#fff" fill-opacity=".851"/></g></svg>