<svg xmlns="http://www.w3.org/2000/svg" viewBox="0 0 48 48"><defs><linearGradient y2="517.8" x2="0" y1="545.8" gradientUnits="userSpaceOnUse"><stop stop-color="#3889e9"/><stop offset="1" stop-color="#5ea5fb"/></linearGradient><linearGradient x1="-324.94" y1="649.74" x2="-328.21" y2="307.75" gradientUnits="userSpaceOnUse"><stop stop-color="#016ed4"/><stop offset="1" stop-color="#00b1ff"/></linearGradient><linearGradient gradientUnits="userSpaceOnUse" x1="346.57" y1="513.8" x2="361.57" y2="528.8"><stop stop-color="#2e5d89"/><stop offset="1" stop-color="#1b92f4"/></linearGradient><linearGradient gradientUnits="userSpaceOnUse" y2="516.48" x2="0" y1="546.93" id="0"><stop stop-color="#9662ff"/><stop offset="1" stop-color="#bc9bff"/></linearGradient></defs><circle cx="400.57" cy="531.8" r="14" fill="url(#0)" stroke="url(#0)" stroke-width="1.427" transform="matrix(1.63114 0 0 1.63114-629.38-843.44)"/><path d="m146.3 41.878c0-.373-.282-.605-.847-.696l-7.591-1.104-3.403-6.881c-.191-.413-.439-.62-.741-.62-.302 0-.549.207-.741.62l-3.403 6.881-7.592 1.104c-.564.091-.847.323-.847.696 0 .212.126.454.378.726l5.505 5.353-1.3 7.561c-.02.141-.03.242-.03.303 0 .212.053.391.159.537.106.146.265.219.476.219.182 0 .383-.06.605-.181l6.79-3.569 6.791 3.569c.212.121.414.181.605.181.202 0 .356-.073.461-.219.106-.146.159-.325.159-.537 0-.131-.005-.232-.015-.303l-1.301-7.561 5.489-5.353c.262-.262.393-.504.393-.726" fill-opacity=".59" stroke-width="1.317" transform="matrix(1.08333 0 0 1.08333-120.86-24.293)"/></svg>