<svg xmlns="http://www.w3.org/2000/svg" viewBox="0 0 48 48"><defs><linearGradient y1="545.8" x2="0" y2="517.8" gradientUnits="userSpaceOnUse"><stop stop-color="#3889e9"/><stop offset="1" stop-color="#5ea5fb"/></linearGradient><linearGradient id="0" gradientUnits="userSpaceOnUse" y1="545.14" x2="0" y2="518.14"><stop stop-color="#007aac"/><stop offset="1" stop-color="#00a8ee"/></linearGradient></defs><g transform="matrix(1.09312 0 0 1.09312-351.26-550.28)"><g transform="matrix(.94417 0 0 .94417-179.38-270.39)" fill="#fff"><circle r="14" cy="531.8" cx="400.57" fill="url(#0)" transform="matrix(1.66099 0 0 1.66099-111.79-40.498)"/><g transform="matrix(.14959 0 0 .14959 524.69 748.83)" fill="#fff" fill-opacity=".85" enable-background="new"><g transform="translate(-.208 7)"><path d="m177.89 597.13h-.001c-6.673 0-12.11-5.427-12.11-12.1-.001-6.691 5.425-12.12 12.1-12.13 6.683 0 12.12 5.427 12.12 12.1 0 6.691-5.425 12.13-12.1 12.133z"/><path d="m210.61 588.24c-6.231 0-11.302-5.066-11.307-11.292-.001-6.242 5.061-11.316 11.296-11.321 6.239 0 11.311 5.065 11.317 11.291 0 6.242-5.062 11.316-11.296 11.323h-.001"/><circle transform="matrix(1.4422 0 0 1.4422 215.72 578.6)" r="7" cx="-17" cy="-15.701"/><circle transform="matrix(.80761 0 0 .80761 140.73 552.34)" r="11.5" cx="82.5" cy="-16.522"/><circle transform="matrix(.76915 0 0 .76915 187.19 551.3)" r="10.5" cy="-37.522"/></g><path d="m143.93 615.04c-10.45 13.55-18.93 28.78-18.93 47.24 0 40.01 30.358 73 68 73 37.64 0 68-32.993 68-73 0-18.461-8.489-33.21-19.53-47.24-4.14-4.345-10.118-3.699-14.469-.919-12.733 6.589-19.606 9.221-34 9.157-13.922-.062-21.237-2.336-33.97-9.277-4.351-2.659-10.964-3.305-15.1 1.039zm9.07 11.24c13.198 7.298 24.969 11 40 11 15.04 0 26.795-3.702 40-11 7.206 10.16 14 22.758 14 36 0 32.801-24.18 59-54 59-29.826 0-54-26.2-54-59 0-13.225 6.779-25.832 14-36" color="#000"/></g></g></g></svg>