<svg xmlns="http://www.w3.org/2000/svg" viewBox="0 0 64 64"><defs><linearGradient gradientUnits="userSpaceOnUse" y2="-128.4" x2="217.88" y1="314.42" x1="220.51" id="0"><stop stop-color="#c52828"/><stop offset="1" stop-color="#ff5454"/></linearGradient><linearGradient gradientTransform="matrix(2.29268 0 0 1.97777-9.366.8)" gradientUnits="userSpaceOnUse" y2="13.247" x2="21.66" y1="57.994" x1="21.968" id="1"><stop stop-color="#ff5a4e"/><stop offset="1" stop-color="#ff8077"/></linearGradient></defs><g transform="matrix(.57142 0 0 .57142-4.571-4.578)" stroke="none"><path d="m24 11.5h80c2.216 0 3.249 1.915 4 4l3.6 10c.751 2.085-1.784 4-4 4h-87.2c-2.216 0-4.751-1.915-4-4l3.6-10c.751-2.085 1.784-4 4-4" fill="#e85145"/><path d="m104 12l-12.6 86.08c-.314 2.146-1.784 3.913-4 3.913h-46.8c-2.216 0-3.686-1.767-4-3.913l-12.6-86.08" opacity=".3" fill="#ffa29a"/><path d="m111.6 27.5l-8.6 85.13c-.216 2.134-1.784 3.87-4 3.87h-70c-2.216 0-3.784-1.735-4-3.87l-8.6-85.13" fill="url(#1)"/><path d="m46.96 85.05c-.512.919-.919 2.302-.919 3.174 0 .202 0 .46.05.817l-6.397-11c-.205-.357-.357-.869-.357-1.33 0-.462.153-1.024.357-1.381l3.071-5.373-3.428-1.943 11.156-.207 5.423 9.773-3.478-1.995zm4.914-32.21c.971-1.69 2.559-2.611 4.502-2.611 2.1 0 3.737.974 4.914 2.967l1.74 2.916-6.04 11.642-9.773-6.881zm.714 41.06c-2.916 0-5.321-2.405-5.321-5.321 0-.819.359-2.202.871-3.071l1.636-2.916h12.13v11.309h-9.315m9.725-41.37c-.767-1.329-1.79-2.252-3.02-2.764h12.587c1.126 0 1.995.462 2.509 1.333l3.121 5.321 3.376-1.997-5.426 9.725-11.1-.156 3.428-1.943zm19.396 30.16c1.533 0 2.814-.409 3.888-1.227l-6.347 11.05c-.512.869-1.432 1.417-2.505 1.381h-5.99v3.94l-5.73-9.568 5.73-9.571v3.993h10.954m4.909-9.211c.462.819.719 1.688.719 2.61 0 1.843-1.178 3.787-2.814 4.707-.769.412-1.847.732-2.916.669h-3.38l-6.04-10.441 9.773-5.578z" fill="#ffc9c6"/></g></svg>