<?xml version="1.0" encoding="UTF-8" standalone="no"?>
<svg
   xmlns:dc="http://purl.org/dc/elements/1.1/"
   xmlns:cc="http://creativecommons.org/ns#"
   xmlns:rdf="http://www.w3.org/1999/02/22-rdf-syntax-ns#"
   xmlns:svg="http://www.w3.org/2000/svg"
   xmlns="http://www.w3.org/2000/svg"
   xmlns:sodipodi="http://sodipodi.sourceforge.net/DTD/sodipodi-0.dtd"
   xmlns:inkscape="http://www.inkscape.org/namespaces/inkscape"
   height="48"
   width="48"
   version="1.1"
   id="svg26"
   sodipodi:docname="preferences-system-notifications.svg"
   inkscape:version="0.92.3 (2405546, 2018-03-11)">
  <metadata
     id="metadata32">
    <rdf:RDF>
      <cc:Work
         rdf:about="">
        <dc:format>image/svg+xml</dc:format>
        <dc:type
           rdf:resource="http://purl.org/dc/dcmitype/StillImage" />
      </cc:Work>
    </rdf:RDF>
  </metadata>
  <defs
     id="defs30" />
  <sodipodi:namedview
     pagecolor="#ffffff"
     bordercolor="#666666"
     borderopacity="1"
     objecttolerance="10"
     gridtolerance="10"
     guidetolerance="10"
     inkscape:pageopacity="0"
     inkscape:pageshadow="2"
     inkscape:window-width="640"
     inkscape:window-height="480"
     id="namedview28"
     showgrid="false"
     inkscape:zoom="4.9166667"
     inkscape:cx="24"
     inkscape:cy="24"
     inkscape:window-x="0"
     inkscape:window-y="0"
     inkscape:window-maximized="0"
     inkscape:current-layer="g24" />
  <linearGradient
     gradientUnits="userSpaceOnUse"
     x1="0"
     x2="47"
     y1="23.5"
     y2="23.5"
     id="linearGradient8">
    <stop
       offset="0"
       stop-color="#a9a3d4"
       id="stop2" />
    <stop
       offset=".47001833"
       stop-color="#87baff"
       id="stop4" />
    <stop
       offset="1"
       stop-color="#89ec85"
       id="stop6" />
  </linearGradient>
  <linearGradient
     id="a"
     gradientUnits="userSpaceOnUse"
     x1="220.53835"
     x2="220.53835"
     y1="502.54337"
     y2="82.94986">
    <stop
       offset="0"
       stop-color="#e8d800"
       id="stop10" />
    <stop
       offset="1"
       stop-color="#feff68"
       id="stop12" />
  </linearGradient>
  <linearGradient
     id="b"
     gradientUnits="userSpaceOnUse"
     x1="401.57144"
     x2="401.57144"
     y1="546.79797"
     y2="517.79797">
    <stop
       offset="0"
       stop-color="#ff9300"
       id="stop15" />
    <stop
       offset="1"
       stop-color="#ffd702"
       id="stop17" />
  </linearGradient>
  <g
     fill="url(#a)"
     stroke-width="1.317422"
     transform="matrix(.041326907952 0 0 .041326907952 12.908984033483 13.39408701047)"
     id="g24">
    <rect
       fill="url(#b)"
       height="28"
       ry="14"
       transform="matrix(39.752722 0 0 39.752722 -15655.434 -20883.783)"
       width="27.999958"
       x="386.5715"
       y="517.79797"
       id="rect20" />
    <path
       inkscape:connector-curvature="0"
       style="fill:#ffffff;fill-opacity:0.85080602;stroke-width:1.61317194"
       d="M 528.2503,292.73128 H -11.192787 c -11.11798,0 -21.40679,-5.92517 -26.96256,-15.57194 -5.57028,-9.62257 -5.57028,-21.51327 0,-31.1423 L 231.56218,-77.215844 c 5.55575,-9.635479 15.84297,-15.575169 26.96093,-15.575169 11.11961,0 21.41324,5.93969 26.96739,15.575169 L 555.229,246.01866 c 2.77144,4.81856 4.1636,10.18557 4.1636,15.5784 0,5.37672 -1.39207,10.74213 -4.1636,15.58164 -5.57352,9.62741 -15.86233,15.55258 -26.9787,15.55258 z m 30.82771,182.7595 V 372.72364 c 0,-6.87694 -5.58157,-12.45692 -12.46819,-12.45692 H -29.561977 c -6.87856,0 -12.4553,5.57998 -12.4553,12.45692 v 102.76714 c 0,6.87855 5.57674,12.45368 12.4553,12.45368 H 546.60982 c 6.88662,0.01 12.46819,-5.57513 12.46819,-12.45368 z"
       id="path20" />
  </g>
</svg>
