<svg xmlns="http://www.w3.org/2000/svg" viewBox="0 0 48 48"><defs><linearGradient gradientTransform="matrix(.63636 0 0 .62142-173.54-308.33)" gradientUnits="userSpaceOnUse" y2="507.8" x2="0" y1="542.8" id="0"><stop stop-color="#197ff1"/><stop offset="1" stop-color="#21c6fb"/></linearGradient></defs><g transform="matrix(1.71427 0 0 1.71427-124.21-6.488)" enable-background="new"><rect width="28" height="21.13" x="72.46" y="7.228" fill="url(#0)" rx=".994"/><g transform="matrix(.36356 0 0 .36356 45.917 19.807)" fill="#fff" fill-opacity=".85" stroke="#ddf1fe"><path d="m93.92 3.434h-11.445v-2.415q5.145-5.171 6.589-6.746 1.286-1.444 1.733-2.179.446-.761.446-1.864 0-1.129-.892-1.995-.892-.866-2.389-.866-1.365 0-2.205.814-.84.787-1.076 1.706l-2.205-.893q.446-1.418 1.864-2.678 1.418-1.26 3.675-1.26 2.494 0 4.095 1.523 1.601 1.523 1.601 3.649 0 2.625-2.861 5.617l-5.25 5.276h8.321v2.31z"/><path d="m108.66 1.15q-1.995 2.704-5.224 2.704-3.229 0-5.224-2.704-1.995-2.704-1.995-6.694 0-4.02 1.995-6.694 1.995-2.704 5.224-2.704 3.229 0 5.224 2.704 1.995 2.678 1.995 6.694 0 3.99-1.995 6.694zm-5.224.394q2.153 0 3.439-2.02 1.313-2.02 1.313-5.066 0-3.071-1.313-5.066-1.286-2.02-3.439-2.02-2.179 0-3.465 2.02-1.286 1.995-1.286 5.066 0 3.045 1.286 5.066 1.286 2.02 3.465 2.02z"/><path d="m123.83 3.434h-2.415v-3.78h-8.531v-1.837l8.321-12.337h2.625v11.918h2.31v2.257h-2.31v3.78zm-2.415-6.04v-8.374h-.105l-5.696 8.374h5.801z"/><path d="m138.79 2.305q-1.759 1.549-4.331 1.549-2.572 0-4.331-1.549-1.759-1.549-1.759-3.833 0-1.496.814-2.625.814-1.155 2.126-1.811v-.105q-1.024-.656-1.68-1.654-.656-1.024-.656-2.126 0-2.179 1.549-3.623 1.549-1.47 3.938-1.47 2.389 0 3.938 1.47 1.549 1.444 1.549 3.623 0 1.103-.656 2.126-.656.998-1.68 1.654v.105q1.313.656 2.126 1.811.814 1.129.814 2.625 0 2.284-1.759 3.833zm-6.51-10.159q.866.761 2.179.761 1.313 0 2.153-.761.866-.787.866-2.047 0-1.26-.866-1.995-.84-.735-2.153-.735-1.313 0-2.179.735-.84.735-.84 1.995 0 1.26.84 2.047zm-.394 8.505q1.05.893 2.572.893 1.523 0 2.572-.893 1.05-.892 1.05-2.31 0-1.391-1.05-2.284-1.05-.892-2.572-.892-1.523 0-2.572.893-1.05.893-1.05 2.284 0 1.417 1.05 2.31z"/></g></g></svg>