<?xml version="1.0" encoding="UTF-8" standalone="no"?>
<svg
   xmlns:dc="http://purl.org/dc/elements/1.1/"
   xmlns:cc="http://creativecommons.org/ns#"
   xmlns:rdf="http://www.w3.org/1999/02/22-rdf-syntax-ns#"
   xmlns:svg="http://www.w3.org/2000/svg"
   xmlns="http://www.w3.org/2000/svg"
   xmlns:xlink="http://www.w3.org/1999/xlink"
   id="svg67"
   version="1.1"
   width="48"
   height="48">
  <metadata
     id="metadata73">
    <rdf:RDF>
      <cc:Work
         rdf:about="">
        <dc:format>image/svg+xml</dc:format>
        <dc:type
           rdf:resource="http://purl.org/dc/dcmitype/StillImage" />
        <dc:title></dc:title>
      </cc:Work>
    </rdf:RDF>
  </metadata>
  <defs
     id="defs71">
    <linearGradient
       id="linearGradient1049">
      <stop
         id="stop1045"
         offset="0"
         style="stop-color:#ff766a;stop-opacity:1;" />
      <stop
         id="stop1047"
         offset="1"
         style="stop-color:#ff8a80;stop-opacity:1" />
    </linearGradient>
    <linearGradient
       id="linearGradient1041">
      <stop
         id="stop1037"
         offset="0"
         style="stop-color:#d22f7a;stop-opacity:1;" />
      <stop
         id="stop1039"
         offset="1"
         style="stop-color:#da5693;stop-opacity:1" />
    </linearGradient>
    <linearGradient
       gradientTransform="translate(-0.05936338,-0.00245475)"
       gradientUnits="userSpaceOnUse"
       y2="32.394608"
       x2="23.998541"
       y1="41.023708"
       x1="25.350834"
       id="linearGradient1043"
       xlink:href="#linearGradient1041" />
    <linearGradient
       gradientTransform="translate(-0.05936338,-0.00245475)"
       gradientUnits="userSpaceOnUse"
       y2="30.247467"
       x2="24.183382"
       y1="10.758353"
       x1="18.96129"
       id="linearGradient1051"
       xlink:href="#linearGradient1049" />
    <linearGradient
       y2="460.12192"
       x2="609.35425"
       y1="499.79797"
       x1="610.68256"
       gradientTransform="matrix(0.57889327,0,0,0.57889327,-326.19715,-223.29393)"
       gradientUnits="userSpaceOnUse"
       id="linearGradient1058"
       xlink:href="#d" />
    <linearGradient
       gradientTransform="translate(14.440678,21.152542)"
       y2="32.394608"
       x2="23.998541"
       y1="41.023708"
       x1="25.350834"
       gradientUnits="userSpaceOnUse"
       id="linearGradient1077"
       xlink:href="#linearGradient1041" />
    <linearGradient
       gradientUnits="userSpaceOnUse"
       y2="54.380257"
       x2="39.1595"
       y1="54.380257"
       x1="15.848533"
       id="linearGradient1088"
       xlink:href="#linearGradient1049" />
    <linearGradient
       gradientTransform="matrix(0.97831323,0,0,1,-21.029564,21.861952)"
       gradientUnits="userSpaceOnUse"
       y2="-21.167816"
       x2="48.834454"
       y1="10.052524"
       x1="48.834454"
       id="linearGradient1114"
       xlink:href="#a" />
    <linearGradient
       y2="460.12192"
       x2="609.35425"
       y1="499.79797"
       x1="610.68256"
       gradientTransform="matrix(0.57889327,0,0,0.57889327,-324.37501,-235.98498)"
       gradientUnits="userSpaceOnUse"
       id="linearGradient1132"
       xlink:href="#d" />
  </defs>
  <linearGradient
     gradientTransform="matrix(0.52544443,0,0,0.52544443,-267.44012,-210.14473)"
     y2="427.53772"
     y1="484.80768"
     x2="543.74268"
     x1="543.94849"
     gradientUnits="userSpaceOnUse"
     id="a">
    <stop
       id="stop2"
       stop-color="#86d0fb"
       offset="0" />
    <stop
       id="stop4"
       stop-color="#2794f5"
       offset="1" />
  </linearGradient>
  <linearGradient
     gradientTransform="matrix(0.52544443,0,0,0.52544443,-267.44012,-210.14473)"
     y2="434.368866431657"
     y1="450.541801017775"
     x2="522.040305100916"
     x1="520.211629777998"
     gradientUnits="userSpaceOnUse"
     id="b">
    <stop
       id="stop7"
       stop-color="#eefefe"
       offset="0" />
    <stop
       id="stop9"
       stop-color="#d6fefe"
       offset="1" />
  </linearGradient>
  <linearGradient
     y2="463.62488"
     y1="484.29376"
     x2="543.25458"
     x1="542.83392"
     gradientUnits="userSpaceOnUse"
     gradientTransform="matrix(0.49848807,-0.09354379,0.08936297,0.52224588,-289.61516,-160.80492)"
     id="c">
    <stop
       id="stop12"
       stop-color="#132e51"
       offset="0" />
    <stop
       id="stop14"
       stop-color="#2767b9"
       offset="1" />
  </linearGradient>
  <linearGradient
     gradientTransform="matrix(0.57889327,0,0,0.57889327,-324.31693,-235.97246)"
     y2="460.12192"
     y1="499.79797"
     x2="609.35425"
     x1="610.68256"
     gradientUnits="userSpaceOnUse"
     id="d">
    <stop
       id="stop17"
       stop-color="#cfd6da"
       offset="0" />
    <stop
       id="stop19"
       stop-color="#f2f7f9"
       offset="1" />
  </linearGradient>
  <linearGradient
     gradientTransform="matrix(0.57044703,-0.09852715,0.09852715,0.57044703,-337.45552,-180.6389)"
     y2="469.368336"
     y1="495.434046"
     x2="609.846279"
     x1="615.838159"
     gradientUnits="userSpaceOnUse"
     id="e">
    <stop
       id="stop22"
       stop-color="#215394"
       offset="0" />
    <stop
       id="stop24"
       stop-color="#388eff"
       offset="1" />
  </linearGradient>
  <linearGradient
     gradientTransform="matrix(0.57889327,0,0,0.57889327,-324.37501,-235.98498)"
     y2="459.900835"
     y1="499.576885"
     x2="609.277326"
     x1="610.605636"
     gradientUnits="userSpaceOnUse"
     id="f">
    <stop
       id="stop27"
       stop-color="#c2c9cc"
       offset="0" />
    <stop
       id="stop29"
       stop-color="#edf3f5"
       offset="1" />
  </linearGradient>
  <linearGradient
     y2="460.12192"
     y1="499.79797"
     x2="609.35425"
     x1="610.68256"
     gradientUnits="userSpaceOnUse"
     gradientTransform="matrix(0.53519299,0,0,0.53033914,-297.78665,-212.81656)"
     id="g">
    <stop
       id="stop32"
       stop-color="#122a49"
       offset="0" />
    <stop
       id="stop34"
       stop-color="#5ca4d4"
       offset="1" />
  </linearGradient>
  <linearGradient
     gradientTransform="matrix(0.52544444,0,0,0.52544444,-259.51094,-223.67613)"
     y2="421.86777"
     y1="470.48056"
     x2="555.29846"
     x1="556.43549"
     gradientUnits="userSpaceOnUse"
     id="h">
    <stop
       id="stop37"
       stop-color="#fe3f3c"
       offset="0" />
    <stop
       id="stop39"
       stop-color="#ff8729"
       offset="1" />
  </linearGradient>
  <linearGradient
     gradientTransform="matrix(0.57044703,-0.09852715,0.09852715,0.57044703,-359.74736,-177.33108)"
     y2="485.02814"
     y1="502.11029"
     x2="610.82434"
     x1="611.29034"
     gradientUnits="userSpaceOnUse"
     id="i">
    <stop
       id="stop42"
       stop-color="#163660"
       offset="0" />
    <stop
       id="stop44"
       stop-color="#1a4275"
       offset="1" />
  </linearGradient>
  <rect
     rx="1.1865"
     ry="1.0557678"
     y="0.2534585"
     x="5.5462794"
     height="32"
     width="40.599998"
     id="rect1104"
     style="opacity:1;vector-effect:none;fill:url(#linearGradient1114);fill-opacity:1;stroke:none;stroke-width:0.20000002;stroke-linecap:butt;stroke-linejoin:miter;stroke-miterlimit:4;stroke-dasharray:none;stroke-dashoffset:0;stroke-opacity:1" />
  <circle
     style="opacity:0.81099997;fill:#ffff08;fill-opacity:1;stroke-width:0.52544445"
     id="circle951"
     transform="rotate(0.363689)"
     r="3.9904804"
     cy="9.0240049"
     cx="14.737454" />
  <path
     id="path883"
     d="M 45.05711,35.942224 40.21227,8.6664741 C 40.044536,7.7220484 39.021046,7.12018 37.917491,7.3169876 L 2.0619011,13.711438 C 0.95835012,13.908268 0.20497442,14.826996 0.37272669,15.77142 L 5.2175668,43.047169 c 0.1677345,0.944426 1.1912241,1.546294 2.2947793,1.349487 L 43.367934,38.002204 c 1.103556,-0.196807 1.856928,-1.115559 1.689176,-2.059982 z"
     style="fill:url(#linearGradient1051);fill-opacity:1;stroke-width:1" />
  <circle
     transform="rotate(-9.7993991)"
     cx="29.326162"
     cy="41.689201"
     r="11.076591"
     id="circle55"
     style="fill:#99d5fd;stroke:url(#linearGradient1132);stroke-width:1.15778649;stroke-linecap:round;stroke-linejoin:round" />
  <path
     id="path887"
     style="fill:#fdc9c9;fill-opacity:1;fill-rule:evenodd;stroke-width:1;enable-background:new"
     d="m 29.92696,15.337061 c 2.824442,-0.502728 5.52167,1.3792 6.024421,4.203499 0.502803,2.82429 -1.379358,5.521443 -4.203792,6.02422 -2.824443,0.502728 -5.521667,-1.379201 -6.024418,-4.203501 -0.502802,-2.824289 1.379354,-5.521442 4.203789,-6.024218 z" />
  <path
     id="path891"
     d="m 4.0063576,36.228234 1.2112076,6.818937 c 0.1677345,0.944427 1.1912241,1.546295 2.2947793,1.349488 L 43.367933,38.002206 c 1.103555,-0.196806 1.856927,-1.115559 1.689175,-2.059982 l -1.211207,-6.818937 z"
     style="fill:url(#linearGradient1043);fill-opacity:1;stroke-width:1" />
  <path
     id="path893"
     d="M 4.0280083,36.350122 3.8549961,35.375859 c 0,0 2.5845553,-2.135859 3.3671536,-2.42149 0.7825572,-0.285694 1.7569272,-0.340501 2.7653019,-0.356991 1.0083534,-0.01701 2.5097994,-0.06459 2.9689294,-0.132705 0.459203,-0.06782 1.277275,-0.262964 2.22888,-0.483938 0.951767,-0.219945 2.534015,-0.548401 3.030884,-0.631978 0.496002,-0.08846 1.744602,-0.250801 3.07683,-0.417271 1.332162,-0.166259 3.165688,-0.374015 3.582677,-0.415018 0.417041,-0.04122 0.911099,-0.06802 1.471357,-0.101098 0.560105,-0.03359 1.527235,-0.10584 1.868123,-0.139091 0.3407,-0.03368 1.136062,-0.0809 2.052669,-0.170905 0.916566,-0.09012 2.367491,-0.323727 2.780529,-0.42456 0.41308,-0.10084 1.24169,-0.521728 2.174216,-0.939788 0.932497,-0.417949 1.968837,-0.833217 2.797051,-0.923937 0.82831,-0.09048 5.67493,0.453757 5.67493,0.453757 l 0.172997,0.974178 -35.0010308,6.242052 z"
     style="stroke-width:1" />
  <g
     transform="translate(-0.36444771,-12.816015)"
     id="g1094">
    <circle
       transform="rotate(-9.7993991)"
       cx="27.504017"
       cy="54.380257"
       r="11.076591"
       id="circle1055"
       style="fill:url(#linearGradient1088);fill-opacity:1;stroke:url(#linearGradient1058);stroke-width:1.15778649;stroke-linecap:round;stroke-linejoin:round" />
    <path
       style="stroke-width:0.99999994"
       d="m 44.529297,47.8125 c -0.465873,-0.01369 -0.830847,-0.01121 -1.058594,0.01367 -1.82176,0.199548 -4.101201,1.111919 -6.152344,2.03125 -2.051206,0.919574 -3.874582,1.846549 -4.783203,2.068359 -0.908528,0.221795 -4.099134,0.735363 -6.115234,0.933594 -0.171769,0.01687 -0.217322,0.01571 -0.384766,0.03125 a 11.076591,11.076591 0 0 0 1.865235,3.146484 l 18.865234,-3.363281 a 11.076591,11.076591 0 0 0 0.626953,-4.675781 C 46.313684,47.913409 45.261736,47.834018 44.529297,47.8125 Z"
       id="path1069" />
    <path
       style="fill:#fdc9c9;fill-opacity:1;fill-rule:evenodd;stroke-width:1;enable-background:new"
       d="m 36.679688,37.833984 a 11.076591,11.076591 0 0 0 -2.207032,0.15625 11.076591,11.076591 0 0 0 -6.958984,4.257813 c 1.7101,2.345261 4.655097,3.650323 7.705078,3.107422 3.2841,-0.584632 5.716878,-3.136823 6.316406,-6.226563 a 11.076591,11.076591 0 0 0 -4.855468,-1.294922 z"
       id="path1063" />
    <path
       style="fill:url(#linearGradient1077);fill-opacity:1;stroke-width:1"
       d="M 46.886719,52.320312 27.662109,55.75 a 11.076591,11.076591 0 0 0 10.582032,4.070312 11.076591,11.076591 0 0 0 8.642578,-7.5 z"
       id="path1075" />
  </g>
  <ellipse
     transform="rotate(-9.7993991)"
     cx="29.213802"
     cy="41.567974"
     rx="10.240426"
     ry="10.147552"
     style="opacity:0.38500001;fill:none;stroke:url(#g);stroke-width:1.3551892;stroke-linecap:round;stroke-linejoin:round"
     id="ellipse57" />
  <circle
     transform="rotate(-9.7993991)"
     cx="29.281607"
     cy="41.561211"
     r="11.076591"
     id="circle63"
     style="fill:none;stroke:url(#f);stroke-width:1.15778649;stroke-linecap:round;stroke-linejoin:round" />
</svg>
