<?xml version="1.0" encoding="UTF-8" standalone="no"?>
<svg
   xmlns:dc="http://purl.org/dc/elements/1.1/"
   xmlns:cc="http://creativecommons.org/ns#"
   xmlns:rdf="http://www.w3.org/1999/02/22-rdf-syntax-ns#"
   xmlns:svg="http://www.w3.org/2000/svg"
   xmlns="http://www.w3.org/2000/svg"
   xmlns:xlink="http://www.w3.org/1999/xlink"
   xmlns:sodipodi="http://sodipodi.sourceforge.net/DTD/sodipodi-0.dtd"
   xmlns:inkscape="http://www.inkscape.org/namespaces/inkscape"
   viewBox="0 0 48 48"
   id="svg2"
   version="1.1"
   inkscape:version="0.91 r13725"
   sodipodi:docname="accessories-archiver.svg">
  <metadata
     id="metadata34">
    <rdf:RDF>
      <cc:Work
         rdf:about="">
        <dc:format>image/svg+xml</dc:format>
        <dc:type
           rdf:resource="http://purl.org/dc/dcmitype/StillImage" />
        <dc:title></dc:title>
      </cc:Work>
    </rdf:RDF>
  </metadata>
  <sodipodi:namedview
     pagecolor="#ffffff"
     bordercolor="#666666"
     borderopacity="1"
     objecttolerance="10"
     gridtolerance="10"
     guidetolerance="10"
     inkscape:pageopacity="0"
     inkscape:pageshadow="2"
     inkscape:window-width="1366"
     inkscape:window-height="687"
     id="namedview32"
     showgrid="false"
     inkscape:zoom="4.9166667"
     inkscape:cx="24"
     inkscape:cy="24"
     inkscape:window-x="0"
     inkscape:window-y="0"
     inkscape:window-maximized="1"
     inkscape:current-layer="svg2" />
  <defs
     id="defs4">
    <linearGradient
       id="3">
      <stop
         stop-color="#4469b9"
         id="stop7" />
      <stop
         offset="1"
         stop-color="#5d91ff"
         id="stop9" />
    </linearGradient>
    <linearGradient
       gradientTransform="translate(-23.796611,-29.898305)"
       inkscape:collect="always"
       xlink:href="#3"
       id="linearGradient4235"
       x1="-13.057626"
       y1="70.779663"
       x2="-13.383049"
       y2="23.796608"
       gradientUnits="userSpaceOnUse" />
  </defs>
  <g
     id="g4180"
     transform="translate(60.20339,6.3050847)">
    <rect
       style="fill:url(#linearGradient4235);fill-opacity:1"
       y="-6.3050847"
       x="-57.803391"
       height="48"
       width="43.200001"
       rx="2.4000001"
       id="rect20" />
    <path
       inkscape:connector-curvature="0"
       style="fill:#000000;fill-opacity:0.40400002;fill-rule:evenodd"
       d="m -39.415752,-6.2850235 0,17.1523435 -0.01563,0 0,5.615234 c -0.3684,3.612 6.830819,3.612 6.449219,0 l 0,-2.783203 0,-2.832031 0,-17.1523435 -6.433594,0 z"
       id="path22" />
    <path
       inkscape:connector-curvature="0"
       style="opacity:0.92900002;fill:#e4edf8;fill-opacity:1"
       d="m -37.448955,-4.9764295 c -0.591007,0 -1.066406,0.475399 -1.066406,1.066406 l 0,0.265625 c 0,0.591007 0.475399,1.06836 1.066406,1.06836 l 2.666016,0 c 0.591007,0 1.066406,-0.477353 1.066406,-1.06836 l 0,-0.265625 c 0,-0.591007 -0.475399,-1.066406 -1.066406,-1.066406 l -2.666016,0 z m -0.01172,3.466797 c -0.591008,0 -1.066407,0.477352 -1.066407,1.06835895 l 0,0.265625 c 0,0.591007 0.475399,1.066406 1.066407,1.066406 l 2.666015,0 c 0.591007,0 1.066406,-0.475399 1.066406,-1.066406 l 0,-0.265625 c 0,-0.59100695 -0.475399,-1.06835895 -1.066406,-1.06835895 l -2.666015,0 z m -0.02344,3.433594 c -0.591007,0 -1.068359,0.475399 -1.068359,1.066406 l 0,0.265625 c 0,0.5910068 0.477352,1.0664058 1.068359,1.0664058 l 2.666016,0 c 0.591007,0 1.066406,-0.475399 1.066406,-1.0664058 l 0,-0.265625 c 0,-0.591007 -0.475399,-1.066406 -1.066406,-1.066406 l -2.666016,0 z m 0.04687,3.5761718 c -0.591007,0 -1.066406,0.475399 -1.066406,1.066406 l 0,0.265625 c 0,0.591007 0.475399,1.066406 1.066406,1.066406 l 2.666016,0 c 0.591007,0 1.068359,-0.475399 1.068359,-1.066406 l 0,-0.265625 c 0,-0.591007 -0.477352,-1.066406 -1.068359,-1.066406 l -2.666016,0 z m 0,3.503906 c -0.591007,0 -1.066406,0.475399 -1.066406,1.0664057 l 0,0.265625 c 0,0.591007 0.475399,1.066406 1.066406,1.066406 l 2.666016,0 c 0.591007,0 1.068359,-0.475399 1.068359,-1.066406 l 0,-0.265625 c 0,-0.5910067 -0.477352,-1.0664057 -1.068359,-1.0664057 l -2.666016,0 z m -0.0039,3.5917967 c -0.591007,0 -1.066407,0.475399 -1.066407,1.066406 l 0,0.265625 c 0,0.591007 0.4754,1.066406 1.066407,1.066406 l 2.666015,0 c 0.591008,0 1.06836,-0.475399 1.06836,-1.066406 l 0,-0.265625 c 0,-0.591007 -0.477352,-1.066406 -1.06836,-1.066406 l -2.666015,0 z m 0.220703,3.625 c -0.42,0 -0.761719,0.341271 -0.761719,0.763671 l 0,1.513672 -1.177734,3.46875 c -0.3288,0.9672 -0.172125,2.040247 0.421875,2.873047 0.5928,0.8316 1.555419,1.328125 2.574218,1.328125 1.018801,0 1.981419,-0.497725 2.574219,-1.328125 0.5928,-0.8328 0.750675,-1.905093 0.421875,-2.871093 l -1.175781,-3.470704 0,-1.513672 c 0,-0.4224 -0.340519,-0.763671 -0.761719,-0.763671 l -2.115234,0 z m -0.09375,5.078125 2.302734,0 0.394532,1.164062 c 0.1692,0.498 0.08725,1.052822 -0.21875,1.482422 l 0,0.002 c -0.6108,0.8568 -2.04545,0.8568 -2.65625,0 -0.306,-0.4296 -0.385997,-0.985175 -0.216797,-1.484375 l 0.394531,-1.164062 z"
       id="rect30" />
  </g>
</svg>
