<svg xmlns="http://www.w3.org/2000/svg" viewBox="0 0 48 48"><defs><linearGradient gradientTransform="matrix(.43671 0 0 .4778 461.96 512.9)" gradientUnits="userSpaceOnUse" y2="-26.05" x2="-125.19" y1="73.5" x1="-123.97" id="3"><stop stop-color="#141414"/><stop offset="1" stop-color="#2d2d2f"/></linearGradient><linearGradient gradientTransform="matrix(.07441 0 0 .12847 437.54 535.89)" gradientUnits="userSpaceOnUse" y2="-26.05" x2="-125.19" y1="73.5" x1="-123.97" id="2"><stop stop-color="#5dae33"/><stop offset="1" stop-color="#9be058"/></linearGradient><linearGradient gradientTransform="matrix(.07441 0 0 .12847 437.54 506.97)" gradientUnits="userSpaceOnUse" y2="-26.05" x2="-125.19" y1="73.5" x1="-123.97" id="0"><stop stop-color="#0a80fd"/><stop offset="1" stop-color="#56c5fa"/></linearGradient><linearGradient gradientTransform="matrix(.07441 0 0 .12847 437.54 521.42)" gradientUnits="userSpaceOnUse" y2="-26.05" x2="-125.19" y1="73.5" x1="-123.97" id="1"><stop stop-color="#ff9300"/><stop offset="1" stop-color="#ffd702"/></linearGradient></defs><g transform="translate(-384.57-499.8)"><g fill-rule="evenodd" stroke-width="1.114"><rect width="7.225" height="12.906" x="424.5" y="503.45" fill="url(#0)" rx=".557"/><rect width="7.225" height="12.906" x="424.5" y="517.9" fill="url(#1)" rx=".557"/><rect width="7.225" height="12.906" x="424.5" y="532.37" fill="url(#2)" rx=".557"/><rect width="42.4" height="48" x="385.42" y="499.8" fill="url(#3)" rx="1.114"/></g><path d="m409.62 526.55c-.138-.045-1.01-.439-.466-2.097h-.008c1.422-1.464 2.508-3.821 2.508-6.141 0-3.567-2.372-5.437-5.129-5.437-2.759 0-5.117 1.869-5.117 5.437 0 2.329 1.08 4.695 2.511 6.156.558 1.463-.439 2.01-.648 2.081-1.944.629-7.231 3.762-7.147 8.326h20.889c.093-4.359-4.089-7.19-7.394-8.326" fill="#feffff" fill-opacity=".85" stroke-width=".2"/></g></svg>