<svg xmlns="http://www.w3.org/2000/svg" viewBox="0 0 48 48"><defs><linearGradient id="4" x1="350.48" y1="557.8" x2="347.89" y2="531.9" gradientUnits="userSpaceOnUse"><stop stop-color="#eb4646"/><stop offset="1" stop-color="#ff8651"/></linearGradient><linearGradient id="5" x1="350.48" y1="536.43" x2="347.89" y2="510.53" gradientUnits="userSpaceOnUse"><stop stop-color="#ffbc00"/><stop offset="1" stop-color="#ffec00"/></linearGradient><linearGradient id="3" x1="360.94" y1="544.45" x2="358.86" y2="523.73" gradientUnits="userSpaceOnUse"><stop stop-color="#dce2ff"/><stop offset="1" stop-color="#f8feff"/></linearGradient><linearGradient id="1" x1="372.58" y1="536.43" x2="369.99" y2="510.53" gradientUnits="userSpaceOnUse"><stop stop-color="#4fd127"/><stop offset="1" stop-color="#c6f61a"/></linearGradient><linearGradient id="0" x1="372.58" y1="557.8" x2="369.99" y2="531.9" gradientUnits="userSpaceOnUse"><stop stop-color="#0976da"/><stop offset="1" stop-color="#5de5f0"/></linearGradient><linearGradient id="2" y1="539.4" x2="0" y2="529.4" gradientUnits="userSpaceOnUse"><stop stop-color="#161719"/><stop offset="1" stop-color="#424649"/></linearGradient></defs><g transform="translate(-334.57-509.8)"><circle r="12.948" cy="523.11" cx="347.52" fill="url(#5)"/><circle r="12.948" cy="523.11" cx="369.62" fill="url(#1)"/><circle r="12.948" cy="544.48" cx="347.52" fill="url(#4)"/><circle r="12.948" cy="544.48" cx="369.62" fill="url(#0)"/><circle cx="358.57" cy="533.8" r="10.358" fill="url(#3)"/><path d="m358.31 527.65l-3.458 6.03c-.727 1.275-.783 2.896 0 4.261 1.177 2.052 3.794 2.762 5.847 1.585 2.052-1.177 2.762-3.794 1.585-5.847l-3.458-6.03c-.114-.199-.402-.199-.516 0" fill="url(#2)"/></g></svg>