<svg xmlns="http://www.w3.org/2000/svg" xmlns:xlink="http://www.w3.org/1999/xlink" viewBox="0 0 48 48"><defs><clipPath><path d="m7 1023.36h1v1h-1z"/></clipPath><linearGradient xlink:href="#0" id="6" x1="400.47" y1="547.89" x2="401.27" y2="521.8" gradientUnits="userSpaceOnUse"/><linearGradient xlink:href="#0" id="8" x1="393.18" y1="546.67" x2="393.12" y2="516.79" gradientUnits="userSpaceOnUse"/><linearGradient xlink:href="#0" id="7" x1="394.48" y1="545.87" x2="395.39" y2="517.89" gradientUnits="userSpaceOnUse"/><linearGradient xlink:href="#0" id="5" x1="406.25" y1="545.77" x2="405.27" y2="519.92" gradientUnits="userSpaceOnUse"/><linearGradient xlink:href="#0" id="4" x1="405.05" y1="547.34" x2="403.98" y2="516.96" gradientUnits="userSpaceOnUse"/><linearGradient id="0" gradientUnits="userSpaceOnUse" y1="1052.61" x2="0" y2="1003.81"><stop stop-color="#ea0e79"/><stop offset="1" stop-color="#fa4ea9"/></linearGradient><linearGradient xlink:href="#0" id="9" x1="399.4" y1="549.58" x2="397.79" y2="516.81" gradientUnits="userSpaceOnUse"/><linearGradient xlink:href="#0" id="1" gradientUnits="userSpaceOnUse" y1="61.831" x2="0" y2="-.203"/><linearGradient xlink:href="#0" id="3" x1="404.62" y1="545.61" x2="405.91" y2="519.89" gradientUnits="userSpaceOnUse"/><linearGradient xlink:href="#0" id="2" x1="401.1" y1="543.73" x2="401.02" y2="518.26" gradientUnits="userSpaceOnUse"/></defs><g fill-rule="evenodd"><rect height="48" width="48" rx="2.982" fill="url(#1)"/><g transform="matrix(1.61348 0 0 1.61348-622.46-834.18)" fill="#530b23" stroke-linejoin="round" stroke-linecap="round" stroke-width=".496"><path d="m400.45 543.89c4.644-3.427 5.21-7.04.165-10.906-5.898 4.307-3.738 7.688-.165 10.906" stroke="url(#6)"/><path d="m400.45 519.87c4.644 3.427 5.21 7.04.165 10.906-5.898-4.307-3.738-7.688-.165-10.906" stroke="url(#2)"/><path d="m412.68 531.73c-3.427 4.644-7.04 5.21-10.906.165 4.307-5.898 7.688-3.738 10.906-.165" stroke="url(#4)"/><path d="m388.64 531.81c3.427 4.644 7.04 5.21 10.906.165-4.307-5.898-7.688-3.738-10.906-.165" stroke="url(#8)"/><path d="m399.99 531.12c-5.758.399-8.529-1.987-7.191-8.2 7.283-.54 7.828 3.434 7.191 8.2" stroke="url(#9)"/><path d="m392.66 540.9c5.758.399 8.529-1.987 7.191-8.2-7.283-.54-7.828 3.434-7.191 8.2" stroke="url(#7)"/><path d="m401.41 531.18c5.758.399 8.529-1.987 7.191-8.2-7.283-.54-7.828 3.434-7.191 8.2" stroke="url(#3)"/><path d="m408.73 540.92c-5.758.399-8.529-1.987-7.191-8.2 7.283-.54 7.828 3.434 7.191 8.2" stroke="url(#5)"/></g></g></svg>