<svg xmlns="http://www.w3.org/2000/svg" viewBox="0 0 48 48"><defs><clipPath><path d="m7 1023.36h1v1h-1z"/></clipPath><linearGradient id="0" gradientUnits="userSpaceOnUse" y1="61.831" x2="0" y2="-.203"><stop stop-color="#673508"/><stop stop-color="#ce873f" offset="1"/></linearGradient></defs><g fill-rule="evenodd"><rect height="48" width="48" rx="2.982" fill="url(#0)"/><path d="m39.835 21.241c-.111-.146-.256-.233-.438-.261l-3.812-.583c-.208-.667-.493-1.347-.854-2.042.25-.347.625-.837 1.125-1.469.5-.632.854-1.094 1.062-1.385.111-.153.166-.312.166-.479 0-.194-.048-.347-.146-.458-.5-.709-1.646-1.889-3.438-3.542-.166-.139-.34-.208-.52-.208-.208 0-.375.062-.5.187l-2.958 2.229c-.57-.292-1.195-.549-1.875-.772l-.583-3.833c-.014-.181-.094-.33-.24-.448-.146-.118-.316-.177-.511-.177h-4.626c-.403 0-.653.194-.75.583-.181.694-.382 1.986-.604 3.874-.653.209-1.284.473-1.896.792l-2.875-2.229c-.181-.139-.361-.208-.542-.208-.306 0-.962.496-1.969 1.49-1.01.993-1.691 1.74-2.053 2.24-.125.181-.187.34-.187.479 0 .167.069.333.208.5.931 1.125 1.674 2.083 2.229 2.875-.347.639-.618 1.278-.812 1.917l-3.874.583c-.153.028-.285.118-.396.271-.111.153-.167.312-.167.479v4.626c0 .181.055.344.167.489.111.146.256.233.438.261l3.813.563c.194.68.479 1.368.854 2.061-.25.347-.625.837-1.125 1.469-.5.632-.854 1.094-1.062 1.385-.111.153-.167.312-.167.479 0 .181.049.34.146.479.542.75 1.687 1.917 3.438 3.5.153.153.327.229.521.229.208 0 .382-.062.521-.187l2.938-2.23c.57.292 1.195.549 1.875.772l.583 3.833c.014.181.094.33.24.448.146.118.316.177.51.177h4.626c.403 0 .653-.194.751-.583.18-.695.382-1.986.604-3.874.653-.208 1.286-.473 1.896-.792l2.875 2.25c.194.125.375.187.542.187.305 0 .958-.493 1.958-1.479 1-.986 1.688-1.736 2.061-2.25.125-.139.188-.298.188-.479 0-.181-.069-.355-.208-.521-1-1.222-1.743-2.18-2.229-2.875.278-.514.549-1.146.813-1.896l3.854-.583c.166-.028.306-.118.417-.271.111-.153.166-.313.166-.479v-4.626c0-.181-.055-.343-.166-.489m-12.06 6.531c-1.042 1.042-2.299 1.563-3.771 1.563-1.472 0-2.729-.521-3.771-1.563-1.042-1.042-1.562-2.298-1.562-3.771 0-1.472.521-2.729 1.562-3.771 1.042-1.042 2.299-1.562 3.771-1.562 1.472 0 2.729.521 3.771 1.562 1.042 1.042 1.562 2.299 1.562 3.771 0 1.472-.521 2.729-1.562 3.771" fill="#efe7df"/></g></svg>