<svg xmlns="http://www.w3.org/2000/svg" viewBox="0 0 48 48"><defs><clipPath><path d="m7 1023.36h1v1h-1z"/></clipPath><linearGradient id="0" gradientUnits="userSpaceOnUse" y1="61.831" x2="0" y2="-.203"><stop stop-color="#003a56"/><stop stop-color="#00607c" offset="1"/></linearGradient></defs><g fill-rule="evenodd"><rect height="48" width="48" rx="2.982" fill="url(#0)"/><path d="m37.1 16.773c-.74-.722-1.634-1.082-2.679-1.082h-3.317l-.756-1.961c-.188-.472-.531-.877-1.029-1.218-.498-.341-1.01-.512-1.532-.512h-7.58c-.522 0-1.034.171-1.532.512-.498.341-.841.748-1.029 1.218l-.756 1.961h-3.317c-1.047 0-1.939.36-2.68 1.082-.74.722-1.11 1.592-1.11 2.611v12.924c0 1.019.37 1.889 1.11 2.611.74.722 1.634 1.082 2.68 1.082h20.843c1.047 0 1.939-.36 2.679-1.082.74-.722 1.11-1.592 1.11-2.611v-12.924c0-1.019-.37-1.889-1.11-2.611m-8.416 13.638c-1.297 1.265-2.859 1.896-4.686 1.896-1.827 0-3.387-.633-4.686-1.896-1.297-1.265-1.948-2.786-1.948-4.565 0-1.779.649-3.301 1.948-4.565 1.297-1.265 2.859-1.896 4.686-1.896 1.827 0 3.387.633 4.686 1.896 1.297 1.265 1.948 2.786 1.948 4.565 0 1.779-.649 3.301-1.948 4.565m-4.686-8.719c-1.175 0-2.179.405-3.01 1.218-.834.813-1.252 1.791-1.252 2.936 0 1.145.417 2.123 1.252 2.936.834.813 1.839 1.218 3.01 1.218 1.175 0 2.179-.405 3.01-1.218.834-.813 1.252-1.791 1.252-2.936 0-1.145-.417-2.123-1.252-2.936-.834-.813-1.839-1.218-3.01-1.218" fill="#89ceeb"/></g></svg>