<svg xmlns="http://www.w3.org/2000/svg" viewBox="0 0 48 48"><defs><clipPath><path d="m7 1023.36h1v1h-1z"/></clipPath><linearGradient id="0" gradientUnits="userSpaceOnUse" y1="61.831" x2="0" y2="-.203"><stop stop-color="#8549a0"/><stop offset="1" stop-color="#c16fe3"/></linearGradient></defs><g fill-rule="evenodd"><rect height="48" width="48" rx="2.982" fill="url(#0)"/><g transform="translate(49.09)" fill="#3d2248"><g transform="matrix(1.71427 0 0 1.71427-118.44 6.557)" stroke="#3d2248" enable-background="new" stroke-width=".262"><path d="m58.49 2.866h4.442l3.471-3.071-3.471-3.397h-4.442l3.147 3.397z"/><path d="m42.641 2.866h4.442l3.471-3.071-3.471-3.397h-4.442l3.147 3.397z"/><path d="m50.48 2.866h4.442l3.471-3.071-3.471-3.397h-4.442l3.147 3.397z"/></g><g stroke-width="1.317"><path d="m-25.23 18.799c-6.094 0-11 4.906-11 11 0 6.094 4.906 11 11 11 6.094 0 11-4.906 11-11 0-6.094-4.906-11-11-11m-3.036 6.556l7.01 4.688-7.01 4.688v-9.374"/><g transform="matrix(1.2 0 0 1.2-45.14-1205.62)"><path d="m33.08 1023.25l-1.779-.612-.505-1.826c-.027-.109-.077-.17-.15-.184-.073-.014-.142.025-.207.117l-1.134 1.518-1.88-.076c-.14 0-.219.04-.236.13-.0001.051.0001.116.058.193l1.082 1.55-.659 1.778c-.011.034-.018.058-.021.072-.0001.051-.005.098.014.138.019.04.054.065.105.075.044.0001.095 0 .154-.017l1.799-.559 1.473 1.175c.046.039.091.063.137.072.049.0001.089 0 .121-.032.032-.031.053-.071.063-.123.006-.032.009-.057.0001-.074l.032-1.896 1.568-1.052c.075-.052.118-.105.128-.159.017-.09-.04-.16-.172-.207"/><g stroke-width="1.317"><path d="m33.975 1029.23l-1.357-.467-.386-1.393c-.021-.083-.059-.13-.115-.141-.056-.011-.108.019-.158.089l-.866 1.158-1.434-.058c-.107 0-.167.031-.18.1-.007.039.007.089.044.148l.825 1.183-.503 1.357c-.009.026-.014.044-.016.055-.007.039-.004.075.0001.105.014.031.041.05.08.057.033.0001.073 0 .118-.013l1.373-.427 1.124.897c.035.03.07.048.105.055.037.0001.068 0 .092-.024.025-.024.04-.054.048-.094.005-.024.007-.043.008-.057l.025-1.446 1.196-.802c.057-.04.09-.08.098-.121.013-.069-.031-.122-.132-.158"/><path d="m6.498 1036.71l-1.1-.178-.479-1.014c-.027-.061-.063-.091-.106-.092-.044 0-.08.03-.109.089l-.509 1-1.105.145c-.082.014-.123.045-.125.1 0 .031.017.067.053.107l.788.795-.205 1.104c-.003.021-.005.035-.005.045 0 .031.007.057.022.08.015.022.038.033.068.034.026.0001.055-.0001.088-.026l.994-.508.978.537c.03.021.058.031.087.03.032 0 .052-.0001.067-.031.016-.021.024-.047.024-.078 0-.019 0-.034 0-.045l-.173-1.109.809-.772c.039-.038.058-.073.059-.105 0-.054-.04-.09-.121-.104"/><path d="m4.35 1029.84l-1.731.737-1.598-1.017c-.093-.063-.172-.075-.235-.036-.063.038-.089.114-.075.226l.174 1.887-1.446 1.203c-.104.094-.136.176-.088.255.027.044.085.08.173.105l1.842.426.702 1.761c.014.033.025.055.033.068.027.044.062.076.102.093.041.017.083.012.128-.014.039-.022.071-.064.103-.116l.961-1.621 1.881-.114c.06 0 .11-.014.15-.039.043-.025.066-.06.069-.105.003-.044-.008-.088-.036-.133-.017-.028-.031-.049-.042-.062l-1.246-1.429.459-1.831c.021-.089.017-.157-.011-.204-.048-.078-.137-.092-.267-.038"/></g></g></g></g></g></svg>