<svg xmlns="http://www.w3.org/2000/svg" viewBox="0 0 48 48"><defs><linearGradient id="0" gradientUnits="userSpaceOnUse" x1="25.02" y1="58.78" x2="25.22" y2="-.203"><stop stop-color="#fd8c00"/><stop stop-color="#ffc645" offset="1"/></linearGradient></defs><g fill-rule="evenodd"><rect height="48" width="48" rx="2.982" fill="url(#0)"/><path d="m12.525 37.583h9.692v1.254h3.524v-1.254h9.734v1.417h3.524v-3.51h-1.3v-9.817h1.259v-3.51h-1.259v-9.113h1.3v-3.51h-3.524v.714h-9.734v-1.254h-3.524v1.254h-9.692v-.878h-3.524v3.51h1.259v9.277h-1.259v3.51h1.259v9.653h-1.259v3.51h3.524v-1.254m-1.01 0v.251h-1.511v-1.505h.252 1.01.252v.251 1m11.706-27.33v-.251h1.511v.251.525.478.251h-1.511v-.251-.478-.525m1.511 27.33v.251h-1.511v-.251-.525-.478-.251h1.511v.251.478.525m.168-13.1c.098.098.098.256 0 .354-.05.049-.113.073-.178.073-.064 0-.129-.024-.178-.073l-.566-.564-.566.564c-.05.049-.113.073-.178.073-.065 0-.129-.024-.178-.073-.098-.098-.098-.256 0-.354l.566-.564-.566-.564c-.098-.097-.098-.257 0-.354.098-.097.258-.097.356 0l.567.564.566-.564c.098-.097.257-.097.356 0 .098.097.098.257 0 .354l-.566.564.567.564m13.09 13.514h-1.51v-.414-1-.087h.21 1.01.294v1.504m-2.518-2.507v1.09h-7.886c4.395-1.241 7.856-4.689 9.102-9.07v7.976h-1.217m2.476-10.82h-.252-.527-.48-.252v-1.505h.252.48.527.252v1.505m-1.468-14.13h1.217.294v1.505h-.294-1.01-.21v-.79-.714m-1.01.714v1.793h1.217v7.272c-1.246-4.378-4.708-7.825-9.102-9.07h7.886m-25.469-.878h.252 1.259v.878.627h-.252-1.01-.252v-1.505m2.518 2.507v-1.629h7.843c-4.395 1.242-7.856 4.688-9.102 9.07v-7.435h1.259m-2.518 10.28h.252.527.48.252v1.505h-.252-.48-.527-.252v-1.505m1.259 4.349c1.247 4.378 4.707 7.825 9.102 9.07h-7.843v-1.254h-1.259v-7.812" fill="#643908"/></g></svg>