<svg xmlns="http://www.w3.org/2000/svg" viewBox="0 0 48 48"><defs><clipPath><path d="m7 1023.36h1v1h-1z"/></clipPath><linearGradient id="0" gradientUnits="userSpaceOnUse" y1="61.831" x2="0" y2="-.203"><stop stop-color="#00ca00"/><stop stop-color="#65ff65" offset="1"/></linearGradient></defs><g fill-rule="evenodd"><rect height="48" width="48" rx="2.982" fill="url(#0)"/><path d="M24 8A16 16 0 0 0 8 24 16 16 0 0 0 24 40 16 16 0 0 0 40 24 16 16 0 0 0 24 8M30 18L28 24A4 4 0 0 1 24 28L18 30 20 24A4 4 0 0 1 24 20L30 18M24 22A2 2 0 0 0 22 24 2 2 0 0 0 24 26 2 2 0 0 0 26 24 2 2 0 0 0 24 22" fill="#035903" color="#566060"/></g></svg>