<svg xmlns="http://www.w3.org/2000/svg" viewBox="0 0 48 48"><defs><clipPath><path d="m7 1023.36h1v1h-1z"/></clipPath><linearGradient id="0" gradientUnits="userSpaceOnUse" x1="25.627" y1="46.983" x2="25.22" y2="-.203"><stop stop-color="#03adc9"/><stop stop-color="#01e1f1" offset="1"/></linearGradient></defs><g fill-rule="evenodd"><rect height="48" width="48" rx="2.982" fill="url(#0)"/><path d="m-33.28 32.23h18.929c.806 0 1.466-.659 1.466-1.465v-20.07c0-.804-.66-1.465-1.466-1.465h-18.929c-.808 0-1.466.661-1.466 1.465v20.07c0 .806.659 1.465 1.466 1.465m16.819-21.21c0-.243.199-.439.44-.439h1.374c.243 0 .439.196.439.439v1.415c0 .243-.196.439-.439.439h-1.374c-.241 0-.44-.196-.44-.439v-1.415m0 3.6c0-.243.199-.44.44-.44h1.374c.243 0 .439.197.439.44v1.415c0 .243-.196.441-.439.441h-1.374c-.241 0-.44-.198-.44-.441v-1.415m0 3.602c0-.243.199-.441.44-.441h1.374c.243 0 .439.198.439.441v1.416c0 .241-.196.439-.439.439h-1.374c-.241 0-.44-.198-.44-.439v-1.416m0 3.6c0-.243.199-.441.44-.441h1.374c.243 0 .439.198.439.441v1.416c0 .243-.196.439-.439.439h-1.374c-.241 0-.44-.197-.44-.439v-1.416m0 3.6c0-.243.199-.439.44-.439h1.374c.243 0 .439.196.439.439v1.416c0 .242-.196.438-.439.438h-1.374c-.241 0-.44-.197-.44-.438v-1.416m0 3.6c0-.242.199-.439.44-.439h1.374c.243 0 .439.198.439.439v1.418c0 .24-.196.438-.439.438h-1.374c-.241 0-.44-.198-.44-.438v-1.418m-13.203-16.939c0-.243.198-.439.441-.439h10.815c.241 0 .439.196.439.439v7.01c0 .241-.198.441-.439.441h-10.815c-.243 0-.441-.2-.441-.441 0 0 0-7.01 0-7.01m0 10.805c0-.241.198-.438.441-.438h10.815c.241 0 .439.197.439.438v6.477c0 .242-.198.439-.439.439h-10.815c-.243 0-.441-.198-.441-.439 0 0 0-6.477 0-6.477m-3.761-11.867c0-.243.198-.439.44-.439h1.375c.241 0 .438.196.438.439v1.415c0 .243-.197.439-.438.439h-1.375c-.242 0-.44-.196-.44-.439 0 0 0-1.415 0-1.415m0 3.6c0-.243.198-.44.44-.44h1.375c.241 0 .438.197.438.44v1.415c0 .243-.197.441-.438.441h-1.375c-.242 0-.44-.198-.44-.441 0 0 0-1.415 0-1.415m0 3.602c0-.243.198-.441.44-.441h1.375c.241 0 .438.198.438.441v1.416c0 .241-.197.439-.438.439h-1.375c-.242 0-.44-.198-.44-.439 0 0 0-1.416 0-1.416m0 3.6c0-.243.198-.441.44-.441h1.375c.241 0 .438.198.438.441v1.416c0 .243-.197.439-.438.439h-1.375c-.242 0-.44-.197-.44-.439 0 0 0-1.416 0-1.416m0 3.6c0-.243.198-.439.44-.439h1.375c.241 0 .438.196.438.439v1.416c0 .242-.197.438-.438.438h-1.375c-.242 0-.44-.197-.44-.438 0 0 0-1.416 0-1.416m0 3.6c0-.242.198-.439.44-.439h1.375c.241 0 .438.198.438.439v1.418c0 .24-.197.438-.438.438h-1.375c-.242 0-.44-.198-.44-.438 0 0 0-1.418 0-1.418" fill="#004854" transform="matrix(1.30434 0 0 1.30434 55.06-3.045)" stroke-width="1.317"/></g></svg>