<svg xmlns="http://www.w3.org/2000/svg" viewBox="0 0 48 48"><defs><clipPath><path d="m7 1023.36h1v1h-1z"/></clipPath><linearGradient id="0" gradientUnits="userSpaceOnUse" y1="61.831" x2="0" y2="-.203"><stop stop-color="#7737c5"/><stop stop-color="#9371ff" offset="1"/></linearGradient></defs><g fill-rule="evenodd"><rect height="48" width="48" rx="2.982" fill="url(#0)"/><g transform="translate(49.09)" fill="#ece4f9"><g transform="matrix(1.71427 0 0 1.71427-118.44 6.557)" stroke="#ece4f9" enable-background="new" stroke-width=".262"><path d="m58.49 2.866h4.442l3.471-3.071-3.471-3.397h-4.442l3.147 3.397z"/><path d="m42.641 2.866h4.442l3.471-3.071-3.471-3.397h-4.442l3.147 3.397z"/><path d="m50.48 2.866h4.442l3.471-3.071-3.471-3.397h-4.442l3.147 3.397z"/></g><path d="m-25.23 18.799c-6.094 0-11 4.906-11 11 0 6.094 4.906 11 11 11 6.094 0 11-4.906 11-11 0-6.094-4.906-11-11-11m-3.036 6.556l7.01 4.688-7.01 4.688v-9.374" stroke-width="1.317"/></g></g></svg>