<svg xmlns="http://www.w3.org/2000/svg" viewBox="0 0 48 48"><defs><linearGradient y2="-1.429" x2="0" y1="47.37" gradientUnits="userSpaceOnUse" id="0"><stop stop-color="#ff9300"/><stop offset="1" stop-color="#ffd702"/></linearGradient></defs><g transform="matrix(.99999 0 0 .99999-58.37.882)" enable-background="new"><circle cx="82.37" cy="23.12" r="24" fill="url(#0)"/><g transform="translate(63.5 3)" fill="#342300"><path d="m15.874 15.575c.54.254 3.258-.277 3.538-.038.28.242-.685 1.158-.143 1.56 1.289.96 4.696 1.242 7.755.114l1.158 3.185c-1.68.928-4.197 1.464-7.417 1.158l8.458 8.517-3.133 2.82-6.507-6.834c-2.634 4.611-6.075 6.417-8.782 8.07l-2.275-3.588c10.739-6.781 4.786-9.817 7.391-13.691.207-.309-.397-.974-.044-1.272"/><path d="m23.1 11.25c0 2.829-2.293 5.125-5.122 5.125-2.832 0-5.125-2.295-5.125-5.125 0-2.829 2.293-5.125 5.125-5.125 2.829 0 5.122 2.295 5.122 5.125"/></g></g></svg>