<svg xmlns="http://www.w3.org/2000/svg" viewBox="0 0 48 48.000001"><defs><clipPath><circle fill="none" r="10" cy="26" cx="286" color="#000"/></clipPath><linearGradient id="1" x1="24.616" y1="1051.88" x2="25.285" y2="1019.77" gradientUnits="userSpaceOnUse"><stop stop-color="#587ea7"/><stop offset="1" stop-color="#7db2eb"/></linearGradient><linearGradient id="0" x1="29.347" y1="1028.58" x2="30.06" y2="1007.41" gradientUnits="userSpaceOnUse"><stop stop-color="#85cfd6"/><stop offset="1" stop-color="#daedff"/></linearGradient><linearGradient x1="0" x2="47" gradientUnits="userSpaceOnUse"><stop stop-color="#a9a3d4"/><stop offset=".47" stop-color="#87baff"/><stop offset="1" stop-color="#89ec85"/></linearGradient><linearGradient id="2" x1="26.878" y1="1051.82" x2="2.657" y2="1002.69" gradientUnits="userSpaceOnUse"><stop stop-color="#79a4cb"/><stop offset="1" stop-color="#98ceff"/></linearGradient></defs><g transform="matrix(.9661 0 0 .9661.142-969.89)"><circle cx="24" cy="1028.36" r="20" fill="url(#0)" transform="matrix(1.1678 0 0 1.1678-3.127-172.48)"/><g color="#000"><path d="m35.37 1047.43c-11.323 6.538-25.804 2.658-32.34-8.665-6.538-11.324-2.658-25.804 8.665-32.34 13.343-.061 21.815 28.77 23.675 41.01" fill="url(#2)"/><path d="m49.54 1027.65c0 13.692-11.1 24.792-24.792 24.792-13.692 0-24.792-11.1-24.792-24.792 6.93-12.132 37.513-4.719 49.584 0" fill="url(#1)"/></g></g></svg>