<svg xmlns="http://www.w3.org/2000/svg" viewBox="0 0 48 48"><defs><linearGradient id="0" gradientUnits="userSpaceOnUse" y1="25.995" x2="0" y2="-20.291"><stop stop-color="#00a661"/><stop offset="1" stop-color="#37ce97"/></linearGradient></defs><g transform="matrix(.99999 0 0 .99999-38.37 25.882)" enable-background="new"><circle r="24" cy="3.125" cx="52.37" fill="url(#0)" transform="translate(10-5)"/><path d="m36.01 406.82h334.82c14.258 0 25.922-11.656 25.922-25.906v-355.01c0-14.217-11.673-25.906-25.922-25.906h-334.82c-14.29 0-25.939 11.689-25.939 25.906v355.01c0 14.25 11.649 25.906 25.939 25.906m297.5-375.13c0-4.3 3.52-7.771 7.779-7.771h24.304c4.292 0 7.763 3.471 7.763 7.771v25.03c0 4.3-3.471 7.771-7.763 7.771h-24.304c-4.259 0-7.779-3.463-7.779-7.771v-25.03m0 63.67c0-4.3 3.52-7.779 7.779-7.779h24.304c4.292 0 7.763 3.479 7.763 7.779v25.03c0 4.292-3.471 7.795-7.763 7.795h-24.304c-4.259 0-7.779-3.503-7.779-7.795v-25.03m0 63.72c0-4.292 3.52-7.795 7.779-7.795h24.304c4.292 0 7.763 3.503 7.763 7.795v25.04c0 4.259-3.471 7.763-7.763 7.763h-24.304c-4.259 0-7.779-3.503-7.779-7.763v-25.04m0 63.67c0-4.3 3.52-7.795 7.779-7.795h24.304c4.292 0 7.763 3.495 7.763 7.795v25.04c0 4.292-3.471 7.771-7.763 7.771h-24.304c-4.259 0-7.779-3.479-7.779-7.771v-25.04m0 63.67c0-4.3 3.52-7.771 7.779-7.771h24.304c4.292 0 7.763 3.463 7.763 7.771v25.05c0 4.276-3.471 7.755-7.763 7.755h-24.304c-4.259 0-7.779-3.479-7.779-7.755v-25.05m0 63.67c0-4.276 3.52-7.771 7.779-7.771h24.304c4.292 0 7.763 3.495 7.763 7.771v25.08c0 4.243-3.471 7.755-7.763 7.755h-24.304c-4.259 0-7.779-3.503-7.779-7.755v-25.08m-233.53-299.62c0-4.3 3.503-7.771 7.795-7.771h191.3c4.268 0 7.763 3.471 7.763 7.771v123.94c0 4.259-3.495 7.795-7.763 7.795h-191.3c-4.292 0-7.795-3.536-7.795-7.795-.0001 0-.0001-123.94-.0001-123.94m0 191.12c0-4.268 3.503-7.747 7.795-7.747h191.3c4.268 0 7.763 3.479 7.763 7.747v114.57c0 4.276-3.495 7.771-7.763 7.771h-191.3c-4.292 0-7.795-3.495-7.795-7.771-.0001 0-.0001-114.57-.0001-114.57m-66.52-209.91c0-4.3 3.495-7.771 7.779-7.771h24.313c4.268 0 7.755 3.471 7.755 7.771v25.03c0 4.3-3.487 7.771-7.755 7.771h-24.313c-4.284 0-7.779-3.463-7.779-7.771 0 0 0-25.03 0-25.03m0 63.67c0-4.3 3.495-7.779 7.779-7.779h24.313c4.268 0 7.755 3.479 7.755 7.779v25.03c0 4.292-3.487 7.795-7.755 7.795h-24.313c-4.284 0-7.779-3.503-7.779-7.795 0 0 0-25.03 0-25.03m0 63.72c0-4.292 3.495-7.795 7.779-7.795h24.313c4.268 0 7.755 3.503 7.755 7.795v25.04c0 4.259-3.487 7.763-7.755 7.763h-24.313c-4.284 0-7.779-3.503-7.779-7.763 0 0 0-25.04 0-25.04m0 63.67c0-4.3 3.495-7.795 7.779-7.795h24.313c4.268 0 7.755 3.495 7.755 7.795v25.04c0 4.292-3.487 7.771-7.755 7.771h-24.313c-4.284 0-7.779-3.479-7.779-7.771 0 0 0-25.04 0-25.04m0 63.67c0-4.3 3.495-7.771 7.779-7.771h24.313c4.268 0 7.755 3.463 7.755 7.771v25.05c0 4.276-3.487 7.755-7.755 7.755h-24.313c-4.284 0-7.779-3.479-7.779-7.755 0 0 0-25.05 0-25.05m0 63.67c0-4.276 3.495-7.771 7.779-7.771h24.313c4.268 0 7.755 3.495 7.755 7.771v25.08c0 4.243-3.487 7.755-7.755 7.755h-24.313c-4.284 0-7.779-3.503-7.779-7.755 0-.0001 0-25.08 0-25.08" fill="#fff" fill-opacity=".838" transform="matrix(.06145 0 0 .06145 49.874-13.872)" stroke="none" stroke-opacity=".8"/></g></svg>