<svg xmlns="http://www.w3.org/2000/svg" xmlns:xlink="http://www.w3.org/1999/xlink" viewBox="0 0 48 48"><defs><linearGradient xlink:href="#2" id="0" x1="317.9" y1="569.02" x2="317.98" y2="473.2" gradientUnits="userSpaceOnUse"/><linearGradient xlink:href="#2" id="1" x1="312.89" y1="571.73" x2="312.29" y2="475.75" gradientUnits="userSpaceOnUse"/><linearGradient id="2"><stop stop-color="#4469b9"/><stop offset="1" stop-color="#5d91ff"/></linearGradient></defs><g transform="matrix(.47279 0 0 .47279-126.09-222)"><path d="m317.89 471.99c-27.16 0-49.18 22.02-49.18 49.18 0 27.16 22.02 49.18 49.18 49.18 27.16 0 49.18-22.02 49.18-49.18 0-27.16-22.02-49.18-49.18-49.18" fill="url(#0)" color="#000"/><g fill-rule="evenodd"><path d="m324.01 536.31c15.355 6.957 15.383 19.509 9.285 32.11 10.196-5.275 20.16-9.32 24.04-18.46l-14.17-18.218z" fill="#999"/><g transform="matrix(1.22092 0 0 1.22092 50.577-112.97)"><g fill="#f1f1f1"><path d="m255.39 537.13c10.204-24.19.592-30.375-26.942-38.992-1.795-5.225-3.439-7.235-7.527-11.08.79 6.392-7.803 13.599 5.602 16.511-3.679.711-4.463 2-5.952 3.151 19.436.596 33.575 7.43 34.82 30.415"/><path d="m217.07 502.17l3.851-1.225-.875-6.652c-4.143-3.145-5.473-5.664-5.427-7.877.074 5.252-1.108 10.503 2.451 15.755"/></g><path d="m188.83 525.14c7.319 13.626 14.923 7 35.27-3.256 6.895-3.476 9.327.723 14.998.356l-4.35 1.45c14.611 2.433 21.958 6.708 13.183 24.05 19.568-18.61 3.169-38.632-21.723-42.26.529-.967 1.226-1.933 3.867-2.9-6.874-2.578-9.882-8.08-9.02-15.818-2.563 4.78-3.826 9.91-3.384 14.69-3.164 3.209-6.476 3.639-8.548 6.923-3.143 4.98 3.519 9.276-20.33 16.67z" fill="#dedede"/><path d="m211.81 514.77c.026-4.738 3.722-5.556 8.584-5.238-2.23 2.863-3.776 5.536-8.584 5.238" fill="#999"/><path d="m194.49 531.75c6.744 3.327 14.268 1.537 18.553.944 24.713-3.423 40.19 1.128 31.949 17.573 6.896-5.399 19.507-20.913-6.213-29.19-.557-1.796 2.086-1.991 4.201-2.451-12-4.176-23.29 3.44-36.39 9.853-3.336 1.634-8.133 3.02-12.1 3.276" fill="#c1c1c1"/></g></g><path d="m317.46 471.13c-27.16 0-49.18 22.02-49.18 49.18 0 27.16 22.02 49.18 49.18 49.18 27.16 0 49.18-22.02 49.18-49.18 0-27.16-22.02-49.18-49.18-49.18z" fill="none" stroke="url(#1)" color="#000" stroke-width="3.174"/></g></svg>