<svg xmlns="http://www.w3.org/2000/svg" viewBox="0 0 48 48"><defs><linearGradient id="0" gradientUnits="userSpaceOnUse" y1="13.633" x2="0" y2="-13.368"><stop stop-color="#30cf41"/><stop offset="1" stop-color="#47f383"/></linearGradient></defs><g transform="matrix(1.71427 0 0 1.71427 50.789 23.512)" enable-background="new"><circle cx="-15.625" cy=".292" r="14" fill="url(#0)"/><path d="m-6.239-1.355c-.067-.087-.153-.139-.261-.155l-2.274-.348c-.124-.398-.294-.804-.51-1.218.149-.207.373-.499.671-.876.298-.377.51-.652.634-.827.066-.091.099-.186.099-.286 0-.116-.029-.207-.087-.273-.298-.423-.982-1.127-2.051-2.113-.099-.083-.203-.124-.31-.124-.124 0-.224.037-.298.112l-1.765 1.33c-.34-.174-.713-.327-1.119-.46l-.348-2.287c-.008-.108-.056-.197-.143-.267-.087-.07-.188-.106-.305-.106h-2.759c-.24 0-.389.116-.447.348-.108.414-.228 1.185-.36 2.312-.389.124-.766.282-1.131.472l-1.715-1.33c-.108-.083-.215-.124-.323-.124-.182 0-.574.296-1.175.889-.601.593-1.01 1.038-1.224 1.336-.075.108-.112.203-.112.286 0 .099.041.199.124.298.555.671.998 1.243 1.33 1.715-.207.381-.369.762-.485 1.143l-2.312.348c-.091.017-.17.07-.236.162-.066.091-.099.186-.099.286v2.759c0 .108.033.205.099.292.066.087.153.139.261.156l2.275.336c.116.406.286.816.51 1.23-.149.207-.373.499-.671.876-.298.377-.51.652-.634.827-.066.091-.099.186-.099.286 0 .108.029.203.087.286.323.448 1.01 1.144 2.051 2.088.091.091.195.137.311.137.124 0 .228-.037.311-.112l1.753-1.33c.34.174.713.327 1.119.46l.348 2.287c.008.108.056.197.143.267.087.071.189.106.304.106h2.759c.241 0 .39-.116.448-.348.108-.414.228-1.185.36-2.312.389-.124.767-.282 1.131-.472l1.715 1.342c.116.074.224.112.323.112.182 0 .572-.294 1.168-.882.597-.588 1.01-1.036 1.23-1.342.075-.083.112-.178.112-.286 0-.108-.041-.212-.124-.311-.596-.729-1.04-1.301-1.33-1.715.166-.307.327-.684.485-1.131l2.299-.348c.099-.017.182-.071.249-.162.066-.091.099-.187.099-.286v-2.759c0-.108-.033-.205-.099-.292" opacity=".725"/><g fill="#3de467"><path d="m-20.235 3.03c2.531 1.62 6.719 1.532 9.318.058.934-7.295-9.842-7.875-9.318-.058" fill-rule="evenodd"/><rect transform="matrix(.86173-.50737.50737.86173 0 0)" y="-13.597" x="-14.497" height="3.715" width=".531" rx=".265"/><rect transform="matrix(-.86173-.50737-.50737.86173 0 0)" y="2.282" x="12.453" height="3.715" width=".531" rx=".265"/></g><circle cx="-17.383" cy=".642" r=".763" fill="#154e22"/><circle cx="-13.774" cy=".619" r=".763" fill="#144e22"/></g></svg>