<svg xmlns="http://www.w3.org/2000/svg" viewBox="0 0 48 48"><defs><linearGradient id="0" gradientUnits="userSpaceOnUse" y1="15.995" x2="0" y2="-30.29"><stop stop-color="#30cf41"/><stop offset="1" stop-color="#47f383"/></linearGradient></defs><g transform="matrix(.99999 0 0 .99999-23.371 30.882)" enable-background="new"><circle cx="47.37" cy="-6.875" r="24" fill="url(#0)"/><path d="m65.766-13.596c-.075-.099-.174-.158-.296-.176l-2.58-.395c-.141-.451-.334-.912-.578-1.382.169-.235.423-.566.761-.994.338-.428.578-.74.719-.938.075-.104.113-.212.113-.324 0-.132-.033-.235-.099-.31-.338-.48-1.114-1.279-2.327-2.397-.113-.094-.23-.141-.352-.141-.141 0-.254.042-.339.127l-2 1.509c-.386-.197-.809-.371-1.269-.522l-.395-2.594c-.009-.122-.064-.223-.162-.303-.099-.08-.214-.12-.346-.12h-3.13c-.273 0-.442.132-.508.395-.122.47-.259 1.344-.409 2.623-.442.141-.87.32-1.283.536l-1.946-1.509c-.122-.094-.244-.141-.367-.141-.207 0-.651.336-1.333 1.01-.682.672-1.144 1.177-1.389 1.516-.085.122-.127.23-.127.324 0 .113.047.226.141.338.63.762 1.133 1.41 1.509 1.946-.235.432-.418.865-.55 1.297l-2.623.395c-.103.019-.193.08-.268.183-.075.103-.113.212-.113.324v3.13c0 .122.038.233.113.331.075.099.174.158.296.177l2.581.381c.132.461.324.926.578 1.396-.169.235-.423.566-.761.994-.338.428-.578.74-.719.938-.075.104-.113.212-.113.324 0 .122.033.23.099.324.367.508 1.142 1.298 2.327 2.369.104.104.221.155.353.155.141 0 .259-.042.353-.127l1.988-1.509c.386.197.809.371 1.269.522l.395 2.594c.001.122.064.223.162.303.099.08.214.12.345.12h3.13c.273 0 .442-.132.508-.395.122-.47.258-1.344.409-2.623.442-.141.87-.32 1.283-.536l1.946 1.523c.132.084.254.127.367.127.207 0 .649-.334 1.325-1 .677-.667 1.142-1.175 1.396-1.523.085-.094.127-.202.127-.324 0-.122-.047-.24-.141-.353-.677-.827-1.18-1.476-1.509-1.946.188-.348.371-.776.55-1.283l2.609-.395c.113-.019.207-.08.282-.184.075-.104.113-.212.113-.324v-3.13c0-.122-.037-.232-.113-.331" opacity=".725"/><path d="m47.25-2.099c-.06-.078-.138-.125-.235-.14l-2.045-.313c-.112-.358-.265-.723-.458-1.095.134-.186.335-.449.603-.788.268-.339.458-.587.57-.743.06-.082.089-.168.089-.257 0-.104-.026-.186-.078-.246-.268-.38-.883-1.013-1.844-1.9-.089-.074-.182-.112-.279-.112-.112 0-.201.033-.268.1l-1.587 1.196c-.306-.157-.641-.294-1.01-.414l-.313-2.057c-.007-.097-.05-.177-.129-.24-.078-.063-.169-.095-.274-.095h-2.481c-.216 0-.35.104-.402.313-.097.372-.205 1.065-.324 2.079-.35.112-.689.254-1.017.425l-1.542-1.196c-.097-.074-.194-.112-.291-.112-.164 0-.516.266-1.056.799-.54.533-.907.933-1.101 1.202-.067.097-.101.183-.101.257 0 .089.037.179.112.268.499.604.898 1.118 1.196 1.543-.186.343-.332.686-.436 1.028l-2.079.313c-.082.015-.153.063-.212.145-.06.082-.089.168-.089.257v2.481c0 .097.03.184.089.263.06.078.138.125.235.14l2.046.302c.104.365.257.734.458 1.106-.134.186-.335.449-.604.788-.268.339-.458.587-.57.743-.06.082-.089.168-.089.257 0 .097.026.182.078.257.291.403.905 1.029 1.844 1.878.082.082.175.123.279.123.112 0 .205-.033.279-.1l1.576-1.196c.306.157.641.294 1.01.414l.313 2.057c.008.097.05.177.129.24.078.064.17.095.274.095h2.481c.216 0 .35-.104.403-.313.097-.373.205-1.065.324-2.079.35-.112.689-.254 1.017-.425l1.543 1.207c.104.067.201.1.291.1.164 0 .514-.264 1.051-.794.537-.529.905-.932 1.106-1.207.067-.074.101-.16.101-.257 0-.097-.037-.19-.112-.279-.536-.656-.935-1.17-1.196-1.542.149-.276.294-.615.436-1.017l2.068-.313c.089-.015.164-.064.224-.146.06-.082.089-.168.089-.257v-2.481c0-.097-.029-.184-.089-.263" opacity=".725"/><g fill="#3de467"><path d="m49.44-7.917c3.03 1.938 8.04 1.833 11.148.07 1.118-8.728-11.776-9.422-11.148-.07" fill-rule="evenodd"/><rect width=".635" height="4.445" x="51.973" y="11.155" transform="matrix(.86173-.50737.50737.86173 0 0)" rx=".318"/><rect width=".635" height="4.445" x="-42.71" y="-44.58" transform="matrix(-.86173-.50737-.50737.86173 0 0)" rx=".318"/></g><circle r=".913" cy="-10.772" cx="52.849" fill="#154e22"/><circle r=".913" cy="-10.798" cx="57.17" fill="#144e22"/><path d="m56.7 5.444c-.038-.05-.089-.08-.151-.09l-1.313-.201c-.072-.23-.17-.464-.294-.703.086-.12.215-.288.387-.506.172-.218.294-.377.366-.477.038-.053.057-.108.057-.165 0-.067-.017-.12-.05-.158-.172-.244-.567-.651-1.184-1.22-.057-.048-.117-.072-.179-.072-.072 0-.129.021-.172.064l-1.019.768c-.196-.101-.412-.189-.646-.266l-.201-1.32c-.005-.062-.032-.114-.083-.154-.05-.041-.109-.061-.176-.061h-1.593c-.139 0-.225.067-.258.201-.062.239-.132.684-.208 1.335-.225.072-.443.163-.653.273l-.99-.768c-.062-.048-.124-.072-.187-.072-.105 0-.331.171-.678.513-.347.342-.582.599-.707.772-.043.062-.065.117-.065.165 0 .057.024.115.072.172.321.388.577.718.768.991-.12.22-.213.44-.28.66l-1.335.201c-.053.001-.098.041-.136.093-.038.053-.057.108-.057.165v1.593c0 .062.019.118.057.169.038.05.089.08.151.09l1.313.194c.067.234.165.471.294.71-.086.12-.215.288-.388.506-.172.218-.294.377-.366.477-.038.053-.057.108-.057.165 0 .062.017.117.05.165.187.258.581.66 1.184 1.206.053.053.112.079.179.079.072 0 .132-.021.179-.064l1.012-.768c.196.101.412.189.646.266l.201 1.32c.005.062.032.114.083.154.05.041.109.061.176.061h1.593c.139 0 .225-.067.259-.201.062-.239.131-.684.208-1.335.225-.072.443-.163.653-.273l.991.775c.067.043.129.064.187.064.105 0 .33-.17.675-.51.345-.34.581-.598.71-.775.043-.048.065-.103.065-.165 0-.062-.024-.122-.072-.179-.344-.421-.6-.751-.768-.99.096-.177.189-.395.28-.653l1.328-.201c.057-.001.105-.041.144-.093.038-.053.057-.108.057-.165v-1.593c0-.062-.019-.118-.057-.169" opacity=".725"/><path d="m46.918-21.501c-.028-.037-.064-.058-.11-.065l-.954-.146c-.052-.167-.123-.337-.214-.511.063-.087.156-.209.281-.368.125-.158.214-.274.266-.347.028-.038.042-.078.042-.12 0-.049-.012-.087-.036-.115-.125-.177-.412-.473-.86-.887-.042-.035-.085-.052-.13-.052-.052 0-.094.016-.125.047l-.74.558c-.143-.073-.299-.137-.469-.193l-.146-.959c-.004-.045-.023-.083-.06-.112-.037-.03-.079-.044-.128-.044h-1.158c-.101 0-.163.049-.188.146-.045.174-.096.497-.151.97-.163.052-.322.118-.475.198l-.72-.558c-.045-.035-.09-.052-.136-.052-.076 0-.241.124-.493.373-.252.249-.423.435-.514.561-.031.045-.047.085-.047.12 0 .042.017.083.052.125.233.282.419.521.558.72-.087.16-.155.32-.203.48l-.97.146c-.038.007-.071.03-.099.068-.028.038-.042.078-.042.12v1.158c0 .045.014.086.042.123.028.037.064.058.11.065l.954.141c.049.17.12.342.214.516-.063.087-.156.209-.282.368-.125.158-.214.274-.266.347-.028.038-.042.078-.042.12 0 .045.012.085.036.12.136.188.422.48.86.876.038.038.082.057.13.057.052 0 .096-.016.13-.047l.735-.558c.143.073.299.137.469.193l.146.959c.004.045.023.083.06.112.036.03.079.044.128.044h1.158c.101 0 .163-.049.188-.146.045-.174.095-.497.151-.97.163-.052.322-.118.475-.198l.72.563c.049.031.094.047.136.047.076 0 .24-.123.49-.37.25-.247.422-.435.516-.563.031-.035.047-.075.047-.12 0-.045-.017-.089-.052-.13-.25-.306-.436-.546-.558-.72.07-.129.137-.287.203-.475l.965-.146c.042-.007.077-.03.104-.068.028-.038.042-.078.042-.12v-1.158c0-.045-.014-.086-.042-.123" opacity=".725"/><path d="m64.08 1.2c-.027-.036-.063-.057-.107-.064l-.933-.143c-.051-.163-.121-.33-.209-.5.061-.085.153-.205.275-.36.122-.155.209-.268.26-.339.027-.037.041-.076.041-.117 0-.048-.012-.085-.036-.112-.122-.173-.403-.462-.841-.867-.041-.034-.083-.051-.127-.051-.051 0-.092.015-.122.046l-.724.546c-.139-.071-.292-.134-.459-.189l-.143-.938c-.003-.044-.023-.081-.059-.11-.036-.029-.077-.043-.125-.043h-1.132c-.099 0-.16.048-.184.143-.044.17-.094.486-.148.949-.16.051-.314.116-.464.194l-.704-.546c-.044-.034-.088-.051-.133-.051-.075 0-.235.121-.482.365-.247.243-.414.426-.502.548-.031.044-.046.083-.046.117 0 .041.017.082.051.122.228.275.41.51.546.704-.085.156-.151.313-.199.469l-.949.143c-.037.007-.07.029-.097.066-.027.037-.041.076-.041.117v1.132c0 .044.014.084.041.12.027.036.063.057.107.064l.933.138c.048.167.117.335.209.505-.061.085-.153.205-.275.36-.122.155-.209.268-.26.339-.027.037-.041.076-.041.117 0 .044.012.083.036.117.133.184.413.469.841.857.037.037.08.056.128.056.051 0 .094-.015.128-.046l.719-.546c.139.071.292.134.459.189l.143.938c.003.044.023.081.059.11.036.029.077.043.125.043h1.132c.099 0 .16-.048.184-.143.044-.17.093-.486.148-.949.16-.051.315-.116.464-.194l.704.551c.048.031.092.046.133.046.075 0 .235-.121.479-.362.245-.241.413-.425.505-.551.031-.034.046-.073.046-.117 0-.044-.017-.087-.051-.128-.245-.299-.427-.534-.546-.704.068-.126.134-.28.199-.464l.943-.143c.041-.007.075-.029.102-.066.027-.037.041-.077.041-.117v-1.132c0-.044-.013-.084-.041-.12" opacity=".725"/><path d="m40.41-15.373c-.038-.05-.089-.08-.151-.09l-1.313-.201c-.072-.23-.17-.464-.294-.703.086-.12.215-.288.387-.506.172-.218.294-.377.366-.477.038-.053.057-.108.057-.165 0-.067-.017-.12-.05-.158-.172-.244-.567-.651-1.184-1.22-.057-.048-.117-.072-.179-.072-.072 0-.129.021-.172.064l-1.019.768c-.196-.101-.412-.189-.646-.266l-.201-1.32c-.005-.062-.032-.114-.083-.154-.05-.041-.109-.061-.176-.061h-1.593c-.139 0-.225.067-.258.201-.062.239-.132.684-.208 1.335-.225.072-.443.163-.653.273l-.99-.768c-.062-.048-.124-.072-.187-.072-.105 0-.331.171-.678.513-.347.342-.582.599-.707.772-.043.062-.065.117-.065.165 0 .057.024.115.072.172.321.388.577.718.768.991-.12.22-.213.44-.28.66l-1.335.201c-.053.001-.098.041-.136.093-.038.053-.057.108-.057.165v1.593c0 .062.019.118.057.169.038.05.089.08.151.09l1.313.194c.067.234.165.471.294.71-.086.12-.215.288-.388.506-.172.218-.294.377-.366.477-.038.053-.057.108-.057.165 0 .062.017.117.05.165.187.258.581.66 1.184 1.206.053.053.112.079.179.079.072 0 .132-.021.179-.064l1.012-.768c.196.101.412.189.646.266l.201 1.32c.005.062.032.114.083.154.05.041.109.061.176.061h1.593c.139 0 .225-.067.259-.201.062-.239.131-.684.208-1.335.225-.072.443-.163.653-.273l.991.775c.067.043.129.064.187.064.105 0 .33-.17.675-.51.345-.34.581-.598.71-.775.043-.048.065-.103.065-.165 0-.062-.024-.122-.072-.179-.344-.421-.6-.751-.768-.99.096-.177.189-.395.28-.653l1.328-.201c.057-.001.105-.041.144-.093.038-.053.057-.108.057-.165v-1.593c0-.062-.019-.118-.057-.169" opacity=".725"/><g fill="#3de467"><path d="m34.897 2.034c2.139 1.369 5.68 1.295 7.876.049.79-6.167-8.32-6.657-7.876-.049" fill-rule="evenodd"/><rect width=".449" height="3.141" x="32.823" y="14.438" transform="matrix(.86173-.50737.50737.86173 0 0)" rx=".224"/><rect width=".449" height="3.141" x="-34.02" y="-24.908" transform="matrix(-.86173-.50737-.50737.86173 0 0)" rx=".224"/></g><circle r=".645" cy=".017" cx="37.31" fill="#154e22"/><circle r=".645" cy="-.002" cx="40.36" fill="#144e22"/><g fill="#3de467"><path d="m32.475-12.859c1.393.892 3.699.843 5.129.032.514-4.02-5.418-4.335-5.129-.032" fill-rule="evenodd"/><rect width=".292" height="2.045" x="36.973" y="2.126" transform="matrix(.86173-.50737.50737.86173 0 0)" rx=".146"/><rect width=".292" height="2.045" x="-23.358" y="-33.39" transform="matrix(-.86173-.50737-.50737.86173 0 0)" rx=".146"/></g><circle r=".42" cy="-14.173" cx="34.05" fill="#154e22"/><circle r=".42" cy="-14.185" cx="36.03" fill="#144e22"/><g fill="#3de467"><path d="m48.765 8.148c1.393.892 3.699.843 5.129.032.514-4.02-5.418-4.335-5.129-.032" fill-rule="evenodd"/><rect width=".292" height="2.045" x="40.35" y="28.495" transform="matrix(.86173-.50737.50737.86173 0 0)" rx=".146"/><rect width=".292" height="2.045" x="-48.05" y="-23.552" transform="matrix(-.86173-.50737-.50737.86173 0 0)" rx=".146"/></g><circle r=".42" cy="6.835" cx="50.34" fill="#154e22"/><circle r=".42" cy="6.823" cx="52.32" fill="#144e22"/><g fill="#3de467"><path d="m40.987-19.59c1.059.678 2.811.641 3.897.024.391-3.052-4.117-3.294-3.897-.024" fill-rule="evenodd"/><rect width=".222" height="1.554" x="47.13" y="1.431" transform="matrix(.86173-.50737.50737.86173 0 0)" rx=".111"/><rect width=".222" height="1.554" x="-26.823" y="-42.11" transform="matrix(-.86173-.50737-.50737.86173 0 0)" rx=".111"/></g><circle r=".319" cy="-20.588" cx="42.18" fill="#154e22"/><circle r=".319" cy="-20.597" cx="43.69" fill="#144e22"/><g fill="#3de467"><path d="m58.26 3.05c1.059.678 2.811.641 3.897.024.391-3.052-4.117-3.294-3.897-.024" fill-rule="evenodd"/><rect width=".222" height="1.554" x="50.53" y="29.706" transform="matrix(.86173-.50737.50737.86173 0 0)" rx=".111"/><rect width=".222" height="1.554" x="-53.2" y="-31.365" transform="matrix(-.86173-.50737-.50737.86173 0 0)" rx=".111"/></g><circle r=".319" cy="2.052" cx="59.46" fill="#154e22"/></g></svg>