<svg xmlns="http://www.w3.org/2000/svg" viewBox="0 0 48 48"><defs><linearGradient id="0" gradientUnits="userSpaceOnUse" y1="545.14" x2="0" y2="518.14"><stop stop-color="#30cf41"/><stop offset="1" stop-color="#47f383"/></linearGradient></defs><g transform="matrix(1.1282 0 0 1.1282-363.54-568.88)"><circle r="14" cy="531.8" cx="400.57" fill="url(#0)" transform="matrix(1.51949 0 0 1.51949-265.16-282.56)"/><g transform="matrix(1.98054 0 0 1.98054-273.68-523.27)" opacity=".9"><path d="m309.43 533.85l-.211 1.846c.15 1.021 1.399.828 1.582.158l.292-1.743 1.181.003.162 1.565c.077.949 1.722 1.057 1.646-.246l-.274-1.635c.851-.035 1.152-.492 1.216-1.014l.089-1.887 2.02-2.162c.528-.777-.218-1.814-1.108-1.108-.611.791-1.11 1.346-2.407 1.633-.926.204-2.54.314-4.02-.043-.801-.193-1.371-.433-2.196-1.513-.791-.94-2.103-.081-1.354.932l2.187 2.236.088 1.933c.063.694.762.863 1.104 1.046" opacity="1" fill="#154e22" fill-rule="evenodd"/><g transform="matrix(1.0002 0 0 1.0002-.055.055)"><g transform="translate(16.831 2.279)" fill="#154e22"><path d="m291.52 525.88c1.82 1.165 4.832 1.102 6.701.042.672-5.247-7.079-5.664-6.701-.042" opacity="1" fill-rule="evenodd"/><rect transform="matrix(.86173-.50737.50737.86173 0 0)" y="596.81" x="-12.388" height="2.672" width=".382" opacity="1" rx=".191"/><rect transform="matrix(-.86173-.50737-.50737.86173 0 0)" y="297.64" x="-520.51" height="2.672" width=".382" opacity="1" rx=".191"/></g><g fill="#40e86f"><circle cx="310.4" cy="526.44" r=".549" opacity="1"/><circle cx="313" cy="526.43" r=".549" opacity="1"/></g></g></g></g></svg>