<svg xmlns="http://www.w3.org/2000/svg" xmlns:xlink="http://www.w3.org/1999/xlink" viewBox="0 0 48 48"><defs><linearGradient gradientTransform="matrix(2.73113 0 0 2.73291-1074.8-1262.93)" xlink:href="#1" id="3" y1="666.35" x2="0" y2="647.5" gradientUnits="userSpaceOnUse"/><linearGradient xlink:href="#1" id="2" x1="375.73" y1="576.16" x2="376.76" y2="536.3" gradientUnits="userSpaceOnUse"/><linearGradient gradientTransform="matrix(2.44033 0 0 2.44351-838.36-1011.07)" xlink:href="#1" id="0" y1="651.25" x2="0" y2="630.43" gradientUnits="userSpaceOnUse"/><linearGradient id="1"><stop stop-color="#981fe7"/><stop offset="1" stop-color="#db50c8"/></linearGradient></defs><g transform="translate(-326-508.36)"><flowRoot transform="matrix(1.25 0 0 1.25 227.84 498.82)" font-family="Impact" word-spacing="0" line-height="125%" font-weight="bold" letter-spacing="0" font-size="40"><flowRegion><path d="m-79.82 2.107h70.18v63.57h-70.18z"/></flowRegion><flowPara>\documentclass[12pt]{article}</flowPara><flowPara/></flowRoot><g transform="matrix(1.04418 0 0 1.04191-42.611-44.23)"><ellipse cy="553.36" cx="376" rx="21.87" ry="21.884" fill="url(#0)" stroke="url(#0)" stroke-width="2.231"/><path d="m359.77 568.37c-5.318-6.934-1.608-14.282-1.608-14.282-.872-.258-3.661 1.57-3.661 1.57 1.569-5.748 10.196-10.632 10.196-10.632-.958-.35-3.66.346-3.66.346 7.06-6.793 15.687-4.267 15.687-4.267.26-1.483 4.533-4.096 4.533-4.096-.437.433-.613 2.789-.613 2.789.436-.785 1.832-1.57 1.832-1.57-.784 1.828 0 5.748 0 5.748 2.265 2.267 4.792 10.112 4.792 10.112l.961 1.394c1.22 1.745.772 4.49-.437 5.14-4.53 2.446-4.968-2-4.968-2-3.748-.436-6.537-4.62-6.537-4.62-5.05 2.614-2.239 9.987-.057 12.819 2.803 3.63.751 9.501.751 9.501 0 0-10.436.634-17.21-7.949z" fill="#fff" stroke="url(#2)" fill-opacity=".839" stroke-width=".2"/></g><circle cy="532.36" cx="350" r="23.491" fill="none" stroke="url(#3)" stroke-width="1.018"/></g></svg>