<svg xmlns="http://www.w3.org/2000/svg" viewBox="0 0 48 48"><defs><linearGradient id="0" y1="534.68" x2="0" y2="488.91" gradientUnits="userSpaceOnUse"><stop stop-color="#1584d8"/><stop offset="1" stop-color="#1cb2ff"/></linearGradient></defs><g transform="matrix(1.04866 0 0 1.04866-387.67-512.7)"><rect y="488.91" x="369.69" height="45.773" width="45.773" fill="url(#0)" rx="22.886"/><path d="m406.2 508.87c0-.404-.306-.655-.918-.754l-8.224-1.196-3.686-7.454c-.207-.448-.475-.672-.803-.672-.328 0-.595.224-.803.672l-3.686 7.454-8.224 1.196c-.611.098-.917.349-.917.754 0 .229.137.492.41.786l5.963 5.8-1.409 8.192c-.022.153-.033.262-.033.328 0 .229.057.423.172.582.115.158.287.237.516.237.197 0 .415-.065.655-.196l7.356-3.867 7.356 3.867c.23.131.448.196.655.196.219 0 .385-.079.5-.237.114-.158.172-.352.172-.582 0-.142-.005-.251-.017-.328l-1.409-8.192 5.947-5.8c.284-.284.426-.546.426-.786" fill="#bae1f9" stroke-width="1.317"/></g></svg>