<svg xmlns="http://www.w3.org/2000/svg" viewBox="0 0 48 48"><defs><linearGradient gradientTransform="matrix(.3555 0 0 .3508 603.35 572.5)" gradientUnits="userSpaceOnUse" y2="104.85" x2="-1060.26" y1="203.1" x1="-1092.91" id="0"><stop stop-color="#f2b333"/><stop offset="1" stop-color="#fcde3f"/></linearGradient><linearGradient gradientTransform="matrix(.35601 0 0 .35122 692.59 445.55)" gradientUnits="userSpaceOnUse" y2="317.35" x2="-1003.64" y1="433.28" x1="-989.67" id="1"><stop stop-color="#1584d8"/><stop offset="1" stop-color="#1cb2ff"/></linearGradient></defs><g transform="translate(-388.57-505.8)"><rect width="31.911" height="40.21" x="212.11" y="611.98" transform="matrix(.94912-.31493.30721.95164 0 0)" fill="url(#0)" rx=".981"/><rect width="35.539" height="43.17" x="320.31" y="556.65" transform="matrix(.9921-.12541.13781.99046 0 0)" fill="url(#1)" rx="1.054"/><path d="m424.73 522.42l-1.154-.83c-.475-.342-1.143-.233-1.488.243l-8.704 12.1-6.339-4.56c-.475-.342-1.143-.233-1.488.243l-.83 1.154c-.342.475-.233 1.143.243 1.488l8.354 6.01c.24.172.522.234.791.19.269-.044.521-.193.69-.432l10.158-14.12c.351-.484.243-1.148-.232-1.49" opacity=".7" fill="#fff"/></g></svg>