<svg xmlns="http://www.w3.org/2000/svg" viewBox="0 0 48 48"><defs><linearGradient id="0" y1="547.29" x2="0" y2="516.19" gradientUnits="userSpaceOnUse"><stop stop-color="#ff9300"/><stop offset="1" stop-color="#ffd702"/></linearGradient><linearGradient y2="517.8" x2="0" y1="545.8" gradientUnits="userSpaceOnUse"><stop stop-color="#3889e9"/><stop offset="1" stop-color="#5ea5fb"/></linearGradient></defs><g transform="matrix(1.54341 0 0 1.54341-594.9-796.9)"><circle r="15.55" cy="531.87" cx="400.99" fill="url(#0)"/><g transform="matrix(.08144 0 0 .08144 389.02 520)" fill="#fff" fill-opacity=".855"><path d="m298.18 149.09c0-14.357-33.491-23.24-37.697-36.2-4.36-13.428 17.358-40.27 9.225-51.45-8.215-11.288-40.514 1.117-51.802-7.098-11.176-8.134-9.311-42.724-22.737-47.08-12.956-4.206-31.724 24.738-46.08 24.738-14.357 0-33.13-28.944-46.08-24.737-13.426 4.36-11.561 38.949-22.737 47.08-11.288 8.215-43.586-4.19-51.801 7.098-8.134 11.176 13.584 38.02 9.225 51.45-4.207 12.955-37.698 21.84-37.698 36.2 0 14.357 33.491 23.24 37.698 36.2 4.359 13.427-17.358 40.27-9.225 51.45 8.215 11.287 40.513-1.117 51.801 7.098 11.176 8.135 9.311 42.725 22.737 47.08 12.955 4.207 31.723-24.737 46.08-24.737 14.357 0 33.12 28.944 46.08 24.737 13.426-4.359 11.561-38.95 22.736-47.08 11.288-8.215 43.586 4.19 51.801-7.098 8.134-11.176-13.584-38.02-9.225-51.45 4.208-12.955 37.7-21.839 37.7-36.2m-149.09 98.74c-54.44 0-98.74-44.29-98.74-98.74 0-54.44 44.29-98.74 98.74-98.74 54.44 0 98.74 44.29 98.74 98.74 0 54.44-44.29 98.74-98.74 98.74"/><path d="m149.09 66.35c-45.622 0-82.74 37.12-82.74 82.74 0 45.622 37.12 82.74 82.74 82.74 45.623 0 82.74-37.12 82.74-82.74 0-45.622-37.12-82.74-82.74-82.74m25.333 49.907c4.418 0 8 3.582 8 8 0 4.419-3.582 8-8 8-4.418 0-8-3.581-8-8 0-4.418 3.582-8 8-8m-50 0c4.418 0 8 3.582 8 8 0 4.419-3.582 8-8 8-4.418 0-8-3.581-8-8 0-4.418 3.582-8 8-8m71.27 50.562c-6.173 17.727-22.19 30.591-40.815 32.77-1.898.223-3.794.332-5.679.332-16.852 0-32.883-8.708-41.942-23.17-1.953-3.118-3.556-6.458-4.765-9.928-1.454-4.172.75-8.732 4.923-10.187 4.173-1.456 8.732.749 10.186 4.923.815 2.34 1.898 4.594 3.216 6.699 6.81 10.874 19.449 16.927 32.2 15.443 12.575-1.473 23.396-10.163 27.567-22.14 1.452-4.172 6.01-6.378 10.186-4.924 4.173 1.454 6.377 6.01 4.924 10.188"/></g></g></svg>