<svg xmlns="http://www.w3.org/2000/svg" viewBox="0 0 48 48"><defs><linearGradient y2="-15.875" x2="0" y1="32.13" gradientUnits="userSpaceOnUse" id="0"><stop stop-color="#1074f5"/><stop offset="1" stop-color="#02befd"/></linearGradient></defs><g transform="matrix(.99999 0 0 .99999-3.371 15.882)" enable-background="new"><rect y="-15.875" x="3.375" height="48" width="48" fill="url(#0)" rx="24"/><g fill="#daeefe" stroke="#daeefe" stroke-linejoin="round" stroke-linecap="round" stroke-width="1.01"><path d="m40.4.644c-1.693-.025-3.302.418-4.686 1.212-1.083-.61-2.316-1.01-3.636-1.133-1.818-.167-3.561.204-5.07.987-.017.009-.033.017-.046.025-.037.029-.063.075-.063.125 0 .088.071.151.155.151.009 0 .021 0 .029 0 .004 0 .009-.004.009-.004.815-.147 1.66-.188 2.524-.109 2.416.226 4.526.969 6.01 2.633.075.079.142.071.217-.004 1.864-2.136 4.714-2.984 7.779-2.696.171.017.342.033.51.063.059.009.151.021.204.025.101.013.155-.067.155-.151 0-.067-.025-.112-.083-.138-.059-.029-.117-.067-.175-.088-.949-.46-1.993-.748-3.101-.866-.243-.021-.489-.042-.732-.046"/><path d="m34.793 7.962c-3.414 0-6.571 1.083-9.154 2.901-1.973-.877-4.155-1.366-6.452-1.366-3.269 0-6.299.987-8.819 2.675-.004.004-.017.013-.021.017-.059.042-.088.105-.088.18 0 .129.105.234.23.234.017 0 .033-.004.046-.004.013 0 .021-.004.025-.009 1.447-.434 2.98-.664 4.569-.664 4.209 0 7.971.991 10.796 3.628.009.004.017.013.025.017.042.037.092.05.155.05.071 0 .134-.021.175-.075 0 0 .092-.121.138-.193 2.879-3.896 7.62-5.819 12.883-5.819.377 0 .752.009 1.125.037.105.004.335.025.338.025.125 0 .23-.105.23-.234 0-.092-.055-.167-.134-.201-.009-.004-.017-.009-.025-.013-1.864-.761-3.896-1.191-6.03-1.191"/></g></g></svg>