<svg xmlns="http://www.w3.org/2000/svg" viewBox="0 0 48 48"><defs><linearGradient id="0" gradientUnits="userSpaceOnUse" y1="27.13" x2="0" y2="-20.875"><stop stop-color="#0973d9"/><stop offset="1" stop-color="#0cbffe"/></linearGradient></defs><g transform="matrix(.99999 0 0 .99999-43.37 20.882)" enable-background="new"><rect y="-20.875" x="43.38" height="48" width="48" fill="url(#0)" rx="24"/><path d="m82.28 1.459c-.047-.422-.539-.739-.964-.739-1.375 0-2.594-.807-3.106-2.055-.523-1.279-.186-2.77.839-3.709.322-.295.362-.788.091-1.131-.704-.893-1.503-1.7-2.376-2.4-.342-.274-.844-.236-1.14.092-.894.99-2.5 1.358-3.741.84-1.291-.543-2.106-1.852-2.026-3.257.026-.441-.296-.825-.736-.876-1.12-.13-2.251-.134-3.375-.009-.435.048-.757.423-.743.858.049 1.391-.775 2.677-2.054 3.2-1.226.501-2.821.136-3.713-.845-.295-.323-.788-.363-1.132-.095-.899.705-1.717 1.513-2.427 2.399-.277.344-.236.844.09 1.14 1.044.945 1.381 2.449.839 3.743-.518 1.233-1.798 2.028-3.264 2.028-.476-.015-.814.304-.866.736-.132 1.127-.133 2.275-.006 3.411.047.423.554.738.984.738 1.306-.033 2.56.775 3.086 2.056.524 1.279.187 2.769-.839 3.709-.321.295-.362.787-.091 1.13.697.888 1.497 1.696 2.373 2.401.344.277.844.238 1.142-.09.897-.993 2.503-1.36 3.739-.841 1.295.542 2.109 1.85 2.029 3.256-.026.441.298.826.736.876.573.067 1.15.1 1.728.1.549 0 1.098-.03 1.647-.091.435-.048.757-.423.743-.859-.05-1.39.775-2.676 2.052-3.199 1.234-.504 2.822-.135 3.715.845.297.323.787.362 1.132.095.897-.704 1.713-1.511 2.427-2.399.277-.344.238-.844-.09-1.14-1.044-.945-1.383-2.45-.84-3.742.51-1.217 1.743-2.033 3.069-2.033l.186.005c.43.035.826-.296.878-.735.132-1.128.134-2.275.007-3.411m-14.882 6.701c-2.759 0-5-2.244-5-5 0-2.759 2.244-5 5-5 2.759 0 5 2.244 5 5 0 2.759-2.244 5-5 5" fill="#fff" fill-rule="evenodd" fill-opacity=".861" stroke-width="1.317"/></g></svg>