<svg xmlns="http://www.w3.org/2000/svg" viewBox="0 0 48 48"><defs><linearGradient id="0" gradientUnits="userSpaceOnUse" x1="52.27" y1="27.599" x2="52.594" y2="-20.918"><stop stop-color="#74cb32"/><stop offset="1" stop-color="#abeb6b"/></linearGradient></defs><g transform="matrix(.99999 0 0 .99999-28.371 20.882)" enable-background="new"><circle cx="52.37" cy="3.125" r="24" fill="url(#0)"/><g fill="#191919" fill-opacity=".855"><path d="m52.761-2.598c.529-.884 1.366-2.148 2.424-3.362h.0001c.896-1.03 2.65-2.352 2.65-2.352.264-.199.235-.477-.064-.616l-2.12-.991c-.3-.14-.707-.038-.906.226 0 0-1.568 2.249-3.414 7.04-5.706-2.581-11.13 1.034-11.13 7.321 0 6.566 5.05 16.541 11.884 13.53 7.195 3.114 11.888-6.963 11.888-13.53 0-6.341-4.876-10.06-11.212-7.264" opacity=".9"/><path d="m51.48-4.725c.33-.028.621-.32.648-.649 0 0 .212-2.568-1.578-4.359-1.795-1.792-4.358-1.578-4.358-1.578-.33.028-.621.32-.648.649 0 0-.215 2.569 1.576 4.361 1.791 1.79 4.36 1.576 4.36 1.576" opacity=".9"/></g></g></svg>