<svg xmlns="http://www.w3.org/2000/svg" xmlns:xlink="http://www.w3.org/1999/xlink" viewBox="0 0 48 48"><defs><linearGradient gradientUnits="userSpaceOnUse" y2="500.92" x2="0" y1="549.92" id="2" xlink:href="#0"/><linearGradient gradientUnits="userSpaceOnUse" y2="503.8" x2="409.57" y1="552.8" x1="408.57" xlink:href="#0"/><linearGradient id="0"><stop stop-color="#197cf1"/><stop offset="1" stop-color="#59d0ff"/></linearGradient><linearGradient id="1" x1="405.57" y1="543.8" x2="406.57" y2="501.8" gradientUnits="userSpaceOnUse"><stop stop-color="#1673db"/><stop offset="1" stop-color="#42d6fc"/></linearGradient></defs><g transform="matrix(1.02134 0 0 1.02134-424.21-516.62)"><g transform="matrix(1.04438 0 0 1.04438 14.89-16.431)" stroke="url(#2)"><path stroke-opacity=".55" fill="#fff" fill-opacity=".235" stroke-width="2.8" d="m399.57 514.8h18v1h-18z"/><circle cx="406.01" cy="522.6" r="21.542" fill="url(#1)" stroke="url(#1)" stroke-linejoin="round" stroke-linecap="round" stroke-width="1.915"/></g><path d="m412.39 537.33c-.401-.404-1.052-.404-1.453 0l-4.057 4.497-4.057-4.497c-.402-.404-1.052-.404-1.453 0-.402.404-.402 1.058 0 1.461l4.719 5.231c.217.218.507.314.791.296.284.018.574-.078.791-.296l4.719-5.231c.401-.404.401-1.058 0-1.461m-5.516-4.351c.935 0 1.693-.761 1.693-1.7 0-.939-.758-1.7-1.693-1.7-.935 0-1.693.761-1.693 1.7 0 .939.758 1.7 1.693 1.7m0 4.858c.935 0 1.693-.761 1.693-1.7 0-.939-.758-1.7-1.693-1.7-.935 0-1.693.761-1.693 1.7 0 .939.758 1.7 1.693 1.7" fill="#fff" stroke="none" fill-opacity=".853" transform="matrix(1.70006 0 0 1.69482-253.09-380.41)" stroke-opacity=".8"/></g></svg>