<svg xmlns="http://www.w3.org/2000/svg" viewBox="0 0 48 48"><defs><linearGradient id="0" y1="22.13" x2="0" y2="-25.872" gradientUnits="userSpaceOnUse"><stop stop-color="#1365f4"/><stop offset="1" stop-color="#05b2fc"/></linearGradient></defs><g transform="matrix(.99999 0 0 .99999-38.37 25.882)" enable-background="new"><rect width="48" height="48" x="38.37" y="-25.875" fill="url(#0)" rx="24" stroke-width="1"/><path d="m61.07-15.275l-10.698 6.06 5.171 2.923 5.526-3.122zm2.227 0v5.856l5.519 3.129 5.175-2.923zm-1.115 6.982l-6.205 3.509-.004 7.02 6.201 3.513 6.205-3.506v-7.02l-6.198-3.513m-12.924.966l-.004 12.1 5.171-2.923v-6.262l-5.168-2.919m25.846 0l-5.171 2.923v6.258l5.168 2.923.004-12.1m-19.563 11.06l-5.175 2.93 10.701 6.06v-5.856zm13.273 0l-5.523 3.122v5.856l10.694-6.05z" fill="#fff" fill-opacity=".85"/></g></svg>