<svg xmlns="http://www.w3.org/2000/svg" viewBox="0 0 48 48"><defs><linearGradient id="0" y1="22.24" x2="0" y2="-25.76" gradientUnits="userSpaceOnUse"><stop stop-color="#1365f4"/><stop offset="1" stop-color="#05b2fc"/></linearGradient></defs><g transform="matrix(.99999 0 0 .99999-13.411 25.762)" enable-background="new"><rect width="48" height="48" x="13.412" y="-25.76" fill="url(#0)" rx="24"/><g fill-opacity=".75"><path d="m29.16-9.06c-2.043 0-4.03.774-5.49 2.144-1.462 1.375-2.298 3.279-2.298 5.241 0 1.962.842 3.861 2.298 5.231 1.442 1.356 3.399 2.126 5.418 2.139v.005c.025 0 .043 0 .073 0 2.409.101 4.356-.784 5.778-2.063.981-.89 1.73-1.932 2.433-3 .702 1.067 1.452 2.111 2.433 3 1.423 1.279 3.365 2.164 5.778 2.063.02 0 .043 0 .068 0v-.005c2.02-.02 3.98-.784 5.423-2.139 1.462-1.375 2.298-3.269 2.298-5.231 0-1.962-.842-3.871-2.298-5.241-1.462-1.37-3.447-2.144-5.49-2.144-2.543 0-4.548.966-6.03 2.308-.855.779-1.548 1.668-2.178 2.582-.635-.913-1.322-1.803-2.182-2.582-1.481-1.342-3.49-2.308-6.03-2.308m0 2.606c1.894 0 3.105.61 4.222 1.611.875.794 1.639 1.899 2.404 3.072-.87 1.37-1.707 2.64-2.649 3.49-1.049.943-2.129 1.466-3.904 1.375l-.038-.005h-.033c-1.337 0-2.693-.529-3.62-1.399l-.025-.015c-.933-.875-1.481-2.139-1.481-3.356 0-1.221.548-2.486 1.481-3.36.943-.875 2.303-1.413 3.644-1.413m16.433 0c1.337 0 2.697.539 3.639 1.413.933.88 1.486 2.144 1.486 3.36 0 1.221-.553 2.486-1.486 3.356l-.025.015c-.933.865-2.283 1.399-3.616 1.399h-.038l-.033.005c-1.77.091-2.86-.433-3.909-1.375-.938-.85-1.778-2.121-2.644-3.49.764-1.173 1.524-2.283 2.404-3.072 1.11-1 2.322-1.611 4.222-1.611"/><path d="m44.2-4.591v2.099h-2.094v2.094h2.094v2.099h2.099v-2.099h2.094v-2.094h-2.094v-2.099"/><path d="m26.831-2.579v2.094h5.247v-2.094"/></g></g></svg>