<svg xmlns="http://www.w3.org/2000/svg" viewBox="0 0 48 48"><defs><linearGradient id="0" x1="24.61" y1="48.41" x2="22.779" y2=".407" gradientUnits="userSpaceOnUse"><stop stop-color="#2b65bd"/><stop stop-color="#64a3dc" offset="1"/></linearGradient></defs><path d="m2.982 0h42.04c1.652 0 2.982 1.33 2.982 2.982v42.04c0 1.652-1.33 2.982-2.982 2.982h-42.04c-1.652 0-2.982-1.33-2.982-2.982v-42.04c0-1.652 1.33-2.982 2.982-2.982" fill="url(#0)" fill-rule="evenodd"/><g enable-background="new"><path d="m60.58-15.881l-10.05 27.999h3.933l7.89-22.539 3.374 9.583c-1.261-.333-2.628-.227-3.807.313-1.209.554-2.227 1.593-2.591 3.035-.221.877-.136 1.823.248 2.642.384.818 1.104 1.517 2.091 1.742.583.133 1.198.062 1.739-.21.541-.272 1.018-.792 1.148-1.487.076-.402.019-.809-.175-1.18-.194-.371-.576-.713-1.071-.787-.282-.042-.551.005-.81.154-.259.148-.515.457-.551.839l1.323.124c-.009.092-.092.188-.12.204-.028.016-.009.011-.036.005.042.005.049.001.088.086.039.076.06.216.044.303-.047.251-.188.413-.433.536-.246.124-.586.162-.856.101-.559-.127-.94-.491-1.182-1.01-.242-.516-.305-1.174-.164-1.733.258-1.02.948-1.729 1.855-2.145.907-.416 2.024-.503 2.995-.227.296.084.573.198.839.33l3.984 11.318h3.935l-10.05-27.999h-3.588" fill="#e3ecf7" transform="matrix(.99999 0 0 .99999-38.37 25.882)"/></g></svg>