<svg xmlns="http://www.w3.org/2000/svg" viewBox="0 0 48 48"><defs><linearGradient id="0" x1="24.61" y1="48.41" x2="22.779" y2=".407" gradientUnits="userSpaceOnUse"><stop stop-color="#2b65bd"/><stop stop-color="#64a3dc" offset="1"/></linearGradient></defs><path d="m2.982 0h42.04c1.652 0 2.982 1.33 2.982 2.982v42.04c0 1.652-1.33 2.982-2.982 2.982h-42.04c-1.652 0-2.982-1.33-2.982-2.982v-42.04c0-1.652 1.33-2.982 2.982-2.982" fill="url(#0)" fill-rule="evenodd"/><g transform="matrix(1.06587 0 0 1.06587-411.48-534.3)" fill="#e3ecf7"><path d="m393.08 522.73v-1.206h4.289c1.519 0 2.278.76 2.279 2.279v3.351c0 1.519-.76 2.279-2.279 2.279h-2.681c-1.519 0-2.279-.76-2.279-2.279v-.027c0-1.501.76-2.252 2.279-2.252h2.949v1.206h-2.949c-.715 0-1.072.348-1.072 1.045v.027c0 .715.357 1.072 1.072 1.072h2.681c.715 0 1.072-.357 1.072-1.072v-3.351c0-.715-.357-1.072-1.072-1.072h-4.289"/><path d="m402.21 529.43h-1.206v-5.629c0-1.519.76-2.278 2.279-2.279h.938v1.206h-.938c-.715 0-1.072.357-1.072 1.072v5.629"/><path d="m404.89 521.52h.67v-3.351h1.112v3.351h1.434v1.206h-1.434v6.701h-1.112v-6.701h-.67v-1.206"/><path d="m416.28 529.43h-1.206v-5.629c0-.715-.357-1.072-1.072-1.072h-3.753v6.701h-1.206v-11.258h1.206v3.351h3.753c1.519 0 2.278.76 2.279 2.279v5.629"/><path d="m418.16 522.73v-1.206h4.289c1.519 0 2.278.76 2.278 2.279v3.351c0 1.519-.76 2.279-2.278 2.279h-2.681c-1.519 0-2.279-.76-2.279-2.279v-.027c0-1.501.76-2.252 2.279-2.252h2.949v1.206h-2.949c-.715 0-1.072.348-1.072 1.045v.027c0 .715.357 1.072 1.072 1.072h2.681c.715 0 1.072-.357 1.072-1.072v-3.351c0-.715-.357-1.072-1.072-1.072h-4.289"/></g></svg>