<svg xmlns="http://www.w3.org/2000/svg" viewBox="0 0 48 48"><defs><linearGradient gradientTransform="matrix(-.55335 0 0 .60252 250.6-269.13)" gradientUnits="userSpaceOnUse" y2="508.47" x2="373.97" y1="543.13" x1="374.26" id="0"><stop stop-color="#ff9300"/><stop offset="1" stop-color="#ffd702"/></linearGradient><linearGradient gradientUnits="userSpaceOnUse" y2="16.623" x2="32.695" y1="57.24" x1="32.738" id="1"><stop stop-color="#197ff1"/><stop offset="1" stop-color="#21c6fb"/></linearGradient></defs><g transform="matrix(.99999 0 0 .99999-8.371-14.12)" enable-background="new"><path d="m49.3 22.16c-4.526-3.683-10.535-5.712-16.921-5.712-6.386 0-12.395 2.028-16.921 5.712-4.565 3.715-7.079 8.667-7.079 13.942 0 5.04 2.292 9.774 6.469 13.426-.075.169-.135.348-.173.535l-1.373 6.752c-.163.802.056 1.281.269 1.541.246.301.61.466 1.026.466.314 0 .651-.093 1-.275l7.984-4.148c2.764.89 5.736 1.356 8.795 1.356 6.386 0 12.395-2.028 16.921-5.712 4.565-3.715 7.079-8.666 7.079-13.942 0-5.276-2.514-10.227-7.079-13.942" fill="url(#1)"/><path d="m28.639 23.998l2.265.539q-.324.863-.755 1.618h10.892v8.52h-16.176v1.402h19.09v1.725h-19.09v1.402h19.304q-.324 7.01-1.078 8.412-.647 1.51-2.48 1.51-.863 0-2.696-.324l-.431-2.157q2.049.324 2.912.324.647 0 .863-.647.324-.755.539-5.284h-19.09v-14.882h5.069q.539-1.078.863-2.157m-3.775 3.882v1.725h14.02v-1.725h-14.02m0 3.343v1.725h14.02v-1.725h-14.02m4.637 10.461h2.157v2.912h5.284v-2.696h2.049v4.422h-14.667v1.833h-2.157v-6.147h2.157v2.588h5.176v-2.912" opacity=".8" fill="#fff"/><path d="m35.582 39.845c2.263-2.01 5.268-3.11 8.46-3.11 3.193 0 6.198 1.104 8.46 3.11 2.283 2.023 3.54 4.718 3.54 7.591 0 2.741-1.146 5.321-3.235 7.309.038.092.068.189.087.291l.686 3.676c.082.437-.028.697-.134.839-.123.164-.305.254-.513.254-.157 0-.326-.05-.501-.15l-3.992-2.258c-1.382.484-2.868.738-4.398.738-3.193 0-6.198-1.104-8.46-3.11-2.283-2.023-3.54-4.718-3.54-7.59 0-2.872 1.257-5.568 3.54-7.591" fill="url(#0)"/><g fill="#fff" fill-opacity=".847"><path d="m37.37 45.38h4.968c-.14.897-.616 1.853-1.415 2.843-.51-.816-.837-1.608-1.024-2.135-.047-.133-.173-.222-.314-.222h-.818c-.106 0-.206.051-.269.136-.063.086-.081.196-.049.298.194.61.64 1.807 1.465 3.02-.974.947-1.945 1.63-2.32 1.881-.149.1-.192.301-.097.453l.41.656c.047.076.124.13.211.149.024.005.047.008.071.008.065 0 .128-.019.183-.055.387-.254 1.39-.948 2.44-1.954.389.405 1.302 1.115 1.844 1.509.083.06.188.079.287.051.098-.028.178-.1.217-.194l.306-.748c.062-.15.005-.324-.133-.409-.353-.219-1.017-.668-1.559-1.252 1.19-1.393 1.869-2.751 2.02-4.04h.262c.184 0 .333-.149.333-.333v-.888c0-.184-.149-.333-.333-.333h-2.594v-.456c0-.184-.149-.333-.333-.333h-.831c-.184 0-.333.149-.333.333v.456h-2.594c-.184 0-.333.149-.333.333v.888c0 .184.149.333.333.333"/><path d="m48.776 44.32c-.043-.139-.172-.235-.318-.235h-1.851c-.146 0-.276.096-.319.236l-2.212 7.231c-.031.101-.012.211.051.296.063.085.162.135.268.135h1.148c.15 0 .281-.1.321-.244l.496-1.784h2.262l.537 1.791c.042.141.172.237.319.237h1.22c.106 0 .205-.05.268-.135.063-.085.081-.195.05-.296l-2.241-7.232m-2.159 4.301l.833-3.199h.023l.891 3.199h-1.747"/></g></g></svg>