<svg xmlns="http://www.w3.org/2000/svg" xmlns:xlink="http://www.w3.org/1999/xlink" viewBox="0 0 48 48"><defs><linearGradient id="5"><stop stop-color="#141414"/><stop offset="1" stop-color="#2d2d2f"/></linearGradient><linearGradient xlink:href="#5" id="4" x1="72.38" y1="29.13" x2="72.867" y2="-9.06" gradientUnits="userSpaceOnUse"/><linearGradient xlink:href="#5" id="6" x1="72.4" y1="34.832" x2="71.71" y2="-10.09" gradientUnits="userSpaceOnUse"/><linearGradient xlink:href="#1" id="3" x1="65.38" y1="21.591" x2="64.56" y2="5.657" gradientUnits="userSpaceOnUse"/><linearGradient id="1"><stop stop-color="#30cf41"/><stop offset="1" stop-color="#47f383"/></linearGradient><linearGradient xlink:href="#1" id="0" x1="72.54" y1="20.781" x2="72.38" y2="-1.033" gradientUnits="userSpaceOnUse"/><linearGradient xlink:href="#1" id="2" x1="79.3" y1="23.267" x2="78.63" y2="5.967" gradientUnits="userSpaceOnUse"/></defs><g transform="matrix(.99999 0 0 .99999-48.37 10.882)" enable-background="new"><circle r="24" cy="13.12" cx="72.37" fill="url(#6)" fill-rule="evenodd"/><g color="#000"><path d="m60.12 13.23v5.982l5.797 3.851c3.189 2.118 5.813 3.851 5.832 3.851.019 0 .035-2.689.035-5.976v-5.975l-5.794-3.858c-3.186-2.122-5.811-3.858-5.832-3.858-.021 0-.039 2.692-.039 5.982" opacity=".987" fill="url(#3)"/><path d="m78.78 11.378l-5.79 3.874-.0001 5.878c-.0001 3.233.014 5.878.033 5.878.019 0 2.633-1.738 5.809-3.862l5.774-3.862v-5.896c0-3.243-.008-5.893-.017-5.891-.009 0-2.622 1.748-5.807 3.879" opacity=".987" fill="url(#2)"/><path d="m66.67 2.415c-3.107 2.077-5.676 3.803-5.709 3.835-.067.065 11.371 7.782 11.545 7.789.127 0 11.373-7.52 11.35-7.595-.011-.035-10.532-7.153-11.499-7.78-.021-.015-2.581 1.674-5.688 3.751" opacity=".987" fill="url(#0)"/><path d="m71.19 28.388l-12.42-8.264v-1.842-11.475-.614c1.736-1.136.336-.218 1.133-.756l11.1-7.414c1.353-.901.012 0 1.37-.897 12.12 8.05 9.148 6.07 12.656 8.406.954.698.177.144.944.708v.519.047 11.475 1.842c-3.512 2.337-.514.342-.85.567l-11.57 7.698-.614.378c-.427.275 1.849-1.195-.567.36-1.121-.711-.001 0-1.181-.738m.425-1.558v-11.712l-.094-.142-.331-.189-10.909-7.272v11.759zm1.511 0l11.334-7.556v-11.523l-11.334 7.556zm-.567-12.987l11.05-7.367-11.239-7.509-11.1 7.367 10.767 7.178" opacity=".987" fill="url(#4)"/></g></g></svg>