<svg xmlns="http://www.w3.org/2000/svg" viewBox="0 0 48 48"><defs><linearGradient id="0" y1="28.942" x2="0" y2=".942" gradientUnits="userSpaceOnUse"><stop stop-color="#15a802"/><stop offset="1" stop-color="#80e950"/></linearGradient></defs><g transform="matrix(1.71427 0 0 1.71427-14.251-1.598)" enable-background="new"><rect y=".942" x="8.313" height="28" width="28" fill="url(#0)" rx="14"/><path d="m23.02 22.907q-.419.427-1.058.427-.639 0-1.08-.427-.419-.427-.419-1.024 0-.598.419-1.024.441-.427 1.08-.427.639 0 1.058.427.441.427.441 1.024 0 .598-.441 1.024m-.022-4.439h-2.072v-1q0-.96.419-1.643.419-.704 1.477-1.643.595-.534.838-.79.264-.277.507-.747.264-.491.264-1 0-.982-.661-1.579-.639-.598-1.785-.598-1.895 0-2.601 2.049l-1.895-.768q.463-1.216 1.587-2.177 1.146-.982 2.909-.982 2.01 0 3.262 1.152 1.256 1.131 1.256 2.902 0 .768-.419 1.558-.419.79-.749 1.131-.309.32-.882.832-.066.064-.11.107-1.344 1.174-1.344 2.348v.854" fill="#fff" fill-opacity=".851"/></g></svg>