<svg xmlns="http://www.w3.org/2000/svg" viewBox="0 0 48 48"><defs><linearGradient id="0" x1="62.99" y1="22.532" x2="62.18" y2="-27.299" gradientUnits="userSpaceOnUse"><stop stop-color="#f16419"/><stop stop-color="#feb600" offset="1"/></linearGradient></defs><g enable-background="new"><path d="m41.36-25.875h42.04c1.652 0 2.982 1.33 2.982 2.982v42.04c0 1.652-1.33 2.982-2.982 2.982h-42.04c-1.652 0-2.982-1.33-2.982-2.982v-42.04c0-1.652 1.33-2.982 2.982-2.982" fill="url(#0)" fill-rule="evenodd" transform="matrix(.99999 0 0 .99999-38.37 25.882)"/></g><path d="m23.525 10.663c-.953 1.327-1.515 2.954-1.515 4.713 0 .966.17 1.892.48 2.751.562-.094 1.284-.198 1.953-.291-.315-.864-.487-1.797-.487-2.77 0-1.522.421-2.945 1.152-4.161l-1.584-.243m-15.05 4.951l-2.474 1.216c1.825 2.504 4.778 4.133 8.114 4.133 1.097 0 2.15-.181 3.138-.507v13.63h2.503v-6.33c.248-.784.979-1.349 1.847-1.349.865 0 1.594.562 1.844 1.341v6.338h2.503v-3.142-3.442-.142c0-1.741-1.402-3.142-3.143-3.142-1.481 0-2.715 1.014-3.052 2.388v-8.08h-2.503v-.005c-.449.058-.904.097-1.368.097-2.88 0-5.492-1.145-7.41-3m27.593.08c-3.409 0-6.522 1.269-8.893 3.36.364.308.951.832 1.543 1.368 2.353-1.793 5.291-2.858 8.478-2.858 1.688 0 3.306.299 4.805.847l-.388-1.525c-1.691-.766-3.568-1.192-5.544-1.192m-9.211 6.649l-1.727 1.727c5.679 2.504 10.11 7.325 12.08 13.267l3.68-.855c-2.027-6.739-7.316-12.06-14.03-14.14" fill="#feeddc" fill-rule="evenodd"/></svg>