<svg xmlns="http://www.w3.org/2000/svg" xmlns:xlink="http://www.w3.org/1999/xlink" viewBox="0 0 48 48"><defs><linearGradient id="3" gradientUnits="userSpaceOnUse" x1="32.732" y1="33" x2="-5.04" y2="12.644"><stop stop-color="#d5dbff"/><stop offset="1" stop-color="#ebedff"/></linearGradient><linearGradient id="4" x1="14.164" y1="45.635" x2="13.713" y2="1.62" gradientUnits="userSpaceOnUse"><stop stop-color="#363636"/><stop offset="1" stop-color="#4b4f59"/></linearGradient><linearGradient gradientUnits="userSpaceOnUse" y2="2.175" x2="18.964" y1="50.678" x1="17.987" id="2" xlink:href="#1"/><linearGradient gradientTransform="matrix(1.03707-.18715.17446 1.11252-504.63-483.12)" gradientUnits="userSpaceOnUse" x2="410.34" x1="389.96" id="0" xlink:href="#1"/><linearGradient id="1"><stop stop-color="#c52828"/><stop offset="1" stop-color="#ff5454"/></linearGradient></defs><g transform="matrix(.99999 0 0 .99999 11.629.882)" enable-background="new"><path d="m10.938.679c-10.509.43-11.2 1.647-12.494 2.302-1.734.878-3.866 1.372-3.643-.048-.738.27-1.587 1.298-.867 2.583.72 1.286-.718 2.784-1.411 1.974-1.326-1.551-4.575-.334-4.101 1.65.467-.467 2.642-1.488 2.339.791-.302 2.279-.453 4.03 1.865 5.579 2.317 1.554 11.308-.018 11.308-.018z" fill="url(#0)" fill-rule="evenodd"/><path d="m13.713 1.62c-5.479 0-10.959 2.099-15.16 6.297-8.397 8.397-8.397 21.918 0 30.31 8.397 8.397 21.918 8.397 30.31 0 8.397-8.397 8.397-21.918 0-30.31-4.198-4.198-9.678-6.297-15.16-6.297" fill="url(#4)"/><path d="m2.422 3.538c-10.784 6.242-14.476 20.04-8.24 30.828 6.235 10.787 20.04 14.477 30.822 8.242 10.79-6.241 14.473-20.04 8.238-30.824-6.235-10.787-20.03-14.472-30.82-8.246m11.285 19.29l18.579.477c-.025 1.55-.238 3.092-.632 4.588-1.226 4.563-4.154 8.645-8.536 11.217l-9.404-16.265-9.804 16.07c-2.53-1.564-4.73-3.75-6.329-6.517-1.677-2.9-2.474-6.06-2.493-9.182l18.61-.396-9.193-15.905c4.42-2.505 9.417-3.01 13.982-1.793 1.314.35 2.587.849 3.798 1.481l-8.579 16.221z" fill="url(#3)"/><path d="m23.306 2.551c.709.652 1.629 1.591 2.198 2.607.992 1.771.85 4.851-2.195 5.418-3.045.567-3.162-.471-3.152-1.7-1.619.223-2.343 3.811.496 5.064 2.408 1.062 3.293.637 7.826.354 4.533-.283 5.064 5.241 2.939 6.091-2.125.85-2.936-.665-2.797-1.487-1.703.665-1.911 2.52-1.062 3.399 6.625 6.865 3.448 12.169 1.629 12.713-2.254.674-3.843-.662-2.691-2.443.938-1.452.129-3.846-1.011-4.694-1.14-.848-3.354-.645-4.3-.015 1.365.516 3.364 1.31 2.833 3.081-.41 1.367-1.754 2.228-3.435 2.196-3.829-.075-2.617-3.534-2.089-3.931-2.058-.255-3.432 3.5-2.089 4.781 1.321 1.26 3.179 1.963 2.054 3.895-1.18 2.026-2.833 3.116-5.666 2.55-2.833-.567-4.391-2.373-4.04-4.04.354-1.664 1.181-1.886 2.62-1.912-.898-1.902-5.312-1.912-5.241 1.381.037 1.701-2.811 1.981-4 .071-1.346-2.16-.208-3.084 1.31-2.727.101-2.405-1.948-1.239-2.479-3.895-.531-2.656 1.334-3.394 1.334-3.394-3.336 1.017-4.052 2.01-7.486.982-1.219-.363.194-3.678-3.726-2.537.662 11.953 10.502 21.379 22.626 21.379 12.555 0 22.663-10.11 22.663-22.663 0-9.117-5.342-16.922-13.07-20.525" fill="url(#2)" fill-rule="evenodd"/></g></svg>