<svg xmlns="http://www.w3.org/2000/svg" viewBox="0 0 48 48"><defs><linearGradient id="0" x1="24.814" y1="46.78" x2="23.797" y2="-.407" gradientUnits="userSpaceOnUse"><stop stop-color="#0a80fd"/><stop stop-color="#56c5fa" offset="1"/></linearGradient></defs><ellipse ry="24" rx="24" cy="24" cx="24" fill="url(#0)"/><g transform="matrix(.99999 0 0 .99999-58.37-14.12)" enable-background="new" fill="#e0f2fe"><path d="m88.07 54.07c-2.602-.427-5.982-3.411-9.07-7.993-1.293-1.922-2.617-4.297-3.483-6.244-.17-.392-.237-.484-.289-.427-.103.108-.86 1.746-1.257 2.725-.67 1.649-1.138 3.216-1.406 4.725-.175.948-.186 2.782-.026 3.354.371 1.319 1.18 1.876 2.443 1.659.911-.154 2.01-.649 3.179-1.443.516-.351.654-.413.855-.413.309 0 .536.165.644.464.073.2.073.262 0 .454-.073.191-.191.299-.737.665-.757.516-2.056 1.175-2.711 1.386-1.736.557-3.086.351-4.04-.608-.876-.881-1.237-2.303-1.124-4.292.138-2.581 1.289-6.111 3.081-9.573l.448-.865-.34-.922c-.33-.881-.968-2.922-.968-3.076 0-.113-.195-.087-1.062.124-1.978.484-3.447 1.108-4.498 1.897-2.071 1.556-1.525 3.308 1.576 5.05.495.284.608.433.608.803 0 .191-.036.268-.195.427-.34.34-.654.268-1.705-.381-1.514-.943-2.473-2.01-2.813-3.143-.124-.413-.124-1.241 0-1.659.175-.603.479-1.082 1.025-1.628 1.216-1.227 3.241-2.17 6.01-2.803.567-.129.695-.175.675-.248-.016-.051-.083-.371-.149-.721-.376-2.02-.386-4.338-.026-5.627.417-1.479 1.17-2.365 2.37-2.776.489-.165 1.473-.138 2.143.062.681.2 1.514.613 2.257 1.113.886.592 1.149.84 1.184 1.128.083.659-.592 1.016-1.149.597-1.741-1.293-2.984-1.792-3.983-1.581-.727.154-1.278.897-1.556 2.092-.113.474-.129.7-.129 1.881 0 1.345.021 1.556.262 2.962l.124.706.289-.036c1.335-.16 2.484-.273 3.189-.314l.84-.046.138-.165c1.422-1.824 3.483-3.957 5.05-5.214 2.994-2.401 5.56-3.235 7.327-2.381 1 .479 1.628 1.468 1.876 2.932.16.954.03 3.216-.216 3.854-.083.216-.36.376-.659.376-.186 0-.284-.036-.427-.17-.175-.149-.186-.195-.186-.5 0-.181.046-.706.103-1.159.17-1.319.051-2.556-.303-3.262-.181-.346-.536-.711-.851-.86-.232-.119-.36-.135-.897-.135-.578 0-.69.021-1.246.216-1.746.597-3.746 2.03-5.9 4.219-.417.422-1.025 1.082-1.365 1.479l-.633.711.541.016c7.574.181 13.957 1.922 16.966 4.622.675.608 1.262 1.514 1.427 2.221.087.36.092 1.057.005 1.427-.309 1.37-1.819 2.725-4.02 3.597-.351.138-.417.149-.613.092-.303-.092-.505-.351-.505-.659 0-.365.17-.541.803-.809 1.365-.572 2.427-1.376 2.829-2.149.144-.262.16-.365.16-.794 0-.438-.016-.525-.191-.855-.243-.474-1.051-1.283-1.721-1.727-3.287-2.17-9.485-3.586-15.746-3.586h-1.03l-.392.525c-.582.789-1.844 2.711-2.344 3.57l-.443.757.303.7c3.055 7.01 7.795 12.933 11.294 14.12.762.248 1.34.252 1.798.026.871-.427 1.332-1.535 1.402-3.381.113-3.097-1-7.378-3.076-11.804-.216-.459-.346-.809-.346-.938 0-.371.309-.665.69-.659.34 0 .489.135.752.686 1.684 3.524 2.808 7.06 3.23 10.15.138 1.035.138 3.154 0 3.911-.227 1.211-.629 2.081-1.237 2.7-.747.747-1.711 1.03-2.854.845m-12.08-18.836c.216-.356.633-.984.927-1.411.294-.433.53-.798.53-.824 0-.078-2.7.2-2.776.278-.046.051.108.649.468 1.757.252.803.335.968.392.907.041-.046.248-.36.459-.706"/><path d="m84.89 38.958c0 1.092-.886 1.978-1.978 1.978-1.092 0-1.978-.886-1.978-1.978 0-1.092.886-1.984 1.978-1.984 1.092 0 1.978.892 1.978 1.984"/></g></svg>