<svg xmlns="http://www.w3.org/2000/svg" viewBox="0 0 48 48"><defs><linearGradient id="0" y1="546.29" x2="0" y2="501.51" gradientUnits="userSpaceOnUse"><stop stop-color="#197cf1"/><stop offset="1" stop-color="#20bcfa"/></linearGradient></defs><g transform="matrix(1.07196 0 0 1.07196-413.17-537.6)"><circle cx="407.82" cy="523.9" r="22.389" fill="url(#0)"/><path d="m416.22 515.26c-1.477-2.192-4.128-3.464-7.872-3.781h-.006c-.276-.031-.541-.047-.788-.047-1.887 0-2.557.945-2.557 1.754v14.08c-.742-.224-1.539-.288-2.325-.189-1.37.173-2.598.816-3.457 1.812-.859.995-1.246 2.223-1.09 3.458.289 2.292 2.434 4.02 4.99 4.02.24 0 .483-.015.724-.046 2.649-.334 4.572-2.435 4.572-4.996v-13.817c.199-.013.398-.02.592-.02 2.336 0 4.483.977 6.21 2.825.712.762 1.212 1.52 1.506 2.02.072.123.213.189.354.164.14-.025.251-.135.276-.275.283-1.556.514-4.529-1.129-6.965" fill="#0b3969" stroke-width="1.317"/></g></svg>