<svg xmlns="http://www.w3.org/2000/svg" viewBox="0 0 48 48"><defs><linearGradient id="0" y1="546.78" x2="0" y2="500.8" gradientUnits="userSpaceOnUse"><stop stop-color="#f16419"/><stop offset="1" stop-color="#feb600"/></linearGradient></defs><path d="m408.51 500.8c-3.118 0-6.084.618-8.93 1.839-5.654 2.426-9.795 6.539-12.225 12.203-1.217 2.838-1.808 5.805-1.808 8.923 0 3.119.59 6.115 1.808 8.953 2.429 5.664 6.571 9.799 12.225 12.226 2.847 1.221 5.808 1.839 8.93 1.839 3.118 0 6.104-.625 8.953-1.839 5.701-2.432 9.821-6.572 12.247-12.226 1.221-2.847 1.838-5.834 1.838-8.953 0-3.118-.616-6.076-1.838-8.923-2.426-5.655-6.545-9.772-12.247-12.203-2.849-1.216-5.833-1.839-8.953-1.839" opacity=".99" fill="url(#0)" transform="matrix(1.04347 0 0 1.04384-402.31-522.76)" enable-background="new"/><path d="m82.962 1040.35c-.554-.041-1.126.032-1.688.219-.673.224-1.138.513-1.656 1.031-.671.671-1.024 1.385-1.188 2.343-.091.53-.156.73-.313 1.062-.601 1.274-1.911 2.156-3.219 2.156-.109 0-.456-.019-.781-.061-1.314-.172-1.913-.193-3.281-.061-.37.035-.818.061-.969.061-.65 0-1.045-.245-1.313-.781-.166-.334-.226-.501-.219-1.094.006-.496.017-.555-.063-.781-.128-.364-.249-.531-.531-.813-.411-.409-.842-.594-1.406-.594-.368.0001-.629.057-.938.219-.651.339-1.058.965-1.094 1.687-.025.501.071.801.344 1.219.198.303.437.522.875.75.473.245.725.477.938.906.135.271.125.296.125.594 0 .281 0 .31-.094.5-.056.114-.217.328-.344.469-1.172 1.301-1.884 2.706-2.188 4.218-.144.715-.186 1.102-.156 1.875.014.37.033.782.031.906-.011.708-.515 1.196-1.594 1.562-.26.088-.378.112-.719.125-.264.011-.475 0-.625-.031-.135-.026-.411-.032-.688-.032-.525 0-.774.058-1.188.25-1.534.709-2.208 2.49-1.5 3.999.904 1.929 3.467 2.345 4.938.812.218-.227.327-.399.563-.812.075-.132.228-.317.344-.438.521-.543 1.233-.812 2.063-.812.593 0 .944.126 1.406.5.769.622 1.841 1.164 2.781 1.437 1.041.303 1.63.35 3.375.313.512-.011.671.017.906.061.654.131 1.292.384 1.844.75.406.27 1.075.938 1.344 1.343.363.547.632 1.235.719 1.781.146.918.32 1.465.625 2.062.825 1.619 2.3 2.703 4.125 3.03.503.089 1.587.071 2.094-.031 1.735-.354 3.18-1.448 3.969-2.999.429-.843.624-1.614.625-2.593.002-2.286-1.326-4.313-3.438-5.218-.484-.208-.839-.293-1.5-.406-.656-.112-1.094-.256-1.563-.5-1.097-.572-1.987-1.622-2.375-2.781-.215-.642-.303-1.273-.25-2.031.033-.479.014-2.079-.031-3.187-.029-.71.075-1.147.375-1.75.345-.691.915-1.265 1.625-1.624.369-.187.635-.254 1.156-.344.552-.095.945-.216 1.375-.437.991-.509 1.739-1.375 2.094-2.437.151-.452.188-.825.188-1.343 0-.52-.066-.886-.219-1.344-.561-1.68-2.058-2.779-3.719-2.906m-11.501 9.186c1.93-.129 3.869.791 4.969 2.437.397.594.713 1.389.844 2.093.092.493.068 1.602-.031 2.062-.288 1.338-.987 2.468-2.031 3.281-.867.675-1.835 1.034-2.969 1.125-.227.019-.463.035-.5.032-.409-.026-.727-.071-1-.125-2.285-.466-3.971-2.262-4.344-4.593-.053-.332-.054-1.315 0-1.625.217-1.254.678-2.178 1.531-3.03.495-.494.902-.782 1.469-1.062.473-.234.766-.359 1.25-.468.274-.062.537-.107.813-.125m.594 2.092c-1.622-.096-3.1.938-3.531 2.562-.076.287-.094.356-.094.844 0 .488.017.588.094.875.177.664.597 1.331 1.094 1.75.382.321.843.566 1.188.625.938.163 1.86-.477 2-1.406v-.125h-.594c-.428 0-.651 0-.781-.032-.761-.198-1.281-.887-1.281-1.656 0-.472.159-.878.5-1.219.322-.322.755-.5 1.188-.5.769 0 1.527.585 1.688 1.343.036.17.031.543.031 1.75v1.531h.188c.389-.044.811-.237 1.063-.5.149-.156.303-.486.375-.719.056-.183.063-.299.063-1.156 0-1.228-.042-1.514-.375-2.156-.417-.805-1.252-1.46-2.125-1.687-.235-.061-.456-.111-.688-.125" fill-opacity=".746" transform="translate(-49.24-1032.34)"/></svg>