<svg xmlns="http://www.w3.org/2000/svg" xmlns:xlink="http://www.w3.org/1999/xlink" viewBox="0 0 48 48"><defs><path d="m69.63 12.145h-.052c-22.727-.292-46.47 4.077-46.709 4.122-2.424.451-4.946 2.974-5.397 5.397-.044.237-4.414 23.983-4.122 46.71-.292 22.777 4.078 46.523 4.122 46.761.451 2.423 2.974 4.945 5.398 5.398.237.044 23.982 4.413 46.709 4.121 22.779.292 46.524-4.077 46.761-4.121 2.423-.452 4.946-2.976 5.398-5.399.044-.236 4.413-23.981 4.121-46.709.292-22.777-4.077-46.523-4.121-46.761-.453-2.423-2.976-4.946-5.398-5.397-.238-.045-23.984-4.414-46.71-4.122" id="3"/><clipPath><use xlink:href="#3"/></clipPath><linearGradient gradientTransform="matrix(1.03744.1329-.12755.99183-44.44-65.12)" id="2" x1="542.83" y1="484.29" x2="543.25" y2="463.62" gradientUnits="userSpaceOnUse"><stop stop-color="#132e51"/><stop offset="1" stop-color="#2767b9"/></linearGradient><linearGradient y2="534.53" x2="497.84" y1="516.8" x1="480.12" gradientUnits="userSpaceOnUse" xlink:href="#1"/><linearGradient y2="527.53" x2="494.84" y1="509.8" x1="477.12" gradientUnits="userSpaceOnUse" xlink:href="#1"/><linearGradient xlink:href="#1" gradientUnits="userSpaceOnUse" x1="479.57" y1="516.45" x2="494.57" y2="531.45"/><linearGradient id="1"><stop stop-color="#2e5d89"/><stop offset="1" stop-color="#1b92f4"/></linearGradient><linearGradient gradientTransform="matrix(1.05233 0 0 1.02761-21.18-14.703)" gradientUnits="userSpaceOnUse" y2="504.19" x2="409.94" y1="542.8" x1="409.57" id="0"><stop stop-color="#86d0fb"/><stop offset="1" stop-color="#2794f5"/></linearGradient><linearGradient xlink:href="#1" gradientUnits="userSpaceOnUse" x1="399.12" y1="510.3" x2="416.84" y2="528.03"/></defs><g transform="translate(-384.57-499.8)"><flowRoot transform="translate(389.57 520.8)" font-family="sans-serif" text-align="start" word-spacing="0" line-height="125%" letter-spacing="0" font-size="10"><flowRegion><path d="m22 3h27v15h-27z" id="4"/></flowRegion><flowPara>Plasm</flowPara></flowRoot><g transform="matrix(1.57597 0 0 1.57597-222.8-314.3)"><rect y="507.12" x="385.62" height="34.939" width="46.3" fill="url(#0)" rx="1.644" stroke-width="1" transform="matrix(.65763 0 0 .65763 131.81 186.74)"/><g transform="translate(-36.836-.954)"><flowRoot transform="translate(389.57 520.8)" font-family="sans-serif" letter-spacing="0" word-spacing="0" text-align="start" line-height="125%" font-size="10"><flowRegion><use xlink:href="#4"/></flowRegion><flowPara>Plasm</flowPara></flowRoot><g transform="matrix(.37339-.04589.04589.37339 243.97 379.44)"><path d="m418.93 476.09l15.912-2.498 4.568 3.717 11.916-2.094 10.881 4.975 7.95 2.692 6.5-1.142 7.926-.747 16.205-8.689-3.197 27.1c-.159 3.559-3.701 2.873-3.701 2.873l-74.27-9.129c0 0-2.691-1.031-2.305-4.111z" fill="url(#2)" fill-rule="evenodd"/><circle cx="436.92" cy="448.97" r="6.976" fill="#fff" fill-opacity=".75"/></g></g></g></g></svg>