<svg xmlns="http://www.w3.org/2000/svg" viewBox="0 0 48 48"><defs><linearGradient id="0" gradientUnits="userSpaceOnUse" y1="576.48" x2="0" y2="533.3"><stop stop-color="#00a661"/><stop offset="1" stop-color="#37ce97"/></linearGradient></defs><g transform="matrix(1.07196 0 0 1.07196-427.81-571.1)"><circle cx="421.49" cy="555.15" r="22.389" fill="url(#0)"/><path d="m428.65 557.17c-.081 0-.143.077-.143.153v1.868c0 .088.062.151.143.151h1.943c.081 0 .143-.077.143-.151v-1.868c0-.09-.061-.153-.143-.153zm-3.658 0c-.081 0-.143.077-.143.153v1.868c0 .088.062.151.143.151h1.943c.081 0 .143-.077.143-.151v-1.868c0-.09-.062-.153-.143-.153zm-3.658 0c-.081 0-.143.077-.143.153v1.868c0 .088.062.151.143.151h1.943c.081 0 .143-.077.143-.151v-1.868c0-.09-.062-.153-.143-.153zm-3.658 0c-.081 0-.143.077-.143.153v1.868c0 .088.062.151.143.151h1.943c.081 0 .143-.077.143-.151v-1.868c0-.09-.062-.153-.143-.153zm.238-9.105c-.28 0-.505.225-.505.504v6.431c0 .279.225.505.505.505h10.869c.28 0 .505-.225.505-.505v-6.431c0-.279-.225-.504-.505-.504zm10.735-3.611c-.081 0-.143.069-.143.144v1.866c0 .09.062.153.143.153h1.943c.081 0 .143-.078.143-.153v-1.866c0-.09-.061-.144-.143-.144zm-3.658 0c-.081 0-.143.069-.143.144v1.866c0 .09.062.153.143.153h1.943c.081 0 .143-.078.143-.153v-1.866c0-.09-.062-.144-.143-.144zm-3.658 0c-.081 0-.143.069-.143.144v1.866c0 .09.062.153.143.153h1.943c.081 0 .143-.078.143-.153v-1.866c0-.09-.062-.144-.143-.144zm-3.658 0c-.081 0-.143.069-.143.144v1.866c0 .09.062.153.143.153h1.943c.081 0 .143-.078.143-.153v-1.866c0-.09-.062-.144-.143-.144zm14.831-1.722v1.285c.021.116.029.213.029.323v.119h-.229c-.081 0-.143.073-.143.144v1.867c0 .09.061.153.143.153h.229v1.449h-1.21c-.28 0-.505.225-.505.503v6.431c0 .279.225.504.505.504h1.21v1.667h-.229c-.081 0-.143.073-.143.153v1.867c0 .088.061.151.143.151h.229v.065c0 .112-.008.218-.029.323v1.266c-5.01.034-10.03.019-15.05.019v4.02l.003.02c-.119 1.484-1.468 2.952-3.309 3.542-2.19.702-4.305-.132-4.725-1.858-.42-1.727 1.02-3.699 3.21-4.401.84-.269 1.665-.307 2.391-.162v-2.763-.257-14.802c0-.888.713-1.6 1.6-1.6 5.826.019 10.497-.028 15.879-.028" fill="#fff" fill-opacity=".838"/></g></svg>