<svg xmlns="http://www.w3.org/2000/svg" xmlns:xlink="http://www.w3.org/1999/xlink" viewBox="0 0 48 48"><defs><linearGradient xlink:href="#1" id="0" y1="546.29" x2="0" y2="501.51" gradientUnits="userSpaceOnUse"/><linearGradient id="1"><stop stop-color="#197cf1"/><stop offset="1" stop-color="#20bcfa"/></linearGradient><linearGradient xlink:href="#1" id="2" x1="408.82" y1="546.29" x2="407.82" y2="501.51" gradientUnits="userSpaceOnUse"/></defs><g transform="matrix(1.07196 0 0 1.07196-413.17-537.6)"><circle cx="407.82" cy="523.9" r="22.389" fill="url(#0)"/><path d="m395.66 506.18c2.133-3.165 1.4-1.179 4.895-2.02l1-.612c.398-.045 1.2-.383 1.556-.404 3.273-.188 3.273-.188 3.273-.188v20.33c1.072-.323 2.221-.416 3.357-.273 1.978.25 3.751 1.178 4.991 2.615 1.24 1.437 1.799 3.21 1.574 4.993-.418 3.309-3.515 5.805-7.204 5.805-.346 0-.698-.022-1.045-.066-3.825-.483-6.6-3.516-6.6-7.213v-19.948c-.287-.019-.575-.029-.855-.029-3.372 0-6.472 1.411-8.966 4.079-1.028 1.1-1.749 2.194-2.174 2.918-.104.178-.308.272-.511.236-.203-.036-.362-.194-.399-.397-.409-2.246 2.138-5.409 4.509-8.927z" fill="#fff" fill-opacity=".853" stroke-width="1.317"/><circle cx="407.82" cy="523.9" r="21.432" fill="none" stroke="url(#2)" stroke-linejoin="round" stroke-linecap="round" stroke-width="1.914"/></g></svg>