<svg xmlns="http://www.w3.org/2000/svg" xmlns:xlink="http://www.w3.org/1999/xlink" viewBox="0 0 48 48"><defs><linearGradient id="0" gradientUnits="userSpaceOnUse" x1="508.18" y1="993.03" x2="486.06" y2="1.252"><stop stop-color="#ff9300"/><stop offset="1" stop-color="#ffd702"/></linearGradient><linearGradient id="1" gradientUnits="userSpaceOnUse" x1="24.19" y1="32.744" x2="24.624" y2="14.642" xlink:href="#0"/><linearGradient id="2" x1="508.18" y1="993.03" x2="486.06" y2="1.252" gradientUnits="userSpaceOnUse"><stop stop-color="#212121"/><stop stop-color="#3f3f41" offset="1"/></linearGradient></defs><g transform="matrix(.95998 0 0 .95998-466.32-481.65)" stroke-width="1.317"><path d="m946.23 206.65c-.3-23-18-42-40.899-44.1-190.3-17.8-345.6-119.5-396.8-156.7-10.7-7.8-25.2-7.8-35.9 0-51.1 37.2-206.4 138.9-396.7 156.7-22.9 2.101-40.5 21.1-40.9 44.1-2.3 150.1 21.8 659.7 444.1 773.1 7.5 2 15.4 2 22.9 0 422.3-113.3 446.4-623 444.2-773.1" transform="matrix(.04892 0 0 .04892 486.76 502.73)" fill="url(#2)" stroke="url(#0)" stroke-linejoin="round" stroke-linecap="round" stroke-width="40.883"/><path d="m15.07 15.332c-.261 0-.523.1-.723.299l-.109.109c-.398.399-.398 1.045 0 1.443l2.299 2.299c-.308.702-1.01 1.193-1.824 1.193-1.098 0-1.99-.892-1.99-1.988 0-.206-.124-.392-.314-.471-.191-.079-.411-.037-.557.109-.933.933-1.388 2.229-1.279 3.646.106 1.388.745 2.731 1.795 3.781 1.149 1.149 2.673 1.809 4.182 1.809 1.257 0 2.409-.46 3.244-1.295.146-.146.188-.366.109-.557-.079-.191-.264-.314-.471-.314-1.091 0-2.01-.923-2.01-2.01 0-.814.492-1.514 1.193-1.822l3.83 3.832-5.418 5.42c-.191.191-.299.45-.299.721 0 .271.108.531.299.723l.109.109c.191.191.45.299.721.299.271 0 .531-.107.723-.299l5.42-5.42 5.418 5.42c.191.191.45.299.721.299.271 0 .531-.107.723-.299l.109-.109c.191-.191.299-.452.299-.723 0-.271-.108-.529-.299-.721l-5.418-5.42 3.83-3.832c.702.308 1.193 1.01 1.193 1.822 0 1.091-.923 2.01-2.01 2.01-.206 0-.392.124-.471.314-.079.191-.035.411.111.557.835.835 1.988 1.295 3.244 1.295 1.509 0 3.03-.659 4.182-1.809 1.05-1.05 1.687-2.393 1.793-3.781.109-1.418-.344-2.713-1.277-3.646-.146-.146-.366-.189-.557-.109-.191.079-.314.264-.314.471 0 1.097-.894 1.988-1.992 1.988-.814 0-1.515-.491-1.822-1.193l2.299-2.299c.398-.398.398-1.045 0-1.443l-.109-.109c-.199-.199-.461-.299-.723-.299-.261 0-.521.1-.721.299l-2.354 2.352-2.613-1.307c-.196-.098-.434-.059-.59.096-.155.155-.194.391-.096.588l1.309 2.615-3.861 3.863-3.863-3.863 1.307-2.615c.098-.197.061-.433-.094-.588-.155-.155-.393-.194-.59-.096l-2.615 1.307-2.352-2.352c-.199-.199-.46-.299-.721-.299" transform="matrix(1.04168 0 0 1.04168 485.77 501.73)" fill="url(#1)"/></g></svg>