<svg xmlns="http://www.w3.org/2000/svg" viewBox="0 0 48 48"><defs><linearGradient y2="12.204" x2="24.2" y1="35.592" x1="23.797" gradientUnits="userSpaceOnUse" id="0"><stop stop-color="#e1e1e1"/><stop offset="1" stop-color="#f4f4ff"/></linearGradient><linearGradient id="1" gradientUnits="userSpaceOnUse" gradientTransform="matrix(.49433 0 0 .4778 86.64 13.1)" x1="-123.97" y1="73.5" x2="-125.19" y2="-26.05"><stop stop-color="#c52828"/><stop offset="1" stop-color="#ff5454"/></linearGradient></defs><path d="m2.98-.002h42.04c1.652 0 2.982 1.33 2.982 2.982v42.04c0 1.652-1.33 2.982-2.982 2.982h-42.04c-1.652 0-2.982-1.33-2.982-2.982v-42.04c0-1.652 1.33-2.982 2.982-2.982" fill="url(#1)" fill-rule="evenodd"/><path d="M36.00002 24A12.00002 12.00002 0 0 1 24 36.00002 12.00002 12.00002 0 0 1 11.99998 24 12.00002 12.00002 0 0 1 24 11.99998 12.00002 12.00002 0 0 1 36.00002 24" fill="url(#0)"/></svg>