<svg xmlns="http://www.w3.org/2000/svg" viewBox="0 0 48 48"><defs><linearGradient id="0" gradientUnits="userSpaceOnUse" y1="1061.36" x2="0" y2="1015.36"><stop stop-color="#ec396c"/><stop offset="1" stop-color="#ff709a"/></linearGradient></defs><g transform="matrix(1.04348 0 0 1.04348 25.04-1059.51)"><circle r="21.98" cy="1038.36" cx="-1" fill="url(#0)" stroke="url(#0)" stroke-width="2.041"/><path d="m7.851 1028.36l-3.899 5.894-4.03-5.894h7.929m-4.518 7.242h-8.65l4.324 16.448 4.325-16.448m-8.361-.966h8.07l-4.04-5.903-4.04 5.903m-.908-.382l4.03-5.894h-7.928l3.899 5.894m4.03 18.11l-4.406-16.758h-9.493l13.899 16.758m-13.885-17.724h8.953l-3.9-5.895-5.05 5.895m24.544-5.885l-3.893 5.885h8.938l-5.04-5.885m-4.42 6.85l-4.406 16.757 13.884-16.757h-9.477" fill="#fff" fill-opacity=".847"/></g></svg>