<svg xmlns="http://www.w3.org/2000/svg" viewBox="0 0 48 48"><defs><linearGradient id="0" x1="860" y1="525.97" x2="842.73" y2="507.21" gradientUnits="userSpaceOnUse"><stop stop-color="#ffee97"/><stop offset="1" stop-color="#ffe76b"/></linearGradient><linearGradient id="1" x1="858.81" y1="529.48" x2="860.02" y2="517.32" gradientUnits="userSpaceOnUse"><stop stop-color="#fed45b"/><stop offset="1" stop-color="#ffcc54"/></linearGradient><linearGradient id="2" x1="859.24" y1="526.27" x2="864.14" y2="531.15" gradientUnits="userSpaceOnUse"><stop stop-color="#f0a23a"/><stop offset="1" stop-color="#fde46a"/></linearGradient></defs><g transform="matrix(1.30461 0 0 1.30461-1084.09-649.99)"><rect width="35.04" height="34.793" x="831.91" y="499.13" fill="url(#2)" rx="1.5"/><g fill-rule="evenodd"><path d="m831.8 501.31v30.909c0 0 .292 1.723 2.045 1.723h13c11.65-2.057 18.553-8.41 20.08-19.625v-13.376c.084-1.866-1.563-1.952-1.563-1.952l-31.397.11c-2.337-.161-2.167 2.21-2.167 2.21" fill="url(#0)"/><path d="m846.07 534.25c6.656-1.385 10.159-5.085 12.416-9.509 5.994-1.741 7.526-6.272 8.402-11.214.128 12.622-9.624 18.834-20.819 20.723" opacity=".9" fill="url(#1)"/></g><path d="m462.5 96.19l-21.726-21.726c-8.951-8.95-23.562-8.95-32.59 0l-227.82 227.89-119.34-119.34c-8.95-8.951-23.562-8.951-32.589 0l-21.727 21.726c-8.95 8.951-8.95 23.562 0 32.589l157.29 157.28c4.514 4.514 10.327 6.809 16.218 6.809 5.891 0 11.781-2.295 16.219-6.809l265.84-265.84c9.18-9.103 9.18-23.638.23-32.59z" stroke-width="4.248" transform="matrix(.04152.00414-.00414.04152 840.45 505.54)" opacity=".7" fill="#e8923a" stroke="#cb8034"/></g></svg>