<svg xmlns="http://www.w3.org/2000/svg" viewBox="0 0 48 48"><defs><linearGradient id="0" y1="547.8" x2="0" y2="499.8" gradientUnits="userSpaceOnUse"><stop stop-color="#ff9300"/><stop offset="1" stop-color="#ffd702"/></linearGradient></defs><g transform="translate(-384.57-499.8)"><rect y="499.8" x="384.57" height="48" width="48" fill="url(#0)" rx="24"/><path d="m406.35 509.8v2.115 2.114l.12.03c.066.016.494.023.95.014l.83-.015.014-2.128.014-2.128h1.257 1.257v2.143c0 1.668.015 2.147.067 2.162.037.011.363.058.724.106 1.614.213 3.043.712 4 1.397.776.553 1.4 1.428 1.604 2.249.126.506.129 1.577.005 2.085-.245 1.01-.966 2.031-1.867 2.645-.14.095-.254.194-.254.22 0 .026.126.088.281.139.44.144 1.099.492 1.511.798.795.59 1.363 1.403 1.611 2.304.119.434.163 1.716.079 2.347-.225 1.706-.847 2.866-2 3.735-1.141.86-2.527 1.255-4.64 1.323l-1.098.035-.014 2.155-.014 2.155h-1.257-1.257l-.014-2.155-.014-2.155h-.937-.937l-.014 2.155-.014 2.155h-1.257-1.257v-2.168-2.168h-2.543-2.543v-.5c0-.275.016-.865.035-1.311l.035-.812h1.043c1.158 0 1.377-.039 1.646-.293.36-.34.346-.058.345-6.931-.0001-6.02-.003-6.193-.105-6.417-.087-.192-.156-.254-.414-.373-.302-.139-.341-.143-1.554-.164l-1.245-.022v-1.278-1.278l2.637-.014 2.637-.014.027-2.115.027-2.114 1.245-.014zm0 7.07v2.565c0 1.411.015 2.603.033 2.65.029.075.246.085 1.898.085 1.819 0 1.874-.002 2.209-.125.967-.351 1.506-.932 1.75-1.887.259-1.012.014-1.972-.629-2.469-.811-.627-1.722-.818-3.889-.818zm.027 7.95l-.014 2.811c-.008 1.546-.002 2.843.014 2.883.041.108 3.909.054 4.443-.062 1.101-.239 1.901-.708 2.319-1.362.253-.395.443-1.033.475-1.59.077-1.328-.637-2.116-2.313-2.553-.468-.122-.544-.126-2.703-.126z" fill="#342500"/></g></svg>