<svg xmlns="http://www.w3.org/2000/svg" xmlns:xlink="http://www.w3.org/1999/xlink" viewBox="0 0 48 48"><defs><path d="m69.63 12.145h-.052c-22.727-.292-46.47 4.077-46.709 4.122-2.424.451-4.946 2.974-5.397 5.397-.044.237-4.414 23.983-4.122 46.71-.292 22.777 4.078 46.523 4.122 46.761.451 2.423 2.974 4.945 5.398 5.398.237.044 23.982 4.413 46.709 4.121 22.779.292 46.524-4.077 46.761-4.121 2.423-.452 4.946-2.976 5.398-5.399.044-.236 4.413-23.981 4.121-46.709.292-22.777-4.077-46.523-4.121-46.761-.453-2.423-2.976-4.946-5.398-5.397-.238-.045-23.984-4.414-46.71-4.122" id="2"/><clipPath><use xlink:href="#2"/></clipPath><linearGradient y2="534.53" x2="497.84" y1="516.8" x1="480.12" gradientUnits="userSpaceOnUse" xlink:href="#1"/><linearGradient xlink:href="#1" gradientUnits="userSpaceOnUse" x1="479.57" y1="516.45" x2="494.57" y2="531.45"/><linearGradient xlink:href="#1" gradientUnits="userSpaceOnUse" x1="399.12" y1="510.3" x2="416.84" y2="528.03"/><linearGradient id="1"><stop stop-color="#2e5d89"/><stop offset="1" stop-color="#1b92f4"/></linearGradient><linearGradient gradientTransform="matrix(1.05233 0 0 1.02761-21.18-14.703)" gradientUnits="userSpaceOnUse" y2="508.01" x2="409.49" y1="542.8" x1="409.57" id="0"><stop stop-color="#ff2922"/><stop offset="1" stop-color="#ff8f6e"/></linearGradient><linearGradient y2="527.53" x2="494.84" y1="509.8" x1="477.12" gradientUnits="userSpaceOnUse" xlink:href="#1"/></defs><g transform="translate(-384.57-499.8)"><flowRoot transform="translate(389.57 520.8)" font-family="sans-serif" text-align="start" word-spacing="0" line-height="125%" letter-spacing="0" font-size="10"><flowRegion><path d="m22 3h27v15h-27z" id="3"/></flowRegion><flowPara>Plasm</flowPara></flowRoot><g transform="matrix(1.57597 0 0 1.57597-222.8-314.18)"><rect y="507.12" x="385.62" height="34.939" width="46.3" fill="url(#0)" rx="1.644" stroke-width="1" transform="matrix(.65763 0 0 .65763 131.81 186.74)"/><g transform="translate(-36.836-.954)"><flowRoot transform="translate(389.57 520.8)" font-family="sans-serif" letter-spacing="0" word-spacing="0" text-align="start" line-height="125%" font-size="10"><flowRegion><use xlink:href="#3"/></flowRegion><flowPara>Plasm</flowPara></flowRoot></g></g><g fill="#fff" fill-opacity=".895" transform="matrix(.45118 0 0 .45118 397.09 512.32)"><path d="m15.271 12.384c.116.064.222.152.308.264l8.286 10.84c.172-.058.34-.123.52-.162v-4.01c0-.553.447-1 1-1 .553 0 1 .447 1 1v4.01c.306.065.6.159.88.28l8.263-11.396c.038-.225.069-.452.098-.687.144-1.226-.577-3.75-2.885-5.481-.938-.577-6.49-3.966-7.356-4.976-.865 1.01-6.418 4.399-7.356 4.976-2.308 1.731-3.03 4.255-2.885 5.481.035.296.074.578.127.86"/><path d="m7.582 32.751l13.09-4.411c-.001-.126-.038-.246-.038-.374 0-.163.032-.318.048-.477l-3.837-1.246c-.525-.171-.813-.734-.643-1.26.17-.526.736-.812 1.26-.643l3.835 1.245c.231-.394.507-.755.837-1.066l-8.146-10.657c-.088-.116-.144-.245-.175-.378-.229-.122-.461-.236-.706-.348-1.121-.516-3.745-.61-6.104 1.05-.838.713-5.778 4.947-7 5.458.693 1.135 2.2 7.464 2.459 8.533.933 2.73 3.111 4.195 4.321 4.437.273.055.537.101.802.137"/><path d="m21.11 35.555c-.195.271-.5.412-.81.412-.204 0-.409-.062-.587-.191-.446-.323-.546-.948-.221-1.396l2.369-3.26c-.236-.263-.437-.552-.61-.863l-13.255 4.466c-.104.106-.206.215-.31.328-.837.907-1.738 3.373-.888 6.129.419 1.018 2.92 7.02 3.03 8.35 1.294-.309 7.778.214 8.876.298 2.884-.044 4.951-1.662 5.555-2.738.125-.223.24-.44.349-.661v-13.79c-.396-.066-.776-.175-1.133-.332l-2.361 3.248"/><path d="m42.912 34.421l-13.236-4.45c-.197.422-.457.805-.764 1.147l2.369 3.261c.325.447.227 1.072-.221 1.396-.178.129-.383.19-.588.19-.31 0-.613-.144-.81-.412l-2.362-3.251c-.223.1-.459.17-.7.234v13.984c.079.151.16.303.247.457.604 1.076 2.671 2.694 5.555 2.738 1.097-.084 7.582-.605 8.876-.298.105-1.326 2.607-7.332 3.02-8.349.851-2.758-.049-5.223-.888-6.131-.165-.178-.332-.349-.503-.516"/><path d="m43.892 14.01c-2.358-1.66-4.982-1.566-6.104-1.05-.177.082-.348.165-.516.25l-8.389 11.569c.226.247.42.517.588.806l3.836-1.246c.522-.171 1.088.117 1.26.643.171.524-.117 1.089-.643 1.26l-3.838 1.247c.016.159.049.312.049.476 0 .016-.006.031-.006.047l13.455 4.524c.176-.029.352-.06.531-.097 1.211-.242 3.389-1.707 4.32-4.438.26-1.07 1.767-7.398 2.46-8.533-1.225-.511-6.164-4.745-7-5.458"/><path d="m28.03 28.684c.006-.021.014-.039.019-.061.053-.212.088-.43.088-.658 0-.906-.444-1.703-1.121-2.205-.018-.013-.032-.028-.049-.04-.449-.316-.991-.505-1.58-.505-.067 0-.13.015-.195.02-.462.033-.892.174-1.263.408-.018.011-.039.019-.056.031-.19.126-.357.279-.51.447-.445.489-.724 1.132-.724 1.845 0 .251.045.489.108.72.006.021.013.041.019.062.339 1.135 1.38 1.969 2.623 1.969.022 0 .043-.006.065-.007.022 0 .042-.005.064-.006 1.207-.057 2.204-.893 2.512-2.02"/></g></g></svg>