<svg xmlns="http://www.w3.org/2000/svg" viewBox="0 0 48 48"><defs><linearGradient id="0" gradientUnits="userSpaceOnUse" y1="653.96" x2="0" y2="301.3"><stop stop-color="#c52828"/><stop offset="1" stop-color="#ff5454"/></linearGradient></defs><g transform="matrix(2.87497 0 0 2.87497-7.921-2972.05)" fill="#fff" fill-opacity=".851" enable-background="new"><circle cx="-325.89" cy="478.75" r="173.45" transform="matrix(.04813 0 0 .04813 26.788 1019.08)" fill="url(#0)" fill-opacity="1"/><g transform="matrix(.39752 0 0 .39752 3.352 1036.95)"><g transform="translate(0-10)"><circle r="2" cx="12" cy="18"/><circle r="2" cx="17" cy="18"/><circle r="2" cx="22" cy="18"/><circle r="2" cx="27" cy="18"/></g><g transform="translate(0-5)"><circle r="2" cx="12" cy="18"/><circle r="2" cx="17" cy="18"/><circle r="2" cx="22" cy="18"/><circle r="2" cx="27" cy="18"/></g><g fill="#fff"><circle r="2" cx="27" cy="18" transform="translate(5-5)"/><circle r="2" cx="27" cy="18" transform="translate(-20-5)"/><circle r="2" cx="27" cy="18" transform="translate(-20)"/><circle r="2" cx="27" cy="18" transform="translate(-15)"/><circle r="2" cx="27" cy="18" transform="translate(5)"/><circle r="2" cx="27" cy="18"/></g></g></g></svg>