<?xml version="1.0" encoding="UTF-8" standalone="no"?>
<!-- Created with Inkscape (http://www.inkscape.org/) -->

<svg
   xmlns:dc="http://purl.org/dc/elements/1.1/"
   xmlns:cc="http://creativecommons.org/ns#"
   xmlns:rdf="http://www.w3.org/1999/02/22-rdf-syntax-ns#"
   xmlns:svg="http://www.w3.org/2000/svg"
   xmlns="http://www.w3.org/2000/svg"
   xmlns:xlink="http://www.w3.org/1999/xlink"
   xmlns:sodipodi="http://sodipodi.sourceforge.net/DTD/sodipodi-0.dtd"
   xmlns:inkscape="http://www.inkscape.org/namespaces/inkscape"
   width="213.33333"
   height="213.33333"
   id="svg2"
   version="1.1"
   inkscape:version="0.92.1 r15371"
   sodipodi:docname="appgrid.svg">
  <defs
     id="defs4">
    <linearGradient
       id="linearGradient4334">
      <stop
         id="stop4336"
         offset="0"
         style="stop-color:#15c4fc;stop-opacity:1;" />
      <stop
         id="stop4338"
         offset="1"
         style="stop-color:#1863ee;stop-opacity:0" />
    </linearGradient>
    <linearGradient
       id="linearGradient4328">
      <stop
         id="stop4330"
         offset="0"
         style="stop-color:#f4fbfc;stop-opacity:1;" />
      <stop
         id="stop4332"
         offset="1"
         style="stop-color:#d6d6d6;stop-opacity:0" />
    </linearGradient>
    <linearGradient
       id="linearGradient4829">
      <stop
         style="stop-color:#f4fbfc;stop-opacity:1;"
         offset="0"
         id="stop4831" />
      <stop
         style="stop-color:#d6d6d6;stop-opacity:1;"
         offset="1"
         id="stop4833" />
    </linearGradient>
    <clipPath
       clipPathUnits="userSpaceOnUse"
       id="clipPath4282">
      <rect
         style="color:#000000;display:inline;overflow:visible;visibility:visible;fill:#4d4d4d;fill-opacity:1;fill-rule:nonzero;stroke:none;stroke-width:9.13434315;marker:none;enable-background:accumulate"
         id="rect4284"
         width="246.875"
         height="234.375"
         x="462.5"
         y="1646.1122"
         ry="17"
         rx="17" />
    </clipPath>
    <linearGradient
       inkscape:collect="always"
       xlink:href="#linearGradient4829"
       id="linearGradient4835"
       x1="102.29776"
       y1="-0.42686829"
       x2="102.29776"
       y2="199.16539"
       gradientUnits="userSpaceOnUse"
       gradientTransform="matrix(1.0666667,0,0,1.0666667,0,909.18634)" />
    <linearGradient
       inkscape:collect="always"
       xlink:href="#linearGradient5423"
       id="linearGradient5429"
       x1="408.66196"
       y1="44.604382"
       x2="408.66196"
       y2="562.04968"
       gradientUnits="userSpaceOnUse" />
    <linearGradient
       id="linearGradient5423">
      <stop
         style="stop-color:#15c4fc;stop-opacity:1;"
         offset="0"
         id="stop5425" />
      <stop
         style="stop-color:#1863ee;stop-opacity:1;"
         offset="1"
         id="stop5427" />
    </linearGradient>
    <linearGradient
       inkscape:collect="always"
       xlink:href="#linearGradient5423"
       id="linearGradient6197"
       gradientUnits="userSpaceOnUse"
       x1="99.036476"
       y1="-0.50471628"
       x2="99.036476"
       y2="199.83986"
       gradientTransform="matrix(0.97088435,0,0,0.97088435,9.5782313,918.76457)" />
    <clipPath
       clipPathUnits="userSpaceOnUse"
       id="clipPath6245">
      <rect
         style="color:#000000;display:inline;overflow:visible;visibility:visible;opacity:0.85;fill:#ffffff;fill-opacity:1;fill-rule:nonzero;stroke:none;stroke-width:1.5;marker:none;enable-background:accumulate"
         id="rect6247"
         width="300"
         height="259.375"
         x="-901.5625"
         y="792.98718"
         rx="16.46875"
         ry="16.46875" />
    </clipPath>
    <linearGradient
       inkscape:collect="always"
       xlink:href="#linearGradient4829"
       id="linearGradient6261"
       x1="105.47797"
       y1="852.77802"
       x2="105.47797"
       y2="1052.7781"
       gradientUnits="userSpaceOnUse"
       gradientTransform="translate(-2.5989256,-0.41583663)" />
    <linearGradient
       inkscape:collect="always"
       xlink:href="#linearGradient4829"
       id="linearGradient4272"
       x1="-193.57404"
       y1="768.57635"
       x2="164.21439"
       y2="1126.3647"
       gradientUnits="userSpaceOnUse" />
    <linearGradient
       inkscape:collect="always"
       xlink:href="#linearGradient4328"
       id="linearGradient4314"
       gradientUnits="userSpaceOnUse"
       x1="167.0096"
       y1="1123.5696"
       x2="-174.84821"
       y2="781.71179" />
    <linearGradient
       inkscape:collect="always"
       xlink:href="#linearGradient4829-5"
       id="linearGradient4355-1"
       gradientUnits="userSpaceOnUse"
       gradientTransform="matrix(0.2794948,0.2794948,-0.2794948,0.2794948,130.2946,929.88282)"
       x1="-187.98358"
       y1="-89.376266"
       x2="169.80482"
       y2="268.41214" />
    <linearGradient
       id="linearGradient4829-5">
      <stop
         style="stop-color:#f4fbfc;stop-opacity:1;"
         offset="0"
         id="stop4831-6" />
      <stop
         style="stop-color:#d6d6d6;stop-opacity:1;"
         offset="1"
         id="stop4833-4" />
    </linearGradient>
    <linearGradient
       inkscape:collect="always"
       xlink:href="#linearGradient4829"
       id="linearGradient4402"
       gradientUnits="userSpaceOnUse"
       gradientTransform="matrix(0.27949481,0.27949481,-0.27949481,0.27949481,130.29461,77.52064)"
       x1="-187.98358"
       y1="-89.376266"
       x2="169.80482"
       y2="268.41214" />
    <linearGradient
       inkscape:collect="always"
       xlink:href="#linearGradient4829-2"
       id="linearGradient4402-6"
       gradientUnits="userSpaceOnUse"
       gradientTransform="matrix(0.27949481,0.27949481,-0.27949481,0.27949481,130.29461,929.88282)"
       x1="-187.98358"
       y1="-89.376266"
       x2="169.80482"
       y2="268.41214" />
    <linearGradient
       id="linearGradient4829-2">
      <stop
         style="stop-color:#f4fbfc;stop-opacity:1;"
         offset="0"
         id="stop4831-1" />
      <stop
         style="stop-color:#d6d6d6;stop-opacity:1;"
         offset="1"
         id="stop4833-2" />
    </linearGradient>
    <linearGradient
       y2="268.41214"
       x2="169.80482"
       y1="-89.376266"
       x1="-187.98358"
       gradientTransform="matrix(0.27949481,0.27949481,-0.27949481,0.27949481,130.29461,929.88282)"
       gradientUnits="userSpaceOnUse"
       id="linearGradient4436"
       xlink:href="#linearGradient4829-2"
       inkscape:collect="always" />
    <linearGradient
       gradientUnits="userSpaceOnUse"
       y2="527.79797"
       x2="428.57144"
       y1="527.79797"
       x1="384.57144"
       id="linearGradient4491"
       xlink:href="#linearGradient4159"
       inkscape:collect="always" />
    <linearGradient
       id="linearGradient4159">
      <stop
         style="stop-color:#1d1e1e;stop-opacity:1"
         offset="0"
         id="stop4161" />
      <stop
         style="stop-color:#9b9b9b;stop-opacity:1;"
         offset="1"
         id="stop4163" />
    </linearGradient>
    <linearGradient
       gradientTransform="translate(-384.57143,-499.798)"
       y2="503.798"
       x2="409.57144"
       y1="544.79797"
       x1="409.57144"
       gradientUnits="userSpaceOnUse"
       id="linearGradient4563"
       xlink:href="#linearGradient4356"
       inkscape:collect="always" />
    <linearGradient
       inkscape:collect="always"
       id="linearGradient4356">
      <stop
         style="stop-color:#4ea979;stop-opacity:1;"
         offset="0"
         id="stop4358" />
      <stop
         style="stop-color:#5eb085;stop-opacity:1"
         offset="1"
         id="stop4360" />
    </linearGradient>
    <linearGradient
       id="linearGradient4227">
      <stop
         style="stop-color:#292c2f;stop-opacity:1"
         offset="0"
         id="stop4229" />
      <stop
         style="stop-color:#000000;stop-opacity:0;"
         offset="1"
         id="stop4231" />
    </linearGradient>
    <linearGradient
       y2="28.629915"
       x2="44.000011"
       y1="9"
       x1="10"
       gradientUnits="userSpaceOnUse"
       id="linearGradient4756"
       xlink:href="#linearGradient4227"
       inkscape:collect="always" />
    <linearGradient
       inkscape:collect="always"
       xlink:href="#linearGradient4159"
       id="linearGradient938"
       gradientUnits="userSpaceOnUse"
       x1="384.57144"
       y1="527.79797"
       x2="428.57144"
       y2="527.79797" />
    <linearGradient
       inkscape:collect="always"
       xlink:href="#linearGradient4159"
       id="linearGradient940"
       gradientUnits="userSpaceOnUse"
       x1="384.57144"
       y1="527.79797"
       x2="428.57144"
       y2="527.79797" />
  </defs>
  <sodipodi:namedview
     id="base"
     pagecolor="#ffffff"
     bordercolor="#666666"
     borderopacity="1.0"
     inkscape:pageopacity="0.0"
     inkscape:pageshadow="2"
     inkscape:zoom="2.5600001"
     inkscape:cx="116.81317"
     inkscape:cy="119.88445"
     inkscape:document-units="px"
     inkscape:current-layer="layer1"
     showgrid="false"
     inkscape:window-width="1366"
     inkscape:window-height="695"
     inkscape:window-x="0"
     inkscape:window-y="0"
     inkscape:window-maximized="1"
     inkscape:snap-from-guide="true"
     showguides="true"
     inkscape:guide-bbox="true">
    <sodipodi:guide
       position="213.33333,213.33333"
       orientation="0,-200"
       id="guide3768"
       inkscape:locked="false" />
    <sodipodi:guide
       position="0,106.66666"
       orientation="100,0"
       id="guide3465"
       inkscape:locked="false" />
    <sodipodi:guide
       position="0,-2.7916666e-06"
       orientation="0,200"
       id="guide3467"
       inkscape:locked="false" />
    <sodipodi:guide
       position="213.33333,-2.7916666e-06"
       orientation="-100,0"
       id="guide3469"
       inkscape:locked="false" />
    <sodipodi:guide
       position="213.33333,106.66666"
       orientation="0,-200"
       id="guide3471"
       inkscape:locked="false" />
  </sodipodi:namedview>
  <metadata
     id="metadata7">
    <rdf:RDF>
      <cc:Work
         rdf:about="">
        <dc:format>image/svg+xml</dc:format>
        <dc:type
           rdf:resource="http://purl.org/dc/dcmitype/StillImage" />
        <dc:title />
      </cc:Work>
    </rdf:RDF>
  </metadata>
  <g
     inkscape:label="Layer 1"
     inkscape:groupmode="layer"
     id="layer1"
     transform="translate(0,-909.18633)">
    <circle
       style="color:#000000;display:inline;overflow:visible;visibility:visible;fill:url(#linearGradient4835);fill-opacity:1;fill-rule:nonzero;stroke:none;stroke-width:9.74329948;marker:none;enable-background:accumulate"
       id="path4188"
       cx="106.66666"
       cy="1015.853"
       r="106.66666" />
    <circle
       style="color:#000000;display:inline;overflow:visible;visibility:visible;fill:url(#linearGradient6197);fill-opacity:1;fill-rule:nonzero;stroke:none;stroke-width:8.86839104;marker:none;enable-background:accumulate"
       id="path4188-6"
       cx="106.66666"
       cy="1015.853"
       r="97.088432" />
    <g
       transform="matrix(3.0996088,0,0,2.9957369,-1160.7476,-553.98672)"
       id="layer1-6"
       inkscape:label="Capa 1">
      <path
         id="path4561"
         d="m 411.41108,540.02995 c -2.11789,-2.1343 -3.85081,-3.8909 -3.85081,-3.9022 0,0 1.71094,-1.8006 3.80285,-3.9748 l 3.80177,-3.9533 v 1.9357 c 0.01,1.0646 0,1.946 0,1.9593 0,0 5.58764,-0.01 9.82938,-0.1024 2.07286,0 2.15491,0 2.36689,-0.1024 0.44993,-0.1228 0.87994,-0.4094 1.04287,-0.696 0,-0.1024 0.10003,-0.1229 0.10003,-0.1126 0,0 -0.10999,0.5323 -0.18999,0.7063 -0.0999,0.1638 -0.76995,1.4188 -3.21176,5.8286 -0.32002,0.5733 -0.62997,1.0953 -0.70997,1.1967 -0.37003,0.4504 -0.93992,0.8189 -1.58796,1.0031 -0.20992,0.1024 -0.27,0.1024 -3.64274,0.1024 -1.88794,0 -3.54281,0 -3.67781,0 h -0.24001 l 0.01,1.9398 c 0,1.0667 0,1.9388 -0.01,1.9388 -0.01,0 -1.74884,-1.7463 -3.86576,-3.8817 z"
         style="fill:url(#linearGradient938);fill-opacity:1"
         inkscape:connector-curvature="0" />
      <path
         transform="translate(384.57143,499.798)"
         id="path4559"
         d="m 19.693359,4.3691406 c -0.135717,-0.020472 -0.269861,-0.018384 -0.402343,0.00977 -0.24001,0.0512 -0.411845,0.1347094 -0.671875,0.3496094 -0.36397,0.2959 -0.363542,0.2968875 -1.857422,2.9296875 -0.42903,0.7544 -1.491154,2.6312745 -2.371094,4.1718745 -0.87193,1.5396 -1.590827,2.822266 -1.591797,2.822266 -9.8e-4,0.0133 1.485815,0.91114 3.302734,1.99414 l -0.0078,0.0059 c 1.8179,1.08 3.332031,1.969703 3.332031,1.970703 0.01495,0.0011 1.036565,-1.776972 2.271485,-3.951172 L 23.943359,10.71875 23.683594,10.238281 C 21.994634,7.1919812 20.932061,5.2810031 20.832031,5.1582031 20.508796,4.7052031 20.100512,4.4305562 19.693359,4.3691406 Z M 38.357422,20.224609 c -0.01201,-0.0041 -1.50554,0.885263 -3.31836,1.976563 -2.14388,1.2897 -3.292968,2.02539 -3.292968,2.02539 0.0021,0.0225 0.577239,1.048897 1.287109,2.279297 0.70704,1.2294 1.718107,2.996669 2.248047,3.917969 v 0.0039 l 0.970703,1.681641 2.945313,-0.0098 c 2.90288,-0.0102 3.322373,-0.0089 3.652343,-0.111328 0.76692,-0.2016 1.236749,-0.84004 1.136719,-1.55664 -0.07004,-0.4555 -0.129697,-0.629275 -0.429687,-1.171875 -0.42297,-0.7667 -5.199219,-9.025157 -5.199219,-9.035157 z m -26.527344,12.142579 -1.037109,1.826171 c -0.56695,1.0042 -1.2576384,2.205416 -1.5175784,2.666016 -0.26003,0.4596 -0.4704125,0.931888 -0.5703125,1.054687 -0.32002,0.752401 -0.2485637,1.397257 0.1914063,1.847657 0.19996,0.2047 0.5885656,0.368303 0.9785156,0.470703 l 0.00781,0.03516 h 5.515625 5.396484 l -0.0098,-3.939453 -0.0098,-3.941406 -4.472657,-0.0098 z"
         style="fill:url(#linearGradient4563);fill-opacity:1"
         inkscape:connector-curvature="0" />
      <path
         id="path4557"
         d="m 392.89621,539.15985 c -0.12006,-0.1229 -0.26004,-0.2969 -0.29999,-0.3685 -0.21002,-0.3481 -3.77081,-6.6793 -3.82483,-6.8042 -0.11995,-0.2866 -0.17993,-0.5937 -0.19996,-1.0237 0,-0.4708 0,-0.7882 0.14995,-1.1393 0.10003,-0.1433 0.69004,-1.302 1.87495,-3.4067 0.98993,-1.7535 1.7929,-3.203 1.78586,-3.2204 -0.01,0 -0.74992,-0.4708 -1.6409,-0.9929 -0.89996,-0.5323 -1.61892,-0.9725 -1.60993,-0.9827 0.01,-0.01 0.21002,-0.1024 0.43997,-0.1331 0.23005,-0.1023 1.59294,-0.4401 3.02284,-0.8291 1.42892,-0.389 3.12785,-0.8599 3.77481,-1.036 0.64999,-0.174 1.63689,-0.4504 2.19985,-0.6039 0.56002,-0.1535 1.02598,-0.2764 1.02891,-0.2764 0,0 0,0.174 0.10003,0.389 0.10999,0.4299 1.01093,3.8704 1.31893,5.0404 0.10999,0.4197 0.32001,1.2171 0.45999,1.7638 0.13998,0.5425 0.40998,1.56 0.58992,2.252 0.18003,0.6961 0.32001,1.2642 0.32001,1.2703 -0.01,0.01 -0.73996,-0.4197 -1.62888,-0.9417 -0.89,-0.5221 -1.63192,-0.952 -1.64989,-0.952 0,0 -0.59001,0.9929 -1.27497,2.2049 -0.67998,1.212 -1.9829,3.5091 -2.88882,5.1029 -0.90993,1.5938 -1.68994,2.9891 -1.74493,3.0996 -0.27997,0.5732 -0.32998,1.2048 -0.12992,1.6532 0,0.1024 0.0999,0.174 0.0999,0.174 0,0 -0.11996,-0.1023 -0.23991,-0.2354 z"
         style="fill:url(#linearGradient940);fill-opacity:1"
         inkscape:connector-curvature="0" />
      <path
         id="path4553"
         d="m 418.35164,520.23775 c -0.0999,0 -2.35682,-0.6552 -5.0197,-1.3963 -2.66277,-0.737 -4.9267,-1.3676 -5.03171,-1.3972 l -0.19,-0.1024 0.19,-0.1126 c 0.10003,-0.1024 0.72999,-0.4299 1.39395,-0.8189 0.65996,-0.389 1.31298,-0.7678 1.44592,-0.8497 0.13002,-0.1023 0.24998,-0.1535 0.24998,-0.174 0.01,0 -0.29999,-0.5835 -0.67998,-1.2611 -1.47386,-2.6349 -2.79983,-5.0118 -3.89575,-6.9843 -0.62996,-1.1322 -1.20493,-2.1497 -1.27995,-2.2623 -0.34991,-0.5323 -0.91989,-0.9008 -1.38585,-0.9008 h -0.12005 0.10003 c 0,0 0.18999,-0.1023 0.32997,-0.1023 0.24001,-0.1024 0.25994,-0.1024 4.19876,0 l 3.9528,0.01 0.20992,0.1024 c 0.56002,0.1637 1.04297,0.4504 1.42697,0.8598 l 0.24998,0.2559 1.68182,3.0075 c 0.92996,1.6532 1.73693,3.1057 1.80394,3.2265 0.10003,0.1843 0.13002,0.215 0.18003,0.2048 0,-0.01 0.77991,-0.4402 1.66991,-0.952 0.88991,-0.5119 1.6159,-0.9418 1.6199,-0.9315 0,0 -0.21002,0.8189 -0.47006,1.8118 -0.52993,2.0002 -1.34091,5.0527 -1.6999,6.4101 -0.62996,2.3718 -0.65995,2.4782 -0.6999,2.4833 0,0 -0.11996,0 -0.21999,0 z"
         style="fill:url(#linearGradient4491);fill-opacity:1"
         inkscape:connector-curvature="0" />
      <path
         inkscape:connector-curvature="0"
         id="path4723"
         d="M 428.57144,529.798 Z"
         style="fill:none;fill-rule:evenodd;stroke:#000000;stroke-width:1px;stroke-linecap:butt;stroke-linejoin:miter;stroke-opacity:1" />
      <path
         id="path4752"
         transform="translate(384.57143,499.798)"
         d="m 13.933594,12.640625 c -0.525669,0.931969 -1.134074,2.011719 -1.134766,2.011719 -9.8e-4,0.0133 1.485816,0.91114 3.302734,1.99414 l -0.0078,0.0059 c 1.8179,1.08 3.332031,1.969703 3.332031,1.970703 0.008,5.88e-4 0.751219,-1.307159 1.212891,-2.111328 z m 1.091797,5.904297 c -0.0029,0 -0.467324,0.123844 -1.027344,0.277344 -0.56296,0.1535 -1.551182,0.429515 -2.201172,0.603515 -0.64696,0.1761 -2.3445175,0.646155 -3.7734375,1.035157 -1.4299,0.389 -2.7933875,0.727778 -3.0234375,0.830078 -0.22995,0.0307 -0.4294531,0.122812 -0.4394531,0.132812 -0.00563,0.0064 0.5768234,0.354575 1.0078125,0.615234 0.2571513,0.155534 0.2651767,0.168226 0.6015625,0.367188 0.89098,0.5221 1.630625,0.992188 1.640625,0.992188 1.454e-4,3.58e-4 -0.036569,0.06483 -0.037109,0.06641 l 6.6972651,4.017578 c 0.0031,-0.0053 0.06641,-0.115235 0.06641,-0.115234 0.01797,0 0.758438,0.429071 1.648438,0.951171 0.88892,0.522 1.618906,0.951407 1.628906,0.941407 0,-0.0012 -0.05371,-0.21528 -0.06445,-0.259766 -0.04222,-0.17326 -0.11069,-0.456009 -0.253906,-1.009766 -0.17994,-0.692 -0.451817,-1.709453 -0.591797,-2.251953 -0.13998,-0.5467 -0.348995,-1.343972 -0.458985,-1.763672 -0.307999,-1.17 -1.208369,-4.611115 -1.318359,-5.041015 -0.10003,-0.215 -0.101562,-0.388672 -0.101562,-0.388672 z m 17.8125,5.009766 c -0.24708,0.155167 -1.091797,0.671874 -1.091797,0.671874 0.0021,0.0225 0.577239,1.048897 1.287109,2.279297 0.70704,1.2294 1.718107,2.996669 2.248047,3.917969 v 0.0039 l 0.970703,1.681641 2.945313,-0.0098 c 2.90288,-0.0102 3.322373,-0.0089 3.652343,-0.111328 0.76692,-0.2016 1.236749,-0.84004 1.136719,-1.55664 -0.03218,-0.209305 -0.06702,-0.35436 -0.11914,-0.507813 z m -2.244141,4.847656 -3.802734,3.953125 c -0.616215,0.640455 -0.604989,0.630777 -1.121094,1.169922 -0.113047,0.118515 -0.240651,0.252353 -0.410156,0.429687 l 10.267578,6.16211 c 0.0477,-4.9e-5 0.05057,7.5e-5 0.0957,0 0.734133,-0.0012 1.180922,-0.0061 1.556641,-0.01367 l 0.0098,0.0059 c 0.656596,-0.01086 0.923764,-0.03365 1.042969,-0.0918 0.64804,-0.1842 1.217861,-0.551553 1.58789,-1.001953 0.08,-0.1014 0.390918,-0.623966 0.710938,-1.197266 2.44181,-4.4098 3.111038,-5.664325 3.210938,-5.828125 0.08,-0.174 0.191406,-0.707031 0.191406,-0.707031 0,-0.0103 -0.101563,0.01088 -0.101563,0.113281 -0.16293,0.2866 -0.593038,0.572513 -1.042969,0.695313 -0.21198,0.1024 -0.294327,0.101562 -2.367187,0.101562 -4.24174,0.0924 -9.828125,0.103516 -9.828125,0.103516 0,-0.0133 0.01,-0.894384 0,-1.958984 z"
         style="opacity:0.2;fill:url(#linearGradient4756);fill-opacity:1;fill-rule:evenodd;stroke:none;stroke-width:1px;stroke-linecap:butt;stroke-linejoin:miter;stroke-opacity:1"
         inkscape:connector-curvature="0" />
    </g>
  </g>
</svg>
