<svg xmlns="http://www.w3.org/2000/svg" viewBox="0 0 48 48"><defs><linearGradient gradientTransform="matrix(.49433 0 0 .4778 86.64 13.1)" gradientUnits="userSpaceOnUse" y2="-26.05" x2="-125.19" y1="73.5" x1="-123.97" id="0"><stop stop-color="#97a9b1"/><stop offset="1" stop-color="#cfdce1"/></linearGradient></defs><rect height="48" width="48" fill="url(#0)" fill-rule="evenodd" rx="2.982" stroke-width="1"/><g transform="matrix(.12237 0 0 .12237 7.3 8.2)" fill-opacity=".823"><path d="m37.984 161.7c0 4.142 3.358 7.5 7.5 7.5 4.142 0 7.5-3.358 7.5-7.5v-58.63c0-3.034-1.827-5.768-4.63-6.929-2.801-1.16-6.03-.519-8.173 1.626l-19 19c-2.929 2.929-2.929 7.678 0 10.606 2.929 2.929 7.678 2.929 10.606 0l6.201-6.201v40.521"/><path d="m82.28 31.807l6.201-6.201v40.521c0 4.142 3.358 7.5 7.5 7.5 4.142 0 7.5-3.358 7.5-7.5v-58.63c0-3.034-1.827-5.768-4.63-6.929-2.801-1.16-6.03-.519-8.173 1.626l-19 19c-2.929 2.929-2.929 7.678 0 10.606 2.929 2.929 7.678 2.929 10.606 0"/><path d="m167.81 96.14c-2.801-1.16-6.03-.519-8.173 1.626l-19 19c-2.929 2.929-2.929 7.678 0 10.606 2.929 2.929 7.678 2.929 10.606 0l6.201-6.201v40.521c0 4.142 3.358 7.5 7.5 7.5 4.142 0 7.5-3.358 7.5-7.5v-58.63c0-3.03-1.827-5.768-4.63-6.929"/><path d="m135.22 188.44c-2.801-1.16-6.03-.519-8.173 1.626l-19 19c-2.929 2.929-2.929 7.678 0 10.606 2.929 2.929 7.678 2.929 10.606 0l6.201-6.201v22.2c0 4.142 3.358 7.5 7.5 7.5 4.142 0 7.5-3.358 7.5-7.5v-40.3c0-3.034-1.827-5.768-4.63-6.929"/><path d="m122.5 143.42v-22.07c0-14.213-11.563-25.776-25.776-25.776h-.369c-14.213 0-25.776 11.563-25.776 25.776v22.07c0 14.213 11.563 25.776 25.776 25.776h.369c14.213 0 25.776-11.563 25.776-25.776m-15 0c0 5.942-4.834 10.776-10.776 10.776h-.369c-5.942 0-10.776-4.834-10.776-10.776v-22.07c0-5.942 4.834-10.776 10.776-10.776h.369c5.942 0 10.776 4.834 10.776 10.776v22.07"/><path d="m216.75 95.57h-.369c-14.213 0-25.776 11.563-25.776 25.776v22.07c0 14.213 11.563 25.776 25.776 25.776h.369c14.213 0 25.776-11.563 25.776-25.776v-22.07c0-14.212-11.563-25.776-25.776-25.776m10.776 47.851c0 5.942-4.834 10.776-10.776 10.776h-.369c-5.942 0-10.776-4.834-10.776-10.776v-22.07c0-5.942 4.834-10.776 10.776-10.776h.369c5.942 0 10.776 4.834 10.776 10.776v22.07"/><path d="m147.22 0h-.369c-14.213 0-25.776 11.563-25.776 25.776v22.07c0 14.213 11.563 25.776 25.776 25.776h.369c4.142 0 7.5-3.358 7.5-7.5 0-4.142-3.358-7.5-7.5-7.5h-.369c-5.942 0-10.776-4.834-10.776-10.776v-22.07c0-5.942 4.834-10.776 10.776-10.776h.369c5.942 0 10.776 4.834 10.776 10.776 0 4.142 3.358 7.5 7.5 7.5 4.142 0 7.5-3.358 7.5-7.5.0001-14.213-11.562-25.776-25.776-25.776"/><path d="m216.75 0h-.369c-14.213 0-25.776 11.563-25.776 25.776v22.07c0 14.213 11.563 25.776 25.776 25.776h.369c14.213 0 25.776-11.563 25.776-25.776v-22.07c0-14.213-11.563-25.776-25.776-25.776m10.776 47.851c0 5.942-4.834 10.776-10.776 10.776h-.369c-5.942 0-10.776-4.834-10.776-10.776v-22.07c0-5.942 4.834-10.776 10.776-10.776h.369c5.942 0 10.776 4.834 10.776 10.776v22.07z"/><path d="m61.682 187.87h-.369c-14.213 0-25.776 11.563-25.776 25.776v22.07c0 14.213 11.563 25.776 25.776 25.776h.369c14.213 0 25.776-11.563 25.776-25.776v-22.07c.0001-14.212-11.562-25.776-25.776-25.776m10.777 47.851c0 5.942-4.834 10.776-10.776 10.776h-.369c-5.942 0-10.776-4.834-10.776-10.776v-22.07c0-5.942 4.834-10.776 10.776-10.776h.369c5.942 0 10.776 4.834 10.776 10.776v22.07z"/></g></svg>