<svg xmlns="http://www.w3.org/2000/svg" viewBox="0 0 48 48"><defs><linearGradient id="0" gradientUnits="userSpaceOnUse" y1="1052.61" x2="0" y2="1003.81"><stop stop-color="#0a80fd"/><stop offset="1" stop-color="#56c5fa"/></linearGradient></defs><g transform="translate(0-1004.36)"><circle r="24" cy="1028.36" cx="24" fill="url(#0)"/><path d="m33.639 1014.36l-3.328 5.737-1.492 2.525c1.713 1.426 2.869 3.564 2.869 5.967 0 .765-.138 1.482-.344 2.18l2.525 1.492c.422-1.148.689-2.377.689-3.672 0-2.317-.697-4.447-1.951-6.197l3.672-6.541-2.639-1.492m-22.15 1.377l-1.492 2.754 5.623 3.213 2.639 1.491c1.416-1.488 3.406-2.41 5.623-2.41.715 0 1.408.164 2.066.345l1.492-2.639c-1.11-.391-2.314-.574-3.557-.574-2.118 0-4.076.657-5.738 1.721l-6.656-3.901m12.393 6.656c-3.446 0-6.197 2.75-6.197 6.196 0 3.446 2.751 6.312 6.197 6.312 3.446 0 6.197-2.866 6.197-6.312 0-3.446-2.751-6.197-6.197-6.197m-9.869 2.18c-.506 1.243-.803 2.592-.803 4.02 0 2.068.589 3.986 1.607 5.623l-3.902 6.656 2.754 1.492 3.213-5.623 1.492-2.64c-1.427-1.41-2.295-3.344-2.295-5.508 0-.892.183-1.726.459-2.524l-2.525-1.492m15.721 9.07c-1.425 1.643-3.507 2.755-5.852 2.755-.943 0-1.803-.152-2.639-.459l-1.492 2.524c1.278.541 2.656.803 4.131.803 2.263 0 4.352-.636 6.082-1.836l6.541 3.787 1.492-2.754-5.623-3.328-2.639-1.492" fill="#fff" fill-opacity=".853"/></g></svg>