<svg xmlns="http://www.w3.org/2000/svg" xmlns:xlink="http://www.w3.org/1999/xlink" viewBox="0 0 48 48"><defs><linearGradient xlink:href="#0" id="3" y1="541.9" x2="0" y2="517.9" gradientUnits="userSpaceOnUse"/><linearGradient xlink:href="#0" id="2" y1="541.9" x2="0" y2="517.9" gradientUnits="userSpaceOnUse"/><linearGradient id="0"><stop stop-color="#fa345d"/><stop offset="1" stop-color="#f76a8d"/></linearGradient><linearGradient xlink:href="#0" id="1" gradientUnits="userSpaceOnUse" x1="407.53" y1="537.31" x2="407.74" y2="509.62"/></defs><g transform="matrix(1.95615 0 0 1.95615-722.12-1012.57)" fill="url(#1)" stroke-width="1.317"><circle r="12" cy="529.9" cx="381.42" fill="url(#2)"/><g transform="translate(-.45.25)" fill="#fff"><path d="m380.92728 523.89968a.50005 .545507 0 0 1 .23828 .0684l9 5.455a.50005 .545507 0 0 1 0 .95312l-9 5.455a.50005 .545507 0 0 1 -.74219 -.47656v-10.91a.50005 .545507 0 0 1 .50391 -.54492" fill-opacity=".853"/><path d="m379.42 518.1v16.83c0 .554-.45 1-1.01 1h-1.01c-.559 0-1.01-.446-1.01-1v-15.893c.765-.383 1.917-.795 3.03-.938" fill-opacity=".855"/></g><circle r="12" cy="529.9" cx="381.42" stroke-opacity=".98" fill="none" stroke="url(#3)" stroke-linecap="round" stroke-width=".538"/></g></svg>