<svg xmlns="http://www.w3.org/2000/svg" viewBox="0 0 48 48"><defs><linearGradient id="0" y1="542.8" x2="0" y2="507.8" gradientUnits="userSpaceOnUse" gradientTransform="matrix(1.09091 0 0 1.06528-423.34-555.93)"><stop stop-color="#030303"/><stop offset="1" stop-color="#272727"/></linearGradient></defs><g transform="matrix(.99999 0 0 .99999 1.629 20.882)" enable-background="new"><rect width="48" height="36.22" x="-1.625" y="-14.985" fill="url(#0)" rx="1.704"/><g transform="matrix(1.44406 0 0 1.45454-15.938-3.33)" fill="#fff" fill-opacity=".851"><path d="m23.521 2.05c.035.046.08.073.137.081l1.191.182c.065.208.154.421.267.638-.078.109-.195.261-.351.459-.156.198-.267.342-.332.433-.035.048-.052.098-.052.15 0 .061.015.108.046.143.156.221.514.59 1.074 1.107.052.043.106.065.163.065.065 0 .117-.019.156-.058l.924-.697c.178.091.373.171.586.241l.182 1.198c.004.056.029.103.075.14.046.037.099.055.16.055h1.445c.126 0 .204-.061.234-.182.056-.217.119-.621.189-1.211.204-.065.401-.148.592-.247l.898.697c.056.043.113.065.169.065.095 0 .301-.155.615-.465.315-.31.528-.544.641-.7.039-.056.059-.106.059-.15 0-.052-.022-.104-.065-.156-.291-.352-.523-.651-.697-.899.109-.2.193-.399.254-.599l1.211-.182c.048-.009.089-.037.124-.085.035-.048.052-.098.052-.15v-1.445c0-.056-.017-.107-.052-.153-.035-.046-.08-.073-.137-.082l-1.191-.176c-.061-.213-.15-.427-.267-.644.078-.109.195-.261.352-.459.156-.198.267-.342.332-.433.035-.048.052-.098.052-.15 0-.056-.015-.106-.046-.15-.169-.234-.527-.599-1.074-1.094-.048-.048-.102-.072-.163-.072-.065 0-.119.019-.163.058l-.918.697c-.178-.091-.373-.171-.586-.241l-.182-1.198c-.004-.056-.029-.103-.075-.14-.046-.037-.099-.055-.16-.055h-1.445c-.126 0-.204.061-.235.182-.056.217-.119.621-.189 1.211-.204.065-.402.148-.592.247l-.899-.703c-.061-.039-.117-.058-.169-.058-.095 0-.299.154-.612.462-.313.308-.527.543-.644.703-.039.043-.059.093-.059.15 0 .056.022.111.065.163.312.382.545.681.697.898-.087.161-.171.358-.254.592l-1.204.182c-.052.009-.096.037-.13.085-.035.048-.052.098-.052.15v1.445c0 .056.017.107.052.153m3.769-2.041c.325-.326.718-.488 1.178-.488.46 0 .853.163 1.178.488.325.325.488.718.488 1.178 0 .46-.163.853-.488 1.178-.326.325-.718.488-1.178.488-.46 0-.853-.163-1.178-.488-.325-.326-.488-.718-.488-1.178 0-.46.163-.853.488-1.178"/><path d="m19.632 9.636c.026.034.059.054.101.06l.879.134c.048.154.114.31.197.471-.058.08-.144.193-.259.339-.115.146-.197.252-.245.319-.026.035-.038.072-.038.11 0 .045.011.08.034.106.115.163.379.435.792.816.038.032.078.048.12.048.048 0 .086-.014.115-.043l.682-.514c.131.067.275.126.432.178l.134.883c.003.042.022.076.055.103.034.027.073.041.118.041h1.066c.093 0 .15-.045.173-.134.042-.16.088-.458.139-.893.15-.048.296-.109.437-.183l.663.514c.042.032.083.048.125.048.07 0 .222-.114.454-.343.232-.229.39-.401.473-.516.029-.042.043-.078.043-.11 0-.038-.016-.077-.048-.115-.214-.259-.386-.48-.514-.663.08-.147.142-.294.187-.442l.893-.134c.035-.006.066-.027.091-.062.026-.035.038-.072.038-.11v-1.066c0-.042-.013-.079-.038-.113-.026-.034-.059-.054-.101-.06l-.879-.13c-.045-.157-.11-.315-.197-.475.058-.08.144-.193.259-.339.115-.146.197-.252.245-.319.026-.035.038-.072.038-.11 0-.042-.011-.078-.034-.11-.125-.173-.389-.442-.792-.807-.035-.035-.075-.053-.12-.053-.048 0-.088.014-.12.043l-.677.514c-.131-.067-.275-.126-.432-.178l-.134-.883c-.003-.042-.022-.076-.055-.103-.034-.027-.073-.041-.118-.041h-1.066c-.093 0-.151.045-.173.134-.042.16-.088.458-.139.893-.15.048-.296.109-.437.183l-.663-.519c-.045-.029-.086-.043-.125-.043-.07 0-.221.114-.451.341-.231.227-.389.4-.475.519-.029.032-.043.069-.043.11 0 .042.016.082.048.12.23.282.402.503.514.663-.064.118-.126.264-.187.437l-.888.134c-.038.006-.07.027-.096.063-.026.035-.038.072-.038.11v1.066c0 .042.013.079.038.113m2.78-1.505c.24-.24.53-.36.869-.36.339 0 .629.12.869.36.24.24.36.53.36.869 0 .339-.12.629-.36.869-.24.24-.53.36-.869.36-.339 0-.629-.12-.869-.36-.24-.24-.36-.53-.36-.869 0-.339.12-.629.36-.869"/></g></g></svg>