<svg xmlns="http://www.w3.org/2000/svg" viewBox="0 0 48 48"><defs><linearGradient id="0" y1="22.12" x2="0" y2="-27.875" gradientUnits="userSpaceOnUse"><stop stop-color="#f15f19"/><stop offset="1" stop-color="#fbb521"/></linearGradient><linearGradient id="1" x1="66.957" y1="17.05" x2="66.58" y2="-19.01" gradientUnits="userSpaceOnUse"><stop stop-color="#e2e2e2"/><stop offset="1" stop-color="#fff"/></linearGradient></defs><g transform="matrix(.99996 0 0 .99999-43.37 25.882)" enable-background="new"><path d="m58.648-18.477l2.156-2.148 11.313 4.51 14.257 13.99-16 19.375-10.125-5.625z" fill="url(#1)" fill-rule="evenodd"/><path d="m90.47-4.01l-20.958-20.957c-1.206-1.207-3.164-1.207-4.372 0l-4.352 4.352 5.52 5.52c1.283-.433 2.754-.142 3.777.88 1.028 1.029 1.317 2.513.872 3.8l5.321 5.32c1.288-.444 2.772-.157 3.801.873 1.437 1.436 1.437 3.764 0 5.202-1.438 1.437-3.765 1.437-5.204 0-1.08-1.082-1.348-2.669-.8-4l-4.963-4.962v13.06c.35.173.681.404.972.695 1.437 1.436 1.437 3.764 0 5.203-1.437 1.436-3.766 1.436-5.201 0-1.437-1.439-1.437-3.766 0-5.203.355-.355.766-.623 1.205-.803v-13.179c-.439-.18-.849-.446-1.205-.803-1.088-1.088-1.35-2.685-.792-4.02l-5.442-5.443-14.371 14.37c-1.207 1.208-1.207 3.166 0 4.373l20.959 20.957c1.207 1.207 3.164 1.207 4.372 0l20.86-20.86c1.207-1.207 1.207-3.166 0-4.373" fill="url(#0)"/></g></svg>