<svg xmlns="http://www.w3.org/2000/svg" viewBox="0 0 48 48"><defs><linearGradient id="0" gradientUnits="userSpaceOnUse" y1="53.939" x2="0" y2="5.141"><stop stop-color="#5dae33"/><stop offset="1" stop-color="#9be058"/></linearGradient></defs><g transform="translate(-117.97-5.695)"><circle r="24" cy="29.695" cx="141.97" fill="url(#0)"/><g fill="#fff" fill-opacity=".854" transform="matrix(.07632 0 0 .07632 129.41 17.14)"><path d="m99.31 119.09c-1.236 4.771 1.639 9.658 6.41 10.896 4.771 1.234 9.658-1.641 10.895-6.409 1.236-4.771-1.639-9.658-6.41-10.896-4.772-1.237-9.659 1.638-10.895 6.409"/><path d="m297.69 70.5h-8.552v-2.311c0-11.05-8.954-20-20-20h-78.1c-5.945-17.547-15.389-22.01-22.338-22.524-13.908-1.025-36.49 16.309-46.594 60.57l27.91 35.24c1.521 1.922 2.055 4.445 1.439 6.817l-17.762 68.52c-1.084 4.182-5.352 6.691-9.531 5.607l-69.75-18.08c-4.182-1.083-6.693-5.352-5.609-9.533l17.762-68.52c.615-2.372 2.307-4.319 4.57-5.262l41.2-17.12c.992-6.336 4.08-21.398 12.422-35.723h-104.76c-11.05 0-20 8.954-20 20v177.78c0 40.958 33.02 74.33 73.844 74.932 4.342 11.219 15.229 19.18 27.98 19.18h85.5c12.752 0 23.637-7.961 27.979-19.18 36.39-.535 66.56-27.13 72.69-61.911h9.707c37.496 0 68-30.506 68-68v-52.49c.0001-37.492-30.503-67.997-67.999-67.997m-148.02-22.31c5.03-6.678 12.09-12.05 18.13-11.562 5.389.442 9.08 5.864 11.486 11.562h-29.615zm176.02 142.81c0 15.438-12.562 28-28 28h-8.552v-108.5h8.552c15.438 0 28 12.561 28 28v52.5"/></g></g></svg>