<svg xmlns="http://www.w3.org/2000/svg" viewBox="0 0 48 48"><defs><linearGradient id="0" x1="11.941" y1="216.07" x2="10.719" y2="116.52" gradientUnits="userSpaceOnUse"><stop stop-color="#0973d9"/><stop offset="1" stop-color="#0cbffe"/></linearGradient></defs><rect y="115.15" x="-39.36" height="100.46" width="97.1" fill="url(#0)" fill-rule="evenodd" rx="6.241" stroke-width="1" transform="matrix(.4778 0 0 .4778 19.606-55.02)"/><path d="m38.681 23.23l-4.465-4.466c-.425-.425-.293-.879.293-1.01 0 0 .484-.109 1.081-.706 1.28-1.28 1.279-3.357 0-4.635-1.281-1.28-3.356-1.28-4.636 0-.597.596-.705 1.08-.705 1.08-.132.587-.587.719-1.012.293l-4.465-4.463c-.425-.425-1.121-.425-1.546 0l-4.464 4.464c-.424.426-.293.881.293 1.013 0 0 .485.109 1.081.704 1.279 1.28 1.28 3.356 0 4.637-1.28 1.28-3.357 1.279-4.636 0-.596-.597-.705-1.081-.705-1.081-.131-.587-.587-.718-1.012-.293l-4.464 4.465c-.425.425-.425 1.12 0 1.544l4.464 4.465c.425.425.293.88-.293 1.012 0 0-.484.109-1.081.706-1.28 1.28-1.28 3.356 0 4.635 1.28 1.279 3.356 1.28 4.636 0 .597-.596.705-1.08.705-1.08.132-.587.587-.719 1.012-.293l4.465 4.463c.425.425 1.121.425 1.546 0l4.466-4.464c.425-.425.293-.881-.293-1.012 0 0-.485-.109-1.081-.704-1.281-1.28-1.28-3.356 0-4.637 1.28-1.28 3.356-1.281 4.636 0 .596.596.704 1.081.704 1.081.132.587.587.719 1.012.295l4.465-4.466c.425-.425.425-1.12 0-1.544" fill="#fff" fill-opacity=".851"/></svg>