<svg xmlns="http://www.w3.org/2000/svg" viewBox="0 0 48 48"><defs><linearGradient id="0" x1="11.941" y1="216.07" x2="10.719" y2="116.52" gradientUnits="userSpaceOnUse"><stop stop-color="#8798a9"/><stop offset="1" stop-color="#aeb6be"/></linearGradient></defs><rect y="115.15" x="-39.36" height="100.46" width="97.1" fill="url(#0)" fill-rule="evenodd" rx="6.241" stroke-width="1" transform="matrix(.4778 0 0 .4778 19.606-55.02)"/><g transform="matrix(1.75 0 0 1.75-565.75-930.38)" fill="#3d434a"><path d="m370.22 459.3c10.2 11.1 15.8 25.6 15.8 40.6v442c0 26.601 32.1 40.1 51.1 21.4l123.3-141.3c16.5-19.8 25.6-29.601 25.6-49.2v-272.8c0-15 5.7-29.5 15.8-40.601l353.8-383.9c26.5-28.8 6.101-75.5-33.1-75.5h-873c-39.2 0-59.7 46.6-33.1 75.5l353.8 383.8" transform="matrix(.01646 0 0 .01646 329 537.36)"/></g></svg>