<svg xmlns="http://www.w3.org/2000/svg" viewBox="0 0 48 48"><defs><linearGradient gradientUnits="userSpaceOnUse" y2="-30.891" x2="-49.554" y1="-5.178" x1="-48.953" id="0"><stop stop-color="#566069"/><stop offset="1" stop-color="#6c7884"/></linearGradient><linearGradient gradientUnits="userSpaceOnUse" y2="-4.937" x2="42.36" y1="15.429" x1="43.691" id="1"><stop stop-color="#d5dbff"/><stop offset="1" stop-color="#f9ffff"/></linearGradient><linearGradient gradientUnits="userSpaceOnUse" y2="-26.783" x2="-56.38" y1="3.509" x1="-56.27" id="2"><stop stop-color="#ff9300"/><stop offset="1" stop-color="#ffd702"/></linearGradient></defs><g transform="matrix(.99999 0 0 .99999-32.681 29.512)" enable-background="new"><rect transform="matrix(-.99998-.00628-.00628.99998 0 0)" y="-28.46" x="-76.55" height="31.2" width="40.627" fill="url(#0)" rx="1.217"/><rect y="-27.351" x="-77.26" height="31.2" width="40.627" transform="matrix(-.98432-.17638-.17638.98432 0 0)" fill="url(#2)" rx="1.217"/><path d="m67.797-4.321l-1.083-1.124c-.135-.14-.535.014-1.01.351l-.464-.482c.354-.457.524-.851.389-.991l-2.652-2.754c-1.598-.743-3.349-1.1-5.11-1.044l-.889.029c-.148.005-.279.096-.336.233-.056.137-.025.295.077.401.042.044.094.076.151.095l1 .336c1.137.381 2.055 1.231 2.522 2.335l.03.071.646.671-4.637 4.466c-.156-.124-.392-.119-.569.027l-6.03 4.458c-.531.436-.879 1.054-.959 1.701-.081.648.113 1.265.535 1.703.422.438 1.032.655 1.682.599.65-.056 1.279-.381 1.736-.895l4.683-5.853c.152-.172.166-.407.048-.568l4.637-4.466.877.91c.135.14.535-.014 1.01-.351l.464.482c-.354.457-.524.851-.389.991l1.083 1.124c.192.199.919-.189 1.624-.868.705-.679 1.12-1.39.928-1.59" fill-opacity=".737"/><path d="M43.005-5.0361A10.466615 10.466615 0 0 0 32.683 5.57425 10.466615 10.466615 0 0 0 43.29335 15.893999 10.466615 10.466615 0 0 0 53.61535 5.2859 10.466615 10.466615 0 0 0 43.005 -5.0361m-3.082 6.091l7.709 4.244-7.529 4.555-.18-8.799z" fill="url(#1)"/></g></svg>