<svg xmlns="http://www.w3.org/2000/svg" xmlns:xlink="http://www.w3.org/1999/xlink" viewBox="0 0 48 48"><defs><linearGradient gradientTransform="matrix(.49433 0 0 .4778 99.25 50.12)" gradientUnits="userSpaceOnUse" y2="-26.05" x2="-125.19" y1="73.5" x1="-123.97" id="0"><stop stop-color="#132e51"/><stop offset="1" stop-color="#2763b9"/></linearGradient><linearGradient y1="545.8" x2="0" y2="517.8" gradientUnits="userSpaceOnUse"><stop stop-color="#3889e9"/><stop offset="1" stop-color="#5ea5fb"/></linearGradient></defs><g fill-rule="evenodd"><path d="m15.592 37.02h42.04c1.652 0 2.982 1.33 2.982 2.982v42.04c0 1.652-1.33 2.982-2.982 2.982h-42.04c-1.652 0-2.982-1.33-2.982-2.982v-42.04c0-1.652 1.33-2.982 2.982-2.982" fill="url(#0)" transform="translate(-12.61-37.02)"/><g fill="#cfd9e7"><path d="m18.805 37.429c13.905.077 20.16 4.916 25.2 10.571h-22.471c-2.619-.04-2.724-1.913-2.724-1.913"/><path d="m48 39.783c-10.81.06-15.674 3.822-19.586 8.217h16.668c2.786-.019 2.918-2.787 2.918-2.787"/><path d="m0 32.899c14.864.111 25.829 7.02 31.21 15.1h-28.3c-2.799-.058-2.912-2.733-2.912-2.733"/></g></g><g transform="matrix(-.35714 0 0 .35714 287.57-54.58)" fill="#fff"><path d="m153.7 292.14c-84.75 0-153.7-68.953-153.7-153.7 0-58.697 32.675-111.44 85.28-137.63 2.369-1.174 5.215-.718 7.08 1.144 1.864 1.864 2.345 4.711 1.183 7.07-9.599 19.502-14.463 40.471-14.463 62.3 0 77.972 63.43 141.41 141.4 141.41 22.08 0 43.25-4.978 62.942-14.777 2.366-1.177 5.213-.721 7.07 1.141 1.873 1.867 2.342 4.714 1.177 7.07-26.06 53.02-78.927 85.964-137.97 85.964" fill-opacity=".785" transform="matrix(-.15344 0 0 .15344 791.5 173.11)"/><g transform="matrix(-1.57949 0 0 1.57949 715.43 182.36)" fill-opacity=".846"><path fill="#fff" fill-opacity=".846" d="m6.977 4.988l2.286.762 1.214 3.238 1.213-3.238 2.287-.762-2.286-.762-1.214-3.238-1.214 3.238z" id="1"/><path fill="#fff" fill-opacity=".846" d="m17.977 12.988l-2.286-.762-1.214-3.238-1.214 3.238-2.286.762 2.286.762 1.214 3.238 1.214-3.238z" id="2"/><path fill="#fff" fill-opacity=".846" d="m20.344 7.559l1.633-.571-1.633-.571-.867-2.429-.867 2.429-1.633.571 1.633.571.867 2.429z" id="3"/></g><g fill-opacity=".846"><g transform="matrix(-1.57949 0 0 1.57949 745.48 165.39)"><path d="m10.477.988l-1.214 3.238-2.286.762 2.286.762 1.214 3.238 1.213-3.238 2.287-.762-2.286-.762z"/><path d="m14.477 16.988l1.214-3.238 2.286-.762-2.286-.762-1.214-3.238-1.214 3.238-2.286.762 2.286.762z"/><path d="m18.61 7.559l.867 2.429.867-2.429 1.633-.571-1.633-.571-.867-2.429-.867 2.429-1.633.571z"/></g><g transform="matrix(1.57949 0 0 1.57949 694.05 201.27)"><use xlink:href="#1"/><use xlink:href="#2"/><use xlink:href="#3"/></g></g></g></svg>