<svg xmlns="http://www.w3.org/2000/svg" viewBox="0 0 48 48"><defs><linearGradient gradientUnits="userSpaceOnUse" y2="517.8" x2="0" y1="545.8"><stop stop-color="#3889e9"/><stop offset="1" stop-color="#5ea5fb"/></linearGradient><linearGradient y2="518.14" x2="0" y1="545.14" gradientUnits="userSpaceOnUse" id="0"><stop stop-color="#2b65bd"/><stop offset="1" stop-color="#64a3dc"/></linearGradient></defs><g transform="matrix(1.12819 0 0 1.12819-363.53-568.86)" enable-background="new"><circle cx="400.57" cy="531.8" r="14" fill="url(#0)" transform="matrix(1.51949 0 0 1.51949-265.16-282.56)"/><path d="m674.86 786.86c-3.343.108 8.905 17.01-.528 15.926 7.866 2.179 9.667-7.973 8.06-12.94-1.591-4.919-2.418-1.85-7.159-2.942-.142-.033-.266-.048-.374-.044m-9.373 2.355c-5.17-.007-2.506 1.729-5.01 5.902-2.392 3.985 18.895-3.152 14.827 5.763 4.503-6.807-4.596-11.658-9.816-11.665m3.638 7.628c-4.137-.001-8.3 4.691-9.464 8.257-1.604 4.915.869 2.919 4.063 6.59 3.05 3.507 2.842-18.946 10.06-12.321-1.429-1.796-3.045-2.521-4.664-2.526m17.782.798c-2.793.267-12.981 13.217-14.686 4.813.358 8.154 10.573 6.73 14.799 3.668 4.187-3.034 1.01-2.873.584-7.721-.051-.579-.298-.798-.697-.76m-15.02 2.7c-7.644 2.86-3.133 12.135 1.085 15.208 4.179 3.045 3.045.074 7.523-1.83 4.277-1.818-17.14-8.557-8.609-13.379" fill="#fff" fill-rule="evenodd" fill-opacity=".85" transform="matrix(.91481 0 0 .91481-272.77-207.53)"/></g></svg>