<svg xmlns="http://www.w3.org/2000/svg" viewBox="0 0 48 48"><defs><linearGradient id="0" gradientUnits="userSpaceOnUse" x1="469.05" y1="76.873" x2="469.39" y2="-3.038"><stop stop-color="#fefffe"/><stop offset="1" stop-color="#f1f1f0"/></linearGradient><linearGradient gradientUnits="userSpaceOnUse" y2="-75.34" x2="467.54" y1="130.35" x1="468.86" id="1"><stop stop-color="#124da4"/><stop offset="1" stop-color="#2896ff"/></linearGradient><linearGradient gradientTransform="matrix(.99787 0 0 1 .79.581)" gradientUnits="userSpaceOnUse" y2="36.36" x2="472.17" y1="122.17" x1="469.01" id="2"><stop stop-color="#2381dd"/><stop offset="1" stop-color="#2381dd"/></linearGradient></defs><g transform="translate(-384.57-499.8)"><g transform="matrix(.24746-.00107.00107.24746 292.48 514.3)" fill="url(#0)"><rect transform="matrix(.99999.00434-.00434.99999 0 0)" y="-53.56" x="376.8" height="183.91" width="184.12" fill="url(#1)" rx="11.359"/><path d="m376.74 38.882l183.85.798 4.689 70.61c0 0 2.183 11.544-10.958 11.523l-170.1-.26c-14.496.194-12.238-12.189-12.238-12.189z" fill="url(#2)" fill-rule="evenodd"/></g><path d="m404.41 509.77l2.265.539q-.324.863-.755 1.618h10.892v8.52h-16.176v1.402h19.09v1.725h-19.09v1.402h19.304q-.324 7.01-1.078 8.412-.647 1.51-2.48 1.51-.863 0-2.696-.324l-.431-2.157q2.049.324 2.912.324.647 0 .863-.647.324-.755.539-5.284h-19.09v-14.882h5.069q.539-1.078.863-2.157m-3.775 3.882v1.726h14.02v-1.726h-14.02m0 3.343v1.725h14.02v-1.725h-14.02m4.637 10.461h2.157v2.912h5.284v-2.696h2.049v4.422h-14.667v1.833h-2.157v-6.147h2.157v2.588h5.176v-2.912" fill="#ddeaf8"/></g></svg>