<svg xmlns="http://www.w3.org/2000/svg" viewBox="0 0 48 48"><defs><linearGradient id="0" gradientUnits="userSpaceOnUse" gradientTransform="matrix(.49433 0 0 .4778 125.02-12.773)" x1="-123.97" y1="73.5" x2="-125.19" y2="-26.05"><stop stop-color="#212121"/><stop offset="1" stop-color="#3f3f41"/></linearGradient><linearGradient gradientUnits="userSpaceOnUse" y2="9.957" x2="0" y1="38.14" id="1"><stop stop-color="#c52828"/><stop offset="1" stop-color="#ff5454"/></linearGradient></defs><g transform="translate(-.009-.007)"><path d="m41.36-25.875h42.04c1.652 0 2.982 1.33 2.982 2.982v42.04c0 1.652-1.33 2.982-2.982 2.982h-42.04c-1.652 0-2.982-1.33-2.982-2.982v-42.04c0-1.652 1.33-2.982 2.982-2.982" transform="matrix(.99999 0 0 .99999-38.37 25.882)" fill="url(#0)" fill-rule="evenodd"/><path d="m15.918 10l-8.08 14 8.08 14h16.16l8.08-14-8.08-14h-16.16m1.818 3.15h.091c-.035.009-.071.017-.107.027l.016-.027zm4.592 0h7.937l1.736 3.01c-1.03-.401-2.15-.63-3.326-.63-.667 0-1.316.073-1.941.208-1.172-1.245-2.693-2.152-4.407-2.585m-4.309 2.475c1.971 0 3.788.625 5.277 1.68-1.079.793-1.973 1.811-2.617 2.995-.955-.338-1.98-.531-3.054-.531-1.589 0-3.067.421-4.364 1.131l2.94-5.09c.587-.119 1.194-.185 1.818-.185m10.506 2.869c3.567.759 6.347 3.591 7.04 7.184l-5.296 9.172h-2.743c2.397-1.641 3.965-4.397 3.965-7.534 0-2.333-.873-4.449-2.305-6.06-.077-.973-.301-1.902-.657-2.764m-3.856.009c1.533 1.631 2.477 3.822 2.477 6.248 0 1.022-.177 1.999-.486 2.914-.453-3.377-2.733-6.149-5.824-7.306 1.095-.896 2.398-1.545 3.833-1.855m-9.116 4.03c5.056 0 9.126 4.07 9.126 9.126 0 .316-.023.627-.055.934-1.288.694-2.764 1.088-4.336 1.088-1.314 0-2.554-.285-3.679-.783l-5.138-8.897.394-.682c1.127-.5 2.37-.787 3.688-.787m13.634.02c.146.644.227 1.313.227 2 0 2.691-1.16 5.094-3 6.761.212-.771.337-1.579.337-2.42 0-.218-.019-.432-.034-.646 1.424-1.504 2.335-3.489 2.47-5.698" fill="url(#1)"/></g></svg>