<svg xmlns="http://www.w3.org/2000/svg" viewBox="0 0 48 48"><defs><linearGradient id="0" gradientUnits="userSpaceOnUse" gradientTransform="matrix(.49433 0 0 .4778 86.64 13.1)" x1="-123.97" y1="73.5" x2="-125.19" y2="-26.05"><stop stop-color="#ffbc00"/><stop stop-color="#ffec00" offset="1"/></linearGradient><linearGradient y2="22.378" x2="-56.45" y1="61.66" x1="-55.03" gradientUnits="userSpaceOnUse" id="1"><stop stop-color="#c52828"/><stop offset="1" stop-color="#ff5454"/></linearGradient></defs><g fill-rule="evenodd"><path d="m2.982 0h42.04c1.652 0 2.982 1.33 2.982 2.982v42.04c0 1.652-1.33 2.982-2.982 2.982h-42.04c-1.652 0-2.982-1.33-2.982-2.982v-42.04c0-1.652 1.33-2.982 2.982-2.982" fill="url(#0)"/><path d="m-56.671875 21.492188a12.765791 12.765791 0 0 1 6.826172 11.279296 12.765791 12.765791 0 0 1 -3.705078 8.978516 22.16762 22.16762 0 0 0 11.597656 -19.457031 22.16762 22.16762 0 0 0 -.03906 -.800781h-14.68m-18.417972 6.0625a22.16762 22.16762 0 0 0 -.638672 .03125v14.369a12.765791 12.765791 0 0 1 11.11914 -6.507812 12.765791 12.765791 0 0 1 8.978516 3.705078 22.16762 22.16762 0 0 0 -19.458985 -11.597656m39.36133 13.351562a12.765791 12.765791 0 0 1 -11.11914 6.507812 12.765791 12.765791 0 0 1 -8.978516 -3.705078 22.16762 22.16762 0 0 0 19.457031 11.597657 22.16762 22.16762 0 0 0 .640625 -.03125v-14.369m-22.255859.326172a22.16762 22.16762 0 0 0 -11.597656 19.458984 22.16762 22.16762 0 0 0 .03906 .800782h14.678a12.765791 12.765791 0 0 1 -6.826172 -11.279297 12.765791 12.765791 0 0 1 3.707031 -8.980469" transform="matrix(1.2 0 0 1.2 90.87-25.791)" fill="url(#1)"/></g></svg>