<svg xmlns="http://www.w3.org/2000/svg" viewBox="0 0 48 48"><defs><linearGradient id="0" gradientUnits="userSpaceOnUse" y1="5.273" x2="0" y2="8.991"><stop stop-color="#ff4c39"/><stop offset="1" stop-color="#cf3d2e"/></linearGradient><linearGradient id="1" x1="26.441" y1="44.746" x2="25.627" y2="-3.458" gradientUnits="userSpaceOnUse"><stop stop-color="#18191b"/><stop stop-color="#424649" offset="1"/></linearGradient><linearGradient id="2" gradientUnits="userSpaceOnUse" y1="35.863" x2="23.775" y2="11.735" x1="24.21"><stop stop-color="#dbdada"/><stop offset="1" stop-color="#fff"/></linearGradient></defs><ellipse cx="26.644" cy="20.949" rx="24" ry="24" fill="url(#1)" transform="translate(-2.644 3.051)"/><g transform="matrix(1.71427 0 0 1.71427-49.21 3.512)" enable-background="new"><path d="M15.658203 12.679688A3.186828 3.186828 0 0 0 12.470703 15.867188 3.186828 3.186828 0 0 0 15.658203 19.05273 3.186828 3.186828 0 0 0 18.845703 15.867188 3.186828 3.186828 0 0 0 15.658203 12.679688M24.19922 12.679688A3.186828 3.186828 0 0 0 21.01367 15.867188 3.186828 3.186828 0 0 0 24.19922 19.05273 3.186828 3.186828 0 0 0 27.386719 15.867188 3.186828 3.186828 0 0 0 24.19922 12.679688M32.484375 12.679688A3.186828 3.186828 0 0 0 29.29883 15.867188 3.186828 3.186828 0 0 0 32.484375 19.05273 3.186828 3.186828 0 0 0 35.671875 15.867188 3.186828 3.186828 0 0 0 32.484375 12.679688M32.484375 21.2207A3.186828 3.186828 0 0 0 29.29883 24.408203 3.186828 3.186828 0 0 0 32.484375 27.59375 3.186828 3.186828 0 0 0 35.671875 24.408203 3.186828 3.186828 0 0 0 32.484375 21.2207M24.19922 21.347656A3.186828 3.186828 0 0 0 21.01172 24.533203 3.186828 3.186828 0 0 0 24.19922 27.720703 3.186828 3.186828 0 0 0 27.384766 24.533203 3.186828 3.186828 0 0 0 24.19922 21.347656M15.658203 21.476562A3.186828 3.186828 0 0 0 12.470703 24.662109 3.186828 3.186828 0 0 0 15.658203 27.849609 3.186828 3.186828 0 0 0 18.845703 24.662109 3.186828 3.186828 0 0 0 15.658203 21.476562M32.484375 29.638672A3.186828 3.186828 0 0 0 29.29883 32.826172 3.186828 3.186828 0 0 0 32.484375 36.01367 3.186828 3.186828 0 0 0 35.671875 32.826172 3.186828 3.186828 0 0 0 32.484375 29.638672M15.658203 29.888672A3.186828 3.186828 0 0 0 12.470703 33.07617 3.186828 3.186828 0 0 0 15.658203 36.26367 3.186828 3.186828 0 0 0 18.845703 33.07617 3.186828 3.186828 0 0 0 15.658203 29.888672M24.19922 29.888672A3.186828 3.186828 0 0 0 21.01172 33.07617 3.186828 3.186828 0 0 0 24.19922 36.26367 3.186828 3.186828 0 0 0 27.384766 33.07617 3.186828 3.186828 0 0 0 24.19922 29.888672" transform="matrix(.58334 0 0 .58334 28.706-2.049)" fill="url(#2)"/></g></svg>