<?xml version="1.0" encoding="UTF-8" standalone="no"?>
<svg
   xmlns:dc="http://purl.org/dc/elements/1.1/"
   xmlns:cc="http://creativecommons.org/ns#"
   xmlns:rdf="http://www.w3.org/1999/02/22-rdf-syntax-ns#"
   xmlns:svg="http://www.w3.org/2000/svg"
   xmlns="http://www.w3.org/2000/svg"
   xmlns:xlink="http://www.w3.org/1999/xlink"
   xmlns:sodipodi="http://sodipodi.sourceforge.net/DTD/sodipodi-0.dtd"
   xmlns:inkscape="http://www.inkscape.org/namespaces/inkscape"
   viewBox="0 0 48 48"
   id="svg2"
   version="1.1"
   inkscape:version="0.91 r13725"
   sodipodi:docname="chrome-iggpfpnahkgpnindfkdncknoldgnccdg-Default.svg">
  <metadata
     id="metadata24">
    <rdf:RDF>
      <cc:Work
         rdf:about="">
        <dc:format>image/svg+xml</dc:format>
        <dc:type
           rdf:resource="http://purl.org/dc/dcmitype/StillImage" />
      </cc:Work>
    </rdf:RDF>
  </metadata>
  <sodipodi:namedview
     pagecolor="#ffffff"
     bordercolor="#666666"
     borderopacity="1"
     objecttolerance="10"
     gridtolerance="10"
     guidetolerance="10"
     inkscape:pageopacity="0"
     inkscape:pageshadow="2"
     inkscape:window-width="1366"
     inkscape:window-height="684"
     id="namedview22"
     showgrid="false"
     inkscape:zoom="4.9166667"
     inkscape:cx="24"
     inkscape:cy="24"
     inkscape:window-x="0"
     inkscape:window-y="0"
     inkscape:window-maximized="1"
     inkscape:current-layer="svg2" />
  <defs
     id="defs4">
    <linearGradient
       gradientTransform="matrix(.49433 0 0 .4778 125.02-12.773)"
       id="0"
       x1="-123.97"
       y1="73.5"
       x2="-125.19"
       y2="-26.05"
       gradientUnits="userSpaceOnUse">
      <stop
         stop-color="#c52828"
         id="stop7" />
      <stop
         stop-color="#ff5454"
         offset="1"
         id="stop9" />
    </linearGradient>
    <linearGradient
       xlink:href="#0"
       x1="61.34"
       y1="13.641"
       x2="60.58"
       y2="-38.997"
       gradientUnits="userSpaceOnUse"
       id="linearGradient11" />
    <linearGradient
       y2="476.11"
       x2="426.43"
       y1="517.57"
       x1="425.71"
       gradientUnits="userSpaceOnUse"
       id="1"
       xlink:href="#0" />
    <linearGradient
       inkscape:collect="always"
       xlink:href="#0"
       id="linearGradient4160"
       x1="-13.220338"
       y1="43.322033"
       x2="-12.61017"
       y2="-7.1186457"
       gradientUnits="userSpaceOnUse"
       gradientTransform="translate(35.186441,6.3050857)" />
  </defs>
  <circle
     style="opacity:1;fill:url(#linearGradient4160);fill-opacity:1;stroke:none;stroke-width:1.5;stroke-linecap:round;stroke-linejoin:round;stroke-miterlimit:4;stroke-dasharray:none;stroke-opacity:0.85490196"
     id="path4152"
     r="24"
     cy="24"
     cx="24" />
  <g
     transform="translate(0.00223666,-0.00850875)"
     style="enable-background:new"
     id="g14">
    <g
       style="fill:#ffffff;fill-opacity:0.85100002"
       transform="matrix(0.82364,0,0,0.82364,-2.453,-824.66)"
       id="g18">
      <path
         style="fill:#ffffff;fill-opacity:0.85100002"
         inkscape:connector-curvature="0"
         transform="matrix(0.03906,0,0,0.03906,21.19,1019.59)"
         d="m 648.3,306.84 -69.51,0 c -17.59,0 -31.784,14.07 -32.391,31.419 -14.437,134.17 -127.98,238.62 -266.16,238.62 -147.88,0 -267.62,-119.61 -267.62,-267.25 0,-146.3 120.58,-265.19 266.52,-267.25 l 0,43.43 c 0,19.775 14.07,28.63 31.3,19.775 l 223.09,-114.15 c 17.226,-8.857 17.226,-23.17 0,-32.03 l -223.09,-113.91 c -17.226,-8.855 -31.3,0 -31.3,19.653 l 0,43.793 c -219.94,2.063 -400.33,180.88 -400.33,400.94 0,221.39 179.66,400.94 401.42,400.94 212.06,0 385.77,-164.14 400.33,-372.31 0.121,-17.469 -14.558,-31.663 -32.27,-31.663 z"
         id="path20" />
    </g>
  </g>
</svg>
