<svg xmlns="http://www.w3.org/2000/svg" viewBox="0 0 48 48"><defs><linearGradient gradientTransform="matrix(-.56777 0 0 .61822 579.27 212.13)" gradientUnits="userSpaceOnUse" y2="507.87" x2="0" y1="546.8" id="0"><stop stop-color="#d3d3d3"/><stop offset="1" stop-color="#fcf9f9"/></linearGradient><linearGradient id="1" x1="355.57" y1="551.72" x2="354.94" y2="503.1" gradientUnits="userSpaceOnUse"><stop stop-color="#212121"/><stop offset="1" stop-color="#3f3f41"/></linearGradient></defs><g transform="matrix(.9746 0 0 .9746-322.33-489.99)"><path d="m372.72 511.01c-4.644-3.779-10.81-5.86-17.362-5.86-6.552 0-12.718 2.081-17.362 5.86-4.684 3.812-7.264 8.892-7.264 14.306 0 5.167 2.351 10.03 6.638 13.776-.077.174-.139.357-.178.549l-1.409 6.928c-.167.823.058 1.314.276 1.581.252.308.626.478 1.052.478.322 0 .668-.095 1.029-.283l8.193-4.256c2.836.913 5.886 1.392 9.02 1.392 6.552 0 12.718-2.081 17.362-5.86 4.684-3.812 7.264-8.892 7.264-14.306 0-5.413-2.58-10.494-7.264-14.306" fill="url(#1)"/><g><path d="m358.65 529.15c2.322-2.058 5.405-3.191 8.681-3.191 3.276 0 6.359 1.133 8.681 3.191 2.342 2.075 3.632 4.841 3.632 7.788 0 2.813-1.176 5.46-3.319 7.5.039.095.069.194.089.299l.704 3.772c.084.448-.029.716-.138.861-.126.168-.313.26-.526.26-.161 0-.334-.052-.514-.154l-4.096-2.317c-1.418.497-2.943.758-4.512.758-3.276 0-6.359-1.133-8.681-3.191-2.342-2.075-3.632-4.841-3.632-7.788 0-2.947 1.29-5.713 3.632-7.788" fill="url(#0)"/><g transform="matrix(1.07327 0 0 1.07327-59.63-48.551)" fill="#2b2b2c"><circle cx="393.04" cy="545.5" r="2.084"/><circle cx="397.79" cy="545.5" r="2.084"/><circle cx="402.78" cy="545.5" r="2.084"/></g></g></g></svg>