<svg xmlns="http://www.w3.org/2000/svg" viewBox="0 0 48 48"><defs><linearGradient gradientUnits="userSpaceOnUse" y2="-36.952" x2="60.46" y1="13.305" x1="64.38" id="0"><stop stop-color="#0164c2"/><stop stop-color="#00a9f3" offset="1"/></linearGradient><linearGradient y2="-35.476" x2="62.15" y1="11.846" x1="62.6" gradientUnits="userSpaceOnUse" id="1"><stop stop-color="#197dec"/><stop stop-color="#3fcffb" offset="1"/></linearGradient></defs><g enable-background="new"><g transform="matrix(.99999 0 0 .99999-38.469 35.815)"><circle r="24" cy="-11.815" cx="62.47" fill="url(#1)"/><path d="m60.59-35.747c-3.02.236-5.846 1.036-8.422 2.256-.179.193-.42.348-.62.347-.027 0-.056-.016-.084-.024-1.265.65-2.454 1.418-3.572 2.271.173.236.239.509-.065.668-.051.027-.711.146-.944.159-3.157 2.695-5.587 6.175-7 10.133.027-.006.05-.021.078-.025.26-.024.641.021.896.054.235.029.433.17.634.169.57 0 .672-.453 1.116-.736.483.03.788-.143 1.224-.129.297.009.534.307.764.307.195.005.348-.209.537-.195.184.014.527.385.573.604.059.273-.162.54-.059.837.312.272.842.29 1.267.428.251-.243-.014-.636-.074-.953-.015-.141 0-.269-.031-.398-.042-.219-.153-.414-.17-.603-.072-.873.604-1.337 1.163-1.727.242-.17.421-.449.632-.576.298-.18.527-.234.773-.399.444-.297.827-.538 1.167-.863.137-.409-.056-.928-.072-1.321.16-.116.316.02.493-.008.276-.08.268-.478.415-.649.085-.097.333-.183.441-.281.262-.241.327-.579.564-.693.084-.042.287-.048.423-.096.178-.062.42-.297.708-.422.188-.082.628-.13.696-.21.083-.099-.029-.353-.008-.493.094-.704 1.127-.933 1.724-1.214.42-.198.84-.532 1.322-.477-.067.336-.519.254-.413.649.147.546.834-.225 1.023-.322.362-.187.996-.333 1.473-.55.419-.192 1.172-.492.727-.953-.34.007-.471.437-.756.586-.201.048-.179-.158-.354-.161-.167-.007-.246.173-.418.158-.171-.015-.429-.261-.471-.457-.107-.507.377-.757.558-1.156-.177-.452-.788-.033-1.19-.185.016-.279.286-.491.605-.569.261-.065.856-.089 1.023.04.096.07.026.27.186.388.168.129.359.099.558.05.046-.356-.475-.226-.436-.462.394-.303 1.085-.134 1.587-.249.289-.066.579-.296.827-.462.235-.16.536-.428.815-.219.09.245-.201.352-.331.487-.437.454-.883.97-1.21 1.484.241.201.64.059 1.021.075.15.008.339.037.498.053.186.018.38-.006.526.02.263.043.354.313.609.293.42-.033.389-.488.13-.753.052-.295.159-.455.041-.65-.219-.364-.884.049-.957-.419-.046-.304.233-.312.326-.549-.096-.588.435-.672.336-1.197-.042-.22-.229-.208-.401-.404-.085-.096-.142-.288-.238-.37-.721-.008-1.448.0001-2.181.067m-11.97 5.794h.002c.145.009.329.15.503.149.164-.009.292-.113.395-.094.262.047.401.427.175.636-.199.041-.285-.065-.435-.027-.411.103-.507.932-.821.929-.295-.002-.51-.705-.229-.941.005-.188-.153-.205-.158-.39.079-.12.321-.261.567-.261m-1.374.204c.085-.004.152.012.187.046-.015.33-.273.328-.513.501-.416.297-.637.718-.731 1.292-.027.167-.424.634-.635.607-.494-.064.056-1.014.157-1.155.11-.161.265-.306.397-.492.128-.18.201-.415.328-.519.14-.114.553-.269.81-.28m3.718.818c.156-.0001.298.005.367.063-.068.413-.95.375-1.28.253.009-.155.244-.215.444-.251.141-.015.314-.057.47-.065m-1.928.903c.103-.0001.211.004.321.024-.264.258-.558.416-1.031.608-.227.091-.623.215-.683-.043-.073-.315.321-.271.532-.316.265-.058.547-.237.861-.272m30.615-.566c-.029.089-.049.178-.038.262.031.147.204.276.256.474.028.104-.024.339.034.432.17.275.54.038.818.032-.348-.408-.696-.816-1.07-1.2m1.733 1.987c-.027.215-.15.502-.252.688-.236.428-.598.475-.964.722-.305.206-.42.519-.582.85-.177.357-.286.572-.164 1.06-.232.565-.621.931-1.168 1.234-.162.088-.39.135-.534.258-.115.097-.167.34-.326.549-.197.256-.414.375-.513.566-.076.148-.085.432-.167.629-.11.268-.38.416-.531.691-.069.127-.102.376-.177.54-.167.369-.479.649-.419.957.059.297.404.323.448.583.015.148-.079.246-.06.407.022.235.195.388.228.567.081.452-.105.65-.167.967-.029.152 0 .318-.029.437-.057.234-.36.465-.344.735.013.192.224.33.261.598.018.185-.061.391-.015.558.091.328.718.67.997.91.375.32.85.553 1.028.907.151.3.181.705.441.92.193.159.498.243.742.405.227.151.471.278.714.438.397.263 1 .801 1.598.71.309-.047.608-.325.955-.416.358-.093.826-.164 1.194-.155.282.006.584.152.874.114.306-.043.641-.298.978-.479.271-.145.606-.307.977-.436.082-1.181.081-2.384-.014-3.601-.384-4.9-2.203-9.327-5.01-12.916m-38.948 11.138c-.507.067-.84.118-1.119.271-.641.355-.442 1.241-1.089 1.505-.224.091-.538.12-.787.186-.215.057-.471.197-.696.21-.063.004-.155-.036-.235-.054-.026.425-.041.855-.045 1.284.641.071 1.031.883 1.611 1.116.159.064.359.052.558.081.162.023.287.08.444.121.333.084.729.04.998.136.405.143.749.856 1.101 1.026.035.197-.002.467.078.61.176.203.397.138.669.258.326.145.456.573.763.683.106.037.363.011.528.048.417.091.586.551.926.421.223-.085.187-.319.207-.54.139-.176.283-.448.518-.471.38-.049.446.362.614.721.094.203.313.37.385.586.125.374.167 1.518.104 1.752-.074.287-.444.435-.653.763-.098.154-.135.371-.209.48-.136.195-.356.26-.455.438-.056.1-.101.309-.154.442-.154.405-.379.701-.187 1.157.08.188.392.293.41.52.022.267-.528.55-.549.847-.015.22.224.593.315.871.067.21.483.312.621.445.234.225.433.554.654.843.436.566.797 1.271 1.221 1.821.224.287.526.538.684.843.08.154.086.343.16.481.258.478 1.266.919 1.786 1.125.243.095.505.115.729.218.339.156 1.021.593 1.208.865.167.245.306.862.409 1.263.138.531.075.952.151 1.533.044.314.17.623.198.939.0001.11-.043.198-.039.311 0 .019.008.039.009.058 3.12 1.128 6.521 1.643 10.05 1.367.639-.05 1.267-.133 1.889-.23.023-.049.045-.1.075-.147.13-.2.244-.376.326-.549.047-.567-.298-.934-.204-1.435.103-.562.839-.958 1.353-1.248.177-.099.355-.253.499-.316.36-.158.826-.125 1.154-.274.558-.255.57-.877.812-1.422.114-.258.271-.52.284-.699.0001-.161-.082-.303-.071-.493.013-.188.167-.361.203-.568.046-.271.044-.663.021-.959-.019-.243-.15-.447-.177-.666-.102-.792.218-.907.479-1.364.131-.227.167-.476.258-.639.437-.776 1.266-1.199 1.117-2.309-.049-.368-.346-1.183-.627-1.279-.161-.055-.512.036-.743-.033-.746-.214-1.242-1.08-1.999-1.078-.162-.007-.302.09-.483.101-.299.004-.762-.15-1.094-.162-.211-.006-.484.1-.615.048-.199-.078-.246-.43-.41-.523-.131-.075-.373-.086-.566-.144-.311-.092-.561-.209-.912-.206-.108.005-.238.07-.365.061-.196-.017-.366-.234-.552-.328-.234-.119-.445-.168-.552-.355.15-.677-.422-.817-.587-1.188-.079-.174-.066-.392-.135-.546-.098-.222-.334-.336-.597-.508-.471-.307-.89-.597-1.531-.626-.282-.014-.549.127-.888.133-.359.005-.832-.272-1.123-.556-.283-.278-.43-.535-.668-.66-.225-.121-.509-.094-.667-.223-.07-.055-.067-.161-.148-.298-.126-.215-.315-.324-.202-.603-.254-.106-.233.253-.504.228-.265-.319-.479-.464-1.014-.322-.244.065-.359.39-.647.42-.235.038-.444-.231-.76-.251-.239-.014-.5.103-.671.085-.266-.032-.364-.243-.616-.382-.185-.101-.54-.271-.639-.26-.307.044-.477.697-.92.504-.227-.246.305-.426.041-.652-.201-.172-.335.11-.476.225-.161.132-.312.26-.495.344-.409.191-.679.129-.995.324-.292.182-.285.447-.433.774-.122.268-.414.668-.625.7-.256.04-.531-.32-.772-.403-.726-.249-1.021.352-1.605.406-.54.062-1.383-.771-1.396-1.282-.021-.311.118-.795.124-1.183.009-.308.204-.509.185-.788-.025-.373-.546-.621-.791-.646-.581-.06-1.351.337-2.029.126-.142-.198.12-.364.174-.57.031-.119-.004-.27.027-.4.057-.201.25-.369.325-.582.056-.164.055-.393.108-.594.062-.229.2-.385.205-.542.007-.209-.09-.441-.263-.564m8.71 5.853c.21.003.269.431.059.482-.227.053-.375-.332-.16-.453.036-.022.072-.026.101-.027v-.002" fill="url(#0)"/></g><g transform="matrix(.82364 0 0 .82364-2.453-824.66)" fill="#fff"><path transform="matrix(.03906 0 0 .03906 21.19 1019.59)" d="m648.3 306.84h-69.51c-17.59 0-31.784 14.07-32.391 31.419-14.437 134.17-127.98 238.62-266.16 238.62-147.88 0-267.62-119.61-267.62-267.25 0-146.3 120.58-265.19 266.52-267.25v43.43c0 19.775 14.07 28.63 31.3 19.775l223.09-114.15c17.226-8.857 17.226-23.17 0-32.03l-223.09-113.91c-17.226-8.855-31.3 0-31.3 19.653v43.793c-219.94 2.063-400.33 180.88-400.33 400.94 0 221.39 179.66 400.94 401.42 400.94 212.06 0 385.77-164.14 400.33-372.31.121-17.469-14.558-31.663-32.27-31.663z" fill="#fff"/></g></g></svg>