<svg xmlns="http://www.w3.org/2000/svg" viewBox="0 0 48 48"><defs><linearGradient id="0" gradientUnits="userSpaceOnUse" gradientTransform="matrix(.49433 0 0 .4778 86.64 13.1)" x1="-123.97" y1="73.5" x2="-125.19" y2="-26.05"><stop stop-color="#e1e1e1"/><stop offset="1" stop-color="#f4f4ff"/></linearGradient><linearGradient gradientUnits="userSpaceOnUse" y2="12.32" x2="23.15" y1="36.727" x1="23.509" id="1"><stop stop-color="#f16419"/><stop stop-color="#feb600" offset="1"/></linearGradient></defs><path d="m2.982 0h42.04c1.652 0 2.982 1.33 2.982 2.982v42.04c0 1.652-1.33 2.982-2.982 2.982h-42.04c-1.652 0-2.982-1.33-2.982-2.982v-42.04c0-1.652 1.33-2.982 2.982-2.982" fill="url(#0)" fill-rule="evenodd"/><path d="m8.943 12.343c-1.076 0-1.943.867-1.943 1.943 0 1.076.867 1.943 1.943 1.943h5.897c-.04.156-.068.317-.068.486v17c0 1.076.867 1.943 1.943 1.943 1.076 0 1.943-.867 1.943-1.943v-17c0-.169-.028-.33-.068-.486h5.897c1.076 0 1.943-.867 1.943-1.943 0-1.076-.867-1.943-1.943-1.943h-15.543m18.457 0v3.4h.486c4.574 0 8.257 3.683 8.257 8.257 0 4.574-3.683 8.257-8.257 8.257h-5.343v3.4h6.8c6.458 0 11.657-5.199 11.657-11.657 0-6.458-5.199-11.657-11.657-11.657h-1.943" fill="url(#1)"/></svg>