<svg xmlns="http://www.w3.org/2000/svg" viewBox="0 0 48 48"><defs><linearGradient gradientUnits="userSpaceOnUse" y2="1.646" x2="19.813" y1="12.835" x1="17.364" id="0"><stop stop-color="#3eaaa5"/><stop offset="1" stop-color="#89f1ed"/></linearGradient></defs><g transform="matrix(3.54331 0 0 3.54331-73.62-7.48)"><g transform="matrix(1.1982 0 0 1.1982 4.76.235)"><path d="m20.435 1.566c-1.44 0-2.674.869-3.224 2.105-.217-.136-.46-.221-.736-.221-.781 0-1.413.633-1.413 1.413 0 .236.06.452.162.648-1.082.396-1.855 1.43-1.855 2.65 0 1.561 1.265 2.826 2.826 2.826h.471v1.884l1.884-1.884h3.769c1.301 0 2.355-1.055 2.355-2.355 0-.825-.433-1.552-1.075-1.973.234-.472.368-.998.368-1.56 0-1.951-1.582-3.533-3.533-3.533" fill="url(#0)"/><path d="m17.211 5.334c.082 0 .214-.005.397 0h.412l1 2.164.986-2.164h.795c.16 0 .276.03.339.074.097.082.147.178.147.294 0 .218-.131.344-.383.368v2.782c.295 0 .442.111.442.353 0 .131-.061.246-.177.324-.058.034-.149.044-.294.044h-.942c-.319 0-.486-.126-.486-.368 0-.14.061-.241.177-.309.053-.034.159-.044.309-.044h.25v-2.105l-.81 1.825h-.662l-.854-1.825v2.105h.25c.155 0 .271.015.339.059.097.073.147.169.147.294 0 .131-.061.246-.177.324-.058.034-.164.044-.309.044h-.927c-.16 0-.276-.025-.339-.074-.102-.073-.147-.173-.147-.294 0-.242.146-.353.442-.353v-2.782c-.252-.024-.383-.145-.383-.368 0-.131.061-.246.177-.324.058-.034.154-.044.28-.044" fill-opacity=".621"/></g><text font-size="14.683" letter-spacing="0" line-height="125%" word-spacing="0" y="8.28" x="-57.15" font-family="Sans"><tspan/></text></g></svg>