<svg xmlns="http://www.w3.org/2000/svg" viewBox="0 0 48 48"><defs><linearGradient id="4" y1="542.8" x2="0" y2="503.85" gradientUnits="userSpaceOnUse"><stop stop-color="#79a8ca"/><stop offset="1" stop-color="#9ecbda"/></linearGradient><linearGradient id="5" y1="532.8" x2="0" y2="514.8" gradientUnits="userSpaceOnUse"><stop stop-color="#dfe3e4"/><stop offset="1" stop-color="#f5f9fa"/></linearGradient><linearGradient id="3" x1="408.53" y1="530.59" x2="408.57" y2="514.8" gradientUnits="userSpaceOnUse"><stop stop-color="#51a3e4"/><stop offset="1" stop-color="#abdcec"/></linearGradient><linearGradient id="1" x1="393.57" y1="537.8" x2="393.1" y2="513.45" gradientUnits="userSpaceOnUse"><stop stop-color="#51a3e4"/><stop offset="1" stop-color="#acddee"/></linearGradient><linearGradient id="0" y1="34.22" x2="0" y2="15.367" gradientUnits="userSpaceOnUse"><stop stop-color="#3d88e1"/><stop offset="1" stop-color="#7abbe5"/></linearGradient><linearGradient id="2" x1="407.57" y1="517.8" x2="407.67" y2="503.17" gradientUnits="userSpaceOnUse"><stop stop-color="#337ed4"/><stop offset="1" stop-color="#5ab8f2"/></linearGradient></defs><g transform="matrix(1.2 0 0 1.2-466.17-604.54)"><rect y="504.8" x="389.57" height="38" width="38" fill="url(#4)" rx="19"/><path transform="translate(384.57 499.8)" d="m24.473 14.699c-.262 0-.473.211-.473.473 0 .262.211.473.473.473h17.05c.034 0 .065-.013.098-.02l.232-.625-.857-.301" opacity=".8" fill="#649cc1"/><g fill-rule="evenodd"><path d="m392.58 511.8c-2.504 3.34-4 7.548-4 12.06 0 11.08 8.92 19.938 20 19.938l7-14.337-13-2.663z" fill="url(#1)"/><path transform="translate(384.57 499.8)" d="m25 15l6 14.6-7 14.4c11.08 0 20-8.92 20-20 0-3.245-.782-6.295-2.143-9z" fill="url(#0)"/><path d="m408.57 503.8c-6.565 0-12.354 3.146-15.996 8l9.996 14.996 13 2.6-6-14.6h16.857c-3.285-6.53-10.02-11-17.857-11" fill="url(#2)"/></g><rect width="18" height="18" x="399.57" y="514.8" fill="url(#5)" rx="9"/><rect y="516.8" x="401.57" height="14" width="14" fill="url(#3)" rx="7"/></g></svg>