<svg xmlns="http://www.w3.org/2000/svg" viewBox="0 0 48 48"><defs><linearGradient y1="545.8" x2="0" y2="517.8" gradientUnits="userSpaceOnUse"><stop stop-color="#3889e9"/><stop offset="1" stop-color="#5ea5fb"/></linearGradient><linearGradient id="0" gradientUnits="userSpaceOnUse" y1="545.14" x2="0" y2="518.14"><stop stop-color="#2d6fbc"/><stop offset="1" stop-color="#5ea5fb"/></linearGradient></defs><g transform="matrix(1.1282 0 0 1.1282-363.46-568.76)"><circle r="14" cy="531.8" cx="400.57" fill="url(#0)" transform="matrix(1.51949 0 0 1.51949-265.16-282.56)"/><g transform="matrix(1.23515 0 0 1.23515-46.667-87.23)" opacity=".868" fill="#fff"><ellipse ry="2.287" rx="2.287" cy="490.23" cx="309.9" opacity="1"/><ellipse ry="2.287" rx="2.287" cy="490.23" cx="316.03" opacity="1"/><ellipse ry="2.287" rx="2.287" cy="490.23" cx="321.98" opacity="1"/><ellipse cx="309.9" cy="496.54" rx="2.287" ry="2.287" opacity="1"/><ellipse cx="309.9" cy="502.58" rx="2.287" ry="2.287" opacity="1"/><ellipse cx="321.98" cy="496.36" rx="2.287" ry="2.287" opacity="1"/><ellipse cx="321.98" cy="502.4" rx="2.287" ry="2.287" opacity="1"/><ellipse ry="2.287" rx="2.287" cy="490.32" cx="309.72" opacity="1" transform="translate(6.312 12.259)"/><ellipse ry="2.287" rx="2.287" cy="490.32" cx="309.72" opacity="1" transform="translate(6.312 6.129)"/></g></g></svg>