<svg xmlns="http://www.w3.org/2000/svg" viewBox="0 0 48 48"><defs><linearGradient gradientUnits="userSpaceOnUse" y2="503.8" x2="0" y1="519.8" id="3"><stop stop-color="#f23b2a"/><stop offset="1" stop-color="#fd5757"/></linearGradient><linearGradient gradientUnits="userSpaceOnUse" y2="505.46" x2="0" y1="542.13" id="4"><stop stop-color="#e7e7e7"/><stop offset="1" stop-color="#fcfcfc"/></linearGradient><linearGradient gradientUnits="userSpaceOnUse" y2="513.8" x2="396.57" y1="540.8" x1="396.65" id="2"><stop stop-color="#11aa43"/><stop offset="1" stop-color="#5be654"/></linearGradient><linearGradient id="0" y1="542.8" x2="0" y2="503.85" gradientUnits="userSpaceOnUse"><stop stop-color="#79a8ca"/><stop offset="1" stop-color="#9ecbda"/></linearGradient><linearGradient gradientUnits="userSpaceOnUse" y2="15" x2="0" y1="44" id="1"><stop stop-color="#f3b200"/><stop offset="1" stop-color="#fee145"/></linearGradient></defs><g transform="matrix(1.2 0 0 1.2-466.29-604.56)"><rect width="38" height="38" x="389.57" y="504.8" fill="url(#0)" rx="19"/><path d="m24.473 14.699c-.262 0-.473.211-.473.473 0 .262.211.473.473.473h17.05c.034 0 .065-.013.098-.02l.232-.625-.857-.301" transform="translate(384.57 499.8)" opacity=".8" fill="#649cc1"/><g fill-rule="evenodd"><path d="m392.58 511.8c-2.504 3.34-4 7.548-4 12.06 0 11.08 8.92 19.938 20 19.938l7-14.337-13-2.663z" fill="url(#2)"/><path d="m25 15l6 14.6-7 14.4c11.08 0 20-8.92 20-20 0-3.245-.782-6.295-2.143-9z" transform="translate(384.57 499.8)" fill="url(#1)"/><path d="m408.57 503.8c-6.565 0-12.354 3.146-15.996 8l9.996 14.996 13 2.6-6-14.6h16.857c-3.285-6.53-10.02-11-17.857-11" fill="url(#3)"/></g><rect width="36.667" height="36.667" x="390.24" y="505.46" fill="url(#4)" rx="18.333" stroke-width="1.222"/><path d="m398.36 532.64c.757-.684 1.548-1.394 1.757-1.578.209-.184.381-.353.382-.376.003-.042-2.217-1.536-2.317-1.559-.03-.007-.073.049-.098.125-.054.171-.745 2.756-1.131 4.229-.082.314-.084.402-.006.402.019 0 .655-.56 1.412-1.244m20.97 1.106c.403-.529.629-1.673.533-2.699-.109-1.167-.427-1.975-1.036-2.635-.452-.49-.834-.596-1.271-.355-.682.377-1.328.776-1.425.88-.287.309-.267.812.057 1.455.328.65.684 1.021 1.477 1.539.818.534 1.15.942 1.329 1.634.058.222.117.315.202.317.015 0 .076-.061.134-.137m-17.706-4.798c1.547-2.758 3.52-6.18 4.746-8.229.267-.447.486-.826.486-.841 0-.051-2.302-1.466-2.363-1.452-.062.013-2.119 3.477-3.58 6.03-.463.808-1.151 1.958-1.53 2.556-.378.598-.745 1.177-.815 1.288-.073.116-.111.216-.09.237.103.099 2.426 1.586 2.461 1.575.022-.006.33-.528.684-1.159m15.03-.98c.598-.34 1.123-.652 1.167-.693.078-.073.075-.083-.146-.464-.124-.214-.425-.737-.669-1.163-.244-.425-.472-.779-.507-.786-.091-.017-2.351 1.3-2.366 1.38-.013.067 1.174 2.159 1.306 2.301.038.041.082.067.099.058.017-.008.519-.295 1.117-.635m4.502-2.211c.017-.03.027-.674.022-1.43l-.008-1.375-2.543-.001c-2.219-.008-2.541-.005-2.529.051.008.034.361.682.787 1.441l.773 1.379.168.013c.092.006.873.006 1.734 0 1.239-.008 1.573-.024 1.598-.067zm-8.04-.059c.007-.022-.315-.629-.716-1.35l-.729-1.312h-3.1-3.1l-.732 1.325c-.403.729-.723 1.34-.712 1.359.029.047 9.07.026 9.09-.022m-13.317-.227c.083-.144.425-.736.761-1.316.336-.58.61-1.074.61-1.098 0-.029-.857-.039-2.602-.032l-2.602.001-.013.293c-.008.161-.0001.768.015 1.348l.029 1.055h1.826 1.826zm15.333-.533c1.062-.584 1.045-.574 1.045-.649 0-.073-.559-1.062-2.458-4.347-2.087-3.611-3.01-5.202-3.618-6.263-.602-1.046-.745-1.241-1-1.373-.203-.104-.529-.12-.739-.037-.2.079-.906.49-1.093.636-.299.234-.413.697-.26 1.062.082.197.026.099 2 3.508 3.109 5.367 4.706 8.07 4.805 8.139.024.017.139-.023.254-.088.115-.065.595-.33 1.066-.589m-7.678-6.176c.495-.826.568-.97.598-1.192.063-.459-.179-.767-.943-1.201-.433-.246-.504-.272-.757-.287-.347-.019-.518.053-.757.322-.179.201-.871 1.434-.87 1.548 0 .041.431.33 1.139.764.626.384 1.151.699 1.167.7.015.0001.207-.294.423-.656" fill-opacity=".698"/></g></svg>