<svg xmlns="http://www.w3.org/2000/svg" xmlns:xlink="http://www.w3.org/1999/xlink" viewBox="0 0 48 48"><defs><path d="m22 3h27v15h-27z" id="0"/><linearGradient id="1" gradientUnits="userSpaceOnUse" y1="547.44" x2="0" y2="513.98"><stop stop-color="#197cf1"/><stop stop-color="#20bcfa" offset="1"/></linearGradient></defs><g transform="translate(-407.14-485.16)"><flowRoot font-size="10" line-height="125%" text-align="start" word-spacing="0" letter-spacing="0" transform="translate(389.57 520.8)" font-family="sans-serif"><flowRegion><use xlink:href="#0" width="48" height="48"/></flowRegion><flowPara>Plasm</flowPara></flowRoot><g transform="matrix(1.57636 0 0 1.57636-222.96-314.39)"><g transform="matrix(.65763 0 0 .65763 179.92 173.5)" fill="url(#1)"><rect rx="1.644" width="46.3" height="34.939" x="334.23" y="513.13"/><flowRoot font-size="10" letter-spacing="0" line-height="125%" word-spacing="0" text-align="start" transform="matrix(1.52062 0 0 1.52062 386.51 514.7)" font-family="sans-serif"><flowRegion><use xlink:href="#0" width="48" height="48"/></flowRegion><flowPara>Plasm</flowPara></flowRoot></g><flowRoot font-size="10" line-height="125%" text-align="start" word-spacing="0" letter-spacing="0" transform="translate(352.74 519.84)" font-family="sans-serif"><flowRegion><use xlink:href="#0" width="48" height="48"/></flowRegion><flowPara>Plasm</flowPara></flowRoot></g></g><g transform="matrix(.18603 0 0 .18603 15.05 13)" fill="#ddeefd"><path d="M 86.07,0 C 61.468,0 56.85,35.04 70.693,35.04 84.531,35.04 110.673,0 86.07,0"/><path d="m45.22 30.699c7.369.45 15.454-28.12 1.604-26.325-13.845 1.797-8.976 25.875-1.604 26.325"/><path d="m11.445 48.45c5.241-2.307.675-24.872-8.237-18.718-8.908 6.155 2.996 21.02 8.237 18.718"/><path d="m26.21 36.642c6.239-1.272 6.581-26.864-4.545-22.273-11.128 4.592-1.689 23.547 4.545 22.273"/><path d="m58.791 93.91c1.107 8.454-6.202 12.629-13.36 7.179-22.787-17.349 37.729-26 33.74-49.706-3.311-19.674-63.68-13.617-70.55 17.17-4.653 20.821 19.15 49.707 43.993 49.707 12.22 0 26.315-11.03 28.952-25.01 2.01-10.659-23.699-6.388-22.775.665"/></g></svg>