<svg xmlns="http://www.w3.org/2000/svg" viewBox="0 0 48 48"><path d="m59.65-13.406c-.173.155-.428.163-.613.023l-6.103-4.644-2.891 17.297c-.011.066-.034.125-.068.18-.58 2.48-3.744 4.328-7.465 4.328-4.171 0-7.565-2.31-7.565-5.149 0-2.84 3.393-5.15 7.565-5.15 1.713 0 3.341.383 4.665 1.086l3.824-21.691c.034-.198.189-.356.39-.393.194-.034.397.055.5.23l7.855 13.276c.119.202.079.453-.095.608" fill="#fff" fill-opacity=".337" transform="matrix(1.21388 0 0 1.21388-33.501 38.422)" enable-background="new"/></svg>