<svg xmlns="http://www.w3.org/2000/svg" viewBox="0 0 48 48"><defs><linearGradient id="3" x1="360.17" y1="541" x2="358.77" y2="527" gradientUnits="userSpaceOnUse"><stop stop-color="#dce2ff"/><stop offset="1" stop-color="#f8feff"/></linearGradient><linearGradient id="4" x1="350.48" y1="557.8" x2="347.89" y2="531.9" gradientUnits="userSpaceOnUse"><stop stop-color="#eb4646"/><stop offset="1" stop-color="#ff8651"/></linearGradient><linearGradient id="2" y1="537.36" x2="0" y2="531.01" gradientUnits="userSpaceOnUse"><stop stop-color="#161719"/><stop offset="1" stop-color="#424649"/></linearGradient><linearGradient id="0" x1="372.58" y1="557.8" x2="369.99" y2="531.9" gradientUnits="userSpaceOnUse"><stop stop-color="#0976da"/><stop offset="1" stop-color="#5de5f0"/></linearGradient><linearGradient id="1" x1="361.53" y1="536.43" x2="358.94" y2="510.53" gradientUnits="userSpaceOnUse"><stop stop-color="#4fd127"/><stop offset="1" stop-color="#c6f61a"/></linearGradient></defs><g transform="translate(-334.57-509.8)"><circle r="12.948" cy="523.11" cx="358.57" fill="url(#1)"/><circle r="12.948" cy="544.48" cx="347.52" fill="url(#4)"/><circle r="12.948" cy="544.48" cx="369.62" fill="url(#0)"/><circle cx="358.57" cy="533.8" r="7" fill="url(#3)"/><path d="m358.41 529.89l-2.196 3.831c-.462.81-.497 1.84 0 2.707.747 1.304 2.41 1.754 3.714 1.01 1.304-.747 1.754-2.41 1.01-3.714l-2.196-3.831c-.073-.127-.255-.127-.328 0" fill="url(#2)"/></g></svg>