<?xml version="1.0" encoding="UTF-8" standalone="no"?>
<svg
   xmlns:dc="http://purl.org/dc/elements/1.1/"
   xmlns:cc="http://creativecommons.org/ns#"
   xmlns:rdf="http://www.w3.org/1999/02/22-rdf-syntax-ns#"
   xmlns:svg="http://www.w3.org/2000/svg"
   xmlns="http://www.w3.org/2000/svg"
   xmlns:sodipodi="http://sodipodi.sourceforge.net/DTD/sodipodi-0.dtd"
   xmlns:inkscape="http://www.inkscape.org/namespaces/inkscape"
   height="48"
   width="48"
   version="1.1"
   id="svg37"
   sodipodi:docname="com.github.lainsce.notejot.svg"
   inkscape:version="0.92.3 (2405546, 2018-03-11)">
  <metadata
     id="metadata43">
    <rdf:RDF>
      <cc:Work
         rdf:about="">
        <dc:format>image/svg+xml</dc:format>
        <dc:type
           rdf:resource="http://purl.org/dc/dcmitype/StillImage" />
        <dc:title></dc:title>
      </cc:Work>
    </rdf:RDF>
  </metadata>
  <defs
     id="defs41" />
  <sodipodi:namedview
     pagecolor="#ffffff"
     bordercolor="#666666"
     borderopacity="1"
     objecttolerance="10"
     gridtolerance="10"
     guidetolerance="10"
     inkscape:pageopacity="0"
     inkscape:pageshadow="2"
     inkscape:window-width="768"
     inkscape:window-height="480"
     id="namedview39"
     showgrid="false"
     inkscape:zoom="4.9166667"
     inkscape:cx="24"
     inkscape:cy="24"
     inkscape:window-x="285"
     inkscape:window-y="151"
     inkscape:window-maximized="0"
     inkscape:current-layer="svg37" />
  <linearGradient
     id="a"
     gradientUnits="userSpaceOnUse"
     x1="35.972490636906"
     x2="43.794485054683"
     y1="36.729760737215"
     y2="43.933184575808">
    <stop
       offset="0"
       stop-color="#f0a23a"
       id="stop2" />
    <stop
       offset="1"
       stop-color="#fde46a"
       id="stop4" />
  </linearGradient>
  <linearGradient
     id="b"
     gradientUnits="userSpaceOnUse"
     x1="35.80694272787"
     x2="37.29021438335"
     y1="39.864843400061"
     y2="25.025537997461">
    <stop
       offset="0"
       stop-color="#fed45b"
       id="stop7" />
    <stop
       offset="1"
       stop-color="#ffcc54"
       id="stop9" />
  </linearGradient>
  <linearGradient
     id="c"
     gradientUnits="userSpaceOnUse"
     x1="2.331769605644"
     x2="45.667834115549"
     y1="23.511112861048"
     y2="23.511112861048">
    <stop
       offset="0"
       stop-color="#ffee97"
       id="stop12" />
    <stop
       offset="1"
       stop-color="#ffe76b"
       id="stop14" />
  </linearGradient>
  <path
     d="m4.2873204 2.9777778c-1.0833778 0-1.9555556.8721778-1.9555556 1.9555555v.026736 39.0576387.02674c0 1.083374.8721778 1.955552 1.9555556 1.955552h39.1111116c1.083377 0 1.955555-.872178 1.955555-1.955556.249046-13.570226-.383787-25.554702-.383787-39.0843745.000007-1.0979008-.20079-1.9822917-1.298691-1.9822917h-.27309z"
     fill-opacity=".666667"
     id="path17" />
  <path
     d="m4.2873203 2h39.1111097c1.083378 0 1.955555.8721778 1.955555 1.9555556v39.1111094c0 1.083378-.872177 1.955556-1.955555 1.955556h-39.1111097c-1.0833778 0-1.9555556-.872178-1.9555556-1.955556v-39.1111094c0-1.0833778.8721778-1.9555556 1.9555556-1.9555556z"
     fill="url(#a)"
     id="path19" />
  <path
     d="m4.3140565 2c-1.0979008 0-1.9822917.884391-1.9822917 1.9822917v39.0576383c0 1.097901.8843909 1.982292 1.9822917 1.982292h18.0831595c15.217331-1.100459 23.173758-8.998305 23.252778-23.965104.0069-.152402.01024-.303637.01146-.454513-.000374-.0679.0045-.130428.0038-.198612-.0019.01091-.0038.02156-.0057.03247-.001-.166378.0024-.334119-.0057-.498438v-15.9557333c-.00004-1.0979008-.884431-1.9822917-1.982332-1.9822917z"
     fill="url(#c)"
     id="path21" />
  <path
     d="m22.397194 45.022222c7.082158-1.763948 10.262001-5.535669 13.016592-10.934729 7.313974-2.123707 9.183364-7.652642 10.252186-13.682852.156716 15.400467-7.826599 23.500861-23.268778 24.617581z"
     fill="url(#b)"
     fill-rule="evenodd"
     opacity=".9"
     stroke-width="1.220157"
     id="path23" />
  <g
     fill-opacity=".313725"
     id="g31">
    <path
       d="m6.9716954 12.867262h34.0566096c.627537 0 1.132738.505201 1.132738 1.132738 0 .627538-.505201 1.132739-1.132738 1.132739h-34.0566096c-.6275372 0-1.1327386-.505201-1.1327386-1.132739 0-.627537.5052014-1.132738 1.1327386-1.132738z"
       id="path25" />
    <path
       d="m6.9716954 16.86726h34.0566096c.627537 0 1.132738.505201 1.132738 1.132739 0 .627537-.505201 1.132738-1.132738 1.132738h-34.0566096c-.6275372 0-1.1327386-.505201-1.1327386-1.132738 0-.627538.5052014-1.132739 1.1327386-1.132739z"
       id="path27" />
    <path
       d="m6.9716954 20.86726h34.0566096c.627537 0 1.132738.505201 1.132738 1.132739 0 .627537-.505201 1.132738-1.132738 1.132738h-34.0566096c-.6275372 0-1.1327386-.505201-1.1327386-1.132738 0-.627538.5052014-1.132739 1.1327386-1.132739z"
       id="path29" />
  </g>
  <path
     d="m4.3140565 2c-1.0979008 0-1.9556135.8847152-1.9822917 1.9822917l-.0976563 4.0177083c43.4311455-.016235 0 0 43.4311455-.016235-.0019.01091-.0038.02156-.0057.03247-.01234-5.4396002-.0057 1.4399367-.0057-4.0339433-.00004-1.0979008-.884431-1.9822917-1.982332-1.9822917z"
     fill-opacity=".078431"
     id="path33" />
  <path
     d="m6.9716954 24.86726h19.7625556c.627537 0 1.132738.505201 1.132738 1.132739 0 .627537-.505201 1.132738-1.132738 1.132738h-19.7625556c-.6275372 0-1.1327386-.505201-1.1327386-1.132738 0-.627538.5052014-1.132739 1.1327386-1.132739z"
     fill-opacity=".313725"
     id="path35" />
</svg>
