<svg xmlns="http://www.w3.org/2000/svg" viewBox="0 0 48 48"><defs><linearGradient id="0" y1="21.12" x2="0" y2="-24.875" gradientUnits="userSpaceOnUse"><stop stop-color="#97a9b1"/><stop offset="1" stop-color="#cfdce1"/></linearGradient></defs><g transform="matrix(.99999 0 0 .99999-38.37 25.882)" enable-background="new"><g transform="matrix(1.04348 0 0 1.04348 2.505.082)"><rect width="46" height="46" x="34.375" y="-24.875" fill="url(#0)" rx="23"/><g fill="#4f575a"><path d="m70.31-7.586c-.209-.164-.472-.262-.757-.262-.672 0-1.219.542-1.236 1.217-.694.263-1.187.94-1.187 1.733 0 .937.689 1.711 1.582 1.833v.017h6.329v-.003c.882-.052 1.582-.792 1.582-1.697 0-.873-.651-1.592-1.489-1.689.004-.053.005-.107.005-.161 0-1.353-1.129-2.45-2.522-2.45-1.031 0-1.917.601-2.308 1.462"/><path d="m51.628-19.358q1.699 0 2.86 1.171 1.161 1.171 1.161 2.829 0 .933-.404 1.544-.394.611-1.15.611-.777 0-1.161-.756-.508.756-1.451.756-.85 0-1.43-.591-.58-.601-.58-1.523 0-.912.58-1.513.58-.601 1.389-.601.798 0 1.326.611h.041v-.466h.746v2.705q0 .269.145.487.155.218.466.218.736 0 .736-1.482 0-1.368-.953-2.311-.953-.943-2.321-.943-1.368 0-2.321.943-.953.943-.953 2.311 0 1.368.953 2.311.953.943 2.321.943.736 0 1.316-.29l.29.705q-.725.332-1.606.332-1.72 0-2.891-1.161-1.171-1.171-1.171-2.839 0-1.658 1.171-2.829 1.181-1.171 2.891-1.171m-.964 5.01q.373.363.891.363.518 0 .881-.363.373-.363.373-.964 0-.601-.373-.964-.363-.363-.881-.363-.518 0-.891.363-.363.363-.363.964 0 .601.363.964"/><path d="m62.903-19.09c-.295.083-.533.415-.533.738v5.113c-.299-.165-.684-.232-1.082-.123-.719.197-1.169.834-1.015 1.423.154.589.862.918 1.581.72.574-.157.969-.602 1.032-1.072l.017-4.832 3.729-1.054v3.812c-.299-.165-.684-.232-1.082-.123-.719.197-1.169.834-1.015 1.423.154.589.862.918 1.581.72.574-.157.969-.602 1.032-1.072l.017-6.29c0-.242-.142-.423-.333-.457l-3.928 1.072"/><path d="m47.03-5.752l-1.34-1.34c-.128-.127-.088-.264.088-.303 0 0 .145-.033.324-.212.384-.384.384-1.01 0-1.391-.384-.384-1.01-.384-1.391 0-.179.179-.211.324-.211.324-.04.176-.176.216-.303.088l-1.34-1.339c-.127-.128-.336-.128-.464 0l-1.339 1.339c-.127.128-.088.264.088.304 0 0 .145.033.324.211.384.384.384 1.01 0 1.391-.384.384-1.01.384-1.391 0-.179-.179-.211-.324-.211-.324-.039-.176-.176-.215-.304-.088l-1.339 1.34c-.127.127-.127.336 0 .463l1.339 1.34c.127.127.088.264-.088.304 0 0-.145.033-.324.212-.384.384-.384 1.01 0 1.391.384.384 1.01.384 1.391 0 .179-.179.211-.324.211-.324.04-.176.176-.216.303-.088l1.34 1.339c.127.128.336.128.464 0l1.34-1.339c.127-.127.088-.264-.088-.304 0 0-.146-.033-.324-.211-.384-.384-.384-1.01 0-1.391.384-.384 1.01-.384 1.391 0 .179.179.211.324.211.324.04.176.176.216.304.088l1.34-1.34c.127-.127.127-.336 0-.463"/></g></g><path d="m127.59 2.959c-.019-.169-.216-.295-.386-.295-.55 0-1.038-.323-1.242-.822-.209-.511-.074-1.108.336-1.484.129-.118.145-.315.037-.452-.281-.357-.601-.68-.951-.96-.137-.11-.337-.094-.456.037-.358.396-1 .543-1.496.336-.517-.217-.842-.741-.81-1.303.001-.176-.118-.33-.294-.35-.448-.052-.9-.053-1.35-.004-.174.019-.303.169-.297.343.02.556-.31 1.071-.822 1.28-.49.2-1.128.054-1.485-.338-.118-.129-.315-.145-.453-.038-.36.282-.687.605-.971.96-.111.138-.094.337.036.456.418.378.552.98.335 1.497-.207.493-.719.811-1.306.811-.19-.006-.326.122-.347.295-.053.451-.053.91-.003 1.365.019.169.221.295.393.295.522-.013 1.024.31 1.235.822.21.511.075 1.107-.335 1.484-.128.118-.145.315-.037.452.279.355.599.678.949.96.137.111.338.095.457-.036.359-.397 1-.544 1.496-.336.518.217.844.74.812 1.302-.001.177.119.33.294.35.229.027.46.04.691.04.22 0 .439-.012.659-.036.174-.019.303-.169.297-.344-.02-.556.31-1.07.821-1.279.494-.202 1.129-.054 1.486.338.119.129.315.145.453.038.359-.281.685-.604.971-.96.111-.137.095-.338-.036-.456-.418-.378-.553-.98-.336-1.497.204-.487.697-.813 1.227-.813l.074.002c.172.014.33-.119.351-.294.053-.451.053-.91.003-1.365m-5.953 2.68c-1.104 0-2-.898-2-2 0-1.104.898-2 2-2 1.104 0 2 .898 2 2 0 1.104-.898 2-2 2" fill-rule="evenodd" fill-opacity=".538" stroke-width="1.317" transform="matrix(.99999 0 0 .99999-59.25-5.503)"/></g></svg>