<svg xmlns="http://www.w3.org/2000/svg" viewBox="0 0 48 48"><defs><linearGradient id="0" y1="546.29" x2="0" y2="501.51" gradientUnits="userSpaceOnUse"><stop stop-color="#197cf1"/><stop offset="1" stop-color="#20bcfa"/></linearGradient></defs><g transform="translate(0-1004.36)"><circle cx="407.82" cy="523.9" r="22.389" fill="url(#0)" transform="matrix(1.07196 0 0 1.07196-413.17 466.76)"/><g fill="#fff" fill-opacity=".853" transform="matrix(.40994 0 0 .40994 3 1007.36)"><path d="m61.977 17.16l-13.7 13.699c-.789.79-2.074.79-2.866 0l-.197-.202v-10.09c-16.543 1.156-29.65 14.975-29.65 31.806 0 11.82 6.487 22.617 16.937 28.17 2.631 1.402 3.631 4.671 2.233 7.31-1.403 2.635-4.671 3.634-7.306 2.231-13.983-7.44-22.67-21.889-22.67-37.716 0-22.792 17.953-41.47 40.457-42.641v-8.941l.197-.199c.792-.79 2.077-.79 2.866 0l13.699 13.696c.794.794.794 2.08 0 2.867"/><path d="m54.17 101.86l-13.697-13.695c-.792-.79-.792-2.074 0-2.864l13.697-13.695c.791-.794 2.074-.794 2.868 0l.191.198.007 10.08c16.536-1.154 29.65-14.969 29.65-31.803 0-11.82-6.491-22.614-16.939-28.18-2.635-1.4-3.635-4.675-2.234-7.31 1.406-2.635 4.678-3.634 7.312-2.231 13.979 7.44 22.669 21.892 22.669 37.716 0 22.794-17.953 41.469-40.457 42.636v8.942l-.198.198c-.795.792-2.078.792-2.869.0001"/></g></g></svg>