<svg xmlns="http://www.w3.org/2000/svg" viewBox="0 0 48 48"><defs><linearGradient id="0" x1="-1092.91" y1="203.1" x2="-1060.26" y2="104.85" gradientUnits="userSpaceOnUse" gradientTransform="matrix(.35533 0 0 .34923 314.86-49.68)"><stop stop-color="#f2b333"/><stop offset="1" stop-color="#fcde3f"/></linearGradient><linearGradient id="1" x1="-50.952" y1="41.34" x2="-55.927" y2=".059" gradientUnits="userSpaceOnUse"><stop stop-color="#1584d8"/><stop offset="1" stop-color="#1cb2ff"/></linearGradient></defs><g transform="matrix(.99999 0 0 .99999-38.37 25.882)" enable-background="new"><g transform="translate(114.67-29.982)"><rect width="31.896" height="40.04" x="-76.19" y="-10.375" transform="matrix(.94958-.31353.30858.9512 0 0)" fill="url(#0)" rx=".977"/><rect width="35.547" height="43.77" x="-70.905" y="-.317" transform="matrix(.99188-.12716.13593.99072 0 0)" fill="url(#1)" rx="1.068"/></g><path d="m7.405 4.914c-.52.914-.791.914-.271 1.829l3.191 5.616-1.855 3.226c-.401-.376-.934-.611-1.526-.611-1.248 0-2.253 1.02-2.253 2.286 0 1.267 1 2.286 2.253 2.286 1.248 0 2.253-1.02 2.253-2.286 0-.153-.016-.302-.044-.447l1.047-1.841c.703-.009.792-.708 1.202-.718l1.445 2.543c-.03.149-.046.304-.046.463 0 1.267 1 2.286 2.253 2.286 1.248 0 2.253-1.02 2.253-2.286 0-1.267-1-2.286-2.253-2.286-.589 0-1.119.233-1.519.605l-1.852-3.22 3.191-5.616c.52-.914.249-.914-.271-1.829l-3.6 6.262-3.6-6.262m3.595 7.316c.25 0 .451.204.451.457 0 .253-.201.457-.451.457-.25 0-.451-.204-.451-.457 0-.253.201-.457.451-.457zm-4.056 3.658c.749 0 1.352.612 1.352 1.372 0 .76-.603 1.372-1.352 1.372-.749 0-1.352-.612-1.352-1.372 0-.76.603-1.372 1.352-1.372zm8.112 0c.749 0 1.352.612 1.352 1.372 0 .76-.603 1.372-1.352 1.372-.749 0-1.352-.612-1.352-1.372 0-.76.603-1.372 1.352-1.372z" mix-blend-mode="normal" solid-color="#000000" white-space="normal" color-interpolation-filters="linearRGB" color="#000" image-rendering="auto" color-rendering="auto" stroke-width=".584" isolation="auto" color-interpolation="sRGB" solid-opacity="1" shape-rendering="auto" transform="matrix(-1.70691.11739-.11739-1.70691 85.35 18.61)" fill="#dceffb" stroke="#ddeffb" stroke-linejoin="round" stroke-linecap="round"/></g></svg>