<svg xmlns="http://www.w3.org/2000/svg" xmlns:xlink="http://www.w3.org/1999/xlink" viewBox="0 0 48 48"><defs><linearGradient xlink:href="#0" id="3" gradientUnits="userSpaceOnUse" y1="555.3" x2="0" y2="507.3"/><linearGradient xlink:href="#0" id="4" gradientUnits="userSpaceOnUse" y1="555.64" x2="0" y2="507.64"/><linearGradient xlink:href="#0" id="2" x1="367.68" x2="414.68" gradientUnits="userSpaceOnUse"/><linearGradient id="0"><stop stop-color="#197cf1"/><stop offset="1" stop-color="#21c9fb"/></linearGradient><linearGradient id="1" y1="555.3" x2="0" y2="507.3" gradientUnits="userSpaceOnUse"><stop stop-color="#333"/><stop offset="1" stop-color="#515151"/></linearGradient></defs><g transform="matrix(1.02134 0 0 1.02134-320.08-516.56)"><circle r="22.498" cy="531.73" cx="391.21" fill="url(#3)" stroke="url(#4)" stroke-linejoin="round" stroke-linecap="round" stroke-width="2" transform="translate(-54.29-2.37)"/><g transform="matrix(.67095 0 0 .67095 60.893 177.25)" fill="#d2edfd" fill-rule="evenodd"><path d="m428.57 503.8l-10 20 5 1zm-34 14l-9 8 10-4 7 22 5-3 23 2-8-15-4-1-13 9-7-17z"/><path d="m403.57 527.8l3 5 11-6-8-2z"/><path d="m394.57 517.8l-1.42 4.967 2.42-.967-1-4"/><path d="m405.42 535.44l-1.779 7.717 3.928-2.357.146.014-1.859-5.211-.287.197-.148-.359"/><path d="m409.57 524.8l-6 3 3 5 .408-.223 2.592-7.777"/><path d="m418.57 526.8l-4.684 3.242 16.641 12.678-7.957-14.92-4-1"/></g></g></svg>