<svg xmlns="http://www.w3.org/2000/svg" viewBox="0 0 48 48"><defs><linearGradient id="0" gradientUnits="userSpaceOnUse" y1="7.369" x2="0" y2="-41.43"><stop stop-color="#ff9300"/><stop offset="1" stop-color="#ffd702"/></linearGradient></defs><g transform="matrix(.99999 0 0 .99999 6.629 40.882)" enable-background="new"><circle r="24" cy="-16.875" cx="17.375" fill="url(#0)"/><g fill-opacity=".75"><path d="m19.306-24.53c-.282-2.796-2.735-5.198-5.341-5.198-2.662 0-5.109.921-7.06 2.451-.517-.016-1.108.041-1.725.189-1.737.415-3 1.357-2.823 2.104.118.495.844.774 1.819.79-1.05 1.73-1.666 3.751-1.666 5.918 0 4.196 2.277 7.855 5.652 9.846-.336.364-.645.874-.861 1.484-.48 1.355-.318 2.646.359 2.885.677.24 1.613-.664 2.093-2.02.102-.292.17-.579.215-.855.266.088.551.162.857.206 1.422.205 2.657-.205 2.76-.916.102-.71-.966-1.454-2.389-1.659-.609-.088-1.179-.058-1.645.056-.021-.074-.858-1.596-.931-2.777-.094-1.537.364-3.055 1.361-4.227.39-.456.859-.823 1.359-1.135-.09 1.204.189 2.143.757 2.285.745.187 1.701-1.068 2.135-2.799.037-.149.064-.295.091-.441l.396-.069c2.811-.597 4.881-3.182 4.584-6.12"/><path d="m15.443-9.22c.282 2.796 2.735 5.198 5.341 5.198 2.662 0 5.109-.921 7.06-2.451.518.016 1.108-.041 1.726-.188 1.737-.415 3-1.358 2.823-2.105-.118-.495-.844-.774-1.819-.79 1.05-1.73 1.666-3.75 1.666-5.917 0-4.196-2.277-7.855-5.652-9.846.336-.364.646-.874.861-1.484.479-1.355.318-2.646-.359-2.885-.677-.24-1.613.664-2.093 2.02-.102.292-.17.579-.215.854-.266-.088-.551-.162-.857-.206-1.422-.205-2.657.205-2.76.916-.102.71.966 1.454 2.389 1.659.609.088 1.179.058 1.646-.056.021.074.858 1.596.931 2.777.094 1.537-.364 3.055-1.361 4.227-.39.457-.858.825-1.358 1.137.09-1.204-.188-2.143-.757-2.285-.745-.186-1.701 1.068-2.135 2.799-.037.149-.064.295-.091.441l-.396.069c-2.815.595-4.884 3.181-4.587 6.118"/></g></g></svg>