<svg xmlns="http://www.w3.org/2000/svg" viewBox="0 0 48 48"><defs><linearGradient id="0" y1="536.64" x2="0" y2="515.74" gradientUnits="userSpaceOnUse"><stop stop-color="#197ff1"/><stop offset="1" stop-color="#21c6fb"/></linearGradient><linearGradient id="1" y1="532.29" x2="0" y2="510.68" gradientUnits="userSpaceOnUse"><stop stop-color="#ff9300"/><stop offset="1" stop-color="#ffd702"/></linearGradient><linearGradient id="2" y1="547.8" x2="0" y2="499.8" gradientUnits="userSpaceOnUse"><stop stop-color="#e7e7e7"/><stop offset="1" stop-color="#fcfcfc"/></linearGradient></defs><g transform="translate(-384.57-499.8)"><rect y="499.8" x="384.57" height="48" width="48" fill="url(#2)" rx="24"/><g transform="matrix(1.24675 0 0 1.24675-100.82-129.25)"><path d="m409.69 510.96c14.08 17.11 10.187 23.849-11.67 20.21 14.67-.514 18.561-7.251 11.67-20.21" fill="url(#1)"/><path d="m408.72 515.46c-10.389.175-12.265 5.25-5.689 15.22.62-.108 1.213-.223 1.775-.365-2.513-8.837 2.259-13.485 14.32-13.907-4.098-.682-7.571-.996-10.406-.948m-4.838 16.484c1.027 1.465 2.208 3.03 3.574 4.692-.861-1.62-1.566-3.145-2.091-4.571-.479-.029-.977-.077-1.483-.122" fill="url(#0)"/></g></g></svg>