<svg xmlns="http://www.w3.org/2000/svg" viewBox="0 0 48 48"><defs><linearGradient id="3" y1="923.15" x2="0" y2="859.58" gradientUnits="userSpaceOnUse"><stop stop-color="#eb4646"/><stop offset="1" stop-color="#ff8651"/></linearGradient><linearGradient id="2" y1="547.8" x2="0" y2="499.8" gradientUnits="userSpaceOnUse"><stop stop-color="#e7e7e7"/><stop offset="1" stop-color="#fcfcfc"/></linearGradient><linearGradient id="0" y1="536.64" x2="0" y2="515.74" gradientUnits="userSpaceOnUse"><stop stop-color="#197ff1"/><stop offset="1" stop-color="#21c6fb"/></linearGradient><linearGradient id="1" y1="532.29" x2="0" y2="510.68" gradientUnits="userSpaceOnUse"><stop stop-color="#ff9300"/><stop offset="1" stop-color="#ffd702"/></linearGradient></defs><g transform="translate(-384.57-499.8)"><rect y="499.8" x="384.57" height="48" width="48" fill="url(#2)" rx="24"/><g transform="matrix(1.24675 0 0 1.24675-100.82-129.25)"><path d="m409.69 510.96c14.08 17.11 10.187 23.849-11.67 20.21 14.67-.514 18.561-7.251 11.67-20.21" fill="url(#1)"/><path d="m408.72 515.46c-10.389.175-12.265 5.25-5.689 15.22.62-.108 1.213-.223 1.775-.365-2.513-8.837 2.259-13.485 14.32-13.907-4.098-.682-7.571-.996-10.406-.948m-4.838 16.484c1.027 1.465 2.208 3.03 3.574 4.692-.861-1.62-1.566-3.145-2.091-4.571-.479-.029-.977-.077-1.483-.122" fill="url(#0)"/></g><circle r="35.59" cx="153.76" cy="892.17" transform="matrix(.28097 0 0 .28097 379.2 287.02)" fill="url(#3)"/><path d="m419.61 532.54c-.739-1.124-2.618.112-1.606 1.317.98 1.14 1.959 2.377 2.971 3.646l-3.228 4.095c-.915 1.092.899 2.409 1.718 1.237l2.907-3.87 2.955 3.79c.867 1.188 2.634.032 1.751-1.172l-3.276-4.079c.964-1.269 1.975-2.505 2.939-3.646.915-1.044-.707-2.441-1.542-1.349l-2.794 3.501-2.794-3.469" fill="#fef5f4"/></g></svg>