<svg xmlns="http://www.w3.org/2000/svg" viewBox="0 0 48 48"><defs><linearGradient gradientUnits="userSpaceOnUse" y2="-30.891" x2="-49.554" y1="-5.178" x1="-48.953" id="0"><stop stop-color="#566069"/><stop offset="1" stop-color="#6c7884"/></linearGradient><linearGradient gradientUnits="userSpaceOnUse" y2="-4.937" x2="42.36" y1="15.429" x1="43.691" id="1"><stop stop-color="#d5dbff"/><stop offset="1" stop-color="#f9ffff"/></linearGradient><linearGradient gradientUnits="userSpaceOnUse" y2="-26.783" x2="-56.38" y1="3.509" x1="-56.27" id="2"><stop stop-color="#197ff1"/><stop offset="1" stop-color="#21c6fb"/></linearGradient></defs><g transform="matrix(.99999 0 0 .99999-32.681 29.512)" enable-background="new"><rect transform="matrix(-.99998-.00628-.00628.99998 0 0)" y="-28.46" x="-76.55" height="31.2" width="40.627" fill="url(#0)" rx="1.217"/><rect y="-27.351" x="-77.26" height="31.2" width="40.627" transform="matrix(-.98432-.17638-.17638.98432 0 0)" fill="url(#2)" rx="1.217"/><path d="M43.005-5.0361A10.466615 10.466615 0 0 0 32.683 5.57425 10.466615 10.466615 0 0 0 43.29335 15.893999 10.466615 10.466615 0 0 0 53.61535 5.2859 10.466615 10.466615 0 0 0 43.005 -5.0361m-3.082 6.091l7.709 4.244-7.529 4.555-.18-8.799z" fill="url(#1)"/></g></svg>