<svg xmlns="http://www.w3.org/2000/svg" viewBox="0 0 48 48"><defs><linearGradient id="0" gradientUnits="userSpaceOnUse" gradientTransform="matrix(.49433 0 0 .4778 125.02-12.773)" x1="-123.97" y1="73.5" x2="-125.19" y2="-26.05"><stop stop-color="#212121"/><stop offset="1" stop-color="#3f3f41"/></linearGradient><linearGradient gradientUnits="userSpaceOnUse" y2="45.944" x2="24.687" y1=".995" x1="24.534" id="1"><stop stop-color="#69ec3e"/><stop offset="1" stop-color="#2ca815"/></linearGradient></defs><path d="m41.36-25.875h42.04c1.652 0 2.982 1.33 2.982 2.982v42.04c0 1.652-1.33 2.982-2.982 2.982h-42.04c-1.652 0-2.982-1.33-2.982-2.982v-42.04c0-1.652 1.33-2.982 2.982-2.982" transform="matrix(.99999 0 0 .99999-38.38 25.875)" fill="url(#0)" fill-rule="evenodd"/><path d="m8.416 13.333h12.918v-5.333h5.333v5.333h12.918v5.333h-12.918v5.333h5.333v16h-5.333v-10.667h-5.333v10.667h-5.333v-16h5.333v-5.333h-12.918" fill="url(#1)"/></svg>