<?xml version="1.0" encoding="UTF-8" standalone="no"?>
<svg
   xmlns:dc="http://purl.org/dc/elements/1.1/"
   xmlns:cc="http://creativecommons.org/ns#"
   xmlns:rdf="http://www.w3.org/1999/02/22-rdf-syntax-ns#"
   xmlns:svg="http://www.w3.org/2000/svg"
   xmlns="http://www.w3.org/2000/svg"
   xmlns:sodipodi="http://sodipodi.sourceforge.net/DTD/sodipodi-0.dtd"
   xmlns:inkscape="http://www.inkscape.org/namespaces/inkscape"
   viewBox="0 0 48 48"
   version="1.1"
   id="svg71"
   sodipodi:docname="com.deepin.Picker.svg"
   inkscape:version="0.92.2pre0 (973e216, 2017-07-25)">
  <metadata
     id="metadata75">
    <rdf:RDF>
      <cc:Work
         rdf:about="">
        <dc:format>image/svg+xml</dc:format>
        <dc:type
           rdf:resource="http://purl.org/dc/dcmitype/StillImage" />
      </cc:Work>
    </rdf:RDF>
  </metadata>
  <sodipodi:namedview
     pagecolor="#ffffff"
     bordercolor="#666666"
     borderopacity="1"
     objecttolerance="10"
     gridtolerance="10"
     guidetolerance="10"
     inkscape:pageopacity="0"
     inkscape:pageshadow="2"
     inkscape:window-width="1366"
     inkscape:window-height="701"
     id="namedview73"
     showgrid="false"
     inkscape:zoom="4.9166667"
     inkscape:cx="24"
     inkscape:cy="24"
     inkscape:window-x="0"
     inkscape:window-y="0"
     inkscape:window-maximized="1"
     inkscape:current-layer="g69" />
  <defs
     id="defs47">
    <linearGradient
       id="8"
       y1="541.16"
       x2="0"
       y2="533.06"
       gradientUnits="userSpaceOnUse">
      <stop
         stop-color="#0976da"
         id="stop2" />
      <stop
         offset="1"
         stop-color="#5de5f0"
         id="stop4" />
    </linearGradient>
    <linearGradient
       id="5"
       x1="400.62"
       y1="530.78"
       x2="400.45"
       y2="519.87"
       gradientUnits="userSpaceOnUse">
      <stop
         stop-color="#eb4646"
         id="stop7" />
      <stop
         offset="1"
         stop-color="#ff8651"
         id="stop9" />
    </linearGradient>
    <linearGradient
       id="7"
       x1="405.15"
       y1="540.41"
       x2="404.17"
       y2="532.99"
       gradientUnits="userSpaceOnUse">
      <stop
         stop-color="#4fd127"
         id="stop12" />
      <stop
         offset="1"
         stop-color="#c6f61a"
         id="stop14" />
    </linearGradient>
    <linearGradient
       id="6"
       x1="403.66"
       y1="545.75"
       x2="402.65"
       y2="517.44"
       gradientUnits="userSpaceOnUse">
      <stop
         stop-color="#dce2ff"
         id="stop17" />
      <stop
         offset="1"
         stop-color="#f8feff"
         id="stop19" />
    </linearGradient>
    <linearGradient
       id="4"
       x1="406.49"
       y1="534.79"
       x2="406.62"
       y2="528.59"
       gradientUnits="userSpaceOnUse">
      <stop
         stop-color="#ffbc00"
         id="stop22" />
      <stop
         offset="1"
         stop-color="#ffec00"
         id="stop24" />
    </linearGradient>
    <linearGradient
       id="3"
       x1="394.52"
       y1="535.15"
       x2="394.27"
       y2="528.97"
       gradientUnits="userSpaceOnUse">
      <stop
         stop-color="#947ecb"
         id="stop27" />
      <stop
         offset="1"
         stop-color="#cab5ff"
         id="stop29" />
    </linearGradient>
    <linearGradient
       id="0"
       x1="405.3"
       y1="530.91"
       x2="405.25"
       y2="523.04"
       gradientUnits="userSpaceOnUse">
      <stop
         stop-color="#fc6e51"
         id="stop32" />
      <stop
         offset="1"
         stop-color="#ff937d"
         id="stop34" />
    </linearGradient>
    <linearGradient
       id="2"
       y1="530.78"
       x2="0"
       y2="523.38"
       gradientUnits="userSpaceOnUse">
      <stop
         stop-color="#ec87c0"
         id="stop37" />
      <stop
         offset="1"
         stop-color="#ffc1e4"
         id="stop39" />
    </linearGradient>
    <linearGradient
       id="1"
       x1="400.45"
       y1="543.89"
       x2="400.62"
       y2="532.99"
       gradientUnits="userSpaceOnUse">
      <stop
         stop-color="#41b99b"
         id="stop42" />
      <stop
         offset="1"
         stop-color="#59ffd5"
         id="stop44" />
    </linearGradient>
  </defs>
  <g
     transform="matrix(1.61348 0 0 1.61348-622.39-833.94)"
     id="g69">
    <circle
       r="14.875"
       cy="531.73"
       cx="400.62"
       fill="url(#6)"
       id="circle49" />
    <path
       d="m 404.38528,521.656 c -1.66223,-0.58887 -3.36493,-0.74773 -5.01722,-0.59851 -1.91587,0.14689 -2.85109,0.72288 -2.79573,0.61857 -3.13278,1.0863 -5.78142,3.42254 -7.00826,6.69909 -2.18435,5.835 0.90958,12.28778 6.90913,14.41222 6.00201,2.12446 12.63685,-0.88411 14.8212,-6.71911 2.18518,-5.83504 -0.90877,-12.28701 -6.90912,-14.41226 z m -7.51717,20.07638 c -0.63946,-0.22705 -1.23676,-0.51588 -1.79937,-0.84562 2.79571,0.20859 6.44399,-0.41718 8.90429,-2.65315 0,0 4.69006,-3.63918 1.29706,-9.61138 0,0 0.5469,2.40686 -0.15042,4.38689 0,0 -0.66505,2.69248 -3.62102,3.47471 -4.35384,1.15209 -9.31489,-1.80755 -11.38855,-3.24122 -0.1561,-1.47382 -0.0174,-2.99654 0.53866,-4.48237 0.82451,-2.20149 2.37437,-3.91915 4.26791,-5.07285 -0.47338,3.21635 -0.0991,6.17759 0.4387,7.41793 0.72204,1.66314 1.97697,3.60304 4.42487,3.85176 2.44789,0.24952 3.79783,-1.97524 3.79783,-1.97524 1.25574,-1.85327 1.45237,-4.51443 1.43338,-4.57863 -0.019,-0.0649 -0.33459,-0.24068 -0.33459,-0.24068 -0.84516,3.32146 -2.23889,4.43102 -2.23889,4.43102 -2.19756,2.06026 -3.75404,0.6314 -3.75404,0.6314 -1.67296,-1.74498 -0.50148,-4.58105 -0.50148,-4.58105 0.65514,-1.9319 2.56439,-4.75915 4.72809,-6.19683 0.3602,0.0867 0.72288,0.14039 1.07896,0.26633 1.30945,0.46373 2.45615,1.16252 3.42606,2.02097 -1.58209,0.56079 -4.13658,1.74658 -4.13658,1.74658 -4.04896,1.6559 -4.32242,4.16064 -4.32242,4.16064 -0.41886,2.58175 1.69031,1.48904 1.69031,1.48904 2.17113,-1.02693 3.2377,-4.22724 3.2377,-4.22724 -0.67745,-0.12519 -1.21113,0.0745 -1.21113,0.0745 -0.86665,2.07711 -2.63463,2.93156 -2.63463,2.93156 -0.6956,0.3578 -0.85753,-0.27439 -0.85753,-0.27439 -0.11729,-0.47334 0.50312,-0.55439 0.50312,-0.55439 0.9633,-0.36341 1.5796,-1.34622 1.71924,-1.74816 0.13887,-0.40277 0.39737,-0.43404 0.39737,-0.43404 1.32019,-0.40917 2.5239,-0.50063 2.5239,-0.50063 1.6391,-0.19575 4.14813,0.5632 4.14813,0.5632 0.56261,0.21983 1.10207,0.38431 1.58125,0.51588 0.91952,2.23116 1.06491,4.77199 0.15369,7.20772 -1.9646,5.25096 -7.9377,7.95948 -13.33992,6.04763 z"
       id="path11795"
       inkscape:connector-curvature="0"
       style="opacity:0.8;fill:#00b7ff;fill-rule:evenodd;stroke:none;stroke-width:0.17161994" />
  </g>
</svg>
