<?xml version="1.0" encoding="UTF-8" standalone="no"?>
<!-- Created with Inkscape (http://www.inkscape.org/) -->

<svg
   xmlns:dc="http://purl.org/dc/elements/1.1/"
   xmlns:cc="http://creativecommons.org/ns#"
   xmlns:rdf="http://www.w3.org/1999/02/22-rdf-syntax-ns#"
   xmlns:svg="http://www.w3.org/2000/svg"
   xmlns="http://www.w3.org/2000/svg"
   xmlns:xlink="http://www.w3.org/1999/xlink"
   xmlns:sodipodi="http://sodipodi.sourceforge.net/DTD/sodipodi-0.dtd"
   xmlns:inkscape="http://www.inkscape.org/namespaces/inkscape"
   width="200"
   height="200"
   id="svg2"
   version="1.1"
   inkscape:version="0.92.2pre0 (973e216, 2017-07-25)"
   sodipodi:docname="deepin-launcher.svg">
  <defs
     id="defs4">
    <linearGradient
       id="linearGradient4334">
      <stop
         id="stop4336"
         offset="0"
         style="stop-color:#15c4fc;stop-opacity:1;" />
      <stop
         id="stop4338"
         offset="1"
         style="stop-color:#1863ee;stop-opacity:0" />
    </linearGradient>
    <linearGradient
       id="linearGradient4328">
      <stop
         id="stop4330"
         offset="0"
         style="stop-color:#f4fbfc;stop-opacity:1;" />
      <stop
         id="stop4332"
         offset="1"
         style="stop-color:#d6d6d6;stop-opacity:0" />
    </linearGradient>
    <linearGradient
       id="linearGradient4829">
      <stop
         style="stop-color:#f4fbfc;stop-opacity:1;"
         offset="0"
         id="stop4831" />
      <stop
         style="stop-color:#d6d6d6;stop-opacity:1;"
         offset="1"
         id="stop4833" />
    </linearGradient>
    <clipPath
       clipPathUnits="userSpaceOnUse"
       id="clipPath4282">
      <rect
         style="color:#000000;fill:#4d4d4d;fill-opacity:1;fill-rule:nonzero;stroke:none;stroke-width:9.13434315;marker:none;visibility:visible;display:inline;overflow:visible;enable-background:accumulate"
         id="rect4284"
         width="246.875"
         height="234.375"
         x="462.5"
         y="1646.1122"
         ry="17"
         rx="17" />
    </clipPath>
    <linearGradient
       inkscape:collect="always"
       xlink:href="#linearGradient4829"
       id="linearGradient4835"
       x1="102.29776"
       y1="-0.42686829"
       x2="102.29776"
       y2="199.16539"
       gradientUnits="userSpaceOnUse" />
    <linearGradient
       inkscape:collect="always"
       xlink:href="#linearGradient5423"
       id="linearGradient5429"
       x1="408.66196"
       y1="44.604382"
       x2="408.66196"
       y2="562.04968"
       gradientUnits="userSpaceOnUse" />
    <linearGradient
       id="linearGradient5423">
      <stop
         style="stop-color:#15c4fc;stop-opacity:1;"
         offset="0"
         id="stop5425" />
      <stop
         style="stop-color:#1863ee;stop-opacity:1;"
         offset="1"
         id="stop5427" />
    </linearGradient>
    <linearGradient
       inkscape:collect="always"
       xlink:href="#linearGradient5423"
       id="linearGradient6197"
       gradientUnits="userSpaceOnUse"
       x1="99.036476"
       y1="-0.50471628"
       x2="99.036476"
       y2="199.83986"
       gradientTransform="matrix(0.91020408,0,0,0.91020408,8.7954297,861.52594)" />
    <clipPath
       clipPathUnits="userSpaceOnUse"
       id="clipPath6245">
      <rect
         style="opacity:0.85;color:#000000;fill:#ffffff;fill-opacity:1;fill-rule:nonzero;stroke:none;stroke-width:1.5;marker:none;visibility:visible;display:inline;overflow:visible;enable-background:accumulate"
         id="rect6247"
         width="300"
         height="259.375"
         x="-901.5625"
         y="792.98718"
         rx="16.46875"
         ry="16.46875" />
    </clipPath>
    <linearGradient
       inkscape:collect="always"
       xlink:href="#linearGradient4829"
       id="linearGradient6261"
       x1="105.47797"
       y1="852.77802"
       x2="105.47797"
       y2="1052.7781"
       gradientUnits="userSpaceOnUse"
       gradientTransform="translate(-2.5989256,-0.41583663)" />
    <linearGradient
       inkscape:collect="always"
       xlink:href="#linearGradient4829"
       id="linearGradient4272"
       x1="-193.57404"
       y1="768.57635"
       x2="164.21439"
       y2="1126.3647"
       gradientUnits="userSpaceOnUse" />
    <linearGradient
       inkscape:collect="always"
       xlink:href="#linearGradient4328"
       id="linearGradient4314"
       gradientUnits="userSpaceOnUse"
       x1="167.0096"
       y1="1123.5696"
       x2="-174.84821"
       y2="781.71179" />
    <linearGradient
       inkscape:collect="always"
       xlink:href="#linearGradient4829-5"
       id="linearGradient4355-1"
       gradientUnits="userSpaceOnUse"
       gradientTransform="matrix(0.2794948,0.2794948,-0.2794948,0.2794948,130.2946,929.88282)"
       x1="-187.98358"
       y1="-89.376266"
       x2="169.80482"
       y2="268.41214" />
    <linearGradient
       id="linearGradient4829-5">
      <stop
         style="stop-color:#f4fbfc;stop-opacity:1;"
         offset="0"
         id="stop4831-6" />
      <stop
         style="stop-color:#d6d6d6;stop-opacity:1;"
         offset="1"
         id="stop4833-4" />
    </linearGradient>
    <linearGradient
       inkscape:collect="always"
       xlink:href="#linearGradient4829"
       id="linearGradient4402"
       gradientUnits="userSpaceOnUse"
       gradientTransform="matrix(0.27949481,0.27949481,-0.27949481,0.27949481,130.29461,77.52064)"
       x1="-187.98358"
       y1="-89.376266"
       x2="169.80482"
       y2="268.41214" />
    <linearGradient
       inkscape:collect="always"
       xlink:href="#linearGradient4829-2"
       id="linearGradient4402-6"
       gradientUnits="userSpaceOnUse"
       gradientTransform="matrix(0.27949481,0.27949481,-0.27949481,0.27949481,130.29461,929.88282)"
       x1="-187.98358"
       y1="-89.376266"
       x2="169.80482"
       y2="268.41214" />
    <linearGradient
       id="linearGradient4829-2">
      <stop
         style="stop-color:#f4fbfc;stop-opacity:1;"
         offset="0"
         id="stop4831-1" />
      <stop
         style="stop-color:#d6d6d6;stop-opacity:1;"
         offset="1"
         id="stop4833-2" />
    </linearGradient>
    <linearGradient
       y2="268.41214"
       x2="169.80482"
       y1="-89.376266"
       x1="-187.98358"
       gradientTransform="matrix(0.27949481,0.27949481,-0.27949481,0.27949481,130.29461,929.88282)"
       gradientUnits="userSpaceOnUse"
       id="linearGradient4436"
       xlink:href="#linearGradient4829-2"
       inkscape:collect="always" />
  </defs>
  <sodipodi:namedview
     id="base"
     pagecolor="#ffffff"
     bordercolor="#666666"
     borderopacity="1.0"
     inkscape:pageopacity="0.0"
     inkscape:pageshadow="2"
     inkscape:zoom="5.4300002"
     inkscape:cx="97.016906"
     inkscape:cy="104.41654"
     inkscape:document-units="px"
     inkscape:current-layer="layer1"
     showgrid="false"
     inkscape:window-width="1366"
     inkscape:window-height="714"
     inkscape:window-x="0"
     inkscape:window-y="26"
     inkscape:window-maximized="1"
     inkscape:snap-from-guide="true"
     showguides="true"
     inkscape:guide-bbox="true">
    <sodipodi:guide
       position="200,200"
       orientation="0,-200"
       id="guide3768"
       inkscape:locked="false" />
    <sodipodi:guide
       position="0,99.999997"
       orientation="100,0"
       id="guide3465"
       inkscape:locked="false" />
    <sodipodi:guide
       position="0,-2.6171874e-06"
       orientation="0,200"
       id="guide3467"
       inkscape:locked="false" />
    <sodipodi:guide
       position="200,-2.6171874e-06"
       orientation="-100,0"
       id="guide3469"
       inkscape:locked="false" />
    <sodipodi:guide
       position="200,99.999997"
       orientation="0,-200"
       id="guide3471"
       inkscape:locked="false" />
  </sodipodi:namedview>
  <metadata
     id="metadata7">
    <rdf:RDF>
      <cc:Work
         rdf:about="">
        <dc:format>image/svg+xml</dc:format>
        <dc:type
           rdf:resource="http://purl.org/dc/dcmitype/StillImage" />
        <dc:title />
      </cc:Work>
    </rdf:RDF>
  </metadata>
  <g
     inkscape:label="Layer 1"
     inkscape:groupmode="layer"
     id="layer1"
     transform="translate(0,-852.36218)">
    <path
       sodipodi:type="arc"
       style="color:#000000;fill:url(#linearGradient4835);fill-opacity:1;fill-rule:nonzero;stroke:none;stroke-width:9.13434315;marker:none;visibility:visible;display:inline;overflow:visible;enable-background:accumulate"
       id="path4188"
       sodipodi:cx="100"
       sodipodi:cy="100"
       sodipodi:rx="100"
       sodipodi:ry="100"
       d="M 200,100 A 100,100 0 0 1 100,200 100,100 0 0 1 0,100 100,100 0 0 1 100,0 100,100 0 0 1 200,100 Z"
       transform="translate(0,852.36219)" />
    <circle
       style="color:#000000;display:inline;overflow:visible;visibility:visible;fill:url(#linearGradient6197);fill-opacity:1;fill-rule:nonzero;stroke:none;stroke-width:8.31411648;marker:none;enable-background:accumulate"
       id="path4188-6"
       cx="99.815834"
       cy="952.54633"
       r="91.020409" />
    <path
       style="fill:#e6e6e6;fill-opacity:1;fill-rule:evenodd;stroke-width:0.39141047"
       inkscape:connector-curvature="0"
       d="M 158.78158,917.00001 C 148.09978,895.58289 125.4334,880.75699 99.124054,880.63956 72.81389,880.52205 50.006804,895.1454 39.119633,916.46589 l 12.775532,0.0572 0.363837,-0.54559 c 9.698486,-14.56272 26.550077,-24.25554 45.740592,-24.5234 l 9e-5,-0.0199 2.105056,0.008 -1e-4,0.0199 c 19.20313,0.42464 35.98078,10.27181 45.54284,24.93084 l 0.35859,0.5488 12.77551,0.0569 m -20.08985,-0.0896 c -8.89945,-11.82757 -23.31985,-19.54805 -39.647686,-19.62096 l -0.0208,-8e-5 C 82.70414,897.2209 68.219737,904.81084 59.21259,916.55497 l 79.4783,0.35477"
       id="path46" />
    <path
       d="m 142.17317,965.58948 c -1.11939,0.0478 -1.97797,-0.14512 -2.57206,-0.578 -0.77982,-0.56845 -2.06937,-0.3754 -4.18136,0.62624 -2.3692,1.12344 -2.62204,1.38839 -3.01103,3.15321 -0.47549,2.1579 -0.88729,2.44543 -3.85988,2.69527 -2.97744,0.25039 -3.42578,0.0412 -4.39112,-2.04582 -0.78516,-1.70028 -0.66303,-1.61702 -3.51565,-2.37956 -2.61511,-0.69904 -3.18352,-0.64362 -4.94534,0.48202 -1.67668,1.07121 -2.30095,0.99045 -4.44865,-0.57526 -2.14915,-1.56676 -2.39386,-2.17581 -1.58725,-3.95132 0.70819,-1.55941 0.67464,-2.06966 -0.24755,-3.75959 -1.21777,-2.23143 -1.81044,-2.70421 -3.86022,-3.07966 -2.28857,-0.41914 -2.69757,-0.87288 -2.95975,-3.28445 -0.23251,-2.13915 0.6098,-3.52792 2.34189,-3.85876 1.42834,-0.27317 1.86208,-0.7326 2.67016,-2.83008 0.8897,-2.3083 0.84526,-2.95182 -0.31539,-4.56754 -1.27471,-1.77471 -1.22176,-2.0953 0.67822,-4.10626 2.04999,-2.17007 2.39546,-2.21924 5.84376,-0.83455 0.54793,0.21996 1.40464,-0.0589 4.24117,-1.38056 1.36942,-0.63828 1.69532,-1.06149 2.10252,-2.72951 0.54288,-2.23022 1.18503,-2.64439 4.3696,-2.81819 2.1625,-0.11809 3.39314,0.62453 3.86687,2.33318 0.314,1.13271 0.95552,1.54661 3.43319,2.21513 2.62536,0.70826 3.00466,0.6752 4.87437,-0.42507 2.07574,-1.22107 2.66033,-1.12547 5.16999,0.84688 2.10255,1.65223 2.32982,2.1839 1.47515,3.45085 -1.15056,1.70554 -1.13927,2.36747 0.0755,4.41852 1.24842,2.10783 1.71775,2.40565 4.15325,2.63432 1.65794,0.15565 2.29977,1.09198 2.49234,3.63499 0.16374,2.16583 -0.48237,3.01099 -2.74856,3.59091 -1.46761,0.37599 -1.59339,0.52988 -2.50641,3.06545 -0.83669,2.32334 -0.7723,2.71358 0.73029,4.4288 1.13012,1.28997 1.00378,1.81447 -0.92834,3.85974 -1.48524,1.57213 -1.71496,1.73868 -2.44054,1.76981 m -8.54136,-13.22844 c 1.35743,-4.61272 -2.66585,-8.79224 -8.07558,-8.38836 -5.57125,0.41555 -8.74118,5.78847 -5.95081,10.08775 3.37278,5.19781 12.31593,4.11461 14.0271,-1.69896"
       inkscape:connector-curvature="0"
       id="path74"
       style="fill:#e6e6e6;fill-opacity:1;stroke-width:0.24711482" />
    <path
       d="m 113.93886,994.70176 c -0.8014,-0.13207 -1.37129,-0.39322 -1.7072,-0.7826 -0.44106,-0.51118 -1.39138,-0.56735 -3.08068,-0.1815 -1.89497,0.43278 -2.12552,0.58012 -2.74438,1.75221 -0.75654,1.43323 -1.1037,1.57258 -3.25592,1.30759 -2.15565,-0.26561 -2.43215,-0.47712 -2.70845,-2.074 -0.22515,-1.30063 -0.15439,-1.22452 -2.02383,-2.17721 -1.714474,-0.87335 -2.127203,-0.91873 -3.593745,-0.39467 -1.394963,0.49872 -1.82082,0.35003 -3.035861,-1.05808 -1.215693,-1.40894 -1.270501,-1.86976 -0.354013,-2.98712 0.804641,-0.98176 0.880203,-1.34228 0.556665,-2.65578 -0.427502,-1.73437 -0.754618,-2.15155 -2.131999,-2.71581 -1.537903,-0.63006 -1.73884,-1.00653 -1.455025,-2.72536 0.251897,-1.52494 1.118296,-2.3676 2.408205,-2.3424 1.063885,0.0207 1.460132,-0.23518 2.440305,-1.57727 1.078839,-1.47677 1.172602,-1.93158 0.665938,-3.22858 -0.556344,-1.4239 -0.456535,-1.6402 1.279153,-2.76068 1.873054,-1.20896 2.126958,-1.19234 4.297828,0.28187 0.344954,0.23429 1.005269,0.16663 3.269149,-0.33534 1.09333,-0.24198 1.40628,-0.48904 2.01832,-1.59141 0.81835,-1.47287 1.35319,-1.66733 3.6401,-1.3179 1.55314,0.23724 2.27943,0.9364 2.2819,2.1967 0.001,0.83569 0.37509,1.21862 1.9978,2.05037 1.71974,0.88131 1.99476,0.91422 3.53245,0.42397 1.70661,-0.5441 2.10236,-0.39121 3.49359,1.35383 1.16617,1.46162 1.22325,1.86494 0.37215,2.62198 -1.14605,1.01814 -1.26687,1.48106 -0.80669,3.08935 0.47316,1.65288 0.74731,1.92965 2.42607,2.44884 1.14285,0.35338 1.41481,1.10049 1.05593,2.90053 -0.30566,1.53299 -0.92745,2.02598 -2.64328,2.09566 -1.11174,0.0454 -1.23073,0.13363 -2.37026,1.76541 -1.04418,1.49502 -1.07478,1.77641 -0.34533,3.19314 0.5486,1.06555 0.3568,1.41257 -1.40762,2.55174 -1.35702,0.87585 -1.55202,0.95788 -2.07123,0.87252 m -3.46869,-10.47753 c 1.85847,-3.0137 -0.17486,-6.51923 -4.08186,-7.0382 -4.0231,-0.53343 -7.312225,2.74168 -6.17432,6.14888 1.37486,4.11949 7.91423,4.68539 10.25624,0.88856"
       inkscape:connector-curvature="0"
       id="path76"
       style="fill:#e6e6e6;fill-opacity:1;stroke-width:0.25923699" />
    <g
       id="g922"
       transform="matrix(4.550166,0,0,5.310842,-16.635798,811.66932)">
      <rect
         y="25.728745"
         x="18.915255"
         height="3.9322715"
         width="4.0169492"
         id="rect107"
         style="fill:#e6e6e6;fill-opacity:1;stroke-width:0.80362803" />
      <ellipse
         ry="1.6191708"
         rx="1.9322032"
         cy="23.585268"
         cx="20.898304"
         id="path109"
         style="fill:#e6e6e6;fill-opacity:1;stroke-width:0.66945529" />
    </g>
  </g>
</svg>
