<?xml version="1.0" encoding="UTF-8" standalone="no"?>
<svg
   xmlns:dc="http://purl.org/dc/elements/1.1/"
   xmlns:cc="http://creativecommons.org/ns#"
   xmlns:rdf="http://www.w3.org/1999/02/22-rdf-syntax-ns#"
   xmlns:svg="http://www.w3.org/2000/svg"
   xmlns="http://www.w3.org/2000/svg"
   xmlns:xlink="http://www.w3.org/1999/xlink"
   xmlns:sodipodi="http://sodipodi.sourceforge.net/DTD/sodipodi-0.dtd"
   xmlns:inkscape="http://www.inkscape.org/namespaces/inkscape"
   height="213.33333"
   width="213.33333"
   version="1.1"
   id="svg21"
   sodipodi:docname="deepin-graphics-driver-manager.svg"
   inkscape:version="0.92.2pre0 (973e216, 2017-07-25)">
  <metadata
     id="metadata27">
    <rdf:RDF>
      <cc:Work
         rdf:about="">
        <dc:format>image/svg+xml</dc:format>
        <dc:type
           rdf:resource="http://purl.org/dc/dcmitype/StillImage" />
        <dc:title></dc:title>
      </cc:Work>
    </rdf:RDF>
  </metadata>
  <defs
     id="defs25">
    <linearGradient
       y2="503.79807"
       y1="543.7981"
       x2="408.57138"
       x1="408.57138"
       gradientUnits="userSpaceOnUse"
       id="linearGradient950">
      <stop
         id="stop946"
         stop-color="#97a9b1"
         offset="0" />
      <stop
         style="stop-color:#00ff00;stop-opacity:0"
         id="stop948"
         stop-color="#cfdce1"
         offset="1" />
    </linearGradient>
    <linearGradient
       y2="503.79807"
       y1="543.7981"
       x2="408.57138"
       x1="408.57138"
       gradientUnits="userSpaceOnUse"
       id="a">
      <stop
         id="stop941"
         stop-color="#97a9b1"
         offset="0"
         style="stop-color:#0affb5;stop-opacity:1" />
      <stop
         style="stop-color:#01ffff;stop-opacity:1"
         id="stop943"
         stop-color="#cfdce1"
         offset="1" />
    </linearGradient>
    <linearGradient
       id="linearGradient4829">
      <stop
         style="stop-color:#f4fbfc;stop-opacity:1;"
         offset="0"
         id="stop4831" />
      <stop
         style="stop-color:#d6d6d6;stop-opacity:1;"
         offset="1"
         id="stop4833" />
    </linearGradient>
    <linearGradient
       id="linearGradient4560">
      <stop
         id="stop4556"
         offset="0"
         style="stop-color:#59f920;stop-opacity:1" />
      <stop
         id="stop4558"
         offset="1"
         style="stop-color:#d1fe3c;stop-opacity:1" />
    </linearGradient>
    <linearGradient
       inkscape:collect="always"
       xlink:href="#linearGradient4560"
       id="linearGradient6197"
       gradientUnits="userSpaceOnUse"
       x1="99.036476"
       y1="-0.50471628"
       x2="99.036476"
       y2="199.83986"
       gradientTransform="matrix(0.97088435,0,0,0.97088435,9.5782313,9.5782374)" />
  </defs>
  <sodipodi:namedview
     pagecolor="#ffffff"
     bordercolor="#666666"
     borderopacity="1"
     objecttolerance="10"
     gridtolerance="10"
     guidetolerance="10"
     inkscape:pageopacity="0"
     inkscape:pageshadow="2"
     inkscape:window-width="1366"
     inkscape:window-height="701"
     id="namedview23"
     showgrid="false"
     inkscape:measure-start="0,0"
     inkscape:measure-end="0,0"
     inkscape:zoom="1.7383042"
     inkscape:cx="48.201794"
     inkscape:cy="78.703557"
     inkscape:window-x="0"
     inkscape:window-y="0"
     inkscape:window-maximized="1"
     inkscape:current-layer="svg21" />
  <linearGradient
     gradientUnits="userSpaceOnUse"
     x1="0"
     x2="47"
     y1="23.5"
     y2="23.5"
     id="linearGradient8-3">
    <stop
       offset="0"
       stop-color="#a9a3d4"
       id="stop2"
       style="stop-opacity:1;stop-color:#03fec6" />
    <stop
       offset="1"
       stop-color="#87baff"
       id="stop4"
       style="stop-color:#d47627;stop-opacity:1" />
    <stop
       offset="1"
       stop-color="#89ec85"
       id="stop6"
       style="stop-color:#68f6fe;stop-opacity:1" />
  </linearGradient>
  <linearGradient
     id="a-6"
     gradientUnits="userSpaceOnUse"
     x1="408.57138"
     x2="408.57138"
     y1="543.7981"
     y2="503.79807">
    <stop
       offset="0"
       stop-color="#97a9b1"
       id="stop10" />
    <stop
       offset="1"
       stop-color="#cfdce1"
       id="stop12"
       style="stop-color:#fcffff;stop-opacity:1" />
  </linearGradient>
  <circle
     style="color:#000000;display:inline;overflow:visible;visibility:visible;fill:#ffffff;fill-opacity:1;fill-rule:nonzero;stroke:none;stroke-width:9.74329948;marker:none;enable-background:accumulate"
     id="path4188"
     cx="106.66666"
     cy="106.66669"
     r="106.66666" />
  <circle
     style="color:#000000;display:inline;overflow:visible;visibility:visible;fill:url(#linearGradient6197);fill-opacity:1;fill-rule:nonzero;stroke:none;stroke-width:8.86839104;marker:none;enable-background:accumulate"
     id="path4188-6"
     cx="106.66666"
     cy="106.66669"
     r="97.088432" />
  <path
     style="opacity:1;fill:#ffffff;fill-opacity:1;stroke:#ffffff;stroke-width:1.5044899;stroke-miterlimit:4;stroke-dasharray:none;stroke-dashoffset:0;stroke-opacity:0.00392157"
     d="m 115.72821,26.446168 c -4.92877,-4.928772 -12.86572,-4.928803 -17.794489,-3.5e-5 l -15.563533,15.563533 5.905297,5.905297 c 1.769742,1.769742 1.768466,4.618833 -0.0012,6.388539 -1.769738,1.769737 -4.617549,1.769734 -6.387291,-8e-6 l -5.905297,-5.905297 -1.728768,1.728768 5.905297,5.905297 c 1.769742,1.769742 1.768498,4.618801 -0.0013,6.388562 -1.769683,1.769682 -4.617486,1.769671 -6.387228,-7.1e-5 l -5.905297,-5.905297 -1.7287,1.7287 5.905297,5.905297 c 1.769742,1.769742 1.768419,4.618879 -0.0013,6.388563 -1.769684,1.769683 -4.617563,1.769747 -6.387304,5e-6 l -5.905297,-5.905297 -1.7287,1.7287 5.905297,5.905297 c 1.769742,1.769742 1.768497,4.618801 -0.0013,6.388562 -1.769683,1.769684 -4.617562,1.769748 -6.387304,6e-6 l -5.905297,-5.905297 -1.728622,1.728622 5.905297,5.905296 c 1.769742,1.769742 1.769756,4.617544 -8.3e-5,6.387382 -1.769683,1.769684 -4.618743,1.770929 -6.388485,0.0012 L 43.512672,80.867182 26.446176,97.933678 c -4.928789,4.928792 -4.928837,12.865812 -6.6e-5,17.794592 l 15.497598,15.49759 6.313743,-6.31374 c 1.769683,-1.76968 4.620058,-1.76977 6.3898,-3e-5 1.769741,1.76975 1.768385,4.61885 -0.0013,6.38853 l -6.313742,6.31375 2.05343,2.05343 6.313742,-6.31375 c 1.769684,-1.76968 4.620058,-1.76977 6.3898,-2e-5 1.769706,1.7697 1.768387,4.61884 -0.0013,6.38853 l -6.313743,6.31374 2.05342,2.05342 6.313742,-6.31374 c 1.769684,-1.76969 4.620066,-1.76976 6.389813,-2e-5 1.769705,1.76971 1.768375,4.61884 -0.0013,6.38852 l -6.313742,6.31374 2.053396,2.0534 6.313742,-6.31374 c 1.769683,-1.76969 4.620087,-1.76974 6.389834,0 1.769718,1.76972 1.768389,4.61885 -0.0013,6.38854 l -6.313742,6.31374 2.053395,2.0534 6.313743,-6.31375 c 1.769683,-1.76968 4.620087,-1.76974 6.389791,-3e-5 1.769747,1.76974 1.768432,4.61889 -0.0013,6.38857 l -6.313743,6.31375 15.506435,15.50643 c 4.928805,4.9288 12.864525,4.92745 17.793315,-0.001 l 17.0665,-17.06649 -4.79805,-4.79805 c -1.76974,-1.76974 -1.76973,-4.62004 -5e-5,-6.38972 1.76984,-1.76984 4.61888,-1.76859 6.38862,0.001 l 4.79805,4.79805 1.72862,-1.72862 -4.79805,-4.79805 c -1.76974,-1.76974 -1.77091,-4.61885 -0.001,-6.38854 1.76976,-1.76976 4.62006,-1.76977 6.3898,-3e-5 l 4.79805,4.79805 1.7287,-1.7287 -4.79805,-4.79804 c -1.76974,-1.76974 -1.77091,-4.61886 -0.001,-6.38854 1.76968,-1.76969 4.62006,-1.76977 6.3898,-3e-5 l 4.79804,4.79804 1.7287,-1.7287 -4.79804,-4.79804 c -1.76974,-1.76974 -1.77099,-4.61878 -0.001,-6.38847 1.76976,-1.76976 4.62006,-1.76976 6.3898,-2e-5 l 4.79804,4.79804 1.72877,-1.72877 -4.79804,-4.79804 c -1.76974,-1.76974 -1.77098,-4.61879 -0.001,-6.38853 1.76971,-1.7697 4.62004,-1.76974 6.38978,0 l 4.79804,4.79804 15.56354,-15.56353 c 4.92876,-4.92877 4.93004,-12.86441 0.001,-17.793218 l -15.82605,-15.826054 -5.40936,5.409361 c -1.76975,1.769745 -4.62008,1.769702 -6.38981,-3.1e-5 -1.76971,-1.769705 -1.76975,-4.620037 0,-6.389782 l 5.40936,-5.40936 -1.87078,-1.870772 -5.40936,5.409361 c -1.76974,1.769745 -4.62003,1.769744 -6.38978,-3e-6 -1.7697,-1.769704 -1.76846,-4.61875 0.001,-6.388495 l 5.40936,-5.40936 -1.87205,-1.872051 -5.40936,5.40936 c -1.76975,1.769745 -4.6188,1.770982 -6.38851,0.0013 -1.76974,-1.76974 -1.76974,-4.62003 1e-5,-6.389774 l 5.40936,-5.409361 -1.87078,-1.870777 -5.40936,5.40936 c -1.76974,1.769745 -4.62007,1.769712 -6.38981,-3.4e-5 -1.76971,-1.769702 -1.76847,-4.618758 0.001,-6.388503 l 5.40936,-5.409361 -1.872,-1.872008 -5.32819,5.32819 c -1.76974,1.769738 -4.61753,1.769699 -6.38727,-4.2e-5 -1.7697,-1.769706 -1.77101,-4.61876 -0.001,-6.388497 l 5.32819,-5.32819 z m -5.94467,5.939431 a 4.1745759,4.1745759 0 0 1 -0.001,5.90406 4.1745759,4.1745759 0 0 1 -5.90275,-3.9e-5 4.1745759,4.1745759 0 0 1 -0.001,-5.903986 4.1745759,4.1745759 0 0 1 5.90529,-3.5e-5 z m 71.43171,71.431701 a 4.1745759,4.1745759 0 0 1 -0.001,5.90402 4.1745759,4.1745759 0 0 1 -5.90274,-3e-5 4.1745759,4.1745759 0 0 1 -0.001,-5.904 4.1745759,4.1745759 0 0 1 5.9053,-2e-5 z M 39.651786,102.51724 a 4.1745762,4.1745762 0 0 1 -0.0013,5.90404 4.1745762,4.1745762 0 0 1 -5.902716,0 4.1745762,4.1745762 0 0 1 -0.0013,-5.90399 4.1745762,4.1745762 0 0 1 5.905318,-5e-5 z m 71.431674,71.43167 a 4.1745762,4.1745762 0 0 1 -0.001,5.90408 4.1745762,4.1745762 0 0 1 -5.90275,-4e-5 4.1745762,4.1745762 0 0 1 -0.001,-5.90399 4.1745762,4.1745762 0 0 1 5.90533,-5e-5 z"
     id="rect960"
     inkscape:connector-curvature="0" />
  <path
     id="path4195-3"
     style="opacity:1;fill:#4d4d4d;fill-opacity:1;fill-rule:evenodd;stroke:#ffffff;stroke-width:0.07821339;stroke-miterlimit:4;stroke-dasharray:none;stroke-opacity:1"
     d="M 149.79878,106.66678 A 43.132126,41.088852 0 0 1 106.66664,147.75541 43.132126,41.088852 0 0 1 63.534542,106.66678 43.132126,41.088852 0 0 1 106.66664,65.577973 43.132126,41.088852 0 0 1 149.79878,106.66678 Z M 121.68666,71.683708 c 0,0 -12.97509,10.475937 -17.74621,16.739229 0.0568,-0.109996 -7.91304,9.256377 -3.84014,17.459763 0.0568,0.10989 2.26917,5.4321 7.33121,0.16586 0.0567,0.0556 6.28391,-5.87509 5.70203,-18.84531 0.11659,0.05575 -1.68732,-0.05679 -4.18925,1.718193 -0.29097,0.165745 0.40705,7.371884 -6.10937,14.189627 0,0 -0.37818,0.44415 -0.84133,0.49989 -0.16223,0 -0.75557,0.0636 -1.16957,-0.39336 l -0.931004,-1.02893 c -0.277274,-0.30571 -0.377137,-0.95723 0.339634,-1.37015 0,0 4.50583,-2.802742 4.71762,-9.2521 0,0 -0.0305,-0.987646 0.90996,-1.671906 0,0 6.82616,-6.20089 19.70584,-7.828439 0.1536,0 7.22881,-0.45673 11.03639,-0.254481 0.0304,0 5.33197,5.502807 8.12483,14.371391 4.18929,12.083175 0.81466,35.141245 -22.22638,45.340045 -12.56778,4.87762 -23.273679,2.43875 -23.390106,2.32783 0,0.0821 7.487186,-1.66056 15.023236,-6.44946 10.83392,-6.88842 22.5778,-21.3265 13.95256,-39.112081 -1.8409,-3.798018 -4.65474,-6.87303 -9.01856,-10.365248 0,0 5.17843,7.957265 5.41116,16.018739 0.54933,8.90823 -6.17214,21.82753 -30.276797,22.09148 -8.280801,0 -17.124835,-1.32366 -23.401657,-3.06403 -0.956547,-1.29056 -10.168349,-21.17149 4.454567,-39.42502 0.04559,0.04558 2.816107,13.504753 9.814517,23.13137 6.59344,8.64683 14.017703,11.38018 19.52899,11.11462 3.98906,-0.19166 11.42737,-2.38358 14.13876,-11.48289 2.56011,-7.686606 0,-16.70356 -0.58422,-18.650294 0,0 -0.44457,-0.807002 -1.73623,-0.565209 0,0 0.94261,8.602398 -0.97287,15.317893 -1.56638,5.48971 -5.61596,9.24297 -8.73226,10.13681 -3.11637,0.66749 -7.347535,-0.34329 -10.266097,-5.37878 -2.371597,-3.91114 -2.713715,-8.507237 -2.583387,-11.449235 -0.02035,-0.147587 -0.181474,-13.282798 8.884794,-26.862582 0,0 11.89866,-0.831337 18.93895,2.826914 z"
     inkscape:connector-curvature="0" />
</svg>
