<?xml version="1.0" encoding="UTF-8" standalone="no"?>
<svg
   xmlns:dc="http://purl.org/dc/elements/1.1/"
   xmlns:cc="http://creativecommons.org/ns#"
   xmlns:rdf="http://www.w3.org/1999/02/22-rdf-syntax-ns#"
   xmlns:svg="http://www.w3.org/2000/svg"
   xmlns="http://www.w3.org/2000/svg"
   xmlns:sodipodi="http://sodipodi.sourceforge.net/DTD/sodipodi-0.dtd"
   xmlns:inkscape="http://www.inkscape.org/namespaces/inkscape"
   height="48"
   width="48"
   version="1.1"
   id="svg18"
   sodipodi:docname="accessories-painting.svg"
   inkscape:version="0.92.2pre0 (973e216, 2017-07-25)">
  <metadata
     id="metadata24">
    <rdf:RDF>
      <cc:Work
         rdf:about="">
        <dc:format>image/svg+xml</dc:format>
        <dc:type
           rdf:resource="http://purl.org/dc/dcmitype/StillImage" />
      </cc:Work>
    </rdf:RDF>
  </metadata>
  <defs
     id="defs22" />
  <sodipodi:namedview
     pagecolor="#ffffff"
     bordercolor="#666666"
     borderopacity="1"
     objecttolerance="10"
     gridtolerance="10"
     guidetolerance="10"
     inkscape:pageopacity="0"
     inkscape:pageshadow="2"
     inkscape:window-width="1366"
     inkscape:window-height="695"
     id="namedview20"
     showgrid="false"
     inkscape:zoom="10.063802"
     inkscape:cx="24"
     inkscape:cy="24"
     inkscape:window-x="0"
     inkscape:window-y="0"
     inkscape:window-maximized="1"
     inkscape:current-layer="svg18" />
  <linearGradient
     id="a"
     gradientUnits="userSpaceOnUse"
     x1="408.09121321702"
     x2="407.77328121017"
     y1="547.94798816329"
     y2="498.36960892497">
    <stop
       offset="0"
       stop-color="#833cfc"
       id="stop2" />
    <stop
       offset="1"
       stop-color="#cd87de"
       id="stop4" />
  </linearGradient>
  <linearGradient
     id="b"
     gradientUnits="userSpaceOnUse"
     x1="410.571383014577"
     x2="410.476187185051"
     y1="503.762702762005"
     y2="545.111902774704">
    <stop
       offset="0"
       stop-color="#fff"
       id="stop7" />
    <stop
       offset="1"
       stop-color="#ececec"
       id="stop9" />
  </linearGradient>
  <g
     transform="matrix(1.0237615,0,0,1.0151209,-394.32935,-507.37053)"
     id="g16">
    <rect
       height="45.999973"
       ry="22.999987"
       width="46"
       x="385.57144"
       y="500.79803"
       id="rect12"
       style="fill:url(#a)" />
    <path
       d="m 413.51518,523.19852 a 1.8333324,1.8333324 0 0 1 -1.83335,-1.83334 1.8333324,1.8333324 0 0 1 1.83335,-1.83332 1.8333324,1.8333324 0 0 1 1.83333,1.83332 1.8333324,1.8333324 0 0 1 -1.83333,1.83334 m -3.66668,-4.8889 a 1.8333324,1.8333324 0 0 1 -1.83333,-1.83333 1.8333324,1.8333324 0 0 1 1.83333,-1.83332 1.8333324,1.8333324 0 0 1 1.83333,1.83332 1.8333324,1.8333324 0 0 1 -1.83333,1.83333 m -6.1111,0 a 1.8333324,1.8333324 0 0 1 -1.83333,-1.83333 1.8333324,1.8333324 0 0 1 1.83333,-1.83332 1.8333324,1.8333324 0 0 1 1.83333,1.83332 1.8333324,1.8333324 0 0 1 -1.83333,1.83333 m -3.66667,4.8889 a 1.8333324,1.8333324 0 0 1 -1.83332,-1.83334 1.8333324,1.8333324 0 0 1 1.83332,-1.83332 1.8333324,1.8333324 0 0 1 1.83334,1.83332 1.8333324,1.8333324 0 0 1 -1.83334,1.83334 m 6.72223,-11 a 10.999994,10.999994 0 0 0 -11.00001,11 10.999994,10.999994 0 0 0 11.00001,10.99998 1.8333324,1.8333324 0 0 0 1.83331,-1.83332 c 0,-0.47667 -0.18331,-0.90445 -0.47665,-1.22223 -0.28112,-0.32999 -0.46445,-0.75777 -0.46445,-1.22222 a 1.8333324,1.8333324 0 0 1 1.83333,-1.83332 h 2.16333 a 6.1111078,6.1111078 0 0 0 6.11112,-6.11112 c 0,-5.40222 -4.92556,-9.77777 -10.99999,-9.77777 z"
       id="path14"
       style="fill:url(#b)"
       inkscape:connector-curvature="0" />
  </g>
</svg>
