<svg xmlns="http://www.w3.org/2000/svg" xmlns:xlink="http://www.w3.org/1999/xlink" viewBox="0 0 48 48"><defs><path d="m86.78 294.82c-6.195 13.79-7.252 45.42-7.252 45.42 0 0 27.525 5.784 44.04 1.672 16.199-4.03 16.202-18.334 14.337-30.16-.065-.412-2.539 11.18-12.328 14.195-12.395 3.817-27.503-.195-27.503-.195 0 0-2.369-17.789 3.835-30.1 4.513-8.956 17.901-7.851 17.09-8.102-10.62-3.283-26.02-6.515-32.22 7.275" id="1"/><path d="m257.56 298.96c6.07 3.333 11.644-2.937 15.717-6.871 18.648-18.01 37.624-36.33 56.6-54.657 42.05-40.604 48.863-101.76 15.225-136.59-33.639-34.834-94.99-30.16-137.04 10.448l-58.11 56.11-10.06 9.712c-5.108 4.933 34.34 51.51 52.941 70.77 18.01 18.652 58.659 47.746 64.724 51.08" id="2"/><path d="m144.28 288.98c21.08 21.526 67.14 54.718 67.14 54.718 0 0 7.087 1.868 10.617-1.711 7.707-7.815 20.22-20.584 21.759-22.68 2.25-3.056.491-9.645.491-9.645 0 0-45.4-33.13-65.31-52.955-18.17-18.08-48.951-60.764-48.951-60.764 0 0-7.164-3.545-10.535-.054-2.34 2.423-14.428 14.941-21.602 22.369-3.16 3.272.112 10.847.112 10.847 0 0 26.794 39.973 46.28 59.873" id="3"/><path d="m262.32 113.41l63.945-1.164c0 0 1.715 10.549-6.282 21.02-7.997 10.47-14.08 13.556-29.811 9.267-15.733-4.289-27.853-29.12-27.853-29.12" id="4"/><path d="m239.31 245.46c6.288 4.058 14.08 1.781 18.219.891 4.141-.891 19.13-8.117 26.17-10.387 7.03-2.269 8.495 1.781 15.948 0 2.211-.528 33.07-6.01 36.22-26.323 1.323-8.537-7.757-13.01-7.757-13.01 0 0 3.878-5.813 0-13.569-3.831-7.662-13.952-6.506-13.952-6.506 0 0 1.747-9.895-9.317-12.885-11.06-2.99-18.07 6.832-18.07 6.832 0 0-8.857-.81-17.05 7.69-8.19 8.5-6.392 22.736-6.392 28.97 0 6.235-11 6.235-12.422 6.235-1.422 0-6.625-8.353-11.594-11.916-4.969-3.563-13.518-6.256-21.05 0-7.535 6.256-6 15.708 0 26.36 6 10.652 14.765 13.563 21.05 17.62" id="5"/><linearGradient y1="545.8" x2="0" y2="517.8" gradientUnits="userSpaceOnUse"><stop stop-color="#3889e9"/><stop offset="1" stop-color="#5ea5fb"/></linearGradient><linearGradient id="0" x1="-324.94" y1="649.74" x2="-328.21" y2="307.75" gradientUnits="userSpaceOnUse"><stop stop-color="#016ed4"/><stop offset="1" stop-color="#00b1ff"/></linearGradient></defs><g transform="matrix(.09294 0 0 .09294 3.369 4.532)" fill="none" fill-rule="evenodd"><circle cx="-325.89" cy="478.75" r="173.45" transform="matrix(1.48898 0 0 1.48898 708.95-502.57)" fill="url(#0)"/><g transform="matrix(1.14464 0 0 1.14464-34.19-33.28)" opacity=".938" fill="#fff" fill-opacity=".847"><use xlink:href="#1" width="48" height="48"/><use xlink:href="#2" width="48" height="48"/><use xlink:href="#3" width="48" height="48"/><use xlink:href="#4" width="48" height="48" fill="#fff" fill-opacity=".847"/><use xlink:href="#4" width="48" height="48" fill="#00a0f4" fill-opacity="1"/><use xlink:href="#5" transform="matrix(.99863-.05234.05234.99863-10.376 14.652)" width="48" height="48" fill="#fff" fill-opacity=".847"/><use xlink:href="#5" width="48" height="48" fill="#018fe9" fill-opacity="1"/></g></g></svg>