<?xml version="1.0" encoding="UTF-8" standalone="no"?>
<svg
   xmlns:dc="http://purl.org/dc/elements/1.1/"
   xmlns:cc="http://creativecommons.org/ns#"
   xmlns:rdf="http://www.w3.org/1999/02/22-rdf-syntax-ns#"
   xmlns:svg="http://www.w3.org/2000/svg"
   xmlns="http://www.w3.org/2000/svg"
   xmlns:xlink="http://www.w3.org/1999/xlink"
   xmlns:sodipodi="http://sodipodi.sourceforge.net/DTD/sodipodi-0.dtd"
   xmlns:inkscape="http://www.inkscape.org/namespaces/inkscape"
   height="48"
   width="48"
   version="1.1"
   id="svg48"
   sodipodi:docname="deepin-appstore.svg"
   inkscape:version="0.92.2pre0 (973e216, 2017-07-25)">
  <metadata
     id="metadata54">
    <rdf:RDF>
      <cc:Work
         rdf:about="">
        <dc:format>image/svg+xml</dc:format>
        <dc:type
           rdf:resource="http://purl.org/dc/dcmitype/StillImage" />
      </cc:Work>
    </rdf:RDF>
  </metadata>
  <defs
     id="defs52" />
  <sodipodi:namedview
     pagecolor="#ffffff"
     bordercolor="#666666"
     borderopacity="1"
     objecttolerance="10"
     gridtolerance="10"
     guidetolerance="10"
     inkscape:pageopacity="0"
     inkscape:pageshadow="2"
     inkscape:window-width="1360"
     inkscape:window-height="686"
     id="namedview50"
     showgrid="false"
     inkscape:zoom="6.9532167"
     inkscape:cx="19.321694"
     inkscape:cy="27.832395"
     inkscape:window-x="0"
     inkscape:window-y="0"
     inkscape:window-maximized="1"
     inkscape:current-layer="svg48" />
  <linearGradient
     id="a"
     gradientTransform="matrix(0.42672483,0,0,0.34028063,2.4895342,2.7276639)"
     gradientUnits="userSpaceOnUse"
     x1="4"
     x2="12"
     xlink:href="#f"
     y1="10"
     y2="10" />
  <linearGradient
     id="b"
     gradientTransform="matrix(-0.41952042,0,0,0.33491531,45.344338,2.8151724)"
     gradientUnits="userSpaceOnUse"
     x1="4"
     x2="12"
     xlink:href="#f"
     y1="10"
     y2="10" />
  <linearGradient
     id="c"
     gradientUnits="userSpaceOnUse"
     x1="23.94397143419"
     x2="24.180142393395"
     xlink:href="#f"
     y1="14.186271453698"
     y2="2.371127319435"
     gradientTransform="matrix(0.98351658,0,0,0.98038841,0.32369291,0.03922318)" />
  <linearGradient
     id="d"
     gradientUnits="userSpaceOnUse"
     x1="-31.595073020304"
     x2="-31.595073020304"
     y1="47.412830626498"
     y2="5.742575426498">
    <stop
       offset="0"
       stop-color="#3889e9"
       id="stop5" />
    <stop
       offset="1"
       stop-color="#5ea5fb"
       id="stop7" />
  </linearGradient>
  <linearGradient
     id="e"
     gradientUnits="userSpaceOnUse"
     x1="23.682471779044"
     x2="24.213398741599"
     y1="45.827691465433"
     y2="9.324428268015">
    <stop
       offset="0"
       stop-color="#ececec"
       id="stop10" />
    <stop
       offset="1"
       stop-color="#fff"
       id="stop12" />
  </linearGradient>
  <linearGradient
     id="f"
     gradientUnits="userSpaceOnUse"
     x1="23.94548"
     x2="24.192386"
     y1="13.740193"
     y2="1.387997">
    <stop
       offset="0"
       stop-color="#e6e6e6"
       id="stop15" />
    <stop
       offset="1"
       stop-color="#fff"
       id="stop17" />
  </linearGradient>
  <circle
     cx="-30.106962"
     cy="26.577595"
     fill="url(#d)"
     r="0"
     stroke-width="1.488223"
     id="circle20" />
  <path
     d="M 4.1964275,2.8004843 H 43.66508 V 11.353331 H 4.1964275 Z"
     id="path22"
     inkscape:connector-curvature="0"
     style="fill:#ececec;stroke-width:0.95652199" />
  <path
     d="M 4.1964275,2.8004843 H 43.66508 V 11.353331 H 4.1964275 Z"
     id="path24"
     inkscape:connector-curvature="0"
     style="fill-opacity:0.07843101;stroke-width:0.95652199" />
  <path
     d="M 4.1964332,9.5332771 H 7.6102318 V 5.4499094 L 4.1964332,2.7276643 Z"
     id="path26"
     inkscape:connector-curvature="0"
     style="fill:url(#a);stroke-width:0.38806301" />
  <path
     d="M 43.666255,9.5134791 H 40.310093 V 5.494495 l 3.356162,-2.6793225 z"
     id="path28"
     inkscape:connector-curvature="0"
     style="fill:url(#b);stroke-width:0.38172799" />
  <path
     d="M 7.6227559,5.4378528 4.1959824,7.6357344 V 9.8446053 L 6.5478699,11.353817 H 16.844727 Z"
     id="path30"
     inkscape:connector-curvature="0"
     style="fill-opacity:0.07843101;stroke-width:0.95652199" />
  <path
     d="m 45.381119,42.372179 c 0,1.526687 -1.152742,2.764911 -2.574042,2.764911 H 5.0544492 c -1.4212989,0 -2.5740416,-1.238224 -2.5740416,-2.764911 V 8.7324612 H 45.381119 Z"
     id="path32"
     style="fill:#e6e6e6;stroke-width:0.95652199"
     inkscape:connector-curvature="0" />
  <path
     d="M 45.379519,8.7336093 40.312606,5.4828488 v 3.2507605 z"
     id="path34"
     inkscape:connector-curvature="0"
     style="fill:#b3b3b3;stroke-width:0.34442401" />
  <g
     id="g42"
     transform="matrix(0.98351658,0,0,0.98038841,0.32369291,0.03922318)"
     style="stroke-width:0.97410333">
    <path
       d="M 2.1874255,8.8757617 7.421789,5.5068551 v 3.3689066 z"
       id="path36"
       inkscape:connector-curvature="0"
       style="fill:#999999;stroke-width:0.99200785" />
    <circle
       cx="33.251007"
       cy="14.018857"
       r="1.9994839"
       id="circle38"
       style="opacity:0.3;stroke-width:0.99200785" />
    <circle
       cx="14.463857"
       cy="14.25849"
       r="1.9994839"
       id="circle40"
       style="opacity:0.3;stroke-width:0.99200785" />
  </g>
  <path
     d="m 14.326801,12.672697 c -0.04831,-5.1960669 4.138388,-9.4479523 9.351429,-9.4961233 5.213041,-0.048152 9.478101,4.1252259 9.526421,9.3216943"
     style="clip-rule:evenodd;fill:none;stroke:url(#c);stroke-width:2.39938307;stroke-linecap:round;stroke-miterlimit:10"
     id="path44"
     inkscape:connector-curvature="0" />
  <path
     d="m 27.632532,19.767139 c -1.556592,-0.555591 -3.151088,-0.705467 -4.698391,-0.564684 -1.794104,0.138528 -2.669879,0.682008 -2.618044,0.583606 -2.933691,1.024898 -5.414022,3.229106 -6.562898,6.32045 -2.045537,5.505215 0.851791,11.593281 6.470061,13.597654 5.620588,2.004377 11.833794,-0.834147 13.879326,-6.339368 C 36.148903,27.85958 33.25157,21.772269 27.632532,19.767139 Z m -7.039464,18.94165 c -0.59881,-0.214212 -1.158163,-0.48671 -1.68502,-0.797814 2.618045,0.196803 6.034495,-0.393609 8.33843,-2.503196 0,0 4.392027,-3.433481 1.214638,-9.068139 0,0 0.512156,2.270821 -0.140806,4.138947 0,0 -0.622795,2.540293 -3.390921,3.278307 -4.077149,1.086965 -8.722934,-1.705387 -10.664804,-3.058034 -0.146219,-1.390505 -0.01625,-2.827169 0.504422,-4.229024 0.772107,-2.077039 2.223477,-3.697648 3.99669,-4.786127 -0.443304,3.034572 -0.09284,5.828435 0.41081,6.998664 0.676174,1.569134 1.851352,3.399409 4.143685,3.634065 2.292333,0.235407 3.556478,-1.863588 3.556478,-1.863588 1.175952,-1.748529 1.360085,-4.259294 1.342294,-4.31985 -0.01779,-0.06131 -0.313333,-0.22708 -0.313333,-0.22708 -0.791448,3.133728 -2.096598,4.180572 -2.096598,4.180572 -2.05792,1.94382 -3.515479,0.595712 -3.515479,0.595712 -1.566649,-1.646343 -0.469609,-4.322125 -0.469609,-4.322125 0.613508,-1.822711 2.401422,-4.49016 4.427619,-5.846601 0.337307,0.08177 0.676944,0.132464 1.010388,0.251308 1.226241,0.437514 2.300067,1.096806 3.208333,1.906724 -1.481536,0.529107 -3.873677,1.647863 -3.873677,1.647863 -3.791668,1.562324 -4.047742,3.925484 -4.047742,3.925484 -0.392249,2.435835 1.582886,1.404884 1.582886,1.404884 2.033158,-0.968881 3.031946,-3.988311 3.031946,-3.988311 -0.634394,-0.118087 -1.134173,0.07039 -1.134173,0.07039 -0.811565,1.959719 -2.467181,2.765858 -2.467181,2.765858 -0.651416,0.337592 -0.803055,-0.258872 -0.803055,-0.258872 -0.109856,-0.446597 0.471161,-0.523046 0.471161,-0.523046 0.902076,-0.342892 1.479218,-1.270143 1.60997,-1.649372 0.129975,-0.379982 0.372126,-0.409503 0.372126,-0.409503 1.236293,-0.386038 2.363508,-0.472331 2.363508,-0.472331 1.534931,-0.184691 3.884514,0.531371 3.884514,0.531371 0.526859,0.207404 1.032048,0.362577 1.480765,0.486717 0.861082,2.105043 0.997241,4.502273 0.143904,6.800341 -1.839748,4.95417 -7.433257,7.509597 -12.492169,5.705806 z"
     id="path11795"
     inkscape:connector-curvature="0"
     style="opacity:0.8;fill:#00b7ff;fill-rule:evenodd;stroke:none;stroke-width:0.16131568" />
</svg>
