<svg xmlns="http://www.w3.org/2000/svg" viewBox="0 0 48 48"><defs><linearGradient id="8" y1="541.16" x2="0" y2="533.06" gradientUnits="userSpaceOnUse"><stop stop-color="#0976da"/><stop offset="1" stop-color="#5de5f0"/></linearGradient><linearGradient id="5" x1="400.62" y1="530.78" x2="400.45" y2="519.87" gradientUnits="userSpaceOnUse"><stop stop-color="#eb4646"/><stop offset="1" stop-color="#ff8651"/></linearGradient><linearGradient id="7" x1="405.15" y1="540.41" x2="404.17" y2="532.99" gradientUnits="userSpaceOnUse"><stop stop-color="#4fd127"/><stop offset="1" stop-color="#c6f61a"/></linearGradient><linearGradient id="6" x1="403.66" y1="545.75" x2="402.65" y2="517.44" gradientUnits="userSpaceOnUse"><stop stop-color="#dce2ff"/><stop offset="1" stop-color="#f8feff"/></linearGradient><linearGradient id="4" x1="406.49" y1="534.79" x2="406.62" y2="528.59" gradientUnits="userSpaceOnUse"><stop stop-color="#ffbc00"/><stop offset="1" stop-color="#ffec00"/></linearGradient><linearGradient id="3" x1="394.52" y1="535.15" x2="394.27" y2="528.97" gradientUnits="userSpaceOnUse"><stop stop-color="#947ecb"/><stop offset="1" stop-color="#cab5ff"/></linearGradient><linearGradient id="0" x1="405.3" y1="530.91" x2="405.25" y2="523.04" gradientUnits="userSpaceOnUse"><stop stop-color="#fc6e51"/><stop offset="1" stop-color="#ff937d"/></linearGradient><linearGradient id="2" y1="530.78" x2="0" y2="523.38" gradientUnits="userSpaceOnUse"><stop stop-color="#ec87c0"/><stop offset="1" stop-color="#ffc1e4"/></linearGradient><linearGradient id="1" x1="400.45" y1="543.89" x2="400.62" y2="532.99" gradientUnits="userSpaceOnUse"><stop stop-color="#41b99b"/><stop offset="1" stop-color="#59ffd5"/></linearGradient></defs><g transform="matrix(1.61348 0 0 1.61348-622.39-833.94)"><circle r="14.875" cy="531.73" cx="400.62" fill="url(#6)"/><g fill-rule="evenodd"><path d="m400.45 543.89c4.644-3.427 5.21-7.04.165-10.906-5.898 4.307-3.738 7.688-.165 10.906" fill="url(#1)"/><path d="m400.45 519.87c4.644 3.427 5.21 7.04.165 10.906-5.898-4.307-3.738-7.688-.165-10.906" fill="url(#5)"/><path d="m412.68 531.73c-3.427 4.644-7.04 5.21-10.906.165 4.307-5.898 7.688-3.738 10.906-.165" fill="url(#4)"/><path d="m388.64 531.81c3.427 4.644 7.04 5.21 10.906.165-4.307-5.898-7.688-3.738-10.906-.165" fill="url(#3)"/><path d="m399.99 531.12c-5.758.399-8.529-1.987-7.191-8.2 7.283-.54 7.828 3.434 7.191 8.2" fill="url(#2)"/><path d="m392.66 540.9c5.758.399 8.529-1.987 7.191-8.2-7.283-.54-7.828 3.434-7.191 8.2" fill="url(#8)"/><path d="m401.41 531.18c5.758.399 8.529-1.987 7.191-8.2-7.283-.54-7.828 3.434-7.191 8.2" fill="url(#0)"/><path d="m408.73 540.92c-5.758.399-8.529-1.987-7.191-8.2 7.283-.54 7.828 3.434 7.191 8.2" fill="url(#7)"/></g></g></svg>