<svg xmlns="http://www.w3.org/2000/svg" viewBox="0 0 48 48"><defs><linearGradient id="0" gradientUnits="userSpaceOnUse" y1="-2.471" x2="0" y2="-51.27"><stop stop-color="#0a80fd"/><stop offset="1" stop-color="#56c5fa"/></linearGradient></defs><g transform="matrix(.22655 0 0 .22655-51.801 16.962)" enable-background="new"><circle r="24" cy="-26.715" cx="77.37" fill="url(#0)" transform="matrix(4.414 0 0 4.414-6.926 149)"/><path d="m334.68-25.561c-.13-.057-6.168 5.02-13.434 11.33-10.525 9.146-13.411 11.494-14.08 11.493-.463-.0001-7.927-.702-16.672-1.619-8.745-.917-15.954-1.607-16.02-1.537-.138.141-12.216 40.08-12.382 40.951-.072.375 4.763 4.663 16.591 14.729l16.672 14.163h5.989c3.282 0 6.567-.137 7.365-.234l1.457-.159-17.562-14.567c-9.665-7.995-17.552-14.726-17.562-14.973-.001-.238 1.633-5.423 3.642-11.573 2.01-6.149 4.01-12.521 4.532-14.162.945-2.96.97-3.01 1.942-2.994.539 0 6.941.722 14.163 1.619l13.11 1.619 10.278-8.821c5.653-4.884 10.646-9.226 11.09-9.632l.809-.728 8.093 6.96c4.439 3.841 9.404 8.183 11.09 9.631l3.075 2.59 14-1.7c7.711-.952 14.03-1.71 14.08-1.618.158.291 9.388 28.699 9.388 28.892 0 .102-7.943 6.764-17.643 14.809l-17.643 14.648 1.538.159c.822.102 4.128.225 7.365.234l5.908.075 16.591-14.165c9.133-7.762 16.625-14.214 16.672-14.405.07-.287-12.08-41.22-12.301-41.44-.038-.057-7.278.692-16.11 1.618-8.827.924-16.381 1.666-16.833 1.618-.579-.066-4.736-3.437-13.92-11.412-7.171-6.225-13.14-11.364-13.272-11.409zm-.162 24.684l-7.446 7.526-7.365 7.608v6.556c-.022 10.297 1.162 19.04 3.561 26.463 2.205 6.828 4.777 11.409 8.659 15.296 1.303 1.303 2.44 2.346 2.59 2.346.601 0 3.719-3.072 5.341-5.259 2.414-3.256 4.44-7.255 5.989-11.978 2.514-7.667 3.498-14.352 3.723-25.412l.162-8.01-7.607-7.608-7.607-7.526m45.644 15.376c-.076-.075-4.402.371-9.631.972-5.229.596-9.697 1.133-9.873 1.133-.207 0-.324 1.408-.324 3.966 0 13.478-4.85 29.724-12.06 40.465-1.67 2.488-1.832 2.957-1.133 2.509 4.669-3 37.932-31.14 37.794-31.968-.151-.911-4.633-16.933-4.775-17.08m-91.13.159c-.125.137-1.227 4.107-2.509 8.82l-2.347 8.499.809.81c7.812 6.839 29.25 24.793 34.31 28.73 1.757 1.365 3.268 2.396 3.318 2.346.05-.057-.762-1.404-1.861-3.075-7.06-10.727-11.296-24.808-11.978-39.817-.111-2.433-.305-4.369-.405-4.369-.099 0-4.429-.539-9.631-1.134-5.202-.595-9.586-.942-9.712-.807m28.08 55.19l-17.643.075 17.562 8.982c9.625 4.913 17.552 8.853 17.643 8.821.09-.057 8.03-4.02 17.643-8.903l17.481-8.901-17.562-.075c-9.661-.053-25.456-.053-35.12.003z" fill-opacity=".72"/></g></svg>