<svg xmlns="http://www.w3.org/2000/svg" xmlns:xlink="http://www.w3.org/1999/xlink" viewBox="0 0 48 48"><defs><linearGradient id="3"><stop stop-color="#2e3e46"/><stop offset="1" stop-color="#435a64"/></linearGradient><linearGradient xlink:href="#3" id="2" x1="-1092.91" y1="203.1" x2="-1060.26" y2="104.85" gradientUnits="userSpaceOnUse" gradientTransform="matrix(.35784 0 0 .3517 379.97-34.752)"/><linearGradient xlink:href="#3" id="0" x1="29.952" y1="43.667" x2="29.858" y2="25.11" gradientUnits="userSpaceOnUse"/><linearGradient id="1" x1="13.223" y1="44.685" x2="8.213" y2="3.112" gradientUnits="userSpaceOnUse"><stop stop-color="#016ed4"/><stop offset="1" stop-color="#00b1ff"/></linearGradient></defs><g transform="matrix(.99999 0 0 .99999 11.629.882)" enable-background="new"><rect width="32.12" height="40.32" x="-13.85" y="4.831" transform="matrix(.94958-.31353.30858.9512 0 0)" fill="url(#2)" rx=".984"/><rect width="35.798" height="44.08" x="-6.872" y="2.734" transform="matrix(.99188-.12716.13593.99072 0 0)" fill="url(#1)" rx="1.076"/><g fill="#fff" fill-opacity=".851"><path d="m7.733 17.926c-.367-.251-.867-.157-1.118.21l-4.071 5.95c-.12.176-.166.393-.127.602.039.21.16.395.336.515l5.925 4.053c.183.125.4.165.602.127.202-.038.39-.153.515-.336.251-.367.157-.867-.21-1.118l-5.261-3.599 3.617-5.286c.251-.367.157-.867-.21-1.117"/><path d="m26.396 19.589l-5.926-4.053c-.366-.251-.867-.157-1.117.21-.251.367-.157.867.21 1.118l5.262 3.599-3.617 5.286c-.251.367-.157.867.21 1.118.183.125.4.165.602.127.202-.038.39-.153.515-.336l4.071-5.95c.12-.176.166-.393.127-.602-.04-.209-.16-.395-.337-.515"/><path d="m17.76 15.828c-.398-.196-.88-.032-1.076.367l-5.684 11.557c-.196.398-.032.88.367 1.076.162.08.338.1.502.069.24-.045.458-.199.574-.436l5.684-11.557c.196-.398.032-.88-.366-1.076"/></g><circle transform="matrix(.99409.10856-.10856.99409 0 0)" cx="30.29" cy="34.23" r="9.767" fill="url(#0)"/><path d="m32.382 36.425c-.042-.055-.096-.087-.164-.098l-1.43-.219c-.078-.25-.185-.505-.32-.766.094-.13.234-.314.422-.551.187-.237.32-.41.398-.52.042-.057.062-.117.062-.18 0-.073-.018-.13-.055-.172-.187-.266-.617-.708-1.289-1.328-.062-.052-.128-.078-.195-.078-.078 0-.141.023-.188.07l-1.109.836c-.214-.109-.448-.206-.703-.289l-.219-1.437c-.005-.068-.035-.124-.09-.168-.055-.044-.118-.066-.191-.066h-1.734c-.151 0-.245.073-.281.219-.068.26-.143.745-.227 1.453-.245.078-.482.177-.711.297l-1.078-.836c-.068-.052-.135-.078-.203-.078-.115 0-.361.186-.738.559-.378.372-.634.652-.77.84-.047.068-.07.128-.07.18 0 .063.026.125.078.187.349.422.628.781.836 1.078-.13.24-.232.479-.305.719l-1.453.219c-.057.001-.107.044-.148.102-.042.057-.063.117-.063.18v1.734c0 .068.021.129.063.184.042.055.096.087.164.098l1.43.211c.073.255.18.513.32.773-.094.13-.234.314-.422.551-.187.237-.32.41-.398.52-.042.057-.063.117-.063.18 0 .068.018.128.055.18.203.281.633.719 1.289 1.313.057.057.122.086.195.086.078 0 .143-.023.195-.07l1.102-.836c.214.109.448.206.703.289l.219 1.437c.005.068.035.124.09.168.055.044.119.066.191.066h1.734c.151 0 .245-.073.281-.219.068-.26.143-.745.226-1.453.245-.078.482-.177.711-.297l1.078.844c.073.047.141.07.203.07.114 0 .359-.185.734-.555.375-.37.633-.651.773-.844.047-.052.07-.112.07-.18 0-.068-.026-.133-.078-.195-.375-.458-.654-.818-.836-1.078.104-.193.206-.43.305-.711l1.445-.219c.062-.001.115-.044.156-.102.042-.057.062-.117.062-.18v-1.734c0-.068-.021-.129-.062-.184m-4.523 2.449c-.391.391-.862.586-1.414.586-.552 0-1.023-.195-1.414-.586-.391-.391-.586-.862-.586-1.414 0-.552.195-1.023.586-1.414.391-.391.862-.586 1.414-.586.552 0 1.024.195 1.414.586.391.391.586.862.586 1.414 0 .552-.195 1.023-.586 1.414" fill="#d9eefc"/></g></svg>