<svg xmlns="http://www.w3.org/2000/svg" viewBox="0 0 48 48"><defs><linearGradient gradientUnits="userSpaceOnUse" y2="517.8" x2="0" y1="545.8"><stop stop-color="#3889e9"/><stop offset="1" stop-color="#5ea5fb"/></linearGradient><linearGradient y2="517.7" x2="387.16" y1="545.87" x1="414.43" gradientUnits="userSpaceOnUse" id="0"><stop stop-color="#80256c"/><stop offset="1" stop-color="#4567bd"/></linearGradient></defs><g transform="matrix(.99999 0 0 .99999-38.37 25.882)" enable-background="new"><g transform="matrix(1.71429 0 0 1.71429-624.32-913.53)"><circle r="14" cy="531.8" cx="400.57" fill="url(#0)"/><circle cx="400.57" cy="531.8" r="14" fill="#5ea5fb" fill-opacity="0"/></g><path d="m283.9 92.85c-36.582-49.35-73.69-89.27-74.06-89.66-1.892-2.029-4.54-3.182-7.313-3.182-2.774 0-5.423 1.152-7.314 3.182-.371.397-37.478 40.32-74.06 89.66-49.971 67.4-75.31 119.73-75.31 155.51 0 86.4 70.29 156.69 156.68 156.69 86.4 0 156.68-70.29 156.68-156.69 0-35.787-25.338-88.11-75.31-155.51" fill="#fff" fill-opacity=".772" transform="matrix(.06913 0 0 .06913 48.37-15.175)"/></g></svg>