<svg xmlns="http://www.w3.org/2000/svg" xmlns:xlink="http://www.w3.org/1999/xlink" viewBox="0 0 48 48"><defs><filter color-interpolation-filters="sRGB"><feGaussianBlur stdDeviation="1.71"/></filter><linearGradient y2="18.286" x2="22.571" y1="31.24" x1="20.599" gradientUnits="userSpaceOnUse" id="2"><stop stop-color="#ff9300"/><stop offset="1" stop-color="#ffd702"/></linearGradient><linearGradient id="1" x1="11.941" y1="216.07" x2="10.719" y2="116.52" gradientUnits="userSpaceOnUse"><stop stop-color="#2e3e46"/><stop offset="1" stop-color="#435a64"/></linearGradient><linearGradient y1="92.54" x2="0" y2="7.02" id="0" gradientUnits="userSpaceOnUse" gradientTransform="scale(1.0059.99417)"><stop/><stop offset="1" stop-opacity=".588"/></linearGradient><linearGradient xlink:href="#0" gradientUnits="userSpaceOnUse" gradientTransform="scale(1.0059.99417)" y1="92.54" x2="0" y2="7.02"/></defs><rect y="115.15" x="-39.36" height="100.46" width="97.1" fill="url(#1)" fill-rule="evenodd" rx="6.241" stroke-width="1" transform="matrix(.4778 0 0 .4778 19.607-55.02)"/><g transform="matrix(1.08 0 0 1.08.651-2.434)" color="#000"><g fill="#fff"><path d="m14.476 9.714v2.857h-1.905v2.872h1.905v17.11h-1.905v2.872h1.905v1.905h-1.429l1.905 3.81 1.905-3.81h-1.429v-1.905h8.571c6.331 0 11.429-5.097 11.429-11.429 0-6.331-5.097-11.429-11.429-11.429h-8.571v-2.857h-.952m.952 5.729h8.571c4.79 0 8.557 3.766 8.557 8.557 0 4.79-3.766 8.557-8.557 8.557h-8.571v-17.11"/><path transform="scale(-1 1)" d="m-26.857 24h19.05v.952h-19.05z"/><path d="m30.667 24.476l-3.81 1.905v-3.81z"/></g><path fill="#383838" d="m13.524 7.81h2.857v2.857h-2.857z"/><path fill="#fff" stroke="#fff" d="m14 8.286h1.905v1.905h-1.905z"/><path d="m21.14 18.286l-4.762 9.524h9.524l-4.762-9.524m0 3.333l2.381 4.762h-4.762l2.381-4.762" fill="url(#2)"/></g></svg>