<svg xmlns="http://www.w3.org/2000/svg" viewBox="0 0 48 48"><defs><linearGradient gradientUnits="userSpaceOnUse" y2="520.78" x2="361.83" y1="549.48" x1="361.86" id="0"><stop stop-color="#1074f5"/><stop offset="1" stop-color="#02befd"/></linearGradient></defs><g transform="matrix(1.41506 0 0 1.41506-487.69-733.95)"><path d="m373.56 524.7c-3.198-2.603-7.445-4.04-11.958-4.04-4.513 0-8.759 1.433-11.958 4.04-3.226 2.625-5 6.125-5 9.853 0 3.558 1.62 6.907 4.572 9.488-.053.12-.096.246-.122.378l-.97 4.772c-.115.567.04.905.19 1.089.174.212.431.33.725.33.222 0 .46-.065.709-.195l5.642-2.931c1.954.629 4.054.958 6.215.958 4.513 0 8.759-1.433 11.958-4.04 3.226-2.625 5-6.124 5-9.853 0-3.728-1.777-7.227-5-9.853" fill="url(#0)"/><g transform="matrix(.8 0 0 .8 111.58 106.42)" fill="#fff" fill-opacity=".847" fill-rule="evenodd"><circle cx="303.92" cy="535.63" r="3.533" opacity=".9"/><circle cx="312.53" cy="535.63" r="3.533" opacity=".9"/><circle cx="321.16" cy="535.63" r="3.533" opacity=".9"/></g></g></svg>