<svg xmlns="http://www.w3.org/2000/svg" viewBox="0 0 48 48"><defs><linearGradient id="0" x1="11.321" y1="15.902" x2="10.596" y2="-9.461" gradientUnits="userSpaceOnUse"><stop stop-color="#ff9300"/><stop offset="1" stop-color="#ffd702"/></linearGradient></defs><g transform="matrix(1.83213 0 0 1.83213 4.339 17.832)" enable-background="new"><path d="m-2.02 2.536c-.463.463-.463 1.215 0 1.677l11.914 11.914c.463.463 1.215.463 1.677 0l11.914-11.914c.463-.463.463-1.215 0-1.677l-11.914-11.914c-.463-.463-1.215-.463-1.677 0z" fill="url(#0)"/><g fill-opacity=".851"><path d="m12.875-2.792v1.453c0 .601-.234 1.166-.658 1.589l-4.243 4.22c-.671.669-1.04 1.548-1.081 2.487h-1.518l2.25 2.25 2.25-2.25h-1.484c.039-.539.257-1.04.642-1.427l4.244-4.219c.709-.709 1.099-1.649 1.099-2.651v-1.453h-1.5"/><path d="m14.357 6.958c-.041-.939-.412-1.818-1.083-2.49l-.836-.831-1.063 1.058.841.836c.387.385.603.888.643 1.427h-1.484l2.25 2.25 2.25-2.25h-1.518"/></g></g></svg>