<svg xmlns="http://www.w3.org/2000/svg" viewBox="0 0 48 48"><defs><linearGradient id="0" x1="-1092.91" y1="203.1" x2="-1060.26" y2="104.85" gradientUnits="userSpaceOnUse" gradientTransform="matrix(.35533 0 0 .34923 314.86-49.68)"><stop stop-color="#f2b333"/><stop offset="1" stop-color="#fcde3f"/></linearGradient><linearGradient id="1" x1="-50.952" y1="41.34" x2="-55.927" y2=".059" gradientUnits="userSpaceOnUse"><stop stop-color="#1584d8"/><stop offset="1" stop-color="#1cb2ff"/></linearGradient></defs><g transform="matrix(.99999 0 0 .99999 76.3-4.098)" enable-background="new"><rect width="31.896" height="40.04" x="-76.19" y="-10.375" transform="matrix(.94958-.31353.30858.9512 0 0)" fill="url(#0)" rx=".977"/><rect width="35.547" height="43.77" x="-70.905" y="-.317" transform="matrix(.99188-.12716.13593.99072 0 0)" fill="url(#1)" rx="1.068"/><path d="m-43.18 23.74c-.461-.081-.896.212-.977.673l-2.115 12.1c-.216 1.236-.839 2.17-1.854 2.882-1.014.713-2.119.979-3.37.761-1.221-.213-2.187-.827-2.9-1.841-.712-1.014-.962-2.132-.749-3.352l.799-4.57.427-2.441 1.051-6.01.505-2.887.005-.03.005-.03c.143-.819.569-1.477 1.248-1.96.688-.489 1.453-.682 2.302-.533.849.148 1.504.589 1.984 1.282.475.685.652 1.449.509 2.267l-.005.03-.001.059-2.36 13.501c-.148.848-.918 1.389-1.766 1.241-.819-.143-1.369-.945-1.226-1.763l1.236-7.07c.081-.461-.214-.881-.676-.962-.461-.081-.881.214-.962.676l-1.236 7.07c-.153.878.014 1.674.518 2.391.504.717 1.181 1.142 2.059 1.296.878.153 1.668-.023 2.391-.518.706-.483 1.139-1.166 1.298-2.074l2.37-13.56.005-.03c.224-1.28-.05-2.459-.794-3.529-.751-1.079-1.768-1.735-3.048-1.959-1.28-.224-2.459.049-3.532.809-1.063.754-1.72 1.77-1.944 3.05l-.005.03-.51 2.917-1.051 6.01-.427 2.441-.799 4.57c-.294 1.682.052 3.215 1.022 4.597.97 1.381 2.295 2.227 3.977 2.521 1.682.294 3.239-.017 4.638-.999 1.399-.983 2.234-2.34 2.523-3.992l2.115-12.1c.081-.462-.214-.881-.675-.962" fill="#fff" fill-opacity=".85"/></g></svg>