<svg xmlns="http://www.w3.org/2000/svg" viewBox="0 0 48 48"><defs><linearGradient id="0" y1="546.93" x2="0" y2="516.48" gradientUnits="userSpaceOnUse"><stop stop-color="#197cf1"/><stop offset="1" stop-color="#20bcfa"/></linearGradient></defs><g transform="matrix(.73156 0 0 .73108 7.293 8.661)" fill="#fff" fill-opacity=".878"><circle cx="400.57" cy="531.8" r="14" transform="matrix(2.22968 0 0 2.23114-870.31-1165.53)" fill="url(#0)" stroke="url(#0)" fill-opacity="1" stroke-width="1.427"/><path d="m43.95 26.14l-5.993-5.996c-.132-.131-.312-.206-.496-.206-.188 0-.365.074-.496.206l-5.995 5.994c-.61.611-.792 1.545-.462 2.344.331.797 1.107 1.334 1.972 1.334h1.021c-.936 3.01-3.152 5.564-6.03 6.887l-1.469-25.716c1.671-1.053 2.783-2.918 2.783-5.04 0-3.287-2.663-5.952-5.949-5.952-3.284 0-5.949 2.663-5.949 5.948 0 2.122 1.112 3.981 2.783 5.03l-1.469 25.725c-2.877-1.322-5.095-3.875-6.03-6.887h1.021c.863 0 1.643-.537 1.973-1.334.331-.799.147-1.725-.462-2.336l-5.995-5.996c-.131-.132-.312-.208-.496-.208-.188 0-.365.072-.497.204l-5.995 5.995c-.61.61-.793 1.545-.462 2.342.331.797 1.107 1.334 1.972 1.334h.807c1.549 8.93 9.375 15.853 18.798 15.853 9.423 0 17.25-6.923 18.799-15.853h.806c.863 0 1.643-.537 1.973-1.334.33-.798.147-1.732-.465-2.342" fill="#fff" fill-opacity=".878"/></g></svg>