<svg xmlns="http://www.w3.org/2000/svg" viewBox="0 0 48 48"><defs><linearGradient id="0" x1="13.223" y1="44.685" x2="8.213" y2="3.112" gradientUnits="userSpaceOnUse"><stop stop-color="#016ed4"/><stop offset="1" stop-color="#00b1ff"/></linearGradient><linearGradient id="1" x1="-1092.91" y1="203.1" x2="-1060.26" y2="104.85" gradientUnits="userSpaceOnUse" gradientTransform="matrix(.35784 0 0 .3517 379.97-34.752)"><stop stop-color="#2e3e46"/><stop offset="1" stop-color="#435a64"/></linearGradient></defs><g transform="matrix(.22655 0 0 .22655-51.801 16.962)" enable-background="new"><g transform="matrix(4.414 0 0 4.414 279.98-70.993)"><rect width="32.12" height="40.32" x="-13.85" y="4.831" transform="matrix(.94958-.31353.30858.9512 0 0)" fill="url(#1)" rx=".984"/><rect width="35.798" height="44.08" x="-6.872" y="2.734" transform="matrix(.99188-.12716.13593.99072 0 0)" fill="url(#0)" rx="1.076"/></g><path d="m342.1-15.878l-16.702 4.179 10.228 69.29 16.406-4.896-4.372-29.614 27.19 29.482 16.683-8.173-27.556-28.1 18.697-33.21-18.486-1.459-17.766 33.07-4.323-30.574m-35.681 22.585c-.19.028-.401.166-.53.276l-5.529 7.667c-.235.329-.276.836-.021 1.145l9.506 11.539c-1.031 2.507-1.668 5.18-2.067 7.916l-13.716 5.071c-.379.163-.694.453-.635.856l1.375 9.313c.058.392.488.779.882.818l14.278 1.318c1.183 2.929 2.723 5.651 4.617 8.07l-6.222 13.291c-.172.376.022.847.351 1.09l7.481 5.555c.317.227.839.292 1.146.029l11.352-9.478c2.663 1.053 5.409 1.855 8.318 2.197l5.04 13.529c.142.395.453.696.855.637l9.313-1.375c.393-.058.784-.486.821-.884l1.291-14.464c2.768-1.204 5.378-2.896 7.673-4.748l13.503 6.381c.37.164.846-.013 1.089-.359l5.557-7.482c.237-.329.276-.837.022-1.144l-5.57-6.789-1.408.775c-.196.141-.434.064-.587-.111 0 0-3.447-3.852-7.949-8.724-3.147 9.314-11.299 16.514-21.696 18.05-14.772 2.181-28.572-7.903-30.753-22.676-1.604-10.867 3.543-21.18 12.23-26.737l-1.017-6.892c-1.605.847-3.11 1.686-4.54 2.765-.0001 0-.182.027-.186.028l-13.689-6.355c-.185-.079-.399-.149-.586-.101" fill="#fcfcfc" fill-opacity=".846"/></g></svg>