<svg xmlns="http://www.w3.org/2000/svg" viewBox="0 0 48 48"><defs><linearGradient gradientTransform="matrix(1.09091 0 0 1.06528-383.34-560.93)" gradientUnits="userSpaceOnUse" y2="507.8" x2="0" y1="542.8" id="0"><stop stop-color="#2c3e50"/><stop offset="1" stop-color="#5b7085"/></linearGradient></defs><g transform="matrix(.22655 0 0 .22655-51.801 16.962)" enable-background="new"><rect y="-19.985" x="38.38" height="36.22" width="48" fill="url(#0)" rx="1.704" stroke-width="1.714" transform="matrix(4.414 0 0 4.414 59.28 39.36)"/><g transform="matrix(1.04006 0 0 1.04006 152.58 36.07)" fill="#fff" stroke="#fff"><g transform="matrix(8.90487 0 0 8.90487 207.83-103.31)" stroke-linejoin="round" stroke-linecap="round" stroke-width=".175"><path d="m5.085 13.1c-.031-.029-.07-.044-.118-.044h-4.923c-.048 0-.087.015-.118.044-.031.029-.046.067-.046.112v.312c0 .046.015.083.046.112.031.029.07.044.118.044h4.923c.048 0 .087-.015.118-.044.031-.029.046-.067.046-.112v-.312c0-.046-.015-.083-.046-.112z"/><path d="m-2.792 8.489c-.034-.033-.074-.049-.118-.049-.044 0-.084.016-.118.049l-.256.244c-.034.033-.051.07-.051.112 0 .042.017.08.051.112l2.02 1.917-2.02 1.918c-.034.033-.051.07-.051.112 0 .042.017.08.051.112l.256.244c.034.033.073.049.118.049.044 0 .084-.016.118-.049l2.39-2.274c.034-.033.051-.07.051-.112 0-.042-.017-.08-.051-.112l-2.39-2.274z"/></g><path d="m120.81 20.664q-10.732 0-17.659-7.22-6.927-7.317-6.927-18.244 0-10.927 6.927-18.15 6.927-7.317 17.659-7.317 8 0 13.268 3.902 5.268 3.902 7.707 9.854l-8.195 3.415q-3.707-8.976-13.366-8.976-5.951 0-10.537 4.878-4.488 4.878-4.488 12.39 0 7.512 4.488 12.39 4.585 4.878 10.537 4.878 10.05 0 13.854-8.976l8 3.415q-2.439 5.854-7.903 9.854-5.366 3.902-13.366 3.902z"/><path d="m160.37 17.737q-1.951 1.951-4.683 1.951-2.732 0-4.683-1.951-1.951-1.951-1.951-4.683 0-2.732 1.951-4.683 1.951-1.951 4.683-1.951 2.732 0 4.683 1.951 1.951 1.951 1.951 4.683 0 2.732-1.951 4.683zm0-35.708q-1.951 1.951-4.683 1.951-2.732 0-4.683-1.951-1.951-1.951-1.951-4.683 0-2.732 1.951-4.683 1.951-1.951 4.683-1.951 2.732 0 4.683 1.951 1.951 1.951 1.951 4.683 0 2.732-1.951 4.683z"/></g></g></svg>