<svg xmlns="http://www.w3.org/2000/svg" viewBox="0 0 48 48"><defs><filter color-interpolation-filters="sRGB"><feGaussianBlur stdDeviation="1.71"/></filter><linearGradient gradientTransform="scale(1.0059.99417)" gradientUnits="userSpaceOnUse" y2="7.02" x2="0" y1="92.54"><stop/><stop offset="1" stop-opacity=".588"/></linearGradient><linearGradient gradientUnits="userSpaceOnUse" y2="-26.05" x2="-125.19" y1="73.5" x1="-123.97" id="0" gradientTransform="matrix(1.03458 0 0 1 4.382 0)"><stop stop-color="#c52828"/><stop offset="1" stop-color="#ff5454"/></linearGradient></defs><path d="m-170.49-27.421h87.55c3.577 0 6.458 2.783 6.458 6.241v87.978c0 3.457-2.88 6.241-6.457 6.241h-87.55c-3.577 0-6.457-2.783-6.457-6.241v-87.978c0-3.457 2.88-6.241 6.457-6.241" fill="url(#0)" fill-rule="evenodd" transform="matrix(.4778 0 0 .4778 84.55 13.1)"/><g transform="matrix(1.0625 0 0 1.0625-143.67-19.06)" fill="#fff" fill-opacity=".851"><path d="m135.21807 24.523037a16 16 0 0 1 13.90622 7.971628 16 16 0 0 1 .0159 16.02901 16 16 0 0 1 -13.89037 7.999188"/><path d="m180.3946 24.523073a16 16 0 0 0 -13.90621 7.971629 16 16 0 0 0 -.0159 16.02901 16 16 0 0 0 13.89037 7.999189"/></g></svg>