<svg xmlns="http://www.w3.org/2000/svg" viewBox="0 0 48 48"><defs><filter color-interpolation-filters="sRGB"><feGaussianBlur stdDeviation="1.71"/></filter><linearGradient gradientTransform="scale(1.0059.99417)" gradientUnits="userSpaceOnUse" y2="7.02" x2="0" y1="92.54"><stop/><stop offset="1" stop-opacity=".588"/></linearGradient><linearGradient gradientUnits="userSpaceOnUse" y2="-26.05" x2="-125.19" y1="73.5" x1="-123.97" id="0" gradientTransform="matrix(1.03458 0 0 1 4.382 0)"><stop stop-color="#c52828"/><stop offset="1" stop-color="#ff5454"/></linearGradient></defs><path d="m-170.49-27.421h87.55c3.577 0 6.458 2.783 6.458 6.241v87.978c0 3.457-2.88 6.241-6.457 6.241h-87.55c-3.577 0-6.457-2.783-6.457-6.241v-87.978c0-3.457 2.88-6.241 6.457-6.241" fill="url(#0)" fill-rule="evenodd" transform="matrix(.4778 0 0 .4778 84.55 13.1)"/><path d="m6.939 8c-.98 3.131-1.659 7.39 1.445 10.758 3.106 3.369 8.207 4.137 8.621 5.572 2.075-.417 4.602.111 4.602.111 0 0-1.434-3.997-4.602-7.371-3.168-3.372-6.9-4.885-10.07-9.07m34.498.961c0 0-10.558 3.466-13.762 7.654-3.205 4.187-2.186 6.786-4.41 8.295-.922.626-3.01-.151-4.715-.076-1.367.062-2.978.373-3.869 1.563-.449.599-.391 1-.43 1.457-.717 1.371-.227 2.148-.227 2.148 0 0 .388-.793 1.02-.752.632.036 1.014.079 1.418.031.404-.05.663-.489 1.371-.436.777.055 1.74.648 1.771 1.764.052 1.742-1.452 3.03-1.334 3.764.128.793-.057 1.047-.174 1.361-.165.447-2.795-1.022-3.432.094.216-.046.8-.009 1.145.113-.382.171-.566.413-.564.734.354-.382 1.059-.242 1.301-.211-.409.112-.589.534-.678.689 1.018-.466 2.559.018 2.912.807.396-.637.129-1.436.129-1.436 0 0 .282-.359.848-.377-.169.57.053.728.076 1.018.022.288-.315 1-.629 1.195-.315.186-1.906-.019-2.303.916.238-.154 1.088-.369 1.301-.283-.254.113-.48.326-.508.793.452-.51 1.357-.545 1.541-.451-.113.127-.368.199-.453.664.552-.312 1.64-.906 2.971-.354-.086-.807-1.047-1.018-1.047-1.018 0 0-.128-1.246.936-1.414.628-.101 1.736-2.358 2.273-2.494.537-.133.679.474.586.787-.094.312-1.236 2.039-1.236 2.039 0 0 1.962 1.734 4.939 1.85 2.981.119 5.05-1.768 5.05-1.768 0 0-2.335-1.851-4.332-3.436-1.997-1.587-1.547-4.02-1.547-4.02 0 0 2.712.006 3.691-2.02 2.413-4.978 8.597-4.03 10.371-11.424.998-4.185-.004-7.771-.004-7.771" fill="#fae1e1" fill-opacity=".836"/></svg>