<svg xmlns="http://www.w3.org/2000/svg" width="48" viewBox="0 0 13.546667 13.546667" height="48"><defs><linearGradient id="0" y1="56.36" x2="0" y2="24.897" gradientUnits="userSpaceOnUse"><stop stop-color="#197cf1"/><stop offset="1" stop-color="#20bcfa"/></linearGradient></defs><text x="3.768" y="6.842" font-family="URW Chancery L" font-style="italic" word-spacing="0" line-height="125%" font-weight="bold" letter-spacing="0" font-size="14.387"><tspan x="3.768" y="6.842"/></text><path transform="matrix(.45156 0 0 .45156 21.549-11.954)" d="m-28.986 26.475c-1.55 0-3.715.896-4.811 1.992l-13.1 13.1c-1.096 1.096-1.096 2.89 0 3.986l10.11 10.1c1.096 1.096 2.888 1.096 3.984 0l13.1-13.1c1.096-1.096 1.992-3.261 1.992-4.811v-8.453c0-1.55-1.266-2.818-2.816-2.818h-8.455m4.709 3.75c1.553 0 2.813 1.259 2.813 2.813 0 1.553-1.259 2.813-2.813 2.813-1.553 0-2.813-1.259-2.813-2.813 0-1.553 1.259-2.813 2.813-2.813" fill="url(#0)"/><path d="m339.83 546.88q-4.142 0-6.754-2.761-2.575-2.761-2.575-6.978 0-3.993 2.5-6.866 2.537-2.873 6.455-2.873 4.067 0 6.493 2.649 2.463 2.649 2.463 7.09l-.037.634h-14.441q.149 2.761 1.828 4.366 1.716 1.605 3.993 1.605 3.694 0 5-3.134l3.06 1.269q-.896 2.127-2.948 3.582-2.052 1.418-5.04 1.418m4.926-11.941q-.112-1.567-1.455-2.985-1.306-1.418-3.918-1.418-1.903 0-3.321 1.194-1.381 1.194-1.903 3.209h10.597" fill="#fff" fill-opacity=".85" transform="matrix(.27819 0 0 .27819-88.47-141.53)"/></svg>