<?xml version="1.0" encoding="UTF-8" standalone="no"?>
<svg
   xmlns:dc="http://purl.org/dc/elements/1.1/"
   xmlns:cc="http://creativecommons.org/ns#"
   xmlns:rdf="http://www.w3.org/1999/02/22-rdf-syntax-ns#"
   xmlns:svg="http://www.w3.org/2000/svg"
   xmlns="http://www.w3.org/2000/svg"
   xmlns:xlink="http://www.w3.org/1999/xlink"
   xmlns:sodipodi="http://sodipodi.sourceforge.net/DTD/sodipodi-0.dtd"
   xmlns:inkscape="http://www.inkscape.org/namespaces/inkscape"
   height="48"
   width="48"
   version="1.1"
   id="svg35"
   sodipodi:docname="eclipse.svg"
   inkscape:version="0.92.2pre0 (973e216, 2017-07-25)">
  <metadata
     id="metadata41">
    <rdf:RDF>
      <cc:Work
         rdf:about="">
        <dc:format>image/svg+xml</dc:format>
        <dc:type
           rdf:resource="http://purl.org/dc/dcmitype/StillImage" />
      </cc:Work>
    </rdf:RDF>
  </metadata>
  <defs
     id="defs39" />
  <sodipodi:namedview
     pagecolor="#ffffff"
     bordercolor="#666666"
     borderopacity="1"
     objecttolerance="10"
     gridtolerance="10"
     guidetolerance="10"
     inkscape:pageopacity="0"
     inkscape:pageshadow="2"
     inkscape:window-width="1366"
     inkscape:window-height="704"
     id="namedview37"
     showgrid="false"
     inkscape:zoom="8.4808522"
     inkscape:cx="58.372881"
     inkscape:cy="24"
     inkscape:window-x="0"
     inkscape:window-y="0"
     inkscape:window-maximized="1"
     inkscape:current-layer="svg35" />
  <linearGradient
     id="a"
     gradientUnits="userSpaceOnUse"
     x1="-7.044737"
     x2="-7.576138"
     xlink:href="#d"
     y1="44.835745"
     y2="9.462187" />
  <linearGradient
     id="b"
     gradientUnits="userSpaceOnUse"
     x1="10.847666499499"
     x2="9.904126638771"
     y1="55.010849917158"
     y2="36.781590461073">
    <stop
       offset="0"
       stop-color="#cdd0d1"
       id="stop3" />
    <stop
       offset="1"
       stop-color="#f6f6f7"
       id="stop5" />
  </linearGradient>
  <linearGradient
     id="c"
     gradientUnits="userSpaceOnUse"
     x1="14.428456"
     x2="5.505778"
     xlink:href="#e"
     y1="47.467573"
     y2="39.642166" />
  <linearGradient
     id="d">
    <stop
       offset="0"
       stop-color="#c98cbb"
       id="stop9" />
    <stop
       offset="1"
       stop-color="#a9b7da"
       id="stop11" />
  </linearGradient>
  <linearGradient
     id="e">
    <stop
       offset="0"
       stop-color="#40a"
       id="stop14" />
    <stop
       offset="1"
       stop-color="#7575b9"
       id="stop16" />
  </linearGradient>
  <linearGradient
     id="f"
     gradientTransform="matrix(0.46452981,-0.0926665,0.0926665,0.46452981,-50.419988,21.06868)"
     gradientUnits="userSpaceOnUse"
     x1="50.381359"
     x2="95.397049"
     xlink:href="#d"
     y1="47.093262"
     y2="46.775925" />
  <linearGradient
     gradientUnits="userSpaceOnUse"
     x1="47.935978"
     x2="96.168159"
     xlink:href="#e"
     y1="25.312323"
     y2="25.312323"
     id="linearGradient20" />
  <linearGradient
     id="g"
     gradientUnits="userSpaceOnUse"
     x1="69.445435"
     x2="87.140915"
     xlink:href="#e"
     y1="44.222157"
     y2="6.88018" />
  <g
     transform="matrix(0.79435311,-0.01299941,0.01094786,0.94320909,31.45106,-6.6547864)"
     id="g33">
    <rect
       height="36.295765"
       ry="1.5"
       width="48.232185"
       x="-31.201916"
       y="9.3505707"
       id="rect23"
       style="fill:url(#a)" />
    <rect
       height="36.295765"
       ry="1.5"
       transform="rotate(-9.6991729,90.702206,529.2844)"
       width="48.232185"
       x="47.935978"
       y="7.1644411"
       id="rect25"
       style="fill:url(#g)" />
    <circle
       cx="10.486378"
       cy="46.061939"
       r="9.3609829"
       id="circle27"
       style="fill:url(#b)" />
    <path
       d="M 14.428456,47.271288 5.5057777,47.467572 9.7971304,39.642164 Z"
       transform="matrix(-0.01345015,0.88174454,-0.88174454,-0.01345015,49.583922,37.894923)"
       id="path29"
       style="fill:url(#c)"
       inkscape:connector-curvature="0" />
    <path
       d="m -15.015487,25.111586 c -5.772264,1.151478 -9.522035,6.770094 -8.370555,12.542358 1.151476,5.772265 6.770092,9.522033 12.542358,8.370557 0.128906,-0.0256 0.250421,-0.06021 0.377255,-0.09033 -4.652055,0.68501 -9.108017,-1.771978 -11.107333,-5.849295 l 19.9874827,-3.987192 -0.093218,-0.46725 -20.0999867,4.009635 c -0.126344,-0.290974 -0.239728,-0.589634 -0.340845,-0.895207 l 20.263302,-4.042214 -0.093025,-0.466346 -20.310477,4.051626 c -0.07577,-0.268567 -0.144584,-0.540275 -0.200063,-0.818576 -0.0067,-0.03316 -0.0107,-0.06627 -0.01703,-0.09943 l 20.3322528,-4.055969 -0.092831,-0.46544 -20.3186418,4.053254 c -0.04571,-0.315791 -0.07676,-0.631149 -0.09406,-0.944436 l 20.2360748,-4.036784 -0.093218,-0.46725 -20.1580188,4.021211 c -0.04697,-4.84203 3.221394,-9.207741 8.033666,-10.424226 -0.128212,0.02077 -0.254646,0.0357 -0.383046,0.06132 z"
       id="path31"
       style="fill:url(#f)"
       inkscape:connector-curvature="0" />
  </g>
</svg>
