<svg xmlns="http://www.w3.org/2000/svg" viewBox="0 0 48 48"><defs><linearGradient gradientUnits="userSpaceOnUse" y2="503.8" x2="409.57" y1="552.8" x1="408.57"><stop stop-color="#197cf1"/><stop offset="1" stop-color="#59d0ff"/></linearGradient><linearGradient id="0" x1="511.29" y1="549.43" x2="462.18" y2="501.03" gradientUnits="userSpaceOnUse"><stop stop-color="#80256c"/><stop offset="1" stop-color="#4567bd"/></linearGradient></defs><g transform="matrix(1.02134 0 0 1.02134-474.3-513.34)"><circle cx="-46.09" cy="-28.26" r="11.961" fill="#dcd4e6" transform="matrix(1.88281 0 0 1.88281 574.67 579.32)" enable-background="new"/><path d="m487.89 502.61c-12.924 0-23.499 10.574-23.499 23.499 0 12.924 10.574 23.499 23.499 23.499 12.924 0 23.499-10.574 23.499-23.499 0-12.924-10.574-23.499-23.499-23.499m0 44.06c-11.456 0-20.561-9.106-20.561-20.561 0-7.05 3.525-13.512 9.399-17.33-.294 1.762-.587 3.819-.587 5.581 0 14.393 11.749 26.14 26.14 26.436-3.819 3.819-8.812 5.875-14.393 5.875" fill="url(#0)"/></g></svg>