<svg xmlns="http://www.w3.org/2000/svg" xmlns:xlink="http://www.w3.org/1999/xlink" viewBox="0 0 48 48"><defs><linearGradient xlink:href="#4" id="3" gradientUnits="userSpaceOnUse" x1="400.51" y1="546.07" x2="400.7" y2="517.77"/><linearGradient id="4"><stop stop-color="#566069"/><stop offset="1" stop-color="#6c7884"/></linearGradient><linearGradient gradientTransform="matrix(1.31487 0 0 1.21841-245.58-140.56)" gradientUnits="userSpaceOnUse" y2="507.8" x2="0" y1="542.8" id="2"><stop stop-color="#2fae61"/><stop offset="1" stop-color="#4bdf88"/></linearGradient><linearGradient id="0" gradientUnits="userSpaceOnUse" y1="542.2" x2="0" y2="526.2"><stop stop-color="#d0d0d0"/><stop offset="1" stop-color="#f1eeee"/></linearGradient><linearGradient gradientTransform="matrix(1.31487 0 0 1.21841-250.19-160.77)" gradientUnits="userSpaceOnUse" y2="507.8" x2="0" y1="542.8" id="1" xlink:href="#4"/></defs><g transform="matrix(1.6275 0 0 1.6275-627.94-841.53)" fill="url(#0)"><g transform="matrix(.49307 0 0 .49155 624.53 599.66)" fill="#1965c2"><rect y="457.94" x="258.11" height="41.43" width="57.854" transform="matrix(.89543.00161.00543.89976-717.73-580.34)" fill="url(#1)" rx="1.949"/><rect y="478.15" x="262.71" height="41.43" width="57.854" transform="matrix(.89543.00161.00543.89976-717.73-580.34)" fill="url(#2)" rx="1.949"/><circle transform="matrix(.70888.06053-.06045.71234-686.07-521.24)" r="14" cy="531.8" cx="400.57" fill="url(#3)"/><path d="m-67.45 887.53c-3.547 0-7.086-1.54-9.659-4.563-6.599-7.773-15.997-12.215-25.795-12.215-9.963 0-19.12 4.313-25.778 12.15-4.834 5.704-13.08 6.14-18.423.965-5.338-5.166-5.747-13.959-.904-19.645 11.494-13.532 27.934-21.296 45.1-21.296 17.14 0 33.585 7.782 45.11 21.342 4.843 5.695 4.434 14.488-.904 19.654-2.486 2.421-5.625 3.608-8.755 3.608m28.933-34.809c-3.33 0-6.66-1.354-9.198-4.053-14.762-15.666-34.36-24.291-55.19-24.291-20.874 0-40.479 8.607-55.22 24.24-5.103 5.417-13.363 5.389-18.44-.055-5.077-5.444-5.06-14.256.055-19.672 19.649-20.85 45.791-32.33 73.6-32.33 27.769 0 53.903 11.501 73.59 32.388 5.112 5.417 5.13 14.228.055 19.682-2.547 2.718-5.903 4.1-9.25 4.1zm28.873-34.754c-3.243 0-6.494-1.289-9.02-3.868-22.77-23.28-52.677-36.1-84.24-36.1-31.62 0-61.55 12.8-84.25 36.06-5.19 5.315-13.45 5.138-18.44-.408-4.99-5.547-4.817-14.358.373-19.672 27.595-28.25 63.927-43.806 102.32-43.806 38.31 0 74.64 15.573 102.29 43.834 5.199 5.315 5.373 14.13.392 19.672-2.565 2.847-5.99 4.285-9.416 4.285m-94.9 103.22c8.7 0 15.754-7.139 15.754-15.945 0-8.806-7.05-15.945-15.754-15.945-8.7 0-15.754 7.139-15.754 15.945 0 8.806 7.05 15.945 15.754 15.945" transform="matrix(.06674 0 0 .06627-427.32-172.48)" fill="#e8eaec"/></g><path d="m397.58 533.71c.123 0 .242.018.354.053.424-.475.894-.908 1.403-1.29-.022-.09-.033-.184-.033-.28 0-.133.022-.262.063-.382-.571-.408-1.19-.751-1.85-1.016-.618.382-1.156.879-1.586 1.463.319.565.698 1.092 1.129 1.571.157-.076.334-.119.521-.119m-1.203 1.203c0-.169.036-.33.098-.475-.386-.425-.735-.882-1.041-1.37-.384.763-.602 1.625-.602 2.538 0 1.056.291 2.045.796 2.891.181-1.016.523-1.978.995-2.858-.154-.202-.245-.454-.245-.726m4.129-3.922c.318 0 .605.124.821.325.627-.27 1.288-.477 1.975-.61-.83-.479-1.792-.753-2.818-.753-.7 0-1.37.128-1.988.361.491.243.959.525 1.399.845.179-.107.388-.168.611-.168m1.798 5.664c.075-.156.181-.294.313-.403-.355-1.092-.917-2.092-1.642-2.951-.144.061-.302.095-.469.095-.261 0-.501-.084-.699-.224-.436.331-.84.702-1.207 1.108.116.184.182.401.182.633 0 .125-.019.246-.055.36 1.055.704 2.27 1.188 3.577 1.382m1.56 1.624c.016.228.025.457.025.689 0 .408-.026.81-.075 1.205.959-.7 1.688-1.695 2.057-2.85-.436.106-.884.181-1.34.224-.106.33-.351.595-.667.732m-1.841-.815c-1.396-.232-2.689-.764-3.816-1.526-.183.112-.398.178-.627.178-.085 0-.167-.009-.247-.025-.539 1.021-.884 2.161-.982 3.37.538.578 1.194 1.043 1.932 1.355.917-1.409 2.197-2.574 3.74-3.351m2.256-6.05c-.906.088-1.771.316-2.576.656.004.041.006.081.006.121 0 .19-.046.369-.123.528.806.946 1.43 2.046 1.824 3.251.49.001.908.308 1.088.734.544-.055 1.074-.16 1.584-.31.037-.258.057-.522.057-.791-.0001-1.661-.717-3.156-1.859-4.19m-1.651 6.69c-1.44.675-2.645 1.714-3.516 2.984.439.11.899.169 1.373.169.852 0 1.66-.19 2.385-.528.117-.57.178-1.159.178-1.763 0-.218-.001-.434-.026-.648-.145-.047-.278-.119-.393-.214" fill="#fff" fill-opacity=".847"/></g></svg>