<svg xmlns="http://www.w3.org/2000/svg" viewBox="0 0 48 48"><defs><linearGradient id="0" gradientUnits="userSpaceOnUse" y1="20.995" x2="0" y2="-25.291"><stop stop-color="#1074f5"/><stop offset="1" stop-color="#02befd"/></linearGradient></defs><g transform="matrix(.99999 0 0 .99999-38.37 25.882)" enable-background="new"><circle r="24" cy="-1.875" cx="62.37" fill="url(#0)"/><g fill="#fff" fill-opacity=".85"><path d="m55.13-13.966c.437-.437.437-1.145 0-1.582-.437-.437-1.145-.437-1.581 0-4.865 4.865-4.865 12.781 0 17.646.218.218.505.328.791.328.286 0 .572-.109.791-.327.437-.437.437-1.145 0-1.581-3.993-3.993-3.993-10.491 0-14.484"/><path d="m71.2-15.548c-.437-.437-1.145-.437-1.582 0-.437.437-.437 1.145 0 1.582 1.935 1.934 3 4.506 3 7.242 0 2.736-1.065 5.308-3 7.242-.437.437-.437 1.145 0 1.581.218.218.505.328.791.328.286 0 .572-.109.791-.327 2.357-2.357 3.655-5.49 3.655-8.824 0-3.333-1.298-6.466-3.655-8.823"/><path d="m56.56-.913c.218.218.505.328.791.328.286 0 .572-.109.791-.327.437-.437.437-1.145 0-1.581-2.332-2.332-2.332-6.128 0-8.46.437-.437.437-1.145 0-1.582-.437-.437-1.145-.437-1.581 0-3.204 3.204-3.204 8.418 0 11.622"/><path d="m66.6-.912c.218.218.505.327.791.327.286 0 .572-.109.791-.328 1.552-1.552 2.407-3.616 2.407-5.811 0-2.195-.855-4.259-2.407-5.811-.437-.437-1.145-.437-1.581 0-.437.437-.437 1.145 0 1.581 1.13 1.13 1.752 2.632 1.752 4.23 0 1.598-.622 3.1-1.752 4.23-.437.437-.437 1.145 0 1.582"/><path d="m62.37-3.884c1.569 0 2.84-1.272 2.84-2.84 0-1.569-1.271-2.84-2.84-2.84-1.569 0-2.84 1.271-2.84 2.84 0 1.569 1.272 2.84 2.84 2.84"/><path d="m63.44-2.305c-.149-.461-.579-.774-1.064-.774-.485 0-.914.313-1.064.774l-4.848 14.967c-.19.587.132 1.218.719 1.408.115.037.231.055.345.055.472 0 .91-.301 1.064-.774l.591-1.824h6.387l.591 1.824c.19.587.821.909 1.408.719.587-.19.91-.821.719-1.408l-4.848-14.967m-1.064 3.974l.936 2.89h-1.873l.936-2.89zm-2.469 7.623l.808-2.496h3.321l.808 2.496h-4.938"/></g></g></svg>