<svg xmlns="http://www.w3.org/2000/svg" viewBox="0 0 48 48"><defs><linearGradient id="0" x1="54.16" y1="17.273" x2="54.19" y2="-6.418" gradientUnits="userSpaceOnUse"><stop stop-color="#ffcdcd"/><stop offset="1" stop-color="#fff5f5"/></linearGradient><linearGradient id="1" y1="38" x2="0" y2="18" gradientUnits="userSpaceOnUse"><stop stop-color="#a00"/><stop offset="1" stop-color="#f55"/></linearGradient></defs><g transform="matrix(1.71427 0 0 1.71427-69.21 13.512)" enable-background="new"><path d="m44.504-3.19c2.64-2.149 6.145-3.332 9.87-3.332 3.725 0 7.231 1.183 9.87 3.332 2.663 2.167 4.13 5.056 4.13 8.133 0 2.937-1.337 5.702-3.774 7.832.044.099.079.203.101.312l.801 3.939c.095.468-.033.747-.157.899-.143.175-.356.272-.598.272-.183 0-.38-.054-.585-.161l-4.658-2.42c-1.613.519-3.346.791-5.13.791-3.725 0-7.23-1.183-9.871-3.332-2.663-2.167-4.13-5.055-4.13-8.133 0-3.078 1.467-5.966 4.129-8.133" fill="url(#0)"/><path d="M12.419922 18.400391A4 4 0 0 0 8.419922 22.400391 4 4 0 0 0 12.419922 26.400391 4 4 0 0 0 16.419922 22.400391 4 4 0 0 0 12.419922 18.400391M24.03906 18.400391A4 4 0 0 0 20.03906 22.400391 4 4 0 0 0 24.03906 26.400391 4 4 0 0 0 28.03906 22.400391 4 4 0 0 0 24.03906 18.400391M35.580078 18.400391A4 4 0 0 0 31.580078 22.400391 4 4 0 0 0 35.580078 26.400391 4 4 0 0 0 39.580078 22.400391 4 4 0 0 0 35.580078 18.400391" transform="matrix(.58333 0 0 .58333 40.38-7.875)" mix-blend-mode="normal" solid-color="#000000" color-interpolation-filters="linearRGB" color="#000" image-rendering="auto" color-rendering="auto" fill-rule="evenodd" isolation="auto" color-interpolation="sRGB" solid-opacity="1" fill="url(#1)" shape-rendering="auto"/></g></svg>