<svg xmlns="http://www.w3.org/2000/svg" viewBox="0 0 48 48"><defs><linearGradient id="0" gradientUnits="userSpaceOnUse" y1="20.995" x2="0" y2="-25.291"><stop stop-color="#4469b9"/><stop offset="1" stop-color="#5d91ff"/></linearGradient></defs><g transform="matrix(.99999 0 0 .99999-38.37 25.882)" enable-background="new"><circle r="24" cy="-1.875" cx="62.37" fill="url(#0)"/><path d="m80.13-.04c-1.678-.757-4.172-4.065-4.438-5.887-.022-.152-.126-.28-.272-.332-.144-.052-.306-.02-.42.083-1.03.937-2.496 2.825-1.284 5.231-3.137.543-8.46.769-10.654-3.264-1.14-1.908-2.929-3.56-5.259-4.476-5.306-2.086-11.404.431-13 4.495-1.597 4.063 1.41 9.05 6.716 11.134 1.157.455 3.281.824 4.298.899 2.407.177 4.541.092 6.421-.126 1.171.119 3.124.514 4.922 1.804.14.1.328.104.471.008.145-.095.215-.269.176-.438l-.554-2.468c4.436-1.516 6.72-4.04 7.852-5.871 1.897 1.472 3.95.635 5.072-.059.131-.081.207-.227.196-.381-.009-.153-.104-.289-.244-.352" fill="#fff" fill-opacity=".846"/></g></svg>