<svg xmlns="http://www.w3.org/2000/svg" viewBox="0 0 48 48"><defs><clipPath><path d="m-24 13c0 1.105-.672 2-1.5 2-.828 0-1.5-.895-1.5-2 0-1.105.672-2 1.5-2 .828 0 1.5.895 1.5 2" transform="matrix(15.33333 0 0 11.5 415-125.5)" fill="#1890d0"/></clipPath><clipPath><path d="m-24 13c0 1.105-.672 2-1.5 2-.828 0-1.5-.895-1.5-2 0-1.105.672-2 1.5-2 .828 0 1.5.895 1.5 2" transform="matrix(15.33333 0 0 11.5 415-125.5)" fill="#1890d0"/></clipPath><linearGradient gradientTransform="matrix(.99978 0 0 .98633-.833 5.996)" gradientUnits="userSpaceOnUse" y2="317.35" x2="-1003.64" y1="433.28" x1="-989.67" id="0"><stop stop-color="#1584d8"/><stop offset="1" stop-color="#1cb2ff"/></linearGradient><linearGradient gradientTransform="matrix(.99834 0 0 .98513-2.169 6.702)" gradientUnits="userSpaceOnUse" y2="104.85" x2="-1060.26" y1="203.1" x1="-1092.91" id="1"><stop stop-color="#f2b333"/><stop offset="1" stop-color="#fcde3f"/></linearGradient></defs><g transform="translate(-384.9-499.85)"><text x="300.29" y="516.22" font-family="sans-serif" word-spacing="0" line-height="125%" letter-spacing="0" font-size="5"><tspan x="300.29" y="516.22"/></text><g transform="matrix(1.07411-.13926.13926 1.07411-153.18 32.478)"><g transform="matrix(.32604.04227-.04227.32604 784.99 393.98)"><rect transform="matrix(.94912-.31493.30721.95164 0 0)" y="117.57" x="-1100.9" height="112.93" width="89.62" fill="url(#1)" rx="2.756"/><rect transform="matrix(.9921-.12541.13781.99046 0 0)" y="317.97" x="-1046.3" height="121.24" width="99.8" fill="url(#0)" rx="2.959"/></g><path d="m462.5 96.19l-21.726-21.726c-8.951-8.95-23.562-8.95-32.59 0l-227.82 227.89-119.34-119.34c-8.95-8.951-23.562-8.951-32.589 0l-21.727 21.726c-8.95 8.951-8.95 23.562 0 32.589l157.29 157.28c4.514 4.514 10.327 6.809 16.218 6.809 5.891 0 11.781-2.295 16.219-6.809l265.84-265.84c9.18-9.103 9.18-23.638.23-32.59" fill="#fff" stroke="none" stroke-width="4.248" transform="matrix(.04269-.0014.0014.04269 448.43 507.86)" opacity=".7"/></g><flowRoot font-family="sans-serif" fill="#000" stroke="none" word-spacing="0" line-height="125%" letter-spacing="0" font-size="10"><flowRegion><path d="m-1370.43-469.33h135.55v166.64h-135.55z"/></flowRegion><flowPara/></flowRoot></g></svg>