<svg xmlns="http://www.w3.org/2000/svg" viewBox="0 0 48 48"><defs><linearGradient id="0" x1="34.17" y1="46.44" x2="34.15" y2="22.749" gradientUnits="userSpaceOnUse"><stop stop-color="#1074f5"/><stop offset="1" stop-color="#02befd"/></linearGradient></defs><g transform="matrix(1.71427 0 0 1.71427-69.21 13.512)" enable-background="new"><path d="m43.829 25.977c-2.64-2.149-6.145-3.332-9.87-3.332-3.725 0-7.231 1.183-9.87 3.332-2.663 2.167-4.13 5.056-4.13 8.133 0 2.937 1.337 5.702 3.774 7.832-.044.099-.079.203-.101.312l-.801 3.939c-.095.468.033.747.157.899.143.175.356.272.598.272.183 0 .38-.054.585-.161l4.658-2.42c1.613.519 3.346.791 5.13.791 3.725 0 7.23-1.183 9.871-3.332 2.663-2.167 4.13-5.055 4.13-8.133 0-3.078-1.467-5.966-4.129-8.133" fill="url(#0)" transform="translate(20.417-29.17)"/><path d="m50.551 6.634l2.01-1.124 1.543 1.574c.849.866 1.568 1.575 1.599 1.575.054 0 5.671-5.918 6.286-6.624.292-.335.267-.328-.623.157-.51.278-1.851 1.026-2.98 1.66l-2.053 1.153-1.549-1.579c-.852-.869-1.572-1.58-1.6-1.58-.041 0-3.848 4.03-6.087 6.435l-.497.534.973-.528c.535-.291 1.876-1.034 2.98-1.653" fill="#fff" fill-opacity=".841"/></g></svg>