<svg xmlns="http://www.w3.org/2000/svg" viewBox="0 0 48 48"><defs><linearGradient id="0" y1="542.8" x2="0" y2="507.8" gradientUnits="userSpaceOnUse" gradientTransform="matrix(1.09091 0 0 1.06528-390.8-511.87)"><stop stop-color="#f15400"/><stop offset="1" stop-color="#fa8c00"/></linearGradient></defs><g transform="translate(-30.915-23.19)"><rect width="48" height="36.22" x="30.915" y="29.08" fill="url(#0)" rx="1.704"/><g transform="matrix(1.12914 0 0 1.12914 109.29 33.416)" fill="#fff" fill-opacity=".846"><path d="m64 48h-8v-16h8c8.836 0 16-7.164 16-16 0-8.836-7.164-16-16-16-8.837 0-16 7.164-16 16v8h-16v-8c0-8.836-7.164-16-16-16-8.836 0-16 7.164-16 16 0 8.836 7.164 16 16 16h8v16h-8c-8.836 0-16 7.164-16 16 0 8.836 7.164 16 16 16 8.837 0 16-7.164 16-16v-8h16v7.98c0 .008-.0001.014-.0001.02 0 8.836 7.164 16 16 16 8.836 0 16-7.164 16-16 0-8.836-7.163-15.998-15.999-16m0-40c4.418 0 8 3.582 8 8 0 4.418-3.582 8-8 8h-8v-8c0-4.418 3.582-8 8-8zm-56 8c0-4.418 3.582-8 8-8 4.418 0 8 3.582 8 8v8h-8c-4.418 0-8-3.583-8-8m8 56c-4.418 0-8-3.582-8-8 0-4.418 3.582-8 8-8h8v8c0 4.418-3.582 8-8 8zm16-24v-16h16v16h-16m32 24c-4.418 0-8-3.582-8-8v-8h7.999c4.418 0 8 3.582 8 8 0 4.418-3.581 8-7.999 8" transform="matrix(.22141 0 0 .22141-64.02 3.339)"/><path d="m417.39 482.3h18.917c-.533 3.416-2.344 7.05-5.389 10.824-1.94-3.108-3.188-6.123-3.9-8.13-.18-.507-.659-.845-1.195-.845h-3.113c-.404 0-.785.193-1.024.519-.239.327-.308.747-.185 1.133.738 2.322 2.436 6.882 5.577 11.515-3.71 3.607-7.405 6.206-8.835 7.164-.569.381-.732 1.146-.369 1.727l1.562 2.498c.181.289.471.493.805.567.09.02.18.03.271.03.246 0 .489-.072.697-.208 1.472-.968 5.292-3.609 9.292-7.441 1.48 1.542 4.959 4.246 7.02 5.745.315.229.717.3 1.093.194.375-.107.68-.38.827-.74l1.165-2.849c.234-.572.021-1.232-.505-1.557-1.343-.833-3.872-2.545-5.936-4.768 4.532-5.304 7.116-10.474 7.685-15.375h.999c.7 0 1.268-.568 1.268-1.269v-3.381c0-.7-.568-1.268-1.268-1.268h-9.879v-1.736c0-.701-.568-1.269-1.268-1.269h-3.165c-.7 0-1.268.568-1.268 1.269v1.736h-9.879c-.7 0-1.268.568-1.268 1.268v3.381c0 .699.568 1.267 1.268 1.267" transform="matrix(.44542 0 0 .44542-230.09-206.91)"/></g></g></svg>