<svg xmlns="http://www.w3.org/2000/svg" viewBox="0 0 48 48"><defs><linearGradient gradientTransform="matrix(.43355 0 0 .43481 98.78-102.62)" gradientUnits="userSpaceOnUse" y2="154.58" x2="-111.09" y1="260.25" x1="-112.53" id="0"><stop stop-color="#2a2c2f"/><stop offset="1" stop-color="#424649"/></linearGradient></defs><g transform="matrix(.99999 0 0 .99999-28.371 35.882)" enable-background="new"><rect width="48" height="47.851" x="28.375" y="-35.801" fill="url(#0)" rx="3.752"/><path d="m59.27-9.275h-2.4v-4.8h2.4c2.651 0 4.8-2.149 4.8-4.8 0-2.651-2.149-4.8-4.8-4.8-2.651 0-4.8 2.149-4.8 4.8v2.4h-4.8v-2.4c0-2.651-2.149-4.8-4.8-4.8-2.651 0-4.8 2.149-4.8 4.8 0 2.651 2.149 4.8 4.8 4.8h2.4v4.8h-2.4c-2.651 0-4.8 2.149-4.8 4.8 0 2.651 2.149 4.8 4.8 4.8 2.651 0 4.8-2.149 4.8-4.8v-2.4h4.8v2.394c0 .002 0 .004 0 .006 0 2.651 2.149 4.8 4.8 4.8 2.651 0 4.8-2.149 4.8-4.8 0-2.651-2.149-4.799-4.8-4.8m0-12c1.325 0 2.4 1.075 2.4 2.4 0 1.325-1.075 2.4-2.4 2.4h-2.4v-2.4c0-1.325 1.075-2.4 2.4-2.4m-16.8 2.4c0-1.325 1.075-2.4 2.4-2.4 1.325 0 2.4 1.075 2.4 2.4v2.4h-2.4c-1.325 0-2.4-1.075-2.4-2.4m2.4 16.8c-1.325 0-2.4-1.075-2.4-2.4 0-1.325 1.075-2.4 2.4-2.4h2.4v2.4c0 1.325-1.075 2.4-2.4 2.4m4.8-7.2v-4.8h4.8v4.8h-4.8m9.6 7.2c-1.325 0-2.4-1.075-2.4-2.4v-2.4h2.4c1.325 0 2.4 1.075 2.4 2.4 0 1.325-1.074 2.4-2.4 2.4" fill="#fff" fill-opacity=".847" stroke-width="1.317"/></g></svg>