<svg xmlns="http://www.w3.org/2000/svg" viewBox="0 0 48 48"><defs><filter color-interpolation-filters="sRGB"><feGaussianBlur stdDeviation="1.71"/></filter><linearGradient gradientTransform="scale(1.0059.99417)" gradientUnits="userSpaceOnUse" y2="7.02" x2="0" y1="92.54"><stop/><stop offset="1" stop-opacity=".588"/></linearGradient><linearGradient gradientUnits="userSpaceOnUse" y2="-33.3" x2="-72.48" y1="69.73" x1="-176.63" id="0" gradientTransform="matrix(1.03458 0 0 1 4.382 0)"><stop stop-color="#4fd127"/><stop offset="1" stop-color="#c6f61a"/></linearGradient></defs><path d="m-170.49-27.421h87.55c3.577 0 6.458 2.783 6.458 6.241v87.978c0 3.457-2.88 6.241-6.457 6.241h-87.55c-3.577 0-6.457-2.783-6.457-6.241v-87.978c0-3.457 2.88-6.241 6.457-6.241" fill="url(#0)" fill-rule="evenodd" transform="matrix(.24676-.24936.24936.24676 49.577-13.225)"/><path d="m24 11.07c-.348.013-.697.152-.957.428l-11.923 12.577c-.521.55-.507 1.406.04 1.925l1.037.984 3.15-.128 11.325-11.935c.52-.55.467-1.406-.08-1.925l-1.635-1.54c-.274-.259-.609-.396-.957-.385m.797 9.54c-.349.013-.695.154-.957.428l-7.576 7.914c-.523.547-.507 1.406.04 1.925l1.037.941 3.15-.086 6.978-7.273c.523-.547.507-1.406-.04-1.925l-1.675-1.54c-.274-.259-.608-.394-.957-.385m-.758 10.994c-.338 0-.694.155-.957.428l-1.595 1.625c-.526.546-.51 1.455 0 2.01l.917 1.027 3.11.042.957-1.027c.526-.546.55-1.412.04-1.968l-1.555-1.711c-.255-.278-.579-.382-.917-.385z" fill="#fff" fill-opacity=".851"/></svg>