<svg xmlns="http://www.w3.org/2000/svg" viewBox="0 0 48 48"><defs><linearGradient id="0" gradientUnits="userSpaceOnUse" y1="32.369" x2="0" y2="-16.429"><stop stop-color="#c52828"/><stop offset="1" stop-color="#ff5454"/></linearGradient></defs><g transform="matrix(.99999 0 0 .99999 51.629 15.882)" enable-background="new"><circle cx="-27.625" cy="8.125" r="24" fill="url(#0)"/><g fill="#fff" fill-opacity=".846"><g transform="matrix(.69942-.71471.71471.69942 0 0)"><path d="m-28.462-30.518h7.818v2.773h-7.818z"/><path d="m-28.462-25.461h7.818v2.773h-7.818z"/></g><path d="m-27.719 1.503c-3.219 0-5.862 2.602-5.862 5.771 0 3.169 2.643 5.766 5.862 5.766 3.219 0 5.857-2.597 5.857-5.766 0-3.169-2.638-5.771-5.857-5.771m0 2.821c1.671 0 2.997 1.305 2.997 2.95 0 1.645-1.326 2.945-2.997 2.945-1.671 0-2.997-1.3-2.997-2.945 0-1.645 1.326-2.95 2.997-2.95" color="#000"/><path transform="matrix(.70477.70944-.70944.70477 0 0)" d="m-17.938 8.22h7.01v8.584h-7.01z"/><path d="m-31.722 15.353h7.818v2.773h-7.818z"/><path d="m-31.722 20.41h7.818v2.773h-7.818z"/></g></g></svg>