<svg xmlns="http://www.w3.org/2000/svg" viewBox="0 0 48 48"><defs><clipPath id="1"><path transform="matrix(15.33333 0 0 11.5 415-125.5)" d="m-24 13c0 1.105-.672 2-1.5 2-.828 0-1.5-.895-1.5-2 0-1.105.672-2 1.5-2 .828 0 1.5.895 1.5 2" fill="#1890d0"/></clipPath><linearGradient gradientTransform="matrix(.49433 0 0 .4778 86.64 13.1)" gradientUnits="userSpaceOnUse" y2="-26.05" x2="-125.19" y1="73.5" x1="-123.97" id="0"><stop stop-color="#f15400"/><stop offset="1" stop-color="#fa8c00"/></linearGradient></defs><rect height="48" width="48" fill="url(#0)" fill-rule="evenodd" rx="2.982" stroke-width="1"/><g transform="matrix(1.28144 0 0 1.28524-6.755-7.488)" fill-opacity=".662"><g clip-path="url(#1)" fill-opacity=".662"><g fill-opacity=".662"><path d="m36 14.332c0 1.262-1.02 2.281-2.281 2.281-1.258 0-2.281-1.02-2.281-2.281 0-1.262 1.023-2.281 2.281-2.281 1.262 0 2.281 1.02 2.281 2.281"/><path d="m31.22 15.773c0 1.262-1.02 2.281-2.281 2.281-1.258 0-2.281-1.02-2.281-2.281 0-1.262 1.023-2.281 2.281-2.281 1.262 0 2.281 1.02 2.281 2.281"/><path d="m27.371 19.14c0 1.262-1.02 2.281-2.281 2.281-1.258 0-2.281-1.02-2.281-2.281 0-1.262 1.023-2.281 2.281-2.281 1.262 0 2.281 1.02 2.281 2.281"/><path d="m25.863 24.25c0 1.258-1.023 2.281-2.281 2.281-1.262 0-2.281-1.023-2.281-2.281 0-1.262 1.02-2.285 2.281-2.285 1.258 0 2.281 1.023 2.281 2.285"/><path d="m25 29.551c0 1.262-1.023 2.285-2.281 2.285-1.262 0-2.281-1.023-2.281-2.285 0-1.258 1.02-2.281 2.281-2.281 1.258 0 2.281 1.023 2.281 2.281"/><path d="m21.758 33.703c0 1.262-1.023 2.281-2.281 2.281-1.258 0-2.281-1.02-2.281-2.281 0-1.262 1.023-2.281 2.281-2.281 1.258 0 2.281 1.02 2.281 2.281"/><path d="m16.563 34.668c0 1.262-1.023 2.281-2.281 2.281-1.262 0-2.281-1.02-2.281-2.281 0-1.262 1.02-2.281 2.281-2.281 1.258 0 2.281 1.02 2.281 2.281"/><path d="m20.734 24.363c0 1.262-1.02 2.285-2.277 2.285-1.262 0-2.281-1.023-2.281-2.285 0-1.258 1.02-2.281 2.281-2.281 1.258 0 2.277 1.023 2.277 2.281"/><path d="m31.28 24.26c0 1.262-1.023 2.281-2.281 2.281-1.258 0-2.281-1.02-2.281-2.281 0-1.262 1.023-2.281 2.281-2.281 1.258 0 2.281 1.02 2.281 2.281"/></g></g></g></svg>