<svg xmlns="http://www.w3.org/2000/svg" xmlns:xlink="http://www.w3.org/1999/xlink" viewBox="0 0 48 48"><defs><linearGradient xlink:href="#2" id="0" y1="546.29" x2="0" y2="501.51" gradientUnits="userSpaceOnUse"/><linearGradient xlink:href="#2" id="1" x1="408.82" y1="546.29" x2="407.82" y2="501.51" gradientUnits="userSpaceOnUse"/><linearGradient id="2"><stop stop-color="#97a9b1"/><stop offset="1" stop-color="#cfdce1"/></linearGradient></defs><g transform="matrix(1.07196 0 0 1.07196-413.17-537.6)"><circle r="22.389" cy="523.9" cx="407.82" fill="url(#0)"/><path d="m22.463 1.557l-3.51.201c-.381.022-1.241.385-1.668.434l-1.072.654c-3.747.899-2.962-1.228-5.248 2.164l-2.785.969c-2.541 3.77-5.27 7.161-4.832 9.568.04.217.21.387.428.426.218.039.435-.063.547-.254.455-.776 1.228-1.948 2.33-3.127 2.673-2.861 5.997-4.373 9.611-4.373.301 0 .608.011.916.031v21.383c0 3.962 2.976 7.215 7.08 7.732.372.047.748.07 1.119.07 3.955 0 7.275-2.675 7.723-6.223.241-1.911-.358-3.811-1.688-5.352-1.329-1.54-3.229-2.537-5.35-2.805-1.217-.154-2.449-.053-3.598.293v-21.793m2.684 23.887c.188 0 .374.012.561.033.147.017.254.146.246.293-.027.468.245.903.676 1.084.414.173.948.051 1.246-.279.099-.109.267-.123.381-.031.291.233.557.503.791.801.09.114.078.279-.029.377-.342.313-.455.81-.281 1.236.171.416.579.686 1.037.686.142 0 .304.106.32.246.043.379.042.763-.002 1.139-.017.146-.15.256-.293.244l-.061-.002c-.442 0-.853.272-1.023.678-.181.431-.069.933.279 1.248.109.099.123.264.031.379-.238.296-.511.566-.811.801-.115.089-.278.076-.377-.031-.297-.327-.827-.451-1.238-.283-.426.174-.7.603-.684 1.066.005.145-.103.271-.248.287-.183.02-.366.029-.549.029-.193 0-.385-.011-.576-.033-.146-.017-.252-.144-.244-.291.027-.468-.246-.905-.678-1.086-.412-.173-.947-.05-1.246.281-.099.109-.266.122-.381.029-.292-.235-.559-.505-.791-.801-.09-.114-.076-.279.031-.377.342-.313.454-.81.279-1.236-.175-.427-.594-.695-1.029-.684-.143 0-.311-.105-.326-.246-.042-.379-.042-.761.002-1.137.017-.144.129-.251.287-.246.489 0 .917-.265 1.09-.676.181-.431.067-.933-.281-1.248-.109-.099-.122-.264-.029-.379.237-.295.509-.566.809-.801.115-.089.279-.076.377.031.297.327.83.45 1.238.283.426-.175.702-.605.686-1.068-.005-.145.101-.269.246-.285.187-.021.377-.032.564-.031m-.014 3.342c-.92 0-1.666.748-1.666 1.668 0 .92.746 1.668 1.666 1.668.92 0 1.668-.748 1.668-1.668 0-.92-.748-1.668-1.668-1.668" transform="matrix(.93287 0 0 .93287 385.43 501.51)" fill="#50575b" stroke-width="1.317"/><circle r="21.432" cy="523.9" cx="407.82" fill="none" stroke="url(#1)" stroke-linejoin="round" stroke-linecap="round" stroke-width="1.914"/></g></svg>