<svg xmlns="http://www.w3.org/2000/svg" xmlns:xlink="http://www.w3.org/1999/xlink" viewBox="0 0 48 48"><defs><linearGradient gradientTransform="matrix(.91926-.16589.15464.98614-51.07 75.21)" gradientUnits="userSpaceOnUse" x2="410.34" x1="389.96" id="3" xlink:href="#0"/><linearGradient gradientUnits="userSpaceOnUse" y2="503.31" x2="415.21" y1="551.7" x1="414.24" id="4" xlink:href="#0"/><linearGradient id="2" gradientUnits="userSpaceOnUse" x1="15.37" y1="29.24" x2="14.99" y2=".736"><stop stop-color="#2b2b2b"/><stop offset="1" stop-color="#353535"/></linearGradient><linearGradient id="0"><stop stop-color="#ff433a"/><stop offset="1" stop-color="#ff9436"/></linearGradient><linearGradient id="1" x1="15.37" y1="29.24" x2="14.99" y2=".736" gradientUnits="userSpaceOnUse"><stop stop-color="#e6c02a"/><stop offset="1" stop-opacity="0"/></linearGradient></defs><g transform="translate(-384.57-499.8)"><g transform="matrix(1.1305 0 0 1.1305-51.716-68.11)"><path d="m405.93 504.04c-9.315.382-9.927 1.46-11.07 2.041-1.537.778-3.427 1.216-3.229-.043-.654.239-1.407 1.15-.769 2.29.638 1.14-.637 2.468-1.25 1.749-1.175-1.375-4.055-.296-3.635 1.463.414-.414 2.341-1.319 2.073.701-.268 2.02-.401 3.568 1.653 4.945 2.054 1.377 10.02-.016 10.02-.016z" fill="url(#3)" fill-rule="evenodd"/><path d="m22.685 2.124c-7.107-4.244-16.309-1.931-20.558 5.174-4.248 7.104-1.932 16.309 5.171 20.555 7.108 4.248 16.307 1.93 20.555-5.174 4.248-7.104 1.932-16.302-5.168-20.555" fill="url(#2)" transform="matrix(.64873-1.16594 1.16594.64873 381.19 531.65)"/></g><path d="m411.68 527.16l4.327-4.327 3.365 3.365-10.1 10.1-10.1-10.1 3.365-3.365 4.327 4.327v-15.865h4.808v15.865" fill="#fff" fill-opacity=".854"/><path d="m419.55 503.68c.708.65 1.625 1.588 2.193 2.601.989 1.766.848 4.84-2.19 5.405-3.038.565-3.154-.47-3.144-1.696-1.615.222-2.337 3.803.495 5.05 2.402 1.06 3.286.636 7.808.353 4.522-.283 5.05 5.229 2.932 6.076-2.12.848-2.929-.663-2.791-1.484-1.699.663-1.906 2.514-1.06 3.392 6.61 6.849 3.44 12.14 1.625 12.683-2.249.672-3.834-.66-2.685-2.438.936-1.448.128-3.837-1.01-4.683-1.137-.846-3.346-.644-4.29-.015 1.361.515 3.356 1.307 2.826 3.074-.409 1.364-1.75 2.223-3.427 2.19-3.82-.075-2.611-3.526-2.084-3.921-2.053-.254-3.424 3.492-2.084 4.769 1.318 1.257 3.171 1.959 2.049 3.886-1.177 2.02-2.826 3.109-5.653 2.544-2.826-.565-4.381-2.367-4.03-4.03.353-1.66 1.178-1.882 2.614-1.908-.896-1.898-5.299-1.908-5.229 1.378.036 1.697-2.805 1.977-3.992.071-1.342-2.155-.207-3.077 1.307-2.72.101-2.399-1.943-1.236-2.473-3.886-.53-2.65 1.331-3.386 1.331-3.386-3.329 1.014-4.04 2-7.468.98-1.216-.362.193-3.669-3.717-2.531.661 11.925 10.477 21.329 22.573 21.329 12.526 0 22.61-10.08 22.61-22.61 0-9.1-5.33-16.883-13.04-20.477" fill="url(#4)" fill-rule="evenodd"/></g></svg>