<svg xmlns="http://www.w3.org/2000/svg" viewBox="0 0 48 48"><defs><linearGradient gradientTransform="matrix(.49433 0 0 .4778 86.64 13.1)" gradientUnits="userSpaceOnUse" y2="-26.05" x2="-125.19" y1="73.5" x1="-123.97" id="0"><stop stop-color="#c52828"/><stop offset="1" stop-color="#ff5454"/></linearGradient></defs><rect height="48" width="48" fill="url(#0)" fill-rule="evenodd" rx="2.982" stroke-width="1"/><path d="m54.877 44.3c0-1.211 5.193-17.29-4.914-22.15-11.644-5.604-14.867-10.07-14.766-17.234-.001.293-7.04 11.63-2.465 17.233 7.115 8.67 4.109 15.384 0 14.768-6.9-1.033-6.07-10.04-4.917-12.306-3.609-.383-7.783 1.861-9.852 4.919-6.208 9.228 7.25 18.05 2.465 24.614-3.643 4.997-9.862-4.842-9.841-4.919-7.391 38.572 46.27 39.55 49.23 7.384.88-9.646 9.563-14.892 9.839-14.766-9.25-4.274-14.774 2.763-14.774 2.458m-9.834-31.998c-1.506-1.615-2.464-3.557-2.464-4.924 0-2.561 2.092-5.02 4.924-7.381.285 2.053-1.228 5.126 0 7.381.953 1.67 2.465 3.557 2.465 4.924 0 1.831-.684 3.5-2.465 4.922-.27-.684-.74-2.934-2.46-4.922" fill="#fae1e1" transform="matrix(.39899 0 0 .40232 8.132 8)"/></svg>