<svg xmlns="http://www.w3.org/2000/svg" viewBox="0 0 48 48"><defs><filter color-interpolation-filters="sRGB"><feGaussianBlur stdDeviation="1.71"/></filter><linearGradient id="1" x1="-59.48" y1="1037.93" x2="-59.53" y2="1021.98" gradientUnits="userSpaceOnUse"><stop stop-color="#4469b9"/><stop offset="1" stop-color="#5d91ff"/></linearGradient><linearGradient gradientUnits="userSpaceOnUse" x1="26.639" y1="9.01" x2="26.7" y2="1.857"><stop stop-color="#005fb8"/><stop offset="1" stop-color="#7bb2ff"/></linearGradient><linearGradient gradientUnits="userSpaceOnUse" y1="9.249" x2="0" y2="1.433"><stop stop-color="#b7006f"/><stop offset="1" stop-color="#ff79c1"/></linearGradient><linearGradient gradientTransform="matrix(1.03458 0 0 1 4.382 0)" id="0" x1="-123.97" y1="73.5" x2="-125.19" y2="-26.05" gradientUnits="userSpaceOnUse"><stop stop-color="#dce2ff"/><stop offset="1" stop-color="#f8feff"/></linearGradient><linearGradient y1="92.54" x2="0" y2="7.02" gradientUnits="userSpaceOnUse" gradientTransform="scale(1.0059.99417)"><stop/><stop offset="1" stop-opacity=".588"/></linearGradient><linearGradient id="2" x1="-41.629" y1="1038.46" x2="-42.04" y2="1022.34" gradientUnits="userSpaceOnUse"><stop stop-color="#d50081"/><stop offset="1" stop-color="#ff79c1"/></linearGradient></defs><g transform="translate(0-1004.36)" fill-rule="evenodd"><path d="m-170.49-27.421h87.55c3.577 0 6.458 2.783 6.458 6.241v87.978c0 3.457-2.88 6.241-6.457 6.241h-87.55c-3.577 0-6.457-2.783-6.457-6.241v-87.978c0-3.457 2.88-6.241 6.457-6.241" fill="url(#0)" transform="matrix(.4778 0 0 .4778 84.54 1017.46)"/><g transform="matrix(1.13943 0 0 1.13943 80.918-145.1)" color-rendering="auto" color-interpolation-filters="linearRGB" shape-rendering="auto" image-rendering="auto" color-interpolation="sRGB" color="#000"><path d="m-50.749714 1029.8622a7.5 7.5 0 0 1 -7.5 7.5 7.5 7.5 0 0 1 -7.5 -7.5 7.5 7.5 0 0 1 7.5 -7.5 7.5 7.5 0 0 1 7.5 7.5" mix-blend-mode="normal" solid-color="#000000" isolation="auto" solid-opacity="1" fill="url(#1)"/><path d="m-34.1551 1029.8622a7.5 7.5 0 0 1 -7.5 7.5 7.5 7.5 0 0 1 -7.5 -7.5 7.5 7.5 0 0 1 7.5 -7.5 7.5 7.5 0 0 1 7.5 7.5" mix-blend-mode="normal" solid-color="#000000" isolation="auto" solid-opacity="1" fill="url(#2)"/></g></g></svg>