<svg xmlns="http://www.w3.org/2000/svg" viewBox="0 0 48 48"><defs><linearGradient y1="17.12" x2="0" y2="-27.875" gradientUnits="userSpaceOnUse"><stop stop-color="#e7f0f4"/><stop offset="1" stop-color="#f4faff"/></linearGradient><linearGradient gradientTransform="matrix(1.71429 0 0 1.71541-624.32-914.13)" gradientUnits="userSpaceOnUse" y2="519.56" x2="0" y1="545.79" id="0"><stop stop-color="#97a9b1"/><stop offset="1" stop-color="#cfdce1"/></linearGradient></defs><g transform="matrix(.99999 0 0 .99999-38.37 25.882)" enable-background="new"><ellipse ry="24.02" rx="24" cy="-1.875" cx="62.37" fill="url(#0)"/><path d="m88.44-14.02c1.149-1.538 1.837-3.136 1.841-4.277-.002-.37-.076-.658-.217-.873-.015-.026-.055-.095-.127-.163-.071-.071-.135-.109-.149-.116-.226-.151-.516-.223-.885-.223-1.138.002-2.736.689-4.275 1.841-1.244.931-2.488 2.242-4.21 4.057-.292.308-.6.632-.925.971l-3.336-1 .001-.009c.139-.14.218-.333.216-.522.002-.2-.079-.393-.218-.531l-.602-.603c-.139-.14-.331-.22-.53-.22-.201 0-.388.077-.528.219l-.901.902-.477-.142c.103-.131.16-.294.158-.454.002-.203-.076-.392-.218-.532l-.605-.605c-.138-.139-.329-.218-.53-.218-.2 0-.387.078-.525.219l-.827.827-3.392-1.016c-.076-.022-.156-.034-.242-.034-.241.003-.464.092-.627.254l-1.192 1.193c-.135.135-.211.318-.21.492-.004.256.137.492.364.613l7.132 3.984c.035.02.136.094.173.131l2.033 2.033c-1.902 2-3.596 3.944-4.917 5.632-.123.157-.24.31-.355.461l-5.518-.501c-.027-.003-.057-.006-.095-.006-.253.005-.5.105-.684.283l-.556.556c-.137.134-.215.316-.213.491-.004.268.158.515.401.624l3.882 1.844c.033.017.12.078.149.107l.322.32c-.101.284-.152.53-.155.746-.0001.289.092.537.271.715l.014.012.004.003c.183.177.42.268.714.268.211-.003.455-.054.74-.154l.327.327c.025.027.086.112.102.146l1.84 3.873c.112.247.355.407.619.407h.004c.183 0 .357-.073.491-.207l.569-.571c.169-.178.268-.423.272-.682 0-.032-.0001-.056-.002-.069l-.502-5.538c.151-.114.304-.231.461-.353 1.691-1.322 3.632-3.02 5.631-4.917l2.035 2.037c.033.032.11.132.132.174l3.977 7.119c.121.23.355.372.614.372.185 0 .361-.073.496-.209l1.201-1.2c.156-.163.243-.384.246-.626 0-.081-.011-.16-.032-.234l-1.016-3.392.827-.828c.139-.138.218-.33.218-.528 0-.198-.077-.385-.217-.527l-.606-.606c-.139-.139-.33-.218-.528-.218-.167 0-.331.056-.458.157l-.142-.475.902-.902c.139-.139.218-.331.218-.529 0-.199-.077-.386-.218-.526l-.603-.603c-.139-.141-.332-.221-.531-.221-.199 0-.393.081-.529.22l-.006.006-.999-3.335c.345-.329.673-.642.986-.937 1.809-1.716 3.115-2.956 4.04-4.197" fill="#555c5e" transform="translate(-15 5)"/></g></svg>