<svg xmlns="http://www.w3.org/2000/svg" xmlns:xlink="http://www.w3.org/1999/xlink" viewBox="0 0 48 48"><defs><linearGradient id="2"><stop stop-color="#f15f19"/><stop offset="1" stop-color="#fbb521"/></linearGradient><linearGradient xlink:href="#2" id="3" x1="76.5" y1="8.125" x2="76.62" y2="-8" gradientUnits="userSpaceOnUse"/><linearGradient gradientUnits="userSpaceOnUse" y2="1023.15" x2="0" y1="1052.32" id="1"><stop stop-color="#4469b9"/><stop offset="1" stop-color="#5d91ff"/></linearGradient><linearGradient id="0" gradientUnits="userSpaceOnUse" x1="53.37" y1="27.12" x2="51.38" y2="-20.291"><stop stop-color="#ffbc4c"/><stop offset="1" stop-color="#ffdea5"/></linearGradient><linearGradient gradientUnits="userSpaceOnUse" y2="1023.15" x2="0" y1="1035.65" xlink:href="#2"/></defs><g transform="matrix(.99999 0 0 .99999-38.37 25.882)" enable-background="new"><circle r="24" cy="3.125" cx="52.37" fill="url(#0)" transform="translate(10-5)"/><path d="m84 .749999a10 10 0 0 1 -10 10 10 10 0 0 1 -10 -10 10 10 0 0 1 10 -10 10 10 0 0 1 10 10" mix-blend-mode="normal" solid-color="#000000" color-interpolation-filters="linearRGB" color="#000" image-rendering="auto" color-rendering="auto" fill-rule="evenodd" isolation="auto" color-interpolation="sRGB" solid-opacity="1" fill="url(#3)" shape-rendering="auto"/><path d="m17.25 1024.33c-5.44 0-9.797 2.245-13.205 5.264a20 20 0 0 0 19.955078 18.7676 20 20 0 0 0 18.0625 -11.4687c-10-9.22-18.205-12.563-24.813-12.563" fill="url(#1)" transform="matrix(1.2 0 0 1.2 33.658-1235.66)"/></g></svg>