<svg xmlns="http://www.w3.org/2000/svg" xmlns:xlink="http://www.w3.org/1999/xlink" viewBox="0 0 48 48"><defs><linearGradient gradientTransform="matrix(2.51381 0 0 2.52731-1038.86-1347.67)" xlink:href="#0" id="2" gradientUnits="userSpaceOnUse" x1="395.09" y1="550.5" x2="394.69" y2="537.45"/><linearGradient xlink:href="#0" x1="12.613" y1="24.02" x2="11.598" y2="-.7" gradientUnits="userSpaceOnUse"/><linearGradient id="0"><stop stop-color="#00cafe"/><stop offset="1" stop-color="#1460f3"/></linearGradient><linearGradient id="1" x1="401.49" y1="546.9" x2="401.62" y2="517.44" gradientUnits="userSpaceOnUse"><stop stop-color="#ececec"/><stop offset="1" stop-color="#fcfcfc"/></linearGradient></defs><circle cx="400.62" cy="531.73" r="14.875" fill="url(#1)" transform="matrix(1.61348 0 0 1.61348-622.39-833.93)"/><path d="m-42.18 11.99c-5.212 0-9.693 3.039-11.67 7.393-1.058-.83-2.387-1.324-3.83-1.324-3.397 0-6.161 2.741-6.248 6.154-3.506 1.33-6 4.75-6 8.76 0 4.737 3.483 8.652 8 9.27v.084h32v-.016c4.462-.262 8-4 8-8.58 0-4.414-3.291-8.05-7.527-8.539.018-.269.027-.541.027-.814 0-6.841-5.708-12.387-12.75-12.387m-3.717 10.268c.3.0001.6.02.898.055.235.027.407.231.393.467-.043.749.391 1.447 1.08 1.736.662.276 1.519.081 1.996-.447.158-.175.425-.197.607-.051.466.373.892.805 1.268 1.281.144.183.123.446-.049.604-.546.501-.726 1.297-.447 1.979.273.666.923 1.096 1.656 1.096.227 0 .49.168.516.393.068.606.067 1.219-.004 1.82-.028.234-.239.411-.469.393l-.1-.002c-.707 0-1.365.435-1.637 1.084-.289.689-.108 1.492.449 1.996.175.158.195.424.047.607-.38.474-.814.904-1.293 1.279-.184.142-.445.121-.604-.051-.476-.523-1.324-.72-1.982-.451-.681.279-1.121.966-1.094 1.707.008.233-.164.431-.396.457-.293.033-.586.049-.879.049-.308 0-.616-.017-.922-.053-.234-.027-.406-.231-.393-.467.042-.75-.392-1.447-1.082-1.736-.659-.277-1.516-.082-1.994.447-.159.175-.426.197-.609.049-.467-.376-.894-.808-1.266-1.281-.144-.183-.122-.444.049-.602.547-.502.727-1.297.447-1.979-.281-.683-.948-1.114-1.645-1.096-.229 0-.5-.169-.525-.395-.068-.606-.066-1.217.004-1.818.028-.231.207-.401.461-.393.782 0 1.466-.424 1.742-1.082.289-.69.11-1.492-.447-1.996-.174-.158-.197-.424-.049-.607.379-.473.815-.903 1.295-1.279.183-.143.446-.122.604.051.476.523 1.327.716 1.98.449.682-.279 1.122-.963 1.096-1.705-.008-.232.165-.433.396-.459.3-.033.6-.05.9-.049m-.02 5.35c-1.472 0-2.668 1.197-2.668 2.668 0 1.471 1.196 2.668 2.668 2.668 1.471 0 2.668-1.196 2.668-2.668 0-1.471-1.197-2.668-2.668-2.668" transform="matrix(.70834 0 0 .70834 56.53 4.767)" fill="url(#2)" enable-background="new"/></svg>