<svg xmlns="http://www.w3.org/2000/svg" xmlns:xlink="http://www.w3.org/1999/xlink" viewBox="0 0 48 48"><defs><linearGradient gradientUnits="userSpaceOnUse" y2="-32.798" x2="-35.09" y1="-8.02" x1="-34.507" id="9" xlink:href="#3"/><linearGradient xlink:href="#3" id="6" y1="-.413" x2="0" y2="-3.765" gradientUnits="userSpaceOnUse"/><linearGradient gradientUnits="userSpaceOnUse" y2="-27.631" x2="-42.45" y1="1.559" x1="-42.34" id="8" xlink:href="#1"/><linearGradient xlink:href="#3" id="7" gradientUnits="userSpaceOnUse" x1="24.406" y1="-4.811" x2="24.27" y2="-7.02"/><linearGradient id="5" gradientUnits="userSpaceOnUse" gradientTransform="matrix(.70094 0 0 .86417-251.19-444.5)" x1="391.57" y1="531.8" x2="390.88" y2="507.67"><stop stop-color="#d3d3d3"/><stop offset="1" stop-color="#fcf9f9"/></linearGradient><linearGradient xlink:href="#1" id="0" gradientUnits="userSpaceOnUse" x1="35.611" y1="14.953" x2="35.32" y2="-3.499"/><linearGradient xlink:href="#3" id="4" gradientUnits="userSpaceOnUse" x1="36.26" y1="15.981" x2="35.638" y2="-6.51"/><linearGradient id="1"><stop stop-color="#197ff1"/><stop offset="1" stop-color="#21c6fb"/></linearGradient><linearGradient id="3"><stop stop-color="#222c35"/><stop offset="1" stop-color="#545e67"/></linearGradient><linearGradient xlink:href="#3" id="2" gradientUnits="userSpaceOnUse" x1="29.43" y1="-2.02" x2="43.633" y2="12.181"/></defs><g transform="matrix(.99999 0 0 .99999-18.371 30.882)" enable-background="new"><rect y="-30.455" x="-61.1" height="30.06" width="39.15" transform="matrix(-.99998-.00628-.00628.99998 0 0)" fill="url(#9)" rx="1.172"/><rect y="-28.18" x="-62.57" height="30.06" width="39.15" transform="matrix(-.98432-.17638-.17638.98432 0 0)" fill="url(#8)" rx="1.172"/><rect width="3.882" height="1.941" x="21.818" y="-6.752" fill="url(#7)" rx=".647"/><rect width="33.645" height="20.74" x="18.375" y="-5.674" fill="url(#5)" rx=".971"/><path d="m24.433995 4.770649a11.788733 11.788733 0 0 1 11.78873 -11.78873 11.788733 11.788733 0 0 1 11.78873 11.78873A11.788733 11.788733 0 0 1 36.22272 16.559387 11.788733 11.788733 0 0 1 24.433995 4.770649" fill="url(#4)"/><circle r="9.263" cy="4.771" cx="36.22" fill="url(#2)"/><circle cx="36.22" cy="4.771" r="8.421" fill="url(#0)"/><circle cx="22.14" cy="-2.089" r="1.676" fill="url(#6)" fill-rule="evenodd"/></g></svg>