<svg xmlns="http://www.w3.org/2000/svg" viewBox="0 0 48 48"><defs><linearGradient gradientUnits="userSpaceOnUse" y2="-26.05" x2="-125.19" y1="73.5" x1="-123.97" id="0"><stop stop-color="#0c7eed"/><stop offset="1" stop-color="#0bb6ff"/></linearGradient></defs><g transform="matrix(.4778 0 0 .4778-76.05-55.02)"><g transform="translate(336.11 142.57)" fill-rule="evenodd"><rect y="-27.421" x="-175.27" height="100.46" width="97.1" fill="url(#0)" rx="6.241"/><g fill="#e1f2fe"><circle r="3.5" cy="-17.745" cx="-164.03"/><circle r="3.5" cy="-17.745" cx="-154.79"/><circle r="3.5" cy="-17.745" cx="-145.46"/></g></g><path d="m238.08 160.22v-16.365c0-1.506-1.222-2.727-2.728-2.727h-16.362c-1.508 0-2.728 1.222-2.728 2.727v6.818c-13.323 0-24.516 9.157-27.7 21.499l-2.835-.499c-.509-.088-1.025.116-1.333.531-.306.415-.355.969-.121 1.43l2.954 5.833c-5.178.844-9.147 5.337-9.147 10.753 0 6.02 4.894 10.909 10.91 10.909 5.553 0 10.139-4.174 10.814-9.545h9.64v2.727c0 .517.292.988.754 1.22.462.23 1.015.181 1.43-.13l4.767-3.577c.779 5.254 5.308 9.304 10.774 9.304 6.02.0001 10.911-4.892 10.911-10.907 0-5.553-4.174-10.14-9.548-10.814v-9.641h2.729c.514 0 .988-.292 1.218-.753.232-.461.184-1.015-.128-1.429l-3.479-4.635h6.475c1.51-.0001 2.732-1.223 2.732-2.728m-16.219 8.791c.232.462.703.753 1.219.753h2.728v9.64c-4.843.61-8.699 4.4-9.412 9.211l-4.769-3.578c-.412-.309-.965-.357-1.427-.129-.461.234-.754.703-.754 1.22v2.727h-9.64c-.618-4.93-4.536-8.843-9.47-9.453.004-.031.019-.058.019-.091v-.014l4.127-3.864c.377-.352.521-.889.375-1.384-.149-.497-.562-.865-1.071-.955l-2.531-.447c2.952-11.06 13.03-19.246 25.01-19.246v6.818c0 1.506 1.22 2.727 2.728 2.727h6.476l-3.477 4.637c-.311.414-.361.966-.129 1.429" fill="#e1f2fe"/></g></svg>