<svg xmlns="http://www.w3.org/2000/svg" viewBox="0 0 48 48"><defs><linearGradient gradientUnits="userSpaceOnUse" y2="120.06" x2="154.97" y1="219.61" x1="156.19" id="0"><stop stop-color="#ececec"/><stop offset="1" stop-color="#fcfcfc"/></linearGradient><linearGradient id="1" y1="41.604" x2="0" y2="9.604" gradientUnits="userSpaceOnUse"><stop stop-color="#00cafe"/><stop offset="1" stop-color="#1460f3"/></linearGradient></defs><rect width="97.1" height="100.46" x="104.89" y="118.69" fill="url(#0)" fill-rule="evenodd" rx="6.241" stroke-width="1" transform="matrix(.4778 0 0 .4778-49.32-56.708)"/><path d="m-54.26 9.604c-.824 0-1.492.668-1.492 1.492v29.02c0 .824.668 1.492 1.492 1.492h15.672c.824 0 1.492-.668 1.492-1.492v-29.02c0-.824-.668-1.492-1.492-1.492h-15.672m13.11 2.762c.632 0 1.143.511 1.143 1.143 0 .632-.511 1.145-1.143 1.145-.632 0-1.145-.513-1.145-1.145 0-.632.513-1.143 1.145-1.143m-22.344 2.881c-1.326 0-2.402 1.076-2.402 2.402 0 1.326 1.076 2.4 2.402 2.4.762 0 1.441-.356 1.881-.91h3.25v-2.982h-3.25c-.44-.554-1.118-.91-1.881-.91m34.14 0c-.762 0-1.441.356-1.881.91h-3.25v2.982h3.25c.44.554 1.118.91 1.881.91 1.326 0 2.402-1.074 2.402-2.4 0-1.326-1.076-2.402-2.402-2.402m-34.14 7.955c-1.326 0-2.402 1.076-2.402 2.402 0 1.326 1.076 2.402 2.402 2.402.762 0 1.441-.356 1.881-.91h3.25v-2.984h-3.25c-.44-.554-1.118-.91-1.881-.91m34.14 0c-.762 0-1.441.356-1.881.91h-3.25v2.984h3.25c.44.554 1.118.91 1.881.91 1.326 0 2.402-1.076 2.402-2.402 0-1.326-1.076-2.402-2.402-2.402m-34.14 7.957c-1.326 0-2.402 1.074-2.402 2.4 0 1.326 1.076 2.402 2.402 2.402.762 0 1.441-.356 1.881-.91h3.25v-2.982h-3.25c-.44-.554-1.118-.91-1.881-.91m34.14 0c-.762 0-1.441.356-1.881.91h-3.25v2.982h3.25c.44.554 1.118.91 1.881.91 1.326 0 2.402-1.076 2.402-2.402 0-1.326-1.076-2.4-2.402-2.4" transform="matrix(.82158 0 0 .82158 62.14 2.962)" fill="url(#1)"/></svg>