<svg xmlns="http://www.w3.org/2000/svg" viewBox="0 0 48 48"><defs><clipPath id="1"><path transform="matrix(15.33333 0 0 11.5 415-125.5)" d="m-24 13c0 1.105-.672 2-1.5 2-.828 0-1.5-.895-1.5-2 0-1.105.672-2 1.5-2 .828 0 1.5.895 1.5 2" fill="#1890d0"/></clipPath><linearGradient gradientUnits="userSpaceOnUse" y2="116.52" x2="10.719" y1="216.07" x1="11.941" id="0"><stop stop-color="#222c35"/><stop offset="1" stop-color="#545e67"/></linearGradient><linearGradient id="2" y1="24.541" x2="0" y2=".457" gradientUnits="userSpaceOnUse"><stop stop-color="#0c7eed"/><stop offset="1" stop-color="#0bb6ff"/></linearGradient></defs><g transform="translate(-384.57-499.8)"><rect y="115.15" x="-39.36" height="100.46" width="97.1" fill="url(#0)" fill-rule="evenodd" rx="6.241" stroke-width="1" transform="matrix(.4778 0 0 .4778 404.17 444.78)"/><g clip-path="url(#1)" transform="matrix(1.41667 0 0 1.41667 374.57 484.84)"><path d="m-107.28.457l-7.082 7.084 7.082 7.082 7.084-7.082-7.084-7.084m19.834 0l-7.084 7.084 7.084 7.082 7.084-7.082-7.084-7.084m-9.916 9.916l-7.084 7.084 7.084 7.084 7.082-7.084-7.082-7.084" transform="matrix(.70588 0 0 .70588 92.73 18.677)" fill="url(#2)"/></g></g></svg>