<svg xmlns="http://www.w3.org/2000/svg" viewBox="0 0 48 48"><defs><linearGradient gradientUnits="userSpaceOnUse" y2="503.8" x2="409.57" y1="552.8" x1="408.57"><stop stop-color="#197cf1"/><stop offset="1" stop-color="#59d0ff"/></linearGradient><linearGradient id="0" gradientUnits="userSpaceOnUse" y1="211.23" x2="0" y2="157.23"><stop stop-color="#222c35"/><stop offset="1" stop-color="#545e67"/></linearGradient><linearGradient id="1" x1="765.63" y1="212.51" x2="766.08" y2="172.39" gradientUnits="userSpaceOnUse"><stop stop-color="#ff433a"/><stop offset="1" stop-color="#ff9436"/></linearGradient></defs><g transform="matrix(.85715 0 0 .85715-635.02-138.8)"><circle cx="768.86" cy="184.55" r="28" fill="url(#0)" transform="translate(0 5.385)"/><path d="m781.92 192.31c-2.149 2.149-5.01 3.332-8.04 3.332-1.926 0-3.778-.477-5.424-1.372l-2.448 2.112c-.12 1.284-.757 2.638-1.879 3.76-.068.068-.137.134-.207.198l.373 3.764.902.902 3.242-3.242c.425-.425.99-.659 1.591-.659.601 0 1.166.234 1.591.659l.017.017c.422.422.656.987.656 1.588 0 .601-.234 1.166-.659 1.591l-4.893 4.893c-.247.247-.572.371-.896.371-.324 0-.649-.124-.896-.371l-1.404-1.404c-.238-.238-.371-.56-.371-.896 0-.269.087-.528.243-.743l-1.233-1.233c0 0-.0001-.0001-.0001-.0001l-2.17-2.17-1.827-1.827c0 0 0 0-.0001-.0001l-.809-.809-.759-.759c0 0 0 0 0 0l-.861-.861c0 0 0 0 0 0l-1.016-1.016-3.404-3.404c-.221.161-.482.242-.743.242-.324 0-.649-.124-.896-.371l-1.404-1.404c-.238-.238-.371-.56-.371-.896 0-.336.133-.658.371-.896l4.893-4.893c.425-.425.99-.659 1.591-.659.601 0 1.166.234 1.591.659l.014.014c.425.425.659.99.659 1.591 0 .601-.234 1.166-.659 1.591l-3.242 3.242.902.902 3.767.373c.064-.07.128-.14.195-.207 1.078-1.078 2.423-1.743 3.751-1.868l2.125-2.463c-2.334-4.312-1.684-9.824 1.956-13.464 2.148-2.148 5.01-3.331 8.04-3.331 3.039 0 5.895 1.183 8.04 3.332 4.436 4.435 4.436 11.653 0 16.09" fill="url(#1)"/></g></svg>