<svg xmlns="http://www.w3.org/2000/svg" viewBox="0 0 48 48"><defs><linearGradient id="0" gradientUnits="userSpaceOnUse" y1="12.529" x2="0" y2="-36.27"><stop stop-color="#d3d3d3"/><stop offset="1" stop-color="#fcf9f9"/></linearGradient><linearGradient id="1" x1="95.62" y1="-9.559" x2="568.97" y2="698.07" gradientUnits="userSpaceOnUse"><stop stop-color="#69159f"/><stop offset="1" stop-color="#b92ff5"/></linearGradient></defs><g transform="matrix(.05229 0 0 .05229 7.799 8.01)" enable-background="new"><circle cx="12.373" cy="-11.715" r="24" transform="matrix(19.125 0 0 19.125 73.19 530.05)" fill="url(#0)"/><path d="m161.55 26.15v41.24 15.539 15.576l-92.97 53.752.037 107.5-13.447 7.807-13.447 7.807-41.724 24.21 19.312 33.28 41.836-24.28 13.447-7.77 13.447-7.807 92.86 53.53 112.14-64.846-.075-129.54-92.9-53.602v-15.539-15.539-41.31h-38.511m270.93 61.26l-112.14 64.846.075 129.58 112.21 64.7 112.17-64.846-.037-108.33 67.24-38.96-19.312-33.32-68.06 39.445-92.15-53.12m-125.06 214.86l-112.17 64.846v2.241l.075 127.3 92.9 53.602v73.848h38.511v-73.811l92.97-53.752-.075-129.58-110.27-63.58-1.942-1.121" fill="url(#1)"/></g></svg>