<svg xmlns="http://www.w3.org/2000/svg" viewBox="0 0 48 48"><defs><linearGradient gradientTransform="matrix(.49433 0 0 .4778 86.64 13.1)" gradientUnits="userSpaceOnUse" y2="-26.05" x2="-125.19" y1="73.5" x1="-123.97" id="0"><stop stop-color="#e61a5f"/><stop offset="1" stop-color="#ff6c9d"/></linearGradient></defs><rect height="48" width="48" fill="url(#0)" fill-rule="evenodd" rx="2.982" stroke-width="1"/><path d="m31.467 15.467c-4.713 0-8.533 3.821-8.533 8.533 0 4.713 3.821 8.533 8.533 8.533 4.713 0 8.533-3.821 8.533-8.533 0-4.713-3.821-8.533-8.533-8.533m0 2.133c3.535 0 6.4 2.865 6.4 6.4 0 3.535-2.865 6.4-6.4 6.4-3.535 0-6.4-2.865-6.4-6.4 0-3.535 2.865-6.4 6.4-6.4zm-17.07 1.067c-3.535 0-6.4 2.865-6.4 6.4 0 3.535 2.865 6.4 6.4 6.4 3.535 0 6.4-2.865 6.4-6.4 0-3.535-2.865-6.4-6.4-6.4m0 2.133c2.356 0 4.267 1.91 4.267 4.267 0 2.356-1.91 4.267-4.267 4.267-2.356 0-4.267-1.91-4.267-4.267 0-2.356 1.91-4.267 4.267-4.267" fill="#f9f9f9" fill-opacity=".85"/></svg>