<svg xmlns="http://www.w3.org/2000/svg" viewBox="0 0 48 48"><defs><filter color-interpolation-filters="sRGB"><feGaussianBlur stdDeviation="1.71"/></filter><linearGradient y1="92.54" x2="0" y2="7.02" gradientUnits="userSpaceOnUse" gradientTransform="scale(1.0059.99417)"><stop/><stop offset="1" stop-opacity=".588"/></linearGradient><linearGradient gradientTransform="matrix(.49433 0 0 .4778 86.64 13.1)" gradientUnits="userSpaceOnUse" y2="-26.05" x2="-125.19" y1="73.5" x1="-123.97" id="0"><stop stop-color="#1074f5"/><stop offset="1" stop-color="#02befd"/></linearGradient></defs><rect height="48" width="48" fill="url(#0)" fill-rule="evenodd" rx="2.982" stroke-width="1"/><g transform="matrix(.03442 0 0 .03442 8 8)" fill="#fff" fill-opacity=".85"><path d="m404.3 894.6c0 19.301 15.7 35 35 35h59c19.3 0 35-15.699 35-35v-157h-129v157"/><path d="m533.3 35c0-19.3-15.7-35-35-35h-59c-19.3 0-35 15.7-35 35v30.7h129v-30.7"/><path d="m404.3 365.7h129v71.9h-129z"/><path d="m779.3 109.4c-6.6-8.6-16.9-13.7-27.8-13.7h-218.2-129-210.5c-19.3 0-35 15.7-35 35v170c0 19.3 15.7 35 35 35h210.5 129 218.2c10.899 0 21.2-5.1 27.8-13.7l65.2-85c9.6-12.6 9.6-30 0-42.6l-65.2-85"/><path d="m533.3 707.6h202.5c19.3 0 35-15.699 35-35v-170c0-19.299-15.7-35-35-35h-202.5-129-226.2c-10.899 0-21.2 5.1-27.8 13.701l-65.2 85c-9.6 12.6-9.6 30 0 42.6l65.2 85c6.601 8.6 16.9 13.699 27.8 13.699h226.2 129"/></g></svg>