<svg xmlns="http://www.w3.org/2000/svg" viewBox="0 0 48 48"><defs><linearGradient id="0" gradientUnits="userSpaceOnUse" x1="62.6" y1="11.846" x2="62.15" y2="-35.476"><stop stop-color="#0164c2"/><stop stop-color="#00a9f3" offset="1"/></linearGradient></defs><g transform="matrix(.99999 0 0 .99999-38.469 35.815)" enable-background="new"><circle r="24" cy="-11.815" cx="62.47" fill="url(#0)"/><path d="m24 2c-1.584 0-3.124.17-4.609.49l1.438 2.496h6.348l1.439-2.496c-1.487-.321-3.03-.49-4.615-.49m-6.195.893c-3.622 1.066-6.855 3.02-9.441 5.635l1.695 2.936h6.35l3.17-5.498-1.773-3.072m12.559.047l-1.748 3.03 3.174 5.498h6.346l1.621-2.809c-2.568-2.634-5.779-4.625-9.393-5.715m-9.05 4.289l-2.682 4.648 2.682 4.648h5.367l2.682-4.648-2.682-4.648h-5.367m-13.746 2.176c-2.031 2.283-3.606 4.98-4.551 7.967h2.807l3.174-5.494-1.43-2.473m33.09.254l-1.279 2.219 3.176 5.494h2.424c-.907-2.872-2.395-5.483-4.32-7.713m-30.04 3.805l-2.609 4.518 2.609 4.51h5.211l2.609-4.51-2.609-4.518h-5.211m21.729 0l-2.607 4.518 2.607 4.51h5.213l2.605-4.51-2.605-4.518h-5.213m-29.631 5.02c-.455 1.761-.725 3.604-.725 5.51 0 1.896.267 3.728.717 5.479h3.109l3.174-5.492-3.174-5.496h-3.102m39.834 0l-3.176 5.496 3.176 5.494h2.729c.451-1.751.713-3.584.713-5.479 0-1.906-.267-3.749-.723-5.512h-2.719m-21.639.158l-3.082 5.338 3.082 5.34h6.166l3.08-5.34-3.08-5.338h-6.166m-10.387 7.148l-2.695 4.668 2.695 4.672h5.396l2.695-4.672-2.695-4.668h-5.396m21.859.223l-2.564 4.445 2.564 4.449h5.137l2.564-4.449-2.564-4.445h-5.137m-29.28 4.859c.927 2.819 2.409 5.375 4.316 7.563l1.189-2.066-3.172-5.496h-2.334m39.445 0l-3.176 5.496 1.191 2.066c1.906-2.188 3.388-4.744 4.314-7.563h-2.33m-21.242.844l-2.688 4.652 2.688 4.654h5.373l2.688-4.654-2.688-4.652h-5.373m-11.258 5.637l-1.387 2.404c2.629 2.562 5.902 4.448 9.549 5.443l1.357-2.35-3.17-5.498h-6.35m21.73 0l-3.174 5.5 1.33 2.309c3.638-1.023 6.896-2.937 9.512-5.52l-1.322-2.289h-6.346m-10.961 5.906l-1.316 2.271c1.451.306 2.949.461 4.488.461 1.539 0 3.041-.155 4.488-.461l-1.311-2.271h-6.35" transform="translate(38.47-35.815)" fill-opacity=".613"/></g></svg>