<svg xmlns="http://www.w3.org/2000/svg" viewBox="0 0 48 48"><defs><linearGradient id="0" gradientUnits="userSpaceOnUse" x1="62.6" y1="11.846" x2="62.15" y2="-35.476"><stop stop-color="#d3d3d3"/><stop offset="1" stop-color="#fcf9f9"/></linearGradient><linearGradient id="1" x1="23.799" y1="-.305" x2="24.2" y2="31.766" gradientUnits="userSpaceOnUse"><stop stop-color="#69159f"/><stop stop-color="#b92ff5" offset="1"/></linearGradient></defs><g transform="matrix(.99999 0 0 .99999-38.469 35.815)" enable-background="new"><circle r="24" cy="-11.815" cx="62.47" fill="url(#0)"/><g transform="matrix(1.71431 0 0 1.71431-587.11-926.23)"><flowRoot font-size="10" letter-spacing="0" line-height="125%" word-spacing="0" text-align="start" transform="translate(355.62 516.06)" font-family="sans-serif"><flowRegion><path d="m22 3h27v15h-27z"/></flowRegion><flowPara>Plasm</flowPara></flowRoot><path d="m24 10c-1.481 0-2.748.528-3.803 1.582-1.055 1.054-1.582 2.322-1.582 3.803v8.615c0 1.481.528 2.749 1.582 3.803 1.054 1.054 2.322 1.58 3.803 1.58 1.481 0 2.748-.526 3.803-1.58 1.054-1.054 1.582-2.322 1.582-3.803v-8.615c0-1.481-.527-2.748-1.582-3.803-1.054-1.054-2.322-1.582-3.803-1.582m-8.615 10.77c-.292 0-.545.105-.758.318-.213.213-.32.466-.32.758v2.154c0 2.478.83 4.636 2.484 6.471 1.654 1.834 3.698 2.885 6.133 3.154v2.221h-4.309c-.292 0-.543.107-.756.32-.213.213-.32.466-.32.758 0 .291.107.543.32.756.213.213.464.32.756.32h10.77c.292 0 .543-.107.756-.32.213-.213.32-.464.32-.756 0-.292-.107-.545-.32-.758-.213-.213-.464-.32-.756-.32h-4.309v-2.221c2.434-.269 4.478-1.32 6.133-3.154 1.654-1.834 2.482-3.991 2.482-6.471v-2.154c0-.292-.105-.544-.318-.758h-.002c-.213-.213-.464-.318-.756-.318-.292 0-.545.105-.758.318-.213.213-.32.466-.32.758v2.154c0 2.076-.738 3.849-2.213 5.324-1.475 1.475-3.249 2.213-5.324 2.213-2.076 0-3.851-.738-5.326-2.213-1.475-1.475-2.213-3.249-2.213-5.324v-2.154c0-.292-.105-.545-.318-.758-.213-.213-.466-.318-.758-.318" transform="matrix(.58333 0 0 .58333 364.91 519.41)" fill="url(#1)" fill-opacity=".85"/></g></g></svg>