<svg xmlns="http://www.w3.org/2000/svg" xmlns:xlink="http://www.w3.org/1999/xlink" viewBox="0 0 48 48"><defs><linearGradient gradientUnits="userSpaceOnUse" y2="227.95" x2="-424.98" y1="519.48" x1="-423.09" id="0" xlink:href="#2"/><linearGradient y2="23.362" x2="-208.33" y1="315.36" x1="-206.67" gradientTransform="matrix(.99785 0 0 1-218.94 203)" gradientUnits="userSpaceOnUse" id="1" xlink:href="#2"/><linearGradient id="2"><stop stop-color="#2e3e46"/><stop offset="1" stop-color="#435a64"/></linearGradient></defs><g transform="matrix(-.099 0 0 .099-17.961-9.608)"><path d="m43.887-36.699c-1.108 0-2 .892-2 2v38.729l111 .24v-29.08c0-1.108-.892-2-2-2h-60.17c-2.039.18-2.301-.09-3.308-1.435-1.429-1.912-3.586-5.145-4.992-7.01-1.129-1.633-1.312-1.443-3.184-1.443z" fill="#304149" color="#000" transform="matrix(-4.16765 0 0 4.16765-18.57 316.72)"/><rect width="463.85" height="295.13" x="-655.5" y="225.84" fill="url(#0)" rx="9.63"/><rect width="462.85" height="295.13" x="-654.92" y="225.8" fill="none" stroke="url(#1)" stroke-linecap="round" stroke-width="2" rx="9.63"/><g transform="matrix(-.38932 0 0 .38932-174.6 188.39)" fill="#e0e3e5"><path d="m447.47 384.75c17.779 0 28.28-14.546 28.28-27.476 0-14.546-10.506-25.05-28.28-25.05h-141.83c-17.779 0-28.688 10.506-28.688 25.05v229.51c0 14.14 10.91 25.05 28.688 25.05 14.14 0 24.24-10.91 24.24-25.05v-84.85h103.04c14.546 0 29.09-10.91 29.09-24.24 0-14.14-14.546-28.688-29.09-28.688h-103.04v-64.25h117.58"/><path d="m596.39 586.78c0 35.961 53.34 35.15 53.34 0v-204.05h67.07c35.961 0 35.961-51.72 0-51.72h-191.12c-35.15 0-35.15 51.72 0 51.72h70.71v204.05"/><path d="m782.84 583.95c0 17.779 14.14 27.88 27.476 27.88 14.546 0 25.86-10.1 25.86-27.88v-53.34h67.48c52.53 0 99.8-35.557 99.8-99.4 0-67.48-47.28-102.63-99.8-102.63h-93.34c-16.971 0-27.476 14.546-27.476 27.88v227.49m120.81-204.45c27.07 0 48.49 23.436 48.49 51.72 0 25.05-21.415 48.891-48.49 48.891h-67.48v-100.61h67.48"/></g></g></svg>