<svg xmlns="http://www.w3.org/2000/svg" viewBox="0 0 48 48"><defs><filter color-interpolation-filters="sRGB"><feGaussianBlur stdDeviation="1.71"/></filter><linearGradient id="1" gradientUnits="userSpaceOnUse" x1="4.195" y1="28.723" x2="16.75" y2="-2.245" gradientTransform="matrix(.96226-.3241.32553.9665-29.625 13.376)"><stop stop-color="#1074f5"/><stop offset="1" stop-color="#02befd"/></linearGradient><linearGradient gradientTransform="matrix(1.03458 0 0 1 4.382 0)" id="0" x1="-123.97" y1="73.5" x2="-125.19" y2="-26.05" gradientUnits="userSpaceOnUse"><stop stop-color="#2e3e46"/><stop offset="1" stop-color="#435a64"/></linearGradient><linearGradient y1="92.54" x2="0" y2="7.02" gradientUnits="userSpaceOnUse" gradientTransform="scale(1.0059.99417)"><stop/><stop offset="1" stop-opacity=".588"/></linearGradient></defs><path d="m-170.49-27.421h87.55c3.577 0 6.458 2.783 6.458 6.241v87.978c0 3.457-2.88 6.241-6.457 6.241h-87.55c-3.577 0-6.457-2.783-6.457-6.241v-87.978c0-3.457 2.88-6.241 6.457-6.241" fill="url(#0)" fill-rule="evenodd" transform="matrix(.4778 0 0 .4778 84.54 13.1)"/><path d="m-21.22 5.777l-8.193 2.76-1.695 8.506 6.496 5.748 8.193-2.76 1.695-8.506-6.496-5.748m15.365 3.15l-8.193 2.76-1.697 8.506 6.498 5.748 8.191-2.76 1.697-8.508-6.496-5.746m-10.324 11.836l-8.193 2.76-1.695 8.508 6.496 5.746 8.193-2.76 1.695-8.506-6.496-5.748z" transform="translate(39.24 2.222)" fill="url(#1)"/></svg>