<svg xmlns="http://www.w3.org/2000/svg" xmlns:xlink="http://www.w3.org/1999/xlink" viewBox="0 0 48 48"><defs><clipPath id="5"><path fill="#1890d0" transform="matrix(15.33333 0 0 11.5 415-125.5)" d="m-24 13c0 1.105-.672 2-1.5 2-.828 0-1.5-.895-1.5-2 0-1.105.672-2 1.5-2 .828 0 1.5.895 1.5 2"/></clipPath><clipPath><path fill="#1890d0" transform="matrix(15.33333 0 0 11.5 415-125.5)" d="m-24 13c0 1.105-.672 2-1.5 2-.828 0-1.5-.895-1.5-2 0-1.105.672-2 1.5-2 .828 0 1.5.895 1.5 2"/></clipPath><linearGradient xlink:href="#0" id="4" gradientUnits="userSpaceOnUse" y1="555.64" x2="0" y2="507.64"/><linearGradient xlink:href="#0" id="3" gradientUnits="userSpaceOnUse" y1="555.3" x2="0" y2="507.3"/><linearGradient xlink:href="#0" id="2" x1="367.68" x2="414.68" gradientUnits="userSpaceOnUse"/><linearGradient id="1" y1="555.3" x2="0" y2="507.3" gradientUnits="userSpaceOnUse"><stop stop-color="#333"/><stop offset="1" stop-color="#515151"/></linearGradient><linearGradient id="0"><stop stop-color="#197cf1"/><stop offset="1" stop-color="#21c9fb"/></linearGradient></defs><g transform="translate(-312.89-505.27)"><circle cx="391.21" cy="531.73" r="22.498" fill="url(#3)" stroke="url(#4)" stroke-linejoin="round" stroke-linecap="round" stroke-width="2" transform="matrix(1.02134 0 0 1.02134-62.63-13.718)"/><g clip-path="url(#5)" fill="#fff" fill-opacity=".855" transform="matrix(1.33334 0 0 1.33334 304.89 497.26)"><path d="m24.32 24.645c-.18-.789.77-1.25 1.414-1.164 1.266.168 1.863 1.586 1.574 2.719-.441 1.727-2.402 2.504-4.01 1.988-2.184-.703-3.141-3.234-2.391-5.32.953-2.648 4.059-3.793 6.605-2.809 3.105 1.203 4.434 4.902 3.211 7.918-1.445 3.582-5.719 5.098-9.199 3.633-4.04-1.695-5.734-6.566-4.04-10.52 1.941-4.512 7.387-6.395 11.797-4.453 4.965 2.184 7.04 8.23 4.855 13.12-2.426 5.441-9.05 7.699-14.391 5.277-5.891-2.672-8.332-9.898-5.676-15.719 2.082-4.566 6.848-7.438 11.836-7.309" fill="#fff" fill-rule="evenodd" fill-opacity=".855"/></g></g></svg>