<svg xmlns="http://www.w3.org/2000/svg" viewBox="0 0 48 48"><defs><linearGradient id="0" x1="61.57" y1="22.939" x2="60.753" y2="-27.706" gradientUnits="userSpaceOnUse"><stop stop-color="#197cf1"/><stop offset="1" stop-color="#21c9fb"/></linearGradient></defs><g transform="translate(-19.348-8.325)"><path d="m41.36-25.875h42.04c1.652 0 2.982 1.33 2.982 2.982v42.04c0 1.652-1.33 2.982-2.982 2.982h-42.04c-1.652 0-2.982-1.33-2.982-2.982v-42.04c0-1.652 1.33-2.982 2.982-2.982" transform="matrix(.99999 0 0 .99999-19.03 34.2)" fill="url(#0)" fill-rule="evenodd"/><path d="m56.98 24.828c0-.008-.002-.015-.004-.023-.005-.028-.001-.056-.018-.084-.0001-.004-.002-.008-.003-.013-.001-.031-.021-.062-.034-.092-.002-.005-.005-.001-.007-.015-.012-.026-.026-.051-.041-.075-.003-.005-.006-.001-.009-.014-.017-.027-.036-.052-.057-.076-.004-.005-.008-.009-.013-.014-.018-.02-.037-.039-.057-.057-.005-.005-.001-.009-.015-.014-.024-.021-.05-.04-.077-.058-.004-.003-.008-.005-.013-.008-.026-.016-.052-.03-.08-.043-.003-.0001-.005-.003-.008-.005l-12.897-5.853c-.197-.09-.424-.09-.622 0l-8.911 4.044c-.378.172-.546.617-.374.996.172.378.618.546.996.374l8.6-3.904 11.05 5.02-11.05 4.858-12.594-5.535c-.0001 0-.002-.0001-.003 0-.018-.008-.038-.015-.057-.022-.005-.002-.001-.004-.014-.005-.016-.005-.032-.009-.048-.013-.009-.002-.017-.005-.026-.007-.001-.002-.021-.003-.031-.005-.015-.002-.029-.005-.044-.007-.007-.0001-.014-.0001-.021-.0001-.018-.0001-.037-.003-.055-.003-.0001 0-.002 0-.004 0-.007 0-.014.0001-.021.0001-.016 0-.032.0001-.049.002-.013.0001-.025.003-.037.005-.011.002-.023.003-.034.005-.015.003-.03.007-.045.001-.008.002-.016.004-.024.006-.016.005-.032.001-.048.016-.007.002-.014.005-.02.007-.016.006-.031.013-.046.02-.007.003-.014.007-.021.001-.014.007-.027.015-.04.023-.008.005-.016.001-.024.015-.011.007-.022.015-.033.023-.009.007-.018.013-.027.02-.009.007-.018.015-.027.023-.001.008-.019.017-.028.026-.008.008-.015.016-.023.024-.009.001-.018.019-.027.029-.008.009-.015.019-.022.028-.007.001-.015.019-.022.029-.008.012-.016.025-.023.037-.005.008-.001.016-.015.024-.009.016-.017.033-.025.05-.002.005-.005.009-.007.014 0 .0001-.0001.002 0 .003-.008.018-.015.037-.021.056-.002.005-.004.001-.005.015-.005.016-.009.032-.013.048-.002.009-.005.018-.007.026-.002.001-.003.02-.005.03-.003.015-.005.03-.007.046-.0001.006-.0001.012-.0001.018-.002.019-.003.039-.003.058 0 .0001 0 .002 0 .003v14.684c0 .293.17.56.437.683l12.897 5.957c0 0 .002.0001.002.0001.005.002.011.004.017.007.025.011.05.02.076.028.009.003.018.005.027.007.024.007.049.012.073.016.007.0001.015.003.023.004.032.004.065.007.097.007.003 0 .006-.0001.001-.0001.028 0 .057-.002.085-.006.001-.0001.021-.003.031-.005.022-.004.044-.008.065-.014.001-.002.02-.005.03-.008.024-.007.047-.016.071-.026.007-.003.013-.005.02-.008.002-.0001.003-.0001.005-.002l12.897-5.957c.266-.123.437-.389.437-.683v-14.684c0-.032-.003-.064-.007-.095m-12.89 19.56v-10.1c0-.415-.337-.752-.752-.752-.415 0-.752.337-.752.752v10.1l-11.393-5.262v-13.05l11.842 5.204c.096.042.199.064.303.064.103 0 .206-.021.303-.064l11.842-5.204v13.05l-11.393 5.262" fill="#fff" fill-opacity=".85"/></g></svg>