<svg xmlns="http://www.w3.org/2000/svg" viewBox="0 0 48 48"><defs><linearGradient id="0" gradientUnits="userSpaceOnUse" y1="545.14" x2="0" y2="518.14"><stop stop-color="#197ff1"/><stop offset="1" stop-color="#21c6fb"/></linearGradient></defs><g transform="matrix(1.71429 0 0 1.71429-662.92-887.73)"><g transform="translate(.135.045)"><circle r="14" cy="531.8" cx="400.57" fill="url(#0)"/><circle cx="400.57" cy="531.8" r="14" fill="#5ea5fb" fill-opacity="0"/></g><path d="m407.39 537.01l-2.886-2.886c.695-1 1.043-2.123 1.043-3.357 0-.802-.156-1.569-.467-2.301-.311-.732-.732-1.363-1.262-1.893-.53-.53-1.161-.951-1.893-1.262-.732-.311-1.499-.467-2.301-.467-.802 0-1.569.156-2.301.467-.732.311-1.363.732-1.893 1.262-.53.53-.951 1.161-1.262 1.893-.311.732-.467 1.499-.467 2.301 0 .802.156 1.569.467 2.301.311.732.732 1.363 1.262 1.893.53.53 1.161.951 1.893 1.262.732.312 1.499.467 2.301.467 1.234 0 2.353-.348 3.357-1.043l2.886 2.877c.202.213.454.32.757.32.292 0 .544-.107.757-.32.213-.213.32-.466.32-.757 0-.297-.103-.55-.311-.757m-5.102-3.58c-.738.738-1.625 1.106-2.663 1.106-1.038 0-1.925-.369-2.663-1.106-.738-.738-1.106-1.625-1.106-2.663 0-1.038.369-1.925 1.106-2.663.738-.738 1.625-1.106 2.663-1.106 1.038 0 1.925.369 2.663 1.106.738.738 1.106 1.625 1.106 2.663 0 1.038-.369 1.925-1.106 2.663" fill="#fff" fill-opacity=".847"/></g></svg>