<svg xmlns="http://www.w3.org/2000/svg" viewBox="0 0 48 48"><defs><linearGradient gradientTransform="matrix(2.65715 0 0 2.66062-1577.48-2270.95)" id="0" y1="863.74" x2="0" y2="841.19" gradientUnits="userSpaceOnUse"><stop stop-color="#187ced"/><stop offset="1" stop-color="#42d6fc"/></linearGradient><linearGradient id="1" y1="29.505" x2="0" y2="2.32" gradientUnits="userSpaceOnUse" gradientTransform="matrix(1.79921 0 0 1.79456 33.493-30.597)"><stop stop-color="#0164c2"/><stop offset="1" stop-color="#00a9f3"/></linearGradient></defs><g transform="matrix(.99999 0 0 .99999-38.37 25.882)" enable-background="new"><ellipse ry="22.836" rx="22.821" cx="62.37" cy="-1.875" fill="url(#0)" stroke="url(#0)" stroke-width="2.328"/><path d="m62.33-25.8c-3.03 0-5.905.576-8.566 1.586-.194.177-.445.314-.644.297-.028-.003-.054-.019-.083-.03-1.312.547-2.556 1.218-3.736 1.979.153.248.199.525-.116.659-.053.021-.72.09-.953.085-3.355 2.432-6.05 5.703-7.768 9.521.028-.005.052-.016.081-.018.261-.005.637.07.888.123.231.047.418.202.618.217.568.043.705-.398 1.169-.645.479.067.797-.082 1.23-.033.295.033.508.347.738.364.193.019.363-.181.551-.152.182.029.495.423.525.645.038.276-.203.524-.124.827.29.294.816.354 1.23.523.27-.222.036-.633 0-.953-.005-.142.019-.267 0-.397-.024-.221-.119-.423-.121-.612-.005-.873.706-1.281 1.293-1.626.254-.15.454-.413.675-.523.311-.156.543-.192.801-.336.466-.261.865-.471 1.23-.766.168-.396.016-.927.031-1.318.168-.103.313.044.492.03.281-.058.304-.454.464-.612.092-.091.346-.155.461-.245.28-.219.371-.55.616-.645.088-.036.29-.024.429-.062.182-.048.441-.263.738-.364.193-.067.636-.081.71-.154.091-.092 0-.352.031-.491.149-.692 1.195-.839 1.813-1.072.433-.163.878-.464 1.354-.372-.093.329-.537.212-.462.612.104.555.848-.158 1.045-.241.375-.157 1.018-.254 1.511-.432.432-.157 1.206-.398.799-.89-.339-.019-.503.397-.799.523-.204.033-.165-.171-.34-.187-.165-.019-.258.152-.429.123-.169-.028-.407-.293-.433-.491-.067-.512.434-.723.647-1.105-.141-.463-.783-.094-1.171-.276.038-.276.323-.466.646-.519.265-.044.859-.021 1.017.118.091.079.007.271.154.399.157.142.35.126.553.094.072-.35-.456-.262-.398-.493.415-.271 1.091-.049 1.6-.123.293-.043.6-.249.86-.395.247-.14.567-.384.829-.154.069.25-.228.333-.368.458-.47.418-.955.896-1.321 1.381.224.218.632.108 1.012.154.148.019.335.063.492.092.184.033.379.023.522.061.258.063.327.339.583.339.421 0 .426-.455.187-.738.075-.29.193-.44.092-.643-.19-.378-.885-.019-.921-.491-.022-.306.257-.292.368-.521-.051-.591.486-.634.429-1.164-.024-.222-.212-.225-.368-.432-.079-.101-.118-.298-.208-.385-.718-.062-1.443-.103-2.178-.103zm-12.377 4.827h.003c.143.019.316.174.49.187.163.005.3-.091.401-.062.257.067.366.455.123.645-.201.024-.279-.088-.431-.061-.418.07-.578.887-.89.86-.294-.024-.454-.74-.154-.953.019-.186-.137-.216-.126-.4.089-.113.341-.235.586-.215m-1.385.095c.086.003.15.023.183.06-.041.327-.297.306-.55.458-.437.263-.69.664-.829 1.227-.041.163-.471.597-.679.554-.488-.102.135-.999.246-1.136.124-.151.288-.283.433-.458.141-.169.232-.397.368-.491.148-.102.572-.225.829-.215m3.64 1.103c.156.003.297.029.361.092-.1.405-.975.298-1.295.152.019-.153.26-.195.461-.215.142-.005.317-.033.473-.028m-1.991.748c.104-.003.209.019.319.049-.283.236-.589.37-1.075.523-.234.073-.637.164-.677-.096-.048-.319.342-.245.555-.273.269-.038.564-.193.879-.203m30.545 1.818c-.037.088-.062.173-.059.257.019.148.182.29.218.491.019.106-.05.335 0 .432.148.286.536.081.813.096-.315-.433-.629-.866-.972-1.276m1.572 2.109c-.044.211-.188.487-.305.664-.268.407-.632.426-1.017.642-.321.181-.459.484-.647.799-.204.341-.33.546-.246 1.04-.275.544-.691.877-1.26 1.135-.168.076-.398.104-.553.215-.123.089-.193.325-.368.521-.216.239-.442.34-.555.523-.088.142-.118.422-.215.612-.132.258-.411.384-.583.645-.079.12-.132.365-.218.523-.195.353-.528.608-.492.918.036.3.377.353.401.614.005.148-.098.238-.092.4.005.235.164.401.183.582.046.455-.155.637-.241.949-.041.149-.023.316-.063.432-.077.228-.394.434-.401.703-.003.192.197.346.213.615.005.186-.092.383-.058.554.065.334.663.722.923.981.348.347.803.616.953.981.126.311.125.714.368.949.179.173.478.281.707.46.214.168.448.313.677.491.374.292.94.874 1.537.83.311-.021.631-.276.984-.339.363-.064.835-.099 1.202-.06.281.028.57.196.862.182.308-.019.662-.247 1.012-.399.282-.122.628-.258 1.01-.358.174-1.167.267-2.362.267-3.579 0-4.899-1.469-9.439-3.982-13.224m-39.672 8.04c-.511.028-.846.051-1.136.182-.665.302-.537 1.199-1.202 1.411-.23.073-.546.077-.799.123-.219.04-.485.158-.71.154-.063 0-.151-.048-.23-.071-.059.421-.108.846-.146 1.273.633.12.959.957 1.518 1.234.153.076.353.081.55.124.159.036.28.102.433.154.325.11.724.097.984.213.392.174.679.908 1.017 1.105.019.198-.039.464.031.612.159.216.384.168.646.308.314.169.41.605.707.738.103.046.36.04.522.089.408.123.541.593.89.491.229-.067.211-.303.248-.521.151-.163.317-.423.553-.428.382-.019.416.394.555.764.079.209.284.391.337.612.095.381.048 1.522-.034 1.75-.096.28-.476.398-.71.708-.11.145-.162.358-.246.46-.151.183-.374.231-.487.4-.063.095-.126.299-.188.428-.185.39-.432.667-.276 1.136.065.193.367.322.368.549 0 .267-.57.506-.614.799-.034.218.176.607.246.89.051.214.457.348.583.491.216.242.388.584.586.888.39.597.696 1.326 1.075 1.904.201.303.482.576.616.89.068.158.059.348.121.491.22.495 1.19 1.01 1.691 1.257.234.113.495.154.71.273.326.181.972.668 1.136.953.147.256.238.88.309 1.287.096.538 0 .952.031 1.535.019.315.12.632.124.949 0 .11-.059.193-.063.306 0 .018.007.04.007.058 3.02 1.363 6.368 2.14 9.911 2.14.64 0 1.273-.034 1.9-.083.028-.047.053-.096.088-.14.145-.189.273-.355.368-.521.091-.56-.224-.951-.092-1.441.147-.551.91-.887 1.445-1.136.184-.085.372-.224.522-.276.37-.129.833-.058 1.171-.182.576-.21.636-.827.921-1.35.135-.248.311-.496.337-.673.023-.158-.058-.308-.033-.495.028-.185.194-.345.246-.549.067-.266.096-.655.096-.951 0-.243-.114-.456-.123-.675-.04-.796.288-.885.583-1.318.148-.215.203-.46.307-.615.496-.737 1.355-1.093 1.293-2.208-.019-.369-.253-1.202-.525-1.32-.156-.067-.513-.005-.738-.092-.727-.27-1.153-1.169-1.907-1.227-.16-.019-.308.065-.49.062-.298-.019-.748-.208-1.078-.245-.21-.021-.49.062-.616 0-.192-.093-.212-.446-.368-.551-.123-.086-.365-.114-.553-.187-.303-.115-.543-.251-.892-.276-.108-.005-.242.051-.368.033-.193-.033-.346-.261-.525-.369-.224-.136-.43-.201-.522-.395.202-.661-.356-.845-.492-1.227-.065-.179-.036-.394-.092-.554-.081-.229-.307-.361-.555-.551-.445-.342-.84-.662-1.476-.741-.28-.036-.557.084-.895.062-.358-.021-.807-.335-1.075-.64-.26-.298-.387-.565-.614-.708-.215-.138-.5-.135-.647-.273-.065-.061-.053-.165-.124-.308-.108-.223-.289-.347-.154-.614-.245-.126-.252.233-.52.187-.239-.338-.441-.499-.984-.399-.249.046-.387.359-.677.367-.238.019-.424-.264-.738-.308-.237-.033-.506.063-.675.033-.262-.052-.343-.27-.583-.428-.176-.115-.517-.312-.616-.308-.309.019-.529.655-.956.43-.207-.262.337-.4.092-.645-.186-.186-.343.085-.492.187-.171.117-.331.234-.52.304-.422.157-.686.076-1.017.245-.306.158-.319.422-.492.736-.142.257-.464.632-.677.647-.258.019-.504-.359-.738-.46-.704-.304-1.045.27-1.63.278-.543.019-1.318-.874-1.291-1.383.005-.311.179-.782.215-1.166.034-.306.242-.49.246-.769.005-.373-.496-.659-.738-.703-.575-.105-1.372.231-2.031-.033-.125-.208.148-.352.218-.554.04-.115.016-.268.058-.395.072-.195.278-.347.37-.554.068-.158.086-.386.154-.582.082-.223.229-.367.246-.523.021-.207-.055-.446-.218-.582zm8.222 6.493c.208.019.235.449.021.484-.23.036-.347-.36-.123-.463.038-.019.073-.019.103-.018v-.003" fill="url(#1)"/><path d="m66.18-12.161c-3.579 0-6.472 2.895-6.472 6.476 0 .762.152 1.524.381 2.286l-7.995 8v3.81h3.807v-2.286h2.284v-2.286h2.284l3.426-3.429c.685.229 1.447.381 2.284.381 3.579 0 6.472-2.895 6.472-6.476 0-3.581-2.893-6.476-6.472-6.476m1.904 6.857c-1.294 0-2.284-.99-2.284-2.286 0-1.295.99-2.286 2.284-2.286 1.294 0 2.284.99 2.284 2.286 0 1.295-.99 2.286-2.284 2.286" fill="#fff" fill-opacity=".847"/></g></svg>