<svg xmlns="http://www.w3.org/2000/svg" viewBox="0 0 48 48"><defs><linearGradient id="2" gradientUnits="userSpaceOnUse" y1="542.2" x2="0" y2="526.2"><stop stop-color="#e3e3e3"/><stop offset="1" stop-color="#fffcff"/></linearGradient><linearGradient id="1" y1="542.2" x2="0" y2="526.2" gradientUnits="userSpaceOnUse"><stop stop-color="#d0d0d0"/><stop offset="1" stop-color="#f1eeee"/></linearGradient><linearGradient y1="545.8" x2="0" y2="517.8" gradientUnits="userSpaceOnUse"><stop stop-color="#3889e9"/><stop offset="1" stop-color="#5ea5fb"/></linearGradient><linearGradient id="0" gradientUnits="userSpaceOnUse" y1="544.8" x2="0" y2="517.8"><stop stop-color="#0973d9"/><stop offset="1" stop-color="#0cbffe"/></linearGradient></defs><g transform="matrix(1.71429 0 0 1.71429-682.36-892.64)" fill="url(#1)"><circle r="14" cy="531.8" cx="400.57" transform="translate(11.466 2.903)" fill="url(#0)"/><circle cx="400.57" cy="531.8" r="14" transform="translate(11.466 2.903)" fill="#5ea5fb" fill-opacity="0"/><path d="m410.95 526.9l.111.023c1.287-.427 4.177 1.256 3.533 2.756-.163.236-.135.654.061.917l-3.613 3.608c-.202-.202-.652-.198-.859 0l-5.975 5.725c-.545.522-.116.965.114 1.199l1.072 1.07c.234.233.853.547 1.293.082l5.639-5.933c.197-.206.198-.65 0-.853 0 0 .003-.003 0-.003l3.628-3.62c.383.345.745.374 1.088.281.663-.181 1.032.466 1.429.939l-.179.176c-.265.268-.24.718.057 1.015.297.297.75.321 1.015.057l1.185-1.182c.265-.267.24-.718-.058-1.013-.268-.269-.657-.304-.928-.112-.813-.91-.386-1.047-1.458-2.231l-2.01-2.048c-1.446-1.416-3.325-1.414-5.145-.852" opacity=".9" fill="url(#2)"/></g></svg>