<svg xmlns="http://www.w3.org/2000/svg" xmlns:xlink="http://www.w3.org/1999/xlink" viewBox="0 0 48 48"><defs><linearGradient xlink:href="#0" id="3" x1="44.16" y1="490.59" x2="44.26" y2="461.93" gradientUnits="userSpaceOnUse"/><linearGradient xlink:href="#0" id="4" gradientUnits="userSpaceOnUse" gradientTransform="matrix(1.0021 0 0 1-.15.002)" x1="72.85" y1="491.15" x2="72.29" y2="462.68"/><linearGradient xlink:href="#0" id="2" x1="96.68" y1="490.36" x2="96.33" y2="462.83" gradientUnits="userSpaceOnUse"/><linearGradient id="0"><stop stop-color="#2e3436"/><stop offset="1" stop-color="#555753"/></linearGradient><linearGradient id="1" x1="70.03" y1="569.24" x2="66.53" y2="491.06" gradientUnits="userSpaceOnUse"><stop stop-color="#c52828"/><stop offset="1" stop-color="#ff5454"/></linearGradient></defs><g transform="translate(-384.57-499.8)"><g transform="matrix(.39868 0 0 .39868 379.83 317.66)"><rect width="120.4" height="106.82" x="11.899" y="465.17" fill="url(#1)" rx="5.03"/><g fill-rule="evenodd"><path d="m18.538 462.2h107.12c3.856 0 6.711 3.098 6.711 6.947v14.953 6.947h-120.54v-6.947-14.953c0-3.848 2.855-6.947 6.711-6.947z" fill="url(#4)" stroke="url(#4)" stroke-linejoin="round" stroke-linecap="round" stroke-width=".107"/><g fill="#fce5e5" stroke-width="1.125"><path d="m79.77 490.5h19.1l14.926-13.205-14.926-14.606h-19.1l13.531 14.606z" stroke="url(#2)"/><path d="m31.676 490.5h19.1l14.926-13.205-14.926-14.606h-19.1l13.531 14.606z" stroke="url(#3)"/></g></g></g><path d="m127.36-8.353c-6.083 0-11 4.914-11 11 0 6.085 4.918 10.999 11 11 6.35-.002 10.56-4.461 10.56-10.749 0-.723-.08-1.274-.174-1.824h-10.389v3.774h6.241c-.25 1.617-1.885 4.743-6.241 4.743-3.754 0-6.821-3.11-6.821-6.943 0-3.834 3.065-6.943 6.821-6.943 2.139 0 3.568.913 4.385 1.694l2.992-2.872c-1.917-1.796-4.4-2.879-7.373-2.879" fill="#fce5e5" transform="matrix(.90911 0 0 .90911 293 527.29)" enable-background="new"/></g></svg>