<svg xmlns="http://www.w3.org/2000/svg" viewBox="0 0 48 48"><defs><linearGradient id="0" gradientUnits="userSpaceOnUse" x1="20.529" y1="20.1" x2="21.09" y2="-6.355"><stop stop-color="#2eb435"/><stop offset="1" stop-color="#6fe135"/></linearGradient></defs><g transform="matrix(1.71427 0 0 1.71427-12.791 11.662)" enable-background="new"><path d="m20.639-6.379c-.013.03-.037.028-.06.027-.007 0-.014-.0001-.021 0-.396.035-.792.08-1.183.154-2.862.542-5.211 1.947-7.03 4.217-1.496 1.866-2.32 4.01-2.498 6.395-.021.287-.032.574-.033.86v.038c.0001.853.096 1.699.284 2.536.188.841.47 1.654.848 2.431.033.066.066.133.1.198.621 1.223 1.42 2.314 2.422 3.255.527.496 1.091.944 1.701 1.331 1.869 1.186 3.91 1.809 6.126 1.836.136.002.173.035.172.174-.006 1.186-.004 2.373-.003 3.56 0 .046.004.092.006.149.038-.016.062-.024.086-.035 2.228-1.047 4.275-2.37 6.099-4.03.363-.33.71-.676 1.044-1.035.143-.154.285-.311.428-.464.221-.237.413-.502.622-.751.241-.288.457-.593.671-.901.472-.68.893-1.389 1.248-2.138.179-.379.35-.761.501-1.151.005-.007.012-.014.015-.022.412-1.07.675-2.177.816-3.313.049-.396.081-.794.101-1.192.009-.18.014-.359.014-.538v-.039c-.0001-.662-.061-1.32-.181-1.973-.412-2.248-1.396-4.211-2.951-5.886-.656-.707-1.391-1.322-2.203-1.844-1.512-.972-3.159-1.567-4.944-1.778-.218-.026-.439-.023-.653-.074h-1.541" fill="url(#0)"/><g fill="#fff" fill-opacity=".853"><path d="m27.09 1.538c.359-.0001.657.362.542.717.027.067.023.138.023.208 0 1.525.0001 3.051 0 4.577-.0001 1.363-.855 2.638-2.114 3.162-.032.013-.062.031-.093.046.022.027.047.035.075.036.0001 0 .002 0 .003 0s-.002 0-.003 0c-.027-.0001-.053-.009-.075-.036-.017.005-.034.001-.052.014-.001.006-.019.011-.029.017-.263.074-.528.136-.8.176-.207.03-.363-.086-.366-.295-.002-.146-.003-.292-.004-.438.002-.261.005-.523.007-.784-.0001-.058-.004-.115-.003-.173 0-.201.078-.285.327-.342.316-.072.614-.174.861-.403.296-.275.445-.617.513-1-.854-.002-1.707-.003-2.561-.005-.031 0-.062 0-.093 0-.062 0-.124 0-.186-.0001-.349-.006-.587-.247-.587-.597 0-1.38.002-2.76.004-4.141 0-.013-.002-.026-.002-.04-.027-.258.048-.47.277-.614.089-.056.186-.079.289-.079.566 0 1.132 0 1.698 0 .784 0 1.568 0 2.352-.0001"/><path d="m19.889 1.538c.36-.0001.657.362.542.717.028.067.023.138.023.208 0 1.523.009 3.046-.003 4.569-.008 1.01-.401 1.861-1.141 2.55-.039.036-.076.073-.114.11-.384.294-.799.525-1.269.653-.2.054-.404.085-.608.115-.158.023-.26-.065-.319-.207.0001-.438.0001-.876.002-1.315.007-.129-.044-.267.059-.381.051-.056.109-.095.188-.115.23-.058.462-.104.671-.229.385-.23.625-.561.731-.994.017-.068.032-.137.048-.205-.924-.002-1.849-.003-2.773-.005-.08 0-.159-.003-.237-.024-.236-.065-.416-.28-.416-.523-.002-1.398.0001-2.795.002-4.193-.019-.223 0-.432.188-.592.102-.086.214-.139.348-.139.47 0 .941 0 1.411 0 .314 0 .628 0 .942 0 .574 0 1.149 0 1.723-.0001"/></g></g></svg>