<svg xmlns="http://www.w3.org/2000/svg" viewBox="0 0 48 48"><defs><linearGradient id="0" gradientUnits="userSpaceOnUse" y1="20.995" x2="0" y2="-25.291"><stop stop-color="#1074f5"/><stop offset="1" stop-color="#02befd"/></linearGradient></defs><g transform="matrix(.99999 0 0 .99999-38.37 25.882)" enable-background="new"><circle r="24" cy="-1.875" cx="62.37" fill="url(#0)"/><path d="m62.715 15.525c-9.395 0-17-7.605-17-17 0-9.395 7.605-17 17-17 4.587 0 8.429 1.675 11.387 4.445l-4.613 4.446c-1.266-1.213-3.471-2.621-6.775-2.621-5.808 0-10.537 4.808-10.537 10.73 0 5.922 4.737 10.73 10.537 10.73 6.729 0 9.254-4.834 9.642-7.333h-9.642v-5.825h16.05c.142.85.266 1.7.266 2.816.008 9.713-6.5 16.612-16.317 16.612z" fill="#fff" fill-opacity=".851"/></g></svg>