<svg xmlns="http://www.w3.org/2000/svg" viewBox="0 0 48 48"><defs><linearGradient gradientUnits="userSpaceOnUse" y2="841.19" x2="0" y1="863.74" id="0" gradientTransform="matrix(2.65715 0 0 2.66062-1529.48-2262)"><stop stop-color="#187ced"/><stop stop-color="#42d6fc" offset="1"/></linearGradient><linearGradient x1="83.39" y1="47.32" x2="81.76" y2="-.677" gradientUnits="userSpaceOnUse"><stop stop-color="#197cf1"/><stop offset="1" stop-color="#21c9fb"/></linearGradient></defs><g enable-background="new"><ellipse cy="2.6" cx="86.37" rx="22.821" ry="22.836" fill="url(#0)" stroke="url(#0)" stroke-width="2.328" transform="matrix(.99999 0 0 .99999-62.37 21.4)"/><path d="m77.02.578c-.572-.563-1.84-.862-3.77-.887-1.307-.021-2.879.1-4.533.332-.741-.427-1.504-.892-2.103-1.452-1.612-1.505-2.957-3.594-3.796-5.892.055-.215.101-.403.144-.596 0 0 .908-5.157.668-6.901-.033-.239-.053-.309-.118-.495l-.079-.202c-.247-.57-.731-1.173-1.49-1.14l-.445-.021h-.012c-.847 0-1.536.433-1.718 1.08-.551 2.03.017 5.066 1.047 8.999l-.264.641c-.737 1.797-1.661 3.606-2.476 5.203l-.106.208c-.857 1.678-1.635 3.102-2.341 4.309l-.728.385c-.053.027-1.301.688-1.594.865-2.483 1.483-4.129 3.166-4.402 4.501-.087.426-.022.972.42 1.224l.704.354c.306.154.628.231.958.231 1.769 0 3.822-2.203 6.65-7.139 3.266-1.063 6.984-1.947 10.243-2.434 2.483 1.398 5.538 2.369 7.465 2.369.342 0 .637-.033.877-.096.37-.098.681-.309.871-.595.374-.563.45-1.338.348-2.132-.03-.235-.218-.527-.422-.726m-26.414 9.418c.322-.882 1.599-2.625 3.487-4.172.119-.096.411-.37.679-.624-1.974 3.148-3.296 4.403-4.165 4.797m11.18-25.746c.569 0 .892 1.433.919 2.777.027 1.344-.287 2.286-.677 2.984-.323-1.033-.479-2.661-.479-3.726 0 0-.024-2.035.237-2.035m-3.335 18.347c.396-.709.808-1.456 1.229-2.249 1.026-1.941 1.675-3.46 2.157-4.708.96 1.747 2.156 3.232 3.562 4.422.175.148.361.298.556.446-2.858.566-5.329 1.254-7.504 2.089m18.02-.16c-.174.108-.673.173-.994.173-1.035 0-2.316-.473-4.112-1.243.69-.052 1.323-.077 1.89-.077 1.038 0 1.346 0 2.361.254 1.015.259 1.028.785.854.894z" fill="#fff" fill-opacity=".863" transform="matrix(.99999 0 0 .99999-38.28 25.676)"/></g></svg>