<svg xmlns="http://www.w3.org/2000/svg" viewBox="0 0 48 48"><defs><linearGradient id="0" x1="61.57" y1="22.939" x2="60.753" y2="-27.706" gradientUnits="userSpaceOnUse"><stop stop-color="#2e3e46"/><stop stop-color="#47606a" offset="1"/></linearGradient></defs><path d="m41.36-25.875h42.04c1.652 0 2.982 1.33 2.982 2.982v42.04c0 1.652-1.33 2.982-2.982 2.982h-42.04c-1.652 0-2.982-1.33-2.982-2.982v-42.04c0-1.652 1.33-2.982 2.982-2.982" transform="matrix(.99999 0 0 .99999-38.38 25.875)" fill="url(#0)" fill-rule="evenodd"/><g transform="matrix(.07692 0 0 .07692 7 7)" fill="#e2e5e7"><path d="m166.6 135.9h108.79c5.522 0 10-4.477 10-10v-62.09c0-5.523-4.478-10-10-10h-108.79c-5.522 0-10 4.477-10 10v62.09c0 5.523 4.478 10 10 10"/><path d="m275.4 306.1h-108.79c-5.522 0-10 4.477-10 10v62.08c0 5.523 4.478 10 10 10h108.79c5.522 0 10-4.477 10-10v-62.08c.0001-5.523-4.477-10-9.999-10"/><path d="m432 306.1h-108.79c-5.522 0-10 4.477-10 10v62.08c0 5.523 4.478 10 10 10h108.79c5.522 0 10-4.477 10-10v-62.08c0-5.523-4.478-10-10-10"/><path d="m118.79 306.1h-108.79c-5.522 0-10 4.477-10 10v62.08c0 5.523 4.478 10 10 10h108.79c5.522 0 10-4.477 10-10v-62.08c0-5.523-4.478-10-10-10"/><path d="m211 250.5v35.596c0 5.523 4.478 10 10 10 5.522 0 10-4.477 10-10v-35.596c0-5.523-4.478-10-10-10-5.522 0-10 4.477-10 10"/><path d="m64.4 296.1c5.522 0 10-4.477 10-10v-55.1h293.21v55.1c0 5.523 4.478 10 10 10 5.522 0 10-4.477 10-10v-65.1c0-5.523-4.478-10-10-10h-146.61v-55.1c0-5.523-4.478-10-10-10-5.522 0-10 4.477-10 10v55.1h-146.6c-5.522 0-10 4.477-10 10v65.1c0 5.523 4.477 10 10 10"/></g></svg>