<?xml version="1.0" encoding="UTF-8" standalone="no"?>
<svg
   xmlns:dc="http://purl.org/dc/elements/1.1/"
   xmlns:cc="http://creativecommons.org/ns#"
   xmlns:rdf="http://www.w3.org/1999/02/22-rdf-syntax-ns#"
   xmlns:svg="http://www.w3.org/2000/svg"
   xmlns="http://www.w3.org/2000/svg"
   xmlns:sodipodi="http://sodipodi.sourceforge.net/DTD/sodipodi-0.dtd"
   xmlns:inkscape="http://www.inkscape.org/namespaces/inkscape"
   viewBox="0 0 48 48"
   id="svg2"
   version="1.1"
   inkscape:version="0.91 r13725"
   sodipodi:docname="GreedCorp.svg">
  <metadata
     id="metadata28">
    <rdf:RDF>
      <cc:Work
         rdf:about="">
        <dc:format>image/svg+xml</dc:format>
        <dc:type
           rdf:resource="http://purl.org/dc/dcmitype/StillImage" />
        <dc:title></dc:title>
      </cc:Work>
    </rdf:RDF>
  </metadata>
  <sodipodi:namedview
     pagecolor="#ffffff"
     bordercolor="#666666"
     borderopacity="1"
     objecttolerance="10"
     gridtolerance="10"
     guidetolerance="10"
     inkscape:pageopacity="0"
     inkscape:pageshadow="2"
     inkscape:window-width="1366"
     inkscape:window-height="687"
     id="namedview26"
     showgrid="false"
     inkscape:zoom="4.9166667"
     inkscape:cx="24"
     inkscape:cy="22.38636"
     inkscape:window-x="0"
     inkscape:window-y="0"
     inkscape:window-maximized="1"
     inkscape:current-layer="svg2" />
  <defs
     id="defs4">
    <clipPath
       id="1">
      <path
         transform="matrix(15.33333 0 0 11.5 415-125.5)"
         d="m-24 13c0 1.105-.672 2-1.5 2-.828 0-1.5-.895-1.5-2 0-1.105.672-2 1.5-2 .828 0 1.5.895 1.5 2"
         fill="#1890d0"
         id="path7" />
    </clipPath>
    <linearGradient
       id="0"
       gradientUnits="userSpaceOnUse"
       gradientTransform="matrix(.49433 0 0 .4778 86.64 13.1)"
       x1="-123.97"
       y1="73.5"
       x2="-125.19"
       y2="-33.29">
      <stop
         stop-color="#00a661"
         id="stop10" />
      <stop
         stop-color="#37ce97"
         offset="1"
         id="stop12" />
    </linearGradient>
    <linearGradient
       id="0-9"
       gradientUnits="userSpaceOnUse"
       x1="62.599998"
       y1="11.846"
       x2="62.150002"
       y2="-35.476002">
      <stop
         stop-color="#d3d3d3"
         id="stop7" />
      <stop
         offset="1"
         stop-color="#fcf9f9"
         id="stop9" />
    </linearGradient>
  </defs>
  <g
     transform="matrix(0.99999,0,0,0.99999,-38.469377,35.814881)"
     id="g4155">
    <circle
       style="fill:url(#0-9)"
       id="circle13"
       cx="62.470001"
       cy="-11.815"
       r="24" />
    <path
       style="fill-opacity:0.64899998"
       inkscape:connector-curvature="0"
       id="path23"
       d="m -21.22,5.777 -8.193,2.76 -1.695,8.506 6.496,5.748 8.193,-2.76 1.695,-8.506 -6.496,-5.748 m 15.365,3.15 -8.193,2.76 -1.697,8.506 6.498,5.748 8.191,-2.76 1.697,-8.508 -6.496,-5.746 m -10.324,11.836 -8.193,2.76 -1.695,8.508 6.496,5.746 8.193,-2.76 1.695,-8.506 -6.496,-5.748 z"
       transform="matrix(0.88193,0,0,0.88193,76.1,-30.12)" />
  </g>
</svg>
