<svg xmlns="http://www.w3.org/2000/svg" viewBox="0 0 48 48"><defs><clipPath id="1"><path transform="matrix(15.33333 0 0 11.5 415-125.5)" d="m-24 13c0 1.105-.672 2-1.5 2-.828 0-1.5-.895-1.5-2 0-1.105.672-2 1.5-2 .828 0 1.5.895 1.5 2" fill="#1890d0"/></clipPath><linearGradient id="0" gradientUnits="userSpaceOnUse" gradientTransform="matrix(.49433 0 0 .4778 86.64 13.1)" x1="-123.97" y1="73.5" x2="-125.19" y2="-33.29"><stop stop-color="#00a661"/><stop stop-color="#37ce97" offset="1"/></linearGradient></defs><path d="m2.982 0h42.04c1.652 0 2.982 1.33 2.982 2.982v42.04c0 1.652-1.33 2.982-2.982 2.982h-42.04c-1.652 0-2.982-1.33-2.982-2.982v-42.04c0-1.652 1.33-2.982 2.982-2.982" fill="url(#0)" fill-rule="evenodd"/><g transform="matrix(1.33255 0 0 1.33255-7.96-7.98)" fill="#dcf4ea" stroke="#dcf4ea" stroke-linejoin="round" stroke-linecap="round" stroke-width=".638"><g clip-path="url(#1)" stroke-width=".638"><g stroke-width=".638"><path d="m30.625 8.527c-1.766.08-3.989.565-6.643 2.223-2.654 1.662-5.743 4.462-7.943 7.215-2.191 2.743-3.706 5.69-4.377 8.537-.67 2.838-.599 5.132-.047 7.355.543 2.196 2.087 4.203 3.654 4.986 1.568.77 3.202.77 5.189.463 2.01-.302 3.994-1.015 5.576-1.879 1.601-.878 2.767-1.916 3.641-3.475.874-1.558 1.444-3.636 1.326-4.859-.113-1.237-1.478-1.525-2.148-.713-.661.812-.632 2.705-1.633 4.174-1 1.468-2.356 2.634-4.184 3.305-1.813.689-4.381 1.215-5.916.625-1.525-.581-2.341-2.352-2.695-4.02-.354-1.671-.303-3.72.254-5.646.567-1.912 1.473-3.859 2.965-6.088 1.506-2.233 3.897-4.566 6.191-6.412h-.039c2.295-1.841 4.926-3.01 6.971-3.111 2.068-.099 3.428 1.357 4.41 1.645.992.293 1.766-.718 1.619-1.389-.132-.68-1.086-1.493-2.102-2.064-1.015-.571-2.3-.933-4.07-.867zm.84 15.58c-1.487-.052-3.725 1.063-5.803 1.979-2.078.916-3.97 1.653-4.834 2.531-.845.878-.662 1.894.037 2.191l-.001-.016c.685.279 1.866-.169 3.03-.693 1.152-.524 2.299-1.142 3.371-1.643 1.072-.5 2.077-.897 2.809-1.1.727-.203 1.634-.104 1.426 1.27-.212 1.374-.874 4.566-.916 6.143-.047 1.591 1.163 1.45 1.824 1.152.656-.297.713-1.12 1.199-2.801.482-1.681.886-4.03.764-5.813-.132-1.775-1.407-3.149-2.895-3.201z" transform="matrix(.75044 0 0 .75044 5.974 5.989)" stroke-width=".85"/><path transform="scale(3.54331)" d="m6.734 4.722c-.486.391-.916.885-1.233 1.358-.317.472-.521.922-.642 1.327-.121.405-.161.765-.086 1.119.075.354.262.701.59.826.325.125.787.028 1.175-.119.387-.143.699-.337.912-.648.212-.311.325-.74.465-.912.141-.172.313-.086.336.176.025.26-.096.699-.281 1.029-.184.33-.432.55-.771.736-.335.185-.756.336-1.18.4-.422.064-.849.04-1.178-.129-.331-.163-.569-.472-.684-.938-.117-.471-.107-1.098.035-1.699.144-.603.423-1.174.891-1.757.465-.583 1.12-1.176 1.681-1.526.562-.353 1.033-.456 1.408-.473.374-.011.647.065.861.184.215.121.368.284.399.429.032.141-.06.267-.269.205-.206-.064-.53-.31-.969-.289-.432.02-.98.31-1.465.698" fill-rule="evenodd" stroke-width=".18"/></g></g></g></svg>