<svg xmlns="http://www.w3.org/2000/svg" xmlns:xlink="http://www.w3.org/1999/xlink" viewBox="0 0 48 48"><defs><linearGradient xlink:href="#2" id="3" gradientUnits="userSpaceOnUse" x1="22.04" y1="44.27" x2="21.977" y2="5.05"/><linearGradient xlink:href="#2" id="4" x1="118.12" y1="1069.65" x2="117.81" y2="1028.36" gradientUnits="userSpaceOnUse"/><linearGradient id="2"><stop stop-color="#197cf1"/><stop offset="1" stop-color="#21c9fb"/></linearGradient><linearGradient y1="545.8" x2="0" y2="517.8" gradientUnits="userSpaceOnUse"><stop stop-color="#3889e9"/><stop offset="1" stop-color="#5ea5fb"/></linearGradient><linearGradient id="0" x1="64.821" y1="22.329" x2="64.62" y2="-26.485" gradientUnits="userSpaceOnUse"><stop stop-color="#141414"/><stop stop-color="#2d2d2f" offset="1"/></linearGradient><linearGradient xlink:href="#2" id="1" x1="25.593" y1="45.15" x2="25.661" y2="3.254" gradientUnits="userSpaceOnUse"/></defs><g transform="translate(-19.348-8.325)"><path d="m41.36-25.875h42.04c1.652 0 2.982 1.33 2.982 2.982v42.04c0 1.652-1.33 2.982-2.982 2.982h-42.04c-1.652 0-2.982-1.33-2.982-2.982v-42.04c0-1.652 1.33-2.982 2.982-2.982" transform="matrix(.99999 0 0 .99999-19.03 34.2)" fill="url(#0)" fill-rule="evenodd"/><g transform="translate(-75.43-1015.97)" fill-opacity="1"><g transform="matrix(-1.01425 0 0 1.01425 140.05 1024.6)" fill="#fff"><g fill="url(#3)"><path d="m14.848 18.654v9.137h1.123v-.867h.051c.187.306.467.561.842.766.383.204.813.305 1.289.305.808 0 1.507-.319 2.094-.957.587-.638.879-1.429.879-2.373 0-.944-.292-1.735-.879-2.373-.587-.638-1.286-.957-2.094-.957-.476 0-.906.102-1.289.307-.374.204-.655.459-.842.766h-.051l.051-.869v-2.883h-1.174m3.113 3.752c.544 0 1.013.208 1.404.625.391.408.586.952.586 1.633 0 .681-.195 1.23-.586 1.646-.391.408-.86.613-1.404.613-.553 0-1.025-.205-1.416-.613-.383-.408-.574-.957-.574-1.646 0-.689.191-1.238.574-1.646.391-.408.863-.611 1.416-.611" transform="matrix(-1.0682 0 0 1.0682 49.14-2.136)"/><path d="m25.379 21.334c-.476 0-.906.102-1.289.307-.374.204-.655.459-.842.766h-.051v-.869h-1.123v9.01h1.174v-2.756l-.051-.867h.051c.187.306.467.561.842.766.383.204.813.305 1.289.305.808 0 1.507-.319 2.094-.957.587-.638.881-1.429.881-2.373 0-.944-.294-1.735-.881-2.373-.587-.638-1.286-.957-2.094-.957m-.191 1.072c.544 0 1.013.208 1.404.625.391.408.586.952.586 1.633 0 .681-.195 1.23-.586 1.646-.391.408-.86.613-1.404.613-.553 0-1.025-.205-1.416-.613-.383-.408-.574-.957-.574-1.646 0-.689.191-1.238.574-1.646.391-.408.863-.611 1.416-.611" transform="matrix(-1.0682 0 0 1.0682 49.14-2.136)"/></g><path d="m14.469 20.653c.391 0 .787.113 1.187.34.391.218.681.487.872.805h.054v-.928h1.2v6.68h-1.254v-3.695c0-.536-.16-1.013-.478-1.431-.327-.418-.736-.626-1.227-.626-.5 0-.871.14-1.116.421-.245.282-.369.759-.369 1.431v3.899h-1.254v-3.695c0-.536-.16-1.013-.478-1.431-.327-.418-.736-.626-1.227-.626-.5 0-.871.14-1.116.421-.245.282-.369.759-.369 1.431v3.899h-1.254v-4.089c0-.863.201-1.545.601-2.045.4-.509.993-.764 1.784-.764 1.01 0 1.787.427 2.333 1.281.373-.854 1.075-1.281 2.111-1.281" fill="url(#1)"/></g><circle cx="118.78" cy="1048.29" r="19.61" fill="none" stroke="url(#4)" stroke-linejoin="round" stroke-linecap="round" stroke-width="2.779"/></g></g></svg>