<svg xmlns="http://www.w3.org/2000/svg" xmlns:xlink="http://www.w3.org/1999/xlink" viewBox="0 0 48 48"><defs><linearGradient id="3" x1="490.22" y1="552.5" x2="490.31" y2="533.77" gradientUnits="userSpaceOnUse"><stop stop-color="#1c94f4"/><stop offset="1" stop-color="#1ea5f7"/></linearGradient><linearGradient xlink:href="#1" id="2" gradientUnits="userSpaceOnUse" x1="487.74" y1="985.35" x2="493.51" y2="11.611"/><linearGradient xlink:href="#1" id="0" gradientUnits="userSpaceOnUse" x1="34.902" x2="946.35"/><linearGradient id="1"><stop stop-color="#197cf1"/><stop offset="1" stop-color="#20bcfa"/></linearGradient></defs><g transform="matrix(.94332 0 0 .94332-437.71-487.42)" fill="url(#0)" enable-background="new"><path d="m946.23 206.65c-.3-23-18-42-40.899-44.1-190.3-17.8-345.6-119.5-396.8-156.7-10.7-7.8-25.2-7.8-35.9 0-51.1 37.2-206.4 138.9-396.7 156.7-22.9 2.101-40.5 21.1-40.9 44.1-2.3 150.1 21.8 659.7 444.1 773.1 7.5 2 15.4 2 22.9 0 422.3-113.3 446.4-623 444.2-773.1" transform="matrix(.05186 0 0 .05186 464.02 516.72)" fill="url(#2)"/><path d="m946.23 206.65c-.3-23-18-42-40.899-44.1-190.3-17.8-345.6-119.5-396.8-156.7-10.7-7.8-25.2-7.8-35.9 0-51.1 37.2-206.4 138.9-396.7 156.7-22.9 2.101-40.5 21.1-40.9 44.1-2.3 150.1 21.8 659.7 444.1 773.1 7.5 2 15.4 2 22.9 0 422.3-113.3 446.4-623 444.2-773.1" transform="matrix(.03985 0 0 .04024 469.88 522.86)" opacity=".675" fill="#fff"/><path d="m494.96 541.07v-2.275c0-3.087-2.512-5.599-5.599-5.599-3.087 0-5.599 2.512-5.599 5.599v2.275c-.441.092-.774.485-.774.953v8.524c0 .537.437.974.974.974h10.798c.537 0 .974-.437.974-.974v-8.524c0-.469-.332-.86-.774-.953m-4.291 7.266c.02.107-.051.191-.159.191h-2.273c-.107 0-.179-.085-.159-.191l.362-1.918c-.274-.25-.446-.609-.446-1.01 0-.755.612-1.367 1.366-1.367.755 0 1.366.612 1.366 1.367 0 .389-.163.74-.424.989zm2.343-7.287h-7.302v-2.254c0-2.01 1.638-3.651 3.651-3.651 2.01 0 3.651 1.638 3.651 3.651z" fill="url(#3)"/></g></svg>