<svg xmlns="http://www.w3.org/2000/svg" viewBox="0 0 48 48"><defs><clipPath><path transform="matrix(15.33333 0 0 11.5 415-125.5)" d="m-24 13c0 1.105-.672 2-1.5 2-.828 0-1.5-.895-1.5-2 0-1.105.672-2 1.5-2 .828 0 1.5.895 1.5 2" fill="#1890d0"/></clipPath><linearGradient id="0" gradientUnits="userSpaceOnUse" gradientTransform="matrix(.49433 0 0 .4778 86.64 13.1)" x1="-123.97" y1="73.5" x2="-125.19" y2="-33.29"><stop stop-color="#00a661"/><stop stop-color="#37ce97" offset="1"/></linearGradient></defs><path d="m2.982 0h42.04c1.652 0 2.982 1.33 2.982 2.982v42.04c0 1.652-1.33 2.982-2.982 2.982h-42.04c-1.652 0-2.982-1.33-2.982-2.982v-42.04c0-1.652 1.33-2.982 2.982-2.982" fill="url(#0)" fill-rule="evenodd"/><g fill="#dcf4ea"><path d="m-51.53 12.467q0 6-3.56 9.56-4.04 4.24-10.52 4.24-6.2 0-10.56-4.28-4.32-4.32-4.32-10.68 0-6.36 4.32-10.64 4.36-4.32 10.56-4.32 3.08 0 5.88 1.2 2.8 1.2 4.48 3.2l-2.52 2.52q-2.84-3.4-7.84-3.4-4.52 0-7.84 3.2-3.28 3.16-3.28 8.24 0 5.08 3.28 8.28 3.32 3.16 7.84 3.16 4.8 0 8-3.2 2.08-2.08 2.4-5.8h-10.4v-3.44h13.88q.2 1.12.2 2.16" transform="matrix(1.06952 0 0 1.06952 94.59 11.907)"/></g></svg>