<svg xmlns="http://www.w3.org/2000/svg" viewBox="0 0 48 48"><defs><linearGradient gradientUnits="userSpaceOnUse" x2="47" x1="0"><stop stop-color="#a9a3d4"/><stop offset=".47" stop-color="#87baff"/><stop offset="1" stop-color="#89ec85"/></linearGradient><linearGradient id="0" x1="-9.538" y1="48.27" x2="25.47" y2="12.954" gradientUnits="userSpaceOnUse"><stop stop-color="#118702"/><stop offset="1" stop-color="#80e950"/></linearGradient><linearGradient id="1" x1="26.998" y1="32.567" x2="27.06" y2="-1.738" gradientUnits="userSpaceOnUse"><stop stop-color="#d5dbff"/><stop offset="1" stop-color="#f9ffff"/></linearGradient></defs><g transform="translate(-3.151 7.642)" fill-rule="evenodd" stroke-width="1.317"><rect width="36.22" height="36.22" x="-10.431" y="12.645" transform="matrix(.7084-.70581.70581.7084 0 0)" fill="url(#0)" rx="2.165"/><path d="m15.981 33.368c.545-.04 1.037-.429 1.448-.846l27.21-28.05c.47-.48.805-.905.762-1.601v-1.606c.008-1.514-.279-1.895-1.753-1.9h-11.585c-1.147.014-1.917.782-1.905 1.982l.022 1.381c.084 1.363 1.353 1.701 2.569 1.744l-10.213 10.137v-10.365c.936.032 1.63-.501 1.677-1.601l-.004-1.426c-.063-1.364-.692-1.731-2.129-1.775l-11.127.076c-1.172.096-1.887.489-2.035 1.851l-.022.969c.068 1.358.567 2.069 1.982 2.134l.583.022.027 27.11c.123 1.042.731 1.735 1.905 1.753l2.592.008" fill="url(#1)"/></g></svg>