<svg xmlns="http://www.w3.org/2000/svg" xmlns:xlink="http://www.w3.org/1999/xlink" viewBox="0 0 48 48"><defs><linearGradient gradientUnits="userSpaceOnUse" y2="7.01" x2="15.586" y1="32.556" x1="16.183" id="4"><stop stop-color="#fe3f3c"/><stop offset="1" stop-color="#ff8729"/></linearGradient><linearGradient id="5"><stop stop-color="#cfd6da"/><stop offset="1" stop-color="#f2f7f9"/></linearGradient><linearGradient xlink:href="#5" id="3" x1="610.68" y1="499.8" x2="609.35" y2="460.12" gradientUnits="userSpaceOnUse" gradientTransform="matrix(.57104 0 0 .57234-337.57-226.82)"/><linearGradient gradientUnits="userSpaceOnUse" y2="20.552" x2=".293" y1="50.644" x1=".401" id="1"><stop stop-color="#0173dd"/><stop offset="1" stop-color="#00b1ff"/></linearGradient><linearGradient id="0" x1="6.966" y1="38.651" x2="20.332" y2="53.3" gradientUnits="userSpaceOnUse"><stop stop-color="#d3d3d3"/><stop offset="1" stop-color="#fcf9f9"/></linearGradient><linearGradient xlink:href="#5" id="2" x1="11.223" y1="59.39" x2="10.454" y2="36.423" gradientUnits="userSpaceOnUse"/></defs><g transform="matrix(.99999 0 0 .99999 16.699-8.998)" enable-background="new"><rect width="40.36" height="30.994" x="-11.234" y="9.428" transform="matrix(.99998-.00628.00628.99998 0 0)" fill="url(#4)" rx="1.209"/><rect transform="matrix(.98432-.17638.17638.98432 0 0)" width="40.36" height="30.994" x="-20.455" y="19.988" fill="url(#1)" rx="1.209"/><path d="m-11.715 50.67l7.094-3.757 2.663 1.175 5.185-2.909 5.763.833 4.07.131 2.828-1.587 3.545-1.608 6.388 1.185.506 2.959-35.849 6.727c0 0-1.553.587-1.788-.786z" fill="#2c4f68" fill-rule="evenodd"/><circle transform="matrix(.98432-.17638.17638.98432 0 0)" cx="-11.53" cy="28.822" r="3.99" fill-opacity=".579"/><ellipse transform="matrix(.98534-.1706.1698.98548 0 0)" ry="10.951" rx="10.926" cx="11.335" cy="47.712" fill="#42a5f7" stroke="url(#3)" stroke-linejoin="round" stroke-linecap="round" stroke-width="1.143"/><path d="m10.962 52.625l2.983-5.136 3.225 1.373 4.02-6.604 9.61 3.193c-2.855 9.417-11.266 14.606-19.841 7.174" fill="#2c4f68" fill-rule="evenodd"/><g fill="none" stroke-linejoin="round" stroke-linecap="round"><ellipse cx="11.336" cy="47.743" rx="10.24" ry="10.148" transform="matrix(.98541-.1702.1702.98541 0 0)" stroke="url(#0)" stroke-width="1.355"/><circle cx="11.404" cy="47.736" r="11.08" transform="matrix(.98541-.1702.1702.98541 0 0)" stroke="url(#2)" stroke-width="1.158"/></g></g></svg>