<svg xmlns="http://www.w3.org/2000/svg" viewBox="0 0 48 48"><defs><linearGradient id="0" x1="24.61" y1="48.41" x2="22.779" y2=".407" gradientUnits="userSpaceOnUse"><stop stop-color="#2b65bd"/><stop stop-color="#64a3dc" offset="1"/></linearGradient></defs><path d="m2.982 0h42.04c1.652 0 2.982 1.33 2.982 2.982v42.04c0 1.652-1.33 2.982-2.982 2.982h-42.04c-1.652 0-2.982-1.33-2.982-2.982v-42.04c0-1.652 1.33-2.982 2.982-2.982" fill="url(#0)" fill-rule="evenodd"/><path d="m94.69 1021.63v25.667h4.282v-9.625h6.423v9.625h17.13v-25.667h-17.13v11.764h-6.423v-11.764h-4.282m12.846 5.347h12.846v8.555h-9.635v3.208h9.635v3.208h-12.846v-8.555h9.635v-3.208h-9.635v-3.208" fill="#e3ecf7" transform="matrix(1.22156 0 0 1.22156-108.67-1239.66)"/></svg>