<svg xmlns="http://www.w3.org/2000/svg" viewBox="0 0 48 48"><defs><linearGradient y2="518.14" x2="0" y1="545.14" gradientUnits="userSpaceOnUse" id="0"><stop stop-color="#197ff1"/><stop offset="1" stop-color="#21c6fb"/></linearGradient></defs><g transform="matrix(1.71429 0 0 1.71429-662.7-887.65)"><circle r="14" cy="531.8" cx="400.57" fill="url(#0)"/><circle cx="400.57" cy="531.8" r="14" fill="#5ea5fb" fill-opacity="0"/></g><path d="m16.647 7.6c-3.783 0-6.85 3.067-6.85 6.85 0 3.783 3.067 6.85 6.85 6.85 3.783 0 6.85-3.067 6.85-6.85 0-3.783-3.067-6.85-6.85-6.85m18.707 10.486c-3.783 0-6.85 3.067-6.85 6.85 0 3.783 3.067 6.85 6.85 6.85 3.783 0 6.85-3.067 6.85-6.85 0-3.783-3.067-6.85-6.85-6.85m-17.707 9.215c-3.783 0-6.85 3.067-6.85 6.85 0 3.783 3.067 6.85 6.85 6.85 3.783 0 6.85-3.067 6.85-6.85 0-3.783-3.067-6.85-6.85-6.85" fill="#def1fe"/></svg>