<svg xmlns="http://www.w3.org/2000/svg" xmlns:xlink="http://www.w3.org/1999/xlink" viewBox="0 0 48 48"><defs><linearGradient xlink:href="#1" id="9" x1="8.264" y1="28.96" x2="5.97" y2="14.751" gradientUnits="userSpaceOnUse"/><linearGradient xlink:href="#1" id="A" x1="10.817" y1="22.705" x2="9.801" y2="5.173" gradientUnits="userSpaceOnUse"/><linearGradient xlink:href="#C" x1="38.13" y1="23.07" x2="38.41" y2="19.75" gradientUnits="userSpaceOnUse"/><linearGradient xlink:href="#1" id="B" x1="17.917" y1="13.731" x2="20.15" y2="-2.082" gradientUnits="userSpaceOnUse"/><linearGradient xlink:href="#0" x1="30.706" y1="28.357" x2="32.15" y2="15.232" gradientUnits="userSpaceOnUse"/><linearGradient xlink:href="#C" x1="32.865" y1="23.921" x2="32.897" y2="19.681" gradientUnits="userSpaceOnUse"/><linearGradient xlink:href="#0" x1="36.478" y1="25.25" x2="37.22" y2="15.912" gradientUnits="userSpaceOnUse"/><linearGradient id="C"><stop stop-color="#030303"/><stop offset="1" stop-color="#383838"/></linearGradient><linearGradient xlink:href="#1" id="8" x1="11.01" y1="37.97" x2="12.11" y2="24.22" gradientUnits="userSpaceOnUse"/><linearGradient id="0"><stop stop-color="#ededed"/><stop offset="1" stop-color="#fcf9f9"/></linearGradient><linearGradient id="1"><stop stop-color="#197ff1"/><stop offset="1" stop-color="#21c6fb"/></linearGradient><linearGradient xlink:href="#2" id="7" x1="23.733" y1="47.612" x2="24.733" y2="38.22" gradientUnits="userSpaceOnUse"/><linearGradient id="2"><stop stop-color="#ff6cd4"/><stop offset="1" stop-color="#ffb7e2"/></linearGradient><linearGradient xlink:href="#2" id="3" x1="28.27" y1="52.952" x2="28.496" y2="9.983" gradientUnits="userSpaceOnUse"/><linearGradient xlink:href="#2" id="6" x1="28.939" y1="46.28" x2="37.27" y2="40.1" gradientUnits="userSpaceOnUse"/><linearGradient xlink:href="#2" id="4" x1="42.13" y1="37.598" x2="46.829" y2="23.733" gradientUnits="userSpaceOnUse"/><linearGradient xlink:href="#2" id="5" x1="15.831" y1="42.927" x2="18.15" y2="31.354" gradientUnits="userSpaceOnUse"/></defs><g transform="matrix(1.0909 0 0 1.0909-2.01-1.308)" opacity=".98" enable-background="new"><path fill="url(#B)" d="M31.726 9.955 17 1.293 17 14.02z"/><path fill="url(#A)" d="m27.1 9.481l-22.13-.411 9.34 13.291z"/><path fill="url(#9)" d="m22.699 12.777l-20.852 8.243 12.79 9.456z"/><circle r="5.03" cy="40.1" cx="32.25" fill="url(#6)"/><path fill="url(#8)" d="M18.384 15.389 3.787 33.938 19.326 35.11z"/><circle r="5.03" cy="39.591" cx="24.18" fill="url(#7)"/><circle r="5.03" cy="27.99" cx="40.821" fill="url(#4)"/><circle cy="24.24" cx="27.2" r="15.841" fill="url(#3)"/><circle cy="35.479" cx="16.533" r="4.598" fill="url(#5)"/></g></svg>