<svg xmlns="http://www.w3.org/2000/svg" xmlns:xlink="http://www.w3.org/1999/xlink" viewBox="0 0 48 48"><defs><linearGradient gradientUnits="userSpaceOnUse" y2="501.13" x2="0" y1="545.91" id="0"><stop stop-color="#4fd127"/><stop offset="1" stop-color="#c6f61a"/></linearGradient><linearGradient y1="545.92" x2="0" y2="518.27" gradientUnits="userSpaceOnUse" xlink:href="#0"/></defs><circle cx="464.17" cy="523.52" r="22.389" fill="url(#0)" transform="matrix(1.07196 0 0 1.07196-473.57-537.19)"/><g transform="matrix(2.23445 0 0 2.23445-672.18-1159.47)" opacity=".9"><path d="m309.43 533.85l-.211 1.846c.15 1.021 1.399.828 1.582.158l.292-1.743 1.181.003.162 1.565c.077.949 1.722 1.057 1.646-.246l-.274-1.635c.851-.035 1.152-.492 1.216-1.014l.089-1.887 2.02-2.162c.528-.777-.218-1.814-1.108-1.108-.611.791-1.11 1.346-2.407 1.633-.926.204-2.54.314-4.02-.043-.801-.193-1.371-.433-2.196-1.513-.791-.94-2.103-.081-1.354.932l2.187 2.236.088 1.933c.063.694.762.863 1.104 1.046" opacity="1" fill="#1f3c09" fill-rule="evenodd"/><g transform="matrix(1.0002 0 0 1.0002-.055.055)"><g transform="translate(16.831 2.279)" fill="#1f3c09"><path d="m291.52 525.88c1.82 1.165 4.832 1.102 6.701.042.672-5.247-7.079-5.664-6.701-.042" opacity="1" fill-rule="evenodd"/><rect transform="matrix(.86173-.50737.50737.86173 0 0)" y="596.81" x="-12.388" height="2.672" width=".382" rx=".191" opacity="1"/><rect transform="matrix(-.86173-.50737-.50737.86173 0 0)" y="297.64" x="-520.51" height="2.672" width=".382" rx=".191" opacity="1"/></g><g fill="#9ce91f"><circle cx="310.4" cy="526.44" r=".549" opacity="1"/><circle cx="313" cy="526.43" r=".549" opacity="1"/></g></g></g></svg>