<svg xmlns="http://www.w3.org/2000/svg" viewBox="0 0 48 48"><defs><linearGradient gradientUnits="userSpaceOnUse" y2="505.33" x2="355.69" y1="547" x1="355.73" id="0"><stop stop-color="#1074f5"/><stop offset="1" stop-color="#02befd"/></linearGradient></defs><g transform="matrix(.9746 0 0 .9746-322.33-489.99)"><path d="m372.72 511.01c-4.644-3.779-10.81-5.86-17.362-5.86-6.552 0-12.718 2.081-17.362 5.86-4.684 3.812-7.264 8.892-7.264 14.306 0 5.167 2.351 10.03 6.638 13.776-.077.174-.139.357-.178.549l-1.409 6.928c-.167.823.058 1.314.276 1.581.252.308.626.478 1.052.478.322 0 .668-.095 1.029-.283l8.193-4.256c2.836.913 5.886 1.392 9.02 1.392 6.552 0 12.718-2.081 17.362-5.86 4.684-3.812 7.264-8.892 7.264-14.306 0-5.413-2.58-10.494-7.264-14.306" fill="url(#0)"/><path d="m391.17 520.83c0-1.791 1.456-3.244 3.251-3.244 1.795 0 3.251 1.453 3.251 3.244 0 1.792-1.456 3.245-3.251 3.245-1.795 0-3.251-1.453-3.251-3.245m14.742 0c0-1.791 1.458-3.244 3.252-3.244 1.795 0 3.251 1.453 3.251 3.244 0 1.792-1.456 3.245-3.251 3.245-1.794 0-3.252-1.453-3.252-3.245m7.687 13.288c-2.01 4.649-6.734 7.654-12.02 7.654-5.401 0-10.147-3.02-12.09-7.692-.333-.8.047-1.719.849-2.052.197-.081.402-.12.603-.12.617 0 1.202.364 1.453.968 1.456 3.497 5.062 5.757 9.187 5.757 4.03 0 7.617-2.261 9.134-5.761.345-.796 1.271-1.163 2.067-.817.799.344 1.166 1.268.821 2.063" fill="#fff" fill-opacity=".85" transform="matrix(.88904 0 0 .88904-1.96 55.684)"/></g></svg>