<svg xmlns="http://www.w3.org/2000/svg" xmlns:xlink="http://www.w3.org/1999/xlink" viewBox="0 0 48 48"><defs><linearGradient gradientUnits="userSpaceOnUse" y2="21.07" x2="99.1" y1="68.66" x1="99.4" id="2" xlink:href="#1"/><linearGradient gradientUnits="userSpaceOnUse" y2="-19.542" x2="0" y1="7.758" id="1"><stop stop-color="#dce2ff"/><stop offset="1" stop-color="#f8feff"/></linearGradient><linearGradient id="0" x1="408.76" y1="546.8" x2="408.57" y2="500.99" gradientUnits="userSpaceOnUse"><stop stop-color="#197cf1"/><stop offset="1" stop-color="#20bcfa"/></linearGradient><linearGradient gradientUnits="userSpaceOnUse" y2="19.322" x2="102.31" y1="67.12" x1="103.12" xlink:href="#1"/></defs><path d="m408.57 500.8c12.742 0 23 10.258 23 23 0 12.742-10.258 23-23 23-12.742 0-23-10.258-23-23 0-12.742 10.258-23 23-23" fill="url(#0)" stroke-width="1.15" transform="matrix(1.04348 0 0 1.04348-402.33-522.57)"/><path d="m94.94447 30.613398a2.174392 2.167679 0 0 0 -2.174592 2.168478 2.174392 2.167679 0 0 0 2.174592 2.168479 2.174392 2.167679 0 0 0 2.174592 -2.168479 2.174392 2.167679 0 0 0 -2.174592 -2.168478m12.322 0l-4.123 4.111 6.342 6.322-6.569 7.451 4.349 3.793 10.145-11.56-10.14-10.117m-15.22567 10.11718a3.62397 3.612811 0 0 0 -3.623641 3.61345 3.62397 3.612811 0 0 0 3.623641 3.611414 3.62397 3.612811 0 0 0 3.62568 -3.611414 3.62397 3.612811 0 0 0 -3.62568 -3.61345zm6.523777 10.11481a4.348766 4.335373 0 0 0 -4.349184 4.336956 4.348766 4.335373 0 0 0 4.349184 4.334919 4.348766 4.335373 0 0 0 4.349183 -4.334919 4.348766 4.335373 0 0 0 -4.349183 -4.336956" fill="url(#2)" color="#000" transform="translate(-78.915-20.365)"/></svg>