<svg xmlns="http://www.w3.org/2000/svg" viewBox="0 0 48 48"><defs><linearGradient id="0" y1="546.29" x2="0" y2="501.51" gradientUnits="userSpaceOnUse"><stop stop-color="#0a80fd"/><stop offset="1" stop-color="#56c5fa"/></linearGradient></defs><circle cx="407.82" cy="523.9" r="22.389" fill="url(#0)" transform="matrix(1.07197 0 0 1.07197-413.17-537.6)"/><path d="m443.05 411.85c-5.21 2.309-10.801 3.874-16.675 4.573 5.998-3.592 10.589-9.288 12.765-16.06-5.626 3.326-11.836 5.741-18.453 7.05-5.299-5.653-12.835-9.173-21.19-9.173-16.04 0-29.04 13-29.04 29.03 0 2.273.257 4.494.752 6.617-24.13-1.212-45.53-12.774-59.851-30.342-2.503 4.282-3.928 9.27-3.928 14.596 0 10.08 5.131 18.966 12.915 24.17-4.759-.159-9.235-1.468-13.154-3.644v.362c0 14.06 10.01 25.803 23.291 28.475-2.433.655-4.998 1.017-7.652 1.017-1.875 0-3.689-.185-5.467-.539 3.697 11.544 14.419 19.939 27.12 20.17-9.934 7.784-22.46 12.411-36.06 12.411-2.344 0-4.653-.142-6.926-.398 12.853 8.253 28.11 13.07 44.513 13.07 53.42 0 82.62-44.25 82.62-82.62l-.097-3.759c5.705-4.069 10.641-9.182 14.525-15" fill="#fff" fill-opacity=".85" transform="matrix(.20215 0 0 .20215-51.06-66.921)"/></svg>