<svg xmlns="http://www.w3.org/2000/svg" xmlns:xlink="http://www.w3.org/1999/xlink" viewBox="0 0 48 48"><defs><linearGradient gradientTransform="matrix(.69204 0 0 .67579 117.88 177.07)" gradientUnits="userSpaceOnUse" y2="516.46" x2="409.49" y1="542.8" x1="409.57" id="0"><stop stop-color="#e54141"/><stop offset="1" stop-color="#ffbd00"/></linearGradient></defs><g transform="translate(-384.57-499.8)"><flowRoot transform="translate(389.57 520.8)" font-family="sans-serif" text-align="start" word-spacing="0" line-height="125%" letter-spacing="0" font-size="10"><flowRegion><path d="m22 3h27v15h-27z" id="1"/></flowRegion><flowPara>Plasm</flowPara></flowRoot><g transform="matrix(1.57597 0 0 1.57597-222.8-314.3)"><rect y="520.24" x="385.41" height="22.977" width="30.448" fill="url(#0)" rx="1.081" stroke-width=".658"/><g transform="translate(-36.836-.954)"><flowRoot transform="translate(389.57 520.8)" font-family="sans-serif" letter-spacing="0" word-spacing="0" text-align="start" line-height="125%" font-size="10"><flowRegion><use xlink:href="#1"/></flowRegion><flowPara>Plasm</flowPara></flowRoot><g transform="matrix(.37339-.04589.04589.37339 243.97 379.44)"><path transform="scale(-1-1)" d="m-438.08-487.3c0 10.05-7.161 18.672-17.04 20.518-9.878 1.846-19.669-3.609-23.298-12.98-1.73-4.469-1.825-9.223-.524-13.547 1.427-4.745 3.711-2.276 8.182-5.04l8.121 5.097 3.686 5.956z" fill="#ffffa9" fill-opacity=".733"/><path d="m418.11 482.79c37.813-6.125 30.798 11.885 80.62 6.259l-1.139 10.357c-.159 3.559-3.701 2.873-3.701 2.873l-74.27-9.129c0 0-2.691-1.031-2.305-4.111z" fill="#7a2b1d" fill-rule="evenodd"/></g></g></g></g></svg>