<svg xmlns="http://www.w3.org/2000/svg" viewBox="0 0 48 48"><defs><linearGradient id="0" gradientUnits="userSpaceOnUse" x1="-10.754" x2="15.831"><stop stop-color="#d3d3d3"/><stop offset="1" stop-color="#fcf9f9"/></linearGradient><linearGradient id="1" gradientUnits="userSpaceOnUse" x1="73.05" y1="19.615" x2="71.21" y2="-24.693"><stop stop-color="#124da4"/><stop offset="1" stop-color="#2896ff"/></linearGradient></defs><g transform="matrix(.99999 0 0 .99999-47.2 26.542)" enable-background="new"><rect y="-26.539" x="47.21" height="48" width="48" fill="url(#1)" fill-rule="evenodd" rx="1.385"/><rect ry="1.662" rx="1.329" transform="matrix(0-1-1 0 0 0)" height="26.585" width="26.585" y="-84.5" x="-10.754" fill="url(#0)"/><g fill="#1e74d4"><path d="m79.26-4.772c-.765-3.587-7.981-3.814-12.631-1.081v.302c4.645-2.306 11.236-2.292 11.836 1.013.202 1.095-.434 2.233-1.576 2.888v.857c1.374-.485 2.778-2.054 2.371-3.978m-8.458 6.281c-3.21.286-6.554-.164-7.02-2.586-.233-1.193.333-2.459 1.08-3.244v-.421c-1.346 1.14-2.078 2.582-1.655 4.285.539 2.185 3.409 3.422 7.791 3.01 1.735-.161 4.01-.7 5.581-1.537v-1.189c-1.432.825-3.8 1.506-5.774 1.682z"/><path d="m76.939-5.359h-.888v3.733c0 .438.223.82.888.88"/><path d="m66.36-3.994h-.888v2.438c0 .439.223.82.888.88"/><path d="m65.47-5.245h.888v.794h-.888z"/><path d="m71.68-.715c-.72 0-1.024-.472-1.024-.938v-3.238h.878v.897h.665v.671h-.665v1.62c0 .191.097.295.307.295h.358v.693h-.52"/><path d="m74.02-3.364c-.3 0-.533.147-.63.345-.058.119-.078.21-.087.357h1.36c-.019-.359-.191-.702-.643-.702m-.717 1.267c0 .425.284.738.781.738.391 0 .585-.103.811-.313l.543.491c-.349.324-.714.52-1.36.52-.843 0-1.65-.434-1.65-1.699 0-1.081.704-1.692 1.631-1.692.94 0 1.479.715 1.479 1.655v.299h-2.235"/><path d="m68.753-3.323c.258 0 .365.12.365.315v2.297h.882v-2.3c0-.467-.265-.983-1.037-.983h-1.818v3.283h.878v-2.612"/></g><g fill="#eae8e8"><path d="m88.28 17.677v.923h-.923v-.923h.923m-.923.923v.923h-.923v-.923h.923m-.923 0h-.923v-.923h.923v.923m-.923 0v.923h-.923v-.923h.923m-.923 0h-.923v-.923h.923v.923m-.923 0v.923h-.923v-.923h.923m-.923 0h-.923v-.923h.923v.923m-.923 0v.923h-.923v-.923h.923m-.923 0h-.923v-.923h.923v.923m-.923 0v.923h-.923v-.923h.923m-.923 0h-.923v-.923h.923v.923m-.923 0v.923h-.923v-.923h.923m-.923 0h-.923v-.923h.923v.923m-.923 0v.923h-.923v-.923h.923m-.923 0h-.923v-.923h.923v.923m-.923 0v.923h-.923v-.923h.923" color="#000"/><path d="m91.97 17.677l-1.846 1.846h1.846v-1.846" fill-rule="evenodd"/><g color="#000"><path d="m51.36 17.677v.923h.923v-.923h-.923m.923.923v.923h.923v-.923h-.923m.923 0h.923v-.923h-.923v.923m.923 0v.923h.923v-.923h-.923m.923 0h.923v-.923h-.923v.923m.923 0v.923h.923v-.923h-.923m.923 0h.923v-.923h-.923v.923m.923 0v.923h.923v-.923h-.923m.923 0h.923v-.923h-.923v.923m.923 0v.923h.923v-.923h-.923m.923 0h.923v-.923h-.923v.923m.923 0v.923h.923v-.923h-.923m.923 0h.923v-.923h-.923v.923m.923 0v.923h.923v-.923h-.923m.923 0h.923v-.923h-.923v.923m.923 0v.923h.923v-.923h-.923"/><path d="m92.9-2.631h-.923v-.923h.923v.923m-.923-.923h-.923v-.923h.923v.923m0-.923v-.923h.923v.923h-.923m0-.923h-.923v-.923h.923v.923m0-.923v-.923h.923v.923h-.923m0-.923h-.923v-.923h.923v.923m0-.923v-.923h.923v.923h-.923m0-.923h-.923v-.923h.923v.923m0-.923v-.923h.923v.923h-.923m0-.923h-.923v-.923h.923v.923m0-.923v-.923h.923v.923h-.923m0-.923h-.923v-.923h.923v.923m0-.923v-.923h.923v.923h-.923m0-.923h-.923v-.923h.923v.923m0-.923v-.923h.923v.923h-.923m0-.923h-.923v-.923h.923v.923"/><path d="m91.05 6.6v.923h.923v-.923zm.923.923v.923h.923v-.923zm0 .923h-.923v.923h.923zm0 .923v.923h.923v-.923zm0 .923h-.923v.923h.923zm0 .923v.923h.923v-.923zm0 .923h-.923v.923h.923zm0 .923v.923h.923v-.923zm0 .923h-.923v.923h.923z"/></g></g></g></svg>