<svg xmlns="http://www.w3.org/2000/svg" viewBox="0 0 48 48"><defs><linearGradient id="3" x1="36.22" y1="39.864" x2="36.1" y2="7.729" gradientUnits="userSpaceOnUse"><stop stop-color="#4fd127"/><stop stop-color="#c6f61a" offset="1"/></linearGradient><linearGradient id="2" x1="23.954" y1="41.08" x2="23.842" y2="8.339" gradientUnits="userSpaceOnUse"><stop stop-color="#ff9300"/><stop stop-color="#ffd702" offset="1"/></linearGradient><linearGradient id="0" x1="45.789" y1="56.53" x2="45.585" y2="7.715" gradientUnits="userSpaceOnUse"><stop stop-color="#141414"/><stop stop-color="#2d2d2f" offset="1"/></linearGradient><linearGradient id="1" x1="11.898" y1="40.678" x2="11.378" y2="6.712" gradientUnits="userSpaceOnUse"><stop stop-color="#e02d2d"/><stop offset="1" stop-color="#f75151"/></linearGradient></defs><g transform="translate(-19.348-8.325)"><path d="m22.33 8.325h42.04c1.652 0 2.982 1.33 2.982 2.982v42.04c0 1.652-1.33 2.982-2.982 2.982h-42.04c-1.652 0-2.982-1.33-2.982-2.982v-42.04c0-1.652 1.33-2.982 2.982-2.982" fill="url(#0)" fill-rule="evenodd"/><g transform="matrix(4.72441 0 0 4.72441-13.873-5.1)"><path d="M8.666016 8A2.666666 2.666666 0 0 0 6 10.666016 2.666666 2.666666 0 0 0 8.666016 13.333984 2.666666 2.666666 0 0 0 11.333984 10.666016 2.666666 2.666666 0 0 0 8.666016 8M11.333984 10.666016A2.666666 2.666666 0 0 0 14 13.333984 2.666666 2.666666 0 0 0 16.666016 10.666016 2.666666 2.666666 0 0 0 14 8 2.666666 2.666666 0 0 0 11.333984 10.666016M14 13.333984A2.666666 2.666666 0 0 0 11.333984 16 2.666666 2.666666 0 0 0 14 18.666016 2.666666 2.666666 0 0 0 16.666016 16 2.666666 2.666666 0 0 0 14 13.333984M14 18.666016A2.666666 2.666666 0 0 0 11.333984 21.333984 2.666666 2.666666 0 0 0 14 24 2.666666 2.666666 0 0 0 16.666016 21.333984 2.666666 2.666666 0 0 0 14 18.666016M14 24A2.666666 2.666666 0 0 0 11.333984 26.666016 2.666666 2.666666 0 0 0 14 29.333984 2.666666 2.666666 0 0 0 16.666016 26.666016 2.666666 2.666666 0 0 0 14 24M14 29.333984A2.666666 2.666666 0 0 0 11.333984 32 2.666666 2.666666 0 0 0 14 34.666016 2.666666 2.666666 0 0 0 16.666016 32 2.666666 2.666666 0 0 0 14 29.333984M14 34.666016A2.666666 2.666666 0 0 0 11.333984 37.33398 2.666666 2.666666 0 0 0 14 40 2.666666 2.666666 0 0 0 16.666016 37.33398 2.666666 2.666666 0 0 0 14 34.666016M11.333984 37.33398A2.666666 2.666666 0 0 0 8.666016 34.666016 2.666666 2.666666 0 0 0 6 37.33398 2.666666 2.666666 0 0 0 8.666016 40 2.666666 2.666666 0 0 0 11.333984 37.33398M8.666016 34.666016A2.666666 2.666666 0 0 0 11.333984 32 2.666666 2.666666 0 0 0 8.666016 29.333984 2.666666 2.666666 0 0 0 6 32 2.666666 2.666666 0 0 0 8.666016 34.666016M8.666016 29.333984A2.666666 2.666666 0 0 0 11.333984 26.666016 2.666666 2.666666 0 0 0 8.666016 24 2.666666 2.666666 0 0 0 6 26.666016 2.666666 2.666666 0 0 0 8.666016 29.333984M8.666016 24A2.666666 2.666666 0 0 0 11.333984 21.333984 2.666666 2.666666 0 0 0 8.666016 18.666016 2.666666 2.666666 0 0 0 6 21.333984 2.666666 2.666666 0 0 0 8.666016 24M8.666016 18.666016A2.666666 2.666666 0 0 0 11.333984 16 2.666666 2.666666 0 0 0 8.666016 13.333984 2.666666 2.666666 0 0 0 6 16 2.666666 2.666666 0 0 0 8.666016 18.666016" transform="matrix(.21167 0 0 .21167 7.03 2.841)" fill="url(#1)"/><path d="M21.333984 8A2.666666 2.666666 0 0 0 18.666016 10.666016 2.666666 2.666666 0 0 0 21.333984 13.333984 2.666666 2.666666 0 0 0 24 10.666016 2.666666 2.666666 0 0 0 21.333984 8M24 10.666016A2.666666 2.666666 0 0 0 26.666016 13.333984 2.666666 2.666666 0 0 0 29.333984 10.666016 2.666666 2.666666 0 0 0 26.666016 8 2.666666 2.666666 0 0 0 24 10.666016M26.666016 13.333984A2.666666 2.666666 0 0 0 24 16 2.666666 2.666666 0 0 0 26.666016 18.666016 2.666666 2.666666 0 0 0 29.333984 16 2.666666 2.666666 0 0 0 26.666016 13.333984M26.666016 18.666016A2.666666 2.666666 0 0 0 24 21.333984 2.666666 2.666666 0 0 0 26.666016 24 2.666666 2.666666 0 0 0 29.333984 21.333984 2.666666 2.666666 0 0 0 26.666016 18.666016M26.666016 24A2.666666 2.666666 0 0 0 24 26.666016 2.666666 2.666666 0 0 0 26.666016 29.333984 2.666666 2.666666 0 0 0 29.333984 26.666016 2.666666 2.666666 0 0 0 26.666016 24M26.666016 29.333984A2.666666 2.666666 0 0 0 24 32 2.666666 2.666666 0 0 0 26.666016 34.666016 2.666666 2.666666 0 0 0 29.333984 32 2.666666 2.666666 0 0 0 26.666016 29.333984M26.666016 34.666016A2.666666 2.666666 0 0 0 24 37.33398 2.666666 2.666666 0 0 0 26.666016 40 2.666666 2.666666 0 0 0 29.333984 37.33398 2.666666 2.666666 0 0 0 26.666016 34.666016M24 37.33398A2.666666 2.666666 0 0 0 21.333984 34.666016 2.666666 2.666666 0 0 0 18.666016 37.33398 2.666666 2.666666 0 0 0 21.333984 40 2.666666 2.666666 0 0 0 24 37.33398M21.333984 34.666016A2.666666 2.666666 0 0 0 24 32 2.666666 2.666666 0 0 0 21.333984 29.333984 2.666666 2.666666 0 0 0 18.666016 32 2.666666 2.666666 0 0 0 21.333984 34.666016M21.333984 29.333984A2.666666 2.666666 0 0 0 24 26.666016 2.666666 2.666666 0 0 0 21.333984 24 2.666666 2.666666 0 0 0 18.666016 26.666016 2.666666 2.666666 0 0 0 21.333984 29.333984M21.333984 24A2.666666 2.666666 0 0 0 24 21.333984 2.666666 2.666666 0 0 0 21.333984 18.666016 2.666666 2.666666 0 0 0 18.666016 21.333984 2.666666 2.666666 0 0 0 21.333984 24M21.333984 18.666016A2.666666 2.666666 0 0 0 24 16 2.666666 2.666666 0 0 0 21.333984 13.333984 2.666666 2.666666 0 0 0 18.666016 16 2.666666 2.666666 0 0 0 21.333984 18.666016" transform="matrix(.21167 0 0 .21167 7.03 2.841)" fill="url(#2)"/><path d="M34 8A2.666666 2.666666 0 0 0 31.33398 10.666016 2.666666 2.666666 0 0 0 34 13.333984 2.666666 2.666666 0 0 0 36.666016 10.666016 2.666666 2.666666 0 0 0 34 8M36.666016 10.666016A2.666666 2.666666 0 0 0 39.33398 13.333984 2.666666 2.666666 0 0 0 42 10.666016 2.666666 2.666666 0 0 0 39.33398 8 2.666666 2.666666 0 0 0 36.666016 10.666016M39.33398 13.333984A2.666666 2.666666 0 0 0 36.666016 16 2.666666 2.666666 0 0 0 39.33398 18.666016 2.666666 2.666666 0 0 0 42 16 2.666666 2.666666 0 0 0 39.33398 13.333984M39.33398 18.666016A2.666666 2.666666 0 0 0 36.666016 21.333984 2.666666 2.666666 0 0 0 39.33398 24 2.666666 2.666666 0 0 0 42 21.333984 2.666666 2.666666 0 0 0 39.33398 18.666016M39.33398 24A2.666666 2.666666 0 0 0 36.666016 26.666016 2.666666 2.666666 0 0 0 39.33398 29.333984 2.666666 2.666666 0 0 0 42 26.666016 2.666666 2.666666 0 0 0 39.33398 24M39.33398 29.333984A2.666666 2.666666 0 0 0 36.666016 32 2.666666 2.666666 0 0 0 39.33398 34.666016 2.666666 2.666666 0 0 0 42 32 2.666666 2.666666 0 0 0 39.33398 29.333984M39.33398 34.666016A2.666666 2.666666 0 0 0 36.666016 37.33398 2.666666 2.666666 0 0 0 39.33398 40 2.666666 2.666666 0 0 0 42 37.33398 2.666666 2.666666 0 0 0 39.33398 34.666016M36.666016 37.33398A2.666666 2.666666 0 0 0 34 34.666016 2.666666 2.666666 0 0 0 31.33398 37.33398 2.666666 2.666666 0 0 0 34 40 2.666666 2.666666 0 0 0 36.666016 37.33398M34 34.666016A2.666666 2.666666 0 0 0 36.666016 32 2.666666 2.666666 0 0 0 34 29.333984 2.666666 2.666666 0 0 0 31.33398 32 2.666666 2.666666 0 0 0 34 34.666016M34 29.333984A2.666666 2.666666 0 0 0 36.666016 26.666016 2.666666 2.666666 0 0 0 34 24 2.666666 2.666666 0 0 0 31.33398 26.666016 2.666666 2.666666 0 0 0 34 29.333984M34 24A2.666666 2.666666 0 0 0 36.666016 21.333984 2.666666 2.666666 0 0 0 34 18.666016 2.666666 2.666666 0 0 0 31.33398 21.333984 2.666666 2.666666 0 0 0 34 24M34 18.666016A2.666666 2.666666 0 0 0 36.666016 16 2.666666 2.666666 0 0 0 34 13.333984 2.666666 2.666666 0 0 0 31.33398 16 2.666666 2.666666 0 0 0 34 18.666016" transform="matrix(.21167 0 0 .21167 7.03 2.841)" fill="url(#3)"/></g></g></svg>