<svg xmlns="http://www.w3.org/2000/svg" viewBox="0 0 48 48"><defs><linearGradient id="0" gradientUnits="userSpaceOnUse" gradientTransform="matrix(.49433 0 0 .4778 86.64 13.1)" x1="-123.97" y1="73.5" x2="-125.19" y2="-33.29"><stop stop-color="#e02d2d"/><stop offset="1" stop-color="#f75151"/></linearGradient></defs><path d="m2.982 0h42.04c1.652 0 2.982 1.33 2.982 2.982v42.04c0 1.652-1.33 2.982-2.982 2.982h-42.04c-1.652 0-2.982-1.33-2.982-2.982v-42.04c0-1.652 1.33-2.982 2.982-2.982" fill="url(#0)" fill-rule="evenodd"/><g fill="#fff" fill-opacity=".847" stroke-width="1.317"><path transform="matrix(.3 0 0 .3 12.3 11.8)" d="m63 48.667h-8v-16h8c8.836 0 16-7.164 16-16 0-8.836-7.164-16-16-16-8.837 0-16 7.164-16 16v8h-16v-8c0-8.836-7.164-16-16-16-8.836 0-16 7.164-16 16 0 8.836 7.164 16 16 16h8v16h-8c-8.836 0-16 7.164-16 16 0 8.836 7.164 16 16 16 8.837 0 16-7.164 16-16v-8h16v7.98c0 .008 0 .014 0 .02 0 8.836 7.164 16 16 16 8.836 0 16-7.164 16-16 0-8.836-7.163-15.998-15.999-16m0-40c4.418 0 8 3.582 8 8 0 4.418-3.582 8-8 8h-8v-8c0-4.418 3.582-8 8-8m-56 8c0-4.418 3.582-8 8-8 4.418 0 8 3.582 8 8v8h-8c-4.418 0-8-3.583-8-8m8 56c-4.418 0-8-3.582-8-8 0-4.418 3.582-8 8-8h8v8c0 4.418-3.582 8-8 8m16-24v-16h16v16h-16m32 24c-4.418 0-8-3.582-8-8v-8h7.999c4.418 0 8 3.582 8 8 0 4.418-3.581 8-7.999 8" fill="#fff" fill-opacity=".847"/></g></svg>