<svg xmlns="http://www.w3.org/2000/svg" xmlns:xlink="http://www.w3.org/1999/xlink" viewBox="0 0 48 48"><defs><linearGradient xlink:href="#5" id="6" x1="-226.75" x2="-170.39" gradientUnits="userSpaceOnUse"/><linearGradient id="5"><stop stop-color="#d9d9d9"/><stop offset="1" stop-color="#f4f2f2"/></linearGradient><linearGradient id="7" x1="-263.84" y1="247.6" x2="-125.58" y2="226.04" gradientUnits="userSpaceOnUse" gradientTransform="matrix(1 0 0 1.0085 2.747 1.166)"><stop stop-color="#d9d9d9"/><stop offset="1" stop-color="#eae8e8"/></linearGradient><linearGradient xlink:href="#5" id="4" x1="-335.91" y1="120.49" x2="-268.99" y2="82.48" gradientUnits="userSpaceOnUse"/><linearGradient id="3" gradientUnits="userSpaceOnUse" x1="253.92" y1="519.71" x2="263.68" y2="24.896"><stop stop-color="#d9d9d9"/><stop offset="1" stop-color="#f5f3f3"/></linearGradient><linearGradient id="0" gradientUnits="userSpaceOnUse" y1="542.2" x2="0" y2="526.2"><stop stop-color="#d0d0d0"/><stop offset="1" stop-color="#f1eeee"/></linearGradient><linearGradient id="2" gradientUnits="userSpaceOnUse" x1="395.93" y1="539.09" x2="396.05" y2="513.03"><stop stop-color="#7737c5"/><stop offset="1" stop-color="#9371ff"/></linearGradient><linearGradient id="1" gradientUnits="userSpaceOnUse" y1="537.65" x2="0" y2="494.02"><stop stop-color="#178aff"/><stop offset="1" stop-color="#1bbded"/></linearGradient></defs><g transform="matrix(.12911 0 0 .12911 45.519-3.648)" fill="url(#1)"><circle r="13.408" cx="396.62" cy="526.61" transform="matrix(13.0743 0 0 13.0743-5346.94-6674.14)" fill="url(#2)"/><path d="m532.57 174.03l-6.178 39.625c0 0-8.829-73.36-19.651-100.79-16.587-42.03-23.966-41.688-24.02-41.626 11.11 28.23 9.09 43.4 9.09 43.4 0 0-19.683-53.645-71.72-70.71-57.649-18.897-88.84-13.73-92.44-12.753-.547-.004-1.075-.005-1.577-.005.424.033.839.077 1.263.11-.019.011-.047.022-.042.028.233.285 63.7 11.09 74.956 26.56 0 0-26.958 0-53.787 7.731-1.213.347 98.71 12.481 119.14 112.33 0 0-10.955-22.852-24.502-26.733 8.909 27.1 6.622 78.53-1.862 104.09-1.092 3.287-2.209-14.209-18.921-21.745 5.355 38.36-.32 99.2-26.931 115.95-2.074 1.305 16.682-60.06 3.771-36.33-74.33 113.96-162.19 52.59-201.69 25.579 20.243 4.406 58.674-.686 75.68-13.341.022-.015.04-.028.062-.045 18.473-12.631 29.412-21.854 39.24-19.672 9.83 2.194 16.374-7.671 8.739-16.423-7.644-8.769-26.2-20.821-51.31-14.254-17.708 4.638-39.654 24.23-73.15 4.392-25.71-15.234-28.13-27.889-28.359-36.654.634-3.107 1.434-6.01 2.383-8.659 2.959-8.265 11.933-10.759 16.924-12.728 8.467 1.454 15.761 4.095 23.421 8.02.099-2.549.131-5.933-.009-9.771.734-1.459.28-5.86-.897-11.24-.678-5.369-1.781-10.924-3.517-15.985.006-.0001.001-.005.016-.007.029-.001.056-.021.082-.037.041-.023.076-.059.108-.099.006-.001.016-.017.023-.027.043-.064.08-.142.103-.243.531-2.405 6.262-7.04 13.395-12.03 6.392-4.469 13.907-9.217 19.827-12.892 5.24-3.254 9.229-5.668 10.08-6.301.321-.243.707-.527 1.127-.852.078-.061.156-.121.236-.185.049-.038.099-.077.149-.117 2.817-2.244 7.02-6.483 7.905-15.405.002-.022.005-.042.006-.064.026-.262.048-.528.067-.799.015-.188.026-.378.038-.571.007-.148.017-.295.023-.445.016-.352.026-.711.031-1.075 0-.021.0001-.04.002-.061.012-.864-.003-1.764-.054-2.709-.028-.528-.065-1-.155-1.438-.004-.023-.001-.048-.015-.071-.009-.042-.019-.085-.03-.127-.019-.076-.04-.152-.063-.224-.003-.009-.006-.017-.009-.024-.027-.083-.058-.164-.09-.242-.002-.003-.002-.005-.003-.008-.913-2.139-4.333-2.947-18.459-3.187-.013-.0001-.026-.0001-.039-.0001-5.764-.098-13.301-.102-23.18-.062-17.317.07-26.889-16.929-29.944-23.506 4.188-23.16 16.29-39.657 36.17-50.847.376-.212.302-.387-.142-.509 3.887-2.352-47-.064-70.41 29.707-20.775-5.164-38.882-4.816-54.49-1.154-2.997-.084-6.731-.458-11.164-1.381-10.379-9.404-25.24-26.772-26.03-47.5 0 0-.048.038-.131.106-.011-.199-.03-.396-.038-.595 0 0-31.623 24.304-26.89 90.56-.012 1.061-.034 2.076-.062 3.06-8.558 11.608-12.805 21.365-13.12 23.519-7.581 15.44-15.276 38.675-21.538 73.949 0 0 4.379-13.888 13.169-29.618-6.464 19.803-11.544 50.603-8.561 96.8 0 0 .789-10.243 3.58-24.997 2.181 28.652 11.729 64.02 35.864 105.62 46.33 79.85 117.54 120.18 196.25 126.36 13.977 1.152 28.15 1.179 42.41.096 1.311-.092 2.621-.188 3.931-.299 16.13-1.132 32.361-3.568 48.562-7.481 221.44-53.54 197.37-320.94 197.37-320.94" transform="matrix(.6971 0 0 .69604-352.55 42.24)" fill="url(#3)"/><g fill-rule="evenodd"><path d="m-328.74 133.5c9.444-17.436 18.319-28.874 37.579-32.29-10.833-10.328-13.918-16.07-18.906-33.725-19.268 20.841-19.14 42.494-18.673 66.01" fill="url(#4)"/><path d="m-208.66 177.1c11.229-14.766 46.34-22.761 36.03-43.12-24.18-6.162-39.33 5.305-48.945-17.389-8.297 31.981 2.876 47.39 12.917 60.51" fill="url(#6)"/><path d="m-228.84 197.98c-47.28 4.698-39.13 30.09-35.778 55.49l12.11-10.09c8.495 24.705 58.644 20.754 86.45 12.11 12.664-3.938 23.918-2.969 28.817-.962 13.796 2.961 12.874-8.73 6.842-12.208-33.02-37.592-63.52 34.659-104.22-26.704-2.488-3.752-.037-9.9 5.786-17.635" fill="url(#7)"/></g></g></svg>