<svg xmlns="http://www.w3.org/2000/svg" viewBox="0 0 48 48"><defs><linearGradient y1="545.8" x2="0" y2="517.8" gradientUnits="userSpaceOnUse"><stop stop-color="#3889e9"/><stop offset="1" stop-color="#5ea5fb"/></linearGradient><linearGradient id="0" gradientUnits="userSpaceOnUse" y1="545.14" x2="0" y2="518.14"><stop stop-color="#30cf41"/><stop offset="1" stop-color="#47f383"/></linearGradient></defs><g transform="matrix(1.09312 0 0 1.09312-351.34-550.39)"><circle r="14" cy="531.8" cx="400.57" fill="url(#0)" transform="matrix(1.56825 0 0 1.56825-284.83-308.53)"/><g transform="matrix(1.82962 0 0 1.82962-275.05-470.52)" fill="#fff" fill-opacity=".849"><path d="m353.99 203.91c35.14-20.995 47.05-66.38 26.508-101.95-20.54-35.575-65.794-47.957-101.55-28.02-.61-40.933-33.961-73.934-75.04-73.934-41.08 0-74.43 33-75.04 73.937-35.754-19.94-81.01-7.557-101.55 28.02-20.539 35.574-8.636 80.958 26.511 101.95-35.15 20.995-47.05 66.38-26.51 101.95 20.54 35.576 65.796 47.958 101.55 28.02.607 40.936 33.96 73.938 75.04 73.936 41.08 0 74.43-33 75.04-73.936 35.754 19.939 81.01 7.557 101.55-28.02 20.54-35.576 8.635-80.96-26.51-101.95m-150.08 68.74c-37.966 0-68.74-30.777-68.74-68.74 0-37.967 30.778-68.74 68.74-68.74 37.965 0 68.74 30.777 68.74 68.74 0 37.967-30.778 68.74-68.74 68.74" transform="matrix(.03923 0 0 .03923 330 536.36)"/><circle cx="338" cy="544.36" r="1.5" fill-rule="evenodd"/></g></g></svg>