<svg xmlns="http://www.w3.org/2000/svg" viewBox="0 0 48 48"><defs><linearGradient id="0" x1="61.57" y1="22.939" x2="60.753" y2="-27.706" gradientUnits="userSpaceOnUse"><stop stop-color="#197cf1"/><stop offset="1" stop-color="#21c9fb"/></linearGradient></defs><path d="m41.36-25.875h42.04c1.652 0 2.982 1.33 2.982 2.982v42.04c0 1.652-1.33 2.982-2.982 2.982h-42.04c-1.652 0-2.982-1.33-2.982-2.982v-42.04c0-1.652 1.33-2.982 2.982-2.982" transform="matrix(.99999 0 0 .99999-38.38 25.875)" fill="url(#0)" fill-rule="evenodd"/><g transform="matrix(1.16884 0 0 1.16884-453.55-588.24)" fill="#dcf0fe"><path d="m418.15 510.96c-.458 0-.552.009-.824.081-.542.143-.962.392-1.338.788-.596.627-.957 1.548-1.066 2.726-.044.485-.042 17.979.003 18.436.072.732.235 1.347.501 1.895.446.917 1.178 1.479 2.153 1.655h.002c.082.014.379.023.662.018.451-.009.554-.021.798-.093 1.37-.405 2.173-1.618 2.339-3.54.025-.288.03-2.986.023-9.417-.011-9.936.004-9.168-.197-9.964-.338-1.339-1.112-2.207-2.233-2.503-.271-.071-.365-.081-.824-.081m-5.796.353l-6.951.008-6.95.001-.236.067c-.642.185-1.031.406-1.478.845-.504.495-.768.976-.903 1.636-.377 1.841.909 3.595 2.804 3.825.19.023 1.4.033 3.7.033 2.617 0 3.427.008 3.455.037.05.049.053 6.362.003 6.813-.237 2.158-1.565 4.04-3.524 4.989-.367.178-.843.351-1.234.449-.51.128-.803.161-1.665.187-.729.023-.903.037-1.128.094-1.181.304-2.066 1.171-2.373 2.323-.066.249-.08.372-.083.747-.002.274.013.537.039.669.252 1.261 1.241 2.255 2.513 2.528.272.058.376.061 1.283.049 1.01-.013 1.399-.044 2.132-.173 5.275-.928 9.445-5.05 10.389-10.256.199-1.1.186-.608.197-8.08l.001-6.803"/><path d="m399.65 520.26c-.538-.019-.853.018-1.28.152-.587.185-1.224.575-1.61.988-1.045 1.117-1.316 2.727-.689 4.09.256.555.79 1.187 1.293 1.525.445.299 1.021.525 1.539.606 1.514.235 3.04-.477 3.82-1.784.642-1.075.689-2.433.121-3.553-.372-.733-1.077-1.394-1.844-1.729-.447-.195-.818-.275-1.349-.294"/></g></svg>