<svg xmlns="http://www.w3.org/2000/svg" viewBox="0 0 48 48"><defs><linearGradient y1="545.8" x2="0" y2="517.8" gradientUnits="userSpaceOnUse"><stop stop-color="#3889e9"/><stop offset="1" stop-color="#5ea5fb"/></linearGradient><linearGradient id="0" y1="653.96" x2="0" y2="301.3" gradientUnits="userSpaceOnUse"><stop stop-color="#0a80fd"/><stop offset="1" stop-color="#56c5fa"/></linearGradient><linearGradient y2="301.3" x2="0" y1="653.96" gradientUnits="userSpaceOnUse" id="1"><stop stop-color="#ff9300"/><stop offset="1" stop-color="#ffd702"/></linearGradient></defs><g transform="matrix(.10954 0 0 .10954 59.32-25.378)"><circle cx="-325.89" cy="478.75" r="173.45" fill="url(#1)" transform="matrix(1.26319 0 0 1.26319 89.31-154.05)"/><g transform="matrix(7.30319 0 0 7.30319-497.62 275.42)" fill="#342300"><path d="m19.98 17.906c.723.34 4.363-.371 4.738-.051.375.324-.918 1.551-.191 2.09 1.727 1.285 6.289 1.664 10.387.152l1.551 4.266c-2.25 1.242-5.621 1.961-9.934 1.551l11.328 11.406-4.195 3.777-8.715-9.152c-3.527 6.176-8.137 8.594-11.762 10.805l-3.047-4.805c14.383-9.08 6.41-13.148 9.898-18.336.277-.414-.531-1.305-.059-1.703"/><path d="m29.652 12.11c0 3.789-3.07 6.863-6.859 6.863-3.793 0-6.863-3.074-6.863-6.863 0-3.789 3.07-6.863 6.863-6.863 3.789 0 6.859 3.074 6.859 6.863"/></g></g></svg>