<svg xmlns="http://www.w3.org/2000/svg" viewBox="0 0 48 48"><defs><linearGradient y2="518.14" x2="0" y1="545.14" gradientUnits="userSpaceOnUse" id="0"><stop stop-color="#197ff1"/><stop offset="1" stop-color="#21c6fb"/></linearGradient></defs><g transform="matrix(1.71429 0 0 1.71429-662.7-887.65)"><circle r="14" cy="531.8" cx="400.57" fill="url(#0)"/><circle cx="400.57" cy="531.8" r="14" fill="#5ea5fb" fill-opacity="0"/></g><path d="m37.726 29.916c-1.527-1.075-3.431-.999-4.516.541-1.083 1.539-8.659 11.04-21.07 7.095.468.407.961.795 1.478 1.159 8.141 5.733 19.388 3.78 25.12-4.362 1.085-1.54.513-3.358-1.013-4.434m-23.95-1.212c-.792-1.708-5.231-13.02 4.39-21.794-.586.201-1.168.434-1.742.7-9.04 4.185-12.967 14.903-8.784 23.938.792 1.708 2.651 2.124 4.347 1.339 1.693-.784 2.58-2.472 1.79-4.181m11.842-22.692c-1.874-.169-3.163 1.235-3.332 3.095-.167 1.86.851 3.472 2.725 3.64 1.874.169 13.89 1.98 16.679 14.701.12-.609.208-1.229.265-1.86.894-9.918-6.42-18.682-16.337-19.576m-7.713 19.02c-.517 1.216-.6 2.375-.185 2.592.286.149.734-.191 1.154-.815.166.68.577 1.296 1.165 1.79-.616.227-1.018.599-1.018 1.019 0 .692 1.089 1.252 2.432 1.252 1.212 0 2.215-.455 2.401-1.053.05-.0001.241-.0001.289 0 .186.597 1.19 1.053 2.402 1.053 1.344 0 2.432-.561 2.432-1.252 0-.42-.402-.792-1.018-1.019.586-.495.999-1.109 1.165-1.79.419.624.867.964 1.153.815.415-.216.333-1.377-.185-2.592-.406-.955-.957-1.659-1.377-1.814.006-.06.009-.122.009-.184 0-.369-.103-.71-.278-.988.003-.022.003-.044.003-.065 0-.17-.041-.329-.109-.467-.106-2.484-1.723-4.456-4.339-4.456-2.618 0-4.235 1.972-4.339 4.456-.07.138-.11.297-.11.467 0 .022.002.044.002.065-.174.278-.276.619-.276.988 0 .062.002.123.008.184-.418.156-.971.86-1.375 1.814z" fill="#deeffd"/></svg>