<svg xmlns="http://www.w3.org/2000/svg" viewBox="0 0 48 48"><defs><linearGradient gradientUnits="userSpaceOnUse" y2="-27.2" x2="52.726" y1="13.409" x1="52.769" id="0"><stop stop-color="#197cf1"/><stop offset="1" stop-color="#20bcfa"/></linearGradient></defs><g transform="matrix(.99999 0 0 .99999-38.37 25.882)" enable-background="new"><path d="m69.33-21.67c-4.526-3.683-10.535-5.712-16.921-5.712-6.386 0-12.395 2.028-16.921 5.712-4.565 3.715-7.079 8.667-7.079 13.942 0 5.04 2.292 9.774 6.469 13.426-.075.169-.135.348-.173.535l-1.373 6.752c-.163.802.056 1.281.269 1.541.246.301.61.466 1.026.466.314 0 .651-.093 1-.275l7.984-4.148c2.764.89 5.736 1.356 8.795 1.356 6.386 0 12.395-2.028 16.921-5.712 4.565-3.715 7.079-8.666 7.079-13.942 0-5.276-2.514-10.227-7.079-13.942" fill="url(#0)" transform="translate(9.97 4.319)"/><g transform="translate(0-1)"><path d="m62.11-10.3c-1.112-2.593-3-4.479-5.617-5.594-1.307-.557-2.676-.842-4.106-.842-1.43 0-2.789.282-4.095.842-2.593 1.112-4.492 2.997-5.606 5.594-.558 1.301-.83 2.664-.83 4.095 0 1.43.272 2.805.83 4.106 1.114 2.597 3.01 4.493 5.606 5.606 1.306.56 2.664.842 4.095.842 1.43 0 2.8-.285 4.106-.842 2.615-1.115 4.505-3.01 5.617-5.606.56-1.306.842-2.676.842-4.106 0-1.43-.282-2.789-.842-4.095" transform="translate(9.97 4.319)" opacity=".99" fill="#fff" fill-opacity=".853"/><path d="m62.823-.837v-5.975c0-.358-.312-.646-.669-.646-.334 0-.634.288-.634.646v6.067c0 .012.023.058.023.092-.023.208.035.381.173.519l3.449 3.449c.231.231.657.231.888 0 .265-.265.248-.65 0-.9l-3.23-3.253z" opacity=".99" fill="#1da1f6" stroke="#1da0f6" stroke-width="1.1"/></g></g></svg>