<svg xmlns="http://www.w3.org/2000/svg" viewBox="0 0 48 48"><defs><linearGradient id="0" x1="61.57" y1="22.939" x2="61.16" y2="-31.367" gradientUnits="userSpaceOnUse"><stop stop-color="#4fd127"/><stop stop-color="#c6f61a" offset="1"/></linearGradient></defs><path d="m41.36-25.875h42.04c1.652 0 2.982 1.33 2.982 2.982v42.04c0 1.652-1.33 2.982-2.982 2.982h-42.04c-1.652 0-2.982-1.33-2.982-2.982v-42.04c0-1.652 1.33-2.982 2.982-2.982" transform="matrix(.99999 0 0 .99999-38.38 25.875)" fill="url(#0)" fill-rule="evenodd"/><g transform="matrix(.03433 0 0 .03433 8 8)" fill-opacity=".685"><path d="m466.07 161.53c-205.6 0-382.8 121.2-464.2 296.1-2.5 5.3-2.5 11.5 0 16.9 81.4 174.9 258.6 296.1 464.2 296.1 205.6 0 382.8-121.2 464.2-296.1 2.5-5.3 2.5-11.5 0-16.9-81.4-174.9-258.6-296.1-464.2-296.1m0 514.7c-116.1 0-210.1-94.1-210.1-210.1 0-116.1 94.1-210.1 210.1-210.1 116.1 0 210.1 94.1 210.1 210.1 0 116-94.1 210.1-210.1 210.1"/><circle cx="466.08" cy="466.02" r="134.5"/></g></svg>