<svg xmlns="http://www.w3.org/2000/svg" viewBox="0 0 48 48"><defs><linearGradient gradientTransform="matrix(2.07793 0 0 2.08909-503.11-599.88)" id="0" gradientUnits="userSpaceOnUse" x1="395.48" y1="551.32" x2="395.24" y2="535.55"><stop stop-color="#d3d3d3"/><stop offset="1" stop-color="#fcf9f9"/></linearGradient><linearGradient y2="511.03" x2="304.72" y1="541.42" x1="305.68" gradientUnits="userSpaceOnUse" id="1"><stop stop-color="#ff9300"/><stop offset="1" stop-color="#ffd702"/></linearGradient></defs><g transform="translate(-289.49-505.87)"><circle r="15.881" cy="526.52" cx="305.38" fill="url(#1)"/><path d="m311.11 530.14c-.874-.686-1.973-1.095-3.165-1.095-2.808 0-5.093 2.265-5.165 5.087-2.898 1.099-4.961 3.927-4.961 7.241 0 3.916 2.879 7.151 6.613 7.662v.07h26.451v-.013c3.688-.216 6.613-3.309 6.613-7.093 0-3.649-2.72-6.655-6.222-7.06.014-.222.022-.447.022-.673 0-5.655-4.719-10.239-10.539-10.239-4.308 0-8.01 2.512-9.647 6.11" fill="url(#0)"/></g></svg>