<?xml version="1.0" encoding="UTF-8" standalone="no"?>
<!-- Created with Inkscape (http://www.inkscape.org/) -->

<svg
   xmlns:dc="http://purl.org/dc/elements/1.1/"
   xmlns:cc="http://creativecommons.org/ns#"
   xmlns:rdf="http://www.w3.org/1999/02/22-rdf-syntax-ns#"
   xmlns:svg="http://www.w3.org/2000/svg"
   xmlns="http://www.w3.org/2000/svg"
   xmlns:xlink="http://www.w3.org/1999/xlink"
   xmlns:sodipodi="http://sodipodi.sourceforge.net/DTD/sodipodi-0.dtd"
   xmlns:inkscape="http://www.inkscape.org/namespaces/inkscape"
   width="200"
   height="200"
   id="svg2"
   version="1.1"
   inkscape:version="0.48.3.1 r9886"
   sodipodi:docname="circle template.svg">
  <defs
     id="defs4">
    <linearGradient
       id="linearGradient4829">
      <stop
         style="stop-color:#f4fbfc;stop-opacity:1;"
         offset="0"
         id="stop4831" />
      <stop
         style="stop-color:#d6d6d6;stop-opacity:1;"
         offset="1"
         id="stop4833" />
    </linearGradient>
    <clipPath
       clipPathUnits="userSpaceOnUse"
       id="clipPath4282">
      <rect
         style="color:#000000;fill:#4d4d4d;fill-opacity:1;fill-rule:nonzero;stroke:none;stroke-width:9.13434315;marker:none;visibility:visible;display:inline;overflow:visible;enable-background:accumulate"
         id="rect4284"
         width="246.875"
         height="234.375"
         x="462.5"
         y="1646.1122"
         ry="17"
         rx="17" />
    </clipPath>
    <linearGradient
       inkscape:collect="always"
       xlink:href="#linearGradient4829"
       id="linearGradient4835"
       x1="102.29776"
       y1="-0.42686829"
       x2="102.29776"
       y2="199.16539"
       gradientUnits="userSpaceOnUse" />
    <linearGradient
       inkscape:collect="always"
       xlink:href="#linearGradient5423"
       id="linearGradient5429"
       x1="408.66196"
       y1="44.604382"
       x2="408.66196"
       y2="562.04968"
       gradientUnits="userSpaceOnUse" />
    <linearGradient
       id="linearGradient5423">
      <stop
         style="stop-color:#db5151;stop-opacity:1;"
         offset="0"
         id="stop5425" />
      <stop
         style="stop-color:#d42f6c;stop-opacity:1;"
         offset="1"
         id="stop5427" />
    </linearGradient>
    <linearGradient
       y2="654.53522"
       x2="173.1449"
       y1="-284.57474"
       x1="173.1449"
       gradientUnits="userSpaceOnUse"
       id="linearGradient5448"
       xlink:href="#linearGradient4829"
       inkscape:collect="always"
       gradientTransform="matrix(0.21296761,0,0,0.21296761,66.391049,912.96738)" />
    <linearGradient
       inkscape:collect="always"
       xlink:href="#linearGradient5423"
       id="linearGradient5473"
       x1="99.036476"
       y1="-0.50471628"
       x2="99.036476"
       y2="199.83986"
       gradientUnits="userSpaceOnUse" />
    <linearGradient
       inkscape:collect="always"
       xlink:href="#linearGradient5423"
       id="linearGradient6197"
       gradientUnits="userSpaceOnUse"
       x1="99.036476"
       y1="-0.50471628"
       x2="99.036476"
       y2="199.83986" />
    <linearGradient
       inkscape:collect="always"
       xlink:href="#linearGradient4829"
       id="linearGradient6211"
       x1="100.89178"
       y1="0"
       x2="100.89178"
       y2="200"
       gradientUnits="userSpaceOnUse" />
  </defs>
  <sodipodi:namedview
     id="base"
     pagecolor="#ffffff"
     bordercolor="#666666"
     borderopacity="1.0"
     inkscape:pageopacity="0.0"
     inkscape:pageshadow="2"
     inkscape:zoom="2.5600001"
     inkscape:cx="37.638316"
     inkscape:cy="91.922836"
     inkscape:document-units="px"
     inkscape:current-layer="layer1"
     showgrid="false"
     inkscape:window-width="1920"
     inkscape:window-height="1026"
     inkscape:window-x="1920"
     inkscape:window-y="30"
     inkscape:window-maximized="1"
     inkscape:snap-from-guide="true"
     showguides="true"
     inkscape:guide-bbox="true">
    <sodipodi:guide
       position="0,0"
       orientation="0,200"
       id="guide3764" />
    <sodipodi:guide
       position="200,0"
       orientation="-200,0"
       id="guide3766" />
    <sodipodi:guide
       position="200,200"
       orientation="0,-200"
       id="guide3768" />
    <sodipodi:guide
       position="0,200"
       orientation="200,0"
       id="guide3770" />
  </sodipodi:namedview>
  <metadata
     id="metadata7">
    <rdf:RDF>
      <cc:Work
         rdf:about="">
        <dc:format>image/svg+xml</dc:format>
        <dc:type
           rdf:resource="http://purl.org/dc/dcmitype/StillImage" />
        <dc:title></dc:title>
      </cc:Work>
    </rdf:RDF>
  </metadata>
  <g
     inkscape:label="Layer 1"
     inkscape:groupmode="layer"
     id="layer1"
     transform="translate(0,-852.36218)">
    <path
       sodipodi:type="arc"
       style="color:#000000;fill:url(#linearGradient4835);fill-opacity:1;fill-rule:nonzero;stroke:none;stroke-width:9.13434315;marker:none;visibility:visible;display:inline;overflow:visible;enable-background:accumulate"
       id="path4188"
       sodipodi:cx="100"
       sodipodi:cy="100"
       sodipodi:rx="100"
       sodipodi:ry="100"
       d="M 200,100 C 200,155.22847 155.22847,200 100,200 44.771525,200 0,155.22847 0,100 0,44.771525 44.771525,0 100,0 155.22847,0 200,44.771525 200,100 z"
       transform="translate(0,852.36219)" />
    <path
       sodipodi:type="arc"
       style="color:#000000;fill:url(#linearGradient6197);fill-opacity:1;fill-rule:nonzero;stroke:none;stroke-width:9.13434314999999941;marker:none;visibility:visible;display:inline;overflow:visible;enable-background:accumulate"
       id="path4188-6"
       sodipodi:cx="100"
       sodipodi:cy="100"
       sodipodi:rx="100"
       sodipodi:ry="100"
       d="M 200,100 C 200,155.22847 155.22847,200 100,200 44.771525,200 0,155.22847 0,100 0,44.771525 44.771525,0 100,0 155.22847,0 200,44.771525 200,100 z"
       transform="matrix(0.91020408,0,0,0.91020408,8.9795918,861.34178)" />
    <path
       d="M 98.09375 21.25 C 93.161379 21.240138 88.25831 23.033405 84.71875 26.65625 L 25.84375 86.90625 C 5.9476979 111.5451 39.385176 108.6846 53.71875 115.78125 C 58.860426 121.0369 34.014573 124.89622 39.15625 130.15625 C 44.297926 135.41189 70.224557 140.27561 75.375 145.53125 C 80.516677 150.78686 64.858324 156.3694 70 161.625 C 75.141677 166.8807 87.023255 161.89815 89.25 174.03125 C 90.836775 182.70155 110.7015 177.75725 120.40625 170.65625 C 125.54793 165.39625 110.57707 165.91185 115.71875 160.65625 C 128.50499 147.58065 140.40666 155.88311 144.78125 142.78125 C 146.94224 136.30704 125.94331 132.81814 131.09375 127.5625 C 145.88758 118.9229 197.01187 113.29313 172.75 89.03125 L 111.71875 26.65625 C 107.98632 23.072855 103.02612 21.259862 98.09375 21.25 z M 98.59375 26.96875 C 102.11523 26.987379 105.62925 28.31512 108.15625 30.875 L 131.46875 54.53125 C 133.67796 56.78868 133.64236 61.14823 132.40625 62.40625 L 120.84375 53.15625 L 118.5625 66.875 L 108.90625 61.78125 L 93.40625 71.53125 L 88.28125 50.9375 L 79.96875 65.3125 L 67.28125 65.3125 C 62.100124 65.3125 61.479776 58.73897 66.1875 54.03125 C 74.410676 45.15495 83.840223 36.1175 88.96875 30.875 C 91.546163 28.240605 95.072272 26.950121 98.59375 26.96875 z M 70.625 119.03125 C 72.198625 120.00874 95.995784 124.84816 101.8125 125.8125 C 103.82884 126.23769 102.40405 128.31608 99.625 129.71875 C 93.356801 131.38443 62.954127 119.03125 70.625 119.03125 z M 163.1875 135.59375 C 158.39868 135.75867 153.67685 138.19407 152.375 142.78125 C 152.375 145.7707 174.375 147.74833 174.375 142.09375 C 172.80576 137.55259 167.97632 135.42883 163.1875 135.59375 z M 62.1875 148.53125 C 55.284406 148.46722 47.201735 153.53011 53.15625 158.6875 C 58.372444 163.198 66.428521 157.5445 68.84375 151.25 C 67.42231 149.36132 64.888711 148.55631 62.1875 148.53125 z M 149.59375 148.9375 C 142.86968 154.969 150.34111 161.0843 156.96875 157.1875 C 158.44594 155.6884 156.93582 150.4366 149.59375 148.9375 z "
       transform="translate(0,852.36218)"
       id="path5650"
       style="fill-opacity:1;fill:url(#linearGradient6211)" />
  </g>
</svg>
