<svg xmlns="http://www.w3.org/2000/svg" xmlns:xlink="http://www.w3.org/1999/xlink" viewBox="0 0 48 48"><defs><linearGradient gradientUnits="userSpaceOnUse" y2="532.63" x2="424.07" y1="515.76" x1="407.2" id="6" xlink:href="#3"/><linearGradient xlink:href="#2" gradientUnits="userSpaceOnUse" x1="400.57" y1="512.8" x2="415.57" y2="527.8"/><linearGradient id="B" x1="27.425" y1="26.1" x2="26.829" y2="7.833" gradientUnits="userSpaceOnUse"><stop stop-color="#ff9300"/><stop stop-color="#ffd702" offset="1"/></linearGradient><linearGradient gradientUnits="userSpaceOnUse" y2="498.25" x2="406.77" y1="523.9" x1="384.61" xlink:href="#3"/><linearGradient id="7"><stop stop-color="#222c35"/><stop offset="1" stop-color="#545e67"/></linearGradient><linearGradient id="A" x1="29.473" y1="26.817" x2="29.597" y2="8.264" gradientUnits="userSpaceOnUse"><stop stop-color="#00a661"/><stop offset="1" stop-color="#50ffbf"/></linearGradient><linearGradient id="8" x1="24.595" y1="25.81" x2="23.568" y2="8.12" gradientUnits="userSpaceOnUse"><stop stop-color="#c52828"/><stop stop-color="#ff5454" offset="1"/></linearGradient><linearGradient id="9" x1="33.401" y1="27.1" x2="33.668" y2="7.977" gradientUnits="userSpaceOnUse"><stop stop-color="#0a80fd"/><stop stop-color="#56c5fa" offset="1"/></linearGradient><linearGradient gradientUnits="userSpaceOnUse" y2="510.43" x2="414.58" y1="537.14" x1="415.32" id="5" xlink:href="#7"/><linearGradient gradientUnits="userSpaceOnUse" y2="514" x2="414.2" y1="533.59" x1="414.08" id="4"><stop stop-color="#08f"/><stop offset="1" stop-color="#02c3ff"/></linearGradient><linearGradient id="2"><stop stop-color="#2e5d89"/><stop offset="1" stop-color="#1b92f4"/></linearGradient><linearGradient id="0" x1="64.923" y1="20.905" x2="66.47" y2="-16.621" gradientUnits="userSpaceOnUse"><stop stop-color="#d3d3d3"/><stop stop-color="#fcf9f9" offset="1"/></linearGradient><linearGradient xlink:href="#7" id="1" x1="45.993" y1="29.979" x2="46.12" y2="5.576" gradientUnits="userSpaceOnUse"/><linearGradient y2="528.03" x2="416.84" y1="510.3" x1="399.12" gradientUnits="userSpaceOnUse" xlink:href="#2"/><linearGradient id="3"><stop stop-color="#18222a"/><stop offset="1" stop-color="#566069"/></linearGradient><linearGradient xlink:href="#2" gradientUnits="userSpaceOnUse" x1="477.12" y1="509.8" x2="494.84" y2="527.53"/><linearGradient y2="531.45" x2="494.57" y1="516.45" x1="479.57" gradientUnits="userSpaceOnUse" xlink:href="#2"/><linearGradient xlink:href="#2" gradientUnits="userSpaceOnUse" x1="480.12" y1="516.8" x2="497.84" y2="534.53"/></defs><g transform="translate(-19.348-8.325)"><g fill-rule="evenodd"><path d="m41.36-25.375h42.04c1.652 0 2.982 1.33 2.982 2.982v41.536c0 1.652-1.33 2.982-2.982 2.982h-42.04c-1.652 0-2.982-1.33-2.982-2.982v-41.536c0-1.652 1.33-2.982 2.982-2.982" transform="matrix(.99999 0 0 .99999-19.03 34.2)" fill="url(#0)"/><path d="m22.33 8.325h42.04c1.652 0 2.982 1.33 2.982 2.982v8.04 6.982h-48v-6.982-8.04c0-1.652 1.33-2.982 2.982-2.982" fill="url(#1)"/></g><g transform="translate(14.892)"><path opacity=".98" fill="url(#B)" d="m25.555 8.325h3v18h-3z"/><path opacity=".98" fill="url(#A)" d="m28.466 8.325h3v18h-3z"/><path d="m22.726 8.325h3v18h-3z" opacity=".98" fill="url(#8)"/><path opacity=".98" fill="url(#9)" d="m31.387 8.325h3v18h-3z"/></g><g transform="matrix(.9978 0 0 1-371-491.51)"><path d="m401.27124 523.8253a13.999973 13.999973 0 0 1 13.99997 -13.99997 13.999973 13.999973 0 0 1 13.99997 13.99997 13.999973 13.999973 0 0 1 -13.99997 13.99998 13.999973 13.999973 0 0 1 -13.99997 -13.99998" fill="url(#5)"/><circle cx="415.27" cy="523.83" r="11" fill="url(#6)"/><circle r="10" cy="523.83" cx="415.27" opacity=".98" fill="url(#4)"/></g></g></svg>