<svg xmlns="http://www.w3.org/2000/svg" viewBox="0 0 48 48"><defs><filter color-interpolation-filters="sRGB"><feGaussianBlur stdDeviation="1.71"/></filter><linearGradient gradientTransform="scale(1.0059.99417)" gradientUnits="userSpaceOnUse" y2="7.02" x2="0" y1="92.54"><stop/><stop offset="1" stop-opacity=".588"/></linearGradient><linearGradient gradientUnits="userSpaceOnUse" y2="-26.05" x2="-125.19" y1="73.5" x1="-123.97" id="0" gradientTransform="matrix(1.03458 0 0 1 4.382 0)"><stop stop-color="#1074f5"/><stop offset="1" stop-color="#02befd"/></linearGradient></defs><path d="m-170.49-27.421h87.55c3.577 0 6.458 2.783 6.458 6.241v87.978c0 3.457-2.88 6.241-6.457 6.241h-87.55c-3.577 0-6.457-2.783-6.457-6.241v-87.978c0-3.457 2.88-6.241 6.457-6.241" fill="url(#0)" fill-rule="evenodd" transform="matrix(.4778 0 0 .4778 84.55 13.1)"/><path d="m28.692 12.757c-4.733.063-10.02 1.431-14.275 4.03v.658c9.721-5.02 23.514-4.987 24.769 2.202.423 2.381-.911 4.858-3.299 6.284v1.866c2.875-1.055 5.815-4.47 4.964-8.655-.9-4.39-6.073-6.466-12.158-6.385m4.244 5.256v7.879c0 .925.441 1.73 1.76 1.857v-9.737zm-20.978.241v1.675h1.76v-1.675zm10.282.747v6.833c0 .983.604 1.978 2.032 1.978h1.029v-1.461h-.71c-.416 0-.608-.221-.608-.623v-3.418h1.318v-1.417h-1.318v-1.893zm-11.525.205c-2.818 2.48-4.349 5.616-3.465 9.319 1.127 4.753 7.134 7.445 16.304 6.549 3.631-.351 8.383-1.525 11.681-3.345v-2.586c-2.997 1.795-7.953 3.278-12.08 3.661-6.717.622-13.716-.356-14.696-5.626-.487-2.595.697-5.349 2.26-7.06m18.263.654c-1.838 0-3.235 1.289-3.235 3.571 0 2.668 1.601 3.584 3.273 3.584 1.281 0 2-.415 2.696-1.098l-1.075-1.038c-.448.443-.833.662-1.608.662-.986 0-1.548-.661-1.548-1.558h4.43v-.631c0-1.982-1.069-3.492-2.932-3.492zm-17.02.118v5.144c0 .926.441 1.73 1.76 1.857v-7zm3.316 0v6.929h1.741v-5.512h1.448c.512 0 .722.252.722.664v4.848h1.749v-4.854c0-.986-.526-2.075-2.056-2.075zm13.627 1.33c.897 0 1.236.725 1.274 1.482h-2.696c.019-.31.057-.501.172-.753.192-.418.654-.728 1.249-.728" fill="#dbeffe"/></svg>