<svg xmlns="http://www.w3.org/2000/svg" viewBox="0 0 48 48"><defs><linearGradient gradientUnits="userSpaceOnUse" x2="47" x1="0"><stop stop-color="#a9a3d4"/><stop offset=".47" stop-color="#87baff"/><stop offset="1" stop-color="#89ec85"/></linearGradient><linearGradient id="0" y1="556.24" x2="0" y2="510.24" gradientUnits="userSpaceOnUse"><stop stop-color="#2e5378"/><stop offset="1" stop-color="#387898"/></linearGradient><linearGradient id="1" x1="421.9" y1="540.44" x2="422.52" y2="522.5" gradientUnits="userSpaceOnUse"><stop stop-color="#1584d8"/><stop offset="1" stop-color="#1cb2ff"/></linearGradient></defs><g transform="matrix(1.04866 0 0 1.04866-511.61-528.36)" stroke-width="1.317"><rect y="510.24" x="296.96" height="46" width="46" fill="url(#0)" rx="23" stroke-width="2.164" transform="matrix(.99507 0 0 .99507 192.37-3.883)"/><path d="m423.44 523.59l-1.172 4.7h3.223l1.184-4.7h2.698l-1.184 4.7h3.381v2.6h-4.03l-.842 3.345h3.467v2.625h-4.102l-1.172 4.675h-2.698l1.172-4.675h-3.223l-1.172 4.675h-2.722l1.172-4.675h-3.406v-2.625h4l.854-3.345h-3.455v-2.6h4.126l1.172-4.7h2.722m1.379 7.3h-3.223l-.854 3.345h3.223l.854-3.345" fill="#fff" fill-opacity=".85" transform="matrix(1.33747 0 0 1.33747-54.714-185.56)"/></g></svg>