<svg xmlns="http://www.w3.org/2000/svg" viewBox="0 0 48 48"><defs><linearGradient id="0" x1="-2.932" y1="42.624" x2="-3.339" y2="-5.987" gradientUnits="userSpaceOnUse"><stop stop-color="#8347a1"/><stop stop-color="#b768d6" offset="1"/></linearGradient></defs><g transform="matrix(.99999 0 0 .99999 26.525 5.783)" enable-background="new"><path d="m-23.699-1.606h42.35c1.566 0 2.826 1.26 2.826 2.826v33.994c0 1.566-1.26 2.826-2.826 2.826h-42.35c-1.566 0-2.826-1.26-2.826-2.826v-33.994c0-1.566 1.26-2.826 2.826-2.826" opacity=".988" fill="url(#0)"/><path d="m9.978 11.652c-.302-.139-.659-.089-.911.129l-5.03 4.33v-4.939c0-.486-.396-.882-.882-.882h-17.798c-.486 0-.882.396-.882.882v14.09c0 .486.396.882.882.882h17.798c.486 0 .883-.396.883-.882v-4.939l5.03 4.33c.252.218.609.268.911.129.303-.139.497-.441.497-.775v-11.582c0-.333-.194-.635-.497-.774" fill="#f2e6f6"/></g></svg>