<svg xmlns="http://www.w3.org/2000/svg" viewBox="0 0 48 48"><defs><linearGradient gradientUnits="userSpaceOnUse" y2="517.8" x2="0" y1="545.8"><stop stop-color="#3889e9"/><stop offset="1" stop-color="#5ea5fb"/></linearGradient><linearGradient y2="518.14" x2="0" y1="545.14" gradientUnits="userSpaceOnUse" id="0"><stop stop-color="#4469b9"/><stop offset="1" stop-color="#5d91ff"/></linearGradient></defs><g transform="matrix(.99999 0 0 .99999-38.37 25.882)" enable-background="new"><g transform="matrix(1.71429 0 0 1.71429-624.32-913.53)"><circle r="14" cy="531.8" cx="400.57" fill="url(#0)"/><circle cx="400.57" cy="531.8" r="14" fill="#5ea5fb" fill-opacity="0"/></g><path d="m-6.444-1.542c-.864.243-1.56 1.207-1.56 2.144v14.856c-.876-.481-2-.675-3.169-.357-2.106.573-3.426 2.424-2.974 4.135.451 1.711 2.526 2.666 4.632 2.093 1.68-.457 2.838-1.75 3.02-3.114l.049-14.04 10.921-3.063v11.08c-.876-.481-2-.675-3.169-.357-2.106.573-3.425 2.425-2.974 4.135.451 1.711 2.526 2.666 4.632 2.093 1.68-.457 2.838-1.75 3.02-3.114l.049-18.276c0-.703-.415-1.228-.975-1.327l-11.506 3.114z" fill="#e4ebf9" fill-opacity=".724" transform="matrix(.99999 0 0 .99999 64.776-10.293)"/></g></svg>