<svg xmlns="http://www.w3.org/2000/svg" viewBox="0 0 48 48"><defs><linearGradient gradientTransform="matrix(1 0 0 .99506-401.61-508.53)" id="0" y1="545.8" x2="0" y2="517.8" gradientUnits="userSpaceOnUse"><stop stop-color="#ff9300"/><stop offset="1" stop-color="#ffd702"/></linearGradient></defs><g transform="matrix(1.71427 0 0 1.71427 25.789-11.368)" enable-background="new"><rect y="6.708" x="-15.04" height="27.862" width="28" fill="url(#0)" rx="13.931"/><g fill-opacity=".753"><path d="m.613 26.597h-3.312c-.256 0-.464.208-.464.464 0 .257.208.465.464.465h3.312c.256 0 .465-.208.465-.465 0-.256-.208-.464-.465-.464"/><path d="m-1.895 29.3c.063.417.419.738.854.738.434 0 .791-.321.854-.738.568-.034 1.02-.501 1.02-1.078h-3.751c0 .577.453 1.045 1.023 1.078"/><path d="m-1.042 14.05c.343 0 .62-.277.62-.619v-1.441c0-.342-.277-.619-.62-.619-.342 0-.619.277-.619.619v1.441c0 .342.277.619.619.619"/><path d="m-5.105 14.956c.122.167.31.256.502.256.126 0 .253-.038.363-.118.276-.201.338-.588.137-.865l-.847-1.166c-.201-.276-.588-.339-.865-.137-.276.201-.338.588-.137.865l.846 1.166"/><path d="m3.02 24.03c-.201-.276-.588-.338-.865-.137-.276.201-.338.588-.136.865l.847 1.166c.121.167.31.255.501.255.126 0 .253-.038.363-.118.276-.201.338-.588.137-.865l-.847-1.166"/><path d="m-6.613 17.03l-1.371-.446c-.328-.106-.675.072-.781.398-.106.325.072.675.397.78l1.371.446c.064.021.128.031.192.031.261 0 .504-.166.589-.428.106-.325-.072-.675-.397-.78"/><path d="m6.284 21.22l-1.37-.445c-.326-.105-.674.073-.78.398-.106.325.073.675.398.781l1.371.445c.064.021.128.031.191.031.261 0 .504-.167.589-.428.106-.326-.073-.675-.398-.78"/><path d="m-6.996 20.78l-1.371.444c-.325.105-.504.455-.398.78.085.262.328.428.589.428.063 0 .128-.001.191-.031l1.371-.444c.326-.106.504-.455.398-.78-.105-.325-.452-.503-.78-.398"/><path d="m4.722 18.242c.064 0 .128-.001.191-.031l1.37-.445c.325-.106.504-.455.398-.78-.106-.325-.457-.503-.78-.398l-1.371.445c-.325.106-.504.455-.398.78.085.262.328.428.589.428"/><path d="m-5.105 24.03l-.848 1.165c-.201.277-.14.664.137.865.109.08.237.119.363.119.192 0 .381-.088.501-.255l.848-1.165c.201-.277.14-.664-.137-.865-.276-.202-.665-.14-.865.136"/><path d="m2.867 13.06l-.847 1.166c-.201.277-.139.664.137.865.11.08.238.118.363.118.192 0 .381-.089.502-.256l.847-1.166c.201-.277.139-.664-.137-.865-.278-.202-.664-.14-.865.137"/><path d="m3.431 19.518c0-2.471-2-4.474-4.473-4.474-2.471 0-4.474 2-4.474 4.474 0 1.042.358 1.999.957 2.759.525.666 1.022 1.393 1.452 2.124v1.486h4.102v-1.447c.427-.711.978-1.53 1.477-2.163.599-.76.958-1.717.958-2.76"/></g></g></svg>