<svg xmlns="http://www.w3.org/2000/svg" xmlns:xlink="http://www.w3.org/1999/xlink" viewBox="0 0 48 48"><defs><linearGradient gradientTransform="matrix(.91926-.16589.15464.98614-51.07 75.21)" gradientUnits="userSpaceOnUse" x2="410.34" x1="389.96" id="4" xlink:href="#0"/><linearGradient gradientUnits="userSpaceOnUse" y2="505.45" x2="413.03" y1="548.26" x1="412.17" id="5" xlink:href="#0"/><linearGradient id="3" gradientUnits="userSpaceOnUse" x1="15.37" y1="29.24" x2="14.99" y2=".736"><stop stop-color="#2b2b2b"/><stop offset="1" stop-color="#353535"/></linearGradient><linearGradient id="1" x1="408.39" y1="504.88" x2="408.56" y2="543.99" gradientUnits="userSpaceOnUse"><stop stop-color="#fef15e"/><stop offset="1" stop-color="#e6c12b"/></linearGradient><linearGradient id="0"><stop stop-color="#ff433a"/><stop offset="1" stop-color="#ff9436"/></linearGradient><linearGradient id="2" x1="15.37" y1="29.24" x2="14.99" y2=".736" gradientUnits="userSpaceOnUse"><stop stop-color="#e6c02a"/><stop offset="1" stop-opacity="0"/></linearGradient></defs><g transform="matrix(1.1305 0 0 1.1305-436.29-567.91)"><path d="m405.93 504.04c-9.315.382-9.927 1.46-11.07 2.041-1.537.778-3.427 1.216-3.229-.043-.654.239-1.407 1.15-.769 2.29.638 1.14-.637 2.468-1.25 1.749-1.175-1.375-4.055-.296-3.635 1.463.414-.414 2.341-1.319 2.073.701-.268 2.02-.401 3.568 1.653 4.945 2.054 1.377 10.02-.016 10.02-.016z" fill="url(#4)" fill-rule="evenodd"/><path d="m408.39 504.88c-4.857 0-9.714 1.861-13.436 5.582-7.443 7.443-7.443 19.428 0 26.871 7.443 7.443 19.428 7.443 26.871 0 7.443-7.443 7.443-19.428 0-26.871-3.721-3.721-8.579-5.582-13.436-5.582" fill="url(#1)"/><path d="m22.685 2.124c-7.107-4.244-16.309-1.931-20.558 5.174-4.248 7.104-1.932 16.309 5.171 20.555 7.108 4.248 16.307 1.93 20.555-5.174 4.248-7.104 1.932-16.302-5.168-20.555m-7.553 12.782l5.724 10.94c-.908.486-1.872.861-2.868 1.115-3.045.762-6.36.381-9.269-1.332l6.405-10.713-12.497-.5c.091-1.974.649-3.957 1.739-5.779 1.142-1.91 2.719-3.394 4.525-4.413l6.241 10.676 6.264-10.474c2.882 1.757 4.792 4.493 5.557 7.538.221.876.343 1.776.367 2.683l-12.188.259" fill="url(#3)" transform="matrix(.64873-1.16594 1.16594.64873 381.19 531.65)"/><path d="m416.86 505.78c.626.575 1.438 1.404 1.939 2.301.875 1.563.75 4.281-1.938 4.781-2.688.5-2.79-.415-2.781-1.5-1.429.197-2.068 3.364.438 4.469 2.125.938 2.906.563 6.906.313 4-.25 4.469 4.625 2.594 5.375-1.875.75-2.591-.587-2.469-1.313-1.503.587-1.686 2.224-.938 3 5.847 6.06 3.043 10.739 1.438 11.219-1.989.594-3.391-.584-2.375-2.156.828-1.281.113-3.394-.893-4.143-1.01-.748-2.959-.569-3.795-.014 1.204.455 2.969 1.156 2.5 2.719-.362 1.207-1.548 1.966-3.03 1.938-3.379-.066-2.309-3.119-1.844-3.469-1.816-.225-3.03 3.089-1.844 4.219 1.166 1.112 2.805 1.733 1.813 3.438-1.041 1.788-2.5 2.75-5 2.25-2.5-.5-3.875-2.094-3.563-3.563.313-1.469 1.042-1.665 2.313-1.688-.792-1.679-4.688-1.688-4.625 1.219.032 1.501-2.481 1.748-3.531.063-1.188-1.906-.183-2.722 1.156-2.406.089-2.122-1.719-1.094-2.188-3.438-.469-2.344 1.178-2.995 1.178-2.995-2.944.897-3.576 1.77-6.606.867-1.076-.32.171-3.246-3.288-2.239.584 10.548 9.268 18.867 19.967 18.867 11.08 0 20-8.92 20-20 0-8.05-4.715-14.934-11.533-18.11" fill="url(#5)" fill-rule="evenodd"/></g></svg>