<svg xmlns="http://www.w3.org/2000/svg" viewBox="0 0 48 48"><defs><linearGradient id="0" x1="61.57" y1="22.939" x2="60.753" y2="-27.706" gradientUnits="userSpaceOnUse"><stop stop-color="#197cf1"/><stop offset="1" stop-color="#21c9fb"/></linearGradient></defs><path d="m41.36-25.875h42.04c1.652 0 2.982 1.33 2.982 2.982v42.04c0 1.652-1.33 2.982-2.982 2.982h-42.04c-1.652 0-2.982-1.33-2.982-2.982v-42.04c0-1.652 1.33-2.982 2.982-2.982" transform="matrix(.99999 0 0 .99999-38.38 25.875)" fill="url(#0)" fill-rule="evenodd"/><g transform="matrix(.08492 0 0 .08492 3.683 1.813)" stroke="#daeffe" stroke-linejoin="round" stroke-linecap="round" stroke-width="7.467" fill="#daeffe"><path d="m366.07 168.66l-124.12-71.66c-1.702-.982-3.798-.982-5.5 0l-124.13 71.65c-1.702.982-2.75 2.798-2.75 4.764l.012 146.24c0 1.964 1.048 3.779 2.749 4.762l124.11 71.71c.851.492 1.801.738 2.751.738.949 0 1.899-.246 2.75-.737l124.12-71.66c1.702-.982 2.75-2.798 2.75-4.763v-146.29c0-1.965-1.048-3.781-2.75-4.763zm-126.87-60.54l113.12 65.31-113.12 65.31-113.13-65.31 113.13-65.3m-118.63 74.829l113.13 65.31-.001 133.58-113.1-65.35-.011-133.54m237.24 133.59l-113.13 65.31.001-133.59 113.12-65.31v133.59z"/><path d="m441.47 121.96l-28.579 16.501c-35.919-58.29-100.34-97.24-173.69-97.24-73.35 0-137.77 38.945-173.69 97.24l-28.575-16.5c-2.63-1.519-5.994-.618-7.513 2.01-1.519 2.63-.618 5.994 2.01 7.513l28.55 16.485c-15.719 28.89-24.656 61.981-24.656 97.12 0 110.57 88.48 200.86 198.36 203.79v26.84c0 3.038 2.462 5.5 5.5 5.5 3.038 0 5.5-2.462 5.5-5.5v-26.838c109.88-2.92 198.38-93.22 198.38-203.79 0-35.14-8.936-68.23-24.655-97.12l28.554-16.486c2.631-1.519 3.532-4.883 2.01-7.513-1.519-2.63-4.879-3.534-7.512-2.01zm-202.27 316c-106.35 0-192.87-86.52-192.87-192.87 0-106.35 86.52-192.87 192.87-192.87 106.35 0 192.87 86.52 192.87 192.87 0 106.35-86.52 192.87-192.87 192.87z"/></g></svg>