<svg xmlns="http://www.w3.org/2000/svg" viewBox="0 0 48 48"><defs><clipPath><path d="m0 600h800v-600h-800v600"/></clipPath><clipPath><path d="m606.53 445.91c0-6.133 4.972-11.11 11.11-11.11 6.133 0 11.11 4.973 11.11 11.11 0 6.134-4.973 11.11-11.11 11.11-6.134 0-11.11-4.972-11.11-11.11"/></clipPath><clipPath><path d="m666.82 463.14c0-6.133 4.972-11.11 11.11-11.11 6.134 0 11.11 4.973 11.11 11.11 0 6.134-4.972 11.11-11.11 11.11-6.134 0-11.11-4.972-11.11-11.11"/></clipPath><linearGradient gradientUnits="userSpaceOnUse" y2="504.8" x2="0" y1="558.8" id="0"><stop stop-color="#ff9300"/><stop stop-color="#ffd702" offset="1"/></linearGradient></defs><g transform="matrix(.88888 0 0 .88449-332.06-446.37)"><rect rx="27" y="504.8" x="373.57" height="54" width="54" fill="url(#0)" stroke-width="1.929"/></g><g transform="matrix(4.36363 0 0 4.36363-2108.49-2342.62)" fill-opacity=".823"><circle r="1.031" cy="541.87" cx="485.61"/><circle r="1.031" cy="541.87" cx="491.78"/></g></svg>