<?xml version="1.0" encoding="UTF-8" standalone="no"?>
<svg
   xmlns:dc="http://purl.org/dc/elements/1.1/"
   xmlns:cc="http://creativecommons.org/ns#"
   xmlns:rdf="http://www.w3.org/1999/02/22-rdf-syntax-ns#"
   xmlns:svg="http://www.w3.org/2000/svg"
   xmlns="http://www.w3.org/2000/svg"
   xmlns:xlink="http://www.w3.org/1999/xlink"
   xmlns:sodipodi="http://sodipodi.sourceforge.net/DTD/sodipodi-0.dtd"
   xmlns:inkscape="http://www.inkscape.org/namespaces/inkscape"
   viewBox="0 0 48 48"
   version="1.1"
   id="svg29"
   sodipodi:docname="kaffeine.svg"
   inkscape:version="0.92.3 (2405546, 2018-03-11)">
  <metadata
     id="metadata35">
    <rdf:RDF>
      <cc:Work
         rdf:about="">
        <dc:format>image/svg+xml</dc:format>
        <dc:type
           rdf:resource="http://purl.org/dc/dcmitype/StillImage" />
        <dc:title></dc:title>
      </cc:Work>
    </rdf:RDF>
  </metadata>
  <defs
     id="defs33">
    <linearGradient
       inkscape:collect="always"
       xlink:href="#a"
       id="linearGradient842"
       gradientUnits="userSpaceOnUse"
       x1="290.41052"
       y1="648.83472"
       x2="290.05167"
       y2="625.01868" />
    <linearGradient
       inkscape:collect="always"
       xlink:href="#a"
       id="linearGradient844"
       gradientUnits="userSpaceOnUse"
       x1="290.41052"
       y1="648.83472"
       x2="290.05167"
       y2="625.01868" />
    <linearGradient
       inkscape:collect="always"
       xlink:href="#a"
       id="linearGradient846"
       gradientUnits="userSpaceOnUse"
       x1="290.41052"
       y1="648.83472"
       x2="290.05167"
       y2="625.01868" />
    <linearGradient
       inkscape:collect="always"
       xlink:href="#a"
       id="linearGradient848"
       gradientUnits="userSpaceOnUse"
       x1="290.41052"
       y1="648.83472"
       x2="290.05167"
       y2="625.01868" />
    <linearGradient
       inkscape:collect="always"
       xlink:href="#a"
       id="linearGradient850"
       gradientUnits="userSpaceOnUse"
       x1="290.41052"
       y1="648.83472"
       x2="290.05167"
       y2="625.01868" />
  </defs>
  <sodipodi:namedview
     pagecolor="#ffffff"
     bordercolor="#666666"
     borderopacity="1"
     objecttolerance="10"
     gridtolerance="10"
     guidetolerance="10"
     inkscape:pageopacity="0"
     inkscape:pageshadow="2"
     inkscape:window-width="1366"
     inkscape:window-height="697"
     id="namedview31"
     showgrid="false"
     inkscape:zoom="6.9532167"
     inkscape:cx="35.343738"
     inkscape:cy="29.88702"
     inkscape:window-x="0"
     inkscape:window-y="0"
     inkscape:window-maximized="1"
     inkscape:current-layer="svg29" />
  <linearGradient
     id="a"
     gradientTransform="matrix(0 -1 1 0 -.000002 47.999998)"
     gradientUnits="userSpaceOnUse"
     x1="1"
     x2="47">
    <stop
       offset="0"
       stop-color="#e4e4e4"
       id="stop2" />
    <stop
       offset="1"
       stop-color="#eee"
       id="stop4" />
  </linearGradient>
  <linearGradient
     id="b"
     gradientUnits="userSpaceOnUse"
     x1="23.999926661144"
     x2="23.999926661144"
     y1="47.000108036636"
     y2="1.000061636636"
     gradientTransform="matrix(1.0218854,0,0,1.0250119,-0.45334035,-0.45646699)">
    <stop
       offset="0"
       stop-color="#2a2c2f"
       id="stop7" />
    <stop
       offset="1"
       stop-color="#424649"
       id="stop9" />
  </linearGradient>
  <linearGradient
     gradientUnits="userSpaceOnUse"
     x1="285.00021"
     x2="297.00021"
     xlink:href="#a"
     y1="636.74103"
     y2="636.74103"
     id="linearGradient12" />
  <linearGradient
     id="c"
     gradientUnits="userSpaceOnUse"
     x1="290.41052"
     x2="290.05167"
     xlink:href="#a"
     y1="648.83472"
     y2="625.01868" />
  <rect
     height="47.150543"
     ry="23.575272"
     width="47.006733"
     x="0.56854302"
     y="0.56854999"
     id="rect15"
     style="fill:url(#b);stroke-width:0.99999988" />
  <g
     transform="matrix(1.9591987,0,0,1.965193,-545.10789,-1227.3266)"
     id="g27"
     style="fill:url(#c);stroke-width:0.97708976">
    <path
       d="m 295.66688,637 h -1.33334 v -2 h 1.33334 z m 0,-3.33333 h -10.66667 v 6.66666 c 0,1.47276 1.19391,2.66667 2.66667,2.66667 h 4 c 1.47274,0 2.66666,-1.19391 2.66666,-2.66667 v -2 h 1.33334 c 0.73637,0 1.33333,-0.59696 1.33333,-1.33333 v -2 c 0,-0.74 -0.6,-1.33333 -1.33333,-1.33333 z"
       id="path17"
       inkscape:connector-curvature="0"
       style="fill:url(#linearGradient842);stroke-width:0.97708976" />
    <path
       d="m 286.60282,630.482 c 0,0 -0.1458,0.10908 -0.2912,0.27273 -0.14524,0.16348 -0.31893,0.38933 -0.32139,0.69986 -0.002,0.30445 0.15695,0.51985 0.26266,0.6772 0.1057,0.15735 0.16404,0.25422 0.15944,0.38182 -0.009,0.24106 -0.36504,0.47832 -0.36504,0.47832 l 0.26769,0.49007 c 0,0 0.63208,-0.30182 0.65539,-0.94825 0.0114,-0.31566 -0.1435,-0.54965 -0.25343,-0.71329 -0.10993,-0.16364 -0.16942,-0.26 -0.16867,-0.36168 3.3e-4,-0.0661 0.0767,-0.21546 0.18126,-0.33314 0.10456,-0.11769 0.20811,-0.19637 0.20811,-0.19637 z"
       id="path19"
       inkscape:connector-curvature="0"
       style="fill:url(#linearGradient844);stroke-width:0.97708976" />
    <path
       d="m 288.60282,630.482 c 0,0 -0.1458,0.10908 -0.2912,0.27273 -0.14524,0.16348 -0.31893,0.38933 -0.32139,0.69986 -0.002,0.30445 0.15695,0.51985 0.26266,0.6772 0.1057,0.15735 0.16404,0.25422 0.15944,0.38182 -0.009,0.24106 -0.36504,0.47832 -0.36504,0.47832 l 0.26769,0.49007 c 0,0 0.63208,-0.30182 0.65539,-0.94825 0.0114,-0.31566 -0.1435,-0.54965 -0.25343,-0.71329 -0.10993,-0.16364 -0.16942,-0.26 -0.16867,-0.36168 3.3e-4,-0.0661 0.0767,-0.21546 0.18126,-0.33314 0.10456,-0.11769 0.20811,-0.19637 0.20811,-0.19637 z"
       id="path21"
       inkscape:connector-curvature="0"
       style="fill:url(#linearGradient846);stroke-width:0.97708976" />
    <path
       d="m 290.60282,630.482 c 0,0 -0.1458,0.10908 -0.2912,0.27273 -0.14524,0.16348 -0.31893,0.38933 -0.32139,0.69986 -0.002,0.30445 0.15695,0.51985 0.26266,0.6772 0.1057,0.15735 0.16404,0.25422 0.15944,0.38182 -0.009,0.24106 -0.36504,0.47832 -0.36504,0.47832 l 0.26769,0.49007 c 0,0 0.63208,-0.30182 0.65539,-0.94825 0.0114,-0.31566 -0.1435,-0.54965 -0.25343,-0.71329 -0.10993,-0.16364 -0.16942,-0.26 -0.16867,-0.36168 3.3e-4,-0.0661 0.0767,-0.21546 0.18126,-0.33314 0.10456,-0.11769 0.20811,-0.19637 0.20811,-0.19637 z"
       id="path23"
       inkscape:connector-curvature="0"
       style="fill:url(#linearGradient848);stroke-width:0.97708976" />
    <path
       d="m 292.60282,630.482 c 0,0 -0.1458,0.10908 -0.2912,0.27273 -0.14524,0.16348 -0.31893,0.38933 -0.32139,0.69986 -0.002,0.30445 0.15695,0.51985 0.26266,0.6772 0.1057,0.15735 0.16404,0.25422 0.15944,0.38182 -0.009,0.24106 -0.36504,0.47832 -0.36504,0.47832 l 0.26769,0.49007 c 0,0 0.63208,-0.30182 0.65539,-0.94825 0.0114,-0.31566 -0.1435,-0.54965 -0.25343,-0.71329 -0.10993,-0.16364 -0.16942,-0.26 -0.16867,-0.36168 3.3e-4,-0.0661 0.0767,-0.21546 0.18126,-0.33314 0.10456,-0.11769 0.20811,-0.19637 0.20811,-0.19637 z"
       id="path25"
       inkscape:connector-curvature="0"
       style="fill:url(#linearGradient850);stroke-width:0.97708976" />
  </g>
</svg>
