<svg xmlns="http://www.w3.org/2000/svg" xmlns:xlink="http://www.w3.org/1999/xlink" viewBox="0 0 48 48"><defs><linearGradient xlink:href="#0" id="4" x1="44.16" y1="490.59" x2="44.26" y2="461.93" gradientUnits="userSpaceOnUse"/><linearGradient y1="545.8" x2="0" y2="517.8" gradientUnits="userSpaceOnUse"><stop stop-color="#3889e9"/><stop offset="1" stop-color="#5ea5fb"/></linearGradient><linearGradient xlink:href="#0" id="3" x1="96.68" y1="490.36" x2="96.33" y2="462.83" gradientUnits="userSpaceOnUse"/><linearGradient id="1" x1="68.769" y1="571.75" x2="66.53" y2="491.06" gradientUnits="userSpaceOnUse"><stop stop-color="#ff803f"/><stop offset="1" stop-color="#ffc200"/></linearGradient><linearGradient id="0"><stop stop-color="#2e3436"/><stop offset="1" stop-color="#555753"/></linearGradient><linearGradient xlink:href="#0" id="2" x1="72.85" y1="491.15" x2="72.29" y2="462.68" gradientUnits="userSpaceOnUse" gradientTransform="matrix(1.0021 0 0 1-.15.002)"/></defs><g transform="translate(-384.57-499.8)"><g transform="matrix(.39868 0 0 .39868 379.83 317.66)"><rect width="120.4" height="106.82" x="11.899" y="465.17" fill="url(#1)" rx="5.03"/><g fill-rule="evenodd"><path d="m18.538 462.2h107.12c3.856 0 6.711 3.098 6.711 6.947v14.953 6.947h-120.54v-6.947-14.953c0-3.848 2.855-6.947 6.711-6.947z" fill="url(#2)" stroke="url(#2)" stroke-linejoin="round" stroke-linecap="round" stroke-width=".107"/><g fill="#fff" fill-opacity=".948" stroke-width="1.125"><path d="m79.77 490.5h19.1l14.926-13.205-14.926-14.606h-19.1l13.531 14.606z" stroke="url(#3)"/><path d="m31.676 490.5h19.1l14.926-13.205-14.926-14.606h-19.1l13.531 14.606z" stroke="url(#4)"/></g></g></g><path d="m14.257 275.6c-31.31-55.21-10-141.8 54.766-206.59 73.55-73.54 175.26-91.08 227.18-39.16.061.068.112.145.195.214-10.392 30.23-43.486 94.57-142.69 129.35-90.87 31.878-125.93 82.56-139.46 116.19m296.55-226.85c-7.871 18.361-21.57 42.36-45.17 65.957-23.725 23.735-57.44 47.05-105.21 63.8-96.94 33.993-124.02 89.64-131.58 116.61.357.36.664.733 1.01 1.083 51.921 51.918 153.63 34.386 227.18-39.17 65.44-65.44 86.49-153.16 53.775-208.28z" fill="#fff" fill-opacity=".849" transform="matrix(.05367 0 0 .05367 399.32 520.74)" enable-background="new"/></g></svg>