<svg xmlns="http://www.w3.org/2000/svg" viewBox="0 0 48 48"><defs><linearGradient y2="147.64" x2="3.419" y1="204.55" x1=".967" gradientUnits="userSpaceOnUse" id="0" gradientTransform="matrix(.4084-.0003.00031.38931 36.751-88.66)"><stop stop-color="#f15400"/><stop offset="1" stop-color="#fa8c00"/></linearGradient><linearGradient id="1" y1="14.831" x2="0" y2="-8.704" gradientUnits="userSpaceOnUse"><stop stop-color="#cdd7dc"/><stop offset="1" stop-color="#ecf0f3"/></linearGradient><linearGradient gradientTransform="matrix(.4084-.0003.00031.38931 36.647-88.77)" id="2" gradientUnits="userSpaceOnUse" x1="23.69" y1="264.74" x2="24.303" y2="154.71"><stop stop-color="#f16319"/><stop offset="1" stop-color="#feb600"/></linearGradient></defs><g transform="matrix(.99999 0 0 .99999-23.371 30.882)" enable-background="new"><g fill-rule="evenodd"><path d="m27.08-30.28h19.505v22.563h-22.608v-19.653c0-3.124 2.938-2.91 3.103-2.91" fill="url(#0)"/><g fill="url(#2)"><path d="m26.978 14.721h19.505v-22.563h-22.608v19.653c0 3.124 2.938 2.91 3.103 2.91"/><path d="m65.922-30.28h-19.505v22.563h22.608v-19.653c0-3.124-2.938-2.91-3.103-2.91"/><path d="m65.875 14.72h-19.505v-22.563h22.608v19.653c0 3.124-2.938 2.91-3.103 2.91"/></g></g><circle cx="57.699" cy="3.36" r="13.176" fill="url(#1)"/><path d="m52.43-2.998c1.152.002 2.261.153 3.326.453 1.066.3 2.063.724 2.991 1.271.929.547 1.774 1.203 2.535 1.968.761.764 1.414 1.612 1.958 2.543.544.931.964 1.929 1.26 2.996.296 1.067.443 2.176.441 3.328-.0001.364-.13.674-.388.931-.258.257-.569.385-.933.385-.364-.0001-.674-.13-.932-.388-.257-.258-.385-.569-.385-.933.002-.91-.115-1.786-.351-2.631-.236-.844-.568-1.633-.996-2.366-.428-.733-.942-1.401-1.542-2-.6-.602-1.266-1.119-1.998-1.55-.732-.431-1.519-.766-2.363-1-.843-.239-1.72-.359-2.629-.361-.364-.0001-.674-.13-.931-.388-.257-.258-.385-.569-.385-.933.0001-.364.13-.674.388-.931.258-.257.569-.385.933-.385m-.001 4.987c1.041.002 2.02.203 2.932.604.914.401 1.711.943 2.392 1.626.681.683 1.22 1.483 1.617 2.398.397.915.595 1.893.593 2.934-.0001.364-.13.674-.388.931-.258.257-.569.385-.933.385-.364-.0001-.674-.13-.931-.388-.257-.258-.385-.569-.385-.933.0001-.677-.126-1.314-.383-1.911-.257-.597-.607-1.118-1.05-1.563-.444-.445-.964-.798-1.559-1.056-.596-.259-1.232-.389-1.909-.39-.364-.0001-.674-.13-.931-.388-.257-.258-.385-.569-.385-.933.0001-.364.13-.674.388-.931.258-.257.569-.385.933-.385m2.412 6.932c0 .263-.049.505-.145.727-.096.222-.228.416-.395.583-.167.166-.364.297-.592.393-.228.096-.468.143-.72.143-.263 0-.505-.049-.727-.145-.222-.096-.416-.228-.583-.395-.166-.167-.297-.362-.393-.584-.096-.223-.143-.465-.143-.728 0-.253.049-.493.145-.72.096-.227.228-.424.395-.59.167-.166.362-.297.584-.393.222-.096.465-.143.728-.143.253 0 .493.049.72.145.227.096.424.228.59.395.166.167.297.364.393.592.096.227.143.468.143.72" fill="#f47713"/><g fill="#fff" fill-opacity=".847"><g color="#000"><ellipse cx="29.895" cy="3.918" rx="1.505" ry="1.5"/><ellipse cx="32.603" cy="8.418" rx="1.806" ry="1.8"/><ellipse cx="31.1" cy="-.882" rx=".903" ry=".9"/><path d="m36.21-1.782l-1.712 1.706 2.633 2.625-2.727 3.094 1.806 1.575 4.213-4.8-4.213-4.2"/></g><path d="m57.46-24.11l-4.446 5.691c-.834 1.067-.6 2.968.467 3.801 1.067.834 2.968.6 3.801-.467l4.446-5.691.556-.711c.556-.711.4-1.978-.311-2.534-.711-.556-1.978-.4-2.534.311l-.556.711-3.334 4.268-.556.711c-.278.356-.2.989.156 1.267.356.278.989.2 1.267-.156l3.89-4.979.711.556-3.89 4.979c-.556.711-1.823.867-2.534.311-.711-.556-.867-1.823-.311-2.534l.556-.711 3.89-4.979c.834-1.067 2.734-1.3 3.801-.467 1.067.834 1.3 2.734.467 3.801l-.556.711-4.446 5.691c-1.112 1.423-3.646 1.734-5.068.622-1.423-1.112-1.734-3.646-.622-5.068l4.446-5.691.711.556"/><path d="m29.614-15.504v2.673h2.673l6.751-6.751-2.673-2.673zm11.788-6.434c.283-.283.283-.728 0-1.01l-1.671-1.671c-.283-.283-.728-.283-1.01 0l-1.396 1.405 2.673 2.673z"/></g></g></svg>