<svg xmlns="http://www.w3.org/2000/svg" viewBox="0 0 48 48"><defs><linearGradient id="0" x1="-123.97" y1="73.5" x2="-125.19" y2="-26.05" gradientUnits="userSpaceOnUse"><stop stop-color="#5dae33"/><stop offset="1" stop-color="#9be058"/></linearGradient></defs><g transform="matrix(.4778 0 0 .4778-49.31-56.708)" fill-rule="evenodd"><g transform="translate(280.16 146.11)"><rect y="-27.421" x="-175.27" height="100.46" width="97.1" fill="url(#0)" rx="6.241"/><g fill="#357719"><circle r="3.5" cy="-17.745" cx="-164.03"/><circle r="3.5" cy="-17.745" cx="-154.79"/><circle r="3.5" cy="-17.745" cx="-145.46"/></g></g><path d="m178.95 150.66l-10.177.006c-1.095 0-1.974.642-1.973 1.44l.043 47.12c.0001.797.881 1.437 1.976 1.437l10.174-.003c1.095 0 1.977-.642 1.976-1.44l-.043-47.12c-.0001-.797-.881-1.44-1.976-1.44m-20.656 12.878l-10.174.006c-1.095 0-1.977.642-1.976 1.44l.043 34.14c.0001.797.881 1.44 1.976 1.44l10.177-.003c1.095 0 1.974-.642 1.973-1.44l-.041-34.14c-.0001-.797-.884-1.44-1.979-1.44m-19.903 13.07l-10.174.003c-1.095 0-1.975.642-1.973 1.44l.038 21.16c.0001.797.884 1.44 1.979 1.44l10.177-.003c1.095 0 1.975-.642 1.973-1.44l-.041-21.16c-.0001-.797-.884-1.44-1.979-1.44" fill="#357719"/></g></svg>