<svg xmlns="http://www.w3.org/2000/svg" xmlns:xlink="http://www.w3.org/1999/xlink" viewBox="0 0 48 48"><defs><linearGradient y2="507.67" x2="390.88" y1="531.8" x1="391.57" gradientTransform="matrix(1 0 0 1.23287-346.2-642.83)" gradientUnits="userSpaceOnUse" id="5"><stop stop-color="#d3d3d3"/><stop offset="1" stop-color="#fcf9f9"/></linearGradient><linearGradient gradientUnits="userSpaceOnUse" y2="-14.05" x2="0" y1="-9.27" id="4" xlink:href="#2"/><linearGradient y2="-18.693" x2="46.785" y1="-15.545" x1="46.98" gradientUnits="userSpaceOnUse" id="6" xlink:href="#2"/><linearGradient y2="-17.969" x2="63" y1="14.12" x1="63.894" gradientUnits="userSpaceOnUse" id="3" xlink:href="#2"/><linearGradient y2="8.697" x2="74.41" y1="-11.566" x1="54.15" gradientUnits="userSpaceOnUse" id="1" xlink:href="#2"/><linearGradient y2="-13.673" x2="62.56" y1="12.652" x1="62.965" gradientUnits="userSpaceOnUse" id="0"><stop stop-color="#197ff1"/><stop offset="1" stop-color="#21c6fb"/></linearGradient><linearGradient id="2"><stop stop-color="#222c35"/><stop offset="1" stop-color="#545e67"/></linearGradient></defs><g transform="matrix(.99999 0 0 .99999-38.37 25.882)" enable-background="new"><rect y="-18.314" x="43.29" height="2.769" width="5.538" fill="url(#6)" rx=".923"/><rect y="-16.775" x="38.37" height="29.589" width="48" fill="url(#5)" rx="1.385"/><path d="M47.01908-1.875A16.818399 16.818399 0 0 1 63.83747 -18.693396 16.818399 16.818399 0 0 1 80.65587 -1.875 16.818399 16.818399 0 0 1 63.83747 14.943407 16.818399 16.818399 0 0 1 47.01908 -1.875" fill="url(#3)"/><circle cx="63.838" cy="-1.875" r="13.214" fill="url(#1)"/><circle r="12.01" cy="-1.875" cx="63.838" fill="url(#0)"/><circle r="2.391" cy="-11.661" cx="43.746" fill="url(#4)" fill-rule="evenodd"/></g></svg>