<?xml version="1.0" encoding="UTF-8" standalone="no"?>
<svg
   xmlns:dc="http://purl.org/dc/elements/1.1/"
   xmlns:cc="http://creativecommons.org/ns#"
   xmlns:rdf="http://www.w3.org/1999/02/22-rdf-syntax-ns#"
   xmlns:svg="http://www.w3.org/2000/svg"
   xmlns="http://www.w3.org/2000/svg"
   xmlns:xlink="http://www.w3.org/1999/xlink"
   xmlns:sodipodi="http://sodipodi.sourceforge.net/DTD/sodipodi-0.dtd"
   xmlns:inkscape="http://www.inkscape.org/namespaces/inkscape"
   width="48px"
   height="48px"
   viewBox="0 0 48 48"
   version="1.1"
   id="SVGRoot"
   sodipodi:docname="kdenlive.svg"
   inkscape:version="0.92.2pre0 (973e216, 2017-07-25)">
  <sodipodi:namedview
     pagecolor="#ffffff"
     bordercolor="#666666"
     borderopacity="1"
     objecttolerance="10"
     gridtolerance="10"
     guidetolerance="10"
     inkscape:pageopacity="0"
     inkscape:pageshadow="2"
     inkscape:window-width="1366"
     inkscape:window-height="695"
     id="namedview35"
     showgrid="false"
     inkscape:zoom="10.063802"
     inkscape:cx="24"
     inkscape:cy="24"
     inkscape:window-x="0"
     inkscape:window-y="0"
     inkscape:window-maximized="1"
     inkscape:current-layer="SVGRoot" />
  <defs
     id="defs1738">
    <linearGradient
       id="linearGradient891">
      <stop
         style="stop-color:#0a84ff;stop-opacity:1"
         offset="0"
         id="stop887" />
      <stop
         style="stop-color:#3bc7ff;stop-opacity:1"
         offset="1"
         id="stop889" />
    </linearGradient>
    <linearGradient
       gradientTransform="matrix(0.98936642,0,0,0.98936642,-400.51891,-500.89861)"
       y2="515.00299"
       y1="506.28787"
       x2="433.43347"
       x1="392.23544"
       gradientUnits="userSpaceOnUse"
       id="linearGradient905">
      <stop
         style="stop-color:#fa0606;stop-opacity:1"
         id="stop901"
         stop-color="#db4437"
         offset="0" />
      <stop
         style="stop-color:#fd3434;stop-opacity:1"
         id="stop903"
         stop-color="#fd5757"
         offset="1" />
    </linearGradient>
    <linearGradient
       gradientTransform="matrix(0.98936642,0,0,0.98936642,-400.51891,-500.89861)"
       y2="547.45264"
       y1="513.60431"
       x2="411.88696"
       x1="429.45596"
       gradientUnits="userSpaceOnUse"
       id="linearGradient895">
      <stop
         style="stop-color:#fef800;stop-opacity:1"
         id="stop891"
         stop-color="#ffcd40"
         offset="0" />
      <stop
         style="stop-color:#fcfd2f;stop-opacity:1"
         id="stop893"
         stop-color="#fee145"
         offset="1" />
    </linearGradient>
    <linearGradient
       id="b"
       gradientUnits="userSpaceOnUse"
       x1="408.52402"
       x2="386.44293"
       y1="547.30316"
       y2="502.51505"
       gradientTransform="matrix(0.98936642,0,0,0.98936642,-400.51891,-500.89861)">
      <stop
         offset="0"
         stop-color="#0f9d58"
         id="stop7"
         style="stop-color:#14c600;stop-opacity:1" />
      <stop
         offset="1"
         stop-color="#00d455"
         id="stop9"
         style="stop-color:#71ff2f;stop-opacity:1" />
    </linearGradient>
    <linearGradient
       xlink:href="#a"
       id="linearGradient873"
       gradientUnits="userSpaceOnUse"
       x1="10.071"
       y1="267.10501"
       x2="396.74799"
       y2="267.10501"
       gradientTransform="matrix(-3.9435063e-4,-0.11847458,0.08750834,-5.3389996e-4,0.6566287,48.285443)" />
    <linearGradient
       id="a"
       gradientUnits="userSpaceOnUse"
       x1="10.071"
       x2="396.74799"
       y1="267.10501"
       y2="267.10501">
      <stop
         offset="0"
         stop-color="#161719"
         id="stop2" />
      <stop
         offset="1"
         stop-color="#4c535b"
         id="stop4" />
    </linearGradient>
    <linearGradient
       id="b-3"
       gradientUnits="userSpaceOnUse"
       x1="393.17184"
       x2="393.17184"
       y1="515.6828"
       y2="506.30667"
       gradientTransform="matrix(2.1413368,0,0,2.5782126,-840.05925,-1287.1312)"
       spreadMethod="pad">
      <stop
         offset="0"
         stop-color="#3ee818"
         id="stop7-6"
         style="stop-color:#0ab9ff;stop-opacity:1" />
      <stop
         offset="1"
         stop-color="#018dcb"
         id="stop9-7"
         style="stop-color:#09fee7;stop-opacity:1" />
    </linearGradient>
    <linearGradient
       gradientTransform="matrix(1.0893685,0,0,1.0406441,-2.3932589,-1.7761177)"
       xlink:href="#linearGradient891"
       id="linearGradient893"
       x1="24.588072"
       y1="41.23737"
       x2="24.010084"
       y2="12.093443"
       gradientUnits="userSpaceOnUse" />
  </defs>
  <metadata
     id="metadata1741">
    <rdf:RDF>
      <cc:Work
         rdf:about="">
        <dc:format>image/svg+xml</dc:format>
        <dc:type
           rdf:resource="http://purl.org/dc/dcmitype/StillImage" />
        <dc:title />
      </cc:Work>
    </rdf:RDF>
  </metadata>
  <path
     style="fill:#ececec;stroke-width:0.09122406"
     d="m 42.75907,3.7163768 -9.932718,0.057951 c -0.0039,-7e-6 -0.0072,-0.00193 -0.01114,-0.00193 L 5.1053262,3.9327284 C 3.9956126,3.9391531 3.0830987,4.203083 3.0913111,6.5424291 l 0.118799,33.5532949 c 0.00827,2.343067 0.9210085,2.592941 2.0307212,2.58652 l 9.9327177,-0.05795 c 0.0039,7e-6 0.009,0.002 0.01299,0.002 l 27.70989,-0.160382 c 1.112289,-0.0065 2.019745,-0.450699 2.01216,-2.611632 L 44.789792,6.300985 C 44.781619,3.961511 43.871358,3.7099604 42.75907,3.7163958 Z"
     id="path916" />
  <path
     id="path12"
     d="m 44.981474,1.0102863 -11.136295,0.068507 c -0.0043,-8.1e-6 -0.0086,-0.00234 -0.01293,-0.00234 L 2.7661429,1.2660008 C 1.5220362,1.2736011 0.5003653,1.5856277 0.5095718,4.3513197 L 0.64319793,44.019702 c 0.009275,2.770093 1.03186277,3.065505 2.27596827,3.057915 l 11.1362958,-0.06851 c 0.0043,7e-6 0.0086,0.0024 0.01293,0.0024 l 31.066105,-0.189486 c 1.246994,-0.0077 2.265075,-0.532839 2.256571,-3.087602 L 47.257443,4.0659163 c -0.0092,-2.7658429 -1.028975,-3.0632385 -2.275969,-3.05563 z m -0.493558,2.7724481 c 0.371298,-0.00222 0.679376,0.4072823 0.681067,0.9157755 l 0.01081,2.8797823 c 0.0018,0.5045835 -0.304671,0.9226395 -0.676755,0.9249102 l -2.194064,0.013704 c -0.374186,0.00222 -0.681544,-0.411194 -0.683221,-0.9157751 l -0.0087,-2.8797837 c -0.0018,-0.5084931 0.302568,-0.9226273 0.676755,-0.9249109 z m -5.573535,0.03426 c 0.374185,-0.00234 0.679374,0.4072822 0.681065,0.9157753 l 0.01081,2.8797825 c 0.0018,0.5045834 -0.302607,0.9226277 -0.676793,0.9249101 l -2.191912,0.013704 c -0.272571,0.00164 -0.504646,-0.2180779 -0.61425,-0.529825 L 36.11037,4.3696579 c 0.106849,-0.3146626 0.338053,-0.5372892 0.612095,-0.5389612 z m -5.573535,0.034259 c 0.09282,-5.671e-4 0.181761,0.024789 0.262942,0.070799 6.23e-4,3.485e-4 0.0014,-3.519e-4 0.0023,0 0.24281,0.1384615 0.414703,0.4643404 0.415968,0.8449797 l 0.0087,2.8797837 c 8.41e-4,0.2522795 -0.07354,0.4827824 -0.196129,0.6508614 -0.12259,0.1680789 -0.29243,0.2729121 -0.47847,0.2740475 l -2.189759,0.013704 C 31.072328,8.5859842 30.983044,8.5611194 30.9013,8.5146297 30.819423,8.4681395 30.745511,8.3992345 30.683484,8.315945 30.559395,8.1493756 30.481692,7.9196597 30.480853,7.6673684 L 30.470038,4.787586 c -8.28e-4,-0.2542472 0.07536,-0.4837421 0.198285,-0.6508634 0.06146,-0.083556 0.136252,-0.1516894 0.217683,-0.1986847 0.08014,-0.045649 0.168666,-0.072518 0.260787,-0.073079 z m -5.573538,0.034259 c 0.09354,-5.705e-4 0.181627,0.024789 0.262945,0.070799 6.26e-4,3.509e-4 0.0014,-3.543e-4 0.0023,0 0.08076,0.045976 0.154162,0.1140623 0.215527,0.1963999 0.123438,0.165619 0.199595,0.3943339 0.200441,0.6485798 l 0.0087,2.8797816 c 8.28e-4,0.2522923 -0.0738,0.4827833 -0.19613,0.6508635 -0.122323,0.1680801 -0.291378,0.2729064 -0.47847,0.2740473 l -2.187602,0.013702 c -0.09396,5.844e-4 -0.18344,-0.024312 -0.265151,-0.070799 C 25.084653,8.4094456 24.91077,8.0800625 24.90951,7.7016259 L 24.8987,4.8218432 C 24.8969,4.3153004 25.199697,3.904633 25.573301,3.8992169 Z m -5.575691,0.034259 c 0.09391,-5.73e-4 0.18339,0.0248 0.265098,0.070799 0.08225,0.046034 0.155406,0.1106714 0.217684,0.1941163 0.123612,0.1656176 0.201749,0.3966174 0.202595,0.6508634 l 0.0087,2.8797815 c 4.15e-4,0.1261455 -0.01767,0.245998 -0.05171,0.3562625 -0.102127,0.330791 -0.34334,0.5669292 -0.62503,0.5686483 l -2.189749,0.013702 C 19.831518,8.6550878 19.660311,8.5502226 19.536346,8.3844678 19.412642,8.2178936 19.334591,7.98818 19.33375,7.735888 L 19.32505,4.8561064 C 19.324224,4.6018603 19.39859,4.372362 19.521181,4.2052429 19.644118,4.0381215 19.813663,3.9346272 20.001807,3.933479 Z m -5.57138,0.034259 c 7.19e-4,-4.7e-6 0.0013,1.1e-6 0.0023,0 0.18635,-0.00113 0.354673,0.099295 0.478472,0.264912 0.0619,0.082807 0.113778,0.1824692 0.148713,0.2923175 0.03494,0.1098523 0.05346,0.231423 0.05388,0.358546 l 0.01081,2.877498 c 0.0018,0.504583 -0.30397,0.9249191 -0.676756,0.9271945 L 14.445745,8.688202 C 14.258433,8.6893699 14.089113,8.5844666 13.965061,8.4187238 13.841533,8.252138 13.763305,8.0224362 13.762465,7.770144 l -0.0087,-2.8797816 C 13.752857,4.6361141 13.8274,4.4066156 13.949813,4.2394979 14.072843,4.0723741 14.242645,3.9688797 14.43044,3.9677338 Z m -5.575692,0.03426 c 0.272697,-0.00164 0.504209,0.2170948 0.614253,0.5298253 l 0.01293,3.6539654 C 11.563177,8.4842766 11.33121,8.7071031 11.05963,8.7087599 L 8.8698727,8.7224623 C 8.4935923,8.7248021 8.1883367,8.3089879 8.1866572,7.8044048 L 8.1758408,4.9246196 C 8.1741855,4.4161265 8.4784667,4.0020051 8.8547509,3.9997098 Z m -5.5713793,0.031967 c 0.3762857,-0.00234 0.6815282,0.4072824 0.6832209,0.9157755 l 0.00861,2.8797828 C 6.166653,8.3204009 5.8652302,8.7407115 5.488245,8.7430118 l -2.1897573,0.01146 C 2.9221973,8.7568087 2.6169406,8.343279 2.615261,7.8386948 L 2.6066519,4.9588722 C 2.6050004,4.4503791 2.9071216,4.0362577 3.2834084,4.0339613 Z M 44.606456,39.333571 c 0.3713,-0.0023 0.679382,0.407843 0.681067,0.913492 l 0.01081,2.879782 c 0.0017,0.507547 -0.304669,0.924923 -0.676756,0.927194 l -2.194106,0.0137 c -0.374187,0.0024 -0.681533,-0.410513 -0.683222,-0.91806 l -0.0087,-2.879783 c -0.0018,-0.505652 0.302569,-0.922629 0.676755,-0.924911 z m -5.573535,0.03196 c 0.374185,-0.0024 0.679382,0.410127 0.681066,0.915775 l 0.01081,2.879782 c 0.0018,0.507547 -0.302569,0.924911 -0.676754,0.927195 l -2.191914,0.01146 c -0.273205,0.0017 -0.504977,-0.218905 -0.614253,-0.532108 l -0.01293,-3.649401 c 0.106875,-0.314019 0.33811,-0.537286 0.612098,-0.538961 z m -5.573536,0.03426 c 0.09282,-5.57e-4 0.181762,0.02466 0.262943,0.0708 6.24e-4,3.51e-4 0.0015,-3.53e-4 0.0023,0 0.08062,0.04611 0.151828,0.114014 0.213372,0.1964 0.1238,0.165729 0.201754,0.395755 0.202596,0.64858 l 0.0087,2.879783 c 8.26e-4,0.253771 -0.07355,0.485435 -0.196131,0.653146 -0.122586,0.167713 -0.292427,0.270629 -0.478471,0.271765 l -2.189757,0.01371 c -0.09407,5.56e-4 -0.183354,-0.02453 -0.265098,-0.0708 -0.245231,-0.138789 -0.419009,-0.464321 -0.420278,-0.84498 l -0.01081,-2.882066 c -8.26e-4,-0.252828 0.07536,-0.48134 0.198285,-0.648581 0.122595,-0.166404 0.289757,-0.272911 0.476317,-0.274047 z m -5.575692,0.03426 c 0.09353,-5.85e-4 0.183782,0.02466 0.265099,0.0708 6.27e-4,3.54e-4 0.0015,-3.55e-4 0.0023,0 0.243207,0.138852 0.414706,0.466471 0.415968,0.84498 l 0.0087,2.879784 c 8.28e-4,0.253772 -0.07381,0.485438 -0.196129,0.653148 -0.122324,0.167708 -0.291378,0.270621 -0.478471,0.271763 l -2.187603,0.0137 c -0.09443,5.87e-4 -0.187319,-0.02404 -0.269408,-0.0708 -0.244389,-0.139202 -0.414703,-0.46505 -0.415968,-0.844981 l -0.01081,-2.882065 c -0.0011,-0.379237 0.169618,-0.708162 0.413812,-0.849549 0.08027,-0.04579 0.167976,-0.07252 0.260787,-0.07308 z m -5.573536,0.03426 c 0.0939,-5.84e-4 0.183389,0.02466 0.265099,0.0708 0.08226,0.04617 0.155404,0.112894 0.217683,0.196401 0.123613,0.165742 0.201754,0.395755 0.202596,0.648579 l 0.0087,2.879784 c 4.14e-4,0.126886 -0.01768,0.248144 -0.05172,0.358545 -0.03404,0.110405 -0.08316,0.210745 -0.144403,0.294602 -0.06151,0.08386 -0.136286,0.151437 -0.217682,0.198684 -0.08071,0.04658 -0.169761,0.07251 -0.262943,0.07308 l -2.191913,0.01371 c -0.187603,0.0011 -0.356663,-0.101834 -0.480626,-0.267197 -0.06186,-0.08311 -0.113927,-0.182332 -0.148715,-0.292317 -0.0348,-0.109979 -0.05347,-0.231659 -0.05388,-0.358546 l -0.0087,-2.879782 c -8.27e-4,-0.252827 0.07354,-0.483627 0.19613,-0.650865 0.122938,-0.167238 0.292482,-0.270615 0.480626,-0.271763 z m -5.57138,0.03426 c 0.186348,-0.0011 0.356826,0.101471 0.480626,0.267197 0.0619,0.08287 0.113778,0.180411 0.148713,0.290035 0.03494,0.109618 0.05347,0.229848 0.05388,0.35626 l 0.01081,2.882068 c 0.0011,0.380658 -0.170803,0.710097 -0.413812,0.85183 -0.08126,0.04724 -0.170852,0.07251 -0.265098,0.07308 l -2.189757,0.0137 c -0.187295,0.0011 -0.356616,-0.101834 -0.480666,-0.267207 -0.123527,-0.166217 -0.20175,-0.397091 -0.202597,-0.650863 l -0.0087,-2.879784 c -8.28e-4,-0.252823 0.07371,-0.483626 0.19613,-0.650862 0.123026,-0.167241 0.292834,-0.270619 0.480626,-0.271764 z m -5.575692,0.03425 c 0.272066,-0.0017 0.503881,0.216506 0.614254,0.527541 l 0.01293,3.658535 c -0.108574,0.312404 -0.340546,0.532736 -0.612098,0.534392 l -2.1897576,0.0137 c -0.3762819,0.0024 -0.6815275,-0.410495 -0.683217,-0.918039 l -0.010815,-2.879785 c -0.00165,-0.505648 0.3026232,-0.920329 0.678909,-0.922624 z m -5.5713803,0.03426 c 0.3762868,-0.0024 0.6815392,0.407842 0.6832221,0.913492 l 0.00861,2.882067 c 0.00165,0.507544 -0.2997701,0.922609 -0.6767553,0.92491 L 3.417024,44.30525 C 3.0407373,44.30765 2.7354906,43.894757 2.7338012,43.387212 l -0.00861,-2.879783 c -0.00165,-0.50565 0.3004699,-0.920331 0.6767556,-0.922627 z"
     style="fill:url(#linearGradient873);stroke-width:0.0998138"
     inkscape:connector-curvature="0" />
  <path
     style="opacity:1;fill:url(#linearGradient893);fill-opacity:1;stroke-width:2.45238829"
     id="path875"
     d="M 2.5846215,10.515451 H 44.918548 V 35.88323 H 2.5846215 Z"
     inkscape:connector-curvature="0" />
  <g
     transform="matrix(0.02595006,-0.01267731,0.01128179,0.02916001,15.765308,19.761415)"
     id="g32"
     style="opacity:0.82999998;fill:#ffffff;stroke-width:0.98027718">
    <path
       d="m 65.459,55.53 -61.277,8.903 44.331,43.222 -10.458,61.028 54.806,-28.82 54.806,28.82 -10.46,-61.028 L 181.538,64.433 120.263,55.53 92.861,0 Z"
       id="path20"
       style="stroke-width:0.98027718" />
    <path
       d="m 326.207,248.92 -35.937,72.82 -80.344,11.676 58.133,56.669 -13.724,80.028 71.872,-37.792 71.874,37.792 -13.727,-80.028 58.134,-56.669 -80.345,-11.676 z"
       id="path22"
       style="stroke-width:0.98027718" />
    <path
       d="m 388.514,38.901 -33.748,23.645 38.108,15.658 23.66,33.741 L 432.183,73.829 465.931,50.185 427.823,34.527 404.164,0.786 Z"
       id="path24"
       style="stroke-width:0.98027718" />
    <path
       d="m 127.18,272.417 23.797,-21.132 -30.637,-8.65 -21.15,-23.821 -8.641,30.652 -23.814,21.135 30.639,8.648 21.148,23.822 z"
       id="path26"
       style="stroke-width:0.98027718" />
    <path
       d="m 93.353,401.482 43.576,-14.354 -43.576,-14.365 -14.371,-43.576 -14.356,43.576 -43.577,14.365 43.577,14.354 14.356,43.577 z"
       id="path28"
       style="stroke-width:0.98027718" />
    <path
       d="m 282.801,148.458 -42.652,-16.936 24.228,38.971 -16.927,42.645 38.955,-24.23 42.652,16.936 -24.23,-38.971 16.928,-42.644 z"
       id="path30"
       style="stroke-width:0.98027718" />
  </g>
</svg>
