<?xml version="1.0" encoding="UTF-8" standalone="no"?>
<svg
   xmlns:dc="http://purl.org/dc/elements/1.1/"
   xmlns:cc="http://creativecommons.org/ns#"
   xmlns:rdf="http://www.w3.org/1999/02/22-rdf-syntax-ns#"
   xmlns:svg="http://www.w3.org/2000/svg"
   xmlns="http://www.w3.org/2000/svg"
   xmlns:xlink="http://www.w3.org/1999/xlink"
   xmlns:sodipodi="http://sodipodi.sourceforge.net/DTD/sodipodi-0.dtd"
   xmlns:inkscape="http://www.inkscape.org/namespaces/inkscape"
   viewBox="0 0 48 48"
   version="1.1"
   id="svg69"
   sodipodi:docname="kdenlive.svg"
   inkscape:version="0.92.1 r15371">
  <metadata
     id="metadata73">
    <rdf:RDF>
      <cc:Work
         rdf:about="">
        <dc:format>image/svg+xml</dc:format>
        <dc:type
           rdf:resource="http://purl.org/dc/dcmitype/StillImage" />
      </cc:Work>
    </rdf:RDF>
  </metadata>
  <sodipodi:namedview
     pagecolor="#ffffff"
     bordercolor="#666666"
     borderopacity="1"
     objecttolerance="10"
     gridtolerance="10"
     guidetolerance="10"
     inkscape:pageopacity="0"
     inkscape:pageshadow="2"
     inkscape:window-width="1366"
     inkscape:window-height="695"
     id="namedview71"
     showgrid="false"
     inkscape:zoom="4.9166667"
     inkscape:cx="-37.322034"
     inkscape:cy="24"
     inkscape:window-x="0"
     inkscape:window-y="0"
     inkscape:window-maximized="1"
     inkscape:current-layer="svg69"
     inkscape:snap-global="true" />
  <defs
     id="defs15">
    <linearGradient
       xlink:href="#2"
       id="3"
       x1="96.68"
       y1="490.36"
       x2="96.33"
       y2="462.83"
       gradientUnits="userSpaceOnUse" />
    <linearGradient
       xlink:href="#2"
       id="4"
       x1="44.16"
       y1="490.59"
       x2="44.26"
       y2="461.93"
       gradientUnits="userSpaceOnUse" />
    <linearGradient
       id="2">
      <stop
         stop-color="#2e3436"
         id="stop4" />
      <stop
         offset="1"
         stop-color="#555753"
         id="stop6" />
    </linearGradient>
    <linearGradient
       id="0"
       x1="70.03"
       y1="569.24"
       x2="66.53"
       y2="491.06"
       gradientUnits="userSpaceOnUse">
      <stop
         stop-color="#0a80fd"
         id="stop9" />
      <stop
         offset="1"
         stop-color="#56c5fa"
         id="stop11" />
    </linearGradient>
    <linearGradient
       xlink:href="#2"
       id="1"
       x1="72.85"
       y1="491.15"
       x2="72.29"
       y2="462.68"
       gradientUnits="userSpaceOnUse"
       gradientTransform="matrix(1.0021,0,0,1,-0.15,0.002)" />
  </defs>
  <g
     transform="matrix(0.36764786,-0.039322,0.03623573,0.3848308,-21.038731,-171.73804)"
     id="g67">
    <g
       id="g29">
      <rect
         y="465.17001"
         x="11.899"
         height="106.82"
         width="120.4"
         rx="5.0300002"
         id="rect17"
         style="fill:url(#0)" />
      <g
         id="g27"
         style="fill-rule:evenodd">
        <path
           d="m 18.538,462.2 h 107.12 c 3.856,0 6.711,3.098 6.711,6.947 v 14.953 6.947 H 11.829 V 484.1 469.147 c 0,-3.848 2.855,-6.947 6.711,-6.947 z"
           id="path19"
           style="fill:url(#1);stroke:url(#1);stroke-width:0.107;stroke-linecap:round;stroke-linejoin:round"
           inkscape:connector-curvature="0" />
        <g
           id="g25"
           style="fill:#ffffff;fill-opacity:0.94800002;stroke-width:1.125">
          <path
             d="m 79.77,490.5 h 19.1 L 113.796,477.295 98.87,462.689 h -19.1 l 13.531,14.606 z"
             id="path21"
             style="stroke:url(#3)"
             inkscape:connector-curvature="0" />
          <path
             d="m 31.676,490.5 h 19.1 L 65.702,477.295 50.776,462.689 h -19.1 l 13.531,14.606 z"
             id="path23"
             style="stroke:url(#4)"
             inkscape:connector-curvature="0" />
        </g>
      </g>
    </g>
    <g
       transform="matrix(9.0176,0,0,9.0142,-3466.85,-4065.31)"
       id="g65"
       style="fill:#0b3969">
      <g
         transform="matrix(0.01087,-0.00473,0.00473,0.01087,385.98,508.89)"
         id="g43"
         style="opacity:0.82999998">
        <path
           d="m 65.46,55.53 -61.28,8.9 44.33,43.23 -10.46,61.02 54.81,-28.82 54.81,28.82 -10.46,-61.02 44.33,-43.23 -61.28,-8.9 L 92.86,0 Z"
           id="path31"
           inkscape:connector-curvature="0" />
        <path
           d="m 326.21,248.92 -35.94,72.82 -80.34,11.68 58.13,56.66 -13.72,80.03 71.87,-37.79 71.87,37.79 -13.73,-80.03 58.14,-56.66 -80.35,-11.68 z"
           id="path33"
           inkscape:connector-curvature="0" />
        <path
           d="M 392.87,78.2 416.53,111.94 432.18,73.83 465.93,50.191 427.82,34.528 404.16,0.787 388.51,38.907 354.77,62.556 Z"
           id="path35"
           inkscape:connector-curvature="0" />
        <path
           d="m 120.34,242.63 -21.15,-23.82 -8.64,30.66 -23.815,21.13 30.635,8.65 21.15,23.82 8.66,-30.65 23.8,-21.14 z"
           id="path37"
           inkscape:connector-curvature="0" />
        <path
           d="M 93.35,372.76 78.982,329.19 64.63,372.76 21.05,387.13 64.63,401.48 78.982,445.06 93.35,401.48 136.93,387.13 Z"
           id="path39"
           inkscape:connector-curvature="0" />
        <path
           d="m 264.38,170.49 -16.93,42.65 38.95,-24.23 42.66,16.93 -24.23,-38.97 16.92,-42.64 -38.95,24.23 -42.65,-16.94 z"
           id="path41"
           inkscape:connector-curvature="0" />
      </g>
      <g
         transform="matrix(-0.01066,-0.01426,-0.01425,0.01066,400.46,511.97)"
         id="g63"
         style="opacity:0.76599995">
        <g
           id="g49">
          <path
             d="m 264.41,48.53 c 4.334,-3.385 7.922,-1.652 7.972,3.848 l 0.562,64.61 c 0.046,5.5 3.815,12.518 8.373,15.597 l 53.55,36.17 c 4.56,3.078 4.02,7.03 -1.194,8.77 l -61.28,20.504 c -5.218,1.744 -10.729,7.498 -12.246,12.783 l -17.851,62.1 c -1.521,5.286 -5.439,5.993 -8.711,1.571 l -38.438,-51.942 c -3.271,-4.421 -10.445,-7.885 -15.942,-7.695 l -64.58,2.217 c -5.498,0.188 -7.381,-3.322 -4.188,-7.799 l 37.523,-52.607 c 3.194,-4.478 4.27,-12.371 2.393,-17.541 l -22.06,-60.732 c -1.879,-5.169 0.877,-8.05 6.122,-6.393 l 61.63,19.431 c 5.246,1.654 13.09,0.239 17.421,-3.145 l 50.948,-39.753"
             id="path45"
             inkscape:connector-curvature="0" />
          <path
             d="m 280.7,4.524 c 1.922,-3.979 6.703,-5.647 10.685,-3.727 3.979,1.92 5.646,6.703 3.727,10.682 l -7.827,16.211 c -1.92,3.979 -6.702,5.647 -10.682,3.728 -3.979,-1.92 -5.647,-6.703 -3.727,-10.682 L 280.7,4.524"
             id="path47"
             inkscape:connector-curvature="0" />
        </g>
        <g
           id="g55">
          <path
             d="m 93.9,168.53 c -4.294,1.042 -8.618,-1.589 -9.665,-5.884 -1.042,-4.293 1.59,-8.62 5.882,-9.664 l 17.492,-4.253 c 4.293,-1.045 8.621,1.588 9.664,5.881 1.043,4.294 -1.589,8.62 -5.883,9.665 L 93.9,168.53"
             id="path51"
             inkscape:connector-curvature="0" />
          <path
             d="m 149.99,29.23 c -2.031,-3.925 -0.499,-8.75 3.424,-10.783 3.925,-2.031 8.751,-0.5 10.784,3.422 l 8.279,15.986 c 2.03,3.922 0.499,8.75 -3.423,10.781 -3.924,2.032 -8.752,0.5 -10.784,-3.424 L 149.99,29.23"
             id="path53"
             inkscape:connector-curvature="0" />
        </g>
        <g
           id="g61">
          <path
             d="m 286.28,261.4 c 1.854,4.01 6.604,5.76 10.618,3.907 4.01,-1.854 5.763,-6.606 3.908,-10.616 l -7.552,-16.343 c -1.854,-4.01 -6.604,-5.762 -10.615,-3.907 -4.01,1.854 -5.761,6.605 -3.908,10.616 l 7.549,16.343"
             id="path57"
             inkscape:connector-curvature="0" />
          <path
             d="m 360.46,130.82 c 4.335,-0.851 7.16,-5.05 6.312,-9.389 -0.852,-4.336 -5.05,-7.164 -9.389,-6.314 l -17.665,3.462 c -4.337,0.849 -7.163,5.05 -6.314,9.386 0.853,4.336 5.05,7.164 9.392,6.313 l 17.664,-3.458"
             id="path59"
             inkscape:connector-curvature="0" />
        </g>
      </g>
    </g>
  </g>
</svg>
