<svg xmlns="http://www.w3.org/2000/svg" viewBox="0 0 48 48"><defs><linearGradient id="0" x1="45.789" y1="56.53" x2="45.585" y2="7.715" gradientUnits="userSpaceOnUse"><stop stop-color="#141414"/><stop stop-color="#2d2d2f" offset="1"/></linearGradient><linearGradient id="1" x1="165.12" y1="392.69" x2="153.13" y2="-75.854" gradientUnits="userSpaceOnUse"><stop stop-color="#4fd127"/><stop offset="1" stop-color="#c6f61a"/></linearGradient></defs><g transform="translate(-19.348-8.325)"><path d="m22.33 8.325h42.04c1.652 0 2.982 1.33 2.982 2.982v42.04c0 1.652-1.33 2.982-2.982 2.982h-42.04c-1.652 0-2.982-1.33-2.982-2.982v-42.04c0-1.652 1.33-2.982 2.982-2.982" fill="url(#0)" fill-rule="evenodd"/><path d="m282.61 222.56v-49.849c0-17.342-14.06-31.402-31.398-31.402h-78.5v-49.842c18.286-6.474 31.402-23.866 31.402-44.37 0-26.01-21.1-47.1-47.1-47.1-26.01 0-47.1 21.09-47.1 47.1 0 20.502 13.12 37.894 31.4 44.37v49.842h-78.5c-17.34 0-31.4 14.06-31.4 31.402v49.849c-18.286 6.46-31.403 23.856-31.403 44.35 0 26 21.09 47.1 47.1 47.1 26.01 0 47.1-21.1 47.1-47.1 0-20.498-13.12-37.895-31.402-44.35v-49.849h78.5v49.849c-18.284 6.46-31.4 23.856-31.4 44.35 0 26 21.09 47.1 47.1 47.1 26 0 47.1-21.1 47.1-47.1 0-20.498-13.12-37.895-31.402-44.35v-49.849h78.5v49.849c-18.285 6.46-31.401 23.856-31.401 44.35 0 26 21.09 47.1 47.1 47.1 26.01 0 47.1-21.1 47.1-47.1-.002-20.498-13.12-37.894-31.404-44.35" fill="url(#1)" transform="matrix(.10191 0 0 .10191 27.347 16.324)"/></g></svg>