<svg xmlns="http://www.w3.org/2000/svg" viewBox="0 0 48 48"><defs><linearGradient id="3" x1="-109.5" y1="31.556" x2="-109.61" y2="1.264" gradientUnits="userSpaceOnUse"><stop stop-color="#1365f4"/><stop offset="1" stop-color="#05b2fc"/></linearGradient><linearGradient id="2" x1="556.45" y1="468.21" x2="555.31" y2="419.6" gradientUnits="userSpaceOnUse"><stop stop-color="#566069"/><stop offset="1" stop-color="#6c7884"/></linearGradient><linearGradient id="0" x1="-26.21" y1="59.52" x2="-27.529" y2="34.05" gradientUnits="userSpaceOnUse"><stop stop-color="#d5dbff"/><stop offset="1" stop-color="#f9ffff"/></linearGradient><linearGradient id="1" gradientUnits="userSpaceOnUse" x1="2.353" x2="13.377"><stop stop-color="#989a9b"/><stop offset="1" stop-color="#f6f6f7"/></linearGradient></defs><g transform="matrix(.80031-.01103.01103.80031 31.33-2.991)"><rect width="76.81" height="58.987" x="504.27" y="424.19" transform="matrix(-.66071-.01326-.01326.66071 354.61-267.73)" fill="url(#2)" rx="2.3"/><rect transform="matrix(-1.22665-.2373-.2373 1.22665-139.16-7.543)" width="40.627" height="31.2" x="-130.49" y=".696" fill="url(#3)" rx="1.217"/><path d="m272.47-343.97l-75.37 7.247v310.48l74.56-11.273v-132.37l100.33 146.87 78.59-24.961-102.74-141.23 103.55-133.18-80.2-18.358-99.52 133.18.805-136.4m-170.86 75.69c-.852.088-1.774.323-2.416.966l-29.631 29.631c-1.244 1.248-1.397 3.159-.483 4.67l34.623 57.17c-6.148 10.335-11.14 21.421-14.654 33.17l-63.61 13.205c-1.77.366-3.06 2.051-3.06 3.865v41.87c0 1.77 1.346 3.286 3.06 3.704l61.677 14.977c3.298 13.607 8.393 26.628 15.14 38.488l-35.75 54.43c-.997 1.52-.803 3.548.483 4.831l29.631 29.631c1.248 1.244 3.163 1.4 4.67.483l56.04-33.979c10.992 6.346 22.892 11.43 35.428 14.815l13.04 62.805c.366 1.775 1.891 3.06 3.704 3.06h41.87c1.757 0 3.286-1.18 3.704-2.899l15.46-63.13c12.929-3.486 25.12-8.661 36.39-15.299l55.24 36.23c1.523.992 3.54.8 4.831-.483l29.47-29.631c1.252-1.25 1.561-3.163.644-4.67l-20.13-33.17-6.603 2.093c-.953.294-2.01-.137-2.577-.966 0 0-12.716-18.705-29.31-42.997-19.845 38.832-60.32 65.38-106.93 65.38-66.24 0-119.97-53.737-119.97-119.97 0-48.722 29.14-90.57 70.857-109.34v-30.919c-7.593 2.658-14.929 5.864-21.901 9.662-.013-.008.013-.153 0-.161l-56.52-37.04c-.76-.497-1.563-.571-2.416-.483" transform="matrix(.05896.01333-.01333.05896-23.79 42.45)" opacity=".878" fill="url(#1)"/><path d="m-26.714959 33.939519a13.07691 13.07691 0 0 0 -13.07769 13.07751 13.07691 13.07691 0 0 0 13.07755 13.07488 13.07691 13.07691 0 0 0 13.07765 -13.0747 13.07691 13.07691 0 0 0 -13.07751 -13.07769m-3.955 7.557l9.557 5.435-9.484 5.561-.074-10.996" fill="url(#0)"/></g></svg>