<svg xmlns="http://www.w3.org/2000/svg" viewBox="0 0 48 48"><defs><linearGradient gradientTransform="matrix(1.09092 0 0 1.06529-421.72-535.06)" gradientUnits="userSpaceOnUse" y2="507.8" x2="0" y1="542.8" id="0"><stop stop-color="#155bc2"/><stop offset="1" stop-color="#369dff"/></linearGradient></defs><g fill="#fff" fill-opacity=".847"><rect width="48" height="36.22" y="5.894" fill="url(#0)" fill-opacity="1" rx="1.704" stroke-width="1.037"/></g><g transform="matrix(1.06874 0 0 1.06874-2.572-1.622)"><path transform="matrix(.99163 0 0 .99163-473 114.14)" d="m505.99-87.12v3.12h3.12l7.88-7.88-3.12-3.12zm13.76-7.51c.33-.33.33-.85 0-1.18l-1.95-1.95c-.33-.33-.85-.33-1.18 0l-1.63 1.64 3.12 3.12z" fill-opacity=".851" fill="#fff"/><g transform="matrix(.0494 0 0 .04891 21.294-15.503)" fill="#deebfa" stroke="#4f96d1"><g><path transform="matrix(.7872 0 0 .79524 415.34 430.11)" d="m-884.1 294.78c-4.626 0-8.349 3.718-8.349 8.335v119.41l468.19 1v-79.2c0-4.618-3.724-8.335-8.35-8.335h-272.65c-8.51.751-9.607-.377-13.812-5.981-5.964-7.968-14.969-21.443-20.84-29.21-4.712-6.805-5.477-6.02-13.292-6.02z" stroke="none" color="#000"/><path d="m.588 4.07c-.178 0-.32.142-.32.32v9.199c0 .178.142.32.32.32h14.824c.178 0 .32-.142.32-.32v-9.199c0-.178-.142-.32-.32-.32z" transform="matrix(23.61017 0 0 23.85134-291.8 616.81)" stroke="#aaa" stroke-width=".079"/></g><rect transform="matrix(.7872 0 0 .79524 415.34 430.11)" y="356.85" x="-890.28" height="295.13" width="463.85" rx="9.63" stroke="#deebfa" stroke-linejoin="round" stroke-linecap="round" stroke-width="5.376"/></g></g></svg>