<svg xmlns="http://www.w3.org/2000/svg" viewBox="0 0 48 48"><defs><linearGradient id="0" x1="-123.97" y1="73.5" x2="-125.19" y2="-26.05" gradientUnits="userSpaceOnUse"><stop stop-color="#8798a9"/><stop offset="1" stop-color="#aeb6be"/></linearGradient></defs><g transform="matrix(.4778 0 0 .4778-219.93 4.444)"><g transform="translate(637.25 18.12)" fill-rule="evenodd"><rect y="-27.421" x="-175.27" height="100.46" width="97.1" fill="url(#0)" rx="6.241"/><g fill="#474d55"><circle r="3.5" cy="-17.745" cx="-164.03"/><circle r="3.5" cy="-17.745" cx="-154.79"/><circle r="3.5" cy="-17.745" cx="-145.46"/></g></g><path d="m72.77 74.28c-13.366-10.451-3.933-53.44-3.933-53.44 0 0 14.631 0 16.336 0 1.705 0 8.389-1.072 8.389-9.08 0-9.846-8.168-9.241-8.168-9.241 0 0-44.774 0-60.15 0-9.873 0-18.784 11.304-23.899 19.389-2.723 4.318-1.183 5.528 3.493 3.493 16.392-7.178 21.01-4.593 21.01-4.593 1.155 5.528 1.54 30.473-2.667 40.32-4.263 9.269-12.13 21.01-.578 27.915 9.02 5.115 18.481-5.391 17.546-23.268-.44-9.461-1.183-44.938-1.183-44.938h15.07c-.469 5.528-3.02 33.745-.357 50.47 2.777 27.915 33.11 22.497 38.777 6.685 1.402-4.373 1.073-7.729.027-10.26-1.926-4.702-5.144-4.949-4.785-2.75.221 1.402.083 2.777-.138 4.02-.661 3.823-8.471 9.817-14.797 5.281" fill="#474d55" fill-opacity=".85" transform="matrix(.56735 0 0 .56735 482.52 22.18)" opacity=".9"/></g></svg>