<svg xmlns="http://www.w3.org/2000/svg" viewBox="0 0 48 48"><defs><linearGradient y2="8.997" x2="0" y1="57.39" gradientUnits="userSpaceOnUse" id="0"><stop stop-color="#ff9300"/><stop offset="1" stop-color="#ffd702"/></linearGradient></defs><g transform="matrix(.99999 0 0 .99999-28.371-9.118)" enable-background="new"><path d="m74.66 19.234c-.015-1.125-.881-2.055-2-2.157-9.309-.871-16.906-5.846-19.41-7.665-.523-.382-1.233-.382-1.756 0-2.5 1.82-10.1 6.795-19.405 7.665-1.12.103-1.981 1.032-2 2.157-.113 7.342 1.066 32.27 21.724 37.818.367.098.753.098 1.12 0 20.658-5.542 21.837-30.475 21.729-37.818" fill="url(#0)"/><path d="m57.04 40.442c.071.376-.184.683-.566.683h-8.108c-.382 0-.637-.307-.566-.683l1.291-6.842c-.977-.891-1.591-2.175-1.591-3.602 0-2.692 2.182-4.874 4.874-4.874 2.692 0 4.874 2.182 4.874 4.874 0 1.388-.581 2.64-1.512 3.527z" fill="#251800" stroke-width="1.317"/></g></svg>