<svg xmlns="http://www.w3.org/2000/svg" viewBox="0 0 48 48"><defs><linearGradient id="0" x1="148.69" y1="22.344" x2="148.1" y2="-25.22" gradientUnits="userSpaceOnUse"><stop stop-color="#1e56e6"/><stop offset="1" stop-color="#1f9aed"/></linearGradient></defs><g transform="matrix(.99999 0 0 .99999-123.37 25.882)" enable-background="new"><g fill-rule="evenodd"><rect width="46.4" height="48" x="124.18" y="-25.875" fill="url(#0)" rx="2.982"/><g fill="#dde9fc"><circle cx="129.55" cy="-21.252" r="1.672"/><circle cx="133.96" cy="-21.252" r="1.672"/><circle cx="138.42" cy="-21.252" r="1.672"/></g></g><g fill="#dde9fc" stroke="#dde9fc" stroke-linecap="round"><g stroke-linejoin="round"><path stroke-width="1.268" d="m153.44 4.114h12.08v12.08h-12.08z"/><path transform="matrix(.82143-.61052.61052.82143-533.52-176.64)" d="m420.91 541.36l-10.562-7.902 12.12-5.196z" stroke-width="1.239"/></g><path d="m150.32-14.541c-3.5 0-6.317 2.818-6.317 6.317 0 3.5 2.818 6.317 6.317 6.317 3.5 0 6.317-2.818 6.317-6.317 0-3.5-2.817-6.317-6.317-6.317z" stroke-width="1.268"/></g></g></svg>