<svg xmlns="http://www.w3.org/2000/svg" viewBox="0 0 48 48"><defs><linearGradient id="0" gradientUnits="userSpaceOnUse" x1="-324.94" y1="649.74" x2="-328.21" y2="307.75"><stop stop-color="#1673db"/><stop offset="1" stop-color="#42d6fc"/></linearGradient></defs><g transform="matrix(3.107 0 0 3.107-127.15-81.84)" fill="#fff" fill-opacity=".853"><circle cx="-325.89" cy="478.75" r="173.45" transform="matrix(.04454 0 0 .04454 63.16 12.743)" fill="url(#0)" fill-opacity="1"/><path d="m50.49 38.05c.459.734 1.926.046 1.238-.906l-2.683-3.245c.734-.803 1.525-1.514 2.202-2.316.321-.31.321-.711 0-1.021-.287-.287-.688-.378-1.089 0l-3.314 3.417v-2.913c0-1.01-1.514-.975-1.514 0 0 2.213 0 4.346 0 6.548 0 .963 1.514.952 1.514 0v-1.605l1.089-1.204 2.557 3.245" fill="#fff" fill-opacity=".853"/></g></svg>