<svg xmlns="http://www.w3.org/2000/svg" viewBox="0 0 48 48"><defs><filter color-interpolation-filters="sRGB"><feGaussianBlur stdDeviation="1.71"/></filter><linearGradient gradientUnits="userSpaceOnUse" y2="532.99" x2="400.62" y1="543.89" x1="400.45" id="5"><stop stop-color="#41b99b"/><stop offset="1" stop-color="#59ffd5"/></linearGradient><linearGradient gradientUnits="userSpaceOnUse" y2="528.97" x2="394.27" y1="535.15" x1="394.52" id="6"><stop stop-color="#947ecb"/><stop offset="1" stop-color="#cab5ff"/></linearGradient><linearGradient gradientUnits="userSpaceOnUse" y2="523.38" x2="0" y1="530.78" id="7"><stop stop-color="#ec87c0"/><stop offset="1" stop-color="#ffc1e4"/></linearGradient><linearGradient gradientUnits="userSpaceOnUse" y2="528.59" x2="406.62" y1="534.79" x1="406.49" id="4"><stop stop-color="#ffbc00"/><stop offset="1" stop-color="#ffec00"/></linearGradient><linearGradient gradientUnits="userSpaceOnUse" y2="519.87" x2="400.45" y1="530.78" x1="400.62" id="3"><stop stop-color="#eb4646"/><stop offset="1" stop-color="#ff8651"/></linearGradient><linearGradient gradientTransform="scale(1.0059.99417)" gradientUnits="userSpaceOnUse" y2="7.02" x2="0" y1="92.54"><stop/><stop offset="1" stop-opacity=".588"/></linearGradient><linearGradient gradientUnits="userSpaceOnUse" y2="523.04" x2="405.25" y1="530.91" x1="405.3" id="8"><stop stop-color="#fc6e51"/><stop offset="1" stop-color="#ff937d"/></linearGradient><linearGradient gradientUnits="userSpaceOnUse" y2="-26.05" x2="-125.19" y1="73.5" x1="-123.97" id="0" gradientTransform="matrix(1.03458 0 0 1 4.382 0)"><stop stop-color="#dce2ff"/><stop offset="1" stop-color="#f8feff"/></linearGradient><linearGradient gradientUnits="userSpaceOnUse" y2="532.99" x2="404.17" y1="540.41" x1="405.15" id="2"><stop stop-color="#4fd127"/><stop offset="1" stop-color="#c6f61a"/></linearGradient><linearGradient gradientUnits="userSpaceOnUse" y2="533.06" x2="0" y1="541.16" id="1"><stop stop-color="#0976da"/><stop offset="1" stop-color="#5de5f0"/></linearGradient></defs><g fill-rule="evenodd"><path d="m-170.49-27.421h87.55c3.577 0 6.458 2.783 6.458 6.241v87.978c0 3.457-2.88 6.241-6.457 6.241h-87.55c-3.577 0-6.457-2.783-6.457-6.241v-87.978c0-3.457 2.88-6.241 6.457-6.241" fill="url(#0)" transform="matrix(.4778 0 0 .4778 84.55 13.1)"/><g transform="matrix(1.49857 0 0 1.49857-576.42-773.06)"><path d="m400.45 543.89c4.644-3.427 5.21-7.04.165-10.906-5.898 4.307-3.738 7.688-.165 10.906" fill="url(#5)"/><path d="m400.45 519.87c4.644 3.427 5.21 7.04.165 10.906-5.898-4.307-3.738-7.688-.165-10.906" fill="url(#3)"/><path d="m412.68 531.73c-3.427 4.644-7.04 5.21-10.906.165 4.307-5.898 7.688-3.738 10.906-.165" fill="url(#4)"/><path d="m388.64 531.81c3.427 4.644 7.04 5.21 10.906.165-4.307-5.898-7.688-3.738-10.906-.165" fill="url(#6)"/><path d="m399.99 531.12c-5.758.399-8.529-1.987-7.191-8.2 7.283-.54 7.828 3.434 7.191 8.2" fill="url(#7)"/><path d="m392.66 540.9c5.758.399 8.529-1.987 7.191-8.2-7.283-.54-7.828 3.434-7.191 8.2" fill="url(#1)"/><path d="m401.41 531.18c5.758.399 8.529-1.987 7.191-8.2-7.283-.54-7.828 3.434-7.191 8.2" fill="url(#8)"/><path d="m408.73 540.92c-5.758.399-8.529-1.987-7.191-8.2 7.283-.54 7.828 3.434 7.191 8.2" fill="url(#2)"/></g></g></svg>