<svg xmlns="http://www.w3.org/2000/svg" viewBox="0 0 48 48"><defs><filter color-interpolation-filters="sRGB"><feGaussianBlur stdDeviation="1.71"/></filter><linearGradient gradientTransform="scale(1.0059.99417)" gradientUnits="userSpaceOnUse" y2="7.02" x2="0" y1="92.54"><stop/><stop offset="1" stop-opacity=".588"/></linearGradient><linearGradient gradientUnits="userSpaceOnUse" y2="-26.05" x2="-125.19" y1="73.5" x1="-123.97" id="0" gradientTransform="matrix(1.03458 0 0 1 4.382 0)"><stop stop-color="#2fae61"/><stop offset="1" stop-color="#4bdf88"/></linearGradient></defs><g fill-rule="evenodd"><path d="m-170.49-27.421h87.55c3.577 0 6.458 2.783 6.458 6.241v87.978c0 3.457-2.88 6.241-6.457 6.241h-87.55c-3.577 0-6.457-2.783-6.457-6.241v-87.978c0-3.457 2.88-6.241 6.457-6.241" fill="url(#0)" transform="matrix(.4778 0 0 .4778 84.55 13.1)"/><path d="m6.00927 30.896276a5.457591 5.457591 0 0 0 5.461261 5.45392 5.457591 5.457591 0 0 0 5.334761 -4.332621l13.677-.009c.534 0 .963-.43.963-.964v-.33c0-.534-.43-.963-.964-.963l-13.681.009a5.457591 5.457591 0 0 0 -5.336586 -4.325445 5.457591 5.457591 0 0 0 -5.45392 5.461262m-.00927-13.785208a5.457591 5.457591 0 0 0 5.461261 5.453919 5.457591 5.457591 0 0 0 5.334762 -4.332621l13.677-.009c.534 0 .963-.43.963-.964v-.33c0-.534-.43-.963-.964-.963l-13.681.009a5.457591 5.457591 0 0 0 -5.336587 -4.325444 5.457591 5.457591 0 0 0 -5.45392 5.461261m10.564 7.124c0 .534.43.963.964.963l13.677-.009a5.457591 5.457591 0 0 0 5.340584 4.32544 5.457591 5.457591 0 0 0 5.45392 -5.461259 5.457591 5.457591 0 0 0 -5.461261 -5.45392 5.457591 5.457591 0 0 0 -5.330764 4.332616l-13.681.009c-.534 0-.963.43-.963.964v.33" mix-blend-mode="normal" solid-color="#000000" color-interpolation-filters="linearRGB" fill-opacity=".846" color="#000" image-rendering="auto" color-rendering="auto" isolation="auto" color-interpolation="sRGB" solid-opacity="1" fill="#fff" shape-rendering="auto"/></g></svg>