<svg xmlns="http://www.w3.org/2000/svg" viewBox="0 0 48 48"><defs><linearGradient y1="545.8" x2="0" y2="517.8" gradientUnits="userSpaceOnUse"><stop stop-color="#3889e9"/><stop offset="1" stop-color="#5ea5fb"/></linearGradient><linearGradient id="0" gradientUnits="userSpaceOnUse" y1="545.14" x2="0" y2="518.14"><stop stop-color="#5dae33"/><stop offset="1" stop-color="#9be058"/></linearGradient></defs><g transform="translate(-384.57-499.8)"><g transform="matrix(1.71428 0 0 1.71428-278.11-387.84)" enable-background="new"><circle r="14" cy="531.8" cx="400.57" fill="url(#0)"/><circle cx="400.57" cy="531.8" r="14" fill="#5ea5fb" fill-opacity="0"/></g><path d="m13.674 11.748c-3.282 0-5.943 2.558-5.943 5.711 0 2.103 1.189 3.939 2.953 4.93-2.3 2.03-3.684 4.371-3.684 6.381 0 4.402 7.611 7.482 17 7.482 9.387 0 16.998-3.33 16.998-7.482 0-2.07-1.365-4.402-3.633-6.41 1.737-.997 2.902-2.817 2.902-4.9 0-3.153-2.657-5.711-5.943-5.711-3.282 0-5.943 2.558-5.943 5.711 0 .165.011.327.025.488-1.407-.305-2.88-.488-4.406-.488-1.529 0-3 .19-4.412.502.015-.166.027-.333.027-.502 0-3.153-2.657-5.711-5.943-5.711m0 2.656c1.78 0 3.221 1.382 3.221 3.088 0 .504-.138.972-.361 1.393-1.2.466-2.329 1.019-3.35 1.648-1.543-.228-2.73-1.5-2.73-3.041 0-1.706 1.443-3.088 3.221-3.088m20.652 0c1.78 0 3.221 1.382 3.221 3.088 0 1.516-1.144 2.775-2.652 3.033-1.047-.645-2.209-1.207-3.447-1.678-.211-.411-.342-.867-.342-1.355 0-1.706 1.443-3.088 3.221-3.088m-20.686 1.859c-.696 0-1.262.532-1.262 1.195 0 .66.565 1.195 1.262 1.195.698 0 1.262-.535 1.262-1.195 0-.663-.563-1.195-1.262-1.195m20.652 0c-.696 0-1.262.532-1.262 1.195 0 .66.565 1.195 1.262 1.195.698 0 1.262-.535 1.262-1.195 0-.663-.563-1.195-1.262-1.195m-13.414 5.313c.33 0 .598.253.598.561 0 .316-.268.568-.598.568-.33 0-.598-.252-.598-.568 0-.307.268-.561.598-.561m6.242 0c.329 0 .598.253.598.561 0 .316-.268.568-.598.568-.33 0-.598-.252-.598-.568 0-.307.268-.561.598-.561" transform="translate(384.57 499.8)" fill="#000" fill-opacity=".667" fill-rule="evenodd"/></g></svg>