<svg xmlns="http://www.w3.org/2000/svg" xmlns:xlink="http://www.w3.org/1999/xlink" viewBox="0 0 48 48"><defs><linearGradient xlink:href="#3" id="6" gradientUnits="userSpaceOnUse" x1="407.2" y1="515.76" x2="424.07" y2="532.63"/><linearGradient xlink:href="#3" id="5" gradientUnits="userSpaceOnUse" x1="415.32" y1="537.14" x2="414.58" y2="510.43"/><linearGradient xlink:href="#1" id="7" gradientUnits="userSpaceOnUse" x1="414.55" y1="535.92" x2="414.2" y2="514"/><linearGradient id="4" gradientUnits="userSpaceOnUse" gradientTransform="matrix(.83242 0 0 1.02627 73.951-9.715)" x1="391.57" y1="531.8" x2="390.88" y2="507.67"><stop stop-color="#d3d3d3"/><stop offset="1" stop-color="#fcf9f9"/></linearGradient><linearGradient id="3"><stop stop-color="#222c35"/><stop offset="1" stop-color="#545e67"/></linearGradient><linearGradient xlink:href="#1" id="0" y1="542.8" x2="0" y2="507.8" gradientUnits="userSpaceOnUse" gradientTransform="matrix(1.16017 0 0 1.13292-71.44-91.02)"/><linearGradient xlink:href="#3" id="2" gradientUnits="userSpaceOnUse" x1="401.24" y1="512.45" x2="401.08" y2="509.83"/><linearGradient id="1"><stop stop-color="#0173dd"/><stop offset="1" stop-color="#00b1ff"/></linearGradient></defs><g transform="matrix(.82276 0 0 .82276-309.67-396.47)" fill-opacity="1"><rect width="51.05" height="38.519" x="377.05" y="484.28" fill="url(#0)" rx="1.813" stroke-width=".999"/><g stroke-width=".768"><rect y="510.14" x="398.17" height="2.305" width="4.61" fill="url(#2)" rx=".768"/><rect y="511.42" x="394.08" height="24.63" width="39.956" fill="url(#4)" rx="1.153"/></g><path d="m401.27124 523.8253a13.999973 13.999973 0 0 1 13.99997 -13.99997 13.999973 13.999973 0 0 1 13.99997 13.99997 13.999973 13.999973 0 0 1 -13.99997 13.99998 13.999973 13.999973 0 0 1 -13.99997 -13.99998" fill="url(#5)"/><circle cx="415.27" cy="523.83" r="11" fill="url(#6)"/><circle r="10" cy="523.83" cx="415.27" fill="url(#7)"/></g></svg>