<svg xmlns="http://www.w3.org/2000/svg" viewBox="0 0 48 48"><defs><linearGradient y1="545.8" x2="0" y2="517.8" gradientUnits="userSpaceOnUse"><stop stop-color="#3889e9"/><stop offset="1" stop-color="#5ea5fb"/></linearGradient><linearGradient id="0" gradientUnits="userSpaceOnUse" y1="545.14" x2="0" y2="518.14"><stop stop-color="#ff9300"/><stop offset="1" stop-color="#ffd702"/></linearGradient><linearGradient id="1" y1="545.71" x2="0" y2="500.71" gradientUnits="userSpaceOnUse"><stop stop-color="#2e3e46"/><stop offset="1" stop-color="#435a64"/></linearGradient></defs><g transform="translate(-384.57-499.8)"><g transform="matrix(1.71428 0 0 1.71428-278.11-387.84)" enable-background="new"><circle r="14" cy="531.8" cx="400.57" fill="url(#0)"/><circle cx="400.57" cy="531.8" r="14" fill="#5ea5fb" fill-opacity="0"/></g><ellipse ry="4.333" rx="4.5" cy="517.19" cx="412.78" color-interpolation-filters="linearRGB" fill-opacity=".85" color="#000" image-rendering="auto" color-rendering="auto" fill-rule="evenodd" color-interpolation="sRGB" fill="#fff" shape-rendering="auto"/><path d="m406.45 547.74c-3.11-.319-5.672-1.045-8.427-2.39-5.783-2.823-10.145-7.815-12.2-13.961-.846-2.531-1.197-4.768-1.193-7.602.006-3.867.708-6.97 2.346-10.381 4.999-10.403 16.625-15.756 27.809-12.804 7.367 1.945 13.411 7.345 16.208 14.481.762 1.945 1.522 5.234 1.522 6.593v.375l-1.282-.82c-3.01-1.926-5.372-3.046-7.877-3.741-.71-.197-1.304-.275-2.408-.319-.806-.032-1.542-.097-1.635-.146-.104-.054-.255-.439-.391-.994-.27-1.107-.584-1.802-1.145-2.544-1.138-1.503-2.876-2.354-4.785-2.344-1.254.007-2.196.247-3.426.872-.561.285-1.162.518-1.338.518-.176 0-1-.118-1.84-.262-.836-.144-1.863-.262-2.282-.262-.824 0-2.108.284-2.75.609-.878.444-2.101.763-3.703.965-1.931.245-2.61.427-3.048.818-.293.261-.332.375-.43 1.227-.14 1.219.058 2.157.754 3.573 1.398 2.844 3.808 5.793 8.965 10.971 1.32 1.325 3.044 3.096 3.832 3.936 1.201 1.28 1.544 1.582 2.124 1.87 1.139.566 1.589 1.323 1.457 2.45-.11.935.219 1.47 2.098 3.406 2.267 2.337 2.598 2.844 2.718 4.155l.058.641-.965.272c-2.256.637-4.342.913-6.72.889-.923-.009-1.843-.034-2.044-.054m5.02-25.459c-.942-.301-1.643-.742-2.305-1.45-1.016-1.086-1.458-2.19-1.458-3.639 0-1.524.549-2.801 1.643-3.825 1.09-1.02 2.192-1.462 3.643-1.462 1.503 0 2.771.538 3.802 1.611 1.615 1.682 1.955 4.068.882 6.187-.345.682-1.504 1.834-2.197 2.185-1.188.602-2.848.764-4.01.392m.413-1.576c.27-.145.498-.747.796-2.1.146-.662.375-1.416.509-1.675.134-.259.44-.839.679-1.288.239-.449.435-.949.435-1.111 0-.448-.359-.82-.967-1-2.482-.737-4.921 1.247-4.764 3.877.081 1.36.811 2.491 1.988 3.079.66.33 1.01.388 1.324.22" fill="url(#1)"/></g></svg>