<svg xmlns="http://www.w3.org/2000/svg" viewBox="0 0 48 48"><defs><linearGradient id="0" x1="411.6" y1="562.55" x2="412.13" y2="524.27" gradientUnits="userSpaceOnUse"><stop stop-color="#11aa43"/><stop offset="1" stop-color="#65ff5d"/></linearGradient><linearGradient id="1" x1="429.05" y1="563.25" x2="429.51" y2="550.78" gradientUnits="userSpaceOnUse"><stop stop-color="#276ad6"/><stop offset="1" stop-color="#41aaff"/></linearGradient><linearGradient id="2" x1="413.17" y1="539.23" x2="412.86" y2="530.62" gradientUnits="userSpaceOnUse"><stop stop-color="#ffcc06"/><stop offset="1" stop-color="#fff834"/></linearGradient></defs><g transform="matrix(1.03585 0 0 1.03585-417.96-539.3)" stroke="none"><path d="m406.29 530.5h5.753l5.243 9.255h-5.728z" fill="url(#2)" transform="matrix(2.85339 0 0 2.84459-740.83-985.14)" stroke-opacity=".8"/><path d="m411.79 563.89l14.919-25.794c0 0-4.289-7.604-6.507-11.385-.293-.5-.707-1.314-1.085-1.9-.317-.491-.52-.882-.52-.882 0 0-.046-.041-.07 0-4.966 8.688-14.897 26.19-14.897 26.19l8.161 13.774" fill="url(#0)"/><path d="m411.71 563.86h29.687l8.565-13.663-30.32-.031-7.929 13.695" fill="url(#1)"/></g></svg>