<svg xmlns="http://www.w3.org/2000/svg" viewBox="0 0 48 48"><defs><linearGradient id="0" y1="17.208" x2="0" y2="2.868" gradientUnits="userSpaceOnUse"><stop stop-color="#e3203a"/><stop offset="1" stop-color="#fd5420"/></linearGradient><linearGradient id="1" x1="8.963" y1="8.245" x2="7.17" y2="-.717" gradientUnits="userSpaceOnUse"><stop stop-color="#2fae61"/><stop offset="1" stop-color="#4bdf88"/></linearGradient></defs><g transform="matrix(2.78938 0 0 2.78938 0 .002)" enable-background="new"><path d="m12.889 2.805l-.324.136c-.497.208-.791.479-1.044.753.232.108.455.246.667.411.473.385.792.801 1.042 1.353l.376.825-.9-.111c-.645-.078-1.077.066-1.496.205-.171.058-.346.116-.529.156.012.076.021.153.027.229.04.456-.021.919-.179 1.376-.211.573-.499 1.01-.94 1.425l-.297.279-.337-.228c-.501-.341-.856-.726-1.151-1.249-.197-.368-.324-.744-.378-1.13-.206.036-.41.043-.61.051-.44.017-.896.034-1.471.336l-.803.423.059-.905c.039-.604.19-1.105.492-1.625.183-.302.398-.564.646-.784-.057-.05-.113-.102-.168-.153-.324-.299-.659-.609-1.28-.802l-.867-.27.531-.467c-2.998.903-3.955 3.54-3.955 6.5 0 4.146 3.852 7.507 8.604 7.507 4.751 0 8.604-3.361 8.604-7.507 0-3.056-1.103-5.959-4.319-6.734" fill="url(#0)"/><path d="m6.333 4.893c-.315.219-.585.505-.802.864-.213.366-.385.79-.424 1.402 1.273-.669 2.066-.154 2.809-.664-.016.16-.02.318-.006.477.027.383.137.76.336 1.13.208.369.485.732.994 1.077.446-.421.662-.824.809-1.222.138-.396.187-.785.152-1.168-.021-.249-.078-.495-.167-.738.805.116 1.377-.563 2.733-.396-.254-.559-.565-.895-.893-1.162-.33-.259-.683-.43-1.056-.523-.077-.02-.153-.034-.232-.046.47-.394.772-1.041 1.783-1.463-.499-.359-.936-.497-1.353-.565-.416-.061-.807-.035-1.177.07-.37.102-.72.281-1.046.546-.125.106-.246.228-.363.362-.449-1.451-.979-2.609-1.027-2.712l-.347.161c.011.025.565 1.231 1.023 2.724-.024-.022-.05-.043-.076-.061-.349-.233-.714-.378-1.093-.444-.377-.068-.771-.057-1.178.043-.409.109-.83.287-1.292.692 1.225.381 1.515 1.157 2.19 1.437-.102.055-.202.113-.297.179m2.546-.739c.005 0 .001.003.014.004-.018.008-.037.018-.055.027.013-.001.027-.02.041-.031" fill="url(#1)"/></g></svg>