<svg xmlns="http://www.w3.org/2000/svg" viewBox="0 0 48 48"><defs><linearGradient id="0" gradientUnits="userSpaceOnUse" y1="42.475" x2="0" y2="28.899"><stop stop-color="#c52828"/><stop offset="1" stop-color="#ff5454"/></linearGradient></defs><g transform="matrix(3.15759 0 0 3.15759-28.461-89.21)" enable-background="new"><circle cy="35.858" cx="16.614" r="7.601" fill="url(#0)"/><path d="m16.498 31.388c-1.809 0-3.275 1.466-3.275 3.275 0 .138.011.273.028.407.28 2.558 3.035 5.507 3.035 5.507.049.055.096.089.142.113l.002.0001.092.029.092-.029.002-.0001c.046-.025.093-.06.142-.113 0 0 2.715-2.954 2.988-5.513.016-.132.027-.266.027-.402-.0001-1.808-1.466-3.275-3.275-3.275m0 5.382c-1.161 0-2.107-.945-2.107-2.107 0-1.161.945-2.107 2.107-2.107 1.161 0 2.106.945 2.106 2.107 0 1.161-.945 2.107-2.106 2.107" fill="#fafafa" fill-opacity=".903" stroke-width="1.317"/></g></svg>