<svg xmlns="http://www.w3.org/2000/svg" viewBox="0 0 48 48"><defs><linearGradient y1="545.8" x2="0" y2="517.8" gradientUnits="userSpaceOnUse"><stop stop-color="#3889e9"/><stop offset="1" stop-color="#5ea5fb"/></linearGradient><linearGradient id="0" gradientUnits="userSpaceOnUse" y1="545.14" x2="0" y2="518.14"><stop stop-color="#141414"/><stop offset="1" stop-color="#2d2d2f"/></linearGradient><linearGradient id="1" x1="12.445" y1="58.43" x2="12.968" y2="-10.39" gradientUnits="userSpaceOnUse"><stop stop-color="#4fd127"/><stop offset="1" stop-color="#c6f61a"/></linearGradient></defs><g transform="translate(-384.57-499.8)"><g transform="matrix(1.71428 0 0 1.71428-278.11-387.84)" enable-background="new"><circle r="14" cy="531.8" cx="400.57" fill="url(#0)"/><circle cx="400.57" cy="531.8" r="14" fill="#5ea5fb" fill-opacity="0"/></g><path d="m.471 37.4c0 0-2.958-11.438 6.705-8.873 0 0 17.14 9.295 38.651 0 9.663-2.563 6.705 8.873 6.705 8.873-5.523 16.959-26.03 15.58-26.03 15.58 0 0-20.508 1.379-26.03-15.58m6.24-31.19c0-3.424 2.777-6.201 6.202-6.201 3.423 0 6.2 2.777 6.2 6.201 0 3.426-2.777 6.203-6.2 6.203-3.425 0-6.202-2.778-6.202-6.203m28.12 0c0-3.424 2.78-6.201 6.203-6.201 3.423 0 6.201 2.777 6.201 6.201 0 3.426-2.777 6.203-6.201 6.203-3.423 0-6.203-2.778-6.203-6.203" fill="url(#1)" transform="matrix(.52828 0 0 .52828 394.57 510.7)"/></g></svg>