<svg xmlns="http://www.w3.org/2000/svg" xmlns:xlink="http://www.w3.org/1999/xlink" viewBox="0 0 48 48"><defs><linearGradient gradientUnits="userSpaceOnUse" y2="1009.71" x2="59.867" y1="1010.03" x1="76.45" id="5" xlink:href="#0"/><linearGradient gradientUnits="userSpaceOnUse" y2="1023.1" x2="58.911" y1="1025.02" x1="55.08" id="4"><stop stop-color="#62c8f7"/><stop offset="1" stop-color="#36aaf2"/></linearGradient><linearGradient gradientUnits="userSpaceOnUse" y2="986.12" x2="57.954" y1="983.25" x1="74.21" id="6"><stop stop-color="#7ed6fb"/><stop offset="1" stop-color="#8edcfc"/></linearGradient><linearGradient gradientUnits="userSpaceOnUse" y2="1025.5" x2="44.45" y1="1022.58" x1="37.23" id="3"><stop stop-color="#1581ce"/><stop offset="1" stop-color="#32a9e0"/></linearGradient><linearGradient gradientUnits="userSpaceOnUse" y2="1010.17" x2="39.04" y1="1011.07" x1="19.648" id="2" xlink:href="#0"/><linearGradient x1="408.57" y1="552.8" x2="409.57" y2="503.8" gradientUnits="userSpaceOnUse"><stop stop-color="#197cf1"/><stop offset="1" stop-color="#59d0ff"/></linearGradient><linearGradient x2="47.02" x1="16.09" gradientUnits="userSpaceOnUse" id="1"><stop stop-color="#7ed6fb"/><stop offset="1" stop-color="#90ddfc"/></linearGradient><linearGradient id="0"><stop stop-color="#7ed6fb"/><stop offset="1" stop-color="#8fdcfc"/></linearGradient></defs><g transform="matrix(.66667 0 0 .66667-8.101-645.27)"><path d="m47.854 984.19l21.375 13.23-21.23 13.318-21.479-13.318" fill="#7ed6fb"/><path d="m12 985.43l21.375-13.23 14.516 11.951-21.37 13.263" fill="url(#1)"/><path d="m47.858 984.18l21.42 13.258 14.625-11.897-21.479-13.318z" fill="url(#6)"/><path d="m47.854 984.19l-.0001 22.704-21.23 13.318-.103-22.792z" fill="#62c8f7"/><path d="m47.854 984.19l.0001 22.704 21.23 13.318.103-22.792z" fill="#32a9e0"/><path d="m69.19 997.42l-.0001 25.765-21.23 13.318-.103-25.853z" fill="url(#4)"/><path d="m48 1010.67l21.375-13.23 14.625 11.897-21.479 13.318" fill="url(#5)"/><path d="m26.521 997.42l.0001 25.765 21.429 13.336-.097-25.871z" fill="url(#3)"/><path d="m12 1009.4l21.375 13.23 14.625-11.897-21.479-13.318" fill="url(#2)"/></g></svg>