<svg xmlns="http://www.w3.org/2000/svg" viewBox="0 0 48 48"><defs><linearGradient y1="545.8" x2="0" y2="517.8" gradientUnits="userSpaceOnUse"><stop stop-color="#3889e9"/><stop offset="1" stop-color="#5ea5fb"/></linearGradient><linearGradient id="0" gradientUnits="userSpaceOnUse" y1="545.14" x2="0" y2="518.14"><stop stop-color="#5dae33"/><stop offset="1" stop-color="#9be058"/></linearGradient></defs><g transform="translate(-384.57-499.8)"><g transform="matrix(1.71428 0 0 1.71428-278.11-387.84)" enable-background="new"><circle r="14" cy="531.8" cx="400.57" fill="url(#0)"/><circle cx="400.57" cy="531.8" r="14" fill="#5ea5fb" fill-opacity="0"/></g><path d="m391.84 540.91c-.421-.329-.949-.524-1.523-.524-1.351 0-2.451 1.084-2.485 2.435-1.395.526-2.388 1.88-2.388 3.466 0 1.874 1.385 3.423 3.182 3.667v.034h12.73v-.006c1.775-.104 3.182-1.584 3.182-3.395 0-1.747-1.309-3.186-2.994-3.379.007-.106.011-.214.011-.322 0-2.707-2.271-4.901-5.072-4.901-2.073 0-3.856 1.202-4.643 2.925" fill="#fff" fill-opacity=".85" transform="matrix(1.67588 0 0 1.68488-253.38-392.76)"/></g></svg>