<svg xmlns="http://www.w3.org/2000/svg" viewBox="0 0 48 48"><defs><filter color-interpolation-filters="sRGB"><feGaussianBlur stdDeviation="1.71"/></filter><linearGradient gradientTransform="scale(1.0059.99417)" gradientUnits="userSpaceOnUse" y2="7.02" x2="0" y1="92.54"><stop/><stop offset="1" stop-opacity=".588"/></linearGradient><linearGradient gradientUnits="userSpaceOnUse" y2="-26.05" x2="-125.19" y1="73.5" x1="-123.97" id="0" gradientTransform="matrix(1.03458 0 0 1 4.382 0)"><stop stop-color="#5dae33"/><stop offset="1" stop-color="#9be058"/></linearGradient></defs><path d="m-170.49-27.421h87.55c3.577 0 6.458 2.783 6.458 6.241v87.978c0 3.457-2.88 6.241-6.457 6.241h-87.55c-3.577 0-6.457-2.783-6.457-6.241v-87.978c0-3.457 2.88-6.241 6.457-6.241" fill="url(#0)" fill-rule="evenodd" transform="matrix(.4778 0 0 .4778 84.55 13.1)"/><g transform="matrix(.65766 0 0 .65766 21.387 5.428)" fill="#e9f5e1"><path d="m-22.08 41.96c1.4 0 2.44-1.08 2.44-2.48v-8.76h13.04v8.76c0 1.4 1.28 2.48 2.72 2.48 1.4 0 2.48-1.08 2.48-2.48v-22.72c0-1.44-1.08-2.48-2.48-2.48-1.44 0-2.72 1.04-2.72 2.48v8.72h-13.04v-8.72c0-1.44-1.04-2.48-2.44-2.48-1.8 0-2.84 1.04-2.84 2.48v22.72c0 1.4 1.04 2.48 2.84 2.48"/><path d="m32.864 28.32c0-9.84-7.28-14.84-14.72-14.84-7.08 0-15.08 5-15.08 14.84 0 9.84 8.04 14.68 15.08 14.68 3.24 0 5.68-.68 7.76-2.12l1.36 1.08c2.68 2.52 6.12-1.4 3.48-3.8l-.64-.76c1.8-2.48 2.76-5.28 2.76-9.08m-6.6 5.2l-4.52-4.52c-2.68-2.36-6.04 1.28-3.92 3.84l4.56 4.2c-1.4.36-2.8.72-4.24.72-5.64 0-9.76-4.6-9.76-9.44 0-6.36 4.84-9.6 9.76-9.6 4.56 0 9.56 3.24 9.56 9.6 0 2.08-.44 3.8-1.44 5.2"/></g></svg>