<svg xmlns="http://www.w3.org/2000/svg" viewBox="0 0 48 48"><defs><linearGradient gradientTransform="matrix(1.09091 0 0 1.06528-383.34-560.93)" gradientUnits="userSpaceOnUse" y2="507.8" x2="0" y1="542.8" id="0"><stop stop-color="#c52828"/><stop offset="1" stop-color="#ff5454"/></linearGradient></defs><g transform="matrix(.22655 0 0 .22655-51.801 16.962)" enable-background="new"><rect y="-19.985" x="38.38" height="36.22" width="48" fill="url(#0)" rx="1.704" stroke-width="1.714" transform="matrix(4.414 0 0 4.414 59.28 39.36)"/><g transform="matrix(.40338 0 0 .40338 278.07-8.06)" fill="#fff" fill-opacity=".851"><path d="m6.727 58.45c49.79 0 47.671 79.1 0 79.1h-29.31v-79.1h29.31m1.589 100.64c77.33 0 79.1-122.18-1.589-122.18h-40.43c-5.826 0-12.183 4.591-12.183 10.947v100.29c0 7.769 6.356 10.947 12.183 10.947h42.02"/><path d="m87.74 146.9c0 7.769 5.65 12.183 12.01 12.183 6.356 0 11.123-4.414 11.123-12.183v-68.15l58.44 74.16c5.12 4.767 8.122 6.18 14.301 6.18 4.591-1.412 9.358-4.414 9.358-12.183v-99.4c0-5.826-6.18-12.183-12.536-12.183-6 0-11.123 6.356-11.123 12.183v68.51l-58.44-73.1c-4.767-4.591-6.18-6.18-12.536-6.18-9.181 0-10.594 6.18-10.594 12.536v97.64"/><path d="m326.16 135.96v-37.607c0-5.473-6-10.417-12.536-10.417h-35.31c-14.12 0-15.714 21.54 0 21.54h26.484v21.717c-6.533 4.767-15.714 7.945-26.484 7.945-23.13 0-40.43-15.89-40.43-42.02 0-24.895 20.658-42.02 42.02-42.02 9.181 0 18.362 4.767 24.895 11.123 10.594 9.358 26.13-6.356 15.361-16.95-10.947-10.77-26.307-15.537-40.26-15.537-37.25 0-64.974 27.72-64.974 63.39 0 42.02 26.307 63.21 63.39 63.21 15.537 0 30.898-4.414 43.43-14.831 3-3.355 4.414-6.356 4.414-9.534"/></g></g></svg>