<svg xmlns="http://www.w3.org/2000/svg" viewBox="0 0 48 48"><defs><linearGradient id="0" gradientUnits="userSpaceOnUse" gradientTransform="matrix(.49433 0 0 .4778 86.64 13.1)" x1="-123.97" y1="73.5" x2="-125.19" y2="-26.05"><stop stop-color="#c52828"/><stop offset="1" stop-color="#ff5454"/></linearGradient></defs><path d="m2.982 0h42.04c1.652 0 2.982 1.33 2.982 2.982v42.04c0 1.652-1.33 2.982-2.982 2.982h-42.04c-1.652 0-2.982-1.33-2.982-2.982v-42.04c0-1.652 1.33-2.982 2.982-2.982" fill="url(#0)" fill-rule="evenodd"/><path d="m23.755 12.624l-10.374 13.279c-1.945 2.489-1.401 6.924 1.088 8.869 2.491 1.945 6.924 1.4 8.871-1.089l10.374-13.279 1.296-1.661c1.298-1.661.934-4.617-.726-5.913-1.66-1.298-4.617-.933-5.913.726l-1.298 1.661-7.781 9.96-1.298 1.661c-.649.83-.467 2.307.362 2.956.831.649 2.309.467 2.958-.363l9.08-11.618 1.66 1.298-9.08 11.618c-1.298 1.661-4.253 2.023-5.913.726-1.66-1.298-2.024-4.254-.726-5.913l1.298-1.661 9.08-11.618c1.945-2.489 6.38-3.033 8.871-1.089 2.491 1.945 3.035 6.38 1.09 8.869l-1.298 1.661-10.374 13.279c-2.594 3.319-8.507 4.045-11.826 1.452-3.32-2.593-4.046-8.506-1.452-11.827l10.374-13.279 1.66 1.298" fill="#fff" fill-opacity=".855"/></svg>