<svg xmlns="http://www.w3.org/2000/svg" viewBox="0 0 48 48"><defs><linearGradient id="0" x1="264.9" y1="544.13" x2="264.45" y2="534.56" gradientUnits="userSpaceOnUse"><stop stop-color="#d8d8d8"/><stop offset="1" stop-color="#f9f9f9"/></linearGradient><linearGradient id="1" x1="269.5" y1="543.62" x2="268.71" y2="523.22" gradientUnits="userSpaceOnUse"><stop stop-color="#cfd0d2"/><stop offset="1" stop-color="#f4f4f5"/></linearGradient><linearGradient id="2" x1="268.25" y1="539.24" x2="268.14" y2="522.76" gradientUnits="userSpaceOnUse"><stop stop-color="#0a80fd"/><stop offset="1" stop-color="#56c5fa"/></linearGradient></defs><g transform="matrix(1.12223 0 0 1.12223-433.44-563.45)"><g transform="matrix(1.84718 0 0 1.84718-88.79-462.21)"><path d="m280.32 530.14l-11.657-7.097-11.499 7.106 20.08 14.04h1.455c0 0 1.618-.012 1.623-1.505z" fill="url(#1)"/><path d="m261.23 524.02h15.15c.796 0 1.438.641 1.438 1.438v6.455l-9.455 6.516-8.57-6.071v-6.9c0-.796.641-1.438 1.438-1.438" fill="url(#2)"/><path d="m257.16 530.14l20.17 14.04h-18.551c0 0-1.618-.012-1.623-1.505z" fill="url(#0)"/></g><path d="m463.52 484.5q5.846 0 9.838 4.03 3.992 4.03 3.992 9.731 0 3.208-1.39 5.311-1.354 2.103-3.956 2.103-2.673 0-3.992-2.602-1.747 2.602-4.99 2.602-2.923 0-4.919-2.032-1.996-2.067-1.996-5.24 0-3.137 1.996-5.204 1.996-2.067 4.776-2.067 2.745 0 4.562 2.103h.143v-1.604h2.566v9.303q0 .927.499 1.675.535.749 1.604.749 2.531 0 2.531-5.097 0-4.705-3.279-7.948-3.279-3.244-7.984-3.244-4.705 0-7.984 3.244-3.279 3.244-3.279 7.948 0 4.705 3.279 7.948 3.279 3.244 7.984 3.244 2.531 0 4.527-.998l.998 2.424q-2.495 1.141-5.525 1.141-5.917 0-9.945-3.992-4.03-4.03-4.03-9.766 0-5.703 4.03-9.731 4.063-4.03 9.945-4.03m-3.315 17.216q1.283 1.248 3.065 1.248 1.782 0 3.03-1.248 1.283-1.248 1.283-3.315 0-2.067-1.283-3.315-1.248-1.248-3.03-1.248-1.782 0-3.065 1.248-1.248 1.248-1.248 3.315 0 2.067 1.248 3.315" fill="#fff" fill-opacity=".849" transform="matrix(.51813 0 0 .51813 167.49 259.6)"/></g></svg>