<svg xmlns="http://www.w3.org/2000/svg" viewBox="0 0 48 48"><defs><linearGradient y2="1.215" x2="0" y1="28.22" gradientUnits="userSpaceOnUse" id="0"><stop stop-color="#4dc003"/><stop offset="1" stop-color="#89f907"/></linearGradient></defs><g transform="matrix(1.71427 0 0 1.71427 20.789-1.488)" enable-background="new"><circle r="14" cy="14.875" cx="1.875" fill="url(#0)"/><g fill="#fff"><g fill-opacity=".85"><path d="m1.927 17.567c.74 0 1.374-.264 1.901-.791.527-.527.791-1.161.791-1.901v-4.308c0-.74-.263-1.374-.791-1.901-.527-.527-1.161-.791-1.901-.791-.74 0-1.374.264-1.901.791-.527.527-.791 1.161-.791 1.901v4.308c0 .74.264 1.374.791 1.901.527.527 1.161.791 1.901.791"/><path d="m6.613 13.419c-.106-.107-.233-.16-.379-.16-.146 0-.272.053-.379.16-.107.107-.16.233-.16.379v1.077c0 1.038-.369 1.925-1.106 2.663-.737.738-1.625 1.106-2.663 1.106-1.038 0-1.925-.369-2.663-1.106-.738-.737-1.106-1.625-1.106-2.663v-1.077c0-.146-.053-.272-.16-.379-.107-.107-.233-.16-.379-.16-.146 0-.272.053-.379.16-.107.107-.16.233-.16.379v1.077c0 1.24.414 2.318 1.241 3.235.827.917 1.849 1.443 3.067 1.577v1.111h-2.154c-.146 0-.272.053-.379.16-.107.107-.16.233-.16.379 0 .146.053.272.16.379.107.107.233.16.379.16h5.385c.146 0 .272-.053.379-.16.107-.106.16-.233.16-.379 0-.146-.053-.272-.16-.379-.106-.107-.233-.16-.379-.16h-2.154v-1.111c1.217-.135 2.239-.66 3.067-1.577.827-.917 1.241-1.995 1.241-3.235v-1.077c0-.146-.053-.272-.16-.379"/></g><g fill-opacity=".851" stroke-width="1.317"><path d="m9.897 14.876c0 .961-.409 1.883-1.121 2.53-.14.127-.315.19-.491.19-.199 0-.397-.081-.541-.24-.272-.299-.249-.762.05-1.033.408-.371.641-.898.641-1.447 0-.551-.233-1.078-.639-1.446-.299-.271-.322-.734-.051-1.033.271-.3.733-.322 1.033-.051.711.645 1.12 1.567 1.12 2.53m.738-4.128c-.285-.286-.748-.287-1.034-.002-.287.285-.288.748-.003 1.035.822.825 1.274 1.925 1.274 3.096 0 1.168-.453 2.267-1.277 3.095-.285.286-.284.749.003 1.034.142.142.329.213.516.213.188 0 .376-.072.518-.216 1.098-1.104 1.702-2.569 1.702-4.127 0-1.56-.604-3.03-1.7-4.128"/><path d="m-6.147 14.938c0 .961.409 1.883 1.121 2.53.14.127.315.19.491.19.199 0 .397-.081.541-.24.272-.299.249-.762-.05-1.033-.408-.371-.641-.898-.641-1.447 0-.551.233-1.078.639-1.446.299-.271.322-.734.051-1.033-.271-.3-.733-.322-1.033-.051-.711.645-1.12 1.567-1.12 2.53m-.738-4.128c.285-.286.748-.287 1.034-.002.287.285.288.748.003 1.035-.822.825-1.274 1.925-1.274 3.096 0 1.168.453 2.267 1.277 3.095.285.286.284.749-.003 1.034-.142.142-.329.213-.516.213-.188 0-.376-.072-.518-.216-1.098-1.104-1.702-2.569-1.702-4.127 0-1.56.604-3.03 1.7-4.128"/></g></g></g></svg>