<svg xmlns="http://www.w3.org/2000/svg" viewBox="0 0 48 48"><defs><linearGradient gradientTransform="matrix(1.05233 0 0 1.02761-72.57-8.693)" gradientUnits="userSpaceOnUse" y2="501.23" x2="409.94" y1="542.8" x1="409.57" id="0"><stop stop-color="#08f"/><stop stop-color="#02c3ff" offset="1"/></linearGradient><linearGradient y1=".854" x2="0" y2="49.956" id="1" gradientUnits="userSpaceOnUse" gradientTransform="matrix(2.63417 0 0 2.27513 149.15-57.929)"><stop stop-color="#f4f4f4"/><stop stop-color="#dbdbdb" offset="1"/></linearGradient></defs><g transform="matrix(1.35024 0 0 1.35024 1.946-1361.77)"><path transform="matrix(.3 0 0 .3 4.327 1014.32)" d="m63 48.667h-8v-16h8c8.836 0 16-7.164 16-16 0-8.836-7.164-16-16-16-8.837 0-16 7.164-16 16v8h-16v-8c0-8.836-7.164-16-16-16-8.836 0-16 7.164-16 16 0 8.836 7.164 16 16 16h8v16h-8c-8.836 0-16 7.164-16 16 0 8.836 7.164 16 16 16 8.837 0 16-7.164 16-16v-8h16v7.98c0 .008 0 .014 0 .02 0 8.836 7.164 16 16 16 8.836 0 16-7.164 16-16 0-8.836-7.163-15.998-15.999-16m0-40c4.418 0 8 3.582 8 8 0 4.418-3.582 8-8 8h-8v-8c0-4.418 3.582-8 8-8m-56 8c0-4.418 3.582-8 8-8 4.418 0 8 3.582 8 8v8h-8c-4.418 0-8-3.583-8-8m8 56c-4.418 0-8-3.582-8-8 0-4.418 3.582-8 8-8h8v8c0 4.418-3.582 8-8 8m16-24v-16h16v16h-16m32 24c-4.418 0-8-3.582-8-8v-8h7.999c4.418 0 8 3.582 8 8 0 4.418-3.581 8-7.999 8" fill="#fff" fill-opacity=".847" stroke-width="1.317"/><g transform="matrix(.76768 0 0 .87003-258.02 564.67)"><rect rx="1.644" width="46.3" height="34.939" x="334.23" y="513.13" fill="url(#0)"/><flowRoot font-size="10" letter-spacing="0" line-height="125%" word-spacing="0" text-align="start" transform="matrix(1.71835 0 0 1.71835 390.33 513.78)" font-family="sans-serif"><flowRegion><path d="m22 3h27v15h-27z"/></flowRegion><flowPara>Plasm</flowPara></flowRoot></g><g fill-rule="evenodd"><path d="m33.643 1026.34c0 6.453-3.402 12.1-8.478 15.172l-17.727-.031c-5.05-3.082-8.427-8.709-8.427-15.14 0-6.491 3.442-12.164 8.569-15.226h17.538c5.102 3.069 8.525 8.754 8.525 15.226" opacity=".9" fill-opacity=".16"/><circle cx="16.327" cy="1026.31" r="12.855" opacity=".9" fill-opacity=".2"/><circle cx="16.327" cy="1026.31" r="8" opacity=".9" fill-opacity=".232"/></g></g><g transform="matrix(.25689 0 0 .25689-18.72 24.04)" color="#000"><path d="m163.61-54.655c-6.932.077-14.385.709-19.464 5.47-7.779 7.293-6.797 12.337-7.561 22.318-1.56 20.375-.956 48.3 3.187 68.36 1.215 5.885 6.766 10.03 12.653 11.159 4.519.87 9.192 1.529 13.872 1.688 4.68-.159 9.353-.818 13.872-1.688 5.888-1.133 11.438-5.274 12.653-11.159 4.143-20.06 4.747-47.985 3.187-68.36-.764-9.981.218-15.03-7.561-22.318-5.079-4.761-12.532-5.393-19.464-5.47-.906-.0001-1.805 0-2.687 0-.882 0-1.781-.0001-2.687 0" fill="url(#1)"/><g transform="matrix(.8168 0 0 .81429 538.04 144.56)" fill="#0065b3"><circle cx="-462.61" cy="-130.51" r="2.5"/><circle cx="-458.11" cy="-123.01" r="3"/><circle cx="-460.61" cy="-138.51" r="1.5"/><path d="m-452.11-140.01l-2.844 2.844 4.375 4.375-4.531 5.156 3 2.625 7-8-7-7"/></g></g></svg>