<svg xmlns="http://www.w3.org/2000/svg" viewBox="0 0 48 48"><defs><linearGradient id="0" x1="-11.312" y1="27.344" x2="-11.896" y2="-20.22" gradientUnits="userSpaceOnUse"><stop stop-color="#8798a9"/><stop offset="1" stop-color="#aeb6be"/></linearGradient></defs><g transform="matrix(.99999 0 0 .99999 36.629 20.882)" enable-background="new"><g fill-rule="evenodd"><rect width="46.4" height="48" x="-35.823" y="-20.875" fill="url(#0)" rx="2.982"/><g fill="#2c3137"><circle cx="-30.453" cy="-16.252" r="1.672"/><circle cx="-26.04" cy="-16.252" r="1.672"/><circle cx="-21.577" cy="-16.252" r="1.672"/></g></g><path d="m-15.851-2.978c-1.326.094-2.449 1.209-2.449 2.781v7.48c0 .271-.201.503-.493.503h-2.336c-5.057.006-4.608-6.457-.303-6.465h2.583v-1.879h-2.677c-1.715 0-2.986.64-3.844 1.594-.858.955-1.289 2.24-1.291 3.521-.002 1.281.423 2.559 1.301 3.513.878.953 2.206 1.594 4.02 1.594h4.406c.291 0 .531-.251.531-.541v-9.122c-.002-.469.263-.834.608-.941.345-.106.75.028.987.371l.001.001c1.253 2.049 6.229 10.03 6.237 10.04.136.195.299.229.417.191.118-.04.239-.168.237-.485v-9.19c-.002-.469.263-.834.608-.941.345-.106.74.028.979.371v.001h.018c1.253 2.049 6.229 10.03 6.237 10.04.134.193.293.231.417.191.124-.04.249-.16.247-.475v-12.132h-1.889v7.081c0 0-1.127-1.925-3.056-5.24-1.891-3.247-5.459-1.903-5.459.892v4.348c0 0-1.107-1.925-3.038-5.24-.826-1.42-1.979-1.963-3.01-1.889m-5.344.048c-10.514 0-10.412 14.982.142 14.99h4.129c1.775 0 2.908-1.051 2.906-2.99v-3.798c0 0 2.318 3.832 3.229 5.334 1.544 2.553 5.278 2.049 5.268-1.139v-4.195c0 0 2.31 3.832 3.219 5.334 1.544 2.553 5.288 2.049 5.278-1.139v-12.399h-1.889v12.132c.002.465-.243.81-.58.92-.337.11-.724-.028-.959-.361h-.001v-.018c0 0-4.977-7.959-6.247-10.03-.004-.004-.006.004-.001 0-.002 0 .002-.001 0-.001-.13-.174-.299-.213-.437-.17-.142.044-.277.166-.275.475v9.188c.002.463-.237.828-.57.941-.333.112-.716-.036-.949-.371v-.001h-.001c0 0-4.981-7.975-6.247-10.04-.132-.189-.303-.235-.445-.191-.142.044-.277.166-.275.475v.001 9.122c0 .553-.455 1.017-1.01 1.017h-4.406c-1.933 0-3.399-.696-4.368-1.747-.969-1.051-1.446-2.445-1.444-3.836.002-1.39.479-2.793 1.424-3.844.945-1.051 2.362-1.745 4.195-1.747h2.677v-1.899h-2.344z" fill="#2c3137"/></g></svg>