<svg xmlns="http://www.w3.org/2000/svg" viewBox="0 0 48 48"><defs><linearGradient id="0" gradientUnits="userSpaceOnUse" gradientTransform="matrix(.49433 0 0 .4778 86.64 13.1)" x1="-123.97" y1="73.5" x2="-125.19" y2="-26.05"><stop stop-color="#c52828"/><stop offset="1" stop-color="#ff5454"/></linearGradient></defs><path d="m2.982 0h42.04c1.652 0 2.982 1.33 2.982 2.982v42.04c0 1.652-1.33 2.982-2.982 2.982h-42.04c-1.652 0-2.982-1.33-2.982-2.982v-42.04c0-1.652 1.33-2.982 2.982-2.982" fill="url(#0)" fill-rule="evenodd"/><path d="m20.644 14.984c-1.574.112-2.908 1.435-2.908 3.303v8.881c0 .323-.238.598-.586.598h-2.774c-6 0-5.471-7.666-.36-7.676h3.067v-2.23h-3.179c-2.036 0-3.546.76-4.564 1.892-1.018 1.132-1.53 2.66-1.532 4.182 0 1.522.502 3.037 1.545 4.172 1.043 1.13 2.62 1.892 4.778 1.892h5.23c.345 0 .631-.298.631-.643v-10.83c0-.556.313-.991.723-1.118.41-.127.892.032 1.172.44l.012.003c1.488 2.434 7.396 11.91 7.405 11.925.161.231.355.271.494.226.142-.047.283-.199.281-.576v-10.912c0-.556.313-.991.723-1.118.41-.127.879.032 1.162.44v.003h.022c1.488 2.434 7.396 11.91 7.405 11.925.159.228.348.273.494.226.147-.047.296-.191.293-.564v-14.406h-2.243v8.409c0 0-1.339-2.285-3.628-6.221-2.245-3.854-6.482-2.26-6.482 1.06v5.163c0 0-1.314-2.285-3.608-6.221-.981-1.686-2.349-2.332-3.574-2.243zm-6.345.057c-12.491 0-12.362 17.789.169 17.798h4.902c2.108 0 3.452-1.247 3.449-3.551v-4.51c0 0 2.752 4.55 3.834 6.333 1.833 3.03 6.268 2.434 6.256-1.353v-4.992c0 0 2.744 4.55 3.822 6.333 1.833 3.03 6.278 2.434 6.268-1.353v-14.722h-2.243v14.406c0 .551-.288.961-.688 1.093-.4.129-.859-.032-1.137-.43h-.012v-.003c0 0-5.91-9.449-7.418-11.915-.005 0-.008 0-.012 0 0 0 0-.003 0-.003-.154-.209-.355-.253-.519-.201-.169.052-.328.196-.325.564v10.91c0 .551-.281.983-.675 1.118-.395.134-.849-.042-1.127-.44v-.003h-.012c0 0-5.915-9.469-7.418-11.928-.156-.223-.36-.278-.529-.226-.169.052-.328.196-.325.564v.003 10.83c0 .658-.541 1.207-1.195 1.207h-5.23c-2.295 0-4.04-.827-5.185-2.074-1.15-1.247-1.716-2.903-1.714-4.554 0-1.651.569-3.318 1.691-4.564 1.122-1.247 2.804-2.071 4.992-2.074h3.179v-2.255h-2.784z" fill="#fce4e4"/></svg>