<svg xmlns="http://www.w3.org/2000/svg" viewBox="0 0 48 48"><defs><linearGradient id="0" x1=".152" y1="18.836" x2=".021" y2="7.269" gradientUnits="userSpaceOnUse"><stop stop-color="#535e66"/><stop offset="1" stop-color="#7d8b98"/></linearGradient><linearGradient id="1" x1="5.71" y1="18.227" x2="4.751" y2="-6.444" gradientUnits="userSpaceOnUse"><stop stop-color="#566069"/><stop offset="1" stop-color="#6c7884"/></linearGradient><linearGradient id="2" x1="4.199" y1="12.926" x2="4.065" y2="-6.998" gradientUnits="userSpaceOnUse"><stop stop-color="#197cf1"/><stop offset="1" stop-color="#59d0ff"/></linearGradient></defs><g transform="matrix(1.71427 0 0 1.71427 15.789 13.512)" enable-background="new"><path d="m18.792 1.925l-14.1-8.582-13.904 8.592 24.279 16.972h1.759c0 0 1.956-.014 1.962-1.82z" fill="url(#1)"/><path d="m-4.292-5.481h18.319c.963 0 1.738.775 1.738 1.738v7.805l-11.433 7.88-10.363-7.341v-8.344c0-.963.775-1.738 1.738-1.738" fill="url(#2)"/><path d="m-9.208 1.925l24.395 16.972h-22.433c0 0-1.956-.014-1.962-1.82z" fill="url(#0)"/><path d="m2.394.652c.101 0 .2.015.292.044.35-.392.738-.749 1.158-1.065-.018-.074-.027-.152-.027-.231 0-.11.018-.216.052-.315-.471-.337-.983-.62-1.527-.839-.51.315-.955.726-1.31 1.208.263.467.576.901.932 1.297.13-.063.275-.098.43-.098m-.993.993c0-.139.029-.272.081-.392-.319-.351-.607-.728-.86-1.131-.317.63-.497 1.342-.497 2.095 0 .872.24 1.688.657 2.387.149-.839.432-1.633.822-2.36-.127-.166-.202-.375-.202-.6m3.409-3.238c.262 0 .5.102.678.268.518-.223 1.063-.394 1.631-.503-.685-.395-1.48-.622-2.327-.622-.578 0-1.131.106-1.641.298.405.2.792.434 1.155.697.148-.088.32-.139.505-.139zm1.484 4.676c.062-.129.15-.243.258-.333-.293-.901-.757-1.727-1.355-2.436-.119.051-.25.078-.388.078-.216 0-.414-.069-.577-.185-.36.273-.693.58-.996.915.095.152.151.331.151.523 0 .103-.016.203-.046.297.871.581 1.874.981 2.953 1.141m1.288 1.341c.013.188.021.377.021.569 0 .337-.021.669-.062.995.791-.578 1.394-1.399 1.698-2.353-.36.087-.729.15-1.106.185-.088.272-.29.492-.55.605m-1.52-.673c-1.152-.191-2.22-.631-3.15-1.26-.151.092-.328.147-.518.147-.071 0-.138-.007-.204-.021-.445.843-.729 1.784-.811 2.782.444.477.986.861 1.595 1.118.757-1.163 1.814-2.125 3.088-2.766m1.863-4.993c-.748.073-1.462.261-2.127.542.003.033.005.066.005.1 0 .157-.038.304-.102.436.665.781 1.18 1.689 1.506 2.684.404.008.749.255.898.606.449-.046.887-.132 1.308-.256.03-.213.047-.431.047-.653-.0001-1.372-.592-2.605-1.534-3.459m-1.363 5.523c-1.189.557-2.183 1.415-2.903 2.463.363.091.742.139 1.133.139.704 0 1.371-.157 1.969-.436.096-.471.147-.957.147-1.455 0-.18-.008-.359-.022-.535-.12-.039-.23-.098-.325-.177" fill="#fff" fill-opacity=".846"/></g></svg>