<svg xmlns="http://www.w3.org/2000/svg" viewBox="0 0 48 48"><defs><linearGradient id="0" x1="-26.21" y1="59.52" x2="-27.529" y2="34.05" gradientUnits="userSpaceOnUse"><stop stop-color="#d5dbff"/><stop offset="1" stop-color="#f9ffff"/></linearGradient><linearGradient id="1" x1="556.45" y1="468.21" x2="555.31" y2="419.6" gradientUnits="userSpaceOnUse"><stop stop-color="#566069"/><stop offset="1" stop-color="#6c7884"/></linearGradient><linearGradient id="2" x1="-109.5" y1="31.556" x2="-109.61" y2="1.264" gradientUnits="userSpaceOnUse"><stop stop-color="#1365f4"/><stop offset="1" stop-color="#05b2fc"/></linearGradient></defs><g transform="matrix(.80031-.01103.01103.80031 31.33-2.991)"><rect width="76.81" height="58.987" x="504.27" y="424.19" transform="matrix(-.66071-.01326-.01326.66071 354.61-267.73)" rx="2.3" fill="url(#1)"/><rect transform="matrix(-1.22665-.2373-.2373 1.22665-139.16-7.543)" width="40.627" height="31.2" x="-130.49" y=".696" rx="1.217" fill="url(#2)"/><path d="m-26.714959 33.939519a13.07691 13.07691 0 0 0 -13.07769 13.07751 13.07691 13.07691 0 0 0 13.07755 13.07488 13.07691 13.07691 0 0 0 13.07765 -13.0747 13.07691 13.07691 0 0 0 -13.07751 -13.07769m-3.955 7.557l9.557 5.435-9.484 5.561-.074-10.996" fill="url(#0)"/></g><g fill="#d9eaf7"><path d="m39.921 31.491l-2.553-2.554c-.243-.243-.167-.503.168-.578 0 0 .277-.062.618-.404.732-.732.732-1.92 0-2.651-.733-.732-1.919-.732-2.651 0-.341.341-.403.618-.403.618-.075.336-.336.411-.578.167l-2.553-2.552c-.243-.243-.641-.243-.884 0l-2.553 2.553c-.243.244-.167.504.168.579 0 0 .277.062.618.403.731.732.732 1.919 0 2.652-.732.732-1.92.731-2.651 0-.341-.341-.403-.618-.403-.618-.075-.336-.336-.411-.579-.168l-2.553 2.553c-.243.243-.243.64 0 .883l2.553 2.553c.243.243.167.503-.168.579 0 0-.277.062-.618.404-.732.732-.732 1.919 0 2.651.732.731 1.919.732 2.651 0 .341-.341.403-.618.403-.618.075-.336.336-.411.578-.167l2.553 2.552c.243.243.641.243.884 0l2.554-2.553c.243-.243.167-.504-.168-.579 0 0-.278-.062-.618-.403-.733-.732-.732-1.919 0-2.652.732-.732 1.919-.732 2.651 0 .341.341.403.618.403.618.075.336.336.411.579.168l2.553-2.554c.243-.243.243-.64 0-.883"/><path d="m20.532 16.15l-1.681 1.93c-.16.184-.347.143-.417-.09 0 0-.058-.193-.315-.417-.553-.482-1.393-.423-1.874.129-.482.554-.424 1.392.129 1.874.258.225.456.255.456.255.241.037.307.217.147.401l-1.68 1.93c-.16.184-.141.465.043.625l1.929 1.68c.184.16.364.094.401-.147 0 0 .031-.199.255-.456.482-.553 1.321-.611 1.875-.129.553.482.611 1.322.129 1.874-.225.258-.417.315-.417.315-.234.069-.274.257-.09.417l1.93 1.68c.184.16.464.14.624-.043l1.681-1.929c.16-.184.348-.143.417.09 0 0 .058.193.315.417.553.482 1.392.424 1.874-.129.481-.553.424-1.392-.129-1.874-.258-.225-.456-.255-.456-.255-.241-.037-.307-.217-.147-.401l1.68-1.93c.16-.184.141-.465-.043-.625l-1.929-1.681c-.184-.16-.364-.094-.401.147 0 0-.031.199-.255.457-.482.554-1.321.611-1.875.129-.553-.482-.611-1.321-.129-1.874.224-.258.417-.315.417-.315.234-.07.274-.257.091-.417l-1.93-1.68c-.184-.16-.464-.14-.624.043"/></g></svg>