<svg xmlns="http://www.w3.org/2000/svg" viewBox="0 0 48 48"><defs><linearGradient gradientTransform="matrix(-.56777 0 0 .61822 579.27 212.13)" gradientUnits="userSpaceOnUse" y2="507.87" x2="0" y1="546.8" id="0"><stop stop-color="#d3d3d3"/><stop offset="1" stop-color="#fcf9f9"/></linearGradient><linearGradient id="1" gradientUnits="userSpaceOnUse" x1="355.15" y1="550.89" x2="355.35" y2="504.14"><stop stop-color="#97a9b1"/><stop stop-color="#cfdce1" offset="1"/></linearGradient></defs><g transform="matrix(.9746 0 0 .9746-322.33-489.99)"><path d="m372.72 511.01c-4.644-3.779-10.81-5.86-17.362-5.86-6.552 0-12.718 2.081-17.362 5.86-4.684 3.812-7.264 8.892-7.264 14.306 0 5.167 2.351 10.03 6.638 13.776-.077.174-.139.357-.178.549l-1.409 6.928c-.167.823.058 1.314.276 1.581.252.308.626.478 1.052.478.322 0 .668-.095 1.029-.283l8.193-4.256c2.836.913 5.886 1.392 9.02 1.392 6.552 0 12.718-2.081 17.362-5.86 4.684-3.812 7.264-8.892 7.264-14.306 0-5.413-2.58-10.494-7.264-14.306" fill="url(#1)"/><g fill="#50575b"><path d="m345.81 518.72c0-1.592 1.294-2.884 2.89-2.884 1.596 0 2.89 1.292 2.89 2.884 0 1.593-1.294 2.885-2.89 2.885-1.596 0-2.89-1.292-2.89-2.885"/><path d="m358.91 518.72c0-1.592 1.296-2.884 2.891-2.884 1.596 0 2.89 1.292 2.89 2.884 0 1.593-1.294 2.885-2.89 2.885-1.595 0-2.891-1.292-2.891-2.885"/><path d="m365.75 535.38c-1.787-4.133-5.987-6.805-10.686-6.805-4.802 0-9.02 2.685-10.748 6.838-.296.711.042 1.528.755 1.824.175.072.357.107.536.107.549 0 1.069-.324 1.292-.861 1.294-3.109 4.5-5.118 8.168-5.118 3.583 0 6.772 2.01 8.12 5.122.307.708 1.13 1.034 1.838.726.71-.306 1.037-1.127.73-1.834"/></g><g><path d="m358.65 529.15c2.322-2.058 5.405-3.191 8.681-3.191 3.276 0 6.359 1.133 8.681 3.191 2.342 2.075 3.632 4.841 3.632 7.788 0 2.813-1.176 5.46-3.319 7.5.039.095.069.194.089.299l.704 3.772c.084.448-.029.716-.138.861-.126.168-.313.26-.526.26-.161 0-.334-.052-.514-.154l-4.096-2.317c-1.418.497-2.943.758-4.512.758-3.276 0-6.359-1.133-8.681-3.191-2.342-2.075-3.632-4.841-3.632-7.788 0-2.947 1.29-5.713 3.632-7.788" fill="url(#0)"/><g transform="matrix(1.07327 0 0 1.07327-59.63-48.551)" fill="#50575b"><circle r="2.084" cy="545.5" cx="393.04" opacity=".837"/><circle r="2.084" cy="545.5" cx="397.79" opacity=".837"/><circle r="2.084" cy="545.5" cx="402.78" opacity=".837"/></g></g></g></svg>