<svg xmlns="http://www.w3.org/2000/svg" viewBox="0 0 48 48"><defs><linearGradient id="0" x1="-1092.91" y1="203.1" x2="-1060.26" y2="104.85" gradientUnits="userSpaceOnUse" gradientTransform="matrix(.3555 0 0 .3508 349.46-59.704)"><stop stop-color="#f2b333"/><stop offset="1" stop-color="#fcde3f"/></linearGradient><linearGradient id="1" x1="-989.67" y1="433.28" x2="-1003.64" y2="317.35" gradientUnits="userSpaceOnUse" gradientTransform="matrix(.35601 0 0 .35122 333.42-126.63)"><stop stop-color="#e7f0f4"/><stop offset="1" stop-color="#f4faff"/></linearGradient></defs><g transform="matrix(.99999 0 0 .99999 46.629 15.882)" enable-background="new"><rect transform="matrix(.94912-.31493.30721.95164 0 0)" y="-20.223" x="-41.792" height="40.21" width="31.911" fill="url(#0)" rx=".981"/><rect transform="matrix(.9921-.12541.13781.99046 0 0)" y="-15.534" x="-38.864" height="43.17" width="35.539" fill="url(#1)" rx="1.054"/><path d="m-10.466.751l-1.154-.83c-.475-.342-1.143-.233-1.488.243l-8.704 12.1-6.339-4.56c-.475-.342-1.143-.233-1.488.243l-.83 1.154c-.342.475-.233 1.143.243 1.488l8.354 6.01c.24.172.522.234.791.19.269-.044.521-.193.69-.432l10.158-14.12c.351-.484.243-1.148-.232-1.49" opacity=".7"/></g></svg>