<svg xmlns="http://www.w3.org/2000/svg" viewBox="0 0 48 48"><defs><linearGradient gradientUnits="userSpaceOnUse" y2="836.28" x2="642.04" y1="866.78" id="0" gradientTransform="matrix(.90417 0 0 .90535-551.46-761.78)" x1="642.31"><stop stop-color="#2e3e46"/><stop stop-color="#47606a" offset="1"/></linearGradient><linearGradient id="1" y1="540.63" x2="0" y2="523.26" gradientUnits="userSpaceOnUse"><stop stop-color="#ff9300"/><stop stop-color="#ffd702" offset="1"/></linearGradient></defs><g enable-background="new"><ellipse ry="13.321" rx="13.312" cx="28.13" cy="9.04" fill="url(#0)" stroke="url(#0)" stroke-width="1.358" transform="matrix(1.71427 0 0 1.71427-24.22 8.503)"/></g><path d="m401.32 523.81l-2.858.275v11.775l2.828-.428v-5.02l3.805 5.57 2.98-.947-3.897-5.356 3.927-5.05-3.042-.696-3.774 5.05.031-5.173m-6.48 2.871c-.032.002-.067.012-.092.037l-1.124 1.124c-.047.047-.053.12-.017.177l1.313 2.168c-.233.392-.422.812-.556 1.258l-2.412.501c-.067.015-.116.078-.116.147v1.588c0 .067.051.125.116.14l2.339.568c.125.516.318 1.01.574 1.46l-1.356 2.064c-.038.058-.03.135.017.183l1.124 1.124c.047.047.12.053.177.017l2.125-1.289c.417.241.868.433 1.344.562l.495 2.382c.015.067.072.116.14.116h1.588c.067 0 .125-.045.14-.11l.586-2.394c.49-.132.953-.328 1.38-.58l2.095 1.374c.058.038.134.03.183-.017l1.118-1.124c.048-.047.059-.12.024-.177l-.763-1.258-.25.079c-.036.012-.076-.005-.098-.037 0 0-.482-.709-1.112-1.631-.753 1.473-2.288 2.48-4.055 2.48-2.512 0-4.55-2.038-4.55-4.55 0-1.848 1.105-3.435 2.687-4.147v-1.173c-.288.101-.566.222-.831.366 0 0 0-.005 0-.007l-2.144-1.405c-.029-.02-.059-.022-.092-.017" fill="url(#1)" transform="matrix(1.71428 0 0 1.71428-662.46-887.8)"/></svg>