<svg xmlns="http://www.w3.org/2000/svg" xmlns:xlink="http://www.w3.org/1999/xlink" viewBox="0 0 48 48"><defs><path id="1" d="m50.19 53.628l.566-.051c4.266-.5 7.585-4.134 7.585-8.529 0-5.868-13.207-17.812-13.207-17.812-.504-.559-1.221-.559-1.725 0 0 0-13.207 11.944-13.207 17.812 0 4.396 3.32 8.03 7.585 8.529l.567.051c.146.009.291.011.439.011 1.227 0 2.408-.256 3.492-.736.387 5.275-8.202 6.465-8.01 6.381v2.443h19.999v-2.443c.188.084-8.4-1.104-8.02-6.381 1.084.48 2.267.736 3.492.736.152 0 .297-.002.443-.011" fill-opacity=".851" fill="#fff"/><linearGradient id="0" x1="211.38" y1="214.74" x2="207.4" y2="118.42" gradientUnits="userSpaceOnUse"><stop stop-color="#2b65bd"/><stop offset="1" stop-color="#64a3dc"/></linearGradient></defs><rect width="97.1" height="100.46" x="160.84" y="115.15" fill="url(#0)" rx="5.581" stroke-width="1" fill-rule="evenodd" transform="matrix(.43254 0 0 .4778-66.57-55.02)"/><use transform="matrix(.54798 0 0 .54798-.132.758)" xlink:href="#1"/><use transform="matrix(.17573 0 0 .17573 31.15 34.719)" xlink:href="#1"/><use transform="matrix(.17573 0 0 .17573 1.297-2.283)" xlink:href="#1"/></svg>