<svg xmlns="http://www.w3.org/2000/svg" viewBox="0 0 48 48"><defs><linearGradient id="0" x1="25.313" y1="49.17" x2="24.729" y2="1.607" gradientUnits="userSpaceOnUse"><stop stop-color="#dc3c30"/><stop offset="1" stop-color="#ff786d"/></linearGradient></defs><g transform="translate(0-.951)" fill="#fce5e3"><g fill-rule="evenodd"><rect width="46.4" height="48" x=".802" y=".951" fill="url(#0)" rx="2.982" stroke-width=".478"/><g fill="#6c2621" transform="matrix(.4778 0 0 .4778 84.55 14.05)"><circle cx="-164.03" cy="-17.745" r="3.5"/><circle cx="-154.79" cy="-17.745" r="3.5"/><circle cx="-145.46" cy="-17.745" r="3.5"/></g></g><g fill="#6c2621"><path transform="matrix(2.10252 0 0 2.10252-21.452-2127.16)" d="m17.799 1020.34c2.099 0 3.801 1.699 3.801 3.798h-3.801c.0001 0 .0001-3.798 0-3.798m-1.069 1.033v3.801h3.801c0 2.102-1.701 3.801-3.801 3.801-2.1 0-3.8-1.7-3.8-3.801 0-2.1 1.7-3.801 3.8-3.801"/><g fill-rule="evenodd"><rect width="14.261" height="2.732" x="27.12" y="21.481" rx="1.366"/><rect y="26.311" x="27.14" height="2.777" width="14.07" rx="1.366"/><rect y="31.3" x="27.16" height="2.719" width="14.224" rx="1.36"/></g></g></g></svg>