<svg xmlns="http://www.w3.org/2000/svg" viewBox="0 0 48 48"><defs><linearGradient id="0" x1="67.4" y1="24.832" x2="66.71" y2="-20.09" gradientUnits="userSpaceOnUse"><stop stop-color="#f16419"/><stop offset="1" stop-color="#feb600"/></linearGradient></defs><g enable-background="new"><circle cx="67.37" cy="3.125" r="24" fill="url(#0)" fill-rule="evenodd" transform="matrix(.99999 0 0 .99999-43.37 20.882)"/></g><g transform="matrix(1.09594 0 0 1.09594 9.5 9)" fill="#feeddc"><path d="m3.141 23.92c-.46.458-.46 1.202-.003 1.66.461.459 1.204.459 1.663 0l7.324-7.324-1.661-1.661-7.323 7.325"/><path d="m27.19 6.869c-.243-.246-.642-.246-.89.0001l-5.157 5.158-.891-.89 5.159-5.159c.247-.247.247-.644.003-.89-.249-.247-.645-.246-.891.0001l-5.16 5.159-.892-.892 5.16-5.157c.246-.248.246-.646.002-.892-.246-.245-.646-.245-.893.002l-5.157 5.16-.892-.89 5.158-5.159c.249-.247.249-.646.003-.891-.246-.248-.645-.248-.892 0l-5.337 5.337c-.04.04-.063.091-.092.138-1.622 1.818-1.634 3.689-.652 5.214-.037.028-.083.042-.115.075l-1.227 1.226 1.661 1.661 1.227-1.226c.034-.033.047-.077.076-.114 1.521.979 3.393.967 5.213-.654.049-.025.098-.051.139-.091l5.335-5.336c.251-.246.251-.646.002-.891"/><path d="m10.173 11.57c-.058-.055-.126-.082-.188-.124.856-1.803.24-4.389-1.683-6.311-2.291-2.293-5.545-2.758-7.264-1.04-1.719 1.72-1.256 4.974 1.036 7.267 1.923 1.923 4.508 2.54 6.311 1.684.042.062.071.13.126.185l12.453 12.454c.46.458 1.201.459 1.662 0 .459-.458.457-1.201-.0001-1.66l-12.452-12.455"/></g></svg>