<svg xmlns="http://www.w3.org/2000/svg" viewBox="0 0 48 48"><defs><linearGradient id="0" y1="62.12" x2="0" y2="14.12" gradientUnits="userSpaceOnUse"><stop stop-color="#1365f4"/><stop offset="1" stop-color="#05b2fc"/></linearGradient></defs><g transform="matrix(.99999 0 0 .99999-48.37-14.12)" enable-background="new"><rect width="48" height="48" x="48.37" y="14.12" fill="url(#0)" rx="24"/><path d="m78.68 41.956c-1.456 0-2.74.694-3.579 1.757l-7.781-3.983c.102-.38.175-.773.175-1.187 0-.45-.087-.874-.208-1.286l7.747-3.965c.834 1.111 2.152 1.837 3.647 1.837 2.534 0 4.584-2.052 4.584-4.585 0-2.532-2.05-4.584-4.584-4.584-2.528 0-4.58 2.053-4.58 4.584 0 .415.073.809.176 1.19l-7.779 3.983c-.84-1.064-2.126-1.761-3.584-1.761-2.531 0-4.58 2.054-4.58 4.587 0 2.533 2.049 4.585 4.58 4.585 1.498 0 2.814-.729 3.652-1.841l7.743 3.965c-.121.411-.209.839-.209 1.29 0 2.533 2.052 4.585 4.58 4.585 2.534 0 4.583-2.053 4.583-4.585 0-2.535-2.05-4.587-4.583-4.587" fill="#001534" fill-opacity=".817"/></g></svg>