<?xml version="1.0" encoding="UTF-8" standalone="no"?>
<svg
   xmlns:dc="http://purl.org/dc/elements/1.1/"
   xmlns:cc="http://creativecommons.org/ns#"
   xmlns:rdf="http://www.w3.org/1999/02/22-rdf-syntax-ns#"
   xmlns:svg="http://www.w3.org/2000/svg"
   xmlns="http://www.w3.org/2000/svg"
   xmlns:xlink="http://www.w3.org/1999/xlink"
   id="SVGRoot"
   version="1.1"
   viewBox="0 0 48 48"
   height="48px"
   width="48px">
  <defs
     id="defs1007">
    <linearGradient
       gradientTransform="translate(1.5e-6,-7.186e-4)"
       gradientUnits="userSpaceOnUse"
       y2="4.8749943"
       x2="29.124996"
       y1="38.999996"
       x1="2.75"
       id="linearGradient1738"
       xlink:href="#linearGradient1736" />
    <linearGradient
       id="linearGradient1736">
      <stop
         id="stop1732"
         offset="0"
         style="stop-color:#34f8af;stop-opacity:0.94117647" />
      <stop
         id="stop1734"
         offset="1"
         style="stop-color:#7af4e2;stop-opacity:0.18099548" />
    </linearGradient>
    <linearGradient
       gradientTransform="translate(-1.0000001e-7,-7.186e-4)"
       gradientUnits="userSpaceOnUse"
       y2="15.749994"
       x2="28.749996"
       y1="35.944389"
       x1="46"
       id="linearGradient1748"
       xlink:href="#linearGradient1746" />
    <linearGradient
       id="linearGradient1746">
      <stop
         id="stop1742"
         offset="0"
         style="stop-color:#feef11;stop-opacity:1;" />
      <stop
         id="stop1744"
         offset="1"
         style="stop-color:#feef11;stop-opacity:0;" />
    </linearGradient>
    <linearGradient
       gradientTransform="translate(-1.0000001e-7,-7.186e-4)"
       gradientUnits="userSpaceOnUse"
       y2="45.961273"
       x2="26.525362"
       y1="31.723986"
       x1="27.284924"
       id="linearGradient969"
       xlink:href="#linearGradient967" />
    <linearGradient
       id="linearGradient967">
      <stop
         id="stop963"
         offset="0"
         style="stop-color:#3a79fd;stop-opacity:1;" />
      <stop
         id="stop965"
         offset="1"
         style="stop-color:#dfeb37;stop-opacity:1" />
    </linearGradient>
    <linearGradient
       gradientTransform="translate(-1.0000001e-7,-7.186e-4)"
       gradientUnits="userSpaceOnUse"
       y2="42.744854"
       x2="35.299366"
       y1="24.592312"
       x1="35.299366"
       id="linearGradient977"
       xlink:href="#linearGradient975" />
    <linearGradient
       id="linearGradient975">
      <stop
         id="stop971"
         offset="0"
         style="stop-color:#bb6bff;stop-opacity:1;" />
      <stop
         id="stop973"
         offset="1"
         style="stop-color:#eeea2d;stop-opacity:1" />
    </linearGradient>
    <linearGradient
       gradientTransform="matrix(1.0012576,0,0,1.0012576,16.523524,10.493745)"
       gradientUnits="userSpaceOnUse"
       y2="28.271175"
       x2="24.761248"
       y1="22.874729"
       x1="22.062117"
       id="linearGradient944"
       xlink:href="#linearGradient941" />
    <linearGradient
       id="linearGradient941">
      <stop
         style="stop-color:#aaaaaa;stop-opacity:1"
         offset="0"
         id="stop937" />
      <stop
         id="stop943"
         offset="0.78410405"
         style="stop-color:#2a2a2a;stop-opacity:1" />
      <stop
         style="stop-color:#333333;stop-opacity:1"
         offset="1"
         id="stop939" />
    </linearGradient>
    <linearGradient
       gradientTransform="matrix(1.0012576,0,0,1.0012576,16.327965,10.452699)"
       gradientUnits="userSpaceOnUse"
       y2="28.982126"
       x2="23.616724"
       y1="35.230782"
       x1="27.224386"
       id="linearGradient952"
       xlink:href="#linearGradient950" />
    <linearGradient
       id="linearGradient950">
      <stop
         id="stop946"
         offset="0"
         style="stop-color:#999999;stop-opacity:1" />
      <stop
         style="stop-color:#808080;stop-opacity:1"
         offset="0.30666909"
         id="stop1189" />
      <stop
         style="stop-color:#2b2b2b;stop-opacity:1"
         offset="0.75545245"
         id="stop945" />
      <stop
         id="stop948"
         offset="1"
         style="stop-color:#161616;stop-opacity:1" />
    </linearGradient>
    <linearGradient
       gradientTransform="translate(-1.0000001e-7,-7.186e-4)"
       gradientUnits="userSpaceOnUse"
       y2="47.86721"
       x2="19.245987"
       y1="33.629921"
       x1="18.788361"
       id="linearGradient961"
       xlink:href="#linearGradient959" />
    <linearGradient
       id="linearGradient959">
      <stop
         id="stop955"
         offset="0"
         style="stop-color:#1dbbe8;stop-opacity:1;" />
      <stop
         id="stop957"
         offset="1"
         style="stop-color:#bde74d;stop-opacity:1" />
    </linearGradient>
    <linearGradient
       gradientTransform="translate(0.1525423,0.7620279)"
       gradientUnits="userSpaceOnUse"
       y2="45.037292"
       x2="11.565831"
       y1="30.444071"
       x1="11.667526"
       id="linearGradient953"
       xlink:href="#linearGradient951" />
    <linearGradient
       id="linearGradient951">
      <stop
         id="stop947"
         offset="0"
         style="stop-color:#05eed7;stop-opacity:1;" />
      <stop
         style="stop-color:#18edd1;stop-opacity:1"
         offset="0.48416078"
         id="stop979" />
      <stop
         id="stop949"
         offset="1"
         style="stop-color:#89f175;stop-opacity:1" />
    </linearGradient>
    <linearGradient
       y2="32.6502"
       x2="36.970001"
       y1="33.05032"
       x1="17.704529"
       gradientTransform="matrix(-1.3960436,0.37406877,0.37406877,1.3960436,49.383879,-31.468725)"
       gradientUnits="userSpaceOnUse"
       id="linearGradient1764"
       xlink:href="#linearGradient1782" />
    <linearGradient
       id="linearGradient1782"
       gradientUnits="userSpaceOnUse"
       x1="16.636499"
       y1="32.6502"
       x2="36.970001"
       y2="32.6502"
       gradientTransform="translate(-71.3817,-5.8927)">
      <stop
         offset="0"
         style="stop-color:#cd69ff;stop-opacity:1"
         id="stop1776" />
      <stop
         offset="0.41336209"
         style="stop-color:#3b77fd;stop-opacity:1"
         id="stop1778" />
      <stop
         offset="1"
         style="stop-color:#03f4d6;stop-opacity:1"
         id="stop1780" />
    </linearGradient>
  </defs>
  <metadata
     id="metadata1010">
    <rdf:RDF>
      <cc:Work
         rdf:about="">
        <dc:format>image/svg+xml</dc:format>
        <dc:type
           rdf:resource="http://purl.org/dc/dcmitype/StillImage" />
        <dc:title></dc:title>
      </cc:Work>
    </rdf:RDF>
  </metadata>
  <g
     id="layer1">
    <rect
       rx="2.869565"
       ry="2.869565"
       y="1.9992523"
       x="2"
       height="43.999996"
       width="43.999996"
       id="rect1408"
       style="opacity:1;fill:#f892ef;fill-opacity:1;stroke:none;stroke-width:0.89189738;stroke-linecap:butt;stroke-linejoin:miter;stroke-miterlimit:4;stroke-dasharray:none;stroke-opacity:1;paint-order:normal" />
    <rect
       rx="2.869565"
       style="opacity:1;fill:url(#linearGradient1738);fill-opacity:1;stroke:none;stroke-width:0.89189738;stroke-linecap:butt;stroke-linejoin:miter;stroke-miterlimit:4;stroke-dasharray:none;stroke-opacity:1;paint-order:normal"
       id="rect1726"
       width="43.999996"
       height="43.999996"
       x="2"
       y="1.9992523"
       ry="2.869565" />
    <rect
       rx="2.869565"
       ry="2.869565"
       y="1.9992523"
       x="2"
       height="43.999996"
       width="43.999996"
       id="rect1740"
       style="opacity:1;fill:url(#linearGradient1748);fill-opacity:1;stroke:none;stroke-width:0.89189738;stroke-linecap:butt;stroke-linejoin:miter;stroke-miterlimit:4;stroke-dasharray:none;stroke-opacity:1;paint-order:normal" />
    <path
       id="path925"
       d="m 26.558594,28.114545 c -0.659081,0 -1.17168,0.496025 -1.398438,1.150374 -0.226756,0.65435 1.172239,2.474533 1.074219,3.289059 -0.186871,1.553045 -1.63429,2.245908 -1.285156,3.919937 0.434874,1.602671 1.043294,2.461001 1.027343,3.738293 -0.0147,1.176151 -1.093099,2.248668 -1.03125,3.423798 0.04405,0.836825 0.830915,1.561512 1.087891,2.363301 h 2.796875 c -0.256978,-0.801789 -1.045801,-1.526476 -1.089844,-2.363301 -0.06186,-1.17513 1.018513,-2.247647 1.033204,-3.423798 0.01595,-1.277292 -0.368542,-2.155994 -1.027344,-3.738293 0,-1.632567 0.809243,-2.299578 1.099609,-3.919937 0.143324,-0.799786 -0.511886,-2.689021 -0.888672,-3.289059 -0.376785,-0.600037 -0.739357,-1.150374 -1.398437,-1.150374 z"
       style="opacity:1;vector-effect:none;fill:url(#linearGradient969);fill-opacity:1;stroke:none;stroke-width:0.49999997;stroke-linecap:butt;stroke-linejoin:miter;stroke-miterlimit:4;stroke-dasharray:none;stroke-dashoffset:0;stroke-opacity:1" />
    <path
       id="path927"
       d="m 35.399435,18.419149 c 0.502738,-0.048 0.970487,0.09298 1.347272,0.692939 0.376785,0.600038 0.392512,2.283137 0.175669,3.493228 -0.216843,1.210092 -1.099401,2.286501 -1.099401,3.919068 0.658802,1.582299 1.043869,2.46017 1.027921,3.737461 -0.0147,1.176152 -1.09417,2.249802 -1.032312,3.424933 0.0523,0.993713 1.161375,1.828611 1.173987,2.823194 0.01119,0.883955 -0.653047,1.684384 -0.979572,2.526576 -0.235431,0.607257 0.337648,1.9056 -0.436912,1.9056 -0.774559,0 -2.59476,-1.298343 -2.359328,-1.9056 0.326525,-0.842192 0.990781,-1.642621 0.979571,-2.526576 -0.01262,-0.994583 -1.121679,-1.829481 -1.173987,-2.823194 -0.06185,-1.175131 1.017625,-2.248781 1.032312,-3.424933 0.01595,-1.277291 -0.593046,-2.134828 -1.02792,-3.737461 -0.349134,-1.674066 0.786389,-2.938696 0.928834,-4.122444 0.142446,-1.183786 0.07323,-2.432126 0.299981,-3.086476 0.226756,-0.654349 0.661653,-0.850431 1.143885,-0.896315 z"
       style="opacity:1;vector-effect:none;fill:url(#linearGradient977);fill-opacity:1;stroke:none;stroke-width:0.49999997;stroke-linecap:butt;stroke-linejoin:miter;stroke-miterlimit:4;stroke-dasharray:none;stroke-dashoffset:0;stroke-opacity:1" />
    <path
       id="path1412"
       d="M 38.363456,33.115918 A 8.8773329,13.28159 51.253564 0 1 32.219018,43.204762 8.8773329,13.28159 51.253564 0 1 30.57242,44.374186 L 46,35.99452 a 8.7514361,5.8494055 36.253564 0 1 -6.854314,-2.252826 8.7514361,5.8494055 36.253564 0 1 -0.78223,-0.625776 z"
       style="opacity:1;fill:url(#linearGradient944);fill-opacity:1;stroke-width:0.35998923" />
    <path
       id="path1414"
       d="m 46,35.944592 -17.314453,9.402369 h -0.002 l -1.146485,0.624982 15.558639,0.02646 c 1.590557,0.0028 2.875529,-1.274684 2.880858,-2.86526 z"
       style="opacity:1;fill:url(#linearGradient952);fill-opacity:1;stroke-width:0.35998923" />
    <path
       id="rect1930"
       d="m 18.03125,31.796182 c -8.85e-4,0.0036 -0.0011,0.0076 -0.002,0.01134 -0.27481,1.145046 -1.115654,2.590942 0,4.626973 1.115654,2.035994 0.741714,3.608844 0,5.150363 -0.739604,1.537133 -0.748049,3.342954 -0.0059,4.416037 h 2.839843 c -0.08223,-0.383848 -0.17475,-0.724875 -0.289062,-0.955086 -0.627028,-1.262816 -0.506642,-2.188309 0,-3.136706 0.506642,-0.948434 1.123846,-3.036775 0,-5.632819 -1.123846,-2.596082 -0.104531,-3.284145 0,-4.468762 3.15e-4,-0.0036 -3.01e-4,-0.0076 0,-0.01134 z"
       style="opacity:1;fill:url(#linearGradient961);fill-opacity:1;stroke:none;stroke-width:0.26767844;stroke-miterlimit:4;stroke-dasharray:none;stroke-opacity:1" />
    <path
       id="rect905"
       d="m 11.144531,26.579376 c -0.659081,0 -1.1697266,0.496025 -1.3964842,1.150375 -0.2267603,0.654387 1.1702822,2.476498 1.0722652,3.291024 -0.186868,1.553007 -1.63429,2.243943 -1.2851562,3.917971 0.4348747,1.602671 1.0432992,2.461002 1.0273442,3.738293 -0.0147,1.176189 -1.0931027,2.250633 -1.0312503,3.425764 0.052309,0.993713 1.1612143,1.827704 1.1738283,2.822287 0.0047,0.370393 -0.121474,0.724119 -0.279296,1.074217 h 2.796875 c 0.157822,-0.349984 0.283979,-0.704013 0.279296,-1.074217 -0.01262,-0.994583 -1.123481,-1.828574 -1.175781,-2.822287 -0.06186,-1.175131 1.018513,-2.249575 1.033203,-3.425764 0.01595,-1.277291 -0.368542,-2.155956 -1.027344,-3.738293 0,-1.632529 0.809244,-2.297612 1.09961,-3.917971 0.143323,-0.799786 -0.511886,-2.690986 -0.888672,-3.291024 -0.376785,-0.6 -0.739358,-1.150375 -1.398438,-1.150375 z"
       style="opacity:1;vector-effect:none;fill:url(#linearGradient953);fill-opacity:1;stroke:none;stroke-width:0.49999997;stroke-linecap:butt;stroke-linejoin:miter;stroke-miterlimit:4;stroke-dasharray:none;stroke-dashoffset:0;stroke-opacity:1" />
    <path
       id="path1750"
       d="m 9.9682882,27.87719 c -0.9931533,-3.706507 1.2396418,-7.524775 4.9866228,-8.528768 2.269967,-0.60824 4.564442,-0.03024 6.250894,1.332586 l 0.0058,-0.01134 c 0,0 2.718378,2.539465 5.782126,1.78885 3.191537,-0.781833 8.437748,-3.2993 8.914918,-10.425222 0,0 4.471781,8.195414 -2.998956,15.835163 -8.268929,8.458091 -17.242747,5.066041 -17.272638,5.060598 l 0.0038,-0.0076 C 13.10575,32.010217 10.701088,30.613606 9.9682882,27.878778 Z"
       style="fill:url(#linearGradient1764);stroke-width:0.99999994" />
    <path
       style="fill:#2e2e2e;fill-opacity:1;stroke-width:0.88320053"
       d="m 10.400792,22.988674 c -2.1860474,3.682393 -0.6724951,6.631143 0.219601,7.160919 0.366977,-3.766261 1.626097,-3.077215 3.346873,-5.04393 2.240297,-2.558363 1.668546,-4.458066 0.776448,-4.987843 -0.892097,-0.529776 -2.597569,-0.0703 -4.342922,2.870854 z"
       id="path1754" />
    <path
       id="path1752"
       d="M 25.648438,1.999294 C 18.414447,12.835956 14.999527,18.684283 15.4375,18.977801 c 0.453657,0.303874 4.767312,-5.333971 12.550781,-16.9374991 0.01002,-0.015118 0.01739,-0.026457 0.02733,-0.041197 z"
       style="fill:#333333;fill-opacity:1;stroke-width:0.88320053" />
    <path
       id="path1756"
       d="m 20.866128,12.423458 c -4.368819,6.206098 -6.16244,8.91103 -6.746365,8.519698 -0.608349,-0.40732 1.238692,-3.077367 5.323813,-9.474256 z"
       style="fill:#9fa0a0;stroke-width:0.88320053" />
  </g>
</svg>
