<svg xmlns="http://www.w3.org/2000/svg" viewBox="0 0 48 48"><defs><linearGradient id="0" y1="42.13" x2="0" y2="-27.875" gradientUnits="userSpaceOnUse"><stop stop-color="#00a661"/><stop offset="1" stop-color="#37ce97"/></linearGradient></defs><g transform="matrix(.99999 0 0 .99999-33.371 20.882)" enable-background="new"><rect width="45.714" height="45.714" x="34.518" y="-19.732" fill="url(#0)" stroke="url(#0)" stroke-width="2.286" rx="22.857"/><g fill="#fff" fill-opacity=".851"><path d="m50.727 13.612c.381 1.127.681 2.02.0001 3.01-.067.097-.075.223-.021.329.034.066.089.117.154.147.039.017.081.027.125.029 1.98.047 4.788-1.404 6.276-4.699.676-1.497.889-2.891.618-4.03-.071-.298-.175-.575-.308-.831l-3.565-1.63c-.181.041-.361.096-.539.167-.853.341-2.049 1.193-2.909 3.315-.683 1.684-.232 3.02.167 4.2"/><path d="m57.899 6.784c.644-.944 1.326-2.01 1.675-2.787.695-1.54 4.705-12.4 4.876-12.861.271-.736-.072-1.556-.787-1.878-.715-.323-1.557-.038-1.929.652-.234.434-5.736 10.641-6.423 12.163-.344.761-.695 1.975-.977 3.081l3.565 1.63"/></g></g></svg>