<svg xmlns="http://www.w3.org/2000/svg" xmlns:xlink="http://www.w3.org/1999/xlink" viewBox="0 0 48 48"><defs><linearGradient xlink:href="#1" id="3" x1="408.15" y1="520.64" x2="407.91" y2="511.74" gradientUnits="userSpaceOnUse"/><linearGradient gradientTransform="matrix(1.2171 0 0 1.15944-88.7-83.994)" gradientUnits="userSpaceOnUse" y2="504.66" x2="409.81" y1="542.3" x1="409.69" id="2"><stop stop-color="#d3d3d3"/><stop offset="1" stop-color="#fcf9f9"/></linearGradient><linearGradient xlink:href="#1" id="0" x1="247.86" y1="11.462" x2="247.36" y2="-28.699" gradientUnits="userSpaceOnUse"/><linearGradient id="1"><stop stop-color="#124da4"/><stop offset="1" stop-color="#2896ff"/></linearGradient></defs><g transform="matrix(.89631 0 0 .89631-342.2-442.24)" enable-background="new"><path d="m204.25-29.481c-1.108 0-2 .892-2 2v81.61l104.06.24v-70.04c0-1.108-.892-2-2-2h-48.601c-2.039.18-2.301-.09-3.308-1.435-1.429-1.912-3.586-7.06-4.992-8.929-1.129-1.633-1.312-1.443-3.184-1.443z" transform="matrix(.48074 0 0 .48395 285.98 510.46)" fill="url(#0)" color="#000"/><rect y="504.77" x="381.8" height="39.42" width="53.55" fill="url(#2)" rx="1.855" stroke-width="1.162"/><rect width="16.2" height="3" x="400.47" y="514.43" fill="url(#3)" fill-rule="evenodd" rx="1.319"/></g></svg>