<svg xmlns="http://www.w3.org/2000/svg" xmlns:xlink="http://www.w3.org/1999/xlink" viewBox="0 0 48 48"><defs><linearGradient gradientUnits="userSpaceOnUse" y2="501.51" x2="407.82" y1="546.29" x1="408.82" id="3" xlink:href="#1"/><linearGradient gradientUnits="userSpaceOnUse" y2="501.51" x2="0" y1="546.29" id="2" xlink:href="#1"/><linearGradient xlink:href="#1" id="0" x1="61.57" y1="22.939" x2="60.753" y2="-27.706" gradientUnits="userSpaceOnUse"/><linearGradient id="1"><stop stop-color="#197cf1"/><stop offset="1" stop-color="#21c9fb"/></linearGradient></defs><path d="m41.36-25.875h42.04c1.652 0 2.982 1.33 2.982 2.982v42.04c0 1.652-1.33 2.982-2.982 2.982h-42.04c-1.652 0-2.982-1.33-2.982-2.982v-42.04c0-1.652 1.33-2.982 2.982-2.982" transform="matrix(.99999 0 0 .99999-38.38 25.875)" fill="url(#0)" fill-rule="evenodd"/><g transform="matrix(1.07196 0 0 1.07196-413.17-537.6)"><circle cx="407.82" cy="523.9" r="22.389" fill="url(#2)"/><path transform="matrix(.93287 0 0 .93287 385.43 501.51)" d="m22.461 1.553l-.002.002-3.51.201c-.381.022-1.241.387-1.668.436l-1.072.652c-3.747.899-2.962-1.228-5.248 2.164l-2.785.971c-2.541 3.77-5.27 7.159-4.832 9.566.04.217.21.387.428.426.218.039.435-.063.547-.254.455-.776 1.228-1.948 2.33-3.127 2.673-2.861 5.997-4.373 9.611-4.373.301 0 .608.011.916.031v21.383c0 3.962 2.976 7.215 7.08 7.732.372.047.748.07 1.119.07 3.955 0 7.275-2.675 7.723-6.223.241-1.911-.357-3.811-1.688-5.352-1.329-1.54-3.231-2.539-5.352-2.807-1.217-.154-2.449-.053-3.598.293z" fill="#dcf0fe"/><circle cx="407.82" cy="523.9" r="21.432" fill="none" stroke="url(#3)" stroke-linejoin="round" stroke-linecap="round" stroke-width="1.914"/></g></svg>