<svg xmlns="http://www.w3.org/2000/svg" viewBox="0 0 48 48"><defs><linearGradient id="0" y1="549.91" x2="0" y2="516.93" gradientUnits="userSpaceOnUse"><stop stop-color="#317a02"/><stop offset="1" stop-color="#8cff58"/></linearGradient><linearGradient id="1" gradientUnits="userSpaceOnUse" y1="549.91" x2="0" y2="516.93"><stop stop-color="#1e56e6"/><stop offset="1" stop-color="#1f9aed"/></linearGradient></defs><g transform="matrix(1.131 0 0 1.131-438.11-568.22)"><g transform="matrix(1.4443 0 0 1.4443-169.81-244.43)" stroke-width="1.385" fill="url(#0)" stroke="url(#0)"><circle r="14" cy="531.8" cx="400.57"/><circle cx="400.57" cy="531.8" r="14" fill="url(#1)" stroke="url(#1)"/></g><g transform="matrix(.04583 0 0 .04583 397.68 512.86)" fill="#fff" fill-opacity=".85"><path d="m420.49 352.01h-112.95v-35.567l-32.487 43.03-32.507 43.02 32.507 43.03 32.487 43.03v-24.616l60.2-2.275c53.21-3.215 65.931-25.19 65.931-25.19l59.783-111.08c-22.04 30.73-72.964 26.622-72.964 26.622"/><path d="m451.53 192.18l-96.35 55.964 48.17 83.51c49.09 4.577 64.21-10.561 64.21-10.561 39.33-22.249 17.459-71.59 17.459-71.59l-33.488-57.33"/><path d="m66.956 425.68c-14.868-34.753 15.08-76.19 15.08-76.19l58.55-96.58 30.396 18.444-19.966-50.1-19.918-50.09-53.647 5.485-53.645 5.498 21.03 12.737-29.22 52.668c-24.84 47.16-12.608 69.43-12.608 69.43l63.944 108.69"/><path d="m83.71 408.62c-1.347 45.19 52.17 52.02 52.17 52.02l66.43 1.099 2.072-111.42-96.38-2.076c-29.375 39.593-24.29 60.38-24.29 60.38"/><path d="m324.37 181.03l53.28 8.152 22.395-49.05 22.43-49.03-21.639 11.685-30.604-51.862c-28.11-45.3-53.52-46.03-53.52-46.03l-126.14.163c37.53 4.774 58.1 51.55 58.1 51.55l53.657 99.36-31.27 16.901 53.31 8.158"/><path d="m236.69 75.57c-19.295-45.37-39.812-51.51-39.812-51.51-38.27-24.01-71.26 18.677-71.26 18.677l-34.557 56.725 95.03 58.17 50.592-82.06"/></g></g></svg>