<svg xmlns="http://www.w3.org/2000/svg" viewBox="0 0 48 48"><defs><linearGradient gradientUnits="userSpaceOnUse" y2="-29.389" x2="-127.3" y1="69.3" x1="-126.09" id="0"><stop stop-color="#197cf1"/><stop offset="1" stop-color="#20bcfa"/></linearGradient></defs><g transform="matrix(.49863 0 0 .48196 88.22 14.822)"><rect y="-30.751" x="-176.95" height="99.6" width="96.27" fill="url(#0)" fill-rule="evenodd" rx="2.789"/><path d="m437.53 16.516v170.01c0 4.971-4.03 9-9 9-4.971 0-9-4.03-9-9v-23.673h-119.34v119.34h25.329c4.971 0 9 4.03 9 9 0 4.971-4.03 9-9 9h-25.329v119.34h25.329c4.971 0 9 4.03 9 9 0 4.971-4.03 9-9 9h-34.14c-.063.0001-.127.002-.191.002-.063 0-.127-.0001-.191-.002h-136.95c-.125.003-.254.003-.382 0h-137.12c-4.97 0-9-4.03-9-8.999l-.001-136.74c-.013-.2-.02-.4-.02-.604 0-.202.007-.402.02-.602l-.001-136.31c-.006-.142-.001-.283-.001-.427 0-.143.003-.284.001-.426l-.001-136.91c0-2.388.948-4.677 2.636-6.364 1.688-1.689 3.977-2.637 6.364-2.637h412.02c4.97 0 9 4.03 9 9m-292.68 283.68h-119.32l.009 119.34h119.31v-119.34zm0-137.34h-119.33l.008 119.34h119.32zm0-137.34h-119.34l.009 119.34h119.33v-119.34m137.34 274.68h-119.34v119.34h119.34zm0-137.34h-119.34v119.34h119.34zm0-137.34h-119.34v119.34h119.34zm137.34 0h-119.34v119.34h119.34v-119.34z" fill-opacity=".448" transform="matrix(.2163 0 0 .22379-176.95-30.751)"/><path d="m437.53 16.516v170.01c0 4.971-4.03 9-9 9-4.971 0-9-4.03-9-9v-23.673h-119.34v119.34h25.329c4.971 0 9 4.03 9 9 0 4.971-4.03 9-9 9h-25.329v119.34h25.329c4.971 0 9 4.03 9 9 0 4.971-4.03 9-9 9h-34.14c-.063.0001-.127.002-.191.002-.063 0-.127-.0001-.191-.002h-136.95c-.125.003-.254.003-.382 0h-137.12c-4.97 0-9-4.03-9-8.999l-.001-136.74c-.013-.2-.02-.4-.02-.604 0-.202.007-.402.02-.602l-.001-136.31c-.006-.142-.001-.283-.001-.427 0-.143.003-.284.001-.426l-.001-136.91c0-2.388.948-4.677 2.636-6.364 1.688-1.689 3.977-2.637 6.364-2.637h412.02c4.97 0 9 4.03 9 9m-292.68 283.68h-119.32l.009 119.34h119.31v-119.34zm0-137.34h-119.33l.008 119.34h119.32zm0-137.34h-119.34l.009 119.34h119.33v-119.34m137.34 274.68h-119.34v119.34h119.34zm0-137.34h-119.34v119.34h119.34zm0-137.34h-119.34v119.34h119.34zm137.34 0h-119.34v119.34h119.34v-119.34z" fill="#115c89" transform="matrix(-.2163 0 0-.22379-80.68 68.844)"/><g transform="matrix(.34328 0 0 .35515-93.38-7.43)"><path d="m-183.23 17.241h-7.507v-46.51l-10.852 4.733-2.856-6.365 16.401-7.67h4.814v55.812" fill="#fff" fill-opacity=".889"/><path d="m-106.01 82.24q-6.528 0-11.995-5.304-5.467-5.385-5.467-12.974 0-7.425 5.63-13.06 5.712-5.63 13.463-5.63 8.323 0 13.708 5.712 5.467 5.63 5.467 12.974 0 7.589-6.528 17.14l-15.177 22.602-6.04-4.161 13.3-18.441-.163-.163q-2.04 1.306-6.201 1.306m1.632-29.701q-4.733 0-8.16 3.264-3.345 3.264-3.345 8.08 0 4.733 3.345 8.08 3.427 3.264 8.16 3.264 4.733 0 8.16-3.264 3.427-3.345 3.427-8.08 0-4.814-3.427-8.08-3.345-3.264-8.16-3.264" fill="#e6f6fe"/></g><path d="m-156.28 60.5h-2.577v-16.518l-3.725 1.681-.98-2.26 5.63-2.724h1.653v19.822" fill="#e6f6fe"/></g></svg>