<svg xmlns="http://www.w3.org/2000/svg" viewBox="0 0 48 48"><defs><linearGradient id="0" gradientUnits="userSpaceOnUse" y1="545.14" x2="0" y2="518.14"><stop stop-color="#197ff1"/><stop offset="1" stop-color="#21c6fb"/></linearGradient><linearGradient gradientUnits="userSpaceOnUse" y1="545.8" x2="0" y2="517.8"><stop stop-color="#3889e9"/><stop offset="1" stop-color="#5ea5fb"/></linearGradient></defs><g transform="matrix(.92308 0 0 .92308-685.72-151.32)"><g transform="matrix(1.85714 0 0 1.85714 24.939-797.69)"><circle cx="400.57" cy="531.8" r="14" fill="url(#0)"/><circle r="14" cy="531.8" cx="400.57" fill="#5ea5fb" fill-opacity="0"/></g><g transform="matrix(.68376 0 0 .68376 395.54-163.65)" fill="#fff" fill-opacity=".855" fill-rule="evenodd"><path d="m545.97707 495.17607a4.875 4.875 0 0 1 4.875 4.875 4.875 4.875 0 0 1 -4.875 4.875 4.875 4.875 0 0 1 -4.875 -4.875 4.875 4.875 0 0 1 4.875 -4.875"/><path d="m545.45 509.8h1.038c1.736 0 3.142 1.396 3.142 3.133v22.985c0 1.736-1.406 3.133-3.142 3.133h-1.038c-1.736 0-3.133-1.396-3.133-3.133v-22.985c0-1.736 1.396-3.133 3.133-3.133"/></g></g></svg>