<svg xmlns="http://www.w3.org/2000/svg" xmlns:xlink="http://www.w3.org/1999/xlink" viewBox="0 0 48 48"><defs><linearGradient gradientUnits="userSpaceOnUse" y2="499.95" x2="409.62" y1="547.86" x1="409.24" id="3" xlink:href="#2"/><linearGradient id="2"><stop stop-color="#197cf1"/><stop offset="1" stop-color="#20bcfa"/></linearGradient><linearGradient id="0" gradientUnits="userSpaceOnUse" y1="542.2" x2="0" y2="526.2"><stop stop-color="#d0d0d0"/><stop offset="1" stop-color="#f1eeee"/></linearGradient><linearGradient y2="499.31" x2="409.63" y1="548.5" x1="409.24" gradientUnits="userSpaceOnUse" id="1" xlink:href="#2"/></defs><g transform="matrix(.98188 0 0 .98188-377.83-490.56)" fill="url(#0)"><circle r="24.443" cy="524.05" cx="409.24" fill="url(#1)"/><g fill="#fff" fill-opacity=".852" transform="matrix(1.08741 0 0 1.08741-56.06-31.48)"><path d="m416.51 503.96c-3.645 3.655-5.648 8.53-5.638 13.736.015 10.859 8.147 15.806 18.13 15.3l.12-.108c-8.846 0-14.861-6.321-14.876-15.202-.005-4.301 1.642-8.328 4.652-11.342 3.02-3.03 7.082-4.702 11.423-4.702v-3.376c-5.246 0-10.147 2.023-13.812 5.694"/><path d="m426.59 503.35c-3.884 1.047-7.087 3.482-9.02 6.858-4.057 7.092-1.901 15.749 5.124 20.584 5.4 4.743 14.714.678 16.839-1.084-.178.046-5.752 4.602-14.923-1.697-5.546-3.813-7.275-10.594-4.108-16.13 1.484-2.588 3.955-4.463 6.965-5.272 3.086-.834 6.278-.427 8.993 1.139l1.688-2.928c-3.498-2.02-7.605-2.542-11.56-1.474"/><path d="m425.7 508.97c-3.37 1.947-5.257 5.49-5.257 9.13 0 1.688.422 3.391 1.271 4.967l-.001.001c0 .005.031.056.041.076h-.005c0 0 .02.03.036.056.02.041.071.132.076.137.529.91 2.567 3.975 7.04 5.602 5.416 1.977 7.239 1.828 9.769 1.376 2.753-1.573 4.228-2.975 4.228-2.975-2.897.314-7 .556-12.842-1.573-3.518-1.281-4.987-3.62-5.257-4.103 0 0-.001-.015-.001-.02-.646-1.123-.956-2.349-.956-3.559 0-2.471 1.281-4.875 3.569-6.202 1.652-.951 3.579-1.205 5.424-.712 1.84.493 3.381 1.678 4.336 3.33l2.979-1.586-.056-.102c-1.403-2.435-3.67-4.174-6.385-4.906-2.715-.727-5.551-.351-7.986 1.052"/></g><circle r="23.81" cy="524.05" cx="409.24" fill="none" stroke="url(#3)" stroke-width="1.018"/></g></svg>