<svg xmlns="http://www.w3.org/2000/svg" viewBox="0 0 48 48"><defs><linearGradient id="0" y1="546.8" x2="0" y2="507.87" gradientUnits="userSpaceOnUse" gradientTransform="matrix(-.32279 0 0 .35147 161.26-143.94)"><stop stop-color="#d3d3d3"/><stop offset="1" stop-color="#fcf9f9"/></linearGradient><linearGradient id="1" x1="34.17" y1="46.44" x2="34.15" y2="22.749" gradientUnits="userSpaceOnUse"><stop stop-color="#1074f5"/><stop offset="1" stop-color="#02befd"/></linearGradient></defs><g transform="matrix(1.71427 0 0 1.71427-34.21-36.488)" enable-background="new"><path d="m43.829 25.977c-2.64-2.149-6.145-3.332-9.87-3.332-3.725 0-7.231 1.183-9.87 3.332-2.663 2.167-4.13 5.056-4.13 8.133 0 2.937 1.337 5.702 3.774 7.832-.044.099-.079.203-.101.312l-.801 3.939c-.095.468.033.747.157.899.143.175.356.272.598.272.183 0 .38-.054.585-.161l4.658-2.42c1.613.519 3.346.791 5.13.791 3.725 0 7.23-1.183 9.871-3.332 2.663-2.167 4.13-5.05 4.13-8.133 0-3.078-1.467-5.966-4.129-8.133" fill="url(#1)"/><path d="m35.829 36.29c1.32-1.17 3.073-1.814 4.935-1.814 1.863 0 3.615.644 4.935 1.814 1.331 1.18 2.065 2.752 2.065 4.428 0 1.599-.668 3.104-1.887 4.264.022.054.039.11.051.17l.4 2.144c.048.255-.016.407-.078.489-.072.095-.178.148-.299.148-.092 0-.19-.029-.292-.087l-2.329-1.317c-.806.283-1.673.431-2.565.431-1.863 0-3.615-.644-4.935-1.814-1.331-1.18-2.065-2.752-2.065-4.428 0-1.675.733-3.248 2.065-4.428" fill="url(#0)"/></g></svg>