<svg xmlns="http://www.w3.org/2000/svg" xmlns:xlink="http://www.w3.org/1999/xlink" viewBox="0 0 48 48"><defs><path id="1" d="m22 3h27v15h-27z"/><linearGradient gradientTransform="matrix(1.05233 0 0 1.02761-72.57-8.693)" gradientUnits="userSpaceOnUse" y2="501.23" x2="409.94" y1="542.8" x1="409.57" id="0"><stop stop-color="#2e3e46"/><stop offset="1" stop-color="#47606a"/></linearGradient></defs><g transform="translate(-384.57-499.8)"><g transform="matrix(1.03246 0 0 1.03246 39.495-23.997)"><rect width="46.3" height="34.939" x="334.23" y="513.13" fill="url(#0)" rx="1.644"/><g transform="matrix(.96857 0 0 .96857-94.88 22.86)" font-family="sans-serif" text-align="start" word-spacing="0" line-height="125%" letter-spacing="0" font-size="10"><flowRoot transform="translate(389.57 520.8)"><flowRegion><use xlink:href="#1"/></flowRegion><flowPara>Plasm</flowPara></flowRoot><g transform="matrix(1.57636 0 0 1.57636-222.87-314.51)"><flowRoot transform="translate(389.57 520.8)"><flowRegion><use xlink:href="#1"/></flowRegion><flowPara>Plasm</flowPara></flowRoot><flowRoot transform="translate(420.8 512.62)" fill="#fff" fill-opacity=".852"><flowRegion><use fill="#fff" fill-opacity=".852" xlink:href="#1"/></flowRegion><flowPara>Plasm</flowPara></flowRoot></g></g></g><g fill="#fff" fill-opacity=".85"><path d="m192.48 60.57c-1.489-4.625-5.243-10.769-14.659-13.825-2.275-.738-4.692-1.108-7.199-1.108-19.522 0-42.752 23.88-54.44 37.534-4.298-6.1-11.367-10.113-19.379-10.113-8.02 0-15.08 4.02-19.387 10.113-11.681-13.649-34.919-37.535-54.44-37.535-2.506 0-4.93.376-7.2 1.108-9.415 3.057-13.169 9.207-14.665 13.826-4.061 12.614 4.01 28.18 9.08 36.22-5.071 8.04-13.14 23.596-9.08 36.22 1.496 4.623 5.249 10.77 14.665 13.819 2.27.745 4.693 1.111 7.2 1.111 19.523 0 42.755-23.886 54.45-37.533 4.297 6.1 11.367 10.113 19.381 10.113 8.01 0 15.08-4.01 19.379-10.113 11.686 13.647 34.921 37.533 54.44 37.533 2.507 0 4.924-.378 7.199-1.111 9.416-3.05 13.17-9.203 14.659-13.819 4.061-12.613-4.01-28.18-9.08-36.22 5.066-8.04 13.13-23.599 9.08-36.22" transform="matrix(.1173 0 0 .1173 397.22 508.04)"/><g transform="matrix(.7032 0 0 .7032 121.26 185.13)"><circle r="2.75" cy="492.55" cx="408.57"/><circle r="2.75" cy="485.28" cx="408.57"/><circle r="2.75" cy="499.69" cx="408.57"/></g></g></g></svg>