<svg xmlns="http://www.w3.org/2000/svg" viewBox="0 0 48 48"><defs><linearGradient id="0" x1="19.587" y1="11.727" x2="19.562" y2="-11.964" gradientUnits="userSpaceOnUse"><stop stop-color="#dc3c30"/><stop offset="1" stop-color="#ff786d"/></linearGradient></defs><g transform="matrix(1.71427 0 0 1.71427-9.211 23.512)" enable-background="new"><path d="m29.25-8.736c-2.64-2.149-6.145-3.332-9.87-3.332-3.725 0-7.231 1.183-9.87 3.332-2.663 2.167-4.13 5.056-4.13 8.133 0 2.937 1.337 5.702 3.774 7.832-.044.099-.079.203-.101.312l-.801 3.939c-.095.468.033.747.157.899.143.175.356.272.598.272.183 0 .38-.054.585-.161l4.658-2.42c1.613.519 3.346.791 5.13.791 3.725 0 7.23-1.183 9.871-3.332 2.663-2.167 4.13-5.055 4.13-8.133 0-3.078-1.467-5.966-4.129-8.133" fill="url(#0)"/><path d="m17.12-3.01v1.097h.065q.323-.565 1.017-.952.694-.403 1.485-.403 1.468 0 2.243.904.775.904.775 2.42v4.841h-1.485v-4.615q0-2.195-1.953-2.195-.92 0-1.501.742-.581.726-.581 1.694v4.373h-1.485v-7.907h1.42m3.098-1.694q-.42 0-1.097-.355-.662-.371-.775-.371-.484 0-.533.565h-1.226q0-.936.549-1.42.565-.484 1.243-.484.42 0 1.097.371.678.355.775.355.484 0 .532-.565h1.226q0 .936-.565 1.42-.549.484-1.226.484" fill="#fff" fill-opacity=".857"/></g></svg>