<svg xmlns="http://www.w3.org/2000/svg" viewBox="0 0 48 48"><defs><linearGradient gradientUnits="userSpaceOnUse" y2="-26.05" x2="-125.19" y1="73.5" x1="-123.97" id="0"><stop stop-color="#141414"/><stop offset="1" stop-color="#2d2d2f"/></linearGradient><linearGradient id="1" y1="538" x2="0" y2="514" gradientUnits="userSpaceOnUse"><stop stop-color="#0a80fd"/><stop offset="1" stop-color="#56c5fa"/></linearGradient></defs><g transform="translate(-384.57-499.8)"><g transform="matrix(.47781 0 0 .47781 469.11 512.9)" fill-rule="evenodd"><rect width="97.1" height="100.46" x="-175.27" y="-27.421" fill="url(#0)" rx="6.241"/><g fill="#51c0fa"><circle cx="-164.03" cy="-17.745" r="3.5"/><circle cx="-154.79" cy="-17.745" r="3.5"/><circle cx="-145.46" cy="-17.745" r="3.5"/></g></g><path d="m411.9 528.92c-.151-.049-1.103-.478-.508-2.287h-.008c1.551-1.597 2.736-4.168 2.736-6.699 0-3.891-2.588-5.931-5.595-5.931-3.01 0-5.583 2.039-5.583 5.931 0 2.541 1.179 5.122 2.739 6.716.608 1.596-.479 2.188-.707 2.27-2.12.686-7.888 4.104-7.797 9.08h22.788c.102-4.756-4.461-7.844-8.07-9.08" fill="url(#1)" stroke-width=".2"/></g></svg>