<svg xmlns="http://www.w3.org/2000/svg" viewBox="0 0 48 48"><defs><linearGradient id="0" gradientUnits="userSpaceOnUse" x1="400.51" y1="546.07" x2="400.7" y2="517.77"><stop stop-color="#197ff1"/><stop offset="1" stop-color="#21c6fb"/></linearGradient></defs><circle r="14" cy="531.8" cx="400.57" transform="matrix(1.71434 0 0 1.71434-662.72-887.68)" fill="url(#0)"/><circle cx="400.57" cy="531.8" r="14" transform="matrix(1.71434 0 0 1.71434-662.72-887.68)" fill="#5ea5fb" fill-opacity="0"/><path d="m-41.936 4.213l-16.05 9.08 7.758 4.385 8.291-4.682v-8.783m3.342 0v8.783l8.283 4.695 7.76-4.385-16.04-9.09m-1.674 10.473l-9.307 5.264-.004 10.535 9.303 5.271 9.307-5.264.004-10.535-9.303-5.271m-19.389 1.447l-.006 18.16 7.76-4.385v-9.393l-7.754-4.385m38.775.014l-7.758 4.385v9.391l7.752 4.385.006-18.16m-29.352 16.596l-7.76 4.393 16.05 9.09v-8.783l-8.291-4.703m19.916.014l-8.285 4.682v8.783l16.04-9.07-7.76-4.391" fill="#ddeffd" transform="matrix(.76162 0 0 .76162 54.672 5.191)"/></svg>