<svg xmlns="http://www.w3.org/2000/svg" xmlns:xlink="http://www.w3.org/1999/xlink" viewBox="0 0 48 48"><defs><linearGradient xlink:href="#2" id="0" y1="546.29" x2="0" y2="501.51" gradientUnits="userSpaceOnUse"/><linearGradient xlink:href="#2" id="1" x1="408.82" y1="546.29" x2="407.82" y2="501.51" gradientUnits="userSpaceOnUse"/><linearGradient id="2"><stop stop-color="#f15f19"/><stop offset="1" stop-color="#fbb521"/></linearGradient></defs><g transform="matrix(1.07196 0 0 1.07196-413.17-537.6)"><circle cx="407.82" cy="523.9" r="22.389" fill="url(#0)"/><circle cx="407.82" cy="523.9" r="21.432" fill="none" stroke="url(#1)" stroke-linejoin="round" stroke-linecap="round" stroke-width="1.914"/></g><path d="m22.1 38.893c-1.425-.292-2.562-1.224-3.192-2.616-.297-.65-.337-.859-.292-1.464.044-.653.087-.742.493-1.093 1.283-1.127 1.562-1.425 1.8-1.961.239-.527.259-.688.195-1.743-.064-1.044-.044-1.229.185-1.771.522-1.264 1.674-1.986 4.104-2.596 1.723-.435 2.987-.44 3.899-.02.732.337 1.518 1.118 1.899 1.908.522 1.068 1.796 1.835 3.054 1.84 1.615.001 2.524 1.262 2.425 3.353-.054 1.093-.361 1.781-1.137 2.527-1.479 1.43-6.651 3.123-11.151 3.645-1.157.131-1.6.131-2.274-.005m-8.906-7.545c-1.63-.512-3.064-2.371-3.367-4.347-.069-.44-.195-.908-.284-1.044-.361-.561-.712-2.933-.473-3.177.127-.131.752.551.756.82 0 .127.107.415.23.635l.23.395.366-.381c.473-.468 1.044-.64 1.615-.483.443.131.615.239 2.23 1.332.547.371 1.4.917 1.894 1.221.493.297 1.034.732 1.216.966.678.868.497 1.956-.512 3.049-.488.527-.703.668-1.347.868-.781.249-1.991.312-2.547.136m20.843-5.69c-1.595-.596-2.26-1.454-2.02-2.596.044-.21.43-1.103.854-1.981.425-.878.776-1.664.776-1.743.005-.371.571-1.367.947-1.664.317-.249.537-.327.996-.332l.586-.015.034-.435c.02-.239-.049-.615-.151-.84-.22-.483-.131-1.142.141-1.088.264.054 1.122 1.689 1.328 2.523.102.41.351.986.551 1.283.65.947.888 1.776.898 3.094.005 1.019-.034 1.239-.284 1.8-.483 1.059-1.278 1.708-2.524 2.05-.761.21-1.464.19-2.137-.064m-16.29-3.785c-1.229-.312-2.035-.966-2.524-2.045-.547-1.216-.435-3.362.244-4.534.205-.356.23-.571.215-1.63-.025-1.122.156-2.317.381-2.542.171-.181.502.493.502 1.016 0 .297.102.766.225 1.049.205.463.249.497.532.43.171-.044.625-.107 1.016-.141.693-.064.712-.059 1.073.341.4.44.635 1.093.635 1.761 0 .547.302 1.147.947 1.894 1.595 1.83 1.211 3.46-1.01 4.295-.81.297-1.385.332-2.24.107m7.03-2.069c-.561-.195-1.098-.81-1.293-1.484-.122-.435-.151-.893-.102-1.796.069-1.206.064-1.221-.274-1.776-.962-1.582-.673-2.626.82-2.942l.625-.131-.079-.371c-.097-.473-.435-1.152-.658-1.347-.205-.176-.244-.942-.049-.942.22 0 2.069 2.01 2.269 2.47.146.327.351.522.781.747.815.435 1.991 1.684 2.44 2.596.468.962.576 2.059.284 2.85-.249.678-1.142 1.625-1.83 1.948-.63.292-2.317.395-2.938.181" fill="#fff" fill-opacity=".855"/></svg>