<svg xmlns="http://www.w3.org/2000/svg" viewBox="0 0 48 48"><defs><linearGradient id="0" x1="61.57" y1="22.939" x2="60.753" y2="-27.706" gradientUnits="userSpaceOnUse"><stop stop-color="#197cf1"/><stop offset="1" stop-color="#21c9fb"/></linearGradient></defs><path d="m41.36-25.875h42.04c1.652 0 2.982 1.33 2.982 2.982v42.04c0 1.652-1.33 2.982-2.982 2.982h-42.04c-1.652 0-2.982-1.33-2.982-2.982v-42.04c0-1.652 1.33-2.982 2.982-2.982" transform="matrix(.99999 0 0 .99999-38.38 25.875)" fill="url(#0)" fill-rule="evenodd"/><g fill="#daeffe" stroke="#daeffe" stroke-linejoin="round" stroke-linecap="round" stroke-width="7.467"><path d="m366.07 168.66l-124.12-71.66c-1.702-.982-3.798-.982-5.5 0l-124.13 71.65c-1.702.982-2.75 2.798-2.75 4.764l.012 146.24c0 1.964 1.048 3.779 2.749 4.762l124.11 71.71c.851.492 1.801.738 2.751.738.949 0 1.899-.246 2.75-.737l124.12-71.66c1.702-.982 2.75-2.798 2.75-4.763v-146.29c0-1.965-1.048-3.781-2.75-4.763zm-245.5 14.299l113.13 65.31-.0001 133.58-113.1-65.35-.011-133.54m237.24 133.59c0 .003-.009-.003-.009 0z" transform="matrix(.10387 0 0 .10387-.846-1.612)"/></g></svg>