<svg xmlns="http://www.w3.org/2000/svg" viewBox="0 0 48 48"><defs><linearGradient id="0" x1="23.795" y1="46.576" x2="23.595" y2=".407" gradientUnits="userSpaceOnUse"><stop stop-color="#74cb32"/><stop offset="1" stop-color="#abeb6b"/></linearGradient></defs><path d="m2.98-.002h42.04c1.652 0 2.982 1.33 2.982 2.982v42.04c0 1.652-1.33 2.982-2.982 2.982h-42.04c-1.652 0-2.982-1.33-2.982-2.982v-42.04c0-1.652 1.33-2.982 2.982-2.982" fill="url(#0)" fill-rule="evenodd"/><circle r="18.462" cy="24" cx="24" fill="none" stroke="#2c3e1b" stroke-linejoin="round" fill-opacity=".732" stroke-linecap="round" stroke-width="3.077"/><path d="m11.236 20c-.451 0-.813.364-.813.814v6.371c0 .451.362.814.813.814h6.373c.451 0 .814-.364.814-.814v-1.254h18.746c.225 0 .406-.181.406-.406v-2.848c0-.225-.181-.406-.406-.406h-18.746v-1.457c0-.451-.364-.814-.814-.814h-6.373" fill="#2c3e1b"/></svg>