<svg xmlns="http://www.w3.org/2000/svg" xmlns:xlink="http://www.w3.org/1999/xlink" viewBox="0 0 48 48"><defs><linearGradient xlink:href="#1" id="4" x1="-61.63" y1="71.71" x2="-60.807" y2="47.31" gradientUnits="userSpaceOnUse"/><linearGradient xlink:href="#3" id="5" x1="-62.13" y1="47.27" x2="-62.53" y2="24.287" gradientUnits="userSpaceOnUse"/><linearGradient id="3" gradientUnits="userSpaceOnUse" x1="26.404" y1=".7" x2="26.73" y2="-47.815"><stop stop-color="#2f3f47"/><stop offset="1" stop-color="#425963"/></linearGradient><linearGradient gradientTransform="matrix(.43368-.00031.00033.41341 31.937-92.88)" id="1" gradientUnits="userSpaceOnUse" x1="22.642" y1="221.25" x2="24.303" y2="154.71"><stop stop-color="#0a80fd"/><stop offset="1" stop-color="#56c5fa"/></linearGradient><linearGradient y2="154.71" x2="24.303" y1="221.25" x1="22.642" gradientTransform="matrix(.43368-.00031.00033.41341-61.08-37.801)" gradientUnits="userSpaceOnUse" id="0" xlink:href="#1"/><linearGradient xlink:href="#3" id="2" x1="-38.34" y1="71.51" x2="-38.438" y2="47.917" gradientUnits="userSpaceOnUse"/></defs><g transform="translate(74.64-24.2)"><path d="m-71.24 24.309h20.712v23.96h-24.01v-20.87c0-3.317 3.12-3.09 3.295-3.09" fill="url(#5)"/><path d="m-71.35 72.1h20.712v-23.96h-24.01v20.87c0 3.317 3.12 3.09 3.295 3.09" fill="url(#4)"/><path d="m-29.989 24.309h-20.712v23.96h24.01v-20.87c0-3.317-3.12-3.09-3.295-3.09" fill="url(#0)"/><path d="m-29.949 72.1h-20.802v-23.96h24.11v20.87c0 3.317-3.134 3.09-3.309 3.09" fill="url(#2)"/></g></svg>