<svg xmlns="http://www.w3.org/2000/svg" viewBox="0 0 48 48"><defs><linearGradient gradientTransform="matrix(.49433 0 0 .4778 86.64 13.1)" gradientUnits="userSpaceOnUse" y2="-26.05" x2="-125.19" y1="73.5" x1="-123.97" id="0"><stop stop-color="#2b65bd"/><stop offset="1" stop-color="#64a3dc"/></linearGradient></defs><rect height="48" width="48" fill="url(#0)" fill-rule="evenodd" rx="2.982"/><path d="m40.35 15.412c-.395-.181-.861-.116-1.191.168l-6.577 5.663v-6.457c0-.636-.518-1.154-1.154-1.154h-23.274c-.636 0-1.154.518-1.154 1.154v18.427c0 .636.517 1.154 1.154 1.154h23.274c.636 0 1.154-.517 1.154-1.154v-6.457l6.577 5.663c.33.285.797.35 1.191.169.396-.182.649-.577.649-1.013v-15.15c0-.436-.254-.831-.65-1.013" fill="#e6eff9"/></svg>