<svg xmlns="http://www.w3.org/2000/svg" viewBox="0 0 48 48"><defs><linearGradient id="0" gradientUnits="userSpaceOnUse" x1="24.61" y1="47.593" x2="23.593" y2="-.203"><stop stop-color="#197ff1"/><stop stop-color="#21c6fb" offset="1"/></linearGradient></defs><rect height="48" width="48" rx="2.982" fill="url(#0)" fill-rule="evenodd"/><g transform="matrix(.11217 0 0 .11217.095-.244)"><g fill="#def2fe"><path d="m130.4 360.04h-64.987v-194.19h64.987v194.19"/><path d="m97.91 139.31h-.437c-21.793 0-35.92-14.904-35.92-33.563 0-19.03 14.542-33.535 36.767-33.535 22.23 0 35.899 14.496 36.33 33.535 0 18.663-14.1 33.563-36.741 33.563"/><path d="m364.66 360.04h-64.966v-103.9c0-26.11-9.413-43.921-32.907-43.921-17.973 0-28.642 12.02-33.33 23.621-1.736 4.144-2.166 9.94-2.166 15.728v108.47h-64.954c0 0 .85-175.98 0-194.19h64.964v27.531c8.624-13.229 24.03-32.1 58.53-32.1 42.76 0 74.822 27.739 74.822 87.41v111.35"/></g><path d="m230.88 193.99c.111-.182.266-.401.42-.614v.614h-.42"/></g></svg>