<svg xmlns="http://www.w3.org/2000/svg" xmlns:xlink="http://www.w3.org/1999/xlink" viewBox="0 0 48 48"><defs><linearGradient gradientUnits="userSpaceOnUse" y2="2.054" x2="-1.682" y1="8.72" x1="-1.706" id="3" xlink:href="#4"/><linearGradient id="4"><stop stop-color="#2e3436"/><stop offset="1" stop-color="#555753"/></linearGradient><linearGradient gradientUnits="userSpaceOnUse" y2="2.264" x2="10.428" y1="8.666" x1="10.508" id="2" xlink:href="#4"/><linearGradient gradientTransform="matrix(.0542 0 0 .05409-37.54-80.21)" gradientUnits="userSpaceOnUse" y2="462.68" x2="72.29" y1="491.15" x1="72.85" id="0" xlink:href="#4"/><linearGradient gradientUnits="userSpaceOnUse" y2="8.699" x2="6.576" y1="27.421" x1="6.978" id="1"><stop stop-color="#69159f"/><stop offset="1" stop-color="#b92ff5"/></linearGradient></defs><g transform="matrix(1.71427 0 0 1.71427 15.789-1.488)" enable-background="new"><rect width="28" height="24.842" x="-9.208" y="2.808" fill="url(#1)" rx="1.169"/><g fill-rule="evenodd"><path d="m-7.664 2.119h24.912c.897 0 1.561.721 1.561 1.616v3.478 1.616h-28.03v-1.616-3.478c0-.895.664-1.616 1.561-1.616z" fill="url(#0)" stroke="url(#0)" stroke-linejoin="round" stroke-linecap="round" stroke-width=".025"/><g fill="#fff" fill-opacity=".916" stroke-width=".262"><path d="m6.576 8.699h4.442l3.471-3.071-3.471-3.397h-4.442l3.147 3.397z" stroke="url(#2)"/><path d="m-4.609 8.699h4.442l3.471-3.071-3.471-3.397h-4.442l3.147 3.397z" stroke="url(#3)"/></g></g><g fill="#fff"><g transform="matrix(.02279-.00991.00991.02278-8.774 15.567)"><path opacity=".83" d="m137.21 107.66l44.33-43.23-61.28-8.9-27.4-55.53-27.4 55.53-61.28 8.9 44.33 43.23-10.46 61.02 54.81-28.82 54.81 28.82z"/><path opacity=".83" d="m398.08 470.11l-13.73-80.03 58.14-56.66-80.35-11.68-35.93-72.82-35.94 72.82-80.34 11.68 58.13 56.66-13.72 80.03 71.87-37.79z"/><path opacity=".83" d="m427.82 34.527l-23.66-33.741-15.65 38.12-33.74 23.649 38.1 15.65 23.66 33.74 15.65-38.11 33.75-23.639z"/><path opacity=".83" d="m97.37 279.25l21.15 23.82 8.66-30.65 23.8-21.14-30.64-8.65-21.15-23.82-8.64 30.66-23.815 21.13z"/><path opacity=".83" d="m64.63 401.48l14.352 43.58 14.368-43.58 43.58-14.35-43.58-14.37-14.368-43.57-14.352 43.57-43.58 14.37z"/><path opacity=".83" d="m304.83 166.87l16.92-42.64-38.95 24.23-42.65-16.94 24.23 38.97-16.93 42.65 38.95-24.23 42.66 16.93z"/></g><path d="m14.24 15.209c.004-.205-.128-.274-.293-.152l-1.943 1.427c-.165.122-.459.166-.653.098l-2.277-.792c-.194-.068-.3.037-.235.232l.757 2.29c.065.195.016.488-.108.652l-1.456 1.921c-.124.164-.057.296.148.295l2.411-.012c.205 0 .469.136.586.305l1.377 1.98c.117.169.264.146.327-.049l.733-2.297c.062-.196.274-.404.471-.464l2.307-.698c.196-.059.221-.206.054-.326l-1.958-1.408c-.167-.12-.3-.386-.295-.591l.049-2.411" opacity=".766"/><path d="m15.191 13.739c.076-.146.019-.327-.127-.403-.146-.076-.326-.019-.402.127l-.309.596c-.076.146-.019.327.127.403.146.076.326.019.402-.127l.309-.596" opacity=".766"/><path d="m14.466 22.987c.065.152.24.222.392.157.152-.065.222-.24.157-.392l-.264-.618c-.065-.152-.24-.222-.392-.157-.152.065-.222.24-.157.392l.264.618" opacity=".766"/><path d="m17.374 18.2c.163-.027.273-.181.246-.343-.027-.163-.181-.273-.343-.246l-.663.11c-.163.027-.273.181-.246.343.027.163.181.273.343.246l.663-.11" opacity=".766"/><path d="m7.392 19.313c-.161.034-.32-.069-.354-.23-.034-.161.069-.32.23-.354l.657-.14c.161-.034.32.069.354.23.034.161-.069.32-.23.354l-.657.14" opacity=".766"/><path d="m9.635 14.177c-.071-.149-.009-.327.139-.398.149-.071.327-.009.398.14l.291.605c.072.149.009.327-.139.398-.149.071-.327.009-.399-.14l-.291-.605" opacity=".766"/></g></g></svg>