<svg xmlns="http://www.w3.org/2000/svg" xmlns:xlink="http://www.w3.org/1999/xlink" viewBox="0 0 48 48"><defs><linearGradient id="4" gradientUnits="userSpaceOnUse" gradientTransform="matrix(.35005 0 0 .34422-84.47-33.606)" x1="10.09" x2="122.72"><stop stop-color="#1a1a1a"/><stop offset=".111" stop-color="#2c2c2e"/><stop offset=".29" stop-color="#2b2b2d"/><stop offset=".512" stop-color="#2a2b2d"/><stop offset=".752" stop-color="#2b2b2d"/><stop offset=".897" stop-color="#323232"/><stop offset="1" stop-color="#171717"/></linearGradient><linearGradient xlink:href="#1" id="5" gradientUnits="userSpaceOnUse" gradientTransform="matrix(.71218 0 0 1.40915-381.68-762.3)" y1="544.31" x2="0" y2="542.96"/><linearGradient id="3" gradientUnits="userSpaceOnUse" y1="5.383" x2="0" y2="2.392"><stop stop-color="#040404"/><stop offset="1" stop-color="#121212" stop-opacity=".908"/></linearGradient><linearGradient id="1"><stop stop-color="#2b65bd"/><stop offset="1" stop-color="#64a3dc"/></linearGradient><linearGradient xlink:href="#1" id="0" y1="-15.394" x2="0" y2="-39.39" gradientUnits="userSpaceOnUse"/><linearGradient gradientUnits="userSpaceOnUse" y2="-31.865" x2="-61.694" y1="-.386" x1="-61.865" id="2"><stop stop-color="#bbbec4"/><stop offset="1" stop-color="#dddfe2"/></linearGradient></defs><g transform="matrix(.99999 0 0 .99999-38.37 25.882)" enable-background="new"><g transform="matrix(1.04635 0 0 1.04635 123.51 15.193)"><path d="m-80.94.075l.35 5.517c0 .572.468 1.033 1.05 1.033h36.624c.582 0 1.05-.461 1.05-1.033l.35-5.517h-39.42" fill="url(#4)"/><path d="m-77.79-32.27h32.776c.582 0 1.05.461 1.05 1.033l2.451 31.14c0 .572-.468 1.033-1.05 1.033h-37.33c-.582 0-1.05-.461-1.05-1.033l2.1-31.14c0-.572.468-1.033 1.05-1.033" fill="url(#2)"/><rect y="3.494" x="-69.24" height="1.083" width="16.15" fill="url(#5)" rx=".542" ry=".541"/><ellipse cx="-46.39" cy="4.074" rx="1.495" ry="1.495" opacity=".452" fill="url(#3)"/><g fill="#e3e8ea" stroke-width="1.317"><path d="m-46.39 4.113c.034 0 .063-.012.088-.037.025-.025.037-.054.037-.088v-.623c0-.034-.012-.063-.037-.088-.025-.025-.054-.037-.088-.037-.034 0-.063.012-.088.037-.025.025-.037.054-.037.088v.623c0 .034.012.063.037.088.025.025.054.037.088.037" opacity=".668"/><path d="m-45.724 3.779c-.052-.104-.126-.192-.221-.263-.027-.021-.058-.029-.093-.024-.034.005-.062.021-.082.049-.021.027-.029.058-.024.092.005.034.021.062.048.082.064.048.113.107.147.176.035.069.052.143.052.222 0 .068-.013.132-.039.193-.026.061-.062.114-.107.159-.045.045-.098.08-.159.107-.061.026-.126.039-.193.039-.068 0-.132-.013-.193-.039-.061-.026-.114-.062-.159-.107-.045-.045-.08-.098-.107-.159-.026-.061-.039-.126-.039-.193 0-.079.017-.153.052-.222.035-.069.084-.128.148-.176.027-.021.043-.048.048-.082.005-.034-.003-.065-.024-.092-.02-.028-.047-.044-.081-.049-.034-.005-.065.004-.093.024-.095.071-.168.158-.221.263-.052.105-.078.216-.078.334 0 .101.02.198.059.29.04.092.093.172.16.239.067.067.146.12.239.16.092.04.189.059.29.059.101 0 .198-.02.29-.059.092-.04.172-.093.239-.16.067-.067.12-.146.16-.239.04-.092.059-.189.059-.29 0-.118-.026-.229-.078-.334" opacity=".668"/></g></g><path d="m-70.841855 65.49015a3.6245 3.136812 0 0 0 -3.6245 3.136877 3.6245 3.136812 0 0 0 3.6245 3.136797 3.6245 3.136812 0 0 0 3.62446 -3.136797 3.6245 3.136812 0 0 0 -3.62446 -3.136877zm18.12 0l-7.249 6.274 14.498 12.547-14.498 12.547 7.249 6.274 21.747-18.821-21.747-18.821zm-28.99598 18.821062a7.248963 6.273592 0 0 0 -7.24892 6.273479 7.248963 6.273592 0 0 0 7.24892 6.273675 7.248963 6.273592 0 0 0 7.24915 -6.273675 7.248963 6.273592 0 0 0 -7.24915 -6.273479zm14.49811 18.820708a7.248963 6.273592 0 0 0 -7.24896 6.27352 7.248963 6.273592 0 0 0 7.24896 6.27367 7.248963 6.273592 0 0 0 7.249069 -6.27367 7.248963 6.273592 0 0 0 -7.249069 -6.27352z" fill="#a1a7ae" stroke="#909296" stroke-width=".207" transform="matrix(.40496 0 0 .40496 83.77-38.2)"/><g><circle cx="-46.787" cy="-27.394" r="12" transform="matrix(1.04635 0 0 1.04635 122.33 15.345)" fill="url(#0)"/><path d="m74.874-11.219l2.7-2.7 2.1 2.1-6.3 6.3-6.3-6.3 2.1-2.1 2.7 2.7v-9.9h3v9.9" fill="#fff" fill-opacity=".854"/></g></g></svg>