<svg xmlns="http://www.w3.org/2000/svg" viewBox="0 0 48 48"><defs><clipPath id="1"><path transform="matrix(15.33333 0 0 11.5 415-125.5)" d="m-24 13c0 1.105-.672 2-1.5 2-.828 0-1.5-.895-1.5-2 0-1.105.672-2 1.5-2 .828 0 1.5.895 1.5 2" fill="#1890d0"/></clipPath><linearGradient id="0" gradientUnits="userSpaceOnUse" x1="24.61" y1="47.593" x2="23.593" y2="-.203"><stop stop-color="#ff433a"/><stop stop-color="#ff9436" offset="1"/></linearGradient></defs><rect height="48" width="48" rx="2.982" fill="url(#0)" fill-rule="evenodd"/><g transform="translate(-72.41 5.695)"><g clip-path="url(#1)" fill="#fff" transform="matrix(1.06663 0 0 1.06663 70.812-7.295)"><g fill="#ffe8e1"><path d="m24.05 9c-4.211 0-8.05 1.805-10.734 4.539-2.676 2.723-4.316 6.453-4.316 10.516 0 4.066 1.637 7.793 4.316 10.516 2.688 2.738 6.527 4.43 10.734 4.43 4.215 0 7.949-1.699 10.629-4.43 2.68-2.723 4.313-6.449 4.313-10.516 0-4.063-1.641-7.793-4.313-10.516-2.68-2.727-6.418-4.539-10.629-4.539m0 5.535c2.426 0 4.625 1.051 6.313 2.766 1.68 1.711 2.766 4.082 2.766 6.754 0 2.672-1.098 5.05-2.766 6.754-1.68 1.707-3.875 2.656-6.313 2.656-2.438 0-4.641-.953-6.309-2.656-1.664-1.691-2.77-4.063-2.77-6.754 0-2.688 1.098-5.05 2.77-6.754 1.676-1.707 3.887-2.766 6.309-2.766"/><path d="m34 28.5c0 3.039-2.465 5.5-5.5 5.5-3.039 0-5.5-2.461-5.5-5.5 0-3.039 2.461-5.5 5.5-5.5 3.035 0 5.5 2.461 5.5 5.5"/></g></g></g></svg>