<svg xmlns="http://www.w3.org/2000/svg" viewBox="0 0 48 48"><defs><linearGradient gradientTransform="matrix(.63636 0 0 .62142-173.54-308.33)" gradientUnits="userSpaceOnUse" y2="507.8" x2="0" y1="542.8" id="0"><stop stop-color="#2e3436"/><stop offset="1" stop-color="#555753"/></linearGradient></defs><g transform="matrix(1.71427 0 0 1.71427-124.21-6.488)" enable-background="new"><rect width="28" height="21.13" x="72.46" y="7.228" fill="url(#0)" rx=".994"/><g transform="matrix(1.16446 0 0 1.16446-14.423-3.532)" fill="#fff"><g fill="#3daefd" color="#000"><circle r="1.331" cy="23.353" cx="79.45"/><circle r="1.331" cy="18.563" cx="79.45"/></g><g fill="#ff5959"><rect y="12.974" x="81.84" height=".532" width="1.065" rx=".266"/><rect y="12.974" x="83.44" height=".532" width="1.597" rx=".266"/><rect y="12.974" x="86.63" height=".532" width="1.597" rx=".266"/><rect y="12.974" x="89.29" height=".532" width="3.194" rx=".266"/><rect y="12.974" x="93.02" height=".532" width="2.129" rx=".266"/><rect y="14.04" x="81.84" height=".532" width="2.129" rx=".266"/><rect y="14.04" x="84.5" height=".532" width="1.065" rx=".266"/><rect y="14.04" x="86.63" height=".532" width="4.258" rx=".266"/></g><g fill="#3daefd"><rect y="17.765" x="81.84" height=".532" width="1.065" rx=".266"/><rect y="17.765" x="83.44" height=".532" width="1.597" rx=".266"/><rect y="17.765" x="86.63" height=".532" width="2.129" rx=".266"/><rect y="17.765" x="89.83" height=".532" width="2.129" rx=".266"/><rect y="17.765" x="92.49" height=".532" width="2.661" rx=".266"/><rect y="18.829" x="81.84" height=".532" width="1.597" rx=".266"/><rect y="18.829" x="86.63" height=".532" width="1.597" rx=".266"/><rect y="18.829" x="88.76" height=".532" width=".532" rx=".266"/><rect y="18.829" x="89.83" height=".532" width="2.661" rx=".266"/><g transform="scale(-1 1)"><rect y="23.619" x="-92.49" height=".532" width="1.065" rx=".266"/><rect y="23.619" x="-90.89" height=".532" width="4.258" rx=".266"/><rect y="23.619" x="-85.57" height=".532" width="3.726" rx=".266"/><rect y="22.555" x="-95.15" height=".532" width="1.065" rx=".266"/><rect y="22.555" x="-93.55" height=".532" width="1.597" rx=".266"/><rect y="22.555" x="-91.42" height=".532" width="4.79" rx=".266"/><rect y="22.555" x="-84.5" height=".532" width="2.661" rx=".266"/></g></g><path d="m78.12 12.974l1.331-.532 1.331.532c0 0-.494 2.129-1.331 2.129-.837 0-1.331-2.129-1.331-2.129" fill="#ff5959" fill-rule="evenodd"/></g></g></svg>