<svg xmlns="http://www.w3.org/2000/svg" viewBox="0 0 48 48"><defs><linearGradient id="0" gradientUnits="userSpaceOnUse" y1="47.37" x2="0" y2="-1.429"><stop stop-color="#0a80fd"/><stop offset="1" stop-color="#56c5fa"/></linearGradient></defs><g transform="matrix(.99999 0 0 .99999-58.37.882)" enable-background="new"><circle cx="82.37" cy="23.12" r="24" fill="url(#0)"/><g transform="translate(65.07-9.1)" fill="#fff"><path d="m22.12 47.42c-.204.233-.467.45-.715.65-1.604-1.658-3.488-3.496-5.279-3.496-1.11 0-1.91.845-2.842 1.441-1.294.827-3.07 1.293-4.592.686-.818-.311-1.611-.768-2.204-1.512 1.198.826 2.991.937 4.343.376 1.494-.62 3.02-1.443 4.719-1.443 2.51 0 4.896 1.698 6.57 3.297m-18.555-5.215c1.662 1.892 4.373 1.283 6.592 1.756.309.066.599.168.931.117-.264-.167-.613-.186-.918-.301-1.722-.649-1.99-2.491-2.932-3.759 1.203.8 2.2 1.895 3.326 2.925.783.716 1.759 1.023 2.771 1.229-.243.089-.561.068-.823.133-1.818.451-3.833 1.163-5.768.524-1.248-.412-2.547-1.388-3.178-2.624m-2.664-4.379c1.037 2.347 3.642 2.531 5.374 3.971.329.274.656.526 1.018.695l.019-.019c-.4-.362-.832-.793-1.142-1.242-.99-1.438-.661-3.404-1.424-4.929.693.83 1.344 1.685 1.743 2.636.643 1.53.861 3.275 2.302 4.438-1.56-.515-3.359-.412-4.764-1.332-1.476-.967-2.845-2.493-3.126-4.217m-1.111-4.749c.15 2.068 2.352 3.173 3.402 4.873.224.363.455.738.781 1.031-.051-.22-.232-.415-.332-.631-.337-.729-.489-1.574-.405-2.442.102-1.056.543-2.037.374-3.148.905 1.953.613 4.395 1.136 6.507.116.467.4.876.576 1.319-.889-.676-2.054-1.277-3.03-2.046-.944-.744-1.763-1.616-2.189-2.751-.307-.818-.387-1.793-.311-2.713zm.061-3.811c.106-.462.187-.939.388-1.363-.38 1.951.918 3.36 1.361 5.05.167.636.224 1.312.481 1.905.024.013.045-.012.06-.031-.64-1.796.298-3.456 1.213-4.872.24-.372.356-.806.468-1.244.099.813-.074 1.754-.225 2.594-.194 1.08-.563 2.093-.856 3.135-.193.651-.142 1.386-.043 2.068l-.093-.074c-.681-1.257-2.024-2.239-2.43-3.61-.324-1.096-.548-2.363-.324-3.556m.718-2.099c0-1.476.575-2.681 1.437-3.78.025-.012.043-.038.075-.032-.949 1.444-.085 3.267-.207 4.904l-.125 1.681c.019.012.019.063.063.043.056-.187.073-.387.106-.58.229-1.355 1.418-2.298 2.428-3.255.239-.226.413-.494.526-.781-.084.675-.272 1.367-.575 1.98-.777 1.573-2.277 2.842-2.547 4.629-.131-1.713-1.18-2.986-1.18-4.81m2.502-4.98c.477-.529 1.012-.941 1.649-1.105-1.237.85-1.17 2.37-1.548 3.641-.138.465-.342.9-.45 1.38l.031.025c.206-.543.559-1.065 1.019-1.499.87-.821 2.178-1.317 2.608-2.518-.02 1.668-1.442 2.936-2.741 3.918-.583.44-1.078 1.031-1.38 1.65.05-.461.073-.844.032-1.294-.133-1.457-.22-3.091.779-4.198zm5.02-2.805c-.918.805-1.53 1.842-2.235 2.774-.586.775-1.391 1.255-2.083 1.906.374-.775.443-1.663.917-2.413.811-1.282 2.152-1.78 3.402-2.267" opacity=".9"/><path d="m28.584 36.06l-.271-.148c-.575 1.185-1.336 2.264-2.246 3.197l-1.584-1.584c.776-.8 1.402-1.707 1.862-2.688l-.27-.148c-.456.973-1.069 1.858-1.808 2.62l-1.435-1.435c.616-.64 1.105-1.371 1.457-2.16l-.268-.146c-.345.778-.822 1.486-1.404 2.092l-1.586-1.586c.441-.467.781-1 1.013-1.587l-.268-.146c-.221.567-.549 1.082-.959 1.519l-1.439-1.439c.41-.458.648-1.031.681-1.645h2.037c-.017.55-.13 1.077-.321 1.564l.268.146c.214-.539.335-1.116.353-1.711h2.245c-.02.991-.241 1.934-.622 2.791l.268.146c.408-.914.634-1.908.654-2.937h2.033c-.021 1.396-.343 2.72-.902 3.912l.27.148c.59-1.256.911-2.633.932-4.059h2.245c-.022 1.838-.455 3.578-1.21 5.134l.271.148c.812-1.672 1.243-3.519 1.243-5.432 0-1.627-.312-3.206-.904-4.67l-.278.12c.558 1.382.86 2.868.879 4.401h-2.246c-.018-1.223-.258-2.408-.698-3.513l-.276.118c.424 1.068.656 2.214.674 3.395h-2.033c-.017-.9-.193-1.774-.51-2.591l-.276.119c.301.78.469 1.614.486 2.473h-2.246c-.016-.549-.12-1.083-.304-1.586l-.276.118c.169.466.265.959.28 1.467h-2.037c-.034-.613-.271-1.187-.681-1.645l1.441-1.44c.445.473.781 1.023.997 1.618l.276-.118c-.231-.63-.589-1.211-1.062-1.712l1.588-1.588c.678.705 1.195 1.524 1.538 2.412l.276-.119c-.358-.923-.897-1.773-1.602-2.506l1.438-1.438c.89.918 1.575 1.984 2.033 3.14l.276-.118c-.474-1.191-1.179-2.289-2.097-3.234l1.588-1.588c1.123 1.15 1.989 2.485 2.574 3.934l.278-.12c-.618-1.529-1.542-2.934-2.744-4.136-1.206-1.206-2.617-2.132-4.153-2.75l-.111.282c1.453.585 2.79 1.452 3.943 2.577l-1.588 1.588c-.929-.901-2.01-1.599-3.175-2.072l-.11.279c1.13.459 2.172 1.134 3.073 2.01l-1.438 1.438c-.699-.672-1.505-1.194-2.378-1.552l-.11.279c.836.343 1.607.842 2.276 1.485l-1.588 1.588c-.447-.421-.957-.751-1.509-.982l-.11.279c.514.215.99.523 1.407.915l-1.44 1.44c-.458-.41-1.032-.648-1.645-.681v-2.037c.585.018 1.152.142 1.679.363l.11-.279c-.561-.234-1.165-.366-1.788-.384v-2.246c.909.018 1.79.203 2.609.539l.11-.279c-.853-.349-1.772-.541-2.719-.559v-2.034c1.206.018 2.375.259 3.462.7l.11-.279c-1.122-.454-2.328-.702-3.572-.72v-2.246c1.529.018 3.01.32 4.392.875l.111-.282c-1.46-.588-3.03-.897-4.653-.897-2 0-3.894.478-5.572 1.321l.137.262c1.623-.813 3.419-1.257 5.285-1.279v2.246c-1.521.023-2.959.392-4.241 1.028l.136.261c1.263-.625 2.657-.968 4.104-.99v2.033c-1.131.022-2.202.294-3.159.762l.137.262c.933-.453 1.958-.703 3.02-.724v2.246c-.706.021-1.375.188-1.979.472l.138.263c.572-.266 1.195-.415 1.842-.435v2.037c-.316.018-.617.09-.895.207l.138.263c.284-.116.591-.178.907-.178.64 0 1.241.249 1.694.702.452.452.702 1.054.702 1.694 0 1.321-1.074 2.396-2.395 2.396-.64 0-1.242-.249-1.694-.702-.452-.453-.702-1.054-.702-1.694 0-.64.249-1.242.702-1.694.229-.229.496-.405.786-.524l-.138-.263c-.276.117-.529.278-.749.475l-1.441-1.441c.372-.35.792-.633 1.244-.843l-.138-.263c-.486.228-.93.531-1.316.896l-1.589-1.589c.557-.535 1.186-.97 1.863-1.299l-.137-.262c-.715.349-1.368.806-1.935 1.352l-1.44-1.44c.727-.705 1.547-1.28 2.431-1.717l-.136-.261c-.925.459-1.77 1.057-2.504 1.77l-1.591-1.591c.912-.89 1.941-1.618 3.051-2.174l-.137-.262c-2.425 1.219-4.399 3.204-5.601 5.639l.261.141c.561-1.14 1.302-2.197 2.214-3.132l1.591 1.591c-.74.763-1.359 1.644-1.824 2.611l.26.14c.444-.927 1.038-1.785 1.773-2.543l1.44 1.44c-.581.604-1.061 1.304-1.417 2.073l.261.141c.335-.731.794-1.408 1.366-2l1.589 1.589c-.406.431-.737.934-.972 1.487l.263.142c.216-.519.525-.998.92-1.418l1.441 1.441c-.396.442-.647 1.014-.682 1.644h-2.037c.018-.581.141-1.144.358-1.667l-.263-.142c-.237.559-.376 1.169-.395 1.809h-2.245c.02-1.01.247-1.986.657-2.881l-.261-.141c-.427.923-.676 1.945-.697 3.02h-2.034c.021-1.404.344-2.759.934-3.992l-.26-.14c-.604 1.254-.951 2.655-.974 4.133h-2.246c.022-1.834.451-3.601 1.238-5.203l-.261-.141c-.819 1.658-1.281 3.523-1.281 5.494 0 1.206.172 2.384.501 3.51l.294-.074c-.309-1.055-.478-2.158-.492-3.286h2.246c.014.941.159 1.86.425 2.737l.291-.073c-.26-.854-.402-1.748-.416-2.664h2.033c.015.746.138 1.473.359 2.166l.292-.074c-.216-.669-.336-1.372-.351-2.092h2.245c.016.533.114 1.052.289 1.542l.292-.074c-.169-.466-.265-.961-.281-1.469h2.037c.034.613.271 1.187.681 1.645l-1.44 1.44c-.444-.473-.781-1.022-.997-1.616l-.292.074c.231.646.594 1.243 1.077 1.755l-1.588 1.588c-.772-.804-1.338-1.757-1.672-2.792l-.292.074c.348 1.087.94 2.087 1.752 2.931l-1.438 1.438c-1.075-1.109-1.852-2.432-2.291-3.871l-.291.073c.452 1.491 1.256 2.862 2.37 4.01l-1.588 1.588c-1.405-1.44-2.409-3.168-2.961-5.05l-.294.074c.579 1.981 1.647 3.796 3.146 5.296 1.016 1.016 2.177 1.834 3.435 2.436l.149-.264c-1.191-.568-2.293-1.333-3.264-2.28l1.588-1.588c.825.801 1.766 1.44 2.784 1.905l.148-.263c-.994-.451-1.914-1.073-2.719-1.854l1.438-1.438c.674.648 1.448 1.157 2.286 1.513l.148-.262c-.814-.342-1.567-.833-2.221-1.461l1.588-1.588c.51.481 1.104.844 1.748 1.074l.15-.266c-.622-.215-1.195-.559-1.686-1.021l1.44-1.441c.458.41 1.031.648 1.645.681v2.037c-.483-.015-.954-.103-1.399-.257l-.15.266c.492.177 1.013.276 1.549.291v2.245c-.929-.019-1.829-.211-2.664-.561l-.148.262c.88.374 1.83.58 2.812.599v2.033c-1.338-.021-2.63-.315-3.816-.853l-.148.263c1.231.562 2.574.869 3.964.89v2.245c-1.784-.021-3.505-.426-5.071-1.172l-.149.264c1.656.792 3.481 1.211 5.371 1.211 1.982 0 3.892-.463 5.612-1.333l-.142-.275c-1.603.812-3.408 1.281-5.32 1.305v-2.245c1.516-.022 2.975-.386 4.293-1.049l-.14-.272c-1.253.631-2.662.997-4.153 1.02v-2.033c1.137-.022 2.232-.295 3.223-.789l-.139-.27c-.933.465-1.978.737-3.084.76v-2.245c.724-.021 1.422-.196 2.056-.506l-.138-.269c-.583.284-1.232.453-1.918.475v-2.037c.613-.034 1.187-.271 1.645-.681l1.439 1.439c-.345.323-.737.595-1.166.805l.138.269c.45-.22.868-.508 1.241-.86l1.585 1.585c-.529.508-1.136.936-1.799 1.266l.139.27c.68-.339 1.312-.781 1.874-1.322l1.435 1.435c-.699.678-1.501 1.248-2.379 1.69l.14.272c.891-.448 1.719-1.032 2.454-1.746l1.584 1.584c-.884.862-1.9 1.589-3.01 2.152l.142.275c1.165-.59 2.244-1.364 3.194-2.315.999-.999 1.805-2.139 2.405-3.374z" opacity=".9"/><path d="m16.984 28.57h-.138l-.025-.28.075-.051v-.14h-.44l-.013-.14.063-.038-.101-.038-.075.102-.025.115-.126.026v.064h-.088v.166l-.352.293-.703-.025c-.05.115-.176-.013-.176-.013-.025-.076-.201 0-.201 0 0 .14-.239-.064-.239-.064l-.44-.319c-.251-.229-.628.064-.641.127.012.179-.289.038-.289.038 0 0-.251-.076-.289.026-.038.102-.201.077-.201.077l-.025.051-.126.025-.025.076-.151.026.377-.013c.101-.013-.038.217-.1.204l-.176.013-.063.064h-.163l-.075.102-.239-.013c0 0-.138.115-.126.153.013.038-.025.153-.063.153-.038 0-.113.115-.088.153.025.038-.075.166-.075.166l-.025.128-.075.025v.344l-.151.102v.153l-.226.242.025.204-.188.204.025.204-.113.038-.025.089-.05.268.126.013c.063-.026.05.166 0 .191-.05.026-.189.076-.113.127.075.051-.201.038-.201-.038 0-.076-.151-.14-.188-.115-.038.025-.101-.115-.101-.115-.138-.14-.565.013-.565.013l-.063.204c-.138.026-.226.255-.226.255-.113.038-.201.178-.163.217.038.038-.063.051-.063.051v.281l-.063.089.012.306c.075 0 .063.14.063.14-.126.013-.101.179-.101.179l-.264.089-.05.076-.327-.013-.088.089-.088-.089h-.628l-.025-.064-.126-.026-.013-.14-.188.013-.038.076-.201.013c.013.128-.201.319-.226.268-.025-.051-.164-.191-.101-.217.063-.026.226-.051.226-.051v-.089l-.465-.013-.05.077-.189.013v.204l-.088.026c-.063.038.012.179.012.179.088.089-.012.229-.012.229-.075.077.063.217.063.217.101.025-.063.102-.063.102.025.127.1.166.1.166-.075.127.05.191.05.191l.012.217.088.051v.14l.05.089h.201l-.013-.319c-.176-.204.151-.255.163-.179.013.077.151.115.151.115.025.191.239.306.301.115.063-.191.113-.077.151.013.038.089.276.306.276.306h.189l.025.179c.213-.013.276.013.364.306.088.293.327.37.327.37l.176-.013c0-.153.176.026.176.102 0 .076.339.369.339.369l.339.076.314.255.238-.026h.101c.063-.217.364.013.389.089.025.077.226.204.251.14.025-.064.163-.025.189.166.025.191.113.153.113.153l.716-.013.251-.217.641-.013c.327-.013.126-.459.063-.459-.113-.089.038-.459.038-.459l-.917-.854c-.213 0-.025-.306-.025-.306.163-.102-.038-.268-.038-.268.025-.153-.088-.332-.088-.332-.226-.153-.163-.446-.163-.446v-.204c-.188-.178.075-.204.075-.204.088-.153-.063-.267-.063-.267l-.012-.166-.201-.026-.025-.599-.452-.65c-.088-.026-.025-.179-.025-.179.113-.064-.025-.217-.025-.217l-.012-.281.264-.026.063-.102h.126l-.012-.332c.063-.166.213-.077.213-.077l.176.013.101-.191.025-.153-.138-.013c-.151-.089-.075-.421-.075-.421.239-.357.515-.153.515-.153l.176-.013c.264.178.025.51.025.51-.05.077-.025.319-.025.319l.063.408-.163.14c-.138.077-.138.255.013.293.1.013.063.255-.088.089-.226 0 .126.204.025.153.226.115.176-.102.176-.102l.302-.242c.113-.089.314.191.314.23 0 .038.502.013.502.013.138.089.188.319.188.319.138-.179.427-.013.214.089.201.127.201.242.201.242.164-.051.164.076.164.115 0 .038.05-.191.05-.191-.188-.14.251-.191.126.064l-.075.115.126.102.012.293c.276-.026.201-.37.201-.37l.126-.025c0-.115.088-.051.088-.051-.088-.434.201-.51.201-.51.163-.038.176-.383.176-.383-.113-.051-.05-.229.075-.076.126.153-.075-.306-.075-.306l-.1-.089-.138-.013-.013-.14h-.226l-.038.179-.088.025-.025-.051-.038.14h-.226l-.012-.153.138-.038.05-.076.038-.204h.163l.213-.064c.012-.217.126-.166.126-.166l.075.064.113.089.013.076-.075.038-.012.102.038.14h.1c.038-.204.302-.204.377-.076l.075-.178c-.176-.089-.003-.23.047-.166.05.064.167-.166.167-.166 0 0 .088.115 0-.038-.088-.153.063-.229.063-.229-.025-.153.163-.127.163-.127l.013-.204-.176-.013c-.037.179-.188.026-.113-.013.075-.038.151-.115.151-.115v-.127l.075-.025.012-.127h.189l.163-.076.038-.064.176-.013.251-.23-.025-.102c-.151 0 0-.115 0-.115l.025-.191" opacity=".9"/><path d="m16.771 30.941v-.179l-.025-.166-.188-.089-.138.127-.025.179v.115l-.126.026-.025.344-.1.038.013.127-.138.038-.138.038-.025.166-.1.064-.051.153-.063.37c0 0 .113.217.176.115.063-.102.163-.115.163-.115l.038-.089.339.013c.025-.14.188-.089.188-.025 0 .064.126.013.126.013l.088-.14h.138l.013-.153.063-.038v-.23c.201-.064.176-.255.176-.255l.051-.064-.025-.089c-.101-.038-.05-.128.012-.102.063.025-.088-.115-.088-.115-.075.064-.138-.076-.138-.076h-.189" opacity=".9"/><path d="m21.657 21.813c-.037.112-.05.268-.113.268-.063 0-.038.166-.038.166 0 0 .164 0 .214.013.05.013.05.14.05.14.189-.013.264.242.239.306-.025.064.075.064.075.064 0 0 0 .204-.025.255-.025.051.163.089.214.166.05.077-.025.331-.063.344-.038.013.1.051.088.115-.013.064.038 0 .05.102.012.102.038.319.038.319l.176.013c.025-.166.349-.172.402-.153.214.076.377.408.377.484 0 .076-.138.089-.138.089l.025.37c.213.064.389.37.364.421-.025.051.151.038.151.038.025-.23.239-.153.251-.077.013.077.05.242.05.242l.063.115.088.089.138-.013.038.077.163.026c0 0 .138.153.151.191.013.038.201.025.251.038.05.013.126.051.138.115.013.064.088.166.088.166 0 0 .151.038.163.089.012.051.075.166.075.166l.125.102.013.115.138.013.038.153.226-.013.126-.089c.163-.089.276-.204.289-.255.012-.051.038-.242.163-.204.126.038.038-.281.038-.281 0 0-.176-.127-.163-.191.013-.064-.176-.191-.163-.242.012-.051-.163-.153-.151-.204.012-.051-.088-.191-.088-.191l-.189-.178-.025-.115-.151-.013-.301-.37.012-.102-.088-.013v-.14l-.088-.051-.138-.013-.276-.306-.025-.14h-.138l.025-.268c.088-.115.038-.331.038-.331 0 0-.176.089-.264.051-.088-.038.038-.127.038-.127v-.102l-.075-.076c0 0-.214.026-.226-.013-.013-.038-.05-.204-.05-.204l-.013-.217-.088-.038-.013-.077-.138.013v-.153l-.075-.025-.075-.038-.013-.153-.276-.013-.088-.127-.1-.153-.314-.025-.075-.076-.126-.026-.088-.038-.038.064-.239.013-.012.076c-.126.064-.628.013-.641.051" opacity=".9"/><path d="m24.333 28.952c-.05.051-.163.077-.163.077l-.038.14-.063.051c0 0 .012.038 0 .127-.013.089-.126.14-.126.14l-.05.064c0 0-.303.016-.339 0-.113-.051-.038-.204.038-.191.075.013-.013-.217-.013-.217l.101-.013c0 0 .012-.23.05-.23.038 0-.012-.076-.063-.115-.05-.038-.113-.166-.163-.153-.05.013-.251 0-.251 0l-.038.077-.138.025c0 0 .012.099-.012.128-.076.089-.364.28-.239-.038l.038-.076v-.115l-.226-.013c0 0-.113-.038-.113-.089 0-.051-.013-.115-.013-.115l-.264-.293-.314-.038-.025-.064-.188-.025c-.226-.115-.427-.013-.39.179.038.191.1.268-.025.268-.126 0-.151-.102-.151-.102 0 0-.1-.038-.1.013 0 .051-.038.153 0 .204.038.051-.05.127-.088.089-.037-.038-.138-.153-.113-.191.025-.038-.176-.281.025-.319.201-.038-.013-.153.063-.178l.1-.051h.1l.063-.051-.163-.025-.1-.013-.189-.013c-.188.127-.226.281-.226.281-.101.191-.339-.077-.251-.179.088-.102-.276-.013-.339.038-.063.051-.251.025-.251.025-.038.115-.213-.013-.163-.089.05-.076.05-.127.05-.127l-.063-.013-.075.14c-.176 0-.226.102-.189.166.038.064-.05-.013-.075.076-.025.089.013.089.088.127.075.038-.038.038.012.102.05.064.201 0 .113.089-.088.089-.264.051-.264.051-.012.115-.251.089-.276.051-.025-.038-.214-.268-.214-.268l-.239-.013c-.025-.178.113-.089.163-.229.05-.14.076-.37.076-.37 0 0-.201-.013-.214.051-.012.064-.138.102-.138.102 0 0-.101.038-.063.089.038.051-.075.076-.075.076 0 0 .02.082-.012.115-.1.102-.352.013-.389-.025l-.151-.064-.151-.102-.176.076-.05.051h-.189l-.012.153.339.038.025.316-.138-.048h-.088l-.038-.077-.075-.013v.28l.075.064.063.064.126.013.025.153.314.013.038.064.189.013.364.37-.025.115-.063.038c.025.089-.163.038-.163.038v.076l.088.013.088.051.126-.217c.138-.089.201.038.214.115.012.076-.063.064-.063.064v.179l.075.025c.126.153-.05.242-.05.242l-.038.127c-.038.115-.176.089-.176.089l-.05.077-.151.038.298.038c.028-.102.104-.127.141-.076.038.051.038.14.038.14l.076.013-.013.14.075.026v.408l.088.102c.151-.064.151.038.075.089-.075.051-.025.281-.025.281l-.063.064v.102l-.075.051v.14c-.126-.064-.276-.038-.314 0-.113-.077-.352-.051-.352.013.075.102-.088.127-.088.127l-.088.102c.063.128-.063.14-.063.14v.242l-.151.14.013.331c0 .089.188.102.226.051.038-.051.189.102.189.102h.113l.025-.23-.075-.038v-.37l.126-.14c.151-.051.101.332.101.37.012.14.075.127.138.102.126-.051.025.14-.075.127-.1-.013-.038.127-.038.127l.063.026-.113.089-.1.115-.126-.038-.151-.013-.05-.089-.088-.013-.012.178-.063.076-.151.153c.201 0-.025.14-.075.14.113.038-.012.153-.301.064v.089l-.101.013.088.102.1.013-.038.217c0 .166-.414.051-.452.013l-.012.23-.075.013.012.153-.012.217.138-.026v.089l.339.013.49-.523.289-.064c.025-.128.151.026.151.026.126-.013.151.076.151.076l.163.026c.138.038.055.052.063.102.012.076.075.051.075.051l.025-.166.075.013-.075-.089-.138-.064-.151-.064c-.101-.14.025-.115.126-.102h.163c0 0 .189.255.189.319 0 .064.088.077.088.077l.113-.013.038.089h.113l.038.076h.226l.013-.115-.214-.038-.012-.128-.151-.038c-.05-.217.038-.28.1-.178l.075.013-.025-.191.088-.026-.025-.268-.075-.025v-.089l.314.013c-.025-.166.013-.242.013-.242h.088l.012.064.384.036.272-.312c-.014-.024.027-.038-.003-.069-.038-.038-.088 0-.151-.038-.063-.038 0-.255-.012-.306-.012-.051.214-.128.176-.013-.038.115 0 .166 0 .166.163-.153.301.013.289.051-.013.038.088.076.15.038.063-.038.138.115.113.191-.025.076-.251.064-.264-.013-.013-.077-.051-.051-.075-.013-.025.038-.138.064-.201.025-.013-.008-.019-.014-.022-.02l-.272.312.018.002c.151.089.075.204.025.23-.05.026-.138.026-.138.026l-.025.051-.327.025-.025.128c-.163-.026-.226.153-.188.242.038.089 0 .166 0 .166l.138.064.176-.051c.025-.128.138-.153.239-.23.1-.077.264.14.213.242-.05.102-.05.14-.05.14l.012.115-.126.051-.1.051-.013.064h-.339l-.063.064-.163.013-.05.076-.113.013c0 0-.189.089-.113.191.075.102-.314.089-.402-.051-.025.127-.163.013-.163.013l-.138-.038-.012-.191c-.025-.128-.264-.128-.251-.038.012.089-.452.038-.452.038l-.151.073-.138.08-.012.064-.226.026-.1.051-.038-.077h-.1l-.101.14c-.264.013-.515.166-.49.23.025.064-.1.128-.1.128l-.113.038-.075.115-.151.051-.025.268-.075.051v.115l-.088.025v.064l-.126.013.075.191.101.051c.176.025.1.242.1.242l.1.013.05.14.1.204c.038.153.151.115.201.102.05-.013.1.153.1.153l.502.013c0 0-.025.051.063.077.088.025.666.051.691.013-.025-.115.314-.14.452-.038.138.102.327.038.327.038l.188.229.126.281.213.064.151.038.05.217.113.013.038.14c.138.102-.038.319-.038.319v.28l.101.051-.013.102.164.165.188.013.477.51.377.115.063.204.101-.013.075-.064.301-.013.151-.14.163-.025 1.394-1.186-.126-.077v-.28c.226-.166.239-.459.025-.485-.162-.019-.088-.191.063-.217l.088-.038v-.115l.289-.268v-.204l-.628-.523c-.276-.102 0-.714.188-.701.189.013-.012-.943-.012-.943l-.101-.051.025-.306h-.138l-.226.293-.063.204c-.025.268-.804.217-.842.178-.038-.038-.301-.153-.301-.153 0 0-.201-.166-.239-.115-.038.051-.213-.064-.213-.026 0 .038-.163-.089-.163-.089l-.251-.089.189-.038-.038-.153.326.166c.038.051.201.038.201.038l.05.064c0 0 .101-.013.164.064.063.077.389.013.389.013l.088.076.138.051.39.013.012-.242.075-.077-.013-.153.088-.076v-.127l.075-.026.012-.28.063-.013v-.612l-.188-.179c-.012.064-.213.064-.213.064 0 0-.05.089-.088.089-.038 0 .05.115.025.191-.025.076-.126.076-.126.076l-.189.051-.05.064h-.201l-.025-.166.226-.064.126-.064.063-.128c.012-.127.163-.115.163-.115 0 0 .289-.242.301-.357.013-.115.113-.434.289-.434h.327c.126-.051.088-.217.088-.217l.163-.025.025.089c0 0 .226.025.251-.013.025-.038.075-.127.138-.089.063.038.264-.089.264-.089.012-.089.327-.051.327-.051l.038-.115c0 0-.213-.293-.251-.293-.038 0-.239-.179-.264-.115-.201-.051-.188-.331-.188-.331l-.075-.178c0-.102-.188-.319-.226-.293-.189-.14-.05-.306 0-.319.05-.013.176-.191.176-.191l.063-.179.214-.064.025-.166-.113-.013c0 0 .125-.23.188-.23.063 0 .477 0 .515-.026.038-.025.113-.229.113-.268 0-.038.101-.051.138-.064.038-.013.126-.115.151-.166.025-.051-.063-.37-.113-.319" opacity=".9"/><path d="m12.495 47.42c.204.233.467.45.715.65 1.604-1.658 3.488-3.496 5.279-3.496 1.11 0 1.91.845 2.842 1.441 1.294.827 3.07 1.293 4.592.686.818-.311 1.611-.768 2.204-1.512-1.198.826-2.991.937-4.343.376-1.494-.62-3.02-1.443-4.719-1.443-2.51 0-4.896 1.698-6.57 3.297m18.555-5.215c-1.662 1.892-4.373 1.283-6.592 1.756-.309.066-.599.168-.931.117.264-.167.613-.186.918-.301 1.722-.649 1.99-2.491 2.932-3.759-1.203.8-2.2 1.895-3.326 2.925-.783.716-1.759 1.023-2.771 1.229.243.089.561.068.823.133 1.818.451 3.833 1.163 5.768.524 1.248-.412 2.547-1.388 3.178-2.624m2.664-4.379c-1.037 2.347-3.642 2.531-5.374 3.971-.329.274-.656.526-1.018.695l-.019-.019c.4-.362.832-.793 1.142-1.242.99-1.438.661-3.404 1.424-4.929-.693.83-1.344 1.685-1.743 2.636-.643 1.53-.861 3.275-2.302 4.438 1.56-.515 3.359-.412 4.764-1.332 1.476-.967 2.845-2.493 3.126-4.217m1.111-4.749c-.15 2.068-2.352 3.173-3.402 4.873-.224.363-.455.738-.781 1.031.051-.22.232-.415.332-.631.337-.729.489-1.574.405-2.442-.102-1.056-.543-2.037-.374-3.148-.905 1.953-.613 4.395-1.136 6.507-.116.467-.4.876-.576 1.319.889-.676 2.054-1.277 3.03-2.046.944-.744 1.763-1.616 2.189-2.751.307-.818.387-1.793.311-2.713m-.062-3.811c-.106-.462-.187-.939-.388-1.363.38 1.951-.918 3.36-1.361 5.05-.167.636-.224 1.312-.481 1.905-.024.013-.045-.012-.06-.031.64-1.796-.298-3.456-1.213-4.872-.24-.372-.356-.806-.468-1.244-.099.813.074 1.754.225 2.594.194 1.08.563 2.093.856 3.135.193.651.142 1.386.043 2.068l.093-.074c.681-1.257 2.024-2.239 2.43-3.61.324-1.096.548-2.363.324-3.556m-.718-2.099c0-1.476-.575-2.681-1.437-3.78-.025-.012-.043-.038-.075-.032.949 1.444.085 3.267.207 4.904l.125 1.681c-.019.012-.019.063-.063.043-.056-.187-.073-.387-.106-.58-.229-1.355-1.418-2.298-2.428-3.255-.239-.226-.413-.494-.526-.781.084.675.272 1.367.575 1.98.777 1.573 2.277 2.842 2.547 4.629.131-1.713 1.18-2.986 1.18-4.81m-2.502-4.98c-.477-.529-1.012-.941-1.649-1.105 1.237.85 1.17 2.37 1.548 3.641.138.465.342.9.45 1.38l-.031.025c-.206-.543-.559-1.065-1.019-1.499-.87-.821-2.178-1.317-2.608-2.518.02 1.668 1.442 2.936 2.741 3.918.583.44 1.078 1.031 1.38 1.65-.05-.461-.073-.844-.032-1.294.133-1.457.22-3.091-.779-4.198m-5.02-2.805c.918.805 1.53 1.842 2.235 2.774.586.775 1.391 1.255 2.083 1.906-.374-.775-.443-1.663-.917-2.413-.811-1.282-2.152-1.78-3.402-2.267" opacity=".9"/></g></g></svg>