<svg xmlns="http://www.w3.org/2000/svg" viewBox="0 0 48 48"><defs><linearGradient id="0" x1="24.01" y1="47.593" x2="24.396" y2="1.017" gradientUnits="userSpaceOnUse"><stop stop-color="#2f3f47"/><stop stop-color="#425963" offset="1"/></linearGradient><linearGradient id="1" x1="24.01" y1="47.593" x2="24.396" y2="1.017" gradientUnits="userSpaceOnUse"><stop stop-color="#197cf1"/><stop stop-color="#21c9fb" offset="1"/></linearGradient><linearGradient id="2" x1="229.03" y1="303" x2="222.3" y2="-169.25" gradientUnits="userSpaceOnUse"><stop stop-color="#0a80fd"/><stop stop-color="#56c5fa" offset="1"/></linearGradient></defs><path d="m45.4 10.663c-.014-1.08-.845-1.972-1.921-2.071-8.937-.836-16.23-5.612-18.635-7.359-.502-.366-1.183-.366-1.686 0-2.4 1.747-9.693 6.523-18.63 7.359-1.075.099-1.902.991-1.921 2.071-.108 7.05 1.024 30.981 20.856 36.31.352.094.723.094 1.075 0 19.832-5.321 20.964-29.26 20.861-36.31" fill="url(#0)" stroke="url(#1)" stroke-linejoin="round" stroke-linecap="round" stroke-width="1.92"/><path d="m286.31 318.17h-17.472l26.307-219.08c.708-5.89-1.709-13.694-5.621-18.16l-53.01-60.44c-2.372-2.704-5.721-4.255-9.189-4.255-3.468 0-6.816 1.551-9.188 4.255l-53.02 60.44c-3.912 4.461-6.328 12.266-5.621 18.16l26.307 219.08h-17.472c-8.412 0-15.256 6.844-15.256 15.256v18.984c0 8.412 6.844 15.256 15.256 15.256h37.12v33.14c-10.01 6.95-16.588 18.523-16.588 31.609 0 21.21 17.252 38.458 38.458 38.458 21.21 0 38.458-17.252 38.458-38.458 0-13.09-6.574-24.659-16.588-31.609v-33.14h37.12c8.412 0 15.256-6.844 15.256-15.256v-18.984c.002-8.412-6.842-15.255-15.254-15.255" fill="url(#2)" transform="matrix(.06159 0 0 .06159 10 10)"/></svg>