<svg xmlns="http://www.w3.org/2000/svg" viewBox="0 0 48 48"><defs><linearGradient gradientUnits="userSpaceOnUse" y2="-39.971" x2="24.03" y1="4.951" x1="24.722" id="0"><stop stop-color="#ff4269"/><stop stop-color="#ff7b97" offset="1"/></linearGradient></defs><g enable-background="new"><circle r="24" cy="-16.756" cx="24.692" fill="url(#0)" fill-rule="evenodd" transform="matrix(.99999 0 0 .99999-.691 40.756)"/><path d="m75.27-10.976c-1.42-1.4-3.382-2.099-5.886-2.099-.693 0-1.4.121-2.121.364-.721.243-1.392.57-2.01.982-.621.412-1.154.798-1.602 1.16-.447.361-.872.745-1.274 1.151-.403-.406-.827-.79-1.274-1.151-.447-.361-.981-.748-1.602-1.16-.621-.412-1.291-.739-2.01-.982-.721-.242-1.428-.364-2.121-.364-2.504 0-4.466.7-5.886 2.099-1.42 1.399-2.13 3.34-2.13 5.823 0 .756.132 1.535.394 2.336.263.801.562 1.484.897 2.048.335.564.715 1.114 1.14 1.65.425.536.735.905.931 1.109.195.203.349.35.461.44l10.464 10.19c.201.203.447.305.738.305.291 0 .537-.102.738-.305l10.447-10.157c2.56-2.584 3.84-5.123 3.84-7.617 0-2.483-.71-4.424-2.13-5.823" fill="#fff" fill-opacity=".839" transform="matrix(.99999 0 0 .99999-38.38 25.875)"/></g></svg>