<svg xmlns="http://www.w3.org/2000/svg" viewBox="0 0 48 48"><defs><linearGradient y2="1003.81" x2="0" y1="1052.61" gradientUnits="userSpaceOnUse" id="0"><stop stop-color="#001f2e"/><stop stop-color="#004e64" offset="1"/></linearGradient></defs><circle r="24" cy="1028.36" cx="24" fill="url(#0)" transform="translate(0-1004.36)"/><circle transform="matrix(.93493 0 0 .93493-350.5-473.17)" r="14" cy="531.8" cx="400.57" fill="#5ea5fb" fill-opacity="0"/><path transform="matrix(.77741 0 0 .77741 11.585 6.22)" d="m12.2 15.267c0-3.322.896-6.43 2.448-9.113.376-.649-.191-1.451-.918-1.265-8.38 2.152-14.441 10.07-13.663 19.29.736 8.701 7.768 15.803 16.463 16.617 6.03.565 11.517-1.811 15.221-5.848.5-.546.073-1.432-.666-1.401-.196.009-.395.013-.594.013-10.1 0-18.291-8.189-18.291-18.293" fill="#fff" fill-opacity=".85"/></svg>