<svg xmlns="http://www.w3.org/2000/svg" viewBox="0 0 48 48"><defs><clipPath><path transform="matrix(15.33333 0 0 11.5 415-125.5)" d="m-24 13c0 1.105-.672 2-1.5 2-.828 0-1.5-.895-1.5-2 0-1.105.672-2 1.5-2 .828 0 1.5.895 1.5 2" fill="#1890d0"/></clipPath><linearGradient id="0" gradientUnits="userSpaceOnUse" x1="24.61" y1="47.593" x2="23.593" y2="-.203"><stop stop-color="#dce2ff"/><stop stop-color="#f8feff" offset="1"/></linearGradient><linearGradient id="1" x1="98.14" y1="1033.45" x2="98.75" y2="1007.62" gradientUnits="userSpaceOnUse"><stop stop-color="#0973d9"/><stop stop-color="#0cbffe" offset="1"/></linearGradient></defs><g fill-rule="evenodd"><rect height="48" width="48" rx="2.982" fill="url(#0)"/><path d="m103.3 1008.98l1.521 5.722 2.153.292-5.733 8.677 4.058 1.342 2.663-3.856 1.048 4.687 5.895.607-2.777-8.646 4.92-5.803-5.476-1.224-2.197 2.654-1.074-3.434-5-1.017m-17.563 2.443l-.112.155-4.577 2.272 5.684 13.946 7.783-4.078-1.949-4.509-3.138 1.692-3.691-9.479m4.946 2.312l4.32 9.989-.923 6.855 5.353.901 1.292-7.638 5.278-7.994-5.759-.782-2.14 3.252-1.698-3.762-5.722-.822" fill="url(#1)" transform="translate(-75.05-996.23)"/></g></svg>