<svg xmlns="http://www.w3.org/2000/svg" viewBox="0 0 48 48"><defs><linearGradient gradientTransform="matrix(.58764 0 0 .51291-244.25-258.72)" gradientUnits="userSpaceOnUse" y2="502.38" x2="466.49" y1="542.68" x1="466.38" id="0"><stop stop-color="#197df1"/><stop offset="1" stop-color="#20bcfa"/></linearGradient><linearGradient gradientTransform="matrix(.05481-.00627-.00513-.04499 20.21 21.2)" id="1" gradientUnits="userSpaceOnUse" x1="258.66" y1="1.708" x2="257.5" y2="564.01"><stop stop-color="#e9e9e9"/><stop offset="1" stop-color="#f9f9f9"/></linearGradient></defs><g transform="matrix(1.71427 0 0 1.71427-29.361 13.482)" enable-background="new"><path d="m40.727-2.45c-.051-.449.354-.874.938-1.024l-.142-1.249c-.603-.015-1.093-.337-1.145-.786-.051-.449.354-.874.938-1.024l-.151-1.322-1.328.152c-.023.518-.445.962-1.01 1.027-.564.064-1.075-.273-1.214-.773l-1.505.172c-.023.518-.445.962-1.01 1.027-.564.064-1.075-.273-1.214-.773l-1.294.148c-.045.498-.458.918-1.01.981-.547.063-1.044-.253-1.2-.729l-1.522.174c-.045.498-.458.918-1.01.981-.547.063-1.044-.253-1.2-.729l-1.193.136c-.045.498-.458.918-1.01.981-.547.063-1.044-.253-1.2-.729l-1.522.174c-.045.498-.458.918-1.01.981-.547.063-1.044-.253-1.2-.729l-1.336.153.166 1.457c.603.015 1.093.337 1.145.786.051.449-.354.874-.938 1.024l.13 1.144c.677-.047 1.255.293 1.311.782.056.49-.431.951-1.101 1.058l.129 1.132c.653-.025 1.201.309 1.256.785.054.476-.405.926-1.047 1.049l.109.952c.027-.004.054-.008.082-.011.711-.081 1.335.266 1.393.775.058.509-.472.988-1.183 1.07-.028.003-.055.005-.082.007l.134 1.177c.653-.025 1.201.309 1.256.785.054.476-.405.926-1.046 1.049l.145 1.275c.628-.005 1.147.324 1.2.787.053.463-.379.9-.992 1.037l.14 1.227c.677-.047 1.255.293 1.311.782.056.49-.431.951-1.101 1.058l.129 1.129c.677-.047 1.255.293 1.311.782.056.49-.431.951-1.101 1.058l.139 1.217 1.218-.139c-.014-.05-.024-.103-.03-.156-.067-.584.383-1.115 1-1.186.621-.071 1.178.345 1.244.929.006.053.008.107.006.159l1.505-.172c-.014-.05-.024-.103-.03-.156-.067-.584.383-1.115 1-1.186.621-.071 1.178.345 1.244.929.006.053.008.107.006.159l1.176-.134c-.014-.05-.024-.103-.03-.156-.067-.584.383-1.115 1-1.186.621-.071 1.178.345 1.244.929.006.053.008.107.006.159l1.505-.172c-.014-.05-.024-.103-.03-.156-.067-.584.383-1.115 1-1.186.621-.071 1.178.345 1.244.929.006.053.008.107.005.159l1.28-.146c-.008-.036-.015-.074-.019-.112-.067-.584.383-1.115 1-1.186.621-.071 1.178.345 1.244.929.004.038.006.076.007.113l1.493-.171c-.008-.036-.015-.074-.019-.112-.067-.584.383-1.115 1-1.186.621-.071 1.178.345 1.244.929.004.038.006.076.007.113l1.431-.164-.139-1.22c-.653.025-1.201-.309-1.256-.785-.054-.476.405-.926 1.046-1.049l-.14-1.225c-.653.025-1.201-.309-1.256-.785-.054-.476.405-.926 1.046-1.049l-.124-1.09c-.653.025-1.201-.309-1.256-.785-.054-.476.405-.926 1.046-1.049l-.14-1.225c-.653.025-1.201-.309-1.256-.785-.054-.476.405-.926 1.046-1.049l-.119-1.045c-.653.025-1.201-.309-1.256-.785-.054-.476.405-.926 1.047-1.049l-.14-1.225c-.653.025-1.201-.309-1.256-.785-.054-.476.405-.926 1.047-1.049l-.131-1.147c-.603-.015-1.093-.337-1.145-.786" fill="url(#1)"/><rect transform="matrix(.99352-.11362.11328.99356 0 0)" y="-1.088" x="21.17" height="20.876" width="17.982" fill="url(#0)" rx=".308"/><g fill="#0b3757" color="#000"><g transform="matrix(.99343-.11448.11448.99343 0 0)"><ellipse ry="1.409" rx="1.414" cy="9.333" cx="25.976"/><ellipse ry="1.691" rx="1.696" cy="13.561" cx="28.521"/><ellipse ry=".846" rx=".848" cy="4.823" cx="27.11"/></g><path d="m32.16.298l-1.414 1.777 2.74 2.167-2.213 3.181 1.855 1.276 3.416-4.933-4.384-3.467"/></g></g></svg>