<svg xmlns="http://www.w3.org/2000/svg" viewBox="0 0 48 48"><defs><linearGradient id="0" gradientUnits="userSpaceOnUse" x1="24.61" y1="47.593" x2="23.593" y2="-.203"><stop stop-color="#2e3e46"/><stop offset="1" stop-color="#47606a"/></linearGradient><linearGradient id="1" x1="23.967" y1="40.4" x2="23.602" y2="8.899" gradientUnits="userSpaceOnUse"><stop stop-color="#ff9300"/><stop offset="1" stop-color="#ffd702"/></linearGradient></defs><rect height="48" width="48" rx="2.982" fill="url(#0)" fill-rule="evenodd"/><path d="m24 7c-1.798 0-3.256 1.457-3.256 3.256 0 1.798 1.458 3.256 3.256 3.256 1.797 0 3.256-1.458 3.256-3.256 0-1.799-1.458-3.256-3.256-3.256m0 7.777c-1.479 0-2.96.009-3.03.027-.882.15-1.649.707-2.01 1.545l-3.629 8.32c-.217.5-.168 1.075.131 1.531.299.456.806.73 1.352.73.643 0 1.223-.379 1.48-.969l1.367-3.137v16.41c0 .974.79 1.764 1.764 1.764.975 0 1.764-.79 1.764-1.764v-11.07h1.629v11.07c0 .974.79 1.764 1.764 1.764.973 0 1.762-.788 1.762-1.762v-16.412l1.369 3.137c.257.589.837.971 1.48.971.545 0 1.053-.274 1.352-.73.299-.456.349-1.032.131-1.531l-3.629-8.322c-.366-.839-1.137-1.397-2.02-1.547-.067-.018-1.544-.025-3.02-.025" fill="url(#1)"/></svg>