<svg xmlns="http://www.w3.org/2000/svg" xmlns:xlink="http://www.w3.org/1999/xlink" viewBox="0 0 48 48"><defs><linearGradient xlink:href="#1" id="3" x1="-.584" y1="32.785" x2="-.625" y2="21.702" gradientUnits="userSpaceOnUse"/><linearGradient gradientTransform="matrix(.63636 0 0 .62142-261.04-296.66)" gradientUnits="userSpaceOnUse" y2="507.8" x2="0" y1="542.8" id="2"><stop stop-color="#141414"/><stop offset="1" stop-color="#2d2d2f"/></linearGradient><linearGradient xlink:href="#1" id="0" x1="-.315" y1="38.623" x2="-.17" y2="30.992" gradientUnits="userSpaceOnUse"/><linearGradient id="1"><stop stop-color="#00cafe"/><stop offset="1" stop-color="#1460f3"/></linearGradient></defs><g transform="matrix(1.71427 0 0 1.71427 25.789-26.488)" enable-background="new"><rect y="18.894" x="-15.04" height="21.13" width="28" fill="url(#2)" rx=".994"/><path d="m-9.454 37.825c0-.022.425-.457.944-.967l.944-.927v-.75c0-.412-.03-.75-.066-.75-.036 0-.49.426-1.01.946l-.943.946-.043-1.122-.043-1.122-1.073 1.031-1.073 1.031-1.03.004-1.03.004 2.618-2.62 2.618-2.62.043 1.107.043 1.107 1.159-1.098 1.159-1.098.043 1.794.043 1.794 1.825-1.816 1.825-1.816v2.033c0 1.118.024 2.033.053 2.033.029 0 .995-.913 2.146-2.028l2.093-2.028v1.084c0 .596.03 1.084.066 1.084.036 0 .567-.503 1.181-1.118l1.115-1.118.043 1.765.043 1.765 1.76-1.717 1.76-1.717 2.02-.003 2.02-.003-.64.644-.64.644h-1.047c-1 0-1.059.001-1.312.222-.145.122-.264.257-.264.301 0 .043.221.078.492.078h.492l-.683.687-.683.687h-.565c-.533 0-.581.017-.856.301l-.291.301h1.777c.977 0 1.777.033 1.777.074 0 .04-.306.35-.679.687l-.679.613h-2.77-2.77l.187-.199c.158-.168.187-.299.187-.859 0-.363-.024-.66-.054-.66-.03 0-.494.41-1.03.91l-.976.91v-1.145-1.145l-1.096 1.093-1.096 1.093h-1.179-1.179v-.859c0-.472-.029-.857-.064-.855-.035.002-.856.775-1.825 1.717l-1.76 1.713h-1.01c-.555 0-1.01-.018-1.01-.04" fill="url(#0)"/><path d="m-4.26 21.591c-.065 0-.081.054-.081.12v.709c0 .065.016.114.081.114h.713c.065 0 .117-.051.116-.116-.002-.236-.002-.473-.002-.709 0-.065-.052-.117-.117-.117h-.71m5.729 0c-.065 0-.154.053-.154.118v.713c0 .065.071.118.136.117.236-.002.464-.002.7-.002.065 0 .108-.053.108-.118v-.71c0-.065-.016-.118-.081-.118h-.709m-4.757.947c-.065 0-.109.052-.109.117v.729c0 .065-.084.092-.149.092h-.723c-.065 0-.071.079-.071.144v.72c0 .065-.1.079-.165.079h-.721c-.065 0-.174.092-.174.157v.721c0 .065.003.064-.062.064h-.71c-.065 0-.171.107-.171.172v2.612c0 .065.106.162.171.162h.71c.065 0 .062-.097.062-.162v-1.662c0-.065.108-.062.173-.062h.729c.065 0 .158-.003.158.062v1.674c0 .065.033.117.098.117.242 0 .486.0001.719.002.065.0001.126-.052.126-.117v-.718c0-.065.015-.077.08-.077h4.554c.065 0 .117.033.117.098 0 .242 0 .486-.002.721 0 .065.052.124.117.124h.718c.065 0 .072-.086.072-.152v-1.671c0-.065.098-.063.163-.063h.733c.065 0 .165-.002.165.063v1.661c0 .065.006.162.071.162h.701c.065 0 .171-.097.171-.162v-2.617c0-.065-.106-.167-.171-.167h-.717c-.065 0-.173-.003-.173-.068v-.723c0-.065.004-.15-.062-.15h-.72c-.065 0-.161-.02-.161-.085v-.719c0-.065-.001-.139-.075-.139h-.718c-.065 0-.15-.032-.15-.097v-.723c0-.065-.036-.117-.101-.116-.235.002-.476.002-.72.002-.065 0-.121.052-.121.117v.717c0 .065-.029.1-.095.1h-2.644c-.065 0-.089-.035-.089-.1v-.717c0-.065-.067-.118-.132-.118-.242 0-.468 0-.701-.002m-.026 1.881h.72c.065 0 .139.084.139.149 0 .24 0 .478 0 .719 0 .065-.074.074-.139.074h-.72c-.065 0-.083-.009-.083-.074v-.719c0-.065.018-.149.083-.149m3.826 0h.719c.065 0 .084.085.084.15v.72c0 .065-.019.072-.084.072h-.719c-.065 0-.139-.007-.139-.072v-.72c0-.065.074-.15.139-.15m-3.828 3.859c-.065 0-.118.053-.117.118.002.236.002.487.002.722 0 .065.051.131.116.131h1.667c.065 0 .136-.081.136-.146v-.703c0-.065-.061-.119-.126-.118-.177 0-.357 0-.531 0-.381-.0001-.765-.003-1.146-.005m4.594.002c-.018.0001-.028.015-.047.015-.561 0-1.113.013-1.674.013h-.054c-.029 0-.073.028-.073.093v.704c0 .065.073.145.138.145h1.665c.065 0 .082-.08.082-.145v-.713c0-.065-.007-.114-.038-.112" fill="url(#3)"/></g></svg>