<svg xmlns="http://www.w3.org/2000/svg" xmlns:xlink="http://www.w3.org/1999/xlink" viewBox="0 0 48 48"><defs><linearGradient id="3" gradientUnits="userSpaceOnUse" y1="42.475" x2="0" y2="28.899"><stop stop-color="#c52828"/><stop offset="1" stop-color="#ff5454"/></linearGradient><linearGradient gradientUnits="userSpaceOnUse" y2="15.827" x2="10.467" y1="42.526" x1="10.795" id="4"><stop stop-color="#197cf1"/><stop offset="1" stop-color="#20bcfa"/></linearGradient><linearGradient gradientUnits="userSpaceOnUse" y2="15.827" x2="10.467" y1="42.526" x1="10.795" id="2" xlink:href="#0"/><linearGradient id="0"><stop stop-color="#0ba97d"/><stop offset="1" stop-color="#11e19b"/></linearGradient><linearGradient xlink:href="#0" id="1" x1="13.223" y1="36.05" x2="13.614" y2="15.458" gradientUnits="userSpaceOnUse"/></defs><g transform="matrix(1.71427 0 0 1.71427 5.789-26.488)" enable-background="new"><g fill-rule="evenodd"><path d="m-1.346 15.458h22.808c.896 0 1.618.747 1.618 1.674v23.597c0 .927-.722 1.674-1.618 1.674h-22.808c-.896 0-1.618-.747-1.618-1.674v-23.597c0-.927.722-1.674 1.618-1.674" fill="url(#4)"/><path d="m-1.346 15.458h22.808c.896 0 1.618.747 1.618 1.674v9.01c0 .927-.761 1.411-1.618 1.674l-22.808 7-1.618-.274v-17.414c0-.927.721-1.674 1.618-1.674" fill="url(#2)"/><path d="m5.887 15.458h15.575c.896 0 1.618.747 1.618 1.674v9.01c0 .927-.761 1.411-1.618 1.674l-7.116 2.217-1.618-.274-8.458-12.631c-.516-.771.721-1.674 1.618-1.674" fill="url(#1)"/><g fill="#dafcfc"><path d="m-2.964 33.816l26.05-8.167v2.102l-26.05 8.167z"/><path d="m11.27 32.01l-8.167-16.526h2.452l8.167 16.526z"/></g></g><circle r="7.601" cx="16.614" cy="35.858" fill="url(#3)"/><path d="m16.498 31.388c-1.809 0-3.275 1.466-3.275 3.275 0 .138.011.273.028.407.28 2.558 3.035 5.507 3.035 5.507.049.055.096.089.142.113h.002l.092.029.092-.029h.002c.046-.025.093-.06.142-.113 0 0 2.715-2.954 2.988-5.513.016-.132.027-.266.027-.402 0-1.808-1.466-3.275-3.275-3.275m0 5.382c-1.161 0-2.107-.945-2.107-2.107 0-1.161.945-2.107 2.107-2.107 1.161 0 2.106.945 2.106 2.107 0 1.161-.945 2.107-2.106 2.107" fill="#fafafa" fill-opacity=".903" stroke-width="1.317"/></g></svg>