<svg xmlns="http://www.w3.org/2000/svg" viewBox="0 0 48 48"><defs><linearGradient gradientUnits="userSpaceOnUse" y2="-13.325" x2="19.801" y1="14.419" x1="20.14" id="0"><stop stop-color="#2f74c8"/><stop offset="1" stop-color="#50aff7"/></linearGradient></defs><g transform="matrix(1.71427 0 0 1.71427-9.211 23.512)" enable-background="new"><g fill-rule="evenodd"><rect y="-13.708" x="5.843" height="28" width="27.06" fill="url(#0)" rx="1.739"/><g fill="#fafaff" fill-opacity=".85"><circle r=".976" cy="-11.01" cx="8.975"/><circle r=".976" cy="-11.01" cx="11.552"/><circle r=".976" cy="-11.01" cx="14.15"/></g></g><g fill="#fff" fill-opacity=".855"><path d="m22.22-5.891c-.077-.005-.155.001-.229.031a5.926583 13.563524 27.49713 0 1 -2.091796 5.155436 5.926583 13.563524 27.49713 0 1 -3.975098 5.792318c.08.053.159.122.276.244.191.199.247.272.449.598.253.408.353.599.448.844.034.089.125.29.199.447.075.156.173.382.218.501.045.12.122.308.171.417.049.109.148.345.219.523.071.178.16.388.196.468.047.103.076.145.1.145.044 0 .322-.067.472-.113.113-.034.459-.203.746-.363.078-.044.226-.147.33-.229.217-.172.807-.698.868-.774.023-.029.157-.177.297-.333.141-.155.362-.405.492-.555.13-.15.301-.346.379-.435.078-.089.229-.264.334-.389.261-.31.826-.864 1.056-1.033.419-.309.691-.445 1.028-.509.251-.048.456-.03.744.068.235.079.306.114.483.234.073.049.156.104.185.122.138.084.567.449.866.739.652.633 1.302 1.178 1.348 1.131.02-.02-.05-.194-.26-.648-.07-.151-.164-.372-.208-.492-.045-.12-.143-.363-.218-.54-.075-.177-.173-.424-.218-.549-.045-.125-.142-.372-.216-.549-.075-.177-.181-.441-.237-.587-.055-.146-.161-.419-.234-.606-.152-.392-.493-1.369-1.017-2.916-.522-1.54-.776-2.258-1.074-3.03-.254-.658-.728-1.632-.982-2.02-.179-.272-.525-.632-.695-.723-.072-.039-.158-.062-.248-.067"/><path d="m15.36 4.932c.261-.231.52-.464.765-.712.304-.307.596-.626.876-.955.28-.33.549-.671.806-1.021.257-.35.502-.71.735-1.078.233-.368.455-.744.665-1.126.42-.764.795-1.554 1.123-2.358.328-.804.611-1.622.849-2.441.051-.175.076-.348.123-.522-.136.187-.293.428-.485.753-.107.182-.256.425-.33.54-.074.114-.159.25-.189.302-.121.208-.523.757-.84 1.147-.268.33-.777.802-.969.899-.036.019-.101.057-.142.084-.093.063-.267.132-.498.198-.196.056-.563.238-.721.356-.27.203-.873.852-1.124 1.21-.039.055-.099.132-.133.169-.034.038-.079.09-.099.117-.023.03-.099.074-.198.115-.089.036-.238.099-.331.141-.094.041-.354.146-.578.232-.224.086-.497.198-.606.248-.109.05-.267.117-.35.147-.232.085-.726.284-.803.324-.038.019-.333.138-.655.265-.323.126-.651.26-.729.296-.078.037-.244.107-.369.157-.3.12-.303.132-.057.294.086.056.386.272.679.488.061.046.168.121.237.168.069.047.206.145.305.218.099.073.216.155.26.184.073.047.371.261.657.472.061.045.168.121.237.168.117.08.372.264.635.457.213.157.43.3.453.3.024 0 .33-.119.388-.152.072-.04.229-.08.354-.089.02 0 .042.006.061.006"/></g></g></svg>