<svg xmlns="http://www.w3.org/2000/svg" xmlns:xlink="http://www.w3.org/1999/xlink" viewBox="0 0 48 48"><defs><linearGradient xlink:href="#0" id="3" x1="96.68" y1="490.36" x2="96.33" y2="462.83" gradientUnits="userSpaceOnUse"/><linearGradient xlink:href="#0" id="4" x1="44.16" y1="490.59" x2="44.26" y2="461.93" gradientUnits="userSpaceOnUse"/><linearGradient xlink:href="#0" id="2" x1="72.85" y1="491.15" x2="72.29" y2="462.68" gradientUnits="userSpaceOnUse" gradientTransform="matrix(1.0021 0 0 1-.15.002)"/><linearGradient id="0"><stop stop-color="#2e3436"/><stop offset="1" stop-color="#555753"/></linearGradient><linearGradient id="1" x1="70.03" y1="569.24" x2="66.53" y2="491.06" gradientUnits="userSpaceOnUse"><stop stop-color="#0bac83"/><stop offset="1" stop-color="#10da96"/></linearGradient></defs><g transform="translate(-384.57-499.8)"><g transform="matrix(.39868 0 0 .39868 379.83 317.66)"><rect width="120.4" height="106.82" x="11.899" y="465.17" fill="url(#1)" rx="5.03"/><g fill-rule="evenodd"><path d="m18.538 462.2h107.12c3.856 0 6.711 3.098 6.711 6.947v14.953 6.947h-120.54v-6.947-14.953c0-3.848 2.855-6.947 6.711-6.947z" fill="url(#2)" stroke="url(#2)" stroke-linejoin="round" stroke-linecap="round" stroke-width=".107"/><g fill="#fff" fill-opacity=".948" stroke-width="1.125"><path d="m79.77 490.5h19.1l14.926-13.205-14.926-14.606h-19.1l13.531 14.606z" stroke="url(#3)"/><path d="m31.676 490.5h19.1l14.926-13.205-14.926-14.606h-19.1l13.531 14.606z" stroke="url(#4)"/></g></g></g><path d="m417.08 528.29c-.063-.082-.145-.131-.246-.147l-2.144-.328c-.117-.375-.277-.758-.481-1.148.141-.195.351-.471.633-.826.281-.356.48-.615.598-.779.063-.086.094-.176.094-.27 0-.109-.027-.195-.082-.258-.281-.399-.926-1.063-1.934-1.992-.094-.078-.191-.117-.293-.117-.117 0-.211.035-.281.105l-1.664 1.254c-.32-.164-.672-.309-1.055-.434l-.328-2.156c-.008-.102-.053-.186-.135-.252-.082-.067-.178-.1-.287-.1h-2.601c-.227 0-.367.109-.422.328-.102.391-.215 1.117-.34 2.18-.367.117-.723.266-1.066.445l-1.617-1.254c-.102-.078-.203-.117-.305-.117-.172 0-.541.279-1.107.838-.566.559-.951.979-1.154 1.26-.07.102-.105.191-.105.27 0 .094.039.188.117.281.523.633.941 1.172 1.254 1.617-.195.359-.348.719-.457 1.078l-2.18.328c-.086.016-.16.067-.223.152-.063.086-.094.176-.094.269v2.602c0 .102.031.193.094.275.063.082.145.131.246.147l2.145.316c.109.383.269.769.48 1.16-.141.195-.352.471-.633.826-.281.356-.481.615-.598.779-.063.086-.094.176-.094.27 0 .102.027.191.082.269.305.422.949 1.078 1.934 1.969.086.086.184.129.293.129.117 0 .215-.035.293-.105l1.652-1.254c.32.164.672.309 1.055.434l.328 2.156c.008.102.053.186.135.252.082.067.178.1.287.1h2.602c.227 0 .367-.109.422-.328.101-.391.215-1.117.34-2.18.367-.117.723-.266 1.066-.445l1.617 1.266c.109.07.211.105.305.105.172 0 .539-.277 1.101-.832.563-.555.949-.977 1.16-1.266.07-.078.106-.168.106-.269 0-.102-.039-.199-.117-.293-.562-.688-.98-1.227-1.254-1.617.156-.289.309-.645.457-1.066l2.168-.328c.094-.016.172-.067.234-.153.062-.086.094-.176.094-.27v-2.601c0-.102-.031-.193-.094-.275m-6.785 3.674c-.586.586-1.293.879-2.121.879-.828 0-1.535-.293-2.121-.879-.586-.586-.879-1.293-.879-2.121 0-.828.293-1.535.879-2.121.586-.586 1.293-.879 2.121-.879.828 0 1.535.293 2.121.879.586.586.879 1.293.879 2.121 0 .828-.293 1.535-.879 2.121" fill-opacity=".628"/></g></svg>