<svg xmlns="http://www.w3.org/2000/svg" viewBox="0 0 48 48"><defs><clipPath><rect y="6" x="6" rx="6" height="84" width="84" fill="#fff"/></clipPath><filter color-interpolation-filters="sRGB"><feGaussianBlur stdDeviation="1.71"/></filter><filter color-interpolation-filters="sRGB" height="1.384" width="1.384" y="-.192" x="-.192"><feGaussianBlur stdDeviation="5.28"/></filter><linearGradient id="0" gradientUnits="userSpaceOnUse" x1="24.61" y1="47.593" x2="23.593" y2="-.203"><stop stop-color="#c52828"/><stop offset="1" stop-color="#ff5454"/></linearGradient><linearGradient gradientUnits="userSpaceOnUse" y2="138.66" x2="0" y1="20.221"><stop stop-color="#fff"/><stop offset="1" stop-color="#fff" stop-opacity="0"/></linearGradient><linearGradient gradientTransform="scale(1.0059.99417)" gradientUnits="userSpaceOnUse" y2="7.02" x2="0" y1="92.54"><stop/><stop offset="1" stop-opacity=".588"/></linearGradient></defs><rect height="48" width="48" rx="2.982" fill="url(#0)" fill-rule="evenodd"/><g transform="translate(62.869-6.083)"><path d="m-46.28 20.1c-.788.012-1.592.212-2.373.598-2.329 1.151-3.284 3.625-2.561 6.574.345 1.41.465 3.314.256 4.081-.296 1.086-1.203 1.655-2.664 1.656-1.443.002-2.862 1.109-3.142 2.459-.287 1.38.041 2.631.939 3.534 1.056 1.063 2.521 1.362 3.791.768 1.838-.86 2.44-2.656 1.656-4.9-.378-1.082-.395-1.227-.205-1.912.805-2.899 7.419-3.112 8.503-.273.256.671.214 1.13-.256 2.305-.288.719-.323.97-.273 1.742.09 1.41.766 2.398 2.1 3.01.812.37 2.499.368 3.295 0 1.957-.904 2.692-2.865 1.827-4.849-.743-1.704-.367-2.836 1.195-3.62 1.966-.986 4.805-.761 6.232.495 1.021.899 1.173 1.677.632 3.227-.719 2.058-.143 3.838 1.52 4.73.718.385 2.305.385 3.02 0 .649-.349 1.383-1.115 1.622-1.69.699-1.677.127-3.788-1.246-4.593-.475-.278-.833-.363-1.793-.444-.781-.066-1.327-.189-1.588-.341-.521-.304-.937-1.058-1.042-1.895-.095-.762.117-2.661.41-3.671.303-1.044.182-3-.239-3.927-1.289-2.831-4.931-3.939-7.513-2.271-.405.262-.924.727-1.161 1.024-.83 1.045-2.167 2.383-2.578 2.578-1.035.491-2.097.089-3.261-1.229-1.759-1.992-2.02-2.244-2.8-2.629-.736-.362-1.517-.542-2.305-.529m7.444 5.805c2.383-.004 4 2.175 3.33 4.491-.294 1.01-1.257 1.988-2.22 2.271-.824.242-1.503.254-2.271.017-1.335-.411-2.331-1.834-2.322-3.33.006-1 .23-1.571.922-2.322.723-.784 1.505-1.125 2.561-1.127" fill="#fff" fill-opacity=".848" color="#000"/></g></svg>