<svg xmlns="http://www.w3.org/2000/svg" viewBox="0 0 48 48"><defs><linearGradient id="0" gradientUnits="userSpaceOnUse" x1="62.6" y1="11.846" x2="62.15" y2="-35.476"><stop stop-color="#0daa66"/><stop offset="1" stop-color="#6ce195"/></linearGradient></defs><g transform="matrix(.99999 0 0 .99999-38.471 35.822)" enable-background="new"><circle cx="62.47" cy="-11.815" r="24" fill="url(#0)"/><path d="m60.687-35.591c-3.01.235-5.821 1.032-8.386 2.246-.178.192-.418.347-.617.346-.027 0-.056-.016-.084-.024-1.26.647-2.444 1.412-3.557 2.261.172.235.238.507-.065.665-.051.027-.708.145-.94.158-3.144 2.683-5.563 6.149-6.974 10.09.027-.006.05-.021.078-.025.259-.024.638.021.892.054.234.029.431.169.631.168.568-.0001.669-.451 1.111-.733.481.03.785-.142 1.219-.128.296.009.532.306.761.306.194.005.347-.208.535-.194.183.014.525.383.571.601.059.272-.161.538-.059.833.311.271.838.289 1.262.426.25-.242-.014-.633-.074-.949-.015-.14-.0001-.268-.031-.396-.042-.218-.152-.412-.169-.6-.072-.869.601-1.331 1.158-1.72.241-.169.419-.447.629-.574.297-.179.525-.233.77-.397.442-.296.823-.536 1.162-.859.136-.407-.056-.924-.072-1.315.159-.116.315.02.491-.008.275-.08.267-.476.413-.646.085-.097.332-.182.439-.28.261-.24.326-.577.562-.69.084-.042.286-.048.421-.096.177-.062.418-.296.705-.42.187-.082.625-.129.693-.209.083-.099-.029-.351-.008-.491.094-.701 1.122-.929 1.717-1.209.418-.197.836-.53 1.316-.475-.067.335-.517.253-.411.646.146.544.83-.224 1.019-.321.36-.186.992-.332 1.467-.548.417-.191 1.167-.49.724-.949-.339.007-.469.435-.753.583-.2.048-.178-.157-.352-.16-.166-.007-.245.172-.416.157-.17-.015-.427-.26-.469-.455-.107-.505.375-.754.556-1.151-.176-.45-.785-.033-1.185-.184.016-.278.285-.489.602-.567.26-.065.852-.089 1.019.04.096.07.026.269.185.386.167.128.357.099.556.05.046-.354-.473-.225-.434-.46.392-.302 1.08-.133 1.58-.248.288-.066.577-.295.823-.46.234-.159.534-.426.812-.218.09.244-.2.35-.33.485-.435.452-.879.966-1.205 1.478.24.2.637.059 1.017.075.149.008.338.037.496.053.185.018.378-.006.524.02.262.043.352.312.606.292.418-.033.387-.486.129-.75.052-.294.158-.453.041-.647-.218-.362-.88.049-.953-.417-.046-.303.232-.311.325-.547-.096-.585.433-.669.335-1.192-.042-.219-.228-.207-.399-.402-.085-.096-.141-.287-.237-.368-.718-.008-1.442.001-2.172.067m-11.919 5.769h.002c.144.009.328.149.501.148.163-.009.291-.113.393-.094.261.047.399.425.174.633-.198.041-.284-.065-.433-.027-.409.103-.505.928-.817.925-.294-.002-.508-.702-.228-.937.005-.187-.152-.204-.157-.388.079-.119.32-.26.565-.26m-1.368.203c.085-.004.151.012.186.046-.015.329-.272.327-.511.499-.414.296-.634.715-.728 1.286-.027.166-.422.631-.632.604-.492-.064.056-1.01.156-1.15.11-.16.264-.305.395-.49.127-.179.2-.413.327-.517.139-.114.551-.268.807-.279m3.702.815c.155-.001.297.005.365.063-.068.411-.946.373-1.275.252.009-.154.243-.214.442-.25.14-.015.313-.057.468-.065m-1.92.899c.103-.001.21.004.32.024-.263.257-.556.414-1.027.605-.226.091-.62.214-.68-.043-.073-.314.32-.27.53-.315.264-.058.545-.236.857-.271m30.484-.564c-.029.089-.049.177-.038.261.031.146.203.275.255.472.028.104-.024.338.034.43.169.274.538.038.815.032-.347-.406-.693-.813-1.065-1.195m1.726 1.979c-.027.214-.149.5-.251.685-.235.426-.595.473-.96.719-.304.205-.418.517-.58.846-.176.355-.285.57-.163 1.055-.231.563-.618.927-1.163 1.229-.161.088-.388.134-.532.257-.115.097-.166.339-.325.547-.196.255-.412.373-.511.564-.076.147-.085.43-.166.626-.11.267-.378.414-.529.688-.069.126-.102.374-.176.538-.166.367-.477.646-.417.953.059.296.402.322.446.581.015.147-.079.245-.06.405.022.234.194.386.227.565.081.45-.105.647-.166.963-.029.151.0001.317-.029.435-.057.233-.358.463-.343.732.013.191.223.329.26.595.018.184-.061.389-.015.556.091.327.715.667.993.906.373.319.846.551 1.024.903.15.299.18.702.439.916.192.158.496.242.739.403.226.15.469.277.711.436.395.262 1 .798 1.591.707.308-.047.605-.324.951-.414.356-.093.822-.163 1.189-.154.281.006.582.151.87.114.305-.043.638-.297.974-.477.27-.144.603-.306.973-.434.082-1.176.081-2.374-.014-3.586-.382-4.879-2.194-9.287-4.986-12.861m-38.782 11.09c-.505.067-.836.117-1.114.27-.638.353-.44 1.236-1.084 1.499-.223.091-.536.119-.784.185-.214.057-.469.196-.693.209-.063.004-.154-.036-.234-.054-.026.423-.041.851-.045 1.279.638.071 1.027.879 1.604 1.111.158.064.357.052.556.081.161.023.286.08.442.12.332.084.726.04.994.135.403.142.746.852 1.096 1.022.035.196-.002.465.078.607.175.202.395.137.666.257.325.144.454.571.76.68.106.037.361.011.526.048.415.091.583.549.922.419.222-.085.186-.318.206-.538.138-.175.282-.446.516-.469.378-.049.444.36.611.718.094.202.312.368.383.583.124.372.166 1.512.104 1.745-.074.286-.442.433-.65.76-.098.153-.134.369-.208.478-.135.194-.354.259-.453.436-.056.1-.101.308-.153.44-.153.403-.377.698-.186 1.152.08.187.39.292.408.518.022.266-.526.548-.547.843-.015.219.223.59.314.867.067.209.481.311.618.443.233.224.431.552.651.839.434.564.794 1.266 1.216 1.813.223.286.524.536.681.839.08.153.086.342.159.479.257.476 1.261.915 1.778 1.12.242.095.503.115.726.217.338.155 1.017.59 1.203.861.166.244.305.858.407 1.258.137.529.075.948.15 1.526.044.313.169.62.197.935.001.11-.043.197-.039.31.0001.019.008.039.009.058 3.107 1.123 6.493 1.636 10.01 1.361.636-.05 1.262-.132 1.881-.229.023-.049.045-.1.075-.146.129-.199.243-.374.325-.547.047-.565-.297-.93-.203-1.429.103-.56.835-.954 1.347-1.243.176-.099.353-.252.497-.315.358-.157.822-.124 1.149-.273.556-.254.568-.873.809-1.416.114-.257.27-.518.283-.696.001-.16-.082-.302-.071-.491.013-.187.166-.359.202-.566.046-.27.044-.66.021-.955-.019-.242-.149-.445-.176-.663-.102-.789.217-.903.477-1.358.13-.226.166-.474.257-.636.435-.773 1.261-1.194 1.112-2.299-.049-.366-.345-1.178-.624-1.274-.16-.055-.51.036-.74-.033-.743-.213-1.237-1.075-1.99-1.073-.161-.007-.301.09-.481.101-.298.004-.759-.149-1.089-.161-.21-.006-.482.1-.612.048-.198-.078-.245-.428-.408-.521-.13-.075-.371-.086-.564-.143-.31-.092-.559-.208-.908-.205-.108.005-.237.07-.363.061-.195-.017-.364-.233-.55-.327-.233-.118-.443-.167-.55-.353.149-.674-.42-.814-.584-1.183-.079-.173-.066-.39-.134-.544-.098-.221-.333-.335-.594-.506-.469-.306-.886-.594-1.524-.623-.281-.014-.547.126-.884.132-.357.005-.828-.271-1.118-.554-.282-.277-.428-.533-.665-.657-.224-.12-.507-.094-.664-.222-.07-.055-.067-.16-.147-.297-.125-.214-.314-.323-.201-.6-.253-.106-.232.252-.502.227-.264-.318-.477-.462-1.01-.321-.243.065-.357.388-.644.418-.234.038-.442-.23-.757-.25-.238-.014-.498.103-.668.085-.265-.032-.362-.242-.613-.38-.184-.101-.538-.27-.636-.259-.306.044-.475.694-.916.502-.226-.245.304-.424.041-.649-.2-.171-.334.11-.474.224-.16.131-.311.259-.493.343-.407.19-.676.128-.991.323-.291.181-.284.445-.431.771-.121.267-.412.665-.622.697-.255.04-.529-.319-.769-.401-.723-.248-1.017.35-1.598.404-.538.062-1.377-.768-1.39-1.277-.021-.31.117-.792.123-1.178.009-.307.203-.507.184-.785-.025-.371-.544-.618-.788-.643-.579-.06-1.345.336-2.02.125-.141-.197.119-.362.173-.568.031-.118-.004-.269.027-.398.057-.2.249-.367.324-.58.056-.163.055-.391.108-.591.062-.228.199-.383.204-.54.007-.208-.09-.439-.262-.562m8.673 5.828c.209.003.268.429.059.48-.226.053-.373-.331-.159-.451.036-.022.072-.026.101-.027v-.002" fill="#007b2b" fill-opacity=".541"/><g fill="#fff" stroke="#fff" stroke-width=".185"><path d="m71.877-27.853c.07.04.146.059.221.059.153 0 .302-.079.384-.221l.989-1.712c.122-.212.05-.483-.162-.605-.212-.122-.483-.05-.605.162l-.989 1.712c-.122.212-.05.482.162.605z"/><path d="m79.08-20.81c.075 0 .151-.019.221-.059l1.712-.989c.212-.122.284-.393.162-.605-.122-.212-.393-.284-.605-.162l-1.712.989c-.212.122-.284.393-.162.605.082.142.231.222.384.222z"/><path d="m83.62-12.156h-1.977c-.245 0-.443.198-.443.443 0 .245.198.443.443.443h1.977c.245 0 .443-.198.443-.443 0-.245-.198-.443-.443-.443z"/><path d="m81.02-1.568l-1.712-.989c-.212-.122-.483-.05-.605.162-.122.212-.05.483.162.605l1.712.989c.07.04.146.059.221.059.153 0 .302-.079.384-.221.122-.212.05-.483-.162-.605z"/><path d="m72.48 4.589c-.122-.212-.393-.284-.605-.162-.212.122-.284.393-.162.605l.989 1.712c.082.142.231.221.384.221.075 0 .151-.019.221-.059.212-.122.284-.393.162-.605l-.989-1.712"/><path d="m62.56 6.924c-.245 0-.443.198-.443.443v1.978c0 .245.198.443.443.443.245 0 .443-.198.443-.443v-1.978c0-.245-.198-.443-.443-.443z"/><path d="m53.24 4.427c-.212-.122-.483-.05-.605.162l-.989 1.712c-.122.212-.05.483.162.605.07.04.146.059.221.059.153 0 .302-.079.384-.221l.989-1.712c.122-.212.05-.483-.162-.605z"/><path d="m45.814-2.556l-1.712.989c-.212.122-.284.393-.162.605.082.142.231.221.384.221.075 0 .151-.019.221-.059l1.712-.989c.212-.122.284-.393.162-.605-.122-.212-.393-.285-.605-.162z"/><path d="m43.479-12.156h-1.977c-.245 0-.443.198-.443.443 0 .245.198.443.443.443h1.977c.245 0 .443-.198.443-.443 0-.245-.198-.443-.443-.443z"/><path d="m46.26-21.636l-1.712-.989c-.212-.122-.483-.05-.605.162-.122.212-.05.483.162.605l1.712.989c.07.04.146.059.221.059.153 0 .302-.079.384-.221.122-.212.05-.483-.162-.605z"/><path d="m52.636-28.02c.082.142.231.221.384.221.075 0 .151-.019.221-.059.212-.122.284-.393.162-.605l-.989-1.712c-.122-.212-.393-.284-.605-.162-.212.122-.284.393-.162.605l.989 1.713z"/><path d="m62.56-30.35c.245 0 .443-.198.443-.443v-1.977c0-.245-.198-.443-.443-.443-.245 0-.443.198-.443.443v1.977c0 .245.198.443.443.443z"/><path d="m67.56-29.676c.077.022.156.021.229.003.148-.038.273-.152.317-.31l.531-1.905c.066-.236-.072-.48-.308-.545-.235-.066-.48.072-.545.308l-.531 1.905c-.066.235.072.48.308.545z"/><path d="m76.3-24.65c.073-.019.142-.056.199-.113l1.412-1.384c.175-.171.177-.451.006-.626-.171-.175-.451-.178-.626-.006l-1.412 1.384c-.175.171-.177.451-.006.626.115.117.279.157.427.119z"/><path d="m82.84-17.398l-1.915.493c-.237.061-.379.302-.319.539.061.237.302.379.539.319l1.915-.493c.237-.061.379-.302.319-.539-.061-.237-.302-.379-.539-.319z"/><path d="m82.962-6.496l-1.905-.531c-.236-.066-.48.072-.545.308-.066.236.072.48.308.545l1.905.531c.077.022.156.021.229.003.148-.038.273-.152.317-.31.066-.236-.072-.48-.308-.545z"/><path d="m76.23 1.593c-.171-.175-.451-.178-.626-.006-.175.171-.177.452-.006.626l1.384 1.412c.115.117.279.157.427.119.073-.019.142-.056.199-.113.175-.171.177-.452.006-.626l-1.384-1.412"/><path d="m67.2 6.326c-.237.061-.379.302-.319.539l.493 1.915c.061.237.302.379.539.319.237-.061.379-.302.319-.539l-.493-1.915c-.061-.237-.302-.379-.539-.319"/><path d="m57.56 6.23c-.236-.066-.48.072-.545.308l-.531 1.905c-.066.236.072.48.308.545.078.022.156.021.229.003.148-.038.273-.152.317-.31l.531-1.905c.066-.236-.072-.48-.308-.545z"/><path d="m48.624 1.317l-1.412 1.384c-.175.171-.177.451-.006.626.115.117.279.157.427.119.073-.019.142-.056.199-.113l1.412-1.384c.175-.171.177-.451.006-.626-.171-.175-.452-.178-.626-.006z"/><path d="m43.971-7.398l-1.915.493c-.237.061-.379.302-.319.539.061.237.302.379.539.319l1.915-.493c.237-.061.379-.302.319-.539-.061-.237-.303-.379-.539-.319z"/><path d="m44.3-17.271l-1.905-.531c-.236-.065-.48.072-.545.308-.066.236.072.48.308.545l1.905.531c.078.021.156.021.229.002.148-.038.273-.152.317-.31.066-.236-.072-.48-.308-.545z"/><path d="m48.887-25.04c.115.117.279.157.427.119.073-.019.142-.056.199-.113.175-.171.177-.451.006-.626l-1.384-1.412c-.171-.175-.451-.178-.626-.006-.175.171-.177.451-.006.626l1.384 1.412z"/><path d="m57.916-29.772c.237-.061.379-.302.319-.539l-.493-1.915c-.061-.237-.302-.379-.539-.319-.237.061-.379.302-.319.539l.493 1.915c.061.237.302.379.539.319z"/></g><path d="m62.46-11.848l-12.06 11.953 14.384-9.601c-.954-.965-1.909-1.93-2.328-2.353" fill="#e0e0e0"/><path d="m50.39.198l12.06-11.953c-.955-.965-1.91-1.93-2.328-2.353l-9.729 14.307" fill="#f6f6f6"/><path transform="matrix(.36949.03077.02716.37016 24.487-49.945)" fill="#f32d2c" d="m95.34 95.34l35.22-35.22-29.35 41.09z"/><path transform="matrix(.36949.03077.02716.37016 24.532-49.89)" fill="#f44a4a" d="m130.56 60.12l-41.09 29.35 5.87 5.87 35.22-35.22"/></g></svg>