<svg xmlns="http://www.w3.org/2000/svg" viewBox="0 0 48 48"><defs><clipPath id="1"><path fill="#1890d0" transform="matrix(15.33333 0 0 11.5 415-125.5)" d="m-24 13c0 1.105-.672 2-1.5 2-.828 0-1.5-.895-1.5-2 0-1.105.672-2 1.5-2 .828 0 1.5.895 1.5 2"/></clipPath><linearGradient id="0" gradientUnits="userSpaceOnUse" x1="400.51" y1="546.07" x2="400.7" y2="517.77"><stop stop-color="#197ff1"/><stop offset="1" stop-color="#21c6fb"/></linearGradient></defs><circle r="14" cy="531.8" cx="400.57" transform="matrix(1.71434 0 0 1.71434-662.72-887.68)" fill="url(#0)"/><circle cx="400.57" cy="531.8" r="14" transform="matrix(1.71434 0 0 1.71434-662.72-887.68)" fill="#5ea5fb" fill-opacity="0"/><g transform="matrix(1.44068 0 0 1.44068-127.65 12.502)"><g clip-path="url(#1)" transform="translate(81.36-16.07)"><g><path d="m23.844 12.25c-1.754 0-3.188 1.434-3.188 3.188l-2.406 1.969-3.406 1.938.094 6.313 4.281 2.781 3.125-1.969 2.625-.313 3.438 2.219-2.656 1.688c-.535-.398-1.184-.656-1.906-.656-.754 0-1.449.254-2 .691l-2.469-1.566-4.531.605 5.781 3.645c.082 1.707 1.492 3.066 3.219 3.066 1.652 0 3-1.242 3.188-2.844l2.316-1.973 2-4.625-4.5-2.563-4.656-1.313-4.813 3.406c0 0-.441-2.25-.223-2.406.223-.156 1.816-3.375 1.816-3.375l2.969-2.188c.527.398 1.191.625 1.906.625.703 0 1.348-.238 1.875-.625l2.469 2.125 2.469-1.906-3.625-2.719c0-.012 0-.02 0-.031v-.125c-.07-1.703-1.484-3.063-3.188-3.063" fill-opacity=".548"/><path d="m16.5 16.344c-1.949 0-3.531 1.582-3.531 3.531 0 1.242.652 2.34 1.625 2.969v2.656c-.973.629-1.625 1.723-1.625 2.969 0 1.949 1.582 3.531 3.531 3.531 1.949 0 3.531-1.582 3.531-3.531v-.125c-.051-1.281-.789-2.359-1.844-2.938l-.031-2.438c.074-.043.176-.047.25-.094l1.906 1.188c0 .02 0 .039 0 .063 0 1.949 1.582 3.531 3.531 3.531 1.918 0 3.48-1.531 3.531-3.438l1.969-1.406c.109.074.227.125.344.188l.031 2.344c-1.145.586-1.938 1.754-1.938 3.125 0 1.949 1.578 3.531 3.531 3.531 1.949 0 3.531-1.582 3.531-3.531v-.125c-.059-1.258-.77-2.32-1.781-2.906l.031-2.531c1.039-.613 1.75-1.734 1.75-3.03v-.156c-.078-1.898-1.645-3.375-3.531-3.375-1.773 0-3.246 1.301-3.5 3l-2.344 1.656c-.488-.266-1.039-.406-1.625-.406-.563 0-1.066.145-1.531.375l-2.316-1.406c-.152-1.816-1.656-3.219-3.5-3.219" fill="#def4fe"/></g></g></g></svg>