<?xml version="1.0" encoding="UTF-8" standalone="no"?>
<svg
   xmlns:dc="http://purl.org/dc/elements/1.1/"
   xmlns:cc="http://creativecommons.org/ns#"
   xmlns:rdf="http://www.w3.org/1999/02/22-rdf-syntax-ns#"
   xmlns:svg="http://www.w3.org/2000/svg"
   xmlns="http://www.w3.org/2000/svg"
   xmlns:sodipodi="http://sodipodi.sourceforge.net/DTD/sodipodi-0.dtd"
   xmlns:inkscape="http://www.inkscape.org/namespaces/inkscape"
   height="48"
   width="48"
   version="1.1"
   id="svg32"
   sodipodi:docname="appcode.svg"
   inkscape:version="0.92.3 (2405546, 2018-03-11)">
  <metadata
     id="metadata38">
    <rdf:RDF>
      <cc:Work
         rdf:about="">
        <dc:format>image/svg+xml</dc:format>
        <dc:type
           rdf:resource="http://purl.org/dc/dcmitype/StillImage" />
      </cc:Work>
    </rdf:RDF>
  </metadata>
  <defs
     id="defs36" />
  <sodipodi:namedview
     pagecolor="#ffffff"
     bordercolor="#666666"
     borderopacity="1"
     objecttolerance="10"
     gridtolerance="10"
     guidetolerance="10"
     inkscape:pageopacity="0"
     inkscape:pageshadow="2"
     inkscape:window-width="640"
     inkscape:window-height="480"
     id="namedview34"
     showgrid="false"
     inkscape:zoom="4.9166667"
     inkscape:cx="24"
     inkscape:cy="24"
     inkscape:window-x="179"
     inkscape:window-y="69"
     inkscape:window-maximized="0"
     inkscape:current-layer="g30" />
  <linearGradient
     id="a"
     gradientUnits="userSpaceOnUse"
     x1="11.660663"
     x2="10.415977"
     y1="56.928329"
     y2="32.880904">
    <stop
       offset="0"
       stop-color="#cdd0d1"
       id="stop2" />
    <stop
       offset="1"
       stop-color="#f6f6f7"
       id="stop4" />
  </linearGradient>
  <linearGradient
     id="b"
     gradientUnits="userSpaceOnUse"
     x1="14.428456"
     x2="5.505778"
     y1="47.467573"
     y2="39.642166">
    <stop
       offset="0"
       stop-color="#16a085"
       id="stop7" />
    <stop
       offset="1"
       stop-color="#2dcb72"
       id="stop9" />
  </linearGradient>
  <filter
     id="c"
     color-interpolation-filters="sRGB">
    <feColorMatrix
       values="0.21 0.72 0.072 0 0 0.21 0.72 0.072 0 0 0.21 0.72 0.072 0 0 0 0 0 1 0"
       id="feColorMatrix12" />
  </filter>
  <linearGradient
     id="d"
     gradientUnits="userSpaceOnUse"
     x1="-19.0871"
     x2="-9.020397"
     y1="55.375499"
     y2="10.980507"
     gradientTransform="matrix(1.1069227,0,0,1.3131308,3.5342193,-8.8630216)">
    <stop
       offset="0"
       stop-color="#247ce6"
       id="stop15" />
    <stop
       offset="1"
       stop-color="#02d6f0"
       id="stop17" />
  </linearGradient>
  <g
     transform="matrix(.69654364 -.00959983 .00959983 .69654364 29.521126 1.36487)"
     id="g30">
    <rect
       height="47.925888"
       ry="1.9806265"
       transform="matrix(0.99997866,-0.00653325,7.7790427e-4,0.9999997,0,0)"
       width="53.918797"
       x="-32.556702"
       y="1.0871313"
       id="rect20"
       style="fill:#1ecf9d;stroke-width:1.18049598" />
    <rect
       height="49.05209"
       ry="2.0271823"
       transform="matrix(0.98268883,-0.18526377,0.12615227,0.99201089,0,0)"
       width="54.947495"
       x="-43.646996"
       y="9.1067371"
       id="rect22"
       style="fill:url(#d);stroke-width:1.20562613" />
    <circle
       cx="11.184063"
       cy="45.12323"
       r="12.348694"
       transform="matrix(0.84741256,-0.00211663,-0.00211663,1.0009615,4.593973,4.3218301)"
       id="circle24"
       style="fill:url(#a);filter:url(#c)" />
    <path
       d="M 14.428456,47.271288 5.5057777,47.467572 9.7971304,39.642164 Z"
       transform="matrix(-0.01749763,1.1643235,-0.98564536,-0.01529807,57.705072,38.571591)"
       id="path26"
       style="fill:url(#b);filter:url(#c)"
       inkscape:connector-curvature="0" />
    <path
       inkscape:connector-curvature="0"
       style="fill:#e6eff9;stroke-width:1.06534374"
       d="m -26.084849,16.213098 c -0.455065,0.0899 -0.84965,0.206539 -1.194501,0.325951 -1.194876,0.411153 -2.399767,1.047133 -2.742753,1.464145 -0.09643,0.117942 0.723225,0.22782 2.121912,0.296009 1.255125,0.06021 2.173119,0.1607 2.045467,0.220957 -0.127488,0.06148 -2.056731,0.170633 -4.308156,0.225707 -3.952693,0.09545 -4.117444,0.08916 -4.340633,0.469994 -0.466252,0.79315 -1.01089,2.836234 -1.039341,3.867226 -0.02736,0.998225 0.0057,1.103127 0.499038,2.014837 0.840844,1.555492 2.127455,2.540976 4.948921,3.785611 1.334471,0.58917 2.404777,1.112803 2.37523,1.168716 -0.02955,0.05591 -1.134647,-0.260534 -2.465802,-0.703879 l -2.413351,-0.803121 -3.126431,1.896699 c -1.719072,1.040464 -3.279631,1.926943 -3.353966,1.941617 l 3.829119,28.202524 2.931708,-0.578723 c -0.04008,-0.291312 5.570439,-13.558131 5.728944,-13.543097 0.0904,0.0073 3.572637,1.22906 7.744439,2.697911 7.124287,2.508587 7.59688,2.640652 7.73116,2.283621 0.203184,-0.539652 0.784688,-3.336194 1.048123,-5.088394 l 0.2182658,-1.471599 -0.7834508,-0.381194 c -1.097132,-0.535864 -2.773529,-1.883847 -3.88104,-3.103751 -1.010954,-1.113764 -2.952695,-3.915506 -3.012105,-4.346979 -0.01968,-0.142596 0.563635,0.414569 1.277397,1.236443 2.004953,2.307248 6.3615683,5.686456 6.5183551,5.0533 0.1861039,-0.75162 0.082648,-2.842046 -0.2538327,-5.218244 -0.4107914,-2.902388 -1.0243134,-5.106211 -2.1972854,-8.079742 l -0.64923,-1.658422 -2.167501,-0.46479 -2.669637,-0.574748 c -0.942066,-0.200896 -0.404294,-0.29203 0.952424,-0.156708 1.621855,0.160599 3.279168,0.254105 4.281947,0.226422 0.88315,-0.0241 1.035992,-0.307185 0.950737,-1.6162 -0.108708,-1.66872 -1.522553,-6.067036 -2.631032,-8.173152 -0.442547,-0.84036 -0.611858,-0.994734 -1.303186,-1.261405 -2.012,-0.775928 -7.485692,-0.798397 -10.670285,-0.155971 z"
       id="path22" />
  </g>
</svg>
