<svg xmlns="http://www.w3.org/2000/svg" xmlns:xlink="http://www.w3.org/1999/xlink" viewBox="0 0 48 48"><defs><linearGradient id="4" x1="30.949" y1="23.63" x2="31.346" y2="8.195" gradientUnits="userSpaceOnUse"><stop stop-color="#e1e1e1"/><stop offset="1" stop-color="#f4f4ff"/></linearGradient><linearGradient xlink:href="#1" id="5" x1="30.31" y1="19.396" x2="30.573" y2="11.577" gradientUnits="userSpaceOnUse"/><linearGradient xlink:href="#1" id="3" x1="29.39" y1="26.717" x2="30.357" y2="4.905" gradientUnits="userSpaceOnUse"/><linearGradient id="1" x1="-123.97" y1="73.5" x2="-125.19" y2="-26.05" gradientUnits="userSpaceOnUse" gradientTransform="matrix(.49433 0 0 .4778 86.64 13.1)"><stop stop-color="#2b65bd"/><stop stop-color="#64a3dc" offset="1"/></linearGradient><linearGradient gradientUnits="userSpaceOnUse" y2="1.017" x2="26.442" y1="47.39" x1="27.456" id="0"><stop stop-color="#2e3436"/><stop offset="1" stop-color="#555753"/></linearGradient><linearGradient id="2" x1="32.587" y1="26.516" x2="33.15" y2="2.791" gradientUnits="userSpaceOnUse"><stop stop-color="#197ff1"/><stop stop-color="#21c6fb" offset="1"/></linearGradient></defs><g transform="matrix(1.71427 0 0 1.71427 15.789-1.488)" enable-background="new"><path d="m2.98-.002h42.04c1.652 0 2.982 1.33 2.982 2.982v42.04c0 1.652-1.33 2.982-2.982 2.982h-42.04c-1.652 0-2.982-1.33-2.982-2.982v-42.04c0-1.652 1.33-2.982 2.982-2.982" fill="url(#0)" fill-rule="evenodd" transform="matrix(.5833 0 0 .5833-9.209.869)"/><g transform="translate(-26.27-.913)" image-rendering="optimizeSpeed"><path d="m37.37 4.847q-.397-.228-.837-.108l-12.374 3.315 14.658.951-.936-3.492c-.078-.292-.249-.513-.511-.666m-13.14 21.2c.078.293.249.516.511.67.264.151.544.186.835.108l12.567-3.366-14.844-.884.93 3.471z" fill="url(#3)"/><path d="m41.33 22.607c.292-.078.515-.249.667-.513.151-.264.189-.544.111-.837l-3.284-12.253-14.658-.951-3.37.902c-.292.078-.515.249-.666.513-.154.264-.191.542-.111.834l3.289 12.272 14.844.884 3.177-.851" fill="url(#2)"/><path d="m38.754 9q0-.379-.269-.647c-.179-.179-.395-.269-.647-.269h-13.558c-.252 0-.469.09-.647.269-.179.179-.269.395-.269.647v13.558c0 .252.09.469.269.647.179.179.395.269.647.269h13.558c.252 0 .469-.09.647-.269.179-.179.269-.395.269-.647v-13.558" fill="url(#4)"/><path d="m29.344 12.235q-.231-.16-.507-.125c-.185.023-.337.104-.461.243-.124.139-.186.302-.186.489v5.878c0 .186.063.35.186.489.124.139.276.22.461.243.185.023.353-.02.507-.125l4.264-2.939c.136-.093.229-.218.281-.373.052-.156.052-.311 0-.466-.052-.154-.145-.279-.279-.374l-4.266-2.939" fill="url(#5)"/></g></g></svg>