<svg xmlns="http://www.w3.org/2000/svg" xmlns:xlink="http://www.w3.org/1999/xlink" width="48" viewBox="0 0 13.546667 13.546667" height="48"><defs><linearGradient xlink:href="#1" id="4" y1="32.738" x2="0" y2="-34.996" gradientUnits="userSpaceOnUse"/><linearGradient id="5" x1="-79.5" y1="-61.978" x2="-68.03" y2="-89.27" gradientUnits="userSpaceOnUse"><stop stop-color="#f4aeec"/><stop offset="1" stop-color="#fffafe"/></linearGradient><linearGradient id="3" gradientUnits="userSpaceOnUse" x1="-374.87" y1="22.837" x2="-375.63" y2="-17.662"><stop stop-color="#29292b"/><stop offset="1" stop-color="#3f3f3f"/></linearGradient><linearGradient id="1"><stop stop-color="#5e184a"/><stop offset="1" stop-color="#802f72"/></linearGradient><linearGradient xlink:href="#1" id="0" x1="-101.12" y1="-143.71" x2="-103.68" y2="-290.88" gradientUnits="userSpaceOnUse"/><linearGradient id="2" gradientUnits="userSpaceOnUse" gradientTransform="matrix(3.35858 0 0 3.54331 1563.37-277.15)" y1="30.48" x2="0" y2="-25.964"><stop stop-color="#f7f7f7"/><stop offset="1" stop-color="#fcfdfc"/></linearGradient></defs><g transform="matrix(.18741 0 0 .18741 18.276 21.01)"><path transform="scale(.28222)" d="m-107.9-292.99c-2.77 0-5 2.23-5 5v40.3c0 2.77 2.23 5 5 5h9.201c2.77 0 5-2.23 5-5v-40.3c0-2.77-2.23-5-5-5h-9.201m0 63.936c-2.77 0-5 2.23-5 5v40.3c0 2.77 2.23 5 5 5h9.201c2.77 0 5-2.23 5-5v-40.3c0-2.77-2.23-5-5-5h-9.201" mix-blend-mode="normal" solid-color="#000000" color-interpolation-filters="linearRGB" color="#000" image-rendering="auto" color-rendering="auto" fill-rule="evenodd" isolation="auto" color-interpolation="sRGB" solid-opacity="1" fill="url(#0)" shape-rendering="auto"/><g><g transform="translate(329.73-77.65)" color-rendering="auto" color-interpolation-filters="linearRGB" shape-rendering="auto" image-rendering="auto" fill-rule="evenodd" color-interpolation="sRGB" color="#000"><path d="m23.352-366.97c-2.77 0-5 2.23-5 5v187.83c0 2.77 2.23 5 5 5h108.48c2.77 0 5-2.23 5-5v-127.75c.391.098.793.166 1.215.166h10.637c2.77 0 5-2.23 5-5v-42.13c0-2.77-2.23-5-5-5h-10.637c-.422 0-.824.068-1.215.166v-8.277c0-2.77-2.23-5-5-5h-108.48" transform="matrix(.28222 0 0 .28222-399.16 77.65)" mix-blend-mode="normal" solid-color="#000000" isolation="auto" solid-opacity="1" fill="url(#2)"/><path d="m-385.9-18.524v2.376h20.08v-2.376h-20.08m0 7.586v2.376h20.08v-2.376h-20.08m0 7.663v2.376h20.08v-2.376h-20.08m0 7.51v2.375h20.08v-2.375h-20.08m0 7.51v2.376h20.08v-2.376h-20.08m0 7.702v2.375h20.08v-2.375h-20.08" mix-blend-mode="normal" solid-color="#000000" isolation="auto" solid-opacity="1" fill="url(#3)"/><path d="m-425.03-26.529l40.922-7.902c.768-.148 1.411.629 1.411 1.411v69.43c0 .782-.644 1.559-1.411 1.411l-40.922-7.902c-.768-.148-1.411-.629-1.411-1.411v-53.622c0-.782.644-1.263 1.411-1.411" mix-blend-mode="normal" solid-color="#000000" isolation="auto" solid-opacity="1" fill="url(#4)"/></g><path d="m-70.72-90.58c1.793-.096 3.596-.193 5.407-.271 0 9.662 0 19.333 0 28.995-1.947-.079-3.875-.184-5.804-.289-3.587-6.695-7.471-13.242-10.94-19.998.198 6.477.081 12.962.099 19.438-1.64-.105-3.262-.201-4.893-.298.027-8.892.018-17.793 0-26.685 1.856-.096 3.704-.193 5.569-.289 3.524 6.266 7.101 12.507 10.526 18.834.072-6.477 0-12.962.036-19.438" fill="url(#5)"/></g></g></svg>