<svg xmlns="http://www.w3.org/2000/svg" width="48" viewBox="0 0 13.546667 13.546667" height="48"><defs><linearGradient id="3" x1="-85.16" y1="16.13" x2="-81.11" y2="-11.614" gradientUnits="userSpaceOnUse"><stop stop-color="#fbcdc3"/><stop offset="1" stop-color="#f8feff"/></linearGradient><linearGradient id="2" gradientUnits="userSpaceOnUse" y1="32.738" x2="0" y2="-34.996"><stop stop-color="#b8462b"/><stop offset="1" stop-color="#f26949"/></linearGradient><linearGradient id="0" gradientUnits="userSpaceOnUse" y1="29.814" x2="0" y2="-26.63"><stop stop-color="#f7f7f7"/><stop offset="1" stop-color="#fcfdfc"/></linearGradient><linearGradient id="1" x1="-188.69" y1="85.1" x2="-189.7" y2="-66.58" gradientUnits="userSpaceOnUse"><stop stop-color="#29292b"/><stop offset="1" stop-color="#3f3f3f"/></linearGradient></defs><g transform="matrix(.18741 0 0 .18741 19.967 6.475)"><g color-rendering="auto" color-interpolation-filters="linearRGB" shape-rendering="auto" image-rendering="auto" fill-rule="evenodd" color-interpolation="sRGB" color="#000"><rect width="35.28" height="55.831" x="-71.814" y="-26.02" mix-blend-mode="normal" solid-color="#000000" isolation="auto" solid-opacity="1" fill="url(#0)" rx="1.411" stroke-width="1"/><path transform="scale(.28222)" d="m-189.34-64.809c.006 0 .006 29.15 0 29.15h29.18c0-16.11-13.06-29.15-29.18-29.15m-8.203 7.928c-16.11 0-29.16 13.06-29.16 29.18 0 16.13 13.05 29.18 29.16 29.18 16.12 0 29.18-13.05 29.18-29.18h-29.18v-29.18m32.803 59.953v45.695h9.984v-45.695h-9.984m-14.592 10.752v34.943h9.217v-34.943h-9.217m-16.512 9.6v25.344h9.6v-25.344h-9.6m-14.977 11.904v13.439h9.6v-13.439h-9.6m-7.104 23.04v8.449h61.824v-8.449h-61.824m0 16.896v8.449h61.824v-8.449h-61.824" mix-blend-mode="normal" solid-color="#000000" isolation="auto" solid-opacity="1" fill="url(#1)"/></g><g><path transform="translate(322.17-.101)" d="m-425.03-26.529l40.922-7.902c.768-.148 1.411.629 1.411 1.411v69.43c0 .782-.644 1.559-1.411 1.411l-40.922-7.902c-.768-.148-1.411-.629-1.411-1.411v-53.622c0-.782.644-1.263 1.411-1.411" mix-blend-mode="normal" solid-color="#000000" color-interpolation-filters="linearRGB" color="#000" image-rendering="auto" color-rendering="auto" fill-rule="evenodd" isolation="auto" color-interpolation="sRGB" solid-opacity="1" fill="url(#2)" shape-rendering="auto"/><path d="m-84.68-12.214c-2.895.055-5.907.533-8.63.417-.12 9.504-.1 19.02-.009 28.52 1.986.142 3.982.294 5.968.445-.001-3.479-.0001-6.958.009-10.438 2.477.071 5.086.213 7.362-.819 6.409-2.785 7.553-11.345 3.23-15.999-2.257-1.811-5.03-2.18-7.93-2.126m-.334 5.156c1.317.031 2.586.292 3.419 1.321 1.143 1.744 1.083 4.04.13 5.838-1.143 1.833-3.732 1.655-5.728 1.869-.211-2.981-.19-5.963-.16-8.953.741-.03 1.548-.094 2.338-.075" fill="url(#3)"/></g></g></svg>