<svg xmlns="http://www.w3.org/2000/svg" width="48" viewBox="0 0 13.546667 13.546667" height="48"><defs><linearGradient id="3" gradientUnits="userSpaceOnUse" y1="29.916" x2="0" y2="-26.529"><stop stop-color="#f7f7f7"/><stop offset="1" stop-color="#fcfdfc"/></linearGradient><linearGradient id="2" x1="-340.77" y1="16.867" x2="-320.66" y2="-11.743" gradientUnits="userSpaceOnUse"><stop stop-color="#c2dafc"/><stop offset="1" stop-color="#f7fcff"/></linearGradient><linearGradient id="0" x1="-1318.27" y1="80.919" x2="-1320.99" y2="-62.58" gradientUnits="userSpaceOnUse"><stop stop-color="#29292b"/><stop offset="1" stop-color="#3f3f3f"/></linearGradient><linearGradient id="1" gradientUnits="userSpaceOnUse" y1="32.738" x2="0" y2="-34.996"><stop stop-color="#255192"/><stop offset="1" stop-color="#477ccc"/></linearGradient></defs><g transform="matrix(.18741 0 0 .18741 66.06 6.456)" fill-rule="evenodd"><g transform="translate(76.2)" color-rendering="auto" color-interpolation-filters="linearRGB" shape-rendering="auto" image-rendering="auto" color-interpolation="sRGB" color="#000"><rect width="35.28" height="55.831" x="-393.98" y="-25.916" mix-blend-mode="normal" solid-color="#000000" isolation="auto" solid-opacity="1" fill="url(#3)" rx="1.411"/><path d="m-1357.37-65.63v8.418h71.14v-8.418h-71.14m0 26.881v8.418h71.14v-8.418h-71.14m0 27.15v8.418h71.14v-8.418h-71.14m0 26.611v8.416h71.14v-8.416h-71.14m0 26.609v8.418h71.14v-8.418h-71.14m0 27.29v8.416h71.14v-8.416h-71.14" transform="scale(.28222)" mix-blend-mode="normal" solid-color="#000000" isolation="auto" solid-opacity="1" fill="url(#0)"/><path d="m-425.03-26.529l40.922-7.902c.768-.148 1.411.629 1.411 1.411v69.43c0 .782-.644 1.559-1.411 1.411l-40.922-7.902c-.768-.148-1.411-.629-1.411-1.411v-53.622c0-.782.644-1.263 1.411-1.411" mix-blend-mode="normal" solid-color="#000000" isolation="auto" solid-opacity="1" fill="url(#1)"/></g><path d="m-344.46-11.512l4.828-.153 2.682 19.694 3.602-20.307 5.288-.153 3.448 20.691 3.219-21.07 5.288-.383-5.901 30.653-5.441-.383-3.525-20.384-3.448 19.848-5.441-.383z" fill="url(#2)"/></g></svg>