<svg xmlns="http://www.w3.org/2000/svg" xmlns:xlink="http://www.w3.org/1999/xlink" viewBox="0 0 48 48"><defs><linearGradient xlink:href="#1" id="8" y1="87.12" x2="0" y2="-92.87" gradientUnits="userSpaceOnUse"/><linearGradient id="5"><stop stop-color="#63983f"/><stop offset="1" stop-color="#a7ff69"/></linearGradient><linearGradient xlink:href="#3" id="7" y1="67.12" x2="0" y2="-2.875" gradientUnits="userSpaceOnUse"/><linearGradient xlink:href="#5" id="6" x1="28.375" y1="-10.235" x2="39.554" y2="-76.24" gradientUnits="userSpaceOnUse"/><linearGradient xlink:href="#5" id="4" y1="107.12" x2="0" y2="-102.87" gradientUnits="userSpaceOnUse"/><linearGradient id="3"><stop stop-color="#d83b38"/><stop offset="1" stop-color="#f37370"/></linearGradient><linearGradient xlink:href="#1" id="0" y1="72.12" x2="0" y2="2.125" gradientUnits="userSpaceOnUse"/><linearGradient xlink:href="#3" id="2" x1="-69.96" y1="-2.769" x2="-69.2" y2="-71.78" gradientUnits="userSpaceOnUse"/><linearGradient id="1"><stop stop-color="#014b7a"/><stop offset="1" stop-color="#039eff"/></linearGradient></defs><g transform="matrix(.19802 0 0 .19802 27.299 24.342)" enable-background="new" fill-rule="evenodd"><path d="m52.55-75.6l-39.18 11.821v70.9h25z" fill="url(#6)"/><path d="m23.375 63.12l29.06 9v-75z" fill="url(#7)"/><path d="m-16.625 119.53l40-26.8 29-92.6v72l31-20v-107.4l-30.8-20.3-29 75.5v-95.9l-40.2-26.9z" fill="url(#8)"/><path d="m-85.8-75.6l39.18 11.821v70.9h-25z" fill="url(#2)"/><path d="m-56.625 63.12l-29.06 9v-75z" fill="url(#0)"/><path d="m-16.625 119.53l-40-26.8-29-92.6v72l-31-20v-107.4l30.8-20.3 29 75.5v-95.9l40.2-26.9z" fill="url(#4)"/></g></svg>