<svg xmlns="http://www.w3.org/2000/svg" viewBox="0 0 48 48"><defs><linearGradient gradientUnits="userSpaceOnUse" y2="1.017" x2="26.442" y1="47.39" x1="26.881" id="0"><stop stop-color="#841ac8"/><stop offset="1" stop-color="#b92ff5"/></linearGradient></defs><g transform="matrix(1.71427 0 0 1.71427 15.789-1.488)" enable-background="new"><path d="m2.98-.002h42.04c1.652 0 2.982 1.33 2.982 2.982v42.04c0 1.652-1.33 2.982-2.982 2.982h-42.04c-1.652 0-2.982-1.33-2.982-2.982v-42.04c0-1.652 1.33-2.982 2.982-2.982" fill="url(#0)" fill-rule="evenodd" transform="matrix(.5833 0 0 .5833-9.209.869)"/><path d="m10.325 7.681c-1.982 0-3.989 1.177-3.989 3.423h.34c0-2.039 1.836-3.106 3.649-3.106.921 0 1.77.272 2.39.765.699.556 1.067 1.366 1.067 2.342h.341c0-1.071-.412-1.965-1.188-2.583-.681-.542-1.608-.841-2.61-.841zm.02 2.865c-.226 0-.409.17-.409.38 0 .209.182.378.409.378.226 0 .408-.169.408-.378 0-.209-.182-.38-.408-.38zm-11.567 2.622c-.357 0-.696.06-1.018.182-.31.11-.595.271-.857.481-.262.21-.483.452-.661.728-.179.276-.309.579-.393.91h-.037v-2.102h-.356v8.506h.356v-4.815c0-.475.066-.927.197-1.357.143-.43.34-.805.59-1.125.262-.331.577-.592.946-.779.369-.199.779-.297 1.231-.297.512 0 .93.077 1.251.231.322.154.57.365.749.629.178.265.298.573.358.926.072.353.108.729.108 1.126v5.461h.356v-5.395c0-.397.066-.772.197-1.125.131-.364.32-.685.57-.961.25-.276.554-.491.911-.646.357-.166.756-.248 1.196-.248.5 0 .912.066 1.233.198.333.132.595.32.786.563.202.243.339.535.411.877.083.342.124.724.124 1.143l.012 3.128c.02.34.049.643.162.926.167.375.392.696.678.961.298.254.643.446 1.036.578.405.121.846.182 1.322.182.905 0 1.636-.214 2.196-.644.571-.43.941-.977 1.107-1.64h.037v2.102h.353.003v-8.506h-.356v4.815c0 .475-.071.927-.214 1.357-.143.431-.357.812-.643 1.143-.274.32-.619.579-1.036.778-.417.188-.899.281-1.447.281-.393 0-.768-.049-1.125-.149-.345-.11-.656-.276-.93-.497-.262-.232-.47-.518-.625-.86-.155-.353-.169-.79-.169-1.286l-.003-2.669c0-.463-.049-.883-.144-1.258-.095-.386-.256-.711-.482-.976-.226-.276-.522-.491-.892-.646-.369-.155-.834-.231-1.394-.231-.715 0-1.334.181-1.858.545-.524.364-.875.846-1.054 1.442h-.035c-.155-.629-.476-1.122-.964-1.475-.476-.364-1.072-.534-1.786-.512z" fill="#e4cbf1" stroke="#e5ccf2"/></g></svg>