<svg xmlns="http://www.w3.org/2000/svg" xmlns:xlink="http://www.w3.org/1999/xlink" viewBox="0 0 48 48"><defs><linearGradient id="0"><stop stop-color="#fa183c"/><stop offset="1" stop-color="#fe590a"/></linearGradient><linearGradient xlink:href="#0" gradientUnits="userSpaceOnUse" x1="24.306" y1="47.73" x2="23.694" y2="-.449"/><linearGradient xlink:href="#0" id="1" x1="23.299" y1="47.874" x2="24.13" y2=".989" gradientUnits="userSpaceOnUse"/></defs><circle r="24" cy="24" cx="24" fill="url(#1)"/><g transform="matrix(1.71428 0 0 1.71428-676.41-873.08)" enable-background="new"><path d="m408.57 536.13c7.088 0 12.833-5.746 12.833-12.833 0-7.088-5.746-12.833-12.833-12.833v2.406c5.759 0 10.427 4.668 10.427 10.427 0 5.759-4.668 10.427-10.427 10.427v2.406" fill-opacity=".392"/><path d="m395.74 523.3c0 7.088 5.746 12.833 12.833 12.833v-2.406c-5.759 0-10.427-4.668-10.427-10.427 0-5.759 4.668-10.427 10.427-10.427v-2.406c-7.088 0-12.833 5.746-12.833 12.833" fill="#fedfdf"/></g><path d="m33.02 22.869c-.127.113-.315.12-.45.016l-4.486-3.413-2.126 12.714c-.008.048-.025.092-.05.132-.426 1.822-2.752 3.182-5.488 3.182-3.066 0-5.561-1.697-5.561-3.78 0-2.087 2.494-3.78 5.561-3.78 1.259 0 2.456.281 3.429.798l2.811-15.943c.025-.145.139-.262.287-.289.142-.025.292.04.368.169l5.774 9.758c.087.149.058.334-.069.447" fill="#fff" fill-opacity=".846"/></svg>