<svg xmlns="http://www.w3.org/2000/svg" viewBox="0 0 48 48"><defs><linearGradient gradientUnits="userSpaceOnUse" y2="-7.855" x2="0" y1="19.445" id="0"><stop stop-color="#c52828"/><stop offset="1" stop-color="#ff5454"/></linearGradient></defs><g transform="matrix(1.71427 0 0 1.71427-69.21 13.512)" enable-background="new"><circle cx="-1.018" cy="6.145" r="14" fill="url(#0)" transform="translate(55.39-.02)"/><path d="m61.53 5.232c-.101.09-.25.095-.357.013l-3.56-2.709-1.687 10.09c-.006.038-.02.073-.04.105-.338 1.446-2.184 2.525-4.355 2.525-2.433 0-4.413-1.347-4.413-3 0-1.656 1.979-3 4.413-3 .999 0 1.949.223 2.721.633l2.231-12.653c.02-.115.11-.208.228-.229.113-.02.232.032.292.134l4.582 7.744c.069.118.046.265-.055.355" fill="#fff" fill-opacity=".846"/></g></svg>