<svg xmlns="http://www.w3.org/2000/svg" viewBox="0 0 48 48"><defs><clipPath id="1"><path fill="#1890d0" transform="matrix(15.33333 0 0 11.5 415-125.5)" d="m-24 13c0 1.105-.672 2-1.5 2-.828 0-1.5-.895-1.5-2 0-1.105.672-2 1.5-2 .828 0 1.5.895 1.5 2"/></clipPath><linearGradient id="0" x1="33.749" y1="46.44" x2="33.769" y2="22.749" gradientUnits="userSpaceOnUse"><stop stop-color="#1074f5"/><stop offset="1" stop-color="#02befd"/></linearGradient></defs><g transform="matrix(1.71427 0 0 1.71427-34.21-36.488)" enable-background="new"><path d="m24.09 25.977c2.64-2.149 6.145-3.332 9.87-3.332 3.725 0 7.231 1.183 9.87 3.332 2.663 2.167 4.13 5.056 4.13 8.133 0 2.937-1.337 5.702-3.774 7.832.044.099.079.203.101.312l.801 3.939c.095.468-.033.747-.157.899-.143.175-.356.272-.598.272-.183 0-.38-.054-.585-.161l-4.658-2.42c-1.613.519-3.346.791-5.13.791-3.725 0-7.23-1.183-9.871-3.332-2.663-2.167-4.13-5.05-4.13-8.133 0-3.078 1.467-5.966 4.129-8.133" fill="url(#0)"/><g clip-path="url(#1)" transform="matrix(.58334 0 0 .58334 19.492 22.278)"><g fill="#fff" fill-opacity=".85"><path d="m30.375 15c.883 0 1.105.441 1.375 2.969.238 2.211.652 4.68.844 4.875.145.145.23.145.344 0 .223-.281 1.453-3.418 1.938-4.938.5-1.566.996-2.27 1.844-2.656.68-.309 1.082-.313 1.313-.031.242.293-.219 1.695-1.25 4.03-2.203 4.969-4.477 7.949-7.125 9.281-.977.492-1.969.629-1.969.281 0-.441.449-1.445.816-1.816.219-.223.73-.605 1.188-.844.449-.238.859-.488.906-.563.047-.074-.191-.66-.566-1.316-.758-1.328-1.25-2.371-1.688-3.781-.34-1.07-.414-3.01-.156-3.934.262-.945 1.129-1.566 2.191-1.566"/><path d="m19.681 15.06c.41-.055.766.102 1.063.438.609.684.613 1.105.066 2.816-.273.824-.5 1.602-.5 1.688 0 .391.488.031 2.125-1.598 1.914-1.898 2.32-2.133 3.063-1.75.723.375.746.867.406 3.938-.293 2.652-.297 2.695-.063 4.066.313 1.852.324 1.867-.066 2.156-.758.551-1.793.426-2.563-.316-.902-.863-.984-1.191-.996-5.152 0-.332-.527.105-2.16 1.75-1.012 1.016-2.023 1.926-2.219 2.027-.574.309-1.113.238-1.598-.188-.629-.566-.676-1.23-.152-2.844.227-.711.41-1.367.375-1.406-.145-.148-.59.27-2.25 2.094-1.887 2.066-2.289 2.406-3 2.406-.902 0-1.469-1.039-1.281-2.375.188-1.398 1.676-5.297 2.5-6.594.672-1.066 2.039-1.41 2.656-.656.328.402.215 1.059-.406 2.844-.586 1.699-.457 1.855.598.656.418-.48 1.254-1.398 1.816-2.031 1.063-1.207 1.902-1.871 2.594-1.969"/></g></g></g></svg>