<?xml version="1.0" encoding="UTF-8" standalone="no"?>
<!-- Created with Inkscape (http://www.inkscape.org/) -->

<svg
   xmlns:osb="http://www.openswatchbook.org/uri/2009/osb"
   xmlns:dc="http://purl.org/dc/elements/1.1/"
   xmlns:cc="http://creativecommons.org/ns#"
   xmlns:rdf="http://www.w3.org/1999/02/22-rdf-syntax-ns#"
   xmlns:svg="http://www.w3.org/2000/svg"
   xmlns="http://www.w3.org/2000/svg"
   xmlns:xlink="http://www.w3.org/1999/xlink"
   xmlns:sodipodi="http://sodipodi.sourceforge.net/DTD/sodipodi-0.dtd"
   xmlns:inkscape="http://www.inkscape.org/namespaces/inkscape"
   version="1.1"
   id="svg2"
   width="256"
   height="256"
   viewBox="0 0 256 256"
   sodipodi:docname="typora(copiar).svg"
   inkscape:version="0.92.2pre0 (973e216, 2017-07-25)">
  <metadata
     id="metadata8">
    <rdf:RDF>
      <cc:Work
         rdf:about="">
        <dc:format>image/svg+xml</dc:format>
        <dc:type
           rdf:resource="http://purl.org/dc/dcmitype/StillImage" />
        <dc:title />
      </cc:Work>
    </rdf:RDF>
  </metadata>
  <defs
     id="defs6">
    <linearGradient
       id="linearGradient4207"
       osb:paint="gradient">
      <stop
         style="stop-color:#3498db;stop-opacity:1;"
         offset="0"
         id="stop3371" />
      <stop
         style="stop-color:#3498db;stop-opacity:0;"
         offset="1"
         id="stop3373" />
    </linearGradient>
    <linearGradient
       id="linearGradient4422">
      <stop
         id="stop4424"
         offset="0"
         style="stop-color:#197ff1;stop-opacity:1" />
      <stop
         id="stop4426"
         offset="1"
         style="stop-color:#21c6fb;stop-opacity:1" />
    </linearGradient>
    <linearGradient
       id="linearGradient4303">
      <stop
         id="stop4305"
         offset="0"
         style="stop-color:#c6cdd1;stop-opacity:1" />
      <stop
         id="stop4307"
         offset="1"
         style="stop-color:#f6f6f6;stop-opacity:1;" />
    </linearGradient>
    <linearGradient
       id="linearGradient3764"
       y1="47"
       x2="0"
       y2="1"
       gradientUnits="userSpaceOnUse">
      <stop
         style="stop-color:#83c87e;stop-opacity:1"
         id="stop7" />
      <stop
         offset="1"
         style="stop-color:#91ce8c;stop-opacity:1"
         id="stop9" />
    </linearGradient>
    <clipPath
       id="clipPath-323124572">
      <g
         transform="translate(0,-1004.3622)"
         id="g12">
        <path
           d="m -24 13 c 0 1.105 -0.672 2 -1.5 2 -0.828 0 -1.5 -0.895 -1.5 -2 0 -1.105 0.672 -2 1.5 -2 0.828 0 1.5 0.895 1.5 2 z"
           transform="matrix(15.333333,0,0,11.5,414.99999,878.8622)"
           style="fill:#1890d0"
           id="path14" />
      </g>
    </clipPath>
    <clipPath
       id="clipPath-333423643">
      <g
         transform="translate(0,-1004.3622)"
         id="g17">
        <path
           d="m -24 13 c 0 1.105 -0.672 2 -1.5 2 -0.828 0 -1.5 -0.895 -1.5 -2 0 -1.105 0.672 -2 1.5 -2 0.828 0 1.5 0.895 1.5 2 z"
           transform="matrix(15.333333,0,0,11.5,414.99999,878.8622)"
           style="fill:#1890d0"
           id="path19" />
      </g>
    </clipPath>
    <linearGradient
       id="3"
       x1="24.209999"
       y1="42.34"
       x2="23.896999"
       y2="6.0939999"
       gradientUnits="userSpaceOnUse">
      <stop
         stop-color="#197ff1"
         id="stop2" />
      <stop
         offset="1"
         stop-color="#21c6fb"
         id="stop4" />
    </linearGradient>
    <linearGradient
       gradientUnits="userSpaceOnUse"
       y2="4.2150002"
       x2="-5.4050002"
       y1="43.606998"
       x1="-5.3499999"
       id="1"
       xlink:href="#2" />
    <linearGradient
       id="2"
       gradientUnits="userSpaceOnUse"
       gradientTransform="matrix(0.49433,0,0,0.4778,86.64,13.1)"
       x1="-123.97"
       y1="73.5"
       x2="-125.19"
       y2="-26.049999">
      <stop
         stop-color="#e1e1e1"
         id="stop7-7" />
      <stop
         offset="1"
         stop-color="#f4f4ff"
         id="stop9-5" />
    </linearGradient>
    <linearGradient
       xlink:href="#2"
       id="0"
       x1="-10.767"
       y1="4.6750002"
       x2="-11.233"
       y2="-22.851"
       gradientUnits="userSpaceOnUse"
       gradientTransform="matrix(1.77384,0,0,1.71427,42.46,39.38)" />
  </defs>
  <sodipodi:namedview
     pagecolor="#ffffff"
     bordercolor="#666666"
     borderopacity="1"
     objecttolerance="10"
     gridtolerance="10"
     guidetolerance="10"
     inkscape:pageopacity="0"
     inkscape:pageshadow="2"
     inkscape:window-width="1366"
     inkscape:window-height="697"
     id="namedview4"
     showgrid="false"
     inkscape:zoom="0.921875"
     inkscape:cx="138.35826"
     inkscape:cy="128"
     inkscape:window-x="0"
     inkscape:window-y="0"
     inkscape:window-maximized="1"
     inkscape:current-layer="g53" />
  <style
     type="text/css"
     id="style26">
	.specularity {opacity:0.5;}
	.low-specularity {opacity:0.25;}
	.full-specularity {opacity:1;}
	.black {fill:#000000;}
	.white {fill:#ffffff;}
	.outline-big {stroke-width:16;stroke:none;opacity:0.1;fill:none;}
	.outline-small {stroke-width:8;stroke:none;opacity:0.2;fill:none;}
	.stroke-highlight {fill:none;stroke:none;opacity:0.2;}
       	.base-shadow 	{fill:black;opacity:75;}
	</style>
  <style
     type="text/css"
     id="style26-7">
	.specularity {opacity:0.5;}
	.low-specularity {opacity:0.25;}
	.full-specularity {opacity:1;}
	.black {fill:#000000;}
	.white {fill:#ffffff;}
	.outline-big {stroke-width:16;stroke:none;opacity:0.1;fill:none;}
	.outline-small {stroke-width:8;stroke:none;opacity:0.2;fill:none;}
	.stroke-highlight {fill:none;stroke:none;opacity:0.2;}
       	.base-shadow 	{fill:black;opacity:75;}
	</style>
  <g
     id="g857"
     transform="matrix(0.95803662,0,0,0.9956208,6.0360346,1.0979791)">
    <g
       id="g53"
       transform="matrix(0.99114373,0.12695208,-0.13636895,0.95561335,16.139548,-9.9507973)">
      <g
         style="enable-background:new"
         id="g18"
         transform="matrix(5.124377,-0.68076732,0.7132876,5.1842487,-11.243253,17.45084)">
        <rect
           style="fill:url(#0);stroke-width:1.71399999"
           y="0"
           x="0"
           height="48"
           width="48"
           rx="3.085"
           id="rect16" />
      </g>
      <path
         inkscape:connector-curvature="0"
         style="fill:#000080;stroke-width:6.10123968"
         d="m 228.74742,182.84286 c -1.22689,-0.48164 -7.85506,-2.63994 -14.72863,-4.79601 -14.3075,-4.48762 -29.38515,-12.77216 -30.19453,-16.58974 -0.71823,-3.38802 2.89141,-6.96236 9.12799,-9.04002 2.99326,-0.9969 6.89283,-2.42147 8.66535,-3.16584 l 3.22306,-1.35326 -5.75832,-2.6154 c -5.4474,-2.47422 -9.46155,-3.43071 -20.96711,-4.99679 -7.44916,-1.01367 -13.68829,-5.6801 -21.86598,-16.35247 C 134.9468,96.130226 131.13759,91.625469 124.8876,86.843019 117.85021,81.457455 108.2519,76.315654 95.750157,71.234638 83.47467,66.24532 81.662372,65.938592 73.911194,67.543132 c -6.172385,1.277688 -7.545741,1.204646 -11.947955,-0.63566 -6.954251,-2.90675 -13.532206,-4.232666 -17.279476,-3.48314 -4.824594,0.964382 -3.524381,4.292952 4.111352,10.524705 7.41194,6.049126 9.326361,8.254876 14.064831,16.205611 1.950354,3.272462 6.646607,9.416574 10.436084,13.653492 3.789406,4.23682 6.979869,8.12797 7.089973,8.64732 0.109821,0.51936 -0.255249,4.51226 -0.811948,8.87379 -1.223591,9.58723 -0.05942,19.32774 3.116125,26.07105 5.51055,11.70175 9.429469,12.63977 9.340231,2.2355 -0.07745,-9.03153 1.852033,-14.89769 5.114309,-15.54934 1.003617,-0.20063 5.23956,4.05343 11.81536,11.86515 5.63779,6.6978 13.49292,15.00644 17.45566,18.46384 3.96269,3.45746 7.0474,6.52637 6.85504,6.82006 -0.45591,0.69609 -9.89502,-4.40532 -17.00287,-9.18865 -3.0768,-2.07085 -7.69893,-6.03151 -10.27154,-8.80225 -4.43931,-4.7802 -4.69751,-4.90858 -5.06602,-2.5183 -0.21361,1.38518 -0.39693,3.98936 -0.40755,5.7869 -0.0306,5.18462 -2.385857,8.94943 -6.076328,9.71334 -5.166563,1.06953 -9.972592,-3.35257 -15.411995,-14.18056 -3.634416,-7.23471 -6.574791,-23.61767 -5.788942,-32.25396 0.506793,-5.56949 0.503852,-5.5785 -2.446643,-7.64658 C 67.000514,109.48293 64.48643,106.30731 58.432248,96.525359 54.592222,90.320772 51.537538,86.915554 44.483742,80.974432 38.140756,75.632316 35.01618,72.265328 33.987841,69.665282 30.798149,61.597966 32.998819,56.07496 39.91101,54.799452 c 5.344121,-0.986034 17.009637,0.406473 22.388478,2.6726 3.173136,1.336794 6.11511,1.596889 11.584957,1.023985 13.455329,-1.409198 29.598845,4.022826 47.881015,16.110826 17.70843,11.708918 32.37241,26.800427 39.58982,40.743997 4.83645,9.3434 10.15148,13.1248 23.26973,16.55412 9.63119,2.51782 12.72627,3.92469 22.30373,10.14067 6.11626,3.96944 11.27785,7.96074 11.47045,8.8691 0.42305,1.99681 -3.37652,4.26609 -11.34473,6.77524 -11.17261,3.51814 -11.13175,3.279 -1.29703,7.58365 16.76508,7.33833 23.07283,11.30033 25.71979,16.15548 1.26398,2.31813 0.5343,2.69587 -2.73027,1.41372 z M 77.067751,84.837233 c -1.200102,-1.736341 -3.164181,-3.445035 -4.364473,-3.797029 -2.553556,-0.748814 -3.208057,-2.671722 -1.597122,-4.692099 1.727116,-2.166124 8.40192,-0.608038 9.820633,2.289063 3.375644,6.898365 0.176404,12.038571 -3.859159,6.200072 z"
         id="path10" />
      <path
         inkscape:connector-curvature="0"
         style="opacity:0.2;stroke-width:6.06072855"
         d="m 228.59797,182.81546 c -1.25564,-0.50459 -8.08175,-2.81997 -15.16843,-5.14503 -14.75136,-4.8394 -29.95447,-13.22982 -30.44592,-16.80182 -0.43609,-3.17007 3.73851,-6.30501 10.55679,-7.92883 3.27249,-0.77909 7.54781,-1.91053 9.50046,-2.51444 l 3.55058,-1.0979 -5.85902,-2.69669 c -5.54268,-2.55113 -9.71045,-3.62885 -21.76944,-5.63001 -7.8076,-1.29538 -13.97945,-5.91337 -21.63038,-16.18284 C 137.40234,98.064517 133.79362,93.712667 127.62135,88.986782 120.67159,83.664952 110.98071,78.445921 98.202831,73.143914 85.656212,67.937611 83.762522,67.566828 75.382466,68.680129 68.709309,69.566646 67.258921,69.433186 62.76439,67.518868 55.664271,64.495173 48.811311,62.952594 44.762535,63.466582 c -5.212705,0.661175 -4.15331,3.804125 3.349967,9.937802 7.283376,5.953924 9.102721,8.087149 13.365885,15.67281 1.754809,3.122195 6.147067,9.033807 9.760673,13.136806 3.613605,4.10289 6.624753,7.85717 6.691596,8.3431 0.06663,0.48595 -0.70518,4.16388 -1.715764,8.17379 -2.221276,8.81434 -1.92339,17.88504 0.797453,24.27825 4.721519,11.09427 8.79002,12.15034 9.696761,2.5169 0.787116,-8.36244 3.399331,-13.69906 6.924004,-14.14572 1.084342,-0.13758 5.170115,4.00272 11.3965,11.54784 5.33819,6.46918 12.87438,14.53555 16.74689,17.92541 3.87243,3.38992 6.85064,6.37813 6.61816,6.64071 -0.5508,0.62237 -10.07657,-4.55166 -17.15915,-9.3195 -3.06577,-2.06411 -7.58959,-5.95135 -10.05299,-8.63907 -4.250912,-4.63696 -4.512555,-4.76817 -5.133707,-2.57363 -0.359993,1.27175 -0.805203,3.67314 -0.989503,5.33625 -0.531476,4.79693 -3.393277,8.16832 -7.383105,8.69834 -5.585799,0.7421 -10.260352,-3.58106 -14.990479,-13.86322 -3.160505,-6.87004 -4.703948,-22.17351 -3.038738,-30.12873 1.073884,-5.13028 1.071691,-5.13877 -1.8604,-7.19427 -3.774593,-2.64632 -6.136899,-5.70592 -11.620106,-15.049473 -3.477861,-5.926511 -6.391747,-9.224536 -13.305447,-15.061326 -6.217036,-5.248313 -9.208783,-8.514309 -10.049794,-10.969972 -2.60843,-7.61928 0.258553,-12.625304 7.71657,-13.474318 5.76614,-0.656309 18.011639,1.191882 23.501645,3.547122 3.238625,1.389373 6.335637,1.771181 12.195439,1.503257 14.41453,-0.658976 31.023305,5.142534 49.260985,17.20673 17.6653,11.685831 31.77424,26.35627 38.09131,39.60721 4.23315,8.87926 9.50953,12.63383 23.1007,16.43676 9.97829,2.79212 13.12738,4.24261 22.69276,10.4548 6.10857,3.96701 11.2019,7.90849 11.31887,8.75842 0.25674,1.86836 -3.99381,3.78635 -12.69126,5.72648 -12.19509,2.72027 -12.12865,2.50088 -2.1063,6.95649 17.08483,7.5956 23.39732,11.56493 25.73904,16.18532 1.11814,2.20605 0.30751,2.52066 -3.03353,1.17747 z M 77.06763,84.83724 c -1.106437,-1.664542 -3.026193,-3.340132 -4.266135,-3.723463 -2.637773,-0.815467 -3.14726,-2.626522 -1.243253,-4.419134 2.041314,-1.921925 8.974766,-0.159782 10.201393,2.589484 2.918278,6.546329 -0.971528,11.150191 -4.692127,5.553113 z"
         id="path8" />
    </g>
  </g>
  <style
     id="style26-6"
     type="text/css">
	.specularity {opacity:0.5;}
	.low-specularity {opacity:0.25;}
	.full-specularity {opacity:1;}
	.black {fill:#000000;}
	.white {fill:#ffffff;}
	.outline-big {stroke-width:16;stroke:none;opacity:0.1;fill:none;}
	.outline-small {stroke-width:8;stroke:none;opacity:0.2;fill:none;}
	.stroke-highlight {fill:none;stroke:none;opacity:0.2;}
       	.base-shadow 	{fill:black;opacity:75;}
	</style>
  <style
     id="style26-7-2"
     type="text/css">
	.specularity {opacity:0.5;}
	.low-specularity {opacity:0.25;}
	.full-specularity {opacity:1;}
	.black {fill:#000000;}
	.white {fill:#ffffff;}
	.outline-big {stroke-width:16;stroke:none;opacity:0.1;fill:none;}
	.outline-small {stroke-width:8;stroke:none;opacity:0.2;fill:none;}
	.stroke-highlight {fill:none;stroke:none;opacity:0.2;}
       	.base-shadow 	{fill:black;opacity:75;}
	</style>
  <style
     id="style26-3"
     type="text/css">
	.specularity {opacity:0.5;}
	.low-specularity {opacity:0.25;}
	.full-specularity {opacity:1;}
	.black {fill:#000000;}
	.white {fill:#ffffff;}
	.outline-big {stroke-width:16;stroke:none;opacity:0.1;fill:none;}
	.outline-small {stroke-width:8;stroke:none;opacity:0.2;fill:none;}
	.stroke-highlight {fill:none;stroke:none;opacity:0.2;}
       	.base-shadow 	{fill:black;opacity:75;}
	</style>
  <style
     id="style26-7-6"
     type="text/css">
	.specularity {opacity:0.5;}
	.low-specularity {opacity:0.25;}
	.full-specularity {opacity:1;}
	.black {fill:#000000;}
	.white {fill:#ffffff;}
	.outline-big {stroke-width:16;stroke:none;opacity:0.1;fill:none;}
	.outline-small {stroke-width:8;stroke:none;opacity:0.2;fill:none;}
	.stroke-highlight {fill:none;stroke:none;opacity:0.2;}
       	.base-shadow 	{fill:black;opacity:75;}
	</style>
</svg>
