<svg xmlns="http://www.w3.org/2000/svg" viewBox="0 0 48 48"><defs><linearGradient id="0" gradientUnits="userSpaceOnUse" x1="24.61" y1="47.593" x2="23.593" y2="-.203"><stop stop-color="#197ff1"/><stop stop-color="#21c6fb" offset="1"/></linearGradient></defs><rect height="48" width="48" rx="2.982" fill="url(#0)" fill-rule="evenodd"/><path d="m9.03 7.325c-.81-.014-1.515.291-1.883 1.186-.619 1.508.925 2.979 1.477 3.743.387.536.882 1.138 1.159 1.741.182.396.214.795.37 1.214.383 1.033.716 2.154 1.212 3.109.251.483.527.994.844 1.425.194.265.527.382.58.791-.326.456-.344 1.161-.527 1.738-.824 2.598-.514 5.828.685 7.751.368.59 1.235 1.856 2.426 1.37 1.042-.424.81-1.739 1.108-2.9.067-.263.025-.456.157-.632v.053c.316.633.633 1.264.95 1.897.703 1.131 1.949 2.315 3.01 3.113.548.414.98 1.129 1.688 1.37v-.053h-.053c-.137-.214-.351-.304-.527-.476-.413-.404-.873-.907-1.214-1.37-.961-1.304-1.809-2.731-2.583-4.217-.37-.71-.691-1.492-1-2.214-.12-.278-.118-.7-.368-.844-.341.529-.845.957-1.108 1.582-.422.999-.476 2.216-.632 3.479-.093.033-.051.012-.106.053-.734-.177-.992-.933-1.265-1.582-.691-1.64-.819-4.281-.212-6.169.157-.488.867-2.027.58-2.479-.137-.45-.59-.709-.844-1.053-.314-.425-.627-.985-.844-1.476-.565-1.279-.829-2.715-1.424-4.01-.284-.618-.764-1.244-1.159-1.793-.437-.609-.928-1.057-1.267-1.793-.121-.262-.282-.679-.104-.947.057-.181.136-.258.315-.317.306-.236 1.158.079 1.476.211.846.351 1.551.685 2.268 1.159.344.228.693.669 1.108.791h.474c.742.171 1.574.054 2.268.264 1.226.373 2.325.952 3.323 1.582 3.04 1.919 5.524 4.651 7.224 7.91.274.525.392 1.025.633 1.582.486 1.122 1.099 2.276 1.582 3.373.483 1.095.953 2.2 1.635 3.111.359.479 1.744.737 2.373 1 .441.187 1.164.381 1.582.632.798.482 1.572 1.055 2.321 1.582.374.264 1.525.841 1.582 1.318-1.855-.05-3.271.122-4.482.632-.344.145-.894.15-.95.582.189.198.22.494.37.738.289.468.776 1.094 1.212 1.423.476.359.966.744 1.477 1.055.908.553 1.92.869 2.794 1.423.515.327 1.027.737 1.529 1.106.248.182.415.465.738.579v-.051c-.17-.216-.212-.515-.368-.74l-.685-.685c-.67-.89-1.522-1.671-2.426-2.32-.721-.518-2.337-1.216-2.638-2.056-.018-.018-.035-.035-.053-.053.511-.058 1.112-.242 1.584-.368.793-.213 1.5-.159 2.318-.37.369-.105.739-.21 1.108-.315v-.211c-.414-.425-.71-.986-1.161-1.37-1.181-1.01-2.47-2.01-3.797-2.849-.736-.465-1.644-.765-2.424-1.159-.262-.132-.723-.202-.897-.423-.41-.522-.634-1.183-.95-1.791-.662-1.275-1.311-2.667-1.897-4.01-.4-.914-.663-1.817-1.161-2.637-2.395-3.936-4.972-6.313-8.965-8.648-.85-.497-1.872-.691-2.953-.947-.58-.035-1.161-.071-1.741-.106-.354-.148-.723-.581-1.056-.791-.827-.522-2.462-1.428-3.812-1.451m5.711 5.721c-.387-.008-.661.043-.95.106v.053h.053c.184.379.51.623.738.95.176.369.351.737.527 1.106.017-.017.035-.033.053-.051.327-.23.478-.599.476-1.161-.131-.138-.151-.309-.264-.474-.151-.219-.442-.345-.632-.529z" fill="#def2fe" stroke="#def2fe" stroke-linejoin="bevel" stroke-linecap="square" stroke-width=".4"/></svg>