<svg xmlns="http://www.w3.org/2000/svg" xmlns:xlink="http://www.w3.org/1999/xlink" viewBox="0 0 48 48"><defs><clipPath><path transform="matrix(15.33333 0 0 11.5 415-125.5)" d="m-24 13c0 1.105-.672 2-1.5 2-.828 0-1.5-.895-1.5-2 0-1.105.672-2 1.5-2 .828 0 1.5.895 1.5 2" fill="#1890d0"/></clipPath><linearGradient id="3" x1="-26.394" y1="73.1" x2="-25.889" y2="-11.725" gradientUnits="userSpaceOnUse"><stop stop-color="#ffbc00"/><stop stop-color="#ffec00" offset="1"/></linearGradient><linearGradient id="4" x1="19.277" y1="13.767" x2="18.489" y2="-49.634" gradientUnits="userSpaceOnUse"><stop stop-color="#74cb32"/><stop stop-color="#abeb6b" offset="1"/></linearGradient><linearGradient id="2" gradientUnits="userSpaceOnUse" x1="-54.2" y1="5.668" x2="-53.909" y2="-58.645"><stop stop-color="#197ff1"/><stop stop-color="#21c6fb" offset="1"/></linearGradient><linearGradient gradientUnits="userSpaceOnUse" y2="1.017" x2="26.442" y1="47.39" x1="27.456" id="1" xlink:href="#0"/><linearGradient id="0"><stop stop-color="#2e3436"/><stop offset="1" stop-color="#555753"/></linearGradient><linearGradient xlink:href="#0" id="5" x1="-46.07" y1="107.64" x2="-45.13" y2="-95.68" gradientUnits="userSpaceOnUse"/></defs><g transform="matrix(1.71427 0 0 1.71427 15.789-1.488)" enable-background="new"><path d="m2.98-.002h42.04c1.652 0 2.982 1.33 2.982 2.982v42.04c0 1.652-1.33 2.982-2.982 2.982h-42.04c-1.652 0-2.982-1.33-2.982-2.982v-42.04c0-1.652 1.33-2.982 2.982-2.982" fill="url(#1)" fill-rule="evenodd" transform="matrix(.5833 0 0 .5833-9.209.869)"/><g transform="matrix(.13567 0 0 .13567 8.55 13.922)"><path d="m-8.494-6.01c7.477-12.499 14.986-24.903 22.08-38.542 3.736-7.125 8.467-7.481 14.167-1.25 11.446 13.149 20.483 29.05 15.625 60.834-.933 6.146-5.04 11.477-12.917 8.542-10.993-5.261-21.682-8.703-32.5-12.917-7.05-2.482-11.05-7.914-6.458-16.667" fill="url(#4)"/><path d="m-100.16 2.527c1.482-14.09 8.273-25.809 17.15-37.426 10.804-14.15 32.549-24.992 53.897-25.908 7.82 1.197 14.333 4.03 15 14.167-1.147 14.988-2.556 29.889-4.583 44.584-1.618 13.668-9.886 17.865-20.625 18.542-15.695.145-31.389.088-47.08-.208-9.254-.788-13.38-5.744-13.75-13.75" fill="url(#2)"/><path d="m-56.896-5.52c12.462-7.504 32.599-7.491 45.615-4.571 16.989 3.811 32.638 14.986 42.995 31.367 6.292 9.453 4.307 15.999.417 21.875-11.1 17.249-25.12 26.658-41.569 31.22-14.14 3.92-39.03 3.305-51.671-3.697-2.126-1.263-4.288-2.486-6.315-4.04-12.17-8.338-13.45-23.958-12.504-34.831 1-11.489 6.709-26.24 17.894-33.971 1.647-1.162 3.306-2.363 5.139-3.35z" fill="url(#3)" stroke="url(#5)" stroke-width="4.3"/></g></g></svg>