<svg xmlns="http://www.w3.org/2000/svg" viewBox="0 0 48 48"><defs><clipPath><path transform="matrix(15.33333 0 0 11.5 415-125.5)" d="m-24 13c0 1.105-.672 2-1.5 2-.828 0-1.5-.895-1.5-2 0-1.105.672-2 1.5-2 .828 0 1.5.895 1.5 2" fill="#1890d0"/></clipPath><clipPath><path transform="matrix(15.33333 0 0 11.5 415-125.5)" d="m-24 13c0 1.105-.672 2-1.5 2-.828 0-1.5-.895-1.5-2 0-1.105.672-2 1.5-2 .828 0 1.5.895 1.5 2" fill="#1890d0"/></clipPath><linearGradient gradientUnits="userSpaceOnUse" y2="1.017" x2="26.442" y1="47.39" x1="27.456" id="0"><stop stop-color="#2e3436"/><stop offset="1" stop-color="#555753"/></linearGradient><linearGradient id="1" x1="-24.371" y1="28.988" x2="-24.333" y2="11.454" gradientUnits="userSpaceOnUse"><stop stop-color="#197ff1"/><stop stop-color="#21c6fb" offset="1"/></linearGradient></defs><g transform="matrix(1.71427 0 0 1.71427 15.789-1.488)" enable-background="new"><path d="m2.98-.002h42.04c1.652 0 2.982 1.33 2.982 2.982v42.04c0 1.652-1.33 2.982-2.982 2.982h-42.04c-1.652 0-2.982-1.33-2.982-2.982v-42.04c0-1.652 1.33-2.982 2.982-2.982" fill="url(#0)" fill-rule="evenodd" transform="matrix(.5833 0 0 .5833-9.209.869)"/><path d="m-24.332 28.99q-3.687 0-6.183-2.497-2.497-2.497-2.497-6.23 0-3.733 2.497-6.23 2.497-2.497 6.183-2.497 3.78 0 6.137 2.73l-1.493 1.447q-1.703-2.123-4.643-2.123-2.73 0-4.62 1.843-1.867 1.843-1.867 4.83 0 2.987 1.867 4.83 1.89 1.843 4.62 1.843 3.01 0 5.133-2.427l1.493 1.493q-1.143 1.377-2.87 2.193-1.727.793-3.757.793z" fill="url(#1)" stroke="url(#1)" stroke-linejoin="round" stroke-linecap="round" stroke-width="1.167" transform="translate(30.15-5.395)"/></g></svg>