<svg xmlns="http://www.w3.org/2000/svg" xmlns:xlink="http://www.w3.org/1999/xlink" viewBox="0 0 48 48"><defs><linearGradient y2="-1.429" x2="0" y1="47.37" gradientUnits="userSpaceOnUse" id="0"><stop stop-color="#c52828"/><stop stop-color="#ff5454" offset="1"/></linearGradient><linearGradient xlink:href="#0" id="1" x1="-10.767" y1="4.675" x2="-11.233" y2="-22.851" gradientUnits="userSpaceOnUse" gradientTransform="matrix(1.77384 0 0 1.71427 42.46 39.38)"/><linearGradient gradientUnits="userSpaceOnUse" y2="4.215" x2="-5.405" y1="43.607" x1="-5.35" id="2" xlink:href="#0"/></defs><g enable-background="new"><rect height="48" width="48" rx="3.085" fill="url(#1)" stroke-width="1.714"/></g><g transform="matrix(1.25 0 0 1.25 30.831-5.618)" color="#000"><g fill="#faeded"><path d="m.938 21.948l-5.79 3.874-.002 5.878c-.0001 3.233.014 5.878.033 5.878.019 0 2.633-1.738 5.809-3.862l5.774-3.862v-5.896c0-3.243-.008-5.893-.017-5.891-.009 0-2.622 1.748-5.807 3.879" opacity=".987"/><path d="m-17.725 23.8v5.982l5.797 3.851c3.189 2.118 5.813 3.851 5.832 3.851.019 0 .035-2.689.035-5.976v-5.975l-5.794-3.858c-3.186-2.122-5.811-3.858-5.832-3.858-.021 0-.039 2.692-.039 5.982" opacity=".987"/><path d="m-11.165 12.985c-3.107 2.077-5.676 3.803-5.709 3.835-.067.065 11.371 7.782 11.545 7.789.127 0 11.373-7.52 11.35-7.595-.011-.035-10.532-7.153-11.499-7.78-.021-.015-2.581 1.674-5.688 3.751" opacity=".987"/></g><path d="m-6.646 38.957l-12.42-8.264v-1.842-11.475-.614c1.736-1.136.336-.218 1.133-.756l11.1-7.414c1.353-.901.012 0 1.37-.897 12.12 8.05 9.148 6.07 12.656 8.406.954.698.177.144.944.708v.519.047 11.475 1.842c-3.512 2.337-.514.342-.85.567l-11.57 7.697-.614.378c-.427.275 1.849-1.195-.567.36-1.121-.711-.001 0-1.181-.738m.425-1.558v-11.712l-.094-.142-.331-.189-10.909-7.272v11.759zm1.511 0l11.334-7.556v-11.523l-11.334 7.556zm-.567-12.987l11.05-7.367-11.239-7.509-11.1 7.367 10.767 7.178" opacity=".987" fill="url(#2)"/></g></svg>