<svg xmlns="http://www.w3.org/2000/svg" viewBox="0 0 48 48"><defs><linearGradient id="0" x1="-10.767" y1="4.675" x2="-11.233" y2="-22.851" gradientUnits="userSpaceOnUse" gradientTransform="matrix(1.77384 0 0 1.71427 42.46 39.38)"><stop stop-color="#c52828"/><stop stop-color="#ff5454" offset="1"/></linearGradient></defs><g enable-background="new"><rect height="48" width="48" rx="3.085" fill="url(#0)" stroke-width="1.714"/></g><path d="m9.5 28.708c-.602.106-1.214.137-1.847.222l-1.932-5.658v5.901c-.602.063-1.151.148-1.721.232v-10.81h1.605l2.196 6.134v-6.134h1.7v10.113m3.325-6.155c.655 0 1.657-.032 2.259-.032v1.689c-.75 0-1.626 0-2.259.032v2.513c.992-.063 1.985-.148 2.988-.18v1.626l-4.677.37v-9.976h4.677v1.689h-2.988v2.27m9.269-2.27h-1.752v7.77c-.57 0-1.14 0-1.689.021v-7.791h-1.752v-1.689h5.194v1.689m2.745 2.154h2.312v1.689h-2.312v3.832h-1.658v-9.364h4.719v1.689h-3.062v2.154m5.806 4.04c.961.021 1.932.095 2.871.148v1.668c-1.51-.095-3.02-.19-4.561-.222v-9.48h1.689v7.886m4.297 1.932c.538.032 1.108.063 1.657.127v-9.945h-1.657v9.818m9.06-9.818l-2.143 5.141 2.143 5.669c-.633-.084-1.267-.201-1.9-.306l-1.214-3.125-1.235 2.871c-.612-.106-1.204-.137-1.816-.222l2.175-4.951-1.964-5.078h1.816l1.108 2.84 1.182-2.84h1.847" fill="#faebeb"/></svg>