<svg xmlns="http://www.w3.org/2000/svg" viewBox="0 0 48 48"><defs><linearGradient id="0" y1="48.737" x2="0" y2="-163.14" gradientUnits="userSpaceOnUse"><stop stop-color="#2a2c2f"/><stop offset="1" stop-color="#424649"/></linearGradient><linearGradient id="1" x1="479.11" y1="7.147" x2="478.31" y2="-113.24" gradientUnits="userSpaceOnUse"><stop stop-color="#ff9300"/><stop offset="1" stop-color="#ffd702"/></linearGradient></defs><g transform="matrix(.22655 0 0 .22655-86.8 36.962)" enable-background="new"><rect width="211.87" height="211.87" x="383.15" y="-163.14" fill="url(#0)" rx="105.94"/><path d="m472.41-112.77c-.324 0-.685.106-1.014.343-.343.236-.616.671-.671 1.032-.125.722.037 1.065.343 1.68 1.43 2.569 2.856 4.555 3.398 6.091.94 2.115.921 4.069.671 5.388l-1.717 8.1c-8.586 1.972-16.872 3.976-25.17 6.763-1.611.505-2.856 1.032-4.087 1.68-.106-.019-.236-.019-.343 0-.435.273-.454.653-.685 1.014-.106.199-.305.417-.343.685-.037.255.093.704.343 1.014.722.977 1.699 1.393 3.074 2.027 1.356.634 2.93 1.264 4.087 1.699 5.767 2.078 13.183 3.763 19.06 4.393-1.592 7.07-3.111 14.05-5.462 20.922-.56 1.68-1.282 3.435-2.027 5.082-2.134 4.721-4.865 9.02-7.485 13.164-2.787 3.87-5.115 7.647-8.156 11.137-.579.597-1.481 1.12-2.041 1.68-.273.305-.472.759-.685 1.032-.093.125-.255.181-.343.343-.093.143-.037.236 0 .671-.019.106-.019.236 0 .343.074.125.199.255.343.343.093.125.199.255.343.343.106.019.236.019.343 0 .616.093 1.12-.143 1.699-.343.597-.181 1.014-.343 1.717-.671 1.412-.671 3.217-1.393 4.754-2.37 2.189-1.375 3.833-2.787 5.101-3.708 2.24-1.629 7.286-6.272 9.873-9.438 2.967-3.347 6.11-6.943 8.517-11.479.037-.093-.055-.255 0-.343.162-.292 1.102-2.078 1.356-2.712.505-1.264.852-2.532 1.014-3.036l7.485-22.621 26.2-6.078c-.653 5.462-1.375 10.739-2.027 16.201-.505 4.504-.852 6.309-1.356 11.137-.019.143.019.181 0 .343-.305 1.481-1.139 5.661-1.375 6.763-1.736 8.373-3.597 15.983-7.466 22.621-.94 1.282-2.01 2.638-3.074 3.708-1.065-.523-2.569-1.25-4.754-1.356-.037 0-.236 0-.343 0-.106-.019-.236-.019-.343 0 0 0-.343.324-.343.343-.125.093-.273.199-.343.343-.144.778.106 1.375.343 2.041.236.671.417 1.412.671 2.027 1.972 4.411 4.286 8.244 6.471 12.151.074.143.181.255.343.343.074.143.181.255.343.343.106.019.218.019.343 0 .106.019.218.019.343 0 .125-.074.255-.181.343-.343 3.254-3.055 7.105-8.01 9.873-12.151 5.425-8.08 10.02-17.1 13.271-27.338.486-1.592.884-3.198 1.356-5.064l10.197-38.822c.435-1.717.94-3.634 1.014-5.082.019-.106.019-.255 0-.343-.199-.486-.671-.741-1.014-1.051-.343-.236-.579-.454-1.014-.671-.884-.435-2.041-.977-3.074-1.338-4.902-1.629-10.216-3.129-15.983-4.393-.634-.273-1.032-.38-1.699-.361-.671.074-1.643.199-2.388.361-1.481.305-2.999.778-4.087 1.051l-13.613 2.999c.579-1.791 1.537-4.448.671-7.758-1.157-3.777-4.157-5.985-7.466-7.087-2.837-.958-5.605-1.81-8.517-2.712-.472-.106-2.606-.87-4.754-1.014" fill="url(#1)"/></g></svg>