<svg xmlns="http://www.w3.org/2000/svg" viewBox="0 0 48 48"><defs><clipPath id="1"><path transform="matrix(15.33333 0 0 11.5 415-125.5)" d="m-24 13c0 1.105-.672 2-1.5 2-.828 0-1.5-.895-1.5-2 0-1.105.672-2 1.5-2 .828 0 1.5.895 1.5 2" fill="#1890d0"/></clipPath><clipPath><path fill="#1890d0" transform="matrix(15.33333 0 0 11.5 415-125.5)" d="m-24 13c0 1.105-.672 2-1.5 2-.828 0-1.5-.895-1.5-2 0-1.105.672-2 1.5-2 .828 0 1.5.895 1.5 2"/></clipPath><clipPath><path d="m-24 13c0 1.105-.672 2-1.5 2-.828 0-1.5-.895-1.5-2 0-1.105.672-2 1.5-2 .828 0 1.5.895 1.5 2" transform="matrix(15.33333 0 0 11.5 415-125.5)" fill="#1890d0"/></clipPath><clipPath><path d="m-24 13c0 1.105-.672 2-1.5 2-.828 0-1.5-.895-1.5-2 0-1.105.672-2 1.5-2 .828 0 1.5.895 1.5 2" transform="matrix(15.33333 0 0 11.5 415-125.5)" fill="#1890d0"/></clipPath><clipPath><path fill="#1890d0" transform="matrix(15.33333 0 0 11.5 415-125.5)" d="m-24 13c0 1.105-.672 2-1.5 2-.828 0-1.5-.895-1.5-2 0-1.105.672-2 1.5-2 .828 0 1.5.895 1.5 2"/></clipPath><clipPath><path d="m-24 13c0 1.105-.672 2-1.5 2-.828 0-1.5-.895-1.5-2 0-1.105.672-2 1.5-2 .828 0 1.5.895 1.5 2" transform="matrix(15.33333 0 0 11.5 415-125.5)" fill="#1890d0"/></clipPath><clipPath><path d="m-24 13c0 1.105-.672 2-1.5 2-.828 0-1.5-.895-1.5-2 0-1.105.672-2 1.5-2 .828 0 1.5.895 1.5 2" transform="matrix(15.33333 0 0 11.5 415-125.5)" fill="#1890d0"/></clipPath><clipPath><path d="m-24 13c0 1.105-.672 2-1.5 2-.828 0-1.5-.895-1.5-2 0-1.105.672-2 1.5-2 .828 0 1.5.895 1.5 2" transform="matrix(15.33333 0 0 11.5 415-125.5)" fill="#1890d0"/></clipPath><linearGradient id="0" y1="556.24" x2="0" y2="510.24" gradientUnits="userSpaceOnUse"><stop stop-color="#1584d8"/><stop offset="1" stop-color="#1cb2ff"/></linearGradient><linearGradient gradientUnits="userSpaceOnUse" x2="47" x1="0"><stop stop-color="#a9a3d4"/><stop offset=".47" stop-color="#87baff"/><stop offset="1" stop-color="#89ec85"/></linearGradient></defs><g transform="translate(-486.76-502.73)" stroke-width="1.317"><rect width="46" height="46" x="296.96" y="510.24" fill="url(#0)" rx="23" stroke-width="2.164" transform="matrix(.99507 0 0 .99507 192.37-3.883)"/><g clip-path="url(#1)" transform="matrix(1.33333 0 0 1.33333 478.76 494.73)" fill="#ddf1fd" enable-background="new"><path d="m24 12c-6.629 0-12 5.371-12 12 0 6.629 5.371 12 12 12 6.629 0 12-5.371 12-12 0-6.629-5.371-12-12-12m.723 3.429c.02.006.024.057.008.151l-.132 6.596c-.03.185.092.268.285.224l3.285-.738c.193-.043.287.097.203.27l-5 10.518c-.084.175-.141.16-.124-.03l.174-6.524c.015-.187-.135-.333-.328-.29l-3.275.735c-.193.043-.271-.106-.177-.275l4.984-10.52c.046-.084.082-.123.102-.117z"/></g><g transform="translate(-10.926 23.06)" font-family="sans-serif" word-spacing="0" line-height="125%" letter-spacing="0"><text y="516.22" x="300.29" font-size="5"><tspan y="516.22" x="300.29"/></text><flowRoot font-size="10"><flowRegion><path d="m-1370.43-469.33h135.55v166.64h-135.55z"/></flowRegion><flowPara/></flowRoot></g></g></svg>