<svg xmlns="http://www.w3.org/2000/svg" viewBox="0 0 48 48"><defs><clipPath><path transform="matrix(15.33333 0 0 11.5 415-125.5)" d="m-24 13c0 1.105-.672 2-1.5 2-.828 0-1.5-.895-1.5-2 0-1.105.672-2 1.5-2 .828 0 1.5.895 1.5 2" fill="#1890d0"/></clipPath><clipPath><path transform="matrix(15.33333 0 0 11.5 415-125.5)" d="m-24 13c0 1.105-.672 2-1.5 2-.828 0-1.5-.895-1.5-2 0-1.105.672-2 1.5-2 .828 0 1.5.895 1.5 2" fill="#1890d0"/></clipPath><clipPath id="1"><path d="m-24 13c0 1.105-.672 2-1.5 2-.828 0-1.5-.895-1.5-2 0-1.105.672-2 1.5-2 .828 0 1.5.895 1.5 2" transform="matrix(15.33333 0 0 11.5 415-125.5)" fill="#1890d0"/></clipPath><linearGradient gradientUnits="userSpaceOnUse" y2="1.017" x2="26.442" y1="47.39" x1="27.456" id="0"><stop stop-color="#2e3436"/><stop offset="1" stop-color="#555753"/></linearGradient><linearGradient id="2" x1="-29.813" y1="44.28" x2="-29.15" y2="13.504" gradientUnits="userSpaceOnUse"><stop stop-color="#197ff1"/><stop stop-color="#21c6fb" offset="1"/></linearGradient></defs><g transform="matrix(1.71427 0 0 1.71427 15.789-1.488)" enable-background="new"><path d="m2.98-.002h42.04c1.652 0 2.982 1.33 2.982 2.982v42.04c0 1.652-1.33 2.982-2.982 2.982h-42.04c-1.652 0-2.982-1.33-2.982-2.982v-42.04c0-1.652 1.33-2.982 2.982-2.982" fill="url(#0)" fill-rule="evenodd" transform="matrix(.5833 0 0 .5833-9.209.869)"/><g clip-path="url(#1)" transform="matrix(.692 0 0 .692-11.818-1.62)"><g><g stroke-opacity=".848" fill="none" stroke="#fff"><path d="m400 0c0 220.91-179.09 400-400 400-220.91 0-400-179.09-400-400 0-220.91 179.09-400 400-400 220.91 0 400 179.09 400 400" transform="matrix(.03625 0 0 .03625 24 24)" stroke-width="27.586"/><path d="m400 0c0 220.98-179.02 400-400 400-220.98 0-400-179.02-400-400 0-220.98 179.02-400 400-400 220.98 0 400 179.02 400 400" transform="matrix(.02625 0 0 .02625 24 24)" stroke-width="38.1"/></g><path d="m-29.19 13.555c-.613 0-1.104.48-1.104 1.074 0 .594.499 1.074 1.104 1.074.606 0 1.1-.48 1.1-1.074 0-.594-.498-1.074-1.1-1.074m0 3.926c-.613 0-1.104.48-1.104 1.07 0 .594.499 1.072 1.104 1.072.606 0 1.1-.478 1.1-1.072 0-.59-.498-1.07-1.1-1.07m-.002 4.422c-3.867 0-7 3.133-7 7 0 3.867 3.133 7 7 7 3.867 0 7-3.133 7-7 0-3.867-3.133-7-7-7m-13.902 1.887c-.606 0-1.098.48-1.098 1.074 0 .59.493 1.07 1.098 1.07.606 0 1.094-.48 1.094-1.07 0-.594-.489-1.074-1.094-1.074m27.805 0c-.606 0-1.098.48-1.098 1.074 0 .59.493 1.07 1.098 1.07.606 0 1.098-.48 1.098-1.07 0-.594-.493-1.074-1.098-1.074m-13.9 14.566c-.613 0-1.104.48-1.104 1.074 0 .594.499 1.072 1.104 1.072.606 0 1.1-.478 1.1-1.072 0-.594-.498-1.074-1.1-1.074m-8.596 1.43c-.606 0-1.094.48-1.094 1.07 0 .594.489 1.074 1.094 1.074.606 0 1.098-.48 1.098-1.074 0-.59-.493-1.07-1.098-1.07m17.188 0c-.606 0-1.098.48-1.098 1.07 0 .594.493 1.074 1.098 1.074.606 0 1.096-.48 1.096-1.074 0-.59-.491-1.07-1.096-1.07" transform="translate(53.19-4.902)" fill="url(#2)"/></g></g></g></svg>