<svg xmlns="http://www.w3.org/2000/svg" viewBox="0 0 48 48"><defs><clipPath><path fill="#1890d0" transform="matrix(15.33333 0 0 11.5 415-125.5)" d="m-24 13c0 1.105-.672 2-1.5 2-.828 0-1.5-.895-1.5-2 0-1.105.672-2 1.5-2 .828 0 1.5.895 1.5 2"/></clipPath><clipPath><path fill="#1890d0" transform="matrix(15.33333 0 0 11.5 415-125.5)" d="m-24 13c0 1.105-.672 2-1.5 2-.828 0-1.5-.895-1.5-2 0-1.105.672-2 1.5-2 .828 0 1.5.895 1.5 2"/></clipPath><clipPath id="2"><path transform="matrix(15.33333 0 0 11.5 415-125.5)" d="m-24 13c0 1.105-.672 2-1.5 2-.828 0-1.5-.895-1.5-2 0-1.105.672-2 1.5-2 .828 0 1.5.895 1.5 2" fill="#1890d0"/></clipPath><clipPath><path d="m-24 13c0 1.105-.672 2-1.5 2-.828 0-1.5-.895-1.5-2 0-1.105.672-2 1.5-2 .828 0 1.5.895 1.5 2" transform="matrix(15.33333 0 0 11.5 415-125.5)" fill="#1890d0"/></clipPath><clipPath><path d="m-24 13c0 1.105-.672 2-1.5 2-.828 0-1.5-.895-1.5-2 0-1.105.672-2 1.5-2 .828 0 1.5.895 1.5 2" transform="matrix(15.33333 0 0 11.5 415-125.5)" fill="#1890d0"/></clipPath><linearGradient gradientTransform="matrix(.99834 0 0 .98513-2.169 6.702)" gradientUnits="userSpaceOnUse" y2="104.85" x2="-1060.26" y1="203.1" x1="-1092.91" id="1"><stop stop-color="#e4e4e4"/><stop stop-color="#eee" offset="1"/></linearGradient><linearGradient gradientTransform="matrix(.99978 0 0 .98633-.833 5.996)" gradientUnits="userSpaceOnUse" y2="317.35" x2="-1003.64" y1="433.28" x1="-989.67" id="0"><stop stop-color="#1584d8"/><stop offset="1" stop-color="#1cb2ff"/></linearGradient></defs><g transform="translate(-384.9-499.85)"><text x="300.29" y="516.22" font-family="sans-serif" word-spacing="0" line-height="125%" letter-spacing="0" font-size="5"><tspan x="300.29" y="516.22"/></text><g transform="matrix(1.07411-.13926.13926 1.07411-153.18 32.478)"><g transform="matrix(.32604.04227-.04227.32604 784.99 393.98)"><rect transform="matrix(.94912-.31493.30721.95164 0 0)" y="117.57" x="-1100.9" height="112.93" width="89.62" fill="url(#1)" rx="2.756"/><rect transform="matrix(.9921-.12541.13781.99046 0 0)" y="317.97" x="-1046.3" height="121.24" width="99.8" fill="url(#0)" rx="2.959"/></g><g clip-path="url(#2)" fill="#fff" fill-opacity=".831" transform="matrix(.91937-.0849.0849.91937 434.55 497.47)"><path d="m22.57 26.523c.082-.262-.086-.52-.375-.52h-4.91c-.289 0-.352-.238-.164-.449l10.484-13.414c.184-.211.254-.176.148.082l-2.305 9.371c-.102.254.047.41.336.41h4.922c.289 0 .379.23.203.449l-10.512 13.406c-.176.223-.254.184-.168-.082" fill="#fff" fill-rule="evenodd" fill-opacity=".831"/></g></g><flowRoot font-family="sans-serif" fill="#000" word-spacing="0" line-height="125%" fill-opacity="1" letter-spacing="0" font-size="10"><flowRegion><path d="m-1370.43-469.33h135.55v166.64h-135.55z"/></flowRegion><flowPara/></flowRoot></g></svg>