<svg xmlns="http://www.w3.org/2000/svg" viewBox="0 0 48 48"><defs><linearGradient id="0" y1="653.96" x2="0" y2="301.3" gradientUnits="userSpaceOnUse"><stop stop-color="#0a80fd"/><stop offset="1" stop-color="#56c5fa"/></linearGradient></defs><g transform="matrix(2.27969 0 0 2.27969 5.629-2356.28)" fill="#fff"><circle r="173.45" cy="478.75" cx="-325.89" transform="matrix(.0607 0 0 .0607 27.839 1015.06)" fill="url(#0)"/><g transform="matrix(.97446 0 0 .97446-19.27 1025.98)" fill="#ddefff"><path d="m28.04 13.847c-2.891 0-5.608 1.126-7.652 3.17l1.167 1.167c1.732-1.732 4.04-2.686 6.485-2.686 2.45 0 4.753.954 6.485 2.686l1.167-1.167c-2.044-2.044-4.761-3.17-7.652-3.17"/><path d="m22.466 19.09l1.167 1.167c1.178-1.178 2.745-1.828 4.412-1.828 1.667 0 3.233.649 4.412 1.828l1.167-1.167c-1.49-1.49-3.471-2.311-5.579-2.311-2.108 0-4.089.821-5.579 2.311"/><path d="m24.541 21.17l1.167 1.167c.624-.624 1.454-.968 2.337-.968.883 0 1.712.344 2.337.968l1.167-1.167c-.936-.936-2.18-1.451-3.504-1.451-1.324 0-2.568.515-3.504 1.451"/><path d="m28.04 22.994c-.429 0-.858.164-1.185.491-.011.011-.022.023-.033.035l1.218 1.222 1.221-1.218c-.012-.013-.024-.026-.036-.038-.327-.327-.756-.491-1.185-.491"/></g></g></svg>