<svg xmlns="http://www.w3.org/2000/svg" viewBox="0 0 48 48"><defs><linearGradient id="0" gradientUnits="userSpaceOnUse" x1="54.37" y1="20.12" x2="54.597" y2="-8.05"><stop stop-color="#7d19be"/><stop offset="1" stop-color="#b92ff5"/></linearGradient></defs><g transform="matrix(1.71427 0 0 1.71427-69.21 13.512)" enable-background="new"><circle r="14" cy="6.125" cx="54.37" fill="url(#0)"/><path d="m54.35-7.89c-1.768 0-3.45.337-5.01.929-.113.104-.26.184-.376.174-.016-.002-.032-.011-.049-.018-.766.321-1.494.714-2.183 1.159.09.145.116.307-.068.386-.031.012-.421.053-.557.05-1.961 1.425-3.533 3.341-4.539 5.577.016-.003.03-.001.047-.001.153-.003.372.041.519.072.135.028.244.119.361.127.332.025.412-.233.683-.378.28.039.466-.048.719-.02.172.02.297.203.431.214.113.011.212-.106.322-.089.106.017.289.248.307.378.022.162-.119.307-.072.485.169.172.477.207.719.307.158-.13.021-.371 0-.558-.003-.083.011-.156 0-.233-.014-.129-.07-.248-.07-.359-.003-.511.413-.751.756-.953.148-.088.265-.242.394-.307.182-.091.317-.112.468-.197.272-.153.506-.276.719-.449.098-.232.001-.543.018-.772.098-.06.183.026.287.018.164-.034.178-.266.271-.359.054-.053.202-.091.27-.144.164-.128.217-.322.36-.378.051-.021.17-.014.25-.036.106-.028.258-.154.431-.213.113-.039.372-.047.415-.09.053-.054-.0001-.206.018-.287.087-.406.698-.492 1.059-.628.253-.095.513-.272.791-.218-.055.193-.314.124-.27.359.061.325.496-.093.61-.141.219-.092.595-.149.883-.253.252-.092.704-.233.467-.521-.198-.011-.294.233-.467.307-.119.02-.096-.1-.198-.109-.097-.011-.151.089-.251.072-.099-.016-.238-.172-.253-.287-.039-.3.254-.424.378-.647-.083-.271-.458-.055-.684-.161.022-.162.189-.273.378-.304.155-.026.502-.012.594.069.053.046.004.159.09.234.092.083.204.074.323.055.042-.205-.266-.153-.233-.289.243-.159.638-.029.935-.072.171-.025.351-.146.502-.231.144-.082.332-.225.485-.09.041.147-.133.195-.215.268-.275.245-.558.525-.772.809.131.128.369.063.591.09.087.011.196.037.287.054.107.02.221.013.305.036.151.037.191.198.341.198.246 0 .249-.266.109-.433.044-.17.113-.258.054-.376-.111-.221-.517-.011-.538-.287-.013-.179.15-.171.215-.305-.03-.346.284-.371.25-.682-.014-.13-.124-.132-.215-.253-.046-.059-.069-.174-.122-.226-.419-.037-.843-.06-1.273-.06zm-7.232 2.828h.002c.084.011.185.102.286.11.095.003.175-.053.234-.037.15.039.214.267.072.378-.117.014-.163-.052-.252-.036-.244.041-.338.52-.52.504-.172-.014-.265-.434-.09-.558.011-.109-.08-.126-.074-.234.052-.066.199-.137.342-.126m-.809.056c.05.002.087.013.107.035-.024.192-.174.179-.322.268-.256.154-.403.389-.484.719-.024.095-.275.35-.397.324-.285-.06.079-.585.144-.665.072-.088.168-.166.253-.268.082-.099.136-.233.215-.287.087-.06.334-.132.485-.126m2.127.646c.091.002.173.017.211.054-.059.237-.57.175-.757.089.011-.089.152-.114.27-.126.083-.003.185-.02.276-.017m-1.163.438c.061-.002.122.011.186.029-.165.138-.344.217-.628.307-.137.043-.372.096-.396-.056-.028-.187.2-.143.324-.16.157-.022.329-.113.513-.119m17.848 1.065c-.022.052-.036.101-.034.151.011.087.106.17.127.287.011.062-.029.196 0 .253.087.168.313.048.475.056-.184-.253-.368-.507-.568-.747m.918 1.236c-.026.124-.11.285-.178.389-.157.238-.369.249-.594.376-.187.106-.268.283-.378.468-.119.2-.193.32-.144.609-.161.319-.404.514-.736.665-.098.044-.233.061-.323.126-.072.052-.113.19-.215.305-.126.14-.258.199-.324.307-.051.083-.069.248-.126.359-.077.151-.24.225-.341.378-.046.07-.077.214-.127.307-.114.207-.308.356-.287.538.021.176.22.207.234.36.003.087-.057.14-.054.234.003.138.096.235.107.341.027.267-.091.373-.141.556-.024.087-.013.185-.037.253-.045.134-.23.254-.234.412-.002.112.115.202.125.36.003.109-.054.225-.034.324.038.195.387.423.539.575.203.203.469.361.557.575.073.182.073.419.215.556.105.101.279.164.413.27.125.098.262.183.396.287.219.171.549.512.898.486.182-.012.368-.162.575-.198.212-.038.488-.058.702-.035.164.016.333.115.504.107.18-.011.387-.145.591-.234.165-.071.367-.151.589-.209.102-.684.156-1.384.156-2.097 0-2.87-.858-5.53-2.327-7.747m-23.18 4.71c-.299.017-.494.03-.664.107-.389.177-.314.702-.702.827-.134.043-.319.045-.467.072-.128.024-.283.093-.415.09-.037 0-.088-.028-.134-.042-.034.246-.063.495-.085.746.37.07.56.561.887.723.089.045.206.047.322.073.093.021.164.06.253.09.19.064.423.057.575.125.229.102.397.532.594.647.011.116-.023.272.018.359.093.126.224.098.378.181.183.099.24.354.413.433.06.027.21.023.305.052.238.072.316.348.52.287.134-.039.123-.177.145-.305.088-.095.185-.248.323-.25.223-.011.243.231.324.448.046.123.166.229.197.359.056.223.028.892-.02 1.025-.056.164-.278.233-.415.415-.064.085-.095.21-.144.27-.088.107-.219.135-.285.234-.037.056-.073.175-.11.25-.108.229-.252.391-.162.665.038.113.214.189.215.322.0001.156-.333.297-.359.468-.02.128.103.355.144.522.03.125.267.204.341.287.126.142.227.342.342.52.228.35.406.777.628 1.116.117.178.282.337.36.521.04.093.034.204.071.287.128.29.696.592.988.736.137.066.289.09.415.16.19.106.568.391.664.558.086.15.139.515.181.754.056.315.0001.558.018.899.011.185.07.37.072.556.0001.065-.034.113-.037.179 0 .001.004.023.004.034 1.765.799 3.721 1.254 5.791 1.254.374 0 .744-.02 1.11-.049.017-.028.031-.056.051-.082.085-.111.159-.208.215-.305.053-.328-.131-.557-.054-.844.086-.323.532-.52.845-.665.107-.05.218-.131.305-.161.216-.075.487-.034.684-.107.337-.123.372-.484.538-.791.079-.145.182-.291.197-.394.013-.093-.034-.18-.02-.29.016-.109.114-.202.144-.322.039-.156.056-.384.056-.557 0-.142-.066-.267-.072-.396-.024-.466.168-.518.341-.772.087-.126.119-.27.179-.36.29-.432.792-.64.756-1.293-.011-.216-.148-.704-.307-.773-.091-.039-.3-.003-.431-.054-.425-.158-.674-.685-1.114-.719-.094-.011-.18.038-.286.037-.174-.011-.437-.122-.63-.144-.123-.013-.286.036-.36 0-.112-.055-.124-.261-.215-.323-.072-.05-.213-.066-.323-.109-.177-.067-.317-.147-.521-.161-.063-.003-.142.03-.215.02-.113-.02-.202-.153-.307-.216-.131-.08-.251-.118-.305-.231.118-.387-.208-.495-.287-.719-.038-.105-.021-.231-.054-.324-.047-.134-.179-.211-.324-.323-.26-.2-.491-.388-.862-.434-.163-.021-.325.049-.523.037-.209-.012-.472-.196-.628-.375-.152-.175-.226-.331-.359-.415-.126-.081-.292-.079-.378-.16-.038-.036-.031-.096-.072-.181-.063-.131-.169-.203-.09-.36-.143-.074-.147.137-.304.109-.14-.198-.258-.292-.575-.234-.145.027-.226.21-.396.215-.139.011-.248-.155-.431-.181-.138-.02-.296.037-.394.019-.153-.031-.201-.158-.341-.25-.103-.067-.302-.183-.36-.181-.181.011-.309.384-.558.252-.121-.153.197-.234.054-.378-.109-.109-.2.05-.287.11-.1.069-.194.137-.304.178-.247.092-.401.044-.594.144-.179.092-.186.247-.287.431-.083.151-.271.37-.396.379-.151.011-.295-.211-.431-.27-.412-.178-.611.158-.953.163-.317.011-.77-.512-.754-.81.003-.182.105-.458.126-.683.02-.179.142-.287.144-.45.003-.218-.29-.386-.431-.412-.336-.062-.802.135-1.187-.02-.073-.122.086-.206.127-.324.024-.067.001-.157.034-.231.042-.114.163-.203.216-.324.039-.092.05-.226.09-.341.048-.131.134-.215.144-.307.012-.121-.032-.261-.127-.341zm4.804 3.804c.122.011.137.263.012.283-.134.021-.203-.211-.072-.271.022-.011.043-.011.06-.001v-.002" fill="#fff" fill-opacity=".391"/></g></svg>