<svg xmlns="http://www.w3.org/2000/svg" xmlns:xlink="http://www.w3.org/1999/xlink" viewBox="0 0 48 48"><defs><clipPath><path d="m-24 13c0 1.105-.672 2-1.5 2-.828 0-1.5-.895-1.5-2 0-1.105.672-2 1.5-2 .828 0 1.5.895 1.5 2" transform="matrix(15.33333 0 0 11.5 415-125.5)" fill="#1890d0"/></clipPath><clipPath><path fill="#1890d0" transform="matrix(15.33333 0 0 11.5 415-125.5)" d="m-24 13c0 1.105-.672 2-1.5 2-.828 0-1.5-.895-1.5-2 0-1.105.672-2 1.5-2 .828 0 1.5.895 1.5 2"/></clipPath><clipPath><path fill="#1890d0" transform="matrix(15.33333 0 0 11.5 415-125.5)" d="m-24 13c0 1.105-.672 2-1.5 2-.828 0-1.5-.895-1.5-2 0-1.105.672-2 1.5-2 .828 0 1.5.895 1.5 2"/></clipPath><clipPath><path d="m-24 13c0 1.105-.672 2-1.5 2-.828 0-1.5-.895-1.5-2 0-1.105.672-2 1.5-2 .828 0 1.5.895 1.5 2" transform="matrix(15.33333 0 0 11.5 415-125.5)" fill="#1890d0"/></clipPath><clipPath><path d="m-24 13c0 1.105-.672 2-1.5 2-.828 0-1.5-.895-1.5-2 0-1.105.672-2 1.5-2 .828 0 1.5.895 1.5 2" transform="matrix(15.33333 0 0 11.5 415-125.5)" fill="#1890d0"/></clipPath><clipPath><path transform="matrix(15.33333 0 0 11.5 415-125.5)" d="m-24 13c0 1.105-.672 2-1.5 2-.828 0-1.5-.895-1.5-2 0-1.105.672-2 1.5-2 .828 0 1.5.895 1.5 2" fill="#1890d0"/></clipPath><clipPath><path d="m-24 13c0 1.105-.672 2-1.5 2-.828 0-1.5-.895-1.5-2 0-1.105.672-2 1.5-2 .828 0 1.5.895 1.5 2" transform="matrix(15.33333 0 0 11.5 415-125.5)" fill="#1890d0"/></clipPath><clipPath><path d="m-24 13c0 1.105-.672 2-1.5 2-.828 0-1.5-.895-1.5-2 0-1.105.672-2 1.5-2 .828 0 1.5.895 1.5 2" transform="matrix(15.33333 0 0 11.5 415-125.5)" fill="#1890d0"/></clipPath><linearGradient gradientUnits="userSpaceOnUse" y2="517.3" x2="0" y1="546.3" xlink:href="#4"/><linearGradient gradientUnits="userSpaceOnUse" y1="545.62" x2="0" y2="517.62"><stop stop-color="#e3e3e3"/><stop offset="1" stop-color="#fcf9f9"/></linearGradient><linearGradient y2="545.81" x2="0" y1="515.24" gradientUnits="userSpaceOnUse" id="3" xlink:href="#4"/><linearGradient gradientUnits="userSpaceOnUse" y2="517.62" x2="0" y1="545.62" id="2"><stop stop-color="#d3d3d3"/><stop offset="1" stop-color="#fcf9f9"/></linearGradient><linearGradient gradientUnits="userSpaceOnUse" x2="47" x1="0"><stop stop-color="#a9a3d4"/><stop offset=".47" stop-color="#87baff"/><stop offset="1" stop-color="#89ec85"/></linearGradient><linearGradient gradientUnits="userSpaceOnUse" x2="11.758" x1="2.819" xlink:href="#0"/><linearGradient id="4"><stop stop-color="#00cafe"/><stop offset="1" stop-color="#1460f3"/></linearGradient><linearGradient gradientUnits="userSpaceOnUse" y2="517.22" x2="0" y1="545.22" id="1" xlink:href="#0"/><linearGradient id="0"><stop stop-color="#333538"/><stop offset="1" stop-color="#566069"/></linearGradient></defs><g transform="matrix(1.04348 0 0 1.04348-402.33-522.57)" stroke-width="1.317"><circle r="14" cy="531.8" cx="400.57" fill="url(#3)" stroke="url(#3)" stroke-width="1.3" transform="matrix(1.56997 0 0 1.56997-220.32-311.11)"/><path d="m391.84 540.91c-.421-.329-.949-.524-1.523-.524-1.351 0-2.451 1.084-2.485 2.435-1.395.526-2.388 1.88-2.388 3.466 0 1.874 1.385 3.423 3.182 3.667v.034h12.73v-.006c1.775-.104 3.182-1.584 3.182-3.395 0-1.747-1.309-3.186-2.994-3.379.007-.106.011-.214.011-.322 0-2.707-2.271-4.901-5.072-4.901-2.073 0-3.856 1.202-4.643 2.925" fill="#fff" fill-opacity=".847" transform="matrix(1.67588 0 0 1.68488-253.38-392.76)"/><path d="m-23.993 537.97l-42.14 24.329v-48.658z" transform="matrix(.16248 0 0 .1959 416.47 420.4)" fill="#0c8af7" fill-rule="evenodd" stroke="#0c8bf7" stroke-linejoin="round" stroke-linecap="round" stroke-width="4.792"/></g></svg>