<?xml version="1.0" encoding="UTF-8" standalone="no"?>
<!-- Created with Inkscape (http://www.inkscape.org/) -->

<svg
   xmlns:osb="http://www.openswatchbook.org/uri/2009/osb"
   xmlns:dc="http://purl.org/dc/elements/1.1/"
   xmlns:cc="http://creativecommons.org/ns#"
   xmlns:rdf="http://www.w3.org/1999/02/22-rdf-syntax-ns#"
   xmlns:svg="http://www.w3.org/2000/svg"
   xmlns="http://www.w3.org/2000/svg"
   xmlns:sodipodi="http://sodipodi.sourceforge.net/DTD/sodipodi-0.dtd"
   xmlns:inkscape="http://www.inkscape.org/namespaces/inkscape"
   version="1.1"
   id="svg2"
   width="256"
   height="256"
   viewBox="0 0 256 256"
   sodipodi:docname="nvidia.svg"
   inkscape:version="0.92.2pre0 (973e216, 2017-07-25)">
  <metadata
     id="metadata8">
    <rdf:RDF>
      <cc:Work
         rdf:about="">
        <dc:format>image/svg+xml</dc:format>
        <dc:type
           rdf:resource="http://purl.org/dc/dcmitype/StillImage" />
        <dc:title />
      </cc:Work>
    </rdf:RDF>
  </metadata>
  <defs
     id="defs6">
    <linearGradient
       id="linearGradient4207"
       osb:paint="gradient">
      <stop
         style="stop-color:#3498db;stop-opacity:1;"
         offset="0"
         id="stop3371" />
      <stop
         style="stop-color:#3498db;stop-opacity:0;"
         offset="1"
         id="stop3373" />
    </linearGradient>
    <linearGradient
       id="linearGradient4422">
      <stop
         id="stop4424"
         offset="0"
         style="stop-color:#197ff1;stop-opacity:1" />
      <stop
         id="stop4426"
         offset="1"
         style="stop-color:#21c6fb;stop-opacity:1" />
    </linearGradient>
    <linearGradient
       id="linearGradient4303">
      <stop
         id="stop4305"
         offset="0"
         style="stop-color:#c6cdd1;stop-opacity:1" />
      <stop
         id="stop4307"
         offset="1"
         style="stop-color:#f6f6f6;stop-opacity:1;" />
    </linearGradient>
    <linearGradient
       id="linearGradient3764"
       y1="47"
       x2="0"
       y2="1"
       gradientUnits="userSpaceOnUse">
      <stop
         style="stop-color:#83c87e;stop-opacity:1"
         id="stop7" />
      <stop
         offset="1"
         style="stop-color:#91ce8c;stop-opacity:1"
         id="stop9" />
    </linearGradient>
    <clipPath
       id="clipPath-323124572">
      <g
         transform="translate(0,-1004.3622)"
         id="g12">
        <path
           d="m -24 13 c 0 1.105 -0.672 2 -1.5 2 -0.828 0 -1.5 -0.895 -1.5 -2 0 -1.105 0.672 -2 1.5 -2 0.828 0 1.5 0.895 1.5 2 z"
           transform="matrix(15.333333,0,0,11.5,414.99999,878.8622)"
           style="fill:#1890d0"
           id="path14" />
      </g>
    </clipPath>
    <clipPath
       id="clipPath-333423643">
      <g
         transform="translate(0,-1004.3622)"
         id="g17">
        <path
           d="m -24 13 c 0 1.105 -0.672 2 -1.5 2 -0.828 0 -1.5 -0.895 -1.5 -2 0 -1.105 0.672 -2 1.5 -2 0.828 0 1.5 0.895 1.5 2 z"
           transform="matrix(15.333333,0,0,11.5,414.99999,878.8622)"
           style="fill:#1890d0"
           id="path19" />
      </g>
    </clipPath>
    <linearGradient
       gradientTransform="matrix(2.730216,0,2.1098073e-8,2.5984169,457.00461,86.251743)"
       gradientUnits="userSpaceOnUse"
       y2="-26.049999"
       x2="-125.19"
       y1="73.5"
       x1="-123.97"
       id="0">
      <stop
         stop-color="#5dae33"
         id="stop2" />
      <stop
         offset="1"
         stop-color="#9be058"
         id="stop4" />
    </linearGradient>
  </defs>
  <sodipodi:namedview
     pagecolor="#ffffff"
     bordercolor="#666666"
     borderopacity="1"
     objecttolerance="10"
     gridtolerance="10"
     guidetolerance="10"
     inkscape:pageopacity="0"
     inkscape:pageshadow="2"
     inkscape:window-width="1366"
     inkscape:window-height="704"
     id="namedview4"
     showgrid="false"
     inkscape:zoom="3.9961937"
     inkscape:cx="138.35826"
     inkscape:cy="253.39267"
     inkscape:window-x="0"
     inkscape:window-y="0"
     inkscape:window-maximized="1"
     inkscape:current-layer="g53" />
  <style
     type="text/css"
     id="style26">
	.specularity {opacity:0.5;}
	.low-specularity {opacity:0.25;}
	.full-specularity {opacity:1;}
	.black {fill:#000000;}
	.white {fill:#ffffff;}
	.outline-big {stroke-width:16;stroke:none;opacity:0.1;fill:none;}
	.outline-small {stroke-width:8;stroke:none;opacity:0.2;fill:none;}
	.stroke-highlight {fill:none;stroke:none;opacity:0.2;}
       	.base-shadow 	{fill:black;opacity:75;}
	</style>
  <style
     type="text/css"
     id="style26-7">
	.specularity {opacity:0.5;}
	.low-specularity {opacity:0.25;}
	.full-specularity {opacity:1;}
	.black {fill:#000000;}
	.white {fill:#ffffff;}
	.outline-big {stroke-width:16;stroke:none;opacity:0.1;fill:none;}
	.outline-small {stroke-width:8;stroke:none;opacity:0.2;fill:none;}
	.stroke-highlight {fill:none;stroke:none;opacity:0.2;}
       	.base-shadow 	{fill:black;opacity:75;}
	</style>
  <g
     id="g857"
     transform="matrix(0.95803662,0,0,0.9956208,6.0360346,1.0979791)">
    <g
       id="g53"
       transform="matrix(0.99114373,0.12695208,-0.13636895,0.95561335,16.139548,-9.9507973)">
      <rect
         y="15.010119"
         x="-21.513624"
         style="fill:url(#0);fill-rule:evenodd;stroke-width:5.480515"
         height="261.03812"
         width="265.10706"
         rx="16.469776"
         id="rect9"
         transform="matrix(0.99129071,-0.13169177,0.13630338,0.99066714,0,0)" />
      <path
         inkscape:connector-curvature="0"
         style="fill-opacity:0.703;stroke-width:5.49570799"
         d="m 52.119203,131.08278 c 0,0 14.214861,-28.5774 49.417717,-36.017827 l -1.30816,-9.507731 C 61.248306,93.94635 31.70174,131.75967 31.70174,131.75967 c 0,0 26.991394,53.14071 81.90589,51.03646 l -1.39087,-10.1091 C 71.749174,172.98242 52.119203,131.08278 52.119203,131.08278 m 57.331417,21.4999 1.27383,9.25851 c -30.797921,-1.34785 -43.456557,-31.39723 -43.456557,-31.39723 0,0 12.243782,-17.86177 35.885017,-23.63385 l 1.39759,10.15782 c -0.0143,0.002 -0.0264,0.002 -0.037,0.005 -12.788693,0.16579 -21.009476,13.18971 -21.009476,13.18971 0,0 8.244414,18.99599 25.954136,22.42458 M 97.822806,68.020196 100.23638,85.562083 c 1.14329,-0.24009 2.29351,-0.470274 3.44897,-0.662277 44.5944,-7.45794 79.03988,26.802424 79.03988,26.802424 0,0 -27.93609,45.10183 -62.86632,49.74227 -3.20287,0.42562 -6.23865,0.52557 -9.12063,0.40597 l 1.49079,10.83502 c 2.4507,-0.017 4.97189,-0.16937 7.5725,-0.51501 32.50487,-4.3182 53.73719,-23.99189 73.8013,-46.60523 4.18667,2.51103 20.64555,7.78839 24.2685,10.57839 -19.15742,20.93712 -67.59614,42.1896 -96.19189,45.98847 -2.75387,0.36579 -5.42688,0.54994 -8.06178,0.64625 l 2.09676,15.23943 L 239.26791,181.60388 221.37879,51.583609 97.825312,67.99753 Z m 5.337654,38.794794 -1.61598,-11.745142 c 1.13459,-0.222169 2.28015,-0.446113 3.45203,-0.640657 32.08148,-5.288072 57.15671,20.513539 57.15671,20.513539 0,0 -18.48129,34.64421 -42.95984,37.89614 -3.52044,0.46745 -6.75698,0.32406 -9.73517,-0.25111 l -4.90014,-35.61471 c 12.75108,-0.15404 16.03537,5.03574 25.29847,16.56488 l 14.8303,-16.32423 c 0,0 -14.44461,-14.38243 -35.1071,-11.63741 -2.24476,0.29801 -4.36932,0.74044 -6.44664,1.24257"
         id="path11" />
    </g>
  </g>
  <style
     id="style26-6"
     type="text/css">
	.specularity {opacity:0.5;}
	.low-specularity {opacity:0.25;}
	.full-specularity {opacity:1;}
	.black {fill:#000000;}
	.white {fill:#ffffff;}
	.outline-big {stroke-width:16;stroke:none;opacity:0.1;fill:none;}
	.outline-small {stroke-width:8;stroke:none;opacity:0.2;fill:none;}
	.stroke-highlight {fill:none;stroke:none;opacity:0.2;}
       	.base-shadow 	{fill:black;opacity:75;}
	</style>
  <style
     id="style26-7-2"
     type="text/css">
	.specularity {opacity:0.5;}
	.low-specularity {opacity:0.25;}
	.full-specularity {opacity:1;}
	.black {fill:#000000;}
	.white {fill:#ffffff;}
	.outline-big {stroke-width:16;stroke:none;opacity:0.1;fill:none;}
	.outline-small {stroke-width:8;stroke:none;opacity:0.2;fill:none;}
	.stroke-highlight {fill:none;stroke:none;opacity:0.2;}
       	.base-shadow 	{fill:black;opacity:75;}
	</style>
  <style
     id="style26-3"
     type="text/css">
	.specularity {opacity:0.5;}
	.low-specularity {opacity:0.25;}
	.full-specularity {opacity:1;}
	.black {fill:#000000;}
	.white {fill:#ffffff;}
	.outline-big {stroke-width:16;stroke:none;opacity:0.1;fill:none;}
	.outline-small {stroke-width:8;stroke:none;opacity:0.2;fill:none;}
	.stroke-highlight {fill:none;stroke:none;opacity:0.2;}
       	.base-shadow 	{fill:black;opacity:75;}
	</style>
  <style
     id="style26-7-6"
     type="text/css">
	.specularity {opacity:0.5;}
	.low-specularity {opacity:0.25;}
	.full-specularity {opacity:1;}
	.black {fill:#000000;}
	.white {fill:#ffffff;}
	.outline-big {stroke-width:16;stroke:none;opacity:0.1;fill:none;}
	.outline-small {stroke-width:8;stroke:none;opacity:0.2;fill:none;}
	.stroke-highlight {fill:none;stroke:none;opacity:0.2;}
       	.base-shadow 	{fill:black;opacity:75;}
	</style>
</svg>
