<svg xmlns="http://www.w3.org/2000/svg" viewBox="0 0 48 48"><defs><linearGradient id="0" x1="25.422" y1="46.78" x2="24.21" y2="1.627" gradientUnits="userSpaceOnUse"><stop stop-color="#f15f19"/><stop stop-color="#fbb521" offset="1"/></linearGradient></defs><path d="m2.98-.002h42.04c1.652 0 2.982 1.33 2.982 2.982v42.04c0 1.652-1.33 2.982-2.982 2.982h-42.04c-1.652 0-2.982-1.33-2.982-2.982v-42.04c0-1.652 1.33-2.982 2.982-2.982" fill="url(#0)" fill-rule="evenodd"/><g transform="matrix(1.6004 0 0 1.6004 32 12.795)" fill-opacity=".524"><path d="m1.36 14.537c-.226 0-.452-.086-.623-.259-.345-.345-.345-.903 0-1.248 1.61-1.61 2.497-3.752 2.497-6.03 0-2.279-.887-4.419-2.497-6.03-.345-.345-.345-.903 0-1.248.345-.345.903-.345 1.248 0 1.944 1.944 3.01 4.529 3.01 7.278 0 2.749-1.07 5.333-3.01 7.278-.172.172-.398.259-.623.259"/><path d="m-1.773 12.874c-.226 0-.452-.086-.623-.259-.345-.345-.345-.903 0-1.248 2.408-2.408 2.408-6.326 0-8.734-.345-.345-.345-.903 0-1.248.345-.345.903-.345 1.248 0 1.5 1.5 2.326 3.494 2.326 5.615 0 2.121-.826 4.115-2.326 5.615-.172.172-.398.259-.623.259z"/><path d="m-4.908 11.209c-.226 0-.452-.086-.623-.259-.345-.345-.345-.903 0-1.248 1.49-1.49 1.49-3.916 0-5.406-.345-.345-.345-.903 0-1.248.345-.345.903-.345 1.248 0 2.179 2.179 2.179 5.723 0 7.903-.172.172-.398.259-.623.259z"/><path d="m-7.353 15.235c-.153 0-.303-.06-.416-.172l-4.534-4.534h-2.109c-.325 0-.588-.263-.588-.588v-5.882c0-.325.263-.588.588-.588h2.109l4.534-4.534c.168-.168.421-.219.641-.127.22.092.363.306.363.543v15.292c0 .238-.144.453-.363.543-.073.031-.149.045-.225.045"/></g></svg>