<svg xmlns="http://www.w3.org/2000/svg" xmlns:xlink="http://www.w3.org/1999/xlink" viewBox="0 0 48 48"><defs><clipPath><path transform="matrix(15.33333 0 0 11.5 415-125.5)" d="m-24 13c0 1.105-.672 2-1.5 2-.828 0-1.5-.895-1.5-2 0-1.105.672-2 1.5-2 .828 0 1.5.895 1.5 2" fill="#1890d0"/></clipPath><linearGradient xlink:href="#1" id="2" x1="24.17" y1="48.25" x2="23.465" y2=".217" gradientUnits="userSpaceOnUse"/><linearGradient xlink:href="#1" id="0" gradientUnits="userSpaceOnUse" x1="24.61" y1="47.593" x2="23.593" y2="-.203"/><linearGradient id="1"><stop stop-color="#ff433a"/><stop stop-color="#ff9436" offset="1"/></linearGradient></defs><rect height="48" width="48" rx="2.982" fill="url(#0)" fill-rule="evenodd"/><g transform="matrix(.91583 0 0 .91583-19.804.914)" stroke-linejoin="round" stroke-linecap="round"><path d="m66.57627 24.677818a16 16 0 0 1 -16 16 16 16 0 0 1 -16 -16 16 16 0 0 1 16 -16 16 16 0 0 1 16 16z" fill="none" stroke="#ffe8e1" fill-opacity=".524" stroke-width="4"/><path d="m34.37 8.648c-.733 0-1.324.59-1.324 1.322v6.514c0 .733.592 1.322 1.324 1.322h6.512c.733 0 1.322-.59 1.322-1.322v-6.514c0-.733-.59-1.322-1.322-1.322h-6.512zm-27.514 6.068c-1.026 0-1.852.826-1.852 1.852v9.119c0 1.026.826 1.852 1.852 1.852h9.119c1.026 0 1.852-.826 1.852-1.852v-9.119c0-1.026-.826-1.852-1.852-1.852h-9.119zm23.641 15.264c-.879 0-1.588.707-1.588 1.586v7.816c0 .879.709 1.588 1.588 1.588h7.816c.879 0 1.586-.709 1.586-1.588v-7.816c0-.879-.707-1.586-1.586-1.586h-7.816z" transform="matrix(1.0919 0 0 1.0919 21.624-.998)" fill="#ffe8e1" stroke="url(#2)"/></g></svg>