<svg xmlns="http://www.w3.org/2000/svg" viewBox="0 0 48 48"><defs><linearGradient id="0" gradientUnits="userSpaceOnUse" y1="47.529" x2="0" y2="-1.269"><stop stop-color="#00a661"/><stop offset="1" stop-color="#37ce97"/></linearGradient></defs><g transform="matrix(.99999 0 0 .99999-3.371.722)" enable-background="new"><circle r="24" cy="23.285" cx="27.373" fill="url(#0)"/><path d="m33.702043 21.572a2.25 2.25 0 0 1 -2.25 2.25 2.25 2.25 0 0 1 -2.25 -2.25 2.25 2.25 0 0 1 2.25 -2.25 2.25 2.25 0 0 1 2.25 2.25m-8.189815.000445a2.25 2.25 0 0 1 -2.25 2.25 2.25 2.25 0 0 1 -2.25 -2.25 2.25 2.25 0 0 1 2.25 -2.25 2.25 2.25 0 0 1 2.25 2.25m11.918 13.395c.004-.005.007-.001.011-.016.003-.005.007-.001.001-.016.003-.005.006-.011.009-.016.003-.005.005-.011.008-.017.002-.005.005-.011.007-.017.002-.006.004-.011.006-.017.002-.006.004-.012.005-.017.002-.006.003-.012.005-.018.0001-.006.002-.012.004-.018.0001-.006.002-.013.003-.019.0001-.006.0001-.011.002-.017.0001-.007.0001-.014.0001-.021 0-.003 0-.006 0-.001v-13.5c0-2.704-1.053-5.247-2.966-7.159-1.912-1.912-4.455-2.966-7.159-2.966-2.704 0-5.247 1.053-7.16 2.966-1.912 1.912-2.966 4.455-2.966 7.159v13.5c0 .003 0 .006 0 .001 0 .007 0 .014.0001.021 0 .006.0001.011.002.017.0001.006.002.013.003.019.0001.006.002.012.004.018.0001.006.003.012.005.018.002.006.003.012.005.017.002.006.004.012.006.017.002.006.005.011.007.017.003.006.005.011.008.017.003.005.006.011.009.016.003.005.006.001.009.016.003.005.007.011.011.016.003.005.007.009.001.014.004.005.009.011.013.016.002.002.004.005.006.007.002.002.003.003.005.005.005.005.011.011.016.016.004.004.008.007.012.011.005.005.011.009.017.013.005.003.009.007.014.001.006.004.012.007.017.011.005.003.009.006.014.009.007.004.014.007.021.001.004.002.008.004.012.006.034.015.071.024.109.028.008.0001.016.0001.024.0001.005 0 .009.0001.013.0001.012 0 .024-.0001.036-.002.005 0 .009-.0001.013-.002.007-.0001.015-.002.022-.003.005-.0001.001-.002.016-.004.006-.002.013-.003.019-.005.005-.002.001-.003.016-.005.006-.002.012-.004.018-.007.005-.002.001-.004.015-.007.006-.003.012-.005.017-.008.005-.002.001-.005.014-.008.006-.003.011-.006.016-.001.005-.003.001-.007.014-.001.005-.004.001-.007.015-.011.005-.004.009-.008.014-.012.003-.002.005-.004.008-.007l2.182-2.02 2.182 2.02c.144.133.365.133.509 0l2.182-2.02 2.183 2.02c.144.133.365.133.509 0l2.182-2.02 2.184 2.02c.144.132.365.133.508 0l2.186-2.02 2.186 2.02c.002.002.005.004.008.006.005.005.001.009.016.013.005.004.009.007.014.011.005.004.001.007.016.011.005.003.001.006.016.001.005.003.011.006.016.009.005.003.011.005.017.008.005.002.011.005.017.007.006.002.011.004.017.006.006.002.012.004.018.005.006.002.012.003.018.005.006.0001.012.003.018.004.006.0001.012.002.019.003.006.0001.012.0001.018.002.007.0001.013.0001.02.0001.003 0 .007.0001.001.0001.002 0 .005 0 .008 0 .007 0 .013-.0001.019-.0001.006 0 .012-.0001.018-.002.006-.0001.011-.002.017-.003.007-.0001.013-.002.019-.004.005-.0001.001-.003.016-.004.007-.002.013-.004.02-.006.005-.002.001-.004.015-.006.006-.002.012-.005.018-.007.005-.002.011-.005.016-.008.005-.003.011-.005.016-.008.005-.003.011-.006.016-.001.005-.003.001-.006.015-.001.005-.004.001-.007.015-.011.005-.004.001-.008.014-.012.004-.004.009-.008.013-.012.005-.005.001-.009.014-.014.002-.002.004-.003.005-.005.002-.002.004-.005.006-.008.005-.005.009-.001.013-.016.004-.005.007-.009.011-.014" fill="#fff" fill-opacity=".852"/></g></svg>