<svg xmlns="http://www.w3.org/2000/svg" viewBox="0 0 48 48"><defs><linearGradient gradientTransform="matrix(-.55335 0 0 .60252 156.8-274.91)" gradientUnits="userSpaceOnUse" y2="507.87" x2="0" y1="546.8" id="0"><stop stop-color="#d3d3d3"/><stop offset="1" stop-color="#fcf9f9"/></linearGradient><linearGradient id="1" gradientUnits="userSpaceOnUse" x1="-61.22" y1="55.24" x2="-61.43" y2="8.868"><stop stop-color="#00a661"/><stop stop-color="#37ce97" offset="1"/></linearGradient></defs><g transform="translate(85.42-8.339)"><path d="m-44.5 16.375c-4.526-3.683-10.535-5.711-16.921-5.711-6.386 0-12.395 2.028-16.921 5.711-4.565 3.715-7.079 8.666-7.079 13.943 0 5.04 2.291 9.775 6.469 13.426-.075.17-.135.348-.173.535l-1.373 6.752c-.163.802.057 1.281.269 1.541.246.3.61.466 1.025.466.314 0 .651-.093 1-.276l7.985-4.148c2.764.89 5.736 1.357 8.791 1.357 6.386 0 12.395-2.028 16.921-5.711 4.565-3.715 7.079-8.666 7.079-13.943 0-5.276-2.514-10.227-7.079-13.943" fill="url(#1)"/><path d="m-58.21 34.05c2.263-2.01 5.268-3.11 8.461-3.11 3.193 0 6.197 1.104 8.461 3.11 2.283 2.022 3.54 4.718 3.54 7.59 0 2.742-1.146 5.321-3.235 7.309.038.093.067.189.087.291l.686 3.676c.082.437-.028.698-.135.839-.123.164-.305.253-.513.253-.157 0-.326-.051-.501-.15l-3.992-2.258c-1.382.484-2.868.739-4.397.739-3.193 0-6.197-1.104-8.461-3.11-2.283-2.022-3.54-4.718-3.54-7.59 0-2.872 1.257-5.568 3.54-7.59" fill="url(#0)"/><g fill="#11b271"><circle cx="-54.745" cy="41.625" r="2.18"/><circle cx="-49.777" cy="41.625" r="2.18"/><circle cx="-44.557" cy="41.625" r="2.18"/></g></g></svg>