<svg xmlns="http://www.w3.org/2000/svg" viewBox="0 0 48 48"><defs><clipPath><path fill="#1890d0" transform="matrix(15.33333 0 0 11.5 415-125.5)" d="m-24 13c0 1.105-.672 2-1.5 2-.828 0-1.5-.895-1.5-2 0-1.105.672-2 1.5-2 .828 0 1.5.895 1.5 2"/></clipPath><clipPath><path fill="#1890d0" transform="matrix(15.33333 0 0 11.5 415-125.5)" d="m-24 13c0 1.105-.672 2-1.5 2-.828 0-1.5-.895-1.5-2 0-1.105.672-2 1.5-2 .828 0 1.5.895 1.5 2"/></clipPath><clipPath id="1"><path transform="matrix(15.33333 0 0 11.5 415-125.5)" d="m-24 13c0 1.105-.672 2-1.5 2-.828 0-1.5-.895-1.5-2 0-1.105.672-2 1.5-2 .828 0 1.5.895 1.5 2" fill="#1890d0"/></clipPath><clipPath><path d="m-24 13c0 1.105-.672 2-1.5 2-.828 0-1.5-.895-1.5-2 0-1.105.672-2 1.5-2 .828 0 1.5.895 1.5 2" transform="matrix(15.33333 0 0 11.5 415-125.5)" fill="#1890d0"/></clipPath><clipPath><path d="m-24 13c0 1.105-.672 2-1.5 2-.828 0-1.5-.895-1.5-2 0-1.105.672-2 1.5-2 .828 0 1.5.895 1.5 2" transform="matrix(15.33333 0 0 11.5 415-125.5)" fill="#1890d0"/></clipPath><linearGradient x1="0" x2="47" gradientUnits="userSpaceOnUse"><stop stop-color="#a9a3d4"/><stop offset=".47" stop-color="#87baff"/><stop offset="1" stop-color="#89ec85"/></linearGradient><linearGradient id="0" y1="1045.87" x2="0" y2="1006.87" gradientUnits="userSpaceOnUse"><stop stop-color="#d3d3d3"/><stop offset="1" stop-color="#fcf9f9"/></linearGradient></defs><g transform="matrix(1.2 0 0 1.2 3.138-1208.24)" stroke-width="1.317"><circle cx="17.387" cy="1026.87" r="20" fill="url(#0)"/><g clip-path="url(#1)" stroke-width=".941" transform="matrix(.88564 0 0 .88564-3.873 1006.51)" fill="#363636" stroke="#363636" stroke-linejoin="round" stroke-linecap="round"><g stroke-width=".941"><path d="m36.18 16c-1.582-.023-3.086.391-4.379 1.133-1.012-.57-2.164-.941-3.398-1.059-1.699-.156-3.328.191-4.738.922-.016.008-.031.016-.043.023-.035.027-.059.07-.059.117 0 .082.066.141.145.141.008 0 .02 0 .027 0 .004 0 .008-.004.008-.004.762-.137 1.551-.176 2.359-.102 2.258.211 4.23.906 5.613 2.461.07.074.133.066.203-.004 1.742-1.996 4.406-2.789 7.27-2.52.16.016.32.031.477.059.055.008.141.02.191.023.094.012.145-.063.145-.141 0-.063-.023-.105-.078-.129-.055-.027-.109-.063-.164-.082-.887-.43-1.863-.699-2.898-.809-.227-.02-.457-.039-.684-.043"/><path d="m30.938 22.84c-3.191 0-6.141 1.012-8.555 2.711-1.844-.82-3.883-1.277-6.03-1.277-3.055 0-5.887.922-8.242 2.5-.004.004-.016.012-.02.016-.055.039-.082.098-.082.168 0 .121.098.219.215.219.016 0 .031-.004.043-.004.012 0 .02-.004.023-.008 1.352-.406 2.785-.621 4.27-.621 3.934 0 7.449.926 10.09 3.391.008.004.016.012.023.016.039.035.086.047.145.047.066 0 .125-.02.164-.07 0 0 .086-.113.129-.18 2.691-3.641 7.121-5.438 12.04-5.438.352 0 .703.008 1.051.035.098.004.313.023.316.023.117 0 .215-.098.215-.219 0-.086-.051-.156-.125-.188-.008-.004-.016-.008-.023-.012-1.742-.711-3.641-1.113-5.633-1.113"/></g></g></g></svg>