<svg xmlns="http://www.w3.org/2000/svg" viewBox="0 0 48 48"><defs><linearGradient id="0" y1="1045.87" x2="0" y2="1006.87" gradientUnits="userSpaceOnUse"><stop stop-color="#d3d3d3"/><stop offset="1" stop-color="#fcf9f9"/></linearGradient><linearGradient x1="0" x2="47" gradientUnits="userSpaceOnUse"><stop stop-color="#a9a3d4"/><stop offset=".47" stop-color="#87baff"/><stop offset="1" stop-color="#89ec85"/></linearGradient><linearGradient y2="36.609" x2="56.818" y1="81.49" x1="56.58" gradientUnits="userSpaceOnUse" id="1"><stop stop-color="#00a661"/><stop stop-color="#37ce97" offset="1"/></linearGradient></defs><g transform="matrix(1.2 0 0 1.2 3.138-1208.24)" stroke-width="1.317"><circle cx="17.387" cy="1026.87" r="20" fill="url(#0)"/><path d="m57.04 40.05c-2.052 0-4.03.33-5.881.937v17.882c0 3.248 2.633 5.881 5.881 5.881 3.248 0 5.881-2.633 5.881-5.881 0-3.248-2.633-5.881-5.881-5.881v-5.881c6.496 0 11.762 5.266 11.762 11.762 0 6.496-5.266 11.762-11.762 11.762-6.496 0-11.762-5.266-11.762-11.762v-14.684c-4.299 3.449-7.06 8.743-7.06 14.684 0 10.393 8.425 18.819 18.819 18.819 10.393 0 18.819-8.425 18.819-18.819 0-10.393-8.425-18.819-18.819-18.819" fill="url(#1)" stroke="none" color="#000" transform="matrix(.88564 0 0 .88564-33.13 974.73)" stroke-linejoin="round" stroke-linecap="round" stroke-width=".941"/></g></svg>