<svg xmlns="http://www.w3.org/2000/svg" viewBox="0 0 48 48"><defs><linearGradient id="0" x1="-12.713" y1="50.752" x2="-14.344" y2="5.074" gradientUnits="userSpaceOnUse"><stop stop-color="#00a661"/><stop offset="1" stop-color="#37ce97"/></linearGradient></defs><g transform="matrix(.99999 0 0 .99999 41.629-4.118)" enable-background="new"><circle r="24" cy="28.12" cx="-17.625" fill="url(#0)"/><path d="m-18.29 43.598c-.913-.37-1.394-1.761-1.054-3.053.192-.718.021-.832-.571-.408-.192.135-.986.473-1.781.75-1.977.697-3.815.721-4.936.073-1.414-.827-1.933-2.254-1.561-4.362.11-.611.248-1.255.31-1.431.069-.171-.237.021-.673.432-.848.803-1.411 1.039-2.079.864-1.219-.318-1.52-2.743-.611-4.944.302-.734.302-.766-.008-1.161-.934-1.202-.791-2.797.453-5.063.851-1.544.892-1.61 1.027-1.463.053.053-.094.415-.33.803-.505.844-1.215 2.555-1.373 3.37-.192.892.171 1.627.791 1.627.278 0 .729-.126 1.011-.278.505-.273 2.262-1.826 4.067-3.603l.934-.917-.595-.518c-.327-.285-1.362-1.06-2.295-1.724-1.871-1.328-2.128-1.717-1.863-2.829.147-.62.273-.725 1.818-1.544l1.655-.872-.355-.395c-.269-.297-.327-.522-.24-.926.062-.293.203-.611.314-.71.652-.562 7.336-3.02 7.565-2.78.188.192-.203.391-2.087 1.064-2.087.746-5.205 2.022-5.414 2.217-.073.069.004.395.171.729.167.33.314.624.327.656.017.028 1.043-.31 2.299-.75 2.951-1.039 6.766-2.05 7.736-2.05.595 0 .864.102 1.202.453.367.387.415.55.318 1.109-.139.759-.71 1.598-1.691 2.487-.383.342-1.223 1.186-1.867 1.875l-1.174 1.251.436-.885c.522-1.064 1.206-1.847 2.633-3 .583-.473 1.064-.966 1.064-1.101 0-.526-.665-.945-1.492-.945-1.683 0-6.652 1.525-10.337 3.175-2.698 1.206-2.752 1.272-1.602 1.875 1.084.575 4.373 2.666 4.79 3.049.265.244.379.233 1.17-.11.485-.208.99-.379 1.129-.379.188 0 .229-.122.147-.485-.057-.269-.212-1.166-.342-1.993-.13-.827-.282-1.704-.338-1.944-.053-.244-.041-.721.032-1.06l.13-.616.631 1.056c.673 1.121.848 1.732.375 1.325-.415-.355-.494-.066-.293 1.067.278 1.537.534 1.981 1.447 2.482.868.473 1.056.778.885 1.467-.102.415-.122.424-.603.179-.583-.302-2.177-.363-2.63-.102-.278.163-.22.248.509.778.453.33 1.749 1.283 2.882 2.128 2.02 1.508 2.063 1.529 2.119 1.072.028-.257-.028-2.205-.13-4.333-.159-3.244-.147-3.937.053-4.341l.237-.469.289.701c.994 2.442 1.133 3.212.419 2.369l-.355-.424.098 2.743c.057 1.508.151 3.244.208 3.86.102 1.072.13 1.129.754 1.459.774.412 1.321.436 2.115.09.575-.248.591-.285.591-1.247 0-.543-.11-2.119-.244-3.505-.135-1.382-.33-3.791-.436-5.348-.106-1.557-.261-3.534-.342-4.39-.102-1.06-.094-1.712.032-2.038.179-.464.199-.44.836.941.363.778.656 1.574.656 1.769-.004.306-.057.285-.436-.179l-.432-.53.098 1.15c.053.635.293 3.44.534 6.237.55 6.457.415 7.638-.97 8.39-.526.282-1.463.278-2.335-.021-.342-.114-.387-.09-.306.199.053.184.143 1.21.203 2.283.118 2.02-.081 4.243-.473 5.228-.184.477-.212.203-.212-2.074 0-1.443-.066-3.481-.147-4.529l-.143-1.907-1.161-.926c-.64-.509-1.933-1.553-2.878-2.315-.941-.759-1.717-1.333-1.717-1.28 0 .053.248.554.55 1.109.415.77.546 1.219.543 1.899-.008 1.691-.729 2.482-2.743 3.01-1.333.346-2.857 1.121-3.571 1.818-.958.93-1.161 3.445-.387 4.753.864 1.459 3.46 1.847 5.923.892 2.193-.851 4.112-2.168 4.112-2.825 0-.22-.314-1.264-.693-2.32-.554-1.529-.673-2.055-.579-2.555l.114-.635.746.885c.823.982.921 1.231.412 1.064-.387-.126-.419.032-.151.742.872 2.286.738 3.501-.534 4.732-.889.86-1.191 1.589-1.195 2.861 0 .795.379 1.313.975 1.313.543 0 1.663-.95 2.767-2.36 1.219-1.549 2.02-2.156 3.832-2.955.754-.33 1.426-.656 1.508-.725.081-.069.163-.673.184-1.337.045-1.333.375-2.193 1.023-2.633.314-.212.489-.237.754-.086.327.175.697 1.146.697 1.794.004.673-.579 2.059-1.043 2.491l-.501.464.379.37c.494.469.881.469 1.805.008.464-.24.77-.522.836-.791.053-.229.021-1.875-.086-3.656-.167-2.89-.815-13.533-.892-14.661-.021-.244.024-.714.102-1.039.159-.718.22-.64.958 1.191.562 1.394.554 1.753-.017 1.067l-.363-.424.102 1.328c.049.729.175 2.6.273 4.161.098 1.557.216 3.03.257 3.273.216 1.304.282 7.422.081 8.41-.33 1.675-1.358 2.747-2.609 2.747-.449 0-1.039-.587-1.215-1.198-.154-.53-.338-.509-1.997.253-1.858.856-2.979 1.732-4.146 3.248-1.28 1.672-1.957 2.087-2.805 1.745m9.877-7.529c.457-.4.522-.558.436-1.01-.154-.819-.571-1.21-1.015-.97-.526.289-.628.513-.513 1.206.224 1.431.285 1.475 1.093.77m-21.01-1.06c.367-.253 1.161-.958 1.773-1.569 1.321-1.317 2.311-1.871 4.48-2.495 1.557-.449 2.324-.905 2.324-1.37 0-.436-1.259-2.417-2.055-3.233l-.819-.844-.477.33c-.261.175-1.28 1.105-2.275 2.059-2.246 2.173-2.996 2.767-3.673 2.906-.473.094-.583.237-.917 1.191-.44 1.255-.53 2.763-.188 3.196.342.428 1.072.359 1.826-.171m.693-2.132c-.208-.216-.118-1.414.151-2.087.147-.367.302-.628.342-.583.041.045-.049.391-.199.774-.154.379-.265.721-.253.759.017.037.11.233.212.432.184.351.196.351.419.028.285-.404.302-.257.037.346-.192.44-.481.575-.71.334m3.03-3.09c-.282-.22-.534-.415-.567-.44-.106-.077.526-.954.689-.954.094 0 .383.159.648.355l.477.355.334-.477c.33-.469.342-.473.791-.167.616.419.697.721.327 1.231l-.31.428-1.101-.872-.783.945-.505-.4m11.286 13.533c.449-.673.498-1.161.098-1-.233.094-.244.053-.077-.273.408-.795.872-.199.526.673-.114.285-.367.661-.562.84-.346.314-.346.306.017-.237m3-.979c-.229-.501-.485-.787-.766-.856-.481-.114-.729-1.06-.278-1.06.265 0 1.304 1.133 1.304 1.422 0 .094.077.171.171.171.094 0 .171-.184.171-.404 0-.432.587-1.544.811-1.544.273 0 .55.432.55.856 0 .424-.008.428-.346.11-.44-.415-.587-.257-.97 1.031l-.302 1.019m-18.562-4.407c.342-.697.342-1.093-.008-1.093-.224 0-.237-.049-.066-.265.24-.306.616-.346.762-.09.126.208-.473 1.672-.759 1.854-.126.081-.098-.081.066-.408m4.157-.693c-.13-.355-.13-.754.004-1.451.102-.526.154-.994.11-1.039-.041-.041-.346.09-.676.289-.457.285-.603.314-.603.122 0-.135.705-.669 1.569-1.191 1.912-1.15 1.858-1.125 1.728-.774-.057.159-.428.481-.823.725-.543.33-.766.607-.917 1.121-.248.86-.248 1.362-.004 1.839.188.363.196.363.428.041.273-.391.289-.282.066.346-.216.595-.644.579-.881-.032m3.01-1.353c-.457-.379-.485-.46-.302-.885.24-.546.489-.575 1.064-.118.359.289.395.404.248.823-.22.648-.408.68-1.011.179m2.457-.13c-.237-.449-.081-1.651.282-2.279l.257-.445-.102.445c-.282 1.191-.293 1.602-.077 1.871.203.261.244.257.445-.032.265-.375.285-.257.057.363-.196.55-.599.591-.86.077m6.489-.53c.094-.184.257-.334.359-.334.106 0 .057-.154-.11-.351-.285-.327-.289-.375-.024-.791.375-.599 1.06-1.043 1.394-.913.412.167.175.558-.306.501-.237-.024-.526.077-.648.233-.359.449.057.693 1.109.648.77-.032.913.008.832.229-.057.147-.265.269-.464.273-.196 0-.803.192-1.337.419-.892.383-.962.391-.803.086m9.485-1.7c.032-1.125-.066-4.166-.22-6.759-.359-6.02-.375-6.877-.151-7.112.135-.135.359.244.807 1.353.635 1.582.673 2.097.094 1.313l-.322-.44-.004.71c0 .387.11 2.299.248 4.247.327 4.557.322 6.518-.004 7.663-.143.501-.314.945-.383.986-.066.045-.094-.84-.066-1.961m-18.685-.171c.004-.081.571-.611 1.264-1.182.693-.575 1.508-1.313 1.818-1.642.489-.526.534-.652.355-.95-.282-.464-.265-.97.041-1.231.346-.302.603-.077.603.526 0 .278.073.558.167.62.31.196.196.648-.135.543-.212-.069-.391.057-.603.428-.379.673-3.526 3.257-3.509 2.894m3.823-4.48c-.057-.102-.179-.184-.265-.184-.09 0-.159.081-.159.184 0 .094.118.175.265.175.143 0 .216-.081.159-.175m7.529 3.151c.55-.285.473-.554-.126-.464-.571.09-.673-.11-.196-.379.334-.184 1.557-.057 1.557.163 0 .244-.603.665-1.109.77-.464.098-.477.09-.13-.09m-21.498-1.283c.513-.913.53-.986.188-.986-.327 0-.33-.248-.008-.526.302-.261.603-.098.603.322 0 .322-.937 1.973-1.121 1.973-.057 0 .098-.355.338-.783m23.1-.159l-.379-.415.367-.485.367-.481.807.791.436-.424c.457-.449.795-.375 1.17.24.139.229.094.383-.192.676l-.367.379-.494-.367-.501-.37-.412.44-.424.436m.151-3.84c-.021-.941-.086-1.753-.139-1.814-.057-.057-.404.077-.77.297-.926.554-.844.24.098-.379.595-.391.746-.587.689-.885-.041-.212-.118-1.259-.175-2.331-.057-1.067-.175-3.09-.265-4.484-.154-2.376-.106-3.395.151-3.391.11.004.901 1.854 1.133 2.654.126.445.126.445-.237.106-.199-.188-.391-.306-.428-.265-.032.041.004.868.081 1.843.081.979.192 2.527.248 3.457.135 2.177.163 2.258.591 1.85.306-.282.314-.351.081-.616-.147-.163-.257-.412-.257-.562 0-.355.611-.921.84-.774.216.143.199 1.867-.017 1.867-.09 0-.342.22-.571.494-.346.408-.415.673-.415 1.667-.008 1.166-.314 2.976-.505 2.976-.053 0-.114-.766-.135-1.708m1.549-4.578c-.11-.282-.404-.37-.404-.118 0 .188.188.383.363.383.073 0 .094-.118.037-.265m4.948 5.91c-.33-.538.192-3.167.62-3.167.077 0-.008.338-.188.754-.37.84-.415 1.328-.163 1.724.151.237.188.237.334 0 .208-.342.22-.147.008.432-.175.481-.419.583-.611.257m-11.148-1.142c-.09-.253-.159-.526-.159-.616 0-.293.714-2.144.799-2.059.041.045-.053.477-.22.954-.318.934-.233 1.569.192 1.398.306-.118.338.261.049.562-.306.318-.469.261-.652-.24m-3.905-1.309c-.203-.4.192-1.867.628-2.311.233-.237.237-.22.049.159-.391.795-.513 1.484-.31 1.741.159.196.22.199.334.013.11-.175.143-.167.143.045.004.289-.314.701-.534.701-.073 0-.212-.154-.31-.346m-10.642-.257c-.261-.408-.261-.518-.017-1.382.151-.518.346-1.056.44-1.202.224-.355.212-.237-.073.738-.33 1.146-.13 1.883.375 1.362.143-.151.171-.106.098.171-.171.68-.513.811-.823.318m-4.85-.975c0-.094.359-.383.799-.652.44-.265 1.129-.803 1.537-1.195.71-.68.725-.718.44-1.043-.269-.306-.273-.383-.041-.811.143-.261.387-.498.55-.534.229-.045.289.073.289.567 0 .342.077.669.171.729.273.179.196.652-.098.591-.147-.032-.644.318-1.101.774-.819.823-2.547 1.892-2.547 1.578m3.167-3.693c-.171-.179-.314.094-.171.33.106.184.147.184.203 0 .037-.122.024-.269-.032-.33m-1.858 1.251c-.179-.184-.135-1.088.053-1.21.098-.062.171.094.171.367 0 .4.041.44.257.253.139-.122.253-.143.253-.049 0 .253-.603.778-.734.64m7.888-1.288c-.199-.505-.851-1.264-.851-.99 0 .077-.118.041-.257-.081-.342-.293-.327-.885.021-.885.151 0 .526.285.836.635l.558.635.199-.986c.216-1.101.457-1.382.783-.917.261.37.122.934-.154.644-.334-.351-.412-.199-.53 1.043-.13 1.398-.302 1.651-.603.901m9.877-1.056c-.199-.391-.037-1.484.314-2.066.184-.302.199-.293.077.102-.237.819-.171 1.508.139 1.484.22-.017.257.062.154.342-.179.509-.464.567-.685.139m3.086-.057c-.261-.269-.237-.95.057-1.732l.24-.62-.102.746c-.114.901.041 1.516.289 1.109.135-.22.159-.216.163.028.004.432-.404.725-.648.469m-7.687-1.907c-.143-.273-.102-.55.184-1.231.199-.485.469-.975.599-1.088.334-.285.297-.126-.167.725-.432.791-.432 1.593 0 1.223.282-.24.302-.09.062.383-.229.436-.449.432-.676-.013m-10.445-.297c-.203-.212-.114-1.304.147-1.834.375-.754.464-.644.147.184-.273.714-.216 1.358.106 1.153.094-.066.171-.037.171.053 0 .24-.436.583-.571.445m13.717-5.066c.71-.293.562-.538-.257-.424l-.721.098.4-.342c.591-.498 1.728-.424 1.728.118 0 .282-.868.791-1.313.762-.212-.013-.163-.077.163-.212" fill="#fff" fill-opacity=".855"/></g></svg>