<svg xmlns="http://www.w3.org/2000/svg" xmlns:xlink="http://www.w3.org/1999/xlink" viewBox="0 0 48 48"><defs><linearGradient x1="22.992" y1="45.525" x2="22.871" y2=".199" gradientUnits="userSpaceOnUse"><stop stop-color="#1673db"/><stop offset="1" stop-color="#42d6fc"/></linearGradient><linearGradient gradientUnits="userSpaceOnUse" x1="346.57" y1="513.8" x2="361.57" y2="528.8"><stop stop-color="#2e5d89"/><stop offset="1" stop-color="#1b92f4"/></linearGradient><linearGradient y2="307.75" x2="-328.21" y1="649.74" x1="-324.94" gradientUnits="userSpaceOnUse" id="1"><stop stop-color="#0bac83"/><stop offset="1" stop-color="#10da96"/></linearGradient><linearGradient gradientUnits="userSpaceOnUse" y2="517.8" x2="0" y1="545.8"><stop stop-color="#3889e9"/><stop offset="1" stop-color="#5ea5fb"/></linearGradient><linearGradient x1="0" x2="47" gradientUnits="userSpaceOnUse"><stop stop-color="#a9a3d4"/><stop offset=".47" stop-color="#87baff"/><stop offset="1" stop-color="#89ec85"/></linearGradient><linearGradient gradientUnits="userSpaceOnUse" y2="307.75" x2="-328.21" y1="649.74" x1="-324.94" id="0"><stop stop-color="#016ed4"/><stop offset="1" stop-color="#00b1ff"/></linearGradient></defs><g transform="matrix(.10953 0 0 .10924 59.22-25.07)" stroke-width="1.317"><circle cx="-325.89" cy="478.75" r="173.45" fill="url(#1)" transform="matrix(1.26319 0 0 1.26319 90.23-154.96)"/><g transform="matrix(.99405 0 0 .99999-600.11 12.761)"><path d="m491.56 505.94c-2.548-.0001-4.973.483-7.213 1.332-.163.149-.375.264-.542.249-.023-.002-.046-.017-.069-.026-1.105.46-2.152 1.024-3.146 1.663.129.209.168.441-.099.554-.045.019-.607.075-.803.07-2.825 2.044-5.091 4.794-6.539 8 .023-.003.043-.014.067-.016.22-.003.536.06.748.104.195.04.352.17.521.183.479.036.594-.334.984-.542.403.057.671-.068 1.036-.027.248.027.428.292.621.307.163.017.306-.152.464-.128.153.024.417.356.442.542.032.232-.171.441-.104.696.244.248.687.298 1.036.44.227-.186.03-.532 0-.802-.003-.119.017-.225 0-.334-.021-.186-.101-.356-.103-.515-.003-.734.594-1.077 1.088-1.367.214-.126.382-.348.568-.44.262-.131.457-.161.675-.283.392-.219.729-.395 1.035-.644.142-.333.014-.779.025-1.108.142-.087.264.037.414.026.237-.049.256-.382.39-.515.078-.076.292-.131.389-.206.236-.184.313-.463.519-.542.074-.03.244-.022.361-.053.153-.04.372-.221.621-.306.163-.057.536-.067.598-.13.076-.078-.0001-.296.026-.413.125-.582 1.01-.706 1.527-.901.365-.138.739-.39 1.14-.312-.078.277-.452.179-.388.515.087.466.714-.133.88-.202.316-.133.858-.213 1.272-.363.363-.133 1.015-.334.672-.748-.286-.017-.423.334-.673.44-.172.027-.139-.143-.286-.157-.14-.017-.218.128-.361.104-.142-.024-.343-.247-.365-.413-.057-.431.365-.608.544-.929-.119-.39-.659-.08-.986-.232.031-.232.272-.392.544-.436.223-.038.723-.018.856.1.077.065.004.228.13.336.132.119.294.107.466.079.062-.294-.384-.22-.335-.415.35-.228.919-.041 1.347-.104.247-.036.505-.209.724-.332.208-.118.478-.322.698-.129.06.211-.192.28-.31.385-.396.351-.804.753-1.112 1.161.189.184.532.092.852.13.125.017.282.053.414.077.154.027.319.02.44.051.218.053.276.285.491.285.354-.0001.358-.382.158-.621.063-.243.163-.37.077-.54-.16-.318-.745-.017-.775-.413-.019-.257.216-.246.31-.438-.043-.497.409-.533.361-.978-.021-.186-.179-.189-.31-.364-.066-.086-.1-.25-.176-.324-.604-.054-1.216-.087-1.835-.087m-10.422 4.056h.002c.121.017.266.146.412.157.138.003.252-.076.337-.053.217.057.308.383.105.542-.169.021-.235-.073-.363-.051-.352.059-.486.746-.749.723-.248-.021-.382-.623-.13-.802.017-.156-.115-.182-.107-.336.074-.095.287-.197.493-.181m-1.166.08c.072.002.126.02.154.051-.034.275-.25.257-.463.385-.368.221-.581.559-.698 1.031-.034.138-.397.502-.572.466-.411-.087.113-.84.207-.955.104-.127.243-.238.365-.385.118-.142.195-.334.31-.413.125-.086.482-.189.698-.181m3.066.928c.132.002.25.024.304.077-.084.341-.821.25-1.091.127.017-.128.219-.164.389-.181.119-.003.267-.027.398-.023m-1.677.628c.087-.002.176.017.268.041-.238.199-.496.311-.905.44-.197.062-.537.138-.57-.081-.041-.268.288-.206.467-.23.226-.031.475-.162.74-.171m25.723 1.537c-.031.073-.053.145-.049.216.017.125.153.244.184.413.017.089-.042.282 0 .364.125.241.451.068.685.081-.265-.364-.53-.728-.819-1.073m1.324 1.775c-.037.178-.158.41-.256.558-.226.342-.532.358-.856.54-.27.152-.386.407-.544.672-.171.286-.278.459-.207.874-.231.457-.582.737-1.061.955-.142.064-.335.087-.465.181-.104.074-.162.273-.31.438-.182.201-.372.286-.467.44-.074.119-.1.355-.181.515-.11.217-.346.323-.491.542-.066.101-.11.307-.183.44-.164.297-.444.511-.414.772.03.252.318.297.337.517.003.124-.082.2-.077.336.003.198.138.337.154.489.039.383-.131.536-.203.798-.034.125-.02.266-.053.363-.063.192-.332.365-.337.591-.002.161.166.291.18.517.003.156-.077.322-.049.466.055.281.558.607.777.825.293.292.677.518.803.826.106.261.106.601.31.798.151.145.402.236.596.387.181.141.377.263.57.413.315.246.792.736 1.294.698.262-.019.531-.232.828-.285.306-.054.703-.083 1.012-.051.236.024.48.165.726.153.26-.016.557-.207.852-.336.237-.103.528-.217.848-.3.146-.981.224-1.987.224-3.01-.0001-4.12-1.239-7.939-3.357-11.122m-33.406 6.751c-.43.023-.712.043-.957.153-.56.254-.452 1.01-1.012 1.186-.194.062-.459.064-.673.104-.184.033-.408.134-.598.13-.053-.0001-.127-.04-.193-.061-.05.354-.091.711-.122 1.071.533.102.808.805 1.279 1.038.129.064.298.067.464.104.134.03.236.086.365.13.274.093.609.082.829.179.33.146.572.764.856.93.017.167-.032.39.026.515.134.181.324.141.545.26.264.142.345.509.596.621.087.038.303.033.44.075.343.104.456.499.75.413.193-.057.178-.254.209-.438.127-.138.267-.356.465-.359.322-.016.351.331.468.643.066.176.239.329.284.515.08.321.041 1.28-.027 1.472-.081.235-.401.335-.598.595-.093.122-.137.301-.207.387-.127.154-.315.194-.41.336-.053.08-.105.251-.158.36-.155.328-.363.561-.232.955.055.162.309.271.31.462.0001.225-.479.426-.517.672-.027.183.149.51.207.749.043.18.385.293.491.413.182.203.327.491.493.747.329.502.586 1.115.906 1.602.169.255.406.484.519.749.058.134.05.293.103.413.185.416 1 .851 1.425 1.058.197.096.417.13.598.23.275.153.818.562.957.802.123.216.201.74.261 1.083.08.453.0001.801.026 1.291.017.265.102.532.105.798.0001.093-.049.162-.053.257 0 .016.004.033.004.049 2.544 1.148 5.363 1.801 8.347 1.802.539 0 1.072-.028 1.6-.068.023-.04.044-.081.073-.118.121-.159.229-.298.31-.438.076-.471-.189-.8-.077-1.212.123-.463.766-.746 1.217-.955.155-.072.314-.188.44-.232.312-.108.701-.049.986-.153.485-.177.536-.695.775-1.135.113-.209.262-.417.284-.566.019-.134-.049-.259-.028-.417.024-.156.164-.29.207-.462.057-.223.081-.551.081-.8 0-.204-.096-.384-.105-.568-.034-.669.242-.744.491-1.108.125-.181.171-.387.258-.517.417-.62 1.141-.919 1.088-1.856-.017-.31-.213-1.011-.442-1.11-.131-.057-.432-.003-.621-.077-.612-.228-.972-.984-1.606-1.032-.135-.016-.26.055-.412.053-.251-.017-.63-.175-.907-.207-.177-.019-.413.052-.519 0-.162-.078-.178-.375-.31-.464-.104-.072-.307-.096-.466-.157-.255-.098-.457-.212-.752-.232-.091-.003-.204.043-.31.027-.163-.027-.292-.219-.442-.311-.188-.114-.362-.169-.44-.332.17-.556-.3-.711-.415-1.032-.055-.15-.03-.331-.077-.466-.068-.192-.258-.303-.468-.464-.375-.287-.707-.557-1.243-.623-.235-.03-.469.07-.754.053-.301-.019-.68-.282-.906-.539-.219-.251-.326-.476-.517-.596-.181-.116-.421-.113-.545-.23-.055-.051-.046-.139-.105-.259-.091-.188-.244-.292-.13-.517-.206-.106-.212.196-.438.157-.201-.285-.371-.42-.829-.336-.209.038-.326.302-.57.308-.2.016-.357-.222-.621-.26-.199-.027-.426.054-.568.027-.221-.044-.289-.227-.491-.36-.148-.097-.436-.262-.519-.26-.26.016-.446.551-.805.361-.175-.22.284-.336.077-.542-.157-.156-.289.071-.414.157-.144.099-.279.197-.438.255-.356.133-.578.063-.856.206-.257.133-.268.355-.414.619-.119.216-.391.531-.57.544-.217.016-.425-.302-.622-.387-.593-.256-.88.227-1.373.233-.457.016-1.11-.736-1.087-1.164.003-.261.151-.657.181-.98.027-.257.204-.412.207-.646.003-.313-.417-.554-.622-.592-.484-.089-1.156.194-1.71-.028-.106-.175.124-.296.183-.466.034-.097.014-.226.049-.332.061-.164.234-.292.312-.466.058-.133.072-.324.13-.489.067-.188.192-.308.207-.44.019-.174-.047-.375-.184-.489m6.925 5.463c.176.017.198.378.018.407-.194.03-.292-.303-.105-.389.031-.016.062-.018.087-.016v-.002" fill="#098967" transform="matrix(10.87592-.851.851 10.87592-5513.74-4866.89)"/><g transform="matrix(.97727 0 0 .97727 596.29-1.175)" fill="#fff" stroke="#fff" stroke-width="2.171"><g transform="matrix(.79601 0 0 .79601-564.74 205.77)"><path d="m415.35 116.59c.817.473 1.711.698 2.593.698 1.796 0 3.543-.932 4.504-2.599l11.604-20.1c1.436-2.485.585-5.663-1.902-7.098-2.483-1.436-5.663-.583-7.098 1.902l-11.604 20.1c-1.433 2.483-.582 5.661 1.903 7.097z" fill="#fff" stroke="#fff" stroke-width="2.171" id="2"/><path d="m499.91 199.25c.882 0 1.774-.225 2.593-.698l20.09-11.602c2.485-1.434 3.336-4.612 1.902-7.098-1.434-2.485-4.612-3.338-7.098-1.902l-20.09 11.602c-2.485 1.434-3.336 4.612-1.902 7.098.962 1.667 2.709 2.6 4.505 2.6z" fill="#fff" stroke="#fff" stroke-width="2.171" id="3"/><path d="m553.11 300.8h-23.2c-2.87 0-5.197 2.327-5.197 5.197 0 2.87 2.327 5.197 5.197 5.197h23.2c2.87 0 5.197-2.327 5.197-5.197 0-2.87-2.327-5.197-5.197-5.197z" fill="#fff" stroke="#fff" stroke-width="2.171" id="4"/><path d="m522.6 425.06l-20.1-11.604c-2.485-1.436-5.663-.583-7.098 1.902-1.436 2.485-.585 5.663 1.902 7.098l20.1 11.604c.817.473 1.711.698 2.593.698 1.796 0 3.543-.932 4.504-2.599 1.435-2.485.584-5.663-1.901-7.099z" fill="#fff" stroke="#fff" stroke-width="2.171" id="5"/><path d="m422.45 497.31c-1.434-2.485-4.611-3.338-7.099-1.9-2.485 1.436-3.336 4.614-1.9 7.099l11.605 20.09c.963 1.666 2.708 2.599 4.504 2.599.882 0 1.774-.225 2.593-.698 2.485-1.436 3.336-4.614 1.9-7.099l-11.603-20.1z" fill="#fff" stroke="#fff" stroke-width="2.171" id="6"/><path d="m306 524.7c-2.87 0-5.197 2.327-5.197 5.197v23.21c0 2.87 2.327 5.197 5.197 5.197 2.87 0 5.197-2.327 5.197-5.197v-23.21c0-2.87-2.327-5.197-5.197-5.197z" fill="#fff" stroke="#fff" stroke-width="2.171" id="7"/><path d="m196.65 495.41c-2.485-1.436-5.663-.583-7.098 1.902l-11.602 20.09c-1.436 2.485-.585 5.663 1.902 7.097.819.473 1.711.698 2.593.698 1.796 0 3.543-.932 4.504-2.599l11.602-20.09c1.437-2.486.586-5.664-1.901-7.098z" fill="#fff" stroke="#fff" stroke-width="2.171" id="8"/><path d="m109.5 413.45l-20.1 11.604c-2.485 1.434-3.336 4.612-1.902 7.098.963 1.666 2.708 2.599 4.504 2.599.882 0 1.774-.225 2.593-.698l20.1-11.604c2.485-1.434 3.336-4.612 1.902-7.098-1.433-2.486-4.612-3.339-7.097-1.901z" fill="#fff" stroke="#fff" stroke-width="2.171" id="9"/><path d="m82.09 300.8h-23.21c-2.87 0-5.197 2.327-5.197 5.197 0 2.87 2.327 5.197 5.197 5.197h23.21c2.87 0 5.197-2.327 5.197-5.197-.002-2.87-2.329-5.197-5.197-5.197z" fill="#fff" stroke="#fff" stroke-width="2.171" id="A"/><path d="m114.69 189.55l-20.1-11.602c-2.487-1.432-5.663-.583-7.099 1.902-1.434 2.485-.583 5.663 1.902 7.099l20.1 11.602c.819.471 1.711.696 2.593.696 1.796 0 3.543-.932 4.506-2.599 1.436-2.486.583-5.664-1.902-7.098z" fill="#fff" stroke="#fff" stroke-width="2.171" id="B"/><path d="m189.55 114.69c.963 1.666 2.708 2.599 4.504 2.599.882 0 1.774-.225 2.593-.698 2.485-1.434 3.336-4.612 1.902-7.098l-11.602-20.1c-1.434-2.485-4.612-3.338-7.098-1.902-2.485 1.434-3.336 4.612-1.902 7.098l11.603 20.1z" fill="#fff" stroke="#fff" stroke-width="2.171" id="C"/><path d="m306 87.29c2.87 0 5.197-2.327 5.197-5.197v-23.2c0-2.87-2.327-5.197-5.197-5.197-2.87 0-5.197 2.327-5.197 5.197v23.2c0 2.87 2.327 5.197 5.197 5.197z" fill="#fff" stroke="#fff" stroke-width="2.171" id="D"/></g><g transform="matrix(.7709-.19832.19832.7709-617.75 274.05)"><use xlink:href="#2"/><use xlink:href="#3"/><use xlink:href="#4"/><use xlink:href="#5"/><use xlink:href="#6"/><use xlink:href="#7"/><use xlink:href="#8"/><use xlink:href="#9"/><use xlink:href="#A"/><use xlink:href="#B"/><use xlink:href="#C"/><use xlink:href="#D"/></g></g><g transform="matrix(3.37311.28085.24797 3.37919-65.65 89.46)" stroke="none"><path d="m95.95 94.79l-35.22 35.22 41.09-29.353c-2.406-2.406-4.813-4.813-5.868-5.868l.002.0001" fill="#e0e0e0"/><path d="m60.669 130.27l35.22-35.22-.002-.002c-2.406-2.406-4.813-4.813-5.868-5.868l-29.35 41.09" fill="#f6f6f6"/><path transform="translate(.166-.166)" fill="#df4444" d="m101.21 101.21l-5.87-5.87 35.22-35.22z"/><path transform="translate(.278-.027)" fill="#f44a4a" d="m130.56 60.12l-41.09 29.35 5.87 5.87 35.22-35.22"/></g></g></g></svg>