<svg xmlns="http://www.w3.org/2000/svg" xmlns:xlink="http://www.w3.org/1999/xlink" viewBox="0 0 48 48"><defs><linearGradient id="4" gradientUnits="userSpaceOnUse" y1="32.738" x2="0" y2="-34.996"><stop stop-color="#0661b2"/><stop offset="1" stop-color="#2089da"/></linearGradient><linearGradient x1="0" x2="47" gradientUnits="userSpaceOnUse"><stop stop-color="#a9a3d4"/><stop offset=".47" stop-color="#87baff"/><stop offset="1" stop-color="#89ec85"/></linearGradient><linearGradient id="5" x1="-284.7" y1="14.399" x2="-274.64" y2="-10.743" gradientUnits="userSpaceOnUse"><stop stop-color="#c6e7fc"/><stop offset="1" stop-color="#f4fbfe"/></linearGradient><linearGradient gradientTransform="matrix(1.03059 0 0 1 150.5-.226)" gradientUnits="userSpaceOnUse" y2="1181.61" x2="-292.61" y1="1226.77" x1="-292.89" id="3" xlink:href="#2"/><linearGradient gradientTransform="matrix(.96469 0 0 .99667 130.81 2.455)" gradientUnits="userSpaceOnUse" y2="1135.24" x2="-293.48" y1="1171.11" x1="-292.69" id="1" xlink:href="#2"/><linearGradient gradientUnits="userSpaceOnUse" y2="1136.28" x2="-157.57" y1="1226.18" x1="-154.98" id="0"><stop stop-color="#29292b"/><stop offset="1" stop-color="#3f3f3f"/></linearGradient><linearGradient id="2"><stop stop-color="#f7f7f7"/><stop offset="1" stop-color="#fcfdfc"/></linearGradient></defs><g transform="matrix(.66403 0 0 .66403 199.7 22.654)"><g transform="translate(-195.55.436)"><g transform="matrix(.33517 0 0 .39634-4.948-465.49)" stroke-width="1.317"><path fill="url(#0)" d="m-221.54 1132.18h135.28v94.65h-135.28z"/><g fill-rule="evenodd"><path d="m-217.59 1132.15l64.21 40.493 62.96-40.493z" fill="url(#1)"/><path d="m-207.24 1226.83v-69.827l53.78 31.492 67.31-43.06v76.44c0 0-.002 5.01-5.507 4.957h-9.04z" fill="url(#3)"/></g></g><path transform="translate(322.17-.101)" d="m-425.03-26.529l40.922-7.902c.768-.148 1.411.629 1.411 1.411v69.43c0 .782-.644 1.559-1.411 1.411l-40.922-7.902c-.768-.148-1.411-.629-1.411-1.411v-53.622c0-.782.644-1.263 1.411-1.411" mix-blend-mode="normal" solid-color="#000000" color-interpolation-filters="linearRGB" color="#000" image-rendering="auto" color-rendering="auto" fill-rule="evenodd" isolation="auto" color-interpolation="sRGB" solid-opacity="1" fill="url(#4)" shape-rendering="auto"/></g><path d="m-279.12-12.13c-1.245-.057-2.507.126-3.719.584-8.252 2.948-9.748 14.02-6.671 21.21 2.338 6.24 10.942 8.742 16.07 4.35 5.57-4.874 5.965-13.693 3.163-20.14-1.541-3.513-5.112-5.837-8.846-6.01m-1.1 5.328c1.82-.043 3.632 1 4.437 2.699 1.719 3.404 1.71 7.556.584 11.148-.799 2.553-3.593 4.659-6.3 3.653-3.378-1.066-4.4-5.071-4.435-8.209-.043-3.249.704-7.298 3.927-8.871.572-.273 1.18-.407 1.786-.422" fill="url(#5)"/></g></svg>