<svg xmlns="http://www.w3.org/2000/svg" viewBox="0 0 48 48"><defs><linearGradient gradientTransform="matrix(1.05233 0 0 1.02761-21.291-14.594)" gradientUnits="userSpaceOnUse" y2="507.8" x2="0" y1="542.8" id="0"><stop stop-color="#0c275c"/><stop offset="1" stop-color="#1072c0"/></linearGradient></defs><g transform="matrix(1.03666 0 0 1.03666-349.76-529.77)"><rect width="46.3" height="34.939" x="385.51" y="507.23" fill="url(#0)" rx="1.644" stroke-width="1" transform="translate(-48.12 9.495)"/><g transform="matrix(.59067 0 0 .59067 230.2 201.75)" fill="#dbe5ef" stroke="#dbe5ef" stroke-linecap="round" stroke-width="1.96"><path d="m218.43 573.09q-4.051 4.167-10.11 4.167-6.06 0-10.148-4.167-4.051-4.206-4.051-10.264 0-6.06 4.051-10.225 4.09-4.206 10.148-4.206 6.02 0 10.11 4.206 4.09 4.206 4.09 10.225 0 6.06-4.09 10.264zm-17.634-2.315q3.087 3.087 7.524 3.087 4.437 0 7.486-3.087 3.087-3.125 3.087-7.949 0-4.823-3.087-7.91-3.048-3.125-7.486-3.125-4.437 0-7.524 3.125-3.048 3.087-3.048 7.91 0 4.823 3.048 7.949z"/><path d="m223.23 576.64l9.261-14.277-8.72-13.351h4.244l6.714 10.572h.154l6.714-10.572h4.244l-8.72 13.351 9.261 14.277h-4.167l-7.331-11.306h-.154l-7.331 11.306h-4.167z"/></g></g></svg>