<svg xmlns="http://www.w3.org/2000/svg" viewBox="0 0 48 48"><defs><linearGradient gradientUnits="userSpaceOnUse" y2="517.8" x2="0" y1="545.8"><stop stop-color="#3889e9"/><stop offset="1" stop-color="#5ea5fb"/></linearGradient><linearGradient y2="518.65" x2="0" y1="545.15" gradientUnits="userSpaceOnUse" id="0"><stop stop-color="#97a9b1"/><stop offset="1" stop-color="#cfdce1"/></linearGradient><linearGradient id="1" y1="20.13" x2="0" y2="-6.125" gradientUnits="userSpaceOnUse"><stop stop-color="#0c275c"/><stop offset="1" stop-color="#1072c0"/></linearGradient></defs><g transform="matrix(1.69643 0 0 1.69643-68.24 13.622)" enable-background="new"><g transform="translate(-346.19-525.67)"><circle r="13.742" cy="532.06" cx="400.31" fill="url(#0)"/><circle cx="400.57" cy="531.8" r="14" fill="#5ea5fb" fill-opacity="0"/></g><path d="m54.23-7.875c-7.727 0-14 6.273-14 14 0 7.727 6.273 14 14 14 7.727 0 13.996-6.272 13.996-14 0-2.395-.603-4.65-1.664-6.622.011-.107.069-.178.095-.208 1.509-1.782 2.157-4.64 1.748-5.994-.06-.197-.283-.194-.374-.044-1.094 1.811-2.676 2.263-4.087 2.509-.067.012-.183.024-.308-.008-2.485-2.258-5.785-3.635-9.405-3.635m-.269 3.639c.089-.002.179 0 .269 0 5.72 0 10.361 4.641 10.361 10.361 0 5.72-4.641 10.361-10.361 10.361-5.72 0-10.365-4.641-10.365-10.361 0-5.631 4.499-10.219 10.1-10.361" fill="url(#1)" fill-rule="evenodd"/></g></svg>