<svg xmlns="http://www.w3.org/2000/svg" viewBox="0 0 48 48"><defs><linearGradient id="0" y1="653.96" x2="0" y2="301.3" gradientUnits="userSpaceOnUse"><stop stop-color="#0a80fd"/><stop offset="1" stop-color="#56c5fa"/></linearGradient></defs><g fill="#fff"><circle r="173.45" cy="478.75" cx="-325.89" transform="matrix(.13838 0 0 .13838 69.09-42.26)" fill="url(#0)"/></g><path d="m35.763 33.14l-8.597-8.597c-.081-.081-.167-.153-.255-.22l1.523-1.603c.078-.078.151-.161.219-.246 2.02.762 4.393.334 6.02-1.291 1.185-1.185 1.783-2.825 1.638-4.498-.016-.189-.141-.353-.319-.418-.179-.065-.379-.021-.514.113l-2.755 2.755-2.789-.703-.791-2.878 2.754-2.755c.135-.135.179-.335.114-.514-.065-.179-.228-.303-.418-.32-1.673-.144-3.312.453-4.498 1.639-1.623 1.623-2.053 3.994-1.291 6.01-.083.07-.165.145-.246.224l-2.241 2.152-4.115-4.115c-.051-.052-.106-.097-.163-.139.048-.085.095-.172.139-.262.869.167 2.458-1.525 3.807-2.874l-3.931-3.932c-1.758 1.758-3.042 2.938-2.875 3.807-.402.196-.76.436-1.015.691l-.554.554c-.36.36-.576.808-.654 1.274-.054.061-.108.126-.163.195l-.206.259c-.006.006-.024.032-.028.038l-.187.262c-.117.156-.219.326-.318.489-.036.061-.074.122-.112.182-.006.0001-.012.021-.017.031l-.083.157c-.1.188-.205.383-.294.598l-.014.034c-.105.25-.214.509-.29.783l-.037.119c-.03.098-.061.195-.089.311l-.076.378c-.057.237-.076.47-.093.677l-.011.136c-.028.214-.02.416-.012.595.003.06.005.118.007.197.002.033.002.065.003.097.002.08.004.17.019.265l.048.307c.0001.059.019.117.027.172.018.125.037.254.074.376l.201.698c.062.212.263.352.484.337.117-.008.222-.059.3-.137.07-.07.118-.161.133-.265l.104-.709c.008-.056.032-.139.057-.226.018-.061.035-.122.049-.175l.074-.265c.009-.036.027-.071.042-.107.015-.033.029-.067.043-.101.025-.056.048-.113.071-.17.046-.113.089-.22.155-.324.029-.048.055-.096.082-.145.069-.123.134-.239.212-.336.005-.006.009-.012.014-.019l.175-.241c.036-.045.076-.088.115-.131.028-.03.056-.061.091-.101.103-.124.225-.233.342-.339l.063-.056c.087-.081.187-.156.293-.236.043-.032.085-.064.127-.096.053-.035.105-.069.156-.103.095-.064.178-.12.273-.17l.207-.118.21-.103c.073-.038.145-.067.212-.094.039-.016.078-.032.115-.048.037-.013.072-.027.106-.039.045-.016.084-.032.136-.046l.057-.013c.062.1.134.195.221.281l4.071 4.071-8.69 8.347c-.003.003-.007.007-.0001.0001-1.081 1.081-1.257 2.665-.176 3.747 1.082 1.081 2.565.804 3.646-.277.005-.005.009-.009.013-.014l7.666-8.07c.045.053.089.106.139.156l8.596 8.597c.963.964 2.526.964 3.489 0 .963-.963.963-2.525 0-3.488m-21.03 1.93c-.398.399-1.044.399-1.443 0-.398-.398-.398-1.044 0-1.442.398-.398 1.044-.398 1.443 0 .398.398.398 1.044 0 1.442" fill="#ddefff"/></svg>