<svg xmlns="http://www.w3.org/2000/svg" viewBox="0 0 48 48"><defs><linearGradient id="0" x1="25.07" y1="47.785" x2="24.643" y2="-.428" gradientUnits="userSpaceOnUse"><stop stop-color="#1d477c"/><stop stop-color="#2763b9" offset="1"/></linearGradient></defs><circle cx="24" cy="24" r="24" fill="url(#0)"/><g transform="matrix(.83339 0 0 .83339 20.523 10.177)" fill="#fff" fill-opacity=".846"><path d="m1.299 32.19c-8.233 0-14.931-6.698-14.931-14.931 0-5.702 3.174-10.826 8.285-13.37.23-.114.507-.07.688.111.181.181.228.458.115.687-.932 1.895-1.405 3.932-1.405 6.05 0 7.575 6.162 13.737 13.736 13.737 2.145 0 4.202-.484 6.115-1.436.23-.114.506-.07.687.111.182.181.228.458.114.687-2.532 5.151-7.667 8.351-13.403 8.351" fill="#fff" fill-opacity=".785"/><path d="m10.477.988l-1.214 3.238-2.286.762 2.286.762 1.214 3.238 1.213-3.238 2.287-.762-2.286-.762"/><path d="m14.477 16.988l1.214-3.238 2.286-.762-2.286-.762-1.214-3.238-1.214 3.238-2.286.762 2.286.762z"/><path d="m18.61 7.559l.867 2.429.867-2.429 1.633-.571-1.633-.571-.867-2.429-.867 2.429-1.633.571"/></g></svg>