<svg xmlns="http://www.w3.org/2000/svg" viewBox="0 0 48 48"><defs><linearGradient id="0" gradientUnits="userSpaceOnUse" y1="12.369" x2="0" y2="-36.429"><stop stop-color="#0a80fd"/><stop offset="1" stop-color="#56c5fa"/></linearGradient></defs><g transform="matrix(.99999 0 0 .99999-43.37 35.882)" enable-background="new"><circle cx="67.37" cy="-11.875" r="24" fill="url(#0)"/><g fill="#0b3969"><path d="m54.897-1c.944-.852 1.929-1.737 2.189-1.966.26-.229.474-.44.476-.469.003-.052-2.763-1.914-2.888-1.943-.037-.008-.091.061-.122.156-.068.213-.929 3.435-1.409 5.271-.102.392-.104.501-.007.501.024 0 .816-.697 1.76-1.55m26.13 1.378c.503-.659.784-2.085.664-3.363-.136-1.454-.532-2.461-1.291-3.283-.563-.61-1.039-.743-1.584-.442-.85.469-1.655.967-1.775 1.096-.357.385-.333 1.012.071 1.814.408.81.852 1.273 1.84 1.918 1.019.665 1.433 1.174 1.656 2.036.072.277.145.392.252.395.02.0001.095-.076.167-.171m-22.07-5.979c1.928-3.437 4.387-7.701 5.915-10.255.333-.557.606-1.029.606-1.049 0-.064-2.868-1.827-2.944-1.81-.077.017-2.641 4.333-4.461 7.51-.577 1.01-1.435 2.44-1.906 3.185-.471.745-.928 1.467-1.015 1.605-.091.145-.139.269-.112.295.129.124 3.02 1.976 3.066 1.963.028-.008.411-.658.852-1.444m18.736-1.221c.745-.424 1.399-.812 1.454-.863.097-.091.094-.103-.181-.578-.154-.267-.53-.919-.834-1.449-.304-.53-.588-.971-.631-.979-.114-.022-2.929 1.62-2.949 1.72-.016.083 1.463 2.69 1.627 2.868.047.051.103.084.123.072.02-.011.647-.367 1.392-.791m5.61-2.755c.021-.038.033-.839.027-1.782l-.011-1.714-3.168-.013c-2.765-.012-3.166-.004-3.152.063.009.042.45.85.98 1.795l.963 1.719.209.015c.115.008 1.087.008 2.161 0 1.544-.012 1.961-.03 1.991-.084m-10.02-.073c.008-.026-.393-.783-.893-1.683l-.909-1.635h-3.863-3.863l-.912 1.652c-.502.908-.901 1.67-.887 1.693.036.059 11.308.032 11.327-.027m-16.595-.283c.103-.179.53-.917.948-1.64.418-.723.761-1.339.761-1.368 0-.036-1.067-.049-3.243-.04l-3.243.013-.017.365c-.009.201-.0001.957.019 1.68l.036 1.315h2.275 2.275zm19.11-.664c1.323-.728 1.302-.715 1.302-.808 0-.091-.697-1.323-3.063-5.417-2.601-4.499-3.747-6.483-4.508-7.805-.75-1.303-.928-1.546-1.25-1.711-.254-.129-.659-.149-.921-.046-.25.099-1.129.611-1.362.793-.373.292-.515.869-.324 1.324.103.245.033.123 2.493 4.371 3.874 6.688 5.865 10.06 5.988 10.143.03.02.173-.029.316-.11.143-.081.741-.411 1.329-.734m-9.568-7.697c.617-1.029.707-1.209.745-1.485.079-.573-.223-.956-1.175-1.496-.54-.306-.627-.339-.944-.357-.432-.024-.646.066-.944.402-.223.251-1.086 1.787-1.084 1.93.0001.051.537.411 1.419.952.78.478 1.435.871 1.455.873.02.0001.257-.367.528-.818"/><path d="m74.33-.551c-.021-.183-.234-.32-.418-.32-.596 0-1.124-.35-1.346-.891-.226-.554-.08-1.2.363-1.607.14-.128.157-.342.04-.49-.305-.387-.651-.737-1.03-1.04-.148-.119-.366-.102-.494.04-.387.429-1.083.589-1.621.364-.56-.235-.913-.802-.878-1.411.011-.191-.128-.357-.319-.38-.486-.056-.975-.058-1.462-.004-.188.021-.328.183-.322.372.021.603-.336 1.16-.89 1.387-.531.217-1.222.059-1.609-.366-.128-.14-.342-.157-.491-.041-.39.306-.744.656-1.052 1.04-.12.149-.102.366.039.494.452.41.598 1.061.363 1.622-.224.534-.779.879-1.414.879-.206-.007-.353.132-.375.319-.057.488-.058.986-.003 1.478.02.184.24.32.426.32.566-.014 1.109.336 1.337.891.227.554.081 1.2-.363 1.607-.139.128-.157.341-.04.49.302.385.649.735 1.028 1.04.149.12.366.103.495-.039.389-.43 1.085-.589 1.62-.365.561.235.914.802.879 1.411-.011.191.129.358.319.38.248.029.498.043.749.043.238 0 .476-.013.714-.04.188-.021.328-.183.322-.372-.022-.602.336-1.16.889-1.386.535-.218 1.223-.059 1.61.366.129.14.341.157.491.041.389-.305.742-.655 1.052-1.04.12-.149.103-.366-.039-.494-.452-.41-.599-1.062-.364-1.622.221-.527.755-.881 1.33-.881l.08.002c.186.015.358-.128.38-.319.057-.489.058-.986.003-1.478m-6.449 2.904c-1.196 0-2.168-.973-2.168-2.168 0-1.196.973-2.168 2.168-2.168 1.196 0 2.168.973 2.168 2.168 0 1.196-.973 2.168-2.168 2.168" fill-rule="evenodd" stroke-width="1.317"/></g></g></svg>