<svg xmlns="http://www.w3.org/2000/svg" viewBox="0 0 48 48"><defs><linearGradient id="0" y1="31.924" x2="0" y2="-16.08" gradientUnits="userSpaceOnUse"><stop stop-color="#dc3c30"/><stop offset="1" stop-color="#ff786d"/></linearGradient></defs><g transform="matrix(.99999 0 0 .99999 26.629 15.882)" enable-background="new"><circle r="24" cy="8.125" cx="-2.625" fill="url(#0)"/><path d="m-6.444-1.542c-.864.243-1.56 1.207-1.56 2.144v14.856c-.876-.481-2-.675-3.169-.357-2.106.573-3.426 2.424-2.974 4.135.451 1.711 2.526 2.666 4.632 2.093 1.68-.457 2.838-1.75 3.02-3.114l.049-14.04 10.921-3.063v11.08c-.876-.481-2-.675-3.169-.357-2.106.573-3.425 2.425-2.974 4.135.451 1.711 2.526 2.666 4.632 2.093 1.68-.457 2.838-1.75 3.02-3.114l.049-18.276c0-.703-.415-1.228-.975-1.327l-11.506 3.114z" fill="#fff" fill-opacity=".855"/></g></svg>