<svg xmlns="http://www.w3.org/2000/svg" viewBox="0 0 48 48"><defs><linearGradient gradientUnits="userSpaceOnUse" y2="40.04" x2="0" y1="42.12" id="3"><stop stop-color="#040404"/><stop offset="1" stop-color="#121212" stop-opacity=".908"/></linearGradient><linearGradient gradientUnits="userSpaceOnUse" y2="16.216" x2="21.966" y1="38.1" x1="21.847" id="2"><stop stop-color="#bbbec4"/><stop offset="1" stop-color="#dddfe2"/></linearGradient><linearGradient gradientTransform="matrix(.2434 0 0 .23935 6.126 15.01)" x2="122.72" x1="10.09" gradientUnits="userSpaceOnUse" id="0"><stop stop-color="#1a1a1a"/><stop offset=".111" stop-color="#2c2c2e"/><stop offset=".29" stop-color="#2b2b2d"/><stop offset=".512" stop-color="#2a2b2d"/><stop offset=".752" stop-color="#2b2b2d"/><stop offset=".897" stop-color="#323232"/><stop offset="1" stop-color="#171717"/></linearGradient><linearGradient gradientTransform="matrix(.4952 0 0 .97982-200.53-491.68)" gradientUnits="userSpaceOnUse" y2="543.09" x2="0" y1="544.15" id="1"><stop stop-color="#1e56e6"/><stop offset="1" stop-color="#1f9aed"/></linearGradient></defs><g transform="matrix(1.71427 0 0 1.71427-14.211-26.488)" enable-background="new"><path d="m8.583 38.425l.243 3.836c0 .398.326.718.73.718h25.466c.405 0 .73-.32.73-.718l.243-3.836h-27.413" fill="url(#0)"/><path d="m10.776 15.937h22.79c.405 0 .73.32.73.718l1.704 21.654c0 .398-.326.718-.73.718h-25.954c-.405 0-.73-.32-.73-.718l1.46-21.654c0-.398.326-.718.73-.718" fill="url(#2)"/><rect width="11.232" height=".753" x="16.718" y="40.803" fill="url(#1)" rx=".377"/><ellipse ry="1.04" rx="1.04" cy="41.21" cx="32.607" opacity=".452" fill="url(#3)"/><g stroke="#909296"><g fill="#e3e8ea" stroke="none"><path d="m32.605 41.23c.023 0 .044-.009.061-.026.017-.017.026-.037.026-.061v-.433c0-.023-.009-.044-.026-.061-.017-.017-.037-.026-.061-.026-.023 0-.044.009-.061.026-.017.017-.026.037-.026.061v.433c0 .023.009.044.026.061.017.017.037.026.061.026" opacity=".668"/><path d="m33.07 41c-.036-.073-.087-.134-.153-.183-.019-.014-.04-.02-.064-.017-.024.003-.043.014-.057.034-.014.019-.02.04-.017.064.003.024.015.043.034.057.044.033.078.074.103.123.024.048.036.1.036.154 0 .047-.009.092-.027.134-.018.043-.043.08-.074.111-.031.031-.068.056-.111.074-.043.018-.087.027-.134.027-.047 0-.092-.009-.134-.027-.043-.018-.08-.043-.111-.074-.031-.031-.056-.068-.074-.111-.018-.043-.027-.087-.027-.134 0-.055.012-.106.036-.154.024-.048.058-.089.103-.123.019-.014.03-.034.034-.057.003-.024-.002-.045-.017-.064-.014-.019-.033-.031-.057-.034-.024-.003-.045.002-.065.017-.066.049-.117.11-.153.183-.036.073-.054.15-.054.232 0 .07.014.138.041.202.028.064.065.119.111.166.046.046.102.084.166.111.064.028.131.041.202.041.07 0 .138-.014.202-.041.064-.028.119-.065.166-.111.046-.046.083-.102.111-.166.028-.064.041-.131.041-.202 0-.082-.018-.16-.054-.232z" opacity=".668"/></g><g fill="#a1a7ae" stroke-width=".086"><path d="m22.699 27.07l-2.986 5.92c1.313.29 2.738.382 4.183.198 4.735-.604 7.937-3.799 7.36-7.211l-8.557 1.093z"/><path d="m18.807 20.776zm.913-.225l2.927 5.817 8.456-1.082c-1.071-3.349-5.594-5.54-10.329-4.935-.366.047-.707.124-1.054.2z"/><path d="m18.807 20.776c-2.395.738-4.207 2.193-5.01 3.933-.461.995-.588 2.086-.318 3.192.548 2.249 2.642 4.01 5.343 4.841l3-5.971-3.02-5.995"/></g></g></g></svg>