<svg xmlns="http://www.w3.org/2000/svg" viewBox="0 0 48 48"><defs><linearGradient id="0" gradientUnits="userSpaceOnUse" x1="487.74" y1="985.35" x2="493.51" y2="11.611"><stop stop-color="#197cf1"/><stop offset="1" stop-color="#20bcfa"/></linearGradient></defs><g transform="matrix(.03098 0 0 .03098 15.999 16.01)" fill="#1d9df6" enable-background="new"><path d="m946.23 206.65c-.3-23-18-42-40.899-44.1-190.3-17.8-345.6-119.5-396.8-156.7-10.7-7.8-25.2-7.8-35.9 0-51.1 37.2-206.4 138.9-396.7 156.7-22.9 2.101-40.5 21.1-40.9 44.1-2.3 150.1 21.8 659.7 444.1 773.1 7.5 2 15.4 2 22.9 0 422.3-113.3 446.4-623 444.2-773.1" transform="matrix(1.57872 0 0 1.57872-516.38-516.38)" fill="url(#0)"/><path d="m946.23 206.65c-.3-23-18-42-40.899-44.1-190.3-17.8-345.6-119.5-396.8-156.7-10.7-7.8-25.2-7.8-35.9 0-51.1 37.2-206.4 138.9-396.7 156.7-22.9 2.101-40.5 21.1-40.9 44.1-2.3 150.1 21.8 659.7 444.1 773.1 7.5 2 15.4 2 22.9 0 422.3-113.3 446.4-623 444.2-773.1" transform="matrix(1.21334 0 0 1.22497-337.98-329.35)" opacity=".675" fill="#fff"/><path d="m353.81 0c-89.89 0-162.56 72.67-162.56 162.56 0 19.12 3.825 38.25 9.562 57.37l-200.81 200.81v95.62h95.62v-57.37h57.37v-57.37h57.37l86.06-86.06c17.213 5.737 36.34 9.562 57.37 9.562 89.89 0 162.56-72.68 162.56-162.56 0-89.89-72.67-162.56-162.56-162.56m47.813 172.12c-32.513 0-57.37-24.862-57.37-57.37 0-32.513 24.862-57.37 57.37-57.37 32.513 0 57.37 24.862 57.37 57.37 0 32.513-24.862 57.37-57.37 57.37z"/></g></svg>