<svg xmlns="http://www.w3.org/2000/svg" viewBox="0 0 48 48"><defs><clipPath><path transform="matrix(15.33333 0 0 11.5 415-125.5)" d="m-24 13c0 1.105-.672 2-1.5 2-.828 0-1.5-.895-1.5-2 0-1.105.672-2 1.5-2 .828 0 1.5.895 1.5 2" fill="#1890d0"/></clipPath><linearGradient gradientTransform="matrix(1.77384 0 0 1.71427 42.46 39.38)" gradientUnits="userSpaceOnUse" y2="-22.851" x2="-11.233" y1="4.675" x1="-10.767" id="0"><stop stop-color="#e1e1e1"/><stop stop-color="#f4f4ff" offset="1"/></linearGradient><linearGradient id="1" x1="-24.479" y1="42.832" x2="-23.449" y2="19.534" gradientUnits="userSpaceOnUse"><stop stop-color="#1b92f4"/><stop stop-color="#20b9fa" offset="1"/></linearGradient></defs><rect height="48" width="48" rx="3.085" fill="url(#0)" stroke-width="1"/><path d="m-15.11 26.792v4.836h-2.644v-4.836zm-2.418-2.38v4.836h-2.644v-4.836zm-2.324-2.38v4.836h-2.644v-4.836zm-2.362-2.418v15.15h-2.602v-15.15zm-2.49 16.444v7.556h-4.874v-7.556zm-7.256.254h7.556v4.874h-7.556zm2.192-2.342h7.556v7.254h-7.556z" opacity=".98" fill="url(#1)" transform="matrix(1.33333 0 0 1.33333 55.38-18.15)"/></svg>