<svg xmlns="http://www.w3.org/2000/svg" viewBox="0 0 48 48"><defs><clipPath><path transform="matrix(15.33333 0 0 11.5 415-125.5)" d="m-24 13c0 1.105-.672 2-1.5 2-.828 0-1.5-.895-1.5-2 0-1.105.672-2 1.5-2 .828 0 1.5.895 1.5 2" fill="#1890d0"/></clipPath><linearGradient id="2" x1="-26.303" y1="29.398" x2="-23.612" y2="16.456" gradientUnits="userSpaceOnUse"><stop stop-color="#1b92f4"/><stop stop-color="#20b9fa" offset="1"/></linearGradient><linearGradient id="1" x1="-31.916" y1="25.328" x2="-26.13" y2=".304" gradientUnits="userSpaceOnUse"><stop stop-color="#222d65"/><stop offset="1" stop-color="#3b4eaf"/></linearGradient><linearGradient gradientTransform="matrix(1.77384 0 0 1.71427 42.46 39.38)" gradientUnits="userSpaceOnUse" y2="-22.851" x2="-11.233" y1="4.675" x1="-10.767" id="0"><stop stop-color="#e1e1e1"/><stop stop-color="#f4f4ff" offset="1"/></linearGradient></defs><rect height="48" width="48" rx="3.085" fill="url(#0)" stroke-width="1"/><g transform="matrix(1.06038 0 0 1.06038 50.993 8.483)"><path d="m-30.978 28.7l.523-3.322-1.165-.027h-5.563l3.866-24.513c.012-.074.051-.143.108-.192.057-.049.13-.076.206-.076h9.38c3.114 0 5.263.648 6.385 1.927.526.6.861 1.227 1.023 1.917.17.724.173 1.589.007 2.644l-.012.077v.676l.526.298c.443.235.795.504 1.065.812.45.513.741 1.165.864 1.938.127.795.085 1.741-.123 2.812-.24 1.232-.628 2.305-1.152 3.183-.482.809-1.096 1.48-1.825 2-.696.494-1.523.869-2.458 1.109-.906.236-1.939.355-3.072.355h-.73c-.522 0-1.029.188-1.427.525-.399.344-.663.814-.744 1.328l-.055.299-.924 5.855-.042.215c-.011.068-.03.102-.058.125-.025.021-.061.035-.096.035h-4.507" fill="#253b80"/><path d="m-15.196 7.213c-.028.179-.06.362-.096.55-1.237 6.351-5.469 8.545-10.874 8.545h-2.752c-.661 0-1.218.48-1.321 1.132l-1.409 8.936-.399 2.533c-.067.428.263.814.695.814h4.881c.578 0 1.069-.42 1.16-.99l.048-.248.919-5.832.059-.32c.09-.572.582-.992 1.16-.992h.73c4.729 0 8.431-1.92 9.513-7.476.452-2.321.218-4.259-.978-5.622-.362-.411-.811-.752-1.336-1.03" fill="url(#2)"/><path d="m-33-.455c-.66 0-1.222.48-1.324 1.133l-3.908 24.766c-.077.49.301.932.795.932h5.791l1.41-8.936c.103-.652.659-1.131 1.32-1.131h2.752c5.405 0 9.636-2.197 10.873-8.547.037-.188.07-.37.098-.549.368-2.347-.002-3.946-1.271-5.393-1.399-1.593-3.923-2.275-7.154-2.275h-9.381" fill="url(#1)"/></g></svg>