<svg xmlns="http://www.w3.org/2000/svg" viewBox="0 0 48 48"><defs><linearGradient id="0" x1="61.57" y1="22.939" x2="60.753" y2="-27.706" gradientUnits="userSpaceOnUse"><stop stop-color="#197cf1"/><stop offset="1" stop-color="#21c9fb"/></linearGradient></defs><path d="m41.36-25.875h42.04c1.652 0 2.982 1.33 2.982 2.982v42.04c0 1.652-1.33 2.982-2.982 2.982h-42.04c-1.652 0-2.982-1.33-2.982-2.982v-42.04c0-1.652 1.33-2.982 2.982-2.982" transform="matrix(.99999 0 0 .99999-38.38 25.875)" fill="url(#0)" fill-rule="evenodd"/><g transform="matrix(.06978 0 0 .06978 6.137 6.137)"><path d="m176 136.13c-8.822 0-16 7.178-16 16 0 8.822 7.178 16 16 16 8.822 0 16-7.178 16-16 0-8.822-7.178-16-16-16"/><path d="m336 136.13c-8.822 0-16 7.178-16 16 0 8.822 7.178 16 16 16 8.822 0 16-7.178 16-16 0-8.822-7.178-16-16-16"/><g fill="#daeffe"><path d="m185.48 325.62c.318-2.918.73-6.06 1.253-9.439 2.243-14.514 5.68-28.06 8.556-37.446l10.226 10.226c-9.496 13.539-15.812 25.919-20.03 36.659"/><path d="m463.24 206.44c-13.522 8.06-30.352 18.09-45.44 36.643-36.464 44.833-60.64 52.46-79.42 53.01-.799-3.62-1.637-7.107-2.487-10.406.128-.132.259-.259.379-.401 29.443-34.938 47.734-85.961 47.734-133.16 0-26.11-5.525-49.18-16.406-68.6-1.134-3.197-.802-7.105.958-10.804 2.052-4.313 5.736-7.665 9.857-8.966 4.213-1.33 6.55-5.824 5.219-10.04-1.33-4.212-5.824-6.551-10.04-5.219-8.401 2.653-15.504 8.977-19.487 17.351-3.725 7.832-4.188 16.551-1.27 23.924.028.071.069.133.099.203.078.181.169.358.261.535.079.151.149.309.236.453 9.667 17.08 14.57 37.65 14.57 61.16 0 40.12-14.275 83.17-37.686 114.86-.723-2.057-1.393-3.809-1.984-5.201-1.173-6.565-8.33-47.521-8.33-69.66 0-4.418-3.582-8-8-8-4.418 0-8 3.582-8 8 0 21.311 5.895 57.1 8.02 69.29l-19.532 19.532c-2.456 1.206-4.234 3.632-4.461 6.558-.033.421-3.285 42.557-5.884 85.13-5.406 88.56-3.02 92.37-.924 95.73 2.02 3.226 5.327 5.107 9.08 5.161 5.274.079 12.429-2.742 28.916-23.7 4.86-6.179 9.25-12.301 12.1-16.381.862.285 1.692.575 2.46.858-.148.291-.299.588-.453.893-4.86 9.576-12.995 25.602-26.912 39.21-15.816 15.464-31.25 22.989-43.47 21.2-8.692-1.277-13.462-6.875-15.933-11.346-11.935-21.596-16.661-97.72-20.11-153.31-.984-15.841-1.913-30.804-2.915-43.45-.002-.021-.006-.042-.008-.063-.008-.089-.021-.176-.031-.265-.013-.108-.028-.216-.045-.323-.011-.067-.018-.135-.031-.202-.015-.081-.037-.16-.054-.241-.023-.104-.048-.208-.075-.311-.019-.072-.033-.146-.054-.217-.021-.073-.05-.144-.073-.217-.033-.102-.068-.203-.105-.304-.027-.073-.049-.149-.078-.221-.026-.065-.059-.127-.087-.192-.045-.104-.093-.207-.142-.309-.034-.069-.063-.141-.098-.209-.03-.057-.066-.111-.097-.167-.059-.107-.121-.212-.185-.317-.039-.064-.074-.13-.115-.192-.033-.05-.071-.097-.105-.147-.072-.105-.147-.208-.224-.309-.046-.06-.089-.123-.137-.182-.037-.046-.079-.09-.118-.136-.08-.094-.162-.187-.247-.278-.055-.06-.109-.12-.166-.178-.014-.015-.027-.031-.041-.046l-21.09-21.09c1.959-12.13 7.438-47.95 7.438-69.25 0-4.418-3.582-8-8-8-4.418 0-8 3.582-8 8 0 22.12-6.614 62.986-7.729 69.71-.641 1.513-1.372 3.44-2.163 5.722-23.661-31.746-38.11-75.08-38.11-115.43 0-23.515 4.905-44.09 14.574-61.17.08-.134.145-.279.218-.419.098-.186.193-.373.275-.563.03-.07.071-.133.1-.204 2.918-7.373 2.456-16.09-1.27-23.924-3.983-8.374-11.09-14.698-19.487-17.351-4.215-1.334-8.708 1.01-10.04 5.219-1.331 4.213 1.01 8.708 5.219 10.04 4.121 1.301 7.805 4.653 9.857 8.966 1.759 3.699 2.092 7.607.958 10.803-10.881 19.419-16.406 42.491-16.406 68.6 0 47.19 18.287 98.21 47.725 133.15.275.326.576.615.889.885-.81 3.163-1.608 6.496-2.369 9.948-18.865-.401-43.17-7.702-80.04-53.03-15.09-18.555-31.921-28.584-45.44-36.643-20.39-12.149-32.713-19.494-32.763-46.15.806-6.18 17.696-41.35 42.14-78.72 12.631-19.314 24.907-35.497 35.5-46.798 15.766-16.822 23.689-18.638 26.364-18.638 15.571 0 29.953 6.123 45.18 12.604 8.423 3.586 16.988 7.216 26.05 9.994-6.226 3.179-12.1 6.86-17.566 11.03-3.512 2.68-4.187 7.7-1.507 11.213 2.68 3.513 7.7 4.189 11.213 1.507 11.928-9.101 26.16-15.529 42.05-19.09.208-.037.414-.079.615-.132 9.457-2.069 19.49-3.131 29.968-3.131 10.51 0 20.556 1.073 30.02 3.148.184.047.372.082.561.116 16.485 3.69 31.18 10.466 43.38 20.12 1.47 1.163 3.221 1.728 4.959 1.728 2.361 0 4.699-1.041 6.278-3.036 2.742-3.465 2.156-8.496-1.308-11.238-5.913-4.68-12.324-8.752-19.15-12.236 9.07-2.779 17.641-6.412 26.07-10 15.226-6.482 29.607-12.604 45.18-12.604 2.675 0 10.598 1.816 26.364 18.638 10.593 11.301 22.869 27.484 35.5 46.798 24.44 37.37 41.33 72.54 42.14 78.72-.049 26.652-12.372 33.997-32.762 46.15z" stroke="#daeffe" stroke-linejoin="round" stroke-linecap="round" stroke-width="7.526"/><path d="m307.11 288.96l10.226-10.226c2.876 9.389 6.313 22.931 8.556 37.446.522 3.38.935 6.521 1.252 9.439-4.222-10.74-10.539-23.12-20.03-36.659"/></g></g></svg>