<svg xmlns="http://www.w3.org/2000/svg" viewBox="0 0 48 48"><defs><linearGradient gradientTransform="matrix(1.77384 0 0 1.71427-5.989 28.572)" gradientUnits="userSpaceOnUse" y2="-22.851" x2="-11.233" y1="4.675" x1="-10.767" id="0"><stop stop-color="#e1e1e1"/><stop stop-color="#f4f4ff" offset="1"/></linearGradient><linearGradient id="1" x1="24.265" y1="36.512" x2="24.02" y2="12.06" gradientUnits="userSpaceOnUse"><stop stop-color="#2e3436"/><stop stop-color="#555753" offset="1"/></linearGradient></defs><g transform="translate(48.45 10.804)"><rect y="-10.804" x="-48.45" height="48" width="48" rx="3.085" fill="url(#0)"/><path d="m24 12.238c-7.94 0-14.784 4.681-17.928 11.436-.097.205-.097.444 0 .652 3.144 6.755 9.987 11.436 17.928 11.436 7.94 0 14.784-4.681 17.928-11.436.097-.205.097-.444 0-.652-3.144-6.755-9.987-11.436-17.928-11.436m0 3.65c4.484 0 8.113 3.633 8.113 8.113 0 4.48-3.633 8.113-8.113 8.113-4.484 0-8.113-3.633-8.113-8.113 0-4.484 3.633-8.113 8.113-8.113m-.939 1.611c-.164 0-.265.078-.305.236-.073.282-.156.807-.246 1.574-.265.085-.521.193-.77.322l-1.168-.906c-.073-.056-.147-.084-.221-.084-.124 0-.39.202-.799.605-.409.403-.687.705-.834.908-.051.073-.076.139-.076.195 0 .068.028.135.084.203.378.457.681.846.906 1.168-.141.26-.251.52-.33.779l-1.574.236c-.062.011-.115.049-.16.111-.045.062-.068.126-.068.193v1.879c0 .073.023.14.068.199.045.059.104.094.178.105l1.549.229c.079.276.193.556.346.838-.102.141-.254.341-.457.598-.203.257-.347.444-.432.563-.045.062-.066.128-.066.195 0 .073.019.137.059.193.22.305.685.779 1.396 1.422.062.062.132.094.211.094.085 0 .156-.025.213-.076l1.193-.906c.231.119.485.224.762.314l.236 1.557c.006.073.038.134.098.182.059.048.128.072.207.072h1.879c.164 0 .267-.078.307-.236.073-.282.154-.807.244-1.574.265-.085.522-.193.77-.322l1.168.914c.079.051.153.076.221.076.124 0 .389-.199.795-.6.406-.401.686-.705.838-.914.051-.056.076-.122.076-.195 0-.073-.027-.143-.084-.211-.406-.497-.709-.886-.906-1.168.113-.209.223-.467.33-.771l1.566-.236c.068-.011.123-.049.168-.111.045-.062.068-.126.068-.193v-1.879c0-.073-.023-.14-.068-.199-.045-.058-.103-.094-.176-.105l-1.549-.236c-.085-.271-.201-.548-.348-.83.102-.141.254-.341.457-.598.203-.257.347-.444.432-.563.045-.062.068-.126.068-.193 0-.079-.021-.142-.061-.188-.203-.288-.669-.768-1.396-1.439-.068-.056-.138-.084-.211-.084-.085 0-.152.025-.203.076l-1.201.906c-.231-.119-.485-.224-.762-.314l-.238-1.557c-.006-.073-.036-.134-.096-.182-.059-.048-.13-.072-.209-.072h-1.879m.939 4.334c.598 0 1.108.212 1.531.635.423.423.635.933.635 1.531 0 .598-.212 1.108-.635 1.531-.423.423-.933.635-1.531.635-.598 0-1.108-.212-1.531-.635-.423-.423-.635-.933-.635-1.531 0-.598.212-1.108.635-1.531.423-.423.933-.635 1.531-.635" transform="translate(-48.45-10.804)" fill="url(#1)"/></g></svg>