<svg xmlns="http://www.w3.org/2000/svg" xmlns:xlink="http://www.w3.org/1999/xlink" viewBox="0 0 48 48"><defs><linearGradient xlink:href="#0" id="6" x1="333.48" y1="522.39" x2="333.2" y2="518.53" gradientUnits="userSpaceOnUse"/><linearGradient xlink:href="#0" id="A" x1="353.1" y1="543.11" x2="352.75" y2="500.26" gradientUnits="userSpaceOnUse"/><linearGradient xlink:href="#0" id="7" x1="359.29" y1="533.05" x2="359.01" y2="529.2" gradientUnits="userSpaceOnUse"/><linearGradient xlink:href="#0" id="9" x1="338.06" y1="511.34" x2="337.77" y2="507.48" gradientUnits="userSpaceOnUse"/><linearGradient xlink:href="#0" id="8" x1="338.02" y1="533.08" x2="337.74" y2="529.22" gradientUnits="userSpaceOnUse"/><linearGradient xlink:href="#0" id="5" x1="363.99" y1="522.39" x2="363.7" y2="518.53" gradientUnits="userSpaceOnUse"/><linearGradient id="0"><stop stop-color="#1584d8"/><stop offset="1" stop-color="#1cb2ff"/></linearGradient><linearGradient xlink:href="#0" id="4" x1="348.91" y1="537.41" x2="348.62" y2="533.55" gradientUnits="userSpaceOnUse"/><linearGradient id="1" x1="347.75" y1="540.87" x2="347.97" y2="501.65" gradientUnits="userSpaceOnUse"><stop stop-color="#2e3e46"/><stop offset="1" stop-color="#435a64"/></linearGradient><linearGradient xlink:href="#0" id="3" x1="348.91" y1="506.91" x2="348.62" y2="503.05" gradientUnits="userSpaceOnUse"/><linearGradient xlink:href="#0" id="2" x1="342.95" y1="538.63" x2="343.58" y2="506.25" gradientUnits="userSpaceOnUse"/></defs><g transform="matrix(1.20192 0 0 1.20192-394.84-601.5)"><circle r="19.218" cy="520.44" cx="348.55" fill="url(#1)" stroke="url(#A)" stroke-linejoin="round" stroke-linecap="round" stroke-width="1.5"/><circle cx="348.7" cy="505.24" r="1.337" fill="url(#3)"/><g transform="matrix(.74283 0 0 .74283 95.27 131.89)" fill="url(#2)"><circle r="15.06" cy="523.32" cx="341.12"/><path d="m344.09 508.55c4.112 1.721 10.235-3.241 12.175-.985 2.081 1.629-1.935 6.434-.738 11.219z" fill-rule="evenodd"/></g><circle cx="348.7" cy="535.74" r="1.337" fill="url(#4)"/><circle cx="363.78" cy="520.72" r="1.337" fill="url(#5)"/><circle cx="333.27" cy="520.72" r="1.337" fill="url(#6)"/><circle cx="359.09" cy="531.38" r="1.337" fill="url(#7)"/><circle cx="337.82" cy="531.4" r="1.337" fill="url(#8)"/><circle cx="337.85" cy="509.67" r="1.337" fill="url(#9)"/></g></svg>