<svg xmlns="http://www.w3.org/2000/svg" viewBox="0 0 48 48"><defs><clipPath><path transform="matrix(15.33333 0 0 11.5 415-125.5)" d="m-24 13c0 1.105-.672 2-1.5 2-.828 0-1.5-.895-1.5-2 0-1.105.672-2 1.5-2 .828 0 1.5.895 1.5 2" fill="#1890d0"/></clipPath><linearGradient y1="545.8" x2="0" y2="517.8" gradientUnits="userSpaceOnUse"><stop stop-color="#3889e9"/><stop offset="1" stop-color="#5ea5fb"/></linearGradient><linearGradient id="1" gradientUnits="userSpaceOnUse" y1="653.96" x2="0" y2="301.3"><stop stop-color="#4965b6"/><stop offset="1" stop-color="#8d9dcc"/></linearGradient><linearGradient id="0" y1="653.96" x2="0" y2="301.3" gradientUnits="userSpaceOnUse"><stop stop-color="#0a80fd"/><stop offset="1" stop-color="#56c5fa"/></linearGradient></defs><circle cx="-325.89" cy="478.75" r="173.45" fill="url(#1)" transform="matrix(.13837 0 0 .13837 69.1-42.09)"/><path d="m428.92 524.46c-.56.157-1.01.782-1.01 1.389v9.625c-.568-.311-1.297-.437-2.053-.231-1.364.371-2.219 1.571-1.927 2.679.292 1.108 1.637 1.727 3 1.356 1.089-.296 1.839-1.134 1.959-2.02l.032-9.1 7.08-1.985v7.178c-.568-.311-1.297-.437-2.053-.232-1.364.371-2.219 1.571-1.927 2.679.293 1.108 1.637 1.727 3 1.356 1.089-.296 1.839-1.134 1.959-2.02l.032-11.842c0-.455-.269-.796-.632-.86l-7.455 2.02" opacity=".9" fill="#fff" fill-opacity=".847" transform="matrix(1.41641 0 0 1.41641-587.15-727.68)"/></svg>