<svg xmlns="http://www.w3.org/2000/svg" viewBox="0 0 48 48"><defs><filter color-interpolation-filters="sRGB"><feGaussianBlur stdDeviation="1.71"/></filter><linearGradient id="0" x1="25.598" y1="47.73" x2="24.13" y2=".701" gradientUnits="userSpaceOnUse"><stop stop-color="#00a661"/><stop offset="1" stop-color="#37ce97"/></linearGradient></defs><path d="m2.98-.002h42.04c1.652 0 2.982 1.33 2.982 2.982v42.04c0 1.652-1.33 2.982-2.982 2.982h-42.04c-1.652 0-2.982-1.33-2.982-2.982v-42.04c0-1.652 1.33-2.982 2.982-2.982" fill="url(#0)" fill-rule="evenodd"/><g transform="matrix(1.24444 0 0 1.24444-57.41 9.167)" fill="#e6ffff"><path d="m134.95-4.37l-13.907 15.56 6.971 1.8-13.659 13.08 7.183 1.8-13.553 12.42 22.541 4.7v4.64h8.917v-4.62l22.541-4.72-13.553-12.42 7.183-1.8-13.659-13.08 6.971-1.8-13.907-15.56h-.071" fill="#dcf4eb" transform="matrix(.47619 0 0 .47619 1.143 1.143)"/></g></svg>