<svg xmlns="http://www.w3.org/2000/svg" viewBox="0 0 48 48"><defs><linearGradient id="0" gradientUnits="userSpaceOnUse" x1="469.05" y1="76.873" x2="469.39" y2="-3.038"><stop stop-color="#fefffe"/><stop offset="1" stop-color="#f1f1f0"/></linearGradient><linearGradient gradientUnits="userSpaceOnUse" y2="-75.34" x2="467.54" y1="130.35" x1="468.86" id="1"><stop stop-color="#124da4"/><stop offset="1" stop-color="#2896ff"/></linearGradient><linearGradient gradientTransform="matrix(.99787 0 0 1 .79.581)" gradientUnits="userSpaceOnUse" y2="36.36" x2="472.17" y1="122.17" x1="469.01" id="2"><stop stop-color="#2381dd"/><stop offset="1" stop-color="#2381dd"/></linearGradient></defs><g transform="matrix(.24746-.00107.00107.24746-92.09 14.499)" fill="url(#0)"><rect transform="matrix(.99999.00434-.00434.99999 0 0)" y="-53.56" x="376.8" height="183.91" width="184.12" fill="url(#1)" rx="11.359"/><path d="m376.74 38.882l183.85.798 4.689 70.61c0 0 2.183 11.544-10.958 11.523l-170.1-.26c-14.496.194-12.238-12.189-12.238-12.189z" fill="url(#2)" fill-rule="evenodd"/><g fill="#fff" fill-opacity=".851"><path d="m463.01 75.11h-48.53v-10.239q21.814-21.925 27.935-28.603 5.454-6.121 7.346-9.238 1.892-3.228 1.892-7.902 0-4.786-3.784-8.459-3.784-3.673-10.128-3.673-5.787 0-9.349 3.45-3.561 3.339-4.563 7.234l-9.349-3.784q1.892-6.01 7.902-11.352 6.01-5.342 15.581-5.342 10.573 0 17.362 6.455 6.789 6.455 6.789 15.47 0 11.13-12.13 23.817l-22.259 22.371h35.28v9.794"/><path d="m496.8 76.887q-7.679 0-14.914-4.786-7.234-4.786-10.02-14.246l9.349-3.895q1.781 6.233 5.899 9.683 4.118 3.45 9.683 3.45 6.233 0 10.684-3.895 4.563-3.895 4.563-9.683 0-5.676-4.674-9.571-4.563-3.895-11.02-3.895h-6.566v-9.571h5.787q6.01 0 9.905-3.339 4.01-3.339 4.01-8.904 0-5.231-3.895-8.236-3.784-3-9.46-3-9.794 0-13.244 9.905l-9.46-4.01q2.226-6.121 7.902-10.907 5.676-4.786 14.802-4.786 10.239 0 17.03 6.01 6.789 5.899 6.789 15.02 0 11.02-10.239 16.361v.445q5.565 2.337 9.126 7.123 3.673 4.786 3.673 11.352 0 10.128-7.457 16.806-7.457 6.566-18.253 6.566"/></g></g></svg>