<?xml version="1.0" encoding="UTF-8" standalone="no"?>
<svg
   xmlns:dc="http://purl.org/dc/elements/1.1/"
   xmlns:cc="http://creativecommons.org/ns#"
   xmlns:rdf="http://www.w3.org/1999/02/22-rdf-syntax-ns#"
   xmlns:svg="http://www.w3.org/2000/svg"
   xmlns="http://www.w3.org/2000/svg"
   xmlns:xlink="http://www.w3.org/1999/xlink"
   xmlns:sodipodi="http://sodipodi.sourceforge.net/DTD/sodipodi-0.dtd"
   xmlns:inkscape="http://www.inkscape.org/namespaces/inkscape"
   version="1.1"
   width="48"
   height="48"
   id="svg39"
   sodipodi:docname="plasmadiscover.svg"
   inkscape:version="0.92.3 (2405546, 2018-03-11)">
  <metadata
     id="metadata43">
    <rdf:RDF>
      <cc:Work
         rdf:about="">
        <dc:format>image/svg+xml</dc:format>
        <dc:type
           rdf:resource="http://purl.org/dc/dcmitype/StillImage" />
        <dc:title></dc:title>
      </cc:Work>
    </rdf:RDF>
  </metadata>
  <sodipodi:namedview
     pagecolor="#ffffff"
     bordercolor="#666666"
     borderopacity="1"
     objecttolerance="10"
     gridtolerance="10"
     guidetolerance="10"
     inkscape:pageopacity="0"
     inkscape:pageshadow="2"
     inkscape:window-width="1237"
     inkscape:window-height="645"
     id="namedview41"
     showgrid="false"
     inkscape:zoom="4.9166667"
     inkscape:cx="39.355932"
     inkscape:cy="24.929864"
     inkscape:window-x="0"
     inkscape:window-y="0"
     inkscape:window-maximized="0"
     inkscape:current-layer="svg39" />
  <defs
     id="defs24">
    <linearGradient
       id="frontGrad"
       x1="0"
       y1="1"
       x2="0"
       y2="0">
      <stop
         stop-color="#ECECEC"
         offset="0"
         id="stop2" />
      <stop
         stop-color="#FFF"
         offset="1"
         id="stop4" />
    </linearGradient>
    <linearGradient
       id="backGrad"
       x1="0"
       y1="0"
       x2="1"
       y2="0">
      <stop
         stop-color="#D9D9D9"
         offset="0"
         id="stop7" />
      <stop
         stop-color="#EEE"
         offset="1"
         id="stop9" />
    </linearGradient>
    <linearGradient
       id="leftfrontfoldGrad"
       xlink:href="#frontGrad"
       x1="1.5954481"
       y1="6.8946149"
       x2="5.9829303"
       y2="6.8946149"
       gradientTransform="scale(1.2535663,0.79772404)"
       gradientUnits="userSpaceOnUse" />
    <linearGradient
       id="rightfrontfoldGrad"
       xlink:href="#frontGrad"
       x1="36.695306"
       y1="6.8946149"
       x2="32.307823"
       y2="6.8946149"
       gradientTransform="scale(1.2535663,0.79772404)"
       gradientUnits="userSpaceOnUse" />
    <linearGradient
       id="rightbackfoldGrad"
       xlink:href="#backGrad"
       x1="52.590059"
       y1="2.5099801"
       x2="48.406759"
       y2="2.5099801"
       gradientTransform="scale(0.83666003,1.1952286)"
       gradientUnits="userSpaceOnUse" />
    <linearGradient
       id="leftbackfoldGrad"
       xlink:href="#backGrad"
       x1="11.109841"
       y1="1.0801234"
       x2="20.830952"
       y2="1.0801234"
       gradientTransform="scale(0.36004115,2.7774603)"
       gradientUnits="userSpaceOnUse" />
    <linearGradient
       id="handleGrad"
       x1="9.5395758"
       y1="19.079111"
       x2="9.5395758"
       y2="2.4525932"
       gradientTransform="matrix(1.4002516,0,0,0.79208796,-0.89676425,-1.5581376)"
       gradientUnits="userSpaceOnUse">
      <stop
         stop-color="#E6E6E6"
         offset="0"
         id="stop16" />
      <stop
         stop-color="#FFF"
         offset="1"
         id="stop18" />
    </linearGradient>
    <clipPath
       id="frontClip">
      <rect
         x="2"
         y="9"
         width="44"
         height="37"
         id="rect21" />
    </clipPath>
    <linearGradient
       id="h"
       y1="19"
       y2="3"
       x2="0"
       gradientUnits="userSpaceOnUse"
       gradientTransform="translate(12.59322,15.881356)">
      <stop
         stop-color="#7cbaf8"
         id="stop21" />
      <stop
         offset="1"
         stop-color="#f4fcff"
         id="stop23" />
    </linearGradient>
    <linearGradient
       inkscape:collect="always"
       xlink:href="#frontGrad"
       id="linearGradient874"
       x1="1.8340219"
       y1="50.162978"
       x2="1.8340219"
       y2="9.8144956"
       gradientTransform="scale(1.0904995,0.91701095)"
       gradientUnits="userSpaceOnUse" />
    <linearGradient
       inkscape:collect="always"
       xlink:href="#backGrad"
       id="linearGradient876"
       x1="2"
       y1="6"
       x2="22"
       y2="6"
       gradientTransform="matrix(2.083205,0,0,0.53241156,-0.89676425,-1.5581376)"
       gradientUnits="userSpaceOnUse" />
  </defs>
  <rect
     id="back"
     x="3.2696457"
     y="1.6363317"
     width="41.664101"
     height="10.648231"
     style="fill:url(#linearGradient876);stroke-width:0.99999994" />
  <polygon
     id="leftbackfold"
     points="4,3 4,30 7.5,5.5 "
     transform="matrix(1.0416025,0,0,1.0648232,-0.89676425,-1.5581376)"
     style="fill:url(#leftbackfoldGrad);stroke-width:0.9495334" />
  <polygon
     id="rightbackfold"
     points="44,3 44,8 40.5,5.5 "
     transform="matrix(1.0416025,0,0,1.0648232,-0.89676425,-1.5581376)"
     style="fill:url(#rightbackfoldGrad);stroke-width:0.9495334" />
  <polygon
     id="shadow"
     points="7.5,5.5 15.2,11 4,11 "
     transform="matrix(1.0416025,0,0,1.0648232,-0.89676425,-1.5581376)"
     style="opacity:0.07999998;fill:#000000;stroke-width:0.9495334" />
  <rect
     id="frontnew"
     x="2"
     y="6"
     width="44"
     height="40"
     rx="3"
     clip-path="url(#frontClip)"
     transform="matrix(1.0416025,0,0,1.0648232,-0.89676425,-1.5581376)"
     style="fill:url(#linearGradient874);stroke-width:0.9495334" />
  <polygon
     id="rightfrontfold"
     points="46,9 40.5,9 40.5,5.5 "
     transform="matrix(1.0416025,0,0,1.0648232,-0.89676425,-1.5581376)"
     style="fill:url(#rightfrontfoldGrad);stroke-width:0.9495334" />
  <polygon
     id="leftfrontfold"
     points="7.5,5.5 2,9 7.5,9 "
     transform="matrix(1.0416025,0,0,1.0648232,-0.89676425,-1.5581376)"
     style="fill:url(#leftfrontfoldGrad);stroke-width:0.9495334" />
  <ellipse
     class="hole"
     cx="13.685671"
     cy="13.349386"
     id="circle33"
     style="opacity:0.3;fill:#000000;stroke-width:0.99999994"
     rx="2.083205"
     ry="2.1296461" />
  <ellipse
     class="hole"
     cx="34.517723"
     cy="13.349386"
     id="circle35"
     style="opacity:0.3;fill:#000000;stroke-width:0.99999994"
     rx="2.083205"
     ry="2.1296461" />
  <path
     id="handle"
     d="m 34.517721,12.284563 a 10.416025,10.648232 0 1 0 -20.83205,0"
     inkscape:connector-curvature="0"
     style="fill:none;stroke:url(#handleGrad);stroke-width:2.39999986;stroke-linecap:round" />
  <path
     inkscape:connector-curvature="0"
     style="fill:#7c71f8;fill-opacity:1;stroke-width:0.99999994"
     d="m 19.935285,20.676813 c -0.635731,0 -1.147529,0.541317 -1.147529,1.213717 0,0.6724 0.511798,1.213719 1.147529,1.213719 0.63573,0 1.147528,-0.541319 1.147528,-1.213719 0,-0.6724 -0.511798,-1.213717 -1.147528,-1.213717 m 8.032697,0 -2.295056,2.427436 3.442584,3.641152 -3.442584,3.641155 2.295056,2.427436 5.737641,-6.068591 z m -10.901517,7.282306 c -0.953596,0 -1.721293,0.811978 -1.721293,1.820579 0,1.008598 0.767697,1.820576 1.721293,1.820576 0.953596,0 1.721291,-0.811978 1.721291,-1.820576 0,-1.008601 -0.767695,-1.820579 -1.721291,-1.820579 m 5.163876,7.282308 c -1.271461,0 -2.295056,1.082637 -2.295056,2.427436 0,1.3448 1.023595,2.427436 2.295056,2.427436 1.271462,0 2.295057,-1.082636 2.295057,-2.427436 0,-1.344799 -1.023595,-2.427436 -2.295057,-2.427436"
     id="path54" />
</svg>
