<svg xmlns="http://www.w3.org/2000/svg" viewBox="0 0 48 48"><defs><linearGradient id="3" x1="319.69" y1="602.43" x2="319.61" y2="592.33" gradientUnits="userSpaceOnUse"><stop stop-color="#eb4646"/><stop stop-color="#ff8651" offset="1"/></linearGradient><linearGradient id="4" x1="319.55" y1="591.78" x2="318.7" y2="578.45" gradientUnits="userSpaceOnUse"><stop stop-color="#4fd127"/><stop stop-color="#c6f61a" offset="1"/></linearGradient><linearGradient id="2" gradientUnits="userSpaceOnUse" gradientTransform="matrix(.22328 0 0 .22298 276.57 532.32)" x1="133.15" y1="333.39" x2="136.05" y2="210.23"><stop stop-color="#197cf1"/><stop stop-color="#20bcfa" offset="1"/></linearGradient><linearGradient gradientTransform="matrix(1.77384 0 0 1.71427-5.989 28.572)" gradientUnits="userSpaceOnUse" y2="-22.851" x2="-11.233" y1="4.675" x1="-10.767" id="0"><stop stop-color="#e1e1e1"/><stop stop-color="#f4f4ff" offset="1"/></linearGradient><linearGradient id="1" gradientUnits="userSpaceOnUse" gradientTransform="matrix(.22328 0 0 .22298 276.39 532.32)" x1="226.86" y1="284.51" x2="226.19" y2="249.58"><stop stop-color="#ffbc00"/><stop stop-color="#ffec00" offset="1"/></linearGradient></defs><g transform="translate(48.45 10.804)"><rect y="-10.804" x="-48.45" height="48" width="48" rx="3.085" fill="url(#0)"/><g transform="matrix(1.11111 0 0 1.11111-377.48-645.46)"><path d="m324.14 597.23c3.413-1.866 6.02-3.291 6.257-3.42.707-.387 1.448-1.373 0-2.162-.466-.254-3-1.635-6.261-3.411l-4.482 4.511 4.486 4.483" fill="url(#1)"/><path d="m319.66 592.75l-14.336 14.426c.324.041.713-.045 1.161-.289.927-.507 10.886-5.95 17.662-9.655l-4.487-4.482" fill="url(#3)"/><path d="m319.66 592.75l4.482-4.511c0 0-16.66-9.08-17.658-9.621-.383-.209-.801-.282-1.171-.2l14.347 14.331" fill="url(#4)"/><path d="m319.84 592.75l-14.347-14.331c-.593.132-1.078.644-1.078 1.674 0 1.672 0 23.96 0 25.364 0 .97.382 1.651 1.088 1.719l14.337-14.426" fill="url(#2)"/></g></g></svg>