<svg xmlns="http://www.w3.org/2000/svg" viewBox="0 0 48 48"><defs><linearGradient gradientTransform="matrix(1.05233 0 0 1.02761-21.291-14.594)" gradientUnits="userSpaceOnUse" y2="507.8" x2="0" y1="542.8" id="0"><stop stop-color="#141414"/><stop offset="1" stop-color="#2d2d2f"/></linearGradient><linearGradient id="1" x1="407.61" y1="544.09" x2="407.79" y2="530.79" gradientUnits="userSpaceOnUse"><stop stop-color="#ff9300"/><stop offset="1" stop-color="#ffd702"/></linearGradient></defs><rect width="46.3" height="34.939" x="385.51" y="507.23" fill="url(#0)" rx="1.644" stroke-width="1" transform="matrix(1.03666 0 0 1.03666-399.64-519.93)"/><path d="m416.84 538.93c.769 0 1.393-.608 1.393-1.359 0-.749-.623-1.358-1.393-1.358-.769 0-1.392.608-1.392 1.358 0 .751.623 1.359 1.392 1.359m-5.105 0c.769 0 1.393-.608 1.393-1.359 0-.749-.623-1.358-1.393-1.358-.769 0-1.392.608-1.392 1.358 0 .751.623 1.359 1.392 1.359m-6.485 5.162c1.322 0 2.554-.375 3.591-1.023.604-.376.609-1.182.102-1.676l-2.775-2.709c-.508-.495-.508-1.297 0-1.791l3-2.927c.508-.495.522-1.319-.062-1.722-1.09-.753-2.42-1.196-3.857-1.196-3.69.0001-6.682 2.922-6.682 6.523 0 3.601 2.992 6.521 6.683 6.521" fill="url(#1)" stroke="none" transform="matrix(1.42378 0 0 1.41939-557.48-739.03)" stroke-opacity=".8"/></svg>