<svg xmlns="http://www.w3.org/2000/svg" viewBox="0 0 48 48"><defs><clipPath id="1"><path transform="matrix(15.33333 0 0 11.5 415-125.5)" d="m-24 13c0 1.105-.672 2-1.5 2-.828 0-1.5-.895-1.5-2 0-1.105.672-2 1.5-2 .828 0 1.5.895 1.5 2" fill="#1890d0"/></clipPath><linearGradient id="0" x1="27.456" y1="47.39" x2="26.442" y2="1.017" gradientUnits="userSpaceOnUse"><stop stop-color="#ffbc00"/><stop offset="1" stop-color="#ffec00"/></linearGradient></defs><path d="m2.98-.002h42.04c1.652 0 2.982 1.33 2.982 2.982v42.04c0 1.652-1.33 2.982-2.982 2.982h-42.04c-1.652 0-2.982-1.33-2.982-2.982v-42.04c0-1.652 1.33-2.982 2.982-2.982" fill="url(#0)" fill-rule="evenodd"/><g transform="matrix(1.5644 0 0 1.5644-12.763-14.318)" fill-opacity=".844"><g clip-path="url(#1)" fill-opacity=".844"><g fill-opacity=".844"><path d="m18 24c-3.313 0-6 2.688-6 6 0 3.313 2.688 6 6 6 3.313 0 6-2.688 6-6h-6"/><path d="m25.02 29h1v.996h-1"/><path d="m19 27h1v2h-1"/><path d="m21 28v-1h2v1"/><path d="m34 24h1v.996h-1"/><path d="m20 16h.996v1h-.996"/><path d="m19 24h1v.996h-1"/><path d="m29 16h.996v1h-.996"/><path d="m25.02 19v-1h2v1"/><path d="m22 19h1v1.996h-1"/><path d="m21 23v1h1v1h1v-2"/><path d="m26 26h-1v1h-.996v1h1.996"/><path d="m28 24v.996h1v1h.996v-1.996"/><path d="m26 21v1h-1v1h1v1h1v-3"/><path d="m19 20h1v-1h.996v-1h-1.996"/><path d="m27 15v-.996h3v.996"/><path d="m28 13.988v-1h1v1"/><path d="m31 22h1v1h-1"/><path d="m35 21v-.996h-1v-1h-.996v1.996"/><path d="m25.02 13h1v2h-1"/><path d="m22 16v-.996h2v.996"/><path d="m31.996 13h1v1h-1"/><path d="m31 20h-1v-1h-.996v1h-1v.996h3v-.996"/><path d="m33 18v-1h1.996v1"/></g></g></g></svg>