<svg xmlns="http://www.w3.org/2000/svg" viewBox="0 0 48 48"><defs><clipPath><path transform="matrix(15.33333 0 0 11.5 415-125.5)" d="m-24 13c0 1.105-.672 2-1.5 2-.828 0-1.5-.895-1.5-2 0-1.105.672-2 1.5-2 .828 0 1.5.895 1.5 2" fill="#1890d0"/></clipPath><linearGradient y1="545.8" x2="0" y2="517.8" gradientUnits="userSpaceOnUse"><stop stop-color="#3889e9"/><stop offset="1" stop-color="#5ea5fb"/></linearGradient><linearGradient id="1" gradientUnits="userSpaceOnUse" y1="653.96" x2="0" y2="301.3"><stop stop-color="#4965b6"/><stop offset="1" stop-color="#8d9dcc"/></linearGradient><linearGradient id="0" y1="653.96" x2="0" y2="301.3" gradientUnits="userSpaceOnUse"><stop stop-color="#0a80fd"/><stop offset="1" stop-color="#56c5fa"/></linearGradient></defs><circle cx="-325.89" cy="478.75" r="173.45" fill="url(#1)" transform="matrix(.13837 0 0 .13837 69.1-42.09)"/><path d="m61.53 5.232c-.101.09-.25.095-.357.013l-3.56-2.709-1.687 10.09c-.006.038-.02.073-.04.105-.338 1.446-2.184 2.525-4.355 2.525-2.433 0-4.413-1.347-4.413-3 0-1.656 1.979-3 4.413-3 .999 0 1.949.223 2.721.633l2.231-12.653c.02-.115.11-.208.228-.229.113-.02.232.032.292.134l4.582 7.744c.069.118.046.265-.055.355" transform="matrix(1.71425 0 0 1.71425-69.19 13.482)" fill="#dee3f1" enable-background="new"/></svg>