<svg xmlns="http://www.w3.org/2000/svg" viewBox="0 0 48 48"><defs><linearGradient gradientTransform="matrix(1.77384 0 0 1.71427-5.989 28.572)" gradientUnits="userSpaceOnUse" y2="-22.851" x2="-11.233" y1="4.675" x1="-10.767" id="0"><stop stop-color="#b62b76"/><stop offset="1" stop-color="#e04d9d"/></linearGradient><linearGradient gradientUnits="userSpaceOnUse" y2="-4.65" x2="0" y1="31.35" id="1"><stop stop-color="#eec9dd"/><stop offset="1" stop-color="#fbf9fa"/></linearGradient></defs><g transform="translate(48.45 10.804)"><rect y="-10.804" x="-48.45" height="48" width="48" rx="3.085" fill="url(#0)"/><path d="m-24.449-4.804c-9.94 0-18 8.06-18 18 0 9.941 8.06 18 18 18 9.941 0 18-8.06 18-18 0-9.941-8.06-18-18-18m0 3.375c8.08 0 14.625 6.548 14.625 14.625 0 8.08-6.548 14.625-14.625 14.625-8.08 0-14.625-6.548-14.625-14.625 0-8.08 6.549-14.625 14.625-14.625m0 3.375c-6.213 0-11.25 5.04-11.25 11.25 0 6.213 5.04 11.25 11.25 11.25 6.213 0 11.25-5.04 11.25-11.25 0-6.213-5.04-11.25-11.25-11.25" fill="url(#1)"/></g></svg>