<svg xmlns="http://www.w3.org/2000/svg" viewBox="0 0 48 48"><defs><linearGradient gradientTransform="matrix(1.77384 0 0 1.71427-5.989 28.572)" gradientUnits="userSpaceOnUse" y2="-22.851" x2="-11.233" y1="4.675" x1="-10.767" id="0"><stop stop-color="#e1e1e1"/><stop stop-color="#f4f4ff" offset="1"/></linearGradient><linearGradient gradientUnits="userSpaceOnUse" y2="-27.706" x2="60.753" y1="22.939" x1="61.57" id="1"><stop stop-color="#197cf1"/><stop stop-color="#21c9fb" offset="1"/></linearGradient></defs><g transform="translate(48.45 10.804)"><rect y="-10.804" x="-48.45" height="48" width="48" rx="3.085" fill="url(#0)"/><path transform="matrix(.99999 0 0 .99999-86.83 15.07)" d="m38.38-1.871h48v4.779 16.24c0 1.652-1.33 2.982-2.982 2.982h-42.04c-1.652 0-2.982-1.33-2.982-2.982v-16.24-4.779" fill="url(#1)" fill-rule="evenodd"/><path d="m-19.228 6.212c.004-.904.007-2.283.007-3.065v-1.422h-.035c-.019 0-1.514-.015-3.323-.038-1.809-.019-3.354-.038-3.434-.038h-.146v2.417c0 1.33.0001 2.417.003 2.417.002 0 1.552.308 3.445.684 1.893.376 3.45.684 3.459.685.015-.0001.017-.154.024-1.644zm-7.523-2.205c.004-1.298.006-2.361.004-2.363-.002 0-4.119-.049-4.25-.047h-.082v1.954 1.955l.024.014c.019.014 4.266.85 4.291.854.004 0 .009-1.068.013-2.366zm-2.075-2.909c.979-.014 1.848-.019 1.931-.021h.151v-2.365-2.365l-.029.014c-.016 0-.991.196-2.167.429l-2.138.424v1.958 1.957h.236c.13 0 1.037-.015 2.02-.026zm6.268-.07c1.832-.02 3.332-.04 3.334-.041.002 0 .002-1.383.0001-3.069l-.003-3.065-3.15.625c-1.733.344-3.291.653-3.464.687l-.313.063-.003 2.419-.003 2.419h.135c.075 0 1.635-.017 3.467-.039z" fill="#1da0f6"/><path d="m-29.651 19.2v12l10.404-6z" fill="#deeffd" stroke="#deeffd" stroke-linejoin="round" stroke-linecap="round" color="#000"/></g></svg>