<svg xmlns="http://www.w3.org/2000/svg" viewBox="0 0 48 48"><defs><linearGradient gradientTransform="matrix(1.05233 0 0 1.02761-69.41-5.099)" gradientUnits="userSpaceOnUse" y2="507.8" x2="0" y1="542.8" id="0"><stop stop-color="#197cf1"/><stop offset="1" stop-color="#20bcfa"/></linearGradient></defs><g transform="matrix(1.03666 0 0 1.03666-349.76-529.77)"><rect width="46.3" height="34.939" x="337.39" y="516.72" fill="url(#0)" rx="1.644" stroke-width="1"/><path d="m123.43-11.645c-1.047-1.047-2.288-1.571-3.721-1.571h-116.43c-1.434 0-2.675.524-3.722 1.571-1.047 1.047-1.571 2.288-1.571 3.721v116.43c0 1.433.524 2.675 1.571 3.721 1.048 1.047 2.289 1.572 3.722 1.572h116.43c1.433 0 2.673-.525 3.721-1.572 1.046-1.046 1.57-2.288 1.57-3.721v-116.43c0-1.434-.523-2.673-1.57-3.721m-67.23 98.99c0 .772-.248 1.406-.744 1.902-.496.495-1.131.744-1.902.744h-39.693c-.772 0-1.406-.249-1.902-.744-.495-.496-.744-1.13-.744-1.902v-84.68c0-.772.248-1.406.744-1.902.496-.495 1.13-.744 1.902-.744h39.693c.771 0 1.406.249 1.902.744.496.496.744 1.13.744 1.902v84.68m55.57-31.755c0 .772-.248 1.407-.744 1.902-.495.496-1.13.744-1.901.744h-39.692c-.774 0-1.407-.248-1.903-.744-.495-.495-.743-1.13-.743-1.902v-52.925c0-.772.248-1.406.743-1.902.496-.495 1.129-.744 1.903-.744h39.692c.771 0 1.406.249 1.901.744.496.496.744 1.13.744 1.902v52.925" fill="#fff" fill-opacity=".847" transform="matrix(.18227 0 0 .18227 349.34 525.03)"/></g></svg>