<svg xmlns="http://www.w3.org/2000/svg" viewBox="0 0 48 48"><defs><linearGradient gradientTransform="matrix(1.05233 0 0 1.02761-72.68-8.584)" gradientUnits="userSpaceOnUse" y2="507.8" x2="0" y1="542.8" id="0"><stop stop-color="#6c6d6e"/><stop offset="1" stop-color="#9b9c9e"/></linearGradient></defs><g transform="translate(-384.57-499.8)"><flowRoot transform="translate(389.57 520.8)" font-family="sans-serif" text-align="start" word-spacing="0" line-height="125%" letter-spacing="0" font-size="10"><flowRegion><path d="m22 3h27v15h-27z"/></flowRegion><flowPara>Plasm</flowPara></flowRoot><g transform="matrix(1.03666 0 0 .99347 38.19-3.441)"><rect y="513.24" x="334.12" height="34.939" width="46.3" fill="url(#0)" rx="1.644" stroke-width="1"/><g transform="matrix(1.19317 0 0 1.19317-66.76-104.68)" fill="#fff" fill-opacity=".852"><path d="m299.02 161.26h-185.84v-46.28c0-41.34 33.635-74.979 74.979-74.979 33.758 0 63.51 22.716 72.36 55.24 2.898 10.657 13.888 16.946 24.547 14.05 10.659-2.898 16.949-13.889 14.05-24.548-13.57-49.896-59.2-84.74-110.96-84.74-63.4 0-114.98 51.58-114.98 114.98v46.715c-9.06 1.902-15.888 9.952-15.888 19.571v175.05c0 11.03 8.972 20 20 20h221.73c11.03 0 20-8.972 20-20v-175.05c0-11.03-8.972-20-20-20" transform="matrix(.03149 0 0 .03149 360.59 526.6)"/><circle r="2.86" cy="533.8" cx="343"/><circle r="2.86" cy="533.85" cx="349.8"/><circle r="2.86" cy="533.8" cx="356.68"/></g></g></g></svg>