<svg xmlns="http://www.w3.org/2000/svg" viewBox="0 0 48 48"><defs><linearGradient id="0" x1="197.89" y1="364.76" x2="183.33" y2="12.946" gradientUnits="userSpaceOnUse"><stop stop-color="#197cf1"/><stop offset="1" stop-color="#20bcfa"/></linearGradient></defs><g transform="matrix(1.04348 0 0 1.04348-402.34-522.57)"><ellipse ry="17.188" rx="11.625" cy="524.86" cx="408.57" fill="#fff" fill-rule="evenodd"/><g transform="matrix(.12778 0 0 .12778 385.57 500.8)" fill="url(#0)"><path d="m180 0c-66.28 0-120 53.723-120 120v120c0 66.28 53.723 120 120 120 66.27 0 120-53.723 120-120v-120c0-66.28-53.723-120-120-120m69.36 224.13c2.705 2.168 4.279 5.448 4.279 8.915 0 3.467-1.574 6.746-4.279 8.915l-71.65 57.44c-2.067 1.657-4.597 2.511-7.148 2.511-1.68 0-3.369-.371-4.942-1.125-3.961-1.901-6.481-5.906-6.481-10.3v-82.02l-34.18 27.632c-2.114 1.709-4.653 2.541-7.176 2.541-3.331 0-6.634-1.45-8.892-4.243-3.967-4.907-3.204-12.1 1.703-16.07l47.38-38.31-47.38-38.31c-4.907-3.967-5.67-11.161-1.703-16.07 3.967-4.908 11.162-5.669 16.07-1.703l34.18 27.632v-82.05c0-4.394 2.52-8.399 6.481-10.3 3.962-1.901 8.663-1.362 12.09 1.386l71.65 57.44c2.705 2.168 4.279 5.448 4.279 8.914 0 3.466-1.574 6.746-4.279 8.915l-55.05 44.12 55.05 44.13z"/><path d="m181.99 93.32v67.28l41.96-33.64z"/><path d="m181.99 199.4v67.28l41.96-33.64z"/></g></g></svg>