<svg xmlns="http://www.w3.org/2000/svg" xmlns:xlink="http://www.w3.org/1999/xlink" viewBox="0 0 48 48"><defs><path id="3" d="m22 3h27v15h-27z"/><linearGradient id="0"><stop stop-color="#197cf1"/><stop offset="1" stop-color="#20bcfa"/></linearGradient><linearGradient y2="507.97" x2="0" y1="541.43" gradientUnits="userSpaceOnUse" id="1" xlink:href="#0"/><linearGradient xlink:href="#0" id="2" gradientUnits="userSpaceOnUse" y1="547.44" x2="0" y2="513.98"/></defs><g transform="translate(-384.57-499.8)"><flowRoot transform="translate(389.57 520.8)" font-family="sans-serif" letter-spacing="0" word-spacing="0" text-align="start" line-height="125%" font-size="10"><flowRegion><use xlink:href="#3"/></flowRegion><flowPara>Plasm</flowPara></flowRoot><g transform="matrix(1.57636 0 0 1.57636-222.87-314.51)"><g transform="translate(-.054.074)"><g transform="matrix(.65763 0 0 .65763 131.81 186.74)"><rect width="46.3" height="34.939" x="385.62" y="507.12" fill="url(#1)" rx="1.644"/><flowRoot transform="matrix(1.52062 0 0 1.52062 437.9 508.69)" font-family="sans-serif" text-align="start" word-spacing="0" line-height="125%" letter-spacing="0" font-size="10" fill="url(#2)"><flowRegion><use xlink:href="#3"/></flowRegion><flowPara>Plasm</flowPara></flowRoot></g><flowRoot transform="translate(352.74 519.84)" font-family="sans-serif" letter-spacing="0" word-spacing="0" text-align="start" line-height="125%" font-size="10"><flowRegion><use xlink:href="#3"/></flowRegion><flowPara>Plasm</flowPara></flowRoot></g><path d="m432.14 155.42c-62.34 22.953-109.84 39.3-151.63 90.98-37.23 46.05-90.98 62.01-151.63 31.657v165.46h-30.33v-409.4c-.0001-8.382 6.781-15.16 15.16-15.16 8.38 0 15.166 6.781 15.166 15.16 33.67 48.953 92.19 59.795 151.63 60.65 90.98 1.33 151.63 60.65 151.63 60.65" fill="#fff" fill-opacity=".847" transform="matrix(.03586 0 0 .03586 392.45 523.51)"/></g></g></svg>