<svg xmlns="http://www.w3.org/2000/svg" viewBox="0 0 48 48"><defs><linearGradient gradientUnits="userSpaceOnUse" y2="307.75" x2="-328.21" y1="649.74" x1="-324.94"><stop stop-color="#016ed4"/><stop offset="1" stop-color="#00b1ff"/></linearGradient><linearGradient id="1" y1="546.93" x2="0" y2="516.48" gradientUnits="userSpaceOnUse"><stop stop-color="#187ced"/><stop offset="1" stop-color="#42d6fc"/></linearGradient><linearGradient y1="545.8" x2="0" y2="517.8" gradientUnits="userSpaceOnUse"><stop stop-color="#3889e9"/><stop offset="1" stop-color="#5ea5fb"/></linearGradient><linearGradient id="0" y1="29.505" x2="0" y2="2.32" gradientUnits="userSpaceOnUse" gradientTransform="matrix(1.10376 0 0 1.10019 382.9 514.19)"><stop stop-color="#0164c2"/><stop offset="1" stop-color="#00a9f3"/></linearGradient></defs><g transform="matrix(1.71317 0 0 1.71429-662.25-887.65)"><g transform="matrix(.95149 0 0 .95149 19.42 25.797)"><circle cx="400.57" cy="531.8" r="14" fill="url(#1)" stroke="url(#1)" stroke-width="1.427"/><path d="m400.59 517.13c-1.856 0-3.623.353-5.255.973-.119.109-.273.192-.395.182-.017-.002-.033-.012-.051-.019-.805.336-1.568.747-2.292 1.213.094.152.122.322-.071.404-.033.013-.442.055-.585.052-2.058 1.491-3.71 3.496-4.765 5.837.017-.003.032-.001.05-.011.16-.003.391.043.545.076.142.029.257.124.379.133.349.027.433-.244.717-.395.294.041.489-.05.754-.02.181.02.312.213.453.223.119.012.223-.111.338-.093.112.018.304.259.322.395.024.169-.125.321-.076.507.178.18.501.217.754.321.165-.136.022-.388 0-.584-.003-.087.012-.164 0-.244-.015-.135-.073-.259-.074-.375-.003-.535.433-.786.793-.997.156-.092.279-.253.414-.321.191-.095.333-.118.491-.206.286-.16.531-.288.754-.47.103-.243.001-.568.019-.808.103-.063.192.027.302.019.172-.035.187-.278.285-.375.057-.056.212-.095.283-.15.172-.134.228-.337.378-.395.054-.022.178-.015.263-.038.112-.03.271-.161.453-.223.119-.041.39-.05.435-.094.056-.057-.0001-.216.019-.301.091-.425.733-.515 1.112-.657.266-.1.539-.284.831-.228-.057.202-.329.13-.283.375.064.34.52-.097.641-.148.23-.096.625-.156.927-.265.265-.096.74-.244.49-.546-.208-.012-.309.244-.49.321-.125.02-.101-.105-.208-.115-.101-.012-.159.093-.263.075-.104-.017-.25-.18-.266-.301-.041-.314.266-.443.397-.678-.087-.284-.48-.058-.719-.169.023-.169.198-.286.397-.318.162-.027.527-.013.624.072.056.048.004.166.095.245.096.087.214.077.339.058.044-.214-.28-.161-.244-.302.255-.166.669-.03.982-.076.18-.027.368-.153.527-.242.151-.086.348-.235.509-.095.043.154-.14.204-.226.281-.289.256-.586.549-.81.847.138.134.388.066.621.094.091.012.205.038.302.056.113.02.232.014.32.037.159.038.201.208.358.208.258 0 .261-.279.115-.453.046-.177.119-.27.056-.394-.116-.232-.543-.012-.565-.301-.013-.188.157-.179.226-.319-.031-.362.298-.389.263-.713-.015-.136-.13-.138-.226-.265-.048-.062-.072-.183-.128-.236-.44-.038-.886-.063-1.336-.063zm-7.593 2.959h.002c.088.012.194.107.3.115.1.003.184-.056.246-.038.158.041.224.279.075.395-.123.015-.171-.054-.264-.037-.256.043-.355.544-.546.527-.181-.014-.278-.454-.095-.584.012-.114-.084-.132-.077-.245.055-.069.209-.144.359-.132m-.849.058c.053.002.092.014.112.037-.025.2-.182.187-.338.281-.268.161-.423.407-.509.752-.025.1-.289.366-.417.339-.299-.063.083-.613.151-.696.076-.093.177-.174.266-.281.086-.104.142-.243.226-.301.091-.063.351-.138.509-.132m2.233.676c.096.002.182.018.221.056-.062.248-.598.183-.795.093.012-.094.16-.12.283-.132.087-.003.195-.02.29-.017m-1.221.458c.064-.002.128.012.195.03-.174.145-.361.227-.66.321-.143.045-.391.101-.415-.059-.03-.196.21-.15.341-.168.165-.023.346-.118.539-.125m18.739 1.115c-.023.054-.038.106-.036.158.012.091.111.178.134.301.012.065-.031.206 0 .265.091.176.329.05.499.059-.193-.265-.386-.531-.596-.782m.964 1.293c-.027.13-.115.299-.187.407-.164.249-.388.261-.624.394-.197.111-.281.297-.397.49-.125.209-.202.335-.151.637-.169.333-.424.538-.773.696-.103.047-.244.064-.339.132-.075.054-.118.199-.226.319-.132.147-.271.209-.341.321-.054.087-.072.259-.132.375-.081.158-.252.235-.358.395-.048.074-.081.224-.134.321-.12.216-.324.372-.302.563.022.184.231.216.246.377.003.091-.06.146-.056.245.003.144.101.246.112.357.028.279-.095.391-.148.582-.025.091-.014.194-.038.265-.047.14-.242.266-.246.431-.002.117.121.212.131.377.003.114-.056.235-.036.339.04.205.407.443.566.602.213.213.493.377.585.602.077.19.077.438.226.582.11.106.293.172.434.282.132.103.275.192.415.301.23.179.577.536.943.509.191-.013.387-.169.604-.208.223-.039.512-.061.737-.037.172.017.35.12.529.112.189-.012.406-.151.621-.245.173-.075.385-.158.618-.219.107-.715.164-1.448.164-2.194 0-3-.901-5.787-2.443-8.107m-24.338 4.929c-.313.017-.519.031-.697.112-.408.185-.329.735-.737.865-.141.045-.335.047-.49.075-.134.025-.297.097-.435.094-.038 0-.093-.029-.141-.044-.036.258-.066.519-.089.781.388.074.588.587.931.756.094.047.217.049.338.076.097.022.172.063.266.095.2.067.444.059.604.13.24.106.417.557.624.678.012.122-.024.285.019.375.097.132.236.103.397.189.193.104.252.371.434.453.063.028.221.024.32.055.25.075.332.364.546.301.141-.041.129-.185.152-.319.093-.1.194-.259.339-.262.234-.012.255.241.341.468.048.128.174.24.207.375.058.234.029.933-.021 1.073-.059.171-.292.244-.435.434-.067.089-.1.22-.151.282-.092.112-.23.141-.299.245-.039.058-.077.183-.115.262-.113.239-.265.409-.17.696.04.118.225.197.226.337.0001.164-.349.31-.376.49-.021.134.108.372.151.546.031.131.28.213.358.301.132.148.238.358.359.544.239.366.427.813.66 1.167.123.186.296.353.378.546.042.097.036.213.074.301.135.303.73.62 1.038.771.144.069.303.094.435.168.2.111.596.41.697.584.09.157.146.539.19.789.059.33.0001.584.019.941.012.193.074.388.076.582.0001.068-.036.118-.039.188 0 .011.004.024.004.035 1.853.836 3.907 1.312 6.08 1.312.393 0 .781-.021 1.165-.051.017-.029.032-.059.054-.086.089-.116.167-.217.226-.319.056-.343-.137-.583-.056-.884.09-.338.558-.544.887-.696.113-.052.228-.137.32-.169.227-.079.511-.036.719-.112.354-.129.39-.507.565-.828.083-.152.191-.304.207-.412.014-.097-.036-.189-.021-.304.017-.114.119-.212.151-.337.041-.163.059-.402.059-.583 0-.149-.07-.28-.075-.414-.025-.488.177-.542.358-.808.091-.132.125-.282.188-.377.304-.452.831-.67.793-1.354-.012-.226-.155-.737-.322-.809-.095-.041-.315-.003-.453-.056-.446-.166-.708-.717-1.17-.752-.098-.012-.189.04-.3.038-.183-.012-.459-.128-.661-.15-.129-.013-.301.038-.378 0-.118-.057-.13-.274-.226-.338-.075-.053-.224-.07-.339-.115-.186-.071-.333-.154-.547-.169-.066-.003-.149.031-.226.02-.119-.02-.212-.16-.322-.226-.137-.083-.264-.123-.32-.242.124-.405-.218-.518-.302-.752-.04-.11-.022-.242-.056-.339-.05-.14-.188-.221-.341-.338-.273-.209-.515-.406-.905-.454-.172-.022-.342.052-.549.038-.22-.013-.495-.205-.66-.392-.16-.183-.237-.347-.377-.434-.132-.085-.307-.082-.397-.168-.04-.037-.033-.101-.076-.189-.066-.137-.178-.213-.095-.377-.15-.077-.154.143-.319.115-.147-.207-.271-.306-.604-.245-.152.028-.238.22-.415.225-.146.012-.26-.162-.453-.189-.145-.02-.31.039-.414.02-.161-.032-.211-.166-.358-.262-.108-.07-.317-.191-.378-.189-.19.012-.325.402-.586.264-.127-.161.207-.245.056-.395-.114-.114-.21.052-.302.115-.105.072-.203.143-.319.186-.259.096-.421.046-.624.15-.188.097-.196.259-.302.451-.087.158-.285.387-.415.397-.158.012-.309-.22-.453-.282-.432-.187-.641.166-1 .17-.333.012-.809-.536-.792-.848.003-.19.11-.479.132-.715.021-.187.149-.3.151-.471.003-.228-.304-.404-.453-.431-.352-.064-.842.141-1.246-.02-.077-.127.091-.216.134-.339.025-.07.001-.165.036-.242.044-.12.171-.213.227-.339.041-.097.053-.237.095-.357.05-.137.14-.225.151-.321.013-.127-.034-.273-.134-.357zm5.04 3.981c.128.012.144.275.013.297-.141.022-.213-.221-.076-.284.023-.012.045-.012.063-.011v-.002" fill="url(#0)"/></g><g transform="matrix(.81875 0 0 .81875 42.54 97.44)"><flowRoot transform="translate(389.57 520.8)" font-family="sans-serif" text-align="start" word-spacing="0" line-height="125%" letter-spacing="0" font-size="10"><flowRegion><path d="m22 3h27v15h-27z"/></flowRegion><flowPara>Plasm</flowPara></flowRoot><path d="m441.77 529.48v-1.819c0-2.469-2.01-4.478-4.478-4.478-2.469 0-4.478 2.01-4.478 4.478v1.819c-.353.073-.619.388-.619.763v6.817c0 .429.349.779.779.779h8.636c.43 0 .779-.35.779-.779v-6.817c0-.375-.266-.688-.619-.763m-3.432 5.812c.016.086-.041.153-.127.153h-1.818c-.086 0-.143-.068-.127-.153l.289-1.534c-.219-.2-.357-.487-.357-.807 0-.604.489-1.093 1.093-1.093.603 0 1.093.489 1.093 1.093 0 .311-.13.592-.339.791zm1.874-5.828h-5.84v-1.803c0-1.61 1.31-2.92 2.92-2.92 1.61 0 2.92 1.31 2.92 2.92z" fill="#fff" fill-opacity=".852"/></g></g></svg>