<svg xmlns="http://www.w3.org/2000/svg" viewBox="0 0 48 48"><defs><linearGradient gradientUnits="userSpaceOnUse" y1="986.67" x2="0" y2="-2.623"><stop stop-color="#ffce3b"/><stop offset="1" stop-color="#fef4ab"/></linearGradient><linearGradient id="2" gradientUnits="userSpaceOnUse" y1="986.67" x2="0" y2="-2.623"><stop stop-color="#ffc20b"/><stop offset="1" stop-color="#ffd351"/></linearGradient><linearGradient y2="-2.623" x2="0" y1="986.67" gradientUnits="userSpaceOnUse" id="3"><stop stop-color="#ff9300"/><stop offset="1" stop-color="#ffd702"/></linearGradient><linearGradient gradientUnits="userSpaceOnUse" y1="986.67" x2="0" y2="-2.623"><stop stop-color="#ffcc32"/><stop offset="1" stop-color="#ffda6d"/></linearGradient><linearGradient id="0" y1="986.67" x2="0" y2="-2.623" gradientUnits="userSpaceOnUse"><stop stop-color="#f4ffb5"/><stop offset="1" stop-color="#fdffd8"/></linearGradient><linearGradient gradientUnits="userSpaceOnUse" x2="47" x1="0"><stop stop-color="#a9a3d4"/><stop offset=".47" stop-color="#87baff"/><stop offset="1" stop-color="#89ec85"/></linearGradient><linearGradient id="1" y1="986.67" x2="0" y2="-2.623" gradientUnits="userSpaceOnUse"><stop stop-color="#ffce3b"/><stop offset="1" stop-color="#ffd762"/></linearGradient></defs><g transform="translate(-486.76-502.73)" stroke-width="1.317"><path d="m946.23 206.65c-.3-23-18-42-40.899-44.1-190.3-17.8-345.6-119.5-396.8-156.7-10.7-7.8-25.2-7.8-35.9 0-51.1 37.2-206.4 138.9-396.7 156.7-22.9 2.101-40.5 21.1-40.9 44.1-2.3 150.1 21.8 659.7 444.1 773.1 7.5 2 15.4 2 22.9 0 422.3-113.3 446.4-623 444.2-773.1" fill="url(#3)" stroke-width="9.512" stroke="none" transform="matrix(.04892 0 0 .04892 486.76 502.73)"/><path d="m215.02 310.91c.408 2.162-1.058 3.931-3.258 3.931h-46.677c-2.2 0-3.666-1.769-3.258-3.931l7.432-39.39c-5.626-5.131-9.157-12.52-9.157-20.734 0-15.495 12.561-28.06 28.06-28.06 15.495 0 28.06 12.561 28.06 28.06 0 7.991-3.346 15.195-8.707 20.305z" transform="matrix(.17371 0 0 .17371 478.08 480.03)" fill="#251800"/></g></svg>