<svg xmlns="http://www.w3.org/2000/svg" viewBox="0 0 48 48"><defs><linearGradient gradientTransform="matrix(1.05233 0 0 1.02761-21.291-14.594)" gradientUnits="userSpaceOnUse" y2="507.8" x2="0" y1="542.8" id="0"><stop stop-color="#197cf1"/><stop offset="1" stop-color="#20bcfa"/></linearGradient><linearGradient gradientUnits="userSpaceOnUse" y2="516.84" x2="0" y1="521.64"><stop stop-color="#d6d6d6"/><stop offset="1" stop-color="#fff"/></linearGradient></defs><rect width="46.3" height="34.939" x="385.51" y="507.23" fill="url(#0)" rx="1.644" stroke-width="1" transform="matrix(1.03666 0 0 1.03666-399.64-519.93)"/><path d="m261.87 205.82c0 1.989-.79 3.896-2.196 5.304l-47.961 47.96c-1.465 1.464-3.385 2.196-5.304 2.196-1.92 0-3.839-.732-5.304-2.196l-56.801-56.802-51.25 51.25c-1.838 1.837-4.493 2.592-7.02 1.996-2.528-.596-4.569-2.458-5.393-4.923l-80.25-240.15c-.901-2.696-.2-5.67 1.81-7.681 2.01-2.01 4.981-2.713 7.681-1.81l240.15 80.25c2.465.823 4.327 2.864 4.923 5.393.597 2.529-.159 5.187-1.996 7.02l-50.09 50.09 56.802 56.801c1.406 1.407 2.196 3.314 2.196 5.303" fill="#fff" fill-opacity=".847" transform="matrix(.07671 0 0 .07671 13.962 13.958)"/></svg>