<?xml version="1.0" encoding="UTF-8" standalone="no"?>
<svg
   xmlns:dc="http://purl.org/dc/elements/1.1/"
   xmlns:cc="http://creativecommons.org/ns#"
   xmlns:rdf="http://www.w3.org/1999/02/22-rdf-syntax-ns#"
   xmlns:svg="http://www.w3.org/2000/svg"
   xmlns="http://www.w3.org/2000/svg"
   xmlns:xlink="http://www.w3.org/1999/xlink"
   xmlns:sodipodi="http://sodipodi.sourceforge.net/DTD/sodipodi-0.dtd"
   xmlns:inkscape="http://www.inkscape.org/namespaces/inkscape"
   viewBox="0 0 48 48"
   id="svg2"
   version="1.1"
   inkscape:version="0.91 r13725"
   sodipodi:docname="preferences-desktop-mouse.svg">
  <metadata
     id="metadata27">
    <rdf:RDF>
      <cc:Work
         rdf:about="">
        <dc:format>image/svg+xml</dc:format>
        <dc:type
           rdf:resource="http://purl.org/dc/dcmitype/StillImage" />
      </cc:Work>
    </rdf:RDF>
  </metadata>
  <sodipodi:namedview
     pagecolor="#ffffff"
     bordercolor="#666666"
     borderopacity="1"
     objecttolerance="10"
     gridtolerance="10"
     guidetolerance="10"
     inkscape:pageopacity="0"
     inkscape:pageshadow="2"
     inkscape:window-width="806"
     inkscape:window-height="687"
     id="namedview25"
     showgrid="false"
     inkscape:zoom="4.9166667"
     inkscape:cx="39.206112"
     inkscape:cy="7.6618386"
     inkscape:window-x="560"
     inkscape:window-y="0"
     inkscape:window-maximized="0"
     inkscape:current-layer="svg2" />
  <defs
     id="defs4">
    <linearGradient
       gradientTransform="matrix(0.43355,0,0,0.43481,-57.018323,-61.893693)"
       id="0-7"
       gradientUnits="userSpaceOnUse"
       x1="18.6"
       y1="261.26001"
       x2="20.030001"
       y2="155.59">
      <stop
         stop-color="#2a2c2f"
         id="stop11" />
      <stop
         offset="1"
         stop-color="#424649"
         id="stop13" />
    </linearGradient>
    <linearGradient
       gradientTransform="matrix(0.9746,0,0,0.9746,-366.26168,-469.9806)"
       gradientUnits="userSpaceOnUse"
       y2="505.32999"
       x2="355.69"
       y1="547"
       x1="355.73001"
       id="0-3">
      <stop
         stop-color="#1074f5"
         id="stop32" />
      <stop
         offset="1"
         stop-color="#02befd"
         id="stop34" />
    </linearGradient>
    <linearGradient
       gradientTransform="translate(20.743552,39.050309)"
       inkscape:collect="always"
       xlink:href="#0-3"
       id="linearGradient4194-1"
       x1="23.308462"
       y1="46.550053"
       x2="23.230635"
       y2="37.244968"
       gradientUnits="userSpaceOnUse" />
    <linearGradient
       gradientTransform="matrix(0.44037,0,0,0.44037,-28.486447,63.120308)"
       inkscape:collect="always"
       xlink:href="#0-7"
       id="linearGradient4173-0"
       x1="165.35602"
       y1="51.108864"
       x2="164.46681"
       y2="-56.042942"
       gradientUnits="userSpaceOnUse" />
  </defs>
  <g
     id="g4180"
     transform="translate(-20.745763,-39.050847)">
    <path
       style="fill:url(#linearGradient4173-0);fill-opacity:1"
       id="path13-4"
       d="m 43.562489,39.051886 c -3.052645,0.03391 -6.334723,0.312222 -8.571362,2.408824 -3.425638,3.211618 -2.993195,5.432845 -3.329637,9.828177 -0.686978,8.972539 -0.420994,21.269871 1.403459,30.103694 0.535049,2.591577 2.979543,4.416911 5.572001,4.914088 1.990032,0.383122 4.047882,0.673326 6.108813,0.743345 2.060932,-0.07002 4.118781,-0.360223 6.108813,-0.743345 2.592898,-0.498939 5.036952,-2.322511 5.572001,-4.914088 1.824453,-8.833823 2.090437,-21.131155 1.40346,-30.103694 -0.336443,-4.395332 0.096,-6.61876 -3.329638,-9.828177 -2.236639,-2.096602 -5.518717,-2.374915 -8.571362,-2.408824 -0.398975,-4.4e-4 -0.794867,-4.4e-5 -1.183274,0 -0.388406,-4.4e-5 -0.784299,-4.4e-4 -1.183274,0"
       inkscape:connector-curvature="0" />
    <path
       style="fill:url(#linearGradient4194-1);fill-opacity:1"
       id="ellipse17-1"
       d="m 42.770897,76.573746 a 0.53954132,0.53788333 0 0 0 -0.539063,0.539062 0.53954132,0.53788333 0 0 0 0.539063,0.537109 0.53954132,0.53788333 0 0 0 0.541015,-0.537109 0.53954132,0.53788333 0 0 0 -0.541015,-0.539062 z m 3.058594,0 -1.023438,1.019531 1.574219,1.570312 -1.63086,1.847657 1.080079,0.941406 2.517578,-2.869141 -2.517578,-2.509765 z m -3.777344,2.509765 a 0.89923554,0.89647222 0 0 0 -0.898438,0.896485 0.89923554,0.89647222 0 0 0 0.898438,0.896484 0.89923554,0.89647222 0 0 0 0.898437,-0.896484 0.89923554,0.89647222 0 0 0 -0.898437,-0.896485 z m 1.61914,2.511719 a 1.0790826,1.0757667 0 0 0 -1.080078,1.074219 1.0790826,1.0757667 0 0 0 1.080078,1.076171 1.0790826,1.0757667 0 0 0 1.078125,-1.076171 1.0790826,1.0757667 0 0 0 -1.078125,-1.074219 z"
       inkscape:connector-curvature="0" />
  </g>
</svg>
