<svg xmlns="http://www.w3.org/2000/svg" viewBox="0 0 48 48"><defs><clipPath><rect width="32" height="32" x="8" y="8" fill="none" rx="16"/></clipPath><clipPath><rect width="32" height="32" x="392.57" y="507.8" fill="none" rx="16"/></clipPath><clipPath><rect width="32" height="32" x="392.57" y="507.8" fill="none" rx="16"/></clipPath><clipPath><rect width="32" height="32" x="392.57" y="507.8" fill="none" rx="16"/></clipPath><clipPath><rect width="32" height="32" x="392.57" y="507.8" fill="none" rx="16"/></clipPath><clipPath><rect width="32" height="32" x="392.57" y="507.8" fill="none" rx="16"/></clipPath><clipPath><rect y="507.8" x="392.57" height="32" width="32" fill="none" rx="16"/></clipPath><clipPath><rect width="32" height="32" x="392.57" y="507.8" fill="none" rx="16"/></clipPath><clipPath><rect y="507.8" x="392.57" height="32" width="32" fill="none" rx="16"/></clipPath><clipPath><rect width="32" height="32" x="392.57" y="507.8" fill="none" rx="16"/></clipPath><clipPath><rect y="8" x="8" height="32" width="32" fill="none" rx="16"/></clipPath><clipPath><rect width="32" height="32" x="8" y="8" fill="none" rx="16"/></clipPath><clipPath><rect y="507.8" x="392.57" height="32" width="32" fill="none" rx="16"/></clipPath><clipPath><path d="m22.2 686.12h1447.73v-667.19h-1447.73v667.19"/></clipPath><clipPath><path d="m0 706.47h1490.93v-706.47h-1490.93v706.47"/></clipPath><clipPath><rect width="32" height="32" x="8" y="8" fill="none" rx="16"/></clipPath><clipPath><rect width="32" height="32" x="392.57" y="507.8" fill="none" rx="16"/></clipPath><clipPath><rect width="32" height="32" x="392.57" y="507.8" fill="none" rx="16"/></clipPath><linearGradient gradientUnits="userSpaceOnUse" y2="-2.623" x2="0" y1="986.67" id="1"><stop stop-color="#ffce3b"/><stop offset="1" stop-color="#ffd762"/></linearGradient><linearGradient y2="-2.623" x2="0" y1="986.67" gradientUnits="userSpaceOnUse"><stop stop-color="#ffcc32"/><stop offset="1" stop-color="#ffda6d"/></linearGradient><linearGradient y2="-2.623" x2="0" y1="986.67" gradientUnits="userSpaceOnUse"><stop stop-color="#ffce3b"/><stop offset="1" stop-color="#fef4ab"/></linearGradient><linearGradient gradientUnits="userSpaceOnUse" y2="-2.623" x2="0" y1="986.67" id="0"><stop stop-color="#f4ffb5"/><stop offset="1" stop-color="#fdffd8"/></linearGradient><linearGradient id="3" gradientUnits="userSpaceOnUse" y1="986.67" x2="0" y2="-2.623"><stop stop-color="#ff9300"/><stop offset="1" stop-color="#ffd702"/></linearGradient><linearGradient y2="-2.623" x2="0" y1="986.67" gradientUnits="userSpaceOnUse" id="2"><stop stop-color="#ffc20b"/><stop offset="1" stop-color="#ffd351"/></linearGradient></defs><g transform="matrix(.93064 0 0 .93064-691.58-151.3)"><path d="m946.23 206.65c-.3-23-18-42-40.899-44.1-190.3-17.8-345.6-119.5-396.8-156.7-10.7-7.8-25.2-7.8-35.9 0-51.1 37.2-206.4 138.9-396.7 156.7-22.9 2.101-40.5 21.1-40.9 44.1-2.3 150.1 21.8 659.7 444.1 773.1 7.5 2 15.4 2 22.9 0 422.3-113.3 446.4-623 444.2-773.1" fill="url(#3)" stroke-width="9.512" stroke="none" transform="matrix(.05256 0 0 .05256 743.12 162.57)"/><g fill="#000" fill-opacity=".852" transform="matrix(.17235 0 0 .17235 737.74 152.77)"><path d="m164.89 143.09v90.35c0 8.65 7.01 15.665 15.665 15.665 8.65 0 15.665-7.01 15.665-15.665v-90.35c0-8.651-7.01-15.665-15.665-15.665-8.651 0-15.665 7.01-15.665 15.665"/><path d="m180.56 265.36c-9.1 0-16.5 7.399-16.5 16.5 0 9.1 7.403 16.5 16.5 16.5 9.1 0 16.5-7.402 16.5-16.5 0-9.1-7.404-16.5-16.5-16.5"/></g></g></svg>