<?xml version="1.0" encoding="UTF-8" standalone="no"?>
<svg
   xmlns:dc="http://purl.org/dc/elements/1.1/"
   xmlns:cc="http://creativecommons.org/ns#"
   xmlns:rdf="http://www.w3.org/1999/02/22-rdf-syntax-ns#"
   xmlns:svg="http://www.w3.org/2000/svg"
   xmlns="http://www.w3.org/2000/svg"
   xmlns:xlink="http://www.w3.org/1999/xlink"
   xmlns:sodipodi="http://sodipodi.sourceforge.net/DTD/sodipodi-0.dtd"
   xmlns:inkscape="http://www.inkscape.org/namespaces/inkscape"
   viewBox="0 0 48 48"
   id="svg2"
   version="1.1"
   inkscape:version="0.91 r13725"
   sodipodi:docname="preferences-system-network-sharing.svg">
  <metadata
     id="metadata22">
    <rdf:RDF>
      <cc:Work
         rdf:about="">
        <dc:format>image/svg+xml</dc:format>
        <dc:type
           rdf:resource="http://purl.org/dc/dcmitype/StillImage" />
      </cc:Work>
    </rdf:RDF>
  </metadata>
  <sodipodi:namedview
     pagecolor="#ffffff"
     bordercolor="#666666"
     borderopacity="1"
     objecttolerance="10"
     gridtolerance="10"
     guidetolerance="10"
     inkscape:pageopacity="0"
     inkscape:pageshadow="2"
     inkscape:window-width="1366"
     inkscape:window-height="687"
     id="namedview20"
     showgrid="false"
     inkscape:zoom="4.9166667"
     inkscape:cx="24"
     inkscape:cy="24"
     inkscape:window-x="0"
     inkscape:window-y="0"
     inkscape:window-maximized="1"
     inkscape:current-layer="svg2" />
  <defs
     id="defs4">
    <linearGradient
       id="0"
       y1="518.08002"
       x2="0"
       y2="545.15002"
       gradientUnits="userSpaceOnUse"
       xlink:href="#0-7">
      <stop
         stop-color="#faf7f7"
         id="stop7" />
      <stop
         offset="1"
         stop-color="#d4d4d4"
         id="stop9" />
    </linearGradient>
    <linearGradient
       id="1"
       x1="403.44"
       y1="545.15"
       x2="402.47"
       y2="518.08"
       gradientUnits="userSpaceOnUse">
      <stop
         stop-color="#d3d3d3"
         id="stop12" />
      <stop
         offset="1"
         stop-color="#fcf9f9"
         id="stop14" />
    </linearGradient>
    <linearGradient
       gradientTransform="matrix(0.43355,0,0,0.43481,-57.018323,-61.893693)"
       id="0-7"
       gradientUnits="userSpaceOnUse"
       x1="18.6"
       y1="261.26001"
       x2="20.030001"
       y2="155.59">
      <stop
         stop-color="#2a2c2f"
         id="stop11" />
      <stop
         offset="1"
         stop-color="#424649"
         id="stop13" />
    </linearGradient>
    <linearGradient
       gradientTransform="matrix(1.6013,0,0,1.6013,-657.62384,-827.27185)"
       inkscape:collect="always"
       xlink:href="#0-7"
       id="linearGradient4176-8"
       gradientUnits="userSpaceOnUse"
       x1="403.44"
       y1="545.15002"
       x2="402.47"
       y2="518.08002" />
    <linearGradient
       gradientTransform="matrix(1.6013,0,0,1.6013,-657.62384,-827.27185)"
       inkscape:collect="always"
       xlink:href="#0-7"
       id="linearGradient4184-6"
       x1="403.44"
       y1="545.15002"
       x2="402.47"
       y2="518.08002"
       gradientUnits="userSpaceOnUse" />
    <linearGradient
       gradientTransform="matrix(1.6959,0,0,1.69067,-704.13384,-884.38185)"
       inkscape:collect="always"
       xlink:href="#1"
       id="linearGradient4174-6"
       x1="403.70544"
       y1="545.26337"
       x2="403.93546"
       y2="531.06781"
       gradientUnits="userSpaceOnUse" />
  </defs>
  <g
     id="g4234"
     transform="translate(40.271187,-0.20339012)">
    <circle
       style="fill:url(#linearGradient4176-8);fill-opacity:1;stroke:url(#linearGradient4184-6);stroke-width:2.44038129"
       id="circle16-9"
       r="22.780094"
       cy="24.20339"
       cx="-16.271187" />
    <path
       style="fill:url(#linearGradient4174-6);fill-opacity:1;stroke:none;stroke-opacity:0.8"
       id="path18-3"
       d="m -10.459868,28.326343 c -1.388942,0 -2.613382,0.662743 -3.408759,1.675454 l -7.419563,-3.798935 c 0.09667,-0.363494 0.167894,-0.737132 0.167894,-1.131058 0,-0.429431 -0.0831,-0.833501 -0.19842,-1.227427 l 7.38734,-3.780338 c 0.795378,1.06005 2.052039,1.751534 3.478291,1.751534 2.4166584,0 4.3703354,-1.956105 4.3703354,-4.372072 0,-2.414277 -1.955373,-4.372073 -4.3703354,-4.372073 -2.411569,0 -4.366942,1.957796 -4.366942,4.372073 0,0.395616 0.06953,0.770945 0.167894,1.134439 L -22.07,22.376876 c -0.800464,-1.014402 -2.028296,-1.678836 -3.425718,-1.678836 -2.413265,0 -4.366942,1.957796 -4.366942,4.373764 0,2.415967 1.953677,4.372072 4.366942,4.372072 1.427948,0 2.682914,-0.694865 3.481683,-1.754915 l 7.383949,3.780338 c -0.115322,0.392235 -0.200117,0.799687 -0.200117,1.230808 0,2.415967 1.957069,4.372072 4.366943,4.372072 2.4166574,0 4.3703344,-1.957796 4.3703344,-4.372072 0,-2.417659 -1.955372,-4.373764 -4.3703344,-4.373764"
       inkscape:connector-curvature="0" />
  </g>
</svg>
