<svg xmlns="http://www.w3.org/2000/svg" viewBox="0 0 48 48"><defs><linearGradient gradientTransform="matrix(1.77384 0 0 1.71427-5.989 28.572)" gradientUnits="userSpaceOnUse" y2="-9.596" x2="3.118" y1="-9.504" x1="-23.821" id="0"><stop stop-color="#dc3c30"/><stop stop-color="#ff786d" offset="1"/></linearGradient><linearGradient gradientUnits="userSpaceOnUse" y2="9.975" x2="86.5" y1="9.995" x1="38.42" id="1"><stop stop-color="#197cf1"/><stop stop-color="#21c9fb" offset="1"/></linearGradient></defs><g transform="matrix(0-1 1 0 10.804-.449)"><path d="m-45.36-10.804h41.831c1.709 0 3.085 1.376 3.085 3.085v24.915h-3.085-41.831-3.085v-24.915c0-1.709 1.376-3.085 3.085-3.085" fill="url(#0)"/><path transform="matrix(.99999 0 0 .99999-86.83 15.07)" d="m38.38-1.871h48v4.779 16.24c0 1.652-1.33 2.982-2.982 2.982h-42.04c-1.652 0-2.982-1.33-2.982-2.982v-16.24-4.779" fill="url(#1)" fill-rule="evenodd"/></g><g fill="#fff" fill-opacity=".848"><path d="m418.19 245.16l-84.25 22.564-32.476-18.734v-35.16l32.11-18.436 84.62 22.674c1.701.454 3.41.678 5.104.678 8.692 0 16.646-5.805 18.995-14.598 2.815-10.508-3.415-21.307-13.922-24.12l-46.39-12.43 42.766-24.553c9.426-5.414 12.688-17.449 7.273-26.879-5.433-9.43-17.444-12.697-26.874-7.27l-42.854 24.611 12.427-46.41c2.812-10.505-3.409-21.306-13.921-24.12-10.442-2.739-21.285 3.422-24.1 13.92l-22.58 84.26-32.31 18.553-30.625-17.707v-37.15l61.931-61.93c7.688-7.692 7.688-20.15 0-27.844-7.69-7.691-20.15-7.691-27.842 0l-34.09 34.09v-49.49c.0001-10.872-8.817-19.688-19.69-19.688-10.871 0-19.688 8.815-19.688 19.688v49.24l-33.841-33.844c-7.691-7.691-20.15-7.691-27.843 0-7.691 7.692-7.691 20.15 0 27.844l61.684 61.683v37.544l-30.393 17.534-32.31-18.536-22.564-84.24c-2.811-10.498-13.603-16.676-24.1-13.92-10.506 2.812-16.741 13.613-13.926 24.12l12.426 46.4-42.852-24.604c-9.447-5.428-21.472-2.168-26.878 7.275-5.411 9.432-2.148 21.459 7.281 26.873l42.762 24.553-46.39 12.43c-10.507 2.812-16.74 13.611-13.926 24.12 2.355 8.793 10.307 14.598 19 14.598 1.693 0 3.403-.224 5.109-.678l84.63-22.682 32.07 18.412.033 35.19-32.486 18.768-84.25-22.598c-10.433-2.738-21.291 3.43-24.11 13.924-2.814 10.504 3.419 21.306 13.926 24.1l46.22 12.397-42.641 24.616c-9.413 5.441-12.643 17.472-7.199 26.886 3.647 6.336 10.263 9.844 17.06 9.844 3.337 0 6.724-.83 9.827-2.646l42.857-24.732-12.473 46.577c-2.815 10.522 3.42 21.29 13.926 24.12 1.701.461 3.41.679 5.104.679 8.689 0 16.641-5.814 18.996-14.613l22.676-84.61 32.25-18.609 30.335 17.504v38.02l-61.684 61.685c-7.691 7.69-7.691 20.15 0 27.842 3.846 3.846 8.875 5.752 13.921 5.752 5.03 0 10.08-1.906 13.922-5.752l33.841-33.842v49.23c0 10.892 8.817 19.689 19.688 19.689 10.873 0 19.691-8.799 19.691-19.689v-49.47l34.09 34.09c3.845 3.846 8.874 5.752 13.921 5.752 5.05 0 10.08-1.906 13.921-5.752 7.688-7.693 7.688-20.15 0-27.842l-61.931-61.931v-37.627l30.595-17.658 32.24 18.609 22.676 84.61c2.352 8.799 10.304 14.613 18.992 14.613 1.688 0 3.402-.218 5.107-.679 10.512-2.829 16.732-13.597 13.921-24.12l-12.487-46.577 42.873 24.732c3.104 1.814 6.49 2.646 9.828 2.646 6.797 0 13.411-3.508 17.06-9.844 5.443-9.414 2.215-21.443-7.199-26.886l-42.641-24.612 46.22-12.398c10.507-2.797 16.737-13.6 13.922-24.1-2.798-10.496-13.611-16.677-24.1-13.925m-156.11 3.83l-30.472 17.599-30.45-17.6-.034-35.22 30.484-17.587 30.472 17.613v35.19" fill="#fff" fill-opacity=".848" transform="matrix(.03886 0 0 .03886 27 15)"/></g><g fill="#fff" fill-opacity=".848"><path d="m174.27 155.65c3.862-3.64 13.564-6.834 16.05-11.774 5.286 15.507 14.383 51.621-27.717 72.16 7.265-12.473 4.426-23.867 3.14-29.27-3.616 3.6-7.01 3.03-7.01 3.03 2.962-8.913-3.273-17.272-6.705-22.943-3.515 12.393-21.452 19.418-21.452 32.606 0 6.335 2.106 12.404 4.824 17.608-14.208-6.643-34.929-21.14-32.959-48.755 2.428-34.04 54.599-33.637 43.37-77.56 12.23 5.126 35.575 21.771 28.457 64.891" fill="#fff" fill-opacity=".848" transform="matrix(.1425 0 0 .1425-9.282 2.067)"/></g></svg>