<svg xmlns="http://www.w3.org/2000/svg" xmlns:xlink="http://www.w3.org/1999/xlink" viewBox="0 0 48 48"><defs><linearGradient gradientTransform="matrix(1.77384 0 0 1.71427 42.46 39.38)" gradientUnits="userSpaceOnUse" y2="-22.851" x2="-11.233" y1="4.675" x1="-10.767" id="0" xlink:href="#1"/><linearGradient gradientUnits="userSpaceOnUse" y2="-27.706" x2="60.753" y1="22.939" x1="61.57" id="1"><stop stop-color="#197cf1"/><stop stop-color="#21c9fb" offset="1"/></linearGradient><linearGradient xlink:href="#1" id="2" x1="-23.527" y1="40.33" x2="-22.629" y2="-5.147" gradientUnits="userSpaceOnUse"/></defs><rect height="48" width="48" rx="3.085" fill="url(#0)" stroke-width="1"/><g transform="matrix(1.0625 0 0 1.0625 48.23 4.975)"><path fill="url(#2)" d="m-37.875 5.563h30v20h-30z"/><path d="m578.77 51.49v-.895h-2.996-539.84-2.996v.895c-17.662 1.214-30.839 15.266-32.934 32.32v3 355.72c0 6.898 1.795 12.712 4.791 17.949 6.893 12.137 17.07 18.269 31.14 18.269h197.01v49.695h-37.425c-9.281 0-16.467 7.218-16.467 16.48 0 9.262 7.186 16.479 16.467 16.479h220.67c9.281 0 16.768-7.218 16.768-16.479 0-9.263-7.486-16.48-16.768-16.48h-37.425v-49.695h197.01c14.08 0 24.343-6.132 31.14-18.269 3.085-5.493 5.091-11.37 5.091-17.949v-355.72-3c-2.096-17.06-16.17-31.11-33.24-32.32m-1.91 39.14v348.08c0 2.108-.895 3-2.996 3h-534.11c-2.095 0-2.996-.894-2.996-3v-348.08-3h540.1v3z" fill="#deeffd" transform="matrix(.05229 0 0 .05229-38.804 1.904)"/></g><path d="m24.944 13.7l-6.576 8 4.437 2.401-1.149 5.599 6.576-8-4.437-2.401z" fill="#deeffd"/></svg>