<svg xmlns="http://www.w3.org/2000/svg" viewBox="0 0 48 48"><defs><clipPath><path fill="#1890d0" transform="matrix(15.33333 0 0 11.5 415-125.5)" d="m-24 13c0 1.105-.672 2-1.5 2-.828 0-1.5-.895-1.5-2 0-1.105.672-2 1.5-2 .828 0 1.5.895 1.5 2"/></clipPath><clipPath><path fill="#1890d0" transform="matrix(15.33333 0 0 11.5 415-125.5)" d="m-24 13c0 1.105-.672 2-1.5 2-.828 0-1.5-.895-1.5-2 0-1.105.672-2 1.5-2 .828 0 1.5.895 1.5 2"/></clipPath><clipPath id="1"><path transform="matrix(15.33333 0 0 11.5 415-125.5)" d="m-24 13c0 1.105-.672 2-1.5 2-.828 0-1.5-.895-1.5-2 0-1.105.672-2 1.5-2 .828 0 1.5.895 1.5 2" fill="#1890d0"/></clipPath><linearGradient gradientTransform="matrix(1.77384 0 0 1.71427 42.46 39.38)" gradientUnits="userSpaceOnUse" y2="-22.851" x2="-11.233" y1="4.675" x1="-10.767" id="0"><stop stop-color="#e1e1e1"/><stop stop-color="#f4f4ff" offset="1"/></linearGradient><linearGradient id="2" x1="23.661" y1="45.36" x2="23.932" y2=".407" gradientUnits="userSpaceOnUse"><stop stop-color="#b62b76"/><stop offset="1" stop-color="#e04d9d"/></linearGradient></defs><rect height="48" width="48" rx="3.085" fill="url(#0)" stroke-width="1"/><g transform="translate(-54.31-.204)"><g clip-path="url(#1)" transform="matrix(1.33333 0 0 1.33333 44.972-6.463)"><path d="m8 8v10.666h10.666l-10.666-10.666m0 13.334v9.332h9.334l-9.334-9.332m10.666 9.332l9.334 9.334h12l-9.334-9.334h-12m-10.666 2.668v6.666h6.666l-6.666-6.666" transform="matrix(.75 0 0 .75 7 5)" fill="url(#2)"/></g></g></svg>