<svg xmlns="http://www.w3.org/2000/svg" viewBox="0 0 48 48"><defs><clipPath id="1"><path transform="matrix(15.33333 0 0 11.5 415-125.5)" d="m-24 13c0 1.105-.672 2-1.5 2-.828 0-1.5-.895-1.5-2 0-1.105.672-2 1.5-2 .828 0 1.5.895 1.5 2" fill="#1890d0"/></clipPath><linearGradient id="3" x1="8.154" y1="9.731" x2="8.368" y2="5.346" gradientUnits="userSpaceOnUse"><stop stop-color="#ffbc00"/><stop stop-color="#ffec00" offset="1"/></linearGradient><linearGradient id="2" x1="6" y1="8.213" x2="5.986" y2="3.524" gradientUnits="userSpaceOnUse"><stop stop-color="#4965b6"/><stop offset="1" stop-color="#8d9dcc"/></linearGradient><linearGradient gradientTransform="matrix(1.77384 0 0 1.71427 42.46 39.38)" gradientUnits="userSpaceOnUse" y2="-22.851" x2="-11.233" y1="4.675" x1="-10.767" id="0"><stop stop-color="#e1e1e1"/><stop stop-color="#f4f4ff" offset="1"/></linearGradient></defs><rect height="48" width="48" rx="3.085" fill="url(#0)" stroke-width="1"/><g transform="translate(-54.31-.204)"><g clip-path="url(#1)" transform="matrix(1.33303 0 0 1.33303 46.31-7.787)"><g><path transform="scale(3.54331)" d="m6.735 3.535c-.267 0-.519.022-.745.063-.659.116-.782.357-.782.803v.589h1.562v.196h-2.148c-.454 0-.852.27-.979.783-.14.591-.15.957 0 1.571.111.456.376.785.83.785h.461v-.785c0-.507.445-.958.978-.958h1.637c.431 0 .842-.355.842-.786v-1.396c0-.419-.421-.733-.842-.803-.269-.044-.548-.064-.817-.063" fill="url(#2)"/><path transform="scale(3.54331)" d="m8.614 5.186v.686c0 .532-.456.916-.978.916h-1.712c-.43 0-.784.428-.784.849v1.473c0 .419.368.665.784.785.494.142 1.033.17 1.624 0 .39-.116.781-.342.781-.785v-.591h-1.56v-.194h2.342c.453 0 .624-.313.783-.785.163-.485.153-.947 0-1.571-.112-.444-.326-.783-.783-.783" fill="url(#3)"/></g></g></g></svg>