<svg xmlns="http://www.w3.org/2000/svg" viewBox="0 0 48 48"><defs><linearGradient gradientTransform="matrix(1.0015.00004.00004.95188.292 11.945)" id="3" gradientUnits="userSpaceOnUse" x1=".967" y1="204.55" x2="3.419" y2="147.64"><stop stop-color="#f15400"/><stop offset="1" stop-color="#fa8c00"/></linearGradient><linearGradient id="2" x1="363.38" y1="400.94" x2="359.04" y2="332.47" gradientUnits="userSpaceOnUse"><stop stop-color="#d73b00"/><stop offset="1" stop-color="#e05800"/></linearGradient><linearGradient gradientUnits="userSpaceOnUse" y2="253.93" x2="0" y1="473.94" id="0" gradientTransform="matrix(.26231 0 0 .26156-44.879 141.03)"><stop stop-color="#cdd7dc"/><stop offset="1" stop-color="#ecf0f3"/></linearGradient><linearGradient id="1" gradientUnits="userSpaceOnUse" x1="22.548" y1="267" x2="21.17" y2="148.12" gradientTransform="matrix(.41708-.0003.00032.39759 13.04-59.63)"><stop stop-color="#f16419"/><stop offset="1" stop-color="#feb600"/></linearGradient></defs><g transform="matrix(.11003 0 0 .11003-5.961-5.668)" fill="url(#2)" enable-background="new"><g fill-rule="evenodd"><path d="m-23.525 154.67l47.829.036-.042 55.17-55.44-.042.037-48.05c.006-7.638 7.211-7.109 7.614-7.108" transform="matrix(3.78507-.00288.00287 3.79615 172.52-534.72)" fill="url(#3)"/><path transform="matrix(9.0882 0 0 9.0885 54.15 51.638)" d="m23.02.094v22.918h-23.02v20.07c0 3.191 3 2.971 3.168 2.971h19.92 19.807c.168 0 3.168.22 3.168-2.971v-19.947h.047v-20.07c0-3.191-3-2.973-3.168-2.973h-19.92" fill="url(#1)"/></g><ellipse ry="32.22" rx="32.31" transform="matrix(3.78507 0 0 3.79615 172.52-534.72)" cx="51.669" cy="236.94" fill="url(#0)"/><g fill="#fff" fill-opacity=".855"><path d="m152.42 95.41v39.27h39.12v17.688h-39.12v39.27h-17.838v-39.27h-39.12v-17.688h39.12v-39.27h17.838" transform="translate(17.227 13.704)"/><path d="m403.56 115.78h113.38v16h-113.38v-16" transform="matrix(.82758 0 0 1.20834-14.234 6.677)"/><path d="m188.64 336.04l-32.527 32.527 32.527 32.378-12.591 12.591-32.527-32.378-32.527 32.378-12.591-12.591 32.527-32.378-32.527-32.527 12.591-12.591 32.527 32.527 32.527-32.527 12.591 12.591" transform="translate(16.178-4.24)"/></g><path d="m320.02 340.77h96.08v17.613h-96.08v-17.613m0 34.1h96.08v17.763h-96.08v-17.763" fill="#f47713" stroke-width="5.233"/></g></svg>