<svg xmlns="http://www.w3.org/2000/svg" xmlns:xlink="http://www.w3.org/1999/xlink" viewBox="0 0 48 48"><defs><linearGradient id="4" gradientUnits="userSpaceOnUse" y1="84.41" x2="0" y2="60.41"><stop stop-color="#0a80fd"/><stop offset="1" stop-color="#56c5fa"/></linearGradient><linearGradient xlink:href="#2" id="5" gradientUnits="userSpaceOnUse" y1="88.41" x2="0" y2="56.41"/><linearGradient id="3" x1="73.964" y1="80.1" x2="74.28" y2="61.873" gradientUnits="userSpaceOnUse"><stop stop-color="#f4f4f4"/><stop offset="1" stop-color="#fefefe"/></linearGradient><linearGradient xlink:href="#2" id="1" gradientUnits="userSpaceOnUse" y1="96.65" x2="0" y2="47.853"/><linearGradient id="0" gradientUnits="userSpaceOnUse" y1="92.41" x2="0" y2="52.41"><stop stop-color="#eee"/><stop offset="1" stop-color="#fff"/></linearGradient><linearGradient id="2"><stop stop-color="#e02d2d"/><stop offset="1" stop-color="#f75151"/></linearGradient></defs><g transform="translate(-50.44-48.41)"><circle r="24" cy="72.41" cx="74.44" fill="url(#1)"/><rect y="52.41" x="54.44" height="40" width="40" fill="url(#0)" rx="20"/><rect y="56.41" x="58.44" height="32" width="32" fill="url(#5)" rx="16"/><rect y="60.41" x="62.44" height="24" width="24" fill="url(#4)" rx="12"/><path d="m84.29 69.772c0-.292-.221-.473-.663-.544l-5.941-.864-2.663-5.385c-.15-.324-.343-.485-.58-.485-.237 0-.43.162-.58.485l-2.663 5.385-5.941.864c-.442.071-.663.252-.663.544 0 .166.099.355.296.568l4.308 4.19-1.018 5.918c-.016.111-.024.19-.024.237 0 .166.041.306.124.42.083.114.207.172.373.172.142 0 .3-.047.473-.142l5.314-2.793 5.314 2.793c.166.095.324.142.473.142.158 0 .278-.057.361-.172.083-.114.124-.255.124-.42 0-.103-.004-.181-.012-.237l-1.018-5.918 4.296-4.19c.205-.205.308-.395.308-.568" fill="url(#3)" stroke-width="1.317"/></g></svg>