<svg xmlns="http://www.w3.org/2000/svg" viewBox="0 0 48 48"><defs><linearGradient y2="-7.875" x2="0" y1="20.13" gradientUnits="userSpaceOnUse" id="0"><stop stop-color="#139702"/><stop offset="1" stop-color="#80e950"/></linearGradient></defs><g transform="matrix(1.71427 0 0 1.71427-49.21 13.512)" enable-background="new"><rect y="-7.875" x="28.708" height="28" width="28" fill="url(#0)" rx="14"/><path d="m52.39 5.04c-.031-.274-.35-.48-.626-.48-.893 0-1.684-.524-2.02-1.335-.339-.83-.121-1.798.545-2.408.209-.191.235-.512.059-.734-.457-.58-.976-1.104-1.543-1.558-.222-.178-.548-.153-.74.06-.581.643-1.623.882-2.429.546-.839-.353-1.367-1.202-1.316-2.114.017-.286-.192-.536-.478-.569-.727-.084-1.461-.087-2.191-.006-.282.031-.492.274-.482.557.032.903-.503 1.738-1.334 2.078-.796.325-1.832.088-2.411-.549-.191-.21-.512-.236-.735-.062-.584.458-1.115.982-1.576 1.558-.18.224-.153.548.058.74.678.614.897 1.59.545 2.43-.336.801-1.167 1.316-2.119 1.316-.309-.001-.529.197-.563.478-.086.732-.087 1.477-.004 2.215.031.275.36.479.639.479.848-.022 1.662.503 2 1.335.34.83.122 1.798-.545 2.408-.208.191-.235.511-.059.734.453.576.972 1.101 1.541 1.559.223.18.548.154.741-.059.583-.645 1.625-.883 2.428-.546.841.352 1.369 1.201 1.318 2.114-.017.287.194.536.478.569.372.043.747.065 1.122.065.356 0 .713-.02 1.069-.059.282-.031.492-.274.482-.558-.033-.903.503-1.737 1.332-2.077.801-.327 1.833-.088 2.412.549.193.209.511.235.735.061.583-.457 1.112-.981 1.576-1.558.18-.223.154-.548-.058-.74-.678-.614-.898-1.59-.546-2.43.331-.79 1.131-1.32 1.992-1.32l.12.003c.279.023.536-.192.57-.477.086-.732.087-1.477.004-2.215m-9.663 4.351c-1.791 0-3.249-1.457-3.249-3.249 0-1.791 1.457-3.249 3.249-3.249 1.791 0 3.248 1.457 3.248 3.249 0 1.791-1.457 3.249-3.248 3.249" fill="#fff" fill-rule="evenodd" fill-opacity=".847" stroke-width="1.317"/></g></svg>