<svg xmlns="http://www.w3.org/2000/svg" viewBox="0 0 48 48"><defs><linearGradient id="0" x1="408.02" y1="545.26" x2="408.56" y2="503.42" gradientUnits="userSpaceOnUse" gradientTransform="matrix(1.06666 0 0 1.06893-378.42-552.26)"><stop stop-color="#1f2121"/><stop offset="1" stop-color="#404447"/></linearGradient><linearGradient id="1" y1="546.81" x2="0" y2="512.72" gradientUnits="userSpaceOnUse" gradientTransform="matrix(.97347 0 0 1.02672-340.36-529.19)"><stop stop-color="#e1e1e1"/><stop offset="1" stop-color="#fcf9f9"/></linearGradient></defs><g transform="matrix(.99999 0 0 .99999-33.381 15.772)" enable-background="new"><ellipse cx="57.37" cy="9.187" rx="21.903" ry="23.1" fill="url(#1)"/><path d="m78.17-3.8c-2.146-3.695-5.057-6.621-8.734-8.777-3.677-2.157-7.692-3.235-12.05-3.235-4.354 0-8.37 1.078-12.05 3.235-3.677 2.157-6.588 5.082-8.734 8.777-2.146 3.695-3.219 7.73-3.219 12.11 0 5.255 1.526 9.981 4.578 14.178 3.052 4.197 6.994 7.102 11.828 8.714.563.105.979.031 1.25-.219.271-.251.406-.565.406-.942 0-.063-.005-.628-.016-1.696-.011-1.068-.016-2-.016-2.794l-.719.125c-.458.085-1.036.12-1.734.11-.698-.009-1.422-.083-2.172-.22-.75-.136-1.448-.449-2.094-.941-.646-.492-1.104-1.136-1.375-1.931l-.313-.723c-.208-.481-.536-1.015-.984-1.601-.448-.586-.901-.984-1.359-1.193l-.219-.157c-.146-.105-.281-.231-.406-.377-.125-.146-.219-.293-.281-.44-.063-.146-.011-.267.156-.362.167-.094.469-.141.906-.141l.625.094c.417.084.932.335 1.547.754.614.419 1.12.963 1.515 1.632.479.859 1.057 1.513 1.734 1.963.677.45 1.359.675 2.047.675.687 0 1.281-.052 1.781-.157.5-.104.968-.262 1.406-.471.188-1.403.698-2.481 1.531-3.235-1.187-.126-2.255-.315-3.203-.565-.948-.251-1.927-.659-2.937-1.225-1.01-.565-1.849-1.267-2.516-2.104-.667-.838-1.214-1.937-1.64-3.297-.427-1.361-.641-2.931-.641-4.71 0-2.534.823-4.69 2.469-6.469-.771-1.905-.698-4.04.219-6.406.604-.188 1.5-.047 2.688.424 1.187.471 2.057.875 2.609 1.209.552.335.995.618 1.328.848 1.938-.544 3.938-.816 6-.816 2.062 0 4.063.272 6 .816l1.187-.754c.812-.503 1.771-.963 2.874-1.382 1.104-.419 1.948-.534 2.532-.345.937 2.366 1.021 4.501.25 6.406 1.646 1.78 2.469 3.936 2.469 6.469 0 1.78-.214 3.354-.641 4.726-.427 1.372-.979 2.47-1.656 3.297-.677.827-1.521 1.523-2.531 2.088-1.01.565-1.99.974-2.938 1.225-.948.251-2.02.44-3.203.566 1.083.942 1.625 2.428 1.625 4.459v6.625c0 .377.13.691.391.942.26.251.672.325 1.234.22 4.834-1.612 8.776-4.517 11.828-8.714 3.052-4.197 4.578-8.923 4.578-14.178-.0001-4.374-1.075-8.409-3.22-12.1" fill="url(#0)"/></g></svg>