<svg xmlns="http://www.w3.org/2000/svg" viewBox="0 0 48 48"><defs><clipPath id="1"><path transform="matrix(15.33333 0 0 11.5 415-125.5)" d="m-24 13c0 1.105-.672 2-1.5 2-.828 0-1.5-.895-1.5-2 0-1.105.672-2 1.5-2 .828 0 1.5.895 1.5 2" fill="#1890d0"/></clipPath><linearGradient id="0" x1="61.57" y1="22.939" x2="60.753" y2="-27.706" gradientUnits="userSpaceOnUse"><stop stop-color="#197cf1"/><stop offset="1" stop-color="#21c9fb"/></linearGradient></defs><path d="m41.36-25.875h42.04c1.652 0 2.982 1.33 2.982 2.982v42.04c0 1.652-1.33 2.982-2.982 2.982h-42.04c-1.652 0-2.982-1.33-2.982-2.982v-42.04c0-1.652 1.33-2.982 2.982-2.982" transform="matrix(.99999 0 0 .99999-38.38 25.875)" fill="url(#0)" fill-rule="evenodd"/><g transform="matrix(1.5 0 0 1.5-12-12)"><g clip-path="url(#1)"><g><path d="m23 30.5c0 3.039-2.461 5.5-5.5 5.5-3.039 0-5.5-2.461-5.5-5.5 0-3.039 2.461-5.5 5.5-5.5 3.039 0 5.5 2.461 5.5 5.5" fill-opacity=".788"/><g fill="#dcf0fe"><path d="m36 30.5c0 3.039-2.461 5.5-5.5 5.5-3.039 0-5.5-2.461-5.5-5.5 0-3.039 2.461-5.5 5.5-5.5 3.039 0 5.5 2.461 5.5 5.5"/><path d="m23 17.5c0 3.039-2.461 5.5-5.5 5.5-3.039 0-5.5-2.461-5.5-5.5 0-3.039 2.461-5.5 5.5-5.5 3.039 0 5.5 2.461 5.5 5.5"/></g><path d="m36 17.5c0 3.039-2.461 5.5-5.5 5.5-3.039 0-5.5-2.461-5.5-5.5 0-3.039 2.461-5.5 5.5-5.5 3.039 0 5.5 2.461 5.5 5.5" fill-opacity=".788"/></g></g></g></svg>