<svg xmlns="http://www.w3.org/2000/svg" viewBox="0 0 48 48"><defs><linearGradient id="0" y1="546.93" x2="0" y2="516.48" gradientUnits="userSpaceOnUse"><stop stop-color="#197cf1"/><stop offset="1" stop-color="#20bcfa"/></linearGradient></defs><g fill="#fff"><g fill-opacity=".878"><circle cx="400.57" cy="531.8" r="14" transform="matrix(1.63114 0 0 1.63114-629.39-843.43)" fill="url(#0)" stroke="url(#0)" fill-opacity="1" stroke-width="1.427"/></g><path d="m367.96 521.19c.655.661 1.721.663 2.379.005l6.657-7.325 6.626 7.354c.657.661 1.721.663 2.379.005.66-.658.662-1.725.005-2.384l-7.707-8.554c-.355-.357-.829-.514-1.294-.486-.465-.03-.94.125-1.296.48l-7.744 8.521c-.658.658-.66 1.725-.005 2.384m9.02 7.12c-1.531-.003-2.774 1.236-2.778 2.769-.003 1.533 1.235 2.777 2.766 2.78 1.531.003 2.774-1.236 2.778-2.769.003-1.533-1.235-2.777-2.766-2.78m.017-7.929c-1.531-.003-2.774 1.236-2.778 2.769-.003 1.533 1.235 2.777 2.766 2.78 1.531.003 2.774-1.236 2.778-2.769.003-1.533-1.235-2.777-2.766-2.78" fill-opacity=".855" transform="matrix(1.16381 0 0 1.16381-414.74-583.31)"/></g></svg>