<svg xmlns="http://www.w3.org/2000/svg" viewBox="0 0 48 48"><defs><clipPath><path transform="matrix(15.33333 0 0 11.5 415-125.5)" d="m-24 13c0 1.105-.672 2-1.5 2-.828 0-1.5-.895-1.5-2 0-1.105.672-2 1.5-2 .828 0 1.5.895 1.5 2" fill="#1890d0"/></clipPath><linearGradient y1="545.8" x2="0" y2="517.8" gradientUnits="userSpaceOnUse"><stop stop-color="#3889e9"/><stop offset="1" stop-color="#5ea5fb"/></linearGradient><linearGradient id="1" gradientUnits="userSpaceOnUse" y1="653.96" x2="0" y2="301.3"><stop stop-color="#566069"/><stop offset="1" stop-color="#6c7884"/></linearGradient><linearGradient id="0" y1="653.96" x2="0" y2="301.3" gradientUnits="userSpaceOnUse"><stop stop-color="#0a80fd"/><stop offset="1" stop-color="#56c5fa"/></linearGradient></defs><circle cx="-325.89" cy="478.75" r="173.45" fill="url(#1)" transform="matrix(.13837 0 0 .13837 69.1-42.09)"/><path d="m269.8 50.743c-1.78-5.744-11.06-9.395-20.997-10.383-12.215-1.223-27.84 1.321-41.43 6.959-10.324 4.283-19.889 9.614-29.721 17.347-15.463 12.154-23.654 21.936-27.796 27.4-3.347 4.413-4.059 9.449-7.13 11.768-.155-1.163.258-4.226-1.739-5.387-.588-.341-1.249-.736-1.913-1.123.748-3.086 4.615-17.909 10.821-26.413 7.539-10.349 15.965-16.273 17.06-16.954 1.333-.841 2.749-.906 3.678-1.487.705-.437 1.175-2.367.789-2.579-1.432-.783-3.02.91-4.01 1.987-1.045 1.142-11.975 8.63-18.662 18.378-6.25 9.104-10.191 23.66-10.9 26.399-1.17-.627-2.244-1.112-2.847-1.112-.544 0-1.467.395-2.486.917-.816-3.171-4.734-17.417-10.845-26.339-6.688-9.745-17.621-17.1-18.667-18.243-.979-1.077-2.575-2.77-4-1.987-.402.211.073 2.142.778 2.579.936.581 2.34.646 3.683 1.487 1.091.68 9.514 6.475 17.06 16.816 6.077 8.331 9.904 22.818 10.782 26.341-.794.453-1.6.929-2.301 1.332-1.979 1.161-1.572 4.225-1.734 5.387-2.77-1.487-5-7.965-9.06-13.975-4.31-6.413-10.397-13.04-25.848-25.19-9.851-7.732-19.408-13.06-29.727-17.347-13.592-5.639-29.22-8.183-41.44-6.959-9.951.989-19.24 4.64-20.998 10.383-1.365 4.454 4.734 18.271 10.387 26.297 4.203 5.967 5.081 12.863 6.631 19.667 2.211 9.724 6.223 24.23 17.248 27.843 10.09 3.318 29.826-2.649 29.826-2.649 0 0 .433 3.533-6.193 6.185-6.896 2.763-10.617 7.07-14.585 14.584-3.563 6.74-6.402 15.777-6.402 19.768 0 6.187 1.545 8.397 1.316 11.268-.268 3.554.996 7.07 3.436 9.721 2.737 3 1.65 5.635 2.872 8.951 1.102 2.996 5.411 5.416 5.411 5.416 0 0-.487 6.78 4.422 11.271 3.966 3.642 8.461 6.02 11.382 8.611 2.971 2.658 5.192 4.76 11.594 5.973 3.69.701 5.972 6.706 13.7 6.266 8.388-.48 8.366-.14 13.71-2.327 8.607-3.531 12.457-20.2 16.12-36.3 2.881-12.602 5.086-20.421 8.896-23.07-1.081 7.376.533 19.634.533 19.634 0 0-1.169 6.293-.09 7.375-.499 3.233.504 7.656 1.051 7.547.224 2.642 1.602 7.447 3.539 7.447 1.935 0 3.318-4.806 3.529-7.447.561.109 1.551-4.313 1.057-7.547 1.076-1.082-.088-7.375-.088-7.375 0 0 1.489-11.51.498-19.797 3.402 1.734 6.05 10.629 8.921 23.23 3.676 16.1 7.521 32.765 16.14 36.3 5.332 2.188 5.317-.034 13.699.444 7.734.441 10.01-6.875 13.699-7.568 6.413-1.217 8.623-3.315 11.6-5.969 2.934-2.596 7.404-4.973 11.389-8.617 4.891-4.492 4.41-11.274 4.41-11.274 0 0 4.332-2.429 5.428-5.415 1.197-3.313.117-5.951 2.86-8.949 2.433-2.648 3.704-6.167 3.424-9.72-.218-2.874 1.337-5.085 1.337-11.268 0-3.99-2.848-9.841-6.424-16.581-3.972-7.514-7.678-11.821-14.577-14.584-6.626-2.652-6.185-6.185-6.185-6.185 0 0 19.711 5.967 29.838 2.649 11.01-3.609 15.03-18.12 17.232-27.843 1.549-6.804 2.433-13.701 6.629-19.667 5.64-8.03 11.755-21.843 10.385-26.297" fill="#fff" fill-opacity=".776" transform="matrix(.12593 0 0 .12593 7.01 9.49)"/></svg>