<svg xmlns="http://www.w3.org/2000/svg" xmlns:xlink="http://www.w3.org/1999/xlink" viewBox="0 0 48 48"><defs><linearGradient gradientUnits="userSpaceOnUse" y2="510.72" x2="0" y1="515.9" id="5" xlink:href="#2"/><linearGradient y2="-425.09" x2="522.76" y1="-403.18" x1="523.1" gradientUnits="userSpaceOnUse" id="4"><stop stop-color="#ac92ec"/><stop offset=".202" stop-color="#64a9ff"/><stop offset=".323" stop-color="#4cdbb7"/><stop offset=".534" stop-color="#aee672"/><stop offset=".763" stop-color="#ffce53"/><stop offset=".899" stop-color="#fb6e51"/><stop offset="1" stop-color="#ed5565"/></linearGradient><linearGradient y2="522.08" x2="401.01" y1="543.99" x1="401.35" gradientUnits="userSpaceOnUse" id="6" xlink:href="#2"/><linearGradient y2="532.63" x2="424.07" y1="515.76" x1="407.2" gradientUnits="userSpaceOnUse" id="3" xlink:href="#2"/><linearGradient y2="510.43" x2="414.58" y1="537.14" x1="415.32" gradientUnits="userSpaceOnUse" id="1" xlink:href="#2"/><linearGradient y2="507.67" x2="390.88" y1="531.8" x1="391.57" gradientTransform="matrix(1 0 0 1.23287-8-109.15)" gradientUnits="userSpaceOnUse" id="0"><stop stop-color="#d3d3d3"/><stop offset="1" stop-color="#fcf9f9"/></linearGradient><linearGradient id="2"><stop stop-color="#222c35"/><stop offset="1" stop-color="#545e67"/></linearGradient></defs><g transform="matrix(.99999 0 0 .99999-376.56-507.79)" enable-background="new"><rect y="516.9" x="376.57" height="29.589" width="48" fill="url(#0)" rx="1.385" stroke-width=".923"/><path d="m401.27124 523.8253a13.999973 13.999973 0 0 1 13.99997 -13.99997 13.999973 13.999973 0 0 1 13.99997 13.99997 13.999973 13.999973 0 0 1 -13.99997 13.99998 13.999973 13.999973 0 0 1 -13.99997 -13.99998" transform="matrix(1.20132 0 0 1.20132-96.84-97.48)" fill="url(#1)"/><circle cx="415.27" cy="523.83" r="11" transform="matrix(1.20132 0 0 1.20132-96.84-97.48)" fill="url(#3)"/><circle transform="matrix(0 1.20132-1.20132 0-96.84-97.48)" r="10" cy="-415.27" cx="523.83" fill="url(#4)"/><circle r="2.591" cy="513.31" cx="372.71" transform="matrix(.92308 0 0 .92308 37.906 48.19)" fill="url(#5)" fill-rule="evenodd"/><circle r="10" cy="531.9" cx="402.07" fill="url(#6)"/></g></svg>