<svg xmlns="http://www.w3.org/2000/svg" xmlns:xlink="http://www.w3.org/1999/xlink" viewBox="0 0 48 48"><defs><linearGradient xlink:href="#6" id="7" x1="348.91" y1="537.41" x2="348.62" y2="533.55" gradientUnits="userSpaceOnUse"/><linearGradient xlink:href="#6" id="C" x1="359.3" y1="511.34" x2="359.01" y2="507.48" gradientUnits="userSpaceOnUse"/><linearGradient id="8" x1="347.75" y1="540.87" x2="347.97" y2="501.65" gradientUnits="userSpaceOnUse"><stop stop-color="#2e3e46"/><stop offset="1" stop-color="#435a64"/></linearGradient><linearGradient xlink:href="#6" id="A" x1="342.95" y1="538.63" x2="343.58" y2="506.25" gradientUnits="userSpaceOnUse"/><linearGradient xlink:href="#6" id="B" gradientUnits="userSpaceOnUse" x1="25.86" y1="37.922" x2="26.423" y2="9.01"/><linearGradient xlink:href="#6" id="9" x1="348.91" y1="506.91" x2="348.62" y2="503.05" gradientUnits="userSpaceOnUse"/><linearGradient id="6"><stop stop-color="#1584d8"/><stop offset="1" stop-color="#1cb2ff"/></linearGradient><linearGradient xlink:href="#6" id="0" x1="333.48" y1="522.39" x2="333.2" y2="518.53" gradientUnits="userSpaceOnUse"/><linearGradient xlink:href="#6" id="5" x1="363.99" y1="522.39" x2="363.7" y2="518.53" gradientUnits="userSpaceOnUse"/><linearGradient xlink:href="#6" id="1" x1="353.1" y1="543.11" x2="352.75" y2="500.26" gradientUnits="userSpaceOnUse"/><linearGradient xlink:href="#6" id="3" x1="338.06" y1="511.34" x2="337.77" y2="507.48" gradientUnits="userSpaceOnUse"/><linearGradient xlink:href="#6" id="4" x1="338.02" y1="533.08" x2="337.74" y2="529.22" gradientUnits="userSpaceOnUse"/><linearGradient xlink:href="#6" id="2" x1="359.29" y1="533.05" x2="359.01" y2="529.2" gradientUnits="userSpaceOnUse"/></defs><g transform="matrix(1.20192 0 0 1.20192-394.84-601.5)"><circle r="19.218" cy="520.44" cx="348.55" fill="url(#8)" stroke="url(#1)" stroke-linejoin="round" stroke-linecap="round" stroke-width="1.5"/><circle cx="348.7" cy="505.24" r="1.337" fill="url(#9)"/><path d="M24.22656 10.806641A13.445903 13.445903 0 0 0 10.78125 24.25391 13.445903 13.445903 0 0 0 24.22656 37.699219 13.445903 13.445903 0 0 0 37.671875 24.25391 13.445903 13.445903 0 0 0 24.22656 10.806641M24 17C26.02 18.709 27.922 20.961 28.82 23.469 29.376 25.02 29.432 26.703 28.648 28.19 27.748 29.902 25.933 31 24 31 22.07 31 20.252 29.902 19.352 28.19 18.568 26.703 18.624 25.02 19.18 23.469 20.08 20.961 21.983 18.709 24 17" transform="matrix(.832 0 0 .832 328.51 500.45)" fill="url(#B)"/><circle cx="348.7" cy="535.74" r="1.337" fill="url(#7)"/><circle cx="363.78" cy="520.72" r="1.337" fill="url(#5)"/><circle cx="333.27" cy="520.72" r="1.337" fill="url(#0)"/><circle cx="359.09" cy="531.38" r="1.337" fill="url(#2)"/><circle cx="337.82" cy="531.4" r="1.337" fill="url(#4)"/><circle cx="337.85" cy="509.67" r="1.337" fill="url(#3)"/><circle cx="359.09" cy="509.67" r="1.337" fill="url(#C)"/></g></svg>