<svg xmlns="http://www.w3.org/2000/svg" viewBox="0 0 48 48"><defs><linearGradient y2="-7.875" x2="0" y1="20.13" gradientUnits="userSpaceOnUse" id="0"><stop stop-color="#139702"/><stop offset="1" stop-color="#80e950"/></linearGradient></defs><g transform="matrix(1.71427 0 0 1.71427-49.21 13.512)" enable-background="new"><rect y="-7.875" x="28.708" height="28" width="28" fill="url(#0)" rx="14"/><path d="m51.4 5.153c-.028-.246-.314-.431-.563-.431-.802 0-1.513-.471-1.812-1.199-.305-.746-.108-1.616.489-2.164.188-.172.211-.46.053-.66-.41-.521-.877-.992-1.386-1.4-.199-.16-.492-.138-.665.054-.522.578-1.458.792-2.182.49-.753-.317-1.228-1.08-1.182-1.9.015-.257-.173-.481-.429-.511-.654-.076-1.313-.078-1.968-.005-.254.028-.442.247-.433.501.029.811-.452 1.561-1.198 1.867-.715.292-1.646.079-2.166-.493-.172-.189-.46-.212-.66-.056-.524.411-1 .883-1.416 1.399-.162.201-.138.492.052.665.609.552.806 1.429.489 2.183-.302.719-1.049 1.183-1.904 1.183-.277-.009-.475.177-.505.43-.077.657-.078 1.327-.004 1.99.027.247.323.43.574.43.762-.019 1.493.452 1.8 1.199.306.746.109 1.615-.489 2.164-.187.172-.211.459-.053.659.407.518.873.989 1.384 1.4.2.162.492.139.666-.053.524-.579 1.46-.793 2.181-.491.755.316 1.23 1.079 1.184 1.899-.015.258.174.482.429.511.334.039.671.058 1.01.058.32 0 .64-.018.961-.053.254-.028.442-.247.433-.501-.029-.811.452-1.561 1.197-1.866.72-.294 1.646-.079 2.167.493.173.188.459.211.66.055.523-.41.999-.881 1.416-1.4.161-.2.139-.492-.052-.665-.609-.552-.807-1.429-.49-2.183.297-.71 1.017-1.186 1.79-1.186l.108.003c.251.02.482-.173.512-.429.077-.658.078-1.327.004-1.99m-8.681 3.909c-1.609 0-2.919-1.309-2.919-2.919 0-1.609 1.309-2.919 2.919-2.919 1.609 0 2.919 1.309 2.919 2.919 0 1.609-1.309 2.919-2.919 2.919" fill="#fff" fill-rule="evenodd" fill-opacity=".847" stroke-width="1.317"/></g></svg>