<svg xmlns="http://www.w3.org/2000/svg" viewBox="0 0 48 48"><defs><linearGradient id="0" x1="556.45" y1="468.21" x2="555.31" y2="419.6" gradientUnits="userSpaceOnUse"><stop stop-color="#566069"/><stop offset="1" stop-color="#6c7884"/></linearGradient><linearGradient id="1" x1="-109.5" y1="31.556" x2="-109.61" y2="1.264" gradientUnits="userSpaceOnUse"><stop stop-color="#49b202"/><stop offset="1" stop-color="#8cd958"/></linearGradient><linearGradient id="2" x1="-26.21" y1="59.52" x2="-27.529" y2="34.05" gradientUnits="userSpaceOnUse"><stop stop-color="#d5dbff"/><stop offset="1" stop-color="#f9ffff"/></linearGradient></defs><g transform="matrix(.80031-.01103.01103.80031 31.33-2.991)"><rect width="76.81" height="58.987" x="504.27" y="424.19" transform="matrix(-.66071-.01326-.01326.66071 354.61-267.73)" fill="url(#0)" rx="2.3"/><rect transform="matrix(-1.22665-.2373-.2373 1.22665-139.16-7.543)" width="40.627" height="31.2" x="-130.49" y=".696" fill="url(#1)" rx="1.217"/><g fill="#fff" fill-opacity=".851" transform="matrix(.13085.0286-.0286.13085-19.758 20.353)"><path d="m60.36 63.29c-2.929-2.929-7.678-2.93-10.606-.0001l-47.554 47.548c-1.407 1.407-2.197 3.315-2.197 5.304 0 1.989.79 3.896 2.196 5.303l47.35 47.35c1.465 1.465 3.384 2.197 5.304 2.197 1.919 0 3.839-.732 5.303-2.196 2.93-2.929 2.93-7.678.0001-10.606l-42.04-42.05 42.25-42.25c2.929-2.929 2.929-7.678 0-10.606"/><path d="m228.6 110.64l-47.36-47.35c-2.928-2.928-7.677-2.929-10.606.0001-2.929 2.929-2.929 7.678.0001 10.607l42.05 42.05-42.25 42.24c-2.93 2.929-2.93 7.678-.0001 10.606 1.465 1.465 3.384 2.197 5.304 2.197 1.919 0 3.839-.732 5.303-2.196l47.554-47.547c1.407-1.406 2.197-3.314 2.197-5.304-.002-1.988-.792-3.896-2.199-5.303"/><path d="m155.89 61.3c-3.314-2.484-8.02-1.806-10.498 1.51l-71.994 96.18c-2.482 3.316-1.807 8.02 1.51 10.498 1.348 1.01 2.925 1.496 4.488 1.496 2.282 0 4.537-1.038 6.01-3.01l71.993-96.18c2.483-3.316 1.807-8.02-1.509-10.498"/></g><path d="m-26.714953 33.939529a13.07691 13.07691 0 0 0 -13.07769 13.07751 13.07691 13.07691 0 0 0 13.07755 13.07488 13.07691 13.07691 0 0 0 13.07765 -13.0747 13.07691 13.07691 0 0 0 -13.07751 -13.07769m-3.955 7.557l9.557 5.435-9.484 5.561-.074-10.996" fill="url(#2)"/></g></svg>