<svg xmlns="http://www.w3.org/2000/svg" xmlns:xlink="http://www.w3.org/1999/xlink" viewBox="0 0 48 48"><defs><linearGradient id="5" x1="405.25" y1="525.29" x2="405.11" y2="519.51" gradientUnits="userSpaceOnUse"><stop stop-color="#ff9300"/><stop stop-color="#ffd702" offset="1"/></linearGradient><linearGradient id="4" x1="421.53" y1="521.21" x2="421.37" y2="515" gradientUnits="userSpaceOnUse"><stop stop-color="#197cf1"/><stop offset="1" stop-color="#21c9fb"/></linearGradient><linearGradient id="6" x1="405.1" y1="531.8" x2="405.02" y2="515.12" gradientUnits="userSpaceOnUse"><stop stop-color="#2e3436"/><stop offset="1" stop-color="#555753"/></linearGradient><linearGradient id="3" x1="414.58" y1="532.58" x2="414.41" y2="525.47" gradientUnits="userSpaceOnUse"><stop stop-color="#00a661"/><stop stop-color="#37ce97" offset="1"/></linearGradient><linearGradient xlink:href="#0" gradientUnits="userSpaceOnUse" x1="398.65" y1="546.31" x2="398.46" y2="538.32"/><linearGradient id="0" y1="31.924" x2="0" y2="-16.08" gradientUnits="userSpaceOnUse"><stop stop-color="#dc3c30"/><stop offset="1" stop-color="#ff786d"/></linearGradient><linearGradient xlink:href="#0" id="2" x1="395.07" y1="532.67" x2="394.87" y2="524.68" gradientUnits="userSpaceOnUse"/><linearGradient id="1" x1="-10.767" y1="4.675" x2="-11.233" y2="-22.851" gradientUnits="userSpaceOnUse" gradientTransform="matrix(1.77384 0 0 1.71427 42.46 39.38)"><stop stop-color="#e1e1e1"/><stop offset="1" stop-color="#f4f4ff"/></linearGradient></defs><rect height="48" width="48" rx="3.085" fill="url(#1)" stroke-width="1"/><g transform="matrix(1.21054 0 0 1.21054-470.17-609.87)"><path d="m421.84 520.67c-.307 0-.597-.063-.87-.163l-4.02 6.294c.558.528.91 1.27.91 2.098 0 1.598-1.296 2.893-2.894 2.893-1.598 0-2.893-1.295-2.893-2.893 0-.443.107-.858.285-1.234l-5.278-3.857c-.411.351-.937.57-1.519.57-.643 0-1.226-.26-1.65-.678l-5.398 3.376c.276.481.436 1.038.436 1.632 0 1.818-1.473 3.291-3.29 3.291-1.817 0-3.29-1.473-3.29-3.291 0-1.818 1.473-3.291 3.29-3.291.827 0 1.582.308 2.16.813l5.523-3.456c-.079-.236-.132-.485-.132-.748 0-1.298 1.052-2.351 2.35-2.351 1.299 0 2.351 1.053 2.351 2.351 0 .323-.066.631-.185.912l5.269 3.85c.517-.482 1.205-.783 1.968-.783.379 0 .738.078 1.07.21l4.01-6.285c-.46-.458-.744-1.092-.744-1.792 0-1.399 1.133-2.532 2.532-2.532 1.398 0 2.532 1.133 2.532 2.532 0 1.399-1.133 2.531-2.531 2.531z" fill="url(#6)" stroke="url(#6)"/><ellipse cx="395.52" cy="528.4" rx="4.312" ry="4.312" fill="url(#2)"/><ellipse cx="414.99" cy="528.78" rx="3.833" ry="3.833" fill="url(#3)"/><ellipse cx="421.88" cy="517.89" rx="3.354" ry="3.354" fill="url(#4)"/><ellipse cx="405.58" cy="522.2" rx="3.115" ry="3.115" fill="url(#5)"/></g></svg>