<svg xmlns="http://www.w3.org/2000/svg" viewBox="0 0 48 48"><defs><linearGradient id="0" x1="57.738" y1="27.728" x2="57.695" y2="-12.884" gradientUnits="userSpaceOnUse"><stop stop-color="#54b60f"/><stop stop-color="#92dc41" offset="1"/></linearGradient></defs><g transform="matrix(.99999 0 0 .99999-33.377 15.876)" enable-background="new"><path d="m74.3-7.351c-4.526-3.683-10.535-5.712-16.921-5.712-6.386 0-12.395 2.028-16.921 5.712-4.565 3.715-7.079 8.667-7.079 13.942 0 5.04 2.292 9.774 6.469 13.426-.075.169-.135.348-.173.535l-1.373 6.752c-.163.802.056 1.281.269 1.541.246.301.61.466 1.026.466.314 0 .651-.093 1-.275l7.984-4.148c2.764.89 5.736 1.356 8.795 1.356 6.386 0 12.395-2.028 16.921-5.712 4.565-3.715 7.079-8.666 7.079-13.942 0-5.276-2.514-10.227-7.079-13.942" fill="url(#0)"/><path d="m69.3 5.593c-.038-.337-.431-.591-.771-.591-1.1 0-2.076-.646-2.485-1.644-.418-1.023-.149-2.216.671-2.967.258-.236.289-.631.073-.905-.563-.715-1.203-1.36-1.901-1.92-.274-.219-.675-.189-.912.074-.715.792-2 1.087-2.993.672-1.033-.435-1.685-1.482-1.621-2.605.021-.353-.237-.66-.589-.701-.896-.104-1.801-.107-2.7-.007-.348.038-.606.338-.594.687.039 1.113-.62 2.141-1.643 2.56-.981.401-2.257.109-2.971-.676-.236-.259-.631-.29-.906-.076-.719.564-1.373 1.21-1.941 1.919-.222.276-.189.675.072.912.835.756 1.105 1.96.671 2.994-.414.986-1.438 1.622-2.611 1.622-.38-.012-.652.243-.693.589-.106.902-.107 1.82-.005 2.729.038.339.443.59.787.59 1.045-.027 2.048.62 2.469 1.644.42 1.023.15 2.215-.671 2.967-.257.236-.289.63-.073.904.558.71 1.197 1.356 1.898 1.921.275.222.675.19.913-.072.718-.794 2-1.088 2.992-.673 1.036.433 1.687 1.48 1.624 2.605-.021.353.238.661.589.701.459.053.92.08 1.382.08.439 0 .878-.024 1.317-.073.348-.038.606-.338.594-.687-.04-1.112.62-2.141 1.642-2.559.988-.403 2.258-.108 2.972.676.237.258.629.289.906.076.718-.563 1.371-1.209 1.941-1.919.221-.275.19-.675-.072-.912-.835-.756-1.106-1.96-.672-2.994.408-.973 1.394-1.627 2.455-1.627l.148.004c.344.028.661-.237.702-.588.106-.902.107-1.82.005-2.729m-11.906 5.361c-2.207 0-4-1.795-4-4 0-2.207 1.795-4 4-4 2.207 0 4 1.796 4 4 0 2.207-1.795 4-4 4" fill="#fff" fill-rule="evenodd" fill-opacity=".847" stroke-width="1.317"/></g></svg>