<svg xmlns="http://www.w3.org/2000/svg" viewBox="0 0 48 48"><defs><clipPath><path d="m-24 13c0 1.105-.672 2-1.5 2-.828 0-1.5-.895-1.5-2 0-1.105.672-2 1.5-2 .828 0 1.5.895 1.5 2" transform="matrix(15.33333 0 0 11.5 415-125.5)" fill="#1890d0"/></clipPath><linearGradient id="0" x1="23.299" y1="47.874" x2="24.13" y2=".989" gradientUnits="userSpaceOnUse"><stop stop-color="#0a80fd"/><stop offset="1" stop-color="#56c5fa"/></linearGradient><linearGradient gradientUnits="userSpaceOnUse" x1="24.306" y1="47.73" x2="23.694" y2="-.449"><stop stop-color="#fa183c"/><stop offset="1" stop-color="#fe590a"/></linearGradient></defs><circle r="24" cy="24" cx="24" fill="url(#0)"/><g transform="matrix(1.71428 0 0 1.71428-676.41-873.08)" enable-background="new"><path d="m408.57 536.13c7.088 0 12.833-5.746 12.833-12.833 0-7.088-5.746-12.833-12.833-12.833v2.406c5.759 0 10.427 4.668 10.427 10.427 0 5.759-4.668 10.427-10.427 10.427v2.406" fill-opacity=".392"/><path d="m395.74 523.3c0 7.088 5.746 12.833 12.833 12.833v-2.406c-5.759 0-10.427-4.668-10.427-10.427 0-5.759 4.668-10.427 10.427-10.427v-2.406c-7.088 0-12.833 5.746-12.833 12.833" fill="#deefff"/></g><path d="m-15.11 26.792v4.836h-2.644v-4.836zm-2.418-2.38v4.836h-2.644v-4.836zm-2.324-2.38v4.836h-2.644v-4.836zm-2.362-2.418v15.15h-2.602v-15.15zm-2.49 16.444v7.556h-4.874v-7.556zm-7.256.254h7.556v4.874h-7.556zm2.192-2.342h7.556v7.254h-7.556z" opacity=".98" transform="matrix(.91667 0 0 .91667 45.571-4.98)" fill="#deefff"/></svg>