<svg xmlns="http://www.w3.org/2000/svg" viewBox="0 0 48 48"><defs><linearGradient id="0" x1="23.869" y1="57.71" x2="23.376" y2="4.882" gradientUnits="userSpaceOnUse"><stop stop-color="#e54141"/><stop stop-color="#ffbd00" offset="1"/></linearGradient></defs><rect width="47.963" height="38.966" x=".041" y="4.49" transform="matrix(1 .00111-.00095 1 0 0)" rx="1.492" fill="url(#0)"/><g enable-background="new"><path d="m19.471 1017.47c-1.765 0-3.229 1.301-3.469 3h-.031-.688-4.313-1v8h-2v1h5v-1h-2v-7h4.313.688.031c.24 1.699 1.703 3 3.469 3 1.765 0 3.229-1.301 3.469-3h.031.313 3.688v2h9v-2h2v16h-3.03c-.24-1.699-1.703-3-3.469-3-1.765 0-3.229 1.301-3.469 3h-3.125c-.204-.586-.75-1-1.406-1-.828 0-1.5.672-1.5 1.5 0 .828.672 1.5 1.5 1.5.656 0 1.202-.414 1.406-1h3.125c.24 1.699 1.703 3 3.469 3 1.765 0 3.229-1.301 3.469-3h3.03 1v-18h-3v-2h-9v2h-3.688-.313-.031c-.24-1.699-1.703-3-3.469-3m0 1c.503 0 .983.15 1.375.406l-1.375 1.375-1.375-1.375c.392-.256.872-.406 1.375-.406m-2.094 1.125l1.375 1.375-1.375 1.375c-.256-.392-.406-.872-.406-1.375 0-.503.15-.983.406-1.375m4.188 0c.256.392.406.872.406 1.375 0 .503-.15.983-.406 1.375l-1.375-1.375 1.375-1.375m-2.094 2.094l1.375 1.375c-.392.256-.872.406-1.375.406-.503 0-.983-.15-1.375-.406l1.375-1.375m-10.5 8.781v1h1v7h1 3.094c.204.586.75 1 1.406 1 .828 0 1.5-.672 1.5-1.5 0-.103-.011-.215-.031-.313l5.313-3.063-.5-.875-5.344 3.094c-.258-.21-.579-.344-.938-.344-.656 0-1.202.414-1.406 1h-3.094v-6h1v-1h-3m22.5 5c1.381 0 2.5 1.119 2.5 2.5 0 1.381-1.119 2.5-2.5 2.5-1.381 0-2.5-1.119-2.5-2.5 0-1.381 1.119-2.5 2.5-2.5m-16 2c.276 0 .5.224.5.5 0 .276-.224.5-.5.5-.276 0-.5-.224-.5-.5 0-.276.224-.5.5-.5m8 0c.276 0 .5.224.5.5 0 .276-.224.5-.5.5-.276 0-.5-.224-.5-.5 0-.276.224-.5.5-.5" fill="#fff" fill-rule="evenodd" fill-opacity=".855" color="#000" transform="matrix(1.05741 0 0 1.05741-1.501-1063.82)"/></g></svg>