<svg xmlns="http://www.w3.org/2000/svg" viewBox="0 0 48 48"><defs><linearGradient gradientTransform="matrix(.84891 0 0 1.67969-409.61-905.25)" gradientUnits="userSpaceOnUse" y2="543.09" x2="0" y1="544.15" id="3"><stop stop-color="#1e56e6"/><stop offset="1" stop-color="#1f9aed"/></linearGradient><linearGradient gradientUnits="userSpaceOnUse" y2="6.259" x2="0" y1="9.824" id="2"><stop stop-color="#040404"/><stop offset="1" stop-color="#121212" stop-opacity=".908"/></linearGradient><linearGradient gradientUnits="userSpaceOnUse" y2="-34.576" x2="-28.18" y1="2.947" x1="-28.387" id="0"><stop stop-color="#b6b9bf"/><stop offset="1" stop-color="#dddfe2"/></linearGradient><linearGradient gradientTransform="matrix(.41726 0 0 .41031-55.34-36.651)" x2="122.72" x1="10.09" gradientUnits="userSpaceOnUse" id="1"><stop stop-color="#1a1a1a"/><stop offset=".111" stop-color="#2c2c2e"/><stop offset=".29" stop-color="#2b2b2d"/><stop offset=".512" stop-color="#2a2b2d"/><stop offset=".752" stop-color="#2b2b2d"/><stop offset=".897" stop-color="#323232"/><stop offset="1" stop-color="#171717"/></linearGradient></defs><g transform="matrix(.99999 0 0 .99999 51.629 35.882)" enable-background="new"><path d="m-51.12 3.496l.417 6.576c0 .682.558 1.231 1.252 1.231h43.656c.693 0 1.252-.549 1.252-1.231l.417-6.576h-46.994" fill="url(#1)"/><path d="m-47.37-35.05h39.07c.693 0 1.252.549 1.252 1.231l2.921 37.12c0 .682-.558 1.231-1.252 1.231h-44.493c-.693 0-1.252-.549-1.252-1.231l2.503-37.12c0-.682.558-1.231 1.252-1.231" fill="url(#0)"/><rect width="19.255" height="1.291" x="-37.18" y="7.572" fill="url(#3)" rx=".646"/><ellipse ry="1.783" rx="1.783" cy="8.264" cx="-9.942" opacity=".452" fill="url(#2)"/><g fill="#e3e8ea" stroke-width="1.317"><path d="m-9.946 8.31c.04 0 .075-.015.104-.044.029-.029.044-.064.044-.104v-.743c0-.04-.015-.075-.044-.104-.029-.029-.064-.044-.104-.044-.04 0-.075.015-.104.044-.029.029-.044.064-.044.104v.743c0 .04.015.075.044.104.029.029.064.044.104.044" opacity=".668"/><path d="m-9.148 7.912c-.062-.125-.15-.229-.263-.313-.032-.025-.069-.034-.11-.029-.041.005-.073.025-.097.058-.025.032-.034.069-.028.11.006.041.025.073.057.098.076.057.134.127.176.21.041.083.062.171.062.265 0 .08-.016.157-.047.23-.031.073-.074.136-.127.19-.053.053-.117.096-.19.127-.073.031-.15.047-.23.047-.08 0-.157-.016-.23-.047-.073-.031-.136-.074-.19-.127-.053-.053-.096-.117-.127-.19-.031-.073-.047-.15-.047-.23 0-.094.021-.182.062-.265.041-.083.1-.153.176-.21.032-.025.052-.057.057-.098.006-.041-.004-.077-.028-.11-.024-.033-.056-.053-.097-.058-.041-.005-.078.004-.111.029-.113.084-.201.189-.263.313-.062.125-.093.257-.093.398 0 .121.024.236.071.346.047.11.111.205.19.284.08.08.174.143.284.19.11.047.225.071.346.071.121 0 .236-.024.346-.071.11-.047.205-.111.284-.19.08-.08.143-.174.19-.284.047-.11.071-.225.071-.346 0-.141-.031-.274-.093-.398" opacity=".668"/></g><path d="m-19.766-24.536l-3.502-.006c-.133 0-.261.042-.356.118-.094.076-.148.178-.148.286l-.006 2.822c-.0001.224.224.405.501.405h.488l-.005 2.15-3.712 2.01.018-8.216 1.291.002c.139 0 .267-.058.339-.153.072-.096.078-.214.015-.313l-2.546-3.976c-.068-.106-.204-.172-.352-.173-.148 0-.284.066-.352.172l-2.564 3.968c-.064.099-.059.218.012.313.072.096.201.154.339.154l1.292.002-.025 11.379-3.996-2.175.004-1.707c.62-.329 1.03-.894 1.032-1.537.002-1.02-1.022-1.848-2.289-1.85-1.265-.002-2.292.824-2.294 1.844-.002.643.407 1.209 1.025 1.54l-.005 2.248c-.0001.339.207.656.557.845l5.962 3.244-.007 3.509c-.841.363-1.42 1.069-1.422 1.892-.002 1.193 1.195 2.161 2.675 2.164 1.482.002 2.684-.963 2.686-2.156.002-.823-.574-1.53-1.413-1.895l.015-6.673 5.683-3.069c.068-.037.131-.079.188-.125.235-.188.371-.447.371-.719l.006-2.691h.489c.133 0 .261-.043.355-.118.094-.076.147-.178.148-.286l.005-2.822c.0001-.224-.223-.405-.501-.405z" fill="#a1a7ae" stroke="#909296" stroke-width=".095"/></g></svg>