<svg xmlns="http://www.w3.org/2000/svg" viewBox="0 0 48 48"><defs><clipPath><path transform="matrix(15.33333 0 0 11.5 415-125.5)" d="m-24 13c0 1.105-.672 2-1.5 2-.828 0-1.5-.895-1.5-2 0-1.105.672-2 1.5-2 .828 0 1.5.895 1.5 2" fill="#1890d0"/></clipPath><linearGradient y1="545.8" x2="0" y2="517.8" gradientUnits="userSpaceOnUse"><stop stop-color="#3889e9"/><stop offset="1" stop-color="#5ea5fb"/></linearGradient><linearGradient id="1" gradientUnits="userSpaceOnUse" y1="653.96" x2="0" y2="301.3"><stop stop-color="#566069"/><stop offset="1" stop-color="#6c7884"/></linearGradient><linearGradient id="0" y1="653.96" x2="0" y2="301.3" gradientUnits="userSpaceOnUse"><stop stop-color="#0a80fd"/><stop offset="1" stop-color="#56c5fa"/></linearGradient></defs><g transform="matrix(.10422 0 0 .10422 57.6-22.858)"><circle cx="-325.89" cy="478.75" r="173.45" fill="url(#1)" transform="matrix(1.3277 0 0 1.3277 110.34-184.57)"/><path d="m-251.45 296.01l-170.3 130.26 78.13 69.34-49.576 107.45 170.3-130.26-78.13-69.34z" fill="#fdfdfd" fill-opacity=".856"/></g></svg>