<svg xmlns="http://www.w3.org/2000/svg" viewBox="0 0 48 48"><defs><linearGradient id="0" x1="24" y1="48.2" x2="23.593" y2=".407" gradientUnits="userSpaceOnUse"><stop stop-color="#00a661"/><stop stop-color="#37ce97" offset="1"/></linearGradient></defs><circle r="24" cy="24" cx="24" fill="url(#0)"/><circle cx="400.57" cy="531.8" r="14" fill="#5ea5fb" fill-opacity="0" transform="matrix(1.71428 0 0 1.71428-662.7-887.66)"/><path d="m14.275 11.989c1.998 0 3.921.259 5.769.775 1.849.517 3.579 1.249 5.191 2.195 1.612.946 3.08 2.081 4.403 3.404 1.323 1.323 2.458 2.791 3.404 4.403.946 1.612 1.678 3.343 2.195 5.191.517 1.849.775 3.772.775 5.769 0 .631-.223 1.169-.67 1.616-.447.447-.986.67-1.616.67-.631 0-1.169-.223-1.617-.67-.447-.447-.67-.986-.67-1.616 0-1.577-.206-3.097-.618-4.561-.412-1.463-.99-2.83-1.735-4.1-.745-1.27-1.638-2.427-2.681-3.469-1.043-1.043-2.199-1.936-3.469-2.681-1.27-.745-2.637-1.323-4.1-1.735-1.463-.412-2.983-.618-4.56-.618-.631 0-1.169-.223-1.616-.67-.447-.447-.67-.986-.67-1.616 0-.631.223-1.169.67-1.616.447-.447.986-.67 1.616-.67m0 8.648c1.805 0 3.5.346 5.086 1.038 1.586.692 2.97 1.63 4.153 2.812 1.183 1.183 2.12 2.567 2.812 4.153.692 1.586 1.038 3.281 1.038 5.086 0 .631-.223 1.169-.67 1.616-.447.447-.986.67-1.617.67-.631 0-1.169-.223-1.616-.67-.447-.447-.67-.986-.67-1.616 0-1.174-.223-2.278-.67-3.312-.447-1.034-1.056-1.936-1.827-2.707-.771-.771-1.673-1.38-2.707-1.827-1.034-.447-2.138-.67-3.312-.67-.631 0-1.169-.223-1.616-.67-.447-.447-.67-.986-.67-1.617 0-.631.223-1.169.67-1.616.447-.447.986-.67 1.616-.67m4.206 12.01c0 .456-.083.876-.25 1.262-.166.386-.394.723-.683 1.012-.289.289-.631.517-1.025.683-.394.166-.81.25-1.249.25-.456 0-.876-.083-1.262-.25-.386-.166-.723-.394-1.012-.683-.289-.289-.517-.626-.683-1.012-.166-.386-.25-.806-.25-1.262 0-.438.083-.854.25-1.249.166-.394.394-.736.683-1.025.289-.289.626-.517 1.012-.683.386-.166.806-.25 1.262-.25.438 0 .854.083 1.249.25.394.167.736.394 1.025.683.289.289.517.631.683 1.025.166.394.25.81.25 1.249z" fill="#dcf4eb"/></svg>