<svg xmlns="http://www.w3.org/2000/svg" viewBox="0 0 48 48"><defs><linearGradient id="0" gradientUnits="userSpaceOnUse" x1="400.95" y1="546.62" x2="401.18" y2="516.93"><stop stop-color="#205ba0"/><stop offset="1" stop-color="#5dbfec"/></linearGradient><linearGradient id="1" x1="409.41" y1="533.91" x2="409.79" y2="522.2" gradientUnits="userSpaceOnUse"><stop stop-color="#46a0ff"/><stop offset="1" stop-color="#9fe0ff"/></linearGradient><linearGradient id="2" x1="403.26" y1="532.6" x2="403.39" y2="511.49" gradientUnits="userSpaceOnUse"><stop stop-color="#d5dbff"/><stop offset="1" stop-color="#f9ffff"/></linearGradient></defs><g transform="matrix(1.07599 0 0 1.07599-416.95-539.43)"><circle r="14" cy="531.8" cx="400.57" transform="matrix(1.4443 0 0 1.4443-169.82-244.44)" fill="url(#0)" stroke="url(#0)" stroke-width="1.385"/><g fill-rule="evenodd" stroke-linejoin="round" stroke-linecap="round" stroke-width=".884"><path d="m394.16 533.74c14.313-9.958 20.839 6.355 37.512.078-10.114-1.119-15.994-9.811-27.12-10.785-9.946-.249-13.56 2.214-10.394 10.707z" fill="url(#1)" stroke="url(#1)"/><path d="m393.46 534.84c-7.452-19.395 2.422-26.825 15.1-21.707 4.434 1.79 9.483 4.959 16.16 6.702-14.49-.038-25.514 4.217-31.26 15z" fill="url(#2)" stroke="url(#2)"/></g></g></svg>