<svg xmlns="http://www.w3.org/2000/svg" viewBox="0 0 48 48"><defs><clipPath id="1"><path transform="matrix(15.33333 0 0 11.5 415-125.5)" d="m-24 13c0 1.105-.672 2-1.5 2-.828 0-1.5-.895-1.5-2 0-1.105.672-2 1.5-2 .828 0 1.5.895 1.5 2" fill="#1890d0"/></clipPath><linearGradient gradientTransform="matrix(1.77384 0 0 1.71427 42.46 39.38)" gradientUnits="userSpaceOnUse" y2="-22.851" x2="-11.233" y1="4.675" x1="-10.767" id="0"><stop stop-color="#e1e1e1"/><stop stop-color="#f4f4ff" offset="1"/></linearGradient><linearGradient id="2" x1="23.12" y1="42.29" x2="23.719" y2="4.07" gradientUnits="userSpaceOnUse"><stop stop-color="#197cf1"/><stop stop-color="#21c9fb" offset="1"/></linearGradient></defs><rect height="48" width="48" rx="3.085" fill="url(#0)" stroke-width="1"/><g transform="matrix(1.23047 0 0 1.23047-5.606-5.458)"><g clip-path="url(#1)"><path d="m19.03 19.355c.055 1.402-1.43 1.465-1.125-.156.348-1.859-.891-2.695-2.074-3.367 2.406 3.156-.477 3.164-1.59 7.219-.379 1.375-.688 2.793-.148 4.01.156.348.57.766.531 1.184-.039.438-.27.773-.457 1.156-.289.586-.828 1.113-1.07 1.633-.137.289.195.508.438.645.367.211.867.277 1.082.668.148.27.109.555-.02.816-.117.246-.203.613.039.777.18.121.414.184.539.395.117.199.063.438.25.594.313.258.828.234 1.066.777.109.25.184.531.328.777.223.379.844.492 1.273.453.461-.047.801-.191 1.242-.324 1.145-.355 2.227-.824 3.25-1.469.859-.551 1.383-.863 2.156-1.316.566-.32 1.371-.215 1.996-.375.773-.199 1.703-.512 2.25-1.055.578-.57.816-1.023.992-2.074-.25.344-.895 1.133-1.535 1.344-.703.23-.953.109-1.168-.18-.18-.246-.227-.574-.219-.879.418-1.375 2.219-.801 3.426-1.277 2.203-.863 2.707-2.828 2.855-4.367.066-.84.176-1.406 1.594-3.098-1.773.762-2.508 1.457-2.918 2.352-.383.84-1.594 1.824-2.32 1-.922-1.051 1.141-2.457 2.648-2.832 1.203-.301 2.313-1.504 2.563-2.664.605-4.03-1.289-5.82.152-8.785-4.289 3.352-.648 5.176-3.387 7.934-1.566 1.566-3.207.734-2.598-.605.402-.863 1.363-.34 1.684-2.336-.895 1.293-3.766.418-4.578 2.52-1.441 3.656-3.422.141-.16-1.613 1.375-.742 4.688-.5 5.488-5.773-1.609 3.121-5.566 2.625-8.742 3.973-1.648.695-3.816 2.316-3.734 4.32" fill="url(#2)"/></g></g></svg>