<svg xmlns="http://www.w3.org/2000/svg" viewBox="0 0 48 48"><defs><linearGradient id="0" gradientUnits="userSpaceOnUse" y1="47.37" x2="0" y2="-1.429"><stop stop-color="#c52828"/><stop offset="1" stop-color="#ff5454"/></linearGradient></defs><g transform="matrix(.99999 0 0 .99999-38.37 25.882)" enable-background="new"><circle cx="82.37" cy="23.12" r="24" fill="url(#0)" transform="translate(-20-25)"/><path d="m73.36-13.875h-1.188c-.282 0-.511.229-.511.511v.635c0 .282-.229.511-.511.511h-1.107c-.282 0-.511-.229-.511-.511v-.635c0-.282-.229-.511-.511-.511h-13.333c-.282 0-.511.229-.511.511v.635c0 .282-.229.511-.511.511h-1.107c-.282 0-.511-.229-.511-.511v-.635c0-.282-.229-.511-.511-.511h-1.148c-.282 0-.511.229-.511.511v22.979c0 .282.229.511.511.511h1.148c.282 0 .511-.229.511-.511v-.467c0-.282.229-.511.511-.511h1.107c.282 0 .511.229.511.511v.467c0 .282.229.511.511.511h13.333c.282 0 .511-.229.511-.511v-.467c0-.282.229-.511.511-.511h1.107c.282 0 .511.229.511.511v.467c0 .282.229.511.511.511h1.188c.282 0 .511-.229.511-.511v-22.979c0-.282-.229-.511-.511-.511m-18.18 19.541c0 .282-.229.511-.511.511h-1.107c-.282 0-.511-.229-.511-.511v-1.107c0-.282.229-.511.511-.511h1.107c.282 0 .511.229.511.511v1.107m0-4.588c0 .282-.229.511-.511.511h-1.107c-.282 0-.511-.229-.511-.511v-1.107c0-.282.229-.511.511-.511h1.107c.282 0 .511.229.511.511v1.107m0-4.589c0 .282-.229.511-.511.511h-1.107c-.282 0-.511-.229-.511-.511v-1.107c0-.282.229-.511.511-.511h1.107c.282 0 .511.229.511.511v1.107m0-4.588c0 .282-.229.511-.511.511h-1.107c-.282 0-.511-.229-.511-.511v-1.107c0-.282.229-.511.511-.511h1.107c.282 0 .511.229.511.511v1.107m12.146 15.525c0 .282-.229.511-.511.511h-8.877c-.282 0-.511-.229-.511-.511v-4.104c0-.282.229-.511.511-.511h8.877c.282 0 .511.229.511.511v4.104m0-7.249c0 .282-.229.511-.511.511h-8.877c-.282 0-.511-.229-.511-.511v-4.104c0-.282.229-.511.511-.511h8.877c.282 0 .511.229.511.511v4.104m0-7.249c0 .282-.229.511-.511.511h-8.877c-.282 0-.511-.229-.511-.511v-4.104c0-.282.229-.511.511-.511h8.877c.282 0 .511.229.511.511v4.104m4.337 12.738c0 .282-.229.511-.511.511h-1.107c-.282 0-.511-.229-.511-.511v-1.107c0-.282.229-.511.511-.511h1.107c.282 0 .511.229.511.511v1.107m0-4.588c0 .282-.229.511-.511.511h-1.107c-.282 0-.511-.229-.511-.511v-1.107c0-.282.229-.511.511-.511h1.107c.282 0 .511.229.511.511v1.107m0-4.589c0 .282-.229.511-.511.511h-1.107c-.282 0-.511-.229-.511-.511v-1.107c0-.282.229-.511.511-.511h1.107c.282 0 .511.229.511.511v1.107m0-4.588c0 .282-.229.511-.511.511h-1.107c-.282 0-.511-.229-.511-.511v-1.107c0-.282.229-.511.511-.511h1.107c.282 0 .511.229.511.511v1.107" fill="#fff" fill-opacity=".846"/></g></svg>