<svg xmlns="http://www.w3.org/2000/svg" viewBox="0 0 48 48"><defs><linearGradient gradientUnits="userSpaceOnUse" y2="516.93" x2="0" y1="549.91" id="0"><stop stop-color="#d5dbff"/><stop offset="1" stop-color="#f9ffff"/></linearGradient><linearGradient gradientUnits="userSpaceOnUse" y2=".523" x2="24.713" y1="39.03" x1="17.917"><stop stop-color="#016ed4"/><stop offset="1" stop-color="#00aefd"/></linearGradient><linearGradient y2="516.93" x2="0" y1="549.91" gradientUnits="userSpaceOnUse" id="1"><stop stop-color="#c52828"/><stop offset="1" stop-color="#ff5454"/></linearGradient></defs><circle r="14" cy="531.8" cx="400.57" fill="url(#1)" stroke="url(#1)" stroke-width="1.385" transform="matrix(1.63354 0 0 1.63354-630.35-844.72)"/><g fill="#fbe2e2"><path d="m307.52 231.06c1.11 2.838 1.614 5.769 1.614 8.681 0 5.862-2.025 11.556-5.423 16.204-3.36 4.593-8.121 8.158-13.722 9.727h.001c-.047.019-.094.019-.117.037-.023 0-.061.019-.079.019-2.623.896-5.312 1.316-7.98 1.316-6.254 0-12.396-2.254-17.306-6.096-4.872-3.826-8.56-9.324-9.717-15.845h-.001c0-.019 0-.042-.009-.069 0-.019 0-.038-.019-.065h.019c-.364-1.681-.551-3.36-.551-5.02 0-5.647 1.923-11.07 5.097-15.551 3.164-4.453 7.626-7.99 12.848-9.811.019 0 .038-.001.038-.001.027 0 .027-.027.051-.027 2.954-1.092 6.072-1.639 9.157-1.639 5.619 0 11.154 1.704 15.821 4.821 4.611 3.066 8.354 7.561 10.23 13.14.019.037.019.07.037.103 0 .037.019.057.037.084h-.026zm-17.194 69.29c-2.202-1.428-4.751-2.291-7.448-2.291-2.175 0-4.434.621-6.445 1.955-19 11.342-41.35 17.558-63.55 17.558-16.65 0-33.2-3.514-48.19-10.879l-.077-.037-.075-.028c-2.261-.924-4.837-2.889-7.647-4.76-1.428-.925-2.919-1.844-4.574-2.521-1.633-.695-3.447-1.181-5.386-1.181-1.605 0-3.292.359-4.957 1.115-.086.033-.168.065-.252.098h.009c-2.616.999-4.66 2.829-5.974 4.994-1.372 2.23-2.046 4.826-2.046 7.411 0 2.334.551 4.667 1.691 6.786 1.085 2.01 2.754 3.762 4.938 4.938 21.429 14.454 46.662 21 71.992 20.979 22.838 0 45.814-5.287 66.27-14.911l.107-.065.103-.056c2.697-1.597 6.282-3.03 9.661-5.115 1.671-1.064 3.304-2.296 4.704-3.897 1.4-1.591 2.525-3.551 3.16-5.875v-.001c.266-1.026.392-2.025.392-3.02 0-1.899-.467-3.701-1.241-5.32-1.134-2.438-2.991-4.435-5.166-5.864m-150.45-34.76c.037 0 .086.014.128.037 2.735.999 5.554 1.493 8.345 1.493 6.963 0 13.73-2.852 18.853-7.5 5.115-4.662 8.618-11.257 8.618-18.775 0-.196 0-.392-.009-.625.019-.336.028-.705.028-1.083 0-7.458-3.456-14.08-8.522-18.762-5.085-4.686-11.836-7.551-18.825-7.551-1.867 0-3.769.219-5.628.653-.028 0-.049.009-.077.009 0 0-.019 0-.028 0-9.252 1.937-17.373 8.803-20.37 18.248v.001c0 .019-.009.037-.009.037-.861 2.586-1.262 5.255-1.262 7.896 0 5.787 1.913 11.426 5.211 16.06 3.269 4.56 7.894 8.145 13.448 9.819.04.002.059.012.099.03m290.16-67.49v.038c.066.94.084 1.878.084 2.81 0 10.447-3.351 20.493-8.941 29.02-5.218 7.976-12.414 14.649-20.703 19.18.532 4.158.84 8.349.84 12.526-.001 22.495-7.766 44.607-21.272 62.33v.009h-.028c-24.969 33.22-63.31 52.804-102.03 62.684h-.001l-.027.023c-20.647 5.01-41.938 7.574-63.22 7.574-31.729 0-63.43-5.722-93.02-17.585l-.009-.028h-.028c-30.672-12.643-59.897-32.739-77.82-62.18-9.642-15.71-14.935-34.14-14.935-52.659 0-4.19.283-8.387.843-12.536-8.07-4.545-15.06-10.99-20.255-18.687-5.542-8.266-9.06-17.95-9.5-28.19v-.04-.037-.082c.009-14.337 6.237-27.918 15.915-37.932 9.677-10.01 22.896-16.554 37.08-16.554.196 0 .392 0 .588 0 1.487-.101 2.987-.159 4.488-.159 7.122 0 14.26 1.153 21.04 3.752l.037.028.038.012c5.787 2.437 11.537 5.377 16.662 9.449 1.661-.871 3.472-1.851 5.504-2.625 31.06-18.395 67.17-25.491 102.36-27.538.306-17.431 2.448-35.68 10.949-51.65 7.08-13.269 19.369-23.599 34-27.18l.061-.03.079-.009c5.573-1.078 11.192-1.575 16.774-1.575 14.869 0 29.561 3.521 43.31 9.02 6.086-9.185 14.776-16.354 24.97-20.375l.098-.056.098-.037c5.983-1.864 12.303-2.954 18.646-2.954 6.692 0 13.437 1.223 19.756 4.046v-.023c.009.023.019.023.019.023.047.016.084.044.116.044 9.06 3.489 16.727 9.937 22.16 17.95 5.442 8.05 8.644 17.688 8.644 27.599 0 1.827-.103 3.657-.317 5.489l-.019.037c0 .028 0 .068-.001.096-1.063 12.809-7.551 24.05-16.736 32.06-9.24 8.05-21.21 12.909-33.49 12.909-1.97 0-3.958-.11-5.937-.374-12.182-.931-23.541-6.826-31.886-15.595-8.373-8.755-13.768-20.453-13.768-33.08 0-.611.056-1.237.074-1.843-11.435-5.092-23.578-9.316-35.646-9.306-1.746 0-3.491.096-5.237.273h-.019c-9.03.871-17.436 6.566-21.506 14.757v.009.028c-6.179 12.03-7.411 26.1-7.598 40.06 34.639 2.259 69.48 10.571 100.04 28.14h.047l.438.259c.579.343 1.652.931 2.623 1.449 2.101-1.704 4.322-3.456 6.856-4.966 9.264-6.17 20.241-9.238 31.22-9.238 4.872 0 9.749.621 14.481 1.834h.019l.196.058c.07.001.121.033.178.033v.009c11.183 2.845 21.3 9.267 28.917 17.927 7.612 8.674 12.731 19.648 13.73 31.561v.025h-.012m-102.03-113.36c0 .469.001.95.057 1.44v.028.056c.224 6.02 3.065 11.619 7.383 15.756 4.34 4.14 10.1 6.702 15.942 6.725h.08.079c.42.033.85.033 1.26.033 5.899.009 11.752-2.532 16.15-6.655 4.405-4.144 7.309-9.78 7.542-15.849l.009-.028v-.037c.038-.464.057-.903.057-1.377 0-6.247-2.922-12.202-7.496-16.612-4.555-4.406-10.688-7.136-16.735-7.12-1.951 0-3.884.266-5.778.854l-.065.005-.056.023c-4.984 1.295-9.656 4.368-13.01 8.449-3.371 4.062-5.415 9.08-5.415 14.309m-255.69 92.84c-4.63-2.156-9.418-3.696-14.15-3.676-.794 0-1.597.047-2.39.133h-.11l-.11.014c-6.795.187-13.653 3.15-18.801 7.899-5.152 4.732-8.559 11.122-8.821 18.17v.065l-.012.058c-.046.57-.065 1.137-.065 1.683 0 4.345 1.333 8.545 3.593 12.368 1.673 2.847 3.867 5.441 6.348 7.701 7.941-17.388 20.348-32.15 34.518-44.41m301.75 85.06c0-15.5-5.592-31.07-14.646-43.604-18.05-25.12-46.06-41.502-75.19-50.636l-.205-.072c-5.592-1.715-11.238-3.234-16.933-4.534-17.03-3.876-34.48-5.806-51.917-5.806-23.414 0-46.827 3.465-69.25 10.379-29.12 9.243-57.22 25.51-75.23 50.71v.019c-9.129 12.587-14.475 28.21-14.475 43.763 0 5.727.716 11.453 2.23 17.02l.019.001c3.278 12.508 9.689 23.671 17.989 33.393 8.295 9.745 18.472 18.06 29.18 24.839 2.371 1.47 4.751 2.87 7.187 4.237 31.09 17.356 66.898 24.964 102.45 24.964 6.01 0 12.06-.214 18.03-.644 35.797-2.959 71.74-13.525 100.8-35.12l.001-.023c9.25-6.837 17.818-15.11 24.595-24.525 6.805-9.418 11.789-19.947 14-31.382v-.033l.009-.001c.907-4.27 1.346-8.605 1.346-12.955m28.25-61.685c-.009-3.762-.868-7.507-2.753-11l-.047-.044-.019-.056c-2.521-5.19-6.479-9.11-11.248-11.782-4.77-2.69-10.352-4.056-15.952-4.056-5.063 0-10.1 1.132-14.57 3.379 14.216 12.344 26.687 27.18 34.746 44.636 2.595-2.259 4.808-5.02 6.464-8.08 2.157-4.02 3.379-8.538 3.379-12.993" transform="matrix(.07905 0 0 .07905 7 7)"/></g></svg>