<svg xmlns="http://www.w3.org/2000/svg" viewBox="0 0 48 48"><defs><clipPath><path transform="matrix(15.33333 0 0 11.5 415-125.5)" d="m-24 13c0 1.105-.672 2-1.5 2-.828 0-1.5-.895-1.5-2 0-1.105.672-2 1.5-2 .828 0 1.5.895 1.5 2" fill="#1890d0"/></clipPath><linearGradient gradientUnits="userSpaceOnUse" y2="-9.331" x2="-23.256" y1="37.652" x1="24.337" id="0"><stop stop-color="#fa183c"/><stop offset="1" stop-color="#fe590a"/></linearGradient></defs><g transform="translate(22.849 9.941)"><circle cx="1.153" cy="14.06" r="23" fill="#6f1314"/><path d="m1.151-9.942c-13.2 0-24 10.8-24 24 0 13.2 10.8 24 24 24 13.2 0 24-10.8 24-24 0-13.2-10.8-24-24-24m0 45c-11.7 0-21-9.3-21-21 0-7.2 3.6-13.8 9.6-17.7-.3 1.8-.6 3.9-.6 5.7 0 14.7 12 26.698 26.698 27-3.9 3.9-9 6-14.7 6" fill="url(#0)"/></g></svg>