<svg xmlns="http://www.w3.org/2000/svg" viewBox="0 0 48 48"><defs><linearGradient id="0" x1="-17.996" y1="44.541" x2="-18.813" y2="-6.104" gradientUnits="userSpaceOnUse"><stop stop-color="#4577b9"/><stop offset="1" stop-color="#60a4fe"/></linearGradient></defs><g transform="translate(41.19 4.271)"><path d="m-38.21-4.273h42.04c1.652 0 2.982 1.33 2.982 2.982v42.04c0 1.652-1.33 2.982-2.982 2.982h-42.04c-1.652 0-2.982-1.33-2.982-2.982v-42.04c0-1.652 1.33-2.982 2.982-2.982" fill="url(#0)" fill-rule="evenodd"/><path d="m-9.879 20.992c.088.224.128.456.128.686 0 .463-.16.913-.429 1.281-.266.363-.642.645-1.085.769-.003.002-.007.002-.008.003-.002 0-.005.002-.006.002-.207.071-.42.104-.631.104-.494 0-.98-.178-1.368-.482-.385-.302-.677-.737-.768-1.253-.0001-.002-.0001-.003-.002-.006 0-.002 0-.003-.002-.005h.002c-.029-.133-.044-.266-.044-.397 0-.446.152-.875.403-1.229.25-.352.603-.632 1.016-.776.002 0 .003-.0001.003-.0001.002 0 .002-.002.004-.002.234-.086.48-.13.724-.13.444 0 .882.135 1.251.381.364.242.66.598.809 1.039.002.003.002.006.003.008 0 .003.002.005.003.007h-.002m-1.359 5.477c-.174-.113-.376-.181-.589-.181-.172 0-.351.049-.509.155-1.502.897-3.269 1.388-5.02 1.388-1.316 0-2.624-.278-3.81-.86l-.006-.003-.006-.002c-.179-.073-.382-.228-.604-.376-.113-.073-.231-.146-.362-.199-.129-.055-.272-.093-.426-.093-.127 0-.26.028-.392.088-.007.003-.013.005-.02.008-.206.079-.368.224-.472.395-.108.176-.162.381-.162.586 0 .184.044.369.134.536.086.159.218.297.39.39 1.694 1.143 3.689 1.66 5.691 1.658 1.805 0 3.622-.418 5.239-1.179l.008-.005.008-.004c.213-.126.497-.239.764-.404.132-.084.261-.181.372-.308.111-.126.2-.281.25-.464.021-.082.031-.161.031-.24 0-.15-.037-.293-.098-.421-.09-.193-.236-.351-.408-.464m-11.893-2.748c.003 0 .007.0001.001.003.216.079.439.118.66.118.55 0 1.085-.225 1.49-.593.404-.369.681-.89.681-1.484 0-.015 0-.031-.0001-.049.002-.027.002-.056.002-.086 0-.59-.273-1.113-.674-1.483-.402-.37-.936-.597-1.488-.597-.148 0-.298.017-.445.052-.002 0-.004.0001-.006.0001 0 0-.002 0-.002 0-.731.153-1.373.696-1.61 1.442 0 .002-.0001.004-.0001.004-.068.204-.1.415-.1.624 0 .457.151.903.412 1.27.258.36.624.644 1.063.776.003 0 .005.0001.008.002m22.937-5.335v.003c.005.074.007.148.007.222 0 .826-.265 1.62-.707 2.294-.412.63-.981 1.158-1.637 1.516.042.329.066.66.066.99-.0001 1.778-.614 3.526-1.682 4.927h-.002c-1.974 2.626-5 4.174-8.07 4.955l-.003.002c-1.632.396-3.315.599-4.998.599-2.508 0-5.01-.452-7.353-1.39v-.002h-.002c-2.425-.999-4.735-2.588-6.151-4.916-.762-1.242-1.181-2.699-1.181-4.163 0-.331.022-.663.067-.991-.638-.359-1.191-.869-1.601-1.477-.438-.653-.716-1.419-.751-2.228v-.003-.003-.006c.0001-1.133.493-2.207 1.258-2.998.765-.791 1.81-1.309 2.931-1.309.015 0 .031 0 .046 0 .118-.008.236-.013.355-.013.563 0 1.127.091 1.663.297l.003.002h.003c.457.193.912.425 1.317.747.131-.069.274-.146.435-.208 2.456-1.454 5.31-2.02 8.091-2.177.024-1.378.194-2.82.866-4.083.56-1.049 1.531-1.865 2.688-2.148l.005-.002h.006c.441-.085.885-.125 1.326-.125 1.175 0 2.337.278 3.424.713.481-.726 1.168-1.293 1.974-1.611l.008-.004.008-.003c.473-.147.973-.233 1.474-.233.529 0 1.062.097 1.562.32v-.002c.0001.002.002.002.002.002.004.0001.007.003.009.003.716.276 1.322.786 1.752 1.419.43.636.683 1.398.683 2.182 0 .144-.008.289-.025.434l-.002.003c0 .002 0 .005-.0001.008-.084 1.013-.597 1.901-1.323 2.535-.73.636-1.676 1.02-2.647 1.02-.156 0-.313-.009-.469-.03-.963-.074-1.861-.54-2.521-1.233-.662-.692-1.088-1.617-1.088-2.615 0-.048.004-.098.006-.146-.904-.403-1.864-.736-2.818-.736-.138 0-.276.008-.414.022h-.002c-.714.069-1.378.519-1.7 1.167v.003c-.488.951-.586 2.063-.601 3.167 2.738.179 5.493.836 7.908 2.224h.004l.035.02c.046.027.131.074.207.115.166-.135.342-.273.542-.393.732-.488 1.6-.73 2.468-.73.385 0 .771.049 1.145.145h.002l.015.005c.006.0001.001.003.014.003.884.226 1.684.733 2.286 1.418.602.686 1.01 1.553 1.085 2.495v.002m-8.07-8.961c0 .037.0001.075.005.114v.002.004c.018.476.242.918.584 1.245.343.327.798.53 1.26.532h.006.006c.033.003.067.003.1.003.466.0001.929-.2 1.276-.526.348-.328.578-.773.596-1.253v-.002-.003c.003-.037.005-.071.005-.109 0-.494-.231-.965-.593-1.313-.36-.348-.845-.564-1.323-.563-.154 0-.307.021-.457.068h-.005l-.004.002c-.394.102-.763.345-1.029.668-.266.321-.428.718-.428 1.131m-20.21 7.339c-.366-.17-.744-.292-1.119-.291-.063 0-.126.004-.189.011h-.009l-.009.0001c-.537.015-1.079.249-1.486.624-.407.374-.677.879-.697 1.436v.005.005c-.004.045-.005.09-.005.133 0 .343.105.675.284.978.132.225.306.43.502.609.628-1.374 1.608-2.541 2.729-3.511m23.853 6.724c0-1.225-.442-2.456-1.158-3.447-1.427-1.986-3.641-3.281-5.943-4l-.016-.006c-.442-.136-.888-.256-1.339-.358-1.346-.306-2.726-.459-4.104-.459-1.851 0-3.702.274-5.474.82-2.302.731-4.523 2.02-5.947 4.01v.002c-.722.995-1.144 2.23-1.144 3.459 0 .453.057.905.176 1.346h.002c.259.989.766 1.871 1.422 2.64.656.77 1.46 1.427 2.306 1.963.187.116.376.227.568.335 2.458 1.372 5.288 1.973 8.098 1.973.475 0 .953-.017 1.425-.051 2.83-.234 5.671-1.069 7.968-2.776v-.002c.731-.54 1.408-1.195 1.944-1.939.538-.744.932-1.577 1.107-2.481v-.003c.072-.338.107-.681.107-1.025m2.233-4.876c-.0001-.297-.069-.593-.218-.87l-.004-.003-.002-.004c-.199-.41-.512-.72-.889-.931-.377-.213-.818-.321-1.261-.321-.4 0-.798.089-1.152.267 1.124.976 2.11 2.148 2.747 3.528.205-.179.38-.397.511-.639.171-.318.267-.675.267-1.027" fill="#dcf0fe"/></g></svg>