<svg xmlns="http://www.w3.org/2000/svg" viewBox="0 0 48 48"><defs><linearGradient id="0" x1="-25.22" y1="44.538" x2="-24.94" y2="-4.625" gradientUnits="userSpaceOnUse"><stop stop-color="#197cf1"/><stop offset="1" stop-color="#21c9fb"/></linearGradient><linearGradient gradientUnits="userSpaceOnUse" y2="-4.271" x2="-25.421" y1="30.1" x1="-25.11" id="1"><stop stop-color="#566069"/><stop offset="1" stop-color="#6c7884"/></linearGradient></defs><g transform="translate(48.41 4.271)"><rect y="-4.271" x="-48.4" height="47.996" width="47.996" rx="3.085" fill="url(#1)"/><path d="m-48.4 19.73h47.996v4.779 16.239c0 1.652-1.33 2.982-2.982 2.982h-42.04c-1.652 0-2.982-1.33-2.982-2.982v-16.239-4.779" fill="url(#0)" fill-rule="evenodd"/><g fill="#fff"><path d="m-23.261.796l-2.424.233v9.988l2.398-.363v-4.258l3.227 4.725 2.528-.802-3.305-4.543 3.332-4.284-2.58-.591-3.202 4.284.026-4.387m-5.497 2.435c-.027.002-.057.001-.077.031l-.954.954c-.04.04-.045.101-.015.15l1.114 1.839c-.198.332-.358.689-.472 1.067l-2.046.425c-.057.013-.099.066-.099.124v1.347c0 .057.043.106.099.119l1.985.482c.106.438.271.857.486 1.238l-1.15 1.75c-.032.049-.026.114.015.156l.954.954c.04.04.101.045.15.015l1.803-1.093c.353.205.737.367 1.137.476l.419 2.02c.012.057.061.099.119.099h1.347c.057 0 .106-.039.119-.093l.498-2.031c.416-.113.808-.278 1.171-.492l1.777 1.165c.049.032.114.026.156-.015l.948-.954c.041-.04.05-.101.02-.15l-.648-1.067-.213.067c-.031.001-.065-.005-.083-.031 0 0-.409-.601-.942-1.383-.639 1.249-1.94 2.103-3.444 2.103-2.131 0-3.859-1.729-3.859-3.859 0-1.567.938-2.913 2.285-3.518v-.995c-.244.085-.481.189-.705.31 0 0 0-.005 0-.006l-1.819-1.191c-.025-.017-.05-.018-.077-.015" fill-opacity=".85"/><path d="m-28.16 29.28c.159 0 .312.023.457.068.547-.613 1.154-1.172 1.811-1.665-.028-.116-.043-.237-.043-.361 0-.172.028-.338.081-.493-.737-.527-1.536-.969-2.388-1.311-.798.493-1.492 1.134-2.047 1.888.412.729.901 1.409 1.457 2.028.203-.098.431-.154.672-.154m-1.553 1.553c0-.218.046-.426.126-.613-.498-.549-.949-1.138-1.344-1.768-.496.985-.777 2.097-.777 3.276 0 1.363.376 2.639 1.027 3.731.234-1.311.675-2.553 1.284-3.689-.199-.261-.316-.586-.316-.937m5.329-5.062c.41 0 .781.16 1.06.419.809-.348 1.662-.616 2.549-.787-1.071-.618-2.313-.972-3.637-.972-.903 0-1.768.165-2.566.466.634.314 1.238.678 1.806 1.091.231-.138.501-.217.789-.217m2.321 7.31c.097-.201.234-.379.404-.52-.458-1.409-1.183-2.7-2.119-3.809-.186.079-.39.123-.605.123-.337 0-.647-.108-.902-.289-.563.427-1.084.906-1.558 1.43.15.237.235.518.235.817 0 .161-.025.317-.071.465 1.362.909 2.93 1.533 4.616 1.784m2.01 2.096c.021.294.032.59.032.889 0 .527-.034 1.045-.097 1.555 1.238-.903 2.179-2.188 2.655-3.678-.563.137-1.141.234-1.729.289-.137.426-.453.768-.861.945m-2.376-1.052c-1.802-.299-3.47-.986-4.925-1.969-.236.145-.514.23-.809.23-.11 0-.216-.012-.319-.032-.696 1.318-1.141 2.789-1.267 4.349.694.746 1.541 1.346 2.493 1.749 1.183-1.818 2.835-3.322 4.827-4.325m2.912-7.808c-1.169.114-2.286.408-3.325.847.005.053.008.105.008.156 0 .245-.059.476-.159.681 1.04 1.221 1.846 2.641 2.354 4.196.632.0001 1.172.398 1.404.947.702-.071 1.386-.206 2.044-.4.048-.333.074-.674.074-1.021 0-2.144-.925-4.073-2.399-5.408m-2.131 8.634c-1.858.871-3.414 2.212-4.538 3.851.567.142 1.16.218 1.772.218 1.1 0 2.142-.245 3.078-.681.151-.736.23-1.496.23-2.275 0-.281-.0001-.56-.034-.836-.187-.061-.359-.154-.507-.276" fill-opacity=".847"/></g></g></svg>