<svg xmlns="http://www.w3.org/2000/svg" viewBox="0 0 48 48"><defs><linearGradient gradientTransform="matrix(1.24773 0 0 1.21842-512.68-600.54)" gradientUnits="userSpaceOnUse" y2="507.8" x2="0" y1="542.8" id="0"><stop stop-color="#155bc2"/><stop offset="1" stop-color="#369dff"/></linearGradient></defs><g transform="matrix(.87432 0 0 .87432 26.531-9.992)" fill="#fff" fill-opacity=".847"><rect width="54.9" height="41.43" x="-30.345" y="18.17" fill="url(#0)" fill-opacity="1" rx="1.949" stroke-width="1.186"/><g><path d="m505.99-87.12v3.12h3.12l7.88-7.88-3.12-3.12zm13.76-7.51c.33-.33.33-.85 0-1.18l-1.95-1.95c-.33-.33-.85-.33-1.18 0l-1.63 1.64 3.12 3.12z" transform="matrix(1.13417 0 0 1.13417-571.34 141.97)" fill-opacity=".851"/><g><path d="m-20.363 47.972q-1.95 0-3.275-1.125-1.3-1.125-1.3-2.975 0-2 1.55-3.125 1.55-1.15 3.825-1.15 2.025 0 3.325.75v-.35q0-1.35-.925-2.15-.925-.825-2.275-.825-1 0-1.825.475-.8.475-1.1 1.3l-2.1-.9q.425-1.1 1.675-2.025 1.25-.95 3.3-.95 2.35 0 3.9 1.375 1.55 1.375 1.55 3.875v7.4h-2.2v-1.7h-.1q-1.375 2.1-4.03 2.1m.375-2.1q1.425 0 2.575-1.05 1.175-1.075 1.175-2.525-.975-.8-2.925-.8-1.675 0-2.525.725-.85.725-.85 1.7 0 .9.775 1.425.775.525 1.775.525"/><path d="m-4.97 47.972q-1.4 0-2.525-.6-1.1-.6-1.65-1.5h-.1v1.7h-2.2v-17.9h2.3v5.65l-.1 1.7h.1q.55-.9 1.65-1.5 1.125-.6 2.525-.6 2.375 0 4.1 1.875 1.725 1.875 1.725 4.65 0 2.775-1.725 4.65-1.725 1.875-4.1 1.875m-.375-2.1q1.6 0 2.75-1.2 1.15-1.225 1.15-3.225 0-2-1.15-3.2-1.15-1.225-2.75-1.225-1.625 0-2.775 1.2-1.125 1.2-1.125 3.225 0 2.025 1.125 3.225 1.15 1.2 2.775 1.2"/></g></g></g></svg>