<?xml version="1.0" encoding="UTF-8" standalone="no"?>
<!-- Created with Inkscape (http://www.inkscape.org/) -->

<svg
   xmlns:dc="http://purl.org/dc/elements/1.1/"
   xmlns:cc="http://creativecommons.org/ns#"
   xmlns:rdf="http://www.w3.org/1999/02/22-rdf-syntax-ns#"
   xmlns:svg="http://www.w3.org/2000/svg"
   xmlns="http://www.w3.org/2000/svg"
   xmlns:xlink="http://www.w3.org/1999/xlink"
   xmlns:sodipodi="http://sodipodi.sourceforge.net/DTD/sodipodi-0.dtd"
   xmlns:inkscape="http://www.inkscape.org/namespaces/inkscape"
   width="51.200001"
   height="51.200001"
   id="svg5453"
   version="1.1"
   inkscape:version="0.92.1 r15371"
   sodipodi:docname="pcsx-icon_backup.svg">
  <defs
     id="defs5455">
    <linearGradient
       id="linearGradient4159-7"
       inkscape:collect="always">
      <stop
         id="stop4161-4"
         offset="0"
         style="stop-color:#1d1e1e;stop-opacity:1" />
      <stop
         id="stop4163-9"
         offset="1"
         style="stop-color:#44484c;stop-opacity:1" />
    </linearGradient>
    <linearGradient
       id="linearGradient4422">
      <stop
         style="stop-color:#197ff1;stop-opacity:1"
         offset="0"
         id="stop4424" />
      <stop
         style="stop-color:#21c6fb;stop-opacity:1"
         offset="1"
         id="stop4426" />
    </linearGradient>
    <linearGradient
       inkscape:collect="always"
       xlink:href="#linearGradient4159-7"
       id="linearGradient4581"
       x1="359.57144"
       y1="547.79797"
       x2="359.57144"
       y2="512.79797"
       gradientUnits="userSpaceOnUse"
       gradientTransform="matrix(1.0666667,0,0,1.0666667,48.56757,-6.1284)" />
    <linearGradient
       inkscape:collect="always"
       xlink:href="#linearGradient4422"
       id="linearGradient4967"
       x1="409.57144"
       y1="543.79797"
       x2="409.57144"
       y2="507.798"
       gradientUnits="userSpaceOnUse"
       gradientTransform="scale(1.0666667)" />
    <linearGradient
       gradientUnits="userSpaceOnUse"
       y2="78.686302"
       x2="275.39902"
       y1="550.80005"
       x1="275.39902"
       id="linearGradient4478"
       xlink:href="#linearGradient4293"
       inkscape:collect="always" />
    <linearGradient
       id="linearGradient4293"
       inkscape:collect="always">
      <stop
         id="stop4295"
         offset="0"
         style="stop-color:#8d3aff;stop-opacity:1" />
      <stop
         id="stop4297"
         offset="1"
         style="stop-color:#ff3680;stop-opacity:1" />
    </linearGradient>
    <linearGradient
       inkscape:collect="always"
       xlink:href="#linearGradient4293"
       id="linearGradient95"
       gradientUnits="userSpaceOnUse"
       x1="275.39902"
       y1="550.80005"
       x2="275.39902"
       y2="78.686302" />
    <linearGradient
       inkscape:collect="always"
       xlink:href="#linearGradient4293"
       id="linearGradient97"
       gradientUnits="userSpaceOnUse"
       x1="275.39902"
       y1="550.80005"
       x2="275.39902"
       y2="78.686302" />
    <linearGradient
       inkscape:collect="always"
       xlink:href="#linearGradient4293"
       id="linearGradient99"
       gradientUnits="userSpaceOnUse"
       x1="275.39902"
       y1="550.80005"
       x2="275.39902"
       y2="78.686302" />
    <linearGradient
       inkscape:collect="always"
       xlink:href="#linearGradient4293"
       id="linearGradient101"
       gradientUnits="userSpaceOnUse"
       x1="275.39902"
       y1="550.80005"
       x2="275.39902"
       y2="78.686302" />
    <linearGradient
       inkscape:collect="always"
       xlink:href="#linearGradient4293"
       id="linearGradient103"
       gradientUnits="userSpaceOnUse"
       x1="275.39902"
       y1="550.80005"
       x2="275.39902"
       y2="78.686302" />
  </defs>
  <sodipodi:namedview
     id="base"
     pagecolor="#5a5a5a"
     bordercolor="#666666"
     borderopacity="1.0"
     inkscape:pageopacity="0"
     inkscape:pageshadow="2"
     inkscape:zoom="6.4872669"
     inkscape:cx="5.6064258"
     inkscape:cy="19.304375"
     inkscape:document-units="px"
     inkscape:current-layer="g4466"
     showgrid="false"
     fit-margin-top="0"
     fit-margin-left="0"
     fit-margin-right="0"
     fit-margin-bottom="0"
     inkscape:window-width="1366"
     inkscape:window-height="695"
     inkscape:window-x="0"
     inkscape:window-y="0"
     inkscape:window-maximized="1"
     inkscape:showpageshadow="false"
     borderlayer="true"
     showguides="false"
     showborder="false">
    <inkscape:grid
       type="xygrid"
       id="grid4063"
       originx="0"
       originy="0"
       spacingx="1.0666667"
       spacingy="1.0666667" />
    <sodipodi:guide
       position="-8.5333333,21.333333"
       orientation="4,0"
       id="guide4146"
       inkscape:locked="false" />
    <sodipodi:guide
       position="1.2427084e-05,46.933329"
       orientation="0,48"
       id="guide4148"
       inkscape:locked="false" />
    <sodipodi:guide
       position="51.200013,46.933329"
       orientation="-4,0"
       id="guide4150"
       inkscape:locked="false" />
    <sodipodi:guide
       position="51.200013,51.199996"
       orientation="0,-48"
       id="guide4152"
       inkscape:locked="false" />
    <sodipodi:guide
       position="1.2427084e-05,4.2666948"
       orientation="4,0"
       id="guide4154"
       inkscape:locked="false" />
    <sodipodi:guide
       position="1.2427084e-05,2.8125001e-05"
       orientation="0,48"
       id="guide4156"
       inkscape:locked="false" />
    <sodipodi:guide
       position="51.200013,2.8125001e-05"
       orientation="-4,0"
       id="guide4158"
       inkscape:locked="false" />
    <sodipodi:guide
       position="51.200013,4.2666948"
       orientation="0,-48"
       id="guide4160"
       inkscape:locked="false" />
    <sodipodi:guide
       position="51.200013,51.200028"
       orientation="0,-4"
       id="guide4162"
       inkscape:locked="false" />
    <sodipodi:guide
       position="46.933346,51.200028"
       orientation="48,0"
       id="guide4164"
       inkscape:locked="false" />
    <sodipodi:guide
       position="46.933346,2.8125001e-05"
       orientation="0,4"
       id="guide4166"
       inkscape:locked="false" />
    <sodipodi:guide
       position="51.200013,2.8125001e-05"
       orientation="-48,0"
       id="guide4168"
       inkscape:locked="false" />
    <sodipodi:guide
       position="4.2667117,51.200028"
       orientation="0,-4"
       id="guide4170"
       inkscape:locked="false" />
    <sodipodi:guide
       position="4.4979167e-05,51.200028"
       orientation="48,0"
       id="guide4172"
       inkscape:locked="false" />
    <sodipodi:guide
       position="4.4979167e-05,2.8125001e-05"
       orientation="0,4"
       id="guide4174"
       inkscape:locked="false" />
    <sodipodi:guide
       position="4.2667117,2.8125001e-05"
       orientation="-48,0"
       id="guide4176"
       inkscape:locked="false" />
    <sodipodi:guide
       position="14.933346,36.266694"
       orientation="20,0"
       id="guide4173"
       inkscape:locked="false" />
    <sodipodi:guide
       position="14.933346,14.933361"
       orientation="0,20"
       id="guide4175"
       inkscape:locked="false" />
    <sodipodi:guide
       position="36.266679,14.933361"
       orientation="-20,0"
       id="guide4177"
       inkscape:locked="false" />
    <sodipodi:guide
       position="36.266679,36.266694"
       orientation="0,-20"
       id="guide4179"
       inkscape:locked="false" />
  </sodipodi:namedview>
  <metadata
     id="metadata5458">
    <rdf:RDF>
      <cc:Work
         rdf:about="">
        <dc:format>image/svg+xml</dc:format>
        <dc:type
           rdf:resource="http://purl.org/dc/dcmitype/StillImage" />
        <dc:title />
      </cc:Work>
    </rdf:RDF>
  </metadata>
  <g
     inkscape:label="Capa 1"
     inkscape:groupmode="layer"
     id="layer1"
     transform="translate(-410.20953,-533.11787)">
    <g
       id="g5479"
       transform="matrix(1.1107542,0,0,1.1107542,-44.50809,-63.07077)">
      <g
         id="g4466"
         transform="matrix(1.0412983,0,0,1.0412983,-17.707067,-22.97583)">
        <circle
           style="opacity:1;fill:url(#linearGradient4581);fill-opacity:1;stroke:url(#linearGradient4967);stroke-width:1.60000002;stroke-linecap:round;stroke-linejoin:round;stroke-miterlimit:4;stroke-dasharray:none;stroke-opacity:1"
           id="path4199"
           cx="432.29694"
           cy="559.78278"
           r="21.333334" />
        <g
           transform="matrix(0.67833608,0,0,0.9083502,155.12081,82.87103)"
           id="layer1-6"
           inkscape:label="Layer 1">
          <g
             style="fill:url(#linearGradient4478);fill-opacity:1"
             transform="matrix(0.07988381,0,0,0.07988381,386.57151,501.79796)"
             id="g3">
            <path
               style="fill:url(#linearGradient95);fill-opacity:1"
               inkscape:connector-curvature="0"
               id="path5"
               d="m 541.951,272.337 c -12.381,0 -24.646,0 -37.217,0 -3.379,0 -9.014,-0.202 -9.014,-3.58 0,-12.583 0,-24.958 0,-37.565 0,-3.378 0.158,-7.815 -3.221,-7.815 -12.594,0 -24.883,0 -37.387,0 -3.385,0 -8.354,-1.047 -8.354,-4.425 0,-12.503 0,-24.786 0,-37.363 0,-3.384 -0.502,-7.172 -3.881,-7.172 -12.562,0 -24.889,0 -37.281,0 -3.379,0 -7.797,-1.702 -7.797,-5.08 0,-12.754 0,-25.172 0,-37.546 0,-3.378 -1.898,-6.089 -5.275,-6.059 -12.211,0.098 -24.719,0.11 -37.395,0.11 -3.377,0 -6.285,2.742 -6.285,6.12 0,12.668 0,24.976 0,37.216 -0.006,3.39 -1.561,5.239 -4.945,5.239 -45.941,0 -91.365,0 -137.301,0 -3.378,0 -4.639,-1.849 -4.639,-5.227 0,-12.442 0,-24.762 0,-37.252 0,-3.378 -3.476,-6.12 -6.854,-6.12 -12.552,0 -24.333,-0.012 -36.42,-0.11 -3.391,-0.024 -5.686,2.687 -5.686,6.065 0,12.491 0,25.031 0,37.895 0,3.385 -4.352,4.75 -7.736,4.75 -12.625,0 -25.006,0 -37.589,0 -3.378,0 -3.635,4.106 -3.635,7.484 0,12.589 0,24.884 0,37.412 0,3.384 -5.227,4.064 -8.605,4.064 -12.577,0 -24.939,0 -37.46,0 -3.378,0 -9.015,4.792 -9.015,8.176 0,12.546 0,24.859 0,37.46 0,3.378 0.153,3.323 -3.225,3.323 -12.436,0 -24.688,0 -36.885,0 -3.378,0 -8.85,5.532 -8.85,8.91 0,45.606 0,90.668 0,135.729 0,3.385 5.471,8.36 8.85,8.36 12.289,0 24.461,0 36.867,0 3.378,0 3.244,-4.988 3.244,-8.366 0,-28.966 0,-57.632 0,-86.384 0,-3.385 5.618,-3.17 8.997,-3.17 12.656,0 25.098,0 37.833,0 3.378,0 8.25,-0.208 8.25,3.17 0,29.021 0,57.84 0,86.935 0,3.378 1.67,6.114 5.055,6.114 12.558,0 25.239,0.018 37.332,0.109 3.378,0.031 6.573,-2.68 6.573,-6.059 0,-12.423 0,-24.853 0,-37.325 0,-3.379 0.759,-3.984 4.143,-3.984 79.125,0 157.75,0 236.544,0 3.379,0 6.119,1.677 6.119,5.055 0,12.559 -0.018,25.227 -0.115,37.455 -0.025,3.384 2.68,6.45 6.059,6.45 12.312,0 24.664,0 37.271,0 3.371,0 3.738,-4.468 3.738,-7.846 0,-29.241 0,-57.957 0,-86.818 0,-3.379 5.117,-3.256 8.5,-3.256 12.762,0 25.295,0 38.037,0 3.377,0 8.543,-0.123 8.543,3.256 0,28.953 0,57.626 0,86.298 0,3.378 0.324,8.366 3.703,8.366 12.338,0 24.418,0 36.4,0 3.379,0 8.857,-4.981 8.857,-8.36 0,-45.416 0,-90.509 0,-135.98 0.002,-3.383 -5.471,-8.659 -8.848,-8.659 z M 201.96,268.475 c 0,3.379 -3.831,3.862 -7.209,3.862 -12.405,0 -24.811,0 -37.387,0 -3.384,0 -4.363,-0.478 -4.363,-3.855 0,-12.356 0,-24.701 0,-37.326 0,-3.378 0.985,-7.778 4.37,-7.778 12.546,0 24.896,0 37.375,0 3.378,0 7.215,4.4 7.215,7.785 -0.001,12.441 -0.001,24.785 -0.001,37.312 z m 195.841,0.099 c 0,3.378 -1.023,3.764 -4.4,3.764 -12.369,0 -24.713,0 -37.32,0 -3.385,0 -7.24,-0.386 -7.24,-3.771 0,-12.509 0,-24.853 0,-37.344 0,-3.372 3.861,-7.846 7.24,-7.846 12.453,0 24.791,0 37.32,0 3.377,0 4.4,4.467 4.4,7.846 0,12.393 0,24.792 0,37.351 z" />
            <path
               style="fill:url(#linearGradient97);fill-opacity:1"
               inkscape:connector-curvature="0"
               id="path7"
               d="m 244.341,424.071 c -9.21,0.006 -18.5,0.018 -27.558,-0.007 -19.805,-0.061 -39.725,-0.146 -59.529,-0.227 -3.378,-0.012 -6.151,2.718 -6.12,6.103 0.098,12.239 0.08,25.275 0.085,37.521 0,3.378 2.711,6.842 6.09,6.842 29.425,0 58.011,0 86.567,0 3.378,-0.006 7.044,-4.204 7.044,-7.582 0,-12.204 0,-24.26 0,-36.524 0,-3.385 -3.201,-6.133 -6.579,-6.126 z" />
            <path
               style="fill:url(#linearGradient99);fill-opacity:1"
               inkscape:connector-curvature="0"
               id="path9"
               d="m 395.836,423.936 c -0.949,0.073 -1.463,0.753 -2.43,0.753 -29.139,0.018 -57.816,0.648 -86.953,0.648 -0.93,0 -1.861,0 -2.773,0 -1.529,0 -3.799,1.469 -3.799,4.847 0,12.491 0,24.566 0,36.616 0,3.378 3.77,7.497 7.154,7.497 28.793,0 57.367,0 86.486,0 3.379,0 4.279,-4.125 4.279,-7.503 0,-12.454 0,-24.768 0,-37.063 10e-4,-3.378 -0.366,-5.918 -1.964,-5.795 z" />
            <path
               style="fill:url(#linearGradient101);fill-opacity:1"
               inkscape:connector-curvature="0"
               id="path11"
               d="m 108.214,125.458 c 12.454,0 24.761,0 37.057,0 3.378,0 6.083,-2.644 6.059,-6.022 -0.098,-12.24 -0.11,-24.56 -0.116,-36.806 0,-3.378 -2.742,-6.126 -6.126,-6.126 -12.687,0 -24.811,0 -36.873,0 -3.378,-0.006 -4.174,2.846 -4.174,6.23 0,12.24 0,24.352 0,36.806 -10e-4,3.377 0.794,5.918 4.173,5.918 z" />
            <path
               style="fill:url(#linearGradient103);fill-opacity:1"
               inkscape:connector-curvature="0"
               id="path13"
               d="m 404.844,125.788 c 12.24,-0.098 24.053,-0.11 36.299,-0.116 3.383,0 5.617,-2.748 5.617,-6.126 0,-12.693 0,-24.816 0,-36.885 0,-3.378 -0.82,-6.163 -4.197,-6.163 -12.229,0 -24.34,0 -36.795,0 -3.377,0 -7.967,2.796 -7.967,6.175 0,12.454 0,24.768 0,37.062 0,3.378 3.664,6.083 7.043,6.053 z" />
          </g>
        </g>
      </g>
    </g>
  </g>
</svg>
