<?xml version="1.0" encoding="UTF-8" standalone="no"?>
<svg
   xmlns:dc="http://purl.org/dc/elements/1.1/"
   xmlns:cc="http://creativecommons.org/ns#"
   xmlns:rdf="http://www.w3.org/1999/02/22-rdf-syntax-ns#"
   xmlns:svg="http://www.w3.org/2000/svg"
   xmlns="http://www.w3.org/2000/svg"
   xmlns:sodipodi="http://sodipodi.sourceforge.net/DTD/sodipodi-0.dtd"
   xmlns:inkscape="http://www.inkscape.org/namespaces/inkscape"
   height="48"
   viewBox="0 0 48 48"
   width="48"
   version="1.1"
   id="svg26"
   sodipodi:docname="rhythmbox.svg"
   inkscape:version="0.92.2pre0 (973e216, 2017-07-25)">
  <metadata
     id="metadata32">
    <rdf:RDF>
      <cc:Work
         rdf:about="">
        <dc:format>image/svg+xml</dc:format>
        <dc:type
           rdf:resource="http://purl.org/dc/dcmitype/StillImage" />
      </cc:Work>
    </rdf:RDF>
  </metadata>
  <defs
     id="defs30" />
  <sodipodi:namedview
     pagecolor="#ffffff"
     bordercolor="#666666"
     borderopacity="1"
     objecttolerance="10"
     gridtolerance="10"
     guidetolerance="10"
     inkscape:pageopacity="0"
     inkscape:pageshadow="2"
     inkscape:window-width="1366"
     inkscape:window-height="695"
     id="namedview28"
     showgrid="false"
     inkscape:zoom="4.9166667"
     inkscape:cx="24"
     inkscape:cy="24"
     inkscape:window-x="0"
     inkscape:window-y="0"
     inkscape:window-maximized="1"
     inkscape:current-layer="svg26" />
  <linearGradient
     id="a"
     gradientUnits="userSpaceOnUse"
     x1="23.955938292391"
     x2="24.039185550464"
     y1="1044.223123471128"
     y2="1012.089826896448">
    <stop
       offset="0"
       stop-color="#ffcb39"
       id="stop2" />
    <stop
       offset="1"
       stop-color="#ffd42a"
       id="stop4" />
  </linearGradient>
  <linearGradient
     id="b"
     gradientUnits="userSpaceOnUse"
     x1="23.625"
     x2="23.625"
     y1="1050.2372"
     y2="1006.4872">
    <stop
       offset="0"
       stop-color="#ececec"
       id="stop7" />
    <stop
       offset="1"
       stop-color="#f9f9f9"
       id="stop9" />
  </linearGradient>
  <g
     transform="matrix(1.1338091,0,0,1.0639879,-2.4995539,-1070.1808)"
     id="g24">
    <path
       d="m 11.865098,1006.8622 h 24.269804 c 2.141264,0 3.865098,1.7238 3.865098,3.8651 v 36.2698 c 0,2.1412 -1.723834,3.8651 -3.865098,3.8651 H 11.865098 C 9.723834,1050.8622 8,1049.1383 8,1046.9971 v -36.2698 c 0,-2.1413 1.723834,-3.8651 3.865098,-3.8651 z m 31.134902,22 a 19,19 0 0 1 -19,19 19,19 0 0 1 -19,-19 19,19 0 0 1 19,-19 19,19 0 0 1 19,19 z"
       id="path12"
       inkscape:connector-curvature="0"
       style="fill:#1a1a1a" />
    <path
       d="m 43,1028.3622 a 19,19 0 0 1 -19,19 19,19 0 0 1 -19,-19 19,19 0 0 1 19,-19 19,19 0 0 1 19,19 z m -31.134902,-22 h 24.269804 c 2.141264,0 3.865098,1.7238 3.865098,3.8651 v 36.2698 c 0,2.1412 -1.723834,3.8651 -3.865098,3.8651 H 11.865098 C 9.7238338,1050.3622 8,1048.6383 8,1046.4971 v -36.2698 c 0,-2.1413 1.7238338,-3.8651 3.865098,-3.8651 z"
       id="path14"
       style="fill:url(#b)"
       inkscape:connector-curvature="0" />
    <circle
       cx="24"
       cy="1028.3622"
       r="16.01108"
       id="circle16"
       style="fill:url(#a);stroke:#4d4d4d;stroke-width:1.97783899" />
    <circle
       cx="24"
       cy="1028.3622"
       r="10"
       id="circle18"
       style="fill:#ff6600;fill-opacity:0.60115602" />
    <rect
       height="4.8613591"
       ry="1.856155"
       width="3.712311"
       x="33.852737"
       y="1043.6117"
       id="rect20"
       style="fill:#333333" />
    <path
       d="m 31.015433,1018.6107 c 0,0 0.07658,-0.4997 -0.05332,-0.6906 -0.121915,-0.1791 -0.584565,-0.2842 -0.584565,-0.2842 l -4.88788,-0.6623 h -7e-6 -7e-6 c -0.826061,0.2335 -2.178586,0.6004 -2.178586,1.5029 v 14.3121 c -0.837648,-0.4631 -1.913444,-0.6502 -3.028768,-0.3444 -2.012615,0.552 -3.273801,2.3358 -2.842378,3.9839 0.431426,1.6477 2.414046,2.5683 4.426658,2.0165 1.60565,-0.4405 2.71246,-1.6863 2.88898,-3.0002 l 0.0466,-13.5249 5.218805,-1.4755"
       id="path22"
       inkscape:connector-curvature="0"
       style="fill:#ffffff" />
  </g>
</svg>
