<svg xmlns="http://www.w3.org/2000/svg" xmlns:xlink="http://www.w3.org/1999/xlink" viewBox="0 0 48 48"><defs><clipPath><path transform="matrix(15.33333 0 0 11.5 415-125.5)" d="m-24 13c0 1.105-.672 2-1.5 2-.828 0-1.5-.895-1.5-2 0-1.105.672-2 1.5-2 .828 0 1.5.895 1.5 2" fill="#1890d0"/></clipPath><linearGradient xlink:href="#0" id="3" x1="24.737" y1="48.45" x2="23.982" y2="-.737" gradientUnits="userSpaceOnUse"/><linearGradient gradientUnits="userSpaceOnUse" y2=".989" x2="24.13" y1="47.874" x1="23.299" id="2" xlink:href="#0"/><linearGradient id="1" x1="25.959" y1="47.586" x2="24.414" y2=".414" gradientUnits="userSpaceOnUse"><stop stop-color="#197cf1"/><stop stop-color="#21c9fb" offset="1"/></linearGradient><linearGradient gradientUnits="userSpaceOnUse" y2="24.587" x2="82.74" y1="30.487" x1="82.46" id="0"><stop stop-color="#060606"/><stop stop-color="#343434" offset="1"/></linearGradient><linearGradient y2="-.449" x2="23.694" y1="47.73" x1="24.306" gradientUnits="userSpaceOnUse"><stop stop-color="#fa183c"/><stop offset="1" stop-color="#fe590a"/></linearGradient></defs><g transform="matrix(.96 0 0 .96.96.96)"><circle r="24" cy="24" cx="24" fill="url(#2)"/><path d="m10.845 18.423l-1.964.464c0 0 .197-1.67 3.152-2.168zm37.12 3.389c-1.105-12.229-11.382-21.812-23.899-21.812-1.997 0-3.938.247-5.793.706 3.763.052 14.864 1.194 19.957 12.499-4.563-1.942-8.792-2.697-8.792-2.697-.46 2.848-1.884 4.064-1.884 4.064 1.801-3.269.846-7.2-.014-6.942-4.07 1.224-2.625.741-5.641 1.413-5.431 1.206-8.52 3.723-8.52 3.723l.619-1.628c-1.178.123-3.979 3.307-3.979 3.307l.353-1.837c-1.809 2.036-3.01 6.07-3.223 6.503-.216.434-3.541 3.326-3.332 4.376.17.846 2.646.312 2.646.312 0 0-.023.187-.062.269-.217.465-1.194.085-1.773.375-.578.289-.587.669-.087 2.714.5 2.043 2.066 1.705 2.066 1.705.399 1.724 2.641 2.871 2.641 2.871-1.514-2.973.615-4.111.615-4.111.617 1.642 2.419 2.262 2.419 2.262-1.302-2.747-1.749-3.962-.651-4.771 2.312-1.704 2.954-2.186 6.134.709 3.18 2.89-2.581 4.745-2.581 4.745-.639-.112-2.429-2.171-2.429-2.171.041 1.117.659 2.755.659 2.755-1.982-.112-3.657-1.759-3.657-1.759 0 0-.007 1.088 1.222 4.395 1.525 4.1 5.349.433 5.349.433 4.193-2.89 7.432-2.569 7.432-2.569 2.734.757 5.574 10.137 5.574 10.137 0 0-9.996 6.485-21.699-.298 4.294 4.03 10.07 6.508 16.429 6.508 9.245 0 17.267-5.228 21.276-12.89l1.116-2.462c.178-.46.343-.928.492-1.4l.824-3.508c.099-.631.175-1.271.223-1.917" fill="url(#1)"/><circle r="24" cy="24" cx="24" fill="none" stroke="url(#3)" stroke-linejoin="bevel" stroke-linecap="square" stroke-width="2"/></g></svg>