<svg xmlns="http://www.w3.org/2000/svg" viewBox="0 0 48 48"><defs><linearGradient id="0" y1="14.359" x2="0" y2="-13.641" gradientUnits="userSpaceOnUse"><stop stop-color="#0bac83"/><stop offset="1" stop-color="#10da96"/></linearGradient></defs><g transform="matrix(1.71427 0 0 1.71427-49.25 23.392)" enable-background="new"><rect y="-13.641" x="28.73" height="28" width="28" fill="url(#0)" rx="14"/><path d="m51.34-3.843l-1.603-1.603c-.22-.22-.487-.33-.801-.33-.314 0-.582.11-.801.33l-7.731 7.743-3.465-3.477c-.22-.22-.487-.33-.801-.33-.314 0-.581.11-.801.33l-1.603 1.603c-.22.22-.33.487-.33.801 0 .314.11.581.33.801l4.266 4.266 1.603 1.603c.22.22.487.33.801.33.314 0 .581-.11.801-.33l1.603-1.603 8.532-8.532c.22-.22.33-.487.33-.801 0-.314-.11-.581-.33-.801" fill="#fff" fill-opacity=".849"/></g></svg>