<svg xmlns="http://www.w3.org/2000/svg" xmlns:xlink="http://www.w3.org/1999/xlink" viewBox="0 0 48 48"><defs><clipPath><path d="m69.63 12.145h-.052c-22.727-.292-46.47 4.077-46.709 4.122-2.424.451-4.946 2.974-5.397 5.397-.044.237-4.414 23.983-4.122 46.71-.292 22.777 4.078 46.523 4.122 46.761.451 2.423 2.974 4.945 5.398 5.398.237.044 23.982 4.413 46.709 4.121 22.779.292 46.524-4.077 46.761-4.121 2.423-.452 4.946-2.976 5.398-5.399.044-.236 4.413-23.981 4.121-46.709.292-22.777-4.077-46.523-4.121-46.761-.453-2.423-2.976-4.946-5.398-5.397-.238-.045-23.984-4.414-46.71-4.122"/></clipPath><linearGradient id="2"><stop stop-color="#08f"/><stop offset="1" stop-color="#02c3ff"/></linearGradient><linearGradient gradientUnits="userSpaceOnUse" y2="1038.35" x2="8.115" y1="1050.47" x1="8.167" id="1"><stop stop-color="#141414"/><stop offset="1" stop-color="#2d2d2f"/></linearGradient><linearGradient xlink:href="#2" id="0" gradientUnits="userSpaceOnUse" x1="159.46" y1="668.03" x2="160.66" y2="596.97"/><linearGradient gradientTransform="matrix(.93022 0 0 .91891 14.815 32.587)" gradientUnits="userSpaceOnUse" y2="63.27" x2="159.24" y1="624.72" x1="169.5" id="3" xlink:href="#2"/></defs><g transform="matrix(1.71429 0 0 1.71429-662.69-887.65)"><g transform="matrix(.04653 0 0 .04047 393.07 517.92)"><rect width="292.69" height="525.81" x="18.553" y="87.91" fill="url(#3)" fill-rule="evenodd" rx="9.302"/><path d="m11.404 1037.36h-6.807c-.31 0-.561.251-.561.561v12.877c0 .31.251.561.561.561h6.807c.31 0 .561-.251.561-.561v-12.877c0-.31-.251-.561-.561-.561m-.082 11.778h-6.644v-9.555h6.644z" transform="matrix(42.98335 0 0 49.4146-182.52-51263.92)" fill="url(#1)"/><ellipse cx="161.34" cy="637.98" rx="25.23" ry="29" fill="url(#0)" fill-rule="evenodd" stroke="url(#0)" stroke-linecap="round" stroke-width="7.411"/></g><g transform="matrix(.43675 0 0 .43541 599.33 588.4)" fill-opacity=".847" fill="#121212" color="#000"><ellipse cx="-462.61" cy="-130.51" rx="2.5" ry="2.5"/><ellipse cx="-458.11" cy="-123.01" rx="3" ry="3"/><ellipse cx="-460.61" cy="-138.51" rx="1.5" ry="1.5"/><path d="m-452.11-140.01l-2.844 2.844 4.375 4.375-4.531 5.156 3 2.625 7-8-7-7"/></g></g></svg>