<svg xmlns="http://www.w3.org/2000/svg" viewBox="0 0 48 48"><defs><clipPath><path transform="matrix(15.33333 0 0 11.5 415-125.5)" d="m-24 13c0 1.105-.672 2-1.5 2-.828 0-1.5-.895-1.5-2 0-1.105.672-2 1.5-2 .828 0 1.5.895 1.5 2" fill="#1890d0"/></clipPath><linearGradient id="0" gradientUnits="userSpaceOnUse" y1="56.14" x2="0" y2="7.339"><stop stop-color="#ff6835"/><stop offset="1" stop-color="#ff956f"/></linearGradient></defs><g transform="translate(56.36-7.892)"><circle cx="-32.359" cy="31.892" r="24" fill="url(#0)"/><path d="m-20.08 30.361c-.173.155-.428.163-.613.023l-6.103-4.644-2.891 17.297c-.011.066-.034.125-.068.18-.58 2.48-3.744 4.328-7.465 4.328-4.171 0-7.565-2.31-7.565-5.149 0-2.84 3.393-5.15 7.565-5.15 1.713 0 3.341.383 4.665 1.086l3.824-21.691c.034-.198.189-.356.39-.393.194-.034.397.055.5.23l7.855 13.276c.119.202.079.453-.095.608" fill-opacity=".572"/></g></svg>