<svg xmlns="http://www.w3.org/2000/svg" xmlns:xlink="http://www.w3.org/1999/xlink" viewBox="0 0 48 48"><defs><linearGradient xlink:href="#2" id="3" x1="242.88" y1="704.73" x2="235.63" y2="-189.23" gradientUnits="userSpaceOnUse"/><linearGradient id="2"><stop stop-color="#f15f19"/><stop offset="1" stop-color="#fbb521"/></linearGradient><linearGradient gradientTransform="matrix(10.57293 0 0 10.21942 1596.46 23.568)" gradientUnits="userSpaceOnUse" y2="-26.05" x2="-125.19" y1="73.5" x1="-123.97" id="0"><stop stop-color="#141414"/><stop offset="1" stop-color="#2d2d2f"/></linearGradient><linearGradient gradientUnits="userSpaceOnUse" y2="501.51" x2="407.82" y1="546.29" x1="408.82" id="1" xlink:href="#2"/></defs><g transform="matrix(.04675 0 0 .04675 12 12)"><rect width="1026.64" height="1026.64" x="-256.66" y="-256.66" fill="url(#0)" fill-rule="evenodd" rx="63.779" stroke-width="21.388"/><circle cx="407.82" cy="523.9" r="21.432" transform="matrix(20.0615 0 0 20.0615-7924.86-10253.54)" fill="none" stroke="url(#1)" stroke-linejoin="round" stroke-linecap="round" stroke-width="2.345"/><path d="m299.44 0h-42.777c0 0 0 21.388 2.139 21.388h-2.139v269.49c-23.527-21.388-53.47-34.22-85.55-34.22-70.58 0-128.33 57.749-128.33 128.33 0 70.58 57.749 128.33 128.33 128.33 70.58 0 128.33-57.749 128.33-128.33v-258.8c38.499 51.33 100.52 85.55 171.11 85.55v-40.638c-94.11.0001-171.11-85.55-171.11-171.11" fill="url(#3)"/></g></svg>