<svg xmlns="http://www.w3.org/2000/svg" viewBox="0 0 48 48"><defs><clipPath><path fill="#aade87" fill-opacity=".472" d="m-6 1028.36h32v32h-32z"/></clipPath><clipPath><path fill="#00f" fill-opacity=".514" d="m-7 1024.36h34v34h-34z"/></clipPath><clipPath><path d="m69.63 12.145h-.052c-22.727-.292-46.47 4.077-46.709 4.122-2.424.451-4.946 2.974-5.397 5.397-.044.237-4.414 23.983-4.122 46.71-.292 22.777 4.078 46.523 4.122 46.761.451 2.423 2.974 4.945 5.398 5.398.237.044 23.982 4.413 46.709 4.121 22.779.292 46.524-4.077 46.761-4.121 2.423-.452 4.946-2.976 5.398-5.399.044-.236 4.413-23.981 4.121-46.709.292-22.777-4.077-46.523-4.121-46.761-.453-2.423-2.976-4.946-5.398-5.397-.238-.045-23.984-4.414-46.71-4.122"/></clipPath><linearGradient gradientUnits="userSpaceOnUse" y2="517.8" x2="0" y1="545.8"><stop stop-color="#3889e9"/><stop offset="1" stop-color="#5ea5fb"/></linearGradient><linearGradient y2="518.14" x2="0" y1="545.14" gradientUnits="userSpaceOnUse" id="0"><stop stop-color="#c61423"/><stop offset="1" stop-color="#ff4c63"/></linearGradient></defs><g transform="translate(-384.57-499.8)"><g transform="matrix(1.71429 0 0 1.71429-278.12-387.86)"><circle cx="400.57" cy="531.8" r="14" fill="url(#0)"/><circle r="14" cy="531.8" cx="400.57" fill="#5ea5fb" fill-opacity="0"/></g><path isolation="auto" white-space="normal" mix-blend-mode="normal" d="m408.5 509.56c-1.526 1.028-1.951.817-1.848 2.656l.631 11.285-5.418 3.612c-.336-.901-.988-1.685-1.916-2.145-1.956-.971-4.325-.155-5.31 1.829-.986 1.986-.212 4.361 1.752 5.336 1.956.971 4.325.155 5.31-1.829.119-.24.21-.486.279-.735l3.074-2.071c1.109.533 1.792-.493 2.443-.19l.286 5.11c-.163.21-.309.441-.433.69-.986 1.986-.212 4.361 1.752 5.336 1.956.971 4.325.155 5.31-1.829.986-1.986.212-4.361-1.752-5.336-.923-.458-1.935-.506-2.852-.234l-.397-6.488 9.372-6.319c1.526-1.028 1.102-1.239.999-3.078l-10.516 7.01-.769-12.616m-.059 14.264c.392.195.548.671.351 1.067-.197.397-.671.56-1.063.365-.392-.195-.548-.671-.351-1.067.197-.397.671-.56 1.063-.365zm-9.204 2.577c1.174.583 1.643 2.01 1.051 3.203-.591 1.191-2.01 1.681-3.187 1.098-1.174-.583-1.643-2.01-1.051-3.203.591-1.191 2.01-1.681 3.187-1.098zm12.714 6.313c1.174.583 1.643 2.01 1.051 3.203-.591 1.191-2.01 1.681-3.187 1.098-1.174-.583-1.643-2.01-1.051-3.203.591-1.191 2.01-1.681 3.187-1.098z" solid-color="#000000" color-interpolation-filters="linearRGB" color="#000" image-rendering="auto" color-rendering="auto" stroke-width="1.5" stroke-linecap="round" color-interpolation="sRGB" solid-opacity="1" fill="#fbdfe2" stroke-linejoin="round" stroke="#fbdfe2" shape-rendering="auto"/></g></svg>