<svg xmlns="http://www.w3.org/2000/svg" xmlns:xlink="http://www.w3.org/1999/xlink" viewBox="0 0 48 48"><defs><clipPath><path transform="matrix(15.33333 0 0 11.5 415-125.5)" d="m-24 13c0 1.105-.672 2-1.5 2-.828 0-1.5-.895-1.5-2 0-1.105.672-2 1.5-2 .828 0 1.5.895 1.5 2" fill="#1890d0"/></clipPath><linearGradient xlink:href="#0" id="2" x1="24.737" y1="48.45" x2="23.982" y2="-.737" gradientUnits="userSpaceOnUse"/><linearGradient gradientUnits="userSpaceOnUse" y2=".989" x2="24.13" y1="47.874" x1="23.299" id="1" xlink:href="#0"/><linearGradient gradientUnits="userSpaceOnUse" y2="24.587" x2="82.74" y1="30.487" x1="82.46" id="0"><stop stop-color="#060606"/><stop stop-color="#343434" offset="1"/></linearGradient><linearGradient y2="-.449" x2="23.694" y1="47.73" x1="24.306" gradientUnits="userSpaceOnUse"><stop stop-color="#fa183c"/><stop offset="1" stop-color="#fe590a"/></linearGradient></defs><g transform="matrix(.96 0 0 .96.96.96)"><circle r="24" cy="24" cx="24" fill="url(#1)"/><circle r="24" cy="24" cx="24" fill="none" stroke="url(#2)" stroke-linejoin="bevel" stroke-linecap="square" stroke-width="2"/></g><g transform="matrix(1.45128 0 0 1.45128 85.36-43.574)" fill="#fff" fill-opacity=".848" fill-rule="evenodd" color="#000"><circle r="1.636" cy="55.17" cx="-32.894"/><circle r="2.347" cy="49.05" cx="-35.739"/><circle r="3.343" cy="51.47" cx="-43.563"/><circle r="2.489" cy="39.805" cx="-40.718"/><circle r="3.201" cy="39.52" cx="-48.542"/><circle r="1.92" cy="47.34" cx="-51.39"/></g></svg>