<svg xmlns="http://www.w3.org/2000/svg" viewBox="0 0 48 48"><defs><clipPath><rect y="6" x="6" rx="6" height="84" width="84" fill="#fff"/></clipPath><clipPath><path d="m-24 13c0 1.105-.672 2-1.5 2-.828 0-1.5-.895-1.5-2 0-1.105.672-2 1.5-2 .828 0 1.5.895 1.5 2" transform="matrix(15.33333 0 0 11.5 415-125.5)" fill="#1890d0"/></clipPath><filter color-interpolation-filters="sRGB"><feGaussianBlur stdDeviation="1.71"/></filter><linearGradient gradientTransform="scale(1.0059.99417)" gradientUnits="userSpaceOnUse" y2="7.02" x2="0" y1="92.54"><stop/><stop offset="1" stop-opacity=".588"/></linearGradient><linearGradient id="0" x1="24.2" y1="41.695" x2="23.797" y2="6.305" gradientUnits="userSpaceOnUse"><stop stop-color="#ffbc00"/><stop stop-color="#ffec00" offset="1"/></linearGradient></defs><rect width="48" height="36.22" y="5.89" rx="1.704" fill="url(#0)" stroke-width="1.037"/><path d="m3.03 7.671v14.802h1.234v-14.802h-1.234zm3.701 0v7.401h1.234v-7.401h-1.234zm3.701 0v7.401h1.234v-7.401h-1.234zm3.701 0v7.401h1.234v-7.401h-1.234zm3.701 0v7.401h1.234v-7.401h-1.234zm3.701 0v11.1h1.234v-11.1h-1.234zm3.701 0v7.401h1.234v-7.401h-1.234zm3.701 0v7.401h1.234v-7.401h-1.234zm3.701 0v7.401h1.234v-7.401h-1.234zm3.701 0v7.401h1.234v-7.401h-1.234zm3.701 0v14.802h1.234v-14.802h-1.234zm3.701 0v7.401h1.234v-7.401h-1.234z" fill="#271e00" stroke="#271f00" stroke-linejoin="round" stroke-linecap="round" color="#000" stroke-width=".3"/><g fill="#271f00" stroke="#271e00"><path d="m-56.975 44.11q-3.04 4.12-7.96 4.12-4.92 0-7.96-4.12-3.04-4.12-3.04-10.2 0-6.12 3.04-10.2 3.04-4.12 7.96-4.12 4.92 0 7.96 4.12 3.04 4.08 3.04 10.2 0 6.08-3.04 10.2zm-7.96.6q3.28 0 5.24-3.08 2-3.08 2-7.72 0-4.68-2-7.72-1.96-3.08-5.24-3.08-3.32 0-5.28 3.08-1.96 3.04-1.96 7.72 0 4.64 1.96 7.72 1.96 3.08 5.28 3.08z" transform="matrix(.21056 0 0 .21056 17.789 19.779)"/></g><g fill="#271f00" stroke="#271e00"><path d="m-85.42 35.39h-3.68v-22.8l-5.32 2.32-1.4-3.12 8.04-3.76h2.36v27.36z" transform="matrix(.21354 0 0 .21354 59.829 21.988)"/></g></svg>