<svg xmlns="http://www.w3.org/2000/svg" viewBox="0 0 48 48"><defs><linearGradient gradientUnits="userSpaceOnUse" y2="517.4" x2="0" y1="545.75" id="0" gradientTransform="matrix(1.50293 0 0 1.41278-556.23-733.14)"><stop stop-color="#c52828"/><stop offset="1" stop-color="#ff5454"/></linearGradient></defs><g transform="matrix(.99999 0 0 .99999 26.529 5.792)" enable-background="new"><rect width="48" height="39.646" x="-26.525" y="-1.606" opacity=".988" fill="url(#0)" rx="2.826"/><path d="m9.978 11.652c-.302-.139-.659-.089-.911.129l-5.03 4.33v-4.939c0-.486-.396-.882-.882-.882h-17.798c-.486 0-.882.396-.882.882v14.09c0 .486.396.882.882.882h17.798c.486 0 .883-.396.883-.882v-4.939l5.03 4.33c.252.218.609.268.911.129.303-.139.497-.441.497-.775v-11.582c0-.333-.194-.635-.497-.774" fill="#f8e1e1"/></g></svg>