<svg xmlns="http://www.w3.org/2000/svg" viewBox="0 0 48 48"><defs><clipPath><path fill="#1890d0" transform="matrix(15.33333 0 0 11.5 415-125.5)" d="m-24 13c0 1.105-.672 2-1.5 2-.828 0-1.5-.895-1.5-2 0-1.105.672-2 1.5-2 .828 0 1.5.895 1.5 2"/></clipPath><clipPath><path fill="#1890d0" transform="matrix(15.33333 0 0 11.5 415-125.5)" d="m-24 13c0 1.105-.672 2-1.5 2-.828 0-1.5-.895-1.5-2 0-1.105.672-2 1.5-2 .828 0 1.5.895 1.5 2"/></clipPath><clipPath><path transform="matrix(15.33333 0 0 11.5 415-125.5)" d="m-24 13c0 1.105-.672 2-1.5 2-.828 0-1.5-.895-1.5-2 0-1.105.672-2 1.5-2 .828 0 1.5.895 1.5 2" fill="#1890d0"/></clipPath><linearGradient id="0" x1="19.1" y1="46.17" x2="18.559" y2=".61" gradientUnits="userSpaceOnUse"><stop stop-color="#060606"/><stop stop-color="#343434" offset="1"/></linearGradient><linearGradient id="1" x1="24.763" y1="46.576" x2="24.02" y2="1.017" gradientUnits="userSpaceOnUse"><stop stop-color="#cdced2"/><stop stop-color="#f1f1f1" offset="1"/></linearGradient></defs><g transform="translate(0 1)"><path d="m24 1v11h4l5 4v3h-4v-1l-2-2h-3v6h5l4 4v6l-5 4h-4v11c12.703 0 23-10.297 23-23 0-12.703-10.297-23-23-23m0 35v-4h-2l-2-2v-1h-5v3l5 4h4zm0-4h3l2-2v-2l-2-2h-3v6m0-6v-4h-2l-3-2v-2l3-2h2v-4h-4l-5 4v6l5 4h4" fill="url(#1)"/><path d="m24 1c-12.703 0-23 10.297-23 23 0 12.703 10.297 23 23 23v-11h-4l-5-4v-3h5v1l2 2h2v-6h-4l-5-4v-6l5-4h4v-11m0 11v4h3l2 2v1h4v-3l-5-4h-4m0 4h-2l-3 2v2l3 2h2v-6m0 6v4h3l2 2v2l-2 2h-3v4h4l5-4v-6l-4-4h-5" fill="url(#0)"/></g></svg>