<svg xmlns="http://www.w3.org/2000/svg" xmlns:xlink="http://www.w3.org/1999/xlink" viewBox="0 0 48 48"><defs><linearGradient gradientUnits="userSpaceOnUse" y2="35.25" x2="-47.22" y1="53.56" x1="-47.36" id="3" xlink:href="#0"/><linearGradient gradientUnits="userSpaceOnUse" y2="11.167" x2="-67.53" y1="44.929" x1="-67.12" id="2"><stop stop-color="#197ff1"/><stop offset="1" stop-color="#21c6fb"/></linearGradient><linearGradient id="0" gradientUnits="userSpaceOnUse" x1="400.51" y1="546.07" x2="400.7" y2="517.77"><stop stop-color="#2e3e46"/><stop offset="1" stop-color="#435a64"/></linearGradient><linearGradient xlink:href="#0" id="1" x1="248.2" y1="-6.236" x2="248.04" y2="-40.76" gradientUnits="userSpaceOnUse" gradientTransform="matrix(.43089 0 0 .43377-176.39 16.09)"/></defs><g transform="translate(90.51-.814)"><path d="m-88.38 3.304c-.477 0-.862.387-.862.868v35.4l44.839.104v-30.381c0-.481-.384-.868-.862-.868h-20.942c-.879.078-.991-.039-1.425-.622-.616-.829-1.545-3.062-2.151-3.873-.486-.708-.565-.626-1.372-.626z" fill="url(#1)" color="#000"/><rect width="47.997" height="35.33" x="-90.51" y="10.992" rx="1.663" fill="url(#2)"/></g><path d="m-53.03 40.483c-.617-.485-1.392-.773-2.233-.773-1.981 0-3.594 1.598-3.644 3.59-2.046.775-3.502 2.772-3.502 5.11 0 2.763 2.031 5.05 4.666 5.406v.05h18.668v-.009c2.603-.153 4.666-2.335 4.666-5.01 0-2.576-1.92-4.697-4.39-4.982.0001-.156.017-.316.017-.475 0-3.991-3.33-7.226-7.438-7.226-3.04 0-5.655 1.772-6.809 4.312" fill="url(#3)" transform="translate(72.41-16.475)"/></svg>