<svg xmlns="http://www.w3.org/2000/svg" viewBox="0 0 48 48"><defs><clipPath><path transform="matrix(15.33333 0 0 11.5 415-125.5)" d="m-24 13c0 1.105-.672 2-1.5 2-.828 0-1.5-.895-1.5-2 0-1.105.672-2 1.5-2 .828 0 1.5.895 1.5 2" fill="#1890d0"/></clipPath><linearGradient id="0" x1="-10.767" y1="4.675" x2="-11.233" y2="-22.851" gradientUnits="userSpaceOnUse" gradientTransform="matrix(1.77384 0 0 1.71427 42.46 39.38)"><stop stop-color="#00a661"/><stop offset="1" stop-color="#37ce97"/></linearGradient></defs><g enable-background="new"><rect height="48" width="48" rx="3.085" fill="url(#0)" stroke-width="1.714"/><g transform="matrix(1.71427 0 0 1.71427-104.22-16.5)" fill="#fff" fill-opacity=".848"><path d="m83.68 28.418c.203.348.187.781-.037 1.115-2.492 3.722-7.185 5.609-11.724 4.335-3.519-.987-6.239-3.668-7.295-7.116-.046-.149-.18-.251-.336-.25l-1.245.005c-.271 0-.441-.291-.306-.526l2.11-3.686.416-.729c.134-.235.473-.237.609-.003l.711 1.219 1.853 3.176c.136.234-.031.527-.302.529l-1.376.006c.92 2.587 3.034 4.589 5.731 5.346 3.64 1.021 7.401-.49 9.396-3.474.435-.65 1.388-.644 1.782.032l.013.022"/><path d="m85.04 20.746c-1-3.567-3.769-6.354-7.37-7.364-4.542-1.274-9.232.613-11.724 4.335-.224.334-.24.768-.037 1.115l.013.022c.394.675 1.348.682 1.782.032 1.994-2.984 5.753-4.496 9.396-3.474 2.694.756 4.809 2.755 5.729 5.342l-1.376.006c-.271 0-.438.295-.302.529l1.855 3.18.711 1.219c.136.234.475.232.609-.003l.416-.729 2.108-3.69c.134-.235-.036-.527-.307-.526l-1.504.007"/></g></g></svg>