<svg xmlns="http://www.w3.org/2000/svg" viewBox="0 0 48 48"><defs><linearGradient id="0" gradientUnits="userSpaceOnUse" y1="232.47" x2="0" y2="176.47"><stop stop-color="#ffc515"/><stop offset="1" stop-color="#ffd55b"/></linearGradient></defs><path d="m773.16 188.32c-.017-1.302-1.019-2.377-2.315-2.496-10.772-1.01-19.563-6.764-22.461-8.87-.606-.442-1.426-.442-2.032 0-2.893 2.106-11.683 7.863-22.456 8.87-1.296.119-2.293 1.194-2.315 2.496-.13 8.497 1.234 37.34 25.14 43.762.425.113.872.113 1.296 0 23.905-6.413 25.27-35.27 25.14-43.762" fill="url(#0)" transform="matrix(.86418 0 0 .86418-621.86-152.63)"/><path d="m-21.75-.875a25.99996 25.99996 0 0 0 -26 26 25.99996 25.99996 0 0 0 26 26 25.99996 25.99996 0 0 0 26 -26 25.99996 25.99996 0 0 0 -26 -26m10.06 16.605c.494 0 .913.172 1.258.518l2.52 2.52-.002.002c.345.346.52.765.52 1.258 0 .494-.174.915-.52 1.26l-13.406 13.406-2.518 2.52c-.346.345-.767.518-1.26.518-.494 0-.915-.172-1.26-.518l-2.52-2.52-6.703-6.703c-.345-.345-.518-.767-.518-1.26 0-.494.172-.913.518-1.258l2.52-2.52c.345-.345.765-.518 1.26-.518.494 0 .913.172 1.258.518l5.445 5.463 12.148-12.168c.345-.345.765-.518 1.26-.518" transform="matrix(.42308 0 0 .42308 33.2 14.37)" fill="#40330d"/></svg>