<svg xmlns="http://www.w3.org/2000/svg" xmlns:xlink="http://www.w3.org/1999/xlink" viewBox="0 0 48 48"><defs><clipPath><path transform="matrix(15.33333 0 0 11.5 415-125.5)" d="m-24 13c0 1.105-.672 2-1.5 2-.828 0-1.5-.895-1.5-2 0-1.105.672-2 1.5-2 .828 0 1.5.895 1.5 2" fill="#1890d0"/></clipPath><clipPath><path d="m69.63 12.145h-.052c-22.727-.292-46.47 4.077-46.709 4.122-2.424.451-4.946 2.974-5.397 5.397-.044.237-4.414 23.983-4.122 46.71-.292 22.777 4.078 46.523 4.122 46.761.451 2.423 2.974 4.945 5.398 5.398.237.044 23.982 4.413 46.709 4.121 22.779.292 46.524-4.077 46.761-4.121 2.423-.452 4.946-2.976 5.398-5.399.044-.236 4.413-23.981 4.121-46.709.292-22.777-4.077-46.523-4.121-46.761-.453-2.423-2.976-4.946-5.398-5.397-.238-.045-23.984-4.414-46.71-4.122"/></clipPath><clipPath><path transform="matrix(15.33333 0 0 11.5 415-125.5)" d="m-24 13c0 1.105-.672 2-1.5 2-.828 0-1.5-.895-1.5-2 0-1.105.672-2 1.5-2 .828 0 1.5.895 1.5 2" fill="#1890d0"/></clipPath><linearGradient xlink:href="#3" id="4" x1="25.519" y1="34.998" x2="25.18" y2="13.57" gradientUnits="userSpaceOnUse"/><linearGradient y2="176.47" x2="0" y1="232.47" gradientUnits="userSpaceOnUse" id="3"><stop stop-color="#ffc515"/><stop stop-color="#ffd55b" offset="1"/></linearGradient><linearGradient xlink:href="#1" id="0" x1="-10.767" y1="4.675" x2="-11.233" y2="-22.851" gradientUnits="userSpaceOnUse" gradientTransform="matrix(1.77384 0 0 1.71427 42.46 39.38)"/><linearGradient xlink:href="#1" id="5" x1="-22.13" y1="44.499" x2="-23.25" y2="5.703" gradientUnits="userSpaceOnUse"/><linearGradient id="1"><stop stop-color="#141414"/><stop offset="1" stop-color="#2d2d2f"/></linearGradient><linearGradient y2="62.56" x2="326.33" y1="85.89" x1="325.31" gradientTransform="matrix(.76952 0 0 .77349-266.66-31.07)" gradientUnits="userSpaceOnUse" id="2" xlink:href="#3"/></defs><g enable-background="new"><rect height="48" width="48" rx="3.085" fill="url(#0)" stroke-width="1.714"/></g><g transform="matrix(1.18998 0 0 1.18998 50.18-6.25)"><path d="m18.92 14.883h8.668-8.668zm2.166.543v2.166h4.334v-2.166h-4.334zm-3.693 2.727l-1.182 2.047h-1.32l-.848.846v3.59h-4.266l4.234.137v4.703l.709.641 3.188-.068 3.518 4.357h4.178 4.18l2.184-1.711v-1.488h3.748v2.1h2.912c.757 0 1.219-4.539 1.287-6.367.068-1.829-1.422-5.553-1.422-5.553h-2.777v2.166h-2.168v-2.166h-2.156l-1.094-.949v-1.141l-1.219-1.143h-11.686zm-8.768 1.031v4.74l.723 2.146-.723-6.887zm.723 6.887l.361 3.438v-2.365l-.361-1.072z" transform="matrix(.84035 0 0 .84035-42.17 5.252)" fill="none" stroke="url(#4)" stroke-width="2.167"/><path d="m-16.615 25.423l-4.915 3.091.735-3.091c.138-.065 1.238.065 1.324 0l1.627-3.04-.869-.022c0 0-.273-.016-.329-.258-.071-.308-.031-.461.194-.743l3.287-5.594h4.03l-5.03 4.633 2.963.004-4.896 5.02h1.876" fill="url(#2)" stroke="none"/></g></svg>