<svg xmlns="http://www.w3.org/2000/svg" viewBox="0 0 48 48"><path d="m-21.17 6.02c-.748 0-1.358.609-1.358 1.358v21.677c0 .748.609 1.358 1.358 1.358h27.38c.748 0 1.358-.609 1.358-1.358v-7.599l7.737 6.665c.388.335.939.411 1.403.198.465-.214.763-.68.763-1.193v-17.819c0-.513-.297-.976-.763-1.19-.465-.213-1.015-.139-1.403.195l-7.737 6.665v-7.599c0-.748-.609-1.358-1.358-1.358h-27.38m13.497597 6.04267a6.153846 6.153846 0 0 1 6.153846 6.153847 6.153846 6.153846 0 0 1 -6.153846 6.153846 6.153846 6.153846 0 0 1 -6.153846 -6.153846 6.153846 6.153846 0 0 1 6.153846 -6.153847" transform="matrix(1.09999 0 0 1.09999 26.779 3.972)" fill="#4d4d4d" enable-background="new"/></svg>