<?xml version="1.0" encoding="UTF-8" standalone="no"?>
<!-- Created with Inkscape (http://www.inkscape.org/) -->

<svg
   xmlns:dc="http://purl.org/dc/elements/1.1/"
   xmlns:cc="http://creativecommons.org/ns#"
   xmlns:rdf="http://www.w3.org/1999/02/22-rdf-syntax-ns#"
   xmlns:svg="http://www.w3.org/2000/svg"
   xmlns="http://www.w3.org/2000/svg"
   xmlns:xlink="http://www.w3.org/1999/xlink"
   xmlns:sodipodi="http://sodipodi.sourceforge.net/DTD/sodipodi-0.dtd"
   xmlns:inkscape="http://www.inkscape.org/namespaces/inkscape"
   width="213.33333"
   height="213.33333"
   id="svg2"
   version="1.1"
   inkscape:version="0.92.3 (2405546, 2018-03-11)"
   sodipodi:docname="qbittorrent(copy).svg">
  <defs
     id="defs4">
    <linearGradient
       id="linearGradient4334">
      <stop
         id="stop4336"
         offset="0"
         style="stop-color:#15c4fc;stop-opacity:1;" />
      <stop
         id="stop4338"
         offset="1"
         style="stop-color:#1863ee;stop-opacity:0" />
    </linearGradient>
    <linearGradient
       id="linearGradient4328">
      <stop
         id="stop4330"
         offset="0"
         style="stop-color:#f4fbfc;stop-opacity:1;" />
      <stop
         id="stop4332"
         offset="1"
         style="stop-color:#d6d6d6;stop-opacity:0" />
    </linearGradient>
    <linearGradient
       id="linearGradient4829">
      <stop
         style="stop-color:#f4fbfc;stop-opacity:1;"
         offset="0"
         id="stop4831" />
      <stop
         style="stop-color:#d6d6d6;stop-opacity:1;"
         offset="1"
         id="stop4833" />
    </linearGradient>
    <clipPath
       clipPathUnits="userSpaceOnUse"
       id="clipPath4282">
      <rect
         style="color:#000000;display:inline;overflow:visible;visibility:visible;fill:#4d4d4d;fill-opacity:1;fill-rule:nonzero;stroke:none;stroke-width:9.13434315;marker:none;enable-background:accumulate"
         id="rect4284"
         width="246.875"
         height="234.375"
         x="462.5"
         y="1646.1122"
         ry="17"
         rx="17" />
    </clipPath>
    <linearGradient
       inkscape:collect="always"
       xlink:href="#linearGradient5423"
       id="linearGradient5429"
       x1="408.66196"
       y1="44.604382"
       x2="408.66196"
       y2="562.04968"
       gradientUnits="userSpaceOnUse" />
    <linearGradient
       id="linearGradient5423">
      <stop
         style="stop-color:#15c4fc;stop-opacity:1;"
         offset="0"
         id="stop5425" />
      <stop
         style="stop-color:#1863ee;stop-opacity:1;"
         offset="1"
         id="stop5427" />
    </linearGradient>
    <clipPath
       clipPathUnits="userSpaceOnUse"
       id="clipPath6245">
      <rect
         style="color:#000000;display:inline;overflow:visible;visibility:visible;opacity:0.85;fill:#ffffff;fill-opacity:1;fill-rule:nonzero;stroke:none;stroke-width:1.5;marker:none;enable-background:accumulate"
         id="rect6247"
         width="300"
         height="259.375"
         x="-901.5625"
         y="792.98718"
         rx="16.46875"
         ry="16.46875" />
    </clipPath>
    <linearGradient
       inkscape:collect="always"
       xlink:href="#linearGradient4829"
       id="linearGradient6261"
       x1="105.47797"
       y1="852.77802"
       x2="105.47797"
       y2="1052.7781"
       gradientUnits="userSpaceOnUse"
       gradientTransform="translate(-2.5989256,-0.41583663)" />
    <linearGradient
       inkscape:collect="always"
       xlink:href="#linearGradient4829"
       id="linearGradient4272"
       x1="-193.57404"
       y1="768.57635"
       x2="164.21439"
       y2="1126.3647"
       gradientUnits="userSpaceOnUse" />
    <linearGradient
       inkscape:collect="always"
       xlink:href="#linearGradient4328"
       id="linearGradient4314"
       gradientUnits="userSpaceOnUse"
       x1="167.0096"
       y1="1123.5696"
       x2="-174.84821"
       y2="781.71179" />
    <linearGradient
       inkscape:collect="always"
       xlink:href="#linearGradient4829-5"
       id="linearGradient4355-1"
       gradientUnits="userSpaceOnUse"
       gradientTransform="matrix(0.2794948,0.2794948,-0.2794948,0.2794948,130.2946,929.88282)"
       x1="-187.98358"
       y1="-89.376266"
       x2="169.80482"
       y2="268.41214" />
    <linearGradient
       id="linearGradient4829-5">
      <stop
         style="stop-color:#f4fbfc;stop-opacity:1;"
         offset="0"
         id="stop4831-6" />
      <stop
         style="stop-color:#d6d6d6;stop-opacity:1;"
         offset="1"
         id="stop4833-4" />
    </linearGradient>
    <linearGradient
       inkscape:collect="always"
       xlink:href="#linearGradient4829"
       id="linearGradient4402"
       gradientUnits="userSpaceOnUse"
       gradientTransform="matrix(0.27949481,0.27949481,-0.27949481,0.27949481,130.29461,77.52064)"
       x1="-187.98358"
       y1="-89.376266"
       x2="169.80482"
       y2="268.41214" />
    <linearGradient
       inkscape:collect="always"
       xlink:href="#linearGradient4829-2"
       id="linearGradient4402-6"
       gradientUnits="userSpaceOnUse"
       gradientTransform="matrix(0.27949481,0.27949481,-0.27949481,0.27949481,130.29461,929.88282)"
       x1="-187.98358"
       y1="-89.376266"
       x2="169.80482"
       y2="268.41214" />
    <linearGradient
       id="linearGradient4829-2">
      <stop
         style="stop-color:#f4fbfc;stop-opacity:1;"
         offset="0"
         id="stop4831-1" />
      <stop
         style="stop-color:#d6d6d6;stop-opacity:1;"
         offset="1"
         id="stop4833-2" />
    </linearGradient>
    <linearGradient
       y2="268.41214"
       x2="169.80482"
       y1="-89.376266"
       x1="-187.98358"
       gradientTransform="matrix(0.27949481,0.27949481,-0.27949481,0.27949481,130.29461,929.88282)"
       gradientUnits="userSpaceOnUse"
       id="linearGradient4436"
       xlink:href="#linearGradient4829-2"
       inkscape:collect="always" />
    <linearGradient
       id="a"
       gradientTransform="matrix(1.5179623,0,0,1.5539567,-149.62898,-305.13047)"
       gradientUnits="userSpaceOnUse"
       x1="368.96432"
       x2="368.96432"
       y1="545.75293"
       y2="517.39703">
      <stop
         offset="0"
         stop-color="#c61423"
         id="stop2" />
      <stop
         offset="1"
         stop-color="#ff4c63"
         id="stop4" />
    </linearGradient>
  </defs>
  <sodipodi:namedview
     id="base"
     pagecolor="#ffffff"
     bordercolor="#666666"
     borderopacity="1.0"
     inkscape:pageopacity="0.0"
     inkscape:pageshadow="2"
     inkscape:zoom="2.5600001"
     inkscape:cx="45.649721"
     inkscape:cy="124.04125"
     inkscape:document-units="px"
     inkscape:current-layer="g21"
     showgrid="false"
     inkscape:window-width="1366"
     inkscape:window-height="699"
     inkscape:window-x="0"
     inkscape:window-y="0"
     inkscape:window-maximized="1"
     inkscape:snap-from-guide="true"
     showguides="true"
     inkscape:guide-bbox="true">
    <sodipodi:guide
       position="213.33333,213.33333"
       orientation="0,-200"
       id="guide3768"
       inkscape:locked="false" />
    <sodipodi:guide
       position="0,106.66666"
       orientation="100,0"
       id="guide3465"
       inkscape:locked="false" />
    <sodipodi:guide
       position="0,-2.7916666e-06"
       orientation="0,200"
       id="guide3467"
       inkscape:locked="false" />
    <sodipodi:guide
       position="213.33333,-2.7916666e-06"
       orientation="-100,0"
       id="guide3469"
       inkscape:locked="false" />
    <sodipodi:guide
       position="213.33333,106.66666"
       orientation="0,-200"
       id="guide3471"
       inkscape:locked="false" />
  </sodipodi:namedview>
  <metadata
     id="metadata7">
    <rdf:RDF>
      <cc:Work
         rdf:about="">
        <dc:format>image/svg+xml</dc:format>
        <dc:type
           rdf:resource="http://purl.org/dc/dcmitype/StillImage" />
        <dc:title />
      </cc:Work>
    </rdf:RDF>
  </metadata>
  <g
     inkscape:label="Layer 1"
     inkscape:groupmode="layer"
     id="layer1"
     transform="translate(0,-909.18633)">
    <g
       transform="matrix(4.4004466,0,0,4.5259746,-1695.8064,-1335.596)"
       id="g21">
      <rect
         style="opacity:0.98799995;fill:url(#a);stroke-width:1.48907626"
         height="43.60791"
         ry="3.1079135"
         width="48.479939"
         x="385.37143"
         y="499.5051"
         id="rect7" />
      <g
         inkscape:label="Capa 1"
         id="layer1-6"
         transform="matrix(0.96910818,0,0,0.99743058,386.39126,231.05428)">
        <g
           id="g7647"
           transform="translate(-25.876281,3.9999961)">
          <path
             id="rect6968-7"
             d="m 41.876281,281.64829 c -1.108,0 -2,0.892 -2,2 v 9.99999 c 0,1.108 0.892,2 2,2 h 10 c 1.108,0 2,-0.892 2,-2 v -2.58593 l 4.292969,4.29297 c 0.629995,0.62955 1.706681,0.1836 1.707031,-0.70704 v -11.99999 c 1.84e-4,-0.56391 -0.465631,-1.01647 -1.029297,-1 -0.25501,0.008 -0.49746,0.11244 -0.677734,0.29296 l -4.292969,4.29297 v -2.58593 c 0,-1.108 -0.892,-2 -2,-2 z"
             style="opacity:1;fill:#d90122;fill-opacity:1;stroke:none;stroke-width:2;stroke-linecap:round;stroke-linejoin:round;stroke-miterlimit:4;stroke-dasharray:none;stroke-opacity:1"
             inkscape:connector-curvature="0" />
          <path
             inkscape:connector-curvature="0"
             id="rect6968"
             d="m 41.876281,280.64828 c -1.108,0 -2,0.892 -2,2 v 10 c 0,1.108 0.892,2 2,2 h 10 c 1.108,0 2,-0.892 2,-2 v -2.58594 l 4.292969,4.29297 c 0.629995,0.62956 1.706681,0.18361 1.707031,-0.70703 v -12 c 1.84e-4,-0.56391 -0.465631,-1.01646 -1.029297,-1 -0.25501,0.008 -0.49746,0.11244 -0.677734,0.29297 l -4.292969,4.29297 v -2.58594 c 0,-1.108 -0.892,-2 -2,-2 z"
             style="opacity:1;fill:#ffffff;fill-opacity:1;stroke:none;stroke-width:2;stroke-linecap:round;stroke-linejoin:round;stroke-miterlimit:4;stroke-dasharray:none;stroke-opacity:1" />
        </g>
        <path
           inkscape:connector-curvature="0"
           id="rect936-2"
           transform="translate(0,266.64999)"
           d="m 3,7 v 3 4 h 3 v -4 h 4 V 7 H 6 Z M 41.5,7 C 39.561,7 38,8.561 38,10.5 38,12.439 39.561,14 41.5,14 43.439,14 45,12.439 45,10.5 45,8.561 43.439,7 41.5,7 Z M 3,36 v 4 3 h 3 4 V 40 H 6 v -4 z m 39,0 v 4 h -4 v 3 h 4 3 v -3 -4 z"
           style="opacity:1;fill:#d90122;fill-opacity:1;stroke:none;stroke-width:2;stroke-linecap:round;stroke-linejoin:round;stroke-miterlimit:4;stroke-dasharray:none;stroke-opacity:1" />
        <path
           inkscape:connector-curvature="0"
           id="rect988"
           transform="translate(0,266.64999)"
           d="m 3,6 v 3 4 H 6 V 9 h 4 V 6 H 6 Z M 41.5,6 C 39.561,6 38,7.561 38,9.5 38,11.439 39.561,13 41.5,13 43.439,13 45,11.439 45,9.5 45,7.561 43.439,6 41.5,6 Z M 3,35 v 4 3 h 3 4 V 39 H 6 v -4 z m 39,0 v 4 h -4 v 3 h 4 3 v -3 -4 z"
           style="opacity:1;fill:#ffffff;fill-opacity:1;stroke:none;stroke-width:2;stroke-linecap:round;stroke-linejoin:round;stroke-miterlimit:4;stroke-dasharray:none;stroke-opacity:1" />
      </g>
    </g>
  </g>
</svg>
