<svg xmlns="http://www.w3.org/2000/svg" viewBox="0 0 48 48"><defs><clipPath><path d="m69.63 12.145h-.052c-22.727-.292-46.47 4.077-46.709 4.122-2.424.451-4.946 2.974-5.397 5.397-.044.237-4.414 23.983-4.122 46.71-.292 22.777 4.078 46.523 4.122 46.761.451 2.423 2.974 4.945 5.398 5.398.237.044 23.982 4.413 46.709 4.121 22.779.292 46.524-4.077 46.761-4.121 2.423-.452 4.946-2.976 5.398-5.399.044-.236 4.413-23.981 4.121-46.709.292-22.777-4.077-46.523-4.121-46.761-.453-2.423-2.976-4.946-5.398-5.397-.238-.045-23.984-4.414-46.71-4.122"/></clipPath><clipPath><path transform="matrix(15.33333 0 0 11.5 415-125.5)" d="m-24 13c0 1.105-.672 2-1.5 2-.828 0-1.5-.895-1.5-2 0-1.105.672-2 1.5-2 .828 0 1.5.895 1.5 2" fill="#1890d0"/></clipPath><clipPath><path transform="matrix(15.33333 0 0 11.5 415-125.5)" d="m-24 13c0 1.105-.672 2-1.5 2-.828 0-1.5-.895-1.5-2 0-1.105.672-2 1.5-2 .828 0 1.5.895 1.5 2" fill="#1890d0"/></clipPath><linearGradient id="1" x1="-29.444" y1="45.33" x2="-29.582" y2="18.259" gradientUnits="userSpaceOnUse"><stop stop-color="#155bc2"/><stop offset="1" stop-color="#369dff"/></linearGradient><linearGradient id="0" x1="-10.767" y1="4.675" x2="-11.233" y2="-22.851" gradientUnits="userSpaceOnUse" gradientTransform="matrix(1.77384 0 0 1.71427-17.351 46.26)"><stop stop-color="#e1e1e1"/><stop offset="1" stop-color="#f4f4ff"/></linearGradient><linearGradient id="2" x1="-41.31" y1="39.14" x2="-41.489" y2="23.722" gradientUnits="userSpaceOnUse"><stop stop-color="#4965b6"/><stop offset="1" stop-color="#8d9dcc"/></linearGradient></defs><g transform="translate(59.811-6.886)"><rect y="6.886" x="-59.811" height="48" width="48" rx="3.085" fill="url(#0)"/><path d="m-55.811 23.613h6.06l8.485 10.909 3.636-4.848 3.636 3.636-7.273 9.697" fill="url(#2)"/><path d="m-32.78 32.1l-3.636-3.636 7.273-9.697 13.333 20.606h-6.06l-7.273-12.12" fill="url(#1)"/></g></svg>