<?xml version="1.0" encoding="UTF-8" standalone="no"?>
<svg
   xmlns:dc="http://purl.org/dc/elements/1.1/"
   xmlns:cc="http://creativecommons.org/ns#"
   xmlns:rdf="http://www.w3.org/1999/02/22-rdf-syntax-ns#"
   xmlns:svg="http://www.w3.org/2000/svg"
   xmlns="http://www.w3.org/2000/svg"
   xmlns:xlink="http://www.w3.org/1999/xlink"
   xmlns:sodipodi="http://sodipodi.sourceforge.net/DTD/sodipodi-0.dtd"
   xmlns:inkscape="http://www.inkscape.org/namespaces/inkscape"
   height="48"
   viewBox="0 0 48 48"
   width="48"
   version="1.1"
   id="svg18"
   sodipodi:docname="smplayer.svg"
   inkscape:version="0.92.2 5c3e80d, 2017-08-06">
  <sodipodi:namedview
     pagecolor="#ffffff"
     bordercolor="#666666"
     borderopacity="1"
     objecttolerance="10"
     gridtolerance="10"
     guidetolerance="10"
     inkscape:pageopacity="0"
     inkscape:pageshadow="2"
     inkscape:window-width="1600"
     inkscape:window-height="827"
     id="namedview18"
     showgrid="false"
     inkscape:zoom="7.81159"
     inkscape:cx="-6.5967911"
     inkscape:cy="31.975384"
     inkscape:window-x="0"
     inkscape:window-y="0"
     inkscape:window-maximized="1"
     inkscape:current-layer="svg18" />
  <metadata
     id="metadata24">
    <rdf:RDF>
      <cc:Work
         rdf:about="">
        <dc:format>image/svg+xml</dc:format>
        <dc:type
           rdf:resource="http://purl.org/dc/dcmitype/StillImage" />
        <dc:title />
      </cc:Work>
    </rdf:RDF>
  </metadata>
  <defs
     id="defs22">
    <linearGradient
       inkscape:collect="always"
       id="linearGradient845">
      <stop
         style="stop-color:#1c1c1c;stop-opacity:1"
         offset="0"
         id="stop841" />
      <stop
         style="stop-color:#555555;stop-opacity:1"
         offset="1"
         id="stop843" />
    </linearGradient>
    <linearGradient
       inkscape:collect="always"
       id="linearGradient840">
      <stop
         style="stop-color:#c6c6c6;stop-opacity:1"
         offset="0"
         id="stop836" />
      <stop
         style="stop-color:#edecec;stop-opacity:1"
         offset="1"
         id="stop838" />
    </linearGradient>
    <linearGradient
       xlink:href="#b"
       id="linearGradient859"
       x1="23.969749"
       y1="43.525978"
       x2="24"
       y2="4"
       gradientUnits="userSpaceOnUse" />
    <linearGradient
       id="b"
       gradientUnits="userSpaceOnUse"
       x1="449.42804"
       x2="449.54932"
       y1="540.74573"
       y2="518.40662"
       gradientTransform="matrix(1.6796906,0,0,1.6796906,-775.74478,-873.02896)">
      <stop
         offset="0"
         stop-color="#b6b9bf"
         id="stop25" />
      <stop
         offset="1"
         stop-color="#dddfe2"
         id="stop27" />
    </linearGradient>
    <linearGradient
       inkscape:collect="always"
       xlink:href="#linearGradient840"
       id="linearGradient842"
       x1="23.57954"
       y1="43.938797"
       x2="24"
       y2="4"
       gradientUnits="userSpaceOnUse"
       gradientTransform="matrix(1.1495966,0,0,1.1495966,-3.5903409,-3.9201464)" />
    <linearGradient
       inkscape:collect="always"
       xlink:href="#linearGradient845"
       id="linearGradient853"
       gradientUnits="userSpaceOnUse"
       x1="24.291534"
       y1="39.416004"
       x2="24.476511"
       y2="7.7963228" />
  </defs>
  <g
     id="g848">
    <path
       style="fill:url(#linearGradient853);fill-opacity:1;stroke-width:1.14959657"
       id="path2"
       d="M 40.09433,23.670172 A 16.094352,16.094352 0 0 1 23.999977,39.764524 16.094352,16.094352 0 0 1 7.9056251,23.670172 16.094352,16.094352 0 0 1 23.999977,7.5758196 16.094352,16.094352 0 0 1 40.09433,23.670172 Z"
       inkscape:connector-curvature="0" />
    <path
       style="fill:url(#linearGradient842);fill-opacity:1;stroke-width:1.14959657"
       id="path4"
       d="m 23.999977,0.67824 c -12.73753,0 -22.9919315,10.254402 -22.9919315,22.991932 0,12.73753 10.2544015,22.991932 22.9919315,22.991932 12.737531,0 22.991932,-10.254402 22.991932,-22.991932 0,-12.73753 -10.254401,-22.991932 -22.991932,-22.991932 z m 0,3.4487898 a 6.8975796,6.8975796 0 0 1 6.89758,6.8975792 6.8975796,6.8975796 0 0 1 -6.89758,6.89758 6.8975796,6.8975796 0 0 1 -6.897579,-6.89758 6.8975796,6.8975796 0 0 1 6.897579,-6.8975792 z M 11.354415,16.772592 a 6.8975796,6.8975796 0 0 1 6.897579,6.89758 6.8975796,6.8975796 0 0 1 -6.897579,6.89758 6.8975796,6.8975796 0 0 1 -6.8975797,-6.89758 6.8975796,6.8975796 0 0 1 6.8975797,-6.89758 z m 25.291125,0 a 6.8975796,6.8975796 0 0 1 6.89758,6.89758 6.8975796,6.8975796 0 0 1 -6.89758,6.89758 6.8975796,6.8975796 0 0 1 -6.89758,-6.89758 6.8975796,6.8975796 0 0 1 6.89758,-6.89758 z M 23.999977,29.418155 a 6.8975796,6.8975796 0 0 1 6.89758,6.89758 6.8975796,6.8975796 0 0 1 -6.89758,6.897579 6.8975796,6.8975796 0 0 1 -6.897579,-6.897579 6.8975796,6.8975796 0 0 1 6.897579,-6.89758 z"
       inkscape:connector-curvature="0" />
    <path
       style="fill:#333333;stroke-width:1.14959657"
       id="path6"
       d="m 23.271133,20.106423 a 1.1495966,1.1495966 0 0 1 -0.420752,1.570348 1.1495966,1.1495966 0 0 1 -1.570349,-0.420752 1.1495966,1.1495966 0 0 1 0.420752,-1.570349 1.1495966,1.1495966 0 0 1 1.570349,0.420753 z"
       inkscape:connector-curvature="0" />
    <path
       style="fill:#333333;stroke-width:1.14959657"
       id="path8"
       d="m 26.719923,26.084325 a 1.1495966,1.1495966 0 0 1 -0.420752,1.570349 1.1495966,1.1495966 0 0 1 -1.570349,-0.420753 1.1495966,1.1495966 0 0 1 0.420752,-1.570348 1.1495966,1.1495966 0 0 1 1.570349,0.420752 z"
       inkscape:connector-curvature="0" />
    <path
       style="fill:#333333;stroke-width:1.14959657"
       id="path10"
       d="m 27.561428,22.865454 a 1.1495966,1.1495966 0 0 1 -1.570349,-0.420752 1.1495966,1.1495966 0 0 1 0.420752,-1.570349 1.1495966,1.1495966 0 0 1 1.570349,0.420752 1.1495966,1.1495966 0 0 1 -0.420752,1.570349 z"
       inkscape:connector-curvature="0" />
    <path
       style="fill:#333333;stroke-width:1.14959657"
       id="path12"
       d="m 21.588124,26.314244 a 1.1495966,1.1495966 0 0 1 -1.570349,-0.420752 1.1495966,1.1495966 0 0 1 0.420752,-1.570349 1.1495966,1.1495966 0 0 1 1.570349,0.420752 1.1495966,1.1495966 0 0 1 -0.420752,1.570349 z"
       inkscape:connector-curvature="0" />
    <path
       style="opacity:1;fill:#333333;stroke-width:1.14959657"
       id="path16"
       d="m 23.999977,4.1270298 a 6.8975796,6.8975796 0 0 0 -6.897579,6.8975792 6.8975796,6.8975796 0 0 0 0.02919,0.572614 6.8975796,6.8975796 0 0 1 6.86884,-6.3204816 6.8975796,6.8975796 0 0 1 6.86884,6.3250806 6.8975796,6.8975796 0 0 0 0.02874,-0.577098 6.8975796,6.8975796 0 0 0 -6.897579,-6.8975792 z M 11.354415,16.772592 a 6.8975796,6.8975796 0 0 0 -6.8975797,6.89758 6.8975796,6.8975796 0 0 0 0.0292,0.572499 6.8975796,6.8975796 0 0 1 6.8683797,-6.320482 6.8975796,6.8975796 0 0 1 6.86884,6.32508 6.8975796,6.8975796 0 0 0 0.02874,-0.577097 6.8975796,6.8975796 0 0 0 -6.89758,-6.89758 z m 25.291125,0 a 6.8975796,6.8975796 0 0 0 -6.89758,6.89758 6.8975796,6.8975796 0 0 0 0.02919,0.572614 6.8975796,6.8975796 0 0 1 6.868839,-6.320482 6.8975796,6.8975796 0 0 1 6.86884,6.32508 6.8975796,6.8975796 0 0 0 0.02874,-0.577097 6.8975796,6.8975796 0 0 0 -6.89758,-6.89758 z M 1.0218407,24.24497 c -0.00471,0.191983 -0.01345,0.381666 -0.01345,0.574799 0,12.73753 10.2544013,22.991932 22.9919313,22.991932 12.737531,0 22.991932,-10.254402 22.991932,-22.991932 0,-0.193018 -0.0087,-0.382931 -0.01347,-0.574799 -0.303493,12.468525 -10.433739,22.417134 -22.978137,22.417134 -12.544398,0 -22.6746428,-9.948609 -22.9781363,-22.417134 z m 22.9781363,5.173185 a 6.8975796,6.8975796 0 0 0 -6.897579,6.89758 6.8975796,6.8975796 0 0 0 0.02919,0.572614 6.8975796,6.8975796 0 0 1 6.86884,-6.320482 6.8975796,6.8975796 0 0 1 6.86884,6.32508 6.8975796,6.8975796 0 0 0 0.02874,-0.577097 6.8975796,6.8975796 0 0 0 -6.897579,-6.89758 z"
       inkscape:connector-curvature="0" />
  </g>
</svg>
