<svg xmlns="http://www.w3.org/2000/svg" viewBox="0 0 48 48"><defs><linearGradient id="0" x1="233.53" y1="143.37" x2="232.31" y2="43.821" gradientUnits="userSpaceOnUse"><stop stop-color="#974eb7"/><stop offset="1" stop-color="#d164ff"/></linearGradient></defs><g transform="matrix(.4778 0 0 .4778-86.27-20.282)"><rect y="42.45" x="182.23" height="100.46" width="97.1" fill="url(#0)" rx="6.241" stroke-width="1" fill-rule="evenodd"/><path d="m1096.16 361.99h-42.5c-9.399 0-17 7.6-17 17v19.899h-235c-9.7-37.5-43.7-65.1-84.2-65.1-37.5 0-69.4 23.7-81.7 57l-21-22c-8.2-8.6-21.801-9.2-30.7-1.2l-34.7 31.4h-.3l-28.7-30.2c-8.2-8.6-21.8-9.2-30.7-1.2l-34.7 31.3h-.3l-28.7-30.1c-8.2-8.6-21.8-9.2-30.7-1.2l-30.2 27.2c0 0-148.88 312.74 321 301.6h351.3c41.9 0 75.8-33.899 75.8-75.8h-325.4c-37.4 0-67.7-30.3-67.7-67.7h25.6l32.2 33.801c8.2 8.6 21.8 9.199 30.7 1.199l34.899-31.5 28.801 30.3c8.199 8.6 21.8 9.199 30.699 1.199l34.9-31.5 28.8 30.3c8.2 8.6 21.8 9.199 30.7 1.199l38.8-35h9.9c33.5 0 61.3-24.6 66.3-56.699h.8v-117c.0001-9.6-7.599-17.199-16.999-17.199m-378.8 93.5c-19.1 0-34.6-15.5-34.6-34.601 0-19.1 15.5-34.6 34.6-34.6 19.1 0 34.6 15.5 34.6 34.6-.0001 19.1-15.501 34.601-34.6 34.601" fill="#f5e7fb" transform="matrix(.09959 0 0 .09959 158.29 41.36)"/></g></svg>