<?xml version="1.0" encoding="UTF-8" standalone="no"?>
<!-- Created with Inkscape (http://www.inkscape.org/) -->

<svg
   xmlns:dc="http://purl.org/dc/elements/1.1/"
   xmlns:cc="http://creativecommons.org/ns#"
   xmlns:rdf="http://www.w3.org/1999/02/22-rdf-syntax-ns#"
   xmlns:svg="http://www.w3.org/2000/svg"
   xmlns="http://www.w3.org/2000/svg"
   xmlns:xlink="http://www.w3.org/1999/xlink"
   xmlns:sodipodi="http://sodipodi.sourceforge.net/DTD/sodipodi-0.dtd"
   xmlns:inkscape="http://www.inkscape.org/namespaces/inkscape"
   width="200"
   height="200"
   id="svg2"
   version="1.1"
   inkscape:version="0.91+devel r"
   sodipodi:docname="system-software-update.svg">
  <defs
     id="defs4">
    <linearGradient
       id="linearGradient4829">
      <stop
         style="stop-color:#f4fbfc;stop-opacity:1;"
         offset="0"
         id="stop4831" />
      <stop
         style="stop-color:#d6d6d6;stop-opacity:1;"
         offset="1"
         id="stop4833" />
    </linearGradient>
    <clipPath
       clipPathUnits="userSpaceOnUse"
       id="clipPath4282">
      <rect
         style="color:#000000;fill:#4d4d4d;fill-opacity:1;fill-rule:nonzero;stroke:none;stroke-width:9.13434315;marker:none;visibility:visible;display:inline;overflow:visible;enable-background:accumulate"
         id="rect4284"
         width="246.875"
         height="234.375"
         x="462.5"
         y="1646.1122"
         ry="17"
         rx="17" />
    </clipPath>
    <linearGradient
       inkscape:collect="always"
       xlink:href="#linearGradient4829"
       id="linearGradient4835"
       x1="102.29776"
       y1="-0.42686829"
       x2="102.29776"
       y2="199.16539"
       gradientUnits="userSpaceOnUse" />
    <linearGradient
       inkscape:collect="always"
       xlink:href="#linearGradient5423"
       id="linearGradient5429"
       x1="408.66196"
       y1="44.604382"
       x2="408.66196"
       y2="562.04968"
       gradientUnits="userSpaceOnUse" />
    <linearGradient
       id="linearGradient5423">
      <stop
         style="stop-color:#15c4fc;stop-opacity:1;"
         offset="0"
         id="stop5425" />
      <stop
         style="stop-color:#1863ee;stop-opacity:1;"
         offset="1"
         id="stop5427" />
    </linearGradient>
    <linearGradient
       inkscape:collect="always"
       xlink:href="#linearGradient5423"
       id="linearGradient6197"
       gradientUnits="userSpaceOnUse"
       x1="99.036476"
       y1="-0.50471628"
       x2="99.036476"
       y2="199.83986" />
    <clipPath
       clipPathUnits="userSpaceOnUse"
       id="clipPath6245">
      <rect
         style="opacity:0.85;color:#000000;fill:#ffffff;fill-opacity:1;fill-rule:nonzero;stroke:none;stroke-width:1.5;marker:none;visibility:visible;display:inline;overflow:visible;enable-background:accumulate"
         id="rect6247"
         width="300"
         height="259.375"
         x="-901.5625"
         y="792.98718"
         rx="16.46875"
         ry="16.46875" />
    </clipPath>
    <linearGradient
       inkscape:collect="always"
       xlink:href="#linearGradient4829"
       id="linearGradient6261"
       x1="105.47797"
       y1="852.77802"
       x2="105.47797"
       y2="1052.7781"
       gradientUnits="userSpaceOnUse"
       gradientTransform="translate(-2.5989256,-0.41583663)" />
    <linearGradient
       inkscape:collect="always"
       xlink:href="#linearGradient4829"
       id="linearGradient4506"
       x1="324.46097"
       y1="1042.199"
       x2="324.46097"
       y2="1301.2419"
       gradientUnits="userSpaceOnUse" />
    <linearGradient
       inkscape:collect="always"
       xlink:href="#linearGradient4829"
       id="linearGradient4533"
       gradientUnits="userSpaceOnUse"
       x1="324.46097"
       y1="1042.199"
       x2="324.46097"
       y2="1301.2419" />
    <linearGradient
       inkscape:collect="always"
       xlink:href="#linearGradient4829"
       id="linearGradient4535"
       gradientUnits="userSpaceOnUse"
       x1="324.46097"
       y1="1042.199"
       x2="324.46097"
       y2="1301.2419" />
    <linearGradient
       inkscape:collect="always"
       xlink:href="#linearGradient4829"
       id="linearGradient4537"
       gradientUnits="userSpaceOnUse"
       x1="324.46097"
       y1="1042.199"
       x2="324.46097"
       y2="1301.2419" />
  </defs>
  <sodipodi:namedview
     id="base"
     pagecolor="#ffffff"
     bordercolor="#666666"
     borderopacity="1.0"
     inkscape:pageopacity="0.0"
     inkscape:pageshadow="2"
     inkscape:zoom="3.6203869"
     inkscape:cx="112.24465"
     inkscape:cy="99.837097"
     inkscape:document-units="px"
     inkscape:current-layer="layer1"
     showgrid="false"
     inkscape:window-width="1920"
     inkscape:window-height="1025"
     inkscape:window-x="1920"
     inkscape:window-y="27"
     inkscape:window-maximized="1"
     inkscape:snap-from-guide="true"
     showguides="true"
     inkscape:guide-bbox="true">
    <sodipodi:guide
       position="0,0"
       orientation="0,200"
       id="guide3764" />
    <sodipodi:guide
       position="200,0"
       orientation="-200,0"
       id="guide3766" />
    <sodipodi:guide
       position="200,200"
       orientation="0,-200"
       id="guide3768" />
    <sodipodi:guide
       position="0,200"
       orientation="200,0"
       id="guide3770" />
  </sodipodi:namedview>
  <metadata
     id="metadata7">
    <rdf:RDF>
      <cc:Work
         rdf:about="">
        <dc:format>image/svg+xml</dc:format>
        <dc:type
           rdf:resource="http://purl.org/dc/dcmitype/StillImage" />
        <dc:title />
      </cc:Work>
    </rdf:RDF>
  </metadata>
  <g
     inkscape:label="Layer 1"
     inkscape:groupmode="layer"
     id="layer1"
     transform="translate(0,-852.36218)">
    <path
       sodipodi:type="arc"
       style="color:#000000;fill:url(#linearGradient4835);fill-opacity:1;fill-rule:nonzero;stroke:none;stroke-width:9.13434315;marker:none;visibility:visible;display:inline;overflow:visible;enable-background:accumulate"
       id="path4188"
       sodipodi:cx="100"
       sodipodi:cy="100"
       sodipodi:rx="100"
       sodipodi:ry="100"
       d="M 200,100 A 100,100 0 0 1 100,200 100,100 0 0 1 0,100 100,100 0 0 1 100,0 100,100 0 0 1 200,100 Z"
       transform="translate(0,852.36219)" />
    <path
       sodipodi:type="arc"
       style="color:#000000;fill:url(#linearGradient6197);fill-opacity:1;fill-rule:nonzero;stroke:none;stroke-width:9.13434314999999941;marker:none;visibility:visible;display:inline;overflow:visible;enable-background:accumulate"
       id="path4188-6"
       sodipodi:cx="100"
       sodipodi:cy="100"
       sodipodi:rx="100"
       sodipodi:ry="100"
       d="M 200,100 A 100,100 0 0 1 100,200 100,100 0 0 1 0,100 100,100 0 0 1 100,0 100,100 0 0 1 200,100 Z"
       transform="matrix(0.91020408,0,0,0.91020408,8.9795918,861.34178)" />
    <g
       id="g4495"
       transform="matrix(0.83415989,0,0,0.83415989,-170.48066,-25.673058)"
       style="fill:url(#linearGradient4506);fill-opacity:1">
      <path
         sodipodi:nodetypes="cscccccssscc"
         inkscape:connector-curvature="0"
         id="path4385"
         d="m 324.02343,1092.4012 c 82.03124,3.125 83.0078,78.9063 82.42187,85.3516 -0.17771,1.9548 -0.39063,25.1953 -19.14063,48.6328 l 8.98438,7.8125 -34.76563,7.8125 1.5625,-37.1094 8.98438,7.0313 c 0,0 11.13281,-9.961 14.84375,-27.7344 3.71093,-17.7734 -1.17188,-32.4219 -5.27344,-39.8437 -4.10156,-7.4219 -11.52344,-18.9453 -24.80469,-25.7813 -13.28125,-6.8359 -33.00781,-9.1797 -33.00781,-9.1797 z"
         style="fill:url(#linearGradient4533);fill-opacity:1;fill-rule:evenodd;stroke:none;stroke-width:1px;stroke-linecap:butt;stroke-linejoin:miter;stroke-opacity:1" />
      <path
         sodipodi:nodetypes="cscccccssscc"
         inkscape:connector-curvature="0"
         id="path4385-5"
         d="m 324.48691,1252.5575 c -82.03124,-3.125 -83.0078,-78.9063 -82.42187,-85.3516 0.17771,-1.9548 0.39063,-25.1953 19.14063,-48.6328 l -8.98438,-7.8125 34.76563,-7.8125 -1.5625,37.1094 -8.98438,-7.0313 c 0,0 -11.13281,9.961 -14.84375,27.7344 -3.71093,17.7734 1.17188,32.4219 5.27344,39.8437 4.10156,7.4219 11.52344,18.9453 24.80469,25.7813 13.28125,6.8359 33.00781,9.1797 33.00781,9.1797 z"
         style="fill:url(#linearGradient4535);fill-opacity:1;fill-rule:evenodd;stroke:none;stroke-width:1px;stroke-linecap:butt;stroke-linejoin:miter;stroke-opacity:1" />
      <path
         id="path4492"
         transform="translate(0,852.36218)"
         d="m 324.51172,275.78125 a 44.628906,44.628906 0 0 0 -20.29492,4.88477 c -1.66591,4.58696 -4.60951,13.91257 -4.61719,22.77539 a 4.6265774,4.7646842 0 0 1 1.66406,0.79882 c 1.31409,-2.74345 3.33165,-6.48937 6.51563,-11.53711 4.0326,-6.39319 7.84163,-10.10797 13.34961,-12.63867 2.78401,-1.27914 5.99577,-2.2607 9.88671,-3.1582 -0.35144,-0.24181 -0.76394,-0.5143 -1.13085,-0.76367 a 44.628906,44.628906 0 0 0 -5.37305,-0.36133 z m 7.65039,0.70508 c 0.0584,0.0405 0.13142,0.0886 0.18945,0.1289 0.0888,-0.0193 0.19769,-0.0373 0.28711,-0.0566 a 44.628906,44.628906 0 0 0 -0.47656,-0.0723 z m 2.88281,0.60937 c -0.50643,0.10174 -1.07853,0.20434 -1.56445,0.30664 1.25188,0.88443 2.36763,1.70019 3.375,2.46094 0.59073,-0.60992 1.23368,-1.17346 1.92383,-1.69336 a 44.628906,44.628906 0 0 0 -3.73438,-1.07422 z m -2.90234,0.59766 c -4.25313,0.94395 -7.69988,1.95267 -10.5957,3.2832 -5.33188,2.4498 -8.94471,5.96147 -12.91993,12.26367 -3.29169,5.21849 -5.31299,9.00988 -6.59961,11.73243 a 4.6265774,4.7646842 0 0 1 1.11719,3.0957 4.6265774,4.7646842 0 0 1 -0.0684,0.78516 c 7.53184,0.51867 16.73797,-0.0375 25.34375,-4.07618 a 2.6240289,3.1074028 0 0 1 -0.14062,-0.99023 2.6240289,3.1074028 0 0 1 2.24414,-3.07227 c -0.0378,-1.59794 -0.007,-3.23756 0.13086,-4.89453 0.46173,-5.53161 2.0335,-11.16582 5.51367,-15.21679 -1.17073,-0.88285 -2.51464,-1.85411 -4.02539,-2.91016 z m 7.76758,0.88867 c -0.8214,0.562 -1.57265,1.19504 -2.25586,1.89063 2.77017,2.13672 4.62864,3.81239 5.90234,5.19336 0.92497,1.00287 1.55299,1.85687 2.03516,2.63086 a 2.2787621,3.2455096 0 0 1 0.98632,-0.32227 2.2787621,3.2455096 0 0 1 0.94336,0.29297 c 0.18625,-1.12857 0.27861,-2.51903 0.29493,-3.77735 0.0105,-0.80924 -0.006,-1.50066 -0.0234,-2.08984 a 44.628906,44.628906 0 0 0 -7.88281,-3.81836 z m -2.94532,2.62891 c -3.32264,3.84302 -4.86132,9.26486 -5.31445,14.69336 -0.13704,1.64183 -0.16094,3.27622 -0.11719,4.86914 a 2.6240289,3.1074028 0 0 1 1.62891,1.43945 c 6.0555,-3.56241 9.61149,-6.60582 11.65625,-8.9375 a 2.2787621,3.2455096 0 0 1 -0.51758,-2.05664 2.2787621,3.2455096 0 0 1 0.57813,-2.15625 c -0.46924,-0.78801 -1.07919,-1.64906 -2.0586,-2.71094 -1.23229,-1.33605 -3.07409,-2.99847 -5.85547,-5.14062 z m -34.08984,0.22461 a 44.628906,44.628906 0 0 0 -17.52539,17.57031 c 1.49212,2.71247 4.30663,6.72749 8.58789,8.42383 a 4.6265774,4.7646842 0 0 1 4.58008,-4.125 4.6265774,4.7646842 0 0 1 0.0859,0.004 c 0.0246,-8.36796 2.55529,-16.96883 4.27148,-21.87304 z m 45.92383,1.58007 c 0.009,0.4816 0.0231,0.91062 0.0156,1.48633 -0.0204,1.56991 -0.11048,3.33766 -0.44726,4.70703 a 2.2787621,3.2455096 0 0 1 0.49023,2.00977 2.2787621,3.2455096 0 0 1 -0.53125,2.08398 c 0.41761,0.72162 0.91727,1.60638 1.45508,2.60547 a 2.3478155,2.7621357 0 0 1 0.87109,-0.20117 2.3478155,2.7621357 0 0 1 1.60743,0.75391 c 2.61227,-0.97236 5.49888,-1.59217 8.68945,-1.69336 l 0,-0.002 c 0.007,-2.2e-4 0.0144,2.2e-4 0.0215,0 a 44.628906,44.628906 0 0 0 -12.17187,-11.75 z m -3.32031,11.04493 c -2.17413,2.44913 -5.85996,5.54193 -12.00196,9.13086 a 2.6240289,3.1074028 0 0 1 0.0508,0.5957 2.6240289,3.1074028 0 0 1 -1.48242,2.79492 c 0.27888,1.82943 0.64577,3.44268 1.05078,4.7793 a 3.8669901,4.0741501 0 0 1 0.57032,-0.0469 3.8669901,4.0741501 0 0 1 1.3789,0.27149 c 1.9005,-2.93637 4.4178,-6.32118 7.73633,-9.29688 1.64135,-1.47181 3.48446,-2.83546 5.53125,-3.99023 a 2.3478155,2.7621357 0 0 1 0.66992,-1.76563 c -0.49959,-0.93229 -0.95404,-1.7258 -1.35937,-2.42968 a 2.2787621,3.2455096 0 0 1 -1.04493,0.36132 2.2787621,3.2455096 0 0 1 -1.0996,-0.40429 z m 16.20507,1.70117 c -3.28595,0.0203 -6.24642,0.5872 -8.90039,1.55469 a 2.3478155,2.7621357 0 0 1 0.2168,1.15429 2.3478155,2.7621357 0 0 1 -0.89258,2.16602 c 0.48401,1.07805 0.96855,2.20783 1.43555,3.42773 2.2402,5.85202 4.10071,13.28802 3.7207,21.59571 a 2.9002426,2.969296 0 0 1 2.02735,2.24609 c 0.38624,-0.11091 0.77196,-0.22186 1.14062,-0.3418 3.8783,-1.2617 6.68706,-3.03588 7.66406,-5.30078 0.36773,-0.85245 0.69528,-1.56407 1.0293,-2.29883 a 44.628906,44.628906 0 0 0 -7.44141,-24.20312 z m -13.24804,3.60742 c -1.82908,1.07375 -3.48796,2.32048 -4.98633,3.66406 -3.21318,2.88126 -5.66137,6.16773 -7.5293,9.04883 a 3.8669901,4.0741501 0 0 1 1.61328,3.30664 3.8669901,4.0741501 0 0 1 -2.36914,3.75 c 0.86886,1.60098 2.19071,3.9906 4.11914,7.17774 0.77996,1.28904 1.61248,2.61419 2.46094,3.91015 1.63394,-0.0537 3.27985,-0.128 4.92188,-0.25586 2.37675,-0.18504 4.72369,-0.4617 6.95703,-0.82812 a 2.9002426,2.969296 0 0 1 -0.0703,-0.63477 2.9002426,2.969296 0 0 1 2.71289,-2.96093 c 0.35783,-8.10372 -1.45747,-15.37543 -3.65624,-21.11915 -0.44739,-1.16867 -0.91051,-2.25078 -1.37305,-3.28515 a 2.3478155,2.7621357 0 0 1 -0.58399,0.0898 2.3478155,2.7621357 0 0 1 -2.21679,-1.86328 z m -63.62696,0.75977 a 44.628906,44.628906 0 0 0 -2.55664,6.0664 c 3.52445,6.07278 8.02229,9.72631 11.93946,12.00391 a 2.2097087,2.6240289 0 0 1 2.04687,-1.63672 2.2097087,2.6240289 0 0 1 0.39844,0.0449 c 0.39635,-1.70442 0.76536,-2.96621 1.05078,-3.85547 a 4.6265774,4.7646842 0 0 1 -3.77344,-4.25586 c -4.47456,-1.6026 -7.43366,-5.48107 -9.10547,-8.36718 z m 44.02149,5.5625 c -8.89105,4.17106 -18.3475,4.69972 -26.02149,4.14648 a 4.6265774,4.7646842 0 0 1 -2.45703,2.59961 c 0.38373,1.76081 1.07285,4.49479 2.31641,8.03906 a 2.4859221,2.4859221 0 0 1 0.47656,-0.0469 2.4859221,2.4859221 0 0 1 2.48633,2.48437 2.4859221,2.4859221 0 0 1 -0.0195,0.29297 c 4.90242,1.96236 10.84332,4.24079 15.56445,5.55664 a 5.1790047,4.6611042 0 0 1 4.89453,-3.15625 5.1790047,4.6611042 0 0 1 1.64649,0.2461 c 1.20658,-3.20814 2.36992,-5.76288 3.30664,-7.49805 a 3.8669901,4.0741501 0 0 1 -1.22461,-2.9668 3.8669901,4.0741501 0 0 1 2.34179,-3.73828 c -0.41831,-1.35567 -0.78589,-2.96449 -1.06835,-4.76367 a 2.6240289,3.1074028 0 0 1 -0.16797,0.008 2.6240289,3.1074028 0 0 1 -2.07422,-1.20312 z m -47.00586,1.73632 a 44.628906,44.628906 0 0 0 -1.94141,12.98243 44.628906,44.628906 0 0 0 24.72852,39.88867 c -10.08967,-13.85314 -10.3042,-28.88836 -8.91797,-38.57422 a 2.2097087,2.6240289 0 0 1 -1.66211,-2.47266 c -3.95036,-2.24331 -8.54635,-5.85129 -12.20703,-11.82422 z m 17.57226,5.31446 a 4.6265774,4.7646842 0 0 1 -0.68164,0.084 c -0.29802,0.90146 -0.70467,2.27217 -1.1582,4.25781 a 2.2097087,2.6240289 0 0 1 0.89258,2.10157 2.2097087,2.6240289 0 0 1 -0.1836,1.04101 c 0.31408,0.13373 0.65265,0.28802 0.94336,0.4043 0.50364,0.20147 1.31926,0.53444 1.95118,0.79102 a 2.4859221,2.4859221 0 0 1 0.58398,-0.5586 c -1.25103,-3.55364 -1.94307,-6.28646 -2.34766,-8.12109 z m 32.43164,6.22851 c -0.8924,1.67906 -2.01583,4.16534 -3.17968,7.25977 a 5.1790047,4.6611042 0 0 1 2.5957,3.9043 c 2.80406,0.14661 5.98854,0.20221 9.32227,0.125 -0.73378,-1.14104 -1.45582,-2.2972 -2.13868,-3.42579 -2.01678,-3.3332 -3.39179,-5.8256 -4.25195,-7.4121 a 3.8669901,4.0741501 0 0 1 -0.50976,0.041 3.8669901,4.0741501 0 0 1 -1.8379,-0.49219 z m -34.07421,2.12305 a 2.2097087,2.6240289 0 0 1 -1.0586,0.65625 c -1.43362,9.87269 -1.18924,25.45281 9.90039,39.50586 a 44.628906,44.628906 0 0 0 14.58985,3.61719 c -0.13027,-3.95547 -7e-5,-7.81081 0.32422,-11.51172 a 4.1992187,4.0771484 0 0 1 -4.0293,-4.06836 4.1992187,4.0771484 0 0 1 0.44922,-1.82422 C 310.88026,340.25442 306.36495,332.16434 303.5,325.37305 a 2.4859221,2.4859221 0 0 1 -0.35547,0.0273 2.4859221,2.4859221 0 0 1 -2.48633,-2.48633 2.4859221,2.4859221 0 0 1 0.0742,-0.58789 c -0.61009,-0.24798 -1.40695,-0.57254 -1.89453,-0.76758 -0.33323,-0.13329 -0.71991,-0.30826 -1.08398,-0.46484 z m 71.27539,1.5293 c -0.006,0.0136 -0.01,0.0235 -0.0156,0.0371 -1.17143,2.7156 -4.27014,4.55367 -8.27148,5.85546 -0.46102,0.14999 -0.93682,0.29191 -1.42188,0.42774 a 2.9002426,2.969296 0 0 1 -2.54687,2.51172 c -0.0315,0.32514 -0.0648,0.70976 -0.0957,1.01953 a 2.0716019,1.7953882 0 0 1 1.70899,1.76562 2.0716019,1.7953882 0 0 1 -2.07031,1.79493 2.0716019,1.7953882 0 0 1 -0.0215,-0.002 c -0.22601,1.9705 -0.43887,3.65012 -0.625,4.85742 a 2.8311892,2.7621357 0 0 1 1.88867,2.60157 2.8311892,2.7621357 0 0 1 -2.83203,2.76367 2.8311892,2.7621357 0 0 1 -0.5664,-0.0566 c -0.5127,2.44748 -1.83643,6.28009 -5.25391,9.9043 a 2.5549755,2.0716019 0 0 1 0.36523,1.0625 2.5549755,2.0716019 0 0 1 -0.041,0.36718 44.628906,44.628906 0 0 0 19.79883,-34.91015 z m -63.73438,1.53515 a 2.4859221,2.4859221 0 0 1 -0.85937,0.87891 c 2.80272,6.62983 7.20881,14.5275 14.06836,21.5918 a 4.1992187,4.0771484 0 0 1 3.17578,-1.41407 4.1992187,4.0771484 0 0 1 0.85937,0.0879 c 0.49915,-2.97781 1.09225,-5.82013 1.75586,-8.46093 0.17745,-0.70613 0.36592,-1.37034 0.55078,-2.04883 a 5.1790047,4.6611042 0 0 1 -3.95508,-4.52344 5.1790047,4.6611042 0 0 1 0.0391,-0.53711 c -4.79514,-1.3323 -10.73684,-3.61164 -15.63477,-5.57422 z m 48.71094,5.94141 c -2.33273,0.3906 -4.78679,0.67626 -7.26367,0.86914 -1.45011,0.11291 -2.90095,0.18758 -4.3418,0.24414 1.4037,2.09157 2.82177,4.02785 4.11523,5.50586 a 3.0383494,3.0383494 0 0 1 1.51368,-0.4082 3.0383494,3.0383494 0 0 1 2.21484,0.96289 l 4.08984,-2.51953 a 2.0716019,1.7953882 0 0 1 -0.0898,-0.51368 2.0716019,1.7953882 0 0 1 1.42383,-1.70312 c 0.0347,-0.34502 0.072,-0.78003 0.10742,-1.14453 a 2.9002426,2.969296 0 0 1 -1.76953,-1.29297 z m -22.85156,1.04687 a 5.1790047,4.6611042 0 0 1 -5.08399,3.78321 5.1790047,4.6611042 0 0 1 -0.22265,-0.01 c -0.19604,0.71496 -0.39464,1.41835 -0.58204,2.16406 -0.66904,2.66238 -1.2645,5.53411 -1.76367,8.54102 a 4.1992187,4.0771484 0 0 1 2.37696,3.66797 4.1992187,4.0771484 0 0 1 -0.68555,2.22461 c 2.24413,1.19722 3.93566,2.11291 4.98633,2.70508 a 3.8085935,2.4658203 0 0 1 2.58398,-0.65821 3.8085935,2.4658203 0 0 1 3.8086,2.4668 3.8085935,2.4658203 0 0 1 -0.13477,0.63672 c 2.06726,0.39795 4.78565,0.74843 7.73047,0.62305 a 2.5549755,2.0716019 0 0 1 -0.006,-0.125 2.5549755,2.0716019 0 0 1 2.55469,-2.07227 2.5549755,2.0716019 0 0 1 1.43554,0.35742 c 3.40393,-3.58193 4.62883,-7.32988 5.07422,-9.62109 a 2.8311892,2.7621357 0 0 1 -1.33008,-2.33789 2.8311892,2.7621357 0 0 1 0.084,-0.65625 L 350.25,341.41797 a 3.0383494,3.0383494 0 0 1 -2.2207,0.9707 3.0383494,3.0383494 0 0 1 -3.03907,-3.03906 3.0383494,3.0383494 0 0 1 0.74415,-1.98828 c -1.46306,-1.66159 -3.0141,-3.82041 -4.52344,-6.11328 -3.59858,0.10605 -7.04104,0.0573 -10.05664,-0.10157 z m 23.76562,4.41797 -4.12304,2.54102 a 3.0383494,3.0383494 0 0 1 0.27148,1.24414 3.0383494,3.0383494 0 0 1 -0.26367,1.23047 l 1.61133,1.32031 a 2.8311892,2.7621357 0 0 1 2.26562,-1.16797 c 0.18649,-1.21133 0.40314,-2.91228 0.63281,-4.92187 a 2.0716019,1.7953882 0 0 1 -0.39453,-0.2461 z m -30.39648,16.72266 a 4.1992187,4.0771484 0 0 1 -2.00391,0.99609 c -0.33389,3.74028 -0.46622,7.64079 -0.33008,11.64063 a 44.628906,44.628906 0 0 0 2.32227,0.11523 44.628906,44.628906 0 0 0 21.91797,-5.8164 2.5549755,2.0716019 0 0 1 -1.875,-0.95508 c -3.39616,0.18498 -6.53257,-0.24961 -8.80078,-0.71485 a 3.8085935,2.4658203 0 0 1 -2.99024,0.94336 3.8085935,2.4658203 0 0 1 -3.80859,-2.46484 3.8085935,2.4658203 0 0 1 0.41797,-1.11914 c -1.0557,-0.59136 -2.71346,-1.48615 -4.84961,-2.625 z"
         style="opacity:1;fill:url(#linearGradient4537);fill-opacity:1;stroke:none;stroke-width:9;stroke-miterlimit:4;stroke-dasharray:none;stroke-opacity:1"
         inkscape:connector-curvature="0" />
    </g>
  </g>
</svg>
