<?xml version="1.0" encoding="UTF-8" standalone="no"?>
<!-- Created with Inkscape (http://www.inkscape.org/) -->

<svg
   xmlns:dc="http://purl.org/dc/elements/1.1/"
   xmlns:cc="http://creativecommons.org/ns#"
   xmlns:rdf="http://www.w3.org/1999/02/22-rdf-syntax-ns#"
   xmlns:svg="http://www.w3.org/2000/svg"
   xmlns="http://www.w3.org/2000/svg"
   xmlns:xlink="http://www.w3.org/1999/xlink"
   xmlns:sodipodi="http://sodipodi.sourceforge.net/DTD/sodipodi-0.dtd"
   xmlns:inkscape="http://www.inkscape.org/namespaces/inkscape"
   width="200"
   height="200"
   id="svg2"
   version="1.1"
   inkscape:version="0.48.3.1 r9886"
   sodipodi:docname="diagonal template.svg">
  <defs
     id="defs4">
    <linearGradient
       id="linearGradient4698">
      <stop
         style="stop-color:#8ba6ff;stop-opacity:1;"
         offset="0"
         id="stop4700" />
      <stop
         style="stop-color:#1f54ff;stop-opacity:1;"
         offset="1"
         id="stop4702" />
    </linearGradient>
    <linearGradient
       id="linearGradient4690">
      <stop
         style="stop-color:#abe788;stop-opacity:1;"
         offset="0"
         id="stop4692" />
      <stop
         style="stop-color:#7fec4d;stop-opacity:1;"
         offset="1"
         id="stop4694" />
    </linearGradient>
    <linearGradient
       id="linearGradient4481">
      <stop
         style="stop-color:#ffccaa;stop-opacity:1;"
         offset="0"
         id="stop4483" />
      <stop
         style="stop-color:#ffb17d;stop-opacity:1;"
         offset="1"
         id="stop4485" />
    </linearGradient>
    <linearGradient
       id="linearGradient3912">
      <stop
         style="stop-color:#f4f3f3;stop-opacity:1;"
         offset="0"
         id="stop3914" />
      <stop
         style="stop-color:#f4f3f3;stop-opacity:1;"
         offset="1"
         id="stop3916" />
    </linearGradient>
    <linearGradient
       id="linearGradient3843">
      <stop
         style="stop-color:#16d4ff;stop-opacity:1;"
         offset="0"
         id="stop3845" />
      <stop
         style="stop-color:#1f73f3;stop-opacity:1;"
         offset="1"
         id="stop3847" />
    </linearGradient>
    <linearGradient
       inkscape:collect="always"
       xlink:href="#linearGradient3843"
       id="linearGradient3849"
       x1="71.875"
       y1="9.765625"
       x2="71.875"
       y2="189.08974"
       gradientUnits="userSpaceOnUse" />
    <linearGradient
       inkscape:collect="always"
       xlink:href="#linearGradient3912"
       id="linearGradient3918"
       x1="172.24121"
       y1="4.0527329"
       x2="172.24121"
       y2="193.3853"
       gradientUnits="userSpaceOnUse" />
    <linearGradient
       inkscape:collect="always"
       xlink:href="#linearGradient3912-0"
       id="linearGradient3918-1"
       x1="172.24121"
       y1="4.0527329"
       x2="172.24121"
       y2="193.3853"
       gradientUnits="userSpaceOnUse" />
    <linearGradient
       id="linearGradient3912-0">
      <stop
         style="stop-color:#f4f3f3;stop-opacity:1;"
         offset="0"
         id="stop3914-1" />
      <stop
         style="stop-color:#f4f3f3;stop-opacity:1;"
         offset="1"
         id="stop3916-9" />
    </linearGradient>
    <linearGradient
       inkscape:collect="always"
       xlink:href="#linearGradient4481"
       id="linearGradient4525"
       gradientUnits="userSpaceOnUse"
       gradientTransform="matrix(1.6234918,0,0,1,0,852.36218)"
       x1="67.119904"
       y1="0"
       x2="67.119904"
       y2="37.487518" />
    <linearGradient
       inkscape:collect="always"
       xlink:href="#linearGradient4481"
       id="linearGradient4527"
       gradientUnits="userSpaceOnUse"
       x1="103.85631"
       y1="888.29132"
       x2="103.85631"
       y2="994.63507" />
    <linearGradient
       inkscape:collect="always"
       xlink:href="#linearGradient4690"
       id="linearGradient4696"
       x1="345.44107"
       y1="458.6528"
       x2="394.52081"
       y2="921.75171"
       gradientUnits="userSpaceOnUse" />
    <linearGradient
       inkscape:collect="always"
       xlink:href="#linearGradient4698"
       id="linearGradient4704"
       x1="95.75853"
       y1="408.32941"
       x2="249.58229"
       y2="835.91742"
       gradientUnits="userSpaceOnUse" />
    <linearGradient
       inkscape:collect="always"
       xlink:href="#linearGradient4690"
       id="linearGradient4706"
       gradientUnits="userSpaceOnUse"
       x1="345.44107"
       y1="458.6528"
       x2="394.52081"
       y2="921.75171" />
    <linearGradient
       inkscape:collect="always"
       xlink:href="#linearGradient4690"
       id="linearGradient4708"
       gradientUnits="userSpaceOnUse"
       x1="345.44107"
       y1="458.6528"
       x2="394.52081"
       y2="921.75171" />
    <linearGradient
       inkscape:collect="always"
       xlink:href="#linearGradient4690"
       id="linearGradient4710"
       gradientUnits="userSpaceOnUse"
       x1="345.44107"
       y1="458.6528"
       x2="394.52081"
       y2="921.75171" />
    <linearGradient
       inkscape:collect="always"
       xlink:href="#linearGradient4690"
       id="linearGradient4712"
       gradientUnits="userSpaceOnUse"
       x1="345.44107"
       y1="458.6528"
       x2="394.52081"
       y2="921.75171" />
    <linearGradient
       inkscape:collect="always"
       xlink:href="#linearGradient4690"
       id="linearGradient4714"
       gradientUnits="userSpaceOnUse"
       x1="345.44107"
       y1="458.6528"
       x2="394.52081"
       y2="921.75171" />
    <linearGradient
       inkscape:collect="always"
       xlink:href="#linearGradient4690"
       id="linearGradient4716"
       gradientUnits="userSpaceOnUse"
       x1="345.44107"
       y1="458.6528"
       x2="394.52081"
       y2="921.75171" />
    <linearGradient
       inkscape:collect="always"
       xlink:href="#linearGradient4690"
       id="linearGradient4718"
       gradientUnits="userSpaceOnUse"
       x1="345.44107"
       y1="458.6528"
       x2="394.52081"
       y2="921.75171" />
    <linearGradient
       inkscape:collect="always"
       xlink:href="#linearGradient4690"
       id="linearGradient4720"
       gradientUnits="userSpaceOnUse"
       x1="345.44107"
       y1="458.6528"
       x2="394.52081"
       y2="921.75171" />
    <linearGradient
       inkscape:collect="always"
       xlink:href="#linearGradient4690"
       id="linearGradient4722"
       gradientUnits="userSpaceOnUse"
       x1="345.44107"
       y1="458.6528"
       x2="394.52081"
       y2="921.75171" />
    <linearGradient
       inkscape:collect="always"
       xlink:href="#linearGradient4690"
       id="linearGradient4724"
       gradientUnits="userSpaceOnUse"
       x1="345.44107"
       y1="458.6528"
       x2="394.52081"
       y2="921.75171" />
    <linearGradient
       inkscape:collect="always"
       xlink:href="#linearGradient4690"
       id="linearGradient4726"
       gradientUnits="userSpaceOnUse"
       x1="345.44107"
       y1="458.6528"
       x2="394.52081"
       y2="921.75171" />
  </defs>
  <sodipodi:namedview
     id="base"
     pagecolor="#ffffff"
     bordercolor="#666666"
     borderopacity="1.0"
     inkscape:pageopacity="0.0"
     inkscape:pageshadow="2"
     inkscape:zoom="0.35355339"
     inkscape:cx="-354.04994"
     inkscape:cy="127.37704"
     inkscape:document-units="px"
     inkscape:current-layer="layer1"
     showgrid="false"
     inkscape:window-width="1513"
     inkscape:window-height="878"
     inkscape:window-x="2089"
     inkscape:window-y="60"
     inkscape:window-maximized="0">
    <sodipodi:guide
       position="0,0"
       orientation="0,200"
       id="guide3764" />
    <sodipodi:guide
       position="200,0"
       orientation="-200,0"
       id="guide3766" />
    <sodipodi:guide
       position="200,200"
       orientation="0,-200"
       id="guide3768" />
    <sodipodi:guide
       position="0,200"
       orientation="200,0"
       id="guide3770" />
  </sodipodi:namedview>
  <metadata
     id="metadata7">
    <rdf:RDF>
      <cc:Work
         rdf:about="">
        <dc:format>image/svg+xml</dc:format>
        <dc:type
           rdf:resource="http://purl.org/dc/dcmitype/StillImage" />
        <dc:title></dc:title>
      </cc:Work>
    </rdf:RDF>
  </metadata>
  <g
     inkscape:label="Layer 1"
     inkscape:groupmode="layer"
     id="layer1"
     transform="translate(0,-852.36218)">
    <rect
       style="color:#000000;fill:#000000;fill-opacity:0.31073447;fill-rule:nonzero;stroke:none;stroke-width:9.13434315;marker:none;visibility:visible;display:inline;overflow:visible;enable-background:accumulate"
       id="rect3974"
       width="138.81651"
       height="158.53926"
       x="-217.45833"
       y="865.65741"
       transform="matrix(0.96592583,-0.25881905,0.25881905,0.96592583,0,0)" />
    <g
       id="g4519"
       transform="matrix(0.58921475,-0.15787962,0.26789738,0.99980664,-214.36113,39.740734)">
      <rect
         y="852.36218"
         x="0"
         height="36.009762"
         width="227.3922"
         id="rect3971"
         style="color:#000000;fill:url(#linearGradient4525);fill-opacity:1;fill-rule:nonzero;stroke:none;stroke-width:8.74185181;marker:none;visibility:visible;display:inline;overflow:visible;enable-background:accumulate" />
      <rect
         y="870.7901"
         x="101.5049"
         height="17.487755"
         width="33.117306"
         id="rect4499"
         style="color:#000000;fill:#ffffff;fill-opacity:0.53107348;fill-rule:nonzero;stroke:none;stroke-width:8.74185181;marker:none;visibility:visible;display:inline;overflow:visible;enable-background:accumulate" />
      <rect
         y="888.29132"
         x="0"
         height="117.69579"
         width="227.39542"
         id="rect4489"
         style="color:#000000;fill:url(#linearGradient4527);fill-opacity:1;fill-rule:nonzero;stroke:none;stroke-width:8.74185181;marker:none;visibility:visible;display:inline;overflow:visible;enable-background:accumulate" />
      <rect
         y="888.27539"
         x="101.51218"
         height="47.237755"
         width="33.117306"
         id="rect4499-6"
         style="color:#000000;fill:#ffffff;fill-opacity:0.72881356;fill-rule:nonzero;stroke:none;stroke-width:8.74185181;marker:none;visibility:visible;display:inline;overflow:visible;enable-background:accumulate" />
    </g>
    <g
       transform="matrix(0.88102262,0,0,0.88102262,-637.5156,837.94248)"
       id="g10388">
      <path
         transform="matrix(0.20032141,0,0,0.20032141,866.5495,51.789108)"
         d="m 389.91888,621.02704 a 212.13203,212.13203 0 1 1 -424.264064,0 212.13203,212.13203 0 1 1 424.264064,0 z"
         sodipodi:ry="212.13203"
         sodipodi:rx="212.13203"
         sodipodi:cy="621.02704"
         sodipodi:cx="177.78685"
         id="path7579"
         style="fill:url(#linearGradient4704);fill-opacity:1;fill-rule:nonzero;stroke:none"
         sodipodi:type="arc" />
      <g
         id="g4673"
         style="fill:url(#linearGradient4696);fill-opacity:1"
         transform="matrix(0.18243121,0,0,0.18243121,834.7788,50.352747)">
        <path
           style="fill:url(#linearGradient4706);fill-opacity:1;stroke:none"
           d="m -358.5,426.09375 -17.8125,2 -2.4375,4.4375 -2.65625,3.125 -14.375,-0.40625 -7,0.1875 -5.125,2.4375 -4.875,3.78125 -3.78125,3.125 -4.21875,3.34375 -4.03125,1.1875 -5.03125,-1.96875 -8.75,5.65625 -8,8 -6.90625,6.6875 1.34375,3.125 1.78125,2.875 0.875,6.6875 0.21875,10.84375 -0.875,5.15625 -3.0625,7 -2.125,5.75 -1.5,7.375 -0.78125,8.15625 0.84375,7.5625 2.34375,5.59375 1.8125,7.3125 2.90625,6.65625 3.125,6.6875 6.4375,7.78125 4.21875,3.5625 4.25,2 4.4375,3.5625 4,3.5625 1.78125,4.21875 2.4375,3.5625 3.5625,3.125 4.90625,3.5625 -0.21875,5.09375 -1.34375,6.90625 -2,6.46875 -1.5625,10 1.78125,5.125 2.90625,6.21875 3.78125,6 3.34375,6.6875 4.21875,7.34375 1.09375,8 0,8.90625 -0.21875,9.125 0.6875,10.6875 1.5625,4.4375 1.09375,9.78125 1.5625,10.90625 1.46875,5.1875 0.96875,6.15625 2.25,6.25 3.40625,2.3125 2.15625,3.25 2.4375,1.1875 2.90625,-2.5625 0.4375,-2.875 -1.78125,-2.21875 -2.90625,-5.78125 1.125,-4.65625 -0.25,-3.5 c 0,0 1.80876,-3.42254 2.03125,-4.3125 0.22249,-0.88996 0.875,-4.21875 0.875,-4.21875 l 0.21875,-4 1.125,-3.78125 2.4375,-5.34375 2.21875,-3.34375 2.46875,-4.65625 1.78125,-3.78125 0.875,-13.125 1.125,-4.96875 5.09375,-1.9375 3.375,-3.125 0.875,-5.34375 0.65625,-7.34375 -0.65625,-7.03125 1.3125,-6.75 1.125,-4 4,-4.46875 -2.46875,-3.59375 -2.1875,-2.84375 -5.5625,-3.5625 -7.59375,-4.78125 -2.65625,-3 -2.4375,-5.34375 -3.5625,-2.65625 -5.3125,-5.15625 -4.9375,-5.96875 -5.5625,-3.5625 -5.09375,-1.5625 -5.34375,0.875 -4.90625,2.46875 -3.09375,-2.6875 -2.03125,-2.875 -1.3125,-4.03125 -0.6875,-2.65625 -1.78125,-3.125 -2.65625,-2.4375 -0.65625,-1.78125 3.3125,-2.21875 1.5625,-2.4375 -1.09375,-2.6875 -2.75,0.34375 -2.375,1 -2.6875,1.34375 -1.75,3.78125 -1.78125,-2.03125 -1.125,-2.875 -1.125,-3.5625 0.6875,-4.21875 0.4375,-2 2,-2.6875 0.65625,-3.09375 1.65625,-4.0625 2.59375,-1.28125 3.09375,-1.78125 4.03125,0.21875 2.65625,2.21875 0,2.90625 -0.65625,3.09375 -1.34375,2.90625 0.875,1.78125 1.78125,1.3125 2.21875,-0.65625 2.25,-2.875 0.4375,-3.34375 0.46875,-10.90625 2.46875,-3.40625 3.25,-2.34375 2.4375,-3.6875 1.65625,-4.375 1.0625,-5.53125 1.875,-3 2.5625,-1.46875 3.78125,-2.21875 4.5,-3.21875 4.625,-1.65625 6.03125,-0.25 3.5625,-1.34375 2.4375,-2 0,-4 -1.4375,-5.125 0.75,-4.875 -0.875,-6.25 -0.875,-4.65625 -3.8125,-4.21875 -4.65625,-2.6875 0.21875,-3.09375 4.6875,-1.5625 2.53125,-1.75 2.78125,-2.5 2.90625,-2.4375 1.5625,-2.875 -0.90625,-3.125 -4.21875,-3.5625 -0.21875,-2.4375 -1.78125,-1.125 -3.5625,-1.78125 1.34375,-4.21875 2.875,-3.125 2.46875,-1.78125 4,1.5625 4.90625,4.90625 2.4375,4.21875 -0.90625,4.65625 -1.09375,6.25 0.4375,6.4375 1.5625,5.78125 2,3.125 4.21875,-1.34375 3.34375,-2.4375 2.65625,-3.125 2,-3.5625 3.125,-2.875 2,-1.78125 3.125,-1.5625 2.875,-2.4375 3.125,-4 2.90625,-4.46875 3.09375,-3.78125 4.25,-3.34375 2.875,-4 1.5625,-2.65625 -1.125,-1.78125 -7.3125,-1.34375 -5.5625,1.75 -7.59375,-0.1875 -9.09375,1.34375 -9.125,1.09375 -2.90625,-3.09375 -3.78125,-1.78125 z M -378.3125,453 l 1.34375,0.21875 -0.65625,4.90625 -2,3.5625 -3.78125,1.34375 -2.46875,4.4375 -1.78125,5.78125 -2.21875,4.4375 -2.21875,4.03125 -4.4375,-1.125 -4.6875,-3.5625 0,-4 2,-2.4375 6,-4.6875 4.46875,-3.5625 3.5625,-1.34375 0.65625,-1.78125 2.21875,-3.53125 2.21875,-2.03125 L -378.3125,453 z"
           transform="matrix(1.1350446,0,0,1.1350446,723.60866,16.367003)"
           id="path7041"
           inkscape:connector-curvature="0" />
        <path
           style="fill:url(#linearGradient4708);fill-opacity:1;stroke:none"
           d="m 354.42769,555.46115 2.14286,3.21428 0,2.67857 2.14285,2.14286 0.53572,2.5 c 0,0 1.25,1.25 1.25,1.96429 0,0.71428 0,2.14285 0,2.14285 l -1.60714,1.25 -1.78572,0.89286 -2.32143,0.71429 -3.92857,-0.53572 -3.39286,-0.53571 c 0,0 -1.96428,0 -1.96428,-0.89286 0,-0.89286 -0.53572,-2.5 -0.53572,-2.5 l 1.60715,-1.07143 2.32143,-2.32143 3.03571,-1.07143 0.71429,-3.21428 -0.53572,-1.96429 1.07143,-2.14285 1.25,-1.25 z"
           id="path7555"
           inkscape:connector-curvature="0" />
        <path
           style="fill:url(#linearGradient4710);fill-opacity:1;stroke:none"
           d="m -240.78125,430.4375 -2.96875,0.625 0.3125,3 4.09375,2.34375 0.15625,2.375 -2.53125,1.875 -3.78125,1.875 -4.09375,1.75 -2.03125,2.03125 -3.78125,2.375 -2.1875,1.5625 -4.40625,-0.15625 -2.6875,-1.25 L -264.84375,446 c 0,0 -0.16055,-2.5 0.46875,-2.5 0.62931,0 1.90625,-3.15625 1.90625,-3.15625 l 0,-3.3125 -3,0 -4.875,2.84375 -2.6875,3 -0.78125,3.4375 2.375,3.9375 0.9375,3 0.15625,2.96875 -4.71875,2.0625 -3.46875,-2.0625 -3.15625,-2.5 -3.28125,-2.6875 -4.25,-0.9375 -6.03125,1.28125 -4.375,2.5 -3.59375,2.5 -3.9375,3.15625 -3,3.9375 -4.25,7.5625 1.59375,1.5625 2.8125,1.25 0.625,3.3125 2.53125,3.15625 2.96875,-1.28125 2.21875,-3.59375 0.46875,-2.84375 3.46875,-2.1875 0.46875,7.0625 -3,3.46875 -3.625,2.96875 -4.5625,0.1875 L -313,483.75 l -1.21875,3.3125 -3,0.9375 -1.28125,1.75 -1.875,2.1875 -1.09375,0.9375 -2.53125,2.21875 -1.71875,1.875 c 0,0 -1.75322,0.49462 -1.28125,1.28125 0.47198,0.78662 3,1.25 3,1.25 l 1.5625,2.03125 0.3125,1.75 c 0,0 -1.09375,2.18319 -1.09375,2.8125 0,0.6293 -2.34375,1.4375 -2.34375,1.4375 l -4.09375,-0.15625 -2.375,-0.65625 -2.5,0.34375 -0.625,3.4375 0.46875,2.53125 c 0,0 1.09375,1.8707 1.09375,2.5 0,0.62931 -0.15625,3.78125 -0.15625,3.78125 l 1.25,2.375 2.53125,1.40625 1.71875,1.875 -1.25,3.3125 -3.625,2.0625 -2.6875,5.34375 -2.03125,4.40625 -1.71875,3.9375 -2.0625,3.75 -1.40625,3.625 -0.3125,9.28125 1.25,19.6875 1.09375,8.15625 1.75,3 2.34375,3 3.78125,3.28125 3.46875,1.75 3.78125,0 3.28125,-1.25 2.84375,-1.4375 3.15625,-0.15625 1.40625,3.625 1.875,6.28125 1.59375,4.71875 0.625,3.46875 c 0,0 0.1541,2.83944 0.46875,3.46875 0.31466,0.6293 2.1875,4.25 2.1875,4.25 l 0.96875,3.625 0.15625,8.8125 0.3125,6.59375 -0.9375,3.15625 -0.15625,6.59375 0.46875,6.125 1.09375,6.78125 1.25,2.6875 0.9375,3.59375 1.28125,2.21875 0,3.78125 0.9375,2.34375 0,3.78125 -0.46875,2.1875 -0.46875,3.9375 1.5625,3 c 0,0 2.21445,0.62393 2.84375,0.78125 0.62931,0.15732 4.0625,0.9375 4.0625,0.9375 l 4.90625,-0.9375 3.59375,-0.3125 2.53125,-3 0.78125,-3.28125 0.3125,-3.625 2.21875,-1.5625 0.84375,-2.0625 1.09375,-1.25 0.65625,-4.875 1,-4.25 -0.71875,-5.65625 2,-3.3125 2.1875,-3.78125 3.78125,-5.1875 1.09375,-3.15625 0.46875,-4.71875 0.46875,-27.0625 1.28125,-3.78125 1.71875,-2.34375 1.90625,-1.875 3.4375,-2.6875 c 0,0 0.4666,-1.58837 0.78125,-2.375 0.31465,-0.78662 1.4375,-5.96875 1.4375,-5.96875 l 1.40625,-5.65625 1.40625,-5.65625 0,-2.84375 -2.34375,0.9375 -2.84375,1.75 -3.625,-0.96875 -2.65625,-1.09375 c 0,0 -0.004,-3.46875 0.625,-3.46875 0.6293,0 5.65625,-1.875 5.65625,-1.875 l 2.375,-3 1.40625,-2.03125 3.625,-3 2.65625,-1.5625 1.59375,-3.46875 0.625,-1.5625 0,-4.09375 0.625,-3.9375 0,-5.5 2.53125,0.46875 2.8125,0.15625 3.15625,3.3125 c 0,0 1.56035,0.93213 1.875,1.71875 0.31465,0.78663 1.59375,4.40625 1.59375,4.40625 l 1.40625,1.40625 1.875,2.375 1.125,3.46875 0.15625,1.09375 -1.4375,1.5625 -0.46875,1.75 2.21875,2.1875 1.09375,3 1.09375,2.03125 0.46875,2.53125 0,3.125 0.3125,3 c 0,0 1.74462,1.7166 2.53125,2.03125 0.78663,0.31465 1.25,1.90625 1.25,1.90625 l 3.625,-2.53125 1.875,-2.5 0.65625,-3.3125 1.25,-2.1875 -0.1875,-2.8125 2.375,-4.28125 0,-2.34375 -0.46875,-3 -0.3125,-2.0625 0,-3.75 2.0625,-2.0625 2.03125,-3.3125 2.21875,-1.09375 c 0,0 1.87608,2.21445 1.71875,2.84375 -0.15732,0.62931 -1.40625,5.1875 -1.40625,5.1875 l 1.71875,3 1.40625,2.1875 2.53125,1.71875 1.09375,2.375 2.375,1.875 2.65625,1.59375 0,1.875 c 0,0 -0.62285,0.96337 -0.9375,1.75 -0.31465,0.78663 -0.3125,1.55819 -0.3125,2.1875 0,0.62931 1.5625,1.40625 1.5625,1.40625 l 3,0.46875 1.875,1.59375 3.625,1.875 1.71875,1.40625 3.625,0.1875 0.3125,-3.78125 0.96875,-5.6875 -0.96875,-4.5625 -1.25,-2.03125 0.15625,-3.46875 -1.875,-1.71875 -1.4375,-2.53125 -0.9375,-2.5 -0.15625,-2.21875 4.09375,-0.3125 5.8125,-0.15625 2.53125,-2.5 0.46875,-2.21875 2.53125,-1.25 1.40625,-2.6875 -0.3125,-1.40625 0.78125,-3.15625 -0.46875,-6.4375 -2.21875,-2.53125 -0.78125,-2.65625 -0.625,-2.375 -0.78125,-1.5625 -0.78125,-7.40625 -1.53125,-2.96875 -0.15625,-2.40625 1.53125,-2.3125 2.34375,0 1.65625,1.8125 -0.0625,3.53125 0.15625,1.5625 2.34375,3.9375 2.0625,2.34375 2.1875,-1.40625 1.71875,-1.40625 -0.15625,-2 -0.15625,-2.875 -0.78125,-3 -1.40625,-3.46875 -0.3125,-2.1875 0.625,-1.25 1.09375,-3.15625 2.21875,-4.5625 1.40625,-3.78125 -1.65625,-4.125 0.25,-3.75 -2.0625,-2.1875 -1.71875,-2.53125 -2.21875,-2.65625 -1.40625,-2.375 -1.25,-2.03125 -0.78125,-0.9375 0,-2.375 2.1875,-1.5625 3.3125,-1.125 -8.8125,-12.40625 -8.03125,-8.96875 -10.6875,-8.5 -4.09375,-1.25 -4.25,1.5625 -6.46875,0.15625 -3.75,-0.78125 -3.9375,-2.0625 -3.78125,-2.65625 -7.09375,-5.5 -6.90625,-2.84375 -2.6875,-0.78125 -4.875,-0.3125 z m -71.65625,79.96875 2.875,1 1.34375,1.4375 1.5625,2 3.125,3.34375 0,3.34375 2.21875,0.875 c 2.52758,-4.95257 1.6217,-2.34463 2.4375,-3.53125 l 1.34375,2.21875 0.21875,3.34375 2,1.3125 1.78125,-0.65625 0.34375,-2.5625 2.09375,-0.875 2.6875,1.875 3.09375,2.6875 4.03125,-0.25 1.78125,2.25 0,2.875 -3.5625,5.125 -4.25,0 -7.09375,0.34375 -6.03125,-1.34375 -1.78125,-3.6875 -1.3125,-2.875 -2.6875,-3.34375 -3.78125,-2.4375 -3.125,-0.21875 -5.3125,0 -0.90625,-2.25 1.34375,-3.53125 1.34375,-2.6875 0.65625,-3.34375 3.5625,-0.4375 z"
           transform="matrix(1.1350446,0,0,1.1350446,723.60866,16.367003)"
           id="path7557"
           inkscape:connector-curvature="0" />
        <path
           style="fill:url(#linearGradient4712);fill-opacity:1;stroke:none"
           d="m 548.27393,588.63085 -1.76777,2.27285 0.25254,4.54568 0.25254,4.04061 0.75762,2.77792 0.50507,3.03046 0.50508,4.29315 -2.02031,3.78807 -3.28299,2.77792 -2.27285,0.75762 -1.51522,1.01015 -0.50508,1.51523 2.52538,3.03045 1.76777,1.76777 2.27284,-1.76777 0.25254,-1.51522 3.78807,-0.75762 3.53553,1.01015 2.02031,-3.53553 1.76777,-4.04061 0.50507,-3.283 -1.51523,-3.28299 -1.76776,-3.283 -0.50508,-3.53553 -1.26269,-3.78807 -0.25254,-3.03046 -1.51523,-3.53554 -2.52538,-1.26269 z"
           id="path7559"
           inkscape:connector-curvature="0" />
        <path
           style="fill:url(#linearGradient4714);fill-opacity:1;stroke:none"
           d="m 533.12164,658.33138 0,4.79822 1.26269,1.76777 0,3.78807 -1.26269,2.02031 0,3.78807 0,1.76777 -1.51523,2.52538 1.76777,2.27284 1.51523,3.03046 2.27284,1.51523 1.76777,1.01015 0.75762,1.51523 0.50507,4.04061 1.01015,2.27284 2.27285,0 0.75761,-2.0203 0.75762,-3.283 0,-2.52538 -1.51523,-2.52538 -0.25254,-2.77792 -1.01015,-1.51523 0,-3.03046 -2.77792,-2.77792 -3.53554,-5.05076 -0.75761,-7.82868 -2.02031,-2.77792 z"
           id="path7561"
           sodipodi:nodetypes="ccccccccccccccccccccccccccc"
           inkscape:connector-curvature="0" />
        <path
           style="fill:url(#linearGradient4716);fill-opacity:1;stroke:none"
           d="m 530.09119,686.86819 -0.25255,3.78807 -1.01014,4.29315 -1.76777,2.77792 -2.02031,3.03046 -2.0203,3.53553 -2.27284,3.03046 -2.52539,3.03046 -2.0203,2.77792 1.51523,1.51522 2.0203,1.76777 1.01016,2.77792 1.01015,2.52538 4.79822,-0.25254 3.03046,-1.26269 1.01015,-2.0203 0,-5.3033 2.52538,-1.76777 2.77792,-1.51523 2.02031,-2.52538 -3.03046,-1.26269 -1.26269,-2.27284 0,-5.05077 0,-5.80837 -1.51523,-2.52539 -2.0203,-3.28299 z"
           id="path7563"
           sodipodi:nodetypes="cccccccccccccccccccccccccc"
           inkscape:connector-curvature="0" />
        <path
           style="fill:url(#linearGradient4718);fill-opacity:1;stroke:none"
           d="m 514.9389,723.9913 -1.26269,-23.48605 -1.76777,-4.79823 -0.75761,-2.27284 -1.76777,-2.27284 -1.01015,-2.27285 -3.53554,-1.01015 -2.77792,0.25254 -0.75761,2.77792 -1.26269,2.52538 0,4.54569 0,3.78807 2.0203,1.76777 2.52538,2.0203 c 0,0 0.25254,1.26269 0.25254,2.52538 0,1.26269 0,7.07107 0,7.07107 l 1.51523,4.79822 2.27284,2.52538 2.02031,4.04062 2.0203,1.26269 4.04061,1.01015 3.53554,2.77792 2.52538,1.76777 3.78807,0.50507 4.54569,-1.51523 0,-3.53553 -5.55584,-1.76777 -4.29315,-1.76776 -2.27284,-0.25254 -4.04061,-1.01015 z"
           id="path7565"
           sodipodi:nodetypes="ccccccccccccccsccccccccccccccc"
           inkscape:connector-curvature="0" />
        <path
           style="fill:url(#linearGradient4720);fill-opacity:1;stroke:none"
           d="m 539.18256,716.41515 2.52538,2.27284 2.77792,1.01016 3.6618,2.52537 3.15673,2.02031 2.0203,3.03046 1.76777,3.53553 1.01015,3.03046 2.77792,2.52538 1.6415,-1.38896 0.63135,-3.6618 4.54568,1.38896 2.02031,2.14657 1.76777,1.38897 -0.25254,-2.90419 -1.51523,-4.79823 -3.66181,-5.80838 -3.15672,-1.76776 -4.54569,-3.283 -4.29315,-1.26269 -4.04061,-1.01015 -5.6821,-0.50508 -3.15673,1.51523 z"
           id="path7567"
           sodipodi:nodetypes="ccccccccccccccccccccccc"
           inkscape:connector-curvature="0" />
        <path
           style="fill:url(#linearGradient4722);fill-opacity:1;stroke:none"
           d="m 564.94145,781.06491 -4.04061,0 -1.51523,-4.29314 0,-5.55584 0,-1.51523 1.76777,-4.79823 0,-1.76776 1.76776,-3.283 1.51523,-3.283 0.50508,-4.29314 -0.25254,-3.53554 -2.77792,-0.50507 -2.52538,0.75761 -0.75761,3.78807 -1.2627,2.39912 -1.26269,2.65165 -2.0203,2.14657 -2.77792,-1.38896 0.25254,-2.02031 1.26269,-3.28299 1.01015,-2.52538 0.50508,-2.52538 -3.78807,0.50508 -2.14657,2.02029 -2.39912,1.89405 -2.90419,2.39911 -2.14658,1.38896 -2.0203,1.89403 0,2.77792 -2.52538,2.27284 -5.80838,4.54569 -5.05076,3.78807 -3.53553,3.78807 -1.51523,1.76777 -1.26269,5.80838 0.25253,4.04061 -1.01015,3.78807 -2.0203,2.02031 -1.51523,2.52538 0,3.28299 3.28299,2.77792 3.283,-0.25254 2.77792,-1.76776 2.77792,0 c 0,0 2.39911,0.63134 2.39911,1.6415 0,1.01015 0.75761,4.41941 0.75761,4.41941 l -1.38895,6.06092 0,8.33376 0,6.06091 0.50507,5.55584 8.5863,-9.34391 12.12183,-9.59645 7.07107,-11.86929 7.82868,-19.69798 z"
           id="path7569"
           sodipodi:nodetypes="ccccccccccccccccccccccccccccccccccccccccccccsccccccccc"
           inkscape:connector-curvature="0" />
        <path
           style="fill:url(#linearGradient4724);fill-opacity:1;stroke:none"
           d="m 251.03483,864.56829 3.57143,0 3.21429,1.42857 3.21428,1.82904 3.92857,0.31382 5,0.29586 5,-3.51015 4.64286,-0.35714 6.07143,1.78571 3.92857,1.42857 3.9069,3.30095 3.5931,1.13271 5.19126,-2.56128 1.9516,-4.01523 6.78571,-4.28572 6.07143,-3.21428 4.28571,-0.71429 1.78572,3.57143 -1.78572,2.85714 -2.31245,1.78572 1.24103,6.42857 5.33547,3.25761 5.02167,2.45667 8.54976,3.61476 6.0931,0.31382 6.78571,-0.71429 5.71429,-2.85714 5,-3.21429 5.35714,-3.65436 5.35714,-3.4235 6.42857,-1.13642 7.14286,0.71428 5.71429,0 3.21428,-1.07143 3.57143,-0.35714 3.92857,0 3.61476,2.79586 3.5281,0.41843 3.57143,-0.35715 4.64286,-2.81382 2.85714,-1.47189 3.57143,-1.07143 5,0 6.42857,-0.35714 5.35714,-1.07143 2.85714,-0.71429 3.57143,3.21429 3.92857,3.57143 2.94008,2.87881 5.31753,1.47189 5.31382,-0.065 8.57143,1.07143 3.92857,0 -9.64285,6.42857 -25.35715,13.57143 -29.64285,8.57143 -33.57143,3.21428 -30.35715,-0.71428 -26.07143,-3.92857 -20.71428,-5.71429 -22.85714,-7.5 -21.78572,-11.07143 -11.78571,-7.5 4.28571,-4.28571 z"
           id="path7571"
           sodipodi:nodetypes="cccccccccccccccccccccccccccccccccccccccccccccccccccccccccccccccc"
           inkscape:connector-curvature="0" />
        <path
           style="fill:url(#linearGradient4726);fill-opacity:1;stroke:none"
           d="m 419.73202,754.04333 2.52539,-1.89403 2.0203,-2.90419 0.75761,-2.77792 2.27284,-3.53553 3.53554,0 2.52538,1.51522 1.51523,2.27285 -0.88388,8.58629 -0.63135,3.40927 -1.89403,2.65165 -1.6415,4.04061 -1.51523,3.78807 -1.26269,3.53554 -0.75761,1.89403 -0.88389,2.27284 -3.03046,4.04062 -2.39911,3.6618 0.25253,-9.84899 -0.50507,-4.54569 0,-6.31345 0,-9.84899 z"
           id="path7573"
           sodipodi:nodetypes="cccccccccccccccccccccc"
           inkscape:connector-curvature="0" />
      </g>
    </g>
  </g>
</svg>
