<svg xmlns="http://www.w3.org/2000/svg" viewBox="0 0 48 48"><defs><linearGradient y1="545.8" x2="0" y2="517.8" gradientUnits="userSpaceOnUse"><stop stop-color="#3889e9"/><stop offset="1" stop-color="#5ea5fb"/></linearGradient><linearGradient id="0" x1="-10.767" y1="4.675" x2="-11.233" y2="-22.851" gradientUnits="userSpaceOnUse" gradientTransform="matrix(15.92863 0 0 15.39374-536.71 708.66)"><stop stop-color="#141414"/><stop offset="1" stop-color="#2d2d2f"/></linearGradient><linearGradient id="1" x1="-698.92" y1="775.93" x2="-704.74" y2="356.21" gradientUnits="userSpaceOnUse"><stop stop-color="#197cf1"/><stop stop-color="#20bcfa" offset="1"/></linearGradient></defs><g transform="matrix(.11136 0 0 .11136 102.24-39.548)"><rect rx="27.7" width="431.03" height="431.02" x="-917.99" y="355.08" fill="url(#0)"/><path d="m-560.28 545.81c-1-1.311-2.296-2.092-3.929-2.34l-34.23-5.238c-1.871-5.986-4.429-12.1-7.672-18.333 2.243-3.118 5.61-7.513 10.1-13.19 4.489-5.676 7.669-9.821 9.541-12.441.999-1.373 1.495-2.806 1.495-4.303 0-1.745-.434-3.116-1.309-4.115-4.489-6.363-14.779-16.962-30.868-31.805-1.493-1.247-3.054-1.869-4.673-1.869-1.871 0-3.369.56-4.491 1.681l-26.563 20.02c-5.116-2.62-10.728-4.928-16.838-6.935l-5.238-34.42c-.124-1.621-.843-2.962-2.152-4.02-1.311-1.061-2.836-1.589-4.586-1.589h-41.539c-3.617 0-5.862 1.745-6.735 5.238-1.621 6.234-3.431 17.833-5.426 34.788-5.862 1.874-11.527 4.243-17.02 7.111l-25.817-20.02c-1.621-1.247-3.242-1.869-4.863-1.869-2.744 0-8.636 4.457-17.679 13.376-9.04 8.919-15.183 15.621-18.439 20.11-1.123 1.621-1.683 3.056-1.683 4.303 0 1.497.622 2.994 1.869 4.489 8.356 10.1 15.03 18.707 20.02 25.819-3.118 5.736-5.55 11.474-7.295 17.21l-34.788 5.238c-1.371.25-2.556 1.061-3.555 2.434-.999 1.371-1.497 2.806-1.497 4.301v41.539c0 1.623.498 3.086 1.497 4.395.999 1.311 2.296 2.094 3.929 2.342l34.24 5.05c1.745 6.11 4.301 12.283 7.669 18.508-2.243 3.118-5.612 7.513-10.1 13.19-4.489 5.676-7.672 9.821-9.541 12.441-.999 1.375-1.497 2.806-1.497 4.303 0 1.621.436 3.054 1.309 4.301 4.863 6.737 15.15 17.215 30.868 31.431 1.373 1.373 2.932 2.057 4.677 2.057 1.871 0 3.431-.56 4.677-1.681l26.379-20.02c5.116 2.62 10.728 4.928 16.838 6.935l5.238 34.42c.126 1.621.843 2.962 2.152 4.02 1.309 1.063 2.838 1.589 4.583 1.589h41.539c3.621 0 5.865-1.745 6.739-5.238 1.619-6.237 3.426-17.833 5.421-34.788 5.862-1.871 11.55-4.243 17.02-7.111l25.819 20.21c1.745 1.121 3.369 1.681 4.863 1.681 2.742 0 8.604-4.425 17.582-13.281 8.983-8.854 15.16-15.591 18.508-20.21 1.123-1.247 1.685-2.68 1.685-4.301 0-1.621-.622-3.185-1.871-4.677-8.978-10.976-15.651-19.58-20.02-25.817 2.494-4.615 4.928-10.289 7.297-17.02l34.604-5.235c1.495-.25 2.746-1.063 3.743-2.436.997-1.373 1.493-2.808 1.493-4.303v-41.539c0-1.621-.494-3.084-1.495-4.395m-108.31 58.648c-9.353 9.355-20.641 14.03-33.863 14.03-13.222 0-24.508-4.677-33.862-14.03-9.353-9.353-14.03-20.639-14.03-33.86 0-13.222 4.675-24.508 14.03-33.862 9.355-9.353 20.643-14.03 33.862-14.03 13.222 0 24.51 4.677 33.863 14.03 9.353 9.355 14.03 20.641 14.03 33.862 0 13.222-4.677 24.508-14.03 33.86" fill="url(#1)"/></g></svg>