<svg xmlns="http://www.w3.org/2000/svg" viewBox="0 0 48 48"><defs><linearGradient gradientTransform="matrix(.41708-.0003.00032.39759-41.925-57.56)" id="0" gradientUnits="userSpaceOnUse" x1="5.485" y1="262.77" x2="3.419" y2="147.64"><stop stop-color="#1074f5"/><stop offset="1" stop-color="#02befd"/></linearGradient><linearGradient gradientUnits="userSpaceOnUse" y2="528.33" x2="0" y1="551.67" id="1"><stop stop-color="#e3e3e3"/><stop offset="1" stop-color="#fcf9f9"/></linearGradient></defs><g transform="matrix(.69243 0 0 .69243 18.302 17.466)" stroke-width="1.317"><path d="m-51.799 2.057c-.168 0-3.17-.218-3.17 2.973l-.105 40.02c0 3.191 3 2.971 3.168 2.971h19.92 19.807c.168 0 3.168.22 3.168-2.971v-19.947h.047v-20.07c0-3.191-3-2.973-3.168-2.973h-19.746-.174z" transform="matrix(1.4442 0 0 1.4442 53.02-28.07)" fill="url(#0)" fill-rule="evenodd"/><path d="m453.57 515.32c-.891.252-1.609 1.255-1.609 2.229v15.445c-.904-.5-2.065-.702-3.268-.372-2.172.596-3.533 2.521-3.067 4.299.466 1.778 2.605 2.772 4.777 2.176 1.733-.475 2.927-1.82 3.118-3.238l.05-14.595 11.264-3.184v11.517c-.904-.5-2.065-.702-3.268-.372-2.172.596-3.533 2.521-3.067 4.299.466 1.778 2.605 2.772 4.777 2.176 1.733-.475 2.927-1.82 3.118-3.238l.05-19c0-.731-.428-1.277-1.01-1.38l-11.867 3.238" transform="matrix(1.48733 0 0 1.48733-675.17-774.01)" fill="#d9effc"/><circle transform="matrix(1.48733 0 0 1.48733-675.4-779.05)" cy="540.29" cx="469.93" r="13.07" fill="url(#1)"/><path d="m23.737 12.01c2.735.006 5.508.858 7.675 2.546 1.523 1.754-1.379 3.633-2.686 1.923-3.934-2.381-9.483-1.542-12.443 2.02-1.575 1.766-2.462 4.123-2.452 6.489h2.6l-4.16 6.24-4.16-6.24h2.6c-.083-5.649 3.98-11.02 9.435-12.486 1.17-.321 2.376-.501 3.591-.488m11.414 6.76l4.16 6.24h-2.6c.074 5.717-4.093 11.151-9.643 12.537-3.745 1.046-7.98.283-11.06-2.11-1.57-1.784 1.372-3.645 2.691-1.918 3.812 2.313 9.15 1.579 12.159-1.724 1.742-1.795 2.744-4.283 2.731-6.785h-2.6l4.16-6.24" fill="#0f7bf6"/></g></svg>