<?xml version="1.0" encoding="UTF-8" standalone="no"?>
<svg
   xmlns:dc="http://purl.org/dc/elements/1.1/"
   xmlns:cc="http://creativecommons.org/ns#"
   xmlns:rdf="http://www.w3.org/1999/02/22-rdf-syntax-ns#"
   xmlns:svg="http://www.w3.org/2000/svg"
   xmlns="http://www.w3.org/2000/svg"
   xmlns:sodipodi="http://sodipodi.sourceforge.net/DTD/sodipodi-0.dtd"
   xmlns:inkscape="http://www.inkscape.org/namespaces/inkscape"
   height="48"
   width="48"
   version="1.1"
   id="svg23"
   sodipodi:docname="applets-screenshooter.svg"
   inkscape:version="0.92.3 (2405546, 2018-03-11)">
  <metadata
     id="metadata29">
    <rdf:RDF>
      <cc:Work
         rdf:about="">
        <dc:format>image/svg+xml</dc:format>
        <dc:type
           rdf:resource="http://purl.org/dc/dcmitype/StillImage" />
      </cc:Work>
    </rdf:RDF>
  </metadata>
  <defs
     id="defs27" />
  <sodipodi:namedview
     pagecolor="#ffffff"
     bordercolor="#666666"
     borderopacity="1"
     objecttolerance="10"
     gridtolerance="10"
     guidetolerance="10"
     inkscape:pageopacity="0"
     inkscape:pageshadow="2"
     inkscape:window-width="1366"
     inkscape:window-height="697"
     id="namedview25"
     showgrid="false"
     inkscape:zoom="4.9166667"
     inkscape:cx="4.6069645"
     inkscape:cy="24"
     inkscape:window-x="0"
     inkscape:window-y="0"
     inkscape:window-maximized="1"
     inkscape:current-layer="svg23" />
  <linearGradient
     id="a"
     gradientTransform="matrix(1.473216,0,0,1.5777092,-518.65342,-814.35995)"
     gradientUnits="userSpaceOnUse"
     x1="368.96432"
     x2="368.96432"
     y1="545.75293"
     y2="517.39703">
    <stop
       offset="0"
       stop-color="#ff3069"
       id="stop2" />
    <stop
       offset="1"
       stop-color="#ffa548"
       id="stop4" />
  </linearGradient>
  <rect
     height="44.274464"
     ry="3.1554189"
     width="47.05085"
     x="0.57627118"
     y="2.5746293"
     id="rect7"
     style="opacity:0.98799995;fill:url(#a);stroke-width:1.29504704" />
  <g
     transform="matrix(0.98446328,0,0,1.1167419,0.33448732,-2.1390184)"
     id="g21"
     style="fill:#ffffff;stroke-width:0.87424928">
    <g
       transform="matrix(1.0015158,0,0,1.0015158,-292.11673,-499.3199)"
       id="g17"
       style="stroke-width:0.87424928">
      <path
         d="m 294.90044,506.26511 v 1 4 h 1 v -4 h 4 v -1 z"
         id="path9"
         inkscape:connector-curvature="0"
         style="opacity:0.75;stroke-width:0.87424928" />
      <path
         d="m 294.90044,538.56511 h 1 4 v -1 h -4 v -4 h -1 z"
         id="path11"
         inkscape:connector-curvature="0"
         style="opacity:0.75;stroke-width:0.87424928" />
      <path
         d="m 336.2007,538.06511 v -1 -4 h -1 v 4 h -4 v 1 z"
         id="path13"
         inkscape:connector-curvature="0"
         style="opacity:0.75;stroke-width:0.87424928" />
      <path
         d="m 336.3007,506.56472 h -1 -4 v 1 h 4 v 4 h 1 z"
         id="path15"
         inkscape:connector-curvature="0"
         style="opacity:0.75;stroke-width:0.87424928" />
    </g>
    <path
       d="m 401.93651,543.63887 c -0.42228,-0.4126 -0.93162,-0.61895 -1.52845,-0.61895 h -1.89163 l -0.43056,-1.12246 c -0.10697,-0.26957 -0.30255,-0.50207 -0.58698,-0.69748 -0.28431,-0.19533 -0.57567,-0.29308 -0.87408,-0.29308 H 392.301 c -0.29841,0 -0.58978,0.0978 -0.8741,0.29308 -0.2843,0.19541 -0.4799,0.42791 -0.58687,0.69748 l -0.43067,1.12246 h -1.89163 c -0.59683,0 -1.10627,0.20635 -1.52854,0.61895 -0.42217,0.41272 -0.63331,0.91063 -0.63331,1.49394 v 7.39521 c 0,0.58331 0.21114,1.08133 0.63331,1.49383 0.42227,0.41272 0.93171,0.61907 1.52854,0.61907 h 11.89024 c 0.59681,0 1.10616,-0.20635 1.52844,-0.61907 0.42216,-0.4125 0.63331,-0.91052 0.63331,-1.49383 v -7.39521 c 7e-5,-0.58331 -0.21104,-1.08122 -0.63321,-1.49394 z m -4.80092,7.80387 c -0.74027,0.72362 -1.63116,1.08538 -2.67274,1.08538 -1.04159,0 -1.93237,-0.36176 -2.67275,-1.08538 -0.74039,-0.72352 -1.11051,-1.59431 -1.11051,-2.61222 0,-1.018 0.37023,-1.88862 1.11051,-2.61223 0.74027,-0.72362 1.63116,-1.08538 2.67275,-1.08538 1.04158,0 1.93237,0.36186 2.67274,1.08538 0.74038,0.72351 1.11053,1.59423 1.11053,2.61223 0,1.01791 -0.37025,1.8886 -1.11053,2.61222 z m -2.67274,-4.98933 c -0.67,0 -1.24278,0.23249 -1.71854,0.69749 -0.47576,0.46498 -0.71363,1.02478 -0.71363,1.67962 0,0.65482 0.23787,1.21463 0.71363,1.67961 0.47576,0.46489 1.04854,0.69739 1.71854,0.69739 0.66989,0 1.24278,-0.2325 1.71854,-0.69739 0.47575,-0.46498 0.71363,-1.02479 0.71363,-1.67961 0,-0.65484 -0.23788,-1.21464 -0.71363,-1.67962 -0.47576,-0.465 -1.04865,-0.69749 -1.71854,-0.69749 z"
       transform="matrix(1.2989443,0,0,1.2949407,-488.6671,-685.93328)"
       id="path19"
       inkscape:connector-curvature="0"
       style="opacity:0.79500002;stroke-width:0.82460493" />
  </g>
</svg>
