<svg xmlns="http://www.w3.org/2000/svg" viewBox="0 0 48 48"><defs><clipPath><path d="m-24 13c0 1.105-.672 2-1.5 2-.828 0-1.5-.895-1.5-2 0-1.105.672-2 1.5-2 .828 0 1.5.895 1.5 2" transform="matrix(15.33333 0 0 11.5 415-125.5)" fill="#1890d0"/></clipPath><linearGradient id="1" x1="-36.1" y1="413.55" x2="-36.21" y2="404.39" gradientUnits="userSpaceOnUse"><stop stop-color="#ff433a"/><stop offset="1" stop-color="#ff9436"/></linearGradient><linearGradient y1="545.8" x2="0" y2="517.8" gradientUnits="userSpaceOnUse"><stop stop-color="#3889e9"/><stop offset="1" stop-color="#5ea5fb"/></linearGradient><linearGradient id="0" x1="-10.767" y1="4.675" x2="-11.233" y2="-22.851" gradientUnits="userSpaceOnUse" gradientTransform="matrix(15.92863 0 0 15.39374-156.49 587.27)"><stop stop-color="#141414"/><stop offset="1" stop-color="#2d2d2f"/></linearGradient></defs><g transform="matrix(.11136 0 0 .11136 59.899-26.03)"><rect rx="27.7" width="431.03" height="431.02" x="-537.77" y="233.68" fill="url(#0)" stroke-width="1"/><path d="m-36.489 404.42l-1.136.304.649 2.424-1.774-1.774-.831.831 1.774 1.774-2.424-.649-.304 1.136 2.423.649-2.423.649.304 1.136 3.803-1.019v3.937h1.176v-3.937l3.803 1.019.305-1.136-2.424-.649 2.424-.649-.305-1.136-2.423.649 1.774-1.774-.831-.831-1.775 1.775.65-2.425-1.136-.304-.649 2.424-.649-2.424" fill="url(#1)" transform="matrix(31.81806 0 0 31.81806 818.09-12568.09)"/></g></svg>