<svg xmlns="http://www.w3.org/2000/svg" viewBox="0 0 48 48"><defs><clipPath id="1"><path transform="matrix(15.33333 0 0 11.5 415-125.5)" d="m-24 13c0 1.105-.672 2-1.5 2-.828 0-1.5-.895-1.5-2 0-1.105.672-2 1.5-2 .828 0 1.5.895 1.5 2" fill="#1890d0"/></clipPath><clipPath><path transform="matrix(15.33333 0 0 11.5 415-125.5)" d="m-24 13c0 1.105-.672 2-1.5 2-.828 0-1.5-.895-1.5-2 0-1.105.672-2 1.5-2 .828 0 1.5.895 1.5 2" fill="#1890d0"/></clipPath><linearGradient id="0" x1="-10.767" y1="4.675" x2="-11.233" y2="-22.851" gradientUnits="userSpaceOnUse" gradientTransform="matrix(1.77384 0 0 1.71427 42.46 39.38)"><stop stop-color="#c52828"/><stop stop-color="#ff5454" offset="1"/></linearGradient></defs><g enable-background="new"><rect height="48" width="48" rx="3.085" fill="url(#0)" stroke-width="1.714"/></g><g transform="matrix(1.41648 0 0 1.41648-9.995-9.989)" fill="#f9ebeb"><g clip-path="url(#1)" transform="matrix(1.03197 0 0 1.03197-.766.254)"><path d="m24 15.996l-3.75 6-5.25-3 .996 5.75-4.996 1.25 4.996 4c0-.063 0 .066 0 0 0-4.418 3.582-8 8-8 4.418 0 8 3.578 8 8l5-4-5-1.25 1-5.75-5.254 3"/></g></g></svg>