<?xml version="1.0" encoding="UTF-8" standalone="no"?>
<svg
   xmlns:dc="http://purl.org/dc/elements/1.1/"
   xmlns:cc="http://creativecommons.org/ns#"
   xmlns:rdf="http://www.w3.org/1999/02/22-rdf-syntax-ns#"
   xmlns:svg="http://www.w3.org/2000/svg"
   xmlns="http://www.w3.org/2000/svg"
   xmlns:xlink="http://www.w3.org/1999/xlink"
   xmlns:sodipodi="http://sodipodi.sourceforge.net/DTD/sodipodi-0.dtd"
   xmlns:inkscape="http://www.inkscape.org/namespaces/inkscape"
   viewBox="0 0 48 48"
   version="1.1"
   id="svg37"
   sodipodi:docname="conky.svg"
   inkscape:version="0.92.1 r15371">
  <metadata
     id="metadata41">
    <rdf:RDF>
      <cc:Work
         rdf:about="">
        <dc:format>image/svg+xml</dc:format>
        <dc:type
           rdf:resource="http://purl.org/dc/dcmitype/StillImage" />
      </cc:Work>
    </rdf:RDF>
  </metadata>
  <sodipodi:namedview
     pagecolor="#ffffff"
     bordercolor="#666666"
     borderopacity="1"
     objecttolerance="10"
     gridtolerance="10"
     guidetolerance="10"
     inkscape:pageopacity="0"
     inkscape:pageshadow="2"
     inkscape:window-width="1366"
     inkscape:window-height="695"
     id="namedview39"
     showgrid="false"
     inkscape:zoom="4.9166667"
     inkscape:cx="31.423729"
     inkscape:cy="24"
     inkscape:window-x="0"
     inkscape:window-y="0"
     inkscape:window-maximized="1"
     inkscape:current-layer="g35" />
  <defs
     id="defs21">
    <linearGradient
       id="5"
       x1="56.49"
       y1="3.779"
       x2="57.17"
       y2="-6.928"
       gradientUnits="userSpaceOnUse">
      <stop
         stop-color="#197cf1"
         id="stop2" />
      <stop
         offset="1"
         stop-color="#20bcfa"
         id="stop4" />
    </linearGradient>
    <linearGradient
       xlink:href="#1"
       id="4"
       x1="5186.11"
       y1="-539.33"
       x2="5206.44"
       y2="-1659.1"
       gradientUnits="userSpaceOnUse"
       gradientTransform="matrix(.00543 0 0 .00537 43.19-.384)" />
    <linearGradient
       id="6"
       y1="21.12"
       x2="0"
       y2="-24.875"
       gradientUnits="userSpaceOnUse">
      <stop
         stop-color="#030303"
         id="stop8" />
      <stop
         offset="1"
         stop-color="#383838"
         id="stop10" />
    </linearGradient>
    <linearGradient
       xlink:href="#1"
       id="3"
       x1="337.56"
       y1="1659.05"
       x2="416.05"
       y2="111.32"
       gradientUnits="userSpaceOnUse"
       gradientTransform="matrix(.00542 0 0 .00536 62.14-20.829)" />
    <linearGradient
       id="1">
      <stop
         stop-color="#d3d3d3"
         id="stop14" />
      <stop
         offset="1"
         stop-color="#fcf9f9"
         id="stop16" />
    </linearGradient>
    <linearGradient
       xlink:href="#1"
       id="0"
       x1="197.41"
       y1="1745.59"
       x2="259.74"
       y2="21.16"
       gradientUnits="userSpaceOnUse"
       gradientTransform="matrix(.00543 0 0 .00537 40.908-10.566)" />
    <linearGradient
       xlink:href="#1"
       id="2"
       x1="1094.1"
       y1="-63.41"
       x2="1098.3"
       y2="-1743.05"
       gradientUnits="userSpaceOnUse"
       gradientTransform="matrix(.00543 0 0 .00537 45.48-10.326)" />
  </defs>
  <g
     transform="matrix(1.04347 0 0 1.04347-35.861 25.962)"
     enable-background="new"
     id="g35">
    <rect
       width="46"
       height="46"
       x="34.375"
       y="-24.875"
       fill="url(#6)"
       rx="23"
       id="rect23" />
    <path
       d="m62.59-7.089c0 0-7.807 2.394-9.301 3.886-1.497 1.499-1.497 3.921.003 5.419 1.492 1.497 3.917 1.497 5.415 0 1.493-1.499 3.883-9.305 3.883-9.305"
       fill="url(#5)"
       id="path33" />
    <path
       inkscape:connector-curvature="0"
       style="opacity:1;fill:#64dedc;fill-opacity:1;stroke-width:0.83202869"
       d="m 57.659622,-22.801907 a 2.3721374,2.6265113 0 0 0 -2.372138,2.626511 2.3721374,2.6265113 0 0 0 2.372138,2.626511 2.3721374,2.6265113 0 0 0 2.372137,-2.626511 2.3721374,2.6265113 0 0 0 -2.372137,-2.626511 z m -9.544147,3.502015 a 2.3721374,2.6265113 0 0 0 -1.130472,0.348833 2.3721374,2.6265113 0 0 0 -0.86793,3.590934 2.3721374,2.6265113 0 0 0 3.240067,0.961002 2.3721374,2.6265113 0 0 0 0.867932,-3.587514 2.3721374,2.6265113 0 0 0 -2.109597,-1.313255 z m 19.088294,0 a 2.3721374,2.6265113 0 0 0 -2.109597,1.313255 2.3721374,2.6265113 0 0 0 0.867931,3.587514 2.3721374,2.6265113 0 0 0 3.240068,-0.961002 2.3721374,2.6265113 0 0 0 -0.867931,-3.590934 2.3721374,2.6265113 0 0 0 -1.130471,-0.348833 z m -25.299711,7.00403 a 2.3721374,2.6265113 0 0 0 -0.16988,0.0034 2.3721374,2.6265113 0 0 0 -1.942805,1.309841 2.3721374,2.6265113 0 0 0 0.871019,3.5875131 2.3721374,2.6265113 0 0 0 3.240068,-0.9610023 2.3721374,2.6265113 0 0 0 -0.867931,-3.5875128 2.3721374,2.6265113 0 0 0 -1.130471,-0.352254 z m 31.511128,0 a 2.3721374,2.6265113 0 0 0 -1.130472,0.352254 2.3721374,2.6265113 0 0 0 -0.86793,3.5875127 2.3721374,2.6265113 0 0 0 3.240067,0.9610022 2.3721374,2.6265113 0 0 0 0.871019,-3.5875129 2.3721374,2.6265113 0 0 0 -1.942805,-1.309837 2.3721374,2.6265113 0 0 0 -0.169879,-0.0034 z M 40.263947,-1.7898173 A 2.3721374,2.6265113 0 0 0 37.89181,0.83669402 2.3721374,2.6265113 0 0 0 40.263947,3.4632052 2.3721374,2.6265113 0 0 0 42.636084,0.83669402 2.3721374,2.6265113 0 0 0 40.263947,-1.7898173 Z m 34.791349,0 A 2.3721374,2.6265113 0 0 0 72.683159,0.83669402 2.3721374,2.6265113 0 0 0 75.055296,3.4632052 2.3721374,2.6265113 0 0 0 77.427434,0.83669402 2.3721374,2.6265113 0 0 0 75.055296,-1.7898173 Z M 43.3712,6.9652203 A 2.3721374,2.6265113 0 0 0 42.243816,7.3174739 2.3721374,2.6265113 0 0 0 41.372798,10.904987 2.3721374,2.6265113 0 0 0 44.615954,11.86599 2.3721374,2.6265113 0 0 0 45.483885,8.2784759 2.3721374,2.6265113 0 0 0 43.3712,6.9652203 Z m 28.406963,0 a 2.3721374,2.6265113 0 0 0 -1.942805,1.3132556 2.3721374,2.6265113 0 0 0 0.867932,3.5875141 2.3721374,2.6265113 0 0 0 3.243155,-0.961003 2.3721374,2.6265113 0 0 0 -0.871019,-3.5875131 2.3721374,2.6265113 0 0 0 -1.127383,-0.3522536 2.3721374,2.6265113 0 0 0 -0.16988,0 z"
       id="path10" />
  </g>
</svg>
