<?xml version="1.0" encoding="UTF-8" standalone="no"?>
<svg
   xmlns:dc="http://purl.org/dc/elements/1.1/"
   xmlns:cc="http://creativecommons.org/ns#"
   xmlns:rdf="http://www.w3.org/1999/02/22-rdf-syntax-ns#"
   xmlns:svg="http://www.w3.org/2000/svg"
   xmlns="http://www.w3.org/2000/svg"
   xmlns:xlink="http://www.w3.org/1999/xlink"
   xmlns:sodipodi="http://sodipodi.sourceforge.net/DTD/sodipodi-0.dtd"
   xmlns:inkscape="http://www.inkscape.org/namespaces/inkscape"
   viewBox="0 0 48 48"
   version="1.1"
   id="svg37"
   sodipodi:docname="stacer.svg"
   inkscape:version="0.92.2pre0 (973e216, 2017-07-25)">
  <metadata
     id="metadata41">
    <rdf:RDF>
      <cc:Work
         rdf:about="">
        <dc:format>image/svg+xml</dc:format>
        <dc:type
           rdf:resource="http://purl.org/dc/dcmitype/StillImage" />
      </cc:Work>
    </rdf:RDF>
  </metadata>
  <sodipodi:namedview
     pagecolor="#ffffff"
     bordercolor="#666666"
     borderopacity="1"
     objecttolerance="10"
     gridtolerance="10"
     guidetolerance="10"
     inkscape:pageopacity="0"
     inkscape:pageshadow="2"
     inkscape:window-width="1366"
     inkscape:window-height="695"
     id="namedview39"
     showgrid="false"
     inkscape:zoom="4.9166667"
     inkscape:cx="-38.350507"
     inkscape:cy="48.369917"
     inkscape:window-x="0"
     inkscape:window-y="0"
     inkscape:window-maximized="1"
     inkscape:current-layer="g35" />
  <defs
     id="defs21">
    <linearGradient
       id="5"
       x1="56.49"
       y1="3.779"
       x2="57.17"
       y2="-6.928"
       gradientUnits="userSpaceOnUse">
      <stop
         stop-color="#197cf1"
         id="stop2" />
      <stop
         offset="1"
         stop-color="#20bcfa"
         id="stop4" />
    </linearGradient>
    <linearGradient
       xlink:href="#1"
       id="4"
       x1="5186.11"
       y1="-539.33"
       x2="5206.44"
       y2="-1659.1"
       gradientUnits="userSpaceOnUse"
       gradientTransform="matrix(.00543 0 0 .00537 43.19-.384)" />
    <linearGradient
       id="6"
       y1="21.12"
       x2="0"
       y2="-24.875"
       gradientUnits="userSpaceOnUse">
      <stop
         stop-color="#030303"
         id="stop8" />
      <stop
         offset="1"
         stop-color="#383838"
         id="stop10" />
    </linearGradient>
    <linearGradient
       xlink:href="#1"
       id="3"
       x1="337.56"
       y1="1659.05"
       x2="416.05"
       y2="111.32"
       gradientUnits="userSpaceOnUse"
       gradientTransform="matrix(.00542 0 0 .00536 62.14-20.829)" />
    <linearGradient
       id="1">
      <stop
         stop-color="#d3d3d3"
         id="stop14" />
      <stop
         offset="1"
         stop-color="#fcf9f9"
         id="stop16" />
    </linearGradient>
    <linearGradient
       xlink:href="#1"
       id="0"
       x1="197.41"
       y1="1745.59"
       x2="259.74"
       y2="21.16"
       gradientUnits="userSpaceOnUse"
       gradientTransform="matrix(.00543 0 0 .00537 40.908-10.566)" />
    <linearGradient
       xlink:href="#1"
       id="2"
       x1="1094.1"
       y1="-63.41"
       x2="1098.3"
       y2="-1743.05"
       gradientUnits="userSpaceOnUse"
       gradientTransform="matrix(.00543 0 0 .00537 45.48-10.326)" />
    <linearGradient
       inkscape:collect="always"
       xlink:href="#linearGradient888"
       id="linearGradient890"
       x1="558.01569"
       y1="1036.2981"
       x2="537.93726"
       y2="92.611763"
       gradientUnits="userSpaceOnUse" />
    <linearGradient
       inkscape:collect="always"
       id="linearGradient888">
      <stop
         style="stop-color:#1f2435;stop-opacity:1;"
         offset="0"
         id="stop884" />
      <stop
         style="stop-color:#1f2435;stop-opacity:0;"
         offset="1"
         id="stop886" />
    </linearGradient>
    <linearGradient
       inkscape:collect="always"
       xlink:href="#linearGradient863"
       id="linearGradient865"
       x1="540.1098"
       y1="2.0078433"
       x2="540.1098"
       y2="1026.0078"
       gradientUnits="userSpaceOnUse" />
    <linearGradient
       inkscape:collect="always"
       id="linearGradient863">
      <stop
         style="stop-color:#262d44;stop-opacity:1;"
         offset="0"
         id="stop859" />
      <stop
         style="stop-color:#262d44;stop-opacity:1"
         offset="1"
         id="stop861" />
    </linearGradient>
  </defs>
  <g
     transform="matrix(1.04347 0 0 1.04347-35.861 25.962)"
     enable-background="new"
     id="g35">
    <rect
       width="46"
       height="46"
       x="34.375"
       y="-24.875"
       fill="url(#6)"
       rx="23"
       id="rect23" />
    <g
       id="Calque.__2011"
       transform="matrix(0.05592838,0,0,0.05561665,28.72912,-30.490358)">
      <g
         id="shape6">
        <path
           id="path3"
           d="M 511.05,112.25 V 132.1"
           inkscape:connector-curvature="0"
           style="fill:none;stroke:#333333;stroke-width:0.1;stroke-linecap:round;stroke-linejoin:round;stroke-opacity:1" />
        <path
           id="path4"
           d="m 892.05,512.1 c 0,-0.4 0,-0.8 0,-1.25 h -121 c 0,0.4 0,0.8 0,1.25 0,71.5 -25.3,132.55 -75.9,183.1 h -0.025 l -0.025,0.025 v 0.025 C 644.55,745.8 583.55,771.1 512.05,771.1 440.5,771.1 379.45,745.8 328.9,695.25 l -0.025,-0.025 h 0.025 v 0.025 C 278.35,644.65 253.05,583.6 253.05,512.1 c 0,-0.45 0,-0.85 0,-1.25 h -121 c 0,0.45 0,0.85 0,1.25 0,104.9 37.1,194.45 111.25,268.7 v -0.025 h 0.025 l 0.025,0.025 c 74.2,74.2 163.75,111.3 268.7,111.3 104.9,0 194.45,-37.1 268.65,-111.3 v -0.025 l -0.025,0.025 H 780.7 C 854.95,706.55 892.05,617 892.05,512.1 Z"
           inkscape:connector-curvature="0"
           style="fill:url(#linearGradient865);fill-opacity:1" />
        <path
           id="path5"
           d="m 780.675,243.375 q -0.976,-0.976 -1.95,-1.95 l -85.55,85.55 0.025,0.025 c 0.65,0.65 1.3,1.3 1.95,1.95 l -0.025,-0.025 v 0.025 h 0.025 c 50.3,50.3 75.6,110.95 75.9,181.9 h 121 C 891.75,406.45 854.65,317.3 780.7,243.35 h -0.025 z"
           style="fill:#5bdbc1;fill-opacity:1"
           inkscape:connector-curvature="0" />
        <path
           id="path7"
           d="m 511.05,326.1 v -73"
           inkscape:connector-curvature="0"
           style="fill:none;stroke:#333333;stroke-width:0.1;stroke-linecap:round;stroke-linejoin:round;stroke-opacity:1" />
        <path
           id="path11"
           d="m 693.175,326.975 85.55,-85.55 0.025,0.025 c -73.8,-72.9 -162.7,-109.35 -266.7,-109.35 -0.35,0 -0.65,0 -1,0 v 121 c 0.35,0 0.65,0 1,0 70.55,0 130.95,24.65 181.15,73.9"
           style="fill:#8f76e4;fill-opacity:1"
           inkscape:connector-curvature="0" />
        <path
           id="path12"
           d="m 511.05,132.1 v 121"
           inkscape:connector-curvature="0"
           style="fill:none;stroke:#333333;stroke-width:0.1;stroke-linecap:round;stroke-linejoin:round;stroke-opacity:1" />
        <path
           id="path13"
           d="m 327.9,329.95 c 0.35,-0.35 0.65,-0.65 1,-1 v -0.025 l -0.025,0.025 h 0.025 c 50.35,-50.35 111.05,-75.6 182.15,-75.85 v -121 c -104.5,0.25 -193.75,37.3 -267.7,111.25 h -0.025 l -0.025,0.025 v 0.025 c -0.35,0.3 -0.65,0.65 -0.95,1 l -0.025,-0.025 z"
           style="fill:#a7a7f1;fill-opacity:1"
           inkscape:connector-curvature="0" />
        <path
           id="path14"
           d="m 511.05,253.1 v -121"
           inkscape:connector-curvature="0"
           style="fill:none;stroke:#333333;stroke-width:0.1;stroke-linecap:round;stroke-linejoin:round;stroke-opacity:1" />
        <path
           id="path15"
           d="m 132.05,510.85 h 121 c 0.3,-70.5 25.25,-130.8 74.85,-180.9 l -85.575,-85.575 0.025,0.025 c -73.25,73.7 -110,162.5 -110.3,266.45 z"
           style="fill:#c5c9f5;fill-opacity:1"
           inkscape:connector-curvature="0" />
      </g>
    </g>
    <g
       id="svg2"
       transform="matrix(0.05592838,0,0,0.05561665,27.727668,-31.062665)">
      <g
         id="shape4">
        <path
           id="path2"
           d="m 758.8,755.2 q 95.85,-95.85 95.85,-231.45 c 0,-90.4 -31.95,-167.55 -95.85,-231.45 -63.9,-63.9 -141.05,-95.85 -231.45,-95.85 -90.4,0 -167.55,31.95 -231.45,95.85 -63.9,63.9 -95.85,141.05 -95.85,231.45 0,90.4 31.95,167.55 95.85,231.45 63.9,63.9 141.05,95.85 231.45,95.85 90.4,0 167.55,-31.95 231.45,-95.85 z"
           inkscape:connector-curvature="0"
           style="fill:url(#linearGradient890);fill-opacity:1" />
      </g>
    </g>
    <g
       id="svg3"
       transform="matrix(0.05592838,0,0,0.05561665,28.912141,-41.447768)">
      <g
         id="shape20">
        <path
           id="path18"
           d="m 469.8,636.6 c -11.1,4.65 -21.25,11.6 -30.45,20.8 -13,13 -21.5,27.85 -25.45,44.6 -1.75,7.35 -2.6,15.05 -2.6,23.1 0,12.6 2.15,24.35 6.4,35.2 13.6,7.4 28.7,11.1 45.35,11.1 26.5,0 49.1,-9.4 67.85,-28.15 12.95,-12.9 21.4,-27.65 25.45,-44.25 1.8,-7.5 2.7,-15.35 2.7,-23.6 0,-12.4 -2.05,-23.95 -6.15,-34.65 -2.15,-1.15 -4.3,-2.25 -6.5,-3.25 -11.95,-5.45 -25.05,-8.15 -39.25,-8.15 q -0.05,0 -0.1,0 c -13.4,0 -25.8,2.4 -37.25,7.25 z"
           style="fill:#ffffff;fill-opacity:1"
           inkscape:connector-curvature="0" />
        <path
           id="path19"
           d="m 463.05,771.4 c -16.65,0 -31.75,-3.7 -45.35,-11.1 4.65,11.9 11.9,22.75 21.65,32.5 18.7,18.7 41.25,28.05 67.7,28.05 26.45,0 49,-9.35 67.7,-28.05 18.7,-18.7 28.05,-41.25 28.05,-67.7 0,-25.65 -8.8,-47.7 -26.45,-66.1 -0.55,-0.55 -1.05,-1.05 -1.6,-1.6 -6.75,-6.75 -14.05,-12.3 -21.85,-16.65 4.1,10.7 6.15,22.25 6.15,34.65 0,8.25 -0.9,16.1 -2.7,23.6 -4.05,16.6 -12.5,31.35 -25.45,44.25 -18.75,18.75 -41.35,28.15 -67.85,28.15 z"
           style="fill:#c8c8c8;fill-opacity:1"
           inkscape:connector-curvature="0" />
      </g>
    </g>
    <g
       id="Calque.__2012"
       transform="matrix(0.05424248,0,0,0.03308246,28.526558,-26.263687)">
      <g
         id="shape16">
        <path
           id="path16"
           d="m 670.25,210.3 -2.4,5.9 -148.7,493.9 67.1,-10.85 z"
           style="fill:#c8c8c8;fill-opacity:1"
           inkscape:connector-curvature="0" />
        <path
           id="path17"
           d="m 447.05,721.75 72.1,-11.65 148.7,-493.9 z"
           style="fill:#ffffff;fill-opacity:1"
           inkscape:connector-curvature="0" />
      </g>
    </g>
  </g>
</svg>
