<svg xmlns="http://www.w3.org/2000/svg" viewBox="0 0 48 48"><defs><linearGradient gradientUnits="userSpaceOnUse" y2="530.42" x2="422.88" y1="578.01" x1="423.61" id="0"><stop stop-color="#1f2121"/><stop offset="1" stop-color="#404447"/></linearGradient><linearGradient id="1" gradientUnits="userSpaceOnUse" y1="543.05" x2="0" y2="503.05"><stop stop-color="#d8d8d8"/><stop offset="1" stop-color="#fff"/></linearGradient></defs><g transform="matrix(1.16875 0 0 1.16875-453.29-587.31)"><circle transform="matrix(.8076 0 0 .8076 66.28 74.824)" cx="423.59" cy="555.01" r="25.427" fill="url(#0)" fill-rule="evenodd"/><g fill="url(#1)"><path d="m408.32 505.05c9.972 0 18 8.03 18 18 0 9.972-8.03 18-18 18-8.212 0-15.1-5.45-17.273-12.941l6.871 2.758c.52 2.388 2.648 4.184 5.188 4.184 2.751 0 5.02-2.109 5.285-4.793l6.812-4.984c3.928 0 7.117-3.178 7.117-7.105 0-3.929-3.189-7.117-7.117-7.117-3.907 0-7.078 3.152-7.113 7.05l-4.434 6.352c-.181-.018-.365-.028-.551-.028-.991 0-1.916.271-2.711.746l-9.973-4.01c.94-9.08 8.566-16.11 17.898-16.11"/><path d="m415.22 514.33c-2.103 0-3.809 1.709-3.809 3.813 0 2.103 1.705 3.812 3.809 3.812 2.104 0 3.813-1.709 3.813-3.812 0-2.104-1.709-3.813-3.813-3.813"/><path d="m403.11 525.83c2.165 0 3.906 1.741 3.906 3.906 0 2.165-1.741 3.906-3.906 3.906-1.506 0-2.805-.841-3.457-2.082.642.259 1.284.516 1.926.777 1.592.64 3.407-.13 4.047-1.723.64-1.592-.138-3.399-1.73-4.04l-1.629-.652c.271-.058.554-.094.844-.094"/></g></g></svg>