<svg xmlns="http://www.w3.org/2000/svg" viewBox="0 0 48 48"><defs><linearGradient id="0" gradientUnits="userSpaceOnUse" y1="232.47" x2="0" y2="176.47"><stop stop-color="#ffc515"/><stop offset="1" stop-color="#ffd55b"/></linearGradient></defs><path d="m773.16 188.32c-.017-1.302-1.019-2.377-2.315-2.496-10.772-1.01-19.563-6.764-22.461-8.87-.606-.442-1.426-.442-2.032 0-2.893 2.106-11.683 7.863-22.456 8.87-1.296.119-2.293 1.194-2.315 2.496-.13 8.497 1.234 37.34 25.14 43.762.425.113.872.113 1.296 0 23.905-6.413 25.27-35.27 25.14-43.762" fill="url(#0)" transform="matrix(.86418 0 0 .86418-621.86-152.63)"/><g fill="#40330d"><path transform="matrix(.03866 0 0 .03866 14.02 14.02)" d="m353.81 0c-89.89 0-162.56 72.67-162.56 162.56 0 19.12 3.825 38.25 9.562 57.37l-200.81 200.81v95.62h95.62v-57.37h57.37v-57.37h57.37l86.06-86.06c17.213 5.737 36.34 9.562 57.37 9.562 89.89 0 162.56-72.68 162.56-162.56 0-89.89-72.67-162.56-162.56-162.56m47.813 172.12c-32.513 0-57.37-24.862-57.37-57.37 0-32.513 24.862-57.37 57.37-57.37 32.513 0 57.37 24.862 57.37 57.37 0 32.513-24.862 57.37-57.37 57.37z" stroke="#1f2a47"/></g></svg>