<svg xmlns="http://www.w3.org/2000/svg" viewBox="0 0 48 48"><defs><linearGradient gradientTransform="matrix(1.77384 0 0 1.71427 42.46 39.38)" gradientUnits="userSpaceOnUse" y2="-22.851" x2="-11.233" y1="4.675" x1="-10.767" id="0"><stop stop-color="#197cf1"/><stop stop-color="#21c9fb" offset="1"/></linearGradient></defs><rect height="48" width="48" rx="3.085" fill="url(#0)" stroke-width="1"/><path d="m26.814 12.623c-3.908 0-7.27 2.279-8.754 5.545h-.002c-.794-.624-1.789-.994-2.871-.994-2.547 0-4.621 2.056-4.686 4.617-2.63.997-4.502 3.562-4.502 6.568 0 3.552 2.612 6.489 6 6.951v.066h24v-.012c3.347-.197 6-3 6-6.436 0-3.312-2.468-6.04-5.645-6.406.013-.201.021-.405.021-.609 0-5.131-4.281-9.291-9.563-9.291m-1.17 4.576l-1.15 5.6 4.438 2.4-6.576 8 1.15-5.598-4.438-2.402 6.576-8" fill="#fff" fill-opacity=".848"/></svg>