<svg xmlns="http://www.w3.org/2000/svg" viewBox="0 0 48 48"><defs><linearGradient id="0" gradientUnits="userSpaceOnUse" y1="20.401" x2="0" y2="-7.339"><stop stop-color="#e3e3e3"/><stop offset="1" stop-color="#fffcff"/></linearGradient></defs><g transform="matrix(1.71427 0 0 1.71427 5.789 13.512)" enable-background="new"><circle cx="10.625" cy="6.125" r="14" fill="url(#0)"/><path d="m4.593 12.236c1.445 1.445 3.26 1.974 3.838 1.396l2.326-2.326c.353-.353.66-1.534.519-2.729l7.04-7.04c.418-.418.079-1.433-.756-2.268-.835-.835-1.85-1.173-2.268-.756l-7.04 7.04c-1.196-.141-2.376.167-2.729.519l-2.326 2.326c-.578.578-.05 2.393 1.396 3.838m7.742-7.04c.321.321.217.946-.233 1.396-.449.449-1.075.554-1.396.233-.321-.321-.217-.946.233-1.396.45-.449 1.075-.554 1.396-.233m-5.823 5.116c1.12 1.119 1.401 2.597 1.301 2.697-.1.1-1.519-.24-2.639-1.359-1.119-1.12-1.455-2.542-1.359-2.639.096-.096 1.577.181 2.696 1.301z" fill-opacity=".706"/></g></svg>