<svg xmlns="http://www.w3.org/2000/svg" viewBox="0 0 48 48"><defs><linearGradient id="0" x1="70.03" y1="569.24" x2="66.53" y2="491.06" gradientUnits="userSpaceOnUse" gradientTransform="matrix(.23257 0 0 .24017 37.608-115.56)"><stop stop-color="#2e3436"/><stop offset="1" stop-color="#555753"/></linearGradient></defs><g transform="matrix(1.71427 0 0 1.71427-69.21 8.602)" enable-background="new"><rect width="28" height="25.654" x="40.38" y="-3.838" fill="url(#0)" rx="1.207"/><g fill="#e2e3e3" fill-rule="evenodd" stroke="#50524f" stroke-width=".262"><path d="m58.49 2.866h4.442l3.471-3.071-3.471-3.397h-4.442l3.147 3.397z"/><path d="m42.641 2.866h4.442l3.471-3.071-3.471-3.397h-4.442l3.147 3.397z"/><path d="m50.48 2.866h4.442l3.471-3.071-3.471-3.397h-4.442l3.147 3.397z"/></g></g><path d="m24 18.597c-6.074 0-11 4.925-11 11 0 6.075 4.926 11 11 11 6.074 0 11-4.926 11-11 0-6.074-4.925-11-11-11m0 5.691c.41 0 .741.333.741.743v7.862l3.062-3.062c.29-.29.76-.288 1.051.002.29.29.29.759 0 1.049l-4.2 4.202c-.178.177-.423.232-.654.192-.231.041-.475-.013-.654-.192l-4.2-4.202c-.29-.29-.29-.759 0-1.049.29-.29.759-.29 1.049 0l3.062 3.06v-7.862c0-.41.333-.743.743-.743" fill="#e2e3e3"/></svg>