<svg xmlns="http://www.w3.org/2000/svg" viewBox="0 0 48 48"><defs><linearGradient id="0" x1="70.03" y1="569.24" x2="66.53" y2="491.06" gradientUnits="userSpaceOnUse" gradientTransform="matrix(.23257 0 0 .24017 37.608-115.56)"><stop stop-color="#2e3436"/><stop offset="1" stop-color="#555753"/></linearGradient></defs><g transform="matrix(1.71427 0 0 1.71427-69.21 8.602)" enable-background="new"><rect width="28" height="25.654" x="40.38" y="-3.838" fill="url(#0)" rx="1.207"/><g fill="#e2e3e3" fill-rule="evenodd" stroke="#50524f" stroke-width=".262"><path d="m58.49 2.866h4.442l3.471-3.071-3.471-3.397h-4.442l3.147 3.397z"/><path d="m42.641 2.866h4.442l3.471-3.071-3.471-3.397h-4.442l3.147 3.397z"/><path d="m50.48 2.866h4.442l3.471-3.071-3.471-3.397h-4.442l3.147 3.397z"/></g><path d="m58.769 8.361c-1.175-.956-2.736-1.483-4.394-1.483-1.658 0-3.219.527-4.394 1.483-1.185.965-1.838 2.251-1.838 3.62 0 1.308.595 2.538 1.68 3.486-.02.044-.035.09-.045.139l-.356 1.753c-.042.208.015.333.07.4.064.078.158.121.266.121.082 0 .169-.024.26-.072l2.073-1.077c.718.231 1.49.352 2.284.352 1.658 0 3.219-.527 4.394-1.483 1.185-.965 1.838-2.25 1.838-3.62 0-1.37-.653-2.656-1.838-3.62" fill="#fff" fill-opacity=".846"/></g></svg>