<svg xmlns="http://www.w3.org/2000/svg" viewBox="0 0 48 48"><defs><linearGradient id="0" x1="70.03" y1="569.24" x2="66.53" y2="491.06" gradientUnits="userSpaceOnUse" gradientTransform="matrix(.23257 0 0 .24017 37.608-115.56)"><stop stop-color="#2e3436"/><stop offset="1" stop-color="#555753"/></linearGradient></defs><g transform="matrix(1.71427 0 0 1.71427-69.21 8.602)" enable-background="new"><rect width="28" height="25.654" x="40.38" y="-3.838" fill="url(#0)" rx="1.207"/><g fill="#e2e3e3" fill-rule="evenodd" stroke="#50524f" stroke-width=".262"><path d="m58.49 2.866h4.442l3.471-3.071-3.471-3.397h-4.442l3.147 3.397z"/><path d="m42.641 2.866h4.442l3.471-3.071-3.471-3.397h-4.442l3.147 3.397z"/><path d="m50.48 2.866h4.442l3.471-3.071-3.471-3.397h-4.442l3.147 3.397z"/></g></g><path d="m14 34.988v4.455h4.455l11.251-11.251-4.455-4.455zm19.647-10.723c.471-.471.471-1.214 0-1.685l-2.784-2.784c-.471-.471-1.214-.471-1.685 0l-2.327 2.342 4.455 4.455z" fill="#e2e3e3"/></svg>