<svg xmlns="http://www.w3.org/2000/svg" viewBox="0 0 48 48"><defs><linearGradient id="0" x1="-10.767" y1="4.675" x2="-11.233" y2="-22.851" gradientUnits="userSpaceOnUse" gradientTransform="matrix(1.77384 0 0 1.71427 42.46 39.38)"><stop stop-color="#197cf1"/><stop offset="1" stop-color="#21c9fb"/></linearGradient></defs><rect rx="3.085" width="48" height="48" fill="url(#0)" stroke-width="1"/><g fill="#fff" fill-opacity=".836"><path d="m282.61 222.56v-49.849c0-17.342-14.06-31.402-31.398-31.402h-78.5v-49.842c18.286-6.474 31.402-23.866 31.402-44.37 0-26.01-21.1-47.1-47.1-47.1-26.01 0-47.1 21.09-47.1 47.1 0 20.502 13.12 37.894 31.4 44.37v49.842h-78.5c-17.34 0-31.4 14.06-31.4 31.402v49.849c-18.286 6.46-31.403 23.856-31.403 44.35 0 26 21.09 47.1 47.1 47.1 26.01 0 47.1-21.1 47.1-47.1 0-20.498-13.12-37.895-31.402-44.35v-49.849h78.5v49.849c-18.284 6.46-31.4 23.856-31.4 44.35 0 26 21.09 47.1 47.1 47.1 26 0 47.1-21.1 47.1-47.1 0-20.498-13.12-37.895-31.402-44.35v-49.849h78.5v49.849c-18.285 6.46-31.401 23.856-31.401 44.35 0 26 21.09 47.1 47.1 47.1 26.01 0 47.1-21.1 47.1-47.1-.002-20.498-13.12-37.894-31.404-44.35" fill="#fff" transform="matrix(.10191 0 0 .10191 7.999 7.999)" fill-opacity=".836"/></g></svg>