<svg xmlns="http://www.w3.org/2000/svg" viewBox="0 0 48 48"><defs><clipPath><path d="m-24 13c0 1.105-.672 2-1.5 2-.828 0-1.5-.895-1.5-2 0-1.105.672-2 1.5-2 .828 0 1.5.895 1.5 2" transform="matrix(15.33333 0 0 11.5 415-125.5)" fill="#1890d0"/></clipPath><clipPath><path transform="matrix(15.33333 0 0 11.5 415-125.5)" d="m-24 13c0 1.105-.672 2-1.5 2-.828 0-1.5-.895-1.5-2 0-1.105.672-2 1.5-2 .828 0 1.5.895 1.5 2" fill="#1890d0"/></clipPath><clipPath><path d="m-24 13c0 1.105-.672 2-1.5 2-.828 0-1.5-.895-1.5-2 0-1.105.672-2 1.5-2 .828 0 1.5.895 1.5 2" transform="matrix(15.33333 0 0 11.5 415-125.5)" fill="#1890d0"/></clipPath><linearGradient id="0" x1="-32.857" y1="47.756" x2="-34.36" y2="23.948" gradientUnits="userSpaceOnUse"><stop stop-color="#141414"/><stop offset="1" stop-color="#2d2d2f"/></linearGradient><linearGradient id="1" x1="-37.42" y1="44.49" x2="-37.02" y2="2.795" gradientUnits="userSpaceOnUse"><stop stop-color="#974eb7"/><stop offset="1" stop-color="#d164ff"/></linearGradient></defs><g transform="translate(60.41-2.034)"><rect rx="1.704" width="47.992" height="41.04" x="-60.4" y="2.816" fill="url(#1)"/><path d="m-13.03 23.382c0 8.713-4.594 16.338-11.447 20.486l-23.936-.042c-6.819-4.161-11.378-11.759-11.378-20.443 0-8.764 4.648-16.424 11.57-20.559h23.681c6.889 4.144 11.511 11.82 11.511 20.559" opacity=".9" fill="#ddf0fe" fill-opacity=".556"/><circle cx="-36.416" cy="23.341" r="17.357" opacity=".9" fill="#fff" fill-opacity=".44"/><circle cx="-36.416" cy="23.341" r="10.802" opacity=".9" fill="#fefefe" fill-opacity=".68"/><path d="m-28.25 31.26l-5.261-.008v-6.373c0-1.574-1.067-2.854-2.486-2.854-1.42 0-2.486 1.28-2.486 2.854v9.651c-.597-.678-1.232-1.084-2.031-1.084-.441 0-.884.128-1.272.37-1.225.768-1.668 2.449-1 3.837 1.091 2.171 4.67 9.297 4.913 9.661.808 1.224 2.035 1.939 3.367 1.939h7.03c2.694 0 4.114-1.415 4.114-3.836v-8.877c0-.045.061-.089.058-.133.003-.069-.003-.141-.003-.215 0-2.72-2.22-4.932-4.939-4.932" fill="url(#0)"/></g></svg>