<svg xmlns="http://www.w3.org/2000/svg" viewBox="0 0 48 48"><defs><clipPath><rect y="6" x="6" rx="6" height="84" width="84" fill="#fff"/></clipPath><clipPath><path d="m-24 13c0 1.105-.672 2-1.5 2-.828 0-1.5-.895-1.5-2 0-1.105.672-2 1.5-2 .828 0 1.5.895 1.5 2" transform="matrix(15.33333 0 0 11.5 415-125.5)" fill="#1890d0"/></clipPath><clipPath id="1"><path transform="matrix(15.33333 0 0 11.5 415-125.5)" d="m-24 13c0 1.105-.672 2-1.5 2-.828 0-1.5-.895-1.5-2 0-1.105.672-2 1.5-2 .828 0 1.5.895 1.5 2" fill="#1890d0"/></clipPath><filter color-interpolation-filters="sRGB"><feGaussianBlur stdDeviation="1.71"/></filter><linearGradient id="0" x1="24.2" y1="41.695" x2="23.797" y2="6.305" gradientUnits="userSpaceOnUse"><stop stop-color="#ffbc00"/><stop stop-color="#ffec00" offset="1"/></linearGradient><linearGradient gradientTransform="scale(1.0059.99417)" gradientUnits="userSpaceOnUse" y2="7.02" x2="0" y1="92.54"><stop/><stop offset="1" stop-opacity=".588"/></linearGradient></defs><rect width="48" height="36.22" y="5.89" rx="1.704" fill="url(#0)" stroke-width="1.037"/><g transform="matrix(1.08333 0 0 1.08333-2-2)" fill="#271e00"><g clip-path="url(#1)"><g><path d="m15 12c-1.66 0-3 1.34-3 3v18c0 1.66 1.34 3 3 3h18c1.66 0 3-1.34 3-3v-18c0-1.66-1.34-3-3-3m-18 3h18v18h-18"/><path d="m17 28h14v3h-14"/></g></g></g></svg>