<svg xmlns="http://www.w3.org/2000/svg" viewBox="0 0 48 48"><defs><linearGradient id="0" gradientUnits="userSpaceOnUse" y1="-2.471" x2="0" y2="-51.27"><stop stop-color="#0a80fd"/><stop offset="1" stop-color="#56c5fa"/></linearGradient></defs><g transform="matrix(.99999 0 0 .99999-53.37 50.722)" enable-background="new"><circle r="24" cy="-26.715" cx="77.37" fill="url(#0)"/><path d="m73.5-29.407c.014-1.759-1.437-3.248-3.193-3.283-1.832-.038-3.328 1.437-3.328 3.258 0 1.447.949 2.659 2.251 3.085v1.24c0 .762.357 1.479.966 1.936l6.274 4.727c-1.61.464-2.787 1.949-2.787 3.709 0 2.133 1.728 3.861 3.861 3.861 2.133 0 3.861-1.728 3.861-3.861 0-1.776-1.202-3.272-2.836-3.722v-1.821l5.762-4c.651-.454 1.042-1.198 1.042-1.991v-1.714h.658c.956 0 1.731-.776 1.731-1.731v-2.812c0-.956-.776-1.731-1.731-1.731h-3.331c-.956 0-1.731.776-1.731 1.731v2.812c0 .956.776 1.731 1.731 1.731h.658v1.929l-4.789 3.324v-12.684h1.693c1.212 0 1.96-1.326 1.333-2.365l-2.569-4.256c-.668-1.108-2.272-1.115-2.954-.017l-2.639 4.259c-.644 1.039.104 2.379 1.326 2.379h1.797v14.512l-5.308-3.996v-1.444c1.295-.422 2.24-1.627 2.251-3.061" fill="#fff" fill-opacity=".847"/></g></svg>