<svg xmlns="http://www.w3.org/2000/svg" xmlns:xlink="http://www.w3.org/1999/xlink" viewBox="0 0 48 48"><defs><linearGradient id="2"><stop stop-color="#566069"/><stop offset="1" stop-color="#6c7884"/></linearGradient><linearGradient gradientUnits="userSpaceOnUse" y2="-158.68" x2="281.46" y1="711.76" x1="287.52" id="1" xlink:href="#2"/><linearGradient gradientUnits="userSpaceOnUse" y2="517.8" x2="0" y1="545.8"><stop stop-color="#3889e9"/><stop offset="1" stop-color="#5ea5fb"/></linearGradient><linearGradient gradientUnits="userSpaceOnUse" y2="7.88" x2="271.01" y1="555.46" x1="274.25" id="0" xlink:href="#2"/></defs><circle cx="400.57" cy="531.8" r="14" fill="#5ea5fb" fill-opacity="0" transform="matrix(1.71282 0 0 1.70962-662.09-885.11)"/><path d="m506.37 293.1h-43.836c-11.09 0-20.04 8.874-20.426 19.813-9.104 84.61-80.71 150.48-167.84 150.48-93.25 0-168.76-75.43-168.76-168.53 0-92.26 76.04-167.23 168.07-168.53v27.387c0 12.47 8.874 18.05 19.737 12.47l140.68-71.986c10.863-5.585 10.863-14.612 0-20.2l-140.68-71.835c-10.863-5.584-19.737 0-19.737 12.393v27.616c-138.69 1.301-252.45 114.06-252.45 252.83 0 139.61 113.3 252.83 253.14 252.83 133.72 0 243.27-103.5 252.45-234.78.076-11.02-9.18-19.967-20.348-19.967zm206.44088-17.84639a433.48605 433.48605 0 0 1 -433.48611 433.48611 433.48605 433.48605 0 0 1 -433.48612 -433.48611 433.48605 433.48605 0 0 1 433.48612 -433.48612 433.48605 433.48605 0 0 1 433.48611 433.48612" fill="url(#0)" stroke="url(#1)" transform="matrix(.05526 0 0 .05515 8.525 8.789)"/></svg>