<svg xmlns="http://www.w3.org/2000/svg" viewBox="0 0 48 48"><defs><linearGradient gradientUnits="userSpaceOnUse" y2="517.8" x2="0" y1="545.8"><stop stop-color="#3889e9"/><stop offset="1" stop-color="#5ea5fb"/></linearGradient><linearGradient gradientUnits="userSpaceOnUse" y2="519.36" x2="406.75" y1="545.72" x1="406.26" id="0"><stop stop-color="#566069"/><stop offset="1" stop-color="#6c7884"/></linearGradient></defs><g transform="matrix(1.71282 0 0 1.70962-662.13-885.24)"><circle cx="400.57" cy="531.8" r="14" fill="#5ea5fb" fill-opacity="0" transform="translate(.024.076)"/><path d="m414.57143 531.798a13.999996 13.999996 0 0 1 -13.99999 14 13.999996 13.999996 0 0 1 -14.00001 -14 13.999996 13.999996 0 0 1 14.00001 -14 13.999996 13.999996 0 0 1 13.99999 14m-6.426-3.073c-.591-1.182-1.423-2.174-2.495-2.974-.308-.235-.657-.327-1.047-.275-.389.051-.698.235-.925.551-.235.308-.325.655-.27 1.041.055.386.237.696.545.931.719.543 1.276 1.208 1.669 1.994.393.786.589 1.623.589 2.512 0 .764-.149 1.493-.446 2.187-.297.694-.7 1.294-1.206 1.801-.507.507-1.107.909-1.801 1.206-.694.297-1.423.446-2.187.446-.764 0-1.493-.149-2.187-.446-.694-.297-1.294-.7-1.801-1.206-.507-.507-.909-1.107-1.206-1.801-.297-.694-.446-1.423-.446-2.187 0-.888.196-1.726.589-2.512.393-.786.949-1.45 1.669-1.994.308-.235.49-.545.545-.931.055-.385-.035-.733-.27-1.041-.228-.316-.534-.499-.92-.551-.386-.051-.736.04-1.052.275-1.072.8-1.904 1.792-2.495 2.974-.591 1.182-.887 2.442-.887 3.778 0 1.146.224 2.24.672 3.283.448 1.043 1.05 1.942 1.807 2.699.756.756 1.656 1.359 2.699 1.806 1.043.448 2.137.672 3.283.672 1.146 0 2.24-.224 3.283-.672 1.043-.448 1.943-1.05 2.699-1.806.756-.756 1.358-1.656 1.807-2.699.448-1.043.672-2.137.672-3.283 0-1.337-.295-2.596-.886-3.778m-7.574 3.779c.382 0 .713-.139.991-.419.279-.279.419-.61.419-.991v-7.05c0-.382-.14-.712-.419-.991-.279-.279-.609-.419-.991-.419-.382 0-.712.14-.991.419-.279.279-.419.61-.419.991v7.05c0 .382.14.712.419.991.279.279.61.419.991.419" fill="url(#0)" fill-rule="evenodd"/></g></svg>