<svg xmlns="http://www.w3.org/2000/svg" viewBox="0 0 48 48"><defs><linearGradient gradientUnits="userSpaceOnUse" y2="-1.974" x2="47.06" y1="132.3" x1="44.671" id="0"><stop stop-color="#566069"/><stop offset="1" stop-color="#6c7884"/></linearGradient></defs><path d="m37.39 64.55l39.595-39.596c2.01-2.01 3.02-4.468 3.02-7.374 0-2.906-1-5.363-3.02-7.373l-6.11-6.111c-2.01-2.01-4.467-3.01-7.372-3.01-2.906 0-5.363 1-7.374 3.01l-53.12 53.04c-2.01 2.01-3.02 4.468-3.02 7.374 0 2.906 1 5.363 3.02 7.373l53.12 53.04c2.01 2.01 4.468 3.02 7.374 3.02 2.905 0 5.363-1 7.372-3.02l6.11-6.11c2.01-2.01 3.02-4.454 3.02-7.333 0-2.878-1-5.35-3.02-7.414l-39.595-39.514m138.47748-.0563a128.00961 128.00961 0 0 1 -128.00961 128.00961 128.00961 128.00961 0 0 1 -128.00961 -128.00961 128.00961 128.00961 0 0 1 128.00961 -128.00961 128.00961 128.00961 0 0 1 128.00961 128.00961" fill="url(#0)" stroke="none" transform="matrix(.18749 0 0 .18749 14.999 11.922)" stroke-width="4.511"/></svg>