<svg xmlns="http://www.w3.org/2000/svg" viewBox="0 0 48 48"><defs><linearGradient id="0" x1="13.594" y1="37.09" x2="12.689" y2="-12.665" gradientUnits="userSpaceOnUse"><stop stop-color="#566069"/><stop offset="1" stop-color="#6c7884"/></linearGradient></defs><path d="m16.428 15.744c-.159-.052-1.164-.505-.536-2.414h-.009c1.637-1.686 2.888-4.399 2.888-7.07 0-4.107-2.731-6.26-5.905-6.26-3.176 0-5.892 2.152-5.892 6.26 0 2.682 1.244 5.406 2.891 7.088.642 1.684-.506 2.309-.746 2.396-2.238.724-8.325 4.332-8.229 9.586h24.05c.107-5.02-4.708-8.279-8.513-9.586m21.817305-3.079196a25.329718 25.329718 0 0 1 -25.329718 25.329718 25.329718 25.329718 0 0 1 -25.329718 -25.329718 25.329718 25.329718 0 0 1 25.329718 -25.329718 25.329718 25.329718 0 0 1 25.329718 25.329718" fill="url(#0)" transform="matrix(.94749 0 0 .94749 11.759 12.01)"/></svg>