<svg xmlns="http://www.w3.org/2000/svg" viewBox="0 0 48 48"><defs><linearGradient gradientTransform="matrix(2.65715 0 0 2.66061-1587.51-2270.95)" gradientUnits="userSpaceOnUse" y2="841.19" x2="0" y1="863.74" id="0"><stop stop-color="#ff9300"/><stop offset="1" stop-color="#ffd702"/></linearGradient></defs><g transform="matrix(.99999 0 0 .99999-33.35 25.882)" enable-background="new"><ellipse cx="57.36" cy="-1.875" rx="22.821" ry="22.836" fill="url(#0)" stroke="url(#0)" stroke-width="2.328"/><g fill-opacity=".797"><path d="m68.28-7.846c-1.138-1.047-2.457-1.865-3.873-2.46-.184.278-.394.54-.634.779-.317.317-.672.588-1.06.805.411.136.805.291 1.183.469.385.181.533.653.32 1.022-.188.327-.598.456-.938.294-2.58-1.219-5.46-.989-6.724-.798-.372.055-.727-.181-.815-.546v-.003c-.1-.414.178-.824.598-.889.23-.036.508-.071.818-.1-.094-.081-.184-.165-.272-.252-.446-.446-.798-.967-1.044-1.548-.026-.061-.052-.126-.074-.188-.385.065-.766.145-1.138.239-2.166-1.261-4.765-1.264-6.31-1.112-.672.065-1.07.782-.776 1.39l1.309 2.683c-1.455 1.267-2.554 2.819-3.171 4.548l-1.597-.006c-.537-.003-.973.433-.973.97v3.582c0 .362.2.692.52.86l2.072 1.08c.866 2.389 2.661 4.439 5.03 5.851v3.171c0 .624.508 1.131 1.131 1.131h2.903c.449 0 .857-.268 1.038-.679l.727-1.671c.627.078 1.264.116 1.917.116 1.028 0 2.027-.097 2.987-.281v1.384c0 .624.508 1.131 1.131 1.131h2.89c.417 0 .802-.23.999-.598 1.539-2.89 3.21-5.79 4.445-8.816.624-1.532.85-3.158.714-4.746-.22-2.56-1.384-5.02-3.333-6.811m-17.366 6.02c-.805 0-1.455-.65-1.455-1.455 0-.805.65-1.455 1.455-1.455.805 0 1.455.65 1.455 1.455 0 .805-.65 1.455-1.455 1.455"/><path d="m58.89-9.343c.443.175.928.272 1.435.272.249 0 .491-.023.724-.068.989-.184 1.846-.744 2.418-1.523.475-.647.756-1.445.756-2.311.003-2.156-1.746-3.902-3.899-3.902-2.156 0-3.902 1.746-3.902 3.902 0 .559.116 1.089.33 1.571.411.938 1.183 1.681 2.137 2.059"/></g></g></svg>