<svg xmlns="http://www.w3.org/2000/svg" viewBox="0 0 48 48"><defs><linearGradient id="0" gradientUnits="userSpaceOnUse" x1="-324.94" y1="649.74" x2="-328.21" y2="307.75"><stop stop-color="#1673db"/><stop offset="1" stop-color="#42d6fc"/></linearGradient></defs><g transform="matrix(3.107 0 0 3.107-127.6-78.951)" fill="#fff" fill-opacity=".848"><circle cx="-325.89" cy="478.75" r="173.45" transform="matrix(.04454 0 0 .04454 63.31 11.814)" fill="url(#0)" fill-opacity="1"/><g fill="#fff" fill-opacity=".848"><path d="m44.828 34.879c0 .565.838.552.838 0v-3.205h1.053c.565 0 .565-.812 0-.812h-3c-.552 0-.552.812 0 .812h1.111v3.205"/><path d="m49.751 36.399c.622 0 .578-.831 0-.831h-1.936v-.952h1.599c.565 0 .565-.831 0-.831h-1.599v-.952h1.828c.571 0 .584-.825 0-.825h-2.278c-.222 0-.393.165-.393.393v3.605c0 .222.171.393.393.393h2.386"/><path d="m51.18 31.05c-.292-.444-1.034.044-.635.52.387.451.774.939 1.174 1.441l-1.276 1.618c-.362.432.355.952.679.489l1.149-1.529 1.168 1.498c.343.47 1.041.013.692-.463l-1.295-1.612c.381-.501.781-.99 1.161-1.441.362-.413-.279-.965-.609-.533l-1.104 1.383-1.104-1.371"/></g></g></svg>