<svg xmlns="http://www.w3.org/2000/svg" viewBox="0 0 48 48"><defs><linearGradient id="0" y1="48.61" x2="0" y2="-1.22" gradientUnits="userSpaceOnUse"><stop stop-color="#c52828"/><stop stop-color="#ff5454" offset="1"/></linearGradient></defs><circle r="24" cy="24" cx="24" fill="url(#0)" fill-rule="evenodd"/><g transform="matrix(.49183 0 0 .49183 47.808 11.1)" fill="#fae3e3"><path d="m-48.44-12.394c-21.281 0-38.605 17.255-38.605 38.595h5.131c0-18.484 14.89-33.444 33.474-33.444 18.574 0 33.536 14.963 33.536 33.444v.353c-.201 18.352-15.09 33.17-33.536 33.17v5.141c21.281 0 38.662-17.317 38.662-38.662 0-21.35-17.386-38.577-38.662-38.577"/><path d="m-85.59 15.939c-.907 3.279-1.45 6.741-1.45 10.303 0 4.448.786 8.745 2.174 12.719l.402.162 15.454-23.18"/></g></svg>