<svg xmlns="http://www.w3.org/2000/svg" viewBox="0 0 48 48"><defs><linearGradient id="0" gradientUnits="userSpaceOnUse" y1="542.2" x2="0" y2="526.2"><stop stop-color="#d0d0d0"/><stop offset="1" stop-color="#f1eeee"/></linearGradient><linearGradient y2="147.64" x2="3.419" y1="204.55" x1=".967" gradientUnits="userSpaceOnUse" id="1" gradientTransform="matrix(.41708-.0003.00032.39759-41.925-57.56)"><stop stop-color="#566069"/><stop offset="1" stop-color="#6c7884"/></linearGradient><linearGradient id="2" y1="551.67" x2="0" y2="528.33" gradientUnits="userSpaceOnUse"><stop stop-color="#197ff1"/><stop offset="1" stop-color="#21c6fb"/></linearGradient></defs><g transform="matrix(.69243 0 0 .69243 18.279 17.462)" stroke-width="1.317" fill="url(#0)"><path d="m-51.799 2.057c-.168 0-3.17-.218-3.17 2.973v19.945h-.105v20.07c0 3.191 3 2.971 3.168 2.971h19.92 19.807c.168 0 3.168.22 3.168-2.971v-19.947h.047v-20.07c0-3.191-3-2.973-3.168-2.973h-19.746-.174-19.746" transform="matrix(1.4442 0 0 1.4442 53.08-28.06)" fill="url(#1)" fill-rule="evenodd"/><path d="m471.14 516.74h-1.326c-.315 0-.57.255-.57.57v.71c0 .315-.255.57-.57.57h-1.236c-.315 0-.57-.255-.57-.57v-.71c0-.315-.255-.57-.57-.57h-14.888c-.315 0-.57.255-.57.57v.71c0 .315-.255.57-.57.57h-1.236c-.315 0-.57-.255-.57-.57v-.71c0-.315-.255-.57-.57-.57h-1.282c-.315 0-.57.255-.57.57v25.659c0 .315.255.57.57.57h1.282c.315 0 .57-.255.57-.57v-.521c0-.315.255-.57.57-.57h1.236c.315 0 .57.255.57.57v.521c0 .315.255.57.57.57h14.888c.315 0 .57-.255.57-.57v-.521c0-.315.255-.57.57-.57h1.236c.315 0 .57.255.57.57v.521c0 .315.255.57.57.57h1.326c.315 0 .57-.255.57-.57v-25.659c0-.315-.255-.57-.57-.57m-20.301 21.821c0 .315-.255.57-.57.57h-1.236c-.315 0-.57-.255-.57-.57v-1.236c0-.315.255-.57.57-.57h1.236c.315 0 .57.255.57.57v1.236m0-5.124c0 .315-.255.57-.57.57h-1.236c-.315 0-.57-.255-.57-.57v-1.237c0-.315.255-.57.57-.57h1.236c.315 0 .57.255.57.57v1.237m0-5.124c0 .315-.255.57-.57.57h-1.236c-.315 0-.57-.255-.57-.57v-1.236c0-.315.255-.57.57-.57h1.236c.315 0 .57.255.57.57v1.236m0-5.124c0 .315-.255.57-.57.57h-1.236c-.315 0-.57-.255-.57-.57v-1.236c0-.315.255-.57.57-.57h1.236c.315 0 .57.255.57.57v1.236m13.563 17.336c0 .315-.255.57-.57.57h-9.912c-.315 0-.57-.255-.57-.57v-4.582c0-.315.255-.57.57-.57h9.912c.315 0 .57.255.57.57v4.582m0-8.094c0 .315-.255.57-.57.57h-9.912c-.315 0-.57-.255-.57-.57v-4.582c0-.315.255-.57.57-.57h9.912c.315 0 .57.255.57.57v4.582m0-8.094c0 .315-.255.57-.57.57h-9.912c-.315 0-.57-.255-.57-.57v-4.582c0-.315.255-.57.57-.57h9.912c.315 0 .57.255.57.57v4.582m4.842 14.224c0 .315-.255.57-.57.57h-1.236c-.315 0-.57-.255-.57-.57v-1.236c0-.315.255-.57.57-.57h1.236c.315 0 .57.255.57.57v1.236m0-5.124c0 .315-.255.57-.57.57h-1.236c-.315 0-.57-.255-.57-.57v-1.237c0-.315.255-.57.57-.57h1.236c.315 0 .57.255.57.57v1.237m0-5.124c0 .315-.255.57-.57.57h-1.236c-.315 0-.57-.255-.57-.57v-1.236c0-.315.255-.57.57-.57h1.236c.315 0 .57.255.57.57v1.236m0-5.124c0 .315-.255.57-.57.57h-1.236c-.315 0-.57-.255-.57-.57v-1.236c0-.315.255-.57.57-.57h1.236c.315 0 .57.255.57.57v1.236" transform="matrix(1.48733 0 0 1.48733-675.4-779.05)" fill="#fff" fill-opacity=".847"/><circle r="13.07" cx="469.93" cy="540.29" transform="matrix(1.48733 0 0 1.48733-675.4-779.05)" fill="url(#2)"/><path d="m24.03 12.01c2.735.006 5.508.858 7.675 2.546 1.523 1.754-1.379 3.633-2.686 1.923-3.934-2.381-9.483-1.542-12.443 2.02-1.575 1.766-2.462 4.123-2.452 6.489h2.6l-4.16 6.24-4.16-6.24h2.6c-.083-5.649 3.98-11.02 9.435-12.486 1.17-.321 2.376-.501 3.591-.488m11.414 6.76l4.16 6.24h-2.6c.074 5.717-4.093 11.151-9.643 12.537-3.745 1.046-7.98.283-11.06-2.11-1.57-1.784 1.372-3.645 2.691-1.918 3.812 2.313 9.15 1.579 12.159-1.724 1.742-1.795 2.744-4.283 2.731-6.785h-2.6l4.16-6.24" fill="#fff" fill-opacity=".848"/></g></svg>