<svg xmlns="http://www.w3.org/2000/svg" viewBox="0 0 48 48"><defs><clipPath><path transform="matrix(15.33333 0 0 11.5 415-125.5)" d="m-24 13c0 1.105-.672 2-1.5 2-.828 0-1.5-.895-1.5-2 0-1.105.672-2 1.5-2 .828 0 1.5.895 1.5 2" fill="#1890d0"/></clipPath><clipPath><path d="m69.63 12.145h-.052c-22.727-.292-46.47 4.077-46.709 4.122-2.424.451-4.946 2.974-5.397 5.397-.044.237-4.414 23.983-4.122 46.71-.292 22.777 4.078 46.523 4.122 46.761.451 2.423 2.974 4.945 5.398 5.398.237.044 23.982 4.413 46.709 4.121 22.779.292 46.524-4.077 46.761-4.121 2.423-.452 4.946-2.976 5.398-5.399.044-.236 4.413-23.981 4.121-46.709.292-22.777-4.077-46.523-4.121-46.761-.453-2.423-2.976-4.946-5.398-5.397-.238-.045-23.984-4.414-46.71-4.122"/></clipPath><clipPath><path transform="matrix(15.33333 0 0 11.5 415-125.5)" d="m-24 13c0 1.105-.672 2-1.5 2-.828 0-1.5-.895-1.5-2 0-1.105.672-2 1.5-2 .828 0 1.5.895 1.5 2" fill="#1890d0"/></clipPath><linearGradient id="0" x1="-10.767" y1="4.675" x2="-11.233" y2="-22.851" gradientUnits="userSpaceOnUse" gradientTransform="matrix(1.77384 0 0 1.71427 42.46 39.38)"><stop stop-color="#155bc2"/><stop stop-color="#369dff" offset="1"/></linearGradient></defs><g enable-background="new"><rect height="48" width="48" rx="3.085" fill="url(#0)" stroke-width="1.714"/></g><path d="m8.416 8c-.23 0-.416.186-.416.416v31.17c0 .23.186.416.416.416h11.635c.23 0 .416-.186.416-.416v-31.17c0-.23-.186-.416-.416-.416h-11.635m19.533 0c-.23 0-.416.186-.416.416v19.324c0 .23.186.416.416.416h11.635c.23 0 .416-.186.416-.416v-19.324c0-.23-.186-.416-.416-.416h-11.635" fill="#dfebfa"/></svg>