<svg xmlns="http://www.w3.org/2000/svg" viewBox="0 0 48 48"><defs><linearGradient id="0" gradientUnits="userSpaceOnUse" y1="232.47" x2="0" y2="176.47"><stop stop-color="#ffc515"/><stop offset="1" stop-color="#ffd55b"/></linearGradient></defs><path d="m773.16 188.32c-.017-1.302-1.019-2.377-2.315-2.496-10.772-1.01-19.563-6.764-22.461-8.87-.606-.442-1.426-.442-2.032 0-2.893 2.106-11.683 7.863-22.456 8.87-1.296.119-2.293 1.194-2.315 2.496-.13 8.497 1.234 37.34 25.14 43.762.425.113.872.113 1.296 0 23.905-6.413 25.27-35.27 25.14-43.762" fill="url(#0)" transform="matrix(.86418 0 0 .86418-621.86-152.63)"/><path d="m30.72 22.454v-2.731c0-3.703-3.02-6.722-6.72-6.722-3.703 0-6.72 3.02-6.72 6.722v2.731c-.53.11-.929.581-.929 1.144v10.233c0 .645.524 1.17 1.17 1.17h12.961c.645 0 1.17-.524 1.17-1.17v-10.233c0-.563-.4-1.032-.929-1.144m-5.151 8.722c.024.126-.062.229-.191.229h-2.728c-.128 0-.214-.104-.191-.229l.434-2.302c-.328-.301-.535-.731-.535-1.212 0-.906.735-1.641 1.641-1.641.906 0 1.641.733 1.641 1.641 0 .467-.196.889-.51 1.188zm2.812-8.748h-8.766v-2.706c0-2.418 1.967-4.383 4.383-4.383 2.416 0 4.383 1.967 4.383 4.383z" fill="#40330d"/></svg>