<svg xmlns="http://www.w3.org/2000/svg" viewBox="0 0 48 48"><defs><clipPath id="1"><path transform="matrix(15.33333 0 0 11.5 415-125.5)" d="m-24 13c0 1.105-.672 2-1.5 2-.828 0-1.5-.895-1.5-2 0-1.105.672-2 1.5-2 .828 0 1.5.895 1.5 2" fill="#1890d0"/></clipPath><linearGradient id="0" gradientUnits="userSpaceOnUse" y1="22.369" x2="0" y2="-26.429"><stop stop-color="#d8d8d8"/><stop offset="1" stop-color="#fff"/></linearGradient><linearGradient id="2" x1="6.579" y1="3.106" x2="6.382" y2="10.571" gradientUnits="userSpaceOnUse"><stop stop-color="#0a80fd"/><stop offset="1" stop-color="#56c5fa"/></linearGradient></defs><g enable-background="new"><circle r="24" cy="-1.875" cx="62.37" fill="url(#0)" transform="matrix(.99999 0 0 .99999-38.37 25.882)"/></g><g transform="translate(-.953.003)"><g clip-path="url(#1)"><path transform="matrix(3.23305 0 0 3.26955 2.475 2.249)" d="m9.803 3.153c-.535-.398-3.888 3.202-4.04 3.13-.25-.147.412-2.681.145-2.804-.505-.245-2.832 4.442-3.441 6.123l.484.423c.822-2.03 5.07.399 5.28.135.124-.208-2.357-1.767-2.247-1.994.175-.355 4.319 1.28 4.467 1.031.116-.202-1.897-1.711-1.874-1.92.098-.233 2.948-1.325 2.884-1.608-.353-.859-4.867 1.41-5.076 1.151-.121-.225 3.776-3.373 3.414-3.667" fill="url(#2)" stroke="url(#2)" stroke-width=".282"/></g></g></svg>