<svg xmlns="http://www.w3.org/2000/svg" viewBox="0 0 48 48"><defs><linearGradient id="0" x1="25.738" y1="39.09" x2="25.368" y2="6.25" gradientUnits="userSpaceOnUse"><stop stop-color="#a0d5ff"/><stop offset="1" stop-color="#fff"/></linearGradient></defs><path d="m16.08 16.224c-1.058-.832-2.386-1.324-3.829-1.324-3.396 0-6.162 2.74-6.247 6.154-3.507 1.329-6 4.751-6 8.76 0 4.736 3.482 8.651 7.999 9.268v.086h32v-.015c4.462-.263 7.999-4 7.999-8.58 0-4.415-3.291-8.05-7.527-8.54.017-.268.029-.541.029-.814 0-6.842-5.709-12.387-12.75-12.387-5.211 0-9.694 3.038-11.672 7.393" fill="url(#0)"/><g fill-opacity=".616"><path d="m21.407 30.82l-2.363 4.293h-2.556c1.801-3.248 3.553-6.238 5.257-8.971 1.72-2.733 3.416-5.313 5.088-7.741h2.291c.241 1.206.458 2.428.651 3.666.209 1.222.41 2.508.603 3.859.193 1.35.378 2.781.555 4.293.177 1.511.362 3.143.555 4.895h-2.363c-.08-.723-.153-1.447-.217-2.17-.064-.74-.137-1.447-.217-2.122h-7.283m7.07-1.881c-.129-1.302-.281-2.596-.458-3.883-.161-1.286-.354-2.613-.579-3.979-.563.82-1.262 1.881-2.098 3.183-.836 1.286-1.785 2.846-2.846 4.678h5.981" fill-opacity=".616" transform="translate(.012.043)"/></g></svg>