<?xml version="1.0" encoding="UTF-8" standalone="no"?>
<svg
   xmlns:dc="http://purl.org/dc/elements/1.1/"
   xmlns:cc="http://creativecommons.org/ns#"
   xmlns:rdf="http://www.w3.org/1999/02/22-rdf-syntax-ns#"
   xmlns:svg="http://www.w3.org/2000/svg"
   xmlns="http://www.w3.org/2000/svg"
   xmlns:xlink="http://www.w3.org/1999/xlink"
   xmlns:sodipodi="http://sodipodi.sourceforge.net/DTD/sodipodi-0.dtd"
   xmlns:inkscape="http://www.inkscape.org/namespaces/inkscape"
   id="svg12"
   version="1"
   width="48"
   height="48"
   sodipodi:docname="uget.svg"
   inkscape:version="0.92.2 5c3e80d, 2017-08-06">
  <sodipodi:namedview
     pagecolor="#ffffff"
     bordercolor="#666666"
     borderopacity="1"
     objecttolerance="10"
     gridtolerance="10"
     guidetolerance="10"
     inkscape:pageopacity="0"
     inkscape:pageshadow="2"
     inkscape:window-width="1366"
     inkscape:window-height="701"
     id="namedview15"
     showgrid="false"
     inkscape:zoom="4.9166667"
     inkscape:cx="-5.6949153"
     inkscape:cy="24"
     inkscape:window-x="0"
     inkscape:window-y="0"
     inkscape:window-maximized="1"
     inkscape:current-layer="svg12" />
  <metadata
     id="metadata18">
    <rdf:RDF>
      <cc:Work
         rdf:about="">
        <dc:format>image/svg+xml</dc:format>
        <dc:type
           rdf:resource="http://purl.org/dc/dcmitype/StillImage" />
        <dc:title />
      </cc:Work>
    </rdf:RDF>
  </metadata>
  <defs
     id="defs16">
    <linearGradient
       id="linearGradient832">
      <stop
         id="stop828"
         offset="0"
         style="stop-color:#81ce29;stop-opacity:1" />
      <stop
         id="stop830"
         offset="1"
         style="stop-color:#99db4d;stop-opacity:1" />
    </linearGradient>
    <linearGradient
       gradientUnits="userSpaceOnUse"
       y2="-24"
       x2="-4"
       y1="-24"
       x1="-44"
       id="linearGradient834"
       xlink:href="#linearGradient832" />
  </defs>
  <g
     id="g832"
     transform="matrix(1.025,0,0,1,-0.6,-4.9999997e-8)"
     style="stroke-width:0.98772961">
    <g
       id="g831"
       transform="matrix(1.0731707,0,0,1.0731707,-1.7560968,-2.2926821)"
       style="stroke-width:0.98772961">
      <rect
         id="rect2"
         transform="matrix(0,-1,-1,0,0,0)"
         style="opacity:0.2;stroke-width:0.98772961"
         width="40"
         height="40"
         x="-45"
         y="-44"
         rx="2"
         ry="1.9512194" />
      <rect
         id="rect4"
         ry="1.9512194"
         rx="2"
         y="-44"
         x="-44"
         height="40"
         width="40"
         style="fill:url(#linearGradient834);fill-opacity:1;stroke-width:0.98772961"
         transform="matrix(0,-1,-1,0,0,0)" />
      <path
         id="path6"
         d="m 21,12 c 0,0 -4,0 -4,4 V 27 H 14 V 17 h -3 v 10 c 0,3 3,3 3,3 h 3 v 4 c 0,0 0,4 4,4 h 12 c 4,0 4,-4 4,-4 V 23 h -7 v 4 h 4 l -7,8 -7,-8 h 4 V 16 h 6 v 4 h 7 v -4 c 0,0 0,-4 -4,-4 z"
         style="opacity:0.2;stroke-width:0.98772961"
         inkscape:connector-curvature="0" />
      <path
         id="path8"
         style="fill:#ffffff;stroke-width:0.98772961"
         d="m 21,11 c 0,0 -4,0 -4,4 V 26 H 14 V 16 h -3 v 10 c 0,3 3,3 3,3 h 3 v 4 c 0,0 0,4 4,4 h 12 c 4,0 4,-4 4,-4 V 22 h -7 v 4 h 4 l -7,8 -7,-8 h 4 V 15 h 6 v 4 h 7 v -4 c 0,0 0,-4 -4,-4 z"
         inkscape:connector-curvature="0" />
      <path
         id="path10"
         d="M 6,4 C 4.892,4 4,4.892 4,6 V 7 C 4,5.892 4.892,5 6,5 h 36 c 1.108,0 2,0.892 2,2 V 6 C 44,4.892 43.108,4 42,4 Z"
         style="opacity:0.2;fill:#ffffff;stroke-width:0.98772961"
         inkscape:connector-curvature="0" />
    </g>
  </g>
</svg>
