<svg xmlns="http://www.w3.org/2000/svg" viewBox="0 0 48 48"><defs><linearGradient gradientUnits="userSpaceOnUse" y2="517.8" x2="0" y1="545.8"><stop stop-color="#3889e9"/><stop offset="1" stop-color="#5ea5fb"/></linearGradient><linearGradient y2="518.14" x2="0" y1="545.14" gradientUnits="userSpaceOnUse" id="0"><stop stop-color="#97a9b1"/><stop offset="1" stop-color="#cfdce1"/></linearGradient></defs><g transform="matrix(1.71427 0 0 1.71427-69.21 13.512)" enable-background="new"><g transform="translate(-346.19-525.67)"><circle r="14" cy="531.8" cx="400.57" fill="url(#0)"/><circle cx="400.57" cy="531.8" r="14" fill="#5ea5fb" fill-opacity="0"/></g><path d="m84.988 25.632q-.443.467-1.12.467-.677 0-1.143-.467-.443-.467-.443-1.12 0-.653.443-1.12.467-.467 1.143-.467.677 0 1.12.467.467.467.467 1.12 0 .653-.467 1.12m-.023-4.853h-2.193v-1.097q0-1.05.443-1.797.443-.77 1.563-1.797.63-.583.887-.863.28-.303.537-.817.28-.537.28-1.097 0-1.073-.7-1.727-.677-.653-1.89-.653-2.01 0-2.753 2.24l-2.01-.84q.49-1.33 1.68-2.38 1.213-1.073 3.08-1.073 2.123 0 3.453 1.26 1.33 1.237 1.33 3.173 0 .84-.443 1.703-.443.863-.793 1.237-.327.35-.933.91-.07.07-.117.117-1.423 1.283-1.423 2.567v.933" fill-opacity=".763" transform="translate(-29.528-11.363)"/></g></svg>