<svg xmlns="http://www.w3.org/2000/svg" viewBox="0 0 48 48"><defs><linearGradient gradientTransform="matrix(.63636 0 0 .62142-205.63-319.99)" gradientUnits="userSpaceOnUse" y2="507.8" x2="0" y1="542.8" id="0"><stop stop-color="#197cf1"/><stop offset="1" stop-color="#20bcfa"/></linearGradient></defs><g transform="matrix(1.71427 0 0 1.71427-69.21 13.512)" enable-background="new"><rect width="28" height="21.13" x="40.37" y="-4.439" fill="url(#0)" rx=".994"/><path d="m55.03-.292l-2.133.205v8.787l2.11-.319v-3.746l2.839 4.157 2.224-.706-2.908-3.997 2.931-3.769-2.27-.52-2.817 3.769.023-3.86m-4.836 2.142c-.024.002-.05.009-.068.027l-.839.839c-.035.035-.04.089-.013.132l.98 1.618c-.174.292-.315.606-.415.939l-1.8.374c-.05.011-.087.058-.087.109v1.185c0 .05.038.093.087.105l1.746.424c.093.385.238.754.428 1.089l-1.012 1.54c-.028.043-.023.1.013.137l.839.839c.035.035.089.04.132.013l1.586-.962c.311.18.648.323 1 .419l.369 1.778c.011.05.054.087.105.087h1.185c.05 0 .093-.034.105-.082l.438-1.787c.366-.099.711-.245 1.03-.433l1.563 1.025c.043.028.1.023.137-.013l.834-.839c.036-.035.044-.089.018-.132l-.57-.939-.187.059c-.027.009-.057-.004-.073-.027 0 0-.36-.529-.829-1.217-.562 1.099-1.707 1.85-3.03 1.85-1.875 0-3.395-1.521-3.395-3.395 0-1.379.825-2.563 2.01-3.095v-.875c-.215.075-.423.166-.62.273 0 0 0-.004 0-.005l-1.6-1.048c-.022-.015-.044-.016-.068-.013" fill="#fff" fill-opacity=".85"/></g></svg>