<svg xmlns="http://www.w3.org/2000/svg" viewBox="0 0 48 48"><defs><linearGradient id="0" y1="555.24" x2="0" y2="527.24" gradientUnits="userSpaceOnUse"><stop stop-color="#ff9300"/><stop offset="1" stop-color="#ffd702"/></linearGradient></defs><g transform="matrix(.88888 0 0 .88449-332.07-446.48)"><g transform="matrix(1.9286 0 0 1.9286-201.08-512.04)"><rect width="28" height="28" x="297.96" y="527.24" fill="url(#0)" rx="14"/><path d="m27.21 1033.48l-4.932 6 3.328 1.801-.862 4.199 4.932-6-3.328-1.801z" fill-opacity=".796" transform="matrix(1.12346 0 0 1.12346 282.78-626.57)"/></g><path d="m422.52 486.38c-1.129-.057-2.331.004-3.612.192-13.192 1.931-14.275 16.285-21.952 27.07 8.92 22.819 31.03 38.926 57.08 38.926 20.21 0 38.02-9.721 49.18-24.713-22.947-28.691-30.07 3.897-49.18-5.289-13.722-8.438-14.58-35.33-31.517-36.19" fill-rule="evenodd" transform="matrix(.41895 0 0 .38741 210.45 345)" fill="#342600"/></g></svg>