<svg xmlns="http://www.w3.org/2000/svg" viewBox="0 0 48 48"><defs><clipPath><path d="m-24 13c0 1.105-.672 2-1.5 2-.828 0-1.5-.895-1.5-2 0-1.105.672-2 1.5-2 .828 0 1.5.895 1.5 2" transform="matrix(15.33333 0 0 11.5 415-125.5)" fill="#1890d0"/></clipPath><clipPath><path transform="matrix(15.33333 0 0 11.5 415-125.5)" d="m-24 13c0 1.105-.672 2-1.5 2-.828 0-1.5-.895-1.5-2 0-1.105.672-2 1.5-2 .828 0 1.5.895 1.5 2" fill="#1890d0"/></clipPath><clipPath><path d="m-24 13c0 1.105-.672 2-1.5 2-.828 0-1.5-.895-1.5-2 0-1.105.672-2 1.5-2 .828 0 1.5.895 1.5 2" transform="matrix(15.33333 0 0 11.5 415-125.5)" fill="#1890d0"/></clipPath><clipPath><path d="m-24 13c0 1.105-.672 2-1.5 2-.828 0-1.5-.895-1.5-2 0-1.105.672-2 1.5-2 .828 0 1.5.895 1.5 2" transform="matrix(15.33333 0 0 11.5 415-125.5)" fill="#1890d0"/></clipPath><linearGradient gradientTransform="matrix(1.4 0 0 1.39991 109.94 1027.47)" gradientUnits="userSpaceOnUse" y2="4.445" x2="0" y1="35.14" id="0"><stop stop-color="#974eb7"/><stop offset="1" stop-color="#d164ff"/></linearGradient></defs><path d="m65.69 1034.21c-11.609 0-21 9.393-21 21 0 11.608 9.391 20.999 21 20.999 11.609 0 21-9.39 21-20.999 0-11.608-9.391-21-21-21" fill="url(#0)" transform="matrix(1.14286 0 0 1.14286-51.08-1181.95)"/><g transform="matrix(-1.04347 0 0 1.04347 134.25 13.14)" enable-background="new" fill="#f3e4fa"><path d="m96.42 19.336l3.261-3.901c.65-.774 1.833-.858 2.637-.186l1.965 1.643c.108-.073.22-.149.338-.23 1.083-.733 2.565-1.738 4.059-3.526 1.499-1.793 2.225-3.432 2.757-4.628.056-.127.11-.249.163-.365l-1.319-1.101-.649-.543c-.805-.673-.931-1.852-.283-2.629l3.261-3.902c.648-.775 1.832-.859 2.637-.186l1.1.925-.025.03c.377.402.704.874.963 1.393.24.494.404.971.503 1.455.823 3.878-.648 7.621-5.075 12.917-6.12 7.32-11.581 7.296-11.817 7.292-.514-.015-1.013-.093-1.526-.242-.551-.16-1.074-.398-1.536-.697l-.02.022-1.112-.91c-.804-.673-.931-1.853-.283-2.63"/><g transform="matrix(-.92216.93748.93748.92216 107.57-38.975)"><path d="m22.466 19.09l1.167 1.167c1.178-1.178 2.745-1.828 4.412-1.828 1.667 0 3.233.649 4.412 1.828l1.167-1.167c-1.49-1.49-3.471-2.311-5.579-2.311-2.108 0-4.089.821-5.579 2.311"/><g><path d="m24.541 21.17l1.167 1.167c.624-.624 1.454-.968 2.337-.968.883 0 1.712.344 2.337.968l1.167-1.167c-.936-.936-2.18-1.451-3.504-1.451-1.324 0-2.568.515-3.504 1.451"/><path d="m28.04 22.994c-.429 0-.858.164-1.185.491-.011.011-.022.023-.033.035l1.218 1.222 1.221-1.218c-.012-.013-.024-.026-.036-.038-.327-.327-.756-.491-1.185-.491"/></g></g></g></svg>