<svg xmlns="http://www.w3.org/2000/svg" viewBox="0 0 48 48"><defs><filter color-interpolation-filters="sRGB"><feGaussianBlur stdDeviation="1.71"/></filter><linearGradient y1="92.54" x2="0" y2="7.02" gradientUnits="userSpaceOnUse" gradientTransform="scale(1.0059.99417)"><stop/><stop offset="1" stop-opacity=".588"/></linearGradient><linearGradient gradientTransform="matrix(1.03458 0 0 1 4.382 0)" id="0" x1="-123.97" y1="73.5" x2="-125.19" y2="-26.05" gradientUnits="userSpaceOnUse"><stop stop-color="#2e3e46"/><stop offset="1" stop-color="#435a64"/></linearGradient></defs><g transform="translate(-384.57-499.8)"><path d="m-170.49-27.421h87.55c3.577 0 6.458 2.783 6.458 6.241v87.978c0 3.457-2.88 6.241-6.457 6.241h-87.55c-3.577 0-6.457-2.783-6.457-6.241v-87.978c0-3.457 2.88-6.241 6.457-6.241" fill="url(#0)" fill-rule="evenodd" transform="matrix(.4778 0 0 .4778 469.11 512.9)"/><path d="m392.69 517.58c3.479-3.121 6.584-8.561 10.189-7.431 5.975 1.546 3.393 12.976 6.788 18.319 4.65-2.622 7.667-8.138 6.414-11-.28-.8.061-2.795-3.757-1.052-.991.452-.95-1.3-.776-1.538 3.534-3.884 5.575-5.504 7.994-5.404 2.034.34 5.611 2.625 4.954 8.106-1.361 8.156-13.336 20.963-17.339 20.491-4.582 1.01-6.912-13.466-10.358-20.266l-3.154 1.22c-1.3.205-1.12-.626-.956-1.445" fill="#e0e3e5"/></g></svg>