<svg xmlns="http://www.w3.org/2000/svg" xmlns:xlink="http://www.w3.org/1999/xlink" viewBox="0 0 48 48"><defs><clipPath><path d="m-24 13c0 1.105-.672 2-1.5 2-.828 0-1.5-.895-1.5-2 0-1.105.672-2 1.5-2 .828 0 1.5.895 1.5 2" transform="matrix(15.33333 0 0 11.5 415-125.5)" fill="#1890d0"/></clipPath><clipPath><path fill="#1890d0" transform="matrix(15.33333 0 0 11.5 415-125.5)" d="m-24 13c0 1.105-.672 2-1.5 2-.828 0-1.5-.895-1.5-2 0-1.105.672-2 1.5-2 .828 0 1.5.895 1.5 2"/></clipPath><clipPath><path transform="matrix(15.33333 0 0 11.5 415-125.5)" d="m-24 13c0 1.105-.672 2-1.5 2-.828 0-1.5-.895-1.5-2 0-1.105.672-2 1.5-2 .828 0 1.5.895 1.5 2" fill="#1890d0"/></clipPath><clipPath><path fill="#1890d0" transform="matrix(15.33333 0 0 11.5 415-125.5)" d="m-24 13c0 1.105-.672 2-1.5 2-.828 0-1.5-.895-1.5-2 0-1.105.672-2 1.5-2 .828 0 1.5.895 1.5 2"/></clipPath><clipPath><path d="m-24 13c0 1.105-.672 2-1.5 2-.828 0-1.5-.895-1.5-2 0-1.105.672-2 1.5-2 .828 0 1.5.895 1.5 2" transform="matrix(15.33333 0 0 11.5 415-125.5)" fill="#1890d0"/></clipPath><clipPath><path d="m-24 13c0 1.105-.672 2-1.5 2-.828 0-1.5-.895-1.5-2 0-1.105.672-2 1.5-2 .828 0 1.5.895 1.5 2" transform="matrix(15.33333 0 0 11.5 415-125.5)" fill="#1890d0"/></clipPath><linearGradient y2="-26.429" x2="0" y1="22.369" gradientUnits="userSpaceOnUse" id="0"><stop stop-color="#d8d8d8"/><stop stop-color="#fff" offset="1"/></linearGradient><linearGradient id="3" x1="316.89" y1="298.34" x2="319.75" y2="151.37" gradientUnits="userSpaceOnUse"><stop stop-color="#494c86"/><stop offset="1" stop-color="#7277d1"/></linearGradient><linearGradient gradientTransform="matrix(1.4 0 0 1.39991 109.94 1027.47)" gradientUnits="userSpaceOnUse" y2="4.445" x2="0" y1="35.14" id="1" xlink:href="#0"/><linearGradient xlink:href="#0" id="2" x1="24.791" y1="47.32" x2="24.2" y2=".483" gradientUnits="userSpaceOnUse"/></defs><path d="m65.69 1034.21c-11.609 0-21 9.393-21 21 0 11.608 9.391 20.999 21 20.999 11.609 0 21-9.39 21-20.999 0-11.608-9.391-21-21-21" fill="url(#1)" transform="matrix(1.14286 0 0 1.14286-51.08-1181.95)"/><path d="m349.6 176.78c54 34.688 106.4.671 106.4.671-13.469 58.906-27.26 119.35-138.43 125.92-78.94-15.913-116.06-76.56-114.33-117.47 17.767-1.656 42.05-5.469 50.36-10.219 20-11.405 42-33.593 96 1.095" fill="url(#3)" transform="matrix(.18959 0 0 .18959-38.35-9.58)"/><path d="m24 .68c-12.892 0-23.32 10.431-23.32 23.321 0 12.891 10.428 23.318 23.32 23.318 12.892 0 23.32-10.428 23.32-23.318 0-12.891-10.428-23.321-23.32-23.321z" fill="none" stroke="url(#2)" stroke-width="1.36"/></svg>