<svg xmlns="http://www.w3.org/2000/svg" viewBox="0 0 48 48"><defs><clipPath><path transform="matrix(15.33333 0 0 11.5 415-125.5)" d="m-24 13c0 1.105-.672 2-1.5 2-.828 0-1.5-.895-1.5-2 0-1.105.672-2 1.5-2 .828 0 1.5.895 1.5 2" fill="#1890d0"/></clipPath><clipPath id="1"><path transform="matrix(15.33333 0 0 11.5 415-125.5)" d="m-24 13c0 1.105-.672 2-1.5 2-.828 0-1.5-.895-1.5-2 0-1.105.672-2 1.5-2 .828 0 1.5.895 1.5 2" fill="#1890d0"/></clipPath><clipPath><path d="m69.63 12.145h-.052c-22.727-.292-46.47 4.077-46.709 4.122-2.424.451-4.946 2.974-5.397 5.397-.044.237-4.414 23.983-4.122 46.71-.292 22.777 4.078 46.523 4.122 46.761.451 2.423 2.974 4.945 5.398 5.398.237.044 23.982 4.413 46.709 4.121 22.779.292 46.524-4.077 46.761-4.121 2.423-.452 4.946-2.976 5.398-5.399.044-.236 4.413-23.981 4.121-46.709.292-22.777-4.077-46.523-4.121-46.761-.453-2.423-2.976-4.946-5.398-5.397-.238-.045-23.984-4.414-46.71-4.122"/></clipPath><clipPath><path transform="matrix(15.33333 0 0 11.5 415-125.5)" d="m-24 13c0 1.105-.672 2-1.5 2-.828 0-1.5-.895-1.5-2 0-1.105.672-2 1.5-2 .828 0 1.5.895 1.5 2" fill="#1890d0"/></clipPath><clipPath><path transform="matrix(15.33333 0 0 11.5 415-125.5)" d="m-24 13c0 1.105-.672 2-1.5 2-.828 0-1.5-.895-1.5-2 0-1.105.672-2 1.5-2 .828 0 1.5.895 1.5 2" fill="#1890d0"/></clipPath><linearGradient id="0" x1="-10.767" y1="4.675" x2="-11.233" y2="-22.851" gradientUnits="userSpaceOnUse" gradientTransform="matrix(1.77384 0 0 1.71427 42.46 39.38)"><stop stop-color="#e3e3e3"/><stop offset="1" stop-color="#fcf9f9"/></linearGradient><linearGradient id="2" x1="23.262" y1="46" x2="22.869" y2=".558" gradientUnits="userSpaceOnUse"><stop stop-color="#ff433a"/><stop stop-color="#ff9436" offset="1"/></linearGradient></defs><g enable-background="new"><rect height="48" width="48" rx="3.085" fill="url(#0)" stroke-width="1.714"/></g><g transform="matrix(1.30769 0 0 1.30769-7.382-7.385)"><g clip-path="url(#1)"><path d="m19.527 7c-1.578 0-2.85 1.286-2.85 2.875 0 1.109.628 2.059 1.539 2.539l-.918 6.555c-.144-.007-.286-.021-.432-.021-4.735 0-8.563 3.862-8.563 8.629 0 4.767 3.838 8.633 8.563 8.633 2.169 0 4.141-.818 5.648-2.156l.871 3.459c-.489.347-.809.92-.809 1.572 0 1.058.846 1.916 1.898 1.916 1.053 0 1.9-.858 1.9-1.916 0-1.063-.848-1.92-1.9-1.92-.093 0-.182.014-.271.027l-.973-3.855c1.361-1.529 2.195-3.543 2.195-5.76 0-.05-.007-.099-.008-.148l5.68-4.711c.864 1.198 2.257 1.982 3.84 1.982 2.631 0 4.756-2.146 4.756-4.797 0-2.645-2.127-4.791-4.756-4.791-2.631 0-4.756 2.146-4.756 4.791 0 .698.155 1.357.42 1.955l-5.287 4.385c-.267-1.735-1.044-3.295-2.176-4.525l.615-1.672c.298.136.626.217.973.217 1.312 0 2.375-1.073 2.375-2.396 0-1.323-1.067-2.395-2.375-2.395-1.317 0-2.381 1.071-2.381 2.395 0 .592.223 1.129.578 1.547l-.568 1.545c-1.15-.97-2.558-1.632-4.104-1.887l.889-6.357c.127.017.253.039.385.039 1.578 0 2.855-1.288 2.855-2.877 0-1.589-1.277-2.875-2.855-2.875" transform="matrix(.76471 0 0 .76471 5.645 5.647)" fill="url(#2)"/></g></g></svg>