<?xml version="1.0" encoding="UTF-8" standalone="no"?>
<svg
   xmlns:dc="http://purl.org/dc/elements/1.1/"
   xmlns:cc="http://creativecommons.org/ns#"
   xmlns:rdf="http://www.w3.org/1999/02/22-rdf-syntax-ns#"
   xmlns:svg="http://www.w3.org/2000/svg"
   xmlns="http://www.w3.org/2000/svg"
   xmlns:sodipodi="http://sodipodi.sourceforge.net/DTD/sodipodi-0.dtd"
   xmlns:inkscape="http://www.inkscape.org/namespaces/inkscape"
   viewBox="0 0 48 48"
   version="1.1"
   id="svg20"
   sodipodi:docname="vivaldi.svg"
   inkscape:version="0.92.1 r15371">
  <metadata
     id="metadata24">
    <rdf:RDF>
      <cc:Work
         rdf:about="">
        <dc:format>image/svg+xml</dc:format>
        <dc:type
           rdf:resource="http://purl.org/dc/dcmitype/StillImage" />
      </cc:Work>
    </rdf:RDF>
  </metadata>
  <sodipodi:namedview
     pagecolor="#ffffff"
     bordercolor="#666666"
     borderopacity="1"
     objecttolerance="10"
     gridtolerance="10"
     guidetolerance="10"
     inkscape:pageopacity="0"
     inkscape:pageshadow="2"
     inkscape:window-width="1366"
     inkscape:window-height="695"
     id="namedview22"
     showgrid="false"
     inkscape:zoom="4.9166667"
     inkscape:cx="4.6779665"
     inkscape:cy="24"
     inkscape:window-x="0"
     inkscape:window-y="0"
     inkscape:window-maximized="1"
     inkscape:current-layer="svg20" />
  <defs
     id="defs12">
    <linearGradient
       id="0"
       y1="44.725"
       x2="0"
       y2="12.725"
       gradientUnits="userSpaceOnUse">
      <stop
         stop-color="#e2e2e2"
         id="stop2" />
      <stop
         offset="1"
         stop-color="#fff"
         id="stop4" />
    </linearGradient>
    <linearGradient
       gradientUnits="userSpaceOnUse"
       y2="-26.05"
       x2="-125.19"
       y1="73.5"
       x1="-123.97"
       id="1"
       gradientTransform="matrix(0.49433,0,0,0.4778,135.02,17.227)">
      <stop
         stop-color="#dc3c30"
         id="stop7" />
      <stop
         offset="1"
         stop-color="#ff786d"
         id="stop9" />
    </linearGradient>
  </defs>
  <g
     transform="matrix(0.91472054,-0.08974901,0.08377133,0.91242675,-44.351729,5.0432419)"
     id="g18"
     style="enable-background:new">
    <rect
       width="48"
       height="48"
       x="48.369999"
       y="4.125"
       rx="2.9820001"
       id="rect14"
       style="fill:url(#1);fill-rule:evenodd" />
    <path
       d="m 85.46,12.725 c -0.695,10e-5 -1.399,0.146 -1.962,0.43 -0.823,0.414 -1.652,1.292 -2.02,2.139 -0.391,0.9 -0.447,2.488 -0.118,3.331 0.139,0.357 0.379,0.97 0.534,1.362 0.348,0.886 0.474,2.836 0.253,3.931 -0.249,1.233 -1.022,2.657 -1.928,3.552 -2.719,2.686 -6.829,2.733 -9.529,0.109 -0.932,-0.906 -1.064,-1.122 -5.27,-8.628 -1.428,-2.548 -2.709,-4.682 -2.976,-4.958 -0.836,-0.884 -1.998,-1.201 -3.062,-1.206 -2.288,-0.037 -3.874,1.753 -4.25,3.675 -0.278,1.538 -0.406,1.273 6.985,14.444 4.665,8.313 6.882,12.145 7.246,12.522 1.288,1.334 3.123,1.665 4.84,0.872 0.451,-0.208 0.962,-0.583 1.289,-0.945 0.639,-0.709 13.862,-24.18 14.08,-24.989 0.225,-0.846 0.169,-2.049 -0.134,-2.881 -0.376,-1.035 -1.415,-2.097 -2.439,-2.494 -0.46,-0.178 -0.995,-0.266 -1.536,-0.265"
       id="path16"
       style="fill:url(#0)"
       inkscape:connector-curvature="0" />
  </g>
</svg>
