<svg xmlns="http://www.w3.org/2000/svg" viewBox="0 0 48 48"><defs><clipPath id="1"><path transform="matrix(15.33333 0 0 11.5 415-125.5)" d="m-24 13c0 1.105-.672 2-1.5 2-.828 0-1.5-.895-1.5-2 0-1.105.672-2 1.5-2 .828 0 1.5.895 1.5 2" fill="#1890d0"/></clipPath><linearGradient id="0" x1="61.57" y1="22.939" x2="60.753" y2="-27.706" gradientUnits="userSpaceOnUse"><stop stop-color="#ff9300"/><stop offset="1" stop-color="#ffd702"/></linearGradient></defs><path d="m41.36-25.875h42.04c1.652 0 2.982 1.33 2.982 2.982v42.04c0 1.652-1.33 2.982-2.982 2.982h-42.04c-1.652 0-2.982-1.33-2.982-2.982v-42.04c0-1.652 1.33-2.982 2.982-2.982" transform="matrix(.99999 0 0 .99999-38.38 25.875)" fill="url(#0)" fill-rule="evenodd"/><g transform="matrix(1.5 0 0 1.5-12-12)" fill="#342300"><g clip-path="url(#1)"><path d="m14 12c-1 0-2 1-2 2v7c0 1 1 2 2 2 1 0 2-1 2-2v-3l2 2v3h3v-1c-.031-.664.301-.996 1-1h1v-3h-3l-2-2h3c1 0 2-1 2-2 0-1-1-2-2-2m6 0c-1 0-2 1-2 2 0 1 1 2 2 2h3l-2 2h-3v3h1c.664-.031.996.301 1 1v1h3v-3l2-2v3c0 1 1 2 2 2 1 0 2-1 2-2v-7c0-1-1-2-2-2m-16 13v3c0 1 1 2 2 2h3v-3h-1c-.664.031-.996-.301-1-1v-1m6 0v1c.031.664-.301.996-1 1h-1v3h3l2 2h-3c-1 0-2 1-2 2 0 1 1 2 2 2h7c1 0 2-1 2-2v-7c0-1-1-2-2-2-1 0-2 1-2 2v3l-2-2v-3"/></g></g></svg>