<svg xmlns="http://www.w3.org/2000/svg" xmlns:xlink="http://www.w3.org/1999/xlink" viewBox="0 0 48 48"><defs><clipPath><path d="m-24 13c0 1.105-.672 2-1.5 2-.828 0-1.5-.895-1.5-2 0-1.105.672-2 1.5-2 .828 0 1.5.895 1.5 2" transform="matrix(15.33333 0 0 11.5 415-125.5)" fill="#1890d0"/></clipPath><clipPath><path fill="#1890d0" transform="matrix(15.33333 0 0 11.5 415-125.5)" d="m-24 13c0 1.105-.672 2-1.5 2-.828 0-1.5-.895-1.5-2 0-1.105.672-2 1.5-2 .828 0 1.5.895 1.5 2"/></clipPath><clipPath><path transform="matrix(15.33333 0 0 11.5 415-125.5)" d="m-24 13c0 1.105-.672 2-1.5 2-.828 0-1.5-.895-1.5-2 0-1.105.672-2 1.5-2 .828 0 1.5.895 1.5 2" fill="#1890d0"/></clipPath><clipPath><path fill="#1890d0" transform="matrix(15.33333 0 0 11.5 415-125.5)" d="m-24 13c0 1.105-.672 2-1.5 2-.828 0-1.5-.895-1.5-2 0-1.105.672-2 1.5-2 .828 0 1.5.895 1.5 2"/></clipPath><clipPath><path d="m-24 13c0 1.105-.672 2-1.5 2-.828 0-1.5-.895-1.5-2 0-1.105.672-2 1.5-2 .828 0 1.5.895 1.5 2" transform="matrix(15.33333 0 0 11.5 415-125.5)" fill="#1890d0"/></clipPath><clipPath><path d="m-24 13c0 1.105-.672 2-1.5 2-.828 0-1.5-.895-1.5-2 0-1.105.672-2 1.5-2 .828 0 1.5.895 1.5 2" transform="matrix(15.33333 0 0 11.5 415-125.5)" fill="#1890d0"/></clipPath><linearGradient y2="-26.429" x2="0" y1="22.369" gradientUnits="userSpaceOnUse" id="0"><stop stop-color="#d8d8d8"/><stop stop-color="#fff" offset="1"/></linearGradient><linearGradient id="3" x1="158.39" y1="590.84" x2="151.42" y2="342.04" gradientUnits="userSpaceOnUse"><stop stop-color="#016ed4"/><stop stop-color="#00b1ff" offset="1"/></linearGradient><linearGradient gradientTransform="matrix(1.4 0 0 1.39991 109.94 1027.47)" gradientUnits="userSpaceOnUse" y2="4.445" x2="0" y1="35.14" id="1" xlink:href="#0"/><linearGradient xlink:href="#0" id="2" x1="24.791" y1="47.32" x2="24.2" y2=".483" gradientUnits="userSpaceOnUse"/></defs><path d="m65.69 1034.21c-11.609 0-21 9.393-21 21 0 11.608 9.391 20.999 21 20.999 11.609 0 21-9.39 21-20.999 0-11.608-9.391-21-21-21" fill="url(#1)" transform="matrix(1.14286 0 0 1.14286-51.08-1181.95)"/><path d="m24 .68c-12.892 0-23.32 10.431-23.32 23.321 0 12.891 10.428 23.318 23.32 23.318 12.892 0 23.32-10.428 23.32-23.318 0-12.891-10.428-23.321-23.32-23.321z" fill="none" stroke="url(#2)" stroke-width="1.36"/><path d="m204.78 503.28l-10.997 39.613c-.13.475-.407.893-.778 1.21l-33.812 28.18c-.441.363-.981.555-1.536.555-.242 0-.467-.035-.701-.107-.778-.24-1.378-.85-1.604-1.628l-11.614-39.998c-8.463.342-15.932-1.599-22.08-5.83l-15.39 12.669c-.976.799-2.397.718-3.271-.201l-11.427-12.05c-.441-.466-.675-1.094-.657-1.744 0-.645.303-1.257.778-1.693l15.236-14c-1.301-3.556-3.634-12.416-1.161-25.897l-39.16-14.327c-.761-.278-1.331-.923-1.514-1.714-.19-.791 0-1.62.605-2.21l30.32-31.92c.355-.372.813-.62 1.318-.714l39.937-7.155c7.516-8.706 16.26-17.516 25.998-26.2 56.07-49.999 99.91-57.46 121.04-57.46 6.957 0 10.792.846 10.953.88.951.214 1.676.983 1.843 1.945.424 2.488 9.546 61.762-67.43 138.9-.104.099-10.421 10.121-24.893 20.905zm-3.639-43.12c13.394 0 24.25-10.878 24.25-24.299 0-13.421-10.855-24.299-24.25-24.299-13.393 0-24.25 10.878-24.25 24.299 0 13.421 10.856 24.299 24.25 24.299m-91.27 86.92c.519-.513 1.275-.718 1.988-.543.709.176 1.284.701 1.514 1.393l5.516 16.417c.268.786.087 1.654-.545 2.227l-26.16 25.05c-.398.381-.925.594-1.476.594h-22.05c-.87 0-1.65-.53-1.979-1.334-.32-.808-.13-1.731.493-2.338l42.693-41.468m-29.21-13.387c.407-.423.964-1.312 1.544-1.312h.086c.605 0 1.165.932 1.557 1.389l9.482 11.643c.727.842.683 2.099-.086 2.894l-42.26 43.28c-.398.41-.951.641-1.522.641h-6.987-2.133c-1.177 0-2.133-.957-2.133-2.137v-10.232c0-.547.216-1.402.588-1.799l41.899-44.36zm-41.844 5.266l30.536-29.825c.709-.697 1.804-.804 2.628-.273l12.502 7.933c.554.35.908.928.976 1.573.087.645-.156 1.291-.623 1.748l-43.04 42.776c-.407.406-.956.62-1.506.62-.277 0-.554-.052-.822-.167-.787-.329-1.305-1.107-1.305-1.97v-20.888c0-.573.234-1.128.64-1.526z" fill="url(#3)" transform="matrix(.10954 0 0 .10954 5.108-26.694)"/></svg>