<svg xmlns="http://www.w3.org/2000/svg" xmlns:xlink="http://www.w3.org/1999/xlink" viewBox="0 0 48 48"><defs><clipPath><path d="m-24 13c0 1.105-.672 2-1.5 2-.828 0-1.5-.895-1.5-2 0-1.105.672-2 1.5-2 .828 0 1.5.895 1.5 2" transform="matrix(15.33333 0 0 11.5 415-125.5)" fill="#1890d0"/></clipPath><clipPath><path d="m-24 13c0 1.105-.672 2-1.5 2-.828 0-1.5-.895-1.5-2 0-1.105.672-2 1.5-2 .828 0 1.5.895 1.5 2" transform="matrix(15.33333 0 0 11.5 415-125.5)" fill="#1890d0"/></clipPath><clipPath><path transform="matrix(15.33333 0 0 11.5 415-125.5)" d="m-24 13c0 1.105-.672 2-1.5 2-.828 0-1.5-.895-1.5-2 0-1.105.672-2 1.5-2 .828 0 1.5.895 1.5 2" fill="#1890d0"/></clipPath><clipPath><path transform="matrix(15.33333 0 0 11.5 415-125.5)" d="m-24 13c0 1.105-.672 2-1.5 2-.828 0-1.5-.895-1.5-2 0-1.105.672-2 1.5-2 .828 0 1.5.895 1.5 2" fill="#1890d0"/></clipPath><clipPath><path d="m69.63 12.145h-.052c-22.727-.292-46.47 4.077-46.709 4.122-2.424.451-4.946 2.974-5.397 5.397-.044.237-4.414 23.983-4.122 46.71-.292 22.777 4.078 46.523 4.122 46.761.451 2.423 2.974 4.945 5.398 5.398.237.044 23.982 4.413 46.709 4.121 22.779.292 46.524-4.077 46.761-4.121 2.423-.452 4.946-2.976 5.398-5.399.044-.236 4.413-23.981 4.121-46.709.292-22.777-4.077-46.523-4.121-46.761-.453-2.423-2.976-4.946-5.398-5.397-.238-.045-23.984-4.414-46.71-4.122"/></clipPath><clipPath><path transform="matrix(15.33333 0 0 11.5 415-125.5)" d="m-24 13c0 1.105-.672 2-1.5 2-.828 0-1.5-.895-1.5-2 0-1.105.672-2 1.5-2 .828 0 1.5.895 1.5 2" fill="#1890d0"/></clipPath><clipPath><path transform="matrix(15.33333 0 0 11.5 415-125.5)" d="m-24 13c0 1.105-.672 2-1.5 2-.828 0-1.5-.895-1.5-2 0-1.105.672-2 1.5-2 .828 0 1.5.895 1.5 2" fill="#1890d0"/></clipPath><linearGradient gradientUnits="userSpaceOnUse" y2="545.9" x2="438.09" y1="564.01" x1="438.19" id="2" xlink:href="#1"/><linearGradient id="0" x1="-10.767" y1="4.675" x2="-11.233" y2="-22.851" gradientUnits="userSpaceOnUse" gradientTransform="matrix(1.77384 0 0 1.71427 42.46 39.38)"><stop stop-color="#0e2732"/><stop offset="1" stop-color="#1b5571"/></linearGradient><linearGradient gradientUnits="userSpaceOnUse" y2="536.93" x2="443.01" y1="561.73" x1="444.73" id="3" xlink:href="#1"/><linearGradient id="1" y1="551.67" x2="0" y2="528.33" gradientUnits="userSpaceOnUse"><stop stop-color="#197ff1"/><stop offset="1" stop-color="#21c6fb"/></linearGradient></defs><g enable-background="new"><rect height="48" width="48" rx="3.085" fill="url(#0)" stroke-width="1.714"/></g><g transform="matrix(1.24675 0 0 1.24675-522.33-663.12)"><path d="m438.198 538.29016a12.619907 12.619907 0 0 0 -12.61994 12.61994 12.619907 12.619907 0 0 0 .27838 2.56658 9.316917 9.316917 0 0 1 9.29265 -8.83462 9.316917 9.316917 0 0 1 9.31695 9.31696 9.316917 9.316917 0 0 1 -1.42596 4.92743c1.482.14 3.383.106 5.191-.337a12.619907 12.619907 0 0 0 2.58716 -7.63891 12.619907 12.619907 0 0 0 -12.61994 -12.61994" fill="url(#3)"/><path d="m428.83 549.85c-1.124 1.463-1.735 3.198-1.737 4.937 0 2.399 1.183 4.784 3.216 6.481 2.033 1.697 4.889 2.684 7.764 2.684 1.753-.0001 3.505-.359 5.061-1.035 1.556-.676 2.912-1.668 3.92-2.866-1.757.208-3.584-.044-5.175-.713-1.591-.67-2.939-1.754-3.818-3.071-1.132-1.386-1.704-3.1-1.597-4.787.107-1.688.891-3.339 2.191-4.612-4.33-.893-7.501.186-9.823 2.983" fill="url(#2)"/></g></svg>