<svg xmlns="http://www.w3.org/2000/svg" viewBox="0 0 48 48"><defs><linearGradient id="0" x1="67.4" y1="24.832" x2="66.71" y2="-20.09" gradientUnits="userSpaceOnUse"><stop stop-color="#f16419"/><stop offset="1" stop-color="#feb600"/></linearGradient></defs><g transform="matrix(.99999 0 0 .99999-43.37 20.882)" enable-background="new"><circle cx="67.37" cy="3.125" r="24" fill="url(#0)" fill-rule="evenodd"/><g fill="#fff" fill-opacity=".855"><path d="m66.828-5.545c-.235-.809-1.026-1.337-2.273-1.52-.993-.145-3.737-.0001-8.896.465-3.635.329-3.63.328-3.843.749-.095.188-.1.749-.086 9.825l.015 9.625.14.149c.253.269.406.275 2.309.092 6.134-.59 9.596-.767 10.684-.548.536.108 1.18.395 1.484.662.224.197.486.646.511.875.008.072.021-4.415.029-9.972.013-8.874.004-10.14-.072-10.403"/><path d="m68.05 14.381c.25-.486.97-.916 1.821-1.088 1.129-.228 4.913-.024 11.284.606 1.261.125 1.468.107 1.709-.15l.14-.149.015-9.625c.014-9.08.009-9.636-.086-9.825-.136-.269-.371-.392-.882-.461-.591-.08-5.142-.49-7.136-.642-2.175-.166-4.627-.183-5.2-.035-.832.214-1.417.622-1.692 1.182l-.162.329-.009 10.22c-.005 5.621.001 10.142.034 10.05.023-.095.097-.279.164-.408"/></g></g></svg>