<svg xmlns="http://www.w3.org/2000/svg" xmlns:xlink="http://www.w3.org/1999/xlink" viewBox="0 0 48 48"><defs><use xlink:href="#W" fill="#fff" opacity=".2" id="E"/><use xlink:href="#W" fill="none" id="F"/><use xlink:href="#W" fill="none" id="G"/><use xlink:href="#W" fill="none" id="H"/><use xlink:href="#W" fill="none" id="I"/><use xlink:href="#W" fill="none" id="J"/><use xlink:href="#W" fill="none" id="K"/><use xlink:href="#W" fill="none" id="L"/><use xlink:href="#W" fill="none" id="M"/><use xlink:href="#W" fill="none" id="N"/><use xlink:href="#W" fill="none" id="O"/><use xlink:href="#W" fill="none" id="P"/><use xlink:href="#W" fill="none" id="Q"/><use xlink:href="#W" fill="none" id="R"/><path color="#000" d="m296 26a10 10 0 1 1 -20 0 10 10 0 1 1 20 0" id="W"/><clipPath><rect rx="6" color="#bebebe" fill="url(#7)" y="37" x="433" height="30" width="30"/></clipPath><clipPath><use xlink:href="#P"/></clipPath><clipPath><use xlink:href="#O"/></clipPath><clipPath><use xlink:href="#O" transform="matrix(8 0 0 8-2141.58-54.42)"/></clipPath><clipPath><use xlink:href="#P" transform="matrix(8 0 0 8-2141.58-54.42)"/></clipPath><clipPath><use xlink:href="#Q"/></clipPath><clipPath><use xlink:href="#R" transform="matrix(8 0 0 8-2141.58-54.42)"/></clipPath><clipPath><use xlink:href="#Q" transform="matrix(8 0 0 8-2141.58-54.42)"/></clipPath><clipPath><use xlink:href="#R"/></clipPath><clipPath><use xlink:href="#N" transform="matrix(8 0 0 8-2141.58-54.42)"/></clipPath><clipPath><use xlink:href="#N"/></clipPath><clipPath><rect rx="18" color="#bebebe" fill="url(#B)" y="32" x="292" height="88" width="88"/></clipPath><clipPath><rect rx="3" color="#bebebe" fill="url(#8)" transform="matrix(0 1-1 0 0 0)" y="212" x="304" height="16" width="16"/></clipPath><clipPath><rect rx="12.5" color="#bebebe" fill="url(#A)" width="60" height="60" x="290" y="142"/></clipPath><clipPath><rect rx="5" color="#bebebe" fill="url(#C)" width="22" height="22" x="417" y="101"/></clipPath><clipPath><rect rx="7" color="#bebebe" fill="url(#D)" y="53" x="417" height="30" width="30"/></clipPath><clipPath><use xlink:href="#M" transform="matrix(8 0 0 8-2141.58-54.42)"/></clipPath><clipPath><use xlink:href="#L" transform="matrix(8 0 0 8-2141.58-54.42)"/></clipPath><clipPath><use xlink:href="#M"/></clipPath><clipPath><path d="m296 26a10 10 0 1 1 -20 0 10 10 0 1 1 20 0"/></clipPath><clipPath><rect color="#bebebe" width="20" x="434" y="78" rx="4" height="20"/></clipPath><clipPath><rect color="#bebebe" fill="#986767" width="240" x="24" y="36" rx="50" height="240"/></clipPath><clipPath><path d="m98.03 23.19c-41.492 1.052-74.844 35.07-74.844 76.81 0 42.41 34.406 76.81 76.81 76.81 42.41 0 76.81-34.406 76.81-76.81 0-42.41-34.406-76.81-76.81-76.81-.663 0-1.31-.017-1.969 0m1.969 27.469c27.24 0 49.34 22.1 49.34 49.34 0 27.24-22.1 49.34-49.34 49.34-27.24 0-49.34-22.1-49.34-49.34 0-27.24 22.1-49.34 49.34-49.34"/></clipPath><clipPath><rect color="#bebebe" fill="#6d6d6d" opacity=".2" width="16" x="432" y="116" rx="2" height="16"/></clipPath><clipPath><rect color="#bebebe" fill="url(#S)" width="42" x="307" y="223" rx="9" height="42" transform="matrix(0 1-1 0 0 0)"/></clipPath><clipPath><path d="m144 48l-23.594 55.06-55.59-22.25 22.25 55.59-55.06 23.594 55.06 23.594-22.25 55.59 55.59-22.25 23.594 55.06 23.594-55.06 55.59 22.25-22.25-55.59 55.06-23.594-55.06-23.594 22.25-55.59-55.59 22.25-23.594-55.06m-23.19 56h46.37l32.813 32.813v46.37l-32.813 32.813h-46.37l-32.813-32.813v-46.37l32.813-32.813"/></clipPath><clipPath><path d="m3058.65 3002.27c-14.89 0-29.94 4.4-43.13 13.52-178.01 123.45-386.8 188.7-603.76 188.7-125.5 0-248.31-21.67-365-64.43-39.31-14.41-82.83 5.8-97.24 45.1-14.4 39.32 5.78 82.85 45.1 97.25 133.45 48.9 273.8 73.67 417.14 73.67 247.98 0 486.64-74.6 690.13-215.72 34.42-23.85 42.95-71.06 19.12-105.45-14.73-21.23-38.35-32.64-62.36-32.64"/></clipPath><clipPath><path d="m3369.85 3687.72c-16.29 0-32.8 4.21-47.88 13.08-274.98 161.5-589.72 246.88-910.21 246.88-173.15 0-344.61-24.65-509.62-73.28-50.25-14.79-102.87 13.93-117.67 64.11-14.77 50.2 13.93 102.88 64.12 117.66 182.42 53.74 371.89 80.99 563.17 80.99 354.19 0 702.15-94.39 1006.18-272.98 45.13-26.5 60.22-84.55 33.72-129.68-17.66-30.05-49.31-46.78-81.81-46.78"/></clipPath><clipPath><path d="m3213.98 3344.37c-15.44 0-31.06 4.19-45.1 12.98-226.76 141.73-488.58 216.65-757.12 216.65-149.2 0-296.38-22.94-437.44-68.2-44.84-14.35-92.86 10.31-107.25 55.16-14.38 44.83 10.32 92.85 55.16 107.24 157.92 50.65 322.63 76.35 489.53 76.35 300.53 0 593.59-83.89 847.49-242.58 39.95-24.97 52.07-77.57 27.12-117.51-16.17-25.86-43.97-40.09-72.39-40.09"/></clipPath><clipPath><path d="m145 215c33.14 0 60-26.863 60-60 0-33.14-26.863-60-60-60-33.14 0-60 26.863-60 60 0 12.507 3.829 24.11 10.375 33.719l-6.375 22.281 22.281-6.375c9.612 6.547 21.21 10.375 33.719 10.375"/></clipPath><clipPath><rect color="#bebebe" width="16" x="432" y="116" rx="3" height="16"/></clipPath><clipPath><rect color="#bebebe" width="30" x="433" y="29" rx="6" height="30"/></clipPath><clipPath><rect color="#bebebe" width="22" x="433" y="77" rx="4" height="22"/></clipPath><clipPath><rect color="#bebebe" width="22" x="433" y="77" rx="5" height="22"/></clipPath><clipPath><rect color="#bebebe" fill="url(#V)" width="60" x="306" y="142" rx="12.5" height="60" transform="matrix(0-1 1 0 0 0)"/></clipPath><clipPath><path d="m152 204a8 8 0 1 1 -16 0 8 8 0 1 1 16 0"/></clipPath><clipPath><rect color="#bebebe" fill="url(#U)" width="90" x="307" y="31" rx="18.75" height="90"/></clipPath><clipPath><path d="m144 70c-49.706 0-90 40.29-90 90 0 49.706 40.29 90 90 90 49.706 0 90-40.29 90-90 0-49.706-40.29-90-90-90m0 32.19c32.03 0 58 25.967 58 58 0 32.03-25.967 58-58 58-32.03 0-58-25.967-58-58 0-32.03 25.967-58 58-58"/></clipPath><clipPath><rect color="#bebebe" fill="#6d6d6d" opacity=".2" width="30" x="433" y="29" rx="4" height="30"/></clipPath><clipPath><rect color="#bebebe" fill="#6d6d6d" opacity=".2" width="22" x="433" y="77" rx="3" height="22"/></clipPath><clipPath><rect rx="50" color="#bebebe" fill="url(#9)" width="220" height="220" x="34" y="46"/></clipPath><clipPath><rect rx="18" color="#bebebe" fill="url(#B)" y="32" x="292" height="88" width="88"/></clipPath><clipPath><use xlink:href="#F"/></clipPath><clipPath><rect rx="5" color="#bebebe" fill="url(#C)" width="22" height="22" x="417" y="101"/></clipPath><clipPath><use transform="matrix(8 0 0 8-2141.58-54.42)" xlink:href="#E"/></clipPath><clipPath><use xlink:href="#E"/></clipPath><clipPath><rect rx="7" color="#bebebe" fill="url(#D)" y="53" x="417" height="30" width="30"/></clipPath><clipPath><rect rx="12.5" color="#bebebe" fill="url(#A)" width="60" height="60" x="290" y="142"/></clipPath><clipPath><path transform="matrix(15.33333 0 0 11.5 415-125.5)" d="m-24 13c0 1.105-.672 2-1.5 2-.828 0-1.5-.895-1.5-2 0-1.105.672-2 1.5-2 .828 0 1.5.895 1.5 2" fill="#1890d0"/></clipPath><clipPath><path d="m489.22 197.28c-2.603 0-3.953-1.367-3.953-3.971v-1.034c0-2.604 1.35-3.971 3.953-3.971h1.035c2.62 0 3.97 1.367 3.97 3.971v1.034c0 2.604-1.35 3.971-3.97 3.971h-1.035"/></clipPath><clipPath><rect rx="50" color="#bebebe" fill="url(#9)" width="220" height="220" x="34" y="46"/></clipPath><clipPath><rect rx="9" color="#bebebe" fill="url(#5)" transform="matrix(0 1-1 0 0 0)" width="42" height="42" x="307" y="223"/></clipPath><clipPath><rect rx="6" color="#bebebe" fill="url(#7)" y="37" x="433" height="30" width="30"/></clipPath><clipPath><rect rx="3" color="#bebebe" fill="url(#8)" transform="matrix(0 1-1 0 0 0)" y="212" x="304" height="16" width="16"/></clipPath><clipPath><rect rx="4" color="#bebebe" fill="url(#6)" width="22" height="22" x="433" y="85"/></clipPath><clipPath><rect rx="4" color="#bebebe" fill="url(#6)" width="22" height="22" x="433" y="85"/></clipPath><clipPath><use xlink:href="#I" transform="matrix(8 0 0 8-2141.58-54.42)"/></clipPath><clipPath><use xlink:href="#F" transform="matrix(8 0 0 8-2141.58-54.42)"/></clipPath><clipPath><use xlink:href="#I"/></clipPath><clipPath><use xlink:href="#J" transform="matrix(8 0 0 8-2141.58-54.42)"/></clipPath><clipPath><use xlink:href="#K"/></clipPath><clipPath><rect rx="9" color="#bebebe" fill="url(#5)" transform="matrix(0 1-1 0 0 0)" width="42" height="42" x="307" y="223"/></clipPath><clipPath><use xlink:href="#K" transform="matrix(8 0 0 8-2141.58-54.42)"/></clipPath><clipPath><use xlink:href="#L"/></clipPath><clipPath><use xlink:href="#J"/></clipPath><clipPath><use xlink:href="#H" transform="matrix(8 0 0 8-2141.58-54.42)"/></clipPath><clipPath><use xlink:href="#G" transform="matrix(8 0 0 8-2141.58-54.42)"/></clipPath><clipPath><use xlink:href="#H"/></clipPath><clipPath><use xlink:href="#G"/></clipPath><linearGradient y2="52" x2="0" y1="84" gradientUnits="userSpaceOnUse" id="D" xlink:href="#4"/><linearGradient id="2" x1="4.199" y1="12.926" x2="4.065" y2="-6.998" gradientUnits="userSpaceOnUse"><stop stop-color="#3d65cb"/><stop offset="1" stop-color="#4571d1"/></linearGradient><linearGradient y2="223" x2="0" y1="265" gradientUnits="userSpaceOnUse" id="5" xlink:href="#4"/><linearGradient xlink:href="#3" id="0" x1=".152" y1="18.836" x2=".021" y2="7.269" gradientUnits="userSpaceOnUse"/><linearGradient xlink:href="#3" id="1" x1="5.71" y1="18.227" x2="4.751" y2="-6.444" gradientUnits="userSpaceOnUse"/><linearGradient id="3"><stop stop-color="#197cf1"/><stop offset="1" stop-color="#59d0ff"/></linearGradient><linearGradient id="4"><stop stop-color="#f96963"/><stop stop-color="#f96963" offset="1"/></linearGradient><linearGradient y2="85" x2="0" y1="107" gradientUnits="userSpaceOnUse" id="6" xlink:href="#4"/><linearGradient id="U" xlink:href="#T" y1="102.25" y2="49.75" x2="0" gradientUnits="userSpaceOnUse"/><linearGradient id="T"><stop stop-color="#151515"/><stop stop-color="#222" offset="1"/></linearGradient><linearGradient id="V" xlink:href="#T" y1="189.5" y2="154.5" x2="0" gradientUnits="userSpaceOnUse"/><linearGradient y2="28" x2="0" y1="124" gradientUnits="userSpaceOnUse" id="B" xlink:href="#4"/><linearGradient y2="140" x2="0" y1="204" gradientUnits="userSpaceOnUse" id="A" xlink:href="#4"/><linearGradient y2="37" x2="0" y1="67" gradientUnits="userSpaceOnUse" id="7" xlink:href="#4"/><linearGradient id="S" xlink:href="#T" y1="265" y2="223" x2="0" gradientUnits="userSpaceOnUse"/><linearGradient y2="100" x2="0" y1="124" gradientUnits="userSpaceOnUse" id="C" xlink:href="#4"/><linearGradient y2="36" x2="0" y1="276" gradientUnits="userSpaceOnUse" id="9" xlink:href="#4"/><linearGradient y2="212" x2="0" y1="228" gradientUnits="userSpaceOnUse" id="8" xlink:href="#4"/></defs><g transform="matrix(1.71427 0 0 1.71427-69.21 13.512)" enable-background="new"><g transform="translate(49.583)"><path d="m18.792 1.925l-14.1-8.582-13.904 8.592 24.279 16.972h1.759c0 0 1.956-.014 1.962-1.82z" fill="url(#1)"/><path d="m-4.292-5.481h18.319c.963 0 1.738.775 1.738 1.738v7.805l-11.433 7.88-10.363-7.341v-8.344c0-.963.775-1.738 1.738-1.738" fill="url(#2)"/><path d="m-9.208 1.925l24.395 16.972h-22.433c0 0-1.956-.014-1.962-1.82z" fill="url(#0)"/></g><path d="m773.85 193.97l-1.89-1.89c-.259-.259-.574-.389-.945-.389-.371 0-.686.13-.945.389l-9.116 9.13-4.085-4.099c-.259-.259-.574-.389-.945-.389-.371 0-.686.13-.945.389l-1.89 1.89c-.259.259-.389.574-.389.945 0 .37.13.686.389.945l5.03 5.03 1.89 1.89c.259.259.574.389.945.389.37 0 .685-.13.945-.389l1.89-1.89 10.06-10.06c.259-.259.389-.574.389-.945 0-.37-.13-.685-.389-.945" fill="#fff" fill-opacity=".851" transform="matrix(.49472 0 0 .49472-323.32-96.52)"/></g></svg>