<svg xmlns="http://www.w3.org/2000/svg" viewBox="0 0 48 48"><defs><linearGradient gradientUnits="userSpaceOnUse" y2="7.091" x2="22.717" y1="34.836" x1="23.06" id="0"><stop stop-color="#276ad6"/><stop offset="1" stop-color="#41aaff"/></linearGradient></defs><g transform="matrix(1.71427 0 0 1.71427-69.21 13.512)" enable-background="new"><g transform="translate(32.08-14.583)" fill-rule="evenodd"><rect y="6.708" x="8.76" height="28" width="27.06" fill="url(#0)" rx="1.739"/><g fill="#fcfcfc" fill-opacity=".85"><circle r=".976" cy="9.405" cx="11.892"/><circle r=".976" cy="9.405" cx="14.469"/><circle r=".976" cy="9.405" cx="17.07"/></g></g><path d="m-394.85 88.29c-84.49 0-153 68.5-153 153 0 84.5 68.51 153 153 153 84.49 0 153-68.51 153-153 0-84.49-68.5-153-153-153m0 79.16c5.702 0 10.31 4.633 10.31 10.334v109.35l42.583-42.583c4.04-4.03 10.568-4.01 14.618.025 4.04 4.03 4.04 10.554 0 14.593l-58.42 58.45c-2.479 2.468-5.887 3.232-9.09 2.664-3.213.568-6.61-.186-9.09-2.665l-58.42-58.45c-4.04-4.03-4.04-10.554 0-14.593 4.03-4.04 10.554-4.04 14.593 0l42.583 42.558v-109.35c0-5.702 4.633-10.334 10.334-10.334" transform="matrix(0-.05719.05719 0 40.571-14.933)" fill="#e0f0fd"/></g></svg>