<svg xmlns="http://www.w3.org/2000/svg" viewBox="0 0 48 48"><defs><linearGradient gradientTransform="matrix(.49433 0 0 .4778 86.64 13.1)" gradientUnits="userSpaceOnUse" y2="-26.05" x2="-125.19" y1="73.5" x1="-123.97" id="0"><stop stop-color="#197ff1"/><stop offset="1" stop-color="#21c6fb"/></linearGradient><linearGradient y1="545.8" x2="0" y2="517.8" gradientUnits="userSpaceOnUse"><stop stop-color="#3889e9"/><stop offset="1" stop-color="#5ea5fb"/></linearGradient></defs><rect height="48" width="48" fill="url(#0)" fill-rule="evenodd" rx="2.982" stroke-width="1"/><path d="m41.999 33.587c-.002-.347-.076-.404-.665-.519-.861-.167-1.981-.557-2.778-.967-2.073-1.066-3.696-2.832-4.443-4.834-.392-1.052-.525-1.772-.61-3.311-.041-.739-.132-1.616-.202-1.949-.779-3.695-3.506-6.549-7.212-7.549-1.074-.29-3.02-.365-4.124-.159-3.485.647-6.248 2.916-7.528 6.182-.137.35-.276.779-.308.952-.065.351.018.34-.995.132-.696-.143-2.02-.061-2.749.171-1.185.375-2.162 1.022-2.936 1.945-1.601 1.908-1.901 4.583-.763 6.788.634 1.229 1.989 2.461 3.208 2.918 1.163.437.456.419 16.84.426l15.267.007" fill="#fff" fill-opacity=".85"/></svg>