<svg xmlns="http://www.w3.org/2000/svg" xmlns:xlink="http://www.w3.org/1999/xlink" viewBox="0 0 48 48"><defs><linearGradient id="0" gradientUnits="userSpaceOnUse" x1="508.18" y1="993.03" x2="486.06" y2="1.252"><stop stop-color="#ff9300"/><stop offset="1" stop-color="#ffd702"/></linearGradient><linearGradient id="1" x1="508.18" y1="993.03" x2="486.06" y2="1.252" gradientUnits="userSpaceOnUse"><stop stop-color="#212121"/><stop stop-color="#3f3f41" offset="1"/></linearGradient><linearGradient id="2" x1="92.49" y1="-7.661" x2="92.15" y2="-28" gradientUnits="userSpaceOnUse" xlink:href="#0"/></defs><g stroke-width="1.317"><path d="m946.23 206.65c-.3-23-18-42-40.899-44.1-190.3-17.8-345.6-119.5-396.8-156.7-10.7-7.8-25.2-7.8-35.9 0-51.1 37.2-206.4 138.9-396.7 156.7-22.9 2.101-40.5 21.1-40.9 44.1-2.3 150.1 21.8 659.7 444.1 773.1 7.5 2 15.4 2 22.9 0 422.3-113.3 446.4-623 444.2-773.1" transform="matrix(.04696 0 0 .04696.959.958)" fill="url(#1)" stroke="url(#0)" stroke-linejoin="round" stroke-linecap="round" stroke-width="40.883"/></g><g enable-background="new"><path d="m85.57-11.65l.788 3.819 3.819-.788 7.654-11.635-4.607-3.03zm14.944-12.668c.321-.487.189-1.124-.298-1.444l-2.879-1.894c-.487-.321-1.124-.189-1.444.298l-1.581 2.419 4.607 3.03z" fill="url(#2)" transform="matrix(.99999 0 0 .99999-69.13 41.831)"/></g></svg>