<?xml version="1.0" encoding="UTF-8" standalone="no"?>
<svg
   xmlns:dc="http://purl.org/dc/elements/1.1/"
   xmlns:cc="http://creativecommons.org/ns#"
   xmlns:rdf="http://www.w3.org/1999/02/22-rdf-syntax-ns#"
   xmlns:svg="http://www.w3.org/2000/svg"
   xmlns="http://www.w3.org/2000/svg"
   xmlns:sodipodi="http://sodipodi.sourceforge.net/DTD/sodipodi-0.dtd"
   xmlns:inkscape="http://www.inkscape.org/namespaces/inkscape"
   viewBox="0 0 48 48"
   version="1.1"
   id="svg28"
   sodipodi:docname="omegat.svg"
   inkscape:version="0.92.1 r15371">
  <metadata
     id="metadata32">
    <rdf:RDF>
      <cc:Work
         rdf:about="">
        <dc:format>image/svg+xml</dc:format>
        <dc:type
           rdf:resource="http://purl.org/dc/dcmitype/StillImage" />
      </cc:Work>
    </rdf:RDF>
  </metadata>
  <sodipodi:namedview
     pagecolor="#ffffff"
     bordercolor="#666666"
     borderopacity="1"
     objecttolerance="10"
     gridtolerance="10"
     guidetolerance="10"
     inkscape:pageopacity="0"
     inkscape:pageshadow="2"
     inkscape:window-width="1366"
     inkscape:window-height="695"
     id="namedview30"
     showgrid="false"
     inkscape:zoom="4.9166667"
     inkscape:cx="31.423729"
     inkscape:cy="24"
     inkscape:window-x="0"
     inkscape:window-y="0"
     inkscape:window-maximized="1"
     inkscape:current-layer="g26" />
  <defs
     id="defs12">
    <linearGradient
       gradientTransform="matrix(-.55335 0 0 .60252 156.8-274.91)"
       gradientUnits="userSpaceOnUse"
       y2="507.87"
       x2="0"
       y1="546.8"
       id="0">
      <stop
         stop-color="#d3d3d3"
         id="stop2" />
      <stop
         offset="1"
         stop-color="#fcf9f9"
         id="stop4" />
    </linearGradient>
    <linearGradient
       id="1"
       gradientUnits="userSpaceOnUse"
       x1="-61.22"
       y1="55.24"
       x2="-61.43"
       y2="8.868">
      <stop
         stop-color="#00a661"
         id="stop7" />
      <stop
         stop-color="#37ce97"
         offset="1"
         id="stop9" />
    </linearGradient>
  </defs>
  <g
     transform="translate(85.42-8.339)"
     id="g26">
    <path
       d="m-44.5 16.375c-4.526-3.683-10.535-5.711-16.921-5.711-6.386 0-12.395 2.028-16.921 5.711-4.565 3.715-7.079 8.666-7.079 13.943 0 5.04 2.291 9.775 6.469 13.426-.075.17-.135.348-.173.535l-1.373 6.752c-.163.802.057 1.281.269 1.541.246.3.61.466 1.025.466.314 0 .651-.093 1-.276l7.985-4.148c2.764.89 5.736 1.357 8.791 1.357 6.386 0 12.395-2.028 16.921-5.711 4.565-3.715 7.079-8.666 7.079-13.943 0-5.276-2.514-10.227-7.079-13.943"
       fill="url(#1)"
       id="path14" />
    <g
       fill="#11b271"
       id="g24">
      <circle
         cx="-54.745"
         cy="41.625"
         r="2.18"
         id="circle18" />
      <circle
         cx="-49.777"
         cy="41.625"
         r="2.18"
         id="circle20" />
      <circle
         cx="-44.557"
         cy="41.625"
         r="2.18"
         id="circle22" />
    </g>
    <path
       inkscape:connector-curvature="0"
       style="fill:#ffffff"
       d="m -59.910444,46.260859 c -2.860225,0.03416 -5.556026,-0.664775 -7.909151,-1.91984 l -8.996836,2.977682 2.840319,-8.719586 c -1.514072,-2.421599 -2.403681,-5.27198 -2.4402,-8.329731 -0.106764,-8.939547 7.109922,-16.273512 16.119619,-16.381113 9.008587,-0.107588 16.398367,7.051935 16.50513,15.991482 0.106764,8.939547 -7.109553,16.273509 -16.118881,16.381106 z M -60.266278,16.46606 c -7.562782,0.09032 -13.641559,6.268586 -13.551944,13.772297 0.03556,2.977633 1.039134,5.723629 2.707412,7.94768 l -1.652753,5.074131 5.250019,-1.738021 c 2.182734,1.395942 4.786667,2.194194 7.572315,2.160927 7.561676,-0.09031 13.641565,-6.268217 13.551949,-13.771927 -0.08962,-7.503711 -6.31532,-13.535395 -13.876998,-13.445087 z m 8.443998,17.237991 c -0.102396,-0.163834 -0.370151,-0.260335 -0.77163,-0.453832 -0.402585,-0.193483 -2.380436,-1.1303 -2.747892,-1.257736 -0.368568,-0.127793 -0.636301,-0.19143 -0.897753,0.209012 -0.261452,0.400443 -1.017254,1.302703 -1.247799,1.570214 -0.230171,0.267875 -0.462741,0.303886 -0.864963,0.110027 -0.401847,-0.193492 -1.695375,-0.597151 -3.239285,-1.930561 -1.201028,-1.037302 -2.019182,-2.325838 -2.256898,-2.72069 -0.238076,-0.394108 -0.03204,-0.611107 0.165711,-0.81102 0.177677,-0.180104 0.394315,-0.468128 0.591659,-0.702008 0.19734,-0.23425 0.261825,-0.400079 0.391574,-0.666754 0.130489,-0.266317 0.0609,-0.497009 -0.04153,-0.694817 -0.102423,-0.197067 -0.925807,-2.139865 -1.268318,-2.930416 -0.342502,-0.789813 -0.673576,-0.653664 -0.907283,-0.650873 -0.233337,0.0027 -0.500299,-0.02726 -0.766865,-0.02408 -0.266565,0.0031 -0.698826,0.107673 -1.060706,0.50895 -0.361506,0.401638 -1.382706,1.373903 -1.359394,3.325886 0.02332,1.952354 1.477987,3.821515 1.681623,4.083471 0.202897,0.261965 2.817901,4.367891 6.901446,5.908036 4.085018,1.539757 4.07869,1.009949 4.81114,0.935103 0.731344,-0.07483 2.353295,-0.987803 2.676362,-1.918127 0.321581,-0.931046 0.312093,-1.725575 0.210801,-1.889792 z"
       id="path10" />
  </g>
</svg>
