<svg xmlns="http://www.w3.org/2000/svg" viewBox="0 0 48 48"><defs><clipPath id="1"><path d="m-24 13c0 1.105-.672 2-1.5 2-.828 0-1.5-.895-1.5-2 0-1.105.672-2 1.5-2 .828 0 1.5.895 1.5 2" transform="matrix(15.33333 0 0 11.5 415-125.5)" fill="#1890d0"/></clipPath><filter color-interpolation-filters="sRGB"><feGaussianBlur stdDeviation="1.71"/></filter><linearGradient gradientUnits="userSpaceOnUse" y2="-26.05" x2="-125.19" y1="73.5" x1="-123.97" id="0" gradientTransform="matrix(1.03458 0 0 1 4.382 0)"><stop stop-color="#d3d3d3"/><stop offset="1" stop-color="#fcf9f9"/></linearGradient><linearGradient gradientTransform="scale(1.0059.99417)" gradientUnits="userSpaceOnUse" y2="7.02" x2="0" y1="92.54"><stop/><stop offset="1" stop-opacity=".588"/></linearGradient></defs><path d="m-170.49-27.421h87.55c3.577 0 6.458 2.783 6.458 6.241v87.978c0 3.457-2.88 6.241-6.457 6.241h-87.55c-3.577 0-6.457-2.783-6.457-6.241v-87.978c0-3.457 2.88-6.241 6.457-6.241" fill="url(#0)" fill-rule="evenodd" transform="matrix(.4778 0 0 .4778 84.55 13.1)"/><g transform="matrix(1.0384 0 0 1.0384-.915 1.542)"><g clip-path="url(#1)"><path d="m23.04 7c-.004 0-.021.041-.033.09-.048.187-.25.884-.412 1.391-.568 1.793-1.213 3.415-1.83 4.596-.374.702-.667 1.16-1.061 1.635-.198.227-.239.292-.283.381-.07.138-.031.2.127.18.142-.016.494-.134 1.35-.459.751-.279.861-.319.861-.295 0 .04.165.64.246.867.576 1.757 1.501 3.01 2.896 3.943.597.398 1.164.685 2.227 1.119 1.558.637 1.855.774 2.346 1.078.215.137.494.345.494.369 0 .012-.181.203-.404.426l-.41.41-.455-.457c-.292-.289-.472-.456-.484-.447-.024.004-.311 1.025-.943 3.402-.004.011 0 .029.023.029.029 0 3.188-.849 3.395-.914.011-.007.025-.015.025-.027 0-.012-.2-.224-.447-.471-.252-.247-.451-.463-.451-.467 0-.029.804-.83.828-.83.025 0 .235.246.438.51 1.01 1.295 1.644 2.86 1.811 4.479.048.442.047.499.023.512-.032.028-1.139.02-1.16-.004-.021-.012-.021-.188-.021-.662 0-.628.0001-.641-.035-.633-.049.016-3.07 1.753-3.07 1.77 0 .008.014.022.035.039.092.057 3.042 1.746 3.055 1.746.008 0 .016-.29.016-.658l.004-.652h1.189v.141c-.017.316-.098.904-.195 1.33-.275 1.273-.834 2.476-1.625 3.502-.146.187-.415.51-.447.531-.021.016-.844-.8-.844-.832 0-.004.204-.219.455-.471.288-.279.45-.45.438-.471-.029-.025-3.415-.937-3.432-.92-.011.012.902 3.411.926 3.432.012.02.188-.154.469-.438.251-.248.462-.455.479-.455.04 0 .841.808.824.836-.012.028-.345.312-.568.479-1.01.775-2.201 1.325-3.463 1.605-.417.089-1.014.175-1.322.195l-.154.004v-1.191l.658-.004c.438 0 .652-.009.652-.021 0-.037-1.757-3.092-1.777-3.092-.021 0-1.775 3.06-1.775 3.092 0 .008.21.017.652.021l.662.004v1.191l-.154-.004c-.304-.021-.901-.106-1.322-.195-1.262-.28-2.449-.831-3.467-1.605-.219-.166-.556-.45-.564-.479-.012-.029.784-.836.824-.836.017 0 .231.204.479.455.283.288.456.458.469.438.033-.025.942-3.419.93-3.432-.021-.008-3.408.899-3.436.92-.008.016.154.19.438.471.251.251.459.467.459.471 0 .032-.824.849-.848.832-.033-.025-.301-.344-.447-.531-.783-1.026-1.345-2.225-1.629-3.502-.093-.426-.175-1.01-.188-1.33l-.004-.141h1.184l.006.652c.007.37.015.658.023.658.003 0 2.951-1.689 3.053-1.746.007-.017.029-.035.029-.039 0-.012-3.01-1.746-3.074-1.77-.024-.008-.025.005-.025.633 0 .479-.011.65-.023.662-.02.028-1.128.028-1.164.004-.021-.012-.021-.069.023-.512.17-1.611.808-3.185 1.814-4.479.199-.264.414-.51.438-.51.021 0 .828.806.828.83 0 .008-.204.22-.451.467-.248.247-.451.458-.451.471 0 .004.017.015.033.027.204.065 3.367.914 3.391.914.024 0 .036-.009.027-.029-.645-2.373-.923-3.394-.943-3.402-.017-.004-.197.164-.484.447l-.453.457-1.656-1.654c-.909-.909-1.667-1.656-1.68-1.656-.04 0-.702.675-.957.975-1.983 2.325-3.03 5.137-3.02 8.154 0 2.962 1.066 5.841 2.969 8.07 2.308 2.689 5.553 4.255 9.09 4.381l-.008-.004c.974.032 2.067-.069 3.037-.275 1.817-.394 3.505-1.184 4.99-2.328 2.632-2.03 4.361-5.077 4.75-8.371.441-3.789-.823-7.512-3.48-10.221-.437-.454-.868-.807-1.408-1.16-.653-.426-1.404-.8-2.568-1.262-1.493-.596-2.079-.909-2.566-1.375-.487-.462-.848-1.111-1.084-1.947-.061-.223-.06-.219.082-.207.154.017.457.082.604.135.369.13.564.256.949.629.243.232.324.286.373.254.162-.106-.487-1.439-1.947-3.994-.713-1.253-2.259-3.871-2.287-3.871m.971 17.377c-.321 0-.467.003-.613.027-1.424.219-2.625 1.128-3.205 2.43-.158.353-.26.711-.328 1.137-.045.288-.039.895.001 1.195.142.884.522 1.651 1.135 2.279.36.373.705.62 1.16.848.495.239.93.361 1.57.422l.004.006c.036.004.199.004.361 0 .638-.008 1.176-.138 1.744-.422.454-.223.795-.478 1.16-.844.332-.349.555-.669.766-1.107.182-.378.301-.752.369-1.182.049-.3.052-.908.008-1.195-.064-.426-.17-.784-.328-1.137-.58-1.302-1.781-2.211-3.205-2.43-.146-.024-.291-.027-.607-.027" transform="matrix(.96302 0 0 .96302.882-1.485)" fill-opacity=".749"/></g></g></svg>