<svg xmlns="http://www.w3.org/2000/svg" viewBox="0 0 48 48"><defs><filter color-interpolation-filters="sRGB"><feGaussianBlur stdDeviation="1.71"/></filter><linearGradient gradientTransform="scale(1.0059.99417)" gradientUnits="userSpaceOnUse" y2="7.02" x2="0" y1="92.54"><stop/><stop offset="1" stop-opacity=".588"/></linearGradient><linearGradient gradientUnits="userSpaceOnUse" y2="-26.05" x2="-125.19" y1="73.5" x1="-123.97" id="0" gradientTransform="matrix(1.03458 0 0 1 4.382 0)"><stop stop-color="#d3d3d3"/><stop offset="1" stop-color="#fcf9f9"/></linearGradient></defs><g fill-rule="evenodd"><path d="m-170.49-27.421h87.55c3.577 0 6.458 2.783 6.458 6.241v87.978c0 3.457-2.88 6.241-6.457 6.241h-87.55c-3.577 0-6.457-2.783-6.457-6.241v-87.978c0-3.457 2.88-6.241 6.457-6.241" fill="url(#0)" transform="matrix(.4778 0 0 .4778 84.55 13.1)"/><path d="m43 12.373c0 .137-.043.261-.127.374-.087.11-.177.167-.281.167-.832.08-1.517.348-2.045.805-.531.455-1.076 1.327-1.641 2.61l-8.623 19.431c-.057.18-.214.271-.475.271-.204 0-.361-.09-.475-.271l-4.836-10.113-5.561 10.113c-.114.18-.271.271-.475.271-.247 0-.411-.09-.491-.271l-8.472-19.431c-.528-1.207-1.086-2.049-1.674-2.527-.585-.478-1.404-.775-2.45-.889-.09 0-.177-.047-.254-.144-.08-.094-.12-.204-.12-.328 0-.318.09-.475.271-.475.755 0 1.544.033 2.37.1.765.07 1.487.104 2.162.104.688 0 1.501-.033 2.436-.104.979-.067 1.848-.1 2.604-.1.18 0 .271.157.271.475 0 .314-.057.471-.167.471-.755.057-1.35.251-1.785.575-.434.328-.652.755-.652 1.287 0 .271.09.608.271 1.013l7 15.812 3.974-7.506-3.703-7.764c-.665-1.384-1.213-2.279-1.641-2.68-.428-.398-1.076-.645-1.945-.735-.08 0-.154-.047-.227-.144-.074-.094-.11-.204-.11-.328 0-.318.077-.475.237-.475.755 0 1.447.033 2.079.1.608.07 1.257.104 1.945.104.675 0 1.39-.033 2.146-.104.779-.067 1.544-.1 2.299-.1.18 0 .271.157.271.475 0 .314-.053.471-.167.471-1.511.104-2.266.531-2.266 1.287 0 .338.174.862.525 1.571l2.45 4.973 2.436-4.549c.338-.642.508-1.183.508-1.624 0-1.036-.755-1.588-2.266-1.658-.137 0-.204-.157-.204-.471 0-.114.033-.221.1-.321.07-.104.137-.154.204-.154.541 0 1.207.033 1.995.1.755.07 1.377.104 1.862.104.348 0 .862-.03 1.537-.087.856-.077 1.574-.117 2.149-.117.134 0 .201.134.201.404 0 .361-.124.541-.371.541-.879.09-1.588.334-2.122.729-.535.394-1.203 1.29-2 2.687l-3.249 6.01 4.398 8.96 6.494-15.1c.224-.551.338-1.059.338-1.521 0-1.106-.755-1.691-2.266-1.761-.137 0-.204-.157-.204-.471 0-.318.1-.475.304-.475.551 0 1.207.033 1.962.1.699.07 1.287.104 1.758.104.498 0 1.073-.033 1.725-.104.678-.067 1.287-.1 1.828-.1.157 0 .237.134.237.404" shape-rendering="geometricPrecision" fill-opacity=".749"/></g></svg>