<svg xmlns="http://www.w3.org/2000/svg" viewBox="0 0 48 48"><defs><linearGradient gradientUnits="userSpaceOnUse" y2="-29.389" x2="-127.3" y1="69.3" x1="-126.09" id="0"><stop stop-color="#197cf1"/><stop offset="1" stop-color="#20bcfa"/></linearGradient><linearGradient id="1" y1="923.15" x2="0" y2="859.58" gradientUnits="userSpaceOnUse"><stop stop-color="#2e3436"/><stop offset="1" stop-color="#555753"/></linearGradient></defs><g transform="matrix(.4638 0 0 .4638 82.77 14.262)"><rect y="-30.751" x="-176.95" height="99.6" width="96.27" fill="url(#0)" fill-rule="evenodd" rx="6.187"/><g transform="matrix(.79131 0 0 .79131-339.53-651.98)"><g transform="matrix(.99755 0 0 .99755 143.53-9.631)"><path d="m85.61 858.08l-.026-25.794 28.927-4.31v30.1h-28.901m33.722-30.872l38.56-6.156v37.03h-38.56v-30.872m38.569 36.16l-.009 37.03-38.56-5.952v-31.08h38.569m-43.39 30.403l-28.904-4.347-.002-26.06h28.905v30.403" fill="#eff9fe"/><circle cy="892.17" cx="153.76" r="35.59" fill="url(#1)"/></g><path d="m320.66 878.08c-.076-.676-.865-1.184-1.546-1.184-2.204 0-4.16-1.294-4.981-3.296-.838-2.05-.298-4.441 1.345-5.948.517-.473.58-1.264.146-1.814-1.128-1.433-2.41-2.727-3.811-3.848-.548-.44-1.353-.379-1.828.148-1.434 1.588-4.01 2.178-5.999 1.348-2.071-.871-3.377-2.97-3.249-5.222.042-.708-.475-1.323-1.18-1.405-1.797-.208-3.609-.214-5.411-.014-.697.077-1.214.678-1.191 1.376.078 2.23-1.243 4.292-3.294 5.132-1.966.803-4.523.218-5.954-1.356-.473-.518-1.264-.582-1.815-.153-1.442 1.131-2.753 2.426-3.891 3.847-.444.552-.379 1.353.144 1.828 1.674 1.516 2.215 3.928 1.345 6-.83 1.977-2.883 3.251-5.234 3.251-.763-.024-1.306.487-1.389 1.181-.212 1.807-.214 3.648-.001 5.47.075.679.888 1.183 1.577 1.183 2.095-.053 4.105 1.243 4.949 3.296.841 2.05.3 4.44-1.345 5.948-.515.473-.58 1.263-.146 1.812 1.118 1.423 2.4 2.719 3.805 3.85.551.444 1.353.381 1.831-.145 1.439-1.592 4.01-2.181 5.996-1.349 2.076.868 3.382 2.967 3.254 5.221-.042.708.478 1.324 1.18 1.405.919.107 1.844.161 2.771.161.88 0 1.76-.048 2.64-.146.698-.077 1.214-.678 1.191-1.378-.081-2.229 1.243-4.291 3.291-5.129 1.979-.808 4.526-.217 5.957 1.355.476.517 1.261.58 1.815.152 1.439-1.128 2.747-2.422 3.891-3.847.444-.551.381-1.353-.144-1.828-1.674-1.516-2.217-3.928-1.348-6 .818-1.951 2.794-3.261 4.921-3.261l.297.008c.69.056 1.324-.475 1.408-1.179.212-1.809.214-3.648.011-5.47m-23.864 10.744c-4.424 0-8.02-3.599-8.02-8.02 0-4.424 3.599-8.02 8.02-8.02 4.424 0 8.02 3.599 8.02 8.02 0 4.424-3.599 8.02-8.02 8.02" fill="#fff" fill-rule="evenodd" fill-opacity=".934" stroke-width="1.317"/></g></g></svg>