<svg xmlns="http://www.w3.org/2000/svg" viewBox="0 0 48 48"><defs><linearGradient gradientTransform="matrix(.84891 0 0 1.67969-379.61-860.25)" gradientUnits="userSpaceOnUse" y2="543.09" x2="0" y1="544.15" id="3"><stop stop-color="#1e56e6"/><stop offset="1" stop-color="#1f9aed"/></linearGradient><linearGradient gradientTransform="matrix(.41726 0 0 .41031-25.337 8.349)" x2="122.72" x1="10.09" gradientUnits="userSpaceOnUse" id="2"><stop stop-color="#1a1a1a"/><stop offset=".111" stop-color="#2c2c2e"/><stop offset=".29" stop-color="#2b2b2d"/><stop offset=".512" stop-color="#2a2b2d"/><stop offset=".752" stop-color="#2b2b2d"/><stop offset=".897" stop-color="#323232"/><stop offset="1" stop-color="#171717"/></linearGradient><linearGradient gradientUnits="userSpaceOnUse" y2="10.424" x2="1.816" y1="47.947" x1="1.613" id="0"><stop stop-color="#b6b9bf"/><stop offset="1" stop-color="#dddfe2"/></linearGradient><linearGradient gradientUnits="userSpaceOnUse" y2="51.26" x2="0" y1="54.824" id="1"><stop stop-color="#040404"/><stop offset="1" stop-color="#121212" stop-opacity=".908"/></linearGradient></defs><g transform="matrix(.99999 0 0 .99999 21.629-9.118)" enable-background="new"><path d="m-21.13 48.5l.417 6.577c0 .682.558 1.231 1.252 1.231h43.656c.693 0 1.252-.549 1.252-1.231l.417-6.577h-46.994" fill="url(#2)"/><path d="m-17.367 9.946h39.07c.693 0 1.252.549 1.252 1.231l2.921 37.12c0 .682-.558 1.231-1.252 1.231h-44.493c-.693 0-1.252-.549-1.252-1.231l2.503-37.12c0-.682.558-1.231 1.252-1.231" fill="url(#0)"/><rect width="19.255" height="1.291" x="-7.18" y="52.572" fill="url(#3)" rx=".646"/><ellipse ry="1.783" rx="1.783" cy="53.26" cx="20.06" opacity=".452" fill="url(#1)"/><g fill="#e3e8ea" stroke-width="1.317"><path d="m20.05 53.31c.04 0 .075-.015.104-.044.029-.029.044-.064.044-.104v-.743c0-.04-.015-.075-.044-.104-.029-.029-.064-.044-.104-.044-.04 0-.075.015-.104.044-.029.029-.044.064-.044.104v.743c0 .04.015.075.044.104.029.029.064.044.104.044" opacity=".668"/><path d="m20.852 52.912c-.062-.125-.15-.229-.263-.313-.032-.025-.069-.034-.11-.029-.041.005-.073.025-.097.058-.025.032-.034.069-.028.11.006.041.025.073.057.098.076.057.134.127.176.21.041.083.062.171.062.265 0 .08-.016.157-.047.23-.031.073-.074.136-.127.19-.053.053-.117.096-.19.127-.073.031-.15.047-.23.047-.08 0-.157-.016-.23-.047-.073-.031-.136-.074-.19-.127-.053-.053-.096-.117-.127-.19-.031-.073-.047-.15-.047-.23 0-.094.021-.182.062-.265.041-.083.1-.153.176-.21.032-.025.052-.057.057-.098.006-.041-.004-.077-.028-.11-.024-.033-.056-.053-.097-.058-.041-.005-.078.004-.111.029-.113.084-.201.189-.263.313-.062.125-.093.257-.093.398 0 .121.024.236.071.346.047.11.111.205.19.284.08.08.174.143.284.19.11.047.225.071.346.071.121 0 .236-.024.346-.071.11-.047.205-.111.284-.19.08-.08.143-.174.19-.284.047-.11.071-.225.071-.346 0-.141-.031-.273-.093-.398" opacity=".668"/></g><path d="m7.93 19.431l-5.02 4.067-12.13 1.796 4.955 4.01-4.72 3.823 5.637 4.567 4.72-3.823 4.716 3.823 2.327-9.528 5.149-4.171-5.637-4.567" fill="#a1a7ae" fill-rule="evenodd" stroke="#909296" stroke-width=".121"/></g></svg>