<svg xmlns="http://www.w3.org/2000/svg" viewBox="0 0 48 48"><defs><linearGradient gradientUnits="userSpaceOnUse" y2="517.8" x2="0" y1="545.8"><stop stop-color="#3889e9"/><stop offset="1" stop-color="#5ea5fb"/></linearGradient><linearGradient y2="518.14" x2="0" y1="545.14" gradientUnits="userSpaceOnUse" id="0"><stop stop-color="#197ff1"/><stop offset="1" stop-color="#21c6fb"/></linearGradient></defs><g transform="matrix(.99999 0 0 .99999-38.37 25.882)" enable-background="new"><g transform="matrix(1.71429 0 0 1.71429-624.32-913.53)"><circle r="14" cy="531.8" cx="400.57" fill="url(#0)"/><circle cx="400.57" cy="531.8" r="14" fill="#5ea5fb" fill-opacity="0"/></g><g transform="matrix(1.10143 0 0 1.10143-6.329.178)" fill="#fff" fill-opacity=".855"><path d="m62.38-18.199c4.261 0 8.142 1.628 11.05 4.31-1.43-.044-2.846.807-2.91 2.752-.114 3.92 4.697 4.756 2.103 12.65l-2.148 6.533-5.845-17.214c-.089-.267.015-.416.346-.416h1.653c.084 0 .153-.08.153-.169v-.979c0-.084-.07-.163-.153-.158-3.133.138-6.236.138-9.329 0-.084-.005-.153.075-.153.158v.979c0 .089.07.169.153.169h1.659c.376 0 .48.119.564.356l2.396 6.563-3.608 10.908-5.935-17.491c-.075-.218.001-.342.228-.342h1.89c.084 0 .158-.08.158-.169v-.979c0-.084-.075-.163-.158-.158-1.984.104-3.975.124-5.831.148 2.91-4.489 7.963-7.459 13.714-7.459"/><path d="m76.75-9.639c1.257 2.311 1.97 4.964 1.97 7.781 0 6.182-3.435 11.556-8.503 14.337l5.093-14.438c.792-2.246 1.524-5.256 1.43-7.691"/><path d="m67.846 13.538c-1.713.608-3.554.94-5.473.94-1.659 0-3.247-.247-4.751-.703l5.03-14.427"/><path d="m55.38 12.898c-5.523-2.614-9.344-8.251-9.344-14.763 0-2.42.519-4.726 1.465-6.785"/></g></g></svg>