<svg xmlns="http://www.w3.org/2000/svg" xmlns:xlink="http://www.w3.org/1999/xlink" viewBox="0 0 48 48"><defs><linearGradient gradientTransform="matrix(2.65715 0 0 2.66061-1697.48-2270.95)" gradientUnits="userSpaceOnUse" y2="843.07" x2="640.1" y1="865.62" x1="641.99" id="3"><stop stop-color="#d5dbff"/><stop offset="1" stop-color="#f9ffff"/></linearGradient><linearGradient xlink:href="#1" id="2" gradientUnits="userSpaceOnUse" x1="2.409" y1="8.904" x2="2.952" y2="-14.689"/><linearGradient xlink:href="#1" id="0" x1="-3.671" y1="3.068" x2="-3.864" y2="-7.65" gradientUnits="userSpaceOnUse"/><linearGradient id="1"><stop stop-color="#fe3f3c"/><stop offset="1" stop-color="#ff8729"/></linearGradient></defs><g transform="matrix(.99999 0 0 .99999 21.629 25.882)" enable-background="new"><ellipse cx="2.375" cy="-1.875" rx="22.821" ry="22.836" fill="url(#3)" stroke="url(#3)" stroke-width="2.328"/><path transform="scale(-1 1)" d="m-3.725-1.882c-.172-.672.373-1.292 1.015-1.405.906-.159 1.709.573 1.823 1.447.15 1.139-.773 2.127-1.878 2.242-1.371.143-2.547-.973-2.661-2.31-.137-1.603 1.173-2.968 2.742-3.08 1.835-.132 3.389 1.373 3.499 3.173.127 2.066-1.573 3.81-3.605 3.918-2.298.122-4.232-1.773-4.337-4.04-.118-2.53 1.973-4.653 4.468-4.756 2.762-.114 5.075 2.173 5.175 4.9.044 1.188-.325 2.372-1.025 3.332" fill="none" fill-rule="evenodd" stroke="url(#0)" stroke-linejoin="round" stroke-linecap="round" stroke-width="1.198"/><path d="m2.375-11.02c-6.176 0-11.499 3.641-13.944 8.894-.075.159-.075.345 0 .508 2.445 5.254 7.768 8.894 13.944 8.894 6.176 0 11.499-3.641 13.944-8.894.075-.159.075-.345 0-.508-2.445-5.254-7.768-8.894-13.944-8.894m0 15.461c-3.487 0-6.311-2.827-6.311-6.311 0-3.487 2.827-6.311 6.311-6.311 3.487 0 6.311 2.827 6.311 6.311 0 3.484-2.827 6.311-6.311 6.311" fill="url(#2)"/></g></svg>