<svg xmlns="http://www.w3.org/2000/svg" viewBox="0 0 48 48"><defs><linearGradient gradientTransform="matrix(.90417 0 0 .90535-551.46-761.78)" id="0" y1="870.09" x2="0" y2="831.44" gradientUnits="userSpaceOnUse"><stop stop-color="#2e3e46"/><stop offset="1" stop-color="#47606a"/></linearGradient><linearGradient id="1" gradientUnits="userSpaceOnUse" x1="27.427" y1="16.239" x2="27.572" y2="1.218"><stop stop-color="#ff9300"/><stop offset="1" stop-color="#ffd702"/></linearGradient></defs><g transform="matrix(1.71427 0 0 1.71427-24.21 8.512)" enable-background="new"><ellipse cy="9.04" cx="28.13" rx="13.312" ry="13.321" fill="url(#0)" stroke="url(#0)" stroke-width="1.358"/><path d="m35.37 14.638l-3.126-3.126c.753-1.088 1.13-2.3 1.13-3.637 0-.869-.169-1.7-.506-2.493-.337-.793-.793-1.477-1.367-2.051-.574-.574-1.258-1.03-2.051-1.367-.793-.337-1.624-.506-2.493-.506-.869 0-1.7.169-2.493.506-.793.337-1.477.793-2.051 1.367-.574.574-1.03 1.258-1.367 2.051-.337.793-.506 1.624-.506 2.493 0 .869.169 1.7.506 2.493.337.793.793 1.476 1.367 2.051.574.574 1.258 1.03 2.051 1.367.793.337 1.624.506 2.493.506 1.337 0 2.549-.377 3.637-1.13l3.126 3.117c.219.231.492.346.82.346.316 0 .59-.115.82-.346.231-.231.346-.504.346-.82 0-.322-.112-.595-.337-.82m-5.528-3.878c-.799.799-1.761 1.199-2.885 1.199-1.124 0-2.086-.4-2.885-1.199-.799-.799-1.199-1.761-1.199-2.885 0-1.124.4-2.086 1.199-2.885.799-.799 1.761-1.199 2.885-1.199 1.124 0 2.086.4 2.885 1.199.799.799 1.199 1.761 1.199 2.885 0 1.124-.4 2.086-1.199 2.885" fill="url(#1)"/></g></svg>