<svg xmlns="http://www.w3.org/2000/svg" viewBox="0 0 48 48"><defs><linearGradient gradientTransform="matrix(1.15399 0 0 1.49339-43.65-274.19)" gradientUnits="userSpaceOnUse" y2="507.8" x2="0" y1="542.8" id="0"><stop stop-color="#0bac83"/><stop offset="1" stop-color="#10da96"/></linearGradient></defs><rect width="50.775" height="50.775" x="402.45" y="484.15" fill="url(#0)" rx="2.389" stroke-width="1.037" transform="matrix(.94534 0 0 .94534-380.45-457.68)"/><path d="m43.18 37.582l-11.974-22.15v-13.197c0-1.242-1.039-2.232-2.28-2.232h-12.222c-1.242 0-2.264.99-2.264 2.232v13.197l-11.984 22.15c-.914 1.689-.868 3.74.115 5.391.983 1.649 2.766 2.668 4.686 2.668h31.11c1.92 0 3.707-1.019 4.69-2.668.982-1.651 1.032-3.702.118-5.391m-18.386-9.268c1.073 0 1.942.869 1.942 1.942 0 1.072-.871 1.942-1.942 1.942-1.072 0-1.942-.87-1.942-1.942 0-1.07.869-1.942 1.942-1.942m-5.461-11.677c1.073 0 1.942.87 1.942 1.943 0 1.072-.869 1.942-1.942 1.942-1.073 0-1.942-.87-1.942-1.942.0001-1.073.869-1.943 1.942-1.943m0 6.78c1.738 0 3.148 1.41 3.148 3.147 0 1.738-1.41 3.147-3.148 3.147-1.739 0-3.148-1.409-3.148-3.147 0-1.738 1.409-3.147 3.148-3.147m18.08 16.14c-.404.688-1.143 1.094-1.938 1.094h-25.317c-.796 0-1.534-.406-1.938-1.094-.404-.688-.415-1.528-.028-2.226l3.043-5.47c.434-.782 1.29-1.23 2.18-1.145 4.04.385 8.583 3.842 12.642 3.688 2.174-.083 4.192-.875 6.114-1.934 1.085-.6 2.45-.207 3.052.877l2.219 3.982c.385.699.375 1.541-.029 2.228" fill="#fff" fill-opacity=".851" transform="matrix(.73161 0 0 .73161 7.305 7.311)"/></svg>