<svg xmlns="http://www.w3.org/2000/svg" viewBox="0 0 48 48"><defs><linearGradient gradientTransform="matrix(1.09091 0 0 1.06528-363.34-560.93)" gradientUnits="userSpaceOnUse" y2="507.8" x2="0" y1="542.8" id="0"><stop stop-color="#197cf1"/><stop offset="1" stop-color="#20bcfa"/></linearGradient></defs><g transform="matrix(.99999 0 0 .99999-58.37 25.882)" enable-background="new"><rect y="-19.985" x="58.37" height="36.22" width="48" fill="url(#0)" rx="1.704"/><g fill="#e9f6fe" stroke="#e9f6fe" stroke-linejoin="round" stroke-linecap="round" stroke-width=".3"><path d="m77.74-5.167c-.053-.05-.12-.075-.202-.075h-8.439c-.082 0-.149.025-.202.075-.053.05-.079.114-.079.192v.535c0 .078.026.142.079.192.053.05.12.075.202.075h8.439c.082 0 .149-.025.202-.075.053-.05.079-.114.079-.192v-.535c0-.078-.026-.142-.079-.192z"/><path d="m64.24-13.08c-.059-.056-.126-.084-.202-.084-.076 0-.144.028-.202.084l-.44.418c-.059.056-.088.12-.088.192 0 .073.029.137.088.192l3.455 3.287-3.455 3.287c-.059.056-.088.12-.088.192 0 .073.029.137.088.192l.44.418c.059.056.126.084.202.084.076 0 .144-.028.202-.084l4.097-3.898c.059-.056.088-.12.088-.192 0-.072-.029-.137-.088-.192l-4.097-3.898z"/></g></g></svg>