<svg xmlns="http://www.w3.org/2000/svg" viewBox="0 0 48 48"><defs><linearGradient gradientTransform="matrix(1.01552 0 0 .88638-65.09 59.63)" gradientUnits="userSpaceOnUse" y2="502.38" x2="466.49" y1="542.68" x1="466.38" id="0"><stop stop-color="#54b60f"/><stop offset="1" stop-color="#92dc41"/></linearGradient><linearGradient gradientUnits="userSpaceOnUse" y2="564.01" x2="257.5" y1="1.708" x1="258.66" id="1"><stop stop-color="#333"/><stop offset="1" stop-color="#353535"/></linearGradient><linearGradient id="2" gradientUnits="userSpaceOnUse" x1="258.66" y1="1.708" x2="257.5" y2="564.01"><stop stop-color="#e9e9e9"/><stop offset="1" stop-color="#f9f9f9"/></linearGradient></defs><g transform="translate(-384.57-499.8)"><g transform="matrix(.98533-.11469.11469.98533-53.44 54.1)"><path d="m418 467.5c0 9.979 8.175 18.289 19 20.12v27.76c-10.825 1.831-19 10.141-19 20.12 0 9.979 8.175 18.289 19 20.12v29.38h-24.23c-1.474-11.318-9.988-20-20.272-20-10.284 0-18.798 8.682-20.272 20h-27.456c-1.474-11.318-9.988-20-20.272-20-10.284 0-18.798 8.682-20.272 20h-23.608c-1.832-10.825-10.141-19-20.12-19-9.979 0-18.288 8.175-20.12 19h-27.76c-1.831-10.825-10.141-19-20.12-19-9.979 0-18.289 8.175-20.12 19h-21.76c-1.831-10.825-10.141-19-20.12-19-9.979 0-18.289 8.175-20.12 19h-27.76c-1.831-10.825-10.141-19-20.12-19-9.979 0-18.289 8.175-20.12 19h-24.38v-32.38c10.825-1.832 19-10.141 19-20.12 0-9.979-8.175-18.288-19-20.12v-25.426c12.279-.676 22-9.572 22-20.454 0-10.882-9.721-19.778-22-20.454v-25.16c11.803-1.089 21-9.798 21-20.383 0-10.585-9.197-19.294-21-20.383v-21.16c.497.027.996.046 1.5.046 12.979 0 23.5-9.178 23.5-20.5 0-11.322-10.521-20.5-23.5-20.5-.504 0-1 .019-1.5.046v-26.16c11.803-1.09 21-9.799 21-20.384 0-10.585-9.197-19.294-21-20.384v-28.344c11.318-1.474 20-9.988 20-20.272 0-10.284-8.682-18.798-20-20.272v-27.27c12.279-.676 22-9.572 22-20.454 0-10.882-9.721-19.778-22-20.454v-25.09c12.279-.676 22-9.572 22-20.454 0-10.882-9.721-19.778-22-20.454v-27.05h22.23c-.149 1.143-.228 2.311-.228 3.5 0 12.979 9.178 23.5 20.5 23.5 11.322 0 20.5-10.521 20.5-23.5 0-1.189-.079-2.357-.228-3.5h27.456c-.149 1.143-.228 2.311-.228 3.5 0 12.979 9.178 23.5 20.5 23.5 11.322 0 20.5-10.521 20.5-23.5 0-1.189-.079-2.357-.228-3.5h21.456c-.149 1.143-.228 2.311-.228 3.5 0 12.979 9.178 23.5 20.5 23.5 11.322 0 20.5-10.521 20.5-23.5 0-1.189-.079-2.357-.228-3.5h27.456c-.149 1.143-.228 2.311-.228 3.5 0 12.979 9.178 23.5 20.5 23.5 11.322 0 20.5-10.521 20.5-23.5 0-1.189-.079-2.357-.228-3.5h23.344c-.075.821-.116 1.655-.116 2.5 0 12.979 9.178 23.5 20.5 23.5 11.322 0 20.5-10.521 20.5-23.5 0-.845-.041-1.679-.116-2.5h27.23c-.075.821-.116 1.655-.116 2.5 0 12.979 9.178 23.5 20.5 23.5 11.322 0 20.5-10.521 20.5-23.5 0-.845-.041-1.679-.116-2.5h26.12v27.12c-11.803 1.09-21 9.799-21 20.384 0 10.585 9.197 19.294 21 20.384v27.23c-11.803 1.09-21 9.799-21 20.384 0 10.585 9.197 19.294 21 20.384v24.23c-11.803 1.09-21 9.799-21 20.384 0 10.585 9.197 19.294 21 20.384v27.23c-11.803 1.09-21 9.799-21 20.384 0 10.585 9.197 19.294 21 20.384v23.23c-11.803 1.089-21 9.798-21 20.383 0 10.585 9.197 19.294 21 20.383v27.23c-11.803 1.089-21 9.798-21 20.383 0 10.585 9.197 19.294 21 20.383v25.497c-10.825 1.831-19 10.141-19 20.12" transform="matrix(.09534.00019.00018-.07825 386.28 547.88)" fill="url(#2)"/><rect width="31.07" height="36.08" x="393.59" y="504.86" transform="matrix(1 .00201-.00235 1 0 0)" fill="url(#0)" rx=".532"/></g><path d="m602.54 413.97q1.814 0 3.053 1.25 1.239 1.25 1.239 3.02 0 .996-.431 1.648-.42.653-1.228.653-.83 0-1.239-.807-.542.807-1.549.807-.907 0-1.526-.63-.619-.642-.619-1.626 0-.973.619-1.615.619-.642 1.482-.642.852 0 1.416.653h.044v-.498h.796v2.887q0 .288.155.52.166.232.498.232.785 0 .785-1.582 0-1.46-1.018-2.467-1.018-1.01-2.478-1.01-1.46 0-2.478 1.01-1.018 1.01-1.018 2.467 0 1.46 1.018 2.467 1.018 1.01 2.478 1.01.785 0 1.405-.31l.31.752q-.774.354-1.715.354-1.836 0-3.086-1.239-1.25-1.25-1.25-3.03 0-1.77 1.25-3.02 1.261-1.25 3.086-1.25m-1.029 5.343q.398.387.951.387.553 0 .94-.387.398-.387.398-1.029 0-.642-.398-1.029-.387-.387-.94-.387-.553 0-.951.387-.387.387-.387 1.029 0 .642.387 1.029" fill="#fff" fill-opacity=".852" transform="matrix(2.1458-.28579.28579 2.1458-1003.93-201.22)"/></g></svg>