<svg xmlns="http://www.w3.org/2000/svg" xmlns:xlink="http://www.w3.org/1999/xlink" viewBox="0 0 48 48"><defs><linearGradient id="2" y1="547.19" x2="0" y2="505.19" gradientUnits="userSpaceOnUse"><stop stop-color="#0164c2"/><stop offset="1" stop-color="#00a9f3"/></linearGradient><linearGradient y2="528.8" x2="361.57" y1="513.8" x1="346.57" gradientUnits="userSpaceOnUse"><stop stop-color="#2e5d89"/><stop offset="1" stop-color="#1b92f4"/></linearGradient><linearGradient gradientUnits="userSpaceOnUse" y2=".199" x2="22.871" y1="45.525" x1="22.992"><stop stop-color="#1673db"/><stop offset="1" stop-color="#42d6fc"/></linearGradient><linearGradient id="0" x1="-324.94" y1="649.74" x2="-328.21" y2="307.75" gradientUnits="userSpaceOnUse"><stop stop-color="#016ed4"/><stop offset="1" stop-color="#00b1ff"/></linearGradient><linearGradient y1="545.8" x2="0" y2="517.8" gradientUnits="userSpaceOnUse"><stop stop-color="#3889e9"/><stop offset="1" stop-color="#5ea5fb"/></linearGradient><linearGradient id="1" gradientUnits="userSpaceOnUse" x1="-324.94" y1="649.74" x2="-328.21" y2="307.75"><stop stop-color="#197dec"/><stop offset="1" stop-color="#3fcffb"/></linearGradient></defs><g transform="matrix(.10954 0 0 .10954 59.32-25.22)"><circle r="173.45" cy="478.75" cx="-325.89" fill="url(#1)" transform="matrix(1.26319 0 0 1.26319 90.23-154.96)"/><g transform="matrix(.99999 0 0 .99999-603.08 12.761)"><path d="m491.76 506.2c-2.523 0-4.924.481-7.143 1.326-.161.148-.371.262-.537.248-.022-.002-.045-.017-.068-.025-1.094.458-2.131 1.018-3.115 1.654.128.207.166.439-.098.551-.044.019-.601.075-.795.07-2.798 2.033-5.04 4.767-6.477 7.959.023-.003.043-.014.066-.016.218-.003.531.059.74.104.193.04.349.169.516.182.474.036.588-.333.975-.539.399.057.665-.068 1.025-.027.246.027.424.29.615.305.161.016.303-.151.459-.127.152.023.413.354.438.539.031.231-.17.438-.104.691.241.246.68.296 1.025.438.225-.185.03-.529 0-.797-.003-.118.016-.223 0-.332-.021-.185-.1-.354-.102-.512-.003-.73.589-1.071 1.078-1.359.212-.126.379-.346.563-.438.26-.13.453-.16.668-.281.388-.218.722-.393 1.025-.641.14-.331.014-.775.025-1.102.141-.086.261.037.41.025.234-.049.254-.38.387-.512.077-.076.289-.13.385-.205.234-.183.31-.46.514-.539.073-.03.242-.021.357-.053.152-.04.368-.22.615-.305.161-.056.53-.067.592-.129.076-.077-.0001-.294.025-.41.124-.579.996-.702 1.512-.896.361-.137.732-.388 1.129-.311-.078.275-.447.178-.385.512.086.464.707-.133.871-.201.313-.132.849-.212 1.26-.361.36-.132 1.01-.332.666-.744-.283-.016-.419.332-.666.438-.17.027-.138-.143-.283-.156-.138-.016-.215.127-.357.104-.141-.023-.339-.245-.361-.41-.056-.428.362-.605.539-.924-.117-.387-.653-.079-.977-.23.031-.231.27-.39.539-.434.221-.037.716-.018.848.1.076.065.004.226.129.334.131.118.291.106.461.078.061-.292-.38-.219-.332-.412.346-.227.91-.041 1.334-.104.244-.036.5-.208.717-.33.206-.117.473-.321.691-.129.059.209-.19.279-.307.383-.392.349-.797.749-1.102 1.154.187.183.527.091.844.129.124.016.279.053.41.076.153.027.316.02.436.051.215.053.273.283.486.283.351-.0001.355-.38.156-.617.063-.242.161-.368.076-.537-.158-.316-.738-.016-.768-.41-.019-.256.214-.244.307-.436-.042-.494.405-.53.357-.973-.021-.185-.177-.188-.307-.361-.065-.085-.099-.249-.174-.322-.598-.053-1.204-.086-1.816-.086m-10.32 4.04h.002c.119.017.264.145.408.156.137.003.25-.075.334-.053.214.057.305.38.104.539-.168.021-.233-.073-.359-.051-.348.059-.482.741-.742.719-.245-.021-.378-.619-.129-.797.016-.155-.113-.18-.105-.334.074-.094.284-.196.488-.18m-1.154.08c.071.002.125.02.152.051-.034.273-.248.255-.459.383-.365.22-.575.555-.691 1.025-.034.137-.393.499-.566.463-.407-.086.112-.835.205-.949.103-.126.24-.237.361-.383.117-.141.194-.332.307-.41.124-.086.477-.188.691-.18m3.035.922c.13.002.247.024.301.076-.084.339-.813.249-1.08.127.017-.128.217-.163.385-.18.118-.003.265-.027.395-.023m-1.66.625c.086-.002.175.017.266.041-.236.197-.491.309-.896.437-.195.061-.531.138-.564-.08-.04-.267.285-.205.463-.229.224-.031.47-.162.732-.17m25.469 1.52c-.03.073-.052.145-.049.215.016.124.151.243.182.41.016.089-.042.28 0 .361.123.239.447.067.678.08-.263-.362-.525-.724-.811-1.066m1.311 1.764c-.037.177-.157.407-.254.555-.224.34-.527.356-.848.537-.267.152-.382.404-.539.668-.17.285-.275.457-.205.869-.229.455-.576.733-1.051.949-.14.063-.332.087-.461.18-.103.074-.161.272-.307.436-.18.2-.368.285-.463.438-.073.118-.099.353-.18.512-.109.215-.343.321-.486.539-.065.101-.109.305-.182.438-.162.295-.44.508-.41.768.03.251.315.295.334.514.003.124-.082.199-.076.334.003.197.137.335.152.486.038.381-.13.533-.201.793-.034.124-.019.264-.053.361-.063.191-.329.363-.334.588-.002.16.164.289.178.514.003.155-.076.32-.049.463.055.279.553.604.77.82.29.29.67.515.795.82.105.26.104.597.307.793.15.144.398.235.59.385.179.14.373.261.564.41.312.244.784.731 1.281.693.26-.019.526-.231.82-.283.303-.054.696-.082 1-.051.234.023.475.164.719.152.257-.016.552-.206.844-.334.235-.102.523-.216.84-.299.145-.976.223-1.975.223-2.992 0-4.095-1.225-7.891-3.32-11.05m-33.08 6.721c-.426.023-.705.043-.947.152-.555.253-.448 1-1 1.18-.192.061-.455.064-.666.104-.182.033-.404.133-.592.129-.053-.0001-.126-.04-.191-.061-.049.352-.09.707-.121 1.064.527.101.8.8 1.266 1.031.128.063.295.067.459.104.133.03.233.086.361.129.271.092.603.081.82.178.327.145.567.759.848.924.016.166-.032.388.025.512.133.18.32.14.539.258.262.141.342.506.59.617.086.038.3.033.436.074.34.103.451.496.742.41.191-.056.176-.253.207-.436.126-.137.264-.354.461-.357.319-.016.347.329.463.639.065.175.237.327.281.512.079.319.04 1.272-.027 1.463-.08.234-.397.333-.592.592-.092.121-.136.299-.205.385-.126.153-.312.193-.406.334-.053.08-.104.25-.156.357-.154.326-.36.557-.23.949.054.161.306.269.307.459.0001.223-.475.423-.512.668-.027.182.147.507.205.744.042.179.381.291.486.41.18.202.324.488.488.742.325.499.58 1.108.896 1.592.167.253.402.481.514.744.057.133.049.291.102.41.183.414.993.845 1.41 1.051.196.095.412.129.592.229.272.152.81.559.947.797.122.214.198.736.258 1.076.079.45.0001.796.025 1.283.016.264.101.529.104.793.0001.092-.049.161-.053.256 0 .016.004.033.004.049 2.519 1.14 5.31 1.789 8.264 1.789.534 0 1.061-.028 1.584-.068.023-.039.044-.08.072-.117.12-.158.227-.296.307-.436.076-.468-.187-.795-.076-1.205.122-.46.759-.742 1.205-.949.153-.071.311-.187.436-.23.309-.107.694-.049.977-.152.48-.176.531-.691.768-1.129.112-.207.259-.415.281-.563.019-.133-.049-.258-.027-.414.023-.155.162-.289.205-.459.056-.222.08-.548.08-.795 0-.203-.095-.381-.104-.564-.033-.665.24-.74.486-1.102.124-.18.17-.385.256-.514.413-.616 1.13-.914 1.078-1.846-.017-.308-.211-1.01-.438-1.104-.13-.057-.428-.003-.615-.076-.606-.226-.962-.977-1.59-1.025-.134-.016-.257.055-.408.053-.249-.016-.623-.174-.898-.205-.175-.019-.409.052-.514 0-.16-.078-.176-.373-.307-.461-.103-.071-.304-.096-.461-.156-.253-.097-.453-.21-.744-.23-.09-.003-.202.043-.307.027-.161-.027-.289-.218-.438-.309-.186-.113-.359-.168-.436-.33.168-.552-.297-.706-.41-1.025-.054-.15-.029-.329-.076-.463-.067-.191-.256-.302-.463-.461-.371-.286-.7-.554-1.23-.619-.233-.03-.464.07-.746.053-.298-.019-.673-.28-.896-.535-.217-.249-.323-.473-.512-.592-.179-.115-.417-.112-.539-.229-.055-.051-.045-.138-.104-.258-.09-.187-.241-.29-.129-.514-.204-.105-.21.195-.434.156-.199-.283-.368-.417-.82-.334-.207.038-.323.3-.564.307-.198.016-.354-.221-.615-.258-.197-.027-.422.054-.563.027-.219-.044-.286-.226-.486-.357-.147-.096-.431-.26-.514-.258-.258.016-.441.548-.797.359-.173-.219.281-.334.076-.539-.155-.155-.286.07-.41.156-.142.098-.276.196-.434.254-.352.132-.572.063-.848.205-.255.132-.266.353-.41.615-.118.215-.387.528-.564.541-.215.016-.42-.3-.615-.385-.587-.254-.872.226-1.359.232-.453.016-1.099-.731-1.076-1.156.003-.26.149-.653.18-.975.027-.255.202-.409.205-.643.003-.311-.413-.551-.615-.588-.479-.088-1.144.193-1.693-.027-.105-.174.123-.294.182-.463.033-.096.014-.224.049-.33.061-.163.232-.29.309-.463.057-.132.072-.322.129-.486.067-.187.191-.307.205-.438.019-.173-.046-.372-.182-.486m6.855 5.428c.174.016.196.375.018.404-.192.03-.289-.301-.104-.387.031-.016.062-.017.086-.016v-.002" fill="url(#2)" transform="matrix(10.87592-.851.851 10.87592-5513.74-4866.89)"/><g transform="matrix(.97727 0 0 .97727 596.29-1.175)" fill="#fff" stroke="#fff" stroke-width="2.171"><g transform="matrix(.79601 0 0 .79601-564.74 205.77)"><path d="m415.35 116.59c.817.473 1.711.698 2.593.698 1.796 0 3.543-.932 4.504-2.599l11.604-20.1c1.436-2.485.585-5.663-1.902-7.098-2.483-1.436-5.663-.583-7.098 1.902l-11.604 20.1c-1.433 2.483-.582 5.661 1.903 7.097z" fill="#fff" stroke="#fff" stroke-width="2.171" id="3"/><path d="m499.91 199.25c.882 0 1.774-.225 2.593-.698l20.09-11.602c2.485-1.434 3.336-4.612 1.902-7.098-1.434-2.485-4.612-3.338-7.098-1.902l-20.09 11.602c-2.485 1.434-3.336 4.612-1.902 7.098.962 1.667 2.709 2.6 4.505 2.6z" fill="#fff" stroke="#fff" stroke-width="2.171" id="4"/><path d="m553.11 300.8h-23.2c-2.87 0-5.197 2.327-5.197 5.197 0 2.87 2.327 5.197 5.197 5.197h23.2c2.87 0 5.197-2.327 5.197-5.197 0-2.87-2.327-5.197-5.197-5.197z" fill="#fff" stroke="#fff" stroke-width="2.171" id="5"/><path d="m522.6 425.06l-20.1-11.604c-2.485-1.436-5.663-.583-7.098 1.902-1.436 2.485-.585 5.663 1.902 7.098l20.1 11.604c.817.473 1.711.698 2.593.698 1.796 0 3.543-.932 4.504-2.599 1.435-2.485.584-5.663-1.901-7.099z" fill="#fff" stroke="#fff" stroke-width="2.171" id="6"/><path d="m422.45 497.31c-1.434-2.485-4.611-3.338-7.099-1.9-2.485 1.436-3.336 4.614-1.9 7.099l11.605 20.09c.963 1.666 2.708 2.599 4.504 2.599.882 0 1.774-.225 2.593-.698 2.485-1.436 3.336-4.614 1.9-7.099l-11.603-20.1z" fill="#fff" stroke="#fff" stroke-width="2.171" id="7"/><path d="m306 524.7c-2.87 0-5.197 2.327-5.197 5.197v23.21c0 2.87 2.327 5.197 5.197 5.197 2.87 0 5.197-2.327 5.197-5.197v-23.21c0-2.87-2.327-5.197-5.197-5.197z" fill="#fff" stroke="#fff" stroke-width="2.171" id="8"/><path d="m196.65 495.41c-2.485-1.436-5.663-.583-7.098 1.902l-11.602 20.09c-1.436 2.485-.585 5.663 1.902 7.097.819.473 1.711.698 2.593.698 1.796 0 3.543-.932 4.504-2.599l11.602-20.09c1.437-2.486.586-5.664-1.901-7.098z" fill="#fff" stroke="#fff" stroke-width="2.171" id="9"/><path d="m109.5 413.45l-20.1 11.604c-2.485 1.434-3.336 4.612-1.902 7.098.963 1.666 2.708 2.599 4.504 2.599.882 0 1.774-.225 2.593-.698l20.1-11.604c2.485-1.434 3.336-4.612 1.902-7.098-1.433-2.486-4.612-3.339-7.097-1.901z" fill="#fff" stroke="#fff" stroke-width="2.171" id="A"/><path d="m82.09 300.8h-23.21c-2.87 0-5.197 2.327-5.197 5.197 0 2.87 2.327 5.197 5.197 5.197h23.21c2.87 0 5.197-2.327 5.197-5.197-.002-2.87-2.329-5.197-5.197-5.197z" fill="#fff" stroke="#fff" stroke-width="2.171" id="B"/><path d="m114.69 189.55l-20.1-11.602c-2.487-1.432-5.663-.583-7.099 1.902-1.434 2.485-.583 5.663 1.902 7.099l20.1 11.602c.819.471 1.711.696 2.593.696 1.796 0 3.543-.932 4.506-2.599 1.436-2.486.583-5.664-1.902-7.098z" fill="#fff" stroke="#fff" stroke-width="2.171" id="C"/><path d="m189.55 114.69c.963 1.666 2.708 2.599 4.504 2.599.882 0 1.774-.225 2.593-.698 2.485-1.434 3.336-4.612 1.902-7.098l-11.602-20.1c-1.434-2.485-4.612-3.338-7.098-1.902-2.485 1.434-3.336 4.612-1.902 7.098l11.603 20.1z" fill="#fff" stroke="#fff" stroke-width="2.171" id="D"/><path d="m306 87.29c2.87 0 5.197-2.327 5.197-5.197v-23.2c0-2.87-2.327-5.197-5.197-5.197-2.87 0-5.197 2.327-5.197 5.197v23.2c0 2.87 2.327 5.197 5.197 5.197z" fill="#fff" stroke="#fff" stroke-width="2.171" id="E"/></g><g transform="matrix(.7709-.19832.19832.7709-617.75 274.05)"><use xlink:href="#3"/><use xlink:href="#4"/><use xlink:href="#5"/><use xlink:href="#6"/><use xlink:href="#7"/><use xlink:href="#8"/><use xlink:href="#9"/><use xlink:href="#A"/><use xlink:href="#B"/><use xlink:href="#C"/><use xlink:href="#D"/><use xlink:href="#E"/></g></g><g transform="matrix(3.37311.28085.24797 3.37919-65.65 89.46)"><path d="m95.95 94.79l-35.22 35.22 41.09-29.353c-2.406-2.406-4.813-4.813-5.868-5.868l.002.0001" fill="#e0e0e0"/><path d="m60.669 130.27l35.22-35.22-.002-.002c-2.406-2.406-4.813-4.813-5.868-5.868l-29.35 41.09" fill="#f6f6f6"/><path transform="translate(.166-.166)" fill="#f32d2c" d="m101.21 101.21l-5.87-5.87 35.22-35.22z"/><path transform="translate(.278-.027)" fill="#f44a4a" d="m130.56 60.12l-41.09 29.35 5.87 5.87 35.22-35.22"/></g></g></g></svg>