<svg xmlns="http://www.w3.org/2000/svg" xmlns:xlink="http://www.w3.org/1999/xlink" viewBox="0 0 48 48"><defs><linearGradient gradientTransform="matrix(.57091 0 0 .57193-95.17-296.5)" y2="517.77" x2="400.7" y1="546.07" x1="400.51" gradientUnits="userSpaceOnUse" id="3" xlink:href="#1"/><linearGradient id="2" y1="542.8" x2="0" y2="507.8" gradientUnits="userSpaceOnUse" gradientTransform="matrix(.94482 0 0 .87704-269.43-451.79)"><stop stop-color="#d3d3d3"/><stop offset="1" stop-color="#fcf9f9"/></linearGradient><linearGradient xlink:href="#1" id="0" y1="542.8" x2="0" y2="507.8" gradientUnits="userSpaceOnUse" gradientTransform="matrix(.94482 0 0 .87704-272.73-466.34)"/><linearGradient id="1"><stop stop-color="#4da70e"/><stop offset="1" stop-color="#9ded46"/></linearGradient></defs><g transform="matrix(.99999 0 0 .99999-92.38 20.932)" enable-background="new"><rect transform="matrix(1 .00179.00605.99998 0 0)" width="41.572" height="29.819" x="92.51" y="-20.985" fill="url(#0)" rx="1.403"/><rect transform="matrix(1 .00179.00605.99998 0 0)" width="41.572" height="29.819" x="95.81" y="-6.436" fill="url(#2)" rx="1.403"/><path d="m118.36 19.658c-2.655-.87-3.863-3.625-2.642-6.02.554-1.088 1.285-1.688 2.48-2.036 1.558-.454 3.267.173 4.164 1.529.614.928.685 2.419.161 3.399-1.23 2.302-4.602 2.253-5.493-.08-.517-1.354.082-2.766 1.383-3.263 1.32-.504 2.707.304 2.861 1.666.065.574.012.757-.338 1.173-.756.898-1.995.795-2.451-.205-.242-.531-.061-.632.434-.242.523.412.91.417 1.31.018.411-.411.393-.821-.058-1.345-.839-.975-2.463-.183-2.493 1.216-.017.79.364 1.4 1.097 1.757 1.858.904 3.911-1.135 3.156-3.135-.208-.551-.862-1.248-1.464-1.563-1.218-.636-3.083-.048-3.935 1.239-.355.537-.424.81-.424 1.676 0 .88.07 1.148.471 1.796.292.473.76.94 1.233 1.232.664.41.904.47 1.863.465 2.272-.012 3.83-1.47 4.3-4.02.333-1.808-.326-3.861-1.655-5.153-.474-.461-.689-.799-.689-1.083 0-.474-.252-1.015-.472-1.015-.085 0-.15.578-.15 1.326v1.326l.7.423c.768.464.946.97.342.97-.197 0-.436-.078-.531-.173-.095-.095-.617-.326-1.159-.513-1.01-.347-1.309-.746-.636-.842.301-.043.35-.143.35-.72v-.67l-.87-.072c-.98-.081-1.147-.24-1.15-1.094-.002-.321-.064-.583-.139-.583-.349 0-.548.582-.611 1.787-.067 1.268-.06 1.299.299 1.35.708.101.532.564-.366.961-.46.203-1.095.597-1.411.875-.575.505-1.041.548-1.041.096 0-.127.315-.494.7-.816.69-.577.7-.599.7-1.54 0-1.189-.394-1.847-1.437-2.4l-.731-.388-.676.663-.676.663-3.102-.042c-3.084-.042-3.102-.044-3.152-.392l-.05-.35h2.403c1.946 0 2.44-.044 2.597-.233.171-.206-.135-.233-2.607-.233-2.053 0-2.843-.052-2.962-.195-.177-.213-.001-1.423.303-2.19.501-1.18 1.339-2.293 2.341-3.121.852-.704 3.329-1.515 3.927-1.285.192.074.242.364.242 1.42 0 .73.056 1.327.124 1.327.305 0 .498-.431.498-1.114 0-.739.002-.741.661-.926 1.026-.287 3.431-.208 4.828.157 3.843 1.01 6.649 3.695 7.596 7.279.43 1.628.466 4.258.076 5.571-.714 2.404-2.261 4.319-4.237 5.244-.826.387-1.29.498-2.223.535-.648.025-1.354-.011-1.569-.081m-4.814-9.412c-.135-.354-.245-.397-1.128-.439-.88-.042-.984-.082-1.029-.397-.047-.333 0-.35 1-.35 1 0 1.084-.029 1.627-.559.495-.484.617-.535.901-.383.448.24.414.451-.17 1.053-.305.315-.501.679-.506.938-.009.575-.497.67-.7.137" fill="#7cd02f"/><ellipse cx="133.52" cy="7.656" transform="matrix(.9964.08481-.08481.9964 0 0)" rx="7.993" ry="8.01" fill="url(#3)"/><path d="m134.35 22.556c-.19 0-.379-.082-.517-.242-.353-.412-.857-.648-1.381-.648-.534 0-1.024.229-1.381.644-.259.302-.7.326-.987.051-.286-.274-.308-.74-.048-1.041.616-.717 1.496-1.129 2.416-1.129.918 0 1.799.413 2.416 1.131.259.302.237.768-.048 1.042-.133.128-.301.191-.469.191m1.549-1.845c-.178 0-.357-.072-.493-.215-.791-.83-1.84-1.288-2.956-1.288-1.118 0-2.168.456-2.957 1.285-.273.287-.716.286-.988-.003-.272-.289-.271-.756.003-1.043 1.052-1.105 2.452-1.714 3.942-1.714 1.487 0 2.887.61 3.941 1.717.274.287.275.754.003 1.043-.136.144-.316.217-.495.217m1.546-1.842c-.174 0-.348-.068-.483-.205-1.219-1.234-2.821-1.914-4.511-1.914-1.693 0-3.296.679-4.512 1.912-.278.282-.72.272-.988-.022-.267-.294-.258-.761.02-1.043 1.478-1.498 3.424-2.322 5.48-2.322 2.052 0 3.997.826 5.478 2.324.278.282.288.749.021 1.043-.137.151-.321.227-.504.227m-5.082 5.472c.466 0 .844-.378.844-.845 0-.467-.378-.845-.844-.845-.466 0-.844.378-.844.845 0 .467.378.845.844.845" fill="#fff" fill-opacity=".872"/></g></svg>