<svg xmlns="http://www.w3.org/2000/svg" viewBox="0 0 48 48"><defs><linearGradient gradientUnits="userSpaceOnUse" x2="47" x1="0"><stop stop-color="#a9a3d4"/><stop offset=".47" stop-color="#87baff"/><stop offset="1" stop-color="#89ec85"/></linearGradient><linearGradient id="0" y1="556.24" x2="0" y2="510.24" gradientUnits="userSpaceOnUse"><stop stop-color="#1365f4"/><stop offset="1" stop-color="#05b2fc"/></linearGradient></defs><g transform="matrix(1.04866 0 0 1.04866-511.61-528.36)" stroke-width="1.317"><rect y="510.24" x="296.96" height="46" width="46" fill="url(#0)" rx="23" stroke-width="2.164" transform="matrix(.99507 0 0 .99507 192.37-3.883)"/><path d="m409.03 539.85c-.819 0-1.541.392-2.01.991l-4.375-2.247c.057-.215.099-.436.099-.669 0-.254-.049-.493-.117-.726l4.356-2.236c.469.627 1.21 1.036 2.051 1.036 1.425 0 2.577-1.157 2.577-2.586 0-1.428-1.153-2.586-2.577-2.586-1.422 0-2.575 1.158-2.575 2.586 0 .234.041.456.099.671l-4.374 2.247c-.472-.6-1.196-.993-2.02-.993-1.423 0-2.575 1.158-2.575 2.587 0 1.429 1.152 2.586 2.575 2.586.842 0 1.582-.411 2.053-1.038l4.354 2.236c-.068.232-.118.473-.118.728 0 1.429 1.154 2.586 2.575 2.586 1.425 0 2.577-1.158 2.577-2.586 0-1.43-1.153-2.587-2.577-2.587" fill="#001534" stroke="none" fill-opacity=".817" transform="matrix(1.69588 0 0 1.69066-176.9-382.32)" stroke-opacity=".8"/></g></svg>