<svg xmlns="http://www.w3.org/2000/svg" viewBox="0 0 48 48"><defs><linearGradient id="3" gradientUnits="userSpaceOnUse" gradientTransform="matrix(.7829 0 0 .72089-1.832 288.38)" spreadMethod="reflect" y1="1017.87" x2="0" y2="1015.36"><stop stop-color="#00a5cc"/><stop offset="1" stop-color="#0086cc" stop-opacity="0"/></linearGradient><linearGradient gradientUnits="userSpaceOnUse" y2="1011.78" x2="21.16" y1="1043.65" x1="24.477" id="2"><stop stop-color="#dcdcdc"/><stop offset="1" stop-color="#f0f0f0"/></linearGradient><linearGradient gradientUnits="userSpaceOnUse" y2="1006.42" x2="25.1" y1="1048.54" x1="24.947" id="0"><stop stop-color="#141414"/><stop offset="1" stop-color="#2d2d2f"/></linearGradient><linearGradient gradientUnits="userSpaceOnUse" y2="1049.64" x2="11.718" y1="1009.42" x1="10.261" id="1"><stop stop-color="#f4f4f4"/><stop offset="1" stop-color="#dbdbdb"/></linearGradient></defs><g transform="matrix(1.05742 0 0 1.05742-1.382-1063.4)"><g fill-rule="evenodd"><rect y="1006.1" x="6.317" height="44.501" width="35.37" fill="url(#0)" stroke="url(#1)" stroke-linecap="round" stroke-width=".892" rx="1.785"/><rect y="1010.6" x="10.595" height="35.493" width="26.817" fill="url(#2)" rx=".892"/></g><g transform="matrix(.86182 0 0 .85113 416.22 1137.64)" fill="#8f8f93" color="#000"><ellipse cx="-462.61" cy="-130.51" rx="2.5" ry="2.5"/><ellipse cx="-458.11" cy="-123.01" rx="3" ry="3"/><ellipse cx="-460.61" cy="-138.51" rx="1.5" ry="1.5"/><path d="m-452.11-140.01l-2.844 2.844 4.375 4.375-4.531 5.156 3 2.625 7-8-7-7"/></g><g><path opacity=".8" fill="url(#3)" d="m6.78 1020.34h34.448v3.61h-34.448z"/><path opacity=".8" fill="#fff" d="m6.78 1021.94h34.448v.41h-34.448z"/></g></g></svg>