<svg xmlns="http://www.w3.org/2000/svg" viewBox="0 0 48 48"><defs><linearGradient id="0" y1="39.583" x2="0" y2="-7.217" gradientUnits="userSpaceOnUse"><stop stop-color="#4da70e"/><stop offset="1" stop-color="#9ded46"/></linearGradient></defs><g transform="matrix(.99999 0 0 .99999-77.4 7.222)" enable-background="new"><circle r="24" cy="16.783" cx="101.41" fill="url(#0)"/><path d="m104.98 32.444c-4.057-1.329-5.904-5.54-4.04-9.204.847-1.662 1.963-2.579 3.789-3.112 2.381-.694 4.993.265 6.364 2.336.939 1.418 1.046 3.696.246 5.195-1.879 3.518-7.03 3.443-8.394-.122-.79-2.069.125-4.227 2.114-4.987 2.02-.77 4.137.464 4.372 2.546.099.877.018 1.157-.517 1.793-1.155 1.373-3.049 1.214-3.746-.314-.37-.811-.093-.965.663-.37.8.629 1.391.637 2 .027.627-.627.6-1.255-.088-2.056-1.282-1.49-3.764-.279-3.81 1.859-.026 1.208.556 2.14 1.676 2.685 2.84 1.382 5.977-1.735 4.823-4.791-.318-.842-1.317-1.908-2.238-2.389-1.861-.971-4.712-.074-6.01 1.893-.543.82-.648 1.237-.648 2.561 0 1.345.107 1.755.72 2.745.447.722 1.161 1.437 1.884 1.883 1.015.627 1.381.718 2.847.71 3.472-.019 5.853-2.247 6.572-6.147.509-2.763-.499-5.901-2.529-7.874-.724-.704-1.053-1.221-1.053-1.655 0-.724-.385-1.551-.722-1.551-.129 0-.229.883-.229 2.027v2.027l1.07.646c1.173.709 1.446 1.482.523 1.482-.301 0-.666-.119-.811-.264-.145-.145-.942-.498-1.771-.783-1.54-.53-2-1.141-.972-1.287.46-.065.535-.219.535-1.1v-1.024l-1.329-.11c-1.497-.124-1.752-.367-1.758-1.672-.003-.49-.097-.892-.212-.892-.533 0-.837.89-.933 2.731-.102 1.938-.091 1.985.457 2.063 1.082.154.813.861-.559 1.468-.703.311-1.673.912-2.157 1.337-.879.772-1.591.838-1.591.147 0-.194.481-.755 1.07-1.247 1.055-.882 1.07-.915 1.07-2.354 0-1.817-.602-2.822-2.196-3.668l-1.116-.592-1.033 1.013-1.033 1.013-4.741-.065c-4.713-.064-4.741-.068-4.817-.6l-.076-.535h3.672c2.974 0 3.729-.068 3.968-.357.261-.315-.206-.357-3.983-.357-3.138 0-4.345-.08-4.527-.298-.271-.326-.015-2.175.464-3.347.765-1.803 2.046-3.504 3.578-4.77 1.302-1.075 5.088-2.315 6-1.964.294.113.369.556.369 2.17 0 1.116.086 2.028.19 2.028.467 0 .761-.658.761-1.703 0-1.129.004-1.133 1.01-1.414 1.567-.438 5.244-.319 7.379.24 5.873 1.537 10.162 5.647 11.608 11.123.657 2.487.712 6.508.116 8.514-1.091 3.674-3.455 6.601-6.475 8.01-1.262.591-1.972.761-3.397.817-.991.039-2.069-.017-2.397-.125m-7.357-14.384c-.206-.542-.374-.607-1.724-.671-1.345-.064-1.504-.125-1.572-.606-.072-.51 0-.535 1.535-.535 1.529 0 1.656-.044 2.486-.855.757-.739.943-.818 1.377-.586.685.366.633.689-.26 1.61-.466.481-.766 1.037-.773 1.433-.014.879-.76 1.024-1.069.209" fill="#fff" fill-opacity=".85" stroke-width="1.317"/></g></svg>