<svg xmlns="http://www.w3.org/2000/svg" viewBox="0 0 48 48"><defs><linearGradient id="0" gradientUnits="userSpaceOnUse" y1="47.85" x2="0" y2="-2.292"><stop stop-color="#4da70e"/><stop offset="1" stop-color="#9ded46"/></linearGradient></defs><g transform="matrix(.92307 0 0 .92307-24.891 2.712)" enable-background="new"><circle r="26" cy="23.07" cx="52.97" fill="url(#0)"/><path d="m66.804 16.712l-2.518-2.518c-.345-.346-.766-.518-1.259-.518-.494 0-.914.173-1.259.518l-12.148 12.167-5.444-5.463c-.346-.346-.766-.518-1.259-.518-.494 0-.914.173-1.259.518l-2.518 2.518c-.346.346-.518.766-.518 1.259 0 .494.173.914.518 1.259l6.704 6.704 2.519 2.518c.345.346.765.518 1.259.518.494 0 .914-.173 1.259-.518l2.519-2.518 13.407-13.407c.345-.346.518-.766.518-1.259 0-.494-.173-.914-.518-1.259" fill="#fff" fill-opacity=".851"/></g></svg>