<svg xmlns="http://www.w3.org/2000/svg" viewBox="0 0 48 48"><defs><linearGradient gradientTransform="matrix(.5054 0 0 1 229.15 2.167)" gradientUnits="userSpaceOnUse" y2="543.09" x2="0" y1="544.15" id="2"><stop stop-color="#118702"/><stop offset="1" stop-color="#80e950"/></linearGradient><linearGradient id="3" gradientUnits="userSpaceOnUse" y1="546.95" x2="0" y2="544.83"><stop stop-color="#040404"/><stop offset="1" stop-color="#121212" stop-opacity=".908"/></linearGradient><linearGradient id="1" gradientUnits="userSpaceOnUse" x1="449.43" y1="540.75" x2="449.55" y2="518.41"><stop stop-color="#b6b9bf"/><stop offset="1" stop-color="#dddfe2"/></linearGradient><linearGradient gradientUnits="userSpaceOnUse" x2="47" x1="0"><stop stop-color="#a9a3d4"/><stop offset=".47" stop-color="#87baff"/><stop offset="1" stop-color="#89ec85"/></linearGradient><linearGradient id="0" gradientUnits="userSpaceOnUse" gradientTransform="matrix(.24842 0 0 .24428 433.38 517.17)" x1="10.09" x2="122.72"><stop stop-color="#1a1a1a"/><stop offset=".111" stop-color="#2c2c2e"/><stop offset=".29" stop-color="#2b2b2d"/><stop offset=".512" stop-color="#2a2b2d"/><stop offset=".752" stop-color="#2b2b2d"/><stop offset=".897" stop-color="#323232"/><stop offset="1" stop-color="#171717"/></linearGradient></defs><g transform="matrix(.83237 0 0 .70942-375.91-136.99)" stroke-width="1.317"><path d="m435.89 541.07l.248 3.915c0 .406.332.733.745.733h25.99c.413 0 .745-.327.745-.733l.248-3.915h-27.978" transform="matrix(2.018 0 0 2.36768-427.4-1032.5)" fill="url(#0)"/><path d="m438.13 518.12h23.26c.413 0 .745.327.745.733l1.739 22.1c0 .406-.332.733-.745.733h-26.489c-.413 0-.745-.327-.745-.733l1.49-22.1c0-.406.332-.733.745-.733" transform="matrix(2.018 0 0 2.36768-427.4-1032.5)" fill="url(#1)"/><rect y="545.61" x="450.87" height=".769" width="11.463" transform="matrix(2.018 0 0 2.36768-440.88-1037.5)" fill="url(#2)" rx=".384"/><ellipse cx="467.09" cy="546.02" rx="1.061" ry="1.061" transform="matrix(2.018 0 0 2.36768-440.88-1037.5)" opacity=".452" fill="url(#3)"/><g fill="#e3e8ea" stroke-width="1.317" transform="matrix(.01711 0 0 .02008 500.61 253.91)"><path d="m63 73.22c2.824 0 5.27-1.031 7.332-3.096 2.064-2.063 3.098-4.508 3.098-7.332v-52.14c0-2.825-1.033-5.269-3.098-7.332-2.062-2.065-4.507-3.097-7.332-3.097-2.825 0-5.269 1.033-7.333 3.097-2.064 2.063-3.096 4.508-3.096 7.332v52.14c0 2.824 1.032 5.269 3.096 7.332 2.064 2.065 4.509 3.096 7.333 3.096" opacity=".668"/><path d="m119.01 45.27c-4.373-8.744-10.523-16.08-18.453-21.997-2.281-1.738-4.861-2.417-7.74-2.037-2.879.38-5.16 1.738-6.844 4.073-1.738 2.281-2.403 4.847-1.996 7.699.406 2.853 1.752 5.147 4.03 6.885 5.321 4.02 9.438 8.935 12.342 14.747 2.906 5.811 4.358 12 4.358 18.575 0 5.65-1.1 11.04-3.299 16.17-2.2 5.133-5.174 9.573-8.922 13.321-3.748 3.747-8.187 6.721-13.32 8.921-5.133 2.2-10.524 3.301-16.17 3.301-5.648 0-11.04-1.101-16.17-3.301-5.133-2.2-9.573-5.174-13.321-8.921-3.747-3.748-6.721-8.188-8.921-13.321-2.2-5.133-3.3-10.523-3.3-16.17 0-6.571 1.453-12.763 4.359-18.575 2.906-5.811 7.02-10.727 12.343-14.747 2.281-1.739 3.625-4.03 4.03-6.885.407-2.851-.258-5.418-1.996-7.699-1.684-2.335-3.951-3.693-6.803-4.073-2.852-.38-5.446.299-7.781 2.037-7.931 5.92-14.08 13.253-18.454 21.997-4.373 8.745-6.559 18.06-6.559 27.945 0 8.474 1.657 16.566 4.97 24.279 3.314 7.713 7.767 14.366 13.362 19.961 5.594 5.594 12.248 10.05 19.961 13.36 7.713 3.314 15.806 4.972 24.279 4.972 8.473 0 16.566-1.658 24.279-4.972 7.713-3.312 14.367-7.766 19.961-13.36 5.594-5.594 10.05-12.248 13.361-19.961 3.313-7.713 4.969-15.806 4.969-24.279 0-9.885-2.183-19.2-6.556-27.945" opacity=".668"/></g><path d="m483.94 236.08c-4.27-1.399-6.215-5.831-4.25-9.688.891-1.75 2.067-2.715 3.988-3.275 2.506-.731 5.255.278 6.698 2.459.988 1.493 1.101 3.891.259 5.468-1.978 3.703-7.402 3.624-8.835-.129-.832-2.178.131-4.449 2.225-5.249 2.124-.811 4.354.488 4.601 2.68.104.923.019 1.218-.544 1.887-1.216 1.445-3.21 1.278-3.942-.33-.389-.854-.098-1.016.698-.39.842.662 1.464.671 2.106.029.66-.66.632-1.321-.093-2.164-1.349-1.568-3.961-.294-4.01 1.956-.028 1.271.585 2.253 1.764 2.827 2.989 1.454 6.291-1.826 5.076-5.04-.335-.886-1.386-2.01-2.355-2.514-1.959-1.023-4.96-.078-6.33 1.993-.571.864-.683 1.302-.683 2.696 0 1.416.113 1.847.757 2.889.47.76 1.222 1.512 1.983 1.982 1.069.66 1.453.756 2.996.748 3.654-.02 6.161-2.365 6.917-6.47.536-2.908-.525-6.211-2.662-8.288-.762-.741-1.108-1.285-1.108-1.742 0-.763-.405-1.632-.76-1.632-.136 0-.241.93-.241 2.133v2.133l1.126.68c1.235.746 1.522 1.56.551 1.56-.317 0-.701-.125-.854-.278-.153-.153-.992-.524-1.864-.824-1.621-.558-2.106-1.201-1.023-1.355.484-.069.563-.231.563-1.158v-1.078l-1.399-.116c-1.576-.131-1.844-.386-1.85-1.76-.003-.516-.103-.938-.223-.938-.561 0-.881.936-.983 2.875-.107 2.04-.096 2.089.481 2.171 1.139.162.856.907-.589 1.545-.74.327-1.761.96-2.27 1.407-.926.813-1.675.882-1.675.154 0-.204.507-.794 1.126-1.312 1.11-.928 1.126-.963 1.126-2.478 0-1.912-.634-2.97-2.312-3.86l-1.175-.623-1.087 1.067-1.087 1.067-4.99-.068c-4.961-.068-4.99-.071-5.07-.631l-.08-.563h3.865c3.131 0 3.925-.071 4.177-.375.275-.331-.217-.375-4.193-.375-3.303 0-4.574-.084-4.764-.313-.285-.343-.015-2.289.488-3.523.806-1.898 2.153-3.688 3.766-5.02 1.37-1.132 5.355-2.437 6.316-2.068.309.119.389.585.389 2.284 0 1.174.09 2.135.2 2.135.491 0 .801-.693.801-1.792 0-1.188.004-1.192 1.064-1.489 1.65-.461 5.52-.335 7.767.253 6.182 1.618 10.696 5.944 12.218 11.708.691 2.618.749 6.85.122 8.962-1.148 3.867-3.637 6.948-6.816 8.436-1.329.622-2.075.801-3.575.86-1.043.041-2.178-.018-2.523-.131zm-7.744-15.14c-.217-.57-.393-.639-1.815-.706-1.416-.067-1.583-.132-1.655-.638-.076-.536 0-.563 1.616-.563 1.609 0 1.743-.046 2.617-.9.797-.778.993-.861 1.449-.617.721.386.666.725-.274 1.694-.491.507-.806 1.092-.813 1.509-.015.925-.8 1.078-1.126.22z" fill="#a1a7ae" stroke="#909296" stroke-width=".159"/></g></svg>