<svg xmlns="http://www.w3.org/2000/svg" viewBox="0 0 48 48"><defs><linearGradient gradientUnits="userSpaceOnUse" x2="47" x1="0"><stop stop-color="#a9a3d4"/><stop offset=".47" stop-color="#87baff"/><stop offset="1" stop-color="#89ec85"/></linearGradient><linearGradient x2="459" x1="0" gradientUnits="userSpaceOnUse"><stop stop-color="#e3203a"/><stop offset="1" stop-color="#fd5420"/></linearGradient><linearGradient gradientUnits="userSpaceOnUse" y2="155.59" x2="20.03" y1="261.26" x1="18.6" id="0"><stop stop-color="#2a2c2f"/><stop offset="1" stop-color="#424649"/></linearGradient></defs><g transform="translate(-24.491-14.178)" stroke-width="1.317"><rect transform="matrix(.43355 0 0 .43481 38.04-53.01)" y="154.68" x="-31.27" height="110.05" width="110.71" fill="url(#0)" rx="8.63" stroke-width="1.317"/><path d="m63 48.667h-8v-16h8c8.836 0 16-7.164 16-16 0-8.836-7.164-16-16-16-8.837 0-16 7.164-16 16v8h-16v-8c0-8.836-7.164-16-16-16-8.836 0-16 7.164-16 16 0 8.836 7.164 16 16 16h8v16h-8c-8.836 0-16 7.164-16 16 0 8.836 7.164 16 16 16 8.837 0 16-7.164 16-16v-8h16v7.98c0 .008-.0001.014-.0001.02 0 8.836 7.164 16 16 16 8.836 0 16-7.164 16-16 0-8.836-7.163-15.998-15.999-16m0-40c4.418 0 8 3.582 8 8 0 4.418-3.582 8-8 8h-8v-8c0-4.418 3.582-8 8-8m-56 8c0-4.418 3.582-8 8-8 4.418 0 8 3.582 8 8v8h-8c-4.418 0-8-3.583-8-8m8 56c-4.418 0-8-3.582-8-8 0-4.418 3.582-8 8-8h8v8c0 4.418-3.582 8-8 8m16-24v-16h16v16h-16m32 24c-4.418 0-8-3.582-8-8v-8h7.999c4.418 0 8 3.582 8 8 0 4.418-3.581 8-7.999 8" fill="#fff" fill-opacity=".847" transform="matrix(.3 0 0 .3 36.487 26.18)"/></g></svg>