<svg xmlns="http://www.w3.org/2000/svg" viewBox="0 0 48 48"><defs><linearGradient id="0" gradientUnits="userSpaceOnUse" y1="34.31" x2="0" y2="-13.689"><stop stop-color="#4da70e"/><stop offset="1" stop-color="#9ded46"/></linearGradient></defs><g transform="matrix(.99999 0 0 .99999-93.63 13.692)" enable-background="new"><rect width="48" height="48" x="93.64" y="-13.689" fill="url(#0)" rx="24"/><path d="m134.23 8.457c-.053-.469-.6-.822-1.073-.822-1.53 0-2.888-.898-3.457-2.288-.582-1.423-.207-3.083.934-4.129.359-.328.403-.877.101-1.259-.783-.994-1.673-1.893-2.645-2.671-.381-.305-.939-.263-1.269.102-.995 1.102-2.783 1.512-4.164.935-1.437-.605-2.344-2.061-2.255-3.625.029-.491-.33-.918-.819-.975-1.247-.144-2.505-.149-3.756-.001-.484.053-.843.47-.827.955.054 1.548-.863 2.979-2.286 3.562-1.365.557-3.14.151-4.133-.941-.328-.36-.878-.404-1.26-.106-1 .785-1.911 1.684-2.701 2.67-.308.383-.263.939.1 1.269 1.162 1.052 1.537 2.726.934 4.166-.576 1.372-2 2.257-3.633 2.257-.529-.017-.906.338-.964.82-.147 1.254-.149 2.532-.007 3.797.052.471.616.821 1.095.821 1.454-.037 2.85.863 3.435 2.288.584 1.423.208 3.082-.934 4.128-.357.328-.403.877-.102 1.258.776.988 1.666 1.887 2.641 2.672.383.308.939.265 1.271-.101.999-1.105 2.786-1.514 4.162-.936 1.441.603 2.348 2.059 2.259 3.624-.029.491.332.919.819.975.638.074 1.28.112 1.923.112.611 0 1.222-.034 1.833-.102.484-.053.843-.47.827-.956-.056-1.547.863-2.978 2.284-3.56 1.374-.561 3.142-.15 4.135.941.33.359.876.402 1.26.105.999-.783 1.907-1.681 2.701-2.67.308-.383.265-.939-.1-1.269-1.162-1.052-1.539-2.727-.935-4.165.568-1.354 1.94-2.263 3.415-2.263l.206.005c.479.039.919-.33.977-.818.147-1.255.149-2.532.007-3.797m-16.564 7.458c-3.071 0-5.569-2.498-5.569-5.569 0-3.071 2.498-5.569 5.569-5.569 3.071 0 5.569 2.498 5.569 5.569 0 3.071-2.498 5.569-5.569 5.569" fill="#fff" fill-rule="evenodd" fill-opacity=".847" stroke-width="1.317"/></g></svg>