<svg xmlns="http://www.w3.org/2000/svg" viewBox="0 0 48 48"><defs><linearGradient y2="-4.697" x2="124.29" y1="42.935" x1="124.01" gradientUnits="userSpaceOnUse" id="0"><stop stop-color="#4da70e"/><stop offset="1" stop-color="#9ded46"/></linearGradient></defs><g transform="matrix(.99999 0 0 .99999-100.15 5.272)" enable-background="new"><path d="m146.44 4.844c-.015-1.125-.881-2.055-2-2.157-9.309-.871-16.906-5.846-19.41-7.665-.523-.382-1.233-.382-1.756 0-2.5 1.82-10.1 6.795-19.405 7.665-1.12.103-1.981 1.032-2 2.157-.113 7.342 1.066 32.27 21.724 37.818.367.098.753.098 1.12 0 20.658-5.542 21.837-30.475 21.729-37.818" fill="url(#0)"/><path d="m141.25 8.374c-.011-.873-.677-1.594-1.538-1.674-7.154-.676-12.993-4.536-14.918-5.948-.402-.296-.947-.296-1.35 0-1.921 1.412-7.76 5.272-14.914 5.948-.861.08-1.523.801-1.538 1.674-.087 5.697.82 25.04 16.696 29.344.282.076.579.076.861 0 15.877-4.3 16.783-23.647 16.7-29.344" opacity=".675" fill="#fff"/><path d="m129.33 17.71v-2.146c0-2.912-2.369-5.282-5.282-5.282-2.912 0-5.282 2.37-5.282 5.282v2.146c-.416.087-.73.457-.73.899v8.04c0 .506.412.919.919.919h10.186c.507 0 .919-.412.919-.919v-8.04c0-.442-.314-.812-.73-.899m-4.048 6.854c.019.101-.049.181-.15.181h-2.144c-.101 0-.168-.08-.15-.181l.341-1.809c-.258-.236-.421-.575-.421-.952 0-.712.577-1.289 1.289-1.289.712 0 1.289.577 1.289 1.289 0 .367-.154.698-.4.933zm2.21-6.874h-6.888v-2.126c0-1.899 1.545-3.444 3.444-3.444 1.899 0 3.444 1.545 3.444 3.444z" fill="#72c728"/></g></svg>