<svg xmlns="http://www.w3.org/2000/svg" viewBox="0 0 48 48"><defs><linearGradient id="0" gradientUnits="userSpaceOnUse" y1="31.739" x2="0" y2="-16.261"><stop stop-color="#2a2c2f"/><stop offset="1" stop-color="#424649"/></linearGradient><linearGradient gradientUnits="userSpaceOnUse" y2="-10.406" x2="46.27" y1="26.17" x1="45.36" id="1"><stop stop-color="#4da70e"/><stop offset="1" stop-color="#9ded46"/></linearGradient></defs><g transform="matrix(.99999 0 0 .99999-19.501 16.272)" enable-background="new"><rect y="-16.261" x="19.508" height="48" width="48" fill="url(#0)" rx="24"/><path d="m43.542-8.956c3.513.008 7.08 1.103 9.858 3.27 1.956 2.254-1.771 4.667-3.45 2.47-5.05-3.058-12.181-1.981-15.983 2.59-2.023 2.269-3.163 5.296-3.149 8.335h3.34l-5.344 8.02-5.344-8.02h3.34c-.107-7.256 5.112-14.159 12.12-16.04 1.503-.412 3.052-.644 4.613-.627m14.661 8.683l5.344 8.02h-3.34c.095 7.343-5.257 14.323-12.387 16.1-4.811 1.343-10.25.363-14.204-2.71-2.02-2.291 1.762-4.681 3.456-2.464 4.896 2.971 11.753 2.028 15.618-2.214 2.238-2.306 3.525-5.502 3.508-8.715h-3.34l5.344-8.02" fill="url(#1)" stroke-width="1.317"/></g></svg>