<svg xmlns="http://www.w3.org/2000/svg" viewBox="0 0 48 48"><defs><linearGradient id="0" y1="544.23" x2="0" y2="502.98" gradientUnits="userSpaceOnUse"><stop stop-color="#0bac83"/><stop offset="1" stop-color="#10da96"/></linearGradient></defs><g transform="matrix(1.16381 0 0 1.16381-451.39-585.26)"><rect y="502.98" x="387.88" height="41.24" width="41.24" fill="url(#0)" rx="20.622"/><path d="m412.39 537.33c-.401-.404-1.052-.404-1.453 0l-4.057 4.497-4.057-4.497c-.402-.404-1.052-.404-1.453 0-.402.404-.402 1.058 0 1.461l4.719 5.231c.217.218.507.314.791.296.284.018.574-.078.791-.296l4.719-5.231c.401-.404.401-1.058 0-1.461m-5.516-4.351c.935 0 1.693-.761 1.693-1.7 0-.939-.758-1.7-1.693-1.7-.935 0-1.693.761-1.693 1.7 0 .939.758 1.7 1.693 1.7m0 4.858c.935 0 1.693-.761 1.693-1.7 0-.939-.758-1.7-1.693-1.7-.935 0-1.693.761-1.693 1.7 0 .939.758 1.7 1.693 1.7" fill="#fff" fill-opacity=".855" transform="matrix(-1.55255-.00329.00328-1.54777 1038.24 1356.26)"/></g></svg>