<svg xmlns="http://www.w3.org/2000/svg" viewBox="0 0 48 48"><defs><clipPath><rect width="32" height="32" x="392.57" y="507.8" fill="none" rx="16"/></clipPath><clipPath><rect width="32" height="32" x="392.57" y="507.8" fill="none" rx="16"/></clipPath><clipPath><rect width="32" height="32" x="392.57" y="507.8" fill="none" rx="16"/></clipPath><clipPath><rect width="32" height="32" x="8" y="8" fill="none" rx="16"/></clipPath><clipPath><rect width="32" height="32" x="392.57" y="507.8" fill="none" rx="16"/></clipPath><clipPath><rect width="32" height="32" x="392.57" y="507.8" fill="none" rx="16"/></clipPath><clipPath><rect y="507.8" x="392.57" height="32" width="32" fill="none" rx="16"/></clipPath><clipPath><rect y="8" x="8" height="32" width="32" fill="none" rx="16"/></clipPath><clipPath><rect y="507.8" x="392.57" height="32" width="32" fill="none" rx="16"/></clipPath><clipPath><rect width="32" height="32" x="392.57" y="507.8" fill="none" rx="16"/></clipPath><clipPath><rect y="507.8" x="392.57" height="32" width="32" fill="none" rx="16"/></clipPath><clipPath><path d="m0 706.47h1490.93v-706.47h-1490.93v706.47"/></clipPath><clipPath><rect width="32" height="32" x="8" y="8" fill="none" rx="16"/></clipPath><clipPath><path d="m22.2 686.12h1447.73v-667.19h-1447.73v667.19"/></clipPath><clipPath><rect width="32" height="32" x="8" y="8" fill="none" rx="16"/></clipPath><clipPath><rect width="32" height="32" x="392.57" y="507.8" fill="none" rx="16"/></clipPath><clipPath><rect width="32" height="32" x="392.57" y="507.8" fill="none" rx="16"/></clipPath><clipPath><rect width="32" height="32" x="392.57" y="507.8" fill="none" rx="16"/></clipPath><linearGradient y2="500.8" x2="0" y1="546.8" gradientUnits="userSpaceOnUse" id="0"><stop stop-color="#ff9300"/><stop offset="1" stop-color="#ffd702"/></linearGradient><linearGradient gradientUnits="userSpaceOnUse" x2="47" x1="0"><stop stop-color="#a9a3d4"/><stop offset=".47" stop-color="#87baff"/><stop offset="1" stop-color="#89ec85"/></linearGradient></defs><g transform="matrix(1.04348 0 0 1.04348-508.97-525.63)" stroke-width="1.317"><rect width="46" height="46" x="385.57" y="500.8" fill="url(#0)" rx="23" stroke-width="1.515" transform="translate(102.19 2.931)"/><path d="m143.72 86.14c-1.521-1.521-3.367-2.281-5.541-2.281h-7.82v-15.644c0-2.824-1.033-5.269-3.096-7.332-2.064-2.065-4.51-3.097-7.334-3.097h-41.714v-15.643h7.82c2.174 0 4.02-.76 5.541-2.281 1.521-1.52 2.28-3.367 2.28-5.54v-26.07c0-2.173-.76-4.02-2.28-5.54-1.521-1.521-3.367-2.281-5.541-2.281h-26.07c-2.173 0-4.02.76-5.54 2.281-1.521 1.52-2.281 3.367-2.281 5.54v26.07c0 2.173.76 4.02 2.281 5.54 1.52 1.521 3.367 2.281 5.54 2.281h7.821v15.643h-41.714c-2.825 0-5.269 1.033-7.333 3.097-2.064 2.063-3.096 4.508-3.096 7.332v15.644h-7.822c-2.172 0-4.02.761-5.54 2.281-1.521 1.52-2.281 3.367-2.281 5.54v26.07c0 2.173.76 4.02 2.281 5.54 1.521 1.521 3.368 2.281 5.54 2.281h26.07c2.172 0 4.02-.761 5.54-2.281 1.521-1.52 2.281-3.367 2.281-5.54v-26.07c0-2.173-.76-4.02-2.281-5.54-1.521-1.521-3.368-2.281-5.54-2.281h-7.822v-15.644h41.714v15.644h-7.821c-2.173 0-4.02.761-5.54 2.281-1.521 1.52-2.281 3.367-2.281 5.54v26.07c0 2.173.76 4.02 2.281 5.54 1.52 1.521 3.367 2.281 5.54 2.281h26.07c2.174 0 4.02-.761 5.541-2.281 1.52-1.521 2.281-3.367 2.281-5.54v-26.07c0-2.173-.76-4.02-2.281-5.54-1.521-1.521-3.367-2.281-5.541-2.281h-7.82v-15.644h41.715v15.644h-7.822c-2.172 0-4.02.761-5.541 2.281-1.52 1.521-2.28 3.367-2.28 5.54v26.07c0 2.173.76 4.02 2.28 5.54 1.521 1.521 3.369 2.281 5.541 2.281h26.07c2.172 0 4.02-.761 5.539-2.281 1.521-1.52 2.281-3.367 2.281-5.54v-26.07c0-2.173-.76-4.02-2.279-5.54" fill="#322300" fill-opacity=".74" transform="matrix(.19178 0 0 .19178 496.76 514.64)"/></g></svg>