<svg xmlns="http://www.w3.org/2000/svg" viewBox="0 0 48 48"><defs><linearGradient id="0" gradientUnits="userSpaceOnUse" x1="37.27" y1="32.599" x2="37.594" y2="-15.918"><stop stop-color="#4da70e"/><stop offset="1" stop-color="#9ded46"/></linearGradient></defs><g transform="matrix(.99999 0 0 .99999-13.371 15.882)" enable-background="new"><circle cx="37.37" cy="8.125" r="24" fill="url(#0)"/><path d="m46.518 7.554h-1.714v-4.571c0-1.257-1.029-2.286-2.286-2.286h-4.571v-1.714c0-1.6-1.257-2.857-2.857-2.857-1.6 0-2.857 1.257-2.857 2.857v1.714h-4.571c-1.257 0-2.286 1.029-2.286 2.286v4.343h1.714c1.714 0 3.086 1.371 3.086 3.086 0 1.714-1.371 3.086-3.086 3.086h-1.714v4.343c0 1.257 1.029 2.286 2.286 2.286h4.343v-1.714c0-1.714 1.371-3.086 3.086-3.086 1.714 0 3.086 1.371 3.086 3.086v1.714h4.343c1.257 0 2.286-1.029 2.286-2.286v-4.571h1.714c1.6 0 2.857-1.257 2.857-2.857 0-1.6-1.257-2.857-2.857-2.857" fill="#fff" fill-opacity=".85"/></g></svg>