<svg xmlns="http://www.w3.org/2000/svg" viewBox="0 0 48 48"><defs><linearGradient id="0" gradientUnits="userSpaceOnUse" x1="-1.15" y1="10.227" x2="-.512" y2="1.823"><stop stop-color="#ececec"/><stop offset="1" stop-color="#fefefe"/></linearGradient><linearGradient gradientUnits="userSpaceOnUse" y2="-7.855" x2="0" y1="19.445" id="1"><stop stop-color="#c52828"/><stop offset="1" stop-color="#ff5454"/></linearGradient></defs><g transform="matrix(1.71427 0 0 1.71427 25.749 13.482)" enable-background="new"><circle cx="-1.018" cy="6.145" r="14" fill="url(#1)"/><path d="m5.891 3.779c-.079-.948-.644-2.143-1.806-2.186-3.243-.218-7.085-.278-10.387 0-1.024.115-1.727 1.363-1.803 2.31-.162 1.991-.162 3.124 0 5.115.077.948.762 2.203 1.805 2.334 3.341.218 7.164.249 10.387 0 1.011-.175 1.727-1.387 1.805-2.334.161-1.992.161-3.248-.0001-5.239m-8.779 5.207v-5.104l4.45 2.552-4.45 2.552" opacity=".878" fill="url(#0)" stroke-width="1.317"/></g></svg>