<svg xmlns="http://www.w3.org/2000/svg" viewBox="0 0 48 48"><defs><clipPath><path d="m-24 13c0 1.105-.672 2-1.5 2-.828 0-1.5-.895-1.5-2 0-1.105.672-2 1.5-2 .828 0 1.5.895 1.5 2" transform="matrix(15.33333 0 0 11.5 415-125.5)" fill="#1890d0"/></clipPath><clipPath><path d="m-24 13c0 1.105-.672 2-1.5 2-.828 0-1.5-.895-1.5-2 0-1.105.672-2 1.5-2 .828 0 1.5.895 1.5 2" transform="matrix(15.33333 0 0 11.5 415-125.5)" fill="#1890d0"/></clipPath><linearGradient gradientUnits="userSpaceOnUse" y2="517.8" x2="0" y1="545.8"><stop stop-color="#3889e9"/><stop offset="1" stop-color="#5ea5fb"/></linearGradient><linearGradient gradientUnits="userSpaceOnUse" y2="301.3" x2="0" y1="653.96" id="0"><stop stop-color="#0a80fd"/><stop offset="1" stop-color="#56c5fa"/></linearGradient></defs><circle r="173.45" cy="478.75" cx="-325.89" transform="matrix(.13837 0 0 .13837 69.1-42.25)" fill="url(#0)"/><path d="m-374.67 462.39c-4.616-21.581 13.517-40.585 34.07-43.34 29-3.889 53.57 20.405 56.1 48.32 3.303 36.39-27.298 66.62-62.58 68.866-43.756 2.783-79.71-34.19-81.63-76.83-2.298-51.12 41.09-92.82 91.09-94.39 58.48-1.834 105.95 47.982 107.15 105.34 1.384 65.843-54.877 119.08-119.6 119.92-73.2.943-132.22-61.772-132.68-133.85-.509-80.56 68.67-145.37 148.11-145.44 87.92-.079 158.52 75.56 158.2 162.36-.138 37.805-13.384 74.98-36.838 104.59" transform="matrix(.1086 0 0 .11147 60.2-26.539)" stroke-opacity=".851" fill="none" fill-rule="evenodd" stroke="#fff" stroke-linejoin="round" stroke-linecap="round" stroke-width="26.01"/></svg>