<svg xmlns="http://www.w3.org/2000/svg" xmlns:xlink="http://www.w3.org/1999/xlink" viewBox="0 0 48 48"><defs><linearGradient id="8" x1="-42.74" y1="20.17" x2="-42.945" y2="8.222" gradientUnits="userSpaceOnUse"><stop stop-color="#ceb270"/><stop offset="1" stop-color="#ffe6b5"/></linearGradient><linearGradient xlink:href="#6" id="5" x1="-46.35" y1="14.902" x2="-46.46" y2="7.834" gradientUnits="userSpaceOnUse"/><linearGradient xlink:href="#6" id="7" x1="-39.02" y1="14.978" x2="-39.27" y2="8.351" gradientUnits="userSpaceOnUse"/><linearGradient id="6"><stop stop-color="#141414"/><stop offset="1" stop-color="#2d2d2f"/></linearGradient><linearGradient xlink:href="#1" id="4" x1="-58.804" y1="5.511" x2="-56.15" y2="-4.15" gradientUnits="userSpaceOnUse"/><linearGradient id="3" x1="-43.715" y1="9.663" x2="-43.47" y2="-13.524" gradientUnits="userSpaceOnUse"><stop stop-color="#c52828"/><stop offset="1" stop-color="#ff5454"/></linearGradient><linearGradient xlink:href="#1" id="0" x1="-26.599" y1="6.02" x2="-28.01" y2="-4.658" gradientUnits="userSpaceOnUse"/><linearGradient xlink:href="#1" id="2" x1="-43.3" y1="4.793" x2="-43.474" y2="-11.173" gradientUnits="userSpaceOnUse"/><linearGradient id="1"><stop stop-color="#e0e0e0"/><stop offset="1" stop-color="#fcf9f9"/></linearGradient></defs><g transform="matrix(1.43114 0 0 1.43114 85.03 20.452)" enable-background="new"><path d="m-52.71 13.562c-2.869-1.059-6.665-3.506-6.665-9.678 0-6.173 5.104-17.455 16.751-17.455 11.647 0 16.751 11.282 16.751 17.455 0 6.173-3.796 8.62-6.665 9.678-6.821 1.4-13.223 1.344-20.17 0" fill="url(#3)"/><path d="m-42.625 18.538c2.886 0 6.287-.363 7.822-2.025 1.143-1.237 1.443-3.511 1.416-5.04-.618-.865-3.453-3.2-9.238-3.2-5.784 0-8.62 2.335-9.238 3.2-.027 1.525.273 3.798 1.416 5.04 1.535 1.662 4.936 2.025 7.822 2.025" fill="url(#8)"/><path d="m-47.06 12.426c0 1.481.14 2.807.882 2.807.742 0 .882-1.29.882-2.771 0-1.481-.032-2.771-.837-2.771-.805 0-.927 1.254-.927 2.735" fill="url(#5)"/><path d="m-38.19 12.426c0 1.481-.14 2.807-.882 2.807-.742 0-.882-1.29-.882-2.771 0-1.481.032-2.771.837-2.771.805 0 .927 1.254.927 2.735" fill="url(#7)"/><path d="m-42.625-11.1c-4.361 0-7.897 3.427-7.897 7.655 0 4.228 3.535 7.655 7.897 7.655 4.361 0 7.897-3.427 7.897-7.655 0-4.228-3.535-7.655-7.897-7.655" opacity=".95" fill="url(#2)"/><g fill-rule="evenodd"><path d="m-58.948 7.149c3.571-2.066 4.542-8.938 2.327-12.428-1.909 2.578-3.657 8.179-2.327 12.428" opacity=".95" fill="url(#4)"/><path d="m-26.345 7.149c-3.571-2.066-4.542-8.938-2.327-12.428 1.909 2.578 3.657 8.179 2.327 12.428" opacity=".95" fill="url(#0)"/></g></g></svg>