<svg xmlns="http://www.w3.org/2000/svg" viewBox="0 0 22 22"><defs><clipPath><path d="m69.63 12.145h-.052c-22.727-.292-46.47 4.077-46.709 4.122-2.424.451-4.946 2.974-5.397 5.397-.044.237-4.414 23.983-4.122 46.71-.292 22.777 4.078 46.523 4.122 46.761.451 2.423 2.974 4.945 5.398 5.398.237.044 23.982 4.413 46.709 4.121 22.779.292 46.524-4.077 46.761-4.121 2.423-.452 4.946-2.976 5.398-5.399.044-.236 4.413-23.981 4.121-46.709.292-22.777-4.077-46.523-4.121-46.761-.453-2.423-2.976-4.946-5.398-5.397-.238-.045-23.984-4.414-46.71-4.122"/></clipPath></defs><path d="m.791 3c-.211 0-.381.169-.381.381v15.572l21.18.045v-13.363c0-.211-.171-.383-.383-.383h-11.48c-.389.034-.439-.017-.631-.273-.273-.365-.685-1.347-.953-1.703-.215-.312-.25-.275-.607-.275h-6.744m9.469 6.06h1.482c-.002.711 0 2.582 0 2.582h2.404v1.482h-2.404c0 0-.0001 1.868-.002 2.582h-1.482c.0001-.714.002-2.582.002-2.582 0 0-1.61-.0001-2.406 0v-1.48c.796-.002 2.406-.002 2.406-.002 0 0-.0001-1.871 0-2.582" transform="matrix(1.0001 0 0 1.0001 0 .008)" color="#000" fill="#1A1D20"/></svg>