<svg xmlns="http://www.w3.org/2000/svg" viewBox="0 0 22 22"><defs><clipPath><path d="m69.63 12.145h-.052c-22.727-.292-46.47 4.077-46.709 4.122-2.424.451-4.946 2.974-5.397 5.397-.044.237-4.414 23.983-4.122 46.71-.292 22.777 4.078 46.523 4.122 46.761.451 2.423 2.974 4.945 5.398 5.398.237.044 23.982 4.413 46.709 4.121 22.779.292 46.524-4.077 46.761-4.121 2.423-.452 4.946-2.976 5.398-5.399.044-.236 4.413-23.981 4.121-46.709.292-22.777-4.077-46.523-4.121-46.761-.453-2.423-2.976-4.946-5.398-5.397-.238-.045-23.984-4.414-46.71-4.122"/></clipPath></defs><path d="m4.6 3c-.443 0-.799.358-.799.801v14.398c0 .443.356.801.799.801h12.801c.443 0 .799-.358.799-.801v-14.398c0-.443-.356-.801-.799-.801h-12.801m5.656 4.666h1.488c-.002.713 0 2.59 0 2.59h2.412v1.488h-2.412c0 0 .0001 1.874 0 2.59h-1.488c.0001-.716 0-2.59 0-2.59 0 0-1.613-.0001-2.412 0v-1.486c.799-.002 2.412-.002 2.412-.002 0 0-.0001-1.877 0-2.59" transform="translate(0-.032)" stroke-opacity=".55" fill="#1A1D20" stroke-width="2.8" stroke="none"/></svg>