<svg xmlns="http://www.w3.org/2000/svg" viewBox="0 0 22 22"><defs><clipPath><path d="m69.63 12.145h-.052c-22.727-.292-46.47 4.077-46.709 4.122-2.424.451-4.946 2.974-5.397 5.397-.044.237-4.414 23.983-4.122 46.71-.292 22.777 4.078 46.523 4.122 46.761.451 2.423 2.974 4.945 5.398 5.398.237.044 23.982 4.413 46.709 4.121 22.779.292 46.524-4.077 46.761-4.121 2.423-.452 4.946-2.976 5.398-5.399.044-.236 4.413-23.981 4.121-46.709.292-22.777-4.077-46.523-4.121-46.761-.453-2.423-2.976-4.946-5.398-5.397-.238-.045-23.984-4.414-46.71-4.122"/></clipPath></defs><path d="m4.6 3c-.443 0-.799.358-.799.801v14.398c0 .443.356.801.799.801h12.801c.443 0 .799-.358.799-.801v-14.398c0-.443-.356-.801-.799-.801h-12.801m4.572 5c.135 0 .25.046.344.141l1.484 1.486 1.484-1.486c.094-.094.209-.141.344-.141.135 0 .249.046.344.141l.688.688c.094.094.141.209.141.344 0 .135-.046.25-.141.344l-1.486 1.484 1.486 1.484c.094.094.141.209.141.344 0 .135-.046.25-.141.344l-.688.688c-.094.094-.209.141-.344.141-.135 0-.249-.046-.344-.141l-1.484-1.486-1.484 1.486c-.094.094-.209.141-.344.141-.135 0-.249-.046-.344-.141l-.688-.688c-.094-.094-.141-.209-.141-.344 0-.135.046-.249.141-.344l1.486-1.484-1.486-1.484c-.094-.094-.141-.209-.141-.344 0-.135.046-.25.141-.344l.688-.688c.094-.094.209-.141.344-.141" transform="translate(0-.032)" stroke-opacity=".55" fill="#1A1D20" stroke-width="2.8" stroke="none"/></svg>