<svg xmlns="http://www.w3.org/2000/svg" viewBox="0 0 32 32"><path d="m68 .349c-1.629 0-2.962 1.116-3.994 3.343l-18.325 37.07-40.909 5.947c-3.041.489-4.556 1.741-4.556 3.751 0 1.141.683 2.44 2.041 3.906l29.656 28.839-7.01 40.744c-.109.761-.165 1.297-.165 1.622 0 1.141.28 2.113.85 2.902.57.788 1.43 1.18 2.571 1.18.978 0 2.06-.329 3.255-.982l36.584-19.23 36.584 19.23c1.142.652 2.225.982 3.255.982 1.089 0 1.912-.391 2.482-1.18.569-.788.861-1.761.861-2.902 0-.706-.033-1.241-.088-1.622l-7.01-40.744 29.578-28.839c1.414-1.412 2.118-2.711 2.118-3.906 0-2.01-1.524-3.262-4.568-3.751l-40.898-5.947-18.325-37.07c-1.031-2.227-2.365-3.343-3.994-3.343" stroke="#1A1D20" stroke-width=".177" transform="matrix(.17703 0 0 .17703 3.962 4.493)" fill="#da4453"/></svg>