<svg xmlns="http://www.w3.org/2000/svg" viewBox="0 0 22 22"><path d="M11 3A8 8 0 0 0 3 11 8 8 0 0 0 11 19 8 8 0 0 0 19 11 8 8 0 0 0 11 3M10.941 8.867C14.411 8.859 15.682 10.385 15.736 10.451 15.852 10.598 15.947 10.754 16.03 10.932 16.11 11.123 16.17 11.325 16.191 11.523H16.201L16.209 12.05C16.209 12.428 15.911 12.739 15.543 12.74L13.693 12.744C13.326 12.744 13.03 12.436 13.03 12.05L13.02 11.123C12.978 11.11 12.929 11.1 12.879 11.08 12.421 10.952 11.795 10.775 10.947 10.777 10.1 10.779 9.473 10.96 9.02 11.09 8.967 11.11 8.92 11.12 8.875 11.131L8.877 11.756V12.06C8.878 12.446 8.579 12.757 8.211 12.758L6.363 12.762C5.996 12.763 5.694 12.454 5.693 12.07L5.695 11.549H5.709C5.733 11.35 5.787 11.148 5.871 10.955 5.953 10.773 6.05 10.615 6.158 10.475 7.05 9.338 8.431 8.873 10.941 8.867" transform="translate(.0001-.002)" fill="#da4453" fill-rule="evenodd"/></svg>