<svg xmlns="http://www.w3.org/2000/svg" viewBox="0 0 22 22"><defs><clipPath><rect y="8" x="8" height="32" width="32" fill="none" rx="16"/></clipPath><clipPath><rect y="507.8" x="392.57" height="32" width="32" fill="none" rx="16"/></clipPath><clipPath><rect width="32" height="32" x="392.57" y="507.8" fill="none" rx="16"/></clipPath><clipPath><rect y="507.8" x="392.57" height="32" width="32" fill="none" rx="16"/></clipPath><clipPath><rect y="507.8" x="392.57" height="32" width="32" fill="none" rx="16"/></clipPath><clipPath><rect width="32" height="32" x="392.57" y="507.8" fill="none" rx="16"/></clipPath><clipPath><rect width="32" height="32" x="8" y="8" fill="none" rx="16"/></clipPath><clipPath><rect width="32" height="32" x="392.57" y="507.8" fill="none" rx="16"/></clipPath><clipPath><rect y="507.8" x="392.57" height="32" width="32" fill="none" rx="16"/></clipPath><clipPath><rect y="507.8" x="392.57" height="32" width="32" fill="none" rx="16"/></clipPath><clipPath><rect y="8" x="8" height="32" width="32" fill="none" rx="16"/></clipPath><clipPath><path d="m0 706.47h1490.93v-706.47h-1490.93v706.47"/></clipPath><clipPath><path d="m22.2 686.12h1447.73v-667.19h-1447.73v667.19"/></clipPath><clipPath><rect y="507.8" x="392.57" height="32" width="32" fill="none" rx="16"/></clipPath><clipPath><rect y="507.8" x="392.57" height="32" width="32" fill="none" rx="16"/></clipPath><clipPath><rect y="507.8" x="392.57" height="32" width="32" fill="none" rx="16"/></clipPath><clipPath><rect y="507.8" x="392.57" height="32" width="32" fill="none" rx="16"/></clipPath><clipPath><rect y="8" x="8" height="32" width="32" fill="none" rx="16"/></clipPath></defs><path d="m4.6 3c-.443 0-.799.358-.799.801v14.398c0 .443.356.801.799.801h12.801c.443 0 .799-.358.799-.801v-14.398c0-.443-.356-.801-.799-.801m-11.898.736c.503-.0001.912.407.912.91.0001.504-.408.913-.912.912-.503 0-.911-.409-.91-.912 0-.503.408-.91.91-.91m2.215 0c.503-.0001.912.407.912.91.0001.504-.408.913-.912.912-.503 0-.911-.409-.91-.912 0-.503.408-.91.91-.91m2.232 0c.503-.0001.912.407.912.91.0001.504-.408.913-.912.912-.503 0-.911-.409-.91-.912 0-.503.408-.91.91-.91m2.209 0c.503-.0001.912.407.912.91.0001.504-.408.913-.912.912-.503 0-.911-.409-.91-.912 0-.503.408-.91.91-.91zm2.174 0c.503 0 .91.408.91.91 0 .503-.408.91-.91.91-.503.0001-.912-.407-.912-.91 0-.503.409-.911.912-.91m2.166 0c.503 0 .91.408.91.91.0001.503-.407.912-.91.912-.504.0001-.913-.408-.912-.912 0-.503.409-.911.912-.91m-9.912 2.178c.503 0 .911.409.91.912 0 .503-.408.91-.91.91-.503 0-.91-.408-.91-.91-.0001-.503.407-.912.91-.912m2.215 0c.503 0 .91.408.91.91.0001.503-.407.912-.91.912-.504.0001-.913-.408-.912-.912 0-.503.409-.911.912-.91m2.232 0c.503 0 .91.408.91.91.0001.503-.407.912-.91.912-.503 0-.911-.409-.91-.912 0-.503.408-.91.91-.91zm2.209 0c.503 0 .91.408.91.91.0001.503-.407.912-.91.912-.504.0001-.913-.408-.912-.912 0-.503.409-.911.912-.91m2.172 0c.503 0 .91.408.91.91.0001.503-.407.912-.91.912-.503 0-.911-.409-.91-.912 0-.503.408-.91.91-.91m-9.912 2.197c.504-.0001.913.408.912.912 0 .503-.409.911-.912.91-.503 0-.91-.408-.91-.91-.0001-.503.407-.912.91-.912m2.215 0c.503-.0001.912.407.912.91.0001.504-.408.913-.912.912-.503 0-.911-.409-.91-.912 0-.503.408-.91.91-.91m2.232 0c.503-.0001.912.407.912.91.0001.504-.408.913-.912.912-.503 0-.911-.409-.91-.912 0-.503.408-.91.91-.91m2.209 0c.503-.0001.912.407.912.91.0001.504-.408.913-.912.912-.503 0-.911-.409-.91-.912 0-.503.408-.91.91-.91zm2.174 0c.503 0 .91.408.91.91.0001.503-.407.912-.91.912-.504.0001-.913-.408-.912-.912 0-.503.409-.911.912-.91m2.166 0c.503 0 .91.408.91.91.0001.503-.407.912-.91.912-.504.0001-.913-.408-.912-.912 0-.503.409-.911.912-.91m-5.498 3.262c1.123 0 2.037.914 2.037 2.037v.826c.161.034.281.177.281.348v3.102c0 .195-.158.354-.354.354h-3.93c-.195 0-.354-.158-.354-.354v-3.102c0-.17.121-.314.281-.348v-.826c0-1.123.914-2.037 2.037-2.037zm0 .709c-.732 0-1.328.596-1.328 1.328v.82h2.656v-.82c0-.732-.596-1.328-1.328-1.328" transform="translate(0-.032)" stroke-opacity=".55" fill="#1A1D20" stroke-width="2.8" stroke="none"/></svg>