<svg xmlns="http://www.w3.org/2000/svg" viewBox="0 0 32 32"><path d="M16 4A12 12 0 0 0 4 16 12 12 0 0 0 16 28 12 12 0 0 0 28 16 12 12 0 0 0 16 4M15.992 10C16.979 10 17.781 10.294 18.398 10.879 19.02 11.453 19.324 12.19 19.324 13.09 19.324 13.48 19.222 13.876 19.02 14.277 18.81 14.678 18.625 14.965 18.463 15.14 18.311 15.301 18.09 15.511 17.813 15.771L17.732 15.854C17.07 16.45 16.74 17.05 16.74 17.643V18.293H15.211V17.529C15.211 17.04 15.314 16.624 15.52 16.277 15.725 15.92 16.09 15.5 16.609 15.02 16.902 14.752 17.11 14.552 17.229 14.422 17.359 14.281 17.482 14.09 17.602 13.854 17.732 13.604 17.797 13.35 17.797 13.09 17.797 12.591 17.634 12.19 17.309 11.887 16.994 11.583 16.556 11.432 15.992 11.432 15.06 11.432 14.419 11.952 14.07 12.992L12.674 12.406C12.901 11.788 13.293 11.236 13.846 10.748 14.409 10.249 15.12 10 15.992 10M15.977 19.789C16.291 19.789 16.55 19.896 16.756 20.11 16.973 20.33 17.08 20.591 17.08 20.895 17.08 21.2 16.973 21.457 16.756 21.674 16.55 21.891 16.291 22 15.977 22 15.662 22 15.396 21.891 15.18 21.674 14.974 21.457 14.869 21.2 14.869 20.895 14.869 20.591 14.974 20.33 15.18 20.11 15.396 19.896 15.662 19.789 15.977 19.789" fill="#1A1D20" fill-rule="evenodd"/></svg>