<svg xmlns="http://www.w3.org/2000/svg" viewBox="0 0 22 22"><defs><clipPath><path fill="#f2f2f2" d="m7 1023.36h1v1h-1z"/></clipPath><clipPath><path fill="#f2f2f2" d="m7 1023.36h1v1h-1z"/></clipPath><clipPath><rect y="8" x="8" height="32" width="32" fill="none" rx="16"/></clipPath><clipPath><rect y="507.8" x="392.57" height="32" width="32" fill="none" rx="16"/></clipPath><clipPath><rect y="507.8" x="392.57" height="32" width="32" fill="none" rx="16"/></clipPath><clipPath><path fill="#f2f2f2" d="m7 1023.36h1v1h-1z"/></clipPath><clipPath><path fill="#f2f2f2" d="m7 1023.36h1v1h-1z"/></clipPath><clipPath><path fill="#f2f2f2" d="m7 1023.36h1v1h-1z"/></clipPath><clipPath><path fill="#00f" fill-opacity=".514" d="m-7 1024.36h34v34h-34z"/></clipPath><clipPath><path fill="#00f" fill-opacity=".514" d="m-7 1024.36h34v34h-34z"/></clipPath><clipPath><path fill="#aade87" fill-opacity=".472" d="m-6 1028.36h32v32h-32z"/></clipPath><clipPath><path fill="#aade87" fill-opacity=".472" d="m-6 1028.36h32v32h-32z"/></clipPath><clipPath><rect y="507.8" x="392.57" height="32" width="32" fill="none" rx="16"/></clipPath><clipPath><rect width="32" height="32" x="8" y="8" fill="none" rx="16"/></clipPath><clipPath><rect y="8" x="8" height="32" width="32" fill="none" rx="16"/></clipPath><clipPath><rect width="32" height="32" x="392.57" y="507.8" fill="none" rx="16"/></clipPath><clipPath><rect width="32" height="32" x="392.57" y="507.8" fill="none" rx="16"/></clipPath><clipPath><rect width="32" height="32" x="392.57" y="507.8" fill="none" rx="16"/></clipPath><clipPath><rect y="507.8" x="392.57" height="32" width="32" fill="none" rx="16"/></clipPath><clipPath><rect y="507.8" x="392.57" height="32" width="32" fill="none" rx="16"/></clipPath><clipPath><rect y="507.8" x="392.57" height="32" width="32" fill="none" rx="16"/></clipPath><clipPath><rect y="507.8" x="392.57" height="32" width="32" fill="none" rx="16"/></clipPath><clipPath><rect y="8" x="8" height="32" width="32" fill="none" rx="16"/></clipPath><clipPath><rect y="507.8" x="392.57" height="32" width="32" fill="none" rx="16"/></clipPath><clipPath><rect y="507.8" x="392.57" height="32" width="32" fill="none" rx="16"/></clipPath><clipPath><path fill="#f2f2f2" d="m7 1023.36h1v1h-1z"/></clipPath><clipPath><path fill="#aade87" fill-opacity=".472" d="m-6 1028.36h32v32h-32z"/></clipPath><clipPath><path fill="#f2f2f2" d="m7 1023.36h1v1h-1z"/></clipPath><clipPath><path fill="#00f" fill-opacity=".514" d="m-7 1024.36h34v34h-34z"/></clipPath><clipPath><path fill="#f2f2f2" d="m7 1023.36h1v1h-1z"/></clipPath><clipPath><path fill="#aade87" fill-opacity=".472" d="m-6 1028.36h32v32h-32z"/></clipPath><clipPath><path fill="#00f" fill-opacity=".514" d="m-7 1024.36h34v34h-34z"/></clipPath><clipPath><path fill="#f2f2f2" d="m7 1023.36h1v1h-1z"/></clipPath><clipPath><path fill="#aade87" fill-opacity=".472" d="m-6 1028.36h32v32h-32z"/></clipPath><clipPath><path d="m69.63 12.145h-.052c-22.727-.292-46.47 4.077-46.709 4.122-2.424.451-4.946 2.974-5.397 5.397-.044.237-4.414 23.983-4.122 46.71-.292 22.777 4.078 46.523 4.122 46.761.451 2.423 2.974 4.945 5.398 5.398.237.044 23.982 4.413 46.709 4.121 22.779.292 46.524-4.077 46.761-4.121 2.423-.452 4.946-2.976 5.398-5.399.044-.236 4.413-23.981 4.121-46.709.292-22.777-4.077-46.523-4.121-46.761-.453-2.423-2.976-4.946-5.398-5.397-.238-.045-23.984-4.414-46.71-4.122"/></clipPath><clipPath><path fill="#aade87" fill-opacity=".472" d="m-6 1028.36h32v32h-32z"/></clipPath><clipPath><path fill="#00f" fill-opacity=".514" d="m-7 1024.36h34v34h-34z"/></clipPath><clipPath><path fill="#00f" fill-opacity=".514" d="m-7 1024.36h34v34h-34z"/></clipPath><clipPath><path d="m0 706.47h1490.93v-706.47h-1490.93v706.47"/></clipPath><clipPath><path fill="#00f" fill-opacity=".514" d="m-7 1024.36h34v34h-34z"/></clipPath><clipPath><path d="m22.2 686.12h1447.73v-667.19h-1447.73v667.19"/></clipPath><clipPath><path fill="#aade87" fill-opacity=".472" d="m-6 1028.36h32v32h-32z"/></clipPath><clipPath><path fill="#f2f2f2" d="m7 1023.36h1v1h-1z"/></clipPath><clipPath><path fill="#f2f2f2" d="m7 1023.36h1v1h-1z"/></clipPath><clipPath><path fill="#f2f2f2" d="m7 1023.36h1v1h-1z"/></clipPath><clipPath><path fill="#f2f2f2" d="m7 1023.36h1v1h-1z"/></clipPath><clipPath><path fill="#f2f2f2" d="m7 1023.36h1v1h-1z"/></clipPath><clipPath><path fill="#f2f2f2" d="m7 1023.36h1v1h-1z"/></clipPath><clipPath><path fill="#f2f2f2" d="m7 1023.36h1v1h-1z"/></clipPath><clipPath><path fill="#aade87" fill-opacity=".472" d="m-6 1028.36h32v32h-32z"/></clipPath><clipPath><path fill="#f2f2f2" d="m7 1023.36h1v1h-1z"/></clipPath><clipPath><path fill="#00f" fill-opacity=".514" d="m-7 1024.36h34v34h-34z"/></clipPath></defs><path d="m11 3c-4.432 0-8 3.568-8 8 0 4.432 3.568 8 8 8 4.432 0 8-3.568 8-8 0-4.432-3.568-8-8-8m-4 5.5h8v4 1h-3v1l-3-1.5 3-1.5v1h2v-3h-6v4h-1v-5" transform="translate(-.004)" fill="#1A1D20"/></svg>