<svg xmlns="http://www.w3.org/2000/svg" viewBox="0 0 16 16"><path d="m578.77 51.49v-.895h-2.996-539.84-2.996v.895c-17.662 1.214-30.839 15.266-32.934 32.32v3 355.72c0 6.898 1.795 12.712 4.791 17.949 6.893 12.137 17.07 18.269 31.14 18.269h197.01v49.695h-37.425c-9.281 0-16.467 7.218-16.467 16.48 0 9.262 7.186 16.479 16.467 16.479h220.67c9.281 0 16.768-7.218 16.768-16.479 0-9.263-7.486-16.48-16.768-16.48h-37.425v-49.695h197.01c14.08 0 24.343-6.132 31.14-18.269 3.085-5.493 5.091-11.37 5.091-17.949v-355.72-3c-2.096-17.06-16.17-31.11-33.24-32.32m0 35.32v355.72c0 2.108-.895 3-2.996 3h-539.84c-2.095 0-2.996-.894-2.996-3v-355.72-3h545.83v3z" transform="matrix(.02288 0 0 .02288 1 .998)" fill="#1A1D20"/></svg>