<svg xmlns="http://www.w3.org/2000/svg" viewBox="0 0 16 16"><g transform="matrix(.37943 0 0 .37943 1.205 1.758)" fill="#1A1D20"><path d="m31.8 27l-.5 5h-26.5l-.5-5h6.4 14.8 6.3m2.2-2h-10-22l.497 7.2c.1 1 .698 1.8 1.698 1.8h27.711c1 0 1.598-.8 1.698-1.8z" transform="matrix(1 0 0 .82172 0 4.457)"/><path d="m6.637.49c-1.063 0-1.699.743-1.806 1.806l-2.867 22.642.213 1.062h8.29 14.883 7.863l.64-1.062-2.873-22.642c-.213-1.063-.737-1.806-1.8-1.806h-22.544m11.299 4.02c.105 0 .203.042.252.109l1.811 2.528c.045.063.04.136-.011.197-.051.06-.142.099-.241.098h-.919l-.011 5.215 2.637-1.269.005-1.368h-.345c-.197 0-.362-.115-.361-.257l.005-1.795c0-.068.037-.132.104-.181.067-.048.162-.077.257-.077l2.49.005c.197 0 .356.115.356.257l-.005 1.795c0 .068-.037.132-.104.181-.067.048-.157.077-.252.077h-.35l-.005 1.707c0 .173-.096.334-.263.454-.041.029-.083.059-.131.082l-4.04 1.948-.011 4.241c.597.232 1.01.681 1.01 1.204-.002.758-.856 1.369-1.91 1.368-1.052-.002-1.906-.616-1.904-1.373.0001-.523.414-.973 1.012-1.204l.005-2.227-4.235-2.063c-.248-.12-.4-.321-.399-.536l.005-1.428c-.44-.21-.729-.571-.728-.979.002-.648.731-1.172 1.631-1.171.901.0001 1.627.528 1.625 1.176-.0001.408-.292.77-.733.979v1.083l2.84 1.379.016-7.228h-.919c-.098 0-.19-.038-.241-.098-.051-.061-.056-.134-.011-.197l1.828-2.523c.049-.067.141-.109.246-.109"/></g></svg>