<svg xmlns="http://www.w3.org/2000/svg" viewBox="0 0 16 16"><path d="m9 1037.36c-3.324 0-6 2.676-6 6 0 3.324 2.676 6 6 6 3.324 0 6-2.676 6-6 0-3.324-2.676-6-6-6m3.261 4.125c.037 0 .076 0 .117.001h.002c.563.048.961.239 1.184.568.247.366.213.813.17 1.047-.004.021-.02.039-.041.042-.021 0-.043-.001-.054-.025-.044-.075-.119-.19-.226-.305-.26-.278-.583-.425-.935-.425-.029 0-.059.0001-.089 0v2.079c0 .385-.289.701-.687.752-.036 0-.072.001-.108.001-.384 0-.707-.259-.75-.603-.023-.186.033-.37.163-.52.129-.15.314-.246.52-.273.118-.015.238-.001.35.028v-2.118c0-.122.101-.264.385-.264zm-5.48.001c.223-.027.454.021.621.151.333.261.406.855.145 1.188l-.173.221-1.39 1.778c-.347.445-1.139.542-1.583.195-.445-.347-.542-1.139-.195-1.583l1.39-1.778.223.173-1.39 1.778c-.261.333-.187.928.146 1.188.333.261.927.188 1.188-.145l1.389-1.778.174-.223c.174-.222.124-.619-.098-.793-.222-.174-.617-.124-.791.098l-.174.223-1.042 1.333-.174.223c-.087.111-.063.309.048.396.111.087.31.063.397-.048l1.216-1.556.221.173-1.216 1.557c-.174.222-.569.27-.791.097-.222-.174-.272-.57-.098-.792l.174-.221 1.216-1.557c.13-.167.344-.268.567-.296m2.219 1.117c.415 0 .75.334.75.75 0 .416-.335.75-.75.75-.415 0-.75-.334-.75-.75 0-.416.335-.75.75-.75" fill="#1A1D20" transform="translate(-1-1035.36)"/></svg>