<svg xmlns="http://www.w3.org/2000/svg" viewBox="0 0 16 16"><defs><linearGradient gradientUnits="userSpaceOnUse" y2="-2.623" x2="0" y1="986.67" id="0"><stop stop-color="#ffce3b"/><stop offset="1" stop-color="#ffd762"/></linearGradient><linearGradient y2="-2.623" x2="0" y1="986.67" gradientUnits="userSpaceOnUse"><stop stop-color="#ffce3b"/><stop offset="1" stop-color="#fef4ab"/></linearGradient></defs><path d="m-11.05.875c-.103 0-.206.032-.293.096-.833.607-3.366 2.264-6.469 2.555-.373.034-.659.344-.666.719-.038 2.447.354 10.756 7.24 12.605.122.033.251.033.373 0 6.886-1.847 7.28-10.158 7.244-12.605-.005-.375-.295-.684-.668-.719-3.103-.29-5.634-1.948-6.469-2.555-.087-.064-.19-.096-.293-.096m0 5.5c.841 0 1.523.682 1.523 1.523 0 .434-.182.824-.473 1.102l.408 2.162c.022.118-.058.213-.178.213h-2.533c-.119 0-.2-.096-.178-.213l.404-2.139c-.305-.279-.498-.679-.498-1.125 0-.841.682-1.523 1.523-1.523z" transform="matrix(.75004 0 0 .75004 16.28 1.338)" stroke-width="9.512" stroke="none" fill="#1A1D20"/></svg>