<svg xmlns="http://www.w3.org/2000/svg" viewBox="0 0 16 16"><path d="m8.857 1038.36l-7.286 1.286v9.429l7.286 1.286v-12m.429 1.714v.429h4.714v5.571h.429v-5.571-.429h-.429-4.714m0 .857v.924c.137-.035.28-.067.429-.067v1.714h1.714c0 .947-.768 1.714-1.714 1.714-.148 0-.291-.031-.429-.067v.496h3v.428h-3v.857h3v.428h-3v1.286h4.286v-7.714h-4.286m.857.429c.947 0 1.714.767 1.714 1.714h-1.714v-1.714m-4.768.964c.429.001.647.093.83.268.239.228.338.529.335 1.058-.005.868-.522 1.406-1.339 1.406h-.308l-.027.696-.013.71-.321-.026-.335-.014v-2.022-2.022l.67-.04c.198-.011.366-.016.509-.014m-.496.723v.616c0 .338.031.633.054.656.067.067.253.055.482-.04.278-.116.404-.479.295-.844-.081-.269-.259-.389-.603-.389h-.228" fill="#1A1D20" color="#000" transform="translate(0-1036.36)"/></svg>