<svg xmlns="http://www.w3.org/2000/svg" viewBox="0 0 16 16"><g transform="translate(-71.09-24.1)"><path d="M8 0A8 8 0 0 0 0 8 8 8 0 0 0 8 16 8 8 0 0 0 16 8 8 8 0 0 0 8 0M7.838.566c3.507 0 6.464 2.347 7.389 5.557-.171.329-.389.544-.666.568-.952 0-2.233-2.461-2.971-3.287C10.484 2.167 8.964 1 6.281 1 5.811 1 5.419 1.027 5.092 1.072 5.945.746 6.871.566 7.838.566M4.508 2.408c1.998 0 3.455 1.524 5.02 3.041.998.971 3.773 3.546 5.98 4.03-.062.409-.157.806-.281 1.191C10.367 10.11 5.797 4.605 3.199 4.605 2.232 4.605 1.315 5.379.514 6.18.904 4.826 1.657 3.625 2.66 2.689 3.202 2.527 3.826 2.408 4.508 2.408m-2.5 7.908c1.198 0 4.567 2.406 9.03 2.406 1.288 0 2.525-.338 3.375-.641-.355.526-.773 1.01-1.244 1.428-.889.278-2.099.551-3.412.551-2.876 0-3.652-.67-4.432-.67-.882 0-.743.785-.512 1.379C3.171 14.01 1.844 12.695 1.074 11.06 1.237 10.658 1.519 10.316 2.01 10.316" transform="matrix(.75 0 0 .75 73.08 26.1)" fill="#1A1D20"/></g></svg>