<svg xmlns="http://www.w3.org/2000/svg" viewBox="0 0 16 16"><g transform="translate(-71.09-24.1)"><path d="m-13.396 12.912c-.353 0-.713.049-1.035.129-.312.081-.57.213-.809.421-.229.196-.415.474-.55.809-.135.323-.194.733-.194 1.23 0 .485.059.895.194 1.23.135.335.321.601.55.809.239.196.497.328.809.421.322.081.682.129 1.035.129.353 0 .691-.049 1-.129.312-.092.58-.224.809-.421.239-.208.415-.474.55-.809.146-.335.226-.745.227-1.23 0-.496-.081-.906-.227-1.23-.135-.335-.311-.613-.55-.809-.229-.208-.497-.34-.809-.421-.312-.081-.65-.129-1-.129m-18.962 2.071l-7.734 23.816h5.113l2.071-6.213h7.475l1.942 6.213h5.08l-7.766-23.816h-6.18m3.106 3.268c.054.38.161.849.291 1.391.13.542.279 1.108.421 1.65.152.531.29 1.011.421 1.456.13.445.226.743.291.938l1.521 4.757h-5.825l1.521-4.757c.033-.119.097-.301.162-.55.076-.249.14-.516.227-.841.087-.325.193-.667.291-1.035.098-.369.172-.742.259-1.1.098-.369.194-.71.259-1.035.076-.325.118-.635.162-.874m13.235 1.909v18.638h5.177v-18.638h-5.177" color="#000" transform="matrix(.46356 0 0 .46356 90.58 20.11)" fill="#1A1D20"/></g></svg>