<svg xmlns="http://www.w3.org/2000/svg" viewBox="0 0 16 16"><path d="m14.257 275.6c-31.31-55.21-10-141.8 54.766-206.59 73.55-73.54 175.26-91.08 227.18-39.16.061.068.112.145.195.214-10.392 30.23-43.486 94.57-142.69 129.35-90.87 31.878-125.93 82.56-139.46 116.19m296.55-226.85c-7.871 18.361-21.57 42.36-45.17 65.957-23.725 23.735-57.44 47.05-105.21 63.8-96.94 33.993-124.02 89.64-131.58 116.61.357.36.664.733 1.01 1.083 51.921 51.918 153.63 34.386 227.18-39.17 65.44-65.44 86.49-153.16 53.775-208.28z" transform="matrix(.0368 0 0 .0368 1.994 1.998)" fill="#1A1D20"/></svg>