<svg xmlns="http://www.w3.org/2000/svg" viewBox="0 0 16 16"><path d="m7.172 1050.45q-1.768 0-2.97-1.02-1.179-1.02-1.179-2.697 0-1.814 1.405-2.834 1.405-1.043 3.468-1.043 1.836 0 3.01.68v-.317q0-1.224-.839-1.949-.839-.748-2.063-.748-.907 0-1.655.431-.725.431-.997 1.179l-1.904-.816q.385-.997 1.519-1.836 1.133-.861 2.992-.861 2.131 0 3.536 1.247 1.405 1.247 1.405 3.514v6.71h-1.995v-1.541h-.091q-1.247 1.904-3.65 1.904m.34-1.904q1.292 0 2.335-.952 1.065-.975 1.065-2.29-.884-.725-2.652-.725-1.519 0-2.29.657-.771.657-.771 1.542 0 .816.703 1.292.703.476 1.609.476" fill="#1A1D20" stroke="none" transform="matrix(1.0141 0 0 1.0141-.084-1051.28)"/></svg>