<svg xmlns="http://www.w3.org/2000/svg" viewBox="0 0 16 16"><path d="m8.857 1038.36l-7.286 1.286v9.429l7.286 1.286v-12m.429 1.286v1.286h3.857v.429h-3.857v.857h3.857v.428h-3.857v.857h3.857v.428h-3.857v.857h3.857v.428h-3.857v.857h3.857v.428h-3.857v.857h3.857v.429h-3.857v1.286h5.143v-9.429h-5.143m-2.518 2.531h.415c.381 0 .405.026.362.214-.026.112-.244 1.111-.482 2.223l-.429 2.022h-.442c-.241 0-.437-.014-.442-.027-.005-.013-.143-.674-.308-1.473-.165-.799-.321-1.401-.348-1.326-.027.075-.167.732-.308 1.446l-.254 1.299-.402-.026-.415-.026-.335-1.781c-.187-.974-.363-1.877-.388-2.01-.042-.219-.013-.247.281-.281.41-.048.428-.001.67 1.567.103.672.187 1.232.201 1.246.014.014.161-.623.321-1.406.16-.783.34-1.447.402-1.487.178-.113.677-.085.723.04.023.063.167.738.308 1.5.236 1.275.401 1.739.402 1.125 0-.245.188-1.416.375-2.357l.094-.482z" fill="#1A1D20" color="#000" transform="translate(0-1036.36)"/></svg>