<svg xmlns="http://www.w3.org/2000/svg" viewBox="0 0 16 16"><g transform="translate(-71.09-24.1)"><path d="m11.838 27.16l-7.286 1.286v9.429l7.286 1.286v-12m1.406 1.714c-.137.0001-.276.008-.415.013l-.563.013v1.085 1.085l.214.027c.427.054 1.432.038 2.103-.027 1.804-.173 2.941-.669 2.746-1.192-.219-.587-2.028-1.022-4.085-1m4.165 1.473l-.161.188c-.212.255-.796.525-1.513.683-.443.097-.922.134-2.022.161l-1.446.027v.844.83l1.406-.04c1.114-.026 1.548-.065 2.049-.174.722-.158 1.285-.385 1.5-.616l.147-.161.027-.871.013-.871m-9.549.75h.429c.357 0 .442.017.469.107.018.06.267.983.563 2.049.295 1.066.548 1.966.563 2.01.02.057-.074.084-.335.08-.197-.003-.388-.024-.429-.04-.04-.017-.114-.24-.174-.496l-.121-.455h-.563-.576l-.094.415-.08.429-.402.013-.388.013.027-.107c.019-.062.239-.847.482-1.741.243-.894.484-1.761.536-1.942l.094-.335m.402.964c-.018.005-.1.276-.188.629-.093.377-.183.73-.201.79-.029.096.02.121.375.121h.402l-.188-.737c-.101-.404-.191-.77-.201-.804m9.147.268l-.188.201c-.489.529-2.067.863-4 .844l-.911-.013-.027.804-.013.804.107.04c.234.071 2.469-.019 3.03-.121.779-.141 1.493-.382 1.754-.603l.214-.188.027-.884.013-.884m0 1.929l-.188.228c-.457.526-1.86.836-3.83.844h-1.125v.817.817l.335.027c.678.048.925.037 1.754-.027 1.403-.108 2.475-.393 2.826-.763l.188-.201.027-.871.013-.871" stroke="none" color="#000" transform="translate(68.1-1.085)" fill="#1A1D20"/></g></svg>