<svg xmlns="http://www.w3.org/2000/svg" viewBox="0 0 16 16"><g transform="translate(-71.09-24.1)"><path d="m14.03 1038.92c.116-.175.068-.41-.107-.526-.175-.115-.41-.068-.526.108l-1.404 2.126c-.058-.013-.117-.019-.177-.019-.627 0-1.139.512-1.139 1.139 0 .12.024.235.059.344l-1.356 1.729c-.175-.109-.38-.175-.601-.175-.612 0-1.11.487-1.134 1.093l-2.145 1.25c-.209-.268-.531-.445-.897-.445-.628 0-1.139.511-1.139 1.139 0 .247.081.475.215.661l-1.671 2.547c-.115.176-.066.411.109.526.064.041.137.063.208.063.124 0 .245-.06.318-.171l1.661-2.531c.096.026.196.045.3.045.612 0 1.11-.486 1.134-1.094l2.145-1.249c.208.268.531.444.896.444.628 0 1.139-.511 1.139-1.139 0-.12-.024-.235-.058-.344l1.355-1.729c.175.109.38.175.601.175.628 0 1.139-.511 1.139-1.139 0-.291-.113-.554-.293-.755l1.369-2.072m-9.808 10.8c-.21 0-.38.17-.38.38 0 .21.17.38.38.38.21 0 .38-.17.38-.38 0-.209-.169-.38-.38-.38m1.898 0c-.21 0-.38.17-.38.38 0 .21.17.38.38.38.21 0 .38-.17.38-.38 0-.209-.169-.38-.38-.38m1.898 0c-.21 0-.38.17-.38.38 0 .21.17.38.38.38.21 0 .38-.17.38-.38 0-.209-.169-.38-.38-.38m1.898 0c-.21 0-.38.17-.38.38 0 .21.17.38.38.38.21 0 .38-.17.38-.38 0-.209-.169-.38-.38-.38m1.898 0c-.21 0-.38.17-.38.38 0 .21.17.38.38.38.21 0 .38-.17.38-.38 0-.209-.169-.38-.38-.38m1.898 0c-.21 0-.38.17-.38.38 0 .21.17.38.38.38.21 0 .38-.17.38-.38 0-.209-.169-.38-.38-.38m-11.39-1.139c.21 0 .38-.17.38-.38 0-.209-.17-.38-.38-.38-.21 0-.38.17-.38.38 0 .21.17.38.38.38m0-1.898c.21 0 .38-.17.38-.38 0-.209-.17-.38-.38-.38-.21 0-.38.17-.38.38 0 .21.17.38.38.38m0-1.898c.21 0 .38-.17.38-.38 0-.209-.17-.38-.38-.38-.21 0-.38.17-.38.38 0 .21.17.38.38.38m0-1.898c.21 0 .38-.169.38-.38 0-.21-.17-.38-.38-.38-.21 0-.38.17-.38.38 0 .211.17.38.38.38m0-1.898c.21 0 .38-.169.38-.38 0-.21-.17-.38-.38-.38-.21 0-.38.17-.38.38 0 .211.17.38.38.38m0-1.898c.21 0 .38-.169.38-.38 0-.209-.17-.38-.38-.38-.21 0-.38.17-.38.38 0 .211.17.38.38.38" fill="#1A1D20" transform="matrix(.98771 0 0 .98771 71.17-999.47)"/></g></svg>