<svg xmlns="http://www.w3.org/2000/svg" viewBox="0 0 16 16"><g transform="translate(-71.09-24.1)"><g transform="matrix(.03519 0 0 .03519 73.1 26.11)" stroke="#1f2a47" fill="#1A1D20"><path d="m192.51 64.52c-2.746-2.745-7.162-2.862-10.05-.268-14.862 13.354-93 81.18-171.94 105.16l-.855.259c-2.051.623-3.727 2.114-4.582 4.082-.854 1.969-.801 4.209.146 6.133l.395.799c.004.011.008.019.015.027.271.564 11.653 24.328 13.13 57.811.916 20.82-2.101 40.832-8.945 59.52-2.442.19-4.834 1.215-6.703 3.084-4.168 4.167-4.166 10.921 0 15.09 4.166 4.166 10.92 4.167 15.09 0 2.408-2.409 3.416-5.682 3.039-8.82l76.49-76.49c1.908-1.907 2.609-4.71 1.824-7.289-2.703-8.89-.291-18.509 6.299-25.1 4.756-4.758 11.08-7.377 17.809-7.377 6.731 0 13.06 2.619 17.813 7.377 4.758 4.756 7.375 11.08 7.375 17.808 0 6.728-2.617 13.05-7.377 17.81-4.754 4.754-11.07 7.371-17.799 7.372-2.494 0-4.953-.362-7.31-1.075-2.582-.783-5.379-.08-7.283 1.824l-76.48 76.49c-3.142-.378-6.416.628-8.826 3.038-4.166 4.166-4.164 10.921 0 15.09 4.166 4.166 10.922 4.167 15.09 0 1.869-1.869 2.892-4.258 3.084-6.702 16.48-6.04 34.01-9.105 52.15-9.105 2.276 0 4.604.049 6.922.145 33.588 1.385 58.09 13.06 58.31 13.173l.775.382c1.014.498 2.117.749 3.221.748.99.0001 1.98-.2 2.91-.603 1.963-.855 3.457-2.529 4.08-4.579l.258-.854c23.979-78.943 91.81-157.08 105.16-171.94 2.594-2.888 2.477-7.3-.271-10.05l-82.965-82.968"/><path d="m337.86 86.974l-84.84-84.84c-1.37-1.37-3.228-2.139-5.165-2.139-1.937-.0001-3.796.768-5.164 2.137l-36.29 36.3c-2.854 2.853-2.854 7.477 0 10.329l84.84 84.83c1.369 1.371 3.225 2.14 5.164 2.14 1.936 0 3.793-.771 5.162-2.14l36.3-36.3c2.852-2.851 2.852-7.475-.002-10.328z"/></g></g></svg>