<svg xmlns="http://www.w3.org/2000/svg" viewBox="0 0 16 16"><g transform="translate(-71.09-24.1)"><g transform="matrix(.47893 0 0 .47893 56.09 21.456)" fill="#1A1D20"><path d="m397.37 530.94c.141 0 .278.02.407.061.488-.546 1.028-1.044 1.613-1.484-.025-.103-.038-.211-.038-.321 0-.153.026-.301.072-.439-.656-.469-1.369-.864-2.127-1.169-.71.439-1.33 1.011-1.824 1.682.367.65.803 1.255 1.299 1.807.181-.088.384-.137.599-.137m-1.383 1.383c0-.194.041-.379.112-.546-.444-.489-.846-1.015-1.198-1.575-.442.878-.692 1.869-.692 2.919 0 1.215.335 2.351.915 3.324.208-1.169.601-2.274 1.145-3.287-.177-.232-.282-.522-.282-.835m4.748-4.51c.365 0 .696.142.944.374.721-.31 1.481-.549 2.271-.701-.955-.55-2.061-.866-3.241-.866-.805 0-1.575.148-2.286.415.565.279 1.103.604 1.609.971.206-.123.446-.194.703-.194m2.067 6.513c.086-.179.208-.338.36-.463-.408-1.255-1.055-2.405-1.888-3.393-.165.071-.348.109-.54.109-.3 0-.577-.097-.803-.258-.502.381-.966.808-1.388 1.274.133.211.21.461.21.728 0 .143-.022.283-.064.414 1.213.81 2.61 1.366 4.113 1.59m1.794 1.867c.018.262.029.526.029.792 0 .469-.03.931-.086 1.385 1.102-.805 1.942-1.949 2.365-3.278-.502.122-1.016.208-1.541.258-.122.379-.404.685-.767.842m-2.117-.938c-1.605-.266-3.092-.879-4.387-1.755-.211.129-.457.204-.721.204-.098 0-.192-.001-.284-.029-.62 1.174-1.016 2.485-1.13 3.875.619.664 1.373 1.199 2.222 1.558 1.054-1.62 2.527-2.96 4.301-3.853m2.594-6.954c-1.042.101-2.037.363-2.962.755.004.047.007.093.007.139 0 .218-.052.424-.142.607.926 1.087 1.644 2.353 2.098 3.738.563.011 1.044.355 1.251.844.626-.064 1.235-.184 1.821-.356.042-.297.065-.601.065-.909-.0001-1.91-.825-3.629-2.137-4.818m-1.898 7.693c-1.656.776-3.041 1.97-4.04 3.431.505.126 1.034.194 1.578.194.98 0 1.909-.218 2.743-.607.134-.656.205-1.333.205-2.027 0-.251-.011-.5-.03-.745-.167-.054-.32-.136-.452-.246" transform="matrix(1.6923 0 0 1.6923-630.1-881.48)"/><path d="m1426.97 359.05h72.78v13.287h-72.66v.623c0 8.395-6.796 15.19-15.18 15.19h-98.57c-8.383 0-15.186-6.796-15.186-15.19v-.623h-72.65v-13.287h72.78c.648-7.792 7.105-13.92 15.06-13.92h30.25v-30.358c0-8.384 6.795-15.191 15.179-15.191h7.592c8.385 0 15.182 6.808 15.182 15.191v30.358h30.369c7.956 0 14.403 6.14 15.06 13.92" transform="matrix(.04715 0 0 .04715-16.233 16.465)"/></g></g></svg>