<svg xmlns="http://www.w3.org/2000/svg" viewBox="0 0 16 16"><g transform="matrix(1.20025 0 0 1.20025-4.968-1241.77)" stroke="none" fill="#1A1D20"><path d="m12.792 1036.26c.064.586-.172 1.173-.521 1.596-.349.422-.923.752-1.484.708-.076-.574.208-1.175.531-1.55.361-.422.971-.735 1.474-.755"/><path d="m12.781 1038.68c.326.014 1.241.133 1.828.992-.047.03-1.093.637-1.081 1.904.013 1.513 1.329 2.02 1.344 2.023-.012.035-.21.717-.693 1.422-.417.609-.85 1.216-1.531 1.229-.67.013-.885-.398-1.651-.398-.766 0-1 .383-1.638.409-.658.024-1.158-.658-1.578-1.266-.86-1.241-1.515-3.506-.633-5.04.437-.76 1.219-1.243 2.068-1.255.646-.012 1.257.435 1.651.435.395 0 1.135-.537 1.914-.458"/></g></svg>