<svg xmlns="http://www.w3.org/2000/svg" viewBox="0 0 16 16"><path ns2:knockout="Off" d="m8.788 1050.35c-1.829-.658-2.916-1.466-4.107-3.268-.292-.496-.83-1.605-.81-3.052-.048-1.442.681-3.104 2.041-3.991 1.314-.936 3.01-.95 4.02-.58 1.04.386 1.462 1.03 1.474.999-.032.011.557.504.82 1.582.293 1.037-.005 2.755-1.435 3.459-.658.352-1.512.416-2.182.164-.67-.27-1.156-.863-1.318-1.483-.353-1.368.685-2.127 1.143-2.204 1.863-.621 2.807 2.294.628 2.542.993.332 2.02-.688 1.822-1.726-.039-1.039-1.297-2.069-2.683-1.647-.362.1-.91.354-1.34.926-.44.568-.64 1.459-.411 2.324.223.87.901 1.704 1.846 2.078.954.352 2.02.251 2.894-.205 1.873-.927 2.248-3.185 1.876-4.427-.328-1.335-1.054-1.947-1.016-1.956-.014.037-.535-.757-1.825-1.238-1.261-.46-3.227-.427-4.801.676-1.611 1.033-2.484 3.063-2.42 4.699-.022 1.661.598 2.933.935 3.498 1.362 2.077 2.923 2.726 4.85 2.83" fill="#1A1D20" stroke-width=".225" transform="matrix(.98288 0 0 .98288.042-1018.5)" stroke="#1A1D20"/></svg>