<svg xmlns="http://www.w3.org/2000/svg" viewBox="0 0 16 16"><g transform="matrix(.52109 0 0 .52109-236.97-273.71)" stroke="none" fill="#1A1D20"><path d="M7.779297.564453A1.114794 1.114794 0 0 0 7.146484 2.572266l1.266.975h-6.16a1.114794 1.114794 0 1 0 0 2.228516h2.795l-4.564 3.316A1.114794 1.114794 0 1 0 1.792969 10.894531L4.125 9.201A5.944962 5.944962 0 0 0 4.109375 9.492188 5.944962 5.944962 0 0 0 10.05469 15.435547 5.944962 5.944962 0 0 0 16 9.492188 5.944962 5.944962 0 0 0 13.416016 4.587891 1.114794 1.114794 0 0 0 13.335938 4.519531L8.506.805A1.114794 1.114794 0 0 0 7.779297 .564453M10.05469 5.775391A3.715603 3.715603 0 0 1 13.771484 9.490234 3.715603 3.715603 0 0 1 10.05469 13.207031 3.715603 3.715603 0 0 1 6.339844 9.490234 3.715603 3.715603 0 0 1 10.05469 5.775391" transform="matrix(1.54848 0 0 1.54848 457.71 528.19)"/><circle cx="473.17" cy="542.89" r="2.879" fill-rule="evenodd"/></g></svg>