<svg xmlns="http://www.w3.org/2000/svg" viewBox="0 0 16 16"><g transform="translate(-71.09-24.1)"><path d="m471.68 535.35c-.051-.002-.101.019-.136.056-.513.535-1.034 1.135-1.505 1.707-.0001.0001-.0001.002-.002.002-1.161 1.447-2.043 2.935-2.682 4.527-.596 1.483-.944 2.767-1.261 4.636-.069.409-.14.905-.188 1.305-.024.2-.043.375-.054.504-.005.065-.009.118-.001.161 0 .021 0 .039.002.062.0001.011.003.023.008.043.006.02.0001.061.082.112.044.027.05.022.061.024.011.003.019.005.028.006.018.003.036.005.058.007.043.005.096.009.152.012.445.024 1.101.137 1.536.265.294.086.487.157.774.284.066.029.127.056.172.076.023.001.041.017.055.023.007.003.012.005.018.007.0001.0001.0001 0 .0001 0 .002.0001.004.002.008.005 0 0-.0001-.002-.002-.002.0001 0 .002 0 .003.0001.003.0001.005.002.001.004.002 0 .004.002.007.003-.002 0-.006 0-.007 0 .013.007.028.015.048.027.048.027.115.064.188.105.702.395 1.227.802 2.066 1.605.11.106.213.202.291.273.039.035.071.065.097.087.013.011.024.02.035.029.006.005.011.009.021.015.005.003.011.007.022.012.011.005.022.015.071.018.06.003.072-.001.084-.016.012-.006.019-.001.024-.013.011-.007.017-.011.023-.016.012-.001.024-.019.037-.03.028-.023.063-.055.106-.093.085-.077.197-.18.318-.295.694-.658 1.029-.936 1.512-1.256 1.055-.7 1.995-1.01 3.438-1.132l.117-.001c.094-.008.166-.087.166-.181v-.069c0-.143-.034-.439-.08-.806-.046-.367-.105-.784-.158-1.101-.317-1.886-.676-3.215-1.28-4.717-.543-1.353-1.321-2.72-2.251-3.957-.002-.003-.005-.006-.007-.009-.626-.741-1.231-1.518-1.892-2.239-.033-.036-.079-.058-.128-.059z" fill="#1A1D20" transform="matrix(.74998 0 0 .74998-274.64-375.39)"/></g></svg>