<svg xmlns="http://www.w3.org/2000/svg" viewBox="0 0 16 16"><g transform="translate(-71.09-24.1)"><path d="m353.81 0c-89.89 0-162.56 72.67-162.56 162.56 0 19.12 3.825 38.25 9.562 57.37l-200.81 200.81v95.62h95.62v-57.37h57.37v-57.37h57.37l86.06-86.06c17.213 5.737 36.34 9.562 57.37 9.562 89.89 0 162.56-72.68 162.56-162.56 0-89.89-72.67-162.56-162.56-162.56m47.813 172.12c-32.513 0-57.37-24.862-57.37-57.37 0-32.513 24.862-57.37 57.37-57.37 32.513 0 57.37 24.862 57.37 57.37 0 32.513-24.862 57.37-57.37 57.37z" transform="matrix(.02319 0 0 .02319 73.1 26.11)" stroke="#1f2a47" fill="#1A1D20"/></g></svg>