<svg xmlns="http://www.w3.org/2000/svg" viewBox="0 0 16 16"><g transform="translate(-71.09-24.1)"><path d="m13.219 1039.15c-.379-.02-.445-.521-.816-.544-.195-.012-.564-.029-.884.087-.357-.244-.816-.543-.146.622-.146.786-.631 2.992-1.147 3-.515.001-.855-.932-1.292-.922-.437.001-.437.001-.437.001-.515 0-.854-.911-1.894-.942-.651-.02-1.166 1.126-2.614 1.253-.388.029-.986.18-1.047 1.076 0 0-.854.798-.452 2.642.1-.918.15-1.687.452-2.19-.022.501.134.987 0 1.506-.134.519-.56 1.406-.56 1.406 0 0-.093.184.141.82.234.636.703 2.211.703 2.211.024.276.063.422.257.549-.049.184-.213.553.37.553.25 0 0 0 .565 0 .395 0 .266-.339-.371-.651.019-.233-.126-.476-.223-.525-.233-.592-.534-1.728-.534-1.728 0 0-.107-.991.262-1.322.369-.33.815-.64 1.117-1.738.009-.078.515.389 1.525.68 1.01.292 1.785-.019 1.898.029.113.049.356.641.356 1.215 0 .573-.204.952-.204 1.175 0 .224.165.612.165.612 0 0 .097 1.069-.029 1.671-.087.379-.233.571.35.572.583 0 1.379.127.34-.562.087-.214.019-.506-.078-.612-.02-.525.039-1.04.136-1.253.097-.214.029-.826.049-1.136.02-.311.301-1.428.612-1.826.311-.399 1.69-1.574 1.924-2.72.233-1.147.486-2.313 1.166-2.303.408 0 .476.233.651.224.175-.001.486-.3.486-.456 0-.155-.039-.474-.796-.483" fill="#1A1D20" transform="matrix(1.01517 0 0 1.01517 70.77-1028.11)"/></g></svg>