<svg xmlns="http://www.w3.org/2000/svg" viewBox="0 0 16 16"><g transform="translate(-71.09-24.1)"><path d="m5.815 228.44c-.952 4.657-1.793 9.354-2.516 14.09-.722 4.737-1.331 9.51-1.82 14.321-.977 9.617-1.478 19.375-1.478 29.25 0 9.877.501 19.635 1.478 29.25.489 4.809 1.095 9.584 1.82 14.32.722 4.734 1.564 9.434 2.516 14.09.952 4.654 2.02 9.271 3.194 13.84 2.354 9.141 5.144 18.11 8.354 26.871 1.604 4.381 3.314 8.715 5.123 12.992 1.808 4.277 3.721 8.504 5.728 12.674 1 2.084 2.035 4.156 3.088 6.213 2.105 4.111 4.308 8.166 6.606 12.16 6.891 11.982 14.624 23.418 23.12 34.23 4.248 5.404 8.684 10.652 13.302 15.734 3.079 3.389 6.236 6.701 9.474 9.936 3.235 3.238 6.549 6.396 9.936 9.475 15.242 13.854 31.986 26.08 49.96 36.42 3.994 2.295 8.05 4.502 12.161 6.607 8.225 4.213 16.68 8.04 25.343 11.455 4.33 1.709 8.715 3.314 13.146 4.814 28.804 9.748 59.667 15.03 91.76 15.03 21.882 0 43.19-2.467 63.66-7.117 9.557-2.172 18.936-4.812 28.1-7.914 4.432-1.498 8.812-3.105 13.146-4.812 8.662-3.414 17.12-7.242 25.342-11.457 4.113-2.105 8.168-4.309 12.16-6.605 17.975-10.334 34.719-22.568 49.961-36.42 3.389-3.08 6.701-6.24 9.936-9.475 3.235-3.235 6.396-6.549 9.475-9.936 4.617-5.08 9.06-10.328 13.301-15.734 6.721-8.551 12.947-17.5 18.674-26.793 1.514-2.457 3-4.93 4.445-7.438 2.299-3.992 4.502-8.05 6.607-12.16 1.053-2.057 2.08-4.127 3.086-6.211 2.01-4.168 3.92-8.395 5.729-12.674 1.809-4.279 3.52-8.611 5.123-12.994 3.209-8.764 6-17.729 8.354-26.869 1.176-4.572 2.244-9.186 3.195-13.84.951-4.658 1.793-9.355 2.516-14.09.721-4.736 1.33-9.51 1.82-14.32.977-9.617 1.479-19.375 1.479-29.25 0-9.877-.502-19.636-1.479-29.25-.49-4.811-1.096-9.584-1.82-14.321-.723-4.734-1.564-9.434-2.516-14.09-.952-4.654-2.02-9.272-3.195-13.84-2.354-9.14-5.145-18.11-8.354-26.87-.801-2.191-1.631-4.37-2.484-6.537-2.562-6.496-5.355-12.876-8.369-19.13-1-2.084-2.035-4.155-3.088-6.212-2.105-4.112-4.309-8.167-6.607-12.16-6.891-11.983-14.623-23.418-23.12-34.23-4.248-5.404-8.684-10.652-13.303-15.734-3.078-3.387-6.236-6.701-9.473-9.936-3.234-3.238-6.549-6.396-9.936-9.474-6.561-5.964-13.406-11.619-20.502-16.958-9.389-7.06-19.223-13.574-29.459-19.461-3.994-2.295-8.05-4.501-12.16-6.606-1.871-.958-3.756-1.891-5.648-2.806-2.271-1.099-4.557-2.179-6.861-3.219-.965-.435-1.939-.848-2.906-1.273-3.281-1.441-6.582-2.836-9.928-4.155-.045-.019-.094-.034-.141-.055-3.564-1.401-7.172-2.72-10.805-3.984-.734-.254-1.463-.526-2.201-.774-8.473-2.867-17.12-5.337-25.932-7.408-2.752-.649-5.516-1.267-8.297-1.836-2-.41-4.02-.79-6.04-1.157-15.05-2.736-30.508-4.284-46.28-4.566-1.74-.032-3.474-.066-5.222-.066-2.965 0-5.918.061-8.862.15-28.917.881-56.76 6.04-82.9 14.884-4.431 1.5-8.815 3.106-13.146 4.813-1.34.529-2.662 1.083-3.993 1.631-2.972 1.224-5.924 2.479-8.844 3.797-4.226 1.913-8.394 3.92-12.506 6.03-4.113 2.105-8.167 4.309-12.161 6.606-16.07 9.241-31.15 19.997-45.06 32.07-1.649 1.432-3.283 2.876-4.899 4.346-3.388 3.078-6.702 6.239-9.936 9.474-3.234 3.235-6.396 6.548-9.474 9.936-4.618 5.08-9.05 10.328-13.302 15.734-8.495 10.808-16.228 22.247-23.12 34.23-2.298 3.993-4.501 8.05-6.606 12.16-1.053 2.057-2.081 4.128-3.087 6.212-3.01 6.255-5.805 12.635-8.369 19.13-.854 2.167-1.683 4.345-2.485 6.536-3.21 8.764-6 17.729-8.354 26.87-1.164 4.563-2.231 9.181-3.183 13.835m231.81-208.79c.56.949 1.028 2.044 2.396 2.46 2.678-1.387 5.349.092 8.299 0 2.874-.101 5.441-1.417 8.608-.921 5.597.875 13.415 6.347 17.825 3.378 1.11-.75.847-2.044 1.848-3.99.798-1.555 2.044-3.277 2.809-5.193 2.228-.055 4.458-.086 6.698-.086 18.503 0 36.58 1.87 54.05 5.422-.732 1.928-3.137 1.068-5.154 2-1.893.878-2.6 2.69-4.611 3.069-5.59 1.053-10.223-1.401-15.06-1.224-.227 2.093 2.391 3.311 3.688 3.984 4.385 2.298 7.955 1.983 14.14 1.845 3.168-.07 6.809.946 9.531-.924 1.725-1.178 1.633-3.773 3.076-5.214.615-.609 1.518-1.221 2.537-1.741 3.035.716 6.05 1.493 9.05 2.31-.506 2.069-3.855 1.57-3.898 4.342 2.139 1.282 7.111-.701 9.03-2.889.742.22 1.49.441 2.23.664 4.348 1.322 8.65 2.748 12.904 4.278 6.06 2.185 12.02 4.581 17.881 7.176-1.125.664-2.324 1.515-3.312 1.509-2.541-.016-3.627-3.409-6.461-2.154-.246 3.286 3.48 4.617 5.84 6.135 2.555 1.643 5.238 3.28 6.146 6.138-2.5 5.3-6.49-.278-10.449-.303-4.363-.031-10.729 8.29-14.447 1.533.926-3.581 4.875-4.137 5.84-7.672-.848.144-1.668.419-2.484.747-1.461.578-2.902 1.358-4.393 2.16-1.957 1.053-4.01 2.099-6.342 2.619-2.143.472-4.232.358-6.148.915-3.678 1.077-6.248 3.789-10.139 5.224-1.52.557-3.338.385-4.92.915-3.711 1.239-8.158 3.455-11.986 5.526-3.914 2.114-8.328 4.336-10.758 6.444-1.312 1.132-4.729 5.159-4.611 6.438.156 1.827 3.602 2.433 3.688 4.299-.078 1.132-1.996 3.574-.613 5.217 1.258 1.497 3.779.285 6.451.612 4.697.582 7.77 4.456 11.373 6.444 2.725 1.503 6.77 3.293 9.846 3.682 4.223.529 8.949-1.23 9.525 2.148.559 3.247-3.975 4.406-4.301 6.444 2.275 2.999-1.545 4.431-1.535 7.06.001 2.129 2.623 5.324 4.914 5.517 3.098.263 7.633-3.045 8.92-6.135 1.529-3.681.879-8.672 3.688-11.353 14.324.395 26.441-6.494 25.518-21.17-.092-1.45-.916-3.317-.611-4.911.449-2.372 4.533-4.363 3.99-7.362 1.545-.475 2.469-1.723 3.258-3.127 1.178-2.093 2.096-4.483 4.285-5.272.154-.058.281-.156.451-.193 1.252-.281 2.564-.033 3.941.374 2.455.725 5.117 1.974 8.05 1.775 1.49-.101 3.424-1.435 4.922-1.224 3 .419 4.812 4.116 7.07 5.83 1.996 1.523 4.102 1.037 4.611 3.066-.59 3.406-2.961 3.534-2.77 6.662.004.034-.002.055-.002.089.227 2.812 3.152 4.945 4.611 5.223 2.242.419 5.449-.783 7.686-1.845 2.416-1.141 4.621-3.607 6.73-5.321 3.01 2.311 5.979 4.679 8.893 7.108.332 1.365.564 2.595.672 3.427.43 3.317-.449 5.851-.303 8.905.395 5.174 6.926 4.648 10.139 7.359.969.823 1.35 2.922 2.156 3.99 1.561 2.078 3.445 2.078 3.688 4.293.576 5.3-4.812 5.747-4.309 11.662-1.111 2.292-3.914 2.154-3.688 5.214.359 4.844 7.33 1.132 9.223 4.911 1.025 2.032-.17 3.543-.924 6.438 2.385 2.836 2.369 7.362-1.838 7.368-2.557 0-3.262-2.742-5.846-3.378-1.436-.358-3.393-.288-5.223-.612-1.566-.278-3.43-.743-4.914-.921-3.795-.45-7.904.652-10.148-1.533 3.658-4.85 8.518-9.63 13.221-13.807 1.398-1.249 4.4-2.102 3.688-4.602-2.617-2.295-5.83.141-8.299 1.533-2.592 1.457-5.684 3.556-8.609 3.99-5.084.753-11.828-1.487-15.982 1.224-.574 2.316 4.729 1.417 3.99 4.912-2.033.333-3.959.496-5.525-.924-1.43-1.285-.611-3.216-1.537-3.99-1.574-1.304-7.5-1.659-10.146-1.224-3.229.526-6.086 2.457-6.459 5.214 3.879 1.814 10.277-1.867 11.684 2.766-2.127 3.819-7.133 5.921-6.461 11.04.264 1.977 2.617 4.618 4.309 4.912 1.701.293 2.656-1.39 4.299-1.233 1.738.162 1.344 2.145 3.385 1.845 2.959-1.261 4.596-5.407 7.986-5.214 4.068 4.93-3.672 7.332-7.986 8.896-4.92 1.781-11.318 2.727-15.07 4.302-1.965.82-9.4 7.996-10.451 2.448-.752-4 3.68-2.843 4.611-6.135-4.758-.924-9.191 2.044-13.521 3.69-6.178 2.332-16.652 3.81-18.14 10.738-.293 1.386.605 3.981-.303 4.905-.738.743-5.146.878-7.07 1.533-2.965 1.016-5.551 3.186-7.383 3.681-1.383.38-3.424.272-4.301.622-2.443.945-3.344 4.244-6.146 6.438-1.148.896-3.697 1.548-4.611 2.454-1.592 1.582-1.803 5.542-4.611 6.135-1.785.156-3.238-1.34-4.92-.309-.203 3.914 1.383 9.238-.305 13.195-3.641 2.962-7.637 5.058-12.295 7.671-2.576 1.451-4.883 1.821-7.994 3.378-2.207 1.099-4.225 3.718-6.764 5.214-5.869 3.448-12.955 7.53-12.91 16.264.001 1.891.986 3.929 1.227 6.138.148 1.301-.156 2.571 0 3.99.365 3.207 2.693 7.292 0 9.508-4.137-1.695-9.4-2.271-12.294-5.214-.793-3.03 1.601-5.526 1.234-8.284-.295-2.215-3.416-6.163-5.233-6.447-1.87-.294-3.595 1.689-5.526 1.533-2.298-.181-4.434-3.338-7.384-3.681-4.324-.505-7.506.985-12.295.312-4.636 2.472-5.992 6.873-11.674 6.438-2-.146-3.834-1.674-6.147-2.148-2.506-.517-6.31-1.401-8.92-1.221-5.233.349-9.03 4.107-13.522 6.438-3.966 2.062-9.581 4.627-10.759 8.901-.646 2.301-.101 5.542-.924 7.671-.544 1.402-1.732 2.65-2.46 3.981-3.446 6.285-6.304 14.593-3.688 23.633.389 1.34 3.813 8.904 5.224 10.432 1.585 1.697 6.249 4.246 8.911 4.293 2.252.045 4.89-1.143 7.07-1.533 2.53-.449 5.698-.49 7.996-1.225 6.646-2.123 5.333-11.1 11.986-14.12 2.904-1.31 6.264-1.573 11.371-1.836 1.622 1.362 2.384 3.751 2.157 5.826-.171 1.566-1.662 2.986-2.46 5.219-.698 1.957-.845 4.252-1.536 5.832-.915 2.068-2.956 3.58-3.688 5.525-.48 1.264-.217 2.838-.612 3.982-.707 2.02-3.415 3.447-2.157 5.525 6.582 2.613 14.547-.744 20.291.312 2.424.439 7.42 3.328 7.375 7.06-.03 2.789-2.157 4.617-2.46 7.672-.374 3.84-1.98 8.547-2.151 11.656-.272 5.092 7.482 13.877 12.91 13.807 5.844-.076 9.253-5.803 16.294-2.758 2.338 1.01 4.805 4.789 7.385 4.602 2.127-.152 5.34-3.873 6.762-6.447 1.732-3.137 1.855-5.779 4.914-7.361 3.299-1.705 5.926-.885 10.148-2.457 1.885-.697 3.525-1.898 5.223-3.07 1.49-1.021 3.061-3.701 4.92-1.844 2.455 2.447-3 3.828-.924 6.447 4.264 2.254 6.445-4.193 9.533-4.291.984-.031 4.393 1.912 6.146 3.066 2.398 1.572 3.213 3.781 5.838 4.293 1.684.334 4.395-.643 6.764-.309 3.137.447 5.01 3.137 7.383 3.066 2.895-.076 4.285-3.223 6.764-3.682 5.426-.992 7.445.605 9.834 3.99 2.678.463 2.773-3.09 5.225-1.836-1.344 2.674.459 3.904 1.535 6.135.697 1.432.582 2.449 1.234 3.07 1.465 1.395 4.299 1.395 6.449 2.756 2.268 1.426 3.547 4.076 6.148 7.06 2.678 3.053 7.182 6.215 10.758 6.438 3.379.217 6.127-.955 8.92-.611 6.359.779 10.311 3.949 14.76 7.367 2.484 1.906 4.727 3.232 5.525 5.518.561 1.594.287 3.734.924 5.523 1.359 3.822 6.941 5.668 4.922 12.273.924 1.938 2.994 2.635 5.223 3.99 1.783 1.084 3.293 3.373 5.223 3.682 1.25.201 2.607-.379 3.688-.309 3.494.24 5.891 1.594 8.92 2.766 1.879.723 4.285 1 5.535 1.846 1.561 1.053 1.764 4.586 3.688 5.518 1.258.611 4.053-.234 6.148 0 3.299.379 7.777 2.4 10.758 2.457 1.809.039 3.309-.738 4.916-.613 3.732.285 6.664 2.641 9.559 5.273-37.03 59.699-96.61 104.01-166.75 120.94-.258-2.689-1-5.395-1.121-8.08-.242-5.832.646-9.953-.303-15.342-.713-4.076-1.6-10.322-3.074-12.887-1.646-2.852-8.113-7.701-11.371-9.514-2.152-1.193-4.729-1.611-7.07-2.76-5.01-2.455-14.709-7.631-16.906-12.582-.637-1.426-.551-3.314-1.234-4.906-1.334-3.145-4.152-5.871-6.146-8.904-3.797-5.787-6.863-13.05-10.76-19.02-1.971-3.035-3.678-6.479-5.838-8.896-1.267-1.426-5.318-2.766-5.838-4.91-.692-2.838-2.794-6.732-2.46-8.904.444-2.93 6.157-5.301 6.148-7.973-.001-2.27-3.051-3.596-3.688-5.523-1.552-4.689.909-7.447 2.763-11.352.612-1.285 1.211-3.348 1.848-4.293 1.126-1.689 3.415-2.164 4.915-3.99.838-1.023 1.367-3.156 2.461-4.604 2.336-3.1 6.109-4.262 7.07-7.06.783-2.279 1.242-13.676.303-17.488-.535-2.209-2.592-4.045-3.377-6.135-1.391-3.703-1.717-7.752-5.537-7.672-2.357.049-4.02 2.65-5.535 4.293-.364 2.186-.171 4.547-2.46 5.215-3.494 1.031-4.834-3.672-8.911-4.906-1.622-.494-4.208-.465-5.223-.92-2.975-1.334-3.935-5.68-7.07-7.369-2.623-1.4-4.869-.914-6.459-3.068-.661-1.482-.141-4.152-.303-6.137-3.369-1.967-6.224-9.307-10.147-11.04-2.601-1.154-6.582-1.047-9.835-2.148-1.53-.518-2.708-1.188-4.308-1.533-1.971-.441-4-.465-5.526-1.23-6.086-3.01-9.37-12.785-16.907-12.576-3.213.082-6.31 3.084-9.223 3.066-2.895-.016-7.748-2.307-11.38-3.99-3.773-1.75-7.95-2.705-11.06-4.293-2.516-1.285-4.263-3.637-6.46-4.611-1.683-.744-4.146-.875-5.526-1.527-1.964-.93-4.01-2.914-6.459-4.611-2.32-1.604-4.829-4.053-4.92-6.129-.101-2.402 2.212-4.447 2.46-6.757.792-7.307-4.602-12.558-7.996-16.875-2.515-3.207-5.465-5.927-7.987-8.896.141-1.971.141-2.326 0-4.293-1.909-1.851-3.516-4.596-5.535-7.368-1.824-2.5-5.38-5.168-5.839-7.972-.566-3.448 1.313-6.478 0-9.825-2.188-5.554-9.914-3.045-8.92 4.299.279 2.023 3.137 4.743 4 6.75.884 2.047.713 4.596 1.536 7.06.792 2.362 3.176 4.4 4 7.06 1.304 4.201 1.264 8.727 2.46 11.353 1.056 2.332 4.945 4.538 2.764 7.362-2.91.603-4.03-2.301-5.839-3.99-1.01-.939-4.667-2.72-5.223-4.905-.465-1.805 1.147-4.238.612-6.447-1.056-4.33-9.813-4.44-9.844-8.896-.016-2.797 3.663-3.13 3.696-5.835.024-2.959-4.045-5.465-4.92-7.975-.799-2.301-.93-5.967-1.227-9.204-.288-3.039.085-6.558-.621-8.902-.63-2.108-3.804-5.01-5.839-6.138-2.692-1.496-4.829-.875-6.147-3.066-1.147-1.913-1.903-5.912-2.151-7.975-.444-3.69-.101-7.724-.309-11.662-.202-3.944-.606-7.727 0-11.965 1.521-2.968 4.293-4.431 5.844-7.371 1.081-2.044 1.233-4.572 2.454-6.748 2.252-4.01 7.158-7.711 10.456-11.662 3.556-4.256 6.83-8.333 8.911-13.198.747-1.726 2.748-5.554 2.46-7.671-.404-2.95-5.976-5.383-5.536-8.896.279-2.176 3.384-2.145 4.309-4.293.474-1.108.899-4.202.924-5.526.046-2.959-1.521-6.04-.924-9.205.505-2.696 4.526-3.789 2.46-6.75-2.05-2.932-5.729 1.582-7.996-.309-2.081-1.744.419-3.85.612-7.06.076-1.276-.747-2.736-.612-3.682.187-1.371 2.864-3.681 2.151-4.602-1.111-1.405-2.326-4.241-4.064-6.505 34.29-27.426 75.38-46.707 120.31-54.862" transform="matrix(.02097 0 0 .02097 73.09 26.11)" fill="#1A1D20"/></g></svg>