<svg xmlns="http://www.w3.org/2000/svg" viewBox="0 0 16 16"><g transform="matrix(.08921 0 0 .08488 2.029 4.258)" fill="#1A1D20" stroke="none"><path d="m133.52 78.1c-.488-.489-1.113-.733-1.873-.733h-78.22c-.76 0-1.385.244-1.874.733-.488.489-.732 1.113-.732 1.874v5.215c0 .76.244 1.385.732 1.873.489.488 1.114.733 1.874.733h78.22c.76 0 1.385-.245 1.873-.733.488-.488.732-1.113.732-1.873v-5.215c.0001-.761-.243-1.385-.732-1.874"/><path d="m8.38 1.022c-.543-.543-1.168-.815-1.874-.815-.706 0-1.33.272-1.873.815l-4.074 4.074c-.543.543-.814 1.167-.814 1.874 0 .707.271 1.331.814 1.874l32.02 32.02-32.02 32.02c-.543.543-.814 1.168-.814 1.873 0 .707.271 1.331.814 1.874l4.074 4.073c.543.544 1.167.814 1.873.814.706 0 1.331-.271 1.874-.814l37.967-37.966c.543-.543.814-1.169.814-1.875 0-.706-.271-1.331-.814-1.874l-37.967-37.966"/></g></svg>