<svg xmlns="http://www.w3.org/2000/svg" viewBox="0 0 16 16"><g transform="translate(-71.09-24.1)"><path d="m2.304 1043.28c.162.172.401.172.479.172.145 0 .325-.024.583-.078.202-.043.377-.085.53-.122.302-.074.521-.127.727-.127.116 0 .327.051.551.103.349.083.783.186 1.203.186.424 0 .87-.033 1.151-.058.093.35.315.927.82 1.34.686.562 1.194.812 1.215.822.13.064.287.03.38-.081.093-.111.099-.271.013-.388-.003 0-.345-.488-.332-1.033.005-.216.013-.386.021-.515.427.126 1.154.407 1.529.937.568.802.801 2.037.739 2.442-.065.422-.073.422-.273.422-.436 0-.803.018-1.216.243-.365.199-.567.416-.588.44-.082.091-.104.221-.056.334.048.113.157.188.279.192.118.001.475.034.705.117.122.044.227.096.328.146.162.08.316.156.495.177.058.001.118.001.175.001.066.153.178.336.367.481.145.111.292.179.422.24.159.075.285.133.382.253.253.314.338.655.339.658.033.136.152.235.292.241.005 0 .001 0 .015 0 .134 0 .254-.085.298-.213.02-.058.186-.584-.035-1.355-.079-.276-.202-.514-.32-.745-.193-.375-.359-.699-.289-1.097.328-1.867.306-3.385-.067-4.512-.58-1.752-1.983-2.729-2.259-2.907-.137-.088-.26-.166-.363-.23.096-.077.218-.157.364-.219.331-.141.47-.179.508-.188.003 0 .005 0 .007 0 .137 0 .243-.091.283-.225.042-.139-.036-.288-.161-.362-.024-.014-.592-.344-1.34-.344-.154 0-.308.014-.456.042-.462.087-.788.217-1.104.343-.308.123-.599.239-1.034.331-.211.044-.405.079-.593.112-.647.114-1.205.213-2.04.639-1.09.557-1.703 1.166-1.726 1.715-.005.116-.002.219.008.31-.102.051-.226.116-.351.187-.51.29-.723.507-.738.749-.001.168.035.307.134.412" fill="#1A1D20" transform="matrix(.96809 0 0 .96809 71.28-979.2)"/></g></svg>