<svg xmlns="http://www.w3.org/2000/svg" viewBox="0 0 16 16"><g transform="translate(-71.09-24.1)"><path d="m275.64 64.92c-.001-.077-.023-.153-.035-.229-.045-.283-.104-.561-.18-.833-.011-.042-.02-.083-.032-.125-.094-.314-.208-.62-.341-.916-.022-.05-.048-.098-.071-.148-.121-.256-.256-.504-.404-.743-.029-.048-.057-.097-.087-.144-.173-.266-.362-.52-.567-.761-.04-.047-.083-.091-.125-.138-.18-.201-.37-.392-.57-.573-.051-.046-.1-.094-.152-.138-.243-.208-.499-.401-.767-.577-.042-.027-.085-.051-.127-.077-.255-.16-.52-.304-.794-.433-.028-.013-.053-.031-.081-.044l-128.61-58.37c-1.969-.895-4.23-.895-6.199 0l-88.86 40.33c-3.772 1.712-5.441 6.157-3.729 9.929 1.711 3.772 6.158 5.446 9.929 3.729l85.76-38.926 110.22 50.02-110.22 48.44-125.59-55.19c-.009-.004-.018-.006-.027-.001-.184-.08-.374-.149-.565-.215-.048-.017-.096-.037-.144-.053-.157-.05-.319-.089-.48-.129-.085-.021-.17-.047-.256-.065-.103-.022-.209-.034-.314-.052-.146-.024-.292-.051-.438-.067-.068-.007-.139-.008-.208-.013-.183-.014-.365-.026-.547-.027-.013 0-.025-.002-.038-.002-.071 0-.14.009-.21.011-.162.004-.324.009-.484.024-.125.011-.247.031-.37.049-.113.017-.227.03-.338.052-.153.029-.302.067-.452.104-.081.021-.162.039-.242.063-.162.047-.32.103-.477.16-.068.024-.136.047-.203.074-.155.062-.306.131-.456.203-.069.034-.14.065-.208.101-.136.07-.269.147-.4.226-.081.048-.162.095-.24.146-.113.073-.222.152-.331.231-.091.066-.182.132-.27.202-.092.074-.181.152-.269.23-.096.084-.191.167-.282.256-.079.077-.154.159-.229.239-.09.096-.18.191-.266.292-.076.09-.147.186-.22.28-.074.096-.148.19-.218.291-.083.12-.158.245-.234.37-.049.081-.101.16-.148.243-.09.162-.17.329-.249.497-.022.048-.049.091-.07.14-.004.009-.006.019-.001.027-.08.184-.149.373-.214.563-.017.049-.038.097-.054.146-.049.155-.088.315-.127.474-.022.088-.049.175-.068.264-.021.098-.032.198-.049.297-.026.152-.054.304-.07.457-.006.06-.006.12-.011.18-.016.192-.028.385-.029.577 0 .011-.0001.021-.0001.033v146.43c0 2.925 1.7 5.583 4.355 6.809l128.61 59.4c0 0 .018.006.026.011.055.024.111.042.166.065.25.107.501.201.756.279.089.027.179.05.27.074.243.065.486.117.73.157.075.012.15.027.226.037.322.042.645.07.966.07.032 0 .063-.006.095-.007.283-.003.566-.024.848-.06.104-.013.206-.033.308-.05.219-.037.437-.083.653-.14.101-.026.2-.052.299-.083.239-.073.473-.16.706-.258.065-.027.131-.049.195-.078.015-.007.031-.011.045-.018l128.61-59.4c2.655-1.226 4.355-3.884 4.355-6.809v-146.43c0-.323-.027-.64-.067-.952m-128.54 195.05v-100.71c0-4.143-3.357-7.5-7.5-7.5-4.143 0-7.5 3.357-7.5 7.5v100.71l-113.61-52.47v-130.14l118.09 51.896c.962.423 1.989.634 3.02.634 1.029 0 2.056-.211 3.02-.634l118.09-51.896v130.14l-113.61 52.47" transform="matrix(.04298 0 0 .04298 73.09 26.11)" fill="#1A1D20"/></g></svg>