<svg xmlns="http://www.w3.org/2000/svg" viewBox="0 0 16 16"><g transform="matrix(.4488 0 0 .4488-2.578-3.782)" stroke="none" fill="#1A1D20"><path d="m17.799 1020.34c2.099 0 3.801 1.699 3.801 3.798h-3.801c.0001 0 .0001-3.798 0-3.798m-1.069 1.033v3.801h3.801c0 2.102-1.701 3.801-3.801 3.801-2.1 0-3.8-1.7-3.8-3.801 0-2.1 1.7-3.801 3.8-3.801" transform="matrix(2.10251 0 0 2.10251-21.451-2128.1)"/><g transform="translate(0-.3)" fill-rule="evenodd" stroke-linejoin="round" stroke-linecap="round" stroke-width=".4"><rect y="21.481" x="27.12" height="2.732" width="14.261" rx="1.366"/><rect y="26.311" x="27.14" height="2.777" width="14.07" rx="1.366"/><rect y="31.1" x="27.16" height="2.719" width="14.224" rx="1.36"/></g></g></svg>