<svg xmlns="http://www.w3.org/2000/svg" viewBox="0 0 16 16"><g transform="translate(-71.09-24.1)"><path d="m3.199 2c-.332 0-.6.267-.6.6v10.799c0 .332.267.602.6.602h9.602c.332 0 .598-.269.598-.602v-10.799c0-.332-.265-.6-.598-.6h-9.602m4.148 3.01c.046.012.087.04.125.08l.527.543.527-.543c.075-.078.167-.103.273-.074.107.026.173.093.199.199l.188.732.725-.207c.107-.031.198-.006.273.074.081.075.105.167.074.273l-.207.727.734.188c.104.026.172.093.203.199.026.109 0 .201-.078.273l-.539.527.539.527c.078.073.104.164.078.273-.031.107-.099.173-.203.199l-.734.188.207.725c.031.107.007.198-.074.273-.075.081-.167.105-.273.074l-.725-.207-.188.734c-.026.104-.093.172-.199.203-.031.005-.056.008-.074.008-.081 0-.147-.029-.199-.086l-.527-.539-.527.539c-.073.078-.164.104-.273.078-.107-.029-.173-.096-.199-.203l-.188-.734-.725.207c-.107.031-.198.006-.273-.074-.081-.076-.105-.167-.074-.273l.207-.725-.734-.188c-.104-.026-.172-.093-.203-.199-.026-.109 0-.201.078-.273l.539-.527-.539-.527c-.078-.073-.104-.164-.078-.273.031-.107.099-.173.203-.199l.734-.188-.207-.727c-.031-.107-.006-.198.074-.273.075-.081.167-.105.273-.074l.725.207.188-.732c.026-.107.093-.173.199-.199.053-.016.103-.018.148-.006" transform="matrix(1 0 0 .99999 71.08 24.11)" fill="#1A1D20"/></g></svg>