<svg xmlns="http://www.w3.org/2000/svg" viewBox="0 0 16 16"><g transform="translate(-71.09-24.1)"><path d="m537.61 545.98c.211.516.707.853 1.257.853h17.24c.752 0 1.361-.62 1.361-1.385v-4.155c0-.765-.609-1.385-1.361-1.385-.752 0-1.361.62-1.361 1.385v2.77h-12.608l6.234-6.386c.499-.511.53-1.327.069-1.875l-6.623-7.897h12.928v.923c0 .765.609 1.385 1.361 1.385.752 0 1.361-.62 1.361-1.385v-2.308c0-.765-.609-1.385-1.361-1.385h-17.24c-.531 0-1.013.314-1.236.805-.222.491-.144 1.068.201 1.479l7.726 9.211-7.656 7.842c-.388.397-.502.992-.291 1.508" fill="#1A1D20" transform="matrix(.56277 0 0 .55302-229.02-264.3)"/></g></svg>