<svg xmlns="http://www.w3.org/2000/svg" viewBox="0 0 16 16"><g transform="translate(-71.09-24.1)"><path d="m21.946 1040.29c-1.108 0-2 .892-2 2h3v1h-3-1c-1.108 0-2 .892-2 2v2c0 1.108.892 2 2 2v-1c0-.889.39-1.676 1-2.225.0001-.0001.0001 0 .002 0 .132-.119.275-.226.426-.32.0001-.0001.003 0 .004 0 .149-.093.306-.172.471-.238.03-.012.062-.019.092-.029.14-.051.283-.098.432-.127.186-.036.377-.057.574-.057h1 3v-3c0-1.108-.892-2-2-2zm5 3v1c0 .889-.392 1.678-1 2.227-.132.119-.275.226-.426.32-.0001.0001-.003 0-.004 0-.149.093-.306.172-.471.238-.03.012-.062.019-.092.029-.14.051-.283.098-.432.127-.186.036-.377.057-.574.057h-4v3c0 1.108.892 2 2 2h2c1.108 0 2-.892 2-2h-3v-1h4c1.108 0 2-.892 2-2v-2c0-1.108-.892-2-2-2z" fill="#1A1D20" transform="matrix(1.0002 0 0 1.0002 56.14-1014.34)"/></g></svg>