<svg xmlns="http://www.w3.org/2000/svg" viewBox="0 0 16 16"><path d="M8 .816406A7.183674 7.183674 0 0 0 .816406 8 7.183674 7.183674 0 0 0 8 15.183594 7.183674 7.183674 0 0 0 15.183594 8 7.183674 7.183674 0 0 0 8 .816406M7.934 3.729c2.482 0 4.49 2.01 4.49 4.49 0 2.482-2.01 4.488-4.49 4.488-2.122 0-3.9-1.485-4.357-3.461h2.139c.392.833 1.239 1.42 2.219 1.42 1.355 0 2.449-1.092 2.449-2.447 0-1.355-1.094-2.449-2.449-2.449-.98 0-1.827.587-2.219 1.436h-2.139C4.03 5.213 5.811 3.729 7.934 3.729" transform="matrix(.83523 0 0 .83523 1.314 1.348)" fill="#1A1D20" stroke="none"/></svg>