<svg xmlns="http://www.w3.org/2000/svg" viewBox="0 0 64 64"><defs><linearGradient gradientUnits="userSpaceOnUse" y2="171.29" x2="0" y1="224.83" id="0"><stop stop-color="#ff9300"/><stop offset="1" stop-color="#ffd702"/></linearGradient></defs><g transform="matrix(1.006 0 0 1.006-677.59-166.31)"><rect width="51.692" height="51.692" x="679.54" y="171.29" fill="url(#0)" rx="25.846"/><path d="m699.38 187.6l-1.661-1.666c-2.785 2.12-4.628 5.416-4.801 9.142h2.33c.174-3.084 1.759-5.788 4.133-7.476m15.596 7.476h2.33c-.174-3.725-2.02-7.02-4.811-9.142l-1.666 1.666c2.387 1.688 3.972 4.392 4.146 7.476m-2.294.584c0-3.576-2.48-6.57-5.825-7.36v-.794c0-.965-.778-1.747-1.746-1.747-.967 0-1.746.781-1.746 1.747v.794c-3.345.791-5.825 3.785-5.825 7.36v6.405l-2.329 2.327v1.165h19.799v-1.165l-2.329-2.327c0 0 0-6.405 0-6.405m-7.571 13.392c.164 0 .314-.001.467-.047.754-.15 1.385-.675 1.675-1.376.117-.276.188-.58.188-.907h-4.66c0 1.281 1.049 2.33 2.33 2.33" fill="#342300"/></g></svg>