<svg xmlns="http://www.w3.org/2000/svg" viewBox="0 0 64 64"><defs><linearGradient id="0" x1="757.52" y1="216.64" x2="757.96" y2="159.72" gradientUnits="userSpaceOnUse"><stop stop-color="#141414"/><stop offset="1" stop-color="#2d2d2f"/></linearGradient><linearGradient id="1" x1="758.58" y1="219.99" x2="758.36" y2="205.17" gradientUnits="userSpaceOnUse"><stop stop-color="#dc3c30"/><stop offset="1" stop-color="#ff786d"/></linearGradient></defs><g transform="matrix(.92857 0 0 .92857-672-142.43)"><path d="m738.05 214.41c0 .793.521 1.436 1.314 1.436h37.33c.793 0 1.558-.643 1.558-1.436v-8.615h-40.21v8.615" fill="url(#1)"/><path d="m778.26 205.79v-38.769c0-.793-.78-1.436-1.572-1.436h-9.915v-4.308c0-.793-.78-1.436-1.572-1.436h-14.359c-.794 0-1.299.643-1.299 1.436v4.308h-10.188c-.794 0-1.299.643-1.299 1.436v38.769h40.21" fill="url(#0)"/><path d="m757.89 174.37c-1.242 0-2.246 1.018-2.246 2.24v13.486c0 1.237.997 2.239 2.246 2.239 1.244 0 2.246-1.018 2.246-2.239v-13.486c0-1.237-.995-2.24-2.246-2.24m0 22.457c-1.242 0-2.246 1-2.246 2.246 0 1.242 1 2.246 2.246 2.246 1.242 0 2.246-1 2.246-2.246 0-1.242-1-2.246-2.246-2.246" fill="#fff" fill-opacity=".902"/></g></svg>