<svg xmlns="http://www.w3.org/2000/svg" viewBox="0 0 64 64"><defs><linearGradient id="0" x1="756.38" y1="215.89" x2="755.83" y2="166.72" gradientUnits="userSpaceOnUse"><stop stop-color="#141414"/><stop offset="1" stop-color="#2d2d2f"/></linearGradient><linearGradient id="1" x1="756.45" y1="227" x2="756.23" y2="212.17" gradientUnits="userSpaceOnUse"><stop stop-color="#dc3c30"/><stop offset="1" stop-color="#ff786d"/></linearGradient></defs><g transform="matrix(.92857 0 0 .92857-670.02-148.93)"><path d="m735.92 221.41c0 .793.521 1.436 1.314 1.436h37.33c.793 0 1.558-.643 1.558-1.436v-8.615h-40.21v8.615" fill="url(#1)"/><path d="m776.12 212.8v-38.769c0-.793-.78-1.436-1.572-1.436h-9.915v-4.308c0-.793-.78-1.436-1.572-1.436h-14.359c-.794 0-1.299.643-1.299 1.436v4.308h-10.188c-.794 0-1.299.643-1.299 1.436v38.769h40.21" fill="url(#0)"/><path d="m759.14 182.6l-12.468 15.167 8.413 4.552-2.179 10.615 12.468-15.167-8.413-4.552z" fill="#eaeaea"/></g></svg>