<svg xmlns="http://www.w3.org/2000/svg" viewBox="0 0 64 64"><defs><linearGradient id="0" x1="774.85" y1="245.17" x2="776.55" y2="188.59" gradientUnits="userSpaceOnUse"><stop stop-color="#49b903"/><stop offset="1" stop-color="#8cff07"/></linearGradient></defs><g transform="matrix(.92857 0 0 .92857-686.94-169.37)"><path d="m766.93 188.86c-.793 0-1.299.643-1.299 1.436v4.309h-10.188c-.793 0-1.299.643-1.299 1.436v8.616 38.769c0 .793.52 1.436 1.313 1.436h37.33c.793 0 1.559-.643 1.559-1.436v-38.769-8.616c0-.793-.78-1.436-1.572-1.436h-9.914v-4.309c0-.793-.78-1.436-1.572-1.436h-14.36" fill="url(#0)"/><path d="m777.36 204.61l-12.468 15.167 8.413 4.552-2.179 10.615 12.468-15.167-8.413-4.552z" fill-opacity=".687"/></g></svg>