<svg xmlns="http://www.w3.org/2000/svg" viewBox="0 0 64 64"><defs><linearGradient id="0" x1="763.57" y1="223.34" x2="763.35" y2="167.27" gradientUnits="userSpaceOnUse"><stop stop-color="#dc3c30"/><stop offset="1" stop-color="#ff786d"/></linearGradient></defs><g transform="matrix(.92857 0 0 .92857-676.94-149.37)"><path d="m756.16 167.32c-.794 0-1.299.643-1.299 1.436v4.309h-10.188c-.794 0-1.299.643-1.299 1.436v38.769 8.616c0 .793.52 1.436 1.313 1.436h37.33c.793 0 1.559-.643 1.559-1.436v-8.616-38.769c0-.793-.78-1.436-1.572-1.436h-9.914v-4.309c0-.793-.78-1.436-1.572-1.436h-14.36" fill="url(#0)"/><path d="m766.59 183.07l-12.468 15.167 8.413 4.552-2.179 10.615 12.468-15.167-8.413-4.552z" fill="#fff" fill-opacity=".907"/></g></svg>