<svg xmlns="http://www.w3.org/2000/svg" viewBox="0 0 64 64"><defs><linearGradient id="0" x1="756.18" y1="205.37" x2="756.14" y2="177.95" gradientUnits="userSpaceOnUse"><stop stop-color="#49b903"/><stop offset="1" stop-color="#8cff07"/></linearGradient><linearGradient id="1" x1="756.48" y1="205.37" x2="756.43" y2="152.29" gradientUnits="userSpaceOnUse"><stop stop-color="#141414"/><stop offset="1" stop-color="#2d2d2f"/></linearGradient></defs><g transform="matrix(.92857 0 0 .92857-669.88-134.22)"><path d="m735.77 205.57c0 .793.521 1.436 1.314 1.436h37.33c.793 0 1.558-.643 1.558-1.436v-28.678h-40.21v28.678" fill="url(#0)"/><path d="m775.97 176.9v-18.707c0-.793-.78-1.436-1.572-1.436h-9.915v-4.308c0-.793-.78-1.436-1.572-1.436h-14.359c-.793 0-1.299.643-1.299 1.436v4.308h-10.188c-.793 0-1.299.643-1.299 1.436v18.707h40.21" fill="url(#1)"/><path d="m758.99 166.76l-12.468 15.167 8.413 4.552-2.179 10.615 12.468-15.167-8.413-4.552z" fill="#fff" fill-opacity=".92"/></g></svg>