<svg xmlns="http://www.w3.org/2000/svg" viewBox="0 0 64 64"><defs><linearGradient id="0" x1="773.08" y1="220.12" x2="773.32" y2="179.87" gradientUnits="userSpaceOnUse"><stop stop-color="#49b903"/><stop offset="1" stop-color="#8cff07"/></linearGradient><linearGradient id="1" x1="772.49" y1="221.87" x2="772.45" y2="163.83" gradientUnits="userSpaceOnUse"><stop stop-color="#141414"/><stop offset="1" stop-color="#2d2d2f"/></linearGradient></defs><g transform="matrix(.92857 0 0 .92857-685.29-146.1)"><path d="m792.57 218.37c0 .793-.765 1.436-1.558 1.436h-37.33c-.793 0-1.314-.643-1.314-1.436v-38.769h40.21v38.769" fill="url(#0)"/><path d="m792.57 179.6v-8.615c0-.793-.78-1.436-1.572-1.436h-9.915v-4.308c0-.793-.78-1.436-1.572-1.436h-14.359c-.793 0-1.299.643-1.299 1.436v4.308h-10.188c-.793 0-1.299.643-1.299 1.436v8.615h40.21" fill="url(#1)"/><path d="m775.59 179.55l-12.468 15.167 8.413 4.552-2.179 10.615 12.468-15.167-8.413-4.552z" fill="#fff" fill-opacity=".92"/></g></svg>