<svg xmlns="http://www.w3.org/2000/svg" viewBox="0 0 64 64"><defs><linearGradient id="0" x1="785.11" y1="232.96" x2="785.05" y2="178.37" gradientUnits="userSpaceOnUse"><stop stop-color="#141414"/><stop offset="1" stop-color="#2d2d2f"/></linearGradient></defs><g transform="matrix(.92857 0 0 .92857-696.94-159.37)"><path d="m777.69 178.09c-.794 0-1.299.643-1.299 1.436v4.309h-10.188c-.794 0-1.299.643-1.299 1.436v38.769 8.616c0 .793.52 1.436 1.313 1.436h37.33c.793 0 1.559-.643 1.559-1.436v-8.616-38.769c0-.793-.78-1.436-1.572-1.436h-9.914v-4.309c0-.793-.78-1.436-1.572-1.436h-14.36" fill="url(#0)"/><path d="m786.78 222.54q-.721.759-1.821.759-1.1 0-1.859-.759-.721-.759-.721-1.821 0-1.062.721-1.821.759-.759 1.859-.759 1.1 0 1.821.759.759.759.759 1.821 0 1.062-.759 1.821m-.038-7.892h-3.566v-1.783q0-1.707.721-2.921.721-1.252 2.542-2.921 1.024-.949 1.442-1.404.455-.493.873-1.328.455-.873.455-1.783 0-1.745-1.138-2.808-1.1-1.062-3.073-1.062-3.263 0-4.477 3.642l-3.263-1.366q.797-2.163 2.732-3.87 1.973-1.745 5.01-1.745 3.453 0 5.615 2.049 2.163 2.01 2.163 5.16 0 1.366-.721 2.77-.721 1.404-1.29 2.01-.531.569-1.518 1.48-.114.114-.19.19-2.314 2.087-2.314 4.173v1.518" fill="#eaeaea"/></g></svg>