<svg xmlns="http://www.w3.org/2000/svg" viewBox="0 0 64 64"><defs><linearGradient id="0" x1="98.5" y1="3.489" x2="98.15" y2="-37.801" gradientUnits="userSpaceOnUse"><stop stop-color="#289bf7"/><stop offset="1" stop-color="#71b9f1"/></linearGradient><linearGradient id="1" x1="-423.09" y1="519.48" x2="-424.98" y2="227.95" gradientUnits="userSpaceOnUse" gradientTransform="matrix(1 0 0 .77503-1.586 117.2)"><stop stop-color="#93cfff"/><stop offset="1" stop-color="#cde8fe"/></linearGradient><linearGradient id="2" gradientUnits="userSpaceOnUse" x1="-424.67" y1="519.82" x2="-426.57" y2="293.87"><stop stop-color="#afd5eb"/><stop offset="1" stop-color="#c0e7ff"/></linearGradient></defs><g transform="matrix(.12614 0 0 .12614 85.63-11.268)"><path d="m43.887-36.699c-1.108 0-2 .892-2 2v38.729l111 .24v-29.08c0-1.108-.892-2-2-2h-60.17c-2.039.18-2.301-.09-3.308-1.435-1.429-1.912-3.586-5.145-4.992-7.01-1.129-1.633-1.312-1.443-3.184-1.443z" transform="matrix(4.16765 0 0 4.16765-831.11 316.72)" fill="url(#0)" color="#000"/><rect y="292.23" x="-657.08" height="228.73" width="463.85" fill="url(#1)" stroke="url(#2)" stroke-width="2.378" rx="7.463"/></g></svg>