<svg xmlns="http://www.w3.org/2000/svg" xmlns:xlink="http://www.w3.org/1999/xlink" viewBox="0 0 64 64"><defs><linearGradient xlink:href="#1" id="0" gradientUnits="userSpaceOnUse" y1="223.83" x2="0" y2="185.6"/><linearGradient id="1"><stop stop-color="#197ff1"/><stop offset="1" stop-color="#21c6fb"/></linearGradient><linearGradient gradientTransform="matrix(.9076 0 0 .88628 401.82-243.38)" gradientUnits="userSpaceOnUse" y2="507.8" x2="0" y1="542.8" id="2" xlink:href="#1"/></defs><g transform="matrix(.92857 0 0 .92857-677.47-163.89)"><circle r="19.826" cy="204.94" cx="755.3" fill="url(#0)"/><path d="m745.11 198.29c.431 0 .849.063 1.241.185 1.487-1.666 3.135-3.183 4.92-4.525-.075-.315-.116-.644-.116-.981 0-.468.078-.918.22-1.338-2-1.431-4.174-2.636-6.489-3.564-2.166 1.338-4.056 3.084-5.564 5.131 1.118 1.983 2.448 3.829 3.961 5.51.552-.267 1.17-.418 1.827-.418m-4.22 4.217c0-.593.125-1.157.343-1.666-1.353-1.491-2.58-3.095-3.653-4.803-1.347 2.676-2.112 5.7-2.112 8.902 0 3.704 1.021 7.172 2.791 10.139.634-3.564 1.834-6.937 3.491-10.02-.539-.707-.86-1.593-.86-2.547m14.481-13.755c1.114 0 2.123.433 2.879 1.14 2.2-.946 4.517-1.674 6.928-2.138-2.911-1.679-6.286-2.642-9.885-2.642-2.455 0-4.803.45-6.973 1.267 1.722.851 3.364 1.842 4.907 2.963.629-.375 1.36-.59 2.144-.59m6.305 19.867c.263-.547.636-1.032 1.097-1.414-1.246-3.829-3.217-7.336-5.758-10.35-.504.216-1.06.332-1.646.332-.916 0-1.758-.295-2.45-.787-1.53 1.162-2.946 2.463-4.232 3.885.405.644.64 1.405.64 2.222 0 .437-.067.862-.194 1.263 3.7 2.47 7.96 4.168 12.544 4.849m5.472 5.696c.056.799.088 1.603.088 2.416 0 1.431-.091 2.84-.263 4.226 3.362-2.455 5.922-5.943 7.213-9.997-1.53.371-3.099.636-4.7.787-.373 1.157-1.233 2.088-2.338 2.569m-6.459-2.86c-4.896-.812-9.432-2.681-13.382-5.353-.642.392-1.394.623-2.2.623-.3 0-.586-.03-.866-.089-1.89 3.582-3.099 7.579-3.446 11.818 1.888 2.026 4.189 3.657 6.777 4.752 3.215-4.941 7.706-9.03 13.12-11.751m7.913-21.21c-3.179.308-6.213 1.108-9.04 2.301.012.142.021.282.021.425 0 .666-.16 1.293-.433 1.851 2.825 3.317 5.01 7.176 6.398 11.402 1.718.035 3.183 1.082 3.814 2.575 1.909-.194 3.767-.56 5.556-1.086.129-.905.198-1.832.198-2.773-.003-5.827-2.515-11.07-6.519-14.695m-5.79 23.463c-5.05 2.366-9.275 6.01-12.333 10.465 1.541.386 3.153.593 4.814.593 2.989 0 5.823-.666 8.366-1.851.409-2 .625-4.066.625-6.183 0-.765-.034-1.524-.093-2.274-.509-.164-.976-.416-1.379-.75" fill-opacity=".394"/><rect width="39.934" height="30.13" x="752.67" y="206.67" fill="url(#2)" rx="1.418"/><g fill="#fff" fill-opacity=".76"><path d="m768.08 215.9c.052.029.099.068.138.118l3.706 4.848c.077-.026.152-.055.233-.072v-1.795c0-.247.2-.447.447-.447.247 0 .447.2.447.447v1.795c.137.029.268.071.394.125l3.696-5.097c.017-.101.031-.202.044-.307.064-.548-.258-1.677-1.29-2.451-.42-.258-2.903-1.774-3.29-2.226-.387.452-2.87 1.967-3.29 2.226-1.032.774-1.355 1.903-1.29 2.451.016.132.033.259.057.385"/><path d="m764.64 225.01l5.855-1.973c-.005-.056-.017-.11-.017-.167 0-.073.014-.142.021-.213l-1.716-.557c-.235-.077-.364-.328-.288-.564.076-.235.329-.363.564-.288l1.715.557c.103-.176.227-.338.374-.477l-3.643-4.766c-.039-.052-.064-.11-.078-.169-.102-.055-.206-.106-.316-.156-.501-.231-1.675-.273-2.73.47-.375.319-2.584 2.213-3.133 2.441.31.508.984 3.338 1.1 3.816.417 1.221 1.391 1.876 1.933 1.984.122.025.24.045.359.061"/><path d="m770.69 226.26c-.087.121-.224.184-.362.184-.091 0-.183-.028-.263-.085-.199-.144-.244-.424-.099-.624l1.06-1.458c-.106-.118-.195-.247-.273-.386l-5.928 1.997c-.047.047-.092.096-.139.147-.374.406-.777 1.509-.397 2.741.187.455 1.306 3.141 1.353 3.735.579-.138 3.479.096 3.97.133 1.29-.02 2.214-.743 2.484-1.225.056-.1.107-.197.156-.296v-6.168c-.177-.03-.347-.078-.507-.148l-1.056 1.453"/><path d="m780.45 225.75l-5.92-1.99c-.088.189-.204.36-.342.513l1.06 1.458c.145.2.102.479-.099.624-.08.058-.171.085-.263.085-.139 0-.274-.064-.362-.184l-1.056-1.454c-.1.045-.205.076-.313.105v6.254c.035.067.072.136.11.204.27.481 1.195 1.205 2.484 1.225.491-.038 3.391-.271 3.97-.133.047-.593 1.166-3.279 1.353-3.734.381-1.234-.022-2.336-.397-2.742-.074-.08-.148-.156-.225-.231"/><path d="m780.88 216.63c-1.055-.742-2.228-.7-2.73-.47-.079.037-.156.074-.231.112l-3.752 5.174c.101.11.188.231.263.36l1.716-.557c.233-.077.487.052.564.288.077.234-.052.487-.288.564l-1.717.558c.007.071.022.14.022.213 0 .007-.003.014-.003.021l6.02 2.023c.079-.013.157-.027.237-.043.542-.108 1.516-.763 1.932-1.985.116-.479.79-3.309 1.1-3.816-.548-.229-2.757-2.122-3.132-2.441"/><path d="m773.79 223.19c.003-.009.006-.017.009-.027.024-.095.039-.192.039-.294 0-.405-.199-.762-.501-.986-.008-.006-.014-.012-.022-.018-.201-.141-.443-.226-.707-.226-.03 0-.058.007-.087.009-.207.015-.399.078-.565.182-.008.005-.017.009-.025.014-.085.056-.16.125-.228.2-.199.219-.324.506-.324.825 0 .112.02.219.048.322.003.009.006.018.009.028.152.508.617.881 1.173.881.001 0 .019-.003.029-.003.001 0 .019-.002.029-.003.54-.025.986-.399 1.123-.903z"/></g></g></svg>