<svg xmlns="http://www.w3.org/2000/svg" viewBox="0 0 48 48"><defs><linearGradient id="0" x1="11.818" y1="-1049.18" x2="12.182" y2="-1033.91" gradientUnits="userSpaceOnUse"><stop stop-color="#0a80fd"/><stop offset="1" stop-color="#56c5fa"/></linearGradient></defs><circle r="8" cx="11" cy="-1041.36" transform="matrix(-2.625 0 0-2.625 52.872-2709.57)" opacity=".98" fill="url(#0)"/><path d="m-39.693 3.799c-.808 0-1.577.16-2.314.477-1.465.628-2.538 1.694-3.168 3.162-.316.735-.469 1.504-.469 2.313 0 .808.153 1.585.469 2.32.63 1.468 1.703 2.539 3.168 3.168.738.316 1.506.477 2.314.477.808 0 1.582-.162 2.32-.477 1.478-.63 2.545-1.703 3.174-3.168.316-.738.477-1.512.477-2.32 0-.808-.16-1.575-.477-2.313-.629-1.465-1.696-2.532-3.174-3.162-.738-.315-1.512-.477-2.32-.477m-.369 2.186c.304 0 .553.249.553.553v3.785l2.146 1.678c.249.184.286.534.102.773-.101.138-.268.211-.434.211-.12 0-.239-.045-.34-.119l-2.367-1.842c-.129-.101-.213-.259-.213-.434v-4.053c0-.304.249-.553.553-.553" transform="matrix(2.35013 0 0 2.3513 117.23.962)" fill="#fff" fill-opacity=".85" opacity=".99"/></svg>