<svg xmlns="http://www.w3.org/2000/svg" viewBox="0 0 48 48"><defs><linearGradient id="0" x1="11.818" y1="-1049.18" x2="12.182" y2="-1033.91" gradientUnits="userSpaceOnUse"><stop stop-color="#0a80fd"/><stop offset="1" stop-color="#56c5fa"/></linearGradient></defs><circle transform="matrix(-2.625 0 0-2.625 52.872-2709.57)" cy="-1041.36" cx="11" r="8" opacity=".98" fill="url(#0)"/><path d="m483.24 0h-150.29c-27.556 0-66.04 15.94-85.52 35.424l-232.81 232.81c-19.483 19.483-19.483 51.37 0 70.85l179.64 179.64c19.483 19.484 51.37 19.484 70.849 0l232.81-232.81c19.483-19.484 35.424-57.969 35.424-85.52v-150.29c-.0001-27.554-22.544-50.1-50.1-50.1m-66.57 166.67c-27.614 0-50-22.385-50-50 0-27.614 22.386-50 50-50 27.614 0 50 22.386 50 50 0 27.614-22.386 50-50 50z" transform="matrix(.04811 0 0 .04811 9.985 12.792)" fill="#e0f1ff"/></svg>