<svg xmlns="http://www.w3.org/2000/svg" viewBox="0 0 64 64"><defs><linearGradient y2="157.23" x2="0" y1="211.23" gradientUnits="userSpaceOnUse" id="0"><stop stop-color="#197ff1"/><stop offset="1" stop-color="#21c6fb"/></linearGradient></defs><circle r="28" cy="184.55" cx="768.86" fill="url(#0)" transform="matrix(.92857 0 0 .92857-681.94-139.37)"/><path d="m332.8 13.699c-1.489-1.306-3.608-1.609-5.404-.776l-324.5 150.77c-1.747.812-2.872 2.555-2.893 4.481-.021 1.926 1.067 3.693 2.797 4.542l91.83 45.07c1.684.827 3.692.64 5.196-.484l89.29-66.734-70.09 72.1c-1 1.029-1.51 2.438-1.4 3.868l6.979 90.89c.155 2.01 1.505 3.736 3.424 4.367.513.168 1.04.25 1.561.25 1.429 0 2.819-.613 3.786-1.733l48.742-56.48 60.25 28.79c1.308.625 2.822.651 4.151.073 1.329-.579 2.341-1.705 2.775-3.087l84.978-270.65c.594-1.89.015-3.951-1.473-5.257" fill="#fff" fill-opacity=".854" transform="matrix(.09044 0 0 .09044 13.968 18.17)"/></svg>