<svg xmlns="http://www.w3.org/2000/svg" viewBox="0 0 48 48"><defs><linearGradient id="0" x1="11.818" y1="-1049.18" x2="12.182" y2="-1033.91" gradientUnits="userSpaceOnUse"><stop stop-color="#0a80fd"/><stop offset="1" stop-color="#56c5fa"/></linearGradient></defs><circle transform="matrix(-2.625 0 0-2.625 52.875-2709.58)" cy="-1041.36" cx="11" r="8" opacity=".98" fill="url(#0)"/><path d="m3.555 1046.8c-.206-.387-.221-1.621-.03-2.548.412-2.01 1.307-3.861 2.618-5.423l.519-.619-2.391-2.531h7.259c.004.151 0 7.285 0 7.285l-2.552-2.344c-.441.169-2.848 2.458-3.504 3.33-.447.595-.973 1.588-1.247 2.355-.293.82-.443.929-.674.494z" fill="#fff" fill-opacity=".947" stroke-width=".118" transform="matrix(-2.05637 0 0 2.05637 40.06-2116.17)" stroke="#f6f6f6" stroke-linejoin="round" stroke-linecap="round"/></svg>