<svg xmlns="http://www.w3.org/2000/svg" viewBox="0 0 48 48"><defs><linearGradient id="0" x1="11.818" y1="-1049.18" x2="12.182" y2="-1033.91" gradientUnits="userSpaceOnUse"><stop stop-color="#c52828"/><stop offset="1" stop-color="#ff5454"/></linearGradient></defs><circle transform="matrix(-2.625 0 0-2.625 52.872-2709.57)" cy="-1041.36" cx="11" r="8" opacity=".98" fill="url(#0)"/><path d="m123.78 73.993l-11.242-10.999 11.242-10.999c1.63-1.521 2.173-3.422 1.63-5.703-.651-2.227-2.063-3.612-4.237-4.155l-15.316-3.911 4.318-15.15c.651-2.226.137-4.128-1.549-5.703-1.574-1.684-3.475-2.2-5.703-1.548l-15.15 4.318-3.912-15.317c-.543-2.227-1.926-3.612-4.153-4.155-2.228-.598-4.129-.081-5.703 1.548l-11 11.325-10.999-11.325c-1.575-1.684-3.476-2.2-5.703-1.548-2.227.543-3.612 1.928-4.155 4.155l-3.911 15.317-15.15-4.318c-2.227-.652-4.128-.136-5.703 1.548-1.684 1.575-2.2 3.476-1.548 5.703l4.318 15.15-15.317 3.911c-2.172.543-3.585 1.928-4.236 4.155-.544 2.281 0 4.182 1.629 5.703l11.243 10.999-11.243 10.999c-1.629 1.521-2.172 3.422-1.629 5.703.651 2.227 2.064 3.612 4.236 4.155l15.317 3.91-4.318 15.15c-.652 2.227-.136 4.127 1.548 5.703 1.575 1.684 3.476 2.199 5.703 1.548l15.15-4.317 3.911 15.316c.543 2.227 1.928 3.639 4.155 4.236 2.281.543 4.182 0 5.703-1.629l10.999-11.243 11 11.244c1.086 1.193 2.471 1.791 4.154 1.791.381 0 .896-.055 1.549-.162 2.227-.652 3.611-2.064 4.154-4.236l3.91-15.316 15.15 4.317c2.228.651 4.129.136 5.703-1.548 1.685-1.576 2.2-3.477 1.549-5.703l-4.317-15.15 15.315-3.91c2.175-.543 3.586-1.928 4.237-4.155.544-2.282.0001-4.183-1.63-5.704" transform="matrix(.2236 0 0 .2236 9.939 9.922)" stroke="none" stroke-opacity=".8" fill="#fbe3e3"/></svg>