<svg xmlns="http://www.w3.org/2000/svg" viewBox="0 0 64 64"><defs><clipPath><path fill="#f2f2f2" d="m7 1023.36h1v1h-1z"/></clipPath><linearGradient id="0" gradientUnits="userSpaceOnUse" y1="222" x2="0" y2="168"><stop stop-color="#197ff1"/><stop offset="1" stop-color="#21c6fb"/></linearGradient></defs><circle cx="779.63" cy="195.32" r="28" fill="url(#0)" transform="matrix(.92857 0 0 .92857-691.94-149.37)"/><path d="m14 1037.36l2 1.5-2 1.5v-1h-1.76c.0001.001-.836 1.046-1.611 2.01l1.611 1.986h1.76v-1l2 1.5-2 1.5v-1h-2.238c0 0-.893-1.119-1.762-2.201-.869 1.082-1.762 2.201-1.762 2.201h-2.238v-1h1.76l1.611-1.986c-.776-.968-1.612-2-1.611-2.01h-1.76v-1h2.186l1.814 2.238 1.814-2.238h2.186v-1" transform="matrix(3.25 0 0 3.25-3.155-3351.93)" fill="#def4fe"/></svg>