<svg xmlns="http://www.w3.org/2000/svg" viewBox="0 0 64 64"><defs><linearGradient id="0" y1="542.8" x2="0" y2="507.8" gradientUnits="userSpaceOnUse" gradientTransform="matrix(1.27273 0 0 1.64706 243.47-674.44)"><stop stop-color="#2a2c2f"/><stop offset="1" stop-color="#424649"/></linearGradient></defs><g transform="matrix(.92857 0 0 .92857-676.94-144.37)"><rect y="161.93" x="735.47" height="56" width="56" fill="url(#0)" rx="2.635"/><path d="m16.428 15.744c-.159-.052-1.164-.505-.536-2.414h-.009c1.637-1.686 2.888-4.399 2.888-7.07 0-4.107-2.731-6.26-5.905-6.26-3.176 0-5.892 2.152-5.892 6.26 0 2.682 1.244 5.406 2.891 7.088.642 1.684-.506 2.309-.746 2.396-2.238.724-8.325 4.332-8.229 9.586h24.05c.107-5.02-4.708-8.279-8.513-9.586" fill="#fff" fill-opacity=".85" transform="matrix(1.36051 0 0 1.36051 745.89 173.77)"/></g></svg>