<?xml version="1.0" encoding="UTF-8" standalone="no"?>
<svg
   xmlns:dc="http://purl.org/dc/elements/1.1/"
   xmlns:cc="http://creativecommons.org/ns#"
   xmlns:rdf="http://www.w3.org/1999/02/22-rdf-syntax-ns#"
   xmlns:svg="http://www.w3.org/2000/svg"
   xmlns="http://www.w3.org/2000/svg"
   xmlns:sodipodi="http://sodipodi.sourceforge.net/DTD/sodipodi-0.dtd"
   xmlns:inkscape="http://www.inkscape.org/namespaces/inkscape"
   viewBox="0 0 48 48"
   version="1.1"
   id="svg27"
   sodipodi:docname="applications-engineering.svg"
   inkscape:version="0.92.3 (2405546, 2018-03-11)">
  <metadata
     id="metadata31">
    <rdf:RDF>
      <cc:Work
         rdf:about="">
        <dc:format>image/svg+xml</dc:format>
        <dc:type
           rdf:resource="http://purl.org/dc/dcmitype/StillImage" />
      </cc:Work>
    </rdf:RDF>
  </metadata>
  <sodipodi:namedview
     pagecolor="#ffffff"
     bordercolor="#666666"
     borderopacity="1"
     objecttolerance="10"
     gridtolerance="10"
     guidetolerance="10"
     inkscape:pageopacity="0"
     inkscape:pageshadow="2"
     inkscape:window-width="640"
     inkscape:window-height="480"
     id="namedview29"
     showgrid="false"
     inkscape:zoom="4.9166667"
     inkscape:cx="24"
     inkscape:cy="24"
     inkscape:window-x="0"
     inkscape:window-y="0"
     inkscape:window-maximized="0"
     inkscape:current-layer="g25" />
  <defs
     id="defs13">
    <linearGradient
       y1="545.8"
       x2="0"
       y2="517.8"
       gradientUnits="userSpaceOnUse"
       id="linearGradient6">
      <stop
         stop-color="#3889e9"
         id="stop2" />
      <stop
         offset="1"
         stop-color="#5ea5fb"
         id="stop4" />
    </linearGradient>
    <linearGradient
       id="0"
       gradientUnits="userSpaceOnUse"
       x1="400.51"
       y1="546.07"
       x2="400.7"
       y2="517.77">
      <stop
         stop-color="#2f3f47"
         id="stop8" />
      <stop
         offset="1"
         stop-color="#425963"
         id="stop10" />
    </linearGradient>
  </defs>
  <g
     transform="matrix(1.71429 0 0 1.71429-662.7-887.66)"
     id="g25">
    <circle
       r="14"
       cy="531.8"
       cx="400.57"
       fill="url(#0)"
       id="circle15" />
    <circle
       cx="400.57"
       cy="531.8"
       r="14"
       fill="#5ea5fb"
       fill-opacity="0"
       id="circle17" />
    <path
       inkscape:connector-curvature="0"
       style="opacity:0.5;fill:#ffffff;stroke-width:0.61090302"
       d="m 394.32163,528.59873 h 2.42459 c 0.33477,0 0.60615,-0.27566 0.60615,-0.6157 v -1.84132 h 7.27378 v 1.84132 c 0,0.34004 0.27138,0.6157 0.60614,0.6157 h 2.4246 v 8.62294 h -13.33526 z m -0.60614,9.85434 h 14.54754 c 0.33477,0 0.60615,-0.27566 0.60615,-0.61569 v -9.85435 c 0,-0.34004 -0.27138,-0.6157 -0.60615,-0.6157 h -2.42459 v -1.84132 c 0,-0.34003 -0.27138,-0.61569 -0.60615,-0.61569 h -8.48607 c -0.33476,0 -0.60615,0.27566 -0.60615,0.61569 v 1.84132 h -2.42458 c -0.33477,0 -0.60616,0.27566 -0.60616,0.6157 v 9.85435 c 0,0.34003 0.27139,0.61569 0.60616,0.61569 z m 7.87992,-3.08492 h -1.2123 v 1.84708 h 1.2123 z m 3.03074,0 h -1.2123 v 1.84708 h 1.2123 z m -6.06148,0 h -1.2123 v 1.84708 h 1.2123 z"
       id="Combined-Shape" />
  </g>
</svg>
