<svg xmlns="http://www.w3.org/2000/svg" viewBox="0 0 64 64"><g transform="matrix(.92857 0 0 .92857-681.94-144.37)"><rect width="56" height="56" x="740.86" y="161.93" fill="#4d4d4d" rx="28" stroke-width="1.083"/><path d="m299.02 161.26h-185.84v-46.28c0-41.34 33.635-74.979 74.979-74.979 33.758 0 63.51 22.716 72.36 55.24 2.898 10.657 13.888 16.946 24.547 14.05 10.659-2.898 16.949-13.889 14.05-24.548-13.57-49.896-59.2-84.74-110.96-84.74-63.4 0-114.98 51.58-114.98 114.98v46.715c-9.06 1.902-15.888 9.952-15.888 19.571v175.05c0 11.03 8.972 20 20 20h221.73c11.03 0 20-8.972 20-20v-175.05c0-11.03-8.972-20-20-20" fill="#fff" transform="matrix(.08013 0 0 .08013 753.78 174.81)"/></g></svg>