<svg xmlns="http://www.w3.org/2000/svg" xmlns:xlink="http://www.w3.org/1999/xlink" viewBox="0 0 64 64"><defs><linearGradient y2="157.23" x2="0" y1="211.23" gradientUnits="userSpaceOnUse" id="8"><stop stop-color="#c52828"/><stop offset="1" stop-color="#ff5454"/></linearGradient><linearGradient id="5"><stop stop-color="#0a80fd"/><stop offset="1" stop-color="#56c5fa"/></linearGradient><linearGradient id="7" x1="82.46" y1="30.487" x2="82.74" y2="24.587" gradientUnits="userSpaceOnUse"><stop stop-color="#060606"/><stop offset="1" stop-color="#343434"/></linearGradient><linearGradient xlink:href="#5" id="6" y1="45.946" x2="0" y2="25.988" gradientUnits="userSpaceOnUse"/><linearGradient xlink:href="#5" id="4" x1="98.65" y1="19.362" x2="98.44" y2="16.254" gradientUnits="userSpaceOnUse"/><linearGradient xlink:href="#1" id="3" x1="-847.06" y1="191.09" x2="-843.94" y2="-181.89" gradientUnits="userSpaceOnUse" gradientTransform="matrix(.07412 0 0 .06784 145.54 26.06)"/><linearGradient xlink:href="#1" id="0" x1="81.26" y1="14.551" x2="81.41" y2="2.154" gradientUnits="userSpaceOnUse"/><linearGradient id="2" x1="81.4" y1="11.641" x2="81.51" y2=".651" gradientUnits="userSpaceOnUse"><stop stop-color="#cdced2"/><stop offset="1" stop-color="#f1f1f1"/></linearGradient><linearGradient id="1"><stop stop-color="#1f1f1f"/><stop offset="1" stop-color="#444"/></linearGradient></defs><g transform="matrix(.81549 0 0 .81549-595.66-123.42)"><g transform="matrix(1.16667 0 0 1.16667 669.71 157.84)" enable-background="new"><rect y="6.357" x="67.28" height="10.47" width="30.26" fill="url(#0)" rx=".654"/><rect y=".741" x="70.27" height="13.09" width="24.21" fill="url(#2)" rx=".685"/><rect y="12.9" x="58.37" height="26.502" width="48" fill="url(#3)" rx="1.559"/><path d="m96.39585 16.4177a1.472334 1.472334 0 0 0 -1.472333 1.472334 1.472334 1.472334 0 0 0 1.472333 1.472334 1.472334 1.472334 0 0 0 1.472334 -1.472334 1.472334 1.472334 0 0 0 -1.472334 -1.472334m4.253411 0a1.472334 1.472334 0 0 0 -1.472336 1.472334 1.472334 1.472334 0 0 0 1.472336 1.472334 1.472334 1.472334 0 0 0 1.47233 -1.472334 1.472334 1.472334 0 0 0 -1.47233 -1.472334" fill="url(#4)"/><rect y="27.46" x="70.51" height="18.65" width="23.721" fill="url(#6)" rx=".965"/><path d="m71.17 26.15h22.412c1.178 0 2.127.949 2.127 2.127v.164c0 1.178 0 2.127 0 2.127h-26.666c0 0 0-.949 0-2.127v-.164c0-1.178.949-2.127 2.127-2.127" fill="url(#7)"/></g><g transform="matrix(.57692 0 0 .57692 341.8 96.74)"><circle cx="768.86" cy="184.55" r="28" fill="url(#8)" transform="translate(0 5.385)"/><path d="m804.89 177.76l4.264-4.264c.271-.271.406-.599.406-.986 0-.387-.135-.715-.406-.986l-1.972-1.973c-.271-.271-.599-.406-.986-.406-.387 0-.716.135-.986.406l-4.264 4.264-4.264-4.264c-.271-.271-.599-.406-.986-.406-.387 0-.715.135-.986.406l-1.973 1.973c-.271.271-.406.599-.406.986 0 .387.135.715.406.986l4.264 4.264-4.264 4.264c-.271.271-.406.599-.406.986 0 .387.135.715.406.986l1.973 1.972c.271.271.6.406.986.406.387 0 .715-.135.986-.406l4.264-4.264 4.264 4.264c.271.271.599.406.986.406.387 0 .715-.135.986-.406l1.972-1.972c.271-.271.406-.599.406-.986 0-.387-.135-.715-.406-.986l-4.264-4.264" fill="#fff" fill-opacity=".847" transform="matrix(1.375 0 0 1.375-332.45-54.06)"/></g></g></svg>