<svg xmlns="http://www.w3.org/2000/svg" viewBox="0 0 64 64"><defs><linearGradient id="0" gradientUnits="userSpaceOnUse" y1="205.01" x2="0" y2="150.09"><stop stop-color="#c52828"/><stop offset="1" stop-color="#ff5454"/></linearGradient></defs><g transform="matrix(.92857 0 0 .92857-711.99-132.79)"><path d="m827.01 161.4c-.017-1.302-1.019-2.377-2.315-2.496-10.772-1.01-19.563-6.764-22.461-8.87-.606-.442-1.426-.442-2.032 0-2.893 2.106-11.683 7.863-22.456 8.87-1.296.119-2.293 1.194-2.315 2.496-.13 8.497 1.234 37.34 25.14 43.762.425.113.872.113 1.296 0 23.905-6.413 25.27-35.27 25.14-43.762" fill="url(#0)"/><path d="m804.89 177.76l4.264-4.264c.271-.271.406-.599.406-.986 0-.387-.135-.715-.406-.986l-1.972-1.973c-.271-.271-.599-.406-.986-.406-.387 0-.716.135-.986.406l-4.264 4.264-4.264-4.264c-.271-.271-.599-.406-.986-.406-.387 0-.715.135-.986.406l-1.973 1.973c-.271.271-.406.599-.406.986 0 .387.135.715.406.986l4.264 4.264-4.264 4.264c-.271.271-.406.599-.406.986 0 .387.135.715.406.986l1.973 1.972c.271.271.6.406.986.406.387 0 .715-.135.986-.406l4.264-4.264 4.264 4.264c.271.271.599.406.986.406.387 0 .715-.135.986-.406l1.972-1.972c.271-.271.406-.599.406-.986 0-.387-.135-.715-.406-.986l-4.264-4.264" fill="#fff" fill-opacity=".847"/></g></svg>