<svg xmlns="http://www.w3.org/2000/svg" viewBox="0 0 64 64"><defs><linearGradient id="0" gradientUnits="userSpaceOnUse" y1="232.47" x2="0" y2="176.47"><stop stop-color="#ffc515"/><stop offset="1" stop-color="#ffd55b"/></linearGradient></defs><g transform="matrix(.92857 0 0 .92857-661.99-157.79)"><path d="m773.16 188.32c-.017-1.302-1.019-2.377-2.315-2.496-10.772-1.01-19.563-6.764-22.461-8.87-.606-.442-1.426-.442-2.032 0-2.893 2.106-11.683 7.863-22.456 8.87-1.296.119-2.293 1.194-2.315 2.496-.13 8.497 1.234 37.34 25.14 43.762.425.113.872.113 1.296 0 23.905-6.413 25.27-35.27 25.14-43.762" fill="url(#0)"/><g fill="#40330d"><path d="m744.75 194.65v14.799c0 1.417 1.149 2.566 2.566 2.566 1.417 0 2.566-1.149 2.566-2.566v-14.799c0-1.417-1.149-2.566-2.566-2.566-1.417 0-2.566 1.149-2.566 2.566"/><path d="m747.32 214.68c-1.49 0-2.703 1.212-2.703 2.703 0 1.49 1.213 2.703 2.703 2.703 1.49 0 2.703-1.212 2.703-2.703 0-1.491-1.213-2.703-2.703-2.703"/></g></g></svg>