<svg xmlns="http://www.w3.org/2000/svg" viewBox="0 0 64 64"><defs><linearGradient y2="157.23" x2="0" y1="211.23" gradientUnits="userSpaceOnUse" id="0"><stop stop-color="#197ff1"/><stop offset="1" stop-color="#21c6fb"/></linearGradient><linearGradient gradientUnits="userSpaceOnUse" y2="-1033.91" x2="12.182" y1="-1049.18" x1="11.818" id="1"><stop stop-color="#2a2c2f"/><stop offset="1" stop-color="#424649"/></linearGradient></defs><g transform="matrix(.92857 0 0 .92857-681.94-144.37)"><circle r="28" cy="184.55" cx="768.86" fill="url(#0)" transform="translate(0 5.385)"/><path d="m773.85 193.97l-1.89-1.89c-.259-.259-.574-.389-.945-.389-.371 0-.686.13-.945.389l-9.116 9.13-4.085-4.099c-.259-.259-.574-.389-.945-.389-.371 0-.686.13-.945.389l-1.89 1.89c-.259.259-.389.574-.389.945 0 .37.13.686.389.945l5.03 5.03 1.89 1.89c.259.259.574.389.945.389.37 0 .685-.13.945-.389l1.89-1.89 10.06-10.06c.259-.259.389-.574.389-.945 0-.37-.13-.685-.389-.945" fill="#fff" fill-opacity=".851" transform="matrix(1.4352 0 0 1.4352-326.87-95.3)"/><g transform="matrix(1.53518 0 0 1.4971 769.06-1352.71)"><circle r="8" cx="11" cy="-1041.36" transform="scale(1-1)" opacity=".98" fill="url(#1)"/><path d="m3.555 1046.8c-.206-.387-.221-1.621-.03-2.548.412-2.01 1.307-3.861 2.618-5.423l.519-.619-2.391-2.531h7.259c.004.151 0 7.285 0 7.285l-2.552-2.344c-.441.169-2.848 2.458-3.504 3.33-.447.595-.973 1.588-1.247 2.355-.293.82-.443.929-.674.494z" fill="#fff" fill-opacity=".947" stroke-width=".118" transform="matrix(.78338 0 0 .78338 4.881 226.06)" stroke="#f6f6f6" stroke-linejoin="round" stroke-linecap="round"/></g></g></svg>