<svg xmlns="http://www.w3.org/2000/svg" viewBox="0 0 64 64"><defs><linearGradient id="0" x1="-28.999" y1="514.82" x2="-15.58" y2="-56.05" gradientUnits="userSpaceOnUse" gradientTransform="matrix(.0915 0 0 .09154 727.23 191.1)"><stop stop-color="#dc3c30"/><stop offset="1" stop-color="#ff786d"/></linearGradient></defs><g transform="matrix(.92857 0 0 .92857-681.94-144.37)"><path d="m773.85 193.97l-1.89-1.89c-.259-.259-.574-.389-.945-.389-.371 0-.686.13-.945.389l-9.116 9.13-4.085-4.099c-.259-.259-.574-.389-.945-.389-.371 0-.686.13-.945.389l-1.89 1.89c-.259.259-.389.574-.389.945 0 .37.13.686.389.945l5.03 5.03 1.89 1.89c.259.259.574.389.945.389.37 0 .685-.13.945-.389l1.89-1.89 10.06-10.06c.259-.259.389-.574.389-.945 0-.37-.13-.685-.389-.945" fill="#fff" fill-opacity=".851" transform="matrix(1.4352 0 0 1.4352-326.87-95.3)"/><g transform="translate(53.846-21.538)"><path d="m714.97 183.47c-3.796 0-7.406.753-10.871 2.24-6.883 2.954-11.924 7.964-14.882 14.861-1.482 3.456-2.201 7.07-2.201 10.867 0 3.799.719 7.447 2.201 10.903 2.958 6.897 8 11.934 14.882 14.889 3.466 1.487 7.08 2.24 10.871 2.24 3.796 0 7.43-.76 10.899-2.24 6.94-2.962 11.956-8 14.909-14.889 1.486-3.467 2.238-7.105 2.238-10.903 0-3.798-.75-7.4-2.238-10.867-2.952-6.886-7.969-11.9-14.909-14.861-3.469-1.48-7.102-2.24-10.899-2.24" opacity=".99" fill="url(#0)"/><path d="m704.01 220.11c-.344.618-.618 1.547-.618 2.133 0 .136 0 .309.034.549l-4.299-7.393c-.138-.24-.24-.584-.24-.894 0-.31.103-.688.24-.928l2.064-3.611-2.304-1.306 7.497-.139 3.645 6.568-2.338-1.341zm3.302-21.646c.653-1.136 1.72-1.755 3.03-1.755 1.411 0 2.512.654 3.302 1.994l1.17 1.96-4.059 7.824-6.568-4.624zm.48 27.594c-1.96 0-3.576-1.616-3.576-3.576 0-.55.241-1.48.585-2.064l1.099-1.96h8.151v7.6h-6.26m6.536-27.802c-.515-.893-1.203-1.514-2.029-1.858h8.459c.757 0 1.341.31 1.686.896l2.098 3.576 2.269-1.342-3.646 6.535-7.461-.105 2.304-1.306zm13.03 20.271c1.03 0 1.891-.275 2.613-.824l-4.265 7.427c-.344.584-.962.952-1.684.928h-4.03v2.648l-3.851-6.43 3.851-6.432v2.683h7.361m3.299-6.19c.31.55.483 1.134.483 1.754 0 1.238-.792 2.545-1.891 3.163-.517.277-1.241.492-1.96.449h-2.272l-4.056-7.02 6.568-3.749z" fill="#fdf0ef" fill-opacity=".854"/></g></g></svg>