<svg xmlns="http://www.w3.org/2000/svg" viewBox="0 0 64 64"><defs><linearGradient id="0" y1="542.8" x2="0" y2="507.8" gradientUnits="userSpaceOnUse" gradientTransform="matrix(1.27273 0 0 1.64706 243.47-674.44)"><stop stop-color="#2a2c2f"/><stop offset="1" stop-color="#424649"/></linearGradient><linearGradient id="1" gradientUnits="userSpaceOnUse" y1="219.94" x2="0" y2="161.94"><stop stop-color="#ff9300"/><stop offset="1" stop-color="#ffd702"/></linearGradient></defs><g transform="matrix(.92857 0 0 .92857-676.94-144.37)"><rect y="161.93" x="735.47" height="56" width="56" fill="url(#0)" rx="2.635"/><path d="m16.428 15.744c-.159-.052-1.164-.505-.536-2.414h-.009c1.637-1.686 2.888-4.399 2.888-7.07 0-4.107-2.731-6.26-5.905-6.26-3.176 0-5.892 2.152-5.892 6.26 0 2.682 1.244 5.406 2.891 7.088.642 1.684-.506 2.309-.746 2.396-2.238.724-8.325 4.332-8.229 9.586h24.05c.107-5.02-4.708-8.279-8.513-9.586" fill="#fff" fill-opacity=".85" transform="matrix(1.36051 0 0 1.36051 745.89 173.77)"/><g transform="matrix(.44644 0 0 .44644 399.82 125.7)"><rect y="161.93" x="740.86" height="56" width="56" fill="url(#1)" rx="28" stroke-width="1.083"/><path d="m299.02 161.26h-185.84v-46.28c0-41.34 33.635-74.979 74.979-74.979 33.758 0 63.51 22.716 72.36 55.24 2.898 10.657 13.888 16.946 24.547 14.05 10.659-2.898 16.949-13.889 14.05-24.548-13.57-49.896-59.2-84.74-110.96-84.74-63.4 0-114.98 51.58-114.98 114.98v46.715c-9.06 1.902-15.888 9.952-15.888 19.571v175.05c0 11.03 8.972 20 20 20h221.73c11.03 0 20-8.972 20-20v-175.05c0-11.03-8.972-20-20-20m-84 149.65c.408 2.162-1.058 3.931-3.258 3.931h-46.677c-2.2 0-3.666-1.769-3.258-3.931l7.432-39.39c-5.626-5.131-9.157-12.52-9.157-20.734 0-15.495 12.561-28.06 28.06-28.06 15.495 0 28.06 12.561 28.06 28.06 0 7.991-3.346 15.195-8.707 20.305z" transform="matrix(.08013 0 0 .08013 753.78 174.81)" fill="#342300"/></g></g></svg>