<svg xmlns="http://www.w3.org/2000/svg" xmlns:xlink="http://www.w3.org/1999/xlink" viewBox="0 0 64 64"><defs><linearGradient gradientUnits="userSpaceOnUse" y2="-188.48" x2="-527.26" y1="-179.91" x1="-528.01" id="6" xlink:href="#2"/><linearGradient gradientUnits="userSpaceOnUse" y2="-177.8" x2="-507.37" y1="-173.24" x1="-507.77" id="A" xlink:href="#2"/><linearGradient gradientUnits="userSpaceOnUse" y2="-170.72" x2="-527.6" y1="-163.98" x1="-528.19" id="7" xlink:href="#2"/><linearGradient gradientUnits="userSpaceOnUse" y2="-190.09" x2="-512.4" y1="-185.53" x1="-512.8" id="9" xlink:href="#2"/><linearGradient gradientUnits="userSpaceOnUse" y2="-174.1" x2="-538.29" y1="-169.54" x1="-538.68" id="8" xlink:href="#2"/><linearGradient xlink:href="#2" id="5" y1="215.93" x2="0" y2="209.47" gradientUnits="userSpaceOnUse"/><linearGradient y2="511.03" x2="304.72" y1="541.42" x1="305.68" gradientUnits="userSpaceOnUse" id="0"><stop stop-color="#ff9300"/><stop offset="1" stop-color="#ffd702"/></linearGradient><linearGradient xlink:href="#2" id="4" y1="221.39" x2="0" y2="214.93" gradientUnits="userSpaceOnUse"/><linearGradient gradientTransform="matrix(2.07793 0 0 2.08909-503.11-599.88)" id="1" gradientUnits="userSpaceOnUse" x1="395.48" y1="551.32" x2="395.24" y2="535.55"><stop stop-color="#b7d7e1"/><stop offset="1" stop-color="#fff"/></linearGradient><linearGradient xlink:href="#2" id="3" y1="214.61" x2="0" y2="208.15" gradientUnits="userSpaceOnUse"/><linearGradient id="2"><stop stop-color="#add4e9"/><stop offset="1" stop-color="#f0fbfe"/></linearGradient></defs><g transform="matrix(.92857 0 0 .92857-681.94-144.37)"><g transform="matrix(.99442 0 0 .99629 457.12-346.82)"><circle cx="305.38" cy="526.52" r="15.881" fill="url(#0)"/><path d="m311.11 530.14c-.874-.686-1.973-1.095-3.165-1.095-2.808 0-5.093 2.265-5.165 5.087-2.898 1.099-4.961 3.927-4.961 7.241 0 3.916 2.879 7.151 6.613 7.662v.07h26.451v-.013c3.688-.216 6.613-3.309 6.613-7.093 0-3.649-2.72-6.655-6.222-7.06.014-.222.022-.447.022-.673 0-5.655-4.719-10.239-10.539-10.239-4.308 0-8.01 2.512-9.647 6.11" fill="url(#1)"/></g><g transform="translate(51.21-6.092)"><circle r="3.231" cy="211.38" cx="729.08" transform="translate(5.385)" fill="url(#3)"/><circle r="3.231" cy="218.16" cx="717" transform="translate(5.385)" fill="url(#4)"/><circle r="3.231" cy="212.7" cx="702.65" transform="translate(5.385)" fill="url(#5)"/><g transform="matrix(.66147 0 0 .66147 1066.97 333.77)"><ellipse cx="-527.54" cy="-184.76" rx="4.377" ry="4.284" fill="url(#6)"/><ellipse cx="-527.82" cy="-167.79" rx="3.446" ry="3.372" fill="url(#7)"/><ellipse cx="-538.44" cy="-172.11" rx="2.328" ry="2.279" fill="url(#8)"/><ellipse cx="-512.55" cy="-188.11" rx="2.328" ry="2.279" fill="url(#9)"/><ellipse cx="-507.52" cy="-175.82" rx="2.328" ry="2.279" fill="url(#A)"/></g></g></g></svg>