<svg xmlns="http://www.w3.org/2000/svg" xmlns:xlink="http://www.w3.org/1999/xlink" viewBox="0 0 64 64"><defs><linearGradient id="8" x1="-512.48" y1="-311.78" x2="-507.41" y2="-333.01" gradientUnits="userSpaceOnUse"><stop stop-color="#ff9300"/><stop offset="1" stop-color="#ffd702"/></linearGradient><linearGradient gradientUnits="userSpaceOnUse" y2="563.88" x2="0" y1="583.19" id="5" xlink:href="#1" gradientTransform="matrix(.24869.02086-.02071.25039-610.69-323.28)"/><linearGradient gradientUnits="userSpaceOnUse" y2="563.88" x2="0" y1="583.19" id="7" xlink:href="#1" gradientTransform="matrix(.23788.07548-.07572.23956-547.43-348.62)"/><linearGradient gradientUnits="userSpaceOnUse" y2="563.88" x2="0" y1="583.19" id="6" xlink:href="#1" gradientTransform="matrix(.24144.06317-.06332.24313-553.91-335.79)"/><linearGradient gradientUnits="userSpaceOnUse" y2="-191.25" x2="-532.77" y1="-184.53" x1="-534.56" id="4" xlink:href="#1"/><linearGradient gradientUnits="userSpaceOnUse" y2="-187.54" x2="-502.64" y1="-178.75" x1="-504.46" id="3" xlink:href="#1"/><linearGradient y2="538.79" x2="394.7" y1="549.38" x1="396.46" gradientUnits="userSpaceOnUse" id="0" xlink:href="#1" gradientTransform="matrix(2.07793 0 0 2.08909-503.11-599.88)"/><linearGradient gradientUnits="userSpaceOnUse" y2="-186.59" x2="-543.45" y1="-177.19" x1="-546.18" id="2" xlink:href="#1"/><linearGradient id="1"><stop stop-color="#7a808a"/><stop offset="1" stop-color="#ced8e0"/></linearGradient></defs><g transform="matrix(.74519 0 0 .74519 412.53 289.83)"><g transform="matrix(1.29586 0 0 1.29586-1506.97-589.71)"><path d="m311.11 530.14c-.874-.686-1.973-1.095-3.165-1.095-2.808 0-5.093 2.265-5.165 5.087-2.898 1.099-4.961 3.927-4.961 7.241 0 3.916 2.879 7.151 6.613 7.662v.07h26.451v-.013c3.688-.216 6.613-3.309 6.613-7.093 0-3.649-2.72-6.655-6.222-7.06.014-.222.022-.447.022-.673 0-5.655-4.719-10.239-10.539-10.239-4.308 0-8.01 2.512-9.647 6.11" fill="url(#0)" transform="matrix(1.41137 0 0 1.41137 320.53-578.44)"/><g transform="matrix(.66147 0 0 .66147 1114.42 325.53)"><path d="m-542.64-188.14l-4.894 4.727c-1.03 1-1.525 2.509-1.161 4.01.547 2.25 2.815 3.63 5.064 3.083 2.25-.547 3.63-2.815 3.083-5.064l-1.608-6.612c-.053-.218-.323-.297-.485-.141" fill="url(#2)"/><path d="m-502-189.02l-4.143 4.675c-.872.989-1.217 2.405-.777 3.749.661 2.02 2.834 3.122 4.855 2.461 2.02-.661 3.122-2.834 2.461-4.855l-1.942-5.937c-.064-.196-.317-.249-.454-.094" fill="url(#3)"/><path d="m-532.22-192.36l-3.401 3.438c-.716.728-1.043 1.808-.761 2.865.425 1.59 2.058 2.534 3.648 2.109 1.59-.425 2.534-2.058 2.109-3.648l-1.249-4.672c-.041-.154-.234-.206-.347-.092" fill="url(#4)"/><path d="m-538.48-175.91l-1.902 2.776c-.4.587-.492 1.369-.17 2.06.483 1.04 1.712 1.488 2.744 1 1.033-.486 1.478-1.723.995-2.763l-1.419-3.055c-.047-.101-.185-.112-.248-.021" fill="url(#5)"/><path d="m-508.03-178.22l-2.349 2.409c-.495.51-.719 1.264-.521 2 .298 1.107 1.431 1.759 2.532 1.457 1.101-.302 1.752-1.444 1.454-2.551l-.875-3.253c-.029-.107-.163-.142-.24-.063" fill="url(#6)"/><path d="m-509.7-188.91l-2.47 2.286c-.52.484-.783 1.226-.623 1.971.24 1.121 1.339 1.831 2.454 1.585 1.115-.245 1.823-1.353 1.583-2.473l-.707-3.294c-.023-.109-.155-.151-.237-.075" fill="url(#7)"/></g></g><path d="m-507.92-334.43l-9.587 11.662 6.469 3.5-1.676 8.162 9.587-11.662-6.469-3.5z" fill="url(#8)"/></g></svg>