<svg xmlns="http://www.w3.org/2000/svg" viewBox="0 0 64 64"><defs><linearGradient gradientTransform="matrix(2.07793 0 0 2.08909-503.11-599.88)" id="0" gradientUnits="userSpaceOnUse" x1="395.72" y1="557.23" x2="395.48" y2="541.46"><stop stop-color="#add4e9"/><stop offset="1" stop-color="#f0fbfe"/></linearGradient></defs><path d="m311.11 530.14c-.874-.686-1.973-1.095-3.165-1.095-2.808 0-5.093 2.265-5.165 5.087-2.898 1.099-4.961 3.927-4.961 7.241 0 3.916 2.879 7.151 6.613 7.662v.07h26.451v-.013c3.688-.216 6.613-3.309 6.613-7.093 0-3.649-2.72-6.655-6.222-7.06.014-.222.022-.447.022-.673 0-5.655-4.719-10.239-10.539-10.239-4.308 0-8.01 2.512-9.647 6.11" fill="url(#0)" transform="matrix(1.27009 0 0 1.27009-369.11-653.56)"/><path d="m-399.71 10.766c-5.256 0-9.776 3.064-11.77 7.453-1.067-.837-2.406-1.336-3.861-1.336-3.425 0-6.211 2.765-6.299 6.207-.912.346-1.753.834-2.504 1.434-4.168.921-7.599 3.728-9.289 7.449-1.113-.873-2.51-1.393-4.03-1.393-.73 0-1.43.126-2.086.348-1.68-2.164-4.339-3.568-7.344-3.568-3.762 0-6.999 2.192-8.426 5.334v.002c-.764-.599-1.722-.957-2.764-.957-2.452 0-4.447 1.979-4.51 4.443-2.531.96-4.332 3.428-4.332 6.322 0 3.419 2.513 6.246 5.773 6.691v.061h11.27c1.124 3.562 4.191 6.247 7.947 6.76v.088h33.658v-.016c3.479-.204 6.418-2.421 7.709-5.516h17.549v-.001c3.221-.189 5.773-2.889 5.773-6.193 0-2.759-1.783-5.096-4.246-5.902 1.361-1.534 2.195-3.556 2.195-5.779 0-4.451-3.318-8.119-7.59-8.611.018-.271.027-.544.027-.82 0-6.898-5.755-12.49-12.855-12.49" transform="matrix(.59524 0 0 .59524 282.38 18.608)" fill-opacity=".448" fill="#b8b8b8"/></svg>