<svg xmlns="http://www.w3.org/2000/svg" xmlns:xlink="http://www.w3.org/1999/xlink" viewBox="0 0 64 64"><defs><linearGradient xlink:href="#1" id="9" x1="-507.77" y1="-173.24" x2="-507.37" y2="-177.8" gradientUnits="userSpaceOnUse"/><linearGradient xlink:href="#1" id="6" x1="-528.19" y1="-163.98" x2="-527.6" y2="-170.72" gradientUnits="userSpaceOnUse"/><linearGradient xlink:href="#1" id="8" x1="-512.8" y1="-185.53" x2="-512.4" y2="-190.09" gradientUnits="userSpaceOnUse"/><linearGradient xlink:href="#1" id="7" x1="-538.68" y1="-169.54" x2="-538.29" y2="-174.1" gradientUnits="userSpaceOnUse"/><linearGradient xlink:href="#1" id="5" x1="-528.01" y1="-179.91" x2="-527.26" y2="-188.48" gradientUnits="userSpaceOnUse"/><linearGradient gradientTransform="matrix(2.07793 0 0 2.08909-503.11-599.88)" xlink:href="#1" id="0" gradientUnits="userSpaceOnUse" x1="395.72" y1="557.23" x2="395.48" y2="541.46"/><linearGradient gradientUnits="userSpaceOnUse" y2="-189.12" x2="-502.43" y1="-182.37" x1="-504.1" id="4" xlink:href="#1"/><linearGradient id="1"><stop stop-color="#add4e9"/><stop offset="1" stop-color="#f0fbfe"/></linearGradient><linearGradient gradientUnits="userSpaceOnUse" y2="-177.54" x2="-520.73" y1="-170.61" x1="-521.31" id="3" xlink:href="#1"/><linearGradient gradientUnits="userSpaceOnUse" y2="-187.49" x2="-541.16" y1="-180.81" x1="-543.1" id="2" xlink:href="#1"/></defs><g transform="matrix(.61422 0 0 .61422 352.93 157.94)"><path d="m311.11 530.14c-.874-.686-1.973-1.095-3.165-1.095-2.808 0-5.093 2.265-5.165 5.087-2.898 1.099-4.961 3.927-4.961 7.241 0 3.916 2.879 7.151 6.613 7.662v.07h26.451v-.013c3.688-.216 6.613-3.309 6.613-7.093 0-3.649-2.72-6.655-6.222-7.06.014-.222.022-.447.022-.673 0-5.655-4.719-10.239-10.539-10.239-4.308 0-8.01 2.512-9.647 6.11" fill="url(#0)" transform="matrix(2.13374 0 0 2.13374-1200.3-1363.79)"/><path d="m-540.59-188.6l-3.478 3.36c-.732.711-1.084 1.784-.825 2.847.389 1.599 2 2.58 3.599 2.191 1.599-.389 2.58-2 2.191-3.599l-1.143-4.699c-.038-.155-.23-.211-.345-.1" fill="url(#2)"/><path d="m-520.38-178.73l-2.745 3.981c-.577.842-.71 1.963-.246 2.954.697 1.491 2.471 2.134 3.962 1.436 1.491-.697 2.134-2.471 1.437-3.962l-2.049-4.38c-.068-.145-.267-.161-.358-.03" fill="url(#3)"/><path d="m-501.89-190.24l-3.345 3.493c-.704.739-1.014 1.824-.714 2.877.451 1.583 2.099 2.5 3.682 2.05 1.583-.451 2.5-2.099 2.05-3.682l-1.325-4.651c-.044-.154-.238-.202-.348-.086" fill="url(#4)"/><ellipse cx="-527.54" cy="-184.76" rx="4.377" ry="4.284" fill="url(#5)"/><ellipse cx="-527.82" cy="-167.79" rx="3.446" ry="3.372" fill="url(#6)"/><ellipse cx="-538.44" cy="-172.11" rx="2.328" ry="2.279" fill="url(#7)"/><ellipse cx="-512.55" cy="-188.11" rx="2.328" ry="2.279" fill="url(#8)"/><ellipse cx="-507.52" cy="-175.82" rx="2.328" ry="2.279" fill="url(#9)"/></g></svg>