<svg xmlns="http://www.w3.org/2000/svg" xmlns:xlink="http://www.w3.org/1999/xlink" viewBox="0 0 64 64"><defs><linearGradient gradientUnits="userSpaceOnUse" y2="8.935" x2="0" y1="15.753" id="4" xlink:href="#1"/><linearGradient y2="538.36" x2="0" y1="549.61" gradientUnits="userSpaceOnUse" id="5" gradientTransform="matrix(1.92558 0 0 1.93592-444.39-515.64)"><stop stop-color="#ebebeb"/><stop offset="1" stop-color="#fff"/></linearGradient><linearGradient gradientUnits="userSpaceOnUse" y2="2.117" x2="0" y1="8.935" id="3" xlink:href="#1"/><linearGradient id="1"><stop stop-color="#ff9300"/><stop offset="1" stop-color="#ffd702"/></linearGradient><linearGradient gradientUnits="userSpaceOnUse" y2="-16.683" x2="95.62" y1="320.21" x1="151.76" id="0"><stop stop-color="#92ccff"/><stop offset="1" stop-color="#e5f9fd"/></linearGradient><linearGradient gradientUnits="userSpaceOnUse" y2="5.526" x2="18.17" y1="8.935" x1="21.58" id="2" xlink:href="#1"/></defs><g transform="matrix(.8458 0 0 .8458-616.01-129.11)"><g transform="translate(5.378.004)"><path d="m153.7 292.14c-84.75 0-153.7-68.953-153.7-153.7 0-58.697 32.675-111.44 85.28-137.63 2.369-1.174 5.215-.718 7.08 1.144 1.864 1.864 2.345 4.711 1.183 7.07-9.599 19.502-14.463 40.471-14.463 62.3 0 77.972 63.43 141.41 141.4 141.41 22.08 0 43.25-4.978 62.942-14.777 2.366-1.177 5.213-.721 7.07 1.141 1.873 1.867 2.342 4.714 1.177 7.07-26.06 53.02-78.927 85.964-137.97 85.964" fill="url(#0)" transform="matrix(-.1918 0 0 .1918 791.5 161.9)"/><g transform="matrix(-1.57949 0 0 1.57949 774.94 166.13)"><path fill="url(#3)" d="m10.477.988l-1.214 3.238-2.286.762 2.286.762 1.214 3.238 1.213-3.238 2.287-.762-2.286-.762z"/><path fill="url(#4)" d="m14.477 16.988l1.214-3.238 2.286-.762-2.286-.762-1.214-3.238-1.214 3.238-2.286.762 2.286.762z"/><path fill="url(#2)" d="m18.61 7.559l.867 2.429.867-2.429 1.633-.571-1.633-.571-.867-2.429-.867 2.429-1.633.571z"/></g></g><path d="m310.13 531.53c-.81-.636-1.828-1.015-2.933-1.015-2.602 0-4.719 2.099-4.786 4.714-2.686 1.019-4.598 3.639-4.598 6.711 0 3.629 2.668 6.627 6.128 7.1v.065h24.512v-.012c3.418-.2 6.128-3.066 6.128-6.573 0-3.381-2.521-6.167-5.766-6.541.013-.206.021-.414.021-.624 0-5.24-4.373-9.488-9.767-9.488-3.993 0-7.426 2.327-8.94 5.662" fill="url(#5)" transform="matrix(1.37431 0 0 1.37431 326.12-535.61)"/></g></svg>