<svg xmlns="http://www.w3.org/2000/svg" xmlns:xlink="http://www.w3.org/1999/xlink" viewBox="0 0 64 64"><defs><linearGradient gradientTransform="matrix(.24869.02086-.02071.25039-584.84-336.51)" xlink:href="#1" id="9" y1="583.19" x2="0" y2="563.88" gradientUnits="userSpaceOnUse"/><linearGradient xlink:href="#1" id="6" x1="-528.02" y1="-180.99" x2="-527.45" y2="-187.92" gradientUnits="userSpaceOnUse"/><linearGradient gradientTransform="matrix(.24869.02086-.02071.25039-579.55-326.54)" xlink:href="#1" id="8" y1="583.19" x2="0" y2="563.88" gradientUnits="userSpaceOnUse"/><linearGradient gradientTransform="matrix(.24869.02086-.02071.25039-610.69-323.28)" xlink:href="#1" id="7" y1="583.19" x2="0" y2="563.88" gradientUnits="userSpaceOnUse"/><linearGradient xlink:href="#1" id="5" x1="-528.84" y1="-164.71" x2="-528.26" y2="-171.64" gradientUnits="userSpaceOnUse"/><linearGradient gradientTransform="matrix(2.07793 0 0 2.08909-503.11-599.88)" xlink:href="#1" id="0" gradientUnits="userSpaceOnUse" x1="396.46" y1="549.38" x2="394.7" y2="538.79"/><linearGradient xlink:href="#1" id="4" x1="-503.39" y1="-182.24" x2="-503.03" y2="-189.19" gradientUnits="userSpaceOnUse"/><linearGradient id="1"><stop stop-color="#7a808a"/><stop offset="1" stop-color="#ced8e0"/></linearGradient><linearGradient xlink:href="#1" id="3" x1="-521.31" y1="-170.61" x2="-520.73" y2="-177.54" gradientUnits="userSpaceOnUse"/><linearGradient xlink:href="#1" id="2" x1="-543.1" y1="-180.81" x2="-541.16" y2="-187.49" gradientUnits="userSpaceOnUse"/></defs><g transform="matrix(.92857 0 0 .92857-681.94-144.37)"><path d="m311.11 530.14c-.874-.686-1.973-1.095-3.165-1.095-2.808 0-5.093 2.265-5.165 5.087-2.898 1.099-4.961 3.927-4.961 7.241 0 3.916 2.879 7.151 6.613 7.662v.07h26.451v-.013c3.688-.216 6.613-3.309 6.613-7.093 0-3.649-2.72-6.655-6.222-7.06.014-.222.022-.447.022-.673 0-5.655-4.719-10.239-10.539-10.239-4.308 0-8.01 2.512-9.647 6.11" fill="url(#0)" transform="matrix(1.41137 0 0 1.41137 320.53-578.44)"/><g transform="matrix(.66147 0 0 .66147 1114.42 325.53)"><path d="m-540.59-188.6l-3.478 3.36c-.732.711-1.084 1.784-.825 2.847.389 1.599 2 2.58 3.599 2.191 1.599-.389 2.58-2 2.191-3.599l-1.143-4.699c-.038-.155-.23-.211-.345-.1" fill="url(#2)"/><path d="m-520.38-178.73l-2.745 3.981c-.577.842-.71 1.963-.246 2.954.697 1.491 2.471 2.134 3.962 1.436 1.491-.697 2.134-2.471 1.437-3.962l-2.049-4.38c-.068-.145-.267-.161-.358-.03" fill="url(#3)"/><path d="m-502.72-190.39l-2.619 4.065c-.551.86-.648 1.984-.153 2.96.744 1.468 2.536 2.055 4 1.312 1.468-.744 2.055-2.536 1.312-4l-2.185-4.314c-.072-.143-.272-.153-.358-.019" fill="url(#4)"/><path d="m-527.91-172.83l-2.745 3.981c-.577.842-.71 1.963-.246 2.954.697 1.491 2.471 2.134 3.962 1.436 1.491-.697 2.134-2.471 1.437-3.962l-2.049-4.38c-.068-.145-.267-.161-.358-.03" fill="url(#5)"/><path d="m-527.1-189.11l-2.745 3.981c-.577.842-.71 1.963-.246 2.954.697 1.491 2.471 2.134 3.962 1.436 1.491-.697 2.134-2.471 1.437-3.962l-2.049-4.38c-.068-.145-.267-.161-.358-.03" fill="url(#6)"/><path d="m-538.48-175.91l-1.902 2.776c-.4.587-.492 1.369-.17 2.06.483 1.04 1.712 1.488 2.744 1 1.033-.486 1.478-1.723.995-2.763l-1.419-3.055c-.047-.101-.185-.112-.248-.021" fill="url(#7)"/><path d="m-507.35-179.17l-1.902 2.776c-.4.587-.492 1.369-.17 2.06.483 1.04 1.712 1.488 2.744 1 1.033-.486 1.478-1.723.995-2.763l-1.419-3.055c-.047-.101-.185-.112-.248-.021" fill="url(#8)"/><path d="m-512.64-189.14l-1.902 2.776c-.4.587-.492 1.369-.17 2.06.483 1.04 1.712 1.488 2.744 1 1.033-.486 1.478-1.723.995-2.763l-1.419-3.055c-.047-.101-.185-.112-.248-.021" fill="url(#9)"/></g></g></svg>