<svg xmlns="http://www.w3.org/2000/svg" xmlns:xlink="http://www.w3.org/1999/xlink" viewBox="0 0 64 64"><defs><linearGradient gradientUnits="userSpaceOnUse" y2="-328.04" x2="-459.26" y1="-321.29" x1="-460.94" id="9" xlink:href="#7"/><linearGradient gradientUnits="userSpaceOnUse" y2="-326.68" x2="-476.4" y1="-320" x1="-478.33" id="6" xlink:href="#7"/><linearGradient xlink:href="#7" id="8" gradientUnits="userSpaceOnUse" x1="-469.92" y1="-312.27" x2="-468.49" y2="-319.08"/><linearGradient id="7"><stop stop-color="#add4e9"/><stop offset="1" stop-color="#f0fbfe"/></linearGradient><linearGradient id="5" gradientUnits="userSpaceOnUse" gradientTransform="matrix(2.07793 0 0 2.08909-503.11-599.88)" x1="395.48" y1="551.32" x2="395.24" y2="535.55"><stop stop-color="#b7d7e1"/><stop offset="1" stop-color="#fff"/></linearGradient><linearGradient gradientUnits="userSpaceOnUse" y2="-16.683" x2="95.62" y1="320.21" x1="151.76" id="0"><stop stop-color="#92ccff"/><stop offset="1" stop-color="#e5f9fd"/></linearGradient><linearGradient gradientUnits="userSpaceOnUse" y2="5.526" x2="18.17" y1="8.935" x1="21.58" id="4" xlink:href="#2"/><linearGradient gradientUnits="userSpaceOnUse" y2="2.117" x2="0" y1="8.935" id="1" xlink:href="#2"/><linearGradient gradientUnits="userSpaceOnUse" y2="8.935" x2="0" y1="15.753" id="3" xlink:href="#2"/><linearGradient id="2"><stop stop-color="#ff9300"/><stop offset="1" stop-color="#ffd702"/></linearGradient></defs><g transform="matrix(.5678 0 0 .5678 519.93 184.15)"><g transform="matrix(.92857 0 0 .92857-1579.45-464.12)"><path d="m153.7 292.14c-84.75 0-153.7-68.953-153.7-153.7 0-58.697 32.675-111.44 85.28-137.63 2.369-1.174 5.215-.718 7.08 1.144 1.864 1.864 2.345 4.711 1.183 7.07-9.599 19.502-14.463 40.471-14.463 62.3 0 77.972 63.43 141.41 141.4 141.41 22.08 0 43.25-4.978 62.942-14.777 2.366-1.177 5.213-.721 7.07 1.141 1.873 1.867 2.342 4.714 1.177 7.07-26.06 53.02-78.927 85.964-137.97 85.964" fill="url(#0)" transform="matrix(-.1918 0 0 .1918 791.5 161.9)"/><g transform="matrix(-1.57949 0 0 1.57949 774.94 166.13)"><path fill="url(#1)" d="m6.977 4.988l2.286.762 1.214 3.238 1.213-3.238 2.287-.762-2.286-.762-1.214-3.238-1.214 3.238z"/><path fill="url(#3)" d="m17.977 12.988l-2.286-.762-1.214-3.238-1.214 3.238-2.286.762 2.286.762 1.214 3.238 1.214-3.238z"/><path fill="url(#4)" d="m20.344 7.559l1.633-.571-1.633-.571-.867-2.429-.867 2.429-1.633.571 1.633.571.867 2.429z"/></g></g><g transform="matrix(1.52397 0 0 1.52397-144.77 252.77)"><path d="m311.11 530.14c-.874-.686-1.973-1.095-3.165-1.095-2.808 0-5.093 2.265-5.165 5.087-2.898 1.099-4.961 3.927-4.961 7.241 0 3.916 2.879 7.151 6.613 7.662v.07h26.451v-.013c3.688-.216 6.613-3.309 6.613-7.093 0-3.649-2.72-6.655-6.222-7.06.014-.222.022-.447.022-.673 0-5.655-4.719-10.239-10.539-10.239-4.308 0-8.01 2.512-9.647 6.11" fill="url(#5)" transform="matrix(1.08334 0 0 1.08334-810.1-925.74)"/><path d="m-475.82-327.78l-3.478 3.36c-.732.711-1.084 1.784-.825 2.847.389 1.599 2 2.58 3.599 2.191 1.599-.389 2.58-2 2.191-3.599l-1.143-4.699c-.038-.155-.23-.211-.345-.1" fill="url(#6)"/><path d="m-468-320.22l-3.213 3.614c-.676.765-.945 1.861-.607 2.902.509 1.565 2.191 2.421 3.755 1.912 1.565-.509 2.421-2.19 1.912-3.755l-1.496-4.599c-.049-.152-.245-.193-.351-.073" fill="url(#8)"/><path d="m-458.73-329.16l-3.345 3.493c-.704.739-1.014 1.824-.714 2.877.451 1.583 2.099 2.5 3.682 2.05 1.583-.451 2.5-2.099 2.05-3.682l-1.325-4.651c-.044-.154-.238-.202-.348-.086" fill="url(#9)"/></g></g></svg>