<svg xmlns="http://www.w3.org/2000/svg" xmlns:xlink="http://www.w3.org/1999/xlink" viewBox="0 0 64 64"><defs><linearGradient gradientUnits="userSpaceOnUse" y2="-319.08" x2="-468.49" y1="-312.27" x1="-469.92" id="4" xlink:href="#3"/><linearGradient gradientUnits="userSpaceOnUse" y2="-328.04" x2="-459.26" y1="-321.29" x1="-460.94" id="5" xlink:href="#3"/><linearGradient id="3"><stop stop-color="#add4e9"/><stop offset="1" stop-color="#f0fbfe"/></linearGradient><linearGradient gradientTransform="matrix(2.07793 0 0 2.08909-503.11-599.88)" id="1" gradientUnits="userSpaceOnUse" x1="395.48" y1="551.32" x2="395.24" y2="535.55"><stop stop-color="#b7d7e1"/><stop offset="1" stop-color="#fff"/></linearGradient><linearGradient y2="511.03" x2="304.72" y1="541.42" x1="305.68" gradientUnits="userSpaceOnUse" id="0"><stop stop-color="#ff9300"/><stop offset="1" stop-color="#ffd702"/></linearGradient><linearGradient gradientUnits="userSpaceOnUse" y2="-326.68" x2="-476.4" y1="-320" x1="-478.33" id="2" xlink:href="#3"/></defs><g transform="matrix(.85235 0 0 .85399 433.01 324.15)"><g transform="matrix(1.08334 0 0 1.08334-810.1-925.74)"><circle cx="305.38" cy="526.52" r="15.881" fill="url(#0)"/><path d="m311.11 530.14c-.874-.686-1.973-1.095-3.165-1.095-2.808 0-5.093 2.265-5.165 5.087-2.898 1.099-4.961 3.927-4.961 7.241 0 3.916 2.879 7.151 6.613 7.662v.07h26.451v-.013c3.688-.216 6.613-3.309 6.613-7.093 0-3.649-2.72-6.655-6.222-7.06.014-.222.022-.447.022-.673 0-5.655-4.719-10.239-10.539-10.239-4.308 0-8.01 2.512-9.647 6.11" fill="url(#1)"/></g><g><path d="m-475.82-327.78l-3.478 3.36c-.732.711-1.084 1.784-.825 2.847.389 1.599 2 2.58 3.599 2.191 1.599-.389 2.58-2 2.191-3.599l-1.143-4.699c-.038-.155-.23-.211-.345-.1" fill="url(#2)"/><path d="m-468-320.22l-3.213 3.614c-.676.765-.945 1.861-.607 2.902.509 1.565 2.191 2.421 3.755 1.912 1.565-.509 2.421-2.19 1.912-3.755l-1.496-4.599c-.049-.152-.245-.193-.351-.073" fill="url(#4)"/><path d="m-458.73-329.16l-3.345 3.493c-.704.739-1.014 1.824-.714 2.877.451 1.583 2.099 2.5 3.682 2.05 1.583-.451 2.5-2.099 2.05-3.682l-1.325-4.651c-.044-.154-.238-.202-.348-.086" fill="url(#5)"/></g></g></svg>