<svg xmlns="http://www.w3.org/2000/svg" xmlns:xlink="http://www.w3.org/1999/xlink" viewBox="0 0 64 64"><defs><linearGradient xlink:href="#1" id="3" y1="8.935" x2="0" y2="2.117" gradientUnits="userSpaceOnUse"/><linearGradient xlink:href="#1" id="4" y1="15.753" x2="0" y2="8.935" gradientUnits="userSpaceOnUse"/><linearGradient xlink:href="#1" id="2" x1="21.58" y1="8.935" x2="18.17" y2="5.526" gradientUnits="userSpaceOnUse"/><linearGradient id="0" x1="151.76" y1="320.21" x2="95.62" y2="-16.683" gradientUnits="userSpaceOnUse"><stop stop-color="#92ccff"/><stop offset="1" stop-color="#e5f9fd"/></linearGradient><linearGradient id="1"><stop stop-color="#ff9300"/><stop offset="1" stop-color="#ffd702"/></linearGradient></defs><g transform="matrix(.92857 0 0 .92857-676.94-144.37)"><path d="m153.7 292.14c-84.75 0-153.7-68.953-153.7-153.7 0-58.697 32.675-111.44 85.28-137.63 2.369-1.174 5.215-.718 7.08 1.144 1.864 1.864 2.345 4.711 1.183 7.07-9.599 19.502-14.463 40.471-14.463 62.3 0 77.972 63.43 141.41 141.4 141.41 22.08 0 43.25-4.978 62.942-14.777 2.366-1.177 5.213-.721 7.07 1.141 1.873 1.867 2.342 4.714 1.177 7.07-26.06 53.02-78.927 85.964-137.97 85.964" fill="url(#0)" transform="matrix(-.1918 0 0 .1918 791.5 161.9)"/><g transform="matrix(-1.57949 0 0 1.57949 774.94 166.13)"><path fill="url(#3)" d="m11.691 4.226l-1.214-3.238-1.214 3.238-2.286.762 2.286.762 1.214 3.238 1.213-3.238 2.287-.762z"/><path fill="url(#4)" d="m13.263 13.75l1.214 3.238 1.214-3.238 2.286-.762-2.286-.762-1.214-3.238-1.214 3.238-2.286.762z"/><path fill="url(#2)" d="m16.977 6.988l1.633.571.867 2.429.867-2.429 1.633-.571-1.633-.571-.867-2.429-.867 2.429z"/></g></g></svg>