<svg xmlns="http://www.w3.org/2000/svg" xmlns:xlink="http://www.w3.org/1999/xlink" viewBox="0 0 64 64"><defs><linearGradient xlink:href="#1" id="9" gradientUnits="userSpaceOnUse" x1="-507.77" y1="-173.24" x2="-507.37" y2="-177.8"/><linearGradient xlink:href="#1" id="6" gradientUnits="userSpaceOnUse" x1="-528.19" y1="-163.98" x2="-527.6" y2="-170.72"/><linearGradient xlink:href="#1" id="8" gradientUnits="userSpaceOnUse" x1="-512.8" y1="-185.53" x2="-512.4" y2="-190.09"/><linearGradient xlink:href="#1" id="7" gradientUnits="userSpaceOnUse" x1="-538.68" y1="-169.54" x2="-538.29" y2="-174.1"/><linearGradient xlink:href="#1" id="5" gradientUnits="userSpaceOnUse" x1="-528.01" y1="-179.91" x2="-527.26" y2="-188.48"/><linearGradient gradientTransform="matrix(2.07793 0 0 2.08909-503.11-599.88)" id="0" gradientUnits="userSpaceOnUse" x1="395.72" y1="557.23" x2="395.48" y2="541.46"><stop stop-color="#b7d7e1"/><stop offset="1" stop-color="#fff"/></linearGradient><linearGradient gradientUnits="userSpaceOnUse" y2="209.47" x2="0" y1="215.93" id="4" xlink:href="#1"/><linearGradient id="1"><stop stop-color="#add4e9"/><stop offset="1" stop-color="#f0fbfe"/></linearGradient><linearGradient gradientUnits="userSpaceOnUse" y2="214.93" x2="0" y1="221.39" id="3" xlink:href="#1"/><linearGradient gradientUnits="userSpaceOnUse" y2="208.15" x2="0" y1="214.61" id="2" xlink:href="#1"/></defs><g transform="matrix(.92857 0 0 .92857-681.94-144.37)"><path d="m311.11 530.14c-.874-.686-1.973-1.095-3.165-1.095-2.808 0-5.093 2.265-5.165 5.087-2.898 1.099-4.961 3.927-4.961 7.241 0 3.916 2.879 7.151 6.613 7.662v.07h26.451v-.013c3.688-.216 6.613-3.309 6.613-7.093 0-3.649-2.72-6.655-6.222-7.06.014-.222.022-.447.022-.673 0-5.655-4.719-10.239-10.539-10.239-4.308 0-8.01 2.512-9.647 6.11" fill="url(#0)" transform="matrix(1.41139 0 0 1.41139 320.53-576.54)"/><g transform="translate(47.608-4.184)"><circle transform="translate(5.385)" cx="729.08" cy="211.38" r="3.231" fill="url(#2)"/><circle transform="translate(5.385)" cx="717" cy="218.16" r="3.231" fill="url(#3)"/><circle transform="translate(5.385)" cx="702.65" cy="212.7" r="3.231" fill="url(#4)"/><g transform="matrix(.66147 0 0 .66147 1066.97 333.77)"><ellipse ry="4.284" rx="4.377" cy="-184.76" cx="-527.54" fill="url(#5)"/><ellipse ry="3.372" rx="3.446" cy="-167.79" cx="-527.82" fill="url(#6)"/><ellipse ry="2.279" rx="2.328" cy="-172.11" cx="-538.44" fill="url(#7)"/><ellipse ry="2.279" rx="2.328" cy="-188.11" cx="-512.55" fill="url(#8)"/><ellipse ry="2.279" rx="2.328" cy="-175.82" cx="-507.52" fill="url(#9)"/></g></g></g></svg>