<svg xmlns="http://www.w3.org/2000/svg" xmlns:xlink="http://www.w3.org/1999/xlink" viewBox="0 0 64 64"><defs><linearGradient gradientUnits="userSpaceOnUse" y2="-190.09" x2="-512.4" y1="-185.53" x1="-512.8" id="8" xlink:href="#1"/><linearGradient gradientUnits="userSpaceOnUse" y2="-177.8" x2="-507.37" y1="-173.24" x1="-507.77" id="9" xlink:href="#1"/><linearGradient id="E" gradientUnits="userSpaceOnUse" gradientTransform="matrix(2.07793 0 0 2.08909-503.11-599.88)" x1="395.48" y1="551.32" x2="395.24" y2="535.55"><stop stop-color="#b7d7e1"/><stop offset="1" stop-color="#fff"/></linearGradient><linearGradient id="A" x1="151.76" y1="320.21" x2="95.62" y2="-16.683" gradientUnits="userSpaceOnUse"><stop stop-color="#92ccff"/><stop offset="1" stop-color="#e5f9fd"/></linearGradient><linearGradient xlink:href="#0" id="C" y1="15.753" x2="0" y2="8.935" gradientUnits="userSpaceOnUse"/><linearGradient xlink:href="#0" id="D" x1="21.58" y1="8.935" x2="18.17" y2="5.526" gradientUnits="userSpaceOnUse"/><linearGradient xlink:href="#0" id="B" y1="8.935" x2="0" y2="2.117" gradientUnits="userSpaceOnUse"/><linearGradient gradientUnits="userSpaceOnUse" y2="-174.1" x2="-538.29" y1="-169.54" x1="-538.68" id="7" xlink:href="#1"/><linearGradient id="0"><stop stop-color="#ff9300"/><stop offset="1" stop-color="#ffd702"/></linearGradient><linearGradient id="1"><stop stop-color="#add4e9"/><stop offset="1" stop-color="#f0fbfe"/></linearGradient><linearGradient gradientUnits="userSpaceOnUse" y2="-170.72" x2="-527.6" y1="-163.98" x1="-528.19" id="6" xlink:href="#1"/><linearGradient xlink:href="#1" id="2" y1="214.61" x2="0" y2="208.15" gradientUnits="userSpaceOnUse"/><linearGradient xlink:href="#1" id="4" y1="215.93" x2="0" y2="209.47" gradientUnits="userSpaceOnUse"/><linearGradient gradientUnits="userSpaceOnUse" y2="-188.48" x2="-527.26" y1="-179.91" x1="-528.01" id="5" xlink:href="#1"/><linearGradient xlink:href="#1" id="3" y1="221.39" x2="0" y2="214.93" gradientUnits="userSpaceOnUse"/></defs><g transform="translate(-736.86-157.93)"><g transform="matrix(.92857 0 0 .92857 102.47 7.91)"><circle r="3.231" cy="211.38" cx="729.08" transform="translate(5.385)" fill="url(#2)"/><circle r="3.231" cy="218.16" cx="717" transform="translate(5.385)" fill="url(#3)"/><circle r="3.231" cy="212.7" cx="702.65" transform="translate(5.385)" fill="url(#4)"/><g transform="matrix(.66147 0 0 .66147 1066.97 333.77)"><ellipse cx="-527.54" cy="-184.76" rx="4.377" ry="4.284" fill="url(#5)"/><ellipse cx="-527.82" cy="-167.79" rx="3.446" ry="3.372" fill="url(#6)"/><ellipse cx="-538.44" cy="-172.11" rx="2.328" ry="2.279" fill="url(#7)"/><ellipse cx="-512.55" cy="-188.11" rx="2.328" ry="2.279" fill="url(#8)"/><ellipse cx="-507.52" cy="-175.82" rx="2.328" ry="2.279" fill="url(#9)"/></g></g><g transform="matrix(.5678 0 0 .5678 1258.2 342.61)"><g transform="matrix(.92857 0 0 .92857-1579.45-464.12)"><path d="m153.7 292.14c-84.75 0-153.7-68.953-153.7-153.7 0-58.697 32.675-111.44 85.28-137.63 2.369-1.174 5.215-.718 7.08 1.144 1.864 1.864 2.345 4.711 1.183 7.07-9.599 19.502-14.463 40.471-14.463 62.3 0 77.972 63.43 141.41 141.4 141.41 22.08 0 43.25-4.978 62.942-14.777 2.366-1.177 5.213-.721 7.07 1.141 1.873 1.867 2.342 4.714 1.177 7.07-26.06 53.02-78.927 85.964-137.97 85.964" fill="url(#A)" transform="matrix(-.1918 0 0 .1918 791.5 161.9)"/><g transform="matrix(-1.57949 0 0 1.57949 774.94 166.13)"><path fill="url(#B)" d="m13.977 4.988l-2.286-.762-1.214-3.238-1.214 3.238-2.286.762 2.286.762 1.214 3.238 1.213-3.238z"/><path fill="url(#C)" d="m10.977 12.988l2.286.762 1.214 3.238 1.214-3.238 2.286-.762-2.286-.762-1.214-3.238-1.214 3.238z"/><path fill="url(#D)" d="m18.61 6.417l-1.633.571 1.633.571.867 2.429.867-2.429 1.633-.571-1.633-.571-.867-2.429z"/></g></g><path d="m311.11 530.14c-.874-.686-1.973-1.095-3.165-1.095-2.808 0-5.093 2.265-5.165 5.087-2.898 1.099-4.961 3.927-4.961 7.241 0 3.916 2.879 7.151 6.613 7.662v.07h26.451v-.013c3.688-.216 6.613-3.309 6.613-7.093 0-3.649-2.72-6.655-6.222-7.06.014-.222.022-.447.022-.673 0-5.655-4.719-10.239-10.539-10.239-4.308 0-8.01 2.512-9.647 6.11" fill="url(#E)" transform="matrix(1.65098 0 0 1.65098-1379.33-1158.02)"/></g></g></svg>