<svg xmlns="http://www.w3.org/2000/svg" xmlns:xlink="http://www.w3.org/1999/xlink" viewBox="0 0 22 22"><defs><path d="m69.63 12.145h-.052c-22.727-.292-46.47 4.077-46.709 4.122-2.424.451-4.946 2.974-5.397 5.397-.044.237-4.414 23.983-4.122 46.71-.292 22.777 4.078 46.523 4.122 46.761.451 2.423 2.974 4.945 5.398 5.398.237.044 23.982 4.413 46.709 4.121 22.779.292 46.524-4.077 46.761-4.121 2.423-.452 4.946-2.976 5.398-5.399.044-.236 4.413-23.981 4.121-46.709.292-22.777-4.077-46.523-4.121-46.761-.453-2.423-2.976-4.946-5.398-5.397-.238-.045-23.984-4.414-46.71-4.122" id="0"/><clipPath><use xlink:href="#0"/></clipPath></defs><g transform="matrix(.03527 0 0 .03527 2.636 15.15)" fill="#fff" stroke="none" stroke-opacity=".8"><path d="m272.47-343.97l-75.37 7.247v310.48l74.56-11.273v-132.37l100.33 146.87 78.59-24.961-102.74-141.23 103.55-133.18-80.2-18.358-99.52 133.18.805-136.4m-170.86 75.69c-.852.088-1.774.323-2.416.966l-29.631 29.631c-1.244 1.248-1.397 3.159-.483 4.67l34.623 57.17c-6.148 10.335-11.14 21.421-14.654 33.17l-63.61 13.205c-1.77.366-3.06 2.051-3.06 3.865v41.87c0 1.77 1.346 3.286 3.06 3.704l61.677 14.977c3.298 13.607 8.393 26.628 15.14 38.488l-35.75 54.43c-.997 1.52-.803 3.548.483 4.831l29.631 29.631c1.248 1.244 3.163 1.4 4.67.483l56.04-33.979c10.992 6.346 22.892 11.43 35.428 14.815l13.04 62.805c.366 1.775 1.891 3.06 3.704 3.06h41.87c1.757 0 3.286-1.18 3.704-2.899l15.46-63.13c12.929-3.486 25.12-8.661 36.39-15.299l55.24 36.23c1.523.992 3.54.8 4.831-.483l29.47-29.631c1.252-1.25 1.561-3.163.644-4.67l-20.13-33.17-6.603 2.093c-.953.294-2.01-.137-2.577-.966 0 0-12.716-18.705-29.31-42.997-19.845 38.832-60.32 65.38-106.93 65.38-66.24 0-119.97-53.737-119.97-119.97 0-48.722 29.14-90.57 70.857-109.34v-30.919c-7.593 2.658-14.929 5.864-21.901 9.662-.013-.008.013-.153 0-.161l-56.52-37.04c-.76-.497-1.563-.571-2.416-.483"/></g></svg>