<svg xmlns="http://www.w3.org/2000/svg" viewBox="0 0 22 22"><path d="M11 3A8 8 0 0 0 3 11 8 8 0 0 0 11 19 8 8 0 0 0 19 11 8 8 0 0 0 11 3M10.996 5.221C11.731 5.221 12.326 5.818 12.326 6.555 12.326 7.291 11.731 7.887 10.996 7.887 10.261 7.887 9.664 7.291 9.664 6.555 9.664 5.818 10.261 5.221 10.996 5.221M10.996 9.03C11.731 9.03 12.326 9.627 12.326 10.363 12.326 11.1 11.731 11.695 10.996 11.695 10.261 11.695 9.664 11.1 9.664 10.363 9.664 9.627 10.261 9.03 10.996 9.03M7.238 11.06C7.445 11.06 7.653 11.141 7.811 11.299L11 14.824 14.189 11.299C14.505 10.982 15.02 10.982 15.334 11.299 15.649 11.615 15.649 12.13 15.334 12.443L11.623 16.545C11.452 16.716 11.223 16.791 11 16.777 10.776 16.791 10.55 16.716 10.379 16.545L6.668 12.443C6.352 12.13 6.352 11.615 6.668 11.299 6.826 11.141 7.03 11.06 7.238 11.06" fill="#fff"/></svg>