<svg xmlns="http://www.w3.org/2000/svg" viewBox="0 0 22 22"><defs><clipPath><path d="m489.22 197.28c-2.603 0-3.953-1.367-3.953-3.971v-1.034c0-2.604 1.35-3.971 3.953-3.971h1.035c2.62 0 3.97 1.367 3.97 3.971v1.034c0 2.604-1.35 3.971-3.97 3.971h-1.035"/></clipPath><linearGradient x2="412.17" x1="404.33" gradientUnits="userSpaceOnUse"><stop/><stop offset="1" stop-opacity="0"/></linearGradient><linearGradient id="0" x1="3.365" y1="1046.22" x2="36.07" y2="1007.72" gradientUnits="userSpaceOnUse"><stop stop-color="#235ea2"/><stop offset="1" stop-color="#1992f1"/></linearGradient></defs><g transform="matrix(.72072 0 0 .72728 28.654-8.782)" stroke="#1f2a47"><path d="M10.927734 3.01367A7.927914 7.999981 0 0 0 3 11.01367 7.927914 7.999981 0 0 0 10.927734 19.01367 7.927914 7.999981 0 0 0 18.855469 11.01367 7.927914 7.999981 0 0 0 10.927734 3.01367M11.787 6.529V7.73C10.256 7.73 8.825 8.326 7.758 9.404 6.696 10.477 6.115 11.911 6.117 13.441 6.122 16.244 7.793 18.325 10.346 18.762 9.897 18.642 9.47 18.436 9.1 18.11 6.62 16.385 5.86 13.303 7.291 10.779 7.972 9.578 9.103 8.711 10.473 8.338 11.868 7.958 13.315 8.145 14.549 8.863L13.953 9.904C12.996 9.347 11.87 9.203 10.781 9.5 9.72 9.788 8.85 10.456 8.326 11.377 7.209 13.345 7.817 15.758 9.773 17.12 12.193 18.792 13.9 18.307 14.635 17.949 13.789 18.1 13.12 18.13 11.281 17.447 9.705 16.868 8.987 15.777 8.801 15.453 8.799 15.451 8.781 15.419 8.773 15.404 8.768 15.395 8.76 15.385 8.76 15.385H8.762C8.758 15.378 8.748 15.359 8.748 15.357L8.752 15.354C8.453 14.793 8.303 14.187 8.303 13.586 8.303 12.29 8.969 11.03 10.158 10.336 11.02 9.837 12.02 9.704 12.975 9.963 13.932 10.223 14.732 10.842 15.227 11.709L15.246 11.744 14.195 12.309C13.858 11.721 13.315 11.299 12.666 11.123 12.02 10.948 11.335 11.04 10.752 11.377 9.945 11.849 9.494 12.705 9.494 13.584 9.494 14.01 9.604 14.452 9.832 14.852 9.832 14.853 9.834 14.857 9.834 14.857 9.929 15.03 10.449 15.862 11.689 16.318 13.749 17.08 15.197 16.991 16.219 16.879 16.219 16.879 15.698 17.378 14.727 17.938 14.721 17.938 14.716 17.938 14.711 17.939 14.02 18.362 12.677 18.891 11.338 18.875L11.322 18.889C7.8 19.07 4.933 17.308 4.928 13.443 4.924 11.591 5.63 9.856 6.916 8.555 8.209 7.248 9.937 6.529 11.787 6.529M11.338 18.875L11.365 18.852C11.01 18.852 10.672 18.818 10.346 18.762 10.668 18.848 11 18.871 11.338 18.875M14.711 17.939C14.839 17.861 14.959 17.784 15.04 17.719 15.02 17.723 14.886 17.828 14.643 17.947 14.666 17.943 14.688 17.944 14.711 17.939" transform="matrix(1.38749 0 0 1.37499-39.762 12.03)" fill="#fff" stroke-width="1.3" stroke="none"/><ellipse ry="10.746" rx="10.846" cx="-24.492" cy="27.14" fill="none" stroke="#fff" stroke-width=".507"/></g></svg>