<svg xmlns="http://www.w3.org/2000/svg" viewBox="0 0 22 22"><defs><clipPath><path fill="#f2f2f2" d="m7 1023.36h1v1h-1z"/></clipPath><clipPath><path d="m69.63 12.145h-.052c-22.727-.292-46.47 4.077-46.709 4.122-2.424.451-4.946 2.974-5.397 5.397-.044.237-4.414 23.983-4.122 46.71-.292 22.777 4.078 46.523 4.122 46.761.451 2.423 2.974 4.945 5.398 5.398.237.044 23.982 4.413 46.709 4.121 22.779.292 46.524-4.077 46.761-4.121 2.423-.452 4.946-2.976 5.398-5.399.044-.236 4.413-23.981 4.121-46.709.292-22.777-4.077-46.523-4.121-46.761-.453-2.423-2.976-4.946-5.398-5.397-.238-.045-23.984-4.414-46.71-4.122"/></clipPath></defs><path d="m4.6 3c-.443 0-.799.358-.799.801v14.398c0 .443.356.801.799.801h12.801c.443 0 .799-.358.799-.801v-14.398c0-.443-.356-.801-.799-.801h-12.801m6.4 4c.96 0 1.757.282 2.391.844.633.562.951 1.353.951 2.375v4.535h-1.35v-1.041h-.061c-.562.858-1.386 1.287-2.469 1.287-.797 0-1.466-.23-2.01-.689-.531-.46-.797-1.068-.797-1.824 0-.817.318-1.456.951-1.916.633-.47 1.414-.705 2.344-.705.828 0 1.508.154 2.039.461v-.215c0-.552-.188-.991-.566-1.318-.378-.337-.843-.506-1.395-.506-.409 0-.782.097-1.119.291-.327.194-.551.46-.674.797l-1.289-.551c.174-.45.516-.864 1.027-1.242.511-.388 1.186-.582 2.023-.582m.199 4.03c-.685 0-1.201.147-1.549.443-.347.296-.52.644-.52 1.043 0 .368.158.659.475.873.317.215.679.322 1.088.322.582 0 1.108-.215 1.578-.645.48-.439.721-.954.721-1.547-.398-.327-.996-.49-1.793-.49" transform="translate(-.006-.032)" stroke-opacity=".55" fill="#fff" stroke-width="2.8" stroke="none"/></svg>