<svg xmlns="http://www.w3.org/2000/svg" viewBox="0 0 22 22"><defs><linearGradient gradientUnits="userSpaceOnUse" y2="517.8" x2="0" y1="545.8"><stop stop-color="#3889e9"/><stop offset="1" stop-color="#5ea5fb"/></linearGradient></defs><g transform="matrix(.56987 0 0 .56987-217.28-292.08)"><circle cx="400.57" cy="531.8" r="14" fill="#5ea5fb" fill-opacity="0" transform="translate(.024.076)"/><path d="m400.58 517.8c-.585 0-1.09.213-1.517.64-.427.427-.64.932-.64 1.517v10.799c0 .585.213 1.09.64 1.517.427.428.932.646 1.517.646.585 0 1.095-.218 1.522-.646.427-.427.64-.932.64-1.517v-10.799c0-.585-.213-1.09-.64-1.517-.427-.428-.937-.64-1.522-.64m-6.163 4.352c-.591-.079-1.128.06-1.612.42-1.643 1.226-2.916 2.746-3.822 4.557-.906 1.811-1.36 3.743-1.36 5.791 0 1.755.343 3.427 1.029 5.02.686 1.597 1.608 2.978 2.767 4.137 1.159 1.159 2.539 2.081 4.137 2.767 1.597.686 3.275 1.029 5.03 1.029 1.755 0 3.427-.343 5.02-1.029 1.597-.686 2.978-1.608 4.137-2.767 1.159-1.159 2.08-2.539 2.767-4.137.686-1.597 1.029-3.269 1.029-5.02 0-2.047-.454-3.979-1.36-5.791-.906-1.811-2.18-3.331-3.822-4.557-.472-.36-1-.499-1.601-.42-.596.079-1.069.362-1.417.845-.36.472-.499 1-.415 1.591.084.591.362 1.068.835 1.428 1.102.832 1.955 1.852 2.557 3.055.602 1.204.903 2.487.903 3.848 0 1.17-.227 2.286-.682 3.349-.456 1.063-1.072 1.98-1.848 2.756-.776.776-1.693 1.392-2.756 1.848-1.063.456-2.179.682-3.349.682-1.17 0-2.286-.227-3.349-.682-1.063-.456-1.985-1.072-2.761-1.848-.776-.776-1.392-1.693-1.848-2.756-.456-1.063-.682-2.179-.682-3.349 0-1.361.301-2.644.903-3.848.602-1.204 1.454-2.223 2.557-3.055.472-.36.75-.837.835-1.428.084-.59-.055-1.118-.415-1.591-.349-.484-.816-.767-1.407-.845" fill="#fff" fill-rule="evenodd"/></g></svg>