<svg xmlns="http://www.w3.org/2000/svg" viewBox="0 0 22 22"><defs><linearGradient gradientUnits="userSpaceOnUse" y2="517.8" x2="0" y1="545.8"><stop stop-color="#3889e9"/><stop offset="1" stop-color="#5ea5fb"/></linearGradient></defs><circle cx="400.57" cy="531.8" r="14" fill="#5ea5fb" fill-opacity="0" transform="matrix(.56987 0 0 .56987-217.27-292.04)"/><path d="m292.44 180.9c5.664 0 10.57-2.068 14.705-6.209 4.14-4.138 6.213-9.04 6.213-14.705v-104.58c0-5.666-2.072-10.568-6.213-14.705-4.136-4.142-9.04-6.211-14.705-6.211-5.666 0-10.568 2.072-14.707 6.211-4.14 4.138-6.209 9.04-6.209 14.705v104.58c0 5.664 2.07 10.568 6.209 14.705 4.14 4.142 9.04 6.209 14.707 6.209" fill="#fff" transform="matrix(.10928 0 0 .10928-20.96-.774)"/></svg>