<svg xmlns="http://www.w3.org/2000/svg" viewBox="0 0 22 22"><defs><linearGradient gradientUnits="userSpaceOnUse" y2="517.8" x2="0" y1="545.8"><stop stop-color="#3889e9"/><stop offset="1" stop-color="#5ea5fb"/></linearGradient></defs><circle cx="400.57" cy="531.8" r="14" fill="#5ea5fb" fill-opacity="0" transform="matrix(.53426 0 0 .53426-203-273.1)"/><path d="m12.2 15.267c0-3.322.896-6.43 2.448-9.113.376-.649-.191-1.451-.918-1.265-8.38 2.152-14.441 10.07-13.663 19.29.736 8.701 7.768 15.803 16.463 16.617 6.03.565 11.517-1.811 15.221-5.848.5-.546.073-1.432-.666-1.401-.196.009-.395.013-.594.013-10.1 0-18.291-8.189-18.291-18.293" fill="#fff" transform="matrix(.44425 0 0 .44425 3.914.845)"/></svg>