<svg xmlns="http://www.w3.org/2000/svg" viewBox="0 0 22 22"><defs><linearGradient gradientUnits="userSpaceOnUse" y2="517.8" x2="0" y1="545.8"><stop stop-color="#3889e9"/><stop offset="1" stop-color="#5ea5fb"/></linearGradient><linearGradient gradientUnits="userSpaceOnUse" y2="-409.58" x2="291.65" y1="970.76" x1="301.25" id="0"><stop stop-color="#dbdada"/><stop offset="1" stop-color="#fff"/></linearGradient></defs><circle cx="400.57" cy="531.8" r="14" fill="#5ea5fb" fill-opacity="0" transform="matrix(.56987 0 0 .56987-217.27-292.04)"/><path d="m648.3 306.84h-69.51c-17.59 0-31.784 14.07-32.391 31.419-14.437 134.17-127.98 238.62-266.16 238.62-147.88 0-267.62-119.61-267.62-267.25 0-146.3 120.58-265.19 266.52-267.25v43.43c0 19.775 14.07 28.63 31.3 19.775l223.09-114.15c17.226-8.857 17.226-23.17 0-32.03l-223.09-113.91c-17.226-8.855-31.3 0-31.3 19.653v43.793c-219.94 2.063-400.33 180.88-400.33 400.94 0 221.39 179.66 400.94 401.42 400.94 212.06 0 385.77-164.14 400.33-372.31.121-17.469-14.558-31.663-32.27-31.663z" fill="#fff" stroke="url(#0)" stroke-width="1.586" transform="matrix(.01838 0 0 .01838 5.853 5.928)"/></svg>