<svg xmlns="http://www.w3.org/2000/svg" viewBox="0 0 16 16"><g transform="matrix(.5 0 0 .5-167.5-257.65)" fill="#1A1D20" fill-rule="evenodd"><path d="m363.98 540.15c-3.974-3.795-11.971-10.05-18.05-8.134-3.398 1.072-5.04 4.17-1.173 4.239 7.898.142 11.77-.416 19.224 3.895"/><path d="m342.16 536.15c1.285-5.337 4.619-14.919 10.773-16.589 3.438-.934 6.503.782 3.284 2.932-6.565 4.385-10.124 6.01-14.06 13.657"/><path d="m345.48 543.3c-3.523-4.215-9.234-12.604-6.903-18.53 1.302-3.311 4.51-4.741 4.317-.88-.394 7.875-1.216 11.693 2.586 19.409"/></g></svg>