<svg xmlns="http://www.w3.org/2000/svg" viewBox="0 0 16 16"><path d="m-394.85 88.29c-84.49 0-153 68.5-153 153 0 84.5 68.51 153 153 153 84.49 0 153-68.51 153-153 0-84.49-68.5-153-153-153m0 79.16c5.702 0 10.31 4.633 10.31 10.334v109.35l42.583-42.583c4.04-4.03 10.568-4.01 14.618.025 4.04 4.03 4.04 10.554 0 14.593l-58.42 58.45c-2.479 2.468-5.887 3.232-9.09 2.664-3.213.568-6.61-.186-9.09-2.665l-58.42-58.45c-4.04-4.03-4.04-10.554 0-14.593 4.03-4.04 10.554-4.04 14.593 0l42.583 42.558v-109.35c0-5.702 4.633-10.334 10.334-10.334" transform="matrix(.03922 0 0 .03922 23.481-1.462)" fill="#1A1D20"/></svg>