<svg xmlns="http://www.w3.org/2000/svg" viewBox="0 0 16 16"><path d="m403.956 532.97964a6.00013 6.00013 0 0 0 -5.99956 6.00044 6.00013 6.00013 0 0 0 5.99956 5.99956 6.00013 6.00013 0 0 0 6.00044 -5.99956 6.00013 6.00013 0 0 0 -6.00044 -6.00044m1.514 2.672c.022.0001.048.011.069.017.106.03.195.121.226.227l1.093 3.981.573-.777c.058-.086.147-.146.251-.149h.425.192.017c.013 0 .026.014.026.026v.611c0 .013-.013.017-.025.017h-.017-.192-.26l-.841 1.17c-.144.19-.503.124-.573-.105l-.997-3.545-.685 2.261c-.042.128-.177.216-.312.219h-.477-.096-.234-.086-.243l-.928 3.072c-.046.167-.243.277-.408.227-.106-.03-.195-.121-.226-.227l-1.102-3.989-.563.777c-.058.087-.157.137-.26.139h-.416-.208-.026c-.012 0-.017-.005-.017-.017v-.611c0-.013.005-.026.017-.026h.026.208.26l.841-1.152c.144-.19.502-.123.572.105l.989 3.545.693-2.27c.042-.128.17-.225.304-.227h.486.086.234.096.234l.936-3.055c.035-.125.151-.219.278-.236.021-.003.039-.009.061-.009" fill="#1A1D20" transform="translate(-395.96-530.98)"/></svg>