<svg xmlns="http://www.w3.org/2000/svg" viewBox="0 0 16 16"><g transform="matrix(.10147 0 0 .10147 3.119 2.01)" fill="#1A1D20"><path d="m86.07 0c-24.602 0-29.22 35.04-15.377 35.04 13.838 0 39.98-35.04 15.377-35.04"/><path d="m45.22 30.699c7.369.45 15.454-28.12 1.604-26.325-13.845 1.797-8.976 25.875-1.604 26.325"/><path d="m11.445 48.45c5.241-2.307.675-24.872-8.237-18.718-8.908 6.155 2.996 21.02 8.237 18.718"/><path d="m26.21 36.642c6.239-1.272 6.581-26.864-4.545-22.273-11.128 4.592-1.689 23.547 4.545 22.273"/><path d="m58.791 93.91c1.107 8.454-6.202 12.629-13.36 7.179-22.787-17.349 37.729-26 33.74-49.706-3.311-19.674-63.68-13.617-70.55 17.17-4.653 20.821 19.15 49.707 43.993 49.707 12.22 0 26.315-11.03 28.952-25.01 2.01-10.659-23.699-6.388-22.775.665"/></g></svg>