<svg xmlns="http://www.w3.org/2000/svg" viewBox="0 0 16 16"><path d="m93.23 23.522c-1.104-.507-2.408-.324-3.33.471l-18.385 15.83v-18.05c0-1.778-1.447-3.226-3.226-3.226h-65.06c-1.778 0-3.225 1.447-3.225 3.226v51.51c0 1.777 1.446 3.226 3.225 3.226h65.06c1.777 0 3.227-1.446 3.227-3.226v-18.05l18.385 15.829c.922.796 2.228.978 3.33.472 1.106-.508 1.815-1.613 1.815-2.832v-42.34c-.0001-1.218-.709-2.323-1.817-2.831" transform="matrix(.12626 0 0 .12626 1.992 1.998)" fill="#1A1D20" stroke="none" stroke-opacity=".8"/></svg>