<?xml version="1.0" encoding="UTF-8" standalone="no"?>
<svg
   xmlns:dc="http://purl.org/dc/elements/1.1/"
   xmlns:cc="http://creativecommons.org/ns#"
   xmlns:rdf="http://www.w3.org/1999/02/22-rdf-syntax-ns#"
   xmlns:svg="http://www.w3.org/2000/svg"
   xmlns="http://www.w3.org/2000/svg"
   xmlns:sodipodi="http://sodipodi.sourceforge.net/DTD/sodipodi-0.dtd"
   xmlns:inkscape="http://www.inkscape.org/namespaces/inkscape"
   viewBox="0 0 16 16"
   id="svg2"
   version="1.1"
   inkscape:version="0.91 r13725"
   sodipodi:docname="folder-gnu-linux.svg">
  <metadata
     id="metadata10">
    <rdf:RDF>
      <cc:Work
         rdf:about="">
        <dc:format>image/svg+xml</dc:format>
        <dc:type
           rdf:resource="http://purl.org/dc/dcmitype/StillImage" />
        <dc:title></dc:title>
      </cc:Work>
    </rdf:RDF>
  </metadata>
  <defs
     id="defs8" />
  <sodipodi:namedview
     pagecolor="#ffffff"
     bordercolor="#666666"
     borderopacity="1"
     objecttolerance="10"
     gridtolerance="10"
     guidetolerance="10"
     inkscape:pageopacity="0"
     inkscape:pageshadow="2"
     inkscape:window-width="1366"
     inkscape:window-height="746"
     id="namedview6"
     showgrid="false"
     inkscape:zoom="14.75"
     inkscape:cx="8"
     inkscape:cy="8"
     inkscape:window-x="0"
     inkscape:window-y="22"
     inkscape:window-maximized="1"
     inkscape:current-layer="svg2" />
  <path
     style="fill:#1A1D20;fill-opacity:1"
     d="m 7.6917295,14.19591 c -1.605967,-0.099 -3.031767,-0.7427 -4.133504,-1.8744 -0.956124,-0.9828 -1.533315,-2.1716 -1.715839,-3.5350998 -0.05518,-0.4123 -0.05518,-1.1657 0,-1.5779 0.182524,-1.3636 0.759715,-2.5528 1.715839,-3.5346 0.983242,-1.0095 2.241222,-1.64 3.652423,-1.8306 0.413302,-0.053 1.165655,-0.053 1.5789569,0 1.8260486,0.2459 3.4211466,1.2515 4.4225986,2.7884 0.502179,0.7711 0.820123,1.6371 0.945555,2.5768 0.04952,0.3708 0.05561,1.1355 0.01192,1.4916 -0.229167,1.8693998 -1.22549,3.4718998 -2.801808,4.5061998 -0.735799,0.4828 -1.6717599,0.8276 -2.5535321,0.9403 -0.3019678,0.035 -0.8775554,0.061 -1.1225664,0.045 z m 1.5172037,-0.873 c 0.2927949,-0.062 0.6491639,-0.1798 0.9376358,-0.3026 0.233982,-0.1016 0.749935,-0.3742 0.859972,-0.4582 l 0.05815,-0.041 -0.06137,-0.1455 c -0.03374,-0.084 -0.107055,-0.2468 -0.162886,-0.3702 -0.115889,-0.2562 -0.159106,-0.4448 -0.136463,-0.5955 0.009,-0.053 0.01952,-0.105 0.02409,-0.105 0.0042,0 0.0481,0.025 0.09653,0.057 0.296033,0.2007 0.90155,0.1198 1.339526,-0.1796 0.300716,-0.2058 0.646834,-0.621 0.844474,-1.0137 0.172164,-0.3425998 0.346259,-0.9743998 0.421219,-1.5289998 0.04221,-0.3129 0.0357,-1.0213 -0.01261,-1.3687 -0.166517,-1.1972 -0.698342,-2.272 -1.54357,-3.1192 -0.885364,-0.8874 -1.9466059,-1.4062 -3.2320047,-1.5796 -0.115341,-0.014 -0.4039998,-0.025 -0.6414668,-0.025 -0.237466,0 -0.526125,0.012 -0.641467,0.025 -1.209583,0.1631 -2.2648,0.6554 -3.096307,1.4445 -0.188611,0.1784 -0.182487,0.1796 0.07402,0.014 1.171034,-0.7495 2.25108,-1.099 3.138422,-1.0151 0.718978,0.062 1.2844081,0.3833 1.7470598,0.9748 0.2817538,0.3604 0.3137768,0.4633 0.3685888,1.1888 0.02024,0.268 0.05355,0.5427 0.074,0.6112 0.06916,0.2288 0.3415209,0.5934 1.1718809,1.5653 0.364072,0.4264 0.479873,0.6046 0.417978,0.6427 -0.04512,0.025 -0.05705,0.022 -0.799321,-0.2124 -1.3146503,-0.4204 -1.436141,-0.4579 -1.665345,-0.5156 -0.4105355,-0.1032 -1.1276725,-0.1946 -1.2274625,-0.1582 -0.03055,0.01 -0.12785,0.086 -0.21621,0.1566 -0.08836,0.079 -0.17161,0.1362 -0.184997,0.1362 -0.04066,0 -0.02754,-0.074 0.03734,-0.1973 0.03393,-0.062 0.06168,-0.1273 0.06168,-0.135 0,-0.01 -0.03907,-0.012 -0.08683,-0.012 -0.08093,0 -0.09077,0.01 -0.144875,0.1301 l -0.05804,0.129 -0.0172,-0.078 c -0.03981,-0.1714 -0.05546,-0.1883 -0.155629,-0.1717 -0.244793,0.037 -0.521664,0.261 -0.627745,0.4978 -0.04157,0.096 -0.053,0.1692 -0.05473,0.3646 -0.0012,0.1357 0.0066,0.296 0.01737,0.3553 0.01892,0.1072 0.01806,0.109 -0.02662,0.073 -0.06395,-0.053 -0.07152,-0.049 -0.09039,0.043 -0.01289,0.069 -0.0027,0.1147 0.04588,0.2071 l 0.06247,0.1197 -0.06652,0.02 c -0.06052,0.019 -0.06582,0.029 -0.05876,0.129 0.0055,0.081 0.03207,0.1394 0.0919,0.218 0.0972,0.1269 0.10294,0.152 0.03481,0.152 -0.08043,0 -0.05707,0.036 0.07303,0.1227 0.214853,0.1377 0.371204,0.4381 0.566796,1.0900998 0.257203,0.8565 0.448606,1.1896 0.781746,1.3601 0.232262,0.1179 0.308146,0.2375 0.403095,0.633 0.08121,0.3376 0.192931,0.4012 0.6112893,0.349 0.2494035,-0.029 0.5856228,-0.1392 1.1167813,-0.3592 0.3883339,-0.1606 0.5253349,-0.1793 0.5722379,-0.08 0.07869,0.1726 -0.198465,0.3979 -1.0410018,0.8461 -0.1560489,0.087 -0.269729,0.1508 -0.2526238,0.1511 0.017106,5e-4 0.1307366,-0.02 0.2525133,-0.044 z m -1.3884767,-2.2769 c -0.366639,-0.1365 -0.532767,-0.5212 -0.36605,-0.8485 0.110853,-0.2165998 0.304714,-0.3366998 0.545721,-0.3366998 0.346348,0 0.6026327,0.2565998 0.6026327,0.6026998 0,0.1773 -0.052421,0.3057 -0.1742407,0.4276 -0.156621,0.1569 -0.421551,0.2237 -0.608063,0.1549 z m 0.495555,-4.9883998 c 0.3882981,-0.2385 0.3960147,-0.8004 0.01431,-1.0429 -0.293495,-0.186 -0.674359,-0.097 -0.859921,0.2073 -0.06594,0.1081 -0.07474,0.1431 -0.07474,0.3083 0,0.16 0.0099,0.2033 0.0684,0.3027 0.128277,0.2185 0.32623,0.3224 0.580555,0.3064 0.116464,-0.01 0.184617,-0.025 0.27139,-0.085 z"
     id="path4966"
     inkscape:connector-curvature="0" />
</svg>
