<svg xmlns="http://www.w3.org/2000/svg" viewBox="0 0 16 16"><path d="m31.722 324.47c-54.47 15.561-98.31 77.46-98.31 137.59v953.28c-55.23-30.836-126.16-43.3-199.7-22.931-132.7 36.764-215.85 155.58-187.41 265.34 28.445 109.76 159.17 171.07 291.87 134.31 105.87-29.33 178.84-112.32 190.48-199.83l3.072-900.86 688.19-196.55v710.86c-55.23-30.836-126.16-43.3-199.7-22.93-132.7 36.764-215.85 155.58-187.41 265.34 28.445 109.76 159.17 171.07 291.87 134.31 105.87-29.33 178.84-112.32 190.48-199.83l3.072-1172.76c0-45.09-26.14-78.83-61.45-85.17l-725.06 199.83" stroke="none" transform="matrix(.007 0 0 .00693 6 1.238)" stroke-opacity=".8" fill="#1A1D20"/></svg>