<?xml version="1.0" encoding="UTF-8" standalone="no"?>
<svg
   xmlns:dc="http://purl.org/dc/elements/1.1/"
   xmlns:cc="http://creativecommons.org/ns#"
   xmlns:rdf="http://www.w3.org/1999/02/22-rdf-syntax-ns#"
   xmlns:svg="http://www.w3.org/2000/svg"
   xmlns="http://www.w3.org/2000/svg"
   xmlns:sodipodi="http://sodipodi.sourceforge.net/DTD/sodipodi-0.dtd"
   xmlns:inkscape="http://www.inkscape.org/namespaces/inkscape"
   viewBox="0 0 16 16"
   id="svg2"
   version="1.1"
   inkscape:version="0.91 r13725"
   sodipodi:docname="folder-android.svg">
  <metadata
     id="metadata10">
    <rdf:RDF>
      <cc:Work
         rdf:about="">
        <dc:format>image/svg+xml</dc:format>
        <dc:type
           rdf:resource="http://purl.org/dc/dcmitype/StillImage" />
        <dc:title></dc:title>
      </cc:Work>
    </rdf:RDF>
  </metadata>
  <defs
     id="defs8" />
  <sodipodi:namedview
     pagecolor="#ffffff"
     bordercolor="#666666"
     borderopacity="1"
     objecttolerance="10"
     gridtolerance="10"
     guidetolerance="10"
     inkscape:pageopacity="0"
     inkscape:pageshadow="2"
     inkscape:window-width="1366"
     inkscape:window-height="746"
     id="namedview6"
     showgrid="false"
     inkscape:zoom="14.75"
     inkscape:cx="8"
     inkscape:cy="8"
     inkscape:window-x="0"
     inkscape:window-y="22"
     inkscape:window-maximized="1"
     inkscape:current-layer="svg2" />
  <g
     id="g4156"
     transform="translate(0.1016862,0.16949485)">
    <path
       inkscape:connector-curvature="0"
       style="opacity:1;fill:#1A1D20;fill-opacity:1;enable-background:new"
       d="m 7.0198391,1.7627125 c -0.152552,0 -0.2475605,0.07326 -0.2844274,0.220728 C 6.6667656,2.2465943 6.5911809,2.7366213 6.5072766,3.452985 6.2600141,3.5318041 6.0208066,3.6329371 5.7887997,3.7537083 L 4.6984922,2.9078314 c -0.068646,-0.052758 -0.1372648,-0.078514 -0.2059135,-0.078514 -0.115686,0 -0.3646053,0.1874785 -0.7466231,0.5644119 -0.3820186,0.3769328 -0.641707,0.660901 -0.7777329,0.8503211 -0.047669,0.068649 -0.071106,0.1279723 -0.071106,0.1807303 0,0.062928 0.025757,0.1266903 0.078513,0.1896185 C 3.3284086,5.0409119 3.6104747,5.4046856 3.821506,5.7047065 3.6899295,5.9468842 3.5856281,6.1898937 3.5118942,6.4320717 L 2.04235,6.6527996 C 1.984506,6.6636056 1.9346811,6.6965376 1.8927298,6.755016 1.8507658,6.812858 1.8305118,6.8736639 1.8305118,6.9372277 l 0,1.7539725 c 0,0.06865 0.020263,0.1298736 0.062218,0.185174 0.041955,0.0553 0.097267,0.088448 0.1659163,0.099254 l 1.445842,0.213321 c 0.073734,0.2580687 0.182043,0.5190226 0.3244256,0.782177 -0.09471,0.1315768 -0.2372226,0.3173688 -0.4266425,0.5570048 -0.1894199,0.239635 -0.3241205,0.414659 -0.4029396,0.525895 -0.041955,0.05784 -0.062218,0.118649 -0.062218,0.182212 0,0.06865 0.017944,0.127972 0.054811,0.18073 0.2053104,0.284765 0.6419293,0.727289 1.3036279,1.327331 0.057844,0.05784 0.1247736,0.0874 0.1985075,0.0874 0.078822,0 0.1442678,-0.02344 0.1970252,-0.07111 l 1.1140096,-0.845877 c 0.2161165,0.110601 0.4530014,0.208777 0.71107,0.293317 l 0.2222095,1.453249 c 0.00511,0.06865 0.035059,0.125867 0.090365,0.17036 0.055296,0.04513 0.1194838,0.06666 0.192581,0.06666 l 1.7539725,0 c 0.1531896,0 0.2490446,-0.07326 0.2859098,-0.220727 0.068646,-0.263155 0.1442308,-0.753183 0.2281351,-1.469545 0.2472634,-0.07882 0.4871048,-0.179953 0.7184773,-0.300724 l 1.090306,0.853284 c 0.07373,0.04704 0.142987,0.07111 0.205915,0.07111 0.115686,0 0.363339,-0.186213 0.742179,-0.559968 0.379476,-0.373756 0.642337,-0.658779 0.782177,-0.853284 0.04767,-0.05276 0.07111,-0.113564 0.07111,-0.182212 0,-0.06865 -0.02576,-0.134097 -0.07851,-0.197026 -0.37884,-0.46338 -0.661542,-0.827153 -0.845877,-1.0903062 0.105516,-0.1951415 0.2077,-0.4358289 0.30813,-0.7199588 l 1.460661,-0.2207267 c 0.06293,-0.010808 0.115922,-0.044371 0.15851,-0.1022166 0.04195,-0.057841 0.0637,-0.1192852 0.0637,-0.1822113 l 0,-1.7539728 c 0,-0.068649 -0.02175,-0.1298741 -0.0637,-0.1851745 l -0.0015,-0.00148 C 13.8583,6.7278636 13.80362,6.6940807 13.734971,6.6839105 L 12.290645,6.463181 c -0.07882,-0.2529839 -0.187127,-0.5116161 -0.324425,-0.77477 0.09471,-0.1315769 0.237222,-0.3158879 0.426642,-0.5555234 0.18942,-0.2396354 0.32412,-0.4146588 0.40294,-0.5258954 0.04195,-0.057843 0.06222,-0.1186481 0.06222,-0.1822116 0,-0.073734 -0.01794,-0.1313713 -0.05482,-0.1733234 -0.18942,-0.2688747 -0.624131,-0.7168874 -1.303628,-1.3436258 -0.06293,-0.052758 -0.129013,-0.078514 -0.197026,-0.078514 -0.07882,0 -0.142581,0.023437 -0.189618,0.071107 L 9.9915152,3.7463015 C 9.7754023,3.6357003 9.5385182,3.5375244 9.2804496,3.452985 L 9.0582401,1.9997359 C 9.0531258,1.9310872 9.0231719,1.8753512 8.967875,1.8308568 8.9125701,1.7863631 8.8481822,1.7627123 8.7738116,1.7627123 l -1.7539725,0 z M 5.8154654,4.7684644 c 0.041682,0.010789 0.07854,0.036825 0.1022161,0.077033 L 6.7428186,6.2483787 C 7.4955171,5.9190592 8.3687549,5.9129721 9.1308285,6.2172688 L 9.9337449,4.8514221 c 0.023676,-0.040207 0.062015,-0.066243 0.1036971,-0.077033 0.04169,-0.010788 0.08719,-0.00589 0.127401,0.017778 0.08042,0.047347 0.106602,0.1506828 0.05926,0.2310976 L 9.4345192,6.3654087 C 10.424171,6.8964176 11.135678,7.9828023 10.927765,9.6067023 9.2757436,10.543633 6.6139447,10.599401 5.0051457,9.5696661 4.8975755,7.9649372 5.5425072,6.9253015 6.4406181,6.3979995 L 5.627332,5.0173388 C 5.579981,4.9369238 5.60617,4.8335878 5.686587,4.786241 5.726796,4.762567 5.773786,4.757675 5.8154688,4.768464 Z"
       id="path15" />
    <circle
       cx="6.8179369"
       cy="8.0523996"
       id="circle25"
       style="fill:#1A1D20;fill-opacity:1;enable-background:new"
       r="0.48499146" />
    <circle
       cx="9.1119528"
       cy="8.0377798"
       id="circle27"
       style="fill:#1A1D20;fill-opacity:1;stroke:none;stroke-opacity:0;enable-background:new"
       r="0.48499146" />
  </g>
</svg>
