<?xml version="1.0" encoding="UTF-8" standalone="no"?>
<svg
   xmlns:dc="http://purl.org/dc/elements/1.1/"
   xmlns:cc="http://creativecommons.org/ns#"
   xmlns:rdf="http://www.w3.org/1999/02/22-rdf-syntax-ns#"
   xmlns:svg="http://www.w3.org/2000/svg"
   xmlns="http://www.w3.org/2000/svg"
   xmlns:sodipodi="http://sodipodi.sourceforge.net/DTD/sodipodi-0.dtd"
   xmlns:inkscape="http://www.inkscape.org/namespaces/inkscape"
   viewBox="0 0 16 16"
   id="svg2"
   version="1.1"
   inkscape:version="0.91 r13725"
   sodipodi:docname="folder-band.svg">
  <metadata
     id="metadata20">
    <rdf:RDF>
      <cc:Work
         rdf:about="">
        <dc:format>image/svg+xml</dc:format>
        <dc:type
           rdf:resource="http://purl.org/dc/dcmitype/StillImage" />
        <dc:title />
      </cc:Work>
    </rdf:RDF>
  </metadata>
  <defs
     id="defs18" />
  <sodipodi:namedview
     pagecolor="#ffffff"
     bordercolor="#666666"
     borderopacity="1"
     objecttolerance="10"
     gridtolerance="10"
     guidetolerance="10"
     inkscape:pageopacity="0"
     inkscape:pageshadow="2"
     inkscape:window-width="1680"
     inkscape:window-height="1028"
     id="namedview16"
     showgrid="false"
     inkscape:zoom="14.75"
     inkscape:cx="-3.1525424"
     inkscape:cy="8"
     inkscape:window-x="1366"
     inkscape:window-y="22"
     inkscape:window-maximized="1"
     inkscape:current-layer="svg2" />
  <path
     style="opacity:1;fill:#1A1D20;fill-opacity:1;stroke:#1A1D20;stroke-width:0.00905482;stroke-miterlimit:4;stroke-dasharray:none;stroke-opacity:0"
     d="m 5.0819381,13.552773 c -0.727681,-0.1539 -1.523458,-0.6449 -2.022904,-1.2482 -0.243495,-0.2941 -0.529852,-0.8436 -0.622538,-1.1945 -0.132108,-0.5002 -0.112267,-1.3293004 0.04475,-1.8700004 l 0.05775,-0.1988001 0.591387,-0.021 c 1.010936,-0.035 1.635554,-0.2667 2.166602,-0.802 0.442975,-0.4465 0.669731,-0.9603 0.724133,-1.6406 l 0.02369,-0.2962 0.204835,-0.046 c 0.272335,-0.061 0.731758,-0.2884 1.17885,-0.5837 0.200528,-0.1324 0.378996,-0.2263 0.396597,-0.2087 0.0176,0.018 -0.13454,0.2767 -0.33809,0.5759 -0.469775,0.6903 -0.749333,1.2428 -0.779918,1.5412 -0.0204,0.1991 -0.0132,0.2295 0.07535,0.318 0.112938,0.113 0.315224,0.1614 0.524355,0.1257 0.128928,-0.022 0.3238,-0.2052 1.69004,-1.588 1.6882289,-1.7087 1.7619869,-1.8005 1.7308309,-2.1542 -0.009,-0.1023 -0.02919,-0.2143 -0.04484,-0.2488 -0.02328,-0.051 0.0031,-0.066 0.145036,-0.082 0.522015,-0.059 1.083978,-0.6186 1.142519,-1.1379 0.01393,-0.1237 0.05221,-0.2006 0.144136,-0.2897 0.122521,-0.1187 0.132072,-0.121 0.451918,-0.1099 l 0.326752,0.011 -0.1652,0.1121 c -0.399108,0.2707 -0.430132,0.7232 -0.04961,0.7235 0.08279,1e-4 0.0989,0.019 0.102508,0.1195 0.0056,0.1566 0.0972,0.243 0.252917,0.2386 0.150765,0 0.283139,-0.096 0.447918,-0.3108 0.0672,-0.088 0.132784,-0.1486 0.145732,-0.1357 0.01295,0.013 0.02354,0.1662 0.02354,0.3406 0,0.2867 -0.0092,0.3257 -0.0957,0.407 -0.06499,0.061 -0.155416,0.095 -0.281748,0.1048 -0.274759,0.022 -0.634617,0.2131 -0.849919,0.4515 -0.197822,0.2191 -0.364619,0.5328 -0.366183,0.6887 -0.0014,0.1377 -0.04748,0.1982 -0.117396,0.1539 -0.0315,-0.02 -0.138337,-0.036 -0.237423,-0.037 -0.3396,0 -0.460562,0.101 -2.1251563,1.7931 -1.5453876,1.571 -1.5544876,1.5812 -1.6026276,1.7963 -0.0596,0.2663 -0.01949,0.4320001 0.131929,0.5449001 0.09039,0.067 0.165062,0.082 0.427161,0.082 0.27454,0 0.351888,-0.016 0.570226,-0.1201 0.138933,-0.066 0.3702386,-0.2093001 0.5140146,-0.3184001 0.267709,-0.2031 0.37865,-0.2088 0.233207,-0.012 -0.231662,0.3133001 -0.420391,0.8516001 -0.389964,1.1123005 l 0.01576,0.1349 -0.2580136,0 c -0.315253,0 -0.789844,0.1168 -1.060295,0.261 -0.256004,0.1364 -0.676559,0.5556 -0.811325,0.8086 -0.05717,0.1073 -0.150901,0.3522 -0.208284,0.544 -0.08917,0.2982 -0.106371,0.4363 -0.118366,0.9502 -0.01614,0.6916 0.02712,0.6258 -0.475315,0.7231 -0.362976,0.07 -1.11121,0.066 -1.463618,-0.01 z"
     id="path3510"
     inkscape:connector-curvature="0" />
</svg>
