<svg xmlns="http://www.w3.org/2000/svg" viewBox="0 0 16 16"><path d="m647.96 1394c-.004 0 0-.303-.027-.387l-7.445-22.742c-.176-.539-.773-.871-1.33-.871h-5.666l4.508 6h-2l6.189 18h-8.19l-4 10h-12l-4-10h-8.189l6.189-18h-2l4.438-6h-5.596c-.557 0-1.154.441-1.33.98l-7.445 22.633c-.027.084-.023.387-.027.387h-.04v17 3 1c0 .551.449 1 1 1h46c.551 0 1-.449 1-1v-1-3-15.188-1.812h-.039zm-14.264-18h-5.697v13.473c0 .551-.449.527-1 .527h-6c-.551 0-1 .023-1-.527v-13.473h-5.654c-.297 0-.391-.164-.209-.398l9.586-11.273c.102-.133.238-.146.371-.146.105 0 .207.076.287.182l9.527 11.246c.182.235.086.389-.211.389z" transform="matrix(.2272 0 0 .2272-133.79-307.83)" stroke-opacity=".8" fill="#1A1D20" stroke="#1A1D20"/></svg>