<svg xmlns="http://www.w3.org/2000/svg" viewBox="0 0 16 16"><g transform="matrix(.22641 0 0 .22641-111.57-306.72)" stroke-opacity=".8" fill="#1A1D20" stroke="#1A1D20"><path d="m551.93 1393.61l-7.445-22.742c-.176-.539-.773-.871-1.33-.871h-9.159v6h6.125l6.06 18h-8.189l-4 10h-12l-4-10h-8.189l6.06-18h6.125v-6h-9.158c-.557 0-1.154.441-1.33.98l-7.445 22.633c-.028.084-.067 21.387-.067 21.387 0 .551.449 1 1 1h46c.551 0 1-.449 1-1 0 0-.043-21.314-.066-21.387z"/><path d="m537.7 1378h-5.697v-13c0-.551-.45-1-1-1h-6c-.55 0-1 .449-1 1v13h-5.654c-.297 0-.391.4-.209.635l9.586 11.393c.102.131.238.205.371.205.105 0 .207-.047.287-.152l9.527-11.469c.182-.237.086-.612-.211-.612z"/></g></svg>