<svg xmlns="http://www.w3.org/2000/svg" width="22" height="22" viewBox="0 0 5.8208332 5.8208335"><defs><clipPath id="0"><path d="m0 1000h1000v-1000h-1000v1000"/></clipPath></defs><g transform="translate(0-291.18)"><path d="m.794 291.97l.265.265h3.704l.265-.265-.265-.132h-3.704z" fill="#fff" fill-rule="evenodd" fill-opacity=".784"/><g clip-path="url(#0)" transform="matrix(.00576 0 0-.00576.107 296.76)"><g fill="#383a3c"><path d="m0 0c0 37.18-9.34 72.22-25.79 102.88-36.784 68.55-109.16 115.24-192.33 115.24-83.24 0-155.67-46.769-192.43-115.42-16.385-30.612-25.682-65.58-25.682-102.69 0-38.734 10.122-75.12 27.86-106.67 37.39-66.49 108.63-111.46 190.25-111.46 81.59 0 152.79 44.923 190.2 111.36 17.777 31.569 27.922 67.99 27.922 106.76" transform="translate(705.05 463.41)"/><path d="m27.408 566.29h918.1v-209.32h-918.1v209.32"/></g><path d="m0 0c0 110.72-89.94 200.67-200.67 200.67-110.72 0-200.67-89.94-200.67-200.67 0-110.73 89.94-200.67 200.67-200.67 110.73 0 200.67 89.94 200.67 200.67" fill="none" stroke="#231f20" transform="translate(687.6 463.41)"/><g fill="#383a3c"><path d="m0 0c0 30.758-6.938 59.913-19.341 85.981-32.23 67.769-101.36 114.69-181.33 114.69-79.86 0-148.91-46.789-181.2-114.42-12.474-26.14-19.467-55.39-19.467-86.25 0-32.23 7.623-62.693 21.15-89.69 32.965-65.77 101.02-110.98 179.52-110.98 78.4 0 146.38 45.09 179.39 110.71 13.616 27.06 21.282 57.62 21.282 89.96" transform="translate(687.6 463.41)"/><path d="m44.44 549.26h883.63v-175.54h-883.63v175.54"/></g><g fill="#fff"><path d="m0 0c16.742 38.679 33.49 77.36 50.24 116.04h36.37c15.979-38.754 31.949-77.51 47.925-116.27h-36.765c-2.194 6.559-4.388 13.13-6.588 19.692h-47.06c-2.344-6.493-4.69-12.98-7.04-19.464h-37.09" transform="translate(238.17 406.22)"/><path d="m841.29 521.96h36.37v-115.68h-36.37v115.68"/><path d="m0 0v115.94h32.387c15.512-21.93 31.02-43.871 46.529-65.802.007 21.931.007 43.872.007 65.802h31.981c-.019-38.647-.039-77.29-.058-115.93h-34.575c-14.321 19.926-28.651 39.858-42.979 59.783v-59.789h-33.29" transform="translate(702.08 406.1)"/><path d="m638.03 521.96h36.37v-115.86h-36.37v115.86"/><path d="m0 0v87.44h-29.45v28.837h94.99v-28.837h-29.441v-87.44h-36.1" transform="translate(547.09 406.1)"/><path d="m0 0v116.67h42.729c14.721 0 22.444.471 30.891-2.417 8.447-2.892 14.941-8.389 19.793-14.921 4.851-6.539 8.466-16.431 9.323-24.307.857-7.869-.776-16.596-4.18-22.946-3.404-6.348-10.832-10.1-16.242-15.15 8.593-12.11 17.193-24.22 25.793-36.32h-36.554c-7.133 11.43-14.262 22.869-21.402 34.3h-19.679v-34.954c-10.16.013-20.314.025-30.472.045" transform="translate(392.05 405.5)"/><path d="m0 0h-34.506c-.049 20.99-.094 41.97-.14 62.954-10.1-15.587-20.21-31.18-30.31-46.764-10.489 17.515-20.983 35.03-31.472 52.54-.032-22.804-.065-45.614-.097-68.42h-32.799v116.06c11.624-.087 23.25-.175 34.866-.26 10.414-17.624 20.821-35.24 31.23-52.863 9.431 17.705 18.861 35.418 28.3 53.12h34.931v-116.37" transform="translate(221.42 406.04)"/></g><g fill="#383a3c"><path d="m0 0h30.31c7.146 0 12.922 5.994 12.808 13.14-.113 7.204-6 13.13-13.207 13.13h-29.892c0-8.759-.006-17.514-.016-26.27" transform="translate(422.41 466.1)"/><path d="M 0,0 33.201,0 C 27.714,14.967 22.229,29.934 16.745,44.894 11.163,29.934 5.582,14.967 0,0" transform="translate(289.23 448.21)"/></g></g></g></svg>