<svg xmlns="http://www.w3.org/2000/svg" width="22" height="22" viewBox="0 0 5.8208332 5.8208335"><g transform="translate(0-291.18)"><path d="m5.291 294.13c0-.014.0001-.028.0001-.043 0-.014-.0001-.028-.0001-.043-.239-.139-.255-.279-.053-.464-.006-.026-.012-.053-.018-.079-.264-.075-.31-.204-.153-.426-.011-.024-.023-.048-.035-.071-.272-.012-.344-.125-.239-.375-.016-.021-.032-.042-.049-.062-.268.049-.362-.046-.313-.313-.02-.017-.041-.033-.062-.049-.25.105-.363.033-.375-.239-.024-.012-.047-.024-.071-.035-.223.157-.351.111-.426-.153-.026-.007-.052-.012-.079-.018-.185.202-.325.186-.464-.053-.014 0-.028-.0001-.043-.0001-.014 0-.028.0001-.043.0001-.139.239-.279.255-.464.053-.027.006-.053.012-.079.018-.075.263-.204.31-.426.153-.024.011-.048.023-.071.035-.012.272-.125.344-.375.239-.021.016-.042.032-.062.049.049.268-.046.362-.313.313-.017.02-.033.041-.049.062.105.25.033.363-.239.375-.012.024-.024.047-.035.071.157.223.111.351-.153.426-.007.026-.012.053-.018.079.202.185.186.325-.053.464 0 .014-.0001.028-.0001.043 0 .014.0001.028.0001.043.239.139.255.279.053.464.006.026.012.053.018.079.264.075.31.204.153.426.011.024.023.048.035.071.272.012.344.125.239.375.016.021.032.042.049.062.268-.049.362.046.313.313.02.017.041.033.062.049.25-.105.364-.033.375.239.024.012.047.024.071.035.223-.157.351-.111.426.153.026.007.052.012.079.018.185-.202.325-.186.464.053.014 0 .028.0001.043.0001.014 0 .028-.0001.043-.0001.139-.239.279-.255.464-.053.026-.006.053-.012.079-.018.075-.264.204-.31.426-.153.024-.011.048-.023.071-.035.012-.272.125-.344.375-.239.021-.016.042-.032.062-.049-.049-.268.046-.362.313-.313.017-.02.033-.041.049-.062-.105-.25-.033-.364.239-.375.012-.024.024-.047.035-.071-.157-.223-.111-.351.153-.426.007-.026.012-.053.018-.079-.202-.185-.186-.325.053-.464" fill="#4f5050"/><path d="m2.91 295.96c-1.033 0-1.874-.841-1.874-1.874 0-1.033.841-1.874 1.874-1.874 1.033 0 1.874.841 1.874 1.874 0 1.033-.841 1.874-1.874 1.874" fill="#fff"/><g transform="matrix(.02306 0 0-.02265-11.232 308.65)" fill="#4f5050"><path d="m562.73 628.89c2.103.305 4.066 2.853 4.08 6.716.012 3.647-1.436 6.172-4.19 5.91-1.287-.127-2.573-.259-3.858-.395-.011-4.273-.022-8.547-.034-12.82 1.333.204 2.667.4 4 .589m-3.947 20.557c1.019.077 2.037.152 3.057.225 2.659.193 3.418 2.327 3.429 5.783.011 3.309-1.389 5.211-3.293 5.153-1.055-.035-2.11-.071-3.165-.109-.008-3.683-.018-7.368-.028-11.05m-13.256-23.42c.961.185 1.922.365 2.884.54.008 11.253.016 22.507.024 33.76-.97-.04-1.939-.081-2.908-.123v10.02h18.735c8.341-.034 12.294-4.35 12.265-11.921-.02-5.857-1.188-8.747-4.961-11.11 3.609-1.184 6.61-4.676 6.585-11.395-.031-9.786-4.03-14.43-13.698-16.05-6.339-1.064-12.65-2.335-18.926-3.816v10.1z"/><path d="m610.33 670.22c-.002-4.894-.004-9.788-.006-14.681-2.903-.001-5.804-.032-8.707-.069.003 1.98.007 3.96.001 5.94-2.683-.02-5.365-.048-8.05-.082-.008-3.098-.016-6.197-.024-9.295 3.188.083 6.377.146 9.566.188-.004-2.954-.009-5.909-.013-8.864-3.193-.063-6.385-.157-9.577-.281-.009-3.66-.019-7.319-.029-10.979 2.691.146 5.384.262 8.08.349.003 2.069.007 4.137.001 6.206 2.909.078 5.818.127 8.727.146l-.005-15.01c-10.166-.101-20.329-.727-30.445-1.879.012 3.064.023 6.128.033 9.192 1.057.097 2.114.19 3.17.278.036 9.928.07 19.855.104 29.783-1.056-.021-2.11-.042-3.166-.065.012 3.041.022 6.082.033 9.124h30.29"/><path d="m643.13 670.22c.017-5.05.035-10.11.053-15.16-2.901.094-5.802.174-8.704.241l-.017 6.01c-2.681.037-5.362.067-8.04.09l.018-9.224c3.188-.056 6.376-.132 9.564-.228.009-3 .018-5.999.026-8.999-3.19.143-6.381.256-9.574.339.007-3.631.013-7.263.02-10.895 2.692-.098 5.382-.226 8.07-.385-.006 2.094-.012 4.186-.018 6.279 2.908-.143 5.813-.315 8.716-.517.018-5.168.035-10.336.054-15.505-10.125 1.039-20.292 1.551-30.458 1.539.0001 2.944.0001 5.887.0001 8.831 1.059.0001 2.119-.002 3.179-.001-.004 9.609-.008 19.219-.012 28.829-1.056.002-2.111.003-3.165.002v8.767h30.29"/><path d="m658.87 648.76c.753-.051 1.506-.102 2.258-.156 2.909-.213 4.805 1.684 4.796 5.576-.012 4.328-1.674 6.581-4.584 6.663-.837.026-1.674.051-2.511.075l.041-12.158m3.092 21.457c11.656.076 13.925-6.962 13.933-15.671.005-5.96-3.087-9.822-7.238-10.287 3.456-1.044 6.561-5.95 6.567-11.437.003-3.26.303-5.207 1.199-5.366.746-.133 1.143.715 1.142 2.249 0 .842-.0001 1.684-.002 2.525 1.113-.176 2.225-.357 3.335-.542v-4.27c-.003-6.482-1.727-12.02-7.245-10.787-6.518 1.415-9.693 6.927-9.718 15.414-.02 6.617-.572 8.292-5.04 8.705l.038-11.08c1.019-.13 2.038-.264 3.056-.403.001-3.178.02-6.356.03-9.534-5.387.905-10.794 1.659-16.214 2.261-.001 3.036-.021 6.071-.032 9.108.939-.085 1.877-.174 2.815-.266-.037 10.1-.074 20.19-.111 30.28-.937.022-1.874.042-2.811.062-.011 3.01-.022 6.02-.032 9.04h16.325"/></g></g></svg>