<svg xmlns="http://www.w3.org/2000/svg" width="22" height="22" viewBox="0 0 5.8208332 5.8208335"><defs><linearGradient gradientUnits="userSpaceOnUse" y2="533.38" x2="0" y1="543.16" id="0"><stop stop-color="#ffeb96"/><stop offset="1" stop-color="#7ac0ff"/></linearGradient></defs><g transform="translate(0-291.18)"><g transform="matrix(-.43294 0 0 .43294 209.54 59.61)"><circle transform="translate(7.44-.975)" r="5.5" cy="542.55" cx="469.83" fill="url(#0)"/><g transform="translate(-10.87)" fill="#414141"><circle r=".6" cy="542.3" cx="485.13"/><circle r=".6" cy="542.3" cx="491.15"/></g><path d="m475.38 544.35c0 0 .19-.614 1.402-.55.267.014.678.165.938.393.653.573 1.452.309 1.452.309" fill="none" fill-rule="evenodd" stroke="#414141" stroke-linecap="round" stroke-width=".275"/></g><g transform="matrix(.43295 0 0 .43295-213.73 59.28)" fill="none" fill-rule="evenodd" stroke="#414141" stroke-linecap="round" stroke-width=".342"><path d="m496.53 542.63c.335-.587.968-.602 1.531-.452"/><path d="m504.22 542.69c-.335-.587-.968-.602-1.531-.452"/></g></g></svg>