<svg xmlns="http://www.w3.org/2000/svg" width="22" height="22" viewBox="0 0 5.8208332 5.8208335"><defs><linearGradient id="0" x1="488.2" y1="547.74" x2="488.11" y2="537.68" gradientUnits="userSpaceOnUse"><stop stop-color="#c9dfa5"/><stop offset="1" stop-color="#e6ffbd"/></linearGradient></defs><g transform="translate(0-291.18)"><g transform="matrix(.29032 0 0 .29032 2.065 208.71)"><circle r="5.5" cy="542.35" cx="488.27" fill="url(#0)" transform="matrix(1.49127 0 0 1.49127-725.23-514.71)"/><path d="m1.455 298.59c.476-1.323 2.476-1.323 2.91 0" fill="none" fill-rule="evenodd" stroke="#414141" stroke-linejoin="round" stroke-linecap="round" stroke-width=".503"/></g><g transform="translate(-4.785.127)" fill="#414141"><path d="m6.197 293.7c-.023 0-.045.009-.062.026-.035.034-.035.09 0 .125l.114.114-.114.114c-.035.034-.035.09 0 .125.035.034.09.034.125 0l.114-.114.114.114c.035.034.09.034.125 0 .035-.034.035-.09 0-.125l-.114-.114.114-.114c.035-.034.035-.09 0-.125-.017-.017-.04-.026-.062-.026-.023 0-.045.009-.062.026l-.114.114-.114-.114c-.017-.017-.04-.026-.062-.026"/><path d="m8.843 293.7c-.023 0-.045.009-.062.026-.035.034-.035.09 0 .125l.114.114-.114.114c-.035.034-.035.09 0 .125.035.034.09.034.125 0l.114-.114.114.114c.035.034.09.034.125 0 .035-.034.035-.09 0-.125l-.114-.114.114-.114c.035-.034.035-.09 0-.125-.017-.017-.04-.026-.062-.026-.023 0-.045.009-.062.026l-.114.114-.114-.114c-.017-.017-.04-.026-.062-.026"/></g></g></svg>