<svg xmlns="http://www.w3.org/2000/svg" width="22" height="22" viewBox="0 0 5.8208332 5.8208335"><defs><linearGradient gradientUnits="userSpaceOnUse" y2="537.68" x2="488.11" y1="547.74" x1="488.2" id="0"><stop stop-color="#ffeb96"/><stop offset="1" stop-color="#fff1b7"/></linearGradient></defs><g transform="matrix(.10353 0 0 .10353-50.04-49.42)"><g transform="matrix(4.18182 0 0 4.18182-1537.14-1677.22)"><g transform="translate(1.612-20.413)"><circle cx="488.27" cy="542.35" r="5.5" fill="url(#0)"/><g fill="#414141"><circle r=".6" cy="542.3" cx="485.18"/><circle r=".6" cy="542.3" cx="491.35"/></g></g><path d="m566.26 207.14c-61.2-9.6-177.9-11.5-262 11.5-5.7 0-30.6 0-36.3 0-84.1-23-200.8-21-262-11.5-7.6 1.9-7.6 34.4-1.9 36.3 11.5 5.7 17.2 17.2 17.2 17.2 0 0 3.8 11.5 13.4 53.5 9.5 42.2 34.4 49.9 34.4 49.9 0 0 30.6 7.6 65 7.6 34.4 0 55.5-1.899 78.4-13.399 22.9-11.5 32.5-42.1 32.5-42.1 0 0 11.5-26.8 19.1-51.6 1.9-7.7 40.2-7.7 42.1 0 7.601 24.9 19.1 51.6 19.1 51.6 0 0 9.6 30.601 32.5 42.1 23 11.5 44 13.399 78.4 13.399 34.4 0 65-7.6 65-7.6 0 0 24.9-5.7 34.4-49.7 9.6-44 13.4-53.5 13.4-53.5 0 0 5.699-11.5 17.199-17.2 7.801-2 7.801-36.5.101-36.5" transform="matrix(.01923 0 0 .01923 484.34 516.39)" fill="#414141"/></g><path d="m497.59 515.89c6.246 7.093 13.151 6.608 20.294 3.382" fill="none" fill-rule="evenodd" stroke="#414141" stroke-linejoin="round" stroke-linecap="round" stroke-width="1.488"/></g></svg>