<svg xmlns="http://www.w3.org/2000/svg" width="22" height="22" viewBox="0 0 5.8208332 5.8208335"><defs><clipPath><path d="m666.82 463.14c0-6.133 4.972-11.11 11.11-11.11 6.134 0 11.11 4.973 11.11 11.11 0 6.134-4.972 11.11-11.11 11.11-6.134 0-11.11-4.972-11.11-11.11"/></clipPath><clipPath><path d="m606.53 445.91c0-6.133 4.972-11.11 11.11-11.11 6.133 0 11.11 4.973 11.11 11.11 0 6.134-4.973 11.11-11.11 11.11-6.134 0-11.11-4.972-11.11-11.11"/></clipPath><clipPath><path d="m0 600h800v-600h-800v600"/></clipPath><linearGradient y1="295.15" x2="0" y2="293.03" gradientUnits="userSpaceOnUse"><stop stop-color="#d82727"/><stop offset="1" stop-color="#ff9090"/></linearGradient><linearGradient gradientUnits="userSpaceOnUse" y2="537.68" x2="488.11" y1="547.74" x1="488.2" id="0"><stop stop-color="#ffeb96"/><stop offset="1" stop-color="#fff1b7"/></linearGradient></defs><g transform="translate(0-291.18)"><g transform="matrix(.43294 0 0 .43294-209.18 68.12)"><g transform="translate(1.612-20.413)"><circle r="5.5" cy="542.35" cx="488.27" fill="url(#0)"/><g fill="#414141"><circle cx="485.18" cy="542.3" r=".6"/><circle cx="491.35" cy="542.3" r=".6"/></g></g><path d="m489.25 526.15c0 0-.457-.767.298-.786 0 0 1.441.311 2.804-.819.647-.391.674.502.674.502-.041 1.347-1.558 1.682-1.558 1.682 0 0-1.459.535-2.219-.579" opacity=".997" fill="#414141"/><path d="m.674 341.78l-56.2-8.239-25.19-51.36c-1.417-3.085-3.247-4.627-5.486-4.627-2.239 0-4.068 1.542-5.486 4.627l-25.19 51.36-56.2 8.239c-4.179.677-6.269 2.408-6.269 5.192 0 1.581.933 3.387 2.799 5.418l40.754 39.955-9.628 56.43c-.15 1.054-.224 1.808-.224 2.258 0 1.581.392 2.915 1.175 4.01.783 1.092 1.958 1.636 3.526 1.636 1.344 0 2.836-.449 4.479-1.353l50.27-26.639 50.27 26.639c1.569.903 3.062 1.353 4.477 1.353 1.497 0 2.633-.543 3.416-1.636.782-1.092 1.174-2.427 1.174-4.01 0-.978-.037-1.73-.113-2.258l-9.629-56.43 40.641-39.955c1.943-1.956 2.912-3.763 2.912-5.418 0-2.785-2.089-4.515-6.272-5.192" transform="matrix(.01312-.00279.00279.01312 486.93 516.7)" fill="#4d4d4d"/></g><circle cx="2.91" cy="294.62" r=".529" fill="#ea5756" fill-rule="evenodd"/></g></svg>