<svg xmlns="http://www.w3.org/2000/svg" width="22" height="22" viewBox="0 0 5.8208332 5.8208335"><defs><linearGradient gradientUnits="userSpaceOnUse" y2="537.68" x2="488.11" y1="547.74" x1="488.2" id="0"><stop stop-color="#ffeb96"/><stop offset="1" stop-color="#fff1b7"/></linearGradient></defs><g transform="translate(0-291.18)"><g transform="matrix(.29032 0 0 .29032 2.065 208.71)"><g transform="matrix(1.49127 0 0 1.49127-725.23-514.71)"><circle cx="488.27" cy="542.35" r="5.5" fill="url(#0)"/><g fill="#414141"><circle r=".6" cy="542.3" cx="485.18"/><circle r=".6" cy="542.3" cx="491.35"/></g></g><path d="m1.455 298.59c.476-1.323 2.476-1.323 2.91 0" fill="none" fill-rule="evenodd" stroke="#414141" stroke-linejoin="round" stroke-linecap="round" stroke-width=".503"/></g><path d="m400.08 520.08l-6.589 11.492c-1.385 2.43-1.492 5.519 0 8.12 2.242 3.911 7.23 5.263 11.141 3.02 3.911-2.242 5.263-7.23 3.02-11.141l-6.589-11.492c-.218-.38-.765-.38-.983 0" transform="matrix(.05461 0 0 .05461-20.898 266.11)" fill="#8acbef"/></g></svg>