<svg xmlns="http://www.w3.org/2000/svg" width="22" height="22" viewBox="0 0 5.8208332 5.8208335"><defs><linearGradient gradientUnits="userSpaceOnUse" y2="536.75" x2="492.3" y1="546.82" x1="492.39" id="0"><stop stop-color="#ffeb96"/><stop offset="1" stop-color="#fff1b7"/></linearGradient></defs><g transform="translate(0-291.18)"><g transform="translate(0 .265)"><circle r="5.5" cy="541.43" cx="492.45" fill="url(#0)" transform="matrix(.43294 0 0 .43294-210.3 59.42)"/><path d="m2.903 295.03c-.086 0-.553.002-.553.002 0 .735.553 1.101 1.106 1.103.553 0 1.106-.368 1.106-1.106 0 0-.465.002-.553.002-1.018 0-.165-.002-.553 0-.388-.002.467 0-.553 0z" fill="#f4f1e9" transform="matrix(.72501 0 0 .72501.405 80.65)"/></g><path d="m18.14 290.77c.492-.176.872.134 1.127.506" fill="none" fill-rule="evenodd" stroke="#414141" stroke-linecap="round" stroke-width=".265" transform="matrix(.55946 0 0 .55946-8.743 130.79)"/><g fill="#414141"><circle r=".6" cy="542.3" cx="485.38" transform="matrix(.43294 0 0 .43294-208.43 59.11)"/><circle cx="4.101" cy="293.69" r=".661" fill-rule="evenodd" stroke="#414141" stroke-linejoin="round" stroke-linecap="round" stroke-width=".159"/></g><path d="m2.521 291.77l2.633 3.134" fill="none" fill-rule="evenodd" stroke="#414141" stroke-linecap="round" stroke-width=".132"/></g></svg>