<svg xmlns="http://www.w3.org/2000/svg" width="22" height="22" viewBox="0 0 5.8208332 5.8208335"><defs><clipPath><path d="m666.82 463.14c0-6.133 4.972-11.11 11.11-11.11 6.134 0 11.11 4.973 11.11 11.11 0 6.134-4.972 11.11-11.11 11.11-6.134 0-11.11-4.972-11.11-11.11"/></clipPath><clipPath><path d="m0 600h800v-600h-800v600"/></clipPath><clipPath><path d="m606.53 445.91c0-6.133 4.972-11.11 11.11-11.11 6.133 0 11.11 4.973 11.11 11.11 0 6.134-4.973 11.11-11.11 11.11-6.134 0-11.11-4.972-11.11-11.11"/></clipPath><linearGradient gradientUnits="userSpaceOnUse" y2="537.68" x2="488.11" y1="547.74" x1="488.2" id="0"><stop stop-color="#ffeb96"/><stop offset="1" stop-color="#fff1b7"/></linearGradient></defs><g transform="translate(-6.983-291.45)"><circle cx="488.27" cy="542.35" r="5.5" fill="url(#0)" transform="matrix(.43294 0 0 .43294-201.5 59.732)"/><g transform="translate(-16.469 4.783)" fill="none" fill-rule="evenodd" stroke="#414141" stroke-linecap="round" stroke-width=".132"><path d="m24.674 290.11c.003-.572.683-.632.815-.107"/><path d="m27.24 289.86c.003-.572.683-.632.815-.107"/><path d="m25.03 290.76c.755.849 1.97.693 2.676-.081"/></g><ellipse ry=".451" rx="2.144" cy="290.62" cx="-34.852" transform="matrix(.98842-.15174.15174.98842 0 0)" fill="none" fill-rule="evenodd" stroke="#fcc04d" stroke-linecap="round" stroke-width=".212"/></g></svg>