<svg xmlns="http://www.w3.org/2000/svg" width="22" height="22" viewBox="0 0 5.8208332 5.8208335"><defs><linearGradient id="0" x1="488.2" y1="547.74" x2="488.11" y2="537.68" gradientUnits="userSpaceOnUse"><stop stop-color="#ea5756"/><stop offset="1" stop-color="#ff8f8e"/></linearGradient><linearGradient gradientUnits="userSpaceOnUse" y2="293.03" x2="0" y1="295.15"><stop stop-color="#d82727"/><stop offset="1" stop-color="#ff9090"/></linearGradient></defs><g transform="translate(0-291.18)"><g fill="#fc8685" fill-rule="evenodd"><path d="m.798 293.03v-1.323l.794.529z"/><path d="m5.03 293.03v-1.323l-.794.529z"/></g><g transform="matrix(.99999 0 0 .99999 5.418-.475)"><g transform="matrix(.43294 0 0 .43294-213.9 59.752)"><circle cx="488.27" cy="542.35" r="5.5" fill="url(#0)"/><g fill="#b11716"><circle r=".6" cy="542.3" cx="485.18"/><circle r=".6" cy="542.3" cx="491.35"/></g></g><g fill="none" fill-rule="evenodd" stroke="#b11716" stroke-linecap="round" stroke-width=".51" transform="matrix(.29032 0 0 .29032-3.352 209.18)"><path d="m8.176 291.66c-.948-.339-1.68.258-2.172.975"/><path d="m-2.433 291.66c.948-.339 1.68.258 2.172.975"/></g><path d="m476 527.1c0 0-.457-.767.298-.786 0 0 1.441.311 2.804-.819.647-.391.674.502.674.502-.041 1.347-1.558 1.682-1.558 1.682 0 0-1.459.535-2.219-.579" opacity=".997" transform="matrix(.43294 0 0 .43294-209.18 68.12)" fill="#b11716"/></g></g></svg>