<svg xmlns="http://www.w3.org/2000/svg" width="22" height="22" viewBox="0 0 5.8208332 5.8208335"><defs><linearGradient id="0" x1="488.21" y1="547.65" x2="488.11" y2="537.75" gradientUnits="userSpaceOnUse"><stop stop-color="#ffeb96"/><stop offset="1" stop-color="#fff1b7"/></linearGradient></defs><g transform="matrix(.29032 0 0 .29032.57-81.51)"><g transform="matrix(1.49127 0 0 1.49127-720.08-518.01)"><circle cx="488.27" cy="542.35" r="5.408" fill="url(#0)"/><g fill="#414141"><circle r=".6" cy="542.3" cx="485.18"/><circle r=".6" cy="542.3" cx="491.35"/></g></g><path d="m14.924521 290.68417a6.864489 2.910919 0 0 1 -6.864489 2.91092 6.864489 2.910919 0 0 1 -6.864489 -2.91092 6.864489 2.910919 0 0 1 6.864489 -2.91092 6.864489 2.910919 0 0 1 6.864489 2.91092m1.337594.10498a8.202084 8.202084 0 0 1 -8.202083 8.20209 8.202084 8.202084 0 0 1 -8.202084 -8.20209 8.202084 8.202084 0 0 1 8.202084 -8.20208 8.202084 8.202084 0 0 1 8.202083 8.20208" fill="#414141" fill-rule="evenodd"/></g></svg>