<svg xmlns="http://www.w3.org/2000/svg" width="22" height="22" viewBox="0 0 5.8208332 5.8208335"><defs><linearGradient id="0" x1="488.2" y1="547.74" x2="488.11" y2="537.68" gradientUnits="userSpaceOnUse"><stop stop-color="#ffeb96"/><stop offset="1" stop-color="#fff1b7"/></linearGradient></defs><g transform="translate(0-291.18)"><g transform="matrix(.43294 0 0 .43294-209.18 68.12)"><circle cx="488.27" cy="542.35" r="5.5" fill="url(#0)" transform="translate(1.612-20.413)"/><g transform="translate(-6.818-.4)"><path d="m499.05 523.96c0 .07.783.139.779.207-.11 1.575-1.461 2.821-3.116 2.827-1.648.006-3.01-1.222-3.135-2.788-.006-.074.305-.15.304-.225l2.82-.022z" fill="#f7aa86"/><path d="m493.66 523.64h6.077c.049 0 .088.039.088.088v.385c0 .049-.001.206-.001.206h-6.234c0 0-.001-.157-.001-.206v-.385c0-.049.039-.088.088-.088" fill="#f3f3f3"/></g></g><g transform="translate(-.017)" fill="none" fill-rule="evenodd" stroke="#414141" stroke-linejoin="round" stroke-linecap="round" stroke-width=".146"><path d="m1.177 294.07c.138-.384.719-.384.845 0"/><path d="m3.834 294.07c.138-.384.719-.384.845 0"/></g></g></svg>