<svg xmlns="http://www.w3.org/2000/svg" width="22" height="22" viewBox="0 0 5.8208332 5.8208335"><defs><linearGradient id="0" x1="488.2" y1="547.74" x2="488.11" y2="537.68" gradientUnits="userSpaceOnUse"><stop stop-color="#ffeb96"/><stop offset="1" stop-color="#fff1b7"/></linearGradient></defs><g transform="translate(0-291.18)"><g transform="matrix(.43295 0 0 .43295-208.49 59.28)"><circle cx="488.27" cy="542.35" r="5.5" fill="url(#0)"/><circle r=".6" cy="542.3" cx="491.35" fill="#414141" transform="translate(-.55)"/><path d="m488.42 544.39c-1.444-.213-1.628 1.01-.754 1.342-.278.392-.392 1.176.619.99" fill="none" fill-rule="evenodd" stroke="#414141" stroke-linejoin="round" stroke-linecap="round" stroke-width=".352"/></g><path d="m1.161 294.14c.007-.525.789-.484.778 0" fill="none" fill-rule="evenodd" stroke="#414141" stroke-linejoin="round" stroke-linecap="round" stroke-width=".134"/><path d="m418.08 532.92c-.322-.317-.767-.476-1.334-.476-.157 0-.317.028-.481.082-.163.055-.316.129-.456.223-.141.093-.262.181-.363.263-.101.082-.198.169-.289.261-.091-.092-.188-.179-.289-.261-.101-.082-.222-.169-.363-.263-.141-.093-.293-.168-.456-.223-.163-.055-.324-.082-.481-.082-.568 0-1.012.159-1.334.476-.322.317-.483.757-.483 1.32 0 .171.03.348.089.53.06.182.127.336.203.464.076.128.162.253.259.374.096.122.167.205.211.251.044.046.079.079.105.1l2.372 2.31c.046.046.101.069.167.069.066 0 .122-.023.167-.069l2.368-2.303c.58-.586.871-1.161.871-1.727 0-.563-.161-1-.483-1.32" transform="matrix(.19086-.08365.08365.19086-122.69 228.2)" fill="#f7aa86"/></g></svg>