<svg xmlns="http://www.w3.org/2000/svg" width="22" height="22" viewBox="0 0 5.8208332 5.8208335"><defs><linearGradient id="0" x1="482.21" y1="545.31" x2="482.11" y2="535.25" gradientUnits="userSpaceOnUse"><stop stop-color="#ffeb96"/><stop offset="1" stop-color="#fff1b7"/></linearGradient></defs><g transform="translate(0-291.18)"><circle r="5.5" cy="539.92" cx="482.27" fill="url(#0)" transform="matrix(.43294 0 0 .43294-205.88 60.33)"/><g transform="translate(-7.666-1.242)"><g transform="matrix(.99533-.09656.09656.99533-43.635 9.139)" fill="none" fill-rule="evenodd" stroke="#414141" stroke-linecap="round" stroke-width=".132"><path d="m24.511 289.96c.003-.572.683-.632.815-.107"/><path d="m27.17 289.74c.003-.572.683-.632.815-.107"/><path d="m25.03 291.28c.755.849 1.97.693 2.676-.081"/></g><g transform="translate(13.817.752)" fill="#ff8887"><path d="m-4.549 294.81c-.05.006-.093.041-.107.097l-.052.208c-.007-.005-.012-.016-.022-.019-.039-.014-.08.009-.09.052l-.038.154c-.011.043.013.088.052.101.039.014.079-.001.09-.052l.014-.056c.017.026.04.048.07.058.069.024.139-.017.158-.091l.011-.044c.016.035.044.063.08.076.069.024.139-.016.158-.091l.067-.269c.019-.074-.022-.154-.09-.177-.069-.024-.139.017-.158.091l-.011.044c-.016-.035-.044-.063-.08-.076-.017-.006-.035-.007-.051-.006"/><path d="m-1.987 294.3c-.049.007-.092.044-.104.1l-.047.21c-.007-.005-.013-.016-.022-.019-.04-.013-.08.011-.089.054l-.034.155c-.001.043.015.087.055.1.04.013.079-.012.088-.055l.013-.057c.017.026.041.047.071.057.069.022.139-.02.155-.095l.001-.044c.017.034.045.062.082.074.069.022.139-.02.155-.095l.061-.27c.017-.075-.025-.153-.095-.175-.069-.022-.139.02-.156.095l-.001.044c-.017-.034-.045-.062-.082-.074-.017-.006-.035-.007-.051-.005"/></g></g></g></svg>