<svg xmlns="http://www.w3.org/2000/svg" width="22" height="22" viewBox="0 0 5.8208332 5.8208335"><defs><linearGradient id="0" x1="488.2" y1="547.74" x2="488.11" y2="537.68" gradientUnits="userSpaceOnUse"><stop stop-color="#ffeb96"/><stop offset="1" stop-color="#fff1b7"/></linearGradient></defs><g transform="translate(0-291.18)"><g transform="matrix(.43294 0 0 .43294-209.18 68.12)"><g transform="translate(1.612-20.413)"><circle r="5.5" cy="542.35" cx="488.27" fill="url(#0)"/><g fill="#414141"><circle cx="485.18" cy="542.3" r=".6"/><circle cx="491.35" cy="542.3" r=".6"/></g></g><g transform="translate(-6.818-.4)" fill="#f7aa86"><path d="m499.05 523.96c0 .07.783.139.779.207-.11 1.575-1.461 2.821-3.116 2.827-1.648.006-3.01-1.222-3.135-2.788-.006-.074.305-.15.304-.225l2.82-.022z"/><path d="m493.66 523.64h6.077c.049 0 .088.039.088.088v.385c0 .049-.001.206-.001.206h-6.234c0 0-.001-.157-.001-.206v-.385c0-.049.039-.088.088-.088"/></g></g><path d="m2.113 294.66h1.594v.769.773c0 .426-.343.769-.769.769h-.057c-.426 0-.769-.343-.769-.769v-.773z" fill="#eb8671" fill-rule="evenodd"/></g></svg>