<svg xmlns="http://www.w3.org/2000/svg" xmlns:xlink="http://www.w3.org/1999/xlink" width="22" height="22" viewBox="0 0 5.8208332 5.8208335"><defs><linearGradient id="0" x1="492.39" y1="546.82" x2="492.3" y2="536.75" gradientUnits="userSpaceOnUse"><stop stop-color="#ffeb96"/><stop offset="1" stop-color="#fff1b7"/></linearGradient></defs><g transform="translate(0-290.91)"><circle cx="492.45" cy="541.43" r="5.5" fill="url(#0)" transform="matrix(.43294 0 0 .43294-210.3 59.42)"/><g transform="matrix(.72501 0 0 .72501.405 80.65)"><path d="m2.903 295.03c-.086 0-.553.002-.553.002 0 .735.553 1.101 1.106 1.103.553 0 1.106-.368 1.106-1.106 0 0-.465.002-.553.002-1.018 0-.165-.002-.553 0-.388-.002.467 0-.553 0z" fill="#f4f1e9"/><path d="m417.59 527.35c-.653-.644-1.555-.965-2.707-.965-.319 0-.644.056-.976.167-.332.112-.64.262-.926.452-.285.189-.531.367-.737.533-.206.166-.401.343-.586.529-.185-.187-.381-.363-.586-.529-.206-.166-.451-.344-.737-.533-.285-.189-.594-.34-.926-.452-.332-.112-.657-.167-.976-.167-1.152 0-2.054.322-2.707.965-.653.644-.98 1.536-.98 2.678 0 .348.06.706.181 1.074.121.369.258.683.413.942.154.259.329.513.524.759.195.247.338.416.428.51.09.093.161.161.212.202l4.813 4.687c.093.094.206.14.339.14.134 0 .247-.047.339-.14l4.805-4.672c1.178-1.189 1.766-2.356 1.766-3.504 0-1.142-.327-2.035-.98-2.678" transform="matrix(.13748 0 0 .13748-51.32 220.62)" fill="#f7aa86" id="1"/><use transform="translate(-3.633)" xlink:href="#1"/></g></g></svg>