<svg xmlns="http://www.w3.org/2000/svg" xmlns:xlink="http://www.w3.org/1999/xlink" width="22" height="22" viewBox="0 0 5.8208332 5.8208335"><defs><linearGradient id="0" x1="503.17" y1="551.38" x2="503" y2="533.38" gradientUnits="userSpaceOnUse"><stop stop-color="#ffeb96"/><stop offset="1" stop-color="#eb8671"/></linearGradient></defs><g transform="translate(0-291.18)"><g transform="matrix(.55946 0 0 .55946-8.743 130.79)"><circle cx="503.28" cy="541.74" r="9.831" fill="url(#0)" transform="matrix(.43294 0 0 .43294-197.06 57.34)"/><path d="m23.648 290.77c-.492-.176-.872.134-1.127.506" fill="none" fill-rule="evenodd" stroke="#414141" stroke-linecap="round" stroke-width=".265"/><g transform="matrix(1.50198 0 0 1.50198-63.19-137.42)" fill="#f3f3f3"><g fill-rule="evenodd"><ellipse cx="54.602" cy="287.37" rx=".293" ry=".288"/><ellipse cx="54.23" cy="287.64" rx=".397" ry=".362"/><ellipse cx="54.58" cy="287.97" rx=".38" ry=".357"/><circle cx="54.775" cy="287.7" r=".282"/></g><path d="m54.734 287.19l.667-.426-.506.851z" fill-rule="evenodd" stroke="#f3f3f3" stroke-linejoin="round" stroke-linecap="round" stroke-width=".079" id="1"/></g><g transform="matrix(-1.50189 0 0 1.50198 104.82-137.42)" fill="#f3f3f3"><g fill-rule="evenodd"><ellipse cx="54.602" cy="287.37" rx=".293" ry=".288"/><ellipse cx="54.23" cy="287.64" rx=".397" ry=".362"/><ellipse cx="54.58" cy="287.97" rx=".38" ry=".357"/><circle cx="54.775" cy="287.7" r=".282"/></g><use xlink:href="#1"/></g><path d="m18.14 290.77c.492-.176.872.134 1.127.506" fill="none" fill-rule="evenodd" stroke="#414141" stroke-linecap="round" stroke-width=".265"/></g><g transform="matrix(.43294 0 0 .43294-208.43 59.11)" fill="#414141"><circle cx="485.38" cy="542.3" r=".6"/><circle cx="491.03" cy="542.3" r=".6"/></g><path d="m1.455 298.59c.476-1.323 2.476-1.323 2.91 0" fill="none" fill-rule="evenodd" stroke="#414141" stroke-linejoin="round" stroke-linecap="round" stroke-width=".503" transform="matrix(.29032 0 0 .29032 2.065 208.34)"/></g></svg>