<svg xmlns="http://www.w3.org/2000/svg" xmlns:xlink="http://www.w3.org/1999/xlink" width="22" height="22" viewBox="0 0 5.8208332 5.8208335"><defs><linearGradient gradientUnits="userSpaceOnUse" y2="537.68" x2="488.11" y1="547.74" x1="488.2" id="0"><stop stop-color="#ffeb96"/><stop offset="1" stop-color="#fff1b7"/></linearGradient></defs><g transform="translate(0-291.18)"><circle r="5.5" cy="542.35" cx="488.27" fill="url(#0)" transform="matrix(.43295 0 0 .43295-208.49 59.28)"/><g transform="translate(-6.313.238)" fill="none" fill-rule="evenodd" stroke="#414141" stroke-linejoin="round" stroke-linecap="round" stroke-width=".146"><path d="m7.442 293.78c.138.384.719.384.845 0"/><path d="m10.16 293.78c.138.384.719.384.845 0"/></g><g fill-rule="evenodd"><circle cx="3.393" cy="295.43" r=".331" fill="#f7aa86"/><path d="m-87.39864-282.12054a.330729 .330729 0 0 1 -.140041 .27022 .330729 .330729 0 0 1 -.301527 .0414" transform="matrix(-.95824-.28596.28596-.95824 0 0)" fill="#fff"/></g><path d="m7.374 297.93c.194 0 .175-.252.016-.252h-.645l.677-.879c.107-.115.064-.258-.087-.258h-.8c-.159 0-.173.244 0 .244h.585l-.706.939c-.071.085-.022.206.103.206h.857" transform="matrix(.60973 0 0 .60973.225 111.39)" fill="#97cee4" id="1"/><use transform="matrix(.71294 0 0 .71294.342 84.2)" xlink:href="#1"/></g></svg>