<svg xmlns="http://www.w3.org/2000/svg" width="22" height="22" viewBox="0 0 5.8208332 5.8208335"><g transform="matrix(.00917 0 0 .00917.44.441)" fill="#4d4d4d"><path d="m507.96 311.64c-4.549 1.235-9.33 1.945-14.279 1.945-11.824 0-22.996-3.742-32.06-10.443-9.06 6.701-20.234 10.443-32.06 10.443-11.824 0-22.996-3.742-32.06-10.443-9.06 6.701-20.232 10.443-32.06 10.443-11.825 0-22.996-3.742-32.06-10.443-9.06 6.701-20.232 10.443-32.06 10.443-11.825 0-22.996-3.742-32.06-10.443-9.06 6.701-20.232 10.443-32.06 10.443-11.824 0-22.993-3.742-32.06-10.443-9.06 6.701-20.233 10.443-32.06 10.443-11.824 0-22.993-3.742-32.06-10.443-9.07 6.701-20.236 10.443-32.06 10.443-11.824 0-22.993-3.742-32.06-10.443-9.06 6.701-20.233 10.443-32.06 10.443-4.954 0-9.731-.71-14.281-1.945v48.36h477.36v-48.36" fill="#eabf94"/><g fill="#de6f96"><path d="m30.6 471.18c0 .872.117 1.716.257 2.549h476.85c.141-.833.256-1.677.256-2.549v-95.88h-477.36v95.88"/><path d="m30.6 295.59c4.407 1.726 9.223 2.692 14.281 2.692 13.568 0 25.425-6.873 32.06-17.14 6.634 10.271 18.491 17.14 32.06 17.14 13.568 0 25.425-6.873 32.06-17.14 6.631 10.272 18.488 17.14 32.06 17.14 13.568 0 25.426-6.873 32.06-17.14 6.631 10.271 18.489 17.14 32.06 17.14 13.568 0 25.426-6.873 32.06-17.14 6.63 10.272 18.488 17.14 32.06 17.14 13.568 0 25.426-6.873 32.06-17.14 6.631 10.272 18.488 17.14 32.06 17.14 13.569 0 25.426-6.873 32.06-17.14 6.631 10.272 18.488 17.14 32.06 17.14 13.569 0 25.426-6.873 32.06-17.14 6.631 10.272 18.488 17.14 32.06 17.14 5.059 0 9.875-.967 14.281-2.692 13.715-5.374 23.385-18.231 23.385-33.26 0-1.506-.129-2.98-.318-4.44.199-.759.318-1.539.318-2.341v-46.11c0-6.702-7.289-12.136-16.279-12.136h-226.41v-7.65-7.65-30.921c0-8.449-6.852-15.3-15.301-15.3h-8.161c-8.449 0-15.3 6.851-15.3 15.3v30.921 7.65 7.65h-226.4c-8.99 0-16.279 5.432-16.279 12.136v46.11c0 .802.119 1.582.318 2.341-.19 1.457-.318 2.935-.318 4.44 0 15.02 9.67 27.885 23.385 33.26"/><path d="m523.26 489.02h-507.96c-8.449 0-15.3 8.617-15.3 19.247v1.282c0 10.631 6.851 19.247 15.3 19.247h507.96c8.449 0 15.301-8.616 15.301-19.247v-1.282c0-10.627-6.852-19.247-15.301-19.247"/></g><path d="m272.34 126.1c.576.021 1.154.092 1.719-.024 17.826-3.685 35.09-27.452 31.455-48.52-3.369-19.51-17.531-27.666-25.727-41.895-3.396-5.89-5.17-13.779-3.91-21.515.816-5-.064-5.79-3.473-2.038-8.752 9.624-18.667 22.274-23.513 32.375-5.548 11.27-6.071 19.324-2.843 31.377.823 3.01 1.671 5.343 2.781 7.656 1.953 4.061-.177 7.252-4.905 5.417-2.35-.912-4.511-2.154-6.328-3.623-3.944-3.186-5.447-3.204-4.367 1.747 3.951 18.12 20.512 38.32 39.11 39.04" fill="#ffefab"/></g></svg>