<?xml version="1.0" encoding="UTF-8" standalone="no"?>
<svg
   xmlns:dc="http://purl.org/dc/elements/1.1/"
   xmlns:cc="http://creativecommons.org/ns#"
   xmlns:rdf="http://www.w3.org/1999/02/22-rdf-syntax-ns#"
   xmlns:svg="http://www.w3.org/2000/svg"
   xmlns="http://www.w3.org/2000/svg"
   xmlns:xlink="http://www.w3.org/1999/xlink"
   xmlns:sodipodi="http://sodipodi.sourceforge.net/DTD/sodipodi-0.dtd"
   xmlns:inkscape="http://www.inkscape.org/namespaces/inkscape"
   viewBox="0 0 48 48"
   id="svg2"
   version="1.1"
   inkscape:version="0.91 r13725"
   sodipodi:docname="applications-science.svg">
  <metadata
     id="metadata29">
    <rdf:RDF>
      <cc:Work
         rdf:about="">
        <dc:format>image/svg+xml</dc:format>
        <dc:type
           rdf:resource="http://purl.org/dc/dcmitype/StillImage" />
      </cc:Work>
    </rdf:RDF>
  </metadata>
  <sodipodi:namedview
     pagecolor="#ffffff"
     bordercolor="#666666"
     borderopacity="1"
     objecttolerance="10"
     gridtolerance="10"
     guidetolerance="10"
     inkscape:pageopacity="0"
     inkscape:pageshadow="2"
     inkscape:window-width="1366"
     inkscape:window-height="687"
     id="namedview27"
     showgrid="false"
     inkscape:zoom="4.9166667"
     inkscape:cx="24"
     inkscape:cy="48.40678"
     inkscape:window-x="0"
     inkscape:window-y="0"
     inkscape:window-maximized="1"
     inkscape:current-layer="svg2" />
  <defs
     id="defs4">
    <linearGradient
       id="linearGradient4279"
       x1="6.978"
       y1="27.421"
       x2="6.576"
       y2="8.699"
       gradientUnits="userSpaceOnUse">
      <stop
         style="stop-color:#841ac8;stop-opacity:1"
         id="stop4281"
         stop-color="#69159f" />
      <stop
         id="stop4283"
         stop-color="#b92ff5"
         offset="1" />
    </linearGradient>
    <linearGradient
       inkscape:collect="always"
       xlink:href="#linearGradient4279"
       id="linearGradient4224"
       x1="-26.644352"
       y1="7.3220339"
       x2="-27.050562"
       y2="-38.440678"
       gradientUnits="userSpaceOnUse"
       gradientTransform="matrix(1.0535514,0,0,1.0535514,53.142303,40.071124)" />
  </defs>
  <circle
     cx="24"
     cy="24"
     id="circle23-8"
     style="fill:url(#linearGradient4224);fill-opacity:1;stroke:none;stroke-width:2.44038129"
     r="24" />
  <g
     transform="matrix(1.6013 0 0 1.6013-617.36-827.48)"
     id="g21">
    <path
       d="m31.821 4.074c-.31-1.174-1.511-1.875-2.685-1.566-1.176.309-1.877 1.511-1.568 2.686.146.551.488.996.933 1.284-.107 1.614-.588 3.58-2.01 5.299-4-4.569-5.696-6.434-6.479-7.189.418-.265.771-.43 1-.523.529.44 1.254.629 1.97.44 1.173-.309 1.875-1.512 1.565-2.685-.311-1.175-1.514-1.877-2.687-1.569-.881.232-1.495.966-1.618 1.813-1.656.703-7.309 3.832-6.466 13.582-6.191.18-9.447 1.819-10.928 2.889-.381-.12-.798-.139-1.213-.03-1.174.312-1.875 1.512-1.567 2.688.31 1.175 1.512 1.877 2.686 1.565.968-.254 1.614-1.117 1.637-2.069l6.472 6.794c-.152.094-.301.181-.446.257-.516-.376-1.19-.525-1.856-.353-1.174.31-1.876 1.513-1.567 2.688.31 1.175 1.512 1.877 2.687 1.566.916-.24 1.541-1.026 1.627-1.918 3.03-1.504 5.535-5.198 4.881-11.935 1.943-.009 3.734-.228 5.343-.651 2.406-.633 4.406-1.716 5.921-3.229 1.911-1.911 3-4.414 3.188-7.291.932-.448 1.449-1.506 1.175-2.543m-20.09 22.749l-6.753-7.088c.433-.235.97-.487 1.632-.729l6.326 6.303c-.362.623-.777 1.119-1.205 1.514m1.701-2.539l-5.667-5.647c.871-.244 1.902-.461 3.11-.612l3.242 3.094c-.095 1.261-.342 2.304-.685 3.165m-1.148-6.406c.552-.043 1.135-.072 1.751-.086.073.666.111 1.289.121 1.872l-1.872-1.786m3.66-2.239c-.141-1.48-.119-2.781.019-3.92l3.165 3.712c-.996.144-2.06.214-3.184.208m4.411-.427l-4.154-4.87c.222-.963.531-1.787.892-2.491 1.349 1.457 3.855 4.284 5.838 6.54-.788.344-1.649.618-2.576.821m3.572-1.316c-3.516-4.01-5.31-6.01-6.267-7.01.479-.703.997-1.25 1.491-1.667.847.837 4.134 4.537 6.602 7.345-.535.502-1.148.946-1.826 1.329"
       fill="#fff"
       fill-opacity=".85"
       transform="matrix(.59674 0 0 .59674 390.64 522.81)"
       opacity=".9"
       id="path25" />
  </g>
</svg>
