<svg xmlns="http://www.w3.org/2000/svg" viewBox="0 0 48 48"><defs><linearGradient y1="545.8" x2="0" y2="517.8" gradientUnits="userSpaceOnUse"><stop stop-color="#3889e9"/><stop offset="1" stop-color="#5ea5fb"/></linearGradient><linearGradient id="0" gradientUnits="userSpaceOnUse" y1="546.07" x2="0" y2="518.33"><stop stop-color="#ff9300"/><stop offset="1" stop-color="#ffd702"/></linearGradient><linearGradient id="1" y1="98.87" x2="0" y2="-4.869" gradientUnits="userSpaceOnUse"><stop stop-color="#e3e3e3"/><stop offset="1" stop-color="#fffcff"/></linearGradient></defs><g transform="matrix(1.71429 0 0 1.71429-662.7-887.66)"><circle r="14" cy="531.8" cx="400.57" fill="url(#0)"/><circle cx="400.57" cy="531.8" r="14" fill="#5ea5fb" fill-opacity="0"/><path d="m80.58 9.423c-8.377-8.376-18.895-11.44-22.244-8.09l-13.482 13.482c-2.045 2.045-3.828 8.89-3.01 15.818l-40.805 40.806c-2.42 2.42-.459 8.305 4.381 13.144 4.84 4.841 10.725 6.801 13.145 4.383l40.805-40.805c6.93.818 13.773-.967 15.818-3.01l13.482-13.482c3.35-3.351.287-13.868-8.09-22.245m-44.873 40.779c-1.863-1.863-1.256-5.484 1.348-8.09 2.605-2.604 6.229-3.211 8.09-1.348 1.859 1.86 1.256 5.484-1.348 8.089-2.606 2.605-6.231 3.209-8.09 1.349zm33.752-29.657c-6.49-6.489-8.119-15.05-7.543-15.63.578-.578 8.803 1.389 15.295 7.878 6.488 6.491 8.436 14.734 7.877 15.294-.559.559-9.141-1.051-15.629-7.542" transform="matrix(.17252 0 0 .17252 392.91 524.01)" fill="url(#1)"/></g></svg>