<svg xmlns="http://www.w3.org/2000/svg" viewBox="0 0 48 48"><defs><linearGradient y1="545.8" x2="0" y2="517.8" gradientUnits="userSpaceOnUse"><stop stop-color="#3889e9"/><stop offset="1" stop-color="#5ea5fb"/></linearGradient><linearGradient id="0" gradientUnits="userSpaceOnUse" x1="400.51" y1="546.07" x2="400.7" y2="517.77"><stop stop-color="#2e3e46"/><stop offset="1" stop-color="#435a64"/></linearGradient><linearGradient id="1" x1="41.16" y1="89.36" x2="54.04" y2="20.836" gradientUnits="userSpaceOnUse"><stop stop-color="#e3e3e3"/><stop offset="1" stop-color="#fffcff"/></linearGradient></defs><g transform="matrix(1.71429 0 0 1.71429-662.7-887.66)"><circle r="14" cy="531.8" cx="400.57" fill="url(#0)"/><circle cx="400.57" cy="531.8" r="14" fill="#5ea5fb" fill-opacity="0"/><path d="m72.77 74.28c-13.366-10.451-3.933-53.44-3.933-53.44 0 0 14.631 0 16.336 0 1.705 0 8.389-1.072 8.389-9.08 0-9.846-8.168-9.241-8.168-9.241 0 0-44.774 0-60.15 0-9.873 0-18.784 11.304-23.899 19.389-2.723 4.318-1.183 5.528 3.493 3.493 16.392-7.178 21.01-4.593 21.01-4.593 1.155 5.528 1.54 30.473-2.667 40.32-4.263 9.269-12.13 21.01-.578 27.915 9.02 5.115 18.481-5.391 17.546-23.268-.44-9.461-1.183-44.938-1.183-44.938h15.07c-.469 5.528-3.02 33.745-.357 50.47 2.777 27.915 33.11 22.497 38.777 6.685 1.402-4.373 1.073-7.729.027-10.26-1.926-4.702-5.144-4.949-4.785-2.75.221 1.402.083 2.777-.138 4.02-.661 3.823-8.471 9.817-14.797 5.281" fill="#fff" fill-opacity=".855" transform="matrix(.14254 0 0 .14254 393.45 525.46)" opacity=".9"/></g></svg>