<svg xmlns="http://www.w3.org/2000/svg" viewBox="0 0 48 48"><defs><linearGradient id="0" x1="403.66" y1="545.75" x2="402.65" y2="517.44" gradientUnits="userSpaceOnUse"><stop stop-color="#d3d3d3"/><stop offset="1" stop-color="#fcf9f9"/></linearGradient><linearGradient id="1" x1="12.613" y1="24.02" x2="11.598" y2="-.7" gradientUnits="userSpaceOnUse"><stop stop-color="#00cafe"/><stop offset="1" stop-color="#1460f3"/></linearGradient></defs><g transform="matrix(1.61348 0 0 1.61348-622.39-833.94)"><circle cx="400.62" cy="531.73" r="14.875" fill="url(#0)"/><path d="m23.09 18.561c-.37.644-1.042 1-1.734 1-.339 0-.683-.086-.998-.268l-5.982-3.455v6.91c0 1.104-.896 2-2 2-1.104 0-2-.896-2-2v-6.911l-5.985 3.456c-.315.182-.659.268-.998.268-.691 0-1.364-.356-1.734-1-.552-.957-.225-2.18.732-2.73l5.983-3.456-5.985-3.456c-.957-.553-1.284-1.774-.732-2.731.552-.957 1.776-1.285 2.732-.732l5.984 3.455v-6.911c0-1.104.896-2 2-2 1.104 0 2 .896 2 2v6.91l5.982-3.455c.956-.553 2.183-.225 2.732.732.552.957.225 2.18-.732 2.731l-5.981 3.456 5.982 3.455c.957.552 1.286 1.775.734 2.732" transform="matrix(.73501 0 0 .73501 391.58 523.08)" fill="url(#1)"/></g></svg>