<svg xmlns="http://www.w3.org/2000/svg" viewBox="0 0 48 48"><defs><linearGradient id="2" gradientUnits="userSpaceOnUse" x1="173.09" y1="358.15" x2="205.13" y2="7.441"><stop stop-color="#e3e3e3"/><stop offset="1" stop-color="#fffcff"/></linearGradient><linearGradient id="3" x1="238.07" y1="372.36" x2="205.13" y2="7.441" gradientUnits="userSpaceOnUse"><stop stop-color="#e8e8e8" stop-opacity=".925"/><stop offset="1" stop-color="#fffcff"/></linearGradient><linearGradient id="1" x1="226.91" y1="358.15" x2="205.13" y2="7.441" gradientUnits="userSpaceOnUse"><stop stop-color="#f3f3f3"/><stop offset="1" stop-color="#fffcff"/></linearGradient><linearGradient y1="545.8" x2="0" y2="517.8" gradientUnits="userSpaceOnUse"><stop stop-color="#3889e9"/><stop offset="1" stop-color="#5ea5fb"/></linearGradient><linearGradient id="0" gradientUnits="userSpaceOnUse" x1="400.51" y1="546.07" x2="400.7" y2="517.77"><stop stop-color="#2fae61"/><stop offset="1" stop-color="#4bdf88"/></linearGradient></defs><g transform="matrix(.07429 0 0 .07429 9.399 8.612)" fill="url(#3)"><circle r="14" cy="531.8" cx="400.57" transform="matrix(23.0733 0 0 23.0733-9046.21-12063.11)" fill="url(#0)"/><circle cx="400.57" cy="531.8" r="14" transform="matrix(23.0733 0 0 23.0733-9046.21-12063.11)" fill="#5ea5fb" fill-opacity="0"/><g fill="#fff" fill-opacity=".851" transform="matrix(.92594 0 0 .92594-33.98-.031)"><path d="m241.9 62.56l-241.9 116.52v10.87l241.9 116.52 242.11-116.63v-10.65z"/><path d="m83.81 251.57v69.7l145.84 70.25h24.506l145.44-70.06c.14-.307.271-.613.402-.922v-68.972l-158.09 76.15-158.09-76.15"/><path d="m458.51 358.19v-135.59l-19.15 9.65v125.94l-12.48 38.01 18.86 25.24h6.38l18.86-25.24z"/></g></g></svg>