<svg xmlns="http://www.w3.org/2000/svg" viewBox="0 0 48 48"><defs><linearGradient y1="545.8" x2="0" y2="517.8" gradientUnits="userSpaceOnUse"><stop stop-color="#3889e9"/><stop offset="1" stop-color="#5ea5fb"/></linearGradient><linearGradient id="0" gradientUnits="userSpaceOnUse" y1="544.8" x2="0" y2="517.8"><stop stop-color="#373a3d"/><stop offset="1" stop-color="#727273"/></linearGradient><linearGradient id="1" y1="542.2" x2="0" y2="526.2" gradientUnits="userSpaceOnUse"><stop stop-color="#d0d0d0"/><stop offset="1" stop-color="#f1eeee"/></linearGradient></defs><g transform="matrix(1.71418 0 0 1.71418-682.31-892.62)" fill="url(#1)"><circle r="14" cy="531.8" cx="400.57" transform="translate(11.466 2.903)" fill="url(#0)"/><circle cx="400.57" cy="531.8" r="14" transform="translate(11.466 2.903)" fill="#5ea5fb" fill-opacity="0"/><g fill="#fff"><path d="m400.54 517.03c-1.862 0-3.634.355-5.272.979-.119.109-.274.194-.396.183-.017-.002-.033-.012-.051-.019-.807.338-1.573.752-2.299 1.221.094.153.122.324-.072.407-.033.013-.443.056-.587.053-2.065 1.501-3.722 3.519-4.781 5.875.017-.003.032-.001.05-.011.161-.003.392.043.546.076.142.029.257.125.381.134.35.027.434-.246.719-.398.295.041.491-.05.757-.021.182.021.313.214.454.225.119.012.224-.112.339-.094.112.018.305.261.323.398.024.17-.125.323-.076.51.178.182.502.218.757.323.166-.137.022-.39 0-.588-.003-.087.012-.165 0-.245-.015-.136-.073-.261-.074-.378-.003-.539.435-.791.796-1 .156-.093.28-.255.415-.323.192-.096.334-.118.493-.208.287-.161.533-.29.757-.473.103-.244.001-.572.019-.813.104-.063.193.027.303.019.173-.036.187-.28.285-.378.057-.056.213-.096.284-.151.172-.135.229-.34.379-.398.054-.022.179-.015.264-.038.112-.03.272-.162.454-.225.119-.041.391-.05.437-.095.056-.057-.0001-.217.019-.303.092-.427.735-.518 1.116-.662.267-.101.54-.286.833-.229-.058.203-.33.131-.284.378.064.342.522-.098.643-.149.231-.097.627-.157.93-.267.266-.097.742-.245.492-.549-.209-.012-.31.245-.492.323-.126.021-.101-.105-.209-.115-.102-.012-.159.094-.264.076-.104-.017-.25-.181-.267-.303-.041-.316.267-.446.398-.682-.087-.286-.482-.058-.721-.17.024-.17.199-.288.398-.32.163-.027.529-.013.626.073.056.048.004.167.095.247.096.087.215.078.34.058.045-.216-.28-.162-.245-.304.256-.167.672-.03.985-.076.18-.027.369-.154.529-.244.152-.087.349-.237.51-.095.043.155-.14.206-.226.283-.29.258-.588.553-.813.852.138.135.389.067.623.095.091.012.206.039.303.057.113.021.233.014.321.037.159.039.202.209.359.209.259 0 .262-.281.115-.456.046-.179.119-.271.057-.396-.117-.233-.545-.012-.567-.303-.013-.189.158-.18.226-.321-.031-.365.299-.391.264-.718-.015-.137-.131-.139-.226-.267-.049-.063-.072-.184-.128-.238-.442-.038-.888-.063-1.341-.063zm-7.618 2.979h.002c.088.012.195.107.301.115.101.003.184-.056.247-.038.158.041.225.281.076.398-.124.015-.172-.054-.265-.038-.257.043-.356.547-.548.531-.181-.014-.279-.457-.095-.588.012-.115-.084-.133-.078-.247.055-.07.21-.145.36-.133m-.852.059c.053.002.092.014.112.037-.025.202-.183.189-.339.283-.269.162-.425.41-.51.757-.025.101-.29.368-.418.342-.3-.063.083-.617.151-.701.076-.093.177-.175.267-.283.087-.104.143-.245.226-.303.091-.063.352-.139.51-.133m2.24.681c.096.002.183.018.222.057-.062.25-.6.184-.797.093.012-.094.16-.12.284-.133.087-.003.195-.021.291-.018m-1.225.461c.064-.002.129.012.196.03-.174.146-.363.228-.662.323-.144.045-.392.101-.417-.059-.03-.197.21-.151.342-.169.165-.023.347-.119.541-.125m18.799 1.122c-.023.054-.038.107-.036.159.012.091.112.179.134.303.012.066-.031.207 0 .267.091.177.33.05.5.059-.194-.267-.387-.534-.598-.787m.967 1.302c-.027.13-.116.301-.187.409-.165.251-.389.263-.626.396-.197.112-.282.299-.398.493-.125.21-.203.337-.151.642-.169.336-.425.541-.776.701-.103.047-.245.064-.34.133-.075.055-.119.201-.226.321-.133.148-.272.21-.342.323-.054.087-.072.261-.133.378-.081.159-.253.237-.359.398-.048.074-.081.225-.134.323-.12.218-.325.375-.303.567.022.185.232.218.247.379.003.091-.06.147-.057.247.003.145.101.247.112.359.028.281-.095.393-.148.585-.025.092-.014.195-.038.267-.047.141-.243.268-.247.434-.002.118.121.213.131.379.003.115-.057.237-.036.342.04.206.408.445.568.605.214.214.494.38.587.606.077.192.077.441.226.585.11.107.294.173.435.284.132.103.276.193.417.303.23.18.579.54.946.512.192-.013.388-.17.606-.209.224-.04.514-.061.74-.037.173.017.351.121.531.112.19-.012.407-.152.623-.246.173-.075.386-.159.62-.221.107-.72.164-1.458.164-2.209 0-3.02-.904-5.825-2.451-8.16m-24.417 4.961c-.314.018-.52.032-.699.112-.41.186-.33.74-.74.871-.141.045-.336.048-.491.076-.135.025-.298.098-.437.095-.038 0-.093-.029-.141-.044-.036.259-.066.522-.09.786.389.074.59.591.934.761.094.047.217.05.339.076.098.022.172.063.267.095.2.068.445.06.606.131.241.107.418.561.626.682.012.122-.024.287.019.378.098.133.236.103.398.19.193.104.252.373.435.456.063.028.222.024.321.055.251.076.333.366.548.303.141-.041.13-.187.153-.322.093-.101.195-.261.34-.264.235-.012.256.243.342.471.049.129.175.242.208.378.059.235.029.939-.021 1.08-.059.172-.293.246-.437.437-.068.09-.1.221-.151.284-.093.113-.23.142-.3.247-.039.059-.077.185-.115.264-.114.241-.266.412-.17.701.04.119.226.199.226.339.0001.165-.351.312-.378.493-.021.134.109.374.151.549.031.132.281.215.359.303.133.149.239.36.36.548.24.369.428.818.662 1.175.123.187.297.355.379.549.042.098.036.215.075.303.135.305.733.624 1.041.776.144.07.304.095.437.169.201.112.598.412.699.588.09.158.146.543.19.794.059.332.0001.587.019.947.012.195.074.39.076.585.0001.068-.036.119-.039.189 0 .011.004.024.004.036 1.859.841 3.919 1.321 6.1 1.321.394 0 .783-.021 1.169-.051.017-.029.032-.059.054-.087.089-.117.168-.219.226-.322.056-.346-.138-.587-.057-.889.091-.34.56-.547.89-.701.113-.053.229-.138.321-.17.228-.079.513-.036.721-.112.355-.13.392-.51.567-.833.083-.153.191-.306.208-.415.014-.098-.036-.19-.021-.306.017-.114.12-.213.151-.339.041-.164.059-.404.059-.587 0-.15-.07-.281-.075-.417-.025-.491.177-.546.359-.813.091-.133.125-.284.189-.379.305-.455.834-.675.796-1.362-.012-.228-.156-.742-.323-.815-.096-.041-.316-.003-.454-.057-.447-.167-.71-.721-1.174-.757-.099-.012-.19.04-.301.038-.183-.012-.46-.128-.663-.151-.129-.013-.302.038-.379 0-.118-.058-.13-.275-.226-.34-.076-.053-.225-.07-.34-.115-.186-.071-.334-.155-.549-.17-.066-.003-.149.032-.226.021-.119-.021-.213-.161-.323-.228-.138-.084-.265-.124-.322-.244.124-.408-.219-.521-.303-.757-.04-.11-.022-.243-.057-.342-.05-.141-.189-.223-.342-.34-.274-.211-.517-.409-.908-.457-.172-.022-.343.052-.551.038-.22-.013-.497-.207-.662-.395-.16-.184-.238-.349-.378-.437-.132-.085-.308-.083-.398-.169-.04-.037-.033-.102-.076-.19-.066-.138-.178-.214-.095-.379-.151-.078-.155.144-.32.115-.147-.209-.271-.308-.606-.247-.153.028-.238.222-.417.226-.146.012-.261-.163-.454-.19-.146-.021-.311.039-.415.02-.162-.032-.211-.167-.359-.264-.108-.071-.318-.192-.379-.19-.19.012-.326.404-.588.265-.128-.162.208-.247.057-.398-.115-.115-.211.053-.303.115-.105.072-.204.144-.32.187-.26.097-.423.047-.626.151-.188.097-.196.26-.303.454-.087.159-.286.39-.417.399-.159.012-.31-.222-.454-.284-.433-.188-.643.167-1 .172-.334.012-.811-.539-.794-.853.003-.192.11-.482.133-.719.021-.189.149-.302.151-.474.003-.23-.305-.407-.454-.434-.354-.065-.845.142-1.25-.021-.077-.128.091-.217.134-.342.025-.071.001-.166.036-.244.045-.121.171-.214.228-.342.042-.097.053-.238.095-.359.05-.138.141-.226.151-.323.013-.128-.034-.275-.134-.359zm5.06 4.01c.128.012.144.277.013.298-.142.022-.213-.222-.076-.286.023-.012.045-.012.063-.011v-.002" fill-opacity=".185" transform="matrix(.94944 0 0 .94944 31.706 29.821)"/><path d="m410.95 526.9l.111.023c1.287-.427 4.177 1.256 3.533 2.756-.163.236-.135.654.061.917l-3.613 3.608c-.202-.202-.652-.198-.859 0l-5.975 5.725c-.545.522-.116.965.114 1.199l1.072 1.07c.234.233.853.547 1.293.082l5.639-5.933c.197-.206.198-.65 0-.853 0 0 .003-.003 0-.003l3.628-3.62c.383.345.745.374 1.088.281.663-.181 1.032.466 1.429.939l-.179.176c-.265.268-.24.718.057 1.015.297.297.75.321 1.015.057l1.185-1.182c.265-.267.24-.718-.058-1.013-.268-.269-.657-.304-.928-.112-.813-.91-.386-1.047-1.458-2.231l-2.01-2.048c-1.446-1.416-3.325-1.414-5.145-.852" fill-opacity=".855"/></g></g></svg>