<svg xmlns="http://www.w3.org/2000/svg" viewBox="0 0 48 48"><defs><linearGradient id="0" gradientUnits="userSpaceOnUse" x1="77.29" y1="25.752" x2="75.66" y2="-19.925"><stop stop-color="#dc3c30"/><stop offset="1" stop-color="#ff786d"/></linearGradient></defs><g transform="matrix(.99999 0 0 .99999-48.37 20.882)" enable-background="new"><circle cx="72.37" cy="3.125" r="24" fill="url(#0)"/><g fill="#fff" fill-opacity=".847"><path d="m88.92 2.935c-.768 0-1.529 0-2.309 0-.21 0-.559-.013-.559-.222 0-.781 0-1.549 0-2.331 0-.21.001-.485-.2-.485-.782 0-1.544 0-2.32 0-.21 0-.518-.065-.518-.275 0-.776 0-1.538 0-2.319 0-.21-.031-.445-.241-.445-.78 0-1.544 0-2.313 0-.21 0-.484-.106-.484-.315 0-.791 0-1.562 0-2.33 0-.21-.118-.378-.327-.376-.758.006-1.534.007-2.321.007-.21 0-.39.17-.39.38 0 .786 0 1.55 0 2.309 0 .21-.097.325-.307.325-2.851 0-5.67 0-8.52 0-.21 0-.288-.115-.288-.324 0-.772 0-1.537 0-2.312 0-.21-.216-.38-.425-.38-.779 0-1.51-.0001-2.26-.007-.21-.002-.353.167-.353.376 0 .775 0 1.553 0 2.352 0 .21-.27.295-.48.295-.783 0-1.552 0-2.333 0-.21 0-.226.255-.226.464 0 .781 0 1.544 0 2.322 0 .21-.324.252-.534.252-.78 0-1.548 0-2.325 0-.21 0-.559.297-.559.507 0 .779 0 1.543 0 2.325 0 .21.001.206-.2.206-.772 0-1.532 0-2.289 0-.21 0-.549.343-.549.553 0 2.83 0 5.626 0 8.423 0 .21.339.519.549.519.763 0 1.518 0 2.288 0 .21 0 .201-.31.201-.519 0-1.797 0-3.576 0-5.36 0-.21.349-.197.558-.197.785 0 1.557 0 2.348 0 .21 0 .512-.013.512.197 0 1.801 0 3.589 0 5.395 0 .21.104.379.314.379.779 0 1.566.0001 2.317.007.21.002.408-.166.408-.376 0-.771 0-1.542 0-2.316 0-.21.047-.247.257-.247 4.91 0 9.789 0 14.679 0 .21 0 .38.104.38.314 0 .779-.0001 1.565-.007 2.324-.002.21.166.4.376.4.764 0 1.531 0 2.313 0 .209 0 .232-.277.232-.487 0-1.815 0-3.596 0-5.387 0-.21.318-.202.527-.202.792 0 1.57 0 2.36 0 .21 0 .53-.008.53.202 0 1.797 0 3.576 0 5.355 0 .21.02.519.23.519.766 0 1.515 0 2.259 0 .21 0 .55-.309.55-.519 0-2.818 0-5.616 0-8.438 0-.21-.339-.537-.549-.537m-21.1-.24c0 .21-.238.24-.447.24-.77 0-1.54 0-2.32 0-.21 0-.271-.03-.271-.239 0-.767 0-1.533 0-2.316 0-.21.061-.483.271-.483.779 0 1.545 0 2.319 0 .21 0 .448.273.448.483 0 .772 0 1.538 0 2.315m12.153.006c0 .21-.063.234-.273.234-.768 0-1.534 0-2.316 0-.21 0-.449-.024-.449-.234 0-.776 0-1.542 0-2.317 0-.209.24-.487.449-.487.773 0 1.538 0 2.316 0 .21 0 .273.277.273.487 0 .769 0 1.538 0 2.318"/><path d="m70.45 12.351c-.572 0-1.148.0001-1.71 0-1.229-.004-2.465-.009-3.694-.014-.21-.0001-.382.169-.38.379.006.759.005 1.568.005 2.328 0 .21.168.425.378.425 1.826 0 3.6 0 5.372 0 .21 0 .437-.261.437-.47 0-.757 0-1.505 0-2.266 0-.21-.199-.381-.408-.38"/><path d="m79.85 12.342c-.059.005-.091.047-.151.047-1.808.0001-3.588.04-5.396.04-.058 0-.115 0-.172 0-.095 0-.236.091-.236.301 0 .775 0 1.524 0 2.272 0 .21.234.465.444.465 1.787 0 3.56 0 5.367 0 .21 0 .266-.256.266-.466 0-.773 0-1.537 0-2.3 0-.21-.023-.367-.122-.36"/><path d="m62-6.18c.773 0 1.537 0 2.3 0 .21 0 .377-.164.376-.374-.006-.76-.007-1.524-.007-2.284 0-.21-.17-.38-.38-.38-.787 0-1.54 0-2.288 0-.21 0-.259.177-.259.387 0 .76 0 1.511 0 2.284 0 .21.049.367.259.367"/><path d="m80.41-6.159c.76-.006 1.493-.007 2.253-.007.21 0 .349-.171.349-.38 0-.788 0-1.54 0-2.289 0-.21-.051-.382-.26-.382-.759 0-1.51 0-2.283 0-.21 0-.494.174-.494.383 0 .773 0 1.537 0 2.3 0 .21.227.377.437.376"/></g></g></svg>