<svg xmlns="http://www.w3.org/2000/svg" viewBox="0 0 48 48"><defs><linearGradient id="0" gradientUnits="userSpaceOnUse" x1="-32.727" y1="77.6" x2="-32.406" y2="29.08"><stop stop-color="#0a80fd"/><stop offset="1" stop-color="#56c5fa"/></linearGradient></defs><g transform="matrix(.99999 0 0 .99999 56.629-29.12)" enable-background="new"><circle cx="-32.625" cy="53.12" r="24" fill="url(#0)"/><g fill="#dff1ff"><path d="m-27.548 68.43c-.218.249-.5.482-.766.696-1.717-1.775-3.734-3.742-5.65-3.742-1.188 0-2.044.904-3.042 1.543-1.386.886-3.286 1.384-4.915.734-.876-.333-1.725-.823-2.359-1.618 1.282.884 3.202 1 4.649.403 1.6-.664 3.228-1.545 5.05-1.545 2.687 0 5.241 1.818 7.03 3.529m-19.861-5.582c1.779 2.025 4.681 1.374 7.06 1.879.331.07.641.18.996.126-.282-.179-.657-.199-.983-.322-1.843-.694-2.13-2.666-3.139-4.02 1.288.856 2.355 2.029 3.56 3.131.838.767 1.883 1.095 2.966 1.315-.26.095-.601.073-.881.142-1.946.483-4.103 1.245-6.174.561-1.336-.441-2.727-1.485-3.402-2.809m-2.852-4.687c1.11 2.513 3.898 2.709 5.752 4.251.353.293.702.563 1.089.743l.02-.02c-.428-.387-.891-.848-1.222-1.33-1.06-1.54-.707-3.644-1.524-5.276.742.889 1.438 1.804 1.866 2.822.688 1.638.921 3.506 2.464 4.75-1.67-.551-3.596-.441-5.099-1.426-1.58-1.035-3.045-2.669-3.346-4.514m-1.189-5.083c.16 2.214 2.517 3.396 3.641 5.216.24.389.487.79.836 1.104-.054-.236-.248-.445-.355-.676-.36-.781-.524-1.684-.434-2.613.109-1.13.581-2.18.4-3.369.969 2.091.656 4.704 1.216 6.965.124.5.428.938.616 1.411-.952-.724-2.199-1.367-3.244-2.19-1.01-.796-1.887-1.73-2.343-2.944-.328-.875-.414-1.919-.333-2.903m.066-4.079c.114-.494.201-1.01.416-1.459-.407 2.088.982 3.597 1.457 5.403.179.681.24 1.404.515 2.04.026.014.048-.013.064-.033-.685-1.923.319-3.7 1.298-5.215.257-.398.381-.862.501-1.331.106.87-.079 1.878-.24 2.776-.207 1.156-.603 2.24-.917 3.356-.207.697-.152 1.484-.046 2.214l-.1-.08c-.729-1.345-2.166-2.396-2.601-3.864-.347-1.173-.587-2.529-.347-3.806m.769-2.246c0-1.58.615-2.869 1.538-4.046.027-.013.046-.04.08-.034-1.016 1.546-.091 3.497-.222 5.25l-.134 1.799c.02.013.02.067.067.046.06-.201.078-.414.113-.621.245-1.45 1.518-2.46 2.598-3.484.256-.242.443-.529.563-.836-.09.723-.291 1.463-.616 2.12-.831 1.683-2.437 3.042-2.726 4.955-.14-1.833-1.263-3.196-1.263-5.148m2.678-5.331c.511-.566 1.084-1.01 1.765-1.182-1.324.91-1.252 2.537-1.657 3.897-.148.497-.366.963-.482 1.477l.033.027c.22-.581.598-1.14 1.09-1.604.931-.878 2.331-1.41 2.792-2.695-.021 1.786-1.543 3.143-2.933 4.193-.624.471-1.153 1.103-1.477 1.766.054-.493.079-.904.035-1.385-.143-1.56-.235-3.309.834-4.494m5.373-3c-.982.862-1.638 1.972-2.393 2.969-.628.83-1.489 1.344-2.23 2.04.4-.83.474-1.78.981-2.583.868-1.372 2.303-1.905 3.641-2.426"/><path d="m-37.702 68.43c.218.249.5.482.766.696 1.717-1.775 3.734-3.742 5.65-3.742 1.188 0 2.044.904 3.042 1.543 1.386.886 3.286 1.384 4.915.734.876-.333 1.725-.823 2.359-1.618-1.282.884-3.202 1-4.649.403-1.6-.664-3.228-1.545-5.05-1.545-2.687 0-5.241 1.818-7.03 3.529m19.861-5.582c-1.779 2.025-4.681 1.374-7.06 1.879-.331.07-.641.18-.996.126.282-.179.657-.199.983-.322 1.843-.694 2.13-2.666 3.139-4.02-1.288.856-2.355 2.029-3.56 3.131-.838.767-1.883 1.095-2.966 1.315.26.095.601.073.881.142 1.946.483 4.103 1.245 6.174.561 1.336-.441 2.727-1.485 3.402-2.809m2.852-4.687c-1.11 2.513-3.898 2.709-5.752 4.251-.353.293-.702.563-1.089.743l-.02-.02c.428-.387.891-.848 1.222-1.33 1.06-1.54.707-3.644 1.524-5.276-.742.889-1.438 1.804-1.866 2.822-.688 1.638-.921 3.506-2.464 4.75 1.67-.551 3.596-.441 5.099-1.426 1.58-1.035 3.045-2.669 3.346-4.514m1.189-5.083c-.16 2.214-2.517 3.396-3.641 5.216-.24.389-.487.79-.836 1.104.054-.236.248-.445.355-.676.36-.781.524-1.684.434-2.613-.109-1.13-.581-2.18-.4-3.369-.969 2.091-.656 4.704-1.216 6.965-.124.5-.428.938-.616 1.411.952-.724 2.199-1.367 3.244-2.19 1.01-.796 1.887-1.73 2.343-2.944.328-.875.414-1.919.333-2.903m-.066-4.079c-.114-.494-.201-1.01-.416-1.459.407 2.088-.982 3.597-1.457 5.403-.179.681-.24 1.404-.515 2.04-.026.014-.048-.013-.064-.033.685-1.923-.319-3.7-1.298-5.215-.257-.398-.381-.862-.501-1.331-.106.87.079 1.878.24 2.776.207 1.156.603 2.24.917 3.356.207.697.152 1.484.046 2.214l.1-.08c.729-1.345 2.166-2.396 2.601-3.864.347-1.173.587-2.529.347-3.806m-.769-2.246c0-1.58-.615-2.869-1.538-4.046-.027-.013-.046-.04-.08-.034 1.016 1.546.091 3.497.222 5.25l.134 1.799c-.02.013-.02.067-.067.046-.06-.201-.078-.414-.113-.621-.245-1.45-1.518-2.46-2.598-3.484-.256-.242-.443-.529-.563-.836.09.723.291 1.463.616 2.12.831 1.683 2.437 3.042 2.726 4.955.14-1.833 1.263-3.196 1.263-5.148m-2.678-5.331c-.511-.566-1.084-1.01-1.765-1.182 1.324.91 1.252 2.537 1.657 3.897.148.497.366.963.482 1.477l-.034.027c-.22-.581-.598-1.14-1.09-1.604-.931-.878-2.331-1.41-2.792-2.695.021 1.786 1.543 3.143 2.933 4.193.624.471 1.153 1.103 1.477 1.766-.054-.493-.079-.904-.035-1.385.143-1.56.235-3.309-.834-4.494m-5.373-3c.982.862 1.638 1.972 2.393 2.969.628.83 1.489 1.344 2.23 2.04-.4-.83-.474-1.78-.981-2.583-.868-1.372-2.303-1.905-3.641-2.426"/><path d="m-20.625 56.27l-.29-.158c-.615 1.269-1.43 2.423-2.404 3.422l-1.695-1.695c.831-.856 1.5-1.827 1.993-2.877l-.289-.158c-.488 1.041-1.144 1.988-1.935 2.804l-1.536-1.536c.659-.685 1.182-1.467 1.56-2.312l-.287-.156c-.37.833-.88 1.59-1.503 2.239l-1.697-1.697c.472-.5.836-1.076 1.084-1.698l-.287-.156c-.237.607-.587 1.159-1.026 1.626l-1.54-1.54c.439-.49.693-1.104.729-1.76h2.18c-.019.589-.139 1.153-.343 1.675l.287.156c.229-.577.359-1.194.378-1.831h2.404c-.022 1.061-.258 2.07-.665 2.987l.287.156c.437-.979.679-2.042.7-3.144h2.176c-.023 1.494-.368 2.911-.965 4.187l.289.158c.632-1.345.975-2.818.998-4.345h2.403c-.024 1.967-.487 3.83-1.295 5.495l.29.158c.869-1.79 1.33-3.766 1.33-5.814 0-1.742-.334-3.431-.968-4.999l-.298.128c.597 1.479.921 3.07.941 4.71h-2.404c-.019-1.309-.277-2.577-.747-3.76l-.296.127c.454 1.144.702 2.369.721 3.634h-2.176c-.019-.964-.207-1.899-.546-2.774l-.296.127c.323.835.501 1.727.52 2.647h-2.404c-.017-.588-.128-1.159-.326-1.697l-.296.127c.181.499.283 1.027.3 1.57h-2.18c-.036-.656-.29-1.271-.729-1.76l1.542-1.542c.476.506.836 1.094 1.068 1.732l.296-.127c-.248-.674-.631-1.296-1.136-1.832l1.7-1.699c.725.755 1.279 1.631 1.646 2.582l.296-.127c-.383-.988-.96-1.898-1.714-2.682l1.539-1.539c.953.983 1.685 2.123 2.176 3.361l.296-.127c-.507-1.275-1.262-2.45-2.244-3.462l1.699-1.7c1.202 1.231 2.129 2.66 2.755 4.211l.298-.128c-.662-1.637-1.65-3.141-2.937-4.427-1.291-1.291-2.801-2.282-4.445-2.944l-.118.301c1.555.626 2.987 1.554 4.22 2.759l-1.699 1.7c-.995-.964-2.148-1.712-3.399-2.218l-.117.299c1.21.491 2.325 1.214 3.289 2.149l-1.539 1.539c-.748-.72-1.611-1.279-2.546-1.661l-.117.299c.895.367 1.72.901 2.436 1.589l-1.699 1.699c-.478-.451-1.025-.804-1.615-1.051l-.118.299c.55.231 1.059.56 1.506.979l-1.542 1.542c-.49-.439-1.104-.693-1.761-.729v-2.18c.627.019 1.233.152 1.797.389l.118-.299c-.6-.251-1.247-.391-1.914-.411v-2.404c.973.02 1.916.217 2.793.577l.117-.299c-.914-.374-1.896-.579-2.91-.599v-2.177c1.291.02 2.542.277 3.706.749l.117-.299c-1.201-.486-2.492-.751-3.823-.771v-2.404c1.637.02 3.225.342 4.701.937l.118-.301c-1.562-.629-3.246-.96-4.98-.96-2.143 0-4.168.511-5.964 1.414l.146.28c1.738-.871 3.66-1.345 5.657-1.369v2.404c-1.628.024-3.167.419-4.539 1.101l.146.28c1.352-.669 2.844-1.036 4.393-1.059v2.177c-1.211.024-2.356.315-3.382.815l.147.281c.998-.485 2.096-.752 3.235-.775v2.404c-.755.022-1.472.201-2.119.505l.148.282c.612-.284 1.28-.444 1.971-.466v2.181c-.338.019-.661.096-.958.221l.147.282c.304-.125.633-.19.971-.19.685 0 1.329.267 1.813.751.484.484.751 1.128.751 1.813 0 1.414-1.15 2.564-2.564 2.564-.685 0-1.329-.267-1.813-.751-.484-.485-.751-1.128-.751-1.813 0-.685.267-1.329.751-1.813.245-.245.531-.433.842-.561l-.147-.282c-.295.125-.566.297-.802.508l-1.543-1.543c.399-.374.847-.677 1.331-.902l-.148-.282c-.52.244-.995.569-1.409.959l-1.701-1.701c.597-.573 1.269-1.039 1.994-1.391l-.147-.281c-.765.373-1.464.863-2.072 1.447l-1.542-1.542c.778-.755 1.656-1.37 2.602-1.838l-.146-.28c-.99.492-1.894 1.132-2.68 1.894l-1.703-1.703c.976-.953 2.078-1.731 3.265-2.327l-.146-.28c-2.595 1.304-4.708 3.43-5.995 6.04l.279.151c.6-1.22 1.394-2.352 2.37-3.352l1.703 1.703c-.792.816-1.454 1.759-1.953 2.795l.278.15c.475-.992 1.111-1.911 1.898-2.722l1.542 1.542c-.621.646-1.136 1.396-1.517 2.219l.279.15c.359-.783.85-1.507 1.462-2.145l1.701 1.701c-.435.461-.789.999-1.04 1.591l.281.152c.231-.555.562-1.069.985-1.518l1.543 1.542c-.423.473-.692 1.085-.73 1.76h-2.181c.019-.622.15-1.224.383-1.784l-.281-.152c-.254.598-.403 1.251-.423 1.936h-2.404c.022-1.082.264-2.126.704-3.084l-.279-.15c-.457.987-.723 2.081-.746 3.234h-2.177c.023-1.503.368-2.953 1-4.273l-.278-.15c-.647 1.343-1.018 2.841-1.042 4.424h-2.404c.024-1.963.482-3.855 1.325-5.569l-.279-.151c-.876 1.775-1.371 3.771-1.371 5.881 0 1.291.184 2.552.536 3.757l.315-.079c-.331-1.129-.512-2.31-.526-3.517h2.404c.015 1.01.17 1.991.455 2.93l.312-.079c-.279-.914-.43-1.871-.445-2.851h2.176c.016.798.147 1.577.384 2.318l.312-.079c-.231-.716-.36-1.468-.375-2.24h2.404c.017.571.122 1.126.309 1.651l.312-.079c-.181-.499-.284-1.028-.301-1.572h2.181c.036.656.29 1.271.729 1.76l-1.542 1.542c-.476-.506-.836-1.093-1.067-1.73l-.312.079c.247.692.636 1.33 1.153 1.878l-1.699 1.7c-.827-.861-1.432-1.881-1.79-2.989l-.312.079c.372 1.164 1.01 2.234 1.876 3.138l-1.539 1.539c-1.151-1.187-1.982-2.603-2.452-4.144l-.312.079c.484 1.596 1.344 3.064 2.537 4.292l-1.699 1.7c-1.504-1.541-2.578-3.391-3.169-5.405l-.315.079c.62 2.12 1.762 4.063 3.368 5.669 1.087 1.087 2.33 1.963 3.677 2.608l.16-.283c-1.275-.608-2.454-1.426-3.493-2.441l1.699-1.699c.883.857 1.89 1.541 2.979 2.039l.159-.281c-1.064-.483-2.048-1.149-2.911-1.985l1.539-1.539c.721.694 1.55 1.238 2.446 1.619l.158-.281c-.871-.366-1.677-.891-2.377-1.564l1.7-1.7c.546.515 1.182.903 1.871 1.15l.161-.284c-.665-.23-1.279-.599-1.805-1.093l1.542-1.542c.49.439 1.104.693 1.76.729v2.181c-.517-.016-1.021-.11-1.498-.275l-.161.284c.527.189 1.085.295 1.658.312v2.403c-.995-.02-1.958-.226-2.851-.6l-.158.281c.942.4 1.959.621 3.01.641v2.177c-1.432-.022-2.815-.337-4.084-.913l-.159.281c1.317.602 2.755.93 4.243.953v2.403c-1.909-.023-3.751-.456-5.428-1.255l-.16.283c1.772.848 3.726 1.297 5.748 1.297 2.122 0 4.166-.496 6.01-1.427l-.152-.295c-1.716.869-3.648 1.371-5.694 1.396v-2.403c1.622-.024 3.184-.413 4.595-1.123l-.15-.291c-1.341.676-2.849 1.067-4.445 1.092v-2.177c1.217-.023 2.389-.316 3.45-.845l-.149-.289c-.999.498-2.117.789-3.301.813v-2.403c.775-.023 1.522-.209 2.201-.542l-.148-.288c-.624.305-1.319.485-2.053.508v-2.18c.657-.036 1.271-.29 1.761-.729l1.54 1.54c-.369.346-.789.637-1.248.861l.148.288c.481-.236.929-.543 1.329-.92l1.697 1.697c-.566.544-1.216 1-1.925 1.355l.149.289c.728-.363 1.404-.836 2.01-1.415l1.536 1.536c-.748.726-1.607 1.336-2.546 1.809l.15.291c.954-.48 1.84-1.105 2.627-1.869l1.695 1.695c-.946.923-2.033 1.701-3.223 2.303l.152.295c1.247-.631 2.402-1.46 3.419-2.478 1.069-1.069 1.932-2.289 2.574-3.611z"/><path d="m-33.04 48.25h-.148l-.027-.3.081-.055v-.15h-.471l-.013-.15.067-.041-.108-.041-.081.109-.027.123-.135.027v.068h-.094v.177l-.377.314-.753-.027c-.054.123-.189-.014-.189-.014-.027-.082-.215 0-.215 0 0 .15-.256-.068-.256-.068l-.471-.341c-.269-.246-.672.068-.686.136.013.191-.309.041-.309.041 0 0-.269-.082-.309.027-.04.109-.215.082-.215.082l-.027.055-.135.027-.027.082-.161.027.403-.014c.108-.014-.04.232-.107.218l-.188.014-.067.068h-.175l-.081.109-.255-.014c0 0-.148.123-.134.164.013.041-.027.164-.067.164-.04 0-.121.123-.094.164.027.041-.081.177-.081.177l-.027.137-.081.027v.369l-.161.109v.164l-.242.259.027.218-.202.218.027.218-.121.041-.027.096-.054.286.134.014c.067-.027.054.177 0 .205-.054.027-.202.082-.121.136.081.055-.215.041-.215-.041 0-.082-.161-.15-.202-.123-.04.027-.108-.123-.108-.123-.148-.15-.605.014-.605.014l-.067.218c-.148.027-.242.273-.242.273-.121.041-.215.191-.175.232.04.041-.067.055-.067.055v.3l-.067.096.013.327c.081 0 .067.15.067.15-.135.014-.108.191-.108.191l-.282.095-.054.082-.35-.014-.094.096-.094-.096h-.672l-.027-.068-.135-.027-.014-.15-.202.014-.04.082-.215.014c.013.137-.215.341-.242.287-.027-.055-.175-.205-.108-.232.067-.027.242-.055.242-.055v-.095l-.498-.014-.054.082-.202.014v.218l-.094.027c-.067.041.013.191.013.191.094.095-.013.245-.013.245-.081.082.067.232.067.232.108.027-.067.109-.067.109.027.136.107.177.107.177-.081.136.054.205.054.205l.013.232.094.055v.15l.054.096h.215l-.013-.341c-.188-.218.161-.273.175-.191.014.082.161.123.161.123.027.205.256.327.323.123.067-.205.121-.082.161.013.04.096.296.328.296.328h.202l.027.191c.229-.014.296.014.39.327.094.314.35.396.35.396l.188-.014c0-.163.188.028.188.11 0 .082.363.395.363.395l.363.082.337.273.255-.027h.108c.067-.232.39.013.417.095.027.082.242.218.269.15.027-.068.175-.027.202.177.027.205.121.164.121.164l.767-.014.269-.232.686-.013c.35-.014.134-.491.067-.491-.121-.095.04-.491.04-.491l-.982-.914c-.229 0-.027-.328-.027-.328.175-.109-.04-.286-.04-.286.027-.164-.094-.355-.094-.355-.242-.164-.175-.478-.175-.478v-.218c-.202-.191.081-.218.081-.218.094-.163-.067-.286-.067-.286l-.013-.177-.215-.027-.027-.641-.484-.696c-.094-.028-.027-.191-.027-.191.121-.068-.027-.232-.027-.232l-.013-.3.282-.027.067-.109h.134l-.013-.355c.067-.177.228-.082.228-.082l.188.014.108-.205.027-.164-.148-.014c-.161-.096-.081-.45-.081-.45.255-.382.551-.164.551-.164l.188-.014c.282.191.027.546.027.546-.054.082-.027.341-.027.341l.067.436-.175.15c-.148.082-.148.273.014.314.107.014.067.273-.094.095-.242 0 .135.218.027.164.242.123.188-.109.188-.109l.323-.259c.121-.095.336.205.336.246 0 .041.538.014.538.014.148.096.202.341.202.341.148-.191.457-.014.229.095.215.136.215.259.215.259.175-.055.175.082.175.123 0 .041.054-.205.054-.205-.202-.15.269-.205.135.068l-.081.123.135.109.013.314c.296-.027.215-.396.215-.396l.134-.027c0-.123.094-.055.094-.055-.094-.464.215-.546.215-.546.175-.041.188-.41.188-.41-.121-.055-.054-.245.081-.082.134.163-.081-.328-.081-.328l-.107-.095-.148-.014-.014-.15h-.242l-.04.191-.094.027-.027-.055-.04.15h-.242l-.013-.164.148-.041.054-.082.04-.218h.175l.229-.068c.013-.232.134-.177.134-.177l.081.068.121.096.014.082-.081.041-.013.109.04.15h.107c.04-.218.323-.218.403-.082l.081-.191c-.188-.096-.004-.246.05-.177.054.068.178-.177.178-.177 0 0 .094.123 0-.041-.094-.164.067-.246.067-.246-.027-.164.175-.136.175-.136l.014-.218-.188-.014c-.04.191-.202.027-.121-.014.081-.041.161-.123.161-.123v-.136l.081-.027.013-.136h.202l.175-.082.04-.068.188-.014.269-.246-.027-.109c-.161 0 0-.123 0-.123l.027-.204"/><path d="m-33.27 50.788v-.191l-.027-.177-.201-.095-.148.136-.027.191v.123l-.134.027-.027.368-.107.041.013.136-.148.041-.148.041-.027.177-.107.068-.054.164-.067.396c0 0 .121.232.188.123.067-.109.175-.123.175-.123l.04-.096.363.014c.027-.15.202-.095.202-.027 0 .068.135.014.135.014l.094-.15h.148l.013-.164.067-.041v-.246c.215-.068.188-.273.188-.273l.054-.068-.027-.095c-.108-.041-.054-.137.013-.109.067.027-.094-.123-.094-.123-.081.068-.148-.082-.148-.082h-.202"/><path d="m-28.04 41.02c-.039.119-.054.287-.121.287-.067 0-.04.178-.04.178 0 0 .175 0 .229.014.054.014.054.15.054.15.202-.014.283.259.256.328-.027.068.081.068.081.068 0 0 0 .218-.027.273-.027.055.175.096.229.177.054.082-.027.355-.067.368-.04.014.107.055.094.123-.014.068.04 0 .054.109.013.109.04.341.04.341l.188.014c.027-.177.374-.184.43-.164.229.082.404.437.404.518 0 .082-.148.096-.148.096l.027.396c.228.068.417.396.39.45-.027.055.161.041.161.041.027-.246.256-.164.269-.082.014.082.054.259.054.259l.067.123.094.096.148-.014.04.082.175.027c0 0 .148.164.161.205.014.041.215.027.269.041.054.014.135.055.148.123.014.068.094.177.094.177 0 0 .161.041.175.096.013.054.081.177.081.177l.134.109.014.123.148.014.04.164.242-.014.135-.096c.175-.095.296-.218.309-.273.013-.055.04-.259.175-.218.134.041.04-.3.04-.3 0 0-.188-.136-.175-.205.014-.068-.188-.205-.175-.259.013-.055-.175-.164-.161-.218.013-.055-.094-.205-.094-.205l-.202-.191-.027-.123-.161-.014-.323-.396.013-.109-.094-.014v-.15l-.094-.055-.148-.014-.296-.327-.027-.15h-.148l.027-.287c.094-.123.04-.355.04-.355 0 0-.188.096-.282.055-.094-.041.04-.136.04-.136v-.109l-.081-.082c0 0-.229.027-.242-.014-.014-.041-.054-.218-.054-.218l-.014-.232-.094-.041-.014-.082-.148.014v-.164l-.081-.027-.081-.041-.013-.164-.296-.014-.094-.136-.107-.164-.336-.027-.081-.082-.134-.027-.094-.041-.04.068-.256.014-.013.082c-.134.068-.672.014-.686.054"/><path d="m-25.18 48.659c-.054.055-.175.082-.175.082l-.04.15-.067.055c0 0 .013.041 0 .136-.014.095-.135.15-.135.15l-.054.068c0 0-.324.018-.363 0-.121-.055-.04-.218.04-.205.081.014-.014-.232-.014-.232l.108-.014c0 0 .013-.246.054-.246.04 0-.013-.082-.067-.123-.054-.041-.121-.177-.175-.164-.054.014-.269 0-.269 0l-.04.082-.148.027c0 0 .013.106-.013.137-.081.095-.39.3-.256-.041l.04-.082v-.123l-.242-.014c0 0-.121-.041-.121-.096 0-.055-.014-.123-.014-.123l-.282-.314-.336-.041-.027-.068-.201-.027c-.242-.123-.457-.014-.417.191.04.205.107.287-.027.287-.135 0-.161-.109-.161-.109 0 0-.107-.041-.107.014 0 .055-.04.164 0 .218.04.055-.054.136-.094.096-.04-.041-.148-.164-.121-.205.027-.041-.188-.3.027-.341.215-.041-.013-.164.067-.191l.107-.055h.107l.067-.055-.175-.027-.107-.014-.202-.014c-.202.136-.242.3-.242.3-.108.205-.363-.082-.269-.191.094-.109-.296-.014-.363.041-.067.055-.269.027-.269.027-.04.123-.228-.014-.175-.095.054-.082.054-.136.054-.136l-.067-.014-.081.15c-.188 0-.242.109-.202.177.04.068-.054-.014-.081.082-.027.096.014.096.094.136.081.041-.04.041.013.109.054.068.215 0 .121.096-.094.095-.283.055-.283.055-.013.123-.269.095-.296.055-.027-.041-.229-.287-.229-.287l-.256-.014c-.027-.191.121-.096.175-.246.054-.15.081-.396.081-.396 0 0-.215-.014-.229.055-.013.068-.148.109-.148.109 0 0-.108.041-.067.096.04.055-.081.082-.081.082 0 0 .021.088-.013.123-.107.109-.377.014-.417-.027l-.161-.068-.161-.109-.188.082-.054.055h-.202l-.013.164.363.041.027.338-.148-.051h-.094l-.04-.082-.081-.014v.3l.081.068.067.068.134.014.027.164.336.014.04.068.202.014.39.396-.027.123-.067.041c.027.096-.175.041-.175.041v.082l.094.014.094.055.134-.232c.148-.096.215.041.229.123.013.082-.067.068-.067.068v.191l.081.027c.135.164-.054.259-.054.259l-.04.136c-.04.123-.188.095-.188.095l-.054.082-.162.041.319.041c.03-.109.111-.136.151-.082.04.055.04.15.04.15l.081.014-.014.15.081.027v.437l.094.109c.161-.068.161.041.081.096-.081.054-.027.3-.027.3l-.067.068v.109l-.081.055v.15c-.135-.068-.296-.041-.336 0-.121-.082-.376-.055-.376.014.081.109-.094.136-.094.136l-.094.109c.067.137-.067.15-.067.15v.259l-.161.15.014.355c0 .096.202.109.242.055.04-.055.202.109.202.109h.121l.027-.246-.081-.041v-.396l.135-.15c.161-.055.108.355.108.396.013.15.08.136.148.109.134-.055.027.15-.081.136-.107-.014-.04.136-.04.136l.067.027-.121.096-.107.123-.135-.041-.161-.014-.054-.096-.094-.014-.013.191-.067.082-.161.164c.215 0-.027.15-.081.15.121.041-.013.164-.323.068v.095l-.108.014.094.109.107.014-.04.232c0 .177-.444.054-.484.014l-.013.246-.081.013.013.164-.013.232.148-.027v.096l.363.014.524-.56.309-.068c.027-.137.161.027.161.027.135-.014.161.082.161.082l.175.027c.148.041.058.055.067.109.013.082.081.054.081.054l.027-.177.081.014-.081-.096-.148-.068-.161-.068c-.108-.15.027-.123.135-.109h.175c0 0 .202.273.202.341 0 .068.094.082.094.082l.121-.014.04.095h.121l.04.082h.242l.013-.123-.229-.041-.013-.137-.161-.041c-.054-.232.04-.3.107-.191l.081.013-.027-.205.094-.027-.027-.287-.081-.027v-.096l.336.014c-.027-.178.014-.259.014-.259h.094l.013.068.411.039.291-.334c-.015-.025.029-.041-.003-.074-.04-.041-.094 0-.162-.041-.067-.041 0-.273-.013-.327-.013-.055.229-.137.188-.014-.04.123 0 .177 0 .177.175-.164.323.014.309.055-.014.041.094.082.161.041.067-.041.148.123.121.205-.027.082-.269.068-.282-.014-.014-.082-.054-.055-.081-.014-.027.041-.148.068-.215.027-.014-.008-.02-.015-.024-.022l-.291.334.019.002c.161.096.081.218.027.246-.054.027-.148.027-.148.027l-.027.055-.35.027-.027.137c-.175-.028-.242.164-.202.259.04.095 0 .177 0 .177l.148.068.188-.054c.027-.137.148-.164.256-.246.107-.082.282.15.228.259-.054.109-.054.15-.054.15l.013.123-.134.054-.107.055-.014.068h-.363l-.067.068-.175.014-.054.082-.121.014c0 0-.202.096-.121.205.081.109-.336.096-.43-.055-.027.136-.175.014-.175.014l-.148-.041-.013-.204c-.027-.137-.282-.137-.269-.041.013.096-.484.041-.484.041l-.161.078-.148.085-.013.068-.242.027-.107.055-.04-.082h-.107l-.108.15c-.282.014-.551.177-.524.246.027.068-.107.137-.107.137l-.121.04-.08.123-.161.055-.027.287-.08.054v.123l-.094.027v.068l-.134.014.08.205.108.055c.188.027.107.259.107.259l.107.013.054.15.107.218c.04.164.161.123.215.109.054-.013.107.164.107.164l.538.014c0 0-.027.055.067.082.094.027.713.055.74.014-.027-.123.336-.15.484-.041.148.109.35.041.35.041l.202.245.135.3.228.068.161.041.054.232.121.014.04.15c.148.109-.04.341-.04.341v.3l.108.055-.014.109.175.177.202.014.511.546.403.123.067.218.108-.014.081-.068.323-.014.161-.15.175-.027 1.492-1.269-.135-.082v-.3c.242-.177.256-.491.027-.519-.173-.021-.094-.205.067-.232l.094-.041v-.123l.309-.286v-.218l-.672-.56c-.296-.109 0-.764.201-.75.202.013-.013-1.01-.013-1.01l-.108-.054.027-.328h-.148l-.242.314-.067.218c-.027.287-.861.232-.901.191-.04-.041-.323-.164-.323-.164 0 0-.215-.177-.256-.123-.04.055-.228-.068-.228-.027 0 .041-.175-.095-.175-.095l-.269-.096.202-.041-.04-.164.349.177c.04.054.215.041.215.041l.054.068c0 0 .108-.014.175.068.067.082.417.014.417.014l.094.082.148.055.417.014.013-.259.081-.082-.014-.164.094-.082v-.136l.081-.027.013-.3.067-.014v-.655l-.202-.191c-.013.068-.228.068-.228.068 0 0-.054.095-.094.095-.04 0 .054.123.027.205-.027.082-.134.082-.134.082l-.202.055-.054.068h-.215l-.027-.177.242-.068.134-.068.067-.137c.013-.136.175-.123.175-.123 0 0 .309-.259.323-.382.014-.123.121-.464.309-.464h.35c.134-.055.094-.232.094-.232l.175-.027.027.096c0 0 .242.027.269-.014.027-.041.081-.136.148-.096.067.041.282-.096.282-.096.013-.096.35-.055.35-.055l.04-.123c0 0-.229-.314-.269-.314-.04 0-.256-.191-.282-.123-.215-.055-.202-.355-.202-.355l-.081-.191c0-.109-.201-.341-.242-.314-.202-.15-.054-.328 0-.341.054-.014.188-.205.188-.205l.067-.191.229-.068.027-.177-.121-.014c0 0 .134-.246.202-.246.067 0 .511 0 .551-.027.04-.027.121-.245.121-.286 0-.041.108-.055.148-.068.04-.014.134-.123.161-.177.027-.055-.067-.396-.121-.342"/></g></g></svg>