<svg xmlns="http://www.w3.org/2000/svg" xmlns:xlink="http://www.w3.org/1999/xlink" viewBox="0 0 48 48"><defs><linearGradient xlink:href="#2" id="0" x1="396.11" y1="545.48" x2="397.66" y2="516.98" gradientUnits="userSpaceOnUse"/><linearGradient xlink:href="#2" id="1" x1="403.44" y1="545.15" x2="402.47" y2="518.08" gradientUnits="userSpaceOnUse"/><linearGradient id="2"><stop stop-color="#dce2ff"/><stop offset="1" stop-color="#f8feff"/></linearGradient></defs><g transform="matrix(1.6013 0 0 1.6013-617.36-827.48)"><circle cx="400.52" cy="531.74" r="14.226" fill="url(#1)" stroke="url(#0)" stroke-width="1.524"/><path d="m409 531l-5.244 6.733c-.983 1.262-.708 3.511.55 4.497 1.259.986 3.5.71 4.484-.552l5.244-6.733.655-.842c.656-.842.472-2.341-.367-2.998-.839-.658-2.334-.473-2.989.368l-.656.842-3.933 5.05-.656.842c-.328.421-.236 1.17.183 1.499.42.329 1.167.237 1.495-.184l4.589-5.891.839.658-4.589 5.891c-.656.842-2.15 1.026-2.989.368-.839-.658-1.023-2.157-.367-2.998l.656-.842 4.589-5.891c.983-1.262 3.225-1.538 4.484-.552 1.259.986 1.534 3.235.551 4.497l-.656.842-5.244 6.733c-1.311 1.683-4.3 2.051-5.978.736-1.678-1.315-2.045-4.313-.734-5.997l5.244-6.733.839.658z" stroke-opacity=".8" fill="#282a2d" stroke="#27292b" stroke-width=".278" transform="matrix(1.21019 0 0 1.20646-94.73-115.34)"/></g></svg>