<svg xmlns="http://www.w3.org/2000/svg" viewBox="0 0 48 48"><defs><linearGradient id="0" y1="2.125" x2="0" y2="-42.875" gradientUnits="userSpaceOnUse"><stop stop-color="#187ced"/><stop offset="1" stop-color="#42d6fc"/></linearGradient><linearGradient id="1" y1="29.505" x2="0" y2="2.32" gradientUnits="userSpaceOnUse" gradientTransform="matrix(1.79921 0 0 1.79339 38.493-50.578)"><stop stop-color="#0164c2"/><stop offset="1" stop-color="#00a9f3"/></linearGradient></defs><g transform="matrix(.99999 0 0 .99999-43.37 45.882)" enable-background="new"><circle cx="67.37" cy="-21.875" r="22.821" fill="url(#0)" stroke="url(#0)" stroke-width="2.327"/><path d="m67.33-45.784c-3.03 0-5.905.575-8.566 1.585-.194.177-.445.313-.644.297-.028-.003-.054-.019-.083-.03-1.312.547-2.556 1.217-3.736 1.978.153.248.199.524-.116.658-.053.021-.72.09-.953.085-3.355 2.43-6.05 5.699-7.768 9.515.028-.005.052-.016.081-.018.261-.005.637.07.888.123.231.047.418.202.618.217.568.043.705-.398 1.169-.644.479.067.797-.082 1.23-.033.295.033.508.347.738.364.193.019.363-.181.551-.152.182.028.495.423.525.644.038.276-.203.524-.124.827.29.294.816.354 1.23.523.27-.221.036-.632 0-.953-.005-.141.019-.267 0-.397-.024-.221-.119-.423-.121-.612-.005-.872.706-1.281 1.293-1.625.254-.15.454-.413.675-.523.311-.156.543-.192.801-.336.466-.261.865-.47 1.23-.766.168-.396.016-.926.031-1.317.168-.103.313.044.492.03.281-.058.304-.454.464-.612.092-.091.346-.155.461-.245.28-.219.371-.55.616-.644.088-.036.29-.024.429-.062.182-.048.441-.263.738-.364.193-.067.636-.081.71-.154.091-.092-.0001-.352.031-.49.149-.692 1.195-.839 1.813-1.072.433-.163.878-.463 1.354-.371-.093.329-.537.212-.462.612.104.554.848-.158 1.045-.24.375-.157 1.018-.254 1.511-.432.432-.157 1.206-.397.799-.89-.339-.019-.503.397-.799.523-.204.033-.165-.17-.34-.187-.165-.019-.258.152-.429.123-.169-.028-.407-.293-.433-.49-.067-.512.434-.723.647-1.104-.141-.463-.783-.094-1.171-.275.038-.276.323-.466.646-.518.265-.044.859-.021 1.017.118.091.079.006.271.154.399.157.141.35.126.553.094.072-.349-.456-.262-.398-.493.415-.271 1.091-.049 1.6-.123.293-.043.6-.249.86-.395.247-.14.567-.383.829-.154.069.25-.228.333-.368.458-.47.417-.955.895-1.321 1.38.224.218.632.108 1.012.154.149.019.335.063.492.092.184.033.379.023.522.061.258.063.327.339.583.339.421-.0001.426-.454.187-.738.075-.289.193-.439.092-.642-.19-.378-.885-.019-.921-.49-.022-.306.257-.292.368-.521-.051-.591.486-.633.429-1.163-.024-.221-.212-.225-.368-.432-.079-.101-.118-.297-.208-.385-.718-.062-1.443-.103-2.178-.103zm-12.377 4.824h.003c.143.019.316.174.49.187.163.005.3-.09.401-.062.257.067.366.455.123.644-.201.024-.279-.088-.431-.061-.418.07-.578.886-.89.859-.294-.024-.454-.74-.154-.953.019-.186-.137-.216-.126-.399.089-.113.341-.234.586-.215m-1.385.095c.086.003.15.023.183.06-.041.327-.297.305-.55.458-.437.263-.69.664-.829 1.226-.041.163-.471.597-.679.553-.488-.102.135-.999.246-1.135.124-.151.288-.283.433-.458.141-.169.232-.397.368-.49.148-.102.572-.225.829-.215m3.64 1.102c.156.003.297.028.361.092-.1.405-.975.298-1.295.151.019-.153.26-.195.461-.215.142-.005.317-.033.473-.028m-1.991.747c.104-.003.209.019.319.049-.283.236-.589.37-1.075.523-.234.073-.637.164-.677-.096-.048-.319.342-.245.555-.273.269-.038.564-.193.879-.203m30.545 1.817c-.037.088-.062.173-.059.257.019.148.182.29.218.49.019.106-.05.335 0 .432.148.286.536.081.813.096-.315-.432-.629-.865-.972-1.275m1.572 2.108c-.044.211-.188.487-.305.663-.268.406-.632.425-1.017.642-.321.181-.459.483-.647.799-.204.34-.33.546-.246 1.039-.275.543-.691.876-1.26 1.135-.168.076-.398.104-.553.215-.123.088-.193.325-.368.521-.216.239-.442.34-.555.523-.088.141-.118.422-.215.612-.132.257-.411.384-.583.644-.079.12-.132.365-.218.523-.195.353-.528.607-.492.918.036.3.377.353.401.614.005.148-.098.238-.092.399.005.235.164.4.183.581.046.455-.155.637-.241.948-.041.149-.023.316-.063.432-.077.228-.394.433-.401.703-.003.192.197.345.213.614.005.186-.092.383-.058.553.065.334.663.721.923.981.348.347.803.615.953.981.126.31.125.714.368.948.179.173.478.28.707.46.214.167.448.312.677.49.374.292.94.874 1.537.829.311-.021.631-.276.984-.339.363-.064.835-.099 1.202-.06.281.028.57.195.862.182.308-.019.662-.247 1.012-.399.282-.122.628-.258 1.01-.357.174-1.166.267-2.361.267-3.577 0-4.896-1.469-9.433-3.982-13.215m-39.672 8.03c-.511.028-.846.051-1.136.182-.665.302-.537 1.198-1.202 1.41-.23.073-.546.077-.799.123-.219.04-.485.158-.71.154-.063-.0001-.151-.048-.23-.071-.059.42-.108.845-.146 1.272.633.12.959.956 1.518 1.233.153.076.353.081.55.124.159.036.28.102.433.154.325.11.724.097.984.213.392.173.679.908 1.017 1.104.019.198-.039.464.031.612.159.215.384.168.646.308.314.169.41.605.707.738.103.046.36.04.522.089.408.123.541.593.89.49.229-.067.211-.302.248-.521.151-.163.317-.423.553-.427.382-.019.416.394.555.763.079.209.284.391.337.612.095.381.048 1.521-.034 1.749-.096.279-.476.398-.71.707-.11.145-.162.358-.246.46-.151.183-.375.231-.487.399-.063.095-.126.299-.188.427-.185.39-.432.666-.276 1.135.065.193.367.322.368.549.0001.267-.57.506-.614.799-.034.218.176.606.246.89.051.214.457.348.583.49.216.242.388.584.586.887.39.597.696 1.325 1.075 1.903.201.303.482.575.616.89.068.158.059.348.121.49.22.494 1.19 1.01 1.691 1.256.234.113.495.154.71.273.326.181.972.668 1.136.953.147.256.238.879.309 1.286.096.538.0001.951.031 1.534.019.315.12.632.124.948.0001.11-.059.193-.063.306 0 .018.006.04.006.058 3.02 1.363 6.368 2.139 9.911 2.139.64 0 1.273-.034 1.9-.083.028-.047.053-.096.088-.14.145-.189.273-.354.368-.521.091-.56-.224-.951-.092-1.441.147-.55.91-.887 1.445-1.135.184-.085.372-.224.522-.275.37-.129.833-.058 1.171-.182.576-.21.636-.826.921-1.35.135-.248.311-.496.337-.672.023-.158-.058-.308-.033-.495.028-.185.194-.345.246-.549.067-.265.096-.655.096-.95 0-.243-.114-.456-.123-.675-.04-.795.288-.884.583-1.317.148-.215.203-.46.307-.614.496-.737 1.355-1.093 1.293-2.206-.019-.369-.253-1.202-.525-1.319-.156-.067-.513-.005-.738-.092-.727-.27-1.153-1.168-1.907-1.226-.16-.019-.308.065-.49.062-.298-.019-.748-.208-1.078-.245-.21-.021-.49.062-.616 0-.192-.093-.212-.446-.368-.551-.123-.086-.365-.113-.553-.187-.303-.115-.543-.251-.892-.275-.108-.005-.242.051-.368.033-.193-.033-.346-.261-.525-.369-.224-.136-.43-.201-.522-.395.202-.66-.356-.844-.492-1.226-.065-.179-.036-.394-.092-.553-.081-.228-.307-.36-.555-.551-.445-.341-.84-.662-1.476-.74-.28-.036-.557.084-.895.062-.358-.021-.807-.335-1.075-.64-.26-.298-.387-.565-.614-.707-.215-.138-.5-.134-.647-.273-.065-.061-.053-.164-.124-.308-.108-.223-.289-.347-.154-.614-.245-.126-.252.233-.52.187-.239-.338-.441-.498-.984-.399-.249.046-.387.359-.677.367-.238.019-.424-.264-.738-.308-.237-.033-.506.063-.675.033-.262-.052-.343-.27-.583-.427-.176-.115-.517-.311-.616-.308-.309.019-.529.655-.956.43-.207-.262.337-.4.092-.645-.186-.186-.343.085-.492.187-.171.117-.331.234-.52.304-.422.157-.686.075-1.017.245-.306.157-.319.422-.492.735-.142.257-.464.631-.677.647-.258.019-.504-.359-.738-.46-.704-.304-1.046.27-1.63.278-.543.019-1.318-.874-1.291-1.382.005-.31.179-.781.215-1.165.034-.305.242-.489.246-.768.005-.372-.496-.659-.738-.703-.575-.105-1.372.23-2.031-.033-.125-.208.148-.351.218-.553.04-.114.016-.268.058-.395.072-.195.278-.347.37-.553.068-.157.086-.386.154-.581.082-.223.229-.367.246-.523.021-.206-.055-.445-.218-.581zm8.222 6.489c.208.019.235.449.021.483-.23.036-.347-.36-.123-.462.038-.019.073-.019.103-.018v-.003" fill="url(#1)"/></g></svg>