<svg xmlns="http://www.w3.org/2000/svg" viewBox="0 0 48 48"><defs><linearGradient y1="545.8" x2="0" y2="517.8" gradientUnits="userSpaceOnUse"><stop stop-color="#3889e9"/><stop offset="1" stop-color="#5ea5fb"/></linearGradient><linearGradient id="0" gradientUnits="userSpaceOnUse" x1="400.51" y1="546.07" x2="400.7" y2="517.77"><stop stop-color="#197ff1"/><stop offset="1" stop-color="#21c6fb"/></linearGradient></defs><g transform="matrix(.0934 0 0 .0934 32.04-74.5)"><circle r="14" cy="531.8" cx="400.57" transform="matrix(18.35485 0 0 18.35485-7438.58-8706.43)" fill="url(#0)"/><circle cx="400.57" cy="531.8" r="14" transform="matrix(18.35485 0 0 18.35485-7438.58-8706.43)" fill="#5ea5fb" fill-opacity="0"/><g transform="matrix(16.42438 0 0 16.42438-7154-7678.26)"><g transform="matrix(.90278 0 0 .9 841.13 649.37)" fill="#fff" fill-opacity=".85" color="#000"><ellipse ry="2.5" rx="2.5" cy="-130.51" cx="-462.61"/><ellipse ry="3" rx="3" cy="-123.01" cx="-458.11"/><ellipse ry="1.5" rx="1.5" cy="-138.51" cx="-460.61"/><path d="m-452.11-140.01l-2.844 2.844 4.375 4.375-4.531 5.156 3 2.625 7-8-7-7"/></g><flowRoot transform="translate(352.74 519.84)" font-family="sans-serif" letter-spacing="0" word-spacing="0" text-align="start" line-height="125%" font-size="10"><flowRegion><path d="m22 3h27v15h-27z"/></flowRegion><flowPara>Plasm</flowPara></flowRoot></g></g></svg>