<svg xmlns="http://www.w3.org/2000/svg" viewBox="0 0 48 48"><defs><linearGradient id="0" y1="518.08" x2="0" y2="545.15" gradientUnits="userSpaceOnUse"><stop stop-color="#faf7f7"/><stop offset="1" stop-color="#d4d4d4"/></linearGradient><linearGradient id="1" x1="403.44" y1="545.15" x2="402.47" y2="518.08" gradientUnits="userSpaceOnUse"><stop stop-color="#d3d3d3"/><stop offset="1" stop-color="#fcf9f9"/></linearGradient><linearGradient gradientUnits="userSpaceOnUse" y2="510" x2="0" y1="552" id="2"><stop stop-color="#2a2c2f"/><stop offset="1" stop-color="#424649"/></linearGradient></defs><g transform="matrix(1.52381 0 0 1.52381-636.59-784.96)"><circle cx="400.52" cy="531.74" r="14.226" transform="matrix(1.05085 0 0 1.05085 12.62-27.904)" fill="url(#1)" stroke="url(#0)" stroke-width="1.524"/><path d="m433.47 528c-1.662 0-3 1.338-3 3 0 1.662 1.338 3 3 3 1.662 0 3-1.338 3-3 0-1.662-1.338-3-3-3m-7.5 0c-1.662 0-3 1.338-3 3 0 1.662 1.338 3 3 3 1.662 0 3-1.338 3-3 0-1.662-1.338-3-3-3m15 0c-1.662 0-3 1.338-3 3 0 1.662 1.338 3 3 3 1.662 0 3-1.338 3-3 0-1.662-1.338-3-3-3" fill="url(#2)"/></g></svg>