<svg xmlns="http://www.w3.org/2000/svg" viewBox="0 0 48 48"><defs><linearGradient gradientTransform="matrix(1.79921 0 0 1.79456-6.445 9.401)" gradientUnits="userSpaceOnUse" y2="2.32" x2="0" y1="29.505" id="0"><stop stop-color="#0164c2"/><stop offset="1" stop-color="#00a9f3"/></linearGradient><linearGradient id="1" y1="62.12" x2="0" y2="17.12" gradientUnits="userSpaceOnUse" gradientTransform="matrix(1.05166 0 0 1.05098-1.14-1.944)"><stop stop-color="#187ced"/><stop offset="1" stop-color="#42d6fc"/></linearGradient></defs><g transform="matrix(.99999 0 0 .99999 1.629-14.12)" enable-background="new"><circle cx="22.375" cy="38.12" r="24" fill="url(#1)"/><path d="m22.388 14.198c-3.03 0-5.905.576-8.566 1.586-.194.177-.445.314-.644.297-.028-.003-.054-.019-.083-.03-1.312.547-2.556 1.218-3.736 1.979.153.248.199.525-.116.659-.053.021-.72.09-.953.085-3.355 2.432-6.05 5.703-7.768 9.521.028-.005.052-.016.081-.018.261-.005.637.07.888.123.231.047.418.202.618.217.568.043.705-.398 1.169-.645.479.067.797-.082 1.23-.033.295.033.508.347.738.364.193.019.363-.181.551-.152.182.029.495.423.525.645.038.276-.203.524-.124.827.29.294.816.354 1.23.523.27-.222.036-.633 0-.953-.005-.142.019-.267 0-.397-.024-.221-.119-.423-.121-.612-.005-.873.706-1.281 1.293-1.626.254-.15.454-.413.675-.523.311-.156.543-.192.801-.336.466-.261.865-.471 1.23-.766.168-.396.016-.927.031-1.318.168-.103.313.044.492.03.281-.058.304-.454.464-.612.092-.091.346-.155.461-.245.28-.219.371-.55.616-.645.088-.036.29-.024.429-.062.182-.048.441-.263.738-.364.193-.067.636-.081.71-.154.091-.092-.0001-.352.031-.491.149-.692 1.195-.839 1.813-1.072.433-.163.878-.464 1.354-.372-.093.329-.537.212-.462.612.104.555.848-.158 1.045-.241.375-.157 1.018-.254 1.511-.432.432-.157 1.206-.398.799-.89-.339-.019-.503.397-.799.523-.204.033-.165-.171-.34-.187-.165-.019-.258.152-.429.123-.169-.028-.407-.293-.433-.491-.067-.512.434-.723.647-1.105-.141-.463-.783-.094-1.171-.276.038-.276.323-.466.646-.519.265-.044.859-.021 1.017.118.091.079.006.271.154.399.157.142.35.126.553.094.072-.35-.456-.262-.398-.493.415-.271 1.091-.049 1.6-.123.293-.043.6-.249.86-.395.247-.14.567-.384.829-.154.069.25-.228.333-.368.458-.47.418-.955.896-1.321 1.381.224.218.632.108 1.012.154.148.019.335.063.492.092.184.033.379.023.522.061.258.063.327.339.583.339.421-.0001.426-.455.187-.738.075-.29.193-.44.092-.643-.19-.378-.885-.019-.921-.491-.022-.306.257-.292.368-.521-.051-.591.486-.634.429-1.164-.024-.222-.212-.225-.368-.432-.079-.101-.118-.298-.208-.385-.718-.062-1.443-.103-2.178-.103zm-12.377 4.827h.003c.143.019.316.174.49.187.163.005.3-.091.401-.062.257.067.366.455.123.645-.201.024-.279-.088-.431-.061-.418.07-.578.887-.89.86-.294-.024-.454-.74-.154-.953.019-.186-.137-.216-.126-.4.089-.113.341-.235.586-.215m-1.385.095c.086.003.15.023.183.06-.041.327-.297.306-.55.458-.437.263-.69.664-.829 1.227-.041.163-.471.597-.679.554-.488-.102.135-.999.246-1.136.124-.151.288-.283.433-.458.141-.169.232-.397.368-.491.148-.102.572-.225.829-.215m3.64 1.103c.156.003.297.029.361.092-.1.405-.975.298-1.295.152.019-.153.26-.195.461-.215.142-.005.317-.033.473-.028m-1.991.748c.104-.003.209.019.319.049-.283.236-.589.37-1.075.523-.234.073-.637.164-.677-.096-.048-.319.342-.245.555-.273.269-.038.564-.193.879-.203m30.545 1.818c-.037.088-.062.173-.059.257.019.148.182.29.218.491.019.106-.05.335 0 .432.148.286.536.081.813.096-.315-.433-.629-.866-.972-1.276m1.572 2.109c-.044.211-.188.487-.305.664-.268.407-.632.426-1.017.642-.321.181-.459.484-.647.799-.204.341-.33.546-.246 1.04-.275.544-.691.877-1.26 1.135-.168.076-.398.104-.553.215-.123.089-.193.325-.368.521-.216.239-.442.34-.555.523-.088.142-.118.422-.215.612-.132.258-.411.384-.583.645-.079.12-.132.365-.218.523-.195.353-.528.608-.492.918.036.3.377.353.401.614.005.148-.098.238-.092.4.005.235.164.401.183.582.046.455-.155.637-.241.949-.041.149-.023.316-.063.432-.077.228-.394.434-.401.703-.003.192.197.346.213.615.005.186-.092.383-.058.554.065.334.663.722.923.981.348.347.803.616.953.981.126.311.125.714.368.949.179.173.478.281.707.46.214.168.448.313.677.491.374.292.94.874 1.537.83.311-.021.631-.276.984-.339.363-.064.835-.099 1.202-.06.281.028.57.196.862.182.308-.019.662-.247 1.012-.399.282-.122.628-.258 1.01-.358.174-1.167.267-2.362.267-3.579 0-4.899-1.469-9.439-3.982-13.224m-39.672 8.04c-.511.028-.846.051-1.136.182-.665.302-.537 1.199-1.202 1.411-.23.073-.546.077-.799.123-.219.04-.485.158-.71.154-.063-.0001-.151-.048-.23-.071-.059.421-.108.846-.146 1.273.633.12.959.957 1.518 1.234.153.076.353.081.55.124.159.036.28.102.433.154.325.11.724.097.984.213.392.174.679.908 1.017 1.105.019.198-.039.464.031.612.159.216.384.168.646.308.314.169.41.605.707.738.103.046.36.04.522.089.408.123.541.593.89.491.229-.067.211-.303.248-.521.151-.163.317-.423.553-.428.382-.019.416.394.555.764.079.209.284.391.337.612.095.381.048 1.522-.034 1.75-.096.28-.476.398-.71.708-.11.145-.162.358-.246.46-.151.183-.374.231-.487.4-.063.095-.126.299-.188.428-.185.39-.432.667-.276 1.136.065.193.367.322.368.549.0001.267-.57.506-.614.799-.034.218.176.607.246.89.051.214.457.348.583.491.216.242.388.584.586.888.39.597.696 1.326 1.075 1.904.201.303.482.576.616.89.068.158.059.348.121.491.22.495 1.19 1.011 1.691 1.257.234.113.495.154.71.273.326.181.972.668 1.136.953.147.256.238.88.309 1.287.096.538.0001.952.031 1.535.019.315.12.632.124.949.0001.11-.059.193-.063.306 0 .018.007.04.007.058 3.02 1.363 6.368 2.14 9.911 2.14.64 0 1.273-.034 1.9-.083.028-.047.053-.096.088-.14.145-.189.273-.355.368-.521.091-.56-.224-.951-.092-1.441.147-.551.91-.887 1.445-1.136.184-.085.372-.224.522-.276.37-.129.833-.058 1.171-.182.576-.21.636-.827.921-1.35.135-.248.311-.496.337-.673.023-.158-.058-.308-.033-.495.028-.185.194-.345.246-.549.067-.266.096-.655.096-.951 0-.243-.114-.456-.123-.675-.04-.796.288-.885.583-1.318.148-.215.203-.46.307-.615.496-.737 1.355-1.093 1.293-2.208-.019-.369-.253-1.202-.525-1.32-.156-.067-.513-.005-.738-.092-.727-.27-1.153-1.169-1.907-1.227-.16-.019-.308.065-.49.062-.298-.019-.748-.208-1.078-.245-.21-.021-.49.062-.616 0-.192-.093-.212-.446-.368-.551-.123-.086-.365-.114-.553-.187-.303-.115-.543-.251-.892-.276-.108-.005-.242.051-.368.033-.193-.033-.346-.261-.525-.369-.224-.136-.43-.201-.522-.395.202-.661-.356-.845-.492-1.227-.065-.179-.036-.394-.092-.554-.081-.229-.307-.361-.555-.551-.445-.342-.84-.662-1.476-.741-.28-.036-.557.084-.895.062-.358-.021-.807-.335-1.075-.64-.26-.298-.387-.565-.614-.708-.215-.138-.5-.135-.647-.273-.065-.061-.053-.165-.124-.308-.108-.223-.289-.347-.154-.614-.245-.126-.252.233-.52.187-.239-.338-.441-.499-.984-.399-.249.046-.387.359-.677.367-.238.019-.424-.264-.738-.308-.237-.033-.506.063-.675.033-.262-.052-.343-.27-.583-.428-.176-.115-.517-.312-.616-.308-.309.019-.529.655-.956.43-.207-.262.337-.4.092-.645-.186-.186-.343.085-.492.187-.171.117-.331.234-.52.304-.422.157-.686.076-1.017.245-.306.158-.319.422-.492.736-.142.257-.464.632-.677.647-.258.019-.504-.359-.738-.46-.704-.304-1.045.27-1.63.278-.543.019-1.318-.874-1.291-1.383.005-.311.179-.782.215-1.166.034-.306.242-.49.246-.769.005-.373-.496-.659-.738-.703-.575-.105-1.372.231-2.031-.033-.125-.208.148-.352.218-.554.04-.115.016-.268.058-.395.072-.195.278-.347.37-.554.068-.158.086-.386.154-.582.082-.223.229-.367.246-.523.021-.207-.055-.446-.218-.582zm8.222 6.493c.208.019.235.449.021.484-.23.036-.347-.36-.123-.463.038-.019.073-.019.103-.018v-.003" fill="url(#0)"/><path d="m34.15 47.25l-8.597-8.597c-.081-.081-.167-.153-.255-.22l1.523-1.603c.078-.078.151-.161.219-.246 2.02.762 4.393.334 6.02-1.291 1.185-1.185 1.783-2.825 1.638-4.498-.016-.189-.141-.353-.319-.418-.179-.065-.379-.021-.514.113l-2.755 2.755-2.789-.703-.791-2.878 2.754-2.755c.135-.135.179-.335.114-.514-.065-.179-.228-.303-.418-.32-1.673-.144-3.312.453-4.498 1.639-1.623 1.623-2.053 3.994-1.291 6.01-.083.07-.165.145-.246.224l-2.241 2.152-4.115-4.115c-.051-.052-.106-.097-.163-.139.048-.085.095-.172.139-.262.869.167 2.458-1.525 3.807-2.874l-3.931-3.932c-1.758 1.758-3.042 2.938-2.875 3.807-.402.196-.76.436-1.015.691l-.554.554c-.36.36-.576.808-.654 1.274-.054.061-.108.126-.163.195l-.206.259c-.006.006-.024.032-.028.038l-.187.262c-.117.156-.219.326-.318.489-.036.061-.074.122-.112.182-.006.001-.012.021-.017.031l-.083.157c-.1.188-.205.383-.294.598l-.014.034c-.105.25-.214.509-.29.783l-.037.119c-.03.098-.061.195-.089.311l-.076.378c-.057.237-.076.47-.093.677l-.011.136c-.028.214-.02.416-.012.595.003.06.005.118.007.197.002.033.002.065.003.097.002.08.004.17.019.265l.048.307c.001.059.019.117.027.172.018.125.037.254.074.376l.201.698c.062.212.263.352.484.337.117-.008.222-.059.3-.137.07-.07.118-.161.133-.265l.104-.709c.008-.056.032-.139.057-.226.018-.061.035-.122.049-.175l.074-.265c.009-.036.027-.071.042-.107.015-.033.029-.067.043-.101.025-.056.048-.113.071-.17.046-.113.089-.22.155-.324.029-.048.055-.096.082-.145.069-.123.134-.239.212-.336.005-.006.009-.012.014-.019l.175-.241c.036-.045.076-.088.115-.131.028-.03.056-.061.091-.101.103-.124.225-.233.342-.339l.063-.056c.087-.081.187-.156.293-.236.043-.032.085-.064.127-.096.053-.035.105-.069.156-.103.095-.064.178-.12.273-.17l.207-.118.21-.103c.073-.038.145-.067.212-.094.039-.016.078-.032.115-.048.037-.013.072-.027.106-.039.045-.016.084-.032.136-.046l.057-.013c.062.1.134.195.221.281l4.071 4.071-8.69 8.347c-.003.003-.007.007-.001.001-1.081 1.081-1.257 2.665-.176 3.747 1.082 1.081 2.565.804 3.646-.277.005-.005.009-.009.013-.014l7.666-8.07c.045.053.089.106.139.156l8.596 8.597c.963.964 2.526.964 3.489 0 .963-.963.963-2.525 0-3.488m-21.03 1.93c-.398.399-1.044.399-1.443 0-.398-.398-.398-1.044 0-1.442.398-.398 1.044-.398 1.443 0 .398.398.398 1.044 0 1.442" opacity=".9" fill="#fff" fill-opacity=".852"/></g></svg>