<svg xmlns="http://www.w3.org/2000/svg" xmlns:xlink="http://www.w3.org/1999/xlink" viewBox="0 0 48 48"><defs><linearGradient gradientUnits="userSpaceOnUse" y2="528.58" x2="408.32" y1="519.36" x1="408.24" id="5"><stop stop-color="#828282"/><stop offset="1" stop-color="#bfbfbf"/></linearGradient><linearGradient gradientUnits="userSpaceOnUse" y2="509.27" x2="408.86" y1="527.73" x1="408.78" id="4"><stop stop-color="#cdced2"/><stop offset="1" stop-color="#f1f1f1"/></linearGradient><linearGradient gradientUnits="userSpaceOnUse" y2="519.71" x2="408.22" y1="527.3" x1="408.34" id="6" xlink:href="#1"/><linearGradient gradientUnits="userSpaceOnUse" y2="506.15" x2="0" y1="539.83" id="3" xlink:href="#1"/><linearGradient id="1"><stop stop-color="#141414"/><stop offset="1" stop-color="#2d2d2f"/></linearGradient><linearGradient gradientUnits="userSpaceOnUse" y2="503.1" x2="410.63" y1="531.06" x1="410.47" id="0"><stop stop-color="#c0c1c4"/><stop offset="1" stop-color="#eaeaea"/></linearGradient><linearGradient gradientUnits="userSpaceOnUse" y2="-543.7" x2="0" y1="-505.72" id="2" xlink:href="#1"/></defs><g transform="translate(-384.57-499.8)"><rect y="502.91" x="384.59" height="41.901" width="48" fill="url(#0)" rx="2.898" stroke-width="1.079" transform="translate(-.016-.062)"/><circle cx="408.57" cy="-523.8" r="16.72" transform="scale(1-1)" fill="url(#2)"/><g transform="translate(-.016-.062)"><circle r="14.824" cy="523.8" cx="408.22" fill="url(#3)" transform="matrix(1.07935 0 0 1.07935-32.03-41.504)"/><g transform="matrix(.92308 0 0 .92308 31.442 40.35)" fill-rule="evenodd"><path d="m421.49 522.36c-.041-.365-.467-.64-.836-.64-1.191 0-2.249-.7-2.692-1.781-.453-1.108-.161-2.4.727-3.215.279-.256.313-.683.079-.98-.61-.774-1.303-1.474-2.06-2.08-.296-.238-.731-.205-.988.08-.775.858-2.167 1.177-3.242.728-1.119-.471-1.825-1.605-1.756-2.823.023-.382-.257-.715-.638-.759-.971-.112-1.951-.116-2.925-.009-.377.042-.656.366-.644.744.042 1.206-.672 2.32-1.78 2.774-1.063.434-2.445.118-3.218-.733-.256-.28-.683-.315-.981-.082-.779.611-1.488 1.311-2.103 2.079-.24.299-.205.731.078.988.905.819 1.197 2.123.727 3.244-.449 1.069-1.558 1.757-2.829 1.757-.412-.013-.706.263-.751.638-.114.977-.116 1.972-.005 2.957.041.367.48.639.852.639 1.132-.029 2.219.672 2.675 1.781.454 1.108.162 2.4-.727 3.215-.278.255-.313.683-.079.98.604.769 1.297 1.469 2.057 2.081.298.24.731.206.989-.078.778-.86 2.17-1.179 3.241-.729 1.122.469 1.828 1.603 1.759 2.822-.022.383.258.716.638.759.497.058.997.087 1.498.087.476 0 .951-.026 1.427-.079.377-.042.656-.366.644-.745-.044-1.205.672-2.319 1.779-2.772 1.07-.437 2.446-.117 3.22.733.257.28.682.313.981.082.778-.61 1.485-1.309 2.103-2.079.24-.298.206-.731-.078-.988-.905-.819-1.198-2.123-.728-3.243.442-1.054 1.51-1.762 2.66-1.762l.161.003c.373.03.716-.257.761-.637.115-.978.116-1.972.005-2.957zm-12.898 5.807c-2.391 0-4.336-1.945-4.336-4.336 0-2.391 1.945-4.336 4.336-4.336 2.391 0 4.336 1.945 4.336 4.336 0 2.391-1.945 4.336-4.336 4.336" fill="url(#4)" stroke-width="1.317"/><circle cx="408.57" cy="523.8" r="5" fill="url(#5)"/><circle cx="408.57" cy="523.8" r="3.5" fill="url(#6)"/></g></g></g></svg>