<svg xmlns="http://www.w3.org/2000/svg" viewBox="0 0 48 48"><defs><linearGradient id="0" gradientUnits="userSpaceOnUse" y1="-9.01" x2="0" y2="-55.29"><stop stop-color="#197ff1"/><stop offset="1" stop-color="#21c6fb"/></linearGradient></defs><g transform="matrix(.99999 0 0 .99999-38.37 55.882)" enable-background="new"><circle cx="62.37" cy="-31.875" r="24" fill="url(#0)"/><path d="m63.819-19.1q-.665.7-1.681.7-1.016 0-1.716-.7-.665-.7-.665-1.681 0-.981.665-1.681.7-.7 1.716-.7 1.016 0 1.681.7.7.7.7 1.681 0 .981-.7 1.681m-.035-7.285h-3.292v-1.646q0-1.576.665-2.697.665-1.156 2.346-2.697.946-.876 1.331-1.296.42-.455.806-1.226.42-.806.42-1.646 0-1.611-1.051-2.592-1.016-.981-2.837-.981-3.01 0-4.133 3.362l-3.01-1.261q.735-1.996 2.522-3.572 1.821-1.611 4.623-1.611 3.187 0 5.183 1.891 1.996 1.856 1.996 4.763 0 1.261-.665 2.557-.665 1.296-1.191 1.856-.49.525-1.401 1.366-.105.105-.175.175-2.136 1.926-2.136 3.852v1.401" fill-opacity=".855" fill="#fff"/></g></svg>