<svg xmlns="http://www.w3.org/2000/svg" viewBox="0 0 24 24"><defs><clipPath><path d="m69.63 12.145h-.052c-22.727-.292-46.47 4.077-46.709 4.122-2.424.451-4.946 2.974-5.397 5.397-.044.237-4.414 23.983-4.122 46.71-.292 22.777 4.078 46.523 4.122 46.761.451 2.423 2.974 4.945 5.398 5.398.237.044 23.982 4.413 46.709 4.121 22.779.292 46.524-4.077 46.761-4.121 2.423-.452 4.946-2.976 5.398-5.399.044-.236 4.413-23.981 4.121-46.709.292-22.777-4.077-46.523-4.121-46.761-.453-2.423-2.976-4.946-5.398-5.397-.238-.045-23.984-4.414-46.71-4.122"/></clipPath></defs><path d="m.674 341.78l-56.2-8.239-25.19-51.36c-1.417-3.085-3.247-4.627-5.486-4.627-2.239 0-4.068 1.542-5.486 4.627l-25.19 51.36-56.2 8.239c-4.179.677-6.269 2.408-6.269 5.192 0 1.581.933 3.387 2.799 5.418l40.754 39.955-9.628 56.43c-.15 1.054-.224 1.808-.224 2.258 0 1.581.392 2.915 1.175 4.01.783 1.092 1.958 1.636 3.526 1.636 1.344 0 2.836-.449 4.479-1.353l50.27-26.639 50.27 26.639c1.569.903 3.062 1.353 4.477 1.353 1.497 0 2.633-.543 3.416-1.636.782-1.092 1.174-2.427 1.174-4.01 0-.978-.037-1.73-.113-2.258l-9.629-56.43 40.641-39.955c1.943-1.956 2.912-3.763 2.912-5.418 0-2.785-2.089-4.515-6.272-5.192" transform="matrix(.07965 0 0 .07965 18.874-17.198)" fill="#1A1D20"/></svg>