<svg xmlns="http://www.w3.org/2000/svg" viewBox="0 0 22 22"><g transform="translate(0-1030.36)"><path d="m3.555 1046.8c-.206-.387-.221-1.621-.03-2.548.412-2.01 1.307-3.861 2.618-5.423l.519-.619-2.391-2.531h7.259c.004.151 0 7.285 0 7.285l-2.552-2.344c-.441.169-2.848 2.458-3.504 3.33-.447.595-.973 1.588-1.247 2.355-.293.82-.443.929-.674.494z" fill="#fff" fill-opacity=".947" stroke-width=".118" transform="matrix(.78338 0 0 .78338 4.881 226.06)" stroke="#f6f6f6" stroke-linejoin="round" stroke-linecap="round"/><g transform="matrix(.28571 0 0 .28571-208.67 987.1)" fill-opacity=".98" fill="#1A1D20"><rect y="161.93" x="740.86" height="56" width="56" fill-opacity=".98" rx="28" stroke-width="1.083"/><path d="m299.02 161.26h-185.84v-46.28c0-41.34 33.635-74.979 74.979-74.979 33.758 0 63.51 22.716 72.36 55.24 2.898 10.657 13.888 16.946 24.547 14.05 10.659-2.898 16.949-13.889 14.05-24.548-13.57-49.896-59.2-84.74-110.96-84.74-63.4 0-114.98 51.58-114.98 114.98v46.715c-9.06 1.902-15.888 9.952-15.888 19.571v175.05c0 11.03 8.972 20 20 20h221.73c11.03 0 20-8.972 20-20v-175.05c0-11.03-8.972-20-20-20m-84 149.65c.408 2.162-1.058 3.931-3.258 3.931h-46.677c-2.2 0-3.666-1.769-3.258-3.931l7.432-39.39c-5.626-5.131-9.157-12.52-9.157-20.734 0-15.495 12.561-28.06 28.06-28.06 15.495 0 28.06 12.561 28.06 28.06 0 7.991-3.346 15.195-8.707 20.305z" transform="matrix(.08013 0 0 .08013 753.78 174.81)" fill="#f6f6f6" fill-opacity="1"/></g></g></svg>