<svg xmlns="http://www.w3.org/2000/svg" viewBox="0 0 22 22"><path d="m344.73 547.77c-.339-.334-1.092-.511-2.237-.526-.775-.009-1.708.06-2.689.197-.439-.254-.892-.529-1.248-.862-.956-.893-1.755-2.133-2.252-3.495.032-.127.06-.239.086-.353 0 0 .539-3.06.396-4.094-.02-.142-.032-.183-.07-.293l-.047-.12c-.147-.338-.434-.696-.884-.676l-.264-.008h-.008c-.502 0-.912.257-1.019.641-.327 1.204.001 3.01.621 5.339l-.156.38c-.437 1.066-.985 2.14-1.469 3.087l-.063.123c-.509.995-.97 1.841-1.389 2.556l-.432.228c-.031.017-.772.408-.946.513-1.473.88-2.449 1.878-2.611 2.671-.052.253-.013.576.249.726l.418.21c.181.091.372.137.568.137 1.049 0 2.267-1.307 3.946-4.236 1.938-.631 4.143-1.155 6.077-1.444 1.473.83 3.285 1.406 4.429 1.406.203 0 .378-.019.52-.057.219-.058.404-.183.517-.353.222-.334.267-.794.207-1.265-.018-.14-.13-.313-.25-.431m-15.672 5.583c.191-.523.949-1.557 2.069-2.475.07-.057.244-.22.403-.371-1.171 1.868-1.955 2.612-2.471 2.846m6.633-15.274c.337 0 .529.85.545 1.647.016.797-.171 1.356-.402 1.77-.192-.613-.284-1.579-.284-2.21 0 0-.014-1.207.141-1.207m-1.979 10.885c.235-.421.479-.864.729-1.335.609-1.152.993-2.053 1.28-2.793.57 1.036 1.279 1.917 2.113 2.623.104.088.214.177.33.265-1.696.336-3.162.744-4.452 1.24m10.692-.096c-.103.065-.399.102-.589.102-.614 0-1.374-.281-2.44-.738.409-.03.785-.046 1.121-.046.616 0 .799-.003 1.401.151.602.154.61.466.507.53m5.99564-2.78693a14.238686 14.238686 0 0 1 -14.23869 14.23868 14.238686 14.238686 0 0 1 -14.23868 -14.23868 14.238686 14.238686 0 0 1 14.23868 -14.23869 14.238686 14.238686 0 0 1 14.23869 14.23869" fill="#d24d57" transform="matrix(.56185 0 0 .56185-177.87-295.81)"/></svg>