<svg xmlns="http://www.w3.org/2000/svg" viewBox="0 0 22 22"><defs><linearGradient gradientUnits="userSpaceOnUse" y2="526.96" x2="412.89" y1="544.81" x1="412.4" id="0"><stop stop-color="#0973d9"/><stop offset="1" stop-color="#0cbffe"/></linearGradient></defs><g transform="matrix(.38189 0 0 .38189-111.19-188.68)" fill="#4d4d4d"><path d="m452.4 482.3h18.917c-.533 3.416-2.344 7.05-5.389 10.824-1.94-3.108-3.188-6.123-3.9-8.13-.18-.507-.659-.845-1.195-.845h-3.113c-.404 0-.785.193-1.024.519-.239.327-.308.747-.185 1.133.738 2.322 2.436 6.882 5.577 11.515-3.71 3.607-7.405 6.206-8.835 7.164-.569.381-.732 1.146-.369 1.727l1.562 2.498c.181.289.471.493.805.567.09.02.18.03.271.03.246 0 .489-.072.697-.208 1.472-.968 5.292-3.609 9.292-7.441 1.48 1.542 4.959 4.246 7.02 5.745.315.229.717.3 1.093.194.375-.107.68-.38.827-.74l1.165-2.849c.234-.572.021-1.232-.505-1.557-1.343-.833-3.872-2.545-5.936-4.768 4.532-5.304 7.116-10.474 7.685-15.375h.999c.7 0 1.268-.568 1.268-1.269v-3.381c0-.7-.568-1.268-1.268-1.268h-9.879v-1.736c0-.701-.568-1.269-1.268-1.269h-3.165c-.7 0-1.268.568-1.268 1.269v1.736h-9.879c-.7 0-1.268.568-1.268 1.268v3.381c0 .699.568 1.267 1.268 1.267m-7.08 46.06l-25.784-75.941h56.03c10.489-.427 11.685 6.94 11.685 6.94v60.713c0 0 1.837 8.288-9.271 8.288z" transform="matrix(.44874 0 0 .44874 123.56 306.67)"/><path d="m320.15 535.51l3.115 8.32 7.462-8.32z" fill-rule="evenodd"/><path d="m312.35 511.48c-.085-.273-.337-.459-.623-.459h-3.624c-.287 0-.54.187-.624.462l-4.33 14.158c-.061.198-.024.413.099.579.123.166.318.264.525.264h2.248c.293 0 .55-.195.628-.477l.971-3.493h4.43l1.051 3.506c.083.276.337.465.625.465h2.39c.208 0 .402-.098.525-.265.123-.167.159-.382.098-.58l-4.388-14.159m-4.228 8.422l1.632-6.263h.044l1.745 6.263h-3.421m8.639-17.974l11.353 33.826h-26.27c-4.115.19-4.169-3.091-4.169-3.091v-27.04c0 0 .109-3.692 4.467-3.692z"/></g></svg>