<svg xmlns="http://www.w3.org/2000/svg" viewBox="0 0 22 22"><path transform="translate(-1-1)" d="m12 4c-1.105 0-2 .895-2 2 0 .932.637 1.716 1.5 1.938v2.063h-2.5v1h2.5v7.969c-2.539-.163-4.748-1.512-6.094-3.5l.188-.094.906-.5-.5-.875c0 0-3 1.625-3 1.625l.5.875 1.031-.563c1.604 2.436 4.336 4.063 7.469 4.063 3.133 0 5.864-1.627 7.469-4.063l1.031.563.5-.875c0-.0001-3-1.625-3-1.625l-.5.875.906.5.188.094c-1.345 1.988-3.555 3.337-6.094 3.5v-7.969h2.5v-1h-2.5v-2.063c.863-.222 1.5-1.01 1.5-1.938 0-1.105-.895-2-2-2m0 1c.552 0 1 .448 1 1 0 .552-.448 1-1 1-.552 0-1-.448-1-1 0-.552.448-1 1-1z" fill="#4d4d4d" fill-rule="evenodd" color="#000"/></svg>