<svg xmlns="http://www.w3.org/2000/svg" viewBox="0 0 22 22"><path d="m4.6 3c-.443 0-.799.358-.799.801v14.398c0 .443.356.801.799.801h12.801c.443 0 .799-.358.799-.801v-14.398c0-.443-.356-.801-.799-.801h-12.801m6.4 4c.155-.001.311.042.43.16l2.57 2.838c.218.219.218.574 0 .793-.218.219-.572.219-.791 0l-2.209-2.439-2.207 2.439c-.219.219-.572.219-.791 0-.219-.219-.219-.574 0-.793l2.568-2.838c.118-.118.275-.17.43-.16m-.004 3.516c.509 0 .922.414.922.924 0 .51-.413.922-.922.922-.509 0-.92-.412-.92-.922 0-.51.411-.924.92-.924m0 2.637c.509 0 .922.414.922.924 0 .51-.413.922-.922.922-.509 0-.92-.412-.92-.922 0-.51.411-.924.92-.924" transform="translate(0-.032)" stroke-opacity=".55" fill="#4d4d4d" stroke-width="2.8" stroke="none"/></svg>