<?xml version="1.0" encoding="UTF-8" standalone="no"?>
<svg
   xmlns:dc="http://purl.org/dc/elements/1.1/"
   xmlns:cc="http://creativecommons.org/ns#"
   xmlns:rdf="http://www.w3.org/1999/02/22-rdf-syntax-ns#"
   xmlns:svg="http://www.w3.org/2000/svg"
   xmlns="http://www.w3.org/2000/svg"
   xmlns:sodipodi="http://sodipodi.sourceforge.net/DTD/sodipodi-0.dtd"
   xmlns:inkscape="http://www.inkscape.org/namespaces/inkscape"
   viewBox="0 0 22 22"
   id="svg2"
   version="1.1"
   inkscape:version="0.91 r13725"
   sodipodi:docname="archive-remove.svg">
  <metadata
     id="metadata14">
    <rdf:RDF>
      <cc:Work
         rdf:about="">
        <dc:format>image/svg+xml</dc:format>
        <dc:type
           rdf:resource="http://purl.org/dc/dcmitype/StillImage" />
        <dc:title></dc:title>
      </cc:Work>
    </rdf:RDF>
  </metadata>
  <sodipodi:namedview
     pagecolor="#ffffff"
     bordercolor="#666666"
     borderopacity="1"
     objecttolerance="10"
     gridtolerance="10"
     guidetolerance="10"
     inkscape:pageopacity="0"
     inkscape:pageshadow="2"
     inkscape:window-width="1366"
     inkscape:window-height="746"
     id="namedview12"
     showgrid="false"
     inkscape:zoom="10.727273"
     inkscape:cx="-4.3347455"
     inkscape:cy="11"
     inkscape:window-x="0"
     inkscape:window-y="22"
     inkscape:window-maximized="1"
     inkscape:current-layer="svg2" />
  <defs
     id="defs4">
    <clipPath
       id="clipPath6">
      <path
         d="m69.63 12.145h-.052c-22.727-.292-46.47 4.077-46.709 4.122-2.424.451-4.946 2.974-5.397 5.397-.044.237-4.414 23.983-4.122 46.71-.292 22.777 4.078 46.523 4.122 46.761.451 2.423 2.974 4.945 5.398 5.398.237.044 23.982 4.413 46.709 4.121 22.779.292 46.524-4.077 46.761-4.121 2.423-.452 4.946-2.976 5.398-5.399.044-.236 4.413-23.981 4.121-46.709.292-22.777-4.077-46.523-4.121-46.761-.453-2.423-2.976-4.946-5.398-5.397-.238-.045-23.984-4.414-46.71-4.122"
         id="path8" />
    </clipPath>
  </defs>
  <path
     style="fill:#1a1d20;fill-opacity:1;stroke:none;stroke-width:2.79999995;stroke-opacity:0.55"
     d="M 4.5996094 2.96875 C 4.1566094 2.96875 3.8007812 3.3265312 3.8007812 3.7695312 L 3.8007812 18.167969 C 3.8007812 18.610969 4.1566094 18.96875 4.5996094 18.96875 L 17.400391 18.96875 C 17.843391 18.96875 18.199219 18.610969 18.199219 18.167969 L 18.199219 3.7695312 C 18.199219 3.3265312 17.843391 2.96875 17.400391 2.96875 L 4.5996094 2.96875 z M 8.9179688 8.5253906 L 9.9589844 9.5644531 L 11 10.603516 L 12.041016 9.5644531 L 13.082031 8.5253906 L 13.273438 8.7265625 L 13.466797 8.9277344 L 12.431641 9.9648438 L 11.396484 11.001953 L 12.431641 12.037109 L 13.466797 13.072266 L 13.273438 13.273438 L 13.082031 13.474609 L 12.041016 12.435547 L 11 11.396484 L 9.9589844 12.435547 L 8.9179688 13.474609 L 8.7265625 13.273438 L 8.5332031 13.072266 L 9.5351562 12.068359 C 10.086654 11.515999 10.539062 11.035404 10.539062 11 C 10.539062 10.9646 10.086654 10.484002 9.5351562 9.9316406 L 8.5332031 8.9277344 L 8.7265625 8.7265625 L 8.9179688 8.5253906 z "
     id="path10" />
</svg>
