<svg xmlns="http://www.w3.org/2000/svg" viewBox="0 0 22 22"><path d="m432.72 528.79c-.319 0-.628.026-.938.063-.304.036-.614.087-.906.156-.094.022-.185.067-.281.094-.084.023-.167.037-.25.063-.105.033-.214.059-.313.094-.107.038-.207.083-.313.125-.206.083-.397.182-.594.281-.071.036-.149.056-.219.094-.23.121-.441.263-.656.406-.082.055-.17.098-.25.156-.033.024-.061.038-.094.063-.094.071-.191.142-.281.219-.107.089-.21.187-.313.281-.032.03-.062.064-.094.094-.011.011-.02.02-.031.031-.016.016-.015.047-.031.063-.21.204-.439.399-.625.625-.005.001.005.025 0 .031-.181.22-.343.448-.5.688-.021.032-.042.061-.063.094-.015.024-.047.037-.063.063-.06.098-.101.209-.156.313-.018.033-.045.061-.063.094-.075.146-.15.29-.219.438-.004.001.004.023 0 .031-.117.253-.222.514-.313.78-.019.053-.045.103-.063.156-.003.001.003.022 0 .031-.02.062-.044.125-.063.188-.073.257-.14.514-.188.781-.034.192-.074.397-.094.594-.027.265-.031.542-.031.813 0 .404.036.8.094 1.188.006.041-.007.085 0 .125.044.266.118.525.188.781.026.096.064.186.094.281.04.129.079.249.125.375.077.212.156.422.25.625.05.106.102.21.156.313.152.292.315.575.5.844.016.024.046.039.063.063.198.281.394.56.625.813.04.044.084.082.125.125.04.042.084.084.125.125.214.214.451.405.688.594.306.244.629.459.969.656.012.001.019.024.031.031.053.03.103.065.156.094.316.156.692.325.938.438.11.042.231.057.344.094.053.018.103.046.156.063.136.041.268.09.406.125.042.011.083.021.125.031.292.069.602.121.906.156.309.036.618.063.938.063.34 0 .671-.021 1-.063.365-.048.681-.124 1-.188 1.698-.436 3.162-1.421 4.218-2.749.028-.035.067-.058.094-.094.009-.012.022-.02.031-.031.014-.018.018-.044.031-.063.623-.825 1.077-1.78 1.344-2.812.056-.217.118-.432.156-.656.005-.03-.005-.063 0-.094.006-.04.025-.079.031-.125.006-.043.026-.082.031-.125h-.031c.044-.329.094-.659.094-1 0-.552-.05-1.103-.156-1.624-.009-.043-.022-.082-.031-.125-.046-.208-.124-.423-.188-.625-.003-.001.003-.022 0-.031-.012-.038-.018-.056-.031-.094-.039-.119-.081-.258-.125-.375-.012-.032-.018-.064-.031-.094-.043-.109-.108-.206-.156-.313-.002 0 .002-.026 0-.031-.025-.054-.068-.103-.094-.156-.098-.203-.198-.4-.313-.594-.058-.098-.094-.217-.156-.313-.024-.036-.069-.058-.094-.094-.067-.099-.147-.185-.219-.281-.08-.1-.14-.216-.219-.313-.005-.001.005-.025 0-.031-.172-.209-.37-.403-.563-.594-.093-.092-.184-.194-.281-.281-.028-.025-.065-.038-.094-.063-.209-.182-.43-.34-.656-.5-.055-.038-.101-.088-.156-.125-.07-.046-.148-.081-.219-.125-.135-.084-.266-.174-.406-.25-.123-.067-.248-.127-.375-.188-.214-.102-.432-.198-.656-.281-.266-.099-.534-.18-.813-.25-.245-.062-.497-.118-.75-.156-.397-.061-.805-.094-1.219-.094m0 1c.299 0 .585.027.875.063.18.023.355.058.531.094.001 0 .021 0 .031 0 .166.035.338.079.5.125.096.027.187.063.281.094.172.057.334.117.5.188.194.08.379.153.563.25-.031.001-.063.021-.094.031-.047.017-.113.096-.125.125-.02.048.005.115 0 .188.038.017.06.089.125.125.025.014.041-.001.063 0 .038.021.07.087.063.125-.011.055-.088.022-.125.063.006.078-.043.105-.063.156.012.033.057.024.063.063-.007.043-.079.049-.063.094.072.056.151-.022.219-.031.149-.019.283.041.375-.031-.012-.071.101-.092.094-.156-.006-.048-.09-.061-.125-.094-.019-.018-.04-.059-.063-.094-.026-.04-.064-.087-.094-.125-.039-.052-.125-.117-.125-.156.0001-.045.052-.063.063-.125-.012-.057-.117 0-.125-.063.002-.019.021-.051.031-.063.15.082.298.179.438.281.032.021.062.041.094.063.108.081.207.17.313.25-.067.012-.101.09-.156.156-.038.046-.099.101-.156.125-.028.012-.068-.016-.094 0-.037.025-.051.096-.094.125-.031.021-.124.094-.156.094-.038.0001-.098-.04-.125-.031-.04.013-.017.077-.063.094-.088.031-.25-.069-.281.063.038.076.153.051.219.094.042.026.114.143.125.188.001.038.015.179 0 .219-.041.106-.159.097-.281.094-.034-.0001-.063 0-.094 0-.207-.014-.407-.085-.5.063.007.113.025.183 0 .281-.018.072-.097.125-.094.188.002.032.055.082.063.125.005.023-.011.073 0 .094.034.066.127-.001.188 0 .059.001.126.121.125.188-.0001.046-.033.112-.063.156-.058.089-.167.077-.25.125-.07.039-.084.119-.125.188-.044.074-.081.111-.063.219-.06.118-.126.194-.25.25-.037.017-.092.039-.125.063-.027.019-.056.051-.094.094-.047.052-.1.085-.125.125-.019.031-.001.084-.031.125-.029.056-.088.1-.125.156-.017.026-.043.059-.063.094-.042.077-.101.151-.094.219.007.066.089.068.094.125.004.032-.033.059-.031.094.0001.051.027.086.031.125.001.099-.044.12-.063.188-.009.032.008.068 0 .094-.016.05-.093.098-.094.156-.0001.042.059.097.063.156.002.04-.038.057-.031.094.014.073.162.162.219.219.075.075.155.139.188.219.027.067.041.168.094.219.039.037.106.054.156.094.047.036.107.055.156.094.081.064.183.197.313.188.068-.001.142-.05.219-.063.079-.014.17-.039.25-.031.061.001.124.066.188.063.067 0 .143-.061.219-.094.132-.057.339-.153.531-.125.146.021.149.217.25.281.118.001.219-.054.313-.031.07.017.149.132.156.188.007.058-.054.121-.063.156-.018.078-.017.169-.031.219-.011.038-.032.086-.031.125 0 .035.058.142.094.188.044.056.103.096.156.156.087.109.155.236.219.375.017.037-.016.077 0 .125-.029.224-.103.377-.25.625-.069.08-.158.15-.156.25-.005.24.136.393.125.625-.024.312.024.333 0 .5.105.053.031.233 0 .344-.045.132-.1.162-.125.25.071.031.171.019.25 0 0 0 .096.401.094.406-.807.797-1.819 1.387-2.938 1.718-.55.133-.713.133-.969.188-.334.055-.683.094-1.031.094-.243 0-.483-.001-.719-.031-.182-.018-.354-.062-.531-.094-.053-.001-.104-.02-.156-.031-.163-.055-.351-.088-.5-.125-.17-.048-.335-.096-.5-.156.014-.013.027-.011.031-.031.009-.04.002-.062 0-.125.015-.065.08-.058.094-.125-.028-.048-.083-.038-.125-.063-.041-.024-.068-.074-.063-.125.07-.029.2.066.25-.031.025-.046-.034-.141 0-.188.023-.031.169-.055.219-.063.071-.012.148-.001.188-.031.044-.029.101-.105.094-.188-.004-.039-.033-.059-.063-.094-.025-.029-.013-.066-.031-.094-.031-.047-.08-.058-.094-.125.096-.019.236.102.375.063.066-.019.157-.188.188-.25.001-.019-.001-.04 0-.063.012-.026.059-.049.063-.063.001-.036-.008-.071 0-.094.024-.068.085-.075.125-.125.03-.038.065-.087.094-.125.031-.041.042-.089.063-.125.02-.122-.06-.206-.031-.313.032-.12.196-.165.313-.219.04-.019.092-.05.125-.063.08-.028.176-.036.25-.063.125-.046.157-.167.219-.281.029-.054.057-.118.063-.156.005-.035-.007-.053 0-.094.006-.04.02-.081.031-.125.014-.058.031-.154.031-.219 0-.053-.029-.078-.031-.125-.009-.173.061-.218.125-.313.032-.047.04-.091.063-.125.108-.161.295-.226.281-.469-.005-.08-.035-.256-.094-.281-.034-.015-.107-.011-.156-.031-.158-.059-.274-.269-.438-.281-.035 0-.055.031-.094.031-.065 0-.147-.053-.219-.063-.046-.001-.129.013-.156 0-.042-.02-.029-.102-.063-.125-.027-.018-.084-.015-.125-.031-.066-.025-.112-.056-.188-.063-.023-.0001-.067 0-.094 0-.042-.001-.086-.04-.125-.063-.048-.029-.074-.052-.094-.094.044-.144-.096-.167-.125-.25-.014-.039.013-.09 0-.125-.017-.05-.071-.084-.125-.125-.097-.074-.174-.139-.313-.156-.061-.001-.145 0-.219 0-.078-.001-.161-.058-.219-.125-.056-.065-.076-.125-.125-.156-.047-.03-.124-.031-.156-.063-.014-.014-.017-.031-.031-.063-.023-.048-.061-.098-.031-.156-.053-.027-.035.072-.094.063-.052-.074-.101-.115-.219-.094-.054.001-.093.06-.156.063-.052 0-.088-.053-.156-.063-.052-.001-.12.036-.156.031-.057-.011-.073-.059-.125-.094-.038-.025-.104-.095-.125-.094-.067 0-.126.143-.219.094-.045-.057.085-.071.031-.125-.04-.041-.061.001-.094.031-.037.025-.084.047-.125.063-.092.034-.147.025-.219.063-.066.034-.087.088-.125.156-.031.056-.079.153-.125.156-.056 0-.106-.072-.156-.094-.153-.066-.248.03-.375.031-.118 0-.287-.171-.281-.281.004-.067.054-.166.063-.25.006-.066.062-.127.063-.188.0001-.081-.135-.147-.188-.156-.125-.023-.295.061-.438 0-.027-.045.047-.081.063-.125.009-.025-.009-.034 0-.063.016-.042.074-.08.094-.125.015-.034.016-.082.031-.125.017-.049.059-.091.063-.125.005-.045-.027-.095-.063-.125-.111.001-.187 0-.25.031-.144.066-.106.266-.25.313-.05.016-.133.021-.188.031-.047.001-.107.032-.156.031-.058-.0001-.153-.057-.188-.094-.009-.001-.024-.036-.031-.063.002-.001-.002-.021 0-.031.046-.223.093-.444.156-.656.003-.001-.003-.022 0-.031.042-.139.103-.27.156-.406.013-.001.019-.023.031-.031.077-.053.156-.119.25-.125.057 0 .164.02.219.031.05.001.082.059.125.063.123.001.149-.103.25-.156.104.015.156-.001.25 0 .064.001.138.09.188.094.042 0 .053-.069.094-.063.04.001.119.108.125.156.007.06-.048.122-.031.188.063.064.191.056.281.094.059-.048.009-.118 0-.188-.002-.031.004-.066 0-.094-.006-.048-.031-.084-.031-.125-.0001-.19.154-.3.281-.375.055-.033.108-.069.156-.094.067-.034.1-.063.156-.094.101-.057.202-.092.281-.156.037-.086-.004-.196 0-.281.037-.022.055 0 .094 0 .061-.013.09-.091.125-.125.02-.02.069-.043.094-.063.061-.048.072-.104.125-.125.019-.001.064-.017.094-.031.04-.011.092-.04.156-.063.042-.014.14-.015.156-.031.02-.02-.006-.095 0-.125.032-.151.272-.168.406-.219.094-.036.178-.114.281-.094-.02.072-.11.038-.094.125.023.121.176-.013.219-.031.081-.034.237-.055.344-.094.094-.034.245-.08.156-.188-.074 0-.092.066-.156.094-.044.001-.056-.027-.094-.031-.036 0-.057.038-.094.031-.037-.001-.088-.082-.094-.125-.015-.111.11-.136.156-.219-.03-.101-.166-.024-.25-.063.009-.06.055-.114.125-.125.057-.001.185.001.219.031.02.017 0 .066.031.094.034.031.081.001.125 0 .016-.076-.106-.043-.094-.094.09-.059.265-.016.375-.031.063-.001.131-.062.188-.094.054-.03.099-.081.156-.031.016.054-.032.066-.063.094-.102.091-.202.207-.281.313.049.048.136.022.219.031.032 0 .06.025.094.031.04.001.094-.012.125 0 .056.014.07.094.125.094.091 0 .083-.125.031-.188.016-.063.053-.08.031-.125-.041-.082-.211.014-.219-.094-.005-.067.07-.075.094-.125-.011-.129.106-.135.094-.25-.006-.048-.06-.049-.094-.094-.017-.023-.001-.076-.031-.094-.07-.059-.21-.044-.219-.156-.004-.066.001-.115 0-.188-.009-.067-.066-.268-.125-.281-.075-.016-.129.114-.219.156-.049.023-.139.04-.188.031-.032-.001-.089-.032-.094-.094-.006-.07.05-.082.063-.156-.011-.044-.051-.029-.094-.063-.049-.037-.091-.116-.156-.125-.033 0-.093.029-.125.031-.06 0-.106-.015-.156-.031.021-.001.041-.024.063-.031.122-.042.25-.059.375-.094.022-.001.041-.025.063-.031.031.033.056.103.094.125.025.014.063-.001.094 0 .098.03.174.085.281.063.037-.065-.074-.074-.031-.125.072.001.132.04.188.063.077-.056.128-.066.125-.156-.0001-.046-.062-.063-.094-.094.063-.011.124-.022.188-.031.005.017.021.03.031.031.038.001.165-.051.188-.063.004 0-.006-.027 0-.031.253-.027.521-.031.781-.031m-2.5.469c-.023.043-.047.079-.094.094.012.065-.084.105-.094.156-.006.035-.002.094 0 .125.02.319-.251.477-.563.469-.061.058-.029.17-.063.25-.028.067-.12.131-.188.125-.05 0-.125-.079-.125-.125 0-.057.081-.091.031-.156.007-.044.106-.086.094-.156-.012-.074-.096-.019-.188-.031-.052-.001-.133-.037-.188-.063.101-.067.205-.126.313-.188.094-.056.185-.105.281-.156.252-.127.522-.244.781-.344m5.374.75c-.027 0-.04.018-.063.031-.051.031-.054.079-.094.094-.054.021-.117.001-.125.063-.006.041.033.055.031.094-.02.049-.053.066-.063.125.068.11.229-.001.313-.031.038-.011.073 0 .094-.031.023-.035.013-.105.031-.156.019-.056.069-.043.063-.094-.006-.05-.106-.102-.188-.094m-7.312.781c.061.016.196.193.063.25-.013.001-.187.036-.219.031-.046-.001-.078-.086-.125-.094-.092-.016-.218.101-.281 0 .016-.059.086-.043.156-.063.125-.034.298-.153.406-.125m.25.313c.031 0 .056.059.094.063.036 0 .072-.036.094-.031.056.015.084.115.031.156-.044 0-.061-.037-.094-.031-.091.016-.12.193-.188.188-.064-.001-.096-.141-.031-.188.002-.04-.033-.054-.031-.094.02-.025.072-.066.125-.063m-.313.031c.019.0001.024 0 .031 0-.009.071-.039.091-.094.125-.095.057-.157.128-.188.25-.009.036-.111.134-.156.125-.106-.022.038-.22.063-.25.027-.033.062-.056.094-.094.03-.037.033-.105.063-.125.032-.022.132-.033.188-.031m9.499.031c.048.013.058.069.094.094.027.018.064.012.094.031.035.022.054.06.094.094.056.047.14.088.219.125.016.001.044.023.063.031.055.071.104.145.156.219.006.04.012.099.031.125.052.071.131.132.188.219-.0001.083.036.133.094.156.073.124.149.248.219.375.029.058.035.129.063.188-.021 0-.043.001-.063 0-.066-.116-.409-.139-.438.031-.013.075.049.175-.063.188-.071.001-.153-.073-.25-.094-.04-.001-.094.014-.125 0-.073-.025-.062-.112-.125-.156-.036-.025-.13-.056-.188-.063-.036 0-.056 0-.094 0-.045-.001-.118-.001-.156-.031-.036-.022-.116-.062-.125-.094-.014-.049.09-.114.094-.156.002-.031-.023-.045-.031-.094-.005-.029.006-.074 0-.094-.001-.034-.071-.062-.125-.063-.048 0-.084.03-.125.031-.059.0001-.177-.037-.25-.031-.044 0-.084.028-.125.031-.116.001-.191-.001-.281 0-.066 0-.189.034-.25.063-.031.014-.054.043-.094.063-.018.001-.039.021-.063.031-.038.017-.089.053-.125.063-.052.013-.124 0-.219 0-.068 0-.187-.014-.188-.094-.0001-.123.227-.072.344-.094.044-.001.073-.063.125-.094.025-.015.039-.015.063-.031.04-.028.119-.093.125-.125.006-.03-.035-.072-.031-.094.005-.028.057-.058.094-.094.056-.055.087-.12.156-.156.047-.025.135-.024.156-.063.005-.043-.0001-.055 0-.094.029-.027.038-.058.063-.063.072-.016.135.035.219.031.036 0 .086-.001.125-.031.033-.022.062-.045.094-.063.035-.018.051-.059.094-.063.105-.001.171.124.219.188.04.053.153.119.219.156.037.021.084.045.125.063.087.039.247.165.25.25.002.042-.038.054-.031.094.066.011.123-.059.125-.125.0001-.041-.039-.05-.031-.094.031-.066.148-.001.188-.031-.007-.075-.124-.086-.188-.125-.034-.021-.058-.048-.094-.063-.052-.021-.116-.032-.156-.063-.038-.029-.057-.08-.094-.125-.054-.064-.158-.073-.125-.219.016-.022.037-.069.063-.063m-8.812.219h.094c.034.0001.08-.018.094 0-.022.088-.212.063-.281.031.004-.033.05-.027.094-.031m-.313.156c.023 0 .039-.001.063 0-.062.052-.144.092-.25.125-.051.016-.116.025-.125-.031-.011-.069.047-.056.094-.063.058-.001.15-.029.219-.031m8.687 0c-.043.014-.066.113 0 .125.031-.018.039-.068.031-.125-.017-.018-.017 0-.031 0m-.031.188c-.021.001-.04.001-.063.031.0001.075.015.123 0 .188.043.082.134.026.156-.031.026-.139-.03-.205-.094-.188m.438.375c.049.08.141.137.25.156.04-.03.044-.105.063-.156-.047.0001-.097 0-.156 0-.059 0-.122-.028-.156 0m-11.687 2.687c.164-.001.212.216.344.281.033.017.082.022.125.031.035.001.061.02.094.031.071.024.162.001.219.031.085.038.146.207.219.25.004.043-.013.093 0 .125.035.047.099.064.156.094.068.037.092.127.156.156.022.001.059-.001.094 0 .088.027.112.147.188.125.05-.014.055-.078.063-.125.033-.036.074-.093.125-.094.083 0 .095.075.125.156.017.046.051.108.063.156.021.083.017.325 0 .375-.021.061-.106.089-.156.156-.024.031-.044.071-.063.094-.032.04-.069.057-.094.094-.014.021-.018.066-.031.094-.04.085-.096.148-.063.25.014.042.062.076.063.125 0 .058-.115.093-.125.156-.007.047.048.126.063.188.011.047.097.094.125.125.047.053.082.121.125.188.085.13.136.28.219.406.043.066.127.119.156.188.015.035-.014.094 0 .125.048.108.266.228.375.281.051.025.11 0 .156.031.071.039.214.157.25.219.032.056.047.193.063.281.021.117-.005.217 0 .344.004.069.03.119.031.188 0 .024.0001.07 0 .094-.002.083.007.166 0 .25-.004.046-.003.087 0 .125.004.041.028.057.031.094.002.039-.035.095-.031.125.009.084.077.142.094.219.013.061.039.208.031.281-.005.039-.025.083-.031.125-.004.033.005.062 0 .094-.006.047-.034.081-.031.125.006.09.08.16.094.25.005.03-.0001.065 0 .094.0001.027.023.038.031.063-.263-.15-.509-.318-.75-.5-.229-.173-.451-.364-.656-.563-.001-.001-.021-.021-.031-.031-.207-.204-.414-.428-.594-.656-.104-.132-.218-.267-.313-.406-.056-.083-.104-.164-.156-.25-.032-.051-.063-.104-.094-.156-.089-.153-.173-.308-.25-.469-.049-.101-.081-.208-.125-.313-.105-.248-.205-.489-.281-.75-.054-.185-.086-.371-.125-.563-.03-.146-.073-.289-.094-.438-.011-.081-.023-.168-.031-.25-.024-.235-.031-.477-.031-.719 0-.302.026-.584.063-.875.0001-.001-.0001-.021 0-.031.063 0 .149-.092.219-.094m2.688.75c.064-.029.084.117.031.125-.05.001-.08-.102-.031-.125" color="#4d4d4d" transform="translate(-421.71-525.79)"/><path d="M11 3A8 8 0 0 0 3 11 8 8 0 0 0 11 19 8 8 0 0 0 19 11 8 8 0 0 0 11 3M11 4A7 7 0 0 1 18 11 7 7 0 0 1 11 18 7 7 0 0 1 4 11 7 7 0 0 1 11 4" fill="#1d99f3"/></svg>