<svg xmlns="http://www.w3.org/2000/svg" viewBox="0 0 22 22" xmlns:xlink="http://www.w3.org/1999/xlink"><defs><path id="0" d="m345.44 248.29l-194.29 194.28c-12.359 12.365-32.397 12.365-44.75 0-12.354-12.354-12.354-32.391 0-44.744l171.91-171.91-171.91-171.9c-12.354-12.359-12.354-32.394 0-44.748 12.354-12.359 32.391-12.359 44.75 0l194.29 194.28c6.177 6.18 9.262 14.271 9.262 22.366 0 8.099-3.091 16.196-9.267 22.373" fill="#4d4d4d"/><clipPath><path fill="#aade87" fill-opacity=".472" d="m-6 1028.36h32v32h-32z"/></clipPath><clipPath><path fill="#00f" fill-opacity=".514" d="m-7 1024.36h34v34h-34z"/></clipPath><clipPath><path fill="#00f" fill-opacity=".514" d="m-7 1024.36h34v34h-34z"/></clipPath><clipPath><path fill="#aade87" fill-opacity=".472" d="m-6 1028.36h32v32h-32z"/></clipPath></defs><g transform="matrix(.98302 0 0 .98302-535.12-730.14)"><rect y="749.93" x="551.57" height="8" width="8" fill="#4d4d4d" fill-rule="evenodd" rx=".48"/><path d="m345.44 248.29l-194.29 194.28c-12.359 12.365-32.397 12.365-44.75 0-12.354-12.354-12.354-32.391 0-44.744l171.91-171.91-171.91-171.9c-12.354-12.359-12.354-32.394 0-44.748 12.354-12.359 32.391-12.359 44.75 0l194.29 194.28c6.177 6.18 9.262 14.271 9.262 22.366 0 8.099-3.091 16.196-9.267 22.373z" stroke-width="33.888" transform="matrix(-.00003-.00885.00885-.00003 553.58 749.1)" fill="#4d4d4d" stroke="#4d4d4d" id="1"/><use transform="matrix(1 0 0-1 0 1507.89)" xlink:href="#1"/><g><use transform="matrix(-.00837-.00832.00832-.00837 548.8 750.88)" xlink:href="#0"/><use transform="matrix(.00837-.00832-.00832-.00837 562.33 750.88)" xlink:href="#0"/></g><g transform="matrix(1 0 0-1-.029 1507.85)"><use transform="matrix(-.00837-.00832.00832-.00837 548.8 750.88)" xlink:href="#0"/><use transform="matrix(.00837-.00832-.00832-.00837 562.33 750.88)" xlink:href="#0"/></g></g></svg>