<svg xmlns="http://www.w3.org/2000/svg" viewBox="0 0 22 22"><path d="m434.08 535.18c0-.321.258-.581.576-.581.318 0 .575.26.575.581 0 .321-.258.581-.575.581-.318 0-.576-.26-.576-.581m-1.792-4.946h-.005v.796h.731v-.773c.251-.127.426-.387.426-.69 0-.428-.343-.774-.768-.774-.424 0-.768.347-.768.774 0 .286.155.533.384.667m-1.598 5.527c.318 0 .575-.26.575-.581 0-.321-.258-.581-.575-.581-.318 0-.576.26-.576.581 0 .321.258.581.576.581m1.982 9.03c.867 0 1.603-.556 1.883-1.333h-3.766c.28.777 1.016 1.333 1.883 1.333m-6-2.359c0-.307.179-.57.436-.695v-3.292c0-.649.501-1.18 1.135-1.222v-1.593c0 0 .154-2.903 2.549-3.807.711-.268 1.361-.377 1.924-.397.563.02 1.213.129 1.924.397 2.396.903 2.55 3.807 2.55 3.807v1.593c.633.042 1.135.573 1.135 1.222v3.292c.257.125.436.388.436.695 0 .427-.344.774-.768.774-.424 0-.768-.347-.768-.774 0-.307.179-.57.436-.695v-2.201c-.143.074-.303.118-.471.13v.765c.004.062.009.123.009.186 0 .067-.004.133-.009.2v.018c-.103 1.274-1.092 2.295-2.345 2.434v.017h-2.13-2.13v-.017c-1.253-.139-2.242-1.16-2.344-2.434v-.018c-.005-.066-.009-.133-.009-.2 0-.063.005-.125.009-.186v-.765c-.169-.012-.329-.056-.472-.13v2.201c.257.125.436.388.436.695 0 .428-.344.774-.768.774-.424 0-.768-.346-.768-.774m7.326-4.049c0-.206-.165-.373-.369-.373-.205 0-.37.167-.37.373 0 .206.165.373.37.373.204 0 .369-.167.369-.373m.91 0c0-.206-.165-.373-.369-.373-.204 0-.37.167-.37.373 0 .206.166.373.37.373.204 0 .369-.167.369-.373m.91 0c0-.206-.165-.373-.369-.373-.205 0-.37.167-.37.373 0 .206.165.373.37.373.204 0 .369-.167.369-.373m-6.212-3.097c0 .989.768 1.054.768 1.054.267.085.832.043 1.087 0 .235-.04 1.098-.115 1.235-.127.005.0001.014.0001.021.002.007 0 .015-.0001.02-.002.138.012 1 .087 1.235.127.256.043.82.085 1.088 0 0 0 .768-.064.768-1.054 0 0 0-1.097-.768-1.764-.744-.647-1.863-.787-2.302-.795-.006-.0001-.014 0-.021 0-.006 0-.014-.0001-.02-.0001-.006 0-.014.0001-.021.0001-.006 0-.014-.0001-.02-.0001-.439.009-1.558.149-2.302.796-.768.667-.768 1.764-.768 1.764" fill="#4d4d4d" transform="translate(-421.71-525.79)"/></svg>