<svg xmlns="http://www.w3.org/2000/svg" viewBox="0 0 22 22"><defs><clipPath><rect width="32" height="32" x="8" y="8" fill="none" rx="16"/></clipPath><clipPath><rect width="32" height="32" x="392.57" y="507.8" fill="none" rx="16"/></clipPath><clipPath><rect y="507.8" x="392.57" height="32" width="32" fill="none" rx="16"/></clipPath><clipPath><rect width="32" height="32" x="392.57" y="507.8" fill="none" rx="16"/></clipPath><clipPath><rect width="32" height="32" x="392.57" y="507.8" fill="none" rx="16"/></clipPath><clipPath><rect y="507.8" x="392.57" height="32" width="32" fill="none" rx="16"/></clipPath><clipPath><rect y="8" x="8" height="32" width="32" fill="none" rx="16"/></clipPath><clipPath><rect y="507.8" x="392.57" height="32" width="32" fill="none" rx="16"/></clipPath><clipPath><rect width="32" height="32" x="392.57" y="507.8" fill="none" rx="16"/></clipPath><clipPath><rect width="32" height="32" x="392.57" y="507.8" fill="none" rx="16"/></clipPath><clipPath><rect width="32" height="32" x="8" y="8" fill="none" rx="16"/></clipPath><clipPath><path d="m0 706.47h1490.93v-706.47h-1490.93v706.47"/></clipPath><clipPath><path d="m22.2 686.12h1447.73v-667.19h-1447.73v667.19"/></clipPath><clipPath><rect width="32" height="32" x="392.57" y="507.8" fill="none" rx="16"/></clipPath><clipPath><rect width="32" height="32" x="392.57" y="507.8" fill="none" rx="16"/></clipPath><clipPath><rect width="32" height="32" x="392.57" y="507.8" fill="none" rx="16"/></clipPath><clipPath><rect width="32" height="32" x="392.57" y="507.8" fill="none" rx="16"/></clipPath><clipPath><rect width="32" height="32" x="8" y="8" fill="none" rx="16"/></clipPath></defs><g transform="translate(-421.71-525.79)"><g font-family="Sans" word-spacing="0" line-height="125%" letter-spacing="0" font-size="9"><text y="547.55" x="420.15"><tspan x="420.15" y="547.55"/></text><text y="541.68" x="420.89"><tspan x="420.89" y="541.68"/></text><text y="548.55" x="414.15"><tspan x="414.15" y="548.55"/></text></g><path d="m394.01 528.14c-.413 0-.748.336-.748.75v13.272c0 .414.335.75.748.75h14.203c.413 0 .748-.336.748-.75v-13.272c0-.414-.335-.75-.748-.75zm9.404 2.652c.947 0 1.715.771 1.715 1.722 0 .951-.768 1.722-1.715 1.722-.947 0-1.715-.771-1.715-1.722 0-.951.768-1.722 1.715-1.722m-7.574 10.473c-.474 0-.685-.344-.471-.769l2.943-5.852c.213-.424.62-.462.907-.085l2.971 5.88c0 0 .486.825-.471.825z" stroke="none" transform="matrix(1.08646 0 0 1.08311-3.059-43.24)" fill="#4d4d4d" stroke-opacity=".8"/></g></svg>