<svg xmlns="http://www.w3.org/2000/svg" viewBox="0 0 22 22"><defs><clipPath><path d="m0 706.47h1490.93v-706.47h-1490.93v706.47"/></clipPath><clipPath><path d="m22.2 686.12h1447.73v-667.19h-1447.73v667.19"/></clipPath></defs><path d="m3.18 201.69l38.31 29.933-36.06 69.07c-18.03 31.851 12.943 62.878 32.676 73.68 19.426 10.632 49.577 11.896 77.75 11.513l50.704-82.89 38.31 20.722-66.48-123.18-135.21 1.15m5.633 169.09l82.25 151.96c16.526 21.11 47.7 26.09 80 25.327h86.76v-143.9l-164.51-1.151c-25.539 1.533-58.967-3.839-84.51-32.24m517.5-280.05l-44.752 18.995-42.933-65.02c-19.12-31.21-61.27-19.16-80.28-7.141-18.716 11.836-34.44 37.594-47.761 62.42l47.914 84.53-36.697 23.46 139.97 1.576 64.54-118.82zm-150.62-77.05l-172.79-1.732c-26.471 4.221-45.948 29.07-60.936 57.691l-42.06 75.882 125.86 69.766 80.76-143.32c11.04-23.08 31.944-49.714 69.16-58.28m7.516 586.36l5.082-48.35 77.69-6.02c36.563-1.59 46.47-44.3 45.17-66.755-1.277-22.11-16.184-48.35-31.437-72.03l-97.16.925-2.729-43.47-69.24 121.65 72.63 114.06m140.41-94.38l85.28-150.28c9.142-25.2-3.146-54.28-20.915-81.27l-45.976-73.58-122.04 76.26 86.2 140.12c14.837 20.845 27.994 52.04 17.446 88.75" transform="matrix(.0265 0 0 .0272 2.894 2.692)" stroke="none" stroke-opacity=".8" fill="#da4453"/></svg>