<svg xmlns="http://www.w3.org/2000/svg" viewBox="0 0 22 22"><g transform="translate(-326-534.36)" fill="#4d4d4d" color-rendering="auto" color-interpolation-filters="linearRGB" shape-rendering="auto" image-rendering="auto" color-interpolation="sRGB" color="#4d4d4d"><path d="M11 5A6 6 0 0 0 5 11 6 6 0 0 0 11 17 6 6 0 0 0 17 11 6 6 0 0 0 11 5M11 6A5 5 0 0 1 16 11 5 5 0 0 1 11 16 5 5 0 0 1 6 11 5 5 0 0 1 11 6" transform="translate(326 534.36)" mix-blend-mode="normal" solid-color="#000000" isolation="auto" solid-opacity="1"/><path mix-blend-mode="normal" solid-color="#000000" isolation="auto" solid-opacity="1" d="m336 537.36h2v3h-2z"/><path mix-blend-mode="normal" solid-color="#000000" isolation="auto" solid-opacity="1" d="m342 544.36h3v2h-3z"/><path mix-blend-mode="normal" solid-color="#000000" isolation="auto" solid-opacity="1" d="m329 544.36h3v2h-3z"/></g></svg>