<svg xmlns="http://www.w3.org/2000/svg" viewBox="0 0 22 22"><path d="M11 3A7 8 0 0 0 4 11 7 8 0 0 0 11 19 7 8 0 0 0 16.552734 15.859375L15.795 15.195A6 7 0 0 1 11 18 6 7 0 0 1 5 11 6 7 0 0 1 11 4 6 7 0 0 1 15.794922 6.804688L16.551 6.143A7 8 0 0 0 11 3" mix-blend-mode="normal" solid-color="#000000" color-interpolation-filters="linearRGB" color="#4d4d4d" image-rendering="auto" color-rendering="auto" isolation="auto" color-interpolation="sRGB" solid-opacity="1" fill="#4d4d4d" shape-rendering="auto"/></svg>