<svg xmlns="http://www.w3.org/2000/svg" viewBox="0 0 22 22"><path d="m563.29 616.65h2v6h-2zm-4.01 0h2v6h-2zm3-4.417c-4.053 0-7.338 3.286-7.338 7.339 0 4.052 3.285 7.338 7.338 7.338 4.053 0 7.338-3.286 7.338-7.338 0-4.053-3.285-7.339-7.338-7.339m1.782-2.8h-3.565c-.277 0-.503.222-.503.503v.415c0 .281.227.507.503.507h.176v.293c0 .422.266.457.4.448.023-.003.046-.007.071-.001 0 0 .004-.0001.004-.0001.474-.065 1.26-.127 2.161-.012.0001-.0001.578.106.576-.425v-.293h.176c.277 0 .503-.226.503-.508v-.415c0-.281-.227-.503-.504-.503m3.806 4.353c0 0 .277.279.473.0001l.373-.535c.13-.188-.038-.318-.055-.331l-2.262-1.58c-.14-.097-.232-.038-.281.016l-.04.058-.345.493c-.002.002-.195.306.114.467.44.217 1.249.674 2.023 1.412v-.002" transform="matrix(.91549 0 0 .91549-503.77-554.93)" fill="#4d4d4d"/></svg>