<svg xmlns="http://www.w3.org/2000/svg" viewBox="0 0 22 22"><g transform="matrix(.02821 0 0 .02821 3 3)" fill="#4d4d4d"><path d="m464.99 141.27c0 0 8.996 9.05 15.346.017l12.1-17.349c4.225-6.103-1.231-10.327-1.796-10.744l-73.41-51.29h-.017c-4.52-3.145-7.521-1.236-9.1.533l-1.311 1.891-11.181 16.01c-.053.061-6.315 9.937 3.695 15.16v.013c14.295 7.03 40.526 21.868 65.66 45.814l.018-.051"/><path d="m341.45 0h-115.69c-8.978 0-16.334 7.213-16.334 16.338v13.484c0 9.112 7.356 16.468 16.334 16.468h5.725v9.521c.009 13.688 8.648 14.825 12.985 14.534.737-.109 1.501-.226 2.308-.33.009 0 .122-.026.122-.026h-.009c15.397-2.108 40.9-4.125 70.15-.403l.017-.026c0 0 18.737 3.474 18.686-13.758v-9.52h5.725c8.987 0 16.325-7.348 16.325-16.473v-13.471c-.0001-9.117-7.357-16.338-16.344-16.338"/><path d="m298.86 328.98c-13.991.018-15.18-9.715-15.249-12.518v-164.71c.408-5.729 3.383-16.521 19.969-13.731.329.047.642.082.988.121 1.059.182 2.064.326 2.846.386 48.32 6.788 154.31 38.21 167.56 180.7-.373 3.965-2.619 9.741-12.543 9.794-85.29-.235-139.25-.123-163.57-.036m-15.249-238.11c-131.54 0-238.17 106.64-238.17 238.19 0 131.52 106.63 238.16 238.17 238.16 131.54 0 238.17-106.64 238.17-238.16 0-131.55-106.63-238.19-238.17-238.19"/></g></svg>