<svg xmlns="http://www.w3.org/2000/svg" viewBox="0 0 22 22"><path d="m385.86 545.07v4.05c0 0 0 .953 1 .953h4.02c-.016 0 .984-.006.984-1v-3.984c0-1.016-.969-1.016-.969-1.016h-4.054c.023 0-.977.009-.977.996m-5 10.02v3.966c0 0 0 1.016 1.027 1.016h4c-.027 0 .973-.03.973-1.027v-4c0 0-.003-.973-.984-.973h-4.03c.017 0-.983.018-.983 1.018m10-.033v4.01c0 1 1.037 1 1.037 1h3.966c-.004 0 .997.012.997-.983v-4.04c0-.973-1.01-.973-1.01-.973h-3.989c0 0-1 0-1 .984" fill="#4d4d4d" transform="translate(-377.86-541.08)"/></svg>