<svg xmlns="http://www.w3.org/2000/svg" viewBox="0 0 22 22"><defs><clipPath><path fill="#f2f2f2" d="m7 1023.36h1v1h-1z"/></clipPath><clipPath><path fill="#f2f2f2" d="m7 1023.36h1v1h-1z"/></clipPath><clipPath><path fill="#f2f2f2" d="m7 1023.36h1v1h-1z"/></clipPath><linearGradient gradientUnits="userSpaceOnUse" y2="531.81" x2="0" y1="544.34" id="0"><stop stop-color="#00abff"/><stop offset="1" stop-color="#1A1D20"/></linearGradient></defs><g transform="matrix(.63847 0 0 .63847-244.75-328.54)"><path d="m400.08 520.08l-6.589 11.492c-1.385 2.43-1.492 5.519 0 8.12 2.242 3.911 7.23 5.263 11.141 3.02 3.911-2.242 5.263-7.23 3.02-11.141l-6.589-11.492c-.218-.38-.765-.38-.983 0" fill="#1A1D20"/><path d="m400.08 520.08l-6.589 11.492c-1.385 2.43-1.492 5.519 0 8.12 2.242 3.911 7.23 5.263 11.141 3.02 3.911-2.242 5.263-7.23 3.02-11.141l-6.589-11.492c-.218-.38-.765-.38-.983 0z" fill="url(#0)" stroke="#1A1D20" stroke-width="1.08"/></g></svg>