<svg xmlns="http://www.w3.org/2000/svg" xmlns:xlink="http://www.w3.org/1999/xlink" viewBox="0 0 22 22"><defs><linearGradient y2="516.78" x2="400.4" y1="546.68" x1="400.36" gradientUnits="userSpaceOnUse"><stop stop-color="#d8d8d8"/><stop offset="1" stop-color="#fff"/></linearGradient><linearGradient id="1" x1="384.66" y1="531.64" x2="415.94" y2="531.46" gradientUnits="userSpaceOnUse"><stop stop-color="#ac92ec"/><stop offset=".137" stop-color="#64a9ff"/><stop offset=".268" stop-color="#4cdbb7"/><stop offset=".494" stop-color="#aee672"/><stop offset=".741" stop-color="#ffce53"/><stop offset=".93" stop-color="#fb6e51"/><stop offset="1" stop-color="#ed5565"/></linearGradient><linearGradient id="0" gradientUnits="userSpaceOnUse" x1="-53.41" x2="40.658"><stop stop-color="#161719"/><stop offset="1" stop-color="#424649"/></linearGradient><linearGradient x1="383.54" y1="531.66" x2="416.8" y2="531.4" gradientUnits="userSpaceOnUse"><stop stop-color="#ac92ec"/><stop offset=".202" stop-color="#64a9ff"/><stop offset=".323" stop-color="#4cdbb7"/><stop offset=".534" stop-color="#aee672"/><stop offset=".763" stop-color="#ffce53"/><stop offset=".899" stop-color="#fb6e51"/><stop offset="1" stop-color="#ed5565"/></linearGradient></defs><g transform="matrix(-.1683.03133-.03133-.1683 4.91-11.152)"><flowRoot font-family="sans-serif" word-spacing="0" line-height="125%" letter-spacing="0" font-size="12.5"><flowRegion stroke="url(#0)"><path stroke="none" d="m-427.82-178.14h100.15v116.76h-100.15z" id="2"/></flowRegion><flowPara stroke="none"/></flowRoot><g transform="translate(-.084.359)"><flowRoot font-family="sans-serif" word-spacing="0" line-height="125%" letter-spacing="0" font-size="12.5"><flowRegion stroke="url(#0)"><use xlink:href="#2"/></flowRegion><flowPara stroke="none"/></flowRoot><g transform="matrix(.94417 0 0 .94417-.39-7.643)"><circle r="14.875" cy="531.73" cx="400.62" transform="matrix(-3.0885-.57493.57493-3.0885 920.16 1738.75)" fill="none" stroke="url(#1)" stroke-linejoin="round" stroke-linecap="round" stroke-width="1.759"/><path d="m405.68 6.232l-232.65 405.74c-48.889 85.78-52.665 194.85 0 286.7 79.17 138.07 255.28 185.82 393.35 106.65 138.07-79.17 185.82-255.28 106.65-393.35l-232.65-405.74c-7.685-13.403-27.01-13.403-34.699 0m753.30994 386.50018a729.09532 729.09532 0 0 1 -729.09519 729.09512 729.09532 729.09532 0 0 1 -729.09513 -729.09519 729.09532 729.09532 0 0 1 729.0952 -729.09514 729.09532 729.09532 0 0 1 729.09512 729.09521" fill="#4d4d4d" transform="matrix(-.05978-.01113.01113-.05978 9.887-105.56)" opacity=".9"/></g></g></g></svg>