<svg xmlns="http://www.w3.org/2000/svg" viewBox="0 0 22 22"><g transform="matrix(.3543 0 0 .3543 2.997 3)" fill="#4d4d4d"><path d="m11 6.992c-2.21 0-4.01 1.798-4.01 4.01 0 2.21 1.798 4.01 4.01 4.01 2.209 0 4.01-1.798 4.01-4.01 0-2.21-1.798-4.01-4.01-4.01m0 .508v7c-1.916 0-3.475-1.57-3.475-3.5 0-1.93 1.558-3.5 3.475-3.5" transform="matrix(2.8225 0 0 2.8225-8.467-8.467)"/><g><path d="m22.58 7.944c-1.219 0-2.207-.988-2.207-2.206v-3.531c0-1.219.988-2.207 2.207-2.207 1.219 0 2.207.988 2.207 2.207v3.531c0 1.218-.989 2.206-2.207 2.206"/><path d="m22.58 37.22c-1.219 0-2.207.988-2.207 2.207v3.53c0 1.22.988 2.208 2.207 2.208 1.219 0 2.207-.988 2.207-2.208v-3.53c0-1.219-.989-2.207-2.207-2.207"/><path d="m32.928 12.231c-.861-.862-.861-2.259 0-3.121l2.497-2.497c.861-.861 2.259-.861 3.121 0 .862.862.862 2.26 0 3.121l-2.497 2.497c-.861.862-2.258.862-3.121 0"/><path d="m12.231 32.93c-.862-.863-2.259-.863-3.121 0l-2.497 2.496c-.861.861-.862 2.26 0 3.121.862.861 2.26.861 3.121 0l2.497-2.498c.862-.861.862-2.259 0-3.119"/><path d="m37.22 22.58c0-1.219.988-2.207 2.207-2.207h3.531c1.219 0 2.207.988 2.207 2.207 0 1.219-.988 2.206-2.207 2.206h-3.531c-1.219 0-2.207-.987-2.207-2.206"/><path d="m7.944 22.58c0-1.219-.988-2.207-2.207-2.207h-3.53c-1.219 0-2.207.988-2.207 2.207 0 1.219.988 2.206 2.207 2.206h3.531c1.218 0 2.206-.987 2.206-2.206"/><path d="m32.928 32.93c.862-.861 2.26-.861 3.121 0l2.497 2.497c.862.86.862 2.259 0 3.12-.862.861-2.259.861-3.121 0l-2.497-2.497c-.862-.862-.862-2.259 0-3.12"/><path d="m12.231 12.231c.862-.862.862-2.259 0-3.121l-2.497-2.496c-.862-.862-2.259-.862-3.121 0-.862.861-.862 2.259 0 3.12l2.497 2.497c.862.863 2.259.863 3.121 0"/></g></g></svg>