<svg xmlns="http://www.w3.org/2000/svg" viewBox="0 0 22 22"><g transform="translate(-551.29-607.65)" color="#4d4d4d"><path d="m553.29 618.15h18v1h-18z"/><path d="m561.79 609.65h1v18h-1z"/><g transform="translate(551.29 607.65)"><path d="M11 7A4 4 0 0 0 7 11 4 4 0 0 0 11 15 4 4 0 0 0 15 11 4 4 0 0 0 11 7M11 8A3 3 0 0 1 14 11 3 3 0 0 1 11 14 3 3 0 0 1 8 11 3 3 0 0 1 11 8"/><path d="M11 4A7 7 0 0 0 4 11 7 7 0 0 0 11 18 7 7 0 0 0 18 11 7 7 0 0 0 11 4M11 5A6 6 0 0 1 17 11 6 6 0 0 1 11 17 6 6 0 0 1 5 11 6 6 0 0 1 11 5"/></g></g></svg>