<svg xmlns="http://www.w3.org/2000/svg" viewBox="0 0 22 22"><g transform="matrix(1.06667 0 0 1.06667-404.85-577.35)"><path transform="translate(378.86 540.08)" d="m7 6v1h9a2 2 0 0 1 2 2 2 2 0 0 1 -2 2h-9a3 3 0 0 0 -3 3 3 3 0 0 0 3 3h8v-1h-8a2 2 0 0 1 -2 -2 2 2 0 0 1 2 -2h9a3 3 0 0 0 3 -3 3 3 0 0 0 -3 -3h-9" fill="#4d4d4d"/><g fill="#1d99f3"><path d="m384.36 544.08c-1.381 0-2.5 1.119-2.5 2.5 0 1.381 1.119 2.5 2.5 2.5 1.381 0 2.5-1.119 2.5-2.5 0-1.381-1.119-2.5-2.5-2.5"/><path d="m395.36 554.08c-1.381 0-2.5 1.119-2.5 2.5 0 1.381 1.119 2.5 2.5 2.5 1.381 0 2.5-1.119 2.5-2.5 0-1.381-1.119-2.5-2.5-2.5"/></g></g></svg>