<svg xmlns="http://www.w3.org/2000/svg" viewBox="0 0 22 22"><defs><clipPath><rect y="8" x="8" height="32" width="32" fill="none" rx="16"/></clipPath><clipPath><rect y="507.8" x="392.57" height="32" width="32" fill="none" rx="16"/></clipPath><clipPath><rect width="32" height="32" x="392.57" y="507.8" fill="none" rx="16"/></clipPath><clipPath><rect y="507.8" x="392.57" height="32" width="32" fill="none" rx="16"/></clipPath><clipPath><rect y="507.8" x="392.57" height="32" width="32" fill="none" rx="16"/></clipPath><clipPath><rect width="32" height="32" x="392.57" y="507.8" fill="none" rx="16"/></clipPath><clipPath><rect width="32" height="32" x="8" y="8" fill="none" rx="16"/></clipPath><clipPath><rect width="32" height="32" x="392.57" y="507.8" fill="none" rx="16"/></clipPath><clipPath><rect y="507.8" x="392.57" height="32" width="32" fill="none" rx="16"/></clipPath><clipPath><rect y="507.8" x="392.57" height="32" width="32" fill="none" rx="16"/></clipPath><clipPath><rect y="8" x="8" height="32" width="32" fill="none" rx="16"/></clipPath><clipPath><path d="m0 706.47h1490.93v-706.47h-1490.93v706.47"/></clipPath><clipPath><path d="m22.2 686.12h1447.73v-667.19h-1447.73v667.19"/></clipPath><clipPath><rect y="507.8" x="392.57" height="32" width="32" fill="none" rx="16"/></clipPath><clipPath><rect y="507.8" x="392.57" height="32" width="32" fill="none" rx="16"/></clipPath><clipPath><rect y="507.8" x="392.57" height="32" width="32" fill="none" rx="16"/></clipPath><clipPath><rect y="507.8" x="392.57" height="32" width="32" fill="none" rx="16"/></clipPath><clipPath><rect y="8" x="8" height="32" width="32" fill="none" rx="16"/></clipPath></defs><path d="m1.15 3c-.417 0-.752.337-.752.754v14.492c0 .417.335.754.752.754h19.699c.417 0 .752-.337.752-.754v-14.492c0-.417-.335-.754-.752-.754h-19.699m9.85 2.854c.316 0 .585.113.809.336.223.223.334.491.334.807 0 .315-.111.585-.334.809-.223.223-.493.336-.809.336-.315 0-.585-.113-.809-.336-.223-.223-.334-.493-.334-.809 0-.315.111-.583.334-.807.223-.223.493-.336.809-.336m-4 1.715c.315 0 .585.113.809.336.223.223.334.491.334.807 0 .315-.111.585-.334.809-.223.223-.493.334-.809.334-.316 0-.585-.111-.809-.334-.223-.223-.334-.493-.334-.809 0-.315.111-.583.334-.807.223-.223.493-.336.809-.336m8 0c.315 0 .585.113.809.336.223.223.334.491.334.807 0 .315-.111.585-.334.809-.223.223-.493.334-.809.334-.316 0-.585-.111-.809-.334-.223-.223-.334-.493-.334-.809 0-.315.111-.583.334-.807.223-.223.493-.336.809-.336m-2.764 1.314c.071-.001.144-.005.219.016.149.042.264.13.344.264.081.134.102.279.066.434l-.9 3.41c.298.202.512.473.643.813.131.339.148.688.053 1.045-.119.458-.384.807-.795 1.045-.411.238-.844.297-1.303.178-.458-.119-.807-.384-1.045-.795-.238-.411-.297-.844-.178-1.303.095-.357.283-.65.563-.879.28-.229.598-.359.955-.389l.902-3.41c.042-.155.131-.273.268-.354.069-.04.138-.065.209-.074m-6.951 2.686c.315 0 .585.113.809.336.223.223.334.491.334.807 0 .316-.111.585-.334.809-.223.223-.493.334-.809.334-.315 0-.583-.111-.807-.334-.223-.223-.336-.493-.336-.809 0-.315.113-.583.336-.807.223-.223.491-.336.807-.336m11.43 0c.315 0 .583.113.807.336.223.223.336.491.336.807 0 .316-.113.585-.336.809-.223.223-.491.334-.807.334-.316 0-.585-.111-.809-.334-.223-.223-.334-.493-.334-.809 0-.315.111-.583.334-.807.223-.223.493-.336.809-.336" transform="translate(.0001-.002)" stroke="none" fill="#4d4d4d"/></svg>