<svg xmlns="http://www.w3.org/2000/svg" viewBox="0 0 22 22"><g transform="translate(-553.72-583.12)"><g transform="matrix(-1 0 0 1 1129.45 3)" fill="#4d4d4d"><path d="m556.72 591.12h11v1h-11z"/><path d="m567.72 587.12v9h5v-9h-5m1 1h3v7h-3v-7"/><path d="m557.72 592.12h1v2h-1z"/><path d="m559.72 592.12h1v2h-1z"/></g><path d="m570.22253 585.11926a3.499991 3.499991 0 0 0 -3.5 3.5 3.499991 3.499991 0 0 0 .69922 2.0938l.717-.717a2.5 2.5 0 0 1 -.41602 -1.377 2.5 2.5 0 0 1 2.5 -2.5 2.5 2.5 0 0 1 1.37695 .416l.717-.717a3.499991 3.499991 0 0 0 -2.09375 -.6992m2.801 1.406l-.717.717a2.5 2.5 0 0 1 .41602 1.377 2.5 2.5 0 0 1 -2.5 2.5 2.5 2.5 0 0 1 -1.37695 -.416l-.717.717a3.499991 3.499991 0 0 0 2.09375 .6992 3.499991 3.499991 0 0 0 3.5 -3.5 3.499991 3.499991 0 0 0 -.69922 -2.0937" fill="#1d99f3"/></g></svg>