<svg xmlns="http://www.w3.org/2000/svg" viewBox="0 0 22 22"><path d="m407.86 549.38c-.414 0-.75.336-.75.75 0 .414.336.75.75.75.414 0 .75-.336.75-.75 0-.414-.336-.75-.75-.75m0 2.25c-.414 0-.75.336-.75.75v2.25c0 .414.336.75.75.75.414 0 .75-.336.75-.75v-2.25c0-.414-.336-.75-.75-.75m5.4-7.55l2 3 2-3zm-6.972 4.4c-1.066 0-1.514.352-1.514 1.254v1.223c0 .557-.021 1.201-.609 1.201h-.305v.645h.305c.589 0 .609.644.609 1.201v1.223c0 .902.448 1.254 1.514 1.254v-.592c-.711 0-.721-.239-.721-1.105v-1.01c0-.415-.124-1.035-.723-1.291.599-.256.723-.874.723-1.289v-1.018c0-.866.001-1.105.721-1.105zm3.137 0v.592c.711 0 .729.239.729 1.105v1.018c0 .415.124 1.033.723 1.289-.599.256-.723.876-.723 1.291v1.01c0 .866-.018 1.105-.729 1.105v.592c1.066 0 1.521-.352 1.521-1.254v-1.223c0-.557.04-1.201.619-1.201h.295v-.645h-.295c-.579 0-.619-.644-.619-1.201v-1.223c0-.902-.455-1.254-1.521-1.254m-11.413-5.4h19.698c.417 0 .753.336.753.753v14.494c0 .417-.336.753-.753.753h-19.698c-.417 0-.753-.336-.753-.753v-14.494c0-.417.336-.753.753-.753" fill="#4d4d4d" transform="translate(-396.86-540.08)"/></svg>