<svg xmlns="http://www.w3.org/2000/svg" viewBox="0 0 22 22"><path d="m11 3c-4.432 0-8 3.568-8 8 0 4.432 3.568 8 8 8 1.896 0 3.633-.656 5-1.752v-1.248h-.094c-1.261 1.238-2.991 2-4.906 2-3.878 0-7-3.122-7-7 0-3.878 3.122-7 7-7 3.878 0 7 3.122 7 7 0 .696-.105 1.366-.293 2h1.033c.164-.64.26-1.308.26-2 0-4.432-3.568-8-8-8m-1 2v7h1 5v-1h-5v-6h-1" fill="#4d4d4d"/><path d="m13.656 14v1h.846 1.998a1.5 1.5 0 0 1 1.5 1.5 1.5 1.5 0 0 1 -1.5 1.5v1a2.5 2.5 0 0 0 2.5 -2.5 2.5 2.5 0 0 0 -2.5 -2.5h-2.844" fill="#1d99f3"/></svg>