<svg xmlns="http://www.w3.org/2000/svg" viewBox="0 0 22 22"><g transform="matrix(.94262 0 0 .94262-513.42-699.75)"><path d="m530.85 758.61q-.503.442-1.237.442-.735 0-1.237-.442-.503-.442-.503-1.095 0-.428.232-.75.232-.33.607-.518v-.03q-.293-.188-.48-.472-.188-.293-.188-.607 0-.622.442-1.035.442-.42 1.125-.42.683 0 1.125.42.442.413.442 1.035 0 .315-.188.607-.188.285-.48.472v.03q.375.188.607.518.232.322.232.75 0 .653-.503 1.095m-1.86-2.903q.247.217.622.217.375 0 .615-.217.247-.225.247-.585 0-.36-.247-.57-.24-.21-.615-.21-.375 0-.622.21-.24.21-.24.57 0 .36.24.585m-.112 2.43q.3.255.735.255.435 0 .735-.255.3-.255.3-.66 0-.398-.3-.653-.3-.255-.735-.255-.435 0-.735.255-.3.255-.3.653 0 .405.3.66" transform="matrix(1.30354 0 0 1.30354-139.97-236.93)" fill="#da4453"/><g transform="matrix(1.30354 0 0 1.30354-141.4-228.27)" fill="#1d99f3"><path d="m537.08 759.95h-.69v-4.275l-.997.435-.263-.585 1.508-.705h.442v5.13"/><path d="m539.97 756.67q.6 0 1.102.495.503.487.503 1.185 0 .683-.525 1.2-.518.518-1.23.518-.765 0-1.268-.518-.495-.525-.495-1.2 0-.712.6-1.59l1.395-2.063.555.383-1.222 1.695.015.015q.188-.12.57-.12m-.15 2.73q.435 0 .742-.3.315-.3.315-.742 0-.435-.315-.735-.308-.308-.742-.308-.435 0-.75.308-.315.3-.315.735 0 .442.308.742.315.3.758.3"/></g><g fill="#4d4d4d"><path d="m549.03 756.58l1.255-.011-.758.015c.145.651.392 1.29.756 1.893.993 1.644 2.614 2.675 4.371 2.972.853.165 1.339-.869.417-1.219-1.484-.189-2.87-1.029-3.703-2.409-.243-.402-.418-.826-.538-1.257l.648-.006c.338-.003.462-.244.279-.538l-1.262-2.02c-.184-.295-.466-.294-.631.0001l-1.146 2.049c-.165.295-.024.531.313.528"/><path d="m561.94 751.42l-1.255.011.758-.015c-.145-.651-.392-1.29-.756-1.893-.993-1.644-2.614-2.675-4.371-2.972-.853-.165-1.339.869-.417 1.219 1.484.189 2.87 1.029 3.703 2.409.243.402.418.826.538 1.257l-.648.006c-.338.003-.462.244-.279.538l1.262 2.02c.184.295.466.294.631-.0001l1.146-2.049c.165-.295.024-.531-.313-.528"/></g></g></svg>