<svg xmlns="http://www.w3.org/2000/svg" viewBox="0 0 22 22"><path transform="translate(0-.002)" d="m4 4.02v3.961c0 .023-.009 1.023 1.016 1.023h.984v4h-1.953c0 0-1.047-.023-1.047 1.016v3.938c0 .047-.023 1.047 1.016 1.047h4c0 0 .984-.016.984-1.016v-3.984c0 0-.006-1-1.016-1h-.984v-4h3.984c.016 0 1.016.009 1.016-1.01v-.992h4v7h-1c0 0-1 .006-1 1.016v2.969c0 .016-.009 1.016 1.01 1.016h3.01c0 0 .984-.0001.984-.992v-3.02c0 .016-.006-.984-1-.984h-1v-7c0 0 .004-1-1-1h-4v-2.01c0 .008-.006-.992-1.01-.992h-5.984c-.008 0-1.01.0001-1.01 1.016" fill="#1A1D20"/></svg>