<svg xmlns="http://www.w3.org/2000/svg" viewBox="0 0 22 22"><g fill="#4d4d4d"><path d="m569.29 610.65c-.552 0-1 .448-1 1 0 .552.448 1 1 1 .552 0 1-.448 1-1 0-.552-.448-1-1-1m0 4c-.552 0-1 .448-1 1 0 .552.448 1 1 1 .552 0 1-.448 1-1 0-.552-.448-1-1-1m0 4c-.552 0-1 .448-1 1 0 .552.448 1 1 1 .552 0 1-.448 1-1 0-.552-.448-1-1-1" color="#000" transform="matrix(1.06667 0 0 1.06667-589.26-648.37)"/><path d="m312.17 546.36l3.712-9.845h1.43l3.712 9.845h-1.402l-.949-2.668h-4.139l-.962 2.668h-1.402m2.791-3.85h3.272l-1.609-4.441h-.055l-1.609 4.441" transform="matrix(1.51685 0 0 1.51685-470.56-809.75)"/></g></svg>