<svg xmlns="http://www.w3.org/2000/svg" viewBox="0 0 22 22"><g transform="matrix(1.34313 0 0 1.34313.209-1391.72)"><g transform="matrix(.37943 0 0 .37943 1.205 1038.03)"><g fill="#4d4d4d"><path d="m4.8 32.02c-.5 0-.9-.344-1-.774l-.7-5.246h8.1 13.6 8.1l-.7 5.246c-.1.43-.5.774-1 .774z"/><path d="m31.8 27l-.5 5h-26.5l-.5-5h6.4 14.8 6.3m2.2-2h-10-22l.497 7.2c.1 1 .698 1.8 1.698 1.8h27.711c1 0 1.598-.8 1.698-1.8z" transform="matrix(1 0 0 .82172 0 4.457)"/></g><path d="m25 26h-14-7.8l-.2-1 2.7-21.3c.1-1 .697-1.7 1.697-1.7h21.21c1 0 1.497.7 1.697 1.7l2.7 21.3-.6 1" stroke-miterlimit="10" fill="none" stroke="#4d4d4d" stroke-linejoin="round" fill-opacity=".12" stroke-width="2"/></g><path d="m481.1 209.44l-47.955-47.979c-1.832-1.823-4.301-2.852-6.881-2.852-2.582 0-5.05 1.02-6.883 2.844l-47.971 47.986c-3.809 3.791-3.809 9.956 0 13.749l6.691 6.683-36.563 36.548-84.964-16.617 139.67-139.67 17.684 17.684c1.897 1.897 4.65 2.669 7.248 2.031 2.614-.638 4.7-2.581 5.514-5.139l32.533-102.52c.859-2.732.127-5.727-1.898-7.759-2.039-2.023-5.02-2.757-7.757-1.888l-102.52 32.525c-2.55.813-4.509 2.9-5.146 5.504-.638 2.614.143 5.361 2.039 7.257l17.699 17.701-193.46 193.45-17.923-91.67 29.03-29.03c14.1 2.868 29.31-1.141 40.24-12.07 17.35-17.334 17.35-45.44-.017-62.794-17.317-17.334-45.42-17.31-62.771.024-10.945 10.929-14.943 26.15-12.07 40.25l-38.22 38.22c-5.768 5.761-8.284 14-6.707 22l26.75 136.76-59.664 59.655c-17.699-5.313-37.631-1.202-51.618 12.785-20.265 20.282-20.282 53.14-.017 73.42 20.297 20.296 53.16 20.296 73.44.016 13.989-13.98 18.08-33.895 12.777-51.603l113.45-113.44 130.07 25.441c1.562.304 3.139.455 4.7.455 6.42 0 12.667-2.533 17.301-7.17l45.756-45.756 6.692 6.692c1.832 1.823 4.301 2.843 6.883 2.843 2.58 0 5.05-1.027 6.881-2.852l47.955-47.978c3.809-3.799 3.809-9.949.002-13.748" transform="matrix(.00928-.00666.00925.00668 3.663 1043.17)" fill="#4d4d4d"/></g></svg>