<svg xmlns="http://www.w3.org/2000/svg" viewBox="0 0 22 22"><defs><clipPath><path fill="#00f" fill-opacity=".514" d="m-7 1024.36h34v34h-34z"/></clipPath><clipPath><path fill="#aade87" fill-opacity=".472" d="m-6 1028.36h32v32h-32z"/></clipPath><clipPath><path fill="#aade87" fill-opacity=".472" d="m-6 1028.36h32v32h-32z"/></clipPath><clipPath><path fill="#00f" fill-opacity=".514" d="m-7 1024.36h34v34h-34z"/></clipPath><clipPath><path fill="#00f" fill-opacity=".514" d="m-7 1024.36h34v34h-34z"/></clipPath><clipPath><path fill="#f2f2f2" d="m7 1023.36h1v1h-1z"/></clipPath><clipPath><path fill="#aade87" fill-opacity=".472" d="m-6 1028.36h32v32h-32z"/></clipPath></defs><g transform="matrix(-.00121-1.47577 2.02671-.00088-2068.97 8.06)" stroke="none" fill="#4d4d4d"><path transform="matrix(1-.00077-.00034 1 0 0)" d="m-7.662 1021.96h5.212v2.23h-5.212z"/><path transform="matrix(1-.00029-.0002 1 0 0)" d="m-7.788 1025.11h8.03v2.23h-8.03z"/><path transform="matrix(1-.00006-.00005 1 0 0)" d="m-7.957 1028.37h10.841v2.23h-10.841z"/></g></svg>