<svg xmlns="http://www.w3.org/2000/svg" xmlns:xlink="http://www.w3.org/1999/xlink" viewBox="0 0 22 22"><defs><clipPath><rect width="32" height="32" x="8" y="8" fill="url(#1)" rx="16"/></clipPath><clipPath><rect width="32" height="32" x="8" y="8" fill="url(#1)" rx="16"/></clipPath><clipPath><rect y="507.8" x="392.57" height="32" width="32" fill="url(#2)" rx="16"/></clipPath><clipPath><rect width="32" height="32" x="392.57" y="507.8" fill="url(#2)" rx="16"/></clipPath><clipPath><rect width="32" height="32" x="392.57" y="507.8" fill="url(#2)" rx="16"/></clipPath><clipPath><rect width="32" height="32" x="392.57" y="507.8" fill="url(#2)" rx="16"/></clipPath><clipPath><rect width="32" height="32" x="392.57" y="507.8" fill="url(#2)" rx="16"/></clipPath><clipPath><rect width="32" height="32" x="392.57" y="507.8" fill="url(#2)" rx="16"/></clipPath><clipPath><rect y="507.8" x="392.57" height="32" width="32" fill="url(#2)" rx="16"/></clipPath><clipPath><rect width="32" height="32" x="392.57" y="507.8" fill="url(#2)" rx="16"/></clipPath><clipPath><rect y="8" x="8" height="32" width="32" fill="url(#1)" rx="16"/></clipPath><clipPath><rect y="507.8" x="392.57" height="32" width="32" fill="url(#2)" rx="16"/></clipPath><clipPath><rect y="8" x="8" height="32" width="32" fill="url(#1)" rx="16"/></clipPath><clipPath><rect y="507.8" x="392.57" height="32" width="32" fill="url(#2)" rx="16"/></clipPath><clipPath><rect y="507.8" x="392.57" height="32" width="32" fill="url(#2)" rx="16"/></clipPath><clipPath><rect y="507.8" x="392.57" height="32" width="32" fill="url(#2)" rx="16"/></clipPath><linearGradient id="0"><stop stop-color="#2a2c2f"/><stop offset="1" stop-color="#424649"/></linearGradient><linearGradient xlink:href="#0" id="1" gradientUnits="userSpaceOnUse" y1="40" x2="0" y2="8"/><linearGradient xlink:href="#0" id="2" gradientUnits="userSpaceOnUse" y1="539.8" x2="0" y2="507.8"/></defs><path d="m12.248 2.638c-.699-.699-1.504-1.05-2.414-1.05-.909 0-1.713.35-2.412 1.05l-5.247 5.247c-.699.699-1.048 1.503-1.048 2.414 0 .911.349 1.714 1.048 2.414l41.24 41.24-41.24 41.24c-.699.699-1.048 1.504-1.048 2.412 0 .911.349 1.714 1.048 2.414l5.247 5.246c.699.701 1.503 1.048 2.412 1.048.909 0 1.714-.349 2.414-1.048l48.901-48.9c.699-.699 1.048-1.506 1.048-2.415 0-.909-.349-1.714-1.048-2.414l-48.901-48.9m161.18 99.27c-.629-.63-1.434-.944-2.412-.944h-100.74c-.979 0-1.784.314-2.414.944-.629.63-.943 1.434-.943 2.414v6.717c0 .979.314 1.784.943 2.412.63.629 1.435.944 2.414.944h100.74c.979 0 1.784-.316 2.412-.944.629-.629.943-1.434.943-2.412v-6.717c.0001-.98-.313-1.784-.943-2.414m-203.58-168.15h413.28c8.752 0 15.797 7.405 15.797 16.603v319.6c0 9.198-7.05 16.603-15.797 16.603h-413.28c-8.752 0-15.797-7.405-15.797-16.603v-319.6c0-9.198 7.05-16.603 15.797-16.603" transform="matrix(.04766 0 0 .04535 2.585 6.01)" fill="#4d4d4d"/></svg>