<svg xmlns="http://www.w3.org/2000/svg" viewBox="0 0 22 22"><path d="m10.04 1042.09c.695 0 .433.821 0 1.013-.728.321-1.473-.314-1.626-1.013-.23-1.054.616-2.01 1.626-2.161 1.32-.194 2.482.872 2.623 2.161.172 1.573-1.091 2.939-2.623 3.074-1.795.159-3.34-1.303-3.469-3.074-.147-2.02 1.488-3.752 3.469-3.877 2.219-.14 4.111 1.678 4.231 3.877.133 2.429-1.843 4.494-4.231 4.611-2.609.128-4.822-2.02-4.935-4.611-.123-2.807 2.169-5.185 4.935-5.296 2.974-.119 5.489 2.335 5.597 5.296.115 3.164-2.474 5.837-5.597 5.943-3.319.113-6.122-2.633-6.225-5.943-.109-3.503 2.763-6.458 6.225-6.56 3.65-.107 6.726 2.917 6.826 6.56.105 3.828-3.04 7.05-6.826 7.152-3.967.103-7.307-3.189-7.404-7.152-.101-4.141 3.305-7.627 7.404-7.722 4.273-.099 7.869 3.451 7.962 7.722.097 4.444-3.561 8.182-7.962 8.274-3.578.075-6.865-2.262-8.04-5.65" fill="#4d4d4d" fill-rule="evenodd" transform="translate(1-1031.36)"/></svg>