<svg xmlns="http://www.w3.org/2000/svg" viewBox="0 0 22 22"><g fill="#4d4d4d"><path d="m408-17h-2v12h2v-12" color="#000" transform="matrix(0 1-1 0-.003-390.09)" enable-background="new"/><path d="m-10.1 1042.58q-1.072 0-1.801-.619-.715-.619-.715-1.636 0-1.1.853-1.719.852-.632 2.104-.632 1.114 0 1.829.412v-.193q0-.743-.509-1.182-.509-.454-1.251-.454-.55 0-1 .261-.44.261-.605.715l-1.155-.495q.234-.605.921-1.114.688-.523 1.815-.523 1.293 0 2.145.756.853.756.853 2.131v4.07h-1.21v-.935h-.055q-.756 1.155-2.214 1.155m.206-1.155q.784 0 1.416-.578.646-.591.646-1.389-.536-.44-1.609-.44-.921 0-1.389.399-.467.399-.467.935 0 .495.426.784.426.289.976.289" transform="matrix(1.61257 0 0 1.61257 26.505-1665.55)"/></g></svg>