<svg xmlns="http://www.w3.org/2000/svg" viewBox="0 0 22 22"><g transform="translate(0-1030.36)"><g fill="#4d4d4d"><g color-rendering="auto" shape-rendering="auto" color-interpolation-filters="linearRGB" image-rendering="auto" fill-rule="evenodd" color-interpolation="sRGB" color="#000"><path d="m7.688 1034.97l-5 4 .625.779 5-4-.625-.779" mix-blend-mode="normal" isolation="auto" white-space="normal" solid-opacity="1" solid-color="#000000"/><path d="m18.584 1035.08l-4 6 .832.555 4-6-.832-.555" mix-blend-mode="normal" isolation="auto" white-space="normal" solid-opacity="1" solid-color="#000000"/><path d="m15.391 1042.05l-.781.623 4 5 .781-.623-4-5" mix-blend-mode="normal" isolation="auto" white-space="normal" solid-opacity="1" solid-color="#000000"/><path d="m9.385 1035.04l-.77.639 5 6 .77-.639-5-6" mix-blend-mode="normal" isolation="auto" white-space="normal" solid-opacity="1" solid-color="#000000"/></g><path d="m3 1047.36h6v1h-6z"/><path d="m13.609 1042.05l-4 5 .781.623 4-5-.781-.623" shape-rendering="auto" mix-blend-mode="normal" color-interpolation-filters="linearRGB" isolation="auto" white-space="normal" solid-opacity="1" image-rendering="auto" solid-color="#000000" color="#000" fill-rule="evenodd" color-rendering="auto" color-interpolation="sRGB"/><path d="m2 1040.36h1v7h-1z"/></g><g fill="#1d99f3"><ellipse cx="19.5" cy="1047.86" rx="1.5" ry="1.5"/><ellipse cx="14.5" cy="1041.86" rx="1.5" ry="1.5"/><ellipse cx="19.5" cy="1034.86" rx="1.5" ry="1.5"/><ellipse cx="8.5" cy="1034.86" rx="1.5" ry="1.5"/><ellipse cx="9.5" cy="1047.86" rx="1.5" ry="1.5"/><ellipse cx="2.5" cy="1047.86" rx="1.5" ry="1.5"/><ellipse cx="2.5" cy="1039.86" rx="1.5" ry="1.5"/></g></g></svg>