<svg xmlns="http://www.w3.org/2000/svg" viewBox="0 0 22 22"><defs><clipPath><rect width="32" height="32" x="8" y="8" fill="none" rx="16"/></clipPath><clipPath><rect width="32" height="32" x="392.57" y="507.8" fill="none" rx="16"/></clipPath><clipPath><rect y="507.8" x="392.57" height="32" width="32" fill="none" rx="16"/></clipPath><clipPath><rect width="32" height="32" x="392.57" y="507.8" fill="none" rx="16"/></clipPath><clipPath><rect width="32" height="32" x="392.57" y="507.8" fill="none" rx="16"/></clipPath><clipPath><rect y="507.8" x="392.57" height="32" width="32" fill="none" rx="16"/></clipPath><clipPath><rect y="8" x="8" height="32" width="32" fill="none" rx="16"/></clipPath><clipPath><rect y="507.8" x="392.57" height="32" width="32" fill="none" rx="16"/></clipPath><clipPath><rect width="32" height="32" x="392.57" y="507.8" fill="none" rx="16"/></clipPath><clipPath><rect width="32" height="32" x="392.57" y="507.8" fill="none" rx="16"/></clipPath><clipPath><rect width="32" height="32" x="8" y="8" fill="none" rx="16"/></clipPath><clipPath><path d="m0 706.47h1490.93v-706.47h-1490.93v706.47"/></clipPath><clipPath><path d="m22.2 686.12h1447.73v-667.19h-1447.73v667.19"/></clipPath><clipPath><rect width="32" height="32" x="392.57" y="507.8" fill="none" rx="16"/></clipPath><clipPath><rect width="32" height="32" x="392.57" y="507.8" fill="none" rx="16"/></clipPath><clipPath><rect width="32" height="32" x="392.57" y="507.8" fill="none" rx="16"/></clipPath><clipPath><rect width="32" height="32" x="392.57" y="507.8" fill="none" rx="16"/></clipPath><clipPath><rect width="32" height="32" x="8" y="8" fill="none" rx="16"/></clipPath></defs><g transform="matrix(1.09975 0 0-1.09975-401.8 583.41)" fill="#4d4d4d" stroke="none"><path d="m447.37 543.69c-.264.264-.264.693 0 .957l2.943 2.672-2.943 2.672c-.264.264-.264.693 0 .957.264.264.692.264.956 0l3.424-3.108c.143-.143.206-.334.194-.521.012-.187-.051-.378-.194-.521l-3.424-3.108c-.264-.264-.692-.264-.956 0" transform="matrix(-1.3428 0 0-1.33867 976.36 1255.31)" stroke-opacity=".8"/><path d="m375.08 523.18c-.355-.354-.355-.927 0-1.281l3.952-3.576-3.952-3.576c-.355-.354-.355-.927 0-1.281.355-.354.93-.354 1.284 0l4.598 4.16c.192.192.276.447.26.697.016.25-.069.506-.26.697l-4.598 4.16c-.355.354-.93.354-1.284 0"/></g></svg>