<svg xmlns="http://www.w3.org/2000/svg" viewBox="0 0 22 22"><path d="m4.6 3c-.443 0-.799.358-.799.801v14.398c0 .443.356.801.799.801h12.801c.443 0 .799-.358.799-.801v-14.398c0-.443-.356-.801-.799-.801h-12.801m.902344.736328a.910795 .910795 0 0 1 .912109 .910156 .910795 .910795 0 0 1 -.912109 .912109 .910795 .910795 0 0 1 -.910156 -.912109 .910795 .910795 0 0 1 .910156 -.910156m2.214844 0a.910795 .910795 0 0 1 .912109 .910156 .910795 .910795 0 0 1 -.912109 .912109 .910795 .910795 0 0 1 -.910156 -.912109 .910795 .910795 0 0 1 .910156 -.910156m2.232422 0a.910795 .910795 0 0 1 .912109 .910156 .910795 .910795 0 0 1 -.912109 .912109 .910795 .910795 0 0 1 -.910156 -.912109 .910795 .910795 0 0 1 .910156 -.910156m2.208984 0a.910795 .910795 0 0 1 .912109 .910156 .910795 .910795 0 0 1 -.912109 .912109 .910795 .910795 0 0 1 -.910156 -.912109 .910795 .910795 0 0 1 .910156 -.910156m2.173828 0a.910795 .910795 0 0 1 .910157 .910156 .910795 .910795 0 0 1 -.910157 .910156 .910795 .910795 0 0 1 -.912109 -.910156 .910795 .910795 0 0 1 .912109 -.910156m2.166016 0a.910795 .910795 0 0 1 .910156 .910156 .910795 .910795 0 0 1 -.910156 .912109 .910795 .910795 0 0 1 -.912109 -.912109 .910795 .910795 0 0 1 .912109 -.910156m-9.912109 2.177734a.910795 .910795 0 0 1 .910156 .912109 .910795 .910795 0 0 1 -.910156 .910156 .910795 .910795 0 0 1 -.910156 -.910156 .910795 .910795 0 0 1 .910156 -.912109m2.214844 0a.910795 .910795 0 0 1 .910156 .910156 .910795 .910795 0 0 1 -.910156 .912109 .910795 .910795 0 0 1 -.912109 -.912109 .910795 .910795 0 0 1 .912109 -.910156m2.232422 0a.910795 .910795 0 0 1 .910156 .910156 .910795 .910795 0 0 1 -.910156 .912109 .910795 .910795 0 0 1 -.910156 -.912109 .910795 .910795 0 0 1 .910156 -.910156m2.208985 0a.910795 .910795 0 0 1 .910156 .910156 .910795 .910795 0 0 1 -.910156 .912109 .910795 .910795 0 0 1 -.91211 -.912109 .910795 .910795 0 0 1 .91211 -.910156m2.171874 0a.910795 .910795 0 0 1 .910157 .910156 .910795 .910795 0 0 1 -.910157 .912109 .910795 .910795 0 0 1 -.910156 -.912109 .910795 .910795 0 0 1 .910156 -.910156m-9.912109 2.197266a.910795 .910795 0 0 1 .912109 .912109 .910795 .910795 0 0 1 -.912109 .910156 .910795 .910795 0 0 1 -.910156 -.910156 .910795 .910795 0 0 1 .910156 -.912109m2.214844 0a.910795 .910795 0 0 1 .912109 .910156 .910795 .910795 0 0 1 -.912109 .912109 .910795 .910795 0 0 1 -.910156 -.912109 .910795 .910795 0 0 1 .910156 -.910156m2.232422 0a.910795 .910795 0 0 1 .912109 .910156 .910795 .910795 0 0 1 -.912109 .912109 .910795 .910795 0 0 1 -.910156 -.912109 .910795 .910795 0 0 1 .910156 -.910156m2.208984 0a.910795 .910795 0 0 1 .912109 .910156 .910795 .910795 0 0 1 -.912109 .912109 .910795 .910795 0 0 1 -.910156 -.912109 .910795 .910795 0 0 1 .910156 -.910156m2.173828 0a.910795 .910795 0 0 1 .910157 .910156 .910795 .910795 0 0 1 -.910157 .912109 .910795 .910795 0 0 1 -.912109 -.912109 .910795 .910795 0 0 1 .912109 -.910156m2.166016 0a.910795 .910795 0 0 1 .910156 .910156 .910795 .910795 0 0 1 -.910156 .912109 .910795 .910795 0 0 1 -.912109 -.912109 .910795 .910795 0 0 1 .912109 -.910156m-5.709 3.414c.369.024.719.118 1.047.283.328.165.606.379.834.639.228.26.402.564.523.91.121.347.171.705.146 1.074-.037.568-.231 1.074-.582 1.516l1.244 1.416c.089.102.128.221.119.357-.009.134-.065.248-.17.34-.104.092-.223.132-.357.123-.14-.009-.253-.066-.34-.17l-1.242-1.412c-.483.29-1.01.418-1.578.381-.369-.024-.719-.12-1.047-.285-.328-.165-.606-.377-.834-.637-.228-.26-.402-.564-.523-.91-.121-.347-.171-.705-.146-1.074.024-.369.12-.719.285-1.047.165-.328.377-.606.637-.834.26-.228.564-.402.91-.523.347-.121.705-.171 1.074-.146m-.064.992c-.478-.031-.898.112-1.26.43-.362.318-.559.715-.59 1.193-.031.478.112.898.43 1.26.318.362.715.559 1.193.59.478.031.898-.112 1.26-.43.362-.318.559-.715.59-1.193.031-.478-.112-.898-.43-1.26-.318-.362-.715-.559-1.193-.59" transform="translate(0-.032)" stroke-opacity=".55" fill="#4d4d4d" stroke-width="2.8" stroke="none"/></svg>