<svg xmlns="http://www.w3.org/2000/svg" viewBox="0 0 22 22"><defs><clipPath><rect width="32" height="32" x="8" y="8" fill="none" rx="16"/></clipPath><clipPath><rect width="32" height="32" x="392.57" y="507.8" fill="none" rx="16"/></clipPath><clipPath><rect y="507.8" x="392.57" height="32" width="32" fill="none" rx="16"/></clipPath><clipPath><rect width="32" height="32" x="392.57" y="507.8" fill="none" rx="16"/></clipPath><clipPath><rect width="32" height="32" x="392.57" y="507.8" fill="none" rx="16"/></clipPath><clipPath><rect y="507.8" x="392.57" height="32" width="32" fill="none" rx="16"/></clipPath><clipPath><rect y="8" x="8" height="32" width="32" fill="none" rx="16"/></clipPath><clipPath><rect y="507.8" x="392.57" height="32" width="32" fill="none" rx="16"/></clipPath><clipPath><rect width="32" height="32" x="392.57" y="507.8" fill="none" rx="16"/></clipPath><clipPath><rect width="32" height="32" x="392.57" y="507.8" fill="none" rx="16"/></clipPath><clipPath><rect width="32" height="32" x="8" y="8" fill="none" rx="16"/></clipPath><clipPath><path d="m0 706.47h1490.93v-706.47h-1490.93v706.47"/></clipPath><clipPath><path d="m22.2 686.12h1447.73v-667.19h-1447.73v667.19"/></clipPath><clipPath><rect width="32" height="32" x="392.57" y="507.8" fill="none" rx="16"/></clipPath><clipPath><rect width="32" height="32" x="392.57" y="507.8" fill="none" rx="16"/></clipPath><clipPath><rect width="32" height="32" x="392.57" y="507.8" fill="none" rx="16"/></clipPath><clipPath><rect width="32" height="32" x="392.57" y="507.8" fill="none" rx="16"/></clipPath><clipPath><rect width="32" height="32" x="8" y="8" fill="none" rx="16"/></clipPath></defs><path d="m123.78 73.993l-11.242-10.999 11.242-10.999c1.63-1.521 2.173-3.422 1.63-5.703-.651-2.227-2.063-3.612-4.237-4.155l-15.316-3.911 4.318-15.15c.651-2.226.137-4.128-1.549-5.703-1.574-1.684-3.475-2.2-5.703-1.548l-15.15 4.318-3.912-15.317c-.543-2.227-1.926-3.612-4.153-4.155-2.228-.598-4.129-.081-5.703 1.548l-11 11.325-10.999-11.325c-1.575-1.684-3.476-2.2-5.703-1.548-2.227.543-3.612 1.928-4.155 4.155l-3.911 15.317-15.15-4.318c-2.227-.652-4.128-.136-5.703 1.548-1.684 1.575-2.2 3.476-1.548 5.703l4.318 15.15-15.317 3.911c-2.172.543-3.585 1.928-4.236 4.155-.544 2.281 0 4.182 1.629 5.703l11.243 10.999-11.243 10.999c-1.629 1.521-2.172 3.422-1.629 5.703.651 2.227 2.064 3.612 4.236 4.155l15.317 3.91-4.318 15.15c-.652 2.227-.136 4.127 1.548 5.703 1.575 1.684 3.476 2.199 5.703 1.548l15.15-4.317 3.911 15.316c.543 2.227 1.928 3.639 4.155 4.236 2.281.543 4.182 0 5.703-1.629l10.999-11.243 11 11.244c1.086 1.193 2.471 1.791 4.154 1.791.381 0 .896-.055 1.549-.162 2.227-.652 3.611-2.064 4.154-4.236l3.91-15.316 15.15 4.317c2.228.651 4.129.136 5.703-1.548 1.685-1.576 2.2-3.477 1.549-5.703l-4.317-15.15 15.315-3.91c2.175-.543 3.586-1.928 4.237-4.155.544-2.282.0001-4.183-1.63-5.704" transform="matrix(.12778 0 0 .12778 2.947 2.951)" fill="#4d4d4d"/></svg>