<svg xmlns="http://www.w3.org/2000/svg" viewBox="0 0 22 22"><g transform="matrix(.01905 0 0 .01905 2.6 2.318)" fill="#4d4d4d"><path d="m109.23 112.93v158.5h60.8v-183.5h-35.8c-13.8 0-25 11.2-25 25"/><path d="m777.85 112.93c0-13.8-11.199-25-25-25h-35.799v183.5h60.799v-158.5"/><path d="m204.8 58.889v47.72 169.7h472.5v-169.7-47.72-23.12h-472.5z"/><path d="m857.2 316.1h-832.2c-13.8 0-25 11.2-25 25v388.8c0 13.801 11.2 25 25 25h130.9v-148.4-64.786h570.5v64.786 148.4h130.9c13.799 0 25-11.199 25-25v-388.8c-.101-13.8-11.3-25-25.1-25m-89.1 136.1c-5.199 3.399-11.4 5.3-18 5.3-18.4 0-33.3-14.9-33.3-33.3 0-18.4 14.898-33.3 33.3-33.3 6.6 0 12.801 2 18 5.301 9.201 5.899 15.201 16.199 15.201 27.899 0 11.7-6 22.2-15.201 28.1"/><path d="m679.3 586.41h-476.3v25 239.43 25h476.3v-25-239.43z"/></g></svg>