<svg xmlns="http://www.w3.org/2000/svg" viewBox="0 0 22 22"><path d="m4.6 3c-.443 0-.799.358-.799.801v14.398c0 .443.356.801.799.801h12.801c.443 0 .799-.358.799-.801v-14.398c0-.443-.356-.801-.799-.801h-12.801m.902344 9.06641a.910795 .910795 0 0 1 .912109 .910156 .910795 .910795 0 0 1 -.912109 .91211 .910795 .910795 0 0 1 -.910156 -.91211 .910795 .910795 0 0 1 .910156 -.910156m2.214844 0a.910795 .910795 0 0 1 .912109 .91211 .910795 .910795 0 0 1 -.912109 .910156 .910795 .910795 0 0 1 -.910156 -.910156 .910795 .910795 0 0 1 .910156 -.91211m2.232422 0a.910795 .910795 0 0 1 .912109 .91211 .910795 .910795 0 0 1 -.912109 .910156 .910795 .910795 0 0 1 -.910156 -.910156 .910795 .910795 0 0 1 .910156 -.91211m2.208984 0a.910795 .910795 0 0 1 .912109 .91211 .910795 .910795 0 0 1 -.912109 .910156 .910795 .910795 0 0 1 -.910156 -.910156 .910795 .910795 0 0 1 .910156 -.91211m2.173828 0a.910795 .910795 0 0 1 .910157 .91211 .910795 .910795 0 0 1 -.910157 .910156 .910795 .910795 0 0 1 -.912109 -.910156 .910795 .910795 0 0 1 .912109 -.91211m2.166016 0a.910795 .910795 0 0 1 .910156 .91211 .910795 .910795 0 0 1 -.910156 .910156 .910795 .910795 0 0 1 -.912109 -.910156 .910795 .910795 0 0 1 .912109 -.91211m-9.912109 2.197266a.910795 .910795 0 0 1 .910156 .910156 .910795 .910795 0 0 1 -.910156 .91211 .910795 .910795 0 0 1 -.910156 -.91211 .910795 .910795 0 0 1 .910156 -.910156m2.214844 0a.910795 .910795 0 0 1 .910156 .912109 .910795 .910795 0 0 1 -.910156 .910157 .910795 .910795 0 0 1 -.912109 -.910157 .910795 .910795 0 0 1 .912109 -.912109m2.232422 0a.910795 .910795 0 0 1 .910156 .912109 .910795 .910795 0 0 1 -.910156 .910157 .910795 .910795 0 0 1 -.910156 -.910157 .910795 .910795 0 0 1 .910156 -.912109m2.208985 0a.910795 .910795 0 0 1 .910156 .912109 .910795 .910795 0 0 1 -.910156 .910157 .910795 .910795 0 0 1 -.91211 -.910157 .910795 .910795 0 0 1 .91211 -.912109m2.171874 0a.910795 .910795 0 0 1 .910157 .912109 .910795 .910795 0 0 1 -.910157 .910157 .910795 .910795 0 0 1 -.910156 -.910157 .910795 .910795 0 0 1 .910156 -.912109m-9.912109 2.177734a.910795 .910795 0 0 1 .912109 .91211 .910795 .910795 0 0 1 -.912109 .910156 .910795 .910795 0 0 1 -.910156 -.910156 .910795 .910795 0 0 1 .910156 -.91211m2.214844 0a.910795 .910795 0 0 1 .912109 .91211 .910795 .910795 0 0 1 -.912109 .910156 .910795 .910795 0 0 1 -.910156 -.910156 .910795 .910795 0 0 1 .910156 -.91211m2.232422 0a.910795 .910795 0 0 1 .912109 .91211 .910795 .910795 0 0 1 -.912109 .910156 .910795 .910795 0 0 1 -.910156 -.910156 .910795 .910795 0 0 1 .910156 -.91211m2.208984 0a.910795 .910795 0 0 1 .912109 .91211 .910795 .910795 0 0 1 -.912109 .910156 .910795 .910795 0 0 1 -.910156 -.910156 .910795 .910795 0 0 1 .910156 -.91211m2.173828 0a.910795 .910795 0 0 1 .910157 .91211 .910795 .910795 0 0 1 -.910157 .910156 .910795 .910795 0 0 1 -.912109 -.910156 .910795 .910795 0 0 1 .912109 -.91211m2.166016 0a.910795 .910795 0 0 1 .910156 .91211 .910795 .910795 0 0 1 -.910156 .910156 .910795 .910795 0 0 1 -.912109 -.910156 .910795 .910795 0 0 1 .912109 -.91211" transform="translate(0 .048)" stroke-opacity=".55" fill="#4d4d4d" stroke-width="2.8" stroke="none"/></svg>