<svg xmlns="http://www.w3.org/2000/svg" viewBox="0 0 22 22"><path d="m.793 3c-.211 0-.383.169-.383.381v15.572l21.18.045v-13.363c0-.211-.171-.383-.383-.383h-11.48c-.389.034-.439-.017-.631-.273-.273-.365-.685-1.347-.953-1.703-.215-.312-.25-.275-.607-.275h-6.742m10.125 5.258c1.88 0 3.661.756 5.02 2.129.255.258.264.686.02.955-.126.138-.293.207-.461.207-.159 0-.319-.062-.443-.188-1.117-1.131-2.584-1.752-4.133-1.752-1.551 0-3.02.62-4.135 1.75-.255.258-.659.25-.904-.02-.245-.269-.235-.697.02-.955 1.354-1.372 3.136-2.127 5.02-2.127m0 2.252c1.362 0 2.644.558 3.609 1.572.251.263.253.692.004.957-.125.132-.289.199-.453.199h-.002c-.163 0-.327-.066-.451-.197-.724-.761-1.685-1.18-2.707-1.18-1.024 0-1.986.417-2.709 1.176-.25.263-.655.262-.904-.002-.249-.264-.249-.692.002-.955.964-1.013 2.247-1.57 3.611-1.57m0 2.252c.841 0 1.647.379 2.213 1.037.238.277.217.702-.045.953-.122.118-.274.176-.428.176-.174 0-.348-.074-.475-.221-.324-.377-.785-.594-1.266-.594-.489 0-.939.209-1.266.59-.237.277-.64.298-.902.047-.262-.251-.283-.677-.045-.953.564-.657 1.37-1.035 2.213-1.035m-.08 2.252c.427 0 .773.348.773.775 0 .428-.347.773-.773.773-.427 0-.773-.346-.773-.773 0-.428.347-.775.773-.775" transform="matrix(1.0001 0 0 1.0001 0 .008)" color="#000" fill="#4d4d4d"/></svg>