<svg xmlns="http://www.w3.org/2000/svg" viewBox="0 0 22 22"><path d="m-8.725 1045.76q-1.95 0-3.275-1.125-1.3-1.125-1.3-2.975 0-2 1.55-3.125 1.55-1.15 3.825-1.15 2.025 0 3.325.75v-.35q0-1.35-.925-2.15-.925-.825-2.275-.825-1 0-1.825.475-.8.475-1.1 1.3l-2.1-.9q.425-1.1 1.675-2.025 1.25-.95 3.3-.95 2.35 0 3.9 1.375 1.55 1.375 1.55 3.875v7.4h-2.2v-1.7h-.1q-1.375 2.1-4.03 2.1m.375-2.1q1.425 0 2.575-1.05 1.175-1.075 1.175-2.525-.975-.8-2.925-.8-1.675 0-2.525.725-.85.725-.85 1.7 0 .9.775 1.425.775.525 1.775.525" fill="#4d4d4d" transform="matrix(1.22605 0 0 1.22605 20.625-1263.16)"/></svg>