<svg xmlns="http://www.w3.org/2000/svg" viewBox="0 0 22 22"><path d="m7.693 1043.39c-.515-1.022.145-2.212 1.139-2.62 1.403-.576 2.954.32 3.447 1.686.643 1.781-.494 3.699-2.234 4.274-2.157.714-4.446-.668-5.101-2.781-.786-2.533.842-5.193 3.328-5.928 2.908-.86 5.942 1.015 6.755 3.875.934 3.283-1.188 6.691-4.423 7.582-3.658 1.01-7.44-1.361-8.409-4.97-1.083-4.03 1.535-8.19 5.517-9.236 4.407-1.158 8.94 1.708 10.06 6.06.489 1.897.313 3.935-.474 5.728" fill="none" fill-rule="evenodd" stroke="#4d4d4d" stroke-linejoin="round" stroke-linecap="round" stroke-width="1.301" transform="translate(1-1031.36)"/></svg>