<svg xmlns="http://www.w3.org/2000/svg" viewBox="0 0 22 22"><g transform="translate(-322.74-533.45)" fill="#4d4d4d"><path d="m400.08 520.08l-6.589 11.492c-1.385 2.43-1.492 5.519 0 8.12 2.242 3.911 7.23 5.263 11.141 3.02 3.911-2.242 5.263-7.23 3.02-11.141l-6.589-11.492c-.218-.38-.765-.38-.983 0" transform="matrix(.33333 0 0 .33333 205.64 371)"/><g transform="matrix(.04332.00944-.00944.04332 326.67 534.16)"><path d="m211.03 178.32c-45.06-21.617-100.53.334-123.89 49.03-34.3 71.5 42.761 99.83-20.17 163.53-35.12 35.553 145.27-5.856 183.35-85.25 23.36-48.694 5.768-105.69-39.29-127.31"/><path d="m337.69 44.849l-92.11-44.19c-3.521-1.688-7.376-.029-8.568 3.688 0 0-20.06 60.925-27.05 84.29-1.768 5.902-3.498 9.161 1.848 11.724 16 7.675 51.771 24.84 69.73 33.455 4.662 2.236 6.799-1.559 9.933-6.291 12.63-19.07 48.701-73.68 48.701-73.68 2.153-3.258 1.034-7.304-2.486-8.992"/><path d="m271.52 148.2c-15.836-7.594-48.771-23.401-64.61-30.995-6.381-3.06-7.568 3.75-8.57 6.469-2.311 6.267-8.163 25.437-8.163 25.437-1.192 3.717.991 7.22 4.854 7.785 0 0 14.877 2.175 25.26 7.155 12.852 6.165 26.676 20.937 26.676 20.937 2.666 2.85 6.61 2.518 8.765-.739 0 0 13.02-18.761 16.772-25.377 1.375-2.431 4.726-7.933-.989-10.672"/></g></g></svg>