<svg xmlns="http://www.w3.org/2000/svg" viewBox="0 0 22 22"><g transform="matrix(.49521-.74511.74511.49521-770.55-496.53)" fill="#4d4d4d" color="#000"><g fill-opacity=".976"><path d="m15.237 1042.68l-3.831-2.564v-3.89c-.0001-2.139.009-3.89.022-3.89.013 0 1.742 1.15 3.844 2.555l3.821 2.555v3.901c0 2.146-.005 3.9-.011 3.898-.006 0-1.735-1.157-3.842-2.567" opacity=".987"/><path d="m2.887 1041.45v-3.959l3.836-2.549c2.11-1.402 3.847-2.548 3.859-2.548.013 0 .023 1.779.023 3.954v3.954l-3.834 2.553c-2.109 1.404-3.845 2.553-3.859 2.553-.014 0-.026-1.781-.026-3.959" opacity=".987"/></g><path d="m7.228 1048.61c-2.056-1.374-3.756-2.516-3.778-2.538-.044-.043 7.525-5.149 7.64-5.154.084 0 7.526 4.976 7.511 5.03-.007.023-6.969 4.733-7.609 5.148-.014.001-1.708-1.108-3.764-2.482" opacity=".987" fill-opacity=".988"/></g></svg>