<svg xmlns="http://www.w3.org/2000/svg" viewBox="0 0 22 22"><g transform="translate(-421.71-525.79)" fill="#4d4d4d"><g font-family="Sans" word-spacing="0" line-height="125%" letter-spacing="0" font-size="9"><text y="560.55" x="420.15"><tspan x="420.15" y="560.55"/></text><text y="554.68" x="420.89"><tspan x="420.89" y="554.68"/></text><text y="561.55" x="414.15"><tspan x="414.15" y="561.55"/></text><text y="560.55" x="420.15"><tspan x="420.15" y="560.55"/></text><text y="554.68" x="420.89"><tspan x="420.89" y="554.68"/></text><text y="561.55" x="414.15"><tspan x="414.15" y="561.55"/></text></g><g transform="matrix(.04317 0 0 .04317 424.71 528.79)"><path d="m5.806 224.75c-7.741 7.741-7.741 20.291.002 28.03l10.114 10.114 24.18-9.46-9.112 24.529 50.811 50.812 39.01-22.66-19.858 41.815 16.843 16.844c7.743 7.743 20.293 7.743 28.03.002l91.81-91.81-140.03-140.03-91.81 91.81"/><path d="m358.83 11.841l-.082-.083c-9.66-9.66-21.981-13.478-35.631-11.04-27.59 4.924-56.52 34.861-77.38 80.09-5.788 12.546-13.997 19.607-25.1 21.588-21.311 3.803-48.29-11.741-64.34-27.792-3.362-3.362-8.814-3.361-12.176.0001l-16.685 16.686 24.651 24.651c3.202 3.202 3.202 8.392 0 11.594-3.202 3.202-8.393 3.202-11.594 0l-24.651-24.651-6.178 6.178c-3.364 3.364-3.364 8.815-.002 12.178l139.7 139.7c3.361 3.361 8.812 3.36 12.177-.002l34.458-34.458c3.361-3.362 3.362-8.814.0001-12.177-16.05-16.05-31.595-43.03-27.792-64.34 1.98-11.1 9.04-19.312 21.588-25.1 45.23-20.865 75.16-49.793 80.09-77.38 2.434-13.652-1.385-25.973-11.05-35.633m-15.774 36.905c-5.857 5.857-15.354 5.857-21.21 0-5.856-5.858-5.856-15.355 0-21.21 5.858-5.858 15.355-5.858 21.21 0 5.858 5.858 5.858 15.355 0 21.21"/></g></g></svg>