<svg xmlns="http://www.w3.org/2000/svg" viewBox="0 0 22 22"><g transform="matrix(.03965 0 0 .03965 1.163 1.163)" fill="#4d4d4d"><path d="m250.2 81.61c97.43 0 179.75 43.43 179.75 94.83 0 12.449-4.934 24.449-13.645 35.465l35.402 10.404c8.613-14.227 13.533-29.629 13.533-45.869 0-72.965-94.46-130.12-215.04-130.12-120.57 0-215.04 57.16-215.04 130.12 0 26.918 12.936 51.643 35.19 72.17-6.951 4.502-13.756 10.502-18.836 18.984-10.453 17.449-10.66 39.09-.645 64.35 9.433 23.791 7.125 32.582 5.693 35.24-3.354 6.322-18.13 9.514-32.385 12.596-3.486.758-7.04 1.531-10.582 2.371-9.484 2.24-15.353 11.725-13.13 21.23 1.902 8.111 9.164 13.596 17.16 13.596 1.34 0 2.709-.16 4.068-.467 3.32-.791 6.656-1.518 9.932-2.227 21.11-4.564 45.02-9.742 56.08-30.482 8.486-15.902 7.195-36.516-4.03-64.85-5.725-14.435-6.385-25.564-1.947-33.1 4.965-8.451 16.14-12.207 22.19-13.467 35.705 19.902 82.85 32.354 135.59 33.869l-10.504-35.74c-87.87-5.758-158.56-46.45-158.56-94.07.0001-51.4 82.32-94.83 179.75-94.83"/><path d="m487.57 269.63l-222.05-65.27c-1.115-.338-2.244-.482-3.373-.482-3.113 0-6.158 1.227-8.434 3.5-3.096 3.08-4.258 7.613-3.02 11.789l65.27 222.1c1.34 4.613 5.352 7.982 10.143 8.5.453.047.891.064 1.322.064 4.309 0 8.307-2.338 10.439-6.162l54.08-98.04 98.03-54.09c4.225-2.322 6.629-6.951 6.1-11.727-.514-4.787-3.874-8.805-8.502-10.176"/></g></svg>