<svg xmlns="http://www.w3.org/2000/svg" viewBox="0 0 22 22"><path d="m7.405 4.914c-.52.914-.791.914-.271 1.829l3.191 5.616-1.855 3.226c-.401-.376-.934-.611-1.526-.611-1.248 0-2.253 1.02-2.253 2.286 0 1.267 1 2.286 2.253 2.286 1.248 0 2.253-1.02 2.253-2.286 0-.153-.016-.302-.044-.447l1.047-1.841c.703-.009.792-.708 1.202-.718l1.445 2.543c-.03.149-.046.304-.046.463 0 1.267 1 2.286 2.253 2.286 1.248 0 2.253-1.02 2.253-2.286 0-1.267-1-2.286-2.253-2.286-.589 0-1.119.233-1.519.605l-1.852-3.22 3.191-5.616c.52-.914.249-.914-.271-1.829l-3.6 6.262-3.6-6.262m3.595 7.316c.25 0 .451.204.451.457 0 .253-.201.457-.451.457-.25 0-.451-.204-.451-.457 0-.253.201-.457.451-.457zm-4.056 3.658c.749 0 1.352.612 1.352 1.372 0 .76-.603 1.372-1.352 1.372-.749 0-1.352-.612-1.352-1.372 0-.76.603-1.372 1.352-1.372zm8.112 0c.749 0 1.352.612 1.352 1.372 0 .76-.603 1.372-1.352 1.372-.749 0-1.352-.612-1.352-1.372 0-.76.603-1.372 1.352-1.372z" mix-blend-mode="normal" solid-color="#000000" white-space="normal" color-interpolation-filters="linearRGB" color="#000" image-rendering="auto" color-rendering="auto" stroke-width=".908" isolation="auto" color-interpolation="sRGB" solid-opacity="1" fill="#4d4d4d" stroke="#4d4d4d" shape-rendering="auto" transform="matrix(1.125 0 0 1.125-1.375-2.5)"/></svg>