<svg xmlns="http://www.w3.org/2000/svg" viewBox="0 0 22 22"><path d="m8 3c-.552 0-1 .448-1 1v1h1v-.5c0-.276.224-.5.5-.5h9c.276 0 .5.224.5.5v9c0 .276-.224.5-.5.5h-.5v1h1c.552 0 1-.448 1-1v-10c0-.552-.448-1-1-1h-10m-4 3c-.552 0-1 .448-1 1v11c0 .552.448 1 1 1h11c.552 0 1-.448 1-1v-11c0-.552-.448-1-1-1h-11m5.344 2.572c1.1 0 2.069.74 2.357 1.801.062.227-.072.46-.299.521-.227.062-.46-.072-.521-.299-.188-.691-.819-1.174-1.537-1.174-.879 0-1.594.715-1.594 1.594v.984h3.949c.234 0 .426.191.426.426v3.721c0 .234-.191.426-.426.426h-4.713c-.234 0-.426-.191-.426-.426v-3.721c0-.204.145-.376.338-.416v-.994c0-1.348 1.097-2.443 2.445-2.443" transform="matrix(.99985 0 0 .99985.0001-.002)" fill="#4d4d4d"/></svg>