<svg xmlns="http://www.w3.org/2000/svg" viewBox="0 0 22 22"><g transform="matrix(.17213 0 0 .17213 2.62 2.628)" fill="#4d4d4d"><path d="m76.17 21.449c-7.803-1.021-7.188 6.1-8.719 11.448-.799 2.797-4.264 1.256-6.268 1.079-1.664-.148-3.312-.009-4.754.725-5.978-5.064-13.704-8.125-22.15-8.125-18.932 0-34.28 15.348-34.28 34.28 0 18.934 15.35 34.28 34.28 34.28 18.931 0 34.28-15.349 34.28-34.28 0-8.524-3.119-16.315-8.269-22.312.779-.081 1.688-.041 2.783.168 2.683.511 5.267.126 7.142-1.957 1.469-1.632 1.817-3.988 2.088-6.077.375-2.903.309-5.336 3.862-4.872 2.783.364 2.748-3.999.002-4.358"/><path d="m61.13 15.369c.504 1.093 1.801 1.57 2.893 1.066 1.091-.502 1.568-1.799 1.066-2.892l-4.654-10.09c-.504-1.093-1.799-1.57-2.894-1.066-.356.165-.649.417-.864.719-.435.615-.537 1.438-.199 2.171l4.652 10.09"/><path d="m75.17 16.482c1.088.513 2.385.046 2.9-1.042l4.739-10.05c.514-1.089.049-2.388-1.041-2.9-.972-.458-2.109-.137-2.709.71-.07.103-.136.213-.191.331l-4.74 10.05c-.513 1.088-.048 2.387 1.042 2.9"/><path d="m97.25 21.11c-.307-1.165-1.498-1.859-2.66-1.553l-10.748 2.829c-.516.136-.938.446-1.223.85-.361.507-.5 1.166-.33 1.813.307 1.164 1.498 1.858 2.664 1.552l10.744-2.831c1.164-.304 1.86-1.497 1.553-2.66"/><path d="m92.42 41.906l-9.07-6.413c-.983-.694-2.344-.461-3.037.521-.694.983-.461 2.343.523 3.037l9.07 6.413c.982.695 2.342.461 3.037-.521.694-.984.461-2.343-.523-3.037"/></g></svg>