<svg xmlns="http://www.w3.org/2000/svg" viewBox="0 0 22 22"><path d="m4 3c-.554 0-1 .446-1 1v14c0 .554.446 1 1 1h14c.554 0 1-.446 1-1v-14c0-.554-.446-1-1-1h-14m4.436 3.4c.646 0 1.17.524 1.17 1.17 0 .646-.524 1.17-1.17 1.17-.646 0-1.17-.524-1.17-1.17 0-.646.524-1.17 1.17-1.17m5.307 0c.646 0 1.17.524 1.17 1.17 0 .646-.524 1.17-1.17 1.17-.646 0-1.172-.524-1.172-1.17 0-.646.526-1.17 1.172-1.17m-6.967 5.314c.159-.013.35.006.578.066 0 0 3.235 1.754 7.293 0 1.823-.484 1.266 1.674 1.266 1.674-1.042 3.2-4.912 2.939-4.912 2.939 0 0-3.87.26-4.912-2.939 0 0-.427-1.651.688-1.74" transform="translate(0-.002)" fill="#4d4d4d" fill-rule="evenodd"/></svg>