<?xml version="1.0" encoding="UTF-8" standalone="no"?>
<svg
   xmlns:dc="http://purl.org/dc/elements/1.1/"
   xmlns:cc="http://creativecommons.org/ns#"
   xmlns:rdf="http://www.w3.org/1999/02/22-rdf-syntax-ns#"
   xmlns:svg="http://www.w3.org/2000/svg"
   xmlns="http://www.w3.org/2000/svg"
   xmlns:sodipodi="http://sodipodi.sourceforge.net/DTD/sodipodi-0.dtd"
   xmlns:inkscape="http://www.inkscape.org/namespaces/inkscape"
   viewBox="0 0 22 22"
   id="svg2"
   version="1.1"
   inkscape:version="0.91 r13725"
   sodipodi:docname="edit-select-none.svg">
  <metadata
     id="metadata28">
    <rdf:RDF>
      <cc:Work
         rdf:about="">
        <dc:format>image/svg+xml</dc:format>
        <dc:type
           rdf:resource="http://purl.org/dc/dcmitype/StillImage" />
      </cc:Work>
    </rdf:RDF>
  </metadata>
  <sodipodi:namedview
     pagecolor="#ffffff"
     bordercolor="#666666"
     borderopacity="1"
     objecttolerance="10"
     gridtolerance="10"
     guidetolerance="10"
     inkscape:pageopacity="0"
     inkscape:pageshadow="2"
     inkscape:window-width="1366"
     inkscape:window-height="746"
     id="namedview26"
     showgrid="false"
     inkscape:zoom="10.727273"
     inkscape:cx="11"
     inkscape:cy="11"
     inkscape:window-x="0"
     inkscape:window-y="22"
     inkscape:window-maximized="1"
     inkscape:current-layer="svg2" />
  <defs
     id="defs4">
    <clipPath
       id="clipPath6">
      <path
         d="m69.63 12.145h-.052c-22.727-.292-46.47 4.077-46.709 4.122-2.424.451-4.946 2.974-5.397 5.397-.044.237-4.414 23.983-4.122 46.71-.292 22.777 4.078 46.523 4.122 46.761.451 2.423 2.974 4.945 5.398 5.398.237.044 23.982 4.413 46.709 4.121 22.779.292 46.524-4.077 46.761-4.121 2.423-.452 4.946-2.976 5.398-5.399.044-.236 4.413-23.981 4.121-46.709.292-22.777-4.077-46.523-4.121-46.761-.453-2.423-2.976-4.946-5.398-5.397-.238-.045-23.984-4.414-46.71-4.122"
         id="path8" />
    </clipPath>
  </defs>
  <g
     transform="translate(-461.71-525.79)"
     id="g10">
    <g
       fill="#1A1D20"
       id="g12">
      <path
         d="m3 3v1 3h1v-3h3v-1h-3m11 0v1h3v3h1v-4zm-12 12v4h1 3v-1h-3v-3z"
         transform="translate(461.71 525.79)"
         id="path14" />
      <g
         transform="translate(17.469-2.563)"
         fill-rule="evenodd"
         id="g16">
        <circle
           r="2.5"
           cy="536.29"
           cx="458.28"
           id="circle18" />
        <circle
           r="2.5"
           cy="536.35"
           cx="452.28"
           id="circle20" />
        <circle
           r="2.5"
           cy="542.42"
           cx="452.21"
           id="circle22" />
      </g>
    </g>
  </g>
  <path
     inkscape:connector-curvature="0"
     style="fill:#da4453;fill-opacity:1;stroke:none"
     d="M 14.946993,10.998001 A 3.9999969,4.0000019 0 0 0 10.947,14.998007 3.9999969,4.0000019 0 0 0 14.946993,18.998 3.9999969,4.0000019 0 0 0 18.947,14.998007 3.9999969,4.0000019 0 0 0 14.946993,10.998001 Z m -1.646476,2.000002 1.646476,1.646493 1.64649,-1.646493 0.353513,0.353514 -1.646489,1.64649 1.646489,1.646476 -0.353513,0.353513 -1.64649,-1.646475 -1.646476,1.646475 -0.353513,-0.353513 1.646475,-1.646476 -1.646475,-1.64649 0.353513,-0.353514 z"
     class="ColorScheme-NegativeText"
     id="path6-6" />
</svg>
