<svg xmlns="http://www.w3.org/2000/svg" viewBox="0 0 22 22"><defs><clipPath><rect y="8" x="8" height="32" width="32" fill="none" rx="16"/></clipPath><clipPath><rect y="507.8" x="392.57" height="32" width="32" fill="none" rx="16"/></clipPath><clipPath><rect width="32" height="32" x="392.57" y="507.8" fill="none" rx="16"/></clipPath><clipPath><rect y="507.8" x="392.57" height="32" width="32" fill="none" rx="16"/></clipPath><clipPath><rect y="507.8" x="392.57" height="32" width="32" fill="none" rx="16"/></clipPath><clipPath><rect width="32" height="32" x="392.57" y="507.8" fill="none" rx="16"/></clipPath><clipPath><rect width="32" height="32" x="8" y="8" fill="none" rx="16"/></clipPath><clipPath><rect width="32" height="32" x="392.57" y="507.8" fill="none" rx="16"/></clipPath><clipPath><rect y="507.8" x="392.57" height="32" width="32" fill="none" rx="16"/></clipPath><clipPath><rect y="507.8" x="392.57" height="32" width="32" fill="none" rx="16"/></clipPath><clipPath><rect y="8" x="8" height="32" width="32" fill="none" rx="16"/></clipPath><clipPath><path d="m0 706.47h1490.93v-706.47h-1490.93v706.47"/></clipPath><clipPath><path d="m22.2 686.12h1447.73v-667.19h-1447.73v667.19"/></clipPath><clipPath><rect y="507.8" x="392.57" height="32" width="32" fill="none" rx="16"/></clipPath><clipPath><rect y="507.8" x="392.57" height="32" width="32" fill="none" rx="16"/></clipPath><clipPath><rect y="507.8" x="392.57" height="32" width="32" fill="none" rx="16"/></clipPath><clipPath><rect y="507.8" x="392.57" height="32" width="32" fill="none" rx="16"/></clipPath><clipPath><rect y="8" x="8" height="32" width="32" fill="none" rx="16"/></clipPath></defs><path d="m344.74 538.07h-.233c-.093 0-.188.058-.188.169v1.099c0 .036-.029.066-.066.066h-.469c-.036 0-.066-.029-.066-.066v-1.063c0-.067-.019-.119-.057-.157-.046-.046-.101-.048-.112-.048h-1.235c-.073 0-.182.052-.182.194v.487c0 .036-.029.066-.066.066h-.469c-.036 0-.066-.029-.066-.066v-.502-.004c-.004-.071-.054-.175-.177-.175h-1.25c-.058 0-.094.026-.114.047-.044.048-.045.111-.044.131v1.09c0 .036-.029.066-.066.066h-.469c-.036 0-.066-.029-.066-.066v-1.066c0-.077-.03-.124-.056-.149-.05-.05-.111-.052-.124-.052h-1.246c-.062 0-.16.048-.16.176v.505c0 .036-.029.066-.066.066h-.469c-.036 0-.066-.029-.066-.066v-.476c0-.08-.031-.128-.057-.154-.049-.049-.109-.052-.121-.052h-1.246c-.065 0-.162.052-.162.194v1.074c0 .036-.029.066-.066.066h-.469c-.036 0-.066-.029-.066-.066v-1.077c0-.077-.029-.121-.053-.145-.043-.043-.094-.045-.105-.045h-1.254c-.087 0-.175.055-.175.161v.52c0 .036-.029.066-.066.066h-.416v-.776-.311c0-.201-.163-.364-.364-.364h-3.3c-.201 0-.364.163-.364.364v4.02c0 .201.163.364.364.364h.171v.558c0 .093.07.158.171.158.003 0 .005 0 .007 0h1.09c.036 0 .066.029.066.066v.469c0 .036-.029.066-.066.066h-1.066c-.077 0-.124.03-.149.056-.05.05-.052.112-.052.124v1.246c0 .011.002.067.047.111.022.022.063.049.129.049h.505c.036 0 .066.029.066.066v.469c0 .036-.029.066-.066.066h-.476c-.08 0-.128.031-.154.057-.049.049-.052.11-.052.121v1.246c0 .001.002.064.047.108.024.024.07.054.148.054h1.074c.036 0 .066.029.066.066v.469c0 .036-.029.066-.066.066h-1.077c-.077 0-.121.029-.145.053-.043.043-.045.095-.045.105v1.253c0 .013.002.082.051.131.029.029.067.044.11.044h.52c.036 0 .066.029.066.066v.469c0 .036-.029.066-.066.066h-.498c-.134 0-.183.093-.183.156v1.251c-.0001.02-.0001.09.043.137.025.027.059.041.097.041h1.128c.036 0 .066.029.066.066v.469c0 .036-.029.066-.066.066h-1.063c-.151 0-.205.121-.205.202v.612c0 .206.168.374.374.374h2.745c.206 0 .374-.168.374-.374v-11.238-.19h11.832c.206 0 .374-.168.374-.374v-2.745c0-.206-.168-.374-.374-.374" fill="#4d4d4d" transform="translate(-326-534.36)"/></svg>