<svg xmlns="http://www.w3.org/2000/svg" viewBox="0 0 22 22" xmlns:xlink="http://www.w3.org/1999/xlink"><defs><path id="0" d="m538.89 603.13h4v2h-4z" fill="#da4453" fill-rule="evenodd" color="#000" stroke-width="1"/></defs><g transform="translate(0-1030.36)"><path transform="translate(-1 1029.36)" d="m4 4v16h16v-16h-16m1 1h14v14h-14v-14" fill="#4d4d4d" fill-rule="evenodd" color="#000"/><use transform="matrix(1.25 0 0 1-660.61 437.23)" xlink:href="#0"/><use transform="matrix(1.25 0 0 1-669.61 437.23)" xlink:href="#0"/><use transform="matrix(.5 0 0 2.49999-259.44-473.45)" xlink:href="#0"/><use transform="matrix(.5 0 0 2.49999-259.44-464.45)" xlink:href="#0"/><path d="m11 1038.36c-1.657 0-3 1.343-3 3 0 1.657 1.343 3 3 3 1.657 0 3-1.343 3-3 0-1.657-1.343-3-3-3m0 2c.552 0 1 .448 1 1 0 .552-.448 1-1 1-.552 0-1-.448-1-1 0-.552.448-1 1-1" fill="#1d99f3" fill-rule="evenodd" color="#000"/></g></svg>