<svg xmlns="http://www.w3.org/2000/svg" viewBox="0 0 22 22"><g transform="matrix(0 1-1 0 1052.36 0)" fill-rule="evenodd" color="#000"><path transform="translate(-1 1029.36)" d="m4 4v16h16v-16h-16m1 1h14v14h-14v-14" fill="#4d4d4d"/><path fill="#da4453" stroke-width="1" d="m538.89 603.13h4v2h-4z" transform="matrix(.5 0 0 2.49999-259.44-464.45)"/><path d="m11 1038.36c-1.657 0-3 1.343-3 3 0 1.657 1.343 3 3 3 1.657 0 3-1.343 3-3 0-1.657-1.343-3-3-3m0 2c.552 0 1 .448 1 1 0 .552-.448 1-1 1-.552 0-1-.448-1-1 0-.552.448-1 1-1" fill="#1d99f3"/></g></svg>