<svg xmlns="http://www.w3.org/2000/svg" viewBox="0 0 24 24"><g transform="translate(1-1029.36)"><path d="m3 1033.36v7h8v-7z" fill="#4d4d4d"/><g transform="matrix(-1 0 0-1 547.48 1794.73)"><g transform="matrix(.94262 0 0 .94262 13.464 42.618)" fill="#4d4d4d"><path d="m547.44 756.58l1.255-.011-.758.015c.145.651.392 1.29.756 1.893.993 1.644 2.614 2.675 4.371 2.972.853.165 1.339-.869.417-1.219-1.484-.189-2.87-1.029-3.703-2.409-.243-.402-.418-.826-.538-1.257l.648-.006c.338-.003.462-.244.279-.538l-1.262-2.02c-.184-.295-.466-.294-.631.0001l-1.146 2.049c-.165.295-.024.531.313.528"/><path d="m561.94 751.42l-1.255.011.758-.015c-.145-.651-.392-1.29-.756-1.893-.993-1.644-2.614-2.675-4.371-2.972-.853-.165-1.339.869-.417 1.219 1.484.189 2.87 1.029 3.703 2.409.243.402.418.826.538 1.257l-.648.006c-.338.003-.462.244-.279.538l1.262 2.02c.184.295.466.294.631-.0001l1.146-2.049c.165-.295.024-.531-.313-.528"/></g><g transform="matrix(.83581 0 0 .83581 88.04 123.78)" fill="#1d99f3"><path d="m-1337.11 413.87c5.702 0 10.31 4.633 10.31 10.334v109.35l42.583-42.583c4.04-4.03 10.568-4.01 14.618.026 4.04 4.03 4.04 10.554 0 14.593l-58.42 58.45c-2.479 2.468-5.887 3.232-9.09 2.664-3.213.568-6.61-.186-9.09-2.665l-58.42-58.45c-4.04-4.03-4.04-10.554 0-14.593 4.03-4.04 10.554-4.04 14.593 0l42.583 42.558v-109.35c0-5.702 4.633-10.334 10.334-10.334" transform="matrix(-.04364 0 0 .04364 476.1 728.13)"/><path d="m-1325.65 441.36c5.702 0 10.31 4.633 10.31 10.334v109.35l42.583-42.583c4.04-4.03 10.568-4.01 14.618.025 4.04 4.03 4.04 10.554 0 14.593l-58.42 58.45c-2.479 2.468-5.887 3.232-9.09 2.664-3.213.568-6.61-.186-9.09-2.665l-58.42-58.45c-4.04-4.03-4.04-10.554 0-14.593 4.03-4.04 10.554-4.04 14.593 0l42.583 42.558v-109.35c0-5.702 4.633-10.334 10.334-10.334" transform="matrix(-.04364 0 0-.04364 472.2 769.68)"/></g></g></g></svg>