<svg xmlns="http://www.w3.org/2000/svg" viewBox="0 0 24 24"><g transform="translate(1-1029.36)"><g fill="#4d4d4d"><path d="m3 1033.36v7h8v-7z"/><g transform="matrix(-.94262 0 0-.94262 534.01 1752.11)"><path d="m547.44 756.58l1.255-.011-.758.015c.145.651.392 1.29.756 1.893.993 1.644 2.614 2.675 4.371 2.972.853.165 1.339-.869.417-1.219-1.484-.189-2.87-1.029-3.703-2.409-.243-.402-.418-.826-.538-1.257l.648-.006c.338-.003.462-.244.279-.538l-1.262-2.02c-.184-.295-.466-.294-.631.0001l-1.146 2.049c-.165.295-.024.531.313.528"/><path d="m561.94 751.42l-1.255.011.758-.015c-.145-.651-.392-1.29-.756-1.893-.993-1.644-2.614-2.675-4.371-2.972-.853-.165-1.339.869-.417 1.219 1.484.189 2.87 1.029 3.703 2.409.243.402.418.826.538 1.257l-.648.006c-.338.003-.462.244-.279.538l1.262 2.02c.184.295.466.294.631-.0001l1.146-2.049c.165-.295.024-.531-.313-.528"/></g></g><ellipse cx="15.02" cy="1045.86" rx="3.5" ry="3.5" fill="#1d99f3"/></g></svg>