<svg xmlns="http://www.w3.org/2000/svg" viewBox="0 0 22 22"><path d="m337 537.36c-2.037 0-3.909.439-5.276 1.328-1.367.889-2.226 2.237-2.224 4.03.009 2.024 1.32 4.636 2.903 6.771.791 1.067 1.651 2.02 2.456 2.706.804.691 1.549 1.13 2.136 1.167h.005.005c.587-.037 1.332-.476 2.136-1.167.804-.691 1.664-1.639 2.456-2.706 1.583-2.134 2.893-4.746 2.903-6.771.0001-1.791-.857-3.139-2.224-4.03-1.367-.889-3.24-1.328-5.276-1.328" shape-rendering="auto" mix-blend-mode="normal" color-interpolation-filters="linearRGB" isolation="auto" white-space="normal" fill="#4d4d4d" solid-opacity="1" image-rendering="auto" solid-color="#000000" color="#000" fill-rule="evenodd" color-rendering="auto" color-interpolation="sRGB" transform="translate(-326-534.36)"/></svg>