<svg xmlns="http://www.w3.org/2000/svg" viewBox="0 0 22 22"><g fill="#4d4d4d"><path d="m11 3c-4.432 0-8 3.568-8 8 0 4.432 3.568 8 8 8 4.432 0 8-3.568 8-8 0-4.432-3.568-8-8-8m4.346 5.5c.049 0 .103.003.158.001h.002c.751.063 1.282.318 1.578.758.329.489.283 1.085.227 1.396-.005.028-.028.05-.057.055-.028.005-.056-.007-.07-.031-.059-.101-.158-.253-.301-.406-.346-.371-.778-.566-1.246-.566-.039 0-.079.0001-.119.004v2.77c0 .513-.385.935-.916 1-.048.006-.096.001-.145.001-.512 0-.944-.347-1-.807-.031-.248.047-.494.219-.693.172-.2.419-.329.693-.363.158-.02.318-.006.467.039v-2.824c0-.162.133-.352.512-.352m-9.406.5c.214 0 .389.173.389.387v.389h.898v-.389c0-.214.173-.387.387-.387.214 0 .389.173.389.387v.389h.389c.213 0 .387.175.387.389 0 .214-.173.387-.387.387h-.389v.898h.389c.214 0 .387.173.387.387 0 .213-.173.389-.387.389h-.389v.389c0 .214-.175.387-.389.387-.213 0-.387-.173-.387-.387v-.389h-.898v.389c0 .214-.175.387-.389.387-.214 0-.387-.173-.387-.387v-.389h-.389c-.214 0-.387-.175-.387-.389 0-.213.173-.387.387-.387h.389v-.898h-.389c-.214 0-.387-.173-.387-.387 0-.214.173-.389.387-.389h.389v-.389c0-.214.173-.387.387-.387m5.061 1c.554 0 1 .446 1 1 0 .554-.446 1-1 1-.554 0-1-.446-1-1 0-.554.446-1 1-1" transform="translate(0-.002)"/><path d="m86.09 163.74h77.65v-77.66h-77.65z" transform="matrix(.01601 0 0 .01601 4.77 8.998)"/></g></svg>