<svg xmlns="http://www.w3.org/2000/svg" viewBox="0 0 22 22"><g transform="matrix(.02614 0 0 .02614 3.01 3.01)" fill="#4d4d4d"><path d="m191.25 0c-21.11 0-38.25 17.14-38.25 38.25v38.25h38.25v-19.12c0-10.557 8.568-19.12 19.12-19.12h344.25c10.557 0 19.12 8.568 19.12 19.12v344.25c0 10.557-8.568 19.12-19.12 19.12h-19.12v38.25h38.25c21.11 0 38.25-17.14 38.25-38.25v-382.5c0-21.11-17.14-38.25-38.25-38.25h-382.5"/><path d="m4 6c-.552 0-1 .448-1 1v11c0 .552.448 1 1 1h11c.552 0 1-.448 1-1v-11c0-.552-.448-1-1-1h-11m5.377 2.721c.543 0 1.061.107 1.557.318.992.423 1.709 1.139 2.131 2.123.213.495.32 1.01.32 1.553 0 .543-.108 1.063-.32 1.559-.422.984-1.139 1.704-2.131 2.127-.496.211-1.014.32-1.557.32-.543 0-1.059-.108-1.555-.32-.984-.422-1.704-1.142-2.127-2.127-.212-.494-.314-1.016-.314-1.559 0-.543.103-1.059.314-1.553.423-.985 1.143-1.701 2.127-2.123.495-.212 1.012-.318 1.555-.318m-.248 1.467c-.204 0-.371.167-.371.371v2.721c0 .117.056.223.143.291l1.59 1.236c.068.049.148.08.229.08.111 0 .223-.048.291-.141.124-.161.099-.396-.068-.52l-1.441-1.127v-2.541c0-.204-.167-.371-.371-.371" transform="matrix(38.25 0 0 38.25-114.75-114.75)"/></g></svg>