<svg xmlns="http://www.w3.org/2000/svg" viewBox="0 0 22 22"><defs><clipPath><rect width="32" height="32" x="8" y="8" fill="none" rx="16"/></clipPath><clipPath><rect width="32" height="32" x="392.57" y="507.8" fill="none" rx="16"/></clipPath><clipPath><rect y="507.8" x="392.57" height="32" width="32" fill="none" rx="16"/></clipPath><clipPath><rect width="32" height="32" x="392.57" y="507.8" fill="none" rx="16"/></clipPath><clipPath><rect width="32" height="32" x="392.57" y="507.8" fill="none" rx="16"/></clipPath><clipPath><rect y="507.8" x="392.57" height="32" width="32" fill="none" rx="16"/></clipPath><clipPath><rect y="8" x="8" height="32" width="32" fill="none" rx="16"/></clipPath><clipPath><rect y="507.8" x="392.57" height="32" width="32" fill="none" rx="16"/></clipPath><clipPath><rect width="32" height="32" x="392.57" y="507.8" fill="none" rx="16"/></clipPath><clipPath><rect width="32" height="32" x="392.57" y="507.8" fill="none" rx="16"/></clipPath><clipPath><rect width="32" height="32" x="8" y="8" fill="none" rx="16"/></clipPath><clipPath><path d="m0 706.47h1490.93v-706.47h-1490.93v706.47"/></clipPath><clipPath><path d="m22.2 686.12h1447.73v-667.19h-1447.73v667.19"/></clipPath><clipPath><rect width="32" height="32" x="392.57" y="507.8" fill="none" rx="16"/></clipPath><clipPath><rect width="32" height="32" x="392.57" y="507.8" fill="none" rx="16"/></clipPath><clipPath><rect width="32" height="32" x="392.57" y="507.8" fill="none" rx="16"/></clipPath><clipPath><rect width="32" height="32" x="392.57" y="507.8" fill="none" rx="16"/></clipPath><clipPath><rect width="32" height="32" x="8" y="8" fill="none" rx="16"/></clipPath></defs><path d="m4.6 3c-.443 0-.799.358-.799.801v14.398c0 .443.356.801.799.801h12.801c.443 0 .799-.358.799-.801v-14.398c0-.443-.356-.801-.799-.801h-12.801m6.326 2.344c.069 0 .143.005.221.014h.002c1.051.089 1.794.445 2.209 1.061.461.684.396 1.518.316 1.955-.007.039-.037.071-.076.078-.04.007-.079-.012-.1-.047-.083-.141-.224-.353-.424-.566-.485-.519-1.087-.793-1.742-.793-.055 0-.11.002-.166.006v3.877c0 .719-.54 1.308-1.283 1.402-.067.008-.136.014-.203.014-.717 0-1.319-.485-1.4-1.129-.044-.347.064-.691.305-.971.241-.279.586-.459.971-.508.221-.028.444-.001.652.053v-3.953c0-.227.189-.492.719-.492m-3.764 8.313h3.908c.309 0 .557.249.557.559 0 .309-.247.559-.557.559h-3.908c-.309 0-.557-.249-.557-.559 0-.309.247-.559.557-.559m3.768 1.883h3.908c.309 0 .557.249.557.559 0 .309-.247.559-.557.559h-3.908c-.309 0-.557-.249-.557-.559 0-.309.247-.559.557-.559" transform="translate(0 .008)" fill="#4d4d4d"/></svg>