<svg xmlns="http://www.w3.org/2000/svg" viewBox="0 0 22 22"><g transform="translate(-326-534.36)"><g font-family="Sans" fill="#4d4d4d" word-spacing="0" line-height="125%" letter-spacing="0"><g font-size="9"><text y="558.48" x="312.31"><tspan x="312.31" y="558.48"/></text><text y="552.62" x="313.05"><tspan x="313.05" y="552.62"/></text><text y="559.48" x="306.31"><tspan x="306.31" y="559.48"/></text></g><g font-size="12.462"><text y="559.82" x="333.87"><tspan x="333.87" y="559.82"/></text><text y="551.7" x="334.89"><tspan x="334.89" y="551.7"/></text><text y="561.2" x="325.56"><tspan x="325.56" y="561.2"/></text></g><g font-size="9"><text y="554.28" x="297.19"><tspan x="297.19" y="554.28"/></text><text y="548.41" x="297.93"><tspan x="297.93" y="548.41"/></text><text y="555.28" x="291.19"><tspan x="291.19" y="555.28"/></text></g><g font-size="12.462"><text y="555.62" x="318.75"><tspan x="318.75" y="555.62"/></text><text y="547.5" x="319.77"><tspan x="319.77" y="547.5"/></text><text y="557" x="310.44"><tspan x="310.44" y="557"/></text></g><g font-size="9"><text y="557.98" x="321.39"><tspan x="321.39" y="557.98"/></text><text y="552.12" x="322.13"><tspan x="322.13" y="552.12"/></text><text y="558.98" x="315.39"><tspan x="315.39" y="558.98"/></text></g><g font-size="12.462"><text y="559.32" x="342.95"><tspan x="342.95" y="559.32"/></text><text y="551.2" x="343.97"><tspan x="343.97" y="551.2"/></text><text y="560.7" x="334.64"><tspan x="334.64" y="560.7"/></text></g></g><g transform="matrix(.99162 0 0 .99162 2.907 5.561)"><path d="m331.67 537.36l-4.841 14h1.169l1.735-4.667h6.04l1.729 4.667h1.328l-4.907-14h-2.252m1.09 1.201l2.58 6.966h-5.172l2.592-6.966" shape-rendering="auto" mix-blend-mode="normal" color-interpolation-filters="linearRGB" isolation="auto" white-space="normal" fill="#1d99f3" solid-opacity="1" image-rendering="auto" solid-color="#000000" color="#000" fill-rule="evenodd" color-rendering="auto" color-interpolation="sRGB"/><path d="m339 539.36v8 4h1v-1.361a4 4 0 0 0 3 1.36133 4 4 0 0 0 4 -4 4 4 0 0 0 -4 -4 4 4 0 0 0 -3 1.36133v-5.361h-1m4 5a3 3 0 0 1 3 3 3 3 0 0 1 -3 3 3 3 0 0 1 -3 -3 3 3 0 0 1 3 -3" fill="#4d4d4d"/></g></g></svg>