<svg xmlns="http://www.w3.org/2000/svg" viewBox="0 0 22 22"><path d="m325.48 544.44l-.623.997.502.653-.517.39-.368-.487q-.525.487-1.245.487-.817 0-1.387-.548-.57-.548-.57-1.35 0-.465.248-.893.248-.428.683-.69-.39-.518-.39-.893 0-.518.382-.878.382-.36.915-.36.45 0 .757.263.315.255.442.645l-.592.315q-.21-.563-.608-.563-.255 0-.428.158-.173.15-.173.42 0 .255.173.48l1.777 2.325.48-.803.54.33m-2.25 1.41q.525 0 .863-.36l-1.515-1.987q-.308.173-.495.465-.18.293-.18.615 0 .548.382.908.39.36.945.36" transform="matrix(2.85205 0 0 2.85205-911.28-1539.59)" fill="#4d4d4d"/></svg>