<svg xmlns="http://www.w3.org/2000/svg" viewBox="0 0 22 22"><g fill="#4d4d4d"><path d="m8 3c-.552 0-1 .448-1 1v1h1v-.5c0-.276.224-.5.5-.5h9c.276 0 .5.224.5.5v9c0 .276-.224.5-.5.5h-.5v1h1c.552 0 1-.448 1-1v-10c0-.552-.448-1-1-1h-10m-4 3c-.552 0-1 .448-1 1v11c0 .552.448 1 1 1h11c.552 0 1-.448 1-1v-11c0-.552-.448-1-1-1h-11m3.936 3.199c.374 0 .678.304.678.678v.682h1.574v-.682c0-.374.304-.678.678-.678.374 0 .678.304.678.678v.682h.68c.374 0 .678.304.678.678 0 .374-.304.678-.678.678h-.68v1.572h.68c.374 0 .678.304.678.678 0 .374-.304.678-.678.678h-.68v.68c0 .374-.304.678-.678.678-.374 0-.678-.304-.678-.678v-.68h-1.574v.68c0 .374-.304.678-.678.678-.374 0-.678-.304-.678-.678v-.68h-.68c-.374 0-.678-.304-.678-.678 0-.374.304-.678.678-.678h.68v-1.572h-.68c-.374 0-.678-.304-.678-.678 0-.374.304-.678.678-.678h.68v-.682c0-.374.304-.678.678-.678" transform="matrix(.99985 0 0 .99985.0001.008)"/><path d="m86.09 163.74h77.65v-77.66h-77.65z" transform="matrix(.02802 0 0 .02802 5.9 9.198)"/></g></svg>