<svg xmlns="http://www.w3.org/2000/svg" viewBox="0 0 22 22"><defs><clipPath><path fill="#f2f2f2" d="m7 1023.36h1v1h-1z"/></clipPath></defs><path d="m900.2 0h-46.514c-11.05 0-20 8.954-20 20v24.89c0 11.05-8.954 20-20 20h-43.37c-11.05 0-20-8.955-20-20v-24.89c0-11.05-8.953-20-20-20h-522.19c-11.05 0-20 8.954-20 20v24.89c0 11.05-8.954 20-20 20h-43.37c-11.05 0-20-8.955-20-20v-24.89c0-11.05-8.954-20-20-20h-44.95c-11.05 0-20 8.954-20 20v900c0 11.05 8.954 20 20 20h44.95c11.05 0 20-8.954 20-20v-18.285c0-11.05 8.954-20 20-20h43.37c11.05 0 20 8.954 20 20v18.285c0 11.05 8.954 20 20 20h522.19c11.05 0 20-8.954 20-20v-18.285c0-11.05 8.954-20 20-20h43.37c11.05 0 20 8.954 20 20v18.285c0 11.05 8.954 20 20 20h46.514c11.05 0 20-8.954 20-20v-900c0-11.04-8.954-20-20-20m-712.08 765.37c0 11.05-8.954 20-20 20h-43.37c-11.05 0-20-8.954-20-20v-43.37c0-11.04 8.954-20 20-20h43.37c11.05 0 20 8.955 20 20v43.37m0-179.72c0 11.04-8.954 20-20 20h-43.37c-11.05 0-20-8.955-20-20v-43.37c0-11.04 8.954-20 20-20h43.37c11.05 0 20 8.955 20 20v43.37m0-179.72c0 11.05-8.954 20-20 20h-43.37c-11.05 0-20-8.953-20-20v-43.37c0-11.05 8.954-20 20-20h43.37c11.05 0 20 8.954 20 20v43.37m0-179.72c0 11.05-8.954 20-20 20h-43.37c-11.05 0-20-8.954-20-20v-43.37c0-11.04 8.954-20 20-20h43.37c11.05 0 20 8.955 20 20v43.37m475.72 608.05c0 11.05-8.954 20-20 20h-347.67c-11.05 0-20-8.953-20-20v-160.72c0-11.05 8.954-20 20-20h347.67c11.05 0 20 8.954 20 20v160.72m0-283.91c0 11.05-8.954 20-20 20h-347.67c-11.05 0-20-8.954-20-20v-160.72c0-11.05 8.954-20 20-20h347.67c11.05 0 20 8.955 20 20v160.72m0-283.91c0 11.05-8.954 20-20 20h-347.67c-11.05 0-20-8.954-20-20v-160.72c0-11.05 8.954-20 20-20h347.67c11.05 0 20 8.955 20 20v160.72m169.85 498.92c0 11.05-8.954 20-20 20h-43.37c-11.05 0-20-8.954-20-20v-43.37c0-11.04 8.954-20 20-20h43.37c11.05 0 20 8.955 20 20v43.37m0-179.72c0 11.04-8.954 20-20 20h-43.37c-11.05 0-20-8.955-20-20v-43.37c0-11.04 8.954-20 20-20h43.37c11.05 0 20 8.955 20 20v43.37m0-179.72c0 11.05-8.954 20-20 20h-43.37c-11.05 0-20-8.953-20-20v-43.37c0-11.05 8.954-20 20-20h43.37c11.05 0 20 8.954 20 20v43.37m0-179.72c0 11.05-8.954 20-20 20h-43.37c-11.05 0-20-8.954-20-20v-43.37c0-11.04 8.954-20 20-20h43.37c11.05 0 20 8.955 20 20v43.37" transform="matrix(.01702 0 0 .01702 3.01 3.01)" stroke="none" fill="#4d4d4d" stroke-opacity=".8"/></svg>