<svg xmlns="http://www.w3.org/2000/svg" viewBox="0 0 22 22"><path d="m11 3c-4.418 0-8 3.582-8 8 0 4.418 3.582 8 8 8 4.418 0 8-3.582 8-8 0-4.418-3.582-8-8-8m0 1c1.66 0 3.266.591 4.531 1.666v.002c.012.019.018.031.031.051l-4.563 4.563-4.563-4.563c.008-.013.011-.02.02-.033 1.265-1.085 2.876-1.682 4.543-1.686m4.867 1.98c.15.146.293.298.43.457-.136-.159-.28-.311-.43-.457m-10.148.457l4.563 4.563-4.563 4.563c-.102-.122-.167-.187-.262-.297.142.185.293.363.453.533.153.163.314.318.482.465-.168-.147-.329-.302-.482-.465-.16-.17-.311-.348-.453-.533-.943-1.222-1.455-2.722-1.457-4.266.0001-1.66.591-3.265 1.666-4.529.021-.014.031-.019.053-.033m10.563 0c.009.004.014.004.023.008 1.091 1.267 1.692 2.883 1.695 4.555 0 1.666-.595 3.278-1.678 4.545-.015.008-.025.009-.041.018l-4.562-4.563m-.719.719l4.563 4.563c-.005.001-.007.015-.012.025.163-.139.319-.286.469-.439-.149.154-.306.3-.469.439-1.266 1.089-2.88 1.69-4.551 1.693-1.673-.002-3.29-.602-4.559-1.693-.002-.001-.002-.015-.004-.025z" mix-blend-mode="normal" solid-color="#000000" color-interpolation-filters="linearRGB" color="#4d4d4d" image-rendering="auto" color-rendering="auto" isolation="auto" color-interpolation="sRGB" solid-opacity="1" shape-rendering="auto"/></svg>