<svg xmlns="http://www.w3.org/2000/svg" viewBox="0 0 22 22"><path d="m.791 3c-.211 0-.381.169-.381.381v15.572l21.18.045v-13.363c0-.211-.171-.383-.383-.383h-11.48c-.389.034-.439-.017-.631-.273-.273-.365-.685-1.347-.953-1.703-.215-.312-.25-.275-.607-.275h-6.744m10.209 5.215c.526 0 1.038.101 1.535.301.497.2.94.482 1.326.846l.703-.697c.069-.068.148-.102.242-.102.094 0 .176.033.244.102.069.068.102.15.102.244v2.422c0 .094-.033.176-.102.244-.068.068-.15.102-.244.102h-2.422c-.094 0-.176-.033-.244-.102-.068-.068-.102-.15-.102-.244 0-.094.033-.174.102-.242l.746-.748c-.534-.494-1.162-.74-1.887-.74-.483 0-.933.117-1.352.352-.418.234-.754.558-1.01.969-.04.061-.136.272-.287.633-.029.083-.083.123-.162.123h-1.076c-.047 0-.087-.017-.121-.051-.034-.034-.051-.074-.051-.121v-.039c.234-.966.72-1.749 1.459-2.35.739-.6 1.604-.9 2.596-.9m-3.807 4.846h2.422c.094 0 .176.035.244.104.068.068.102.148.102.242 0 .094-.033.176-.102.244l-.74.74c.256.238.545.423.869.553.324.13.662.193 1.012.193.483 0 .933-.117 1.352-.352.418-.234.753-.556 1.01-.967.04-.061.136-.272.287-.633.029-.083.083-.125.162-.125h1.037c.047 0 .089.017.123.051.034.034.051.076.051.123 0 .018-.002.03-.006.037-.231.966-.714 1.749-1.449 2.35-.735.6-1.596.9-2.584.9-.526 0-1.035-.099-1.527-.297-.492-.198-.931-.482-1.316-.85l-.699.697c-.068.068-.148.104-.242.104-.094 0-.176-.035-.244-.104-.068-.068-.102-.149-.102-.242v-2.424c0-.094.033-.174.102-.242.068-.069.15-.104.244-.104" transform="translate(0-.002)" fill="#4d4d4d" color="#000"/></svg>