<svg xmlns="http://www.w3.org/2000/svg" viewBox="0 0 22 22"><g transform="translate(-553.72-583.12)"><g font-family="Sans" fill="#4d4d4d" word-spacing="0" line-height="125%" letter-spacing="0" font-size="9"><text x="540.11" y="606.74"><tspan y="606.74" x="540.11"/></text><text x="540.85" y="600.87"><tspan y="600.87" x="540.85"/></text><text x="534.11" y="607.74"><tspan y="607.74" x="534.11"/></text></g><path d="m566.72 589.12l3-4 3 4z" fill="#1d99f3"/><g fill="#4d4d4d"><g font-family="Sans" word-spacing="0" line-height="125%" letter-spacing="0"><g font-size="12.462"><text x="561.67" y="608.07"><tspan y="608.07" x="561.67"/></text><text x="562.69" y="599.96"><tspan y="599.96" x="562.69"/></text><text x="553.36" y="609.46"><tspan y="609.46" x="553.36"/></text></g><g font-size="9"><text x="524.99" y="602.54"><tspan y="602.54" x="524.99"/></text><text x="525.72" y="596.67"><tspan y="596.67" x="525.72"/></text><text x="518.99" y="603.54"><tspan y="603.54" x="518.99"/></text></g><g font-size="12.462"><text x="546.55" y="603.87"><tspan y="603.87" x="546.55"/></text><text x="547.57" y="595.75"><tspan y="595.75" x="547.57"/></text><text x="538.24" y="605.26"><tspan y="605.26" x="538.24"/></text></g></g><path transform="translate(552.72 582.12)" d="m13 8v12h1 5a3.5 3.5 0 0 0 3.5 -3.5 3.5 3.5 0 0 0 -2.433594 -3.330078 3 3 0 0 0 .933594 -2.169922 3 3 0 0 0 -3 -3h-4-1m1 1h4a2 2 0 0 1 2 2 2 2 0 0 1 -2 2h-4v-4m0 5h5a2.5 2.5 0 0 1 2.5 2.5 2.5 2.5 0 0 1 -2.5 2.5h-5v-5"/><path d="m558.55 590.12l-4.174 12h1.01l1.496-4h5.207l1.49 4h1.145l-4.23-12h-1.941m.939 1.029l2.225 5.971h-4.459l2.234-5.971" shape-rendering="auto" mix-blend-mode="normal" color-interpolation-filters="linearRGB" isolation="auto" white-space="normal" solid-opacity="1" image-rendering="auto" solid-color="#000000" color="#000" fill-rule="evenodd" color-rendering="auto" color-interpolation="sRGB"/></g></g></svg>