<svg xmlns="http://www.w3.org/2000/svg" viewBox="0 0 22 22"><g transform="translate(-326-534.36)" fill-rule="evenodd"><path d="m332.75 537.36c-2.42 0-3.974 3.059-4.203 7h.992c.188-3.388 1.323-6 3.211-6 1.887 0 3.433 2.612 3.695 6h.996c-.295-3.941-2.272-7-4.691-7m3.791 9c.299 3.998 2.317 6.997 4.709 7 2.392 0 3.951-3 4.25-7h-1c-.266 3.441-1.388 5.996-3.25 6-1.862 0-3.441-2.559-3.707-6h-1" mix-blend-mode="normal" solid-color="#000000" color-interpolation-filters="linearRGB" color="#4d4d4d" image-rendering="auto" color-rendering="auto" isolation="auto" color-interpolation="sRGB" solid-opacity="1" shape-rendering="auto"/><g fill="#1d99f3"><path d="m327 543.36v4h4v-4zm1 1h2v2h-2z"/><path d="m335 543.36v4h4v-4zm1 1h2v2h-2z"/><path d="m343 543.36v4h4v-4zm1 1h2v2h-2z"/></g></g></svg>