<svg xmlns="http://www.w3.org/2000/svg" viewBox="0 0 22 22"><g transform="translate(-326-534.36)"><path transform="matrix(0 1-1 0 0 0)" color="#eff0f1" d="m536.36-346h17v1h-17z"/><g fill="#b3b3b3" color="#000"><path d="m330 537.36h7v7h-7z"/><path d="m338 537.36h7v7h-7z"/><path d="m338 545.36h7v7h-7z"/><path d="m330 545.36h7v7h-7z"/></g><g color="#eff0f1"><path d="m329 552.36h17v1h-17z"/><path transform="matrix(0 1-1 0 0 0)" d="m536.36-338h17v1h-17z"/><path d="m329 544.36h17v1h-17z"/><path d="m329 536.36h1v17h-1z"/></g><path transform="scale(-1 1)" color="#4d4d4d" d="m-346 536.36h17v1h-17z"/></g></svg>