<svg xmlns="http://www.w3.org/2000/svg" viewBox="0 0 24 24"><g transform="translate(-378.19-536.41)" fill="#4d4d4d"><path d="m396.19 542.95v4.367l2.183-2.183zm0 6.55v4.367l2.183-2.183z" stroke="#4d4d4d" stroke-linejoin="round" stroke-linecap="round" stroke-width=".6"/><g transform="matrix(1.29273 0 0 1.29273 378.13-796.74)"><g stroke="#4d4d4d" stroke-linejoin="round" stroke-linecap="round"><rect y="1043.89" x="2.919" height=".845" width="9.933" stroke-width=".315" rx=".423"/><rect y="1041.39" x="10.364" height=".987" width="2.558" stroke-width=".173" rx=".494"/><rect y="1038.72" x="9.665" height=".967" width="3.248" stroke-width=".193" rx=".484"/><rect y="1036.22" x="8.55" height=".962" width="4.348" stroke-width=".223" rx=".481"/></g><path d="m-3.519 1042.48l.166-.34h1.427l.17.34c.139.302.607.062.449-.24l-1.091-2.17c-.097-.213-.375-.205-.48 0l-1.11 2.17c-.077.162 0 .302.124.371.139.027.282 0 .344-.131m.406-.851l.476-.955.437.955h-.913" transform="matrix(2.14393 0 0 2.14393 11.551-1193.39)"/></g></g></svg>