<svg xmlns="http://www.w3.org/2000/svg" viewBox="0 0 24 24"><g transform="matrix(1 0 0-1-326 555.4)"><g transform="translate(327-497)"><path d="m9 5v-1h-6v1h6 4 6v-1h-6v1zm1-1h2v1-1zm-7 14v-1h3v1h9v-1h-9v1zm13 0v-1h-3v1h3v-1h3v1zm-12-1h1v1h-1zm13 0h1v1h-1z" transform="translate(0 1030.36)" fill="#4d4d4d"/><path d="m9 1042.86l2-3 2 3z" fill="#1d99f3" fill-rule="evenodd"/></g><g transform="translate(0-13.1)" fill="#4d4d4d"><circle r="1.5" cy="550.88" cx="331.25"/><circle r="1.5" cy="550.88" cx="344.65"/></g><g transform="translate(0-.1)" fill="#4d4d4d"><circle r="1.5" cy="550.88" cx="331.25"/><circle r="1.5" cy="550.88" cx="344.65"/></g></g></svg>