<svg xmlns="http://www.w3.org/2000/svg" viewBox="0 0 24 24"><defs><clipPath><path fill="#f2f2f2" d="m7 1023.36h1v1h-1z"/></clipPath><clipPath><path d="m69.63 12.145h-.052c-22.727-.292-46.47 4.077-46.709 4.122-2.424.451-4.946 2.974-5.397 5.397-.044.237-4.414 23.983-4.122 46.71-.292 22.777 4.078 46.523 4.122 46.761.451 2.423 2.974 4.945 5.398 5.398.237.044 23.982 4.413 46.709 4.121 22.779.292 46.524-4.077 46.761-4.121 2.423-.452 4.946-2.976 5.398-5.399.044-.236 4.413-23.981 4.121-46.709.292-22.777-4.077-46.523-4.121-46.761-.453-2.423-2.976-4.946-5.398-5.397-.238-.045-23.984-4.414-46.71-4.122"/></clipPath></defs><g transform="translate(-326-532.36)" fill="#4d4d4d"><g transform="matrix(.04923 0 0 .04923 330 536.36)"><path d="m319 55.26c3.314 0 6-2.687 6-6v-43.26c0-3.313-2.686-6-6-6h-43.26c-3.313 0-6 2.687-6 6v13.63h-79.61-55.26-79.61v-13.63c0-3.313-2.687-6-6-6h-43.26c-3.313 0-6 2.687-6 6v43.26c0 3.313 2.687 6 6 6h13.63v79.61 55.26 79.61h-13.63c-3.313 0-6 2.687-6 6v43.26c0 3.314 2.687 6 6 6h43.26c3.313 0 6-2.686 6-6v-13.63h79.61 55.26 79.61v13.63c0 3.314 2.687 6 6 6h43.26c3.314 0 6-2.686 6-6v-43.26c0-3.313-2.686-6-6-6h-13.63v-79.61-55.26-79.61zm-29.63 79.61v55.26 79.61h-13.63c-3.313 0-6 2.687-6 6v13.63h-79.61-55.26-79.61v-13.63c0-3.313-2.687-6-6-6h-13.63v-79.61-55.26-79.61h13.63c3.313 0 6-2.687 6-6v-13.63h79.61 55.26 79.61v13.63c0 3.313 2.687 6 6 6h13.63z"/><circle r="13.283" cy="162.5" cx="162.5"/></g><path d="m351.27 312.97h-29.983c-.022 14.366 0 52.16 0 52.16 0 0-32.529 0-48.621.043v29.962c16.09-.022 48.621-.022 48.621-.022 0 0 0 37.749-.022 52.18h29.983c.022-14.431.022-52.18.022-52.18 0 0 32.507 0 48.599 0v-29.983c-16.09 0-48.599 0-48.599 0 0 0-.043-37.791 0-52.16" transform="matrix(.02758 0 0 .02758 331.98 537.73)"/></g></svg>