<svg xmlns="http://www.w3.org/2000/svg" viewBox="0 0 22 22"><g transform="translate(-1-1030.36)" color="#000"><path d="m14.379 1046.07l1.414 1.414-1.414 1.414.707.707 1.414-1.414 1.414 1.414.707-.707-1.414-1.414 1.414-1.414-.707-.707-1.414 1.414-1.414-1.414-.707.707" fill="#da4453" fill-rule="evenodd"/><g transform="translate(-1 1029.36)"><path d="m4 14v1h1v-1h-1" fill="#4d4d4d"/><path d="m17.5 4c-1.933 0-3.5 1.791-3.5 4v1 2c0 2.209 1.567 4 3.5 4 1.933 0 3.5-1.791 3.5-4v-2-1c0-2.209-1.567-4-3.5-4m0 1c1.381 0 2.5 1.343 2.5 3v3c0 1.657-1.119 3-2.5 3-1.381 0-2.5-1.343-2.5-3v-3c0-1.657 1.119-3 2.5-3z" fill="#b3b3b3"/><path d="m9.5 4c-1.933 0-3.5 1.791-3.5 4v1 2c0 2.209 1.567 4 3.5 4 1.933 0 3.5-1.791 3.5-4v-2-1c0-2.209-1.567-4-3.5-4m0 1c1.381 0 2.5 1.343 2.5 3v3c0 1.657-1.119 3-2.5 3-1.381 0-2.5-1.343-2.5-3v-3c0-1.657 1.119-3 2.5-3" fill="#4d4d4d"/></g></g></svg>