<svg xmlns="http://www.w3.org/2000/svg" viewBox="0 0 22 22"><g transform="translate(-421.71-525.79)"><g fill="#4d4d4d"><g font-family="Sans" word-spacing="0" line-height="125%" letter-spacing="0"><g font-size="9"><text y="551.41" x="408.1"><tspan x="408.1" y="551.41"/></text><text y="545.54" x="408.84"><tspan x="408.84" y="545.54"/></text><text y="552.41" x="402.1"><tspan x="402.1" y="552.41"/></text></g><g font-size="12.462"><text y="552.75" x="429.66"><tspan x="429.66" y="552.75"/></text><text y="544.63" x="430.68"><tspan x="430.68" y="544.63"/></text><text y="554.13" x="421.35"><tspan x="421.35" y="554.13"/></text></g><g font-size="9"><text y="547.21" x="392.98"><tspan x="392.98" y="547.21"/></text><text y="541.34" x="393.72"><tspan x="393.72" y="541.34"/></text><text y="548.21" x="386.98"><tspan x="386.98" y="548.21"/></text></g><g font-size="12.462"><text y="548.54" x="414.54"><tspan x="414.54" y="548.54"/></text><text y="540.43" x="415.56"><tspan x="415.56" y="540.43"/></text><text y="549.93" x="406.23"><tspan x="406.23" y="549.93"/></text></g><g font-size="9"><text y="551.41" x="408.1"><tspan x="408.1" y="551.41"/></text><text y="545.54" x="408.84"><tspan x="408.84" y="545.54"/></text><text y="552.41" x="402.1"><tspan x="402.1" y="552.41"/></text></g><g font-size="12.462"><text y="552.75" x="429.66"><tspan x="429.66" y="552.75"/></text><text y="544.63" x="430.68"><tspan x="430.68" y="544.63"/></text><text y="554.13" x="421.35"><tspan x="421.35" y="554.13"/></text></g></g><path d="m426.75 532.79l-4.03 12h.974l1.446-4h5.03l1.44 4h1.106l-4.089-12h-1.877m.908 1.029l2.15 5.971h-4.31l2.16-5.971" shape-rendering="auto" mix-blend-mode="normal" color-interpolation-filters="linearRGB" isolation="auto" white-space="normal" solid-opacity="1" image-rendering="auto" solid-color="#000000" color="#000" fill-rule="evenodd" color-rendering="auto" color-interpolation="sRGB"/><path d="m433.71 532.79h1v12h-1z"/><path d="m437.71429 536.79074a4 4 0 0 0 -4 4 4 4 0 0 0 4 4 4 4 0 0 0 4 -4 4 4 0 0 0 -4 -4m0 1a3 3 0 0 1 3 3 3 3 0 0 1 -3 3 3 3 0 0 1 -3 -3 3 3 0 0 1 3 -3"/></g><path d="m424.71 531.79l3-4 3 4z" fill="#1d99f3"/></g></svg>