<svg xmlns="http://www.w3.org/2000/svg" viewBox="0 0 22 22"><g transform="matrix(-.16854 0 0-.16854 14.876 12.391)" fill="#4d4d4d"><path d="m35.765 8.264c-5.898 0-10.555 4.782-10.555 10.68 0 5.898 4.844 10.68 10.742 10.68.059 0 .148-.008.207-.009-2.332 1.857-5.261 2.976-8.467 2.976-1.475 0-2.662 1.196-2.662 2.67 0 1.474.949 2.67 2.424 2.67 10.469-.0001 18.741-8.518 18.741-18.987 0-.002 0-.004 0-.007 0-5.895-4.534-10.673-10.43-10.673"/><path d="m10.75 8.264c-5.898 0-10.563 4.782-10.563 10.68 0 5.898 4.84 10.68 10.739 10.68.059 0 .146-.008.205-.009-2.332 1.857-5.262 2.976-8.468 2.976-1.475 0-2.663 1.196-2.663 2.67 0 1.474.964 2.67 2.439 2.67 10.469-.0001 18.756-8.518 18.756-18.987 0-.002 0-.004 0-.007 0-5.895-4.549-10.673-10.445-10.673"/></g></svg>