<svg xmlns="http://www.w3.org/2000/svg" viewBox="0 0 24 24"><defs><clipPath><path fill="#00f" fill-opacity=".514" d="m-7 1024.36h34v34h-34z"/></clipPath></defs><g transform="translate(-307.1-532.36)" fill="#4d4d4d"><path transform="translate(326 532.36)" d="m-7.05 4c-2.611.031-5.185 1.302-5.494 3.906-.241 2.212.785 3.364 2.197 4.094h7.334c-2.645-1.659-7.214-1.38-6.803-3.879.451-2.234 4.059-1.762 5.648-.752 1.289.945 2.836-.924 1.375-2.105-1.112-.854-2.691-1.282-4.258-1.264m2.658 10.4c.216.244.366.523.396.873-.322 3.05-4.854 2.148-6.615.945-.73-.601-1.354-.408-1.912.15-.387.58-.408 1.526.301 2.105 2.964 2.449 10.869 2.319 11.02-3.137.009-.339-.018-.65-.072-.938h-3.117z"/><rect y="544.76" x="311" height="1.5" width="16.2" rx=".75"/></g></svg>