<svg xmlns="http://www.w3.org/2000/svg" viewBox="0 0 22 22"><path transform="translate(-1-1)" d="m17.48 3.611l-12 16 .57.428.355.273.004-.004.109.082 12-16-.469-.352-.457-.352-.004.006-.109-.082m-9.98 1.389c-1.933 0-3.5 1.567-3.5 3.5 0 1.933 1.567 3.5 3.5 3.5 1.933 0 3.5-1.567 3.5-3.5 0-1.933-1.567-3.5-3.5-3.5m0 1c1.381 0 2.5 1.119 2.5 2.5 0 1.381-1.119 2.5-2.5 2.5-1.381 0-2.5-1.119-2.5-2.5 0-1.381 1.119-2.5 2.5-2.5m9 7c-1.933 0-3.5 1.567-3.5 3.5 0 1.933 1.567 3.5 3.5 3.5 1.933 0 3.5-1.567 3.5-3.5 0-1.933-1.567-3.5-3.5-3.5m0 1c1.381 0 2.5 1.119 2.5 2.5 0 1.381-1.119 2.5-2.5 2.5-1.381 0-2.5-1.119-2.5-2.5 0-1.381 1.119-2.5 2.5-2.5" fill="#4d4d4d" color="#000"/></svg>