<svg xmlns="http://www.w3.org/2000/svg" viewBox="0 0 24 24"><defs><clipPath><path fill="#00f" fill-opacity=".514" d="m-7 1024.36h34v34h-34z"/></clipPath><clipPath><path fill="#aade87" fill-opacity=".472" d="m-6 1028.36h32v32h-32z"/></clipPath><clipPath><path fill="#00f" fill-opacity=".514" d="m-7 1024.36h34v34h-34z"/></clipPath></defs><g fill="#4d4d4d"><path d="m320.7 541.04c0 1.045-1.705.985-1.705 0v-1.81c0-.47-.655-.45-.655 0v1.81c0 1.87 3.01 1.87 3.01 0v-1.81c0-.48-.655-.445-.655 0v1.81" transform="matrix(3.70533 0 0 3.70533-1173.16-1992.75)"/><rect y="548.36" x="347.55" height="1.5" width="16.2" rx=".75" stroke-width="1" transform="matrix(.94208 0 0 .94208-323.05-498.01)"/></g></svg>