<svg xmlns="http://www.w3.org/2000/svg" viewBox="0 0 22 22"><g transform="translate(-421.71-525.79)"><g font-family="Sans" fill="#4d4d4d" word-spacing="0" line-height="125%" letter-spacing="0" font-size="9"><text y="549.41" x="408.1"><tspan x="408.1" y="549.41"/></text><text y="543.54" x="408.84"><tspan x="408.84" y="543.54"/></text><text y="550.41" x="402.1"><tspan x="402.1" y="550.41"/></text></g><path d="m434.71 528.79l3 4 3-4z" fill="#1d99f3"/><g fill="#4d4d4d"><g font-family="Sans" word-spacing="0" line-height="125%" letter-spacing="0" font-size="12.462"><text y="550.75" x="429.66"><tspan x="429.66" y="550.75"/></text><text y="542.63" x="430.68"><tspan x="430.68" y="542.63"/></text><text y="552.13" x="421.35"><tspan x="421.35" y="552.13"/></text></g><path d="m433.71 532.79h1v12h-1z"/><path d="m430.71 536.79h1v8h-1z"/><path d="m437.71429 536.79074a4 4 0 0 0 -4 4 4 4 0 0 0 4 4 4 4 0 0 0 4 -4 4 4 0 0 0 -4 -4m0 1a3 3 0 0 1 3 3 3 3 0 0 1 -3 3 3 3 0 0 1 -3 -3 3 3 0 0 1 3 -3"/><path d="m427.71429 536.79074a4 4 0 0 0 -4 4 4 4 0 0 0 4 4 4 4 0 0 0 4 -4 4 4 0 0 0 -4 -4m0 1a3 3 0 0 1 3 3 3 3 0 0 1 -3 3 3 3 0 0 1 -3 -3 3 3 0 0 1 3 -3"/></g></g></svg>