<svg xmlns="http://www.w3.org/2000/svg" viewBox="0 0 22 22"><defs><clipPath><path fill="#00f" fill-opacity=".514" d="m-7 1024.36h34v34h-34z"/></clipPath><clipPath><path fill="#aade87" fill-opacity=".472" d="m-6 1028.36h32v32h-32z"/></clipPath></defs><g fill="#4d4d4d"><path d="m313.17 546.36l3.712-9.845h1.43l2.671 7.177h-1.31-4.139l-.962 2.668zm2.791-3.85h3.272l-1.609-4.441h-.055z" transform="matrix(1.52018 0 0 1.52018-472.97-812.6)"/><path d="m345.44 248.29l-194.29 194.28c-12.359 12.365-32.397 12.365-44.75 0-12.354-12.354-12.354-32.391 0-44.744l171.91-171.91-171.91-171.9c-12.354-12.359-12.354-32.394 0-44.748 12.354-12.359 32.391-12.359 44.75 0l194.29 194.28c6.177 6.18 9.262 14.271 9.262 22.366 0 8.099-3.091 16.196-9.267 22.373" transform="matrix(.00006.01606-.01606.00006 18.908 13.294)"/></g></svg>