<svg xmlns="http://www.w3.org/2000/svg" viewBox="0 0 22 22"><path d="m17.18 1041.91c-.529-.937-1.366-1.78-2.398-2.427v-1.704c0-1.014-.725-1.923-2.042-2.558-1.144-.552-2.649-.855-4.237-.855-1.588 0-3.093.304-4.237.855-1.317.635-2.043 1.544-2.043 2.558v9.173c0 .295.062.581.181.854.149.36.383.676.677.921.314.291.711.555 1.184.783 1.144.552 2.649.855 4.237.855 1.588 0 3.093-.304 4.237-.855.473-.228.869-.492 1.184-.783.295-.246.529-.562.678-.922.073-.166.123-.336.153-.511 1.254-.233 2.204-.883 2.69-1.852.525-1.046.431-2.3-.264-3.532m-13.468-4.131c0-.399.449-.854 1.2-1.217.933-.45 2.242-.708 3.591-.708 1.349 0 2.658.258 3.591.708.752.362 1.2.817 1.2 1.217 0 .399-.449.854-1.2 1.216-.933.45-2.242.708-3.591.708-1.349 0-2.658-.258-3.591-.708-.751-.362-1.2-.817-1.2-1.216m12.425 7.01c-.658 1.312-3.01 1.521-5.129.457-.457-.23-.881-.506-1.257-.816-.151.115-.338.183-.542.183-.495 0-.897-.401-.897-.897 0-.495.401-.897.897-.897.495 0 .897.402.897.897 0 .05-.005.099-.013.146.322.244.673.464 1.048.651 1.269.637 2.619.817 3.64.579v-3.793c1.255 1.083 1.857 2.488 1.355 3.489" fill="#4d4d4d" transform="translate(1-1031.36)"/></svg>