<svg xmlns="http://www.w3.org/2000/svg" viewBox="0 0 22 22"><g transform="translate(0-1030.36)" color="#000"><path transform="translate(-1 1029.36)" d="m4 14v1h1v-1h-1" fill="#4d4d4d"/><path d="m15 1045.36v2h-2v1h2v2h1v-2h2v-1h-2v-2h-1" fill="#1d99f3" fill-rule="evenodd"/><g fill="#4d4d4d"><path d="m15.5 1033.36c-1.933 0-3.5 1.791-3.5 4v1 2c0 2.209 1.567 4 3.5 4 1.933 0 3.5-1.791 3.5-4v-2-1c0-2.209-1.567-4-3.5-4m0 1c1.381 0 2.5 1.343 2.5 3v3c0 1.657-1.119 3-2.5 3-1.381 0-2.5-1.343-2.5-3v-3c0-1.657 1.119-3 2.5-3"/><path d="m7.5 1033.36c-1.933 0-3.5 1.791-3.5 4v1 2c0 2.209 1.567 4 3.5 4 1.933 0 3.5-1.791 3.5-4v-2-1c0-2.209-1.567-4-3.5-4m0 1c1.381 0 2.5 1.343 2.5 3v3c0 1.657-1.119 3-2.5 3-1.381 0-2.5-1.343-2.5-3v-3c0-1.657 1.119-3 2.5-3"/></g></g></svg>