<svg xmlns="http://www.w3.org/2000/svg" viewBox="0 0 24 24"><g transform="matrix(1.29273 0 0 1.29273-16.747-1335.75)" fill="#4d4d4d"><g transform="matrix(0 1 1 0-1018.3 1033.27)" stroke="#4d4d4d" stroke-linejoin="round" stroke-linecap="round"><path d="m396.19 542.95v4.367l2.183-2.183zm0 6.55v4.367l2.183-2.183z" transform="matrix(.77356 0 0 .77356-292.51 616.32)" stroke-width=".6"/><rect width="9.933" height=".845" x="2.842" y="1043.89" stroke-width=".315" rx=".423"/><g stroke-width=".193"><rect width="3.248" height=".967" x="9.588" y="1038.8" rx=".484"/><rect width="3.248" height=".967" x="9.588" y="1041.04" rx=".484"/><rect width="3.248" height=".967" x="9.588" y="1036.46" rx=".484"/></g></g><path d="m-3.519 1042.48l.166-.34h1.427l.17.34c.139.302.607.062.449-.24l-1.091-2.17c-.097-.213-.375-.205-.48 0l-1.11 2.17c-.077.162 0 .302.124.371.139.027.282 0 .344-.131m.406-.851l.476-.955.437.955h-.913" transform="matrix(2.14393 0 0 2.14393 26.765-1193.4)"/></g></svg>