<svg xmlns="http://www.w3.org/2000/svg" viewBox="0 0 22 22"><g transform="translate(-1-1030.36)" fill="#4d4d4d"><path d="m6.624 1045.89c1.61.687 3.086.859 4.926.876 1.501.013 3.691-.144 3.746-2.133.031-1.409-1.92-1.994-3.774-2.522-3.324-.841-5.506-1.352-5.501-3.991 0-1.272.505-2.216 1.516-2.831 1.01-.621 2.408-.932 4.192-.932.934 0 1.809.088 2.624.262.815.175 2.097.646 2.647.941l-.775 1.543c-2.086-1.041-3.894-1.095-4.788-1.1-1.881 0-3.842.514-3.761 1.919-.047 1.579 2.305 2.259 3.902 2.652 3.917 1.3 5.299 1.841 5.381 3.976.026 3.123-3.112 3.787-5.465 3.806-1.241 0-2.235-.108-3.204-.326-.962-.223-1.725-.485-2.289-.787"/><g fill-rule="evenodd" color="#000"><path d="m10 1032.36h1v18h-1z"/><path d="m12 1032.36h1v18h-1z"/></g></g></svg>