<svg xmlns="http://www.w3.org/2000/svg" viewBox="0 0 22 22"><defs><clipPath><path fill="#00f" fill-opacity=".514" d="m-7 1024.36h34v34h-34z"/></clipPath><clipPath><path fill="#aade87" fill-opacity=".472" d="m-6 1028.36h32v32h-32z"/></clipPath></defs><path d="m26.892 1024.26c-1.969-1.539-.579-7.872-.579-7.872 0 0 2.155 0 2.406 0 .251 0 1.236-.158 1.236-1.337 0-1.45-1.203-1.361-1.203-1.361 0 0-6.595 0-8.86 0-1.454 0-2.767 1.665-3.52 2.856-.401.636-.174.814.515.515 2.415-1.057 3.095-.677 3.095-.677.17.814.227 4.489-.393 5.939-.628 1.365-1.787 3.095-.085 4.112 1.329.754 2.722-.794 2.585-3.428-.065-1.394-.174-6.62-.174-6.62h2.22c-.069.814-.446 4.971-.053 7.434.409 4.112 4.878 3.314 5.712.985.207-.644.158-1.139.004-1.511-.284-.693-.758-.729-.705-.405.033.207.012.409-.02.592-.097.563-1.248 1.446-2.18.778" stroke="none" transform="matrix(1.22684 0 0 1.22684-17.32-1240.63)" fill="#4d4d4d"/></svg>