<svg xmlns="http://www.w3.org/2000/svg" viewBox="0 0 22 22"><defs><clipPath><path fill="#00f" fill-opacity=".514" d="m-7 1024.36h34v34h-34z"/></clipPath><clipPath><path fill="#aade87" fill-opacity=".472" d="m-6 1028.36h32v32h-32z"/></clipPath></defs><path d="m3.5 3c-.277 0-.5.223-.5.5v15c0 .277.223.5.5.5h15c.277 0 .5-.223.5-.5v-15c0-.277-.223-.5-.5-.5h-15m2.768 3h9.439c.145 0 .262.117.262.262v1.346c0 .145-.117.26-.262.26h-9.439c-.145 0-.262-.115-.262-.26v-1.346c0-.145.117-.262.262-.262m.001 2.77h9.441c.145 0 .26.117.26.262v1.346c0 .145-.115.262-.26.262h-9.441c-.145 0-.262-.117-.262-.262v-1.346c0-.145.117-.262.262-.262m.016 2.633h9.439c.145 0 .262.115.262.26v1.346c0 .145-.117.262-.262.262h-9.439c-.145 0-.262-.117-.262-.262v-1.346c0-.145.117-.26.262-.26m-.021 2.73h9.441c.145 0 .262.115.262.26v1.346c0 .145-.117.262-.262.262h-9.441c-.145 0-.26-.117-.26-.262v-1.346c0-.145.115-.26.26-.26" transform="translate(0-.002)" fill="#4d4d4d" fill-rule="evenodd"/></svg>