<svg xmlns="http://www.w3.org/2000/svg" viewBox="0 0 22 22"><path d="m11 3c-4.432 0-8 3.568-8 8 0 4.432 3.568 8 8 8 4.432 0 8-3.568 8-8 0-4.432-3.568-8-8-8m3.457 4.4c.18 0 .331.062.457.188l.916.916c.126.126.19.279.189.459 0 .18-.064.331-.189.457l-4.875 4.875-.916.916c-.126.126-.279.189-.459.189-.18 0-.331-.064-.457-.189l-.916-.916-2.437-2.438c-.126-.126-.189-.278-.189-.457 0-.18.064-.333.189-.459l.916-.916c.126-.126.277-.188.457-.188.18 0 .333.062.459.188l1.979 1.988 4.418-4.426c.126-.126.279-.188.459-.188" transform="translate(0-.002)" fill="#4d4d4d"/></svg>