<svg xmlns="http://www.w3.org/2000/svg" viewBox="0 0 22 22"><defs><clipPath><path fill="#00f" fill-opacity=".514" d="m-7 1024.36h34v34h-34z"/></clipPath><clipPath><path fill="#aade87" fill-opacity=".472" d="m-6 1028.36h32v32h-32z"/></clipPath></defs><path d="m286.78 183.35c22.268-15.557 40.41-35.458 51.08-56.04 12.368-23.859 13.582-46.727 3.415-64.39-8.314-14.445-21.493-23.606-37.11-25.797-7.682-1.077-15.715-.473-23.682 1.639v-26.737c0-6.64-5.384-12.02-12.02-12.02h-151.5c-6.64 0-12.02 5.383-12.02 12.02v26.735c-7.965-2.111-15.998-2.715-23.681-1.637-15.617 2.19-28.796 11.352-37.11 25.797-10.167 17.664-8.954 40.531 3.415 64.39 10.669 20.581 28.809 40.483 51.08 56.04 4.743 3.314 5.281 6.87 4.896 9.271-.436 2.72-2.175 4.917-4.43 5.595-3.389 1.02-9.865-.984-17.848-9.675-5.754-6.264-15.498-6.677-21.763-.922-6.264 5.755-6.677 15.5-.922 21.763 14.805 16.12 28.953 19.832 38.85 19.832 4.518 0 8.15-.773 10.554-1.498 5.138-1.545 9.793-4.229 13.721-7.742 11.215 15.416 27.318 27.06 46.02 32.619v44.23h-37.39c-17.643 0-31.998 14.354-31.998 31.998v41.603c0 8.284 6.716 15 15 15h158.77c8.284 0 15-6.716 15-15v-41.604c0-17.644-14.354-31.998-31.997-31.998h-37.39v-44.23c18.695-5.564 34.799-17.203 46.01-32.619 3.929 3.514 8.583 6.197 13.722 7.742 2.404.723 6.04 1.498 10.554 1.498 9.897-.0001 24.05-3.718 38.85-19.832 5.755-6.266 5.342-16.01-.922-21.763-6.264-5.755-16.01-5.342-21.763.922-7.984 8.69-14.456 10.692-17.849 9.675-2.256-.678-3.995-2.875-4.431-5.595-.385-2.4.153-5.956 4.896-9.269m-211.87-70.22c-4.27-8.235-10.473-23.711-4.065-34.845 3.623-6.293 8.428-9.779 14.691-10.657 5.849-.818 12.695.661 19.402 3.945v77.75c-12.915-10.968-23.546-23.696-30.03-36.2m205.57 36.2v-77.76c6.706-3.286 13.553-4.766 19.401-3.943 6.264.878 11.07 4.364 14.689 10.657 6.409 11.134.205 26.61-4.064 34.845-6.48 12.502-17.11 25.23-30.03 36.2z" fill="#4d4d4d" transform="matrix(.04151 0 0 .04151 3 3)"/></svg>