<svg xmlns="http://www.w3.org/2000/svg" viewBox="0 0 22 22"><defs><clipPath><path fill="#00f" fill-opacity=".514" d="m-7 1024.36h34v34h-34z"/></clipPath><clipPath><path fill="#aade87" fill-opacity=".472" d="m-6 1028.36h32v32h-32z"/></clipPath></defs><g transform="matrix(.0324 0 0 .0324 3 2.998)" fill="#4d4d4d"><path d="m290.65 402.65h-87.59c-6.781 0-12.283 5.503-12.283 12.283 0 6.785 5.502 12.287 12.283 12.287h87.59c6.781 0 12.289-5.502 12.289-12.287.0001-6.78-5.506-12.283-12.289-12.283"/><path d="m224.3 474.25c1.666 11.03 11.09 19.517 22.586 19.517 11.488 0 20.93-8.487 22.589-19.517 15.04-.888 26.987-13.245 26.987-28.504h-99.21c0 15.268 11.985 27.634 27.05 28.504"/><path d="m246.88 70.87c9.06 0 16.387-7.335 16.387-16.381v-38.11c0-9.05-7.324-16.381-16.387-16.381-9.05 0-16.377 7.332-16.377 16.381v38.11c.0001 9.05 7.325 16.381 16.377 16.381"/><path d="m139.39 94.74c3.217 4.417 8.209 6.761 13.283 6.761 3.326 0 6.699-1.017 9.609-3.129 7.313-5.312 8.945-15.555 3.633-22.873l-22.396-30.84c-5.326-7.312-15.549-8.96-22.887-3.632-7.311 5.309-8.943 15.555-3.631 22.873l22.389 30.84"/><path d="m354.35 334.86c-5.313-7.312-15.549-8.934-22.881-3.621-7.306 5.317-8.937 15.562-3.61 22.879l22.409 30.841c3.196 4.407 8.188 6.753 13.265 6.753 3.338 0 6.698-1.017 9.608-3.128 7.312-5.319 8.942-15.565 3.619-22.884l-22.41-30.84"/><path d="m99.5 149.68l-36.25-11.79c-8.686-2.799-17.846 1.911-20.648 10.518-2.803 8.597 1.904 17.843 10.508 20.642l36.25 11.79c1.693.544 3.387.809 5.066.809 6.91 0 13.324-4.4 15.582-11.327 2.802-8.597-1.904-17.844-10.508-20.642"/><path d="m440.65 260.54l-36.24-11.773c-8.611-2.778-17.841 1.918-20.638 10.516-2.802 8.606 1.918 17.848 10.521 20.646l36.25 11.772c1.681.545 3.373.807 5.05.807 6.909 0 13.323-4.407 15.581-11.324 2.795-8.61-1.918-17.845-10.527-20.644"/><path d="m89.37 248.76l-36.27 11.757c-8.604 2.79-13.324 12.03-10.521 20.635 2.238 6.927 8.664 11.334 15.574 11.334 1.668 0 3.381-.267 5.061-.811l36.26-11.756c8.611-2.792 13.33-12.03 10.529-20.635-2.782-8.6-11.952-13.303-20.636-10.524"/><path d="m399.35 181.65c1.681 0 3.373-.265 5.056-.809l36.24-11.773c8.608-2.799 13.322-12.04 10.526-20.642-2.803-8.6-12.08-13.3-20.635-10.518l-36.25 11.772c-8.604 2.798-13.322 12.04-10.521 20.642 2.253 6.921 8.673 11.328 15.583 11.328"/><path d="m139.41 334.86l-22.431 30.822c-5.326 7.318-3.707 17.563 3.619 22.883 2.896 2.119 6.27 3.138 9.609 3.138 5.074 0 10.07-2.336 13.264-6.744l22.43-30.824c5.326-7.316 3.707-17.562-3.619-22.883-7.293-5.349-17.582-3.709-22.872 3.608"/><path d="m350.26 44.654l-22.396 30.84c-5.312 7.318-3.681 17.562 3.633 22.873 2.91 2.112 6.283 3.129 9.608 3.129 5.074 0 10.06-2.343 13.276-6.761l22.396-30.841c5.311-7.318 3.68-17.564-3.634-22.873-7.355-5.341-17.557-3.695-22.883 3.633"/><path d="m365.19 215.4c0-65.35-52.976-118.33-118.32-118.33-65.36 0-118.34 52.979-118.34 118.33 0 27.569 9.482 52.884 25.322 72.981 13.881 17.612 27.03 36.839 38.42 56.19v39.31h108.52v-38.26c11.288-18.818 25.881-40.484 39.06-57.21 15.854-20.1 25.335-45.41 25.335-73"/></g></svg>