<svg xmlns="http://www.w3.org/2000/svg" viewBox="0 0 22 22"><defs><clipPath><path fill="#aade87" fill-opacity=".472" d="m-6 1028.36h32v32h-32z"/></clipPath><clipPath><path fill="#f2f2f2" d="m7 1023.36h1v1h-1z"/></clipPath><clipPath><path fill="#00f" fill-opacity=".514" d="m-7 1024.36h34v34h-34z"/></clipPath><clipPath><path fill="#aade87" fill-opacity=".472" d="m-6 1028.36h32v32h-32z"/></clipPath><clipPath><path fill="#f2f2f2" d="m7 1023.36h1v1h-1z"/></clipPath><clipPath><path fill="#00f" fill-opacity=".514" d="m-7 1024.36h34v34h-34z"/></clipPath><clipPath><path fill="#00f" fill-opacity=".514" d="m-7 1024.36h34v34h-34z"/></clipPath><clipPath><path fill="#aade87" fill-opacity=".472" d="m-6 1028.36h32v32h-32z"/></clipPath><clipPath><path fill="#aade87" fill-opacity=".472" d="m-6 1028.36h32v32h-32z"/></clipPath><clipPath><path fill="#00f" fill-opacity=".514" d="m-7 1024.36h34v34h-34z"/></clipPath><clipPath><path fill="#aade87" fill-opacity=".472" d="m-6 1028.36h32v32h-32z"/></clipPath><clipPath><path fill="#aade87" fill-opacity=".472" d="m-6 1028.36h32v32h-32z"/></clipPath><clipPath><path fill="#00f" fill-opacity=".514" d="m-7 1024.36h34v34h-34z"/></clipPath><clipPath><path fill="#00f" fill-opacity=".514" d="m-7 1024.36h34v34h-34z"/></clipPath><clipPath><path fill="#00f" fill-opacity=".514" d="m-7 1024.36h34v34h-34z"/></clipPath><clipPath><path fill="#aade87" fill-opacity=".472" d="m-6 1028.36h32v32h-32z"/></clipPath><clipPath><path fill="#00f" fill-opacity=".514" d="m-7 1024.36h34v34h-34z"/></clipPath><clipPath><path fill="#aade87" fill-opacity=".472" d="m-6 1028.36h32v32h-32z"/></clipPath><clipPath><path fill="#aade87" fill-opacity=".472" d="m-6 1028.36h32v32h-32z"/></clipPath><clipPath><path fill="#00f" fill-opacity=".514" d="m-7 1024.36h34v34h-34z"/></clipPath><clipPath><path fill="#f2f2f2" d="m7 1023.36h1v1h-1z"/></clipPath><clipPath><path fill="#f2f2f2" d="m7 1023.36h1v1h-1z"/></clipPath></defs><path d="m4 3c-.554 0-1 .446-1 1v14c0 .554.446 1 1 1h14c.554 0 1-.446 1-1v-14c0-.554-.446-1-1-1h-14m3.119141 3a1.269762 1.269762 0 0 1 1.269531 1.269531 1.269762 1.269762 0 0 1 -1.269531 1.271484 1.269762 1.269762 0 0 1 -1.269531 -1.271484 1.269762 1.269762 0 0 1 1.269531 -1.269531m3.873047 0a1.269762 1.269762 0 0 1 1.269531 1.269531 1.269762 1.269762 0 0 1 -1.269531 1.271484 1.269762 1.269762 0 0 1 -1.269532 -1.271484 1.269762 1.269762 0 0 1 1.269532 -1.269531m3.888671 0a1.269762 1.269762 0 0 1 1.269532 1.269531 1.269762 1.269762 0 0 1 -1.269532 1.269531 1.269762 1.269762 0 0 1 -1.269531 -1.269531 1.269762 1.269762 0 0 1 1.269531 -1.269531m0 3.697266a1.269762 1.269762 0 0 1 1.269532 1.271484 1.269762 1.269762 0 0 1 -1.269532 1.269531 1.269762 1.269762 0 0 1 -1.269531 -1.269531 1.269762 1.269762 0 0 1 1.269531 -1.271484m-7.761718.001953a1.269762 1.269762 0 0 1 1.269531 1.269531 1.269762 1.269762 0 0 1 -1.269531 1.269531 1.269762 1.269762 0 0 1 -1.269531 -1.269531 1.269762 1.269762 0 0 1 1.269531 -1.269531m3.873047 0a1.269762 1.269762 0 0 1 1.269531 1.269531 1.269762 1.269762 0 0 1 -1.269531 1.269531 1.269762 1.269762 0 0 1 -1.269532 -1.269531 1.269762 1.269762 0 0 1 1.269532 -1.269531m-3.873047 3.761719a1.269762 1.269762 0 0 1 1.269531 1.269531 1.269762 1.269762 0 0 1 -1.269531 1.269531 1.269762 1.269762 0 0 1 -1.269531 -1.269531 1.269762 1.269762 0 0 1 1.269531 -1.269531" transform="translate(0-.002)" fill="#4d4d4d" fill-rule="evenodd"/></svg>