<svg xmlns="http://www.w3.org/2000/svg" viewBox="0 0 22 22"><g fill="#4d4d4d"><path d="m432.14 155.42c-62.34 22.953-109.84 39.3-151.63 90.98-37.23 46.05-90.98 62.01-151.63 31.657v165.46h-30.33v-409.4c-.0001-8.382 6.781-15.16 15.16-15.16 8.38 0 15.166 6.781 15.166 15.16 33.67 48.953 92.19 59.795 151.63 60.65 90.98 1.33 151.63 60.65 151.63 60.65" transform="matrix(.03456 0 0 .03456-.214 2.344)"/><path d="m257.75 113.71c-74.42 0-140.28 35.892-181.77 91.16l-75.978-75.995v242.61h242.61l-82.54-82.53c21.931-66.52 84.47-114.58 158.33-114.58 92.16 0 166.79 74.69 166.79 166.8.0001-125.63-101.82-227.45-227.43-227.45" transform="matrix(0 .0189-.0189 0 20.962 9.827)"/></g></svg>