<svg xmlns="http://www.w3.org/2000/svg" viewBox="0 0 22 22"><defs><clipPath><path fill="#00f" fill-opacity=".514" d="m-7 1024.36h34v34h-34z"/></clipPath><clipPath><path fill="#aade87" fill-opacity=".472" d="m-6 1028.36h32v32h-32z"/></clipPath></defs><path transform="translate(0-.002)" d="m2 3v16h14l4-8-4-8h-14m5.428 4v.592c-.711 0-.721.239-.721 1.105v1.018c0 .415-.124 1.033-.723 1.289.599.256.723.876.723 1.291v1.01c0 .866.001 1.105.721 1.105v.592c-1.066 0-1.514-.352-1.514-1.254v-1.223c0-.557-.02-1.201-.609-1.201h-.305v-.645h.305c.589 0 .609-.644.609-1.201v-1.223c0-.902.448-1.254 1.514-1.254m3.137 0c1.066 0 1.521.352 1.521 1.254v1.223c0 .557.04 1.201.619 1.201h.295v.645h-.295c-.579 0-.619.644-.619 1.201v1.223c0 .902-.455 1.254-1.521 1.254v-.592c.711 0 .729-.239.729-1.105v-1.01c0-.415.124-1.035.723-1.291-.599-.256-.723-.874-.723-1.289v-1.018c0-.866-.018-1.105-.729-1.105v-.592" fill="#4d4d4d"/></svg>