<svg xmlns="http://www.w3.org/2000/svg" viewBox="0 0 22 22"><path d="m.791 3c-.211 0-.381.169-.381.381v15.572l21.18.045v-13.363c0-.211-.171-.383-.383-.383h-11.48c-.389.034-.439-.017-.631-.273-.273-.365-.685-1.347-.953-1.703-.215-.312-.25-.275-.607-.275h-6.744m10.193 6.498c.157-.0001.314.059.434.178l3.775 3.748c.24.238.24.625.002.865-.238.24-.625.242-.865.004l-3.34-3.316-3.316 3.34c-.238.24-.627.242-.867.004-.24-.238-.24-.627-.002-.867l3.746-3.773c.119-.12.277-.181.434-.182" transform="matrix(1.0001 0 0 1.0001-.009.018)" color="#000" fill="#4d4d4d"/></svg>