<svg xmlns="http://www.w3.org/2000/svg" viewBox="0 0 22 22"><defs><clipPath><path fill="#00f" fill-opacity=".514" d="m-7 1024.36h34v34h-34z"/></clipPath><clipPath><path fill="#aade87" fill-opacity=".472" d="m-6 1028.36h32v32h-32z"/></clipPath></defs><g transform="matrix(-1.20796 0 0-1.20796-5.27 52.51)" fill="#4d4d4d"><path d="m345.44 248.29l-194.29 194.28c-12.359 12.365-32.397 12.365-44.75 0-12.354-12.354-12.354-32.391 0-44.744l171.91-171.91-171.91-171.9c-12.354-12.359-12.354-32.394 0-44.748 12.354-12.359 32.391-12.359 44.75 0l194.29 194.28c6.177 6.18 9.262 14.271 9.262 22.366 0 8.099-3.091 16.196-9.267 22.373" transform="matrix(.00011.02931-.02931.00011-6.858 26.19)"/><path d="m-18.812 38.473c-.158.193-.202.443-.118.668l.007.018c.116.31.444.517.815.515l9.401-.027c.271-.0001.528-.117.686-.31.158-.193.202-.443.118-.669l-.007-.018c-.116-.31-.444-.517-.815-.515l-9.402.027c-.271.002-.527.118-.685.31"/></g></svg>