<svg xmlns="http://www.w3.org/2000/svg" viewBox="0 0 22 22"><path d="m233.29 0c-85.1 0-154.33 69.23-154.33 154.33 0 34.28 21.887 90.16 66.908 170.83 31.846 57.06 63.17 104.64 64.48 106.64l22.942 34.775 22.941-34.774c1.317-1.998 32.641-49.577 64.48-106.64 45.02-80.68 66.908-136.56 66.908-170.83.0001-85.1-69.23-154.33-154.33-154.33m0 233.29c-44.18 0-80-35.817-80-80 0-44.18 35.818-80 80-80 44.18 0 80 35.817 80 80 0 44.18-35.819 80-80 80z" transform="matrix(.03429 0 0 .03429 3 3)" fill="#1A1D20"/></svg>