<svg xmlns="http://www.w3.org/2000/svg" viewBox="0 0 16 16"><g transform="translate(-421.71-531.79)" fill="#4d4d4d"><path d="m424.71 533.79h1v12h-1z"/><path d="m427.71 533.79h1v12h-1z"/><path d="m430.71 533.79h1v12h-1z"/><path d="m433.71 533.79h1v12h-1z"/><g color-rendering="auto" shape-rendering="auto" color-interpolation-filters="linearRGB" image-rendering="auto" fill-rule="evenodd" color-interpolation="sRGB" color="#000"><g transform="translate(421.71 531.79)"><path d="m4.789 2l.008.004 9 4 .203.09v-1.094l-6.75-3h-2.461" mix-blend-mode="normal" isolation="auto" white-space="normal" solid-opacity="1" solid-color="#000000"/><path d="m8.75 2l-6.75 3v1.094l.203-.09 9-4 .008-.004h-2.461" mix-blend-mode="normal" isolation="auto" white-space="normal" solid-opacity="1" solid-color="#000000"/></g><path d="m426.5 545.79l.008-.004 9-4 .203-.09v1.094l-6.75 3h-2.461" mix-blend-mode="normal" isolation="auto" white-space="normal" solid-opacity="1" solid-color="#000000"/><path d="m430.46 545.79l-6.75-3v-1.094l.203.09 9 4 .008.004h-2.461" mix-blend-mode="normal" isolation="auto" white-space="normal" solid-opacity="1" solid-color="#000000"/><path d="m435.71 536.68l-12 5.25v1.092l12-5.25v-1.092" mix-blend-mode="normal" isolation="auto" white-space="normal" solid-opacity="1" solid-color="#000000"/><path d="m435.71 543.02l-12-5.25v-1.092l12 5.25v1.092" mix-blend-mode="normal" isolation="auto" white-space="normal" solid-opacity="1" solid-color="#000000"/></g></g></svg>