<svg xmlns="http://www.w3.org/2000/svg" viewBox="0 0 22 22"><path d="m547.57 745.93v1 2 1 2 1 2 1 2 1 2 1h6 1 9v-1-15h-9-1-6m1 1h2v2h-2v-2m3 0h2v2h-2v-2m3 0h2v2h-2v-2m3 0h2v2h-2v-2m3 0h2v2h-2v-2m-12 3h2v2h-2v-2m3 0h2v2h-2v-2m3 0h2v2h-2v-2m3 0h2v2h-2v-2m3 0h2v2h-2v-2m-12 3h2v2h-2v-2m3 0h2v2h-2v-2m3 0h2v2h-2v-2m3 0h2v2h-2v-2m3 0h2v2h-2v-2m-12 3h2v2h-2v-2m3 0h2v2h-2v-2m3 0h2v2h-2v-2m3 0h2v2h-2v-2m3 0h2v2h-2v-2m-12 3h2v2h-2v-2m3 0h2v2h-2v-2m3 0h2v2h-2v-2m3 0h2v2h-2v-2m3 0h2v2h-2v-2" fill="#4d4d4d" transform="translate(-544.57-742.93)"/></svg>