<svg xmlns="http://www.w3.org/2000/svg" viewBox="0 0 22 22"><path d="m.791 3c-.211 0-.381.169-.381.381v15.572l21.18.045v-13.363c0-.211-.171-.383-.383-.383h-11.48c-.389.034-.439-.017-.631-.273-.273-.365-.685-1.347-.953-1.703-.215-.312-.25-.275-.607-.275h-6.744m9.469 6.06h1.482c-.002.711 0 2.582 0 2.582h2.404v1.482h-2.404c0 0-.0001 1.868-.002 2.582h-1.482c.0001-.714.002-2.582.002-2.582 0 0-1.61-.0001-2.406 0v-1.48c.796-.002 2.406-.002 2.406-.002 0 0-.0001-1.871 0-2.582" transform="matrix(1.0001 0 0 1.0001 0 .008)" color="#000" fill="#1A1D20"/></svg>