<svg xmlns="http://www.w3.org/2000/svg" viewBox="0 0 22 22"><g transform="translate(-461.71-525.79)" color="#4d4d4d"><path d="m474.71 536.79l.004 9.1 2.726-3.289 4.27-.211-7-5.6" fill-rule="evenodd"/><path d="m471.71 531.79h2v2h-2z"/><path d="m471.71 534.79h2v7h-2z"/><path d="m11 3c-4.432 0-8 3.568-8 8 0 4.432 3.568 8 8 8 .339 0 .672-.028 1-.068v-1.01c-.328.047-.659.078-1 .078-3.878 0-7-3.122-7-7 0-3.878 3.122-7 7-7 3.878 0 7 3.122 7 7 0 .696-.105 1.366-.293 2h1.033c.164-.64.26-1.308.26-2 0-4.432-3.568-8-8-8" transform="translate(461.71 525.79)"/></g></svg>