<?xml version="1.0" encoding="UTF-8" standalone="no"?>
<svg
   xmlns:dc="http://purl.org/dc/elements/1.1/"
   xmlns:cc="http://creativecommons.org/ns#"
   xmlns:rdf="http://www.w3.org/1999/02/22-rdf-syntax-ns#"
   xmlns:svg="http://www.w3.org/2000/svg"
   xmlns="http://www.w3.org/2000/svg"
   xmlns:sodipodi="http://sodipodi.sourceforge.net/DTD/sodipodi-0.dtd"
   xmlns:inkscape="http://www.inkscape.org/namespaces/inkscape"
   viewBox="0 0 22 22"
   id="svg2"
   version="1.1"
   inkscape:version="0.91 r13725"
   sodipodi:docname="kr_unselect.svg">
  <metadata
     id="metadata24">
    <rdf:RDF>
      <cc:Work
         rdf:about="">
        <dc:format>image/svg+xml</dc:format>
        <dc:type
           rdf:resource="http://purl.org/dc/dcmitype/StillImage" />
      </cc:Work>
    </rdf:RDF>
  </metadata>
  <sodipodi:namedview
     pagecolor="#ffffff"
     bordercolor="#666666"
     borderopacity="1"
     objecttolerance="10"
     gridtolerance="10"
     guidetolerance="10"
     inkscape:pageopacity="0"
     inkscape:pageshadow="2"
     inkscape:window-width="736"
     inkscape:window-height="480"
     id="namedview22"
     showgrid="false"
     inkscape:zoom="10.727273"
     inkscape:cx="11"
     inkscape:cy="11"
     inkscape:window-x="0"
     inkscape:window-y="22"
     inkscape:window-maximized="0"
     inkscape:current-layer="svg2" />
  <defs
     id="defs4">
    <clipPath
       id="clipPath6">
      <path
         fill="#00f"
         fill-opacity=".514"
         d="m-7 1024.36h34v34h-34z"
         id="path8" />
    </clipPath>
    <clipPath
       id="clipPath10">
      <path
         fill="#aade87"
         fill-opacity=".472"
         d="m-6 1028.36h32v32h-32z"
         id="path12" />
    </clipPath>
    <clipPath
       id="clipPath14">
      <path
         d="m69.63 12.145h-.052c-22.727-.292-46.47 4.077-46.709 4.122-2.424.451-4.946 2.974-5.397 5.397-.044.237-4.414 23.983-4.122 46.71-.292 22.777 4.078 46.523 4.122 46.761.451 2.423 2.974 4.945 5.398 5.398.237.044 23.982 4.413 46.709 4.121 22.779.292 46.524-4.077 46.761-4.121 2.423-.452 4.946-2.976 5.398-5.399.044-.236 4.413-23.981 4.121-46.709.292-22.777-4.077-46.523-4.121-46.761-.453-2.423-2.976-4.946-5.398-5.397-.238-.045-23.984-4.414-46.71-4.122"
         id="path16" />
    </clipPath>
  </defs>
  <path
     transform="matrix(.94223 0 0 .94223-.269 1.096)"
     d="M6 3A1 1 0 0 0 5 4 1 1 0 0 0 6 5 1 1 0 0 0 7 4 1 1 0 0 0 6 3M7 6L7.01 19 10.9 14.301 17 14 7 6"
     fill="#1A1D20"
     fill-rule="evenodd"
     id="path18" />
  <path
     inkscape:connector-curvature="0"
     style="fill:#da4453;fill-opacity:1;stroke:none"
     d="M 15.203997,2.9959995 A 2.3549998,2.3550028 0 0 0 12.849,5.350996 2.3549998,2.3550028 0 0 0 15.203997,7.706 2.3549998,2.3550028 0 0 0 17.559,5.350996 2.3549998,2.3550028 0 0 0 15.203997,2.9959995 Z M 14.234631,4.1734979 15.203997,5.14287 16.173369,4.1734979 16.381501,4.3816304 15.412129,5.350996 16.381501,6.320368 16.173369,6.528501 15.203997,5.559129 14.234631,6.528501 14.026498,6.320368 14.99587,5.350996 14.026498,4.3816304 14.234631,4.1734979 Z"
     class="ColorScheme-NegativeText"
     id="path6" />
</svg>
