<svg xmlns="http://www.w3.org/2000/svg" viewBox="0 0 22 22"><defs><clipPath><path d="m22.2 686.12h1447.73v-667.19h-1447.73v667.19"/></clipPath><clipPath><path fill="#f2f2f2" d="m7 1023.36h1v1h-1z"/></clipPath><clipPath><path d="m0 706.47h1490.93v-706.47h-1490.93v706.47"/></clipPath><clipPath><path fill="#aade87" fill-opacity=".472" d="m-6 1028.36h32v32h-32z"/></clipPath><clipPath><path fill="#00f" fill-opacity=".514" d="m-7 1024.36h34v34h-34z"/></clipPath><clipPath><path fill="#f2f2f2" d="m7 1023.36h1v1h-1z"/></clipPath></defs><g transform="matrix(.13699 0 0 .13699 1 3.466)" fill="#4d4d4d"><path d="m103.06 65.22c4.291-6.219 6.438-13.1 6.438-20.653 0-2.118-.217-4.399-.652-6.844l-22.812 40.899c7.06-2.715 12.735-7.184 17.03-13.402"/><path d="m106.4 8.886c.055-.108.08-.353.08-.733 0-.924-.434-1.656-1.305-2.202-.162-.108-.691-.421-1.588-.938-.896-.515-1.752-1.018-2.566-1.507-.814-.489-1.709-.991-2.688-1.507-.978-.516-1.819-.937-2.524-1.263-.707-.326-1.196-.489-1.467-.489-.978 0-1.738.435-2.281 1.304l-4.399 7.903c-4.942-.923-9.831-1.385-14.665-1.385-14.611 0-28.08 3.694-40.41 11.08-12.33 7.388-22.649 17.463-30.96 30.23-1.087 1.685-1.63 3.559-1.63 5.623 0 2.064.543 3.938 1.63 5.621 4.779 7.441 10.442 14.1 16.987 19.961 6.545 5.867 13.701 10.564 21.468 14.1-2.39 4.073-3.585 6.436-3.585 7.088 0 .978.435 1.738 1.304 2.281 6.626 3.803 10.265 5.703 10.917 5.703.977 0 1.738-.436 2.281-1.305l3.992-7.25c5.758-10.265 14.339-25.664 25.746-46.19 11.406-20.531 19.961-35.903 25.664-46.11m-61.19 76.67c-14.12-6.355-25.719-16.539-34.789-30.552 8.256-12.819 18.603-22.406 31.04-28.76-3.313 5.648-4.97 11.759-4.97 18.331 0 5.812 1.33 11.324 3.992 16.539 2.662 5.214 6.355 9.531 11.08 12.953l-6.355 11.489z"/><path d="m144.37 49.38c-3.097-5.159-7.02-10.157-11.772-14.991-4.751-4.834-9.709-8.988-14.869-12.465l-5.133 9.125c9.07 6.246 16.729 14.231 22.975 23.953-6.571 10.211-14.76 18.549-24.562 25.01-9.805 6.466-20.464 10.185-31.979 11.162l-6.03 10.755c12.06 0 23.451-2.58 34.18-7.74 10.727-5.158 20.16-12.41 28.312-21.752 3.802-4.4 6.762-8.338 8.881-11.814 1.086-1.847 1.629-3.722 1.629-5.622 0-1.901-.543-3.775-1.63-5.623"/></g></svg>