<svg xmlns="http://www.w3.org/2000/svg" viewBox="0 0 22 22"><path d="m340.18 542.66v4.908h.782v-4.908h-.782m-7.079.301l-2 4.607h.909l.418-1.051h1.989l.428 1.051h.933l-1.979-4.607h-.696m.315.982c.065.222.138.43.216.626l.497 1.241h-1.429l.494-1.22c.082-.203.156-.418.222-.648m4.348.408c-.477 0-.88.152-1.21.454-.329.3-.494.699-.494 1.197 0 .494.153.894.459 1.2.306.306.709.459 1.21.459.312 0 .578-.048.795-.145.22-.099.401-.231.544-.396.146-.165.246-.344.301-.539.057-.196.085-.356.085-.481 0-.251-.022-.451-.066-.599-.07-.234-.182-.441-.338-.621-.156-.179-.346-.312-.567-.399-.22-.087-.459-.13-.719-.13m0 .691c.298 0 .521.095.671.285.152.19.228.427.228.714 0 .165-.035.321-.107.467-.072.146-.181.261-.327.347-.144.087-.307.131-.491.131-.255 0-.466-.088-.635-.264-.167-.177-.251-.412-.251-.706 0-.293.086-.528.259-.706.173-.179.391-.269.652-.269m4.617 1.532c-.146 0-.27.05-.372.151-.099.101-.148.224-.148.367 0 .144.051.266.153.367.101.099.224.15.367.15.141 0 .262-.051.363-.153.101-.101.153-.223.153-.364 0-.144-.051-.266-.153-.367-.099-.101-.219-.151-.363-.151m2.61694-1.21418a8 8 0 0 1 -8 8 8 8 0 0 1 -8 -8 8 8 0 0 1 8 -8 8 8 0 0 1 8 8" fill="#4d4d4d" transform="translate(-326-534.36)"/></svg>