<svg xmlns="http://www.w3.org/2000/svg" viewBox="0 0 22 22"><path d="m24.826 0c-13.689 0-24.826 11.137-24.826 24.826 0 13.688 11.137 24.826 24.826 24.826 13.688 0 24.826-11.138 24.826-24.826 0-13.689-11.136-24.826-24.826-24.826m6.174 25.7h-4.04c0 6.453 0 14.396 0 14.396h-5.985c0 0 0-7.866 0-14.396h-2.845v-5.088h2.845v-3.291c0-2.357 1.12-6.04 6.04-6.04l4.435.017v4.939c0 0-2.695 0-3.219 0-.524 0-1.269.262-1.269 1.386v2.99h4.56l-.523 5.087" transform="matrix(.32224 0 0 .32224 3 2.998)" fill="#4d4d4d"/></svg>