<svg xmlns="http://www.w3.org/2000/svg" viewBox="0 0 22 22"><path d="M11 3A8 8 0 0 0 3 11 8 8 0 0 0 11 19 8 8 0 0 0 19 11 8 8 0 0 0 11 3M11.137 6.06C11.843 6.06 12.517 6.194 13.158 6.469 13.8 6.744 14.314 7.112 14.699 7.57L13.832 8.436C13.181 7.656 12.283 7.268 11.137 7.268 10.1 7.268 9.202 7.634 8.441 8.367 7.69 9.09 7.314 10.04 7.314 11.199 7.314 12.363 7.69 13.312 8.441 14.04 9.202 14.769 10.1 15.13 11.137 15.13 12.237 15.13 13.153 14.765 13.887 14.03 14.363 13.555 14.64 12.892 14.713 12.04H11.137V10.855H15.908C15.954 11.11 15.977 11.359 15.977 11.598 15.977 12.973 15.57 14.07 14.754 14.885 13.828 15.856 12.622 16.342 11.137 16.342 9.716 16.342 8.507 15.852 7.508 14.871 6.518 13.881 6.02 12.657 6.02 11.199 6.02 9.742 6.518 8.524 7.508 7.543 8.507 6.553 9.716 6.06 11.137 6.06" transform="translate(0-.002)" fill="#4d4d4d" fill-rule="evenodd"/></svg>