<svg xmlns="http://www.w3.org/2000/svg" viewBox="0 0 22 22"><path d="M11 3A8 8 0 0 0 3 11 8 8 0 0 0 11 19 8 8 0 0 0 19 11 8 8 0 0 0 11 3M11 5C11.08 5 11.134 5.03 11.174 5.08L12.381 6.742 14.336 6.111C14.398 6.085 14.464 6.094 14.531 6.139 14.589 6.183 14.617 6.241 14.617 6.313V8.363L16.574 9.01C16.646 9.03 16.691 9.07 16.709 9.141 16.731 9.212 16.722 9.278 16.682 9.336L15.477 10.996 16.682 12.658C16.722 12.712 16.731 12.778 16.709 12.854 16.691 12.92 16.646 12.964 16.574 12.986L14.617 13.629V15.68C14.617 15.751 14.589 15.809 14.531 15.854 14.464 15.898 14.398 15.908 14.336 15.881L12.381 15.252 11.174 16.912C11.129 16.97 11.07 17 11 17 10.929 17 10.871 16.97 10.826 16.912L9.619 15.252 7.664 15.881C7.602 15.908 7.536 15.898 7.469 15.854 7.411 15.809 7.381 15.751 7.381 15.68V13.629L5.426 12.986C5.354 12.964 5.309 12.92 5.291 12.854 5.269 12.778 5.278 12.712 5.318 12.658L6.523 10.996 5.318 9.336C5.278 9.278 5.269 9.212 5.291 9.141 5.309 9.07 5.354 9.03 5.426 9.01L7.381 8.363V6.313C7.381 6.241 7.411 6.183 7.469 6.139 7.536 6.094 7.602 6.085 7.664 6.111L9.619 6.742 10.826 5.08C10.866 5.03 10.924 5 11 5M11 7.137C10.477 7.137 9.978 7.238 9.502 7.441 9.03 7.645 8.616 7.919 8.27 8.266 7.923 8.612 7.649 9.02 7.445 9.5 7.242 9.976 7.141 10.473 7.141 10.996 7.141 11.519 7.242 12.02 7.445 12.494 7.649 12.97 7.923 13.38 8.27 13.727 8.616 14.07 9.03 14.347 9.502 14.551 9.978 14.754 10.477 14.855 11 14.855 11.523 14.855 12.02 14.754 12.498 14.551 12.974 14.348 13.384 14.07 13.73 13.727 14.08 13.38 14.351 12.97 14.555 12.494 14.758 12.02 14.859 11.519 14.859 10.996 14.859 10.474 14.758 9.976 14.555 9.5 14.351 9.02 14.08 8.612 13.73 8.266 13.384 7.919 12.974 7.645 12.498 7.441 12.02 7.238 11.523 7.137 11 7.137M9.537 8.914C9.905 8.914 10.205 9.212 10.205 9.58 10.205 9.949 9.905 10.248 9.537 10.248 9.169 10.248 8.871 9.949 8.871 9.58 8.871 9.212 9.169 8.914 9.537 8.914M12.563 8.914C12.931 8.914 13.23 9.212 13.23 9.58 13.23 9.949 12.931 10.248 12.563 10.248 12.194 10.248 11.896 9.949 11.896 9.58 11.896 9.212 12.194 8.914 12.563 8.914M8.822 11.859C8.949 11.859 9.07 11.932 9.121 12.06 9.42 12.776 10.159 13.242 11.01 13.242 11.833 13.242 12.57 12.776 12.881 12.06 12.952 11.893 13.14 11.818 13.305 11.889 13.469 11.959 13.543 12.149 13.473 12.313 13.06 13.269 12.09 13.887 11.01 13.887 9.898 13.887 8.925 13.266 8.525 12.305 8.457 12.14 8.534 11.951 8.699 11.883 8.74 11.866 8.781 11.859 8.822 11.859" transform="translate(0-.002)" fill="#4d4d4d" fill-rule="evenodd"/></svg>