<svg xmlns="http://www.w3.org/2000/svg" viewBox="0 0 22 22"><path d="m11 3c-2.214 0-4.298.766-5.867 2.156-1.583 1.403-2.455 3.274-2.455 5.266 0 1.901.793 3.69 2.242 5.068-.026.064-.045.13-.059.201l-.477 2.551c-.057.303.02.484.094.582.085.114.211.176.355.176.109 0 .226-.034.348-.104l2.768-1.566c.959.336 1.99.512 3.051.512 2.214 0 4.298-.766 5.867-2.156 1.583-1.403 2.455-3.272 2.455-5.264 0-1.992-.872-3.863-2.455-5.266-1.569-1.391-3.653-2.156-5.867-2.156m0 4c1.459 0 2.647 1.187 2.646 2.646 0 .588-.376 1.546-1.148 2.93-.546.978-1.083 1.794-1.105 1.828l-.393.596-.393-.596c-.023-.034-.559-.85-1.105-1.828-.772-1.383-1.148-2.342-1.148-2.93 0-1.459 1.187-2.646 2.646-2.646m0 1.256c-.758 0-1.371.615-1.371 1.373 0 .758.614 1.371 1.371 1.371.758 0 1.371-.614 1.371-1.371 0-.758-.614-1.373-1.371-1.373" transform="translate(0 .008)" fill="#4d4d4d"/></svg>