<svg xmlns="http://www.w3.org/2000/svg" viewBox="0 0 22 22"><g transform="translate(-327-533.36)" fill="#4d4d4d"><path d="m353.99 203.91c35.14-20.995 47.05-66.38 26.508-101.95-20.54-35.575-65.794-47.957-101.55-28.02-.61-40.933-33.961-73.934-75.04-73.934-41.08 0-74.43 33-75.04 73.937-35.754-19.94-81.01-7.557-101.55 28.02-20.539 35.574-8.636 80.958 26.511 101.95-35.15 20.995-47.05 66.38-26.51 101.95 20.54 35.576 65.796 47.958 101.55 28.02.607 40.936 33.96 73.938 75.04 73.936 41.08 0 74.43-33 75.04-73.936 35.754 19.939 81.01 7.557 101.55-28.02 20.54-35.576 8.635-80.96-26.51-101.95m-150.08 68.74c-37.966 0-68.74-30.777-68.74-68.74 0-37.967 30.778-68.74 68.74-68.74 37.965 0 68.74 30.777 68.74 68.74 0 37.967-30.778 68.74-68.74 68.74" transform="matrix(.03923 0 0 .03923 330 536.36)"/><circle r="1.5" cy="544.36" cx="338" fill-rule="evenodd"/></g></svg>