<svg xmlns="http://www.w3.org/2000/svg" viewBox="0 0 22 22"><path d="m81.03 61.09c-3.896-2.742-8.754-2.549-11.52 1.379-2.764 3.926-22.09 28.16-53.752 18.1 1.193 1.039 2.451 2.027 3.771 2.957 20.768 14.625 49.46 9.643 64.09-11.127 2.767-3.929 1.308-8.567-2.585-11.311m-61.1-3.092c-2.02-4.358-13.346-33.21 11.199-55.6-1.496.514-2.98 1.107-4.445 1.787-23.05 10.676-33.08 38.02-22.408 61.07 2.02 4.357 6.764 5.418 11.09 3.416 4.32-2 6.583-6.307 4.566-10.666m30.21-57.891c-4.781-.43-8.07 3.15-8.5 7.895-.426 4.746 2.17 8.857 6.953 9.287 4.781.432 35.434 5.05 42.549 37.504.305-1.553.531-3.135.676-4.746 2.281-25.301-16.379-47.659-41.678-49.94m-19.676 48.535c-1.318 3.102-1.531 6.06-.473 6.613.729.381 1.873-.486 2.943-2.078.424 1.736 1.473 3.305 2.971 4.566-1.572.58-2.598 1.527-2.598 2.6 0 1.766 2.777 3.195 6.205 3.195 3.092 0 5.652-1.162 6.125-2.686.127-.002.615-.002.738 0 .475 1.523 3.037 2.686 6.127 2.686 3.428 0 6.205-1.43 6.205-3.195 0-1.072-1.025-2.02-2.598-2.6 1.496-1.262 2.549-2.83 2.971-4.566 1.07 1.592 2.211 2.459 2.941 2.078 1.059-.551.85-3.512-.471-6.613-1.035-2.436-2.441-4.232-3.514-4.629.016-.154.023-.311.023-.469 0-.941-.262-1.811-.709-2.52.008-.055.008-.111.008-.166 0-.434-.104-.84-.279-1.191-.271-6.336-4.396-11.369-11.07-11.369-6.678 0-10.805 5.03-11.07 11.369-.178.352-.281.758-.281 1.191 0 .055.004.111.006.166-.443.709-.705 1.578-.705 2.52 0 .158.006.314.02.469-1.066.397-2.476 2.194-3.509 4.629z" transform="matrix(.1742 0 0 .1742 2.99 2.988)" fill="#4d4d4d"/></svg>