<svg xmlns="http://www.w3.org/2000/svg" viewBox="0 0 22 22"><path d="m440.25 538.49c.115-.52.177-1.06.177-1.615 0-4.156-3.417-7.525-7.631-7.525-.445 0-.881.039-1.305.11-.682-.423-1.489-.67-2.355-.67-2.444 0-4.425 1.954-4.425 4.364 0 .806.222 1.559.609 2.207-.101.489-.155.995-.155 1.513 0 4.156 3.417 7.525 7.631 7.525.478 0 .944-.044 1.398-.127.623.33 1.335.518 2.092.518 2.444 0 4.426-1.954 4.426-4.364 0-.696-.166-1.354-.46-1.938m-3.541 1.981c-.353.493-.874.883-1.55 1.16-.669.274-1.471.413-2.385.413-1.096 0-2.02-.19-2.732-.565-.513-.273-.936-.643-1.257-1.1-.324-.461-.488-.918-.488-1.36 0-.276.107-.515.319-.71.209-.194.477-.292.796-.292.262 0 .488.077.672.23.176.147.326.364.447.645.135.305.283.563.439.766.15.195.365.36.64.488.277.129.65.194 1.108.194.631 0 1.149-.133 1.538-.395.38-.255.564-.563.564-.939 0-.297-.096-.53-.295-.714-.208-.191-.481-.341-.814-.443-.347-.106-.818-.222-1.4-.342-.792-.167-1.465-.366-2-.59-.547-.229-.988-.548-1.311-.946-.328-.404-.494-.911-.494-1.508 0-.568.174-1.081.518-1.523.341-.439.839-.78 1.481-1.014.633-.231 1.387-.348 2.239-.348.682 0 1.281.078 1.781.231.503.154.927.363 1.26.62.336.259.585.535.742.822.158.291.239.579.239.859 0 .269-.105.513-.313.726-.209.214-.473.323-.784.323-.282 0-.504-.068-.657-.202-.143-.124-.291-.319-.456-.598-.19-.357-.421-.638-.685-.836-.256-.193-.685-.29-1.274-.29-.547 0-.992.109-1.322.322-.318.206-.473.442-.473.721 0 .171.05.314.152.438.108.13.262.245.455.341.2.1.407.178.614.235.212.058.568.144 1.056.255.618.131 1.185.277 1.687.435.508.161.947.358 1.305.588.366.235.655.536.86.896.206.361.31.807.31 1.325 0 .62-.18 1.185-.534 1.679" fill="#4d4d4d" transform="translate(-421.71-525.79)"/></svg>