<svg xmlns="http://www.w3.org/2000/svg" viewBox="0 0 22 22"><path d="m440.71 531.83c-.589.261-1.221.437-1.885.517.678-.406 1.198-1.049 1.443-1.816-.634.376-1.337.649-2.085.796-.599-.638-1.452-1.036-2.396-1.036-1.813 0-3.283 1.469-3.283 3.282 0 .257.029.508.085.748-2.728-.137-5.147-1.444-6.766-3.429-.283.485-.444 1.048-.444 1.65 0 1.139.58 2.143 1.46 2.732-.538-.017-1.044-.165-1.487-.41 0 .014 0 .027 0 .041 0 1.59 1.132 2.917 2.633 3.218-.275.075-.565.115-.865.115-.211 0-.417-.021-.618-.059.418 1.304 1.63 2.253 3.066 2.279-1.123.88-2.539 1.405-4.077 1.405-.265 0-.526-.016-.783-.046 1.453.931 3.178 1.475 5.03 1.475 6.04 0 9.339-5 9.339-9.338 0-.142-.004-.284-.009-.425.641-.463 1.198-1.041 1.638-1.699" fill="#4d4d4d" transform="matrix(1.23077 0 0 1.23077-521.57-649.67)"/></svg>