<svg xmlns="http://www.w3.org/2000/svg" viewBox="0 0 22 22"><path d="M11 3A8 8 0 0 0 3 11 8 8 0 0 0 11 19 8 8 0 0 0 19 11 8 8 0 0 0 11 3M7.04 6.5C7.582 6.624 7.809 6.616 8.355 6.5 9.04 7.72 10.1 9.427 10.994 10.906 11.874 9.459 13.258 7.199 13.633 6.5 14.06 6.611 14.488 6.608 14.963 6.5 14.464 7.174 12.649 10.322 11.549 12.252L11.629 16.5C11.629 16.5 11.278 16.436 10.996 16.436 10.742 16.436 10.361 16.5 10.361 16.5L10.441 12.252C9.852 11.233 8.118 8.129 7.04 6.5" transform="translate(0-.002)" fill="#4d4d4d" fill-rule="evenodd"/></svg>