<svg xmlns="http://www.w3.org/2000/svg" viewBox="0 0 22 22"><g transform="translate(0-1030.36)"><g fill="#1d99f3"><path transform="translate(-1 1029.36)" d="m13 16v1h1v2h-1v1h1 1 1 4v-1h-1v-2h1v-1h-4-1-1-1m2 1h1v2h-1v-2m2 0h1v2h-1v-2"/><path d="m16 1033.36v1h1v2h-1v1h1 1 1v-1h-1v-2h1v-1h-1-1-1" color="#000"/><path d="m14 1039.36v1h1v2h-1v1h5v-1h-1v-2h1v-1h-5m2 1h1v2h-1v-2"/></g><g color="#000"><path fill="#4d4d4d" stroke-width="1" d="m3 1045.36h7v1h-7z"/><g fill="#1d99f3"><path d="m10 1047.36h1v1h-1z"/><g stroke-width="1"><path d="m8 1047.36h1v1h-1z"/><path d="m6 1047.36h1v1h-1z"/></g></g><g fill="#4d4d4d"><path d="m3 1039.36h8v1h-8z"/><path d="m3 1033.36h10v1h-10z"/></g><g stroke-width="1"><g fill="#1d99f3"><path d="m14 1035.36h1v1h-1z"/><path d="m12 1035.36h1v1h-1z"/><path d="m10 1035.36h1v1h-1z"/><path d="m12 1041.36h1v1h-1z"/><path d="m10 1041.36h1v1h-1z"/><path d="m8 1041.36h1v1h-1z"/></g><g fill="#4d4d4d"><path d="m3 1035.36h6v1h-6z"/><path d="m3 1041.36h4v1h-4z"/><path d="m3 1047.36h2v1h-2z"/></g></g></g></g></svg>