<svg xmlns="http://www.w3.org/2000/svg" viewBox="0 0 22 22"><defs><clipPath><path d="m69.63 12.145h-.052c-22.727-.292-46.47 4.077-46.709 4.122-2.424.451-4.946 2.974-5.397 5.397-.044.237-4.414 23.983-4.122 46.71-.292 22.777 4.078 46.523 4.122 46.761.451 2.423 2.974 4.945 5.398 5.398.237.044 23.982 4.413 46.709 4.121 22.779.292 46.524-4.077 46.761-4.121 2.423-.452 4.946-2.976 5.398-5.399.044-.236 4.413-23.981 4.121-46.709.292-22.777-4.077-46.523-4.121-46.761-.453-2.423-2.976-4.946-5.398-5.397-.238-.045-23.984-4.414-46.71-4.122"/></clipPath><clipPath><rect width="32" height="32" x="392.57" y="507.8" fill="none" rx="16"/></clipPath><clipPath><rect width="32" height="32" x="8" y="8" fill="none" rx="16"/></clipPath><clipPath><rect width="32" height="32" x="392.57" y="507.8" fill="none" rx="16"/></clipPath><clipPath><rect width="32" height="32" x="392.57" y="507.8" fill="none" rx="16"/></clipPath><clipPath><path fill="#f2f2f2" d="m7 1023.36h1v1h-1z"/></clipPath><clipPath><rect y="8" x="8" height="32" width="32" fill="none" rx="16"/></clipPath><clipPath><rect y="507.8" x="392.57" height="32" width="32" fill="none" rx="16"/></clipPath><clipPath><rect y="507.8" x="392.57" height="32" width="32" fill="none" rx="16"/></clipPath><clipPath><rect y="507.8" x="392.57" height="32" width="32" fill="none" rx="16"/></clipPath><clipPath><rect width="32" height="32" x="392.57" y="507.8" fill="none" rx="16"/></clipPath><clipPath><rect width="32" height="32" x="392.57" y="507.8" fill="none" rx="16"/></clipPath><clipPath><path d="m22.2 686.12h1447.73v-667.19h-1447.73v667.19"/></clipPath><clipPath><path fill="#f2f2f2" d="m7 1023.36h1v1h-1z"/></clipPath><clipPath><path d="m0 706.47h1490.93v-706.47h-1490.93v706.47"/></clipPath><clipPath><rect width="32" height="32" x="8" y="8" fill="none" rx="16"/></clipPath><clipPath><rect width="32" height="32" x="392.57" y="507.8" fill="none" rx="16"/></clipPath><clipPath><rect width="32" height="32" x="392.57" y="507.8" fill="none" rx="16"/></clipPath><clipPath><rect width="32" height="32" x="8" y="8" fill="none" rx="16"/></clipPath><clipPath><rect width="32" height="32" x="392.57" y="507.8" fill="none" rx="16"/></clipPath><clipPath><rect width="32" height="32" x="392.57" y="507.8" fill="none" rx="16"/></clipPath></defs><g fill="#4d4d4d"><path d="m344.74 538.07h-.233c-.093 0-.188.058-.188.169v1.099c0 .036-.029.066-.066.066h-.469c-.036 0-.066-.029-.066-.066v-1.063c0-.067-.019-.119-.057-.157-.046-.046-.101-.048-.112-.048h-1.235c-.073 0-.182.052-.182.194v.487c0 .036-.029.066-.066.066h-.469c-.036 0-.066-.029-.066-.066v-.502-.004c-.004-.071-.054-.175-.177-.175h-1.25c-.058 0-.094.026-.114.047-.044.048-.045.111-.044.131v1.09c0 .036-.029.066-.066.066h-.469c-.036 0-.066-.029-.066-.066v-1.066c0-.077-.03-.124-.056-.149-.05-.05-.111-.052-.124-.052h-1.246c-.062 0-.16.048-.16.176v.505c0 .036-.029.066-.066.066h-.469c-.036 0-.066-.029-.066-.066v-.476c0-.08-.031-.128-.057-.154-.049-.049-.109-.052-.121-.052h-1.246c-.065 0-.162.052-.162.194v1.074c0 .036-.029.066-.066.066h-.469c-.036 0-.066-.029-.066-.066v-1.077c0-.077-.029-.121-.053-.145-.043-.043-.094-.045-.105-.045h-1.254c-.087 0-.175.055-.175.161v.52c0 .036-.029.066-.066.066h-.416v-.776-.311c0-.201-.163-.364-.364-.364h-3.3c-.201 0-.364.163-.364.364v4.02c0 .201.163.364.364.364h.171v.558c0 .093.07.158.171.158.003 0 .005 0 .007 0h1.09c.036 0 .066.029.066.066v.469c0 .036-.029.066-.066.066h-1.066c-.077 0-.124.03-.149.056-.05.05-.052.112-.052.124v1.246c0 .011.002.067.047.111.022.022.063.049.129.049h.505c.036 0 .066.029.066.066v.469c0 .036-.029.066-.066.066h-.476c-.08 0-.128.031-.154.057-.049.049-.052.11-.052.121v1.246c0 .001.002.064.047.108.024.024.07.054.148.054h1.074c.036 0 .066.029.066.066v.469c0 .036-.029.066-.066.066h-1.077c-.077 0-.121.029-.145.053-.043.043-.045.095-.045.105v1.253c0 .013.002.082.051.131.029.029.067.044.11.044h.52c.036 0 .066.029.066.066v.469c0 .036-.029.066-.066.066h-.498c-.134 0-.183.093-.183.156v1.251c-.0001.02-.0001.09.043.137.025.027.059.041.097.041h1.128c.036 0 .066.029.066.066v.469c0 .036-.029.066-.066.066h-1.063c-.151 0-.205.121-.205.202v.612c0 .206.168.374.374.374h2.745c.206 0 .374-.168.374-.374v-11.238-.19h11.832c.206 0 .374-.168.374-.374v-2.745c0-.206-.168-.374-.374-.374" transform="matrix(1.10882 0 0 1.10882-362.67-593.71)"/><path d="m351.27 312.97h-29.983c-.022 14.366 0 52.16 0 52.16 0 0-32.529 0-48.621.043v29.962c16.09-.022 48.621-.022 48.621-.022 0 0 0 37.749-.022 52.18h29.983c.022-14.431.022-52.18.022-52.18 0 0 32.507 0 48.599 0v-29.983c-16.09 0-48.599 0-48.599 0 0 0-.043-37.791 0-52.16" transform="matrix(.07444 0 0 .07444-9.96-13.412)"/></g></svg>