<svg xmlns="http://www.w3.org/2000/svg" viewBox="0 0 22 22"><defs><clipPath><path d="m69.63 12.145h-.052c-22.727-.292-46.47 4.077-46.709 4.122-2.424.451-4.946 2.974-5.397 5.397-.044.237-4.414 23.983-4.122 46.71-.292 22.777 4.078 46.523 4.122 46.761.451 2.423 2.974 4.945 5.398 5.398.237.044 23.982 4.413 46.709 4.121 22.779.292 46.524-4.077 46.761-4.121 2.423-.452 4.946-2.976 5.398-5.399.044-.236 4.413-23.981 4.121-46.709.292-22.777-4.077-46.523-4.121-46.761-.453-2.423-2.976-4.946-5.398-5.397-.238-.045-23.984-4.414-46.71-4.122"/></clipPath></defs><g stroke="none"><path d="m392.57 503.8c-1.108 0-1.997.894-1.997 2v35.996c0 1.108.889 2 1.997 2h32c1.108 0 1.997-.894 1.997-2v-35.996c0-1.108-.889-2-1.997-2h-32" stroke-opacity=".55" fill="#4d4d4d" stroke-width="2.8" transform="matrix(.4 0 0 .4-152.45-198.55)"/><path d="m348.59 556.06c0 .38.66.37.66 0v-2.8c0-.355-.21-.45-.44-.35l-.705.26c-.455.15-.215.74.185.61l.3-.12v2.4" transform="matrix(1.764 0 0 1.764-599.76-963.89)" fill="#1d99f3"/></g></svg>