<svg xmlns="http://www.w3.org/2000/svg" viewBox="0 0 22 22"><path d="m3.285 3c-.449 0-.813.364-.813.813v14.375c0 .449.364.813.813.813h15.43c.449 0 .813-.364.813-.813v-14.375c0-.449-.364-.813-.813-.813h-15.43m10.715 1.4h1.199v2.4h2.4v1.199h-2.4v2.4h-1.199v-2.4h-2.4v-1.199h2.4v-2.4m-5.58 5.273c.178-.017.367.075.523.279l3.215 4.205c.313.409.861.444 1.223.078l.785-.797c.361-.366.894-.322 1.189.1l2.037 2.912c.294.422.116.764-.398.764h-5.994-5.729c-.515 0-.744-.372-.512-.832l3.197-6.338c.116-.23.284-.354.463-.371" transform="translate(.0001-.002)" stroke="none" fill="#4d4d4d" stroke-opacity=".8"/></svg>