<svg xmlns="http://www.w3.org/2000/svg" viewBox="0 0 22 22"><path d="m7.652 3c-.854 0-1.549.695-1.549 1.549v1.555h-1.555c-.854 0-1.549.694-1.549 1.549 0 .854.695 1.549 1.549 1.549h1.555v3.598h-1.555c-.854 0-1.549.695-1.549 1.549 0 .854.695 1.549 1.549 1.549h1.555v1.555c0 .855.694 1.549 1.549 1.549.854 0 1.549-.694 1.549-1.549v-1.555h3.598v1.555c0 .855.695 1.549 1.549 1.549.854 0 1.549-.694 1.549-1.549v-1.555h1.555c.854 0 1.549-.695 1.549-1.549 0-.854-.695-1.549-1.549-1.549h-1.555v-3.598h1.555c.854 0 1.549-.695 1.549-1.549 0-.855-.695-1.549-1.549-1.549h-1.555v-1.555c0-.854-.695-1.549-1.549-1.549-.855 0-1.549.695-1.549 1.549v1.555h-3.598v-1.555c0-.854-.695-1.549-1.549-1.549m.861 5.514h4.973v4.973h-4.973v-4.973" transform="matrix(.99996 0 0 .99996-.02-.022)" fill="#da4453"/></svg>