<?xml version="1.0" encoding="UTF-8" standalone="no"?>
<svg
   xmlns:dc="http://purl.org/dc/elements/1.1/"
   xmlns:cc="http://creativecommons.org/ns#"
   xmlns:rdf="http://www.w3.org/1999/02/22-rdf-syntax-ns#"
   xmlns:svg="http://www.w3.org/2000/svg"
   xmlns="http://www.w3.org/2000/svg"
   xmlns:sodipodi="http://sodipodi.sourceforge.net/DTD/sodipodi-0.dtd"
   xmlns:inkscape="http://www.inkscape.org/namespaces/inkscape"
   viewBox="0 0 22 22"
   id="svg2"
   version="1.1"
   inkscape:version="0.91 r13725"
   sodipodi:docname="irc-unvoice.svg">
  <metadata
     id="metadata26">
    <rdf:RDF>
      <cc:Work
         rdf:about="">
        <dc:format>image/svg+xml</dc:format>
        <dc:type
           rdf:resource="http://purl.org/dc/dcmitype/StillImage" />
      </cc:Work>
    </rdf:RDF>
  </metadata>
  <sodipodi:namedview
     pagecolor="#ffffff"
     bordercolor="#666666"
     borderopacity="1"
     objecttolerance="10"
     gridtolerance="10"
     guidetolerance="10"
     inkscape:pageopacity="0"
     inkscape:pageshadow="2"
     inkscape:window-width="1366"
     inkscape:window-height="746"
     id="namedview24"
     showgrid="false"
     inkscape:zoom="10.727273"
     inkscape:cx="11"
     inkscape:cy="11"
     inkscape:window-x="0"
     inkscape:window-y="22"
     inkscape:window-maximized="1"
     inkscape:current-layer="g18" />
  <defs
     id="defs4">
    <clipPath
       id="clipPath6">
      <path
         fill="#00f"
         fill-opacity=".514"
         d="m-7 1024.36h34v34h-34z"
         id="path8" />
    </clipPath>
    <clipPath
       id="clipPath10">
      <path
         fill="#aade87"
         fill-opacity=".472"
         d="m-6 1028.36h32v32h-32z"
         id="path12" />
    </clipPath>
    <clipPath
       id="clipPath14">
      <path
         d="m69.63 12.145h-.052c-22.727-.292-46.47 4.077-46.709 4.122-2.424.451-4.946 2.974-5.397 5.397-.044.237-4.414 23.983-4.122 46.71-.292 22.777 4.078 46.523 4.122 46.761.451 2.423 2.974 4.945 5.398 5.398.237.044 23.982 4.413 46.709 4.121 22.779.292 46.524-4.077 46.761-4.121 2.423-.452 4.946-2.976 5.398-5.399.044-.236 4.413-23.981 4.121-46.709.292-22.777-4.077-46.523-4.121-46.761-.453-2.423-2.976-4.946-5.398-5.397-.238-.045-23.984-4.414-46.71-4.122"
         id="path16" />
    </clipPath>
  </defs>
  <g
     transform="matrix(.89279 0 0 .89279-290.83-475)"
     fill="#da4453"
     id="g18">
    <path
       d="m341.7 536.87v6.833 6.833c0 .497-.652.696-.92.278-1.535-2.392-3.051-3.647-8.375-3.913l1.681 5.464h-2.512l-1.7-5.526c-1.665-.076-2.995-1.452-2.995-3.136 0-1.733 1.407-3.144 3.14-3.144 7.301 0 9.02-1.25 10.761-3.967.268-.418.92-.219.92.278"
       id="path20" />
    <path
       inkscape:connector-curvature="0"
       style="fill:#da4453;fill-opacity:1;stroke:none"
       d="m 345.78456,540.86485 a 3.5002647,3.5002691 0 0 0 -3.50026,3.50026 3.5002647,3.5002691 0 0 0 3.50026,3.50027 3.5002647,3.5002691 0 0 0 3.50027,-3.50027 3.5002647,3.5002691 0 0 0 -3.50027,-3.50026 z m -1.44078,1.75013 1.44078,1.44079 1.44079,-1.44079 0.30935,0.30935 -1.44079,1.44078 1.44079,1.44079 -0.30935,0.30935 -1.44079,-1.44079 -1.44078,1.44079 -0.30935,-0.30935 1.44079,-1.44079 -1.44079,-1.44078 0.30935,-0.30935 z"
       class="ColorScheme-NegativeText"
       id="path6" />
  </g>
</svg>
