<svg xmlns="http://www.w3.org/2000/svg" viewBox="0 0 22 22"><g transform="matrix(.98318 0 0 .98318-544.23-573.21)"><path d="m7.578 3c-.84 0-1.523.684-1.523 1.523v1.527h-1.529c-.84 0-1.523.683-1.523 1.523 0 .84.684 1.523 1.523 1.523h1.529v3.535h-1.529c-.84 0-1.523.684-1.523 1.523 0 .84.684 1.523 1.523 1.523h1.529v1.527c0 .84.683 1.523 1.523 1.523.84 0 1.521-.683 1.521-1.523v-1.527h3.535v1.527c0 .84.684 1.523 1.523 1.523.84 0 1.523-.683 1.523-1.523v-1.527h1.529c.84 0 1.521-.684 1.521-1.523 0-.84-.682-1.523-1.521-1.523h-1.529v-3.535h1.529c.839 0 1.523-.684 1.523-1.523 0-.84-.684-1.523-1.523-1.523h-1.529v-1.527c0-.84-.684-1.523-1.523-1.523-.84 0-1.521.684-1.521 1.523v1.527h-3.537v-1.527c0-.84-.682-1.523-1.521-1.523m.846 5.42h4.889v4.891h-4.889v-4.891" transform="matrix(1.0171 0 0 1.0171 553.54 583.01)" fill="#4d4d4d"/><rect y="594.38" x="564.9" height="7.962" width="7.962" fill="#bdc3c7" rx="3.981"/></g></svg>