<svg xmlns="http://www.w3.org/2000/svg" viewBox="0 0 22 22"><defs><clipPath><path fill="#00f" fill-opacity=".514" d="m-7 1024.36h34v34h-34z"/></clipPath><clipPath><path fill="#aade87" fill-opacity=".472" d="m-6 1028.36h32v32h-32z"/></clipPath><clipPath><path d="m69.63 12.145h-.052c-22.727-.292-46.47 4.077-46.709 4.122-2.424.451-4.946 2.974-5.397 5.397-.044.237-4.414 23.983-4.122 46.71-.292 22.777 4.078 46.523 4.122 46.761.451 2.423 2.974 4.945 5.398 5.398.237.044 23.982 4.413 46.709 4.121 22.779.292 46.524-4.077 46.761-4.121 2.423-.452 4.946-2.976 5.398-5.399.044-.236 4.413-23.981 4.121-46.709.292-22.777-4.077-46.523-4.121-46.761-.453-2.423-2.976-4.946-5.398-5.397-.238-.045-23.984-4.414-46.71-4.122"/></clipPath></defs><g transform="matrix(.89279 0 0 .89279-290.83-475)" fill="#da4453"><path d="m341.7 536.87v6.833 6.833c0 .497-.652.696-.92.278-1.535-2.392-3.051-3.647-8.375-3.913l1.681 5.464h-2.512l-1.7-5.526c-1.665-.076-2.995-1.452-2.995-3.136 0-1.733 1.407-3.144 3.14-3.144 7.301 0 9.02-1.25 10.761-3.967.268-.418.92-.219.92.278"/><path d="m117.18 31.592c-5.595-9.586-13.185-17.18-22.771-22.771-9.588-5.595-20.06-8.392-31.408-8.392-11.352 0-21.822 2.797-31.408 8.392-9.587 5.594-17.18 13.184-22.772 22.771-5.596 9.587-8.393 20.06-8.393 31.408 0 11.352 2.798 21.82 8.392 31.408 5.595 9.585 13.185 17.18 22.772 22.771 9.587 5.595 20.06 8.392 31.408 8.392 11.352 0 21.822-2.797 31.408-8.392 9.586-5.594 17.18-13.185 22.771-22.771 5.594-9.587 8.391-20.06 8.391-31.408 0-11.352-2.797-21.822-8.39-31.408m-24.687 46.15c1.032 1.031 1.549 2.255 1.549 3.667 0 1.466-.517 2.716-1.549 3.747l-7.332 7.333c-1.032 1.032-2.281 1.548-3.748 1.548-1.412 0-2.636-.516-3.666-1.548l-14.747-14.747-14.747 14.747c-1.032 1.032-2.254 1.548-3.666 1.548-1.467 0-2.716-.516-3.748-1.548l-7.333-7.333c-1.032-1.031-1.548-2.281-1.548-3.747 0-1.412.516-2.636 1.548-3.667l14.747-14.746-14.747-14.747c-1.032-1.031-1.548-2.254-1.548-3.666 0-1.467.516-2.716 1.548-3.748l7.333-7.332c1.032-1.032 2.281-1.548 3.748-1.548 1.412 0 2.634.516 3.666 1.548l14.747 14.746 14.747-14.746c1.03-1.032 2.254-1.548 3.666-1.548 1.467 0 2.716.516 3.748 1.548l7.332 7.332c1.032 1.032 1.549 2.281 1.549 3.748 0 1.412-.517 2.635-1.549 3.666l-14.746 14.747 14.746 14.746" transform="matrix(.05594 0 0 .05594 342.26 540.54)"/></g></svg>