<svg xmlns="http://www.w3.org/2000/svg" viewBox="0 0 22 22"><path d="m373.8 91.45v172.34 172.34c0 12.539-16.436 17.558-23.2 7-38.713-60.34-76.948-91.98-211.23-98.68l42.39 137.8h-63.35l-42.875-139.37c-42-1.924-75.53-36.619-75.53-79.1 0-43.717 35.476-79.29 79.19-79.29 184.14 0 227.43-31.525 271.39-100.06 6.771-10.547 23.21-5.528 23.21 7.01m109.06 189.04c0 33.03-11.11 63.36-27.832 86.31 0 0-6.697 9.173-17.816 9.173-11.443 0-21.549-9.608-21.549-21.665 0-7.119 4.264-12.906 4.264-12.906 7.957-11.635 19.611-29.505 19.611-60.914 0-31.409-11.654-49.29-19.611-60.921 0 0-4.264-5.787-4.264-12.906 0-12.06 10.11-21.665 21.549-21.665 11.12 0 17.816 9.173 17.816 9.173 16.728 22.957 27.832 53.29 27.832 86.32m-16.08-125.02c0 0-9.777-6.991-9.777-17.945 0-12.329 10.125-21.747 21.664-21.747 7.42 0 14.254 5.229 14.254 5.229 26.19 19.584 68.07 69.769 68.07 159.49 0 89.72-41.887 139.9-68.07 159.49 0 0-6.834 5.229-14.252 5.229-11.533 0-21.666-9.418-21.666-21.746 0-10.955 9.779-17.945 9.779-17.945 30.477-22.487 50.877-67.44 50.877-125.02 0-57.59-20.4-102.54-50.871-125.03" transform="matrix(.03565 0 0 .03565 1 1)" fill="#4d4d4d"/></svg>