<svg xmlns="http://www.w3.org/2000/svg" viewBox="0 0 22 22"><g transform="matrix(1 0 0-1-421.71 547.79)" fill="#4d4d4d"><path transform="translate(421.71 525.79)" d="M4.5 3A1.499998 1.5 0 0 0 3 4.5 1.499998 1.5 0 0 0 4.5 6 1.499998 1.5 0 0 0 6 4.5 1.499998 1.5 0 0 0 4.5 3m0 1A.5 .5 0 0 1 5 4.5 .5 .5 0 0 1 4.5 5 .5 .5 0 0 1 4 4.5 .5 .5 0 0 1 4.5 4"/><path d="m426.21429 541.79074a1.499998 1.5 0 0 0 -1.5 1.5 1.499998 1.5 0 0 0 1.5 1.5 1.499998 1.5 0 0 0 1.5 -1.5 1.499998 1.5 0 0 0 -1.5 -1.5m0 1a.5 .5 0 0 1 .5 .5 .5 .5 0 0 1 -.5 .5 .5 .5 0 0 1 -.5 -.5 .5 .5 0 0 1 .5 -.5"/><path d="m439.21429 528.79074a1.499998 1.5 0 0 0 -1.5 1.5 1.499998 1.5 0 0 0 1.5 1.5 1.499998 1.5 0 0 0 1.5 -1.5 1.499998 1.5 0 0 0 -1.5 -1.5m0 1a.5 .5 0 0 1 .5 .5 .5 .5 0 0 1 -.5 .5 .5 .5 0 0 1 -.5 -.5 .5 .5 0 0 1 .5 -.5"/><path d="m425.71 530.79h1v12h-1z"/><path d="m438.71 530.79h1v4h-1z"/><path transform="translate(421.71 525.79)" d="m17 9a1 1 0 0 1 -1 1H6a2 2 0 0 0 -2 2h1a1 1 0 0 1 1 -1h10a2 2 0 0 0 2 -2h-1"/></g></svg>