<svg xmlns="http://www.w3.org/2000/svg" viewBox="0 0 22 22"><g transform="translate(-421.71-525.79)" fill="#4d4d4d"><path d="m426.21429 544.79076a1.499998 1.5 0 0 1 -1.5 -1.5 1.499998 1.5 0 0 1 1.5 -1.5 1.499998 1.5 0 0 1 1.5 1.5 1.499998 1.5 0 0 1 -1.5 1.5m0-1a.5 .5 0 0 0 .5 -.5 .5 .5 0 0 0 -.5 -.5 .5 .5 0 0 0 -.5 .5 .5 .5 0 0 0 .5 .5"/><path d="m426.21429 531.79076a1.499998 1.5 0 0 1 -1.5 -1.5 1.499998 1.5 0 0 1 1.5 -1.5 1.499998 1.5 0 0 1 1.5 1.5 1.499998 1.5 0 0 1 -1.5 1.5m0-1a.5 .5 0 0 0 .5 -.5 .5 .5 0 0 0 -.5 -.5 .5 .5 0 0 0 -.5 .5 .5 .5 0 0 0 .5 .5"/><path d="m439.21429 544.79076a1.499998 1.5 0 0 1 -1.5 -1.5 1.499998 1.5 0 0 1 1.5 -1.5 1.499998 1.5 0 0 1 1.5 1.5 1.499998 1.5 0 0 1 -1.5 1.5m0-1a.5 .5 0 0 0 .5 -.5 .5 .5 0 0 0 -.5 -.5 .5 .5 0 0 0 -.5 .5 .5 .5 0 0 0 .5 .5"/><path transform="scale(1-1)" d="m438.71-542.79h1v4h-1z"/><path d="m438.71429 538.79076a1 1 0 0 0 -1 -1h-10a2 2 0 0 1 -2 -2h1a1 1 0 0 0 1 1h10a2 2 0 0 1 2 2h-1"/><path d="m438.71429 535.79076a1 1 0 0 1 -1 1h-10a2 2 0 0 0 -2 2h1a1 1 0 0 1 1 -1h10a2 2 0 0 0 2 -2h-1"/><path d="m425.71 530.79h1v5h-1z"/><path d="m425.71 538.79h1v4h-1z"/><path d="m439.21429 531.79076a1.499998 1.5 0 0 1 -1.5 -1.5 1.499998 1.5 0 0 1 1.5 -1.5 1.499998 1.5 0 0 1 1.5 1.5 1.499998 1.5 0 0 1 -1.5 1.5m0-1a.5 .5 0 0 0 .5 -.5 .5 .5 0 0 0 -.5 -.5 .5 .5 0 0 0 -.5 .5 .5 .5 0 0 0 .5 .5"/><path d="m438.71 530.79h1v5h-1z"/></g></svg>