<svg xmlns="http://www.w3.org/2000/svg" viewBox="0 0 22 22"><path d="m3.889 3c-.492 0-.889.358-.889.801v14.398c0 .443.396.801.889.801h14.223c.492 0 .889-.358.889-.801v-14.398c0-.443-.396-.801-.889-.801h-14.223m2.535 3h.479c.118 0 .213.095.213.213v.264c0 .117.093.213.211.213h.463c.118 0 .213-.095.213-.213v-.264c0-.117.095-.213.213-.213h5.555c.118 0 .213.095.213.213v.264c0 .117.095.213.213.213h.461c.118 0 .213-.095.213-.213v-.264c0-.117.095-.213.213-.213h.494c.118 0 .213.095.213.213v9.574c0 .117-.095.213-.213.213h-.494c-.118 0-.213-.095-.213-.213v-.195c0-.117-.095-.211-.213-.211h-.461c-.118 0-.213.093-.213.211v.195c0 .117-.095.213-.213.213h-5.555c-.118 0-.213-.095-.213-.213v-.195c0-.117-.095-.211-.213-.211h-.463c-.117 0-.211.093-.211.211v.195c0 .117-.095.213-.213.213h-.479c-.118 0-.213-.095-.213-.213v-9.574c0-.117.095-.213.213-.213m2.727.912c-.118 0-.213.095-.213.213v1.709c0 .117.095.213.213.213h3.699c.118 0 .213-.095.213-.213v-1.709c0-.117-.095-.213-.213-.213h-3.699m-1.824.82c-.117 0-.211.095-.211.213v.461c0 .117.093.213.211.213h.463c.118 0 .213-.095.213-.213v-.461c0-.117-.095-.213-.213-.213h-.463m6.869 0c-.118 0-.213.095-.213.213v.461c0 .117.095.213.213.213h.461c.118 0 .213-.095.213-.213v-.461c0-.117-.095-.213-.213-.213h-.461m-6.869 1.912c-.117 0-.211.095-.211.213v.461c0 .117.093.213.211.213h.463c.118 0 .213-.095.213-.213v-.461c0-.117-.095-.213-.213-.213h-.463m6.869 0c-.118 0-.213.095-.213.213v.461c0 .117.095.213.213.213h.461c.118 0 .213-.095.213-.213v-.461c0-.117-.095-.213-.213-.213h-.461m-5.04.287c-.118 0-.213.095-.213.213v1.711c0 .117.095.213.213.213h3.699c.118 0 .213-.095.213-.213v-1.711c0-.117-.095-.213-.213-.213h-3.699m-1.824 1.625c-.117 0-.211.095-.211.213v.461c0 .117.093.213.211.213h.463c.118 0 .213-.095.213-.213v-.461c0-.117-.095-.213-.213-.213h-.463m6.869 0c-.118 0-.213.095-.213.213v.461c0 .117.095.213.213.213h.461c.118 0 .213-.095.213-.213v-.461c0-.117-.095-.213-.213-.213h-.461m-5.04 1.396c-.118 0-.213.095-.213.213v1.709c0 .117.095.213.213.213h3.699c.118 0 .213-.095.213-.213v-1.709c0-.117-.095-.213-.213-.213h-3.699m-1.824.516c-.117 0-.211.095-.211.213v.461c0 .117.093.213.211.213h.463c.118 0 .213-.095.213-.213v-.461c0-.117-.095-.213-.213-.213h-.463m6.869 0c-.118 0-.213.095-.213.213v.461c0 .117.095.213.213.213h.461c.118 0 .213-.095.213-.213v-.461c0-.117-.095-.213-.213-.213h-.461" transform="translate(-.003.011)" fill="#4d4d4d"/></svg>