<svg xmlns="http://www.w3.org/2000/svg" viewBox="0 0 22 22"><g fill="#4d4d4d"><path d="m415.75 517.87h-1.104c-.262 0-.475.213-.475.475v.591c0 .262-.212.475-.475.475h-1.029c-.262 0-.475-.213-.475-.475v-.591c0-.262-.212-.475-.475-.475h-12.391c-.262 0-.475.213-.475.475v.591c0 .262-.212.475-.475.475h-1.029c-.262 0-.475-.213-.475-.475v-.591c0-.262-.212-.475-.475-.475h-1.067c-.262 0-.475.213-.475.475v21.356c0 .262.212.475.475.475h1.067c.262 0 .475-.213.475-.475v-.434c0-.262.212-.475.475-.475h1.029c.262 0 .475.213.475.475v.434c0 .262.212.475.475.475h12.391c.262 0 .475-.213.475-.475v-.434c0-.262.212-.475.475-.475h1.029c.262 0 .475.213.475.475v.434c0 .262.212.475.475.475h1.104c.262 0 .475-.213.475-.475v-21.356c0-.262-.212-.475-.475-.475m-16.897 18.16c0 .262-.212.474-.475.474h-1.029c-.262 0-.475-.213-.475-.474v-1.029c0-.262.212-.474.475-.474h1.029c.262 0 .475.213.475.474v1.029m0-4.265c0 .262-.212.475-.475.475h-1.029c-.262 0-.475-.213-.475-.475v-1.029c0-.262.212-.474.475-.474h1.029c.262 0 .475.213.475.474v1.029m0-4.264c0 .262-.212.475-.475.475h-1.029c-.262 0-.475-.213-.475-.475v-1.029c0-.262.212-.475.475-.475h1.029c.262 0 .475.213.475.475v1.029m0-4.264c0 .262-.212.475-.475.475h-1.029c-.262 0-.475-.213-.475-.475v-1.029c0-.262.212-.475.475-.475h1.029c.262 0 .475.213.475.475v1.029m11.288 14.428c0 .262-.212.475-.475.475h-8.25c-.262 0-.475-.213-.475-.475v-3.814c0-.262.212-.475.475-.475h8.25c.262 0 .475.213.475.475v3.814m0-6.737c0 .262-.212.475-.475.475h-8.25c-.262 0-.475-.213-.475-.475v-3.814c0-.262.212-.475.475-.475h8.25c.262 0 .475.213.475.475v3.814m0-6.737c0 .262-.212.474-.475.474h-8.25c-.262 0-.475-.213-.475-.474v-3.814c0-.262.212-.475.475-.475h8.25c.262 0 .475.213.475.475v3.814m4.03 11.839c0 .262-.212.474-.475.474h-1.029c-.262 0-.475-.213-.475-.474v-1.029c0-.262.212-.474.475-.474h1.029c.262 0 .475.213.475.474v1.029m0-4.265c0 .262-.212.475-.475.475h-1.029c-.262 0-.475-.213-.475-.475v-1.029c0-.262.212-.474.475-.474h1.029c.262 0 .475.213.475.474v1.029m0-4.264c0 .262-.212.475-.475.475h-1.029c-.262 0-.475-.213-.475-.475v-1.029c0-.262.212-.475.475-.475h1.029c.262 0 .475.213.475.475v1.029m0-4.264c0 .262-.212.475-.475.475h-1.029c-.262 0-.475-.213-.475-.475v-1.029c0-.262.212-.475.475-.475h1.029c.262 0 .475.213.475.475v1.029" transform="matrix(.53665 0 0 .53665-206.63-272.91)"/><path d="m266.72-42.509l-117.85 176.95c-.84 1.261-1.352 2.495-1.536 3.703-.184 1.208.017 2.01.604 2.398l13.02 8.672c.588.392 1.403.269 2.447-.366 1.042-.636 1.983-1.585 2.823-2.846l117.85-176.95c.841-1.263 1.353-2.495 1.539-3.704.183-1.208-.018-2.01-.607-2.397l-13.02-8.672c-.587-.391-1.403-.269-2.444.365-1.045.64-1.985 1.584-2.826 2.846" transform="matrix(.08189 0 0 .08189-6.731 6.758)"/></g></svg>