<svg xmlns="http://www.w3.org/2000/svg" viewBox="0 0 22 22"><path d="m3.889 3c-.492 0-.889.358-.889.801v14.398c0 .443.396.801.889.801h14.223c.492 0 .889-.358.889-.801v-14.398c0-.443-.396-.801-.889-.801h-14.223m1.324 2h11.574c.336 0 .609.273.609.609v10.781c0 .336-.273.609-.609.609h-11.574c-.336 0-.609-.273-.609-.609v-10.781c0-.336.273-.609.609-.609m7.662 2.154c-.772 0-1.396.626-1.396 1.398 0 .772.625 1.398 1.396 1.398.772 0 1.398-.626 1.398-1.398 0-.772-.627-1.398-1.398-1.398m-3.811 2.852c-.134.012-.259.105-.346.277l-2.398 4.754c-.174.345-.003.625.383.625h4.297 4.496c.386 0 .52-.257.299-.574l-1.527-2.184c-.221-.316-.621-.351-.893-.076l-.59.6c-.271.275-.681.248-.916-.059l-2.412-3.154c-.117-.153-.259-.221-.393-.209" transform="translate(.017-.019)" stroke-opacity=".55" fill="#4d4d4d" stroke-width="2.8" stroke="none"/></svg>