<svg xmlns="http://www.w3.org/2000/svg" viewBox="0 0 22 22"><defs><clipPath><path fill="#f2f2f2" d="m7 1023.36h1v1h-1z"/></clipPath><clipPath><path fill="#f2f2f2" d="m7 1023.36h1v1h-1z"/></clipPath><clipPath><path fill="#f2f2f2" d="m7 1023.36h1v1h-1z"/></clipPath></defs><g transform="matrix(.05822 0 0 .05768-2.123 3)" fill="#4d4d4d"><g><path d="m264.41 48.53c4.334-3.385 7.922-1.652 7.972 3.848l.562 64.61c.046 5.5 3.815 12.518 8.373 15.597l53.55 36.17c4.56 3.078 4.02 7.03-1.194 8.77l-61.28 20.504c-5.218 1.744-10.729 7.498-12.246 12.783l-17.851 62.1c-1.521 5.286-5.439 5.993-8.711 1.571l-38.438-51.942c-3.271-4.421-10.445-7.885-15.942-7.695l-64.58 2.217c-5.498.188-7.381-3.322-4.188-7.799l37.523-52.607c3.194-4.478 4.27-12.371 2.393-17.541l-22.06-60.732c-1.879-5.169.877-8.05 6.122-6.393l61.63 19.431c5.246 1.654 13.09.239 17.421-3.145l50.948-39.753"/><path d="m280.7 4.524c1.922-3.979 6.703-5.647 10.685-3.727 3.979 1.92 5.646 6.703 3.727 10.682l-7.827 16.211c-1.92 3.979-6.702 5.647-10.682 3.728-3.979-1.92-5.647-6.703-3.727-10.682l7.824-16.212"/></g><g><path d="m93.9 168.53c-4.294 1.042-8.618-1.589-9.665-5.884-1.042-4.293 1.59-8.62 5.882-9.664l17.492-4.253c4.293-1.045 8.621 1.588 9.664 5.881 1.043 4.294-1.589 8.62-5.883 9.665l-17.49 4.255"/><path d="m149.99 29.23c-2.031-3.925-.499-8.75 3.424-10.783 3.925-2.031 8.751-.5 10.784 3.422l8.279 15.986c2.03 3.922.499 8.75-3.423 10.781-3.924 2.032-8.752.5-10.784-3.424l-8.28-15.982"/></g><g><path d="m286.28 261.4c1.854 4.01 6.604 5.76 10.618 3.907 4.01-1.854 5.763-6.606 3.908-10.616l-7.552-16.343c-1.854-4.01-6.604-5.762-10.615-3.907-4.01 1.854-5.761 6.605-3.908 10.616l7.549 16.343"/><path d="m360.46 130.82c4.335-.851 7.16-5.05 6.312-9.389-.852-4.336-5.05-7.164-9.389-6.314l-17.665 3.462c-4.337.849-7.163 5.05-6.314 9.386.853 4.336 5.05 7.164 9.392 6.313l17.664-3.458"/></g></g></svg>