<svg xmlns="http://www.w3.org/2000/svg" viewBox="0 0 22 22"><path d="m1.15 3c-.417 0-.752.337-.752.754v6.604h1.258v-1.285h1.287v-2.572h1.285v1.285h1.285v1.287h1.287v1.285 1.285 1.285h-1.287v1.287h-1.285v1.285h-1.285v-2.572h-1.287v-1.285h-1.258v6.604c0 .417.335.754.752.754h19.699c.417 0 .752-.337.752-.754v-6.604h-1.258v1.285h-1.287v1.287h-1.285v1.285h-1.285v-1.285h-1.287v-1.287h-1.285v-1.285-1.285-1.285h1.285v-1.287h1.287v-1.285h1.285v1.285h1.285v1.287h1.287v1.285h1.258v-6.604c0-.417-.335-.754-.752-.754h-19.699m20.451 7.357v1.285h.027v-1.285h-.027m-21.2 1.285v-1.285h-.027v1.285h.027m10.393-4.516l.264 3.08 2.254-2.115c.462.491.3.869-.408 1.535l-1.76 1.65.104 1.145c.305-.004.588.038.809.186.338.226.522.598.553.967.031.368-.09.757-.385 1.037-.545.494-1.442.298-1.695-.695l-.164-1.9-1.391 1.305c-.852.57-1.652.116-1.727-.615-.033-.405.137-.776.406-1.029.269-.253.656-.407 1.059-.35.263.037.5.196.725.402l.842-.783-.207-2.402c-.082-.969.051-1.359.723-1.416m-2.221 4.766c-.175-.043-.369.006-.525.137-.25.209-.308.56-.113.793.194.233.568.252.818.043.25-.209.286-.566.092-.799-.073-.087-.167-.148-.271-.174m2.889 1.176c-.3.043-.513.334-.467.656.046.323.338.557.639.514.3-.043.492-.342.445-.664-.035-.242-.201-.433-.408-.494-.069-.02-.134-.023-.209-.012" transform="translate(-.003)" fill="#4d4d4d"/></svg>