<svg xmlns="http://www.w3.org/2000/svg" viewBox="0 0 22 22"><defs><linearGradient x1="0" x2="47" gradientUnits="userSpaceOnUse"><stop stop-color="#a9a3d4"/><stop offset=".47" stop-color="#87baff"/><stop offset="1" stop-color="#89ec85"/></linearGradient></defs><g transform="matrix(.02454 0 0 .02454-9.58 1.188)" fill="#4d4d4d" fill-rule="evenodd"><path d="m471.41 628.77l733.45 3.413c.822 36.56 6.62 94.54-43.788 93.01h-651.37c-41.611.373-36.22-41.02-38.29-96.42"/><path d="m18.273 3l-14.521.057c-1.081-.066-1.17.982-1.17.982l-.584 12.449-.031.637c-.103 1.365 1.174 1.094 1.174 1.094h15.779c0 0 1.17.049 1.117-1.094l-.039-.768-.619-12.361c0 0-.085-1-1.105-.996m-3.273 3h1v7.801.865h-5v1.734l-3-2.168 3-2.166v1.734h4v-7.801" transform="matrix(40.72898 0 0 40.72898 390.07-48.63)"/></g></svg>