<svg xmlns="http://www.w3.org/2000/svg" viewBox="0 0 22 22" xmlns:xlink="http://www.w3.org/1999/xlink"><path d="m740.86 187.66c0-12.912 12.526-23.416 27.922-23.416 15.397 0 27.923 10.505 27.923 23.416 0 12.912-12.526 23.416-27.923 23.416-1.295 0-2.594-.075-3.871-.223-5.93 3.767-10.308 5.829-13.02 6.131-.094.001-.189.016-.282.016-.872 0-1.678-.434-2.159-1.163-.537-.815-.572-1.848-.094-2.692.022-.04 2.116-3.861 1.512-7.51-6.37-4.458-10.01-10.973-10.01-17.975" fill="#4d4d4d" transform="matrix(.27816 0 0 .27816-204.9-42.686)" id="0"/><use transform="matrix(-.52926 0 0 .52926 21.454 9.643)" xlink:href="#0"/></svg>