<svg xmlns="http://www.w3.org/2000/svg" viewBox="0 0 22 22"><g fill="#4d4d4d"><path d="m8.939 3c-4.283 0-7.766 2.922-7.766 6.514 0 1.948 1.011 3.76 2.783 5 .168 1.015-.414 2.077-.42 2.088-.133.235-.124.523.025.75.134.203.359.322.602.322.026 0 .052-.0001.078-.004.755-.084 1.972-.657 3.621-1.705.355.041.716.063 1.076.063 4.283 0 7.768-2.922 7.768-6.514 0-3.591-3.485-6.514-7.768-6.514m-.752 3.939h.971v1.941h1.943v.971h-1.943v1.941h-.971v-1.941h-1.941v-.971h1.941v-1.941" transform="translate(0-.007)"/><path d="m740.86 187.66c0-12.912 12.526-23.416 27.922-23.416 15.397 0 27.923 10.505 27.923 23.416 0 12.912-12.526 23.416-27.923 23.416-1.295 0-2.594-.075-3.871-.223-5.93 3.767-10.308 5.829-13.02 6.131-.094.001-.189.016-.282.016-.872 0-1.678-.434-2.159-1.163-.537-.815-.572-1.848-.094-2.692.022-.04 2.116-3.861 1.512-7.51-6.37-4.458-10.01-10.973-10.01-17.975" transform="matrix(-.14722 0 0 .14722 129.9-12.949)"/></g></svg>