<svg xmlns="http://www.w3.org/2000/svg" viewBox="0 0 22 22"><g transform="translate(-421.71-525.79)" fill="#4d4d4d"><path d="m428.21 528.79c-.828 0-1.5.672-1.5 1.5.0001.635.401 1.2 1 1.412v9.09c0 1.105.895 2 2 2h1v2l3-2.5-3-2.5v2h-1c-.552 0-1-.448-1-1v-9.09c.599-.212.999-.777 1-1.412 0-.828-.672-1.5-1.5-1.5"/><path d="m437.21 544.79c.828 0 1.5-.672 1.5-1.5-.0001-.635-.401-1.2-1-1.412v-9.09c0-1.105-.895-2-2-2h-1v-2l-3 2.5 3 2.5v-2h1c.552 0 1 .448 1 1v9.09c-.599.212-.999.777-1 1.412 0 .828.672 1.5 1.5 1.5"/></g></svg>