<svg xmlns="http://www.w3.org/2000/svg" viewBox="0 0 22 22"><path d="m11 3c-4.432 0-8 3.568-8 8 0 4.432 3.568 8 8 8 4.432 0 8-3.568 8-8 0-4.432-3.568-8-8-8m0 4c.407 0 .791.078 1.16.189.256-.119.538-.189.84-.189 1.108 0 2 .892 2 2 0 .302-.071.584-.189.84.112.369.189.754.189 1.16 0 2.216-1.784 4-4 4-2.216 0-4-1.784-4-4 0-2.216 1.784-4 4-4m0 1c-1.662 0-3 1.338-3 3 0 1.662 1.338 3 3 3 1.662 0 3-1.338 3-3 0-.09-.023-.172-.031-.26-.288.16-.614.26-.969.26-1.108 0-2-.892-2-2 0-.354.099-.681.26-.969-.087-.008-.17-.031-.26-.031m2 0c-.14 0-.272.028-.393.08-.12.052-.228.127-.318.219-.178.18-.289.427-.289.701 0 .554.446 1 1 1 .274 0 .521-.111.701-.289.092-.091.167-.198.219-.318.052-.12.08-.253.08-.393 0-.554-.446-1-1-1" mix-blend-mode="normal" solid-color="#000000" color-interpolation-filters="linearRGB" color="#000" image-rendering="auto" color-rendering="auto" isolation="auto" color-interpolation="sRGB" solid-opacity="1" fill="#4d4d4d" shape-rendering="auto"/></svg>