<svg xmlns="http://www.w3.org/2000/svg" viewBox="0 0 22 22"><defs><linearGradient gradientUnits="userSpaceOnUse" y2="-2.623" x2="0" y1="986.67" id="0"><stop stop-color="#ffce3b"/><stop offset="1" stop-color="#ffd762"/></linearGradient><linearGradient y2="-2.623" x2="0" y1="986.67" gradientUnits="userSpaceOnUse"><stop stop-color="#ffce3b"/><stop offset="1" stop-color="#fef4ab"/></linearGradient></defs><g transform="matrix(.99843 0 0 .99843-552.8-582.2)"><g transform="matrix(1.34313 0 0 1.34313 553.93-808.6)"><g transform="matrix(.37943 0 0 .37943 1.205 1038.03)"><g fill="#4d4d4d"><path d="m4.8 32.02c-.5 0-.9-.344-1-.774l-.7-5.246h8.1 13.6 8.1l-.7 5.246c-.1.43-.5.774-1 .774z"/><path d="m31.8 27l-.5 5h-26.5l-.5-5h6.4 14.8 6.3m2.2-2h-10-22l.497 7.2c.1 1 .698 1.8 1.698 1.8h27.711c1 0 1.598-.8 1.698-1.8z" transform="matrix(1 0 0 .82172 0 4.457)"/></g><path stroke-miterlimit="10" d="m25 26h-14-7.8l-.2-1 2.7-21.3c.1-1 .697-1.7 1.697-1.7h21.21c1 0 1.497.7 1.697 1.7l2.7 21.3-.6 1" fill="none" stroke="#4d4d4d" stroke-linejoin="round" fill-opacity=".12" stroke-width="2"/></g><path d="m412.90001 538.24488a.423586 .366591 0 0 0 -.42359 .3666 .423586 .366591 0 0 0 .42359 .36658 .423586 .366591 0 0 0 .42358 -.36658 .423586 .366591 0 0 0 -.42358 -.3666m2.118 0l-.847.733 1.694 1.466-1.694 1.466.847.733 2.542-2.2-2.542-2.2m-3.38869 2.19956a.847167 .733178 0 0 0 -.84716 .73318 .847167 .733178 0 0 0 .84716 .73318 .847167 .733178 0 0 0 .84718 -.73318 .847167 .733178 0 0 0 -.84718 -.73318m1.69435 2.19954a.847167 .733178 0 0 0 -.84717 .73317 .847167 .733178 0 0 0 .84717 .73319 .847167 .733178 0 0 0 .84718 -.73319 .847167 .733178 0 0 0 -.84718 -.73317" fill="#4d4d4d" transform="matrix(.81924 0 0 .81924-331.34 599.89)"/></g><g transform="translate(549.5-443.22)"><rect width="8" height="8" x="7" y="1037.36" fill="#32c671" rx="4"/><path d="m123.86 12.966l-11.08-11.08c-1.52-1.521-3.368-2.281-5.54-2.281-2.173 0-4.02.76-5.541 2.281l-53.45 53.53-23.953-24.04c-1.521-1.521-3.368-2.281-5.54-2.281-2.173 0-4.02.76-5.541 2.281l-11.08 11.08c-1.521 1.521-2.281 3.368-2.281 5.541 0 2.172.76 4.02 2.281 5.54l29.493 29.493 11.08 11.08c1.52 1.521 3.367 2.281 5.54 2.281 2.172 0 4.02-.761 5.54-2.281l11.08-11.08 58.986-58.986c1.52-1.521 2.281-3.368 2.281-5.541.0001-2.172-.761-4.02-2.281-5.54" fill="#fff" transform="matrix(.0436 0 0 .0436 8.177 1039.72)" stroke="none" stroke-width="9.512"/></g></g></svg>