<svg xmlns="http://www.w3.org/2000/svg" viewBox="0 0 22 22"><g transform="translate(-327-533.36)"><path d="m43.887-36.699c-1.108 0-2 .892-2 2v81.61l111 .24v-70.04c0-1.108-.892-2-2-2h-60.17c-2.039.18-2.301-.09-3.308-1.435-1.429-1.912-3.586-7.06-4.992-8.929-1.129-1.633-1.312-1.443-3.184-1.443z" color="#000" transform="matrix(.19082 0 0 .19082 319.42 543.38)" fill="#4d4d4d"/><g transform="matrix(.06638 0 0 .06638 333.82 541.55)" fill="#2ecc71"><path d="m124.02 7.191c-1.031-1.031-2.254-1.548-3.666-1.548-1.412 0-2.633.517-3.666 1.548l-10.591 10.511c-5.812-5.486-12.466-9.737-19.961-12.751-7.494-3.01-15.209-4.521-23.14-4.521-14.937 0-27.972 4.521-39.11 13.565-11.135 9.04-18.467 20.842-21.998 35.399v.57c0 .706.258 1.317.774 1.833.516.516 1.127.774 1.833.774h16.213c1.195 0 2.01-.625 2.444-1.874 2.281-5.431 3.72-8.608 4.318-9.532 3.802-6.192 8.853-11.05 15.15-14.584 6.301-3.53 13.09-5.296 20.368-5.296 10.918 0 20.396 3.721 28.435 11.162l-11.245 11.243c-1.03 1.032-1.547 2.255-1.547 3.667 0 1.412.517 2.634 1.547 3.666 1.033 1.032 2.256 1.548 3.668 1.548h36.5c1.412 0 2.634-.516 3.666-1.548 1.031-1.032 1.547-2.254 1.547-3.666v-36.5c0-1.412-.513-2.634-1.547-3.666"/><path d="m120.93 73.43h-15.644c-1.194 0-2.01.624-2.443 1.874-2.28 5.432-3.72 8.608-4.317 9.532-3.803 6.19-8.854 11.05-15.15 14.583-6.301 3.531-13.09 5.296-20.368 5.296-5.268 0-10.347-.977-15.235-2.933-4.888-1.956-9.261-4.727-13.12-8.312l11.162-11.161c1.032-1.031 1.548-2.255 1.548-3.666 0-1.412-.516-2.635-1.548-3.666-1.032-1.033-2.254-1.549-3.666-1.549h-36.5c-1.413 0-2.635.516-3.667 1.549-1.032 1.031-1.548 2.254-1.548 3.666v36.5c0 1.411.516 2.635 1.548 3.666 1.033 1.031 2.255 1.549 3.667 1.549 1.412 0 2.634-.518 3.666-1.549l10.51-10.511c5.812 5.54 12.425 9.804 19.839 12.791 7.414 2.988 15.09 4.481 23.02 4.481 14.883 0 27.864-4.521 38.944-13.565 11.08-9.04 18.358-20.843 21.835-35.399.055-.108.081-.299.081-.57 0-.706-.259-1.316-.775-1.833-.517-.514-1.128-.773-1.834-.773"/></g></g></svg>