<svg xmlns="http://www.w3.org/2000/svg" viewBox="0 0 22 22"><defs><clipPath><path d="m.09-.09h64v64h-64z"/></clipPath><clipPath><path d="m.09-.09h64v64h-64z"/></clipPath><clipPath><path d="m.09-.09h64v64h-64z"/></clipPath><clipPath><path d="m.09-.09h64v64h-64z"/></clipPath><clipPath><path d="m.09-.09h64v64h-64z"/></clipPath><clipPath><path d="m.09-.09h64v64h-64z"/></clipPath></defs><g transform="translate(0-1030.36)" fill="#4d4d4d"><circle cx="3.5" cy="1042.86" r=".5"/><circle cx="4.5" cy="1044.86" r=".5"/><circle cx="5.5" cy="1046.86" r=".5"/><circle cx="7.5" cy="1047.86" r=".5"/><circle cx="9.5" cy="1048.86" r=".5"/><circle cx="4.5" cy="1037.86" r=".5"/><circle cx="3.5" cy="1039.86" r=".5"/><circle cx="5.5" cy="1035.86" r=".5"/><circle cx="7.5" cy="1034.86" r=".5"/><circle cx="9.5" cy="1033.86" r=".5"/><circle cx="14.5" cy="1034.86" r=".5"/><circle cx="12.5" cy="1033.86" r=".5"/><circle cx="16.5" cy="1035.86" r=".5"/><circle cx="17.5" cy="1037.86" r=".5"/><circle cx="18.5" cy="1039.86" r=".5"/><circle cx="18.5" cy="1042.86" r=".5"/><circle cx="17.5" cy="1044.86" r=".5"/><circle cx="16.5" cy="1046.86" r=".5"/><circle cx="14.5" cy="1047.86" r=".5"/><circle cx="12.5" cy="1048.86" r=".5"/></g></svg>