<svg xmlns="http://www.w3.org/2000/svg" viewBox="0 0 22 22"><defs><clipPath><path d="m.09-.09h64v64h-64z"/></clipPath><clipPath><path d="m.09-.09h64v64h-64z"/></clipPath><clipPath><path d="m.09-.09h64v64h-64z"/></clipPath><clipPath><path d="m.09-.09h64v64h-64z"/></clipPath><clipPath><path d="m.09-.09h64v64h-64z"/></clipPath><clipPath><path d="m.09-.09h64v64h-64z"/></clipPath></defs><path d="m3.035 10.264c-.023.245-.035.49-.035.736 0 4.418 3.582 8 8 8 4.418 0 8-3.582 8-8-.002-.238-.014-.476-.037-.713-.394 1.538-3.841 2.713-7.963 2.713-4.144-.0001-7.601-1.188-7.965-2.736" fill="#bdc3c7"/><path d="M11 3A8 8 0 0 0 3 11 8 8 0 0 0 11 19 8 8 0 0 0 19 11 8 8 0 0 0 11 3M11 4A7 7 0 0 1 18 11 7 7 0 0 1 11 18 7 7 0 0 1 4 11 7 7 0 0 1 11 4" fill="#4d4d4d"/></svg>