<svg xmlns="http://www.w3.org/2000/svg" viewBox="0 0 22 22"><g fill="#4d4d4d"><path d="m4 9v8a7 1.999991 0 0 0 7 2 7 1.999991 0 0 0 7 -2v-8a7 1.999991 0 0 1 -1 1.025391v6.975a6 1 0 0 1 -6 1 6 1 0 0 1 -6 -1v-6.975a7 1.999991 0 0 1 -1 -1.025391"/><path d="M4 9A7 3 0 0 0 11 12 7 3 0 0 0 18 9H17A6 2 0 0 1 11 11 6 2 0 0 1 5 9H4"/><path d="M11 3A7 6.00001 0 0 0 4 9H5A6 5 0 0 1 11 4 6 5 0 0 1 17 9H18A7 6.00001 0 0 0 11 3"/><path d="M11 3A7 6.00001 0 0 0 9.917969 3.076172C8.12 4.553 7.24 7.235 7.04 9.5A6 2 0 0 0 11 10C11.36 6.989 12.588 5.04 13.686 3.461A7 6.00001 0 0 0 11 3" fill-rule="evenodd"/></g></svg>