<svg xmlns="http://www.w3.org/2000/svg" viewBox="0 0 22 22"><defs><clipPath><path d="m.09-.09h64v64h-64z"/></clipPath><clipPath><path d="m.09-.09h64v64h-64z"/></clipPath><clipPath><path d="m.09-.09h64v64h-64z"/></clipPath><clipPath><path d="m.09-.09h64v64h-64z"/></clipPath><clipPath><path d="m.09-.09h64v64h-64z"/></clipPath><clipPath><path d="m.09-.09h64v64h-64z"/></clipPath></defs><g fill="#4d4d4d"><path d="m14 3l-5.264 7.178a4.5 4.5 0 0 1 .953125 .392578l4.428-6.04 3.352 3.352-6.04 4.432a4.5 4.5 0 0 1 .396485 .947266l7.176-5.262-5-5m-10.252 13.98l-.748 1.02 1 1 1.02-.748a4.5 4.5 0 0 1 -1.271484 -1.271484" fill-rule="evenodd"/><path d="m7.5 10c-1.193.0001-2.337.476-3.18 1.32a4.5 4.5 0 0 0 -.626953 .78711l6.201 6.201a4.5 4.5 0 0 0 .785157 -.628906c.844-.843 1.319-1.987 1.32-3.18 0-2.485-2.01-4.5-4.5-4.5m0 1c1.933 0 3.5 1.567 3.5 3.5-.0001.928-.371 1.817-1.027 2.473l-4.945-4.945c.655-.657 1.545-1.026 2.473-1.027"/><g fill-rule="evenodd"><path d="m5.914 3.086l-2.828 2.83 3.672 3.67 2.828-2.828-3.672-3.672m9.328 9.328l-2.828 2.83 3.672 3.672 2.828-2.83-3.672-3.672" shape-rendering="auto" mix-blend-mode="normal" color-interpolation-filters="linearRGB" isolation="auto" white-space="normal" solid-opacity="1" image-rendering="auto" solid-color="#000000" color="#000" color-rendering="auto" color-interpolation="sRGB"/><path d="m5.787 14.201l-1.396 1.904a3.5 3.5 0 0 0 1.505859 1.501953l1.902-1.395-2.01-2.01"/></g></g></svg>