<svg xmlns="http://www.w3.org/2000/svg" viewBox="0 0 22 22"><path d="m9 1035.36c-3.866 0-7 2.679-7 5.984 0 3.305 2.134 5.766 6 5.766-3.222 0-4.834-3.01-4.834-5.766 0-2.754 2.612-4.987 5.834-4.987 1.456 0 2.771.474 3.793 1.228a5 3.916494 0 0 0 -1.792969 -.2658 5 3.916494 0 0 0 -5 3.9165c0 0 0 0 0 .001a5 3.916494 0 0 0 .019531 .3175c.193 3.23 3.239 5.8 6.98 5.8 3.866 0 7-2.742 7-6.123 0-3.381-2.134-5.877-6-5.877 3.222 0 4.834 3.057 4.834 5.875 0 2.818-2.612 5.102-5.834 5.102-1.673 0-3.177-.62-4.24-1.606a5 3.916494 0 0 0 2.240235 .4183 5 3.916494 0 0 0 4.992188 -3.8075h.008c0-.019-.004-.038-.004-.057a5 3.916494 0 0 0 .0039 -.052 5 3.916494 0 0 0 -.03125 -.3997c-.303-3.066-3.304-5.475-6.969-5.475" fill="#4d4d4d" transform="translate(0-1030.36)"/></svg>