<svg xmlns="http://www.w3.org/2000/svg" viewBox="0 0 22 22"><g transform="translate(0-1030.36)" fill="#4d4d4d"><circle cx="11" cy="1041.36" r="2"/><path d="M11 6A5 5 0 0 0 6 11 5 5 0 0 0 11 16 5 5 0 0 0 16 11 5 5 0 0 0 11 6M11 7A4 4 0 0 1 15 11 4 4 0 0 1 11 15 4 4 0 0 1 7 11 4 4 0 0 1 11 7" transform="translate(0 1030.36)"/><circle cx="896.76" cy="-534.49" r="1.5" transform="matrix(-.5.86603-.86603-.5 0 0)"/><path d="M11 3A8 8 0 0 0 3 11 8 8 0 0 0 11 19 8 8 0 0 0 19 11 8 8 0 0 0 11 3M11 4A7 7 0 0 1 18 11 7 7 0 0 1 11 18 7 7 0 0 1 4 11 7 7 0 0 1 11 4" transform="translate(0 1030.36)"/><circle cx="528.19" cy="903.86" r="1.5" transform="matrix(.86603.5-.5.86603 0 0)"/></g></svg>