<svg xmlns="http://www.w3.org/2000/svg" viewBox="0 0 22 22"><defs><clipPath><path d="m.09-.09h64v64h-64z"/></clipPath><clipPath><path d="m.09-.09h64v64h-64z"/></clipPath><clipPath><path d="m.09-.09h64v64h-64z"/></clipPath><clipPath><path d="m.09-.09h64v64h-64z"/></clipPath><clipPath><path d="m.09-.09h64v64h-64z"/></clipPath><clipPath><path d="m.09-.09h64v64h-64z"/></clipPath></defs><g transform="translate(0-1030.36)"><path d="m5 3l2.813 15h5.438l3.75-15h-12" transform="translate(0 1030.36)" fill="#4d4d4d" fill-rule="evenodd"/><circle cy="1031.77" cx="-125.85" transform="matrix(.99131-.13157.13157.99131 0 0)" r="3" fill="#bdc3c7"/><g fill="#fdbc4d"><path d="m19.418 1034.36c-1.655-.018-6.429 2.271-10.156 5.234-4.26 3.387-7.934 7.918-7.158 8.73.145.152 1.552-.233 2-.449.687-.249 1.808-.711 3.156-1.451l-.084-.451c-1.296.645-2.211.861-2.529.527-.656-.687 1.896-3.134 5.496-5.996 3.599-2.862 6.647-4.763 7.303-4.076.4.419-.269 1.476-1.709 3.01.071.119.113.266.172.389 2.182-2.177 4.548-4.757 4.01-5.316-.097-.102-.269-.152-.506-.154"/><path d="m2 1049.36h18v1h-18z"/></g><g fill="#bdc3c7"><circle cx="6.5" cy="1034.86" r=".5"/><circle cx="9.5" cy="1045.86" r=".5"/><circle cx="13.5" cy="1034.86" r=".5"/><circle cx="12.5" cy="1043.86" r=".5"/></g></g></svg>