<svg xmlns="http://www.w3.org/2000/svg" viewBox="0 0 22 22"><g transform="translate(0-1030.36)" fill="#4d4d4d"><path d="m1 1038.36h1v6h-1z"/><path d="m10 1038.36h1v6h-1z"/><path d="m12 1040.36h1v9h-1z"/><path d="m19 1040.36h1v9h-1z"/><path d="m19 1037.36h1v1h-1z"/><path d="m15 1040.3622a3 3 0 0 0 -3 3h1a2 2 0 0 1 2 -2 2 2 0 0 1 2 2h1a3 3 0 0 0 -3 -3"/><path d="m6 1033.3622a5 5 0 0 0 -5 5h1a4 4 0 0 1 4 -4 4 4 0 0 1 4 4h1a5 5 0 0 0 -5 -5"/><path d="m6 1049.3622a5 5 0 0 1 -5 -5h1a4 4 0 0 0 4 4 4 4 0 0 0 4 -4h1a5 5 0 0 1 -5 5"/></g></svg>