<svg xmlns="http://www.w3.org/2000/svg" viewBox="0 0 22 22"><defs><clipPath><path d="m.09-.09h64v64h-64z"/></clipPath><clipPath><path d="m.09-.09h64v64h-64z"/></clipPath><clipPath><path d="m.09-.09h64v64h-64z"/></clipPath><clipPath><path d="m.09-.09h64v64h-64z"/></clipPath><clipPath><path d="m.09-.09h64v64h-64z"/></clipPath><clipPath><path d="m.09-.09h64v64h-64z"/></clipPath></defs><path d="m16.279 1033.36l-4.357 7.359-3.465 1.848-2.996 1.188-2.461 5.221.818.385 2.309-4.897 2.711-1.074 3.295-1.756 2.855 2.152 4.01-5.402-2.721-5.02m-.035 1.838l1.684 3.109-3.123 4.205-2-1.508 3.439-5.807" shape-rendering="auto" mix-blend-mode="normal" color-interpolation-filters="linearRGB" isolation="auto" white-space="normal" fill="#4d4d4d" solid-opacity="1" image-rendering="auto" solid-color="#000000" color="#000" fill-rule="evenodd" color-rendering="auto" color-interpolation="sRGB" transform="translate(0-1030.36)"/></svg>