<svg xmlns="http://www.w3.org/2000/svg" viewBox="0 0 22 22"><defs><clipPath><path d="m.09-.09h64v64h-64z"/></clipPath><clipPath><path d="m.09-.09h64v64h-64z"/></clipPath><clipPath><path d="m.09-.09h64v64h-64z"/></clipPath><clipPath><path d="m.09-.09h64v64h-64z"/></clipPath><clipPath><path d="m.09-.09h64v64h-64z"/></clipPath><clipPath><path d="m.09-.09h64v64h-64z"/></clipPath></defs><g transform="translate(0-1030.36)" fill="#4d4d4d"><path d="m9.995 1033.38c-1.193 3.195-3.765 5.713-6.995 6.835v1.308c3.911-1.217 7.02-4.268 8.312-8.143h-1.316"/><path d="m16.274 1033.38c-1.525 6.519-6.711 11.628-13.274 13.05v1.269c7.244-1.462 12.972-7.117 14.543-14.317h-1.27"/><path d="m19 1042.2c-1.887 2.89-4.394 5.339-7.33 7.162h2.22c1.935-1.416 3.657-3.108 5.11-5.01v-2.149"/><g fill-rule="evenodd"><path d="m3.01 1033.38v.953l15.04 14.971.888.001.006-.855-15.13-15.07h-.807z"/><path d="m3.569 1037.84l-.538-1.256-.015 3.02 4.297 9.694h1.333l-5.077-11.458z"/><path d="m9.432 1033.36h-2.906l12.41 5.465.004-1.345-9.508-4.119"/></g></g></svg>