<svg xmlns="http://www.w3.org/2000/svg" viewBox="0 0 22 22"><path d="m10.704 1033.61c-1.902.796-3.01 2.559-3.511 4.471-.04.159-.26.791-.26 1.566v2.866c-.058 1.557-1.164 2.509-2.314 3.367-.536.379-1.095.709-1.619 1.099l.003 2.38c2.969-.001 4.281-.021 6.273-.016 1.604-2.462 2.671-4.191 2.694-6.751v-2.944c.07-.624.304-1.281.811-1.339.887-.048 1.616.204 2.094.509.266.172.851.548 1.771.548h1.367.987v-5.01h-1.141c-.805.065-1.435-.479-2.172-.744-.368-.091-.999-.251-1.755-.251-1.095.027-2.097-.043-3.227.251" fill="#4d4d4d" fill-rule="evenodd" transform="translate(0-1030.36)"/></svg>