<svg xmlns="http://www.w3.org/2000/svg" viewBox="0 0 22 22"><path d="M8 3A5 5 0 0 1 7.916016 3.884766 5.00002 5.00002 0 0 1 7.804688 4.369141 5.00002 5.00002 0 0 1 7.804688 4.371094 5.00002 5.00002 0 0 1 7.642578 4.845703 5.00002 5.00002 0 0 1 7.642578 4.847656 5 5 0 0 1 5.04492 7.554688 5.00002 5.00002 0 0 1 4.589844 7.734375 5.00002 5.00002 0 0 1 4.580078 7.738281 5 5 0 0 1 4.568359 7.742188 5.00002 5.00002 0 0 1 4.113281 7.869141 5.00002 5.00002 0 0 1 4.097656 7.873047 5 5 0 0 1 3 8V9A6.00002 6.00002 0 0 0 4.414063 8.824219L5.365 11.676C4.6 11.887 3.804 11.998 3 12V12.662C4.684 12.662 6.332 12.248 7.801 11.475L8.471 12.527 9.01 13.369V13.371A12 12 0 0 0 9.851563 12.835938L9.848 12.83C11.922 11.383 13.541 9.291 14.375 6.771L16.529 7.387 17.27 7.635C17.744 6.16 17.997 4.554 18 3H17C16.996 4.116 16.845 5.262 16.574 6.359L8.881 4.16A6.00002 6.00002 0 0 0 9 3H8M8.609 5.123L13.418 6.498C12.653 8.777 11.187 10.673 9.313 11.99L8.664 10.971 8.24 10.303A9 9 0 0 1 7.541016 10.753906C7.146 10.986 6.733 11.178 6.311 11.348L5.365 8.512A6.00002 6.00002 0 0 0 8.609375 5.123047M12.12305 10.789062A12 12 0 0 1 11.441406 11.521484L12.893 12.869C10.279 15.492 6.73 16.997 3 17V18C7.01 17.994 10.816 16.368 13.617 13.541L15.826 15.594A18 18 0 0 1 11.189453 19H13.209A19 19 0 0 0 16.554688 16.271484L16.564 16.279A19 19 0 0 0 17.246094 15.546875L17.24 15.543A19 19 0 0 0 19 13.246094V11.207A18 18 0 0 1 16.492188 14.847656L14.313 12.822 13.586 12.148 12.12 10.789" fill="#4d4d4d"/></svg>