<svg xmlns="http://www.w3.org/2000/svg" viewBox="0 0 22 22"><defs><clipPath><path d="m.09-.09h64v64h-64z"/></clipPath><clipPath><path d="m.09-.09h64v64h-64z"/></clipPath><clipPath><path d="m.09-.09h64v64h-64z"/></clipPath><clipPath><path d="m.09-.09h64v64h-64z"/></clipPath><clipPath><path d="m.09-.09h64v64h-64z"/></clipPath><clipPath><path d="m.09-.09h64v64h-64z"/></clipPath></defs><g transform="translate(0-1030.36)"><ellipse cy="1032.56" cx="-116.1" transform="matrix(.98989-.14184.12202.99253 0 0)" rx="5.01" ry="5.398" fill="#4d4d4d"/><path d="m17.895 1033.92c-.881.365-2.468 1.11-4.344 2.444.129.081.254.171.377.265 1.79-1.174 3.035-1.602 3.424-1.137.656.785-1.897 3.581-5.496 6.852-3.6 3.271-6.648 5.445-7.304 4.66-.4-.478.271-1.689 1.71-3.446-.071-.136-.113-.303-.172-.444-2.182 2.488-4.548 5.437-4.01 6.077.776.928 6.403-1.935 10.662-5.806 4.26-3.871 7.933-9.05 7.157-9.978-.145-.174-1.55.268-2 .514" fill="#bdc3c7"/></g></svg>