<svg xmlns="http://www.w3.org/2000/svg" viewBox="0 0 22 22"><defs><clipPath id="4"><path d="m.09-.09h64v64h-64z"/></clipPath><clipPath id="5"><path d="m.09-.09h64v64h-64z"/></clipPath><clipPath id="3"><path d="m.09-.09h64v64h-64z"/></clipPath><clipPath id="1"><path d="m.09-.09h64v64h-64z"/></clipPath><clipPath id="0"><path d="m.09-.09h64v64h-64z"/></clipPath><clipPath id="2"><path d="m.09-.09h64v64h-64z"/></clipPath></defs><g fill="#4d4d4d"><path transform="matrix(.25 0 0 .24965 2.977 3.02)" d="m70.1 46.753c-22.83 14.176-52.04 13.966-74.69-.619l-3.602 3.602c24.698 16.4 56.998 16.598 81.892.619l-3.602-3.602" clip-path="url(#0)"/><g fill-rule="evenodd"><path d="m32.09-3.287l-2.708 2.186.172 68.862 2.499 2.051 2.443-1.95-.122-69.29-2.284-1.857" clip-path="url(#1)" transform="matrix(.25 0 0 .24965 2.977 3.045)"/><path transform="matrix(.25 0 0 .24965 2.977 3.02)" d="m21.534-6.305l-3.318 1.049-24.913 64.2 1.581 2.82 2.985-.926 25.12-64.58-1.451-2.561" clip-path="url(#2)"/><path transform="matrix(.25 0 0 .24965 2.977 3.02)" d="m42.797-7.872l-1.74 3.01 24.96 64.18 3.07 1.013 1.577-2.699-25.07-64.6-2.799-.91" clip-path="url(#3)"/></g><path transform="matrix(.25 0 0 .24965 2.977 3.02)" d="m71.55 23.05c-22.83 14.176-52.04 13.966-74.69-.619l-3.602 3.602c24.698 16.4 56.998 16.598 81.892.619l-3.602-3.602" clip-path="url(#4)"/><path transform="matrix(.25 0 0 .24965 2.977 3.02)" d="m70.49-.326c-22.83 14.176-52.04 13.966-74.69-.619l-3.602 3.602c24.698 16.4 56.998 16.598 81.892.619l-3.602-3.602" clip-path="url(#5)"/></g></svg>