<svg xmlns="http://www.w3.org/2000/svg" viewBox="0 0 22 22"><path d="m54.822 83.3c-.143 1.545 1.084 2.918 2.727 3.055l19.926 1.637c1.643.138 3.105-1.018 3.25-2.562l1.555-16.432-25.9-2.132-1.558 16.434m-49.1-14.302l1.557 16.432c.143 1.544 1.607 2.7 3.25 2.562l19.926-1.637c1.639-.137 2.867-1.51 2.727-3.055l-1.557-16.434-25.903 2.132m-2.567-27.08l1.606 16.951 25.902-2.131-1.605-16.933c-.037-.407-.057-.829-.057-1.245 0-7.777 6.729-14.11 15-14.11 8.271 0 15 6.329 15 14.11 0 .416-.02.838-.057 1.246l-1.605 16.932 25.902 2.131 1.605-16.951c.102-1.12.155-2.244.155-3.358 0-21.261-18.393-38.555-41-38.555-22.607 0-41 17.294-41 38.555 0 1.114.053 2.238.154 3.358" transform="matrix(.18182 0 0-.18182 3 19)" fill="#4d4d4d"/></svg>