<svg xmlns="http://www.w3.org/2000/svg" viewBox="0 0 22 22"><path d="m11 3c-4.418 0-8 3.582-8 8 0 4.418 3.582 8 8 8 4.418 0 8-3.582 8-8 0-4.418-3.582-8-8-8m-.154 1.553c.083-.003.167.002.25.006.167.003.332.018.498.033.331.039.662.096.982.182.642.168 1.252.426 1.799.756.069.04.136.083.201.127.066.044.133.086.197.131.127.092.255.18.373.279.243.191.464.4.67.611.407.427.745.88 1.01 1.33.262.45.451.892.588 1.295.139.403.22.77.271 1.072.012.076.024.147.035.215.009.07.016.139.023.201.007.063.012.121.018.174.005.052.007.089.001.127.001.146.014.225.014.225l-1.627.041c0 0 .002-.078.004-.225 0-.035.003-.081.002-.119-.0001-.037-.003-.078-.004-.121-.0001-.044-.002-.091-.004-.141-.004-.053-.009-.11-.014-.17-.021-.239-.061-.531-.145-.857-.082-.327-.203-.69-.383-1.068-.179-.379-.424-.768-.729-1.146-.155-.187-.321-.375-.51-.549-.091-.091-.192-.171-.291-.258-.05-.042-.102-.082-.154-.123-.052-.042-.107-.082-.162-.119-.435-.314-.932-.575-1.469-.764-.268-.096-.548-.167-.832-.225-.143-.025-.286-.052-.432-.066-.073-.009-.146-.018-.219-.021l-.109-.008-.055-.004-.027-.002h-.014-.008c.002 0-.014-.0001.004-.002-.154-.0001-.322-.008-.457 0-.141.0001-.287.015-.434.027-.292.034-.583.08-.865.154-.566.145-1.104.371-1.588.66-.062.034-.122.07-.18.109-.058.038-.117.076-.174.115-.112.082-.227.159-.332.246-.216.167-.41.351-.594.537-.362.376-.664.776-.896 1.174-.233.397-.403.786-.525 1.143-.125.356-.197.679-.244.947-.011.067-.023.132-.033.191-.007.06-.013.117-.02.17-.013.105-.024.194-.027.268-.009.147-.014.225-.014.225 0 0-.002-.078-.004-.225-.003-.074-.0001-.165.004-.271.002-.053.005-.111.008-.172.005-.061.012-.125.018-.193.026-.274.071-.609.168-.982.096-.374.239-.789.447-1.221.207-.432.488-.874.838-1.303.178-.212.369-.425.584-.623.105-.102.22-.196.334-.293.058-.048.118-.092.178-.139.059-.047.12-.092.184-.135.497-.354 1.067-.65 1.68-.861.306-.107.624-.186.947-.25.162-.028.324-.056.496-.072.176-.023.324-.027.482-.039l.26-.004m2.148 4.463l-1.887 2.75c.049.323-.05.665-.299.912-.414.412-1.084.409-1.496-.006-.412-.414-.408-1.082.006-1.494.249-.248.59-.344.912-.293l2.764-1.869" transform="translate(.003.004)" fill="#4d4d4d"/></svg>