<svg xmlns="http://www.w3.org/2000/svg" viewBox="0 0 22 22"><path d="m412.39 537.33c-.401-.404-1.052-.404-1.453 0l-4.057 4.497-4.057-4.497c-.402-.404-1.052-.404-1.453 0-.402.404-.402 1.058 0 1.461l4.719 5.231c.217.218.507.314.791.296.284.018.574-.078.791-.296l4.719-5.231c.401-.404.401-1.058 0-1.461m-5.516-4.351c.935 0 1.693-.761 1.693-1.7 0-.939-.758-1.7-1.693-1.7-.935 0-1.693.761-1.693 1.7 0 .939.758 1.7 1.693 1.7m0 4.858c.935 0 1.693-.761 1.693-1.7 0-.939-.758-1.7-1.693-1.7-.935 0-1.693.761-1.693 1.7 0 .939.758 1.7 1.693 1.7" stroke="none" transform="matrix(1.08857 0 0 1.08522-431.92-571.71)" fill="#4d4d4d" stroke-opacity=".8"/></svg>