<svg xmlns="http://www.w3.org/2000/svg" viewBox="0 0 22 22"><g transform="translate(-544.57-742.93)" color="#4d4d4d"><path d="m557.24 759.11l.707-.707 1.621 1.621v-4.657h1v4.657l1.621-1.621.707.707-2.828 2.828-.707-.707-2.121-2.121"/><g fill-rule="evenodd"><path d="m549.57 751.93h-2v-2h1v1h1z"/><path d="m549.57 745.93h-2v2h1v-1h1z"/><path d="m551.57 751.93h2v-2h-1v1h-1z"/><path d="m551.57 745.93h2v2h-1v-1h-1z"/></g><path d="m12 3v1h6v6h1v-6-1h-7m-9 9v7h1 6v-1h-6v-6h-1" transform="translate(544.57 742.93)"/></g></svg>