<svg xmlns="http://www.w3.org/2000/svg" viewBox="0 0 22 22"><g transform="translate(-544.57-742.93)" color="#4d4d4d"><path d="m550.4 755.6l.707.707-1.621 1.621h4.657v1h-4.657l1.621 1.621-.707.707-2.828-2.828.707-.707 2.121-2.121"/><g fill-rule="evenodd"><path d="m553.57 747.93v-2h-2v1h1v1z"/><path d="m547.57 747.93v-2h2v1h-1v1z"/><path d="m553.57 749.93v2h-2v-1h1v-1z"/><path d="m547.57 749.93v2h2v-1h-1v-1z"/></g><path d="m12 3v1h6v6 2 6h-6v1h7v-1-6-2-7h-1-6" transform="translate(544.57 742.93)"/></g></svg>