<svg xmlns="http://www.w3.org/2000/svg" viewBox="0 0 22 22"><g transform="translate(-544.57-742.93)" color="#4d4d4d"><path d="m553.57 761.93h-6v-6h6v6m-1-1v-4h-4v4h4"/><g fill-rule="evenodd"><path d="m563.57 759.93v2h-2v-1h1v-1z"/><path d="m549.57 745.93h-2v2h1v-1h1z"/></g><path transform="scale(-1 1)" d="m-548.57 750.93h1v2h-1z"/><path d="m557.24 748.76l.707.707 1.621-1.621v4.657h1v-4.657l1.621 1.621.707-.707-2.828-2.828-.707.707-2.121 2.121"/><g transform="matrix(0-1-1 0 0 0)"><path d="m-761.93-558.57h1v2h-1z"/><path d="m-756.93-563.57h2v1h-2z"/><path d="m-746.93-554.57h1v2h-1z"/></g></g></svg>