<svg xmlns="http://www.w3.org/2000/svg" viewBox="0 0 22 22"><g transform="translate(-544.57-743.47)" color="#4d4d4d"><path d="m561.1 749.47c-.818 0-1.526.723-1.524 1.523-.002.8.706 1.477 1.524 1.477.818 0 1.478-.677 1.476-1.477.002-.8-.658-1.523-1.476-1.523"/><path d="m562.1 756.47c-.818 0-1.526.723-1.524 1.523-.002.8.706 1.477 1.524 1.477.818 0 1.478-.677 1.476-1.477.002-.8-.658-1.523-1.476-1.523"/><path d="m554.1 750.47c-.818 0-1.526.723-1.524 1.523-.002.8.706 1.477 1.524 1.477.818 0 1.478-.677 1.476-1.477.002-.8-.658-1.523-1.476-1.523"/><path d="m556.6 757.47c-.818 0-1.526.723-1.524 1.523-.002.8.706 1.477 1.524 1.477.818 0 1.478-.677 1.476-1.477.002-.8-.658-1.523-1.476-1.523"/><path d="m549.1 752.97c-.818 0-1.526.723-1.524 1.523-.002.8.706 1.477 1.524 1.477.818 0 1.478-.677 1.476-1.477.002-.8-.658-1.523-1.476-1.523"/><path d="m561.35 749.44l-.719 1.281-3.969 7.06-2.125-5.969-.188-.531-.5.25-5 2.5.438.875 4.5-2.25 2.313 6.469.375 1.031.531-.938 3.781-6.719.781 5.531 1-.125-1-7-.219-1.469"/></g></svg>