<svg xmlns="http://www.w3.org/2000/svg" viewBox="0 0 22 22"><path d="m3 3v16h1 16v-1-15h-16-1m1 1h13.719l-.469.469-.813.813-1.313 1.313-2.125-2.125-1.531 1.531-.469.469-.844.813-1.688 1.719h-1.469-1-1-1v-5m15 .125v13.719l-.281-.281-.75-.75-.844-.813-1.281-1.313-.719-.688-2.125 2.094-1.313-1.281-.813-.813-2-2h-1.875-1-1-1v-2h1 1 1 1.875l2-2 .813-.844 1.313-1.281 2.125 2.125 2-2 .844-.844 1.031-1.031m-15 8.875h1 1 1 1.469l1.688 1.688.844.844.469.469 1.531 1.531.531-.531 1.594-1.594 1.313 1.281.5.531.313.313.031.031.438.438h-13.719v-5" color="#4d4d4d"/></svg>