<svg xmlns="http://www.w3.org/2000/svg" viewBox="0 0 22 22"><g transform="translate(-544.57-740.47)" fill="none" stroke="#4d4d4d" color="#4d4d4d"><path d="m546.6 751.4c.547-.029 1.608-.122 2.628-.808.706-.038 1.02 3.365 1.488 3.565 1.92-.204 1.975-9.499 3.42-9.479.673-.049 2.332 13.04 3.254 13.04.751-.065 1.447-8.624 3.087-8.558.411-.038 1.906 2.216 3.26 2.388.245-.004.47-.077.766-.069"/><path d="m2 11c4 0 6-7.5 9-7.5 3 0 5 7.5 9 7.5" transform="translate(544.57 740.47)"/><path d="m546.57 751.47c4 0 6 7.5 9 7.5 3 0 5-7.5 9-7.5"/></g></svg>