<svg xmlns="http://www.w3.org/2000/svg" viewBox="0 0 22 22"><path d="m4 3v6 1 2 1 4h-1v1h1v1h1v-1h12.719 1.281v-.156-.844h-.844l-.188-.188-.844-.813-1.281-1.313-.719-.688-2.125 2.094-1.313-1.281-.813-.813-2-2h-1.875-1-1v-2h1 1 1.875l2-2 .813-.844 1.313-1.281 2.125 2.125 2-2 .844-.844 1.031-1.031v-.219h-.219l-.5-.469-1.031 1.031-.813.813-1.313 1.313-2.125-2.125-1.531 1.531-.469.469-.844.813-1.688 1.719h-1.469-1-1v-6h-1m1 10h1 1 1.469l1.688 1.688.844.844.469.469 1 1h-7.469v-4m10.125 2.406l1.313 1.281.295.313h-3.201l1.594-1.594" color="#4d4d4d"/></svg>