<svg xmlns="http://www.w3.org/2000/svg" viewBox="0 0 22 22"><g transform="translate(-544.57-742.93)" color="#4d4d4d"><path d="m547.57 755.93v6h6v-6h-6m1 1h4v4h-4v-4"/><g fill-rule="evenodd"><path d="m549.57 745.93h-2v2h1v-1h1z"/><path d="m563.57 759.93v2h-2v-1h1v-1z"/></g><path transform="matrix(0 1-1 0 0 0)" d="m760.93-558.57h1v2h-1z"/><path d="m560.74 752.26l-.707-.707 1.621-1.621h-4.657v-1h4.657l-1.621-1.621.707-.707 2.828 2.828-.707.707-2.121 2.121"/><path d="m547.57 750.93h1v2h-1z"/><path d="m552.57 745.93h2v1h-2z"/><path d="m562.57 754.93h1v2h-1z"/></g></svg>