<svg xmlns="http://www.w3.org/2000/svg" viewBox="0 0 22 22"><defs><clipPath><path fill="#00f" fill-opacity=".514" d="m-7 1024.36h34v34h-34z"/></clipPath><clipPath><path fill="#aade87" fill-opacity=".472" d="m-6 1028.36h32v32h-32z"/></clipPath></defs><g transform="translate(-445.71-526.09)"><g transform="translate(27-.965)" fill="#4d4d4d"><path d="m447.71 528.79l8.434 4.217-8.434 4.217-8.435-4.217z" transform="translate(-18-.034)"/><path d="m429.71 545l-6.083-3.042-2.351 1.176 8.435 4.217 8.434-4.217-2.351-1.176z"/></g><path d="m142.86 687.4l-63.733 63.731c-4.054 4.056-10.627 4.056-14.68 0-4.053-4.053-4.053-10.625 0-14.678l56.39-56.39-56.39-56.39c-4.053-4.054-4.053-10.626 0-14.679 4.053-4.054 10.625-4.054 14.68 0l63.733 63.732c2.026 2.027 3.038 4.681 3.038 7.337 0 2.657-1.014 5.313-3.04 7.339z" fill="#1d99f3" stroke-width="8.472" transform="matrix(-.00017.04721.04721.00017 424.62 534.4)" stroke="#1d99f3"/></g></svg>