<svg xmlns="http://www.w3.org/2000/svg" viewBox="0 0 22 22"><g transform="translate(-544.57-742.93)" fill="#4d4d4d"><path d="m555.57141 750.93359a8 3 0 0 0 -8 3h1a7 2 0 0 1 7 -2 7 2 0 0 1 7 2h1a8 3 0 0 0 -8 -3"/><path d="m555.57141 756.93359a8 3 0 0 0 8 -3h-1a7 2 0 0 1 -7 2 7 2 0 0 1 -7 -2h-1a8 3 0 0 0 8 3"/><path d="m547.57 749.93h1v8h-1z"/><path d="m562.57 749.93h1v8h-1z"/><path transform="translate(544.57 742.93)" d="M11 5A11 6 0 0 0 3 6.888672V8.01A10 5 0 0 1 11 6 10 5 0 0 1 19 8.00977V6.893A11 6 0 0 0 11 5"/><path d="m555.57141 759.93359a11 6 0 0 1 -8 -1.88867v-1.121a10 5 0 0 0 8 2.00977 10 5 0 0 0 8 -2.00977v1.117a11 6 0 0 1 -8 1.89258"/><path transform="translate(544.57 742.93)" d="m3 3v16h16v-16h-16m1 1h14v14h-14v-14"/></g></svg>