<svg xmlns="http://www.w3.org/2000/svg" viewBox="0 0 22 22"><defs><clipPath><path fill="#f2f2f2" d="m7 1023.36h1v1h-1z"/></clipPath></defs><path d="m11 3c-4.418 0-8 3.582-8 8 0 4.418 3.582 8 8 8 4.418 0 8-3.582 8-8 0-4.418-3.582-8-8-8m.109 3.428c0 0-.11.0001.393.021 2.362.204 4.178 2.18 4.18 4.551 0 2.525-2.048 4.572-4.572 4.572-2.525 0-4.572-2.048-4.572-4.572 0-2.525 2.048-4.572 4.572-4.572m0 1.145c-1.894 0-3.428 1.534-3.428 3.428 0 1.894 1.534 3.428 3.428 3.428 1.894 0 3.428-1.534 3.428-3.428 0-1.894-1.534-3.428-3.428-3.428m0 1.143c.234 0 .456.045.668.109-.393.18-.668.571-.668 1.033 0 .633.509 1.143 1.143 1.143.462 0 .853-.275 1.033-.668.065.212.109.434.109.668 0 1.266-1.019 2.285-2.285 2.285-1.266 0-2.285-1.019-2.285-2.285 0-1.266 1.019-2.285 2.285-2.285" transform="translate(0-.004)" fill="#1d99f3"/></svg>