<svg xmlns="http://www.w3.org/2000/svg" viewBox="0 0 22 22"><g transform="translate(-461.71-525.79)" color="#4d4d4d"><path d="m472.71429 528.79075a8 7.999992 0 0 0 -8 8 8 7.999992 0 0 0 8 8 8 7.999992 0 0 0 8 -8 8 7.999992 0 0 0 -8 -8m0 1a7 7 0 0 1 7 7 7 7 0 0 1 -7 7 7 7 0 0 1 -7 -7 7 7 0 0 1 7 -7"/><path d="m472.71429 531.79075a5 5 0 0 0 -5 5 5 5 0 0 0 5 5 5 5 0 0 0 3.5332 -1.4668l-.707-.707a4 4 0 0 1 -2.82617 1.17383 4 4 0 0 1 -4 -4 4 4 0 0 1 4 -4 4 4 0 0 1 2.82617 1.17383l.707-.707a5 5 0 0 0 -3.5332 -1.4668"/></g></svg>