<svg xmlns="http://www.w3.org/2000/svg" viewBox="0 0 22 22"><defs><clipPath><path fill="#f2f2f2" d="m7 1023.36h1v1h-1z"/></clipPath></defs><path d="m567.94 612.99l-.376-.343c-1.41-1.243-3.254-2-5.281-2-4.418 0-7.999 3.581-7.999 7.999 0 2.028.756 3.871 2 5.281l.343.376c.119.119.249.231.376.343 1.41 1.243 3.254 2 5.281 2 4.418 0 7.999-3.581 7.999-7.999 0-2.028-.756-3.871-2-5.281-.111-.126-.224-.257-.343-.376m-.7071.7071a7 7 0 0 1 1.58684 2.46521c.0001.002.003.004.004.007a7 7 0 0 1 .0193 .058 7 7 0 0 1 .16849 .49995c.046.158.081.321.116.483a7 7 0 0 1 .0359 .14639c.0001.003.0001.006.0001.001.04.213.068.43.088.649a7 7 0 0 1 .0138 .3066c.005.108.015.215.015.325 0 .014-.0001.028-.0001.043a7 7 0 0 1 -.0207 .39913c-.007.107-.009.216-.021.322a7 7 0 0 1 -.0359 .24031c-.023.159-.045.318-.079.474a7 7 0 0 1 -.003 .0138c-.008.035-.02.068-.028.102-.044.188-.092.372-.151.554a7 7 0 0 1 -.0414 .11601c-.063.184-.13.365-.207.541a7 7 0 0 1 -.0497 .1022c-.077.168-.158.333-.247.493a7 7 0 0 1 -.13949 .22788c-.071.117-.14.235-.218.348a7 7 0 0 1 -.17401 .23479c-.081.107-.163.214-.25.316a7 7 0 0 1 -.38393 .42261c-.164.164-.338.321-.518.468a7 7 0 0 1 -.0001 .0001c-.009.007-.019.012-.028.019-.163.132-.332.259-.507.377a7 7 0 0 1 -.26516 .1602c-.111.068-.221.136-.336.197a7 7 0 0 1 -.18368 .0898c-.152.076-.306.151-.464.215a7 7 0 0 1 -.11049 .0414c-.179.07-.36.134-.546.189a7 7 0 0 1 -.13673 .0345c-.173.047-.346.091-.523.126a7 7 0 0 1 -.28726 .0442c-.128.019-.256.04-.387.053a7 7 0 0 1 -.40742 .0207c-.084.003-.166.012-.25.012-.015 0-.029-.003-.044-.003a7 7 0 0 1 -.31627 -.0152c-.121-.006-.243-.001-.362-.022a7 7 0 0 1 -.27621 -.0387c-.132-.019-.264-.038-.394-.065a7 7 0 0 1 -.29555 -.069c-.104-.026-.208-.053-.311-.084a7 7 0 0 1 -.40465 -.13672c-.046-.017-.092-.033-.137-.051a7 7 0 0 1 -.50271 -.22097 7 7 0 0 1 -1.90726 -1.34378l9.899-9.899m-3.97621-1.97331a7 7 0 0 0 -.3425 -.047c.116.001.228.031.342.047m-.6491-.0608a7 7 0 0 0 -.36736 -.0138c.014 0 .028-.0001.043-.0001.11 0 .216.001.325.015m-.76648.0066a7 7 0 0 0 -.32179 .0207c.106-.011.214-.014.322-.021m-.6132.0663a7 7 0 0 0 -.40327 .0663c.132-.028.268-.046.403-.066m-.65186.12982a7 7 0 0 0 -.42951 .11739c.14-.045.285-.081.43-.117m-.65048.19749a7 7 0 0 0 -.42399 .16158c.138-.06.281-.11.424-.162m-.64496.26931a7 7 0 0 0 -.39775 .19887c.129-.072.264-.135.398-.199m-.63667.34388a7 7 0 0 0 -.33146 .20993c.108-.074.22-.142.331-.21m-.61872.42537a7 7 0 0 0 -.25136 .19611c.081-.069.167-.131.251-.196m-1.38659 1.41974a7 7 0 0 0 -.1685 .2265c.053-.078.113-.151.168-.226m-.34113.51238a7 7 0 0 0 -.18782 .31488c.058-.108.125-.21.188-.315m-.30798.56485a7 7 0 0 0 -.17401 .37565c.053-.128.114-.251.174-.376m-.26378.6201a7 7 0 0 0 -.14777 .42399c.043-.144.096-.284.148-.424m-.20716.65739a7 7 0 0 0 -.1022 .42261c.028-.143.066-.283.102-.423m-.15606.76926a7 7 0 0 0 -.0456 .34388c.011-.116.029-.229.046-.344m-.0663.7513a7 7 0 0 0 -.001 .29416c0-.015-.003-.029-.003-.044 0-.084.009-.166.012-.25m.0066.61044a7 7 0 0 0 .0221 .35908c-.012-.118-.016-.239-.022-.359m.0663.67396a7 7 0 0 0 .0553 .33146c-.022-.109-.038-.22-.055-.331m.14778.72506a7 7 0 0 0 .0552 .20164c-.02-.067-.038-.134-.055-.202m.2113.66706a7 7 0 0 0 .0373 .10081c-.013-.033-.025-.067-.037-.101" fill="#4d4d4d" transform="matrix(1.0001 0 0 1.0001-551.35-607.71)"/></svg>