<svg xmlns="http://www.w3.org/2000/svg" viewBox="0 0 22 22"><g transform="matrix(1.35382 0 0-1.35382-531.3 730.43)" stroke="#fdbc4b" stroke-width=".6" fill="#fdbc4b"><path d="m366.64 530.54c-.174.174-.385.261-.632.261-.248 0-.458-.087-.632-.261-.174-.174-.261-.385-.261-.633 0-.247.087-.458.261-.633.174-.174.385-.261.632-.261.248 0 .458.087.632.261.174.174.261.385.261.633 0 .247-.087.458-.261.633z" stroke-width=".498" transform="matrix(1.20542 0 0 1.20542-40.627-111.89)"/><rect ry=".8" y="529.37" x="399.82" height="7.646" width="1.5" fill-rule="evenodd" stroke-linejoin="round" stroke-linecap="round" stroke-width=".6" rx=".75"/></g></svg>