<svg xmlns="http://www.w3.org/2000/svg" viewBox="0 0 22 22"><g transform="matrix(1.76469 0 0 1.76469-50.25-1826.51)" fill="#4d4d4d"><g color="#000" stroke-width="1"><rect y="1041.86" x="29" height="1" width="7" rx=".5"/><rect y="1039.86" x="29" height="1" width="8" rx=".5"/><rect y="1037.86" x="29" height="1" width="10" rx=".5"/><rect y="1043.66" x="30" height="1" width="7" rx=".5"/></g><path d="m121.36 2.114l-11.08-11.08c-1.52-1.521-3.368-2.281-5.54-2.281-2.173 0-4.02.76-5.541 2.281l-53.45 53.53-23.953-24.04c-1.521-1.521-3.368-2.281-5.54-2.281-2.173 0-4.02.76-5.541 2.281l-11.08 11.08c-1.521 1.521-2.281 3.368-2.281 5.541 0 2.172.76 4.02 2.281 5.54l29.493 29.493 11.08 11.08c1.52 1.521 3.367 2.281 5.54 2.281 2.172 0 4.02-.761 5.54-2.281l11.08-11.08 58.986-58.986c1.52-1.521 2.281-3.368 2.281-5.541.0001-2.172-.761-4.02-2.281-5.54" transform="matrix(.03099 0 0 .03099 36.587 1040.97)"/></g></svg>