<svg xmlns="http://www.w3.org/2000/svg" viewBox="0 0 22 22"><g transform="matrix(1.55961 0 0 1.55961-42.04-1608.56)" fill="#4d4d4d"><g transform="translate(1-1.3)" color="#000"><rect y="1039.86" x="29" height="1" width="8" rx=".5" stroke-width="1"/><rect y="1041.86" x="29" height="1" width="8" rx=".5"/><rect y="1043.86" x="29" height="1" width="8" rx=".5"/></g><path d="m-595.85 19.881l-91.73 91.72c-5.835 5.838-15.295 5.838-21.13 0-5.833-5.833-5.833-15.292 0-21.12l81.16-81.16-81.16-81.16c-5.833-5.835-5.833-15.294 0-21.13 5.833-5.835 15.292-5.835 21.13 0l91.73 91.73c2.916 2.918 4.373 6.738 4.373 10.559 0 3.824-1.459 7.646-4.375 10.563z" stroke-width="28.316" transform="matrix(-.01875-.00007-.00007.01875 21.241 1035.35)" stroke="#4d4d4d"/></g></svg>