<svg xmlns="http://www.w3.org/2000/svg" viewBox="0 0 22 22"><defs><clipPath><path fill="#f2f2f2" d="m7 1023.36h1v1h-1z"/></clipPath><clipPath><path d="m22.2 686.12h1447.73v-667.19h-1447.73v667.19"/></clipPath><clipPath><path fill="#f2f2f2" d="m7 1023.36h1v1h-1z"/></clipPath><clipPath><path d="m0 706.47h1490.93v-706.47h-1490.93v706.47"/></clipPath><clipPath><path fill="#aade87" fill-opacity=".472" d="m-6 1028.36h32v32h-32z"/></clipPath><clipPath><path fill="#00f" fill-opacity=".514" d="m-7 1024.36h34v34h-34z"/></clipPath><clipPath><path fill="#f2f2f2" d="m7 1023.36h1v1h-1z"/></clipPath></defs><path d="m409 531l-5.244 6.733c-.983 1.262-.708 3.511.55 4.497 1.259.986 3.5.71 4.484-.552l5.244-6.733.655-.842c.656-.842.472-2.341-.367-2.998-.839-.658-2.334-.473-2.989.368l-.656.842-3.933 5.05-.656.842c-.328.421-.236 1.17.183 1.499.42.329 1.167.237 1.495-.184l4.589-5.891.839.658-4.589 5.891c-.656.842-2.15 1.026-2.989.368-.839-.658-1.023-2.157-.367-2.998l.656-.842 4.589-5.891c.983-1.262 3.225-1.538 4.484-.552 1.259.986 1.534 3.235.551 4.497l-.656.842-5.244 6.733c-1.311 1.683-4.3 2.051-5.978.736-1.678-1.315-2.045-4.313-.734-5.997l5.244-6.733.839.658" stroke-opacity=".8" stroke-width=".071" transform="matrix(1.13043 0 0 1.12695-451.47-593.91)" stroke="none" fill="#4d4d4d"/></svg>