<svg xmlns="http://www.w3.org/2000/svg" viewBox="0 0 22 22"><defs><clipPath><path fill="#f2f2f2" d="m7 1023.36h1v1h-1z"/></clipPath><clipPath><path fill="#f2f2f2" d="m7 1023.36h1v1h-1z"/></clipPath><clipPath><path fill="#f2f2f2" d="m7 1023.36h1v1h-1z"/></clipPath><clipPath><path fill="#f2f2f2" d="m7 1023.36h1v1h-1z"/></clipPath><clipPath><path fill="#f2f2f2" d="m7 1023.36h1v1h-1z"/></clipPath><clipPath><path fill="#00f" fill-opacity=".514" d="m-7 1024.36h34v34h-34z"/></clipPath><clipPath><path d="m22.2 686.12h1447.73v-667.19h-1447.73v667.19"/></clipPath><clipPath><path fill="#aade87" fill-opacity=".472" d="m-6 1028.36h32v32h-32z"/></clipPath><clipPath><path d="m0 706.47h1490.93v-706.47h-1490.93v706.47"/></clipPath><clipPath><path fill="#f2f2f2" d="m7 1023.36h1v1h-1z"/></clipPath></defs><path d="m15.927 1040.17v-1.998c0-2.712-2.206-4.919-4.919-4.919-2.712 0-4.919 2.207-4.919 4.919v1.998c-.388.081-.68.426-.68.837v7.488c0 .472.384.855.856.855h9.485c.472 0 .856-.384.856-.855v-7.488c0-.411-.292-.756-.68-.837m-1.711-.018h-6.415v-1.98c0-1.769 1.439-3.207 3.207-3.207 1.769 0 3.207 1.439 3.207 3.207z" fill="#4d4d4d" transform="matrix(.99391 0 0 .99391.06-1023.96)"/></svg>