<svg xmlns="http://www.w3.org/2000/svg" viewBox="0 0 22 22"><path d="M11.11719 3A8 8.00001 0 0 0 5.34375 5.34375 8 8.00001 0 0 0 5.34375 16.65625 8 8.00001 0 0 0 16.65625 16.65625 8 8.00001 0 0 0 16.65625 5.34375 8 8.00001 0 0 0 11.11719 3M10.898438 4A7 7 0 0 1 15.578125 5.714844L14.174 7.119A8 5 45 0 0 8.75 4.376953 7 7 0 0 1 10.898438 4M7.871094 5.306641A7 4 45 0 1 13.464844 7.828125L11 10.293 6.449 5.742A7 4 45 0 1 7.871094 5.306641M16.291016 6.416016A7 7 0 0 1 17.626953 13.226562 8 5 45 0 0 14.876953 7.830078L16.291 6.416M5.74 6.447L10.293 11 7.826 13.467A7 4 45 0 1 5.740234 6.447266M14.173828 8.533203A7 4 45 0 1 16.259766 15.552734L11.707 11 14.174 8.533M4.373047 8.773438A8 5 45 0 0 7.123047 14.169922L5.709 15.584A7 7 0 0 1 4.373047 8.773438M11 11.707L15.551 16.258A7 4 45 0 1 8.535156 14.171875L11 11.707M7.826172 14.880859A8 5 45 0 0 13.25 17.623047 7 7 0 0 1 6.421875 16.285156L7.826 14.881" color="#4d4d4d"/></svg>