<svg xmlns="http://www.w3.org/2000/svg" viewBox="0 0 22 22"><path d="m554.29 610.65v3 10 3h16v-3-10-3h-16m1 1h4v4.707a7 3 0 0 1 -4 -2.70703v-2m5 0h4v4.873a7 3 0 0 1 -2 .12695 7 3 0 0 1 -2 -.12695v-4.873m5 0h4v2a7 3 0 0 1 -4 2.70703v-4.707m-10 3.92773a7.999991 3.999995 0 0 0 4 1.77735v2.59a7.999991 3.999995 0 0 0 -4 1.77735v-6.145m14 .008v6.129a7.999991 3.999995 0 0 0 -4 -1.76953v-2.59a7.999991 3.999995 0 0 0 4 -1.76953m-9 1.93164a7.999991 3.999995 0 0 0 2 .13281 7.999991 3.999995 0 0 0 2 -.13086v2.262a7.999991 3.999995 0 0 0 -2 -.13086 7.999991 3.999995 0 0 0 -2 .13281v-2.266m2 3.13281a7 3 0 0 1 2 .12695v4.873h-4v-4.873a7 3 0 0 1 2 -.12695m-3 .293v4.707h-4v-2a7 3 0 0 1 4 -2.70703m6 0a7 3 0 0 1 4 2.70703v2h-4v-4.707" color="#4d4d4d" transform="translate(-551.29-607.65)"/></svg>