<svg xmlns="http://www.w3.org/2000/svg" viewBox="0 0 22 22"><defs><clipPath><path d="m0 706.47h1490.93v-706.47h-1490.93v706.47"/></clipPath><clipPath><path d="m22.2 686.12h1447.73v-667.19h-1447.73v667.19"/></clipPath><clipPath><path fill="#f2f2f2" d="m7 1023.36h1v1h-1z"/></clipPath><clipPath><path fill="#00f" fill-opacity=".514" d="m-7 1024.36h34v34h-34z"/></clipPath><clipPath><path fill="#aade87" fill-opacity=".472" d="m-6 1028.36h32v32h-32z"/></clipPath></defs><g transform="translate(-421.71-525.79)" fill="#4d4d4d"><path d="m4.5 3c-.828 0-1.5.672-1.5 1.5 0 .828.672 1.5 1.5 1.5.828 0 1.5-.672 1.5-1.5 0-.828-.672-1.5-1.5-1.5m0 12c-.828 0-1.5.672-1.5 1.5 0 .828.672 1.5 1.5 1.5.828 0 1.5-.672 1.5-1.5 0-.828-.672-1.5-1.5-1.5" transform="translate(421.71 525.79)"/><g transform="matrix(.8791 0 0 1 153.25-7.961)" stroke="#4d4d4d" stroke-linejoin="round" stroke-linecap="round"><rect y="537.66" x="314.49" height="1.293" width="12.513" stroke-width=".438" rx=".646"/><rect y="543.66" x="314.49" height="1.293" width="5.688" stroke-width=".295" rx=".646"/></g><g transform="matrix(.8791 0 0 1 153.25-1.868)"><rect y="543.66" x="314.49" height="1.293" width="12.513" stroke="#4d4d4d" stroke-linejoin="round" stroke-linecap="round" stroke-width=".438" rx=".646"/><path d="m16.293 346.45l144.71-117.73c3.582-2.91 8.503-3.501 12.66-1.516 4.156 1.963 6.811 6.17 6.811 10.772v235.47c0 4.608-2.654 8.81-6.811 10.776-4.157 1.986-9.08 1.391-12.66-1.52l-144.71-117.74c-2.782-2.27-4.411-5.659-4.411-9.256.0001-3.598 1.63-6.989 4.411-9.256" transform="matrix(0 .0189-.0215 0 332.17 536.36)"/></g><path d="m426.21 534.79c-.828 0-1.5.672-1.5 1.5 0 .828.672 1.5 1.5 1.5.828 0 1.5-.672 1.5-1.5 0-.828-.672-1.5-1.5-1.5"/></g></svg>