<svg xmlns="http://www.w3.org/2000/svg" viewBox="0 0 22 22"><g transform="translate(-421.71-525.79)"><path d="m4.5 3c-.828 0-1.5.672-1.5 1.5 0 .828.672 1.5 1.5 1.5.828 0 1.5-.672 1.5-1.5 0-.828-.672-1.5-1.5-1.5m0 12c-.828 0-1.5.672-1.5 1.5 0 .828.672 1.5 1.5 1.5.828 0 1.5-.672 1.5-1.5 0-.828-.672-1.5-1.5-1.5" transform="translate(421.71 525.79)" fill="#4d4d4d"/><g transform="matrix(.8791 0 0 1 153.25-7.961)" stroke-linejoin="round" stroke-linecap="round" stroke-width=".438"><rect y="537.66" x="314.49" height="1.293" width="12.513" fill="#4d4d4d" stroke="#4d4d4d" rx=".646"/><rect y="543.66" x="314.49" height="1.293" width="12.513" fill="#1d99f3" stroke="#1d99f3" rx=".646"/></g><rect y="543.66" x="314.49" height="1.293" width="12.513" fill="#4d4d4d" stroke="#4d4d4d" stroke-linejoin="round" stroke-linecap="round" stroke-width=".438" rx=".646" transform="matrix(.8791 0 0 1 153.25-1.868)"/><path d="m426.21 534.79c-.828 0-1.5.672-1.5 1.5 0 .828.672 1.5 1.5 1.5.828 0 1.5-.672 1.5-1.5 0-.828-.672-1.5-1.5-1.5" fill="#1d99f3"/></g></svg>