<svg xmlns="http://www.w3.org/2000/svg" viewBox="0 0 22 22"><path d="m3.889 3c-.492 0-.889.358-.889.801v14.398c0 .443.396.801.889.801h14.223c.492 0 .889-.358.889-.801v-14.398c0-.443-.396-.801-.889-.801h-14.223m9.963 3.5c.193.034.336.215.336.457l-.016 6.289c-.064.469-.463.915-1.041 1.072-.725.197-1.438-.132-1.594-.721-.155-.589.299-1.225 1.023-1.422.402-.109.788-.044 1.09.121v-3.813l-3.758 1.055-.018 4.832c-.064.469-.461.915-1.039 1.072-.725.197-1.438-.132-1.594-.721-.155-.589.299-1.227 1.023-1.424.402-.109.788-.042 1.09.123v-5.111c0-.323.24-.655.537-.738l3.959-1.072m.215 9.166h4v2 .5h-1.5v.5l-1.5-.75 1.5-.75v.5h1v-1.5h-3v2h-.5v-2.5" transform="translate(.026-.021)" stroke-opacity=".55" fill="#4d4d4d" stroke-width="2.8" stroke="none"/></svg>