<svg xmlns="http://www.w3.org/2000/svg" viewBox="0 0 22 22"><defs><clipPath><path fill="#f2f2f2" d="m7 1023.36h1v1h-1z"/></clipPath></defs><path d="m11 3c-4.432 0-8 3.568-8 8 0 4.432 3.568 8 8 8 4.432 0 8-3.568 8-8 0-4.432-3.568-8-8-8m3 4l2 1.5-2 1.5v-1h-1.76c.0001.008-.836 1.046-1.611 2.01l1.611 1.986h1.76v-1l2 1.5-2 1.5v-1h-2.238c0 0-.893-1.119-1.762-2.201-.869 1.082-1.762 2.201-1.762 2.201h-2.238v-1h1.76l1.611-1.986c-.776-.968-1.612-2-1.611-2.01h-1.76v-1h2.186l1.814 2.238 1.814-2.238h2.186v-1" transform="translate(0-.002)" fill="#4d4d4d"/></svg>