<svg xmlns="http://www.w3.org/2000/svg" viewBox="0 0 22 22"><g transform="translate(-421.71-525.79)" fill="#4d4d4d"><path d="m4.5 3c-.828 0-1.5.672-1.5 1.5 0 .828.672 1.5 1.5 1.5.828 0 1.5-.672 1.5-1.5 0-.828-.672-1.5-1.5-1.5m0 6c-.828 0-1.5.672-1.5 1.5 0 .828.672 1.5 1.5 1.5.828 0 1.5-.672 1.5-1.5 0-.828-.672-1.5-1.5-1.5m0 6c-.828 0-1.5.672-1.5 1.5 0 .828.672 1.5 1.5 1.5.828 0 1.5-.672 1.5-1.5 0-.828-.672-1.5-1.5-1.5" transform="translate(421.71 525.79)"/><path d="m430.88 539.96v4.167h.833v-3.333h5v2.5h-1.667v-.833l-2.5 1.25 2.5 1.25v-.833h2.5v-.833-3.333h-6.667"/><g transform="matrix(.8791 0 0 1 153.25-7.961)" stroke="#4d4d4d" stroke-linejoin="round" stroke-linecap="round" stroke-width=".438"><rect y="537.66" x="314.49" height="1.293" width="12.513" rx=".646"/><rect y="543.66" x="314.49" height="1.293" width="12.513" rx=".646"/></g></g></svg>