<svg xmlns="http://www.w3.org/2000/svg" viewBox="0 0 22 22"><path d="m4.01 3c-.561 0-1.012.451-1.012 1.012v13.977c0 .561.451 1.012 1.012 1.012h13.977c.561 0 1.012-.451 1.012-1.012v-13.977c0-.561-.451-1.012-1.012-1.012h-13.977m9.893 3.301c.214.038.371.237.371.506l-.018 6.99c-.071.522-.514 1.015-1.156 1.189-.805.219-1.599-.145-1.771-.799-.173-.654.333-1.363 1.139-1.582.446-.121.876-.047 1.211.137v-4.236l-4.176 1.172-.02 5.367c-.071.521-.514 1.017-1.156 1.191-.805.219-1.597-.147-1.77-.801-.173-.654.331-1.361 1.137-1.58.446-.121.876-.047 1.211.137v-5.682c0-.358.267-.728.598-.82l4.4-1.189" transform="translate(0-.002)" fill="#4d4d4d" fill-rule="evenodd"/></svg>