<svg xmlns="http://www.w3.org/2000/svg" viewBox="0 0 22 22"><defs><clipPath><path fill="#f2f2f2" d="m7 1023.36h1v1h-1z"/></clipPath><clipPath><path fill="#f2f2f2" d="m7 1023.36h1v1h-1z"/></clipPath></defs><g transform="matrix(0-.04858-.04858 0 20 20)" fill="#4d4d4d"><path d="m298.26 119.01h-87.47l31.844-31.844c1.406-1.407 2.196-3.314 2.196-5.303 0-1.989-.79-3.897-2.197-5.304l-14.14-14.14c-2.927-2.929-7.676-2.928-10.605 0l-15.12 15.13v-70.04c0-4.142-3.357-7.5-7.5-7.5h-20c-4.143 0-7.5 3.358-7.5 7.5v70.04l-15.12-15.13c-2.93-2.929-7.679-2.929-10.606 0l-14.14 14.14c-1.407 1.407-2.197 3.314-2.197 5.304 0 1.989.79 3.896 2.196 5.303l31.844 31.844h-87.47c-4.143 0-7.5 3.358-7.5 7.5v20c0 4.142 3.357 7.5 7.5 7.5h226c4.143 0 7.5-3.358 7.5-7.5v-20c0-4.143-3.358-7.501-7.5-7.501"/><path d="m298.26 216.51h-226c-4.143 0-7.5 3.358-7.5 7.5v20c0 4.142 3.357 7.5 7.5 7.5h87.47l-31.844 31.844c-1.406 1.407-2.196 3.314-2.196 5.303 0 1.989.79 3.897 2.197 5.304l14.14 14.14c2.928 2.929 7.677 2.928 10.606-.0001l15.12-15.12v70.04c0 4.142 3.357 7.5 7.5 7.5h20c4.143 0 7.5-3.358 7.5-7.5v-70.04l15.12 15.12c1.465 1.465 3.384 2.197 5.304 2.197 1.919 0 3.839-.732 5.302-2.196l14.14-14.14c1.407-1.407 2.197-3.315 2.197-5.304 0-1.989-.79-3.896-2.196-5.303l-31.844-31.844h87.47c4.143 0 7.5-3.358 7.5-7.5v-20c0-4.142-3.358-7.5-7.5-7.5"/></g></svg>