<svg xmlns="http://www.w3.org/2000/svg" viewBox="0 0 22 22"><defs><linearGradient y1="986.67" x2="0" y2="-2.623" gradientUnits="userSpaceOnUse"><stop stop-color="#ffce3b"/><stop offset="1" stop-color="#ffd762"/></linearGradient><linearGradient gradientUnits="userSpaceOnUse" y1="986.67" x2="0" y2="-2.623"><stop stop-color="#ffce3b"/><stop offset="1" stop-color="#fef4ab"/></linearGradient></defs><path d="m180.56 265.36c-9.1 0-16.5 7.399-16.5 16.5 0 9.1 7.403 16.5 16.5 16.5 9.1 0 16.5-7.402 16.5-16.5 0-9.1-7.404-16.5-16.5-16.5m-15.665-122.28v90.35c0 8.65 7.01 15.665 15.665 15.665 8.65 0 15.665-7.01 15.665-15.665v-90.35c0-8.651-7.01-15.665-15.665-15.665-8.651 0-15.665 7.01-15.665 15.665m-144.44-35.595c.105-8.04 6.294-14.686 14.301-15.42 66.54-6.224 120.84-41.784 138.74-54.792 3.741-2.727 8.811-2.727 12.553 0 17.868 13.01 72.17 48.568 138.71 54.792 8.01.735 14.161 7.378 14.301 15.42.804 52.48-7.623 230.67-155.28 270.32-2.622.699-5.385.699-8.01 0-147.66-39.616-156.09-217.84-155.32-270.32" fill="#da4453" transform="matrix(-.04663 0 0 .04663 19.38 1.358)"/></svg>