<svg xmlns="http://www.w3.org/2000/svg" viewBox="0 0 22 22"><g transform="matrix(1.37627 0 0 1.37627-22.282-1422.81)" fill="#4d4d4d"><g transform="matrix(.08575 0 0 .08575 20.15 1037.61)"><path d="m47 94.07c7.17 0 13.307-2.553 18.412-7.657 5.105-5.104 7.658-11.243 7.658-18.413v-41.714c0-7.17-2.551-13.307-7.658-18.413-5.105-5.105-11.242-7.659-18.412-7.659-7.17 0-13.307 2.554-18.413 7.659-5.106 5.105-7.659 11.243-7.659 18.413v41.714c0 7.17 2.554 13.309 7.659 18.413 5.105 5.104 11.243 7.657 18.413 7.657"/><path d="m92.38 53.905c-1.03-1.032-2.254-1.548-3.666-1.548-1.412 0-2.634.516-3.666 1.548-1.032 1.032-1.548 2.254-1.548 3.666v10.429c0 10.05-3.572 18.643-10.714 25.786-7.141 7.143-15.737 10.714-25.786 10.714-10.05 0-18.644-3.571-25.787-10.714-7.142-7.141-10.713-15.737-10.713-25.786v-10.429c0-1.412-.516-2.634-1.548-3.666-1.032-1.032-2.253-1.548-3.666-1.548-1.413 0-2.635.516-3.667 1.548-1.032 1.032-1.548 2.254-1.548 3.666v10.429c0 12 4.01 22.446 12.02 31.33 8.01 8.88 17.91 13.972 29.697 15.275v10.756h-20.857c-1.412 0-2.634.516-3.666 1.548-1.032 1.032-1.548 2.254-1.548 3.666 0 1.411.516 2.635 1.548 3.666 1.032 1.032 2.254 1.549 3.666 1.549h52.14c1.412 0 2.636-.517 3.666-1.549 1.033-1.031 1.55-2.255 1.55-3.666 0-1.412-.517-2.634-1.55-3.666-1.03-1.032-2.254-1.548-3.666-1.548h-20.855v-10.756c11.785-1.303 21.684-6.395 29.696-15.275 8.01-8.88 12.02-19.322 12.02-31.33v-10.429c0-1.412-.517-2.633-1.55-3.666"/></g><g transform="matrix(.08575 0 0 .08575 19.38 1037.61)"><path d="m20.722 77.21c-.815-3.259-1.222-6.327-1.222-9.206v-10.43c0-1.412-.516-2.634-1.548-3.666-1.032-1.032-2.254-1.548-3.666-1.548-1.413 0-2.635.516-3.667 1.548-1.032 1.032-1.548 2.254-1.548 3.666v10.429c0 6.03 1.141 11.841 3.422 17.437l8.229-8.23"/><path d="m56 94.07c7.17 0 13.309-2.553 18.412-7.657 5.105-5.104 7.658-11.243 7.658-18.413v-10.429l29.412-29.412c.543-.543.815-1.168.815-1.874 0-.706-.271-1.331-.815-1.874l-6.68-6.681c-.544-.544-1.168-.815-1.875-.815-.705 0-1.33.271-1.873.815l-100.54 100.54c-.543.543-.814 1.168-.814 1.873 0 .707.271 1.332.814 1.875l6.681 6.681c.543.543 1.168.814 1.874.814.706 0 1.331-.271 1.874-.814l20.694-20.694c5.974 3.695 12.356 5.895 19.15 6.6v10.756h-20.857c-1.412 0-2.635.516-3.666 1.548-1.032 1.032-1.549 2.254-1.549 3.666 0 1.411.517 2.635 1.549 3.666 1.031 1.032 2.254 1.549 3.666 1.549h52.14c1.412 0 2.635-.517 3.666-1.549 1.033-1.031 1.549-2.255 1.549-3.666 0-1.412-.516-2.634-1.549-3.666-1.031-1.032-2.254-1.548-3.666-1.548h-20.856v-10.756c11.786-1.303 21.685-6.395 29.697-15.275 8.01-8.88 12.02-19.322 12.02-31.33v-10.431c0-1.412-.516-2.634-1.547-3.666-1.033-1.032-2.255-1.548-3.667-1.548-1.412 0-2.634.516-3.666 1.548-1.032 1.032-1.548 2.254-1.548 3.666v10.429c0 10.05-3.572 18.643-10.714 25.785-7.142 7.142-15.738 10.714-25.786 10.714-5.866 0-11.433-1.384-16.702-4.155l7.821-7.82c2.934 1.031 5.894 1.546 8.881 1.546"/><path d="m71.03 5.02c-4.481-3.205-9.492-4.808-15.03-4.808-7.17 0-13.308 2.554-18.413 7.659-5.105 5.105-7.658 11.243-7.658 18.413v41.714l50.594-50.595c-1.847-5.05-5.01-9.179-9.491-12.383"/></g></g></svg>