<svg xmlns="http://www.w3.org/2000/svg" viewBox="0 0 22 22"><defs><clipPath><path fill="#f2f2f2" d="m7 1023.36h1v1h-1z"/></clipPath><clipPath><path fill="#f2f2f2" d="m7 1023.36h1v1h-1z"/></clipPath></defs><path d="m4.01 3c-.561 0-1.012.451-1.012 1.012v13.977c0 .561.451 1.012 1.012 1.012h13.977c.561 0 1.012-.451 1.012-1.012v-13.977c0-.561-.451-1.012-1.012-1.012h-13.977m6.988 3.23c.12 0 .219.084.295.248l1.352 2.734 3.02.438c.225.036.336.129.336.277 0 .088-.052.183-.156.287l-2.182 2.129.518 3c.004.028.006.069.006.121 0 .084-.021.155-.063.213-.042.058-.103.088-.184.088-.076 0-.156-.024-.24-.072l-2.699-1.42-2.699 1.42c-.088.048-.168.072-.24.072-.084 0-.147-.03-.189-.088-.042-.058-.063-.129-.063-.213 0-.024.004-.065.012-.121l.518-3-2.188-2.129c-.1-.108-.15-.203-.15-.287 0-.148.112-.241.336-.277l3.02-.438 1.352-2.734c.076-.164.175-.248.295-.248" transform="translate(0-.002)" fill="#4d4d4d" fill-rule="evenodd"/></svg>