<svg xmlns="http://www.w3.org/2000/svg" viewBox="0 0 22 22"><path d="m61.978 6.553c46.512 0 91.29 6.02 134.33 18.05 43.04 12.04 83.33 29.07 120.87 51.1 37.537 22.03 71.71 48.45 102.51 79.25 30.803 30.804 57.22 64.974 79.25 102.51 22.03 37.539 39.06 77.83 51.1 120.87 12.04 43.04 18.05 87.82 18.05 134.33 0 14.688-5.201 27.23-15.605 37.637-10.404 10.407-22.949 15.604-37.637 15.604-14.689 0-27.23-5.199-37.641-15.604-10.402-10.404-15.604-22.949-15.604-37.637 0-36.723-4.795-72.12-14.383-106.19-9.588-34.06-23.06-65.891-40.39-95.47-17.34-29.581-38.14-56.51-62.42-80.78-24.277-24.276-51.2-45.08-80.78-62.42-29.58-17.34-61.4-30.804-95.47-40.39-34.07-9.588-69.46-14.382-106.18-14.382-14.688 0-27.23-5.202-37.638-15.606-10.404-10.404-15.606-22.95-15.606-37.638 0-14.688 5.202-27.23 15.606-37.638 10.403-10.403 22.949-15.605 37.637-15.605m0 201.35c42.02 0 81.5 8.06 118.42 24.17 36.924 16.12 69.16 37.944 96.7 65.48 27.541 27.541 49.37 59.771 65.48 96.69 16.12 36.928 24.17 76.4 24.17 118.43 0 14.688-5.201 27.23-15.604 37.637-10.404 10.404-22.949 15.604-37.641 15.604-14.688 0-27.23-5.199-37.637-15.604-10.404-10.404-15.606-22.949-15.606-37.637 0-27.338-5.202-53.04-15.606-77.11-10.404-24.07-24.582-45.08-42.534-63.04-17.952-17.953-38.964-32.13-63.04-42.535-24.07-10.402-49.776-15.604-77.11-15.604-14.688 0-27.23-5.201-37.638-15.605-10.404-10.405-15.606-22.951-15.606-37.639 0-14.688 5.202-27.23 15.606-37.638 10.404-10.406 22.95-15.608 37.638-15.608m97.92 279.68c0 10.609-1.938 20.4-5.814 29.377-3.876 8.979-9.18 16.83-15.912 23.563-6.732 6.729-14.688 12.03-23.868 15.912-9.18 3.875-18.87 5.811-29.07 5.811-10.608 0-20.4-1.938-29.376-5.811-8.976-3.875-16.83-9.184-23.562-15.912-6.732-6.732-12.04-14.586-15.912-23.563-3.876-8.977-5.814-18.768-5.814-29.377 0-10.197 1.938-19.889 5.814-29.07 3.876-9.184 9.18-17.14 15.912-23.869 6.732-6.732 14.586-12.04 23.562-15.912 8.976-3.875 18.768-5.814 29.376-5.814 10.2 0 19.89 1.939 29.07 5.814 9.18 3.877 17.14 9.18 23.868 15.912 6.732 6.73 12.04 14.688 15.912 23.869 3.876 9.178 5.814 18.867 5.814 29.07" transform="matrix(.0286 0 0 .0286 2.74 2.818)" fill="#da4453"/></svg>