<svg xmlns="http://www.w3.org/2000/svg" viewBox="0 0 22 22"><g transform="translate(-553.72-583.12)"><path transform="translate(552.72 582.12)" d="m4 4v1 1 1h3v-3h-1-2m13 0v3h1 2v-2-1h-2-1zm-12 1h1v1h-1v-1m13 0h1v1h-1v-1zm-10 1v1h2v-1h-2m3 0v1h2v-1h-2zm3 0v1h2v-1h-2m-8 2v2h1v-2h-1m11 0v2h1v-2h-1zm-11 3v2h1v-2h-1m11 0v2h1v-2h-1m-11 3v2h1v-2h-1m-2 3v1 1 1h1 1 1v-2-1h-1-1-1m4 0v1h2v-1h-2m3 0v1h2v-1h-2m-6 1h1v1h-1v-1" color="#4d4d4d"/><g fill="#1d99f3"><path d="m566.72 596.12v1 1h1v-1h1v-1z"/><path d="m572.72 602.12v-1-1h-1v1h-1v1z"/><path d="m572.72 596.12h-1-1v1h1v1h1z"/><path d="m566.72 602.12h1 1v-1h-1v-1h-1z"/></g></g></svg>