<svg xmlns="http://www.w3.org/2000/svg" viewBox="0 0 22 22"><g transform="translate(-421.71-525.79)"><g fill="#4d4d4d"><path d="m441.71 528.79c-.005 7.06-3.394 12.999-7.889 13.869l.303.303-.414.414v.34c5.11-.77 9-7.222 9-14.926h-1"/><path d="m422.72 528.79l-.002.002v.996l.002.002h.996l.002-.002v.006c4.313.75 7.625 6.163 7.965 12.789l.93-.93c-.623-6.763-4.25-12.163-8.895-12.863h-.002-.996m8.988 14.576c.002.112.001.221.001.334h.324l-.334-.334"/></g><path d="m429.89 542.96l2.828 2.828 2.828-2.828-2.828-2.828-2.828 2.828m1.414 0l1.414-1.414 1.414 1.414-1.414 1.414-1.414-1.414" fill="#1d99f3"/><g fill="#4d4d4d"><rect width="1" height="1" x="432.71" y="533.79" rx="0"/><rect width="1" height="1" x="432.71" y="535.79" rx="0"/><rect width="1" height="2" x="432.71" y="530.79" rx="0"/><rect width="2" height="1" x="438.71" y="542.79" rx="0"/><rect width="1" height="1" x="436.71" y="542.79" rx="0"/><path d="m431.71 528.79v3h3v-3h-3m1 1h1v1h-1v-1"/><path d="m439.71 541.79v3h3v-3h-3m1 1h1v1h-1v-1"/></g></g></svg>