<svg xmlns="http://www.w3.org/2000/svg" viewBox="0 0 22 22"><path transform="translate(-.996-.998)" d="m7 4l-.094.094-2.906 2.906v.906 11.406.688h.688 11.438.844l.031-.031 2.906-2.906.063-.063.031-.031v-.531-11.75-.688h-.688-11.781-.531m1 1h10.313l-1.938 1.938-.063.063h-8.313v-2m-1 .375v1.625h-1.625l1.625-1.625m12 .313v10.313h-2v-8.313l.063-.063 1.938-1.938m-14 2.313h2v8.281l-.344.375-1.656 1.656v-10.313m3 0h8v8h-8v-8zm-.281 9h8.281v2h-10.313l1.656-1.656.375-.344m9.281 0h1.594l-1.594 1.594v-1.594" fill="#4d4d4d" color="#000"/></svg>