<svg xmlns="http://www.w3.org/2000/svg" viewBox="0 0 22 22"><g transform="translate(-327-534.36)"><g fill="#4d4d4d"><path transform="translate(326 532.36)" d="m2 4a10 15 0 0 0 9 14.910156V18 17.906A9 14 0 0 1 3 4H2M21 4A9 14 0 0 1 13 17.896484V18 18.926A10 15 0 0 0 22 4h-1z"/><rect y="550.36" x="330" height="1" width="2" rx="0"/><rect y="550.36" x="344" height="1" width="2" rx="0"/><rect y="550.36" x="342" height="1" width="1" rx="0"/><rect y="550.36" x="333" height="1" width="1" rx="0"/></g><path d="m338 547.36l-3 5h6zm0 2l1 2h-2z" shape-rendering="auto" mix-blend-mode="normal" color-interpolation-filters="linearRGB" isolation="auto" white-space="normal" fill="#1d99f3" solid-opacity="1" image-rendering="auto" solid-color="#000000" color="#000" fill-rule="evenodd" color-rendering="auto" color-interpolation="sRGB"/><g fill="#4d4d4d"><path transform="translate(326 532.36)" d="m2 17v3h3v-3h-3m1 1h1v1h-1v-1"/><path d="m345 549.36v3h3v-3h-3m1 1h1v1h-1v-1"/></g></g></svg>