<svg xmlns="http://www.w3.org/2000/svg" viewBox="0 0 24 24"><g transform="translate(-326-532.36)"><g transform="translate(327-497)"><path transform="translate(0 1030.36)" d="m9 5v-1h-6v1h6 4 6v-1h-6v1zm1-1h2v1-1h-2m-7 14v-1h3v1h3v-1h-3v1zm13 0v-1h-3v1h3v-1h3v1zm-12-1h1v1h-1zm13 0h1v1h-1z" fill="#1A1D20"/><path d="m9 1039.86l2 3 2-3z" fill="#1d99f3" fill-rule="evenodd"/></g><g fill="#1A1D20"><circle cx="331.25" cy="550.88" r="1.5"/><circle cx="344.65" cy="550.88" r="1.5"/><circle cx="338" cy="537.88" r="2.5"/></g></g></svg>