<svg xmlns="http://www.w3.org/2000/svg" viewBox="0 0 22 22"><g transform="translate(-327-534.36)"><g fill="#4d4d4d"><path transform="translate(326 532.36)" d="m2 4a10 15 0 0 0 8 14.679688v-1.043A9 14 0 0 1 3 4H2m19 0a9 14 0 0 1 -7 13.632812v1.063A10 15 0 0 0 22 4h-1z"/><rect y="550.36" x="332" height="1" width="2" rx="0"/><rect y="550.36" x="344" height="1" width="2" rx="0"/></g><path d="m335.5 548.36v5h5v-5zm1 1h3v3h-3z" fill="#1d99f3"/><g fill="#4d4d4d"><rect y="550.36" x="342" height="1" width="1" rx="0"/><path d="m330 549.36v3h3v-3h-3m1 1h1v1h-1v-1"/><path d="m345 549.36v3h3v-3h-3m1 1h1v1h-1v-1"/></g></g></svg>