<svg xmlns="http://www.w3.org/2000/svg" viewBox="0 0 22 22"><g transform="translate(-327-534.36)"><g fill="#4d4d4d"><path d="m328 536.3622a10 15 0 0 0 8 14.67969v-1.043a9 14 0 0 1 -7 -13.63672h-1m19 0a9 14 0 0 1 -7 13.63281v1.063a10 15 0 0 0 8 -14.69531h-1"/><rect y="550.36" x="330" height="1" width="2" rx="0"/><rect y="550.36" x="344" height="1" width="2" rx="0"/></g><path d="m338 548.3622a2.5 2.5 0 0 0 -2.5 2.5 2.5 2.5 0 0 0 2.5 2.5 2.5 2.5 0 0 0 2.5 -2.5 2.5 2.5 0 0 0 -2.5 -2.5m0 1a1.5 1.5 0 0 1 1.5 1.5 1.5 1.5 0 0 1 -1.5 1.5 1.5 1.5 0 0 1 -1.5 -1.5 1.5 1.5 0 0 1 1.5 -1.5" fill="#1d99f3"/><g fill="#4d4d4d"><rect y="550.36" x="342" height="1" width="1" rx="0"/><rect y="550.36" x="333" height="1" width="1" rx="0"/><path d="m328 549.36v3h3v-3h-3m1 1h1v1h-1v-1"/><path d="m345 549.36v3h3v-3h-3m1 1h1v1h-1v-1"/></g></g></svg>