<svg xmlns="http://www.w3.org/2000/svg" viewBox="0 0 24 24"><defs><clipPath><path fill="#f2f2f2" d="m7 1023.36h1v1h-1z"/></clipPath><clipPath><path fill="#f2f2f2" d="m7 1023.36h1v1h-1z"/></clipPath></defs><path transform="translate(1 .998)" d="m11.5 2c-.277 0-.5.223-.5.5 0 .277.223.5.5.5.277 0 .5-.223.5-.5 0-.277-.223-.5-.5-.5m-7 1c-.277 0-.5.223-.5.5 0 .277.223.5.5.5.277 0 .5-.223.5-.5 0-.277-.223-.5-.5-.5m14 0c-.277 0-.5.223-.5.5 0 .277.223.5.5.5.277 0 .5-.223.5-.5 0-.277-.223-.5-.5-.5m-7 1c-.277 0-.5.223-.5.5 0 .277.223.5.5.5.277 0 .5-.223.5-.5 0-.277-.223-.5-.5-.5m-5 1c-.277 0-.5.223-.5.5 0 .277.223.5.5.5.277 0 .5-.223.5-.5 0-.277-.223-.5-.5-.5m4.5 0c-1.901 0-3.588.878-4.686 2.25l3.129 2.504c.366-.457.923-.754 1.557-.754v-.5-2zm0 1.5c0 .277.223.5.5.5.277 0 .5-.223.5-.5 0-.277-.223-.5-.5-.5-.277 0-.5.223-.5.5m0 2c0 .277.223.5.5.5.277 0 .5-.223.5-.5 0-.277-.223-.5-.5-.5-.277 0-.5.223-.5.5m3.709-3.436l-2.65 4.242c.519.325.87.881.924 1.527l4.988-.416c-.186-2.266-1.44-4.216-3.262-5.354m-11.209 4.936c-.277 0-.5.223-.5.5 0 .277.223.5.5.5.277 0 .5-.223.5-.5 0-.277-.223-.5-.5-.5m2 0c-.277 0-.5.223-.5.5 0 .277.223.5.5.5.277 0 .5-.223.5-.5 0-.277-.223-.5-.5-.5m2 0c-.277 0-.5.223-.5.5 0 .277.223.5.5.5.277 0 .5-.223.5-.5 0-.277-.223-.5-.5-.5m2 0c-.277 0-.5.223-.5.5 0 .277.223.5.5.5.277 0 .5-.223.5-.5 0-.277-.223-.5-.5-.5m2 0c-.277 0-.5.223-.5.5 0 .277.223.5.5.5.277 0 .5-.223.5-.5 0-.277-.223-.5-.5-.5m0 2c-.277 0-.5.223-.5.5 0 .277.223.5.5.5.277 0 .5-.223.5-.5 0-.277-.223-.5-.5-.5m2 0c-.277 0-.5.223-.5.5 0 .277.223.5.5.5.277 0 .5-.223.5-.5 0-.277-.223-.5-.5-.5m-3.916.416l-2.123 2.123c.904.904 2.154 1.461 3.539 1.461v-1.5-1.5c-.554 0-1.055-.222-1.416-.584m1.416 2.084c0 .277.223.5.5.5.277 0 .5-.223.5-.5 0-.277-.223-.5-.5-.5-.277 0-.5.223-.5.5m4.5-.5c-.277 0-.5.223-.5.5 0 .277.223.5.5.5.277 0 .5-.223.5-.5 0-.277-.223-.5-.5-.5m-9 2c-.277 0-.5.223-.5.5 0 .277.223.5.5.5.277 0 .5-.223.5-.5 0-.277-.223-.5-.5-.5m5 0c-.277 0-.5.223-.5.5 0 .277.223.5.5.5.277 0 .5-.223.5-.5 0-.277-.223-.5-.5-.5m6 0c-.277 0-.5.223-.5.5 0 .277.223.5.5.5.277 0 .5-.223.5-.5 0-.277-.223-.5-.5-.5m-13 2c-.277 0-.5.223-.5.5 0 .277.223.5.5.5.277 0 .5-.223.5-.5 0-.277-.223-.5-.5-.5m7 0c-.277 0-.5.223-.5.5 0 .277.223.5.5.5.277 0 .5-.223.5-.5 0-.277-.223-.5-.5-.5" fill="#4d4d4d"/></svg>