<svg xmlns="http://www.w3.org/2000/svg" viewBox="0 0 24 24"><defs><clipPath><path fill="#f2f2f2" d="m7 1023.36h1v1h-1z"/></clipPath><clipPath><path fill="#f2f2f2" d="m7 1023.36h1v1h-1z"/></clipPath></defs><g transform="translate(-550.29-606.65)" fill="#4d4d4d"><path transform="translate(551.29 607.65)" d="m4 3v3.992 1.01 7 1 1h-1v1h1v1h1v-1h14v-1h-14v-1h.008.992 2v-.008l.008.008 2-2h1.592l2 2h3.5 1.9v-1h-1.9-3.086l-2-2h-.014-.992-.408-1.01l-2 2h-1.594-.992-.008v-3-1-1-2h.008.992 1.588l1.707 1.707.828.828 2 2 .002-.002.002.002 2.127-2.125 1.297 1.297.828.828 1.041 1.041.707-.707-1.041-1.041-.828-.828-2-2-.004.004-.006-.004-2.123 2.123-1.295-1.295-.828-.828-2-2h-.002-2v-.008h-1v-.992h7v-1h-7v-2"/><g fill-opacity=".459"><g fill-rule="evenodd"><path d="m556.29 623.65v1h14v-1h-5.4l-2-2h-1.6l-2 2z"/><path transform="translate(551.29 607.65)" d="m5 8v2 1 1 3h.008 2.586l2-2h.406l2-.008.008.008h.006l1.992 1.992 1.996.006.998-.998 1.021-1.021c-.0001-.0001-.0001-.0001-.002-.002l-.6.6-1.041-1.041-.828-.828-1.297-1.297-2.127 2.125-.002-.002-.002.002-2-2-.828-.828-1.707-1.707h-2.58-.008"/></g><path transform="translate(551.29 607.65)" d="m5.01 6v1h2.992l4 4v-4-1h-6.992"/></g><path transform="translate(551.29 607.65)" d="m12 3v1h1v3h1v-4h-1-1m4.5 0c-.831 0-1.5.669-1.5 1.5v1c0 .831.669 1.5 1.5 1.5.831 0 1.5-.669 1.5-1.5v-1c0-.831-.669-1.5-1.5-1.5m4 0c-.831 0-1.5.669-1.5 1.5v1c0 .831.669 1.5 1.5 1.5.831 0 1.5-.669 1.5-1.5v-1c0-.831-.669-1.5-1.5-1.5m-4 1c.277 0 .5.223.5.5v1c0 .277-.223.5-.5.5-.277 0-.5-.223-.5-.5v-1c0-.277.223-.5.5-.5m4 0c.277 0 .5.223.5.5v1c0 .277-.223.5-.5.5-.277 0-.5-.223-.5-.5v-1c0-.277.223-.5.5-.5"/></g></svg>