<svg xmlns="http://www.w3.org/2000/svg" viewBox="0 0 24 24"><defs><clipPath><path fill="#f2f2f2" d="m7 1023.36h1v1h-1z"/></clipPath><clipPath><path fill="#f2f2f2" d="m7 1023.36h1v1h-1z"/></clipPath></defs><path transform="translate(1 .998)" d="m11 3c-4.432 0-8 3.568-8 8 0 4.432 3.568 8 8 8 4.432 0 8-3.568 8-8 0-4.432-3.568-8-8-8m0 1c1.366 0 2.634.393 3.709 1.064.91.568 1.676 1.338 2.24 2.25-.564-.911-1.331-1.682-2.24-2.25l-2.65 4.242c.519.325.87.881.924 1.527l4.988-.416c-.046-.566-.16-1.114-.332-1.633-.083-.252-.181-.495-.291-.732.11.237.208.481.291.732.172.52.286 1.066.332 1.633.016.193.029.385.029.582 0 3.878-3.122 7-7 7-3.878 0-7-3.122-7-7 0-3.878 3.122-7 7-7m0 1c-1.901 0-3.588.878-4.686 2.25l3.129 2.504c.366-.457.923-.754 1.557-.754v-.5-2-1.5zm5.957 2.326c.134.217.255.442.365.674-.11-.232-.232-.457-.365-.674m-7.373 5.09l-2.123 2.123c.904.904 2.154 1.461 3.539 1.461v-1.5-1.5c-.554 0-1.055-.222-1.416-.584" fill="#4d4d4d"/></svg>