<svg xmlns="http://www.w3.org/2000/svg" viewBox="0 0 24 24"><defs><clipPath><path fill="#f2f2f2" d="m7 1023.36h1v1h-1z"/></clipPath><clipPath><path fill="#f2f2f2" d="m7 1023.36h1v1h-1z"/></clipPath></defs><g transform="translate(-550.29-606.65)" fill="#4d4d4d"><path transform="translate(551.29 607.65)" d="m4 3v6 1 5 1 1h-1v1h1v1h1v-1h14v-1h-3v-9h-1-3v9h-2v-13h1v-1h-1-4v14h-1v-1-1-3-1-1-1-3-.008-.992-2m2 1h2v13h-2zm6 5h2v8h-2z"/><path d="m563.29 610.65v1h1v3h1v-4h-1-1m4.5 0c-.831 0-1.5.669-1.5 1.5v1c0 .831.669 1.5 1.5 1.5.831 0 1.5-.669 1.5-1.5v-1c0-.831-.669-1.5-1.5-1.5m4 0c-.831 0-1.5.669-1.5 1.5v1c0 .831.669 1.5 1.5 1.5.831 0 1.5-.669 1.5-1.5v-1c0-.831-.669-1.5-1.5-1.5m-4 1c.277 0 .5.223.5.5v1c0 .277-.223.5-.5.5-.277 0-.5-.223-.5-.5v-1c0-.277.223-.5.5-.5m4 0c.277 0 .5.223.5.5v1c0 .277-.223.5-.5.5-.277 0-.5-.223-.5-.5v-1c0-.277.223-.5.5-.5"/></g></svg>