<svg xmlns="http://www.w3.org/2000/svg" viewBox="0 0 24 24"><defs><clipPath><path fill="#f2f2f2" d="m7 1023.36h1v1h-1z"/></clipPath><clipPath><path fill="#f2f2f2" d="m7 1023.36h1v1h-1z"/></clipPath></defs><path transform="translate(1 .998)" d="m4 3v6 1 5 1 1h-1v1h1v1h1v-1h13.293.707v-.707-.293h-.293-1.414-12.293v-1.568-.008-.424-2.576-1-.424-1-1-3-.008-.992-2h-1m13 0v1h1v-1h-1zm1 1v1h1v-1h-1m0 1h-1v1h1v-1m-1 0v-1h-1v1h1m-11-1v1h1v-1h-1m2 0v1h1v-1h-1m-2 2v1h1v-1h-1m2 0v1h1v-1h-1m3 1v1h1v-1h-1zm2 0v1h1v-1h-1m-2 2v1h1v-1h-1m2 0v1h1v-1h-1m-6 4v1h1v-1h-1m1 1v1h1v-1h-1m0 1h-1v1h1v-1m-1 0v-1h-1v1h1" fill="#4d4d4d"/></svg>