<svg xmlns="http://www.w3.org/2000/svg" viewBox="0 0 24 24"><defs><clipPath><path fill="#f2f2f2" d="m7 1023.36h1v1h-1z"/></clipPath><clipPath><path fill="#f2f2f2" d="m7 1023.36h1v1h-1z"/></clipPath></defs><g transform="translate(-550.29-606.65)" fill="#4d4d4d"><g transform="translate(551.29 607.65)"><path d="m4 3v12 1 1h-1v1h1v1h1v-1h14v-1h-14v-1h.008.992 2v-.008l.008.008 2-2h1.592l2 2h3.5 1.9v-1h-1.9-3.086l-2-2h-.014-.992-.408-1.01l-2 2h-1.594-.992-.008v-4h5v-.008l.008.008.996-.996-.707-.707-.703.703h-4.594v-7h-1m10 2.594l-.707.707-.996.996.707.707.996-.996.996.996.707-.707-1.703-1.703m5 2.406l-1 1h1v-1"/><path d="m11 4v2h1v-1h1v-1h-2m4 0v1h1v1h1v-2h-2m-4 4v2h2v-1h-1v-1h-1m5 0v1h-1v1h2v-2h-1"/></g><g fill-rule="evenodd" fill-opacity=".459"><path d="m556.29 623.65v1h14v-1h-5.4l-2-2h-1.6l-2 2z"/><path transform="translate(551.29 607.65)" d="m14 7l-1.996 2h.996v1h-1.994l-.998 1h-5.01v4h2.6l2-2h2.408l1.992 1.992 5 .008v-6h-2v1h-2v-1h1l-2-2"/></g></g></svg>