<svg xmlns="http://www.w3.org/2000/svg" viewBox="0 0 24 24"><defs><clipPath><path fill="#f2f2f2" d="m7 1023.36h1v1h-1z"/></clipPath><clipPath><path fill="#f2f2f2" d="m7 1023.36h1v1h-1z"/></clipPath></defs><g fill="#4d4d4d" transform="translate(.996.998)"><path d="m10 3.068c-3.956.49-7 3.839-7 7.932 0 4.093 3.044 7.442 7 7.932v-1.01c-3.399-.484-6-3.385-6-6.922 0-3.537 2.601-6.438 6-6.922v-1.01m2 0v1.01c3.399.484 6 3.385 6 6.922 0 3.537-2.601 6.438-6 6.922v1.01c3.956-.49 7-3.839 7-7.932 0-4.093-3.044-7.442-7-7.932"/><path d="m11 5c-3.324 0-6 2.676-6 6 0 3.324 2.676 6 6 6 3.324 0 6-2.676 6-6 0-.882-.192-1.716-.531-2.469l-.781.781c.19.529.313 1.091.313 1.688 0 2.77-2.23 5-5 5-2.77 0-5-2.23-5-5 0-2.77 2.23-5 5-5 1.642 0 3.08.795 3.99 2.01l.723-.723c-1.097-1.392-2.795-2.287-4.713-2.287"/><path d="m11 7c-1.108 0-2.107.447-2.83 1.17l.707.707c.542-.542 1.292-.877 2.123-.877 1.662 0 3 1.338 3 3 0 1.662-1.338 3-3 3-1.662 0-3-1.338-3-3 0-.302.056-.587.139-.861l-.781-.781c-.226.502-.357 1.055-.357 1.643 0 2.216 1.784 4 4 4 2.216 0 4-1.784 4-4 0-2.216-1.784-4-4-4"/></g></svg>