<svg xmlns="http://www.w3.org/2000/svg" viewBox="0 0 24 24"><defs><clipPath><path fill="#f2f2f2" d="m7 1023.36h1v1h-1z"/></clipPath><clipPath><path fill="#f2f2f2" d="m7 1023.36h1v1h-1z"/></clipPath></defs><path transform="translate(1 .998)" d="m4 3v6 1 5 1 1h-1v1h1v1h1v-1h14v-1h-14v-1h.008.992 2v-.008l.008.008 2-2h1.592l2 2h3.5 1.9v-1h-1.9-3.086l-2-2h-.014-.992-.408-1.01l-2 2h-1.594-.992-.008v-3-1-1h1 1 1.873.002l2-2 .828-.828 1.295-1.295 2.123 2.123.006-.004.004.004 2-2 .828-.828 1.041-1.041-.707-.707-1.041 1.041-.828.828-1.297 1.297-2.127-2.125-.002.002-.002-.002-1.527 1.527h-6.469v-.992-2h-1m1 3h6.461l-.465.465-.828.828-1.707 1.707h-1.461-1-1v-3" fill="#4d4d4d"/></svg>