<svg xmlns="http://www.w3.org/2000/svg" viewBox="0 0 16 16"><g transform="translate(-421.71-531.79)"><path d="m2 2v10 1 1h12v-12h-12" transform="translate(421.71 531.79)" fill="#4d4d4d"/><g fill="#fff"><path d="m423.71 535.79l2-2 2 2-2 2z"/><path d="m423.71 539.79l2-2 2 2-2 2z"/><path d="m423.71 543.79l2-2 2 2-2 2z"/><path d="m427.71 535.79l2-2 2 2-2 2z"/><path d="m427.71 539.79l2-2 2 2-2 2z"/><path d="m427.71 543.79l2-2 2 2-2 2z"/><path d="m431.71 535.79l2-2 2 2-2 2z"/><path d="m431.71 539.79l2-2 2 2-2 2z"/><path d="m431.71 543.79l2-2 2 2-2 2z"/></g></g></svg>