<svg xmlns="http://www.w3.org/2000/svg" viewBox="0 0 16 16"><g transform="translate(-421.71-531.79)" fill-rule="evenodd"><path d="m423.71 537.79v8h8v-8h-8m1 1h6v6h-6v-6" fill="#1d99f3"/><path fill="#b3b3b3" d="m424.71 538.79h6v6h-6z"/><path d="m431.21429 533.79074a4.5 4.5 0 0 0 -4.5 4.5 4.5 4.5 0 0 0 4.5 4.5 4.5 4.5 0 0 0 4.5 -4.5 4.5 4.5 0 0 0 -4.5 -4.5m0 1a3.5 3.5 0 0 1 3.5 3.5 3.5 3.5 0 0 1 -3.5 3.5 3.5 3.5 0 0 1 -3.5 -3.5 3.5 3.5 0 0 1 3.5 -3.5" fill="#1d99f3"/><circle cx="431.21" cy="538.29" r="3.5" fill="#b3b3b3"/></g></svg>