<svg xmlns="http://www.w3.org/2000/svg" viewBox="0 0 22 22"><g transform="translate(-326-534.36)" fill="#4d4d4d"><path d="m329 552.36h16v1h-16z"/><g color-rendering="auto" shape-rendering="auto" color-interpolation-filters="linearRGB" image-rendering="auto" fill-rule="evenodd" color-interpolation="sRGB" color="#000"><path d="m334 545.36c-1.167 0-2.443.538-3.473 1.053-.753.377-1.25.682-1.527.857v1.191l.277-.186c0 0 .725-.484 1.695-.969.97-.485 2.194-.947 3.03-.947.333 0 .742.182 1.199.525.457.343.947.828 1.447 1.328.5.5 1.01 1.015 1.553 1.422.543.407 1.134.725 1.801.725 1.167 0 2.443-.538 3.473-1.053.753-.376 1.25-.682 1.527-.857v-1.191l-.277.186c0 0-.725.484-1.695.969-.97.485-2.194.947-3.03.947-.333 0-.742-.18-1.199-.523-.457-.343-.947-.83-1.447-1.33-.5-.5-1.01-1.013-1.553-1.42-.543-.407-1.134-.727-1.801-.727" mix-blend-mode="normal" isolation="auto" white-space="normal" solid-opacity="1" solid-color="#000000"/><path d="m336.96 537.36c-.341 0-.663.128-.902.33-.239.202-.402.461-.529.738-.254.554-.377 1.205-.506 1.829-.129.625-.262 1.223-.438 1.607-.088.192-.182.323-.266.394-.084.071-.149.1-.282.1-.129 0-.191-.028-.276-.102-.085-.074-.183-.212-.272-.41-.178-.397-.31-1.013-.44-1.648-.129-.635-.252-1.286-.508-1.837-.128-.275-.295-.534-.542-.728-.247-.194-.581-.299-.923-.271-.653.054-1.12.545-1.425 1.093-.305.549-.499 1.205-.639 1.849-.004.019-.006.036-.001.055h1c.126-.53.291-1.046.493-1.41.223-.402.436-.572.655-.59.13-.011.183.001.257.068.074.058.167.177.253.363.173.372.305.979.434 1.613.129.634.255 1.296.508 1.861.126.282.287.546.525.754.238.207.563.34.908.34.341 0 .663-.126.902-.328.239-.202.402-.463.529-.74.254-.554.377-1.203.506-1.827.129-.625.262-1.225.438-1.609.088-.192.182-.321.266-.392.084-.071.149-.102.282-.102.132 0 .196.029.278.1.082.07.175.201.261.392.172.383.299.983.424 1.609.125.626.25 1.275.508 1.831.129.278.295.54.538.742.243.201.568.324.913.324.345 0 .671-.124.913-.326.242-.202.406-.464.533-.742.253-.557.371-1.207.493-1.831.122-.625.247-1.224.421-1.605.087-.19.181-.319.266-.39.085-.071.155-.103.297-.103.284 0 .483.154.708.539.212.362.379.903.495 1.46h.995c-.006-.033-.009-.064-.015-.098-.128-.656-.314-1.324-.637-1.876-.323-.553-.855-1.025-1.545-1.025-.345 0-.671.126-.913.328-.242.202-.406.464-.533.742-.253.557-.371 1.207-.493 1.831-.122.625-.247 1.224-.421 1.605-.087.19-.181.319-.266.39-.085.071-.155.102-.297.102-.142 0-.214-.032-.301-.103-.087-.072-.184-.202-.272-.392-.177-.381-.307-.979-.432-1.603-.125-.624-.246-1.273-.495-1.827-.125-.277-.284-.537-.521-.74-.238-.203-.561-.332-.902-.332" mix-blend-mode="normal" isolation="auto" white-space="normal" solid-opacity="1" solid-color="#000000"/></g></g></svg>