<svg xmlns="http://www.w3.org/2000/svg" viewBox="0 0 16 16"><g transform="translate(-421.71-531.79)" fill-rule="evenodd"><path fill="#b3b3b3" d="m424.71 538.79h6v6h-6z"/><path d="M9 2.03125A4.5 4.5 0 0 0 7.699219 2.378906L8.203 3.252A3.5 3.5 0 0 1 9 3.039063V2.031M10 2.033V3.041A3.5 3.5 0 0 1 10.796875 3.251953L11.299 2.383A4.5 4.5 0 0 0 10 2.033203M6.833984 2.880859A4.5 4.5 0 0 0 5.880859 3.833984L6.754 4.336A3.5 3.5 0 0 1 7.333984 3.75L6.834 2.881M12.166 2.881L11.664 3.754A3.5 3.5 0 0 1 12.25 4.333984L13.12 3.834A4.5 4.5 0 0 0 12.166016 2.880859M13.621 4.699L12.748 5.203A3.5 3.5 0 0 1 12.960938 6H13.969A4.5 4.5 0 0 0 13.621094 4.699219M5.382813 4.701172A4.5 4.5 0 0 0 5.0332 6H2V14H10V10.969A4.5 4.5 0 0 0 11.300781 10.621094L10.797 9.748A3.5 3.5 0 0 1 10 9.958984V6H6.04A3.5 3.5 0 0 1 6.251953 5.203125L5.383 4.701M3 7H5.03A4.5 4.5 0 0 0 9 10.966797V13H3V7M6.04 7H9V9.959A3.5 3.5 0 0 1 6.03906 7M12.958984 7A3.5 3.5 0 0 1 12.748047 7.796875L13.617 8.299A4.5 4.5 0 0 0 13.966797 7H12.959M12.246094 8.664063A3.5 3.5 0 0 1 11.666016 9.25L12.166 10.119A4.5 4.5 0 0 0 13.11914 9.166016L12.246 8.664" transform="translate(421.71 531.79)" fill="#4d4d4d"/></g></svg>