<svg xmlns="http://www.w3.org/2000/svg" viewBox="0 0 22 22"><g transform="translate(0-1030.36)"><g fill="#4d4d4d"><path transform="translate(-1 1029.36)" d="m17 4v3h3v-3h-3m1 1h1v1h-1v-1"/><path d="m3 1046.36v3h3v-3h-3m1 1h1v1h-1v-1"/></g><path transform="translate(-1 1029.36)" d="M17 5A12 12 0 0 0 5 17h1A11 11 0 0 1 17 6v-1" fill="#1d99f3"/><g fill="#4d4d4d"><path d="m18 1044.36h1v5h-1z"/><path d="m14 1044.97l1.905 1.891-1.873 1.935.576.565 2.392-2.5-2.392-2.5c.03-.016-.608.609-.608.609" shape-rendering="auto" mix-blend-mode="normal" color-interpolation-filters="linearRGB" isolation="auto" white-space="normal" solid-opacity="1" image-rendering="auto" solid-color="#000000" color="#000" fill-rule="evenodd" color-rendering="auto" color-interpolation="sRGB"/></g></g></svg>