<svg xmlns="http://www.w3.org/2000/svg" viewBox="0 0 16 16"><g transform="translate(-421.71-531.79)" fill-rule="evenodd"><path d="m423.71 537.79v8h8v-8h-8m1 1h6v6h-6v-6" fill="#4d4d4d"/><path fill="#b3b3b3" d="m424.71 538.79h6v6h-6z"/><path d="M9.5 2A4.5 4.5 0 0 0 5 6.5 4.5 4.5 0 0 0 9.5 11 4.5 4.5 0 0 0 14 6.5 4.5 4.5 0 0 0 9.5 2M9.5 3A3.5 3.5 0 0 1 13 6.5 3.5 3.5 0 0 1 9.5 10 3.5 3.5 0 0 1 6 6.5 3.5 3.5 0 0 1 9.5 3" transform="translate(421.71 531.79)" fill="#4d4d4d"/><circle cx="431.21" cy="538.29" r="3.5" fill="#b3b3b3"/></g></svg>