<svg xmlns="http://www.w3.org/2000/svg" viewBox="0 0 16 16"><g transform="translate(-421.71-531.79)" fill-rule="evenodd"><path d="M9.5 3A3.5 3.5 0 0 0 6 6.5 3.5 3.5 0 0 0 6.03906 7H9V9.959A3.5 3.5 0 0 0 9.5 10 3.5 3.5 0 0 0 13 6.5 3.5 3.5 0 0 0 9.5 3M9 9.958984A3.5 3.5 0 0 1 6.03906 7H3V13H9V9.959" transform="translate(421.71 531.79)" fill="#b3b3b3"/><g fill="#4d4d4d"><path d="m423.71 537.79v8h8v-8h-8m1 1h6v6h-6v-6"/><path d="m431.21429 533.79074a4.5 4.5 0 0 0 -4.5 4.5 4.5 4.5 0 0 0 4.5 4.5 4.5 4.5 0 0 0 4.5 -4.5 4.5 4.5 0 0 0 -4.5 -4.5m0 1a3.5 3.5 0 0 1 3.5 3.5 3.5 3.5 0 0 1 -3.5 3.5 3.5 3.5 0 0 1 -3.5 -3.5 3.5 3.5 0 0 1 3.5 -3.5"/></g></g></svg>