<svg xmlns="http://www.w3.org/2000/svg" viewBox="0 0 22 22"><defs><clipPath><rect y="8" x="8" height="32" width="32" fill="none" rx="16"/></clipPath><clipPath><rect y="507.8" x="392.57" height="32" width="32" fill="none" rx="16"/></clipPath><clipPath><rect width="32" height="32" x="392.57" y="507.8" fill="none" rx="16"/></clipPath><clipPath><rect y="507.8" x="392.57" height="32" width="32" fill="none" rx="16"/></clipPath><clipPath><rect y="507.8" x="392.57" height="32" width="32" fill="none" rx="16"/></clipPath><clipPath><rect width="32" height="32" x="392.57" y="507.8" fill="none" rx="16"/></clipPath><clipPath><rect width="32" height="32" x="8" y="8" fill="none" rx="16"/></clipPath><clipPath><rect width="32" height="32" x="392.57" y="507.8" fill="none" rx="16"/></clipPath><clipPath><rect y="507.8" x="392.57" height="32" width="32" fill="none" rx="16"/></clipPath><clipPath><rect y="507.8" x="392.57" height="32" width="32" fill="none" rx="16"/></clipPath><clipPath><rect y="8" x="8" height="32" width="32" fill="none" rx="16"/></clipPath><clipPath><path d="m0 706.47h1490.93v-706.47h-1490.93v706.47"/></clipPath><clipPath><path d="m22.2 686.12h1447.73v-667.19h-1447.73v667.19"/></clipPath><clipPath><rect y="507.8" x="392.57" height="32" width="32" fill="none" rx="16"/></clipPath><clipPath><rect y="507.8" x="392.57" height="32" width="32" fill="none" rx="16"/></clipPath><clipPath><rect y="507.8" x="392.57" height="32" width="32" fill="none" rx="16"/></clipPath><clipPath><rect y="507.8" x="392.57" height="32" width="32" fill="none" rx="16"/></clipPath><clipPath><rect y="8" x="8" height="32" width="32" fill="none" rx="16"/></clipPath></defs><path d="m318.74 145.44h78.5c3.764 7.97 11.877 13.5 21.26 13.5 12.958 0 23.5-10.542 23.5-23.5 0-12.958-10.542-23.5-23.5-23.5-9.383 0-17.496 5.53-21.26 13.5h-131.91v-27.11c0-5.522-4.478-10-10-10h-68.67c-5.522 0-10 4.478-10 10v27.11h-131.91c-3.764-7.97-11.877-13.5-21.26-13.5-12.958 0-23.5 10.542-23.5 23.5 0 12.958 10.542 23.5 23.5 23.5 9.383 0 17.496-5.53 21.26-13.5h78.5c-26.572 13.13-50.5 31.578-70.1 54.44-34.28 39.982-53.17 91.05-53.17 143.79 0 5.522 4.478 10 10 10 5.522 0 10-4.478 10-10 0-95 65.2-175.66 156.67-196.09v19.426c0 5.522 4.478 10 10 10h68.67c5.522 0 10-4.478 10-10v-19.427c91.46 20.437 156.67 101.09 156.67 196.09 0 5.522 4.478 10 10 10 5.522 0 10-4.478 10-10 0-52.74-18.882-103.81-53.17-143.79-19.6-22.858-43.524-41.31-70.1-54.43z" stroke-width="9.302" transform="matrix(.04415.00036-.00036.04415 1.329 1.132)" fill="#1A1D20" stroke="#1A1D20" stroke-linejoin="round" stroke-linecap="round"/></svg>