<svg xmlns="http://www.w3.org/2000/svg" viewBox="0 0 22 22"><path d="m413.39 578.5l-10.26-6.66 80.1-119.34 10.08 6.84zm19.8-75.06c-6 6.12-13.2 9.18-21.6 9.18-8.4 0-15.66-3.06-21.78-9.18-6-6.12-9-13.32-9-21.6 0-8.28 3-15.48 9-21.6 6.12-6.12 13.38-9.18 21.78-9.18 8.4 0 15.6 3.06 21.6 9.18 6.12 6.12 9.18 13.32 9.18 21.6 0 8.28-3.06 15.48-9.18 21.6m73.44 67.32c-6 6.12-13.2 9.18-21.6 9.18-8.4 0-15.66-3.06-21.78-9.18-6-6.12-9-13.32-9-21.6 0-8.28 3-15.48 9-21.6 6.12-6.12 13.38-9.18 21.78-9.18 8.4 0 15.6 3.06 21.6 9.18 6.12 6.12 9.18 13.32 9.18 21.6 0 8.28-3.06 15.48-9.18 21.6" transform="matrix(.12415 0 0 .12415-44.656-52.998)" fill="#1A1D20"/></svg>