<svg xmlns="http://www.w3.org/2000/svg" viewBox="0 0 22 22"><defs><clipPath><path fill="#f2f2f2" d="m7 1023.36h1v1h-1z"/></clipPath></defs><g transform="translate(-544.57-742.93)"><path d="m15 3l-11 6h10v8l6-9v-5h-5m-11 7v8h9v-8h-9" transform="translate(544.57 742.93)" fill="#b3b3b3"/><path d="m556.95 746.93l-9 5-.375.218v9.782h10.803l.197-.344 5-8.594 1-1.719v-2.031-2.625-.688h-.688-3.063-2.094zm2.063 0h3.875l-5 5h-7.875zm4.563.688v3.344l-5 8.594v-6.938zm-15 5.313h9v8h-9z" color="#000" fill="#4d4d4d"/></g></svg>