<svg xmlns="http://www.w3.org/2000/svg" viewBox="0 0 22 22"><g transform="matrix(.1615 0 0 .1615 1.91 1.638)" fill-opacity="1" fill="#4d4d4d"><path d="m57.57 8.464c-1.412 0-2.634.517-3.666 1.548l-27.13 27.13h-21.346c-1.413 0-2.635.517-3.667 1.548-1.032 1.032-1.548 2.255-1.548 3.667v31.28c0 1.412.516 2.635 1.548 3.666 1.033 1.032 2.255 1.549 3.667 1.549h21.345l27.13 27.13c1.032 1.031 2.254 1.548 3.666 1.548 1.413 0 2.635-.517 3.667-1.548 1.032-1.031 1.548-2.254 1.548-3.666v-88.64c0-1.412-.516-2.635-1.547-3.667-1.033-1.031-2.254-1.548-3.667-1.548"/><path d="m68.989 48l23.953-23.953c1.521-1.52 2.281-3.367 2.281-5.54 0-2.173-.761-4.02-2.281-5.54l-11.08-11.08c-1.521-1.521-3.367-2.281-5.539-2.281-2.174 0-4.02.76-5.541 2.281l-23.953 23.953-23.953-23.953c-1.52-1.521-3.367-2.281-5.54-2.281-2.172 0-4.02.76-5.54 2.281l-11.08 11.08c-1.52 1.52-2.281 3.367-2.281 5.54 0 2.173.76 4.02 2.281 5.54l23.953 23.953-23.953 23.953c-1.52 1.521-2.281 3.367-2.281 5.54 0 2.173.76 4.02 2.281 5.54l11.08 11.08c1.521 1.521 3.368 2.281 5.54 2.281 2.173 0 4.02-.761 5.54-2.281l23.953-23.953 23.954 23.953c1.521 1.521 3.366 2.281 5.541 2.281 2.172 0 4.02-.761 5.539-2.281l11.08-11.08c1.521-1.52 2.281-3.367 2.281-5.54 0-2.173-.76-4.02-2.281-5.54l-23.953-23.953" transform="matrix(.45902 0 0 .45902 68.7 38.09)"/></g></svg>