<svg xmlns="http://www.w3.org/2000/svg" viewBox="0 0 16 16"><path d="m8 2c-2.209 0-4 1.791-4 4 .002.476.088.949.256 1.395.121.335.366.707.52.963l3.225 5.643 3.225-5.641c.253-.315.363-.649.521-.965.167-.446.253-.918.254-1.395 0-2.209-1.791-4-4-4m0 1c.915 0 1.781.418 2.35 1.135.125.157.233.326.324.504.182.358.29.748.318 1.148.005.071.008.142.008.213 0 .301-.046.6-.135.887-.049.156-.111.307-.186.453-.008.018-.017.037-.025.055-.518.987-1.54 1.605-2.654 1.605-1.114-.0001-2.136-.619-2.654-1.605-.044-.085-.085-.171-.121-.26l-.006-.014c-.033-.083-.062-.167-.088-.252-.004-.012-.008-.023-.012-.035-.022-.08-.041-.161-.057-.242-.004-.017-.008-.034-.012-.051-.015-.084-.027-.169-.035-.254-.0001-.014-.003-.029-.004-.043-.007-.081-.011-.163-.012-.244 0-.1.005-.2.016-.299.081-.807.484-1.546 1.119-2.051.157-.125.326-.233.504-.324.422-.215.888-.326 1.361-.326" color="#4d4d4d"/></svg>