<svg xmlns="http://www.w3.org/2000/svg" viewBox="0 0 22 22"><path d="m4.6 3c-.443 0-.799.358-.799.801v14.398c0 .443.356.801.799.801h12.801c.443 0 .799-.358.799-.801v-14.398c0-.443-.356-.801-.799-.801h-12.801m9.143 5c.135 0 .25.046.344.141l.688.688c.094.094.141.209.141.344 0 .135-.046.249-.141.344l-3.658 3.656-.686.688c-.094.094-.209.141-.344.141-.135 0-.25-.046-.344-.141l-.688-.688-1.828-1.828c-.094-.094-.141-.209-.141-.344 0-.135.046-.249.141-.344l.688-.688c.094-.094.209-.141.344-.141.135 0 .249.046.344.141l1.484 1.49 3.313-3.318c.094-.094.209-.141.344-.141" transform="translate(0-.032)" stroke-opacity=".55" fill="#4d4d4d" stroke-width="2.8" stroke="none"/></svg>