<svg xmlns="http://www.w3.org/2000/svg" viewBox="0 0 22 22"><path d="m1.15 3c-.417 0-.752.337-.752.754v14.492c0 .417.335.754.752.754h19.699c.417 0 .752-.337.752-.754v-14.492c0-.417-.335-.754-.752-.754h-19.699m9.09 4.51c.053.014.101.045.145.092l.615.633.615-.633c.088-.091.194-.119.318-.086.124.03.202.108.232.232l.219.855.848-.24c.125-.036.23-.008.318.086.094.088.122.194.086.318l-.24.848.855.219c.122.03.2.108.236.232.03.128.0001.233-.09.318l-.629.615.629.615c.091.085.12.191.09.318-.036.124-.115.202-.236.232l-.855.219.24.846c.036.124.008.232-.086.32-.088.094-.194.122-.318.086l-.848-.242-.219.857c-.03.121-.108.2-.232.236-.037.006-.065.001-.086.001-.094 0-.172-.035-.232-.102l-.615-.627-.615.627c-.085.091-.191.122-.318.092-.124-.033-.202-.112-.232-.236l-.219-.857-.848.242c-.124.036-.23.008-.318-.086-.094-.088-.122-.196-.086-.32l.24-.846-.855-.219c-.121-.03-.2-.108-.236-.232-.03-.128-.0001-.233.09-.318l.629-.615-.629-.615c-.091-.085-.12-.191-.09-.318.036-.124.115-.202.236-.232l.855-.219-.24-.848c-.036-.124-.008-.23.086-.318.088-.094.194-.122.318-.086l.848.24.219-.855c.03-.124.108-.202.232-.232.062-.018.121-.02.174-.006" transform="translate(0-.002)" fill="#4d4d4d" stroke="none"/></svg>