<svg xmlns="http://www.w3.org/2000/svg" viewBox="0 0 22 22"><path d="m1.15 3c-.417 0-.752.337-.752.754v14.492c0 .417.335.754.752.754h19.699c.417 0 .752-.337.752-.754v-14.492c0-.417-.335-.754-.752-.754h-19.699m7.686 4.801c.15 0 .276.051.381.156l1.65 1.65 1.648-1.65c.105-.105.233-.156.383-.156.15 0 .276.051.381.156l.764.764c.105.105.156.231.156.381 0 .15-.051.278-.156.383l-1.65 1.648 1.65 1.65c.105.105.156.231.156.381 0 .15-.051.278-.156.383l-.764.764c-.105.105-.231.156-.381.156-.15 0-.276-.051-.381-.156l-1.65-1.65-1.65 1.65c-.105.105-.231.156-.381.156-.15 0-.278-.051-.383-.156l-.762-.764c-.105-.105-.158-.233-.158-.383 0-.15.054-.276.158-.381l1.648-1.65-1.648-1.648c-.105-.105-.158-.233-.158-.383 0-.15.054-.276.158-.381l.762-.764c.105-.105.233-.156.383-.156" transform="matrix(.99999 0 0 .99999 0-.002)" fill="#4d4d4d" stroke="none"/></svg>