<svg xmlns="http://www.w3.org/2000/svg" viewBox="0 0 22 22"><defs><clipPath><path fill="#f2f2f2" d="m7 1023.36h1v1h-1z"/></clipPath></defs><g transform="translate(-544.57-742.93)" fill="#4d4d4d"><path d="m560.07 753.93c.486 1.702 1.694 3.172 2.219 4.344.184.348.281.734.281 1.156 0 1.385-1.115 2.5-2.5 2.5-1.385 0-2.5-1.115-2.5-2.5 0-.423.129-.808.313-1.156.525-1.172 1.701-2.641 2.188-4.344"/><path d="m551.07 753.93c.486 1.702 1.694 3.172 2.219 4.344.184.348.281.734.281 1.156 0 1.385-1.115 2.5-2.5 2.5-1.385 0-2.5-1.115-2.5-2.5 0-.423.129-.808.313-1.156.525-1.172 1.701-2.641 2.188-4.344"/><path d="m555.57 745.93c.486 1.702 1.694 3.172 2.219 4.344.184.348.281.734.281 1.156 0 1.385-1.115 2.5-2.5 2.5-1.385 0-2.5-1.115-2.5-2.5 0-.423.129-.808.313-1.156.525-1.172 1.701-2.641 2.188-4.344"/></g></svg>