<svg xmlns="http://www.w3.org/2000/svg" viewBox="0 0 16 16"><g transform="translate(-421.71-531.79)" fill="#4d4d4d"><g font-family="Sans" word-spacing="0" line-height="125%" letter-spacing="0" font-size="9"><text y="559.42" x="425.31"><tspan x="425.31" y="559.42"/></text><text y="553.56" x="426.04"><tspan x="426.04" y="553.56"/></text><text y="560.42" x="419.31"><tspan x="419.31" y="560.42"/></text><text y="559.42" x="425.31"><tspan x="425.31" y="559.42"/></text><text y="553.56" x="426.04"><tspan x="426.04" y="553.56"/></text><text y="560.42" x="419.31"><tspan x="419.31" y="560.42"/></text><text y="561.4" x="421.07"><tspan x="421.07" y="561.4"/></text><text y="555.53" x="421.81"><tspan x="421.81" y="555.53"/></text><text y="562.4" x="415.07"><tspan x="415.07" y="562.4"/></text></g><g transform="matrix(.02554 0 0 .02554 422.71 532.79)"><path d="m317.77 368.59c-1.712-2.094-4.09-3.142-7.132-3.142h-164.46v-109.64h54.814c4.948 0 9.233-1.809 12.847-5.426 3.616-3.616 5.424-7.898 5.424-12.85 0-4.565-1.431-8.47-4.283-11.704l-91.36-109.64c-3.617-4.184-8.28-6.279-13.99-6.279-5.712 0-10.373 2.092-13.988 6.279l-91.36 109.64c-2.86 3.234-4.285 7.139-4.285 11.704 0 4.952 1.811 9.234 5.424 12.85 3.617 3.617 7.902 5.426 12.85 5.426h54.818v118.78 45.679 3.138 3.714c0 .574.094 1.67.284 3.288.191 1.619.479 2.714.859 3.282.378.575.903 1.335 1.569 2.286.662.951 1.521 1.622 2.565 1.998 1.047.377 2.334.568 3.858.568h274.09c2.471 0 4.613-.903 6.42-2.711 1.807-1.807 2.71-3.948 2.71-6.42 0-1.909-.663-3.9-1.995-6l-45.681-54.816"/><path d="m542.75 297.79c-3.614-3.61-7.898-5.424-12.847-5.424h-54.816v-118.77-45.683-3.14-3.711c0-.572-.096-1.665-.288-3.287-.191-1.619-.479-2.712-.855-3.284-.379-.571-.903-1.334-1.57-2.284-.667-.949-1.522-1.617-2.57-1.999-1.047-.378-2.327-.571-3.854-.571h-274.09c-2.474 0-4.611.905-6.423 2.712-1.805 1.809-2.708 3.951-2.708 6.423 0 2.093.662 3.996 1.997 5.71l45.679 54.818c1.713 2.284 4.093 3.426 7.137 3.426h164.45v109.63h-54.816c-4.948 0-9.232 1.81-12.847 5.42-3.617 3.621-5.427 7.909-5.427 12.854 0 4.568 1.43 8.466 4.287 11.707l91.36 109.63c3.806 4.381 8.467 6.567 13.99 6.567 5.514 0 10.174-2.187 13.983-6.567l91.36-109.63c2.851-3.241 4.284-7.139 4.284-11.707.005-4.942-1.81-9.226-5.423-12.843"/></g></g></svg>