<svg xmlns="http://www.w3.org/2000/svg" viewBox="0 0 22 22"><defs><clipPath><path fill="#f2f2f2" d="m7 1023.36h1v1h-1z"/></clipPath><clipPath><path fill="#f2f2f2" d="m7 1023.36h1v1h-1z"/></clipPath></defs><path d="m9.844 3c-.201 0-.326.097-.375.291-.09.347-.192.993-.303 1.937-.326.104-.642.237-.947.396l-1.438-1.115c-.09-.069-.181-.104-.271-.104-.153 0-.481.248-.984.744-.503.497-.845.871-1.025 1.121-.063.09-.094.169-.094.238 0 .083.034.167.104.25.465.563.837 1.042 1.115 1.438-.174.319-.309.64-.406.959l-1.938.291c-.076.014-.142.06-.197.137-.056.076-.084.155-.084.238v2.313c0 .09.028.173.084.246.056.073.128.115.219.129l1.906.281c.097.34.238.684.426 1.031-.125.174-.313.418-.563.734-.25.316-.427.547-.531.693-.056.077-.082.157-.082.24 0 .09.024.169.072.238.271.375.844.958 1.719 1.75.076.076.163.115.26.115.104 0 .192-.031.262-.094l1.469-1.115c.285.146.597.275.938.387l.291 1.916c.007.09.046.166.119.225.073.059.159.088.256.088h2.313c.202 0 .326-.097.375-.291.09-.347.192-.993.303-1.938.326-.104.642-.237.947-.396l1.438 1.125c.097.062.188.094.271.094.153 0 .479-.247.979-.74.5-.493.844-.868 1.031-1.125.063-.069.094-.148.094-.238 0-.09-.034-.179-.104-.262-.5-.611-.872-1.09-1.115-1.438.139-.257.274-.572.406-.947l1.928-.291c.083-.014.152-.06.207-.137.055-.076.084-.155.084-.238v-2.312c0-.09-.028-.173-.084-.246-.056-.073-.128-.115-.219-.129l-1.906-.293c-.104-.333-.245-.672-.426-1.02.125-.174.313-.418.563-.734.25-.316.427-.547.531-.693.056-.076.082-.157.082-.24 0-.097-.024-.173-.072-.229-.25-.354-.823-.945-1.719-1.771-.083-.069-.17-.104-.26-.104-.104 0-.187.031-.25.094l-1.48 1.115c-.285-.146-.597-.276-.938-.387l-.291-1.916c-.007-.09-.046-.166-.119-.225-.073-.059-.158-.088-.256-.088h-2.313m-1.373 5.77h5.059c.274 0 .496.188.496.422v.094c0 .234-.222.422-.496.422h-5.059c-.274 0-.496-.188-.496-.422v-.094c0-.234.222-.422.496-.422m0 1.973h5.059c.274 0 .496.188.496.422v.094c0 .234-.222.422-.496.422h-5.059c-.274 0-.496-.188-.496-.422v-.094c0-.234.222-.422.496-.422m0 1.951h5.059c.274 0 .496.188.496.422v.094c0 .234-.222.422-.496.422h-5.059c-.274 0-.496-.188-.496-.422v-.094c0-.234.222-.422.496-.422" transform="matrix(.99999 0 0 1-.0001.008)" fill="#4d4d4d"/></svg>