<svg xmlns="http://www.w3.org/2000/svg" viewBox="0 0 22 22"><defs><clipPath><path fill="#00f" fill-opacity=".514" d="m-7 1024.36h34v34h-34z"/></clipPath><clipPath><path fill="#aade87" fill-opacity=".472" d="m-6 1028.36h32v32h-32z"/></clipPath><clipPath><path d="m69.63 12.145h-.052c-22.727-.292-46.47 4.077-46.709 4.122-2.424.451-4.946 2.974-5.397 5.397-.044.237-4.414 23.983-4.122 46.71-.292 22.777 4.078 46.523 4.122 46.761.451 2.423 2.974 4.945 5.398 5.398.237.044 23.982 4.413 46.709 4.121 22.779.292 46.524-4.077 46.761-4.121 2.423-.452 4.946-2.976 5.398-5.399.044-.236 4.413-23.981 4.121-46.709.292-22.777-4.077-46.523-4.121-46.761-.453-2.423-2.976-4.946-5.398-5.397-.238-.045-23.984-4.414-46.71-4.122"/></clipPath></defs><path d="m9.844 3c-.201 0-.326.097-.375.291-.09.347-.192.993-.303 1.937-.326.104-.642.237-.947.396l-1.438-1.115c-.09-.069-.181-.104-.271-.104-.153 0-.481.248-.984.744-.503.497-.845.871-1.025 1.121-.063.09-.094.169-.094.238 0 .083.034.167.104.25.465.563.837 1.042 1.115 1.438-.174.319-.309.64-.406.959l-1.938.291c-.076.014-.142.06-.197.137-.056.076-.084.155-.084.238v2.313c0 .09.028.173.084.246.056.073.128.115.219.129l1.906.281c.097.34.238.684.426 1.031-.125.174-.313.418-.563.734-.25.316-.427.547-.531.693-.056.077-.082.157-.082.24 0 .09.024.169.072.238.271.375.844.958 1.719 1.75.076.076.163.115.26.115.104 0 .192-.031.262-.094l1.469-1.115c.285.146.597.275.938.387l.291 1.916c.007.09.046.166.119.225.073.059.159.088.256.088h2.313c.202 0 .326-.097.375-.291.09-.347.192-.993.303-1.938.326-.104.642-.237.947-.396l1.438 1.125c.097.062.188.094.271.094.153 0 .479-.247.979-.74.5-.493.844-.868 1.031-1.125.063-.069.094-.148.094-.238 0-.09-.034-.179-.104-.262-.5-.611-.872-1.09-1.115-1.438.139-.257.274-.572.406-.947l1.928-.291c.083-.014.152-.06.207-.137.055-.076.084-.155.084-.238v-2.312c0-.09-.028-.173-.084-.246-.056-.073-.128-.115-.219-.129l-1.906-.293c-.104-.333-.245-.672-.426-1.02.125-.174.313-.418.563-.734.25-.316.427-.547.531-.693.056-.076.082-.157.082-.24 0-.097-.024-.173-.072-.229-.25-.354-.823-.945-1.719-1.771-.083-.069-.17-.104-.26-.104-.104 0-.187.031-.25.094l-1.48 1.115c-.285-.146-.597-.276-.938-.387l-.291-1.916c-.007-.09-.046-.166-.119-.225-.073-.059-.158-.088-.256-.088h-2.313m1.156 5.1c.544 0 1.046.134 1.506.402.46.268.824.632 1.092 1.092.268.46.402.962.402 1.506 0 .544-.134 1.046-.402 1.506-.268.46-.632.824-1.092 1.092-.46.268-.962.402-1.506.402-.544 0-1.046-.134-1.506-.402-.46-.268-.824-.632-1.092-1.092-.268-.46-.402-.962-.402-1.506 0-.544.134-1.046.402-1.506.268-.46.632-.824 1.092-1.092.46-.268.962-.402 1.506-.402m-.883 1.512c-.07 0-.13.025-.18.074l-.352.352c-.049.049-.074.109-.074.18 0 .068.025.126.074.176l.707.707-.707.707c-.049.049-.074.108-.074.176 0 .07.025.13.074.18l.352.352c.049.049.109.074.18.074.068 0 .126-.025.176-.074l.707-.707.707.707c.049.049.108.074.176.074.07 0 .13-.025.18-.074l.352-.352c.049-.049.074-.109.074-.18 0-.068-.025-.126-.074-.176l-.707-.707.707-.707c.049-.049.074-.108.074-.176 0-.07-.025-.13-.074-.18l-.352-.352c-.049-.049-.109-.074-.18-.074-.068 0-.126.025-.176.074l-.707.707-.707-.707c-.049-.049-.108-.074-.176-.074" transform="translate(0 .008)" fill="#4d4d4d"/></svg>