<svg xmlns="http://www.w3.org/2000/svg" viewBox="0 0 22 22"><path d="m394.01 528.14c-.413 0-.748.336-.748.75v13.272c0 .414.335.75.748.75h14.203c.413 0 .748-.336.748-.75v-13.272c0-.414-.335-.75-.748-.75h-14.203m9.404 2.652c.947 0 1.715.771 1.715 1.722 0 .951-.768 1.722-1.715 1.722-.947 0-1.715-.771-1.715-1.722 0-.951.768-1.722 1.715-1.722m-2.302 10.473h-5.272c-.474 0-.685-.344-.471-.768l2.943-5.852c.213-.424.62-.462.907-.085l2.959 3.882c.288.378.791.41 1.124.072l.724-.736c.333-.338.823-.296 1.094.093l1.875 2.688c.271.39.108.706-.366.706h-5.518" stroke="none" transform="matrix(1.08646 0 0 1.08311-424.78-569.02)" fill="#4d4d4d" stroke-opacity=".8"/></svg>