<svg xmlns="http://www.w3.org/2000/svg" viewBox="0 0 22 22"><g transform="translate(0-1030.36)"><path d="m16 1034.36v3h3v-3h-3m1 1h1v1h-1v-1" fill="#4d4d4d"/><g fill="#1d99f3"><g transform="translate(-1 1029.36)"><path d="m4 16v4h4v-4h-4m1 1h2v2h-2v-2"/><path d="M5.980469 4A2 2 0 0 0 4 6.01367 2 2 0 0 0 6.00586 8 2 2 0 0 0 8 6V5.975A2 2 0 0 0 5.980469 4m.00977 1A1 1 0 0 1 7 5.986328V6A1 1 0 0 1 6.00391 7 1 1 0 0 1 5 6.00586 1 1 0 0 1 5.990234 5"/></g><path d="m4.5 1036.36h1v3h-1z"/><path d="m4.5 1040.36h1v1h-1z"/></g><path d="m15.88711 1035.3622a11.559518 11 0 0 0 -11.38711 10h1.047a10.508653 10 0 0 1 10.350612 -9 10.508653 10 0 0 1 .102628 0v-1a11.559518 11 0 0 0 -.112886 0z" fill="#4d4d4d"/></g></svg>