<svg xmlns="http://www.w3.org/2000/svg" viewBox="0 0 22 22"><g transform="translate(-327-533.36)"><path d="m338 542.3622a2 2 0 0 0 -2 2 2 2 0 0 0 2 2 2 2 0 0 0 2 -2 2 2 0 0 0 -2 -2m0 1a1 1 0 0 1 1 1 1 1 0 0 1 -1 1 1 1 0 0 1 -1 -1 1 1 0 0 1 1 -1" fill="#1d99f3"/><g fill="#4d4d4d"><path d="m343 549.36v3h3v-3h-3m1 1h1v1h-1v-1"/><path d="m343 536.36v3h3v-3h-3m1 1h1v1h-1v-1"/><path d="m330 536.36v3h3v-3h-3m1 1h1v1h-1v-1"/><path d="m330 549.36v3h3v-3h-3m1 1h1v1h-1v-1"/><path d="m333 537.36h1v1h-1z"/><path d="m336 537.36h1v1h-1z"/><path d="m339 537.36h1v1h-1z"/><path d="m342 537.36h1v1h-1z"/><path d="m333 550.36h1v1h-1z"/><path d="m336 550.36h1v1h-1z"/><path d="m339 550.36h1v1h-1z"/><path d="m342 550.36h1v1h-1z"/><path d="m331 539.36h1v1h-1z"/><path d="m331 548.36h1v1h-1z"/><path d="m331 545.36h1v1h-1z"/><path d="m331 542.36h1v1h-1z"/><path d="m344 539.36h1v1h-1z"/><path d="m344 548.36h1v1h-1z"/><path d="m344 545.36h1v1h-1z"/><path d="m344 542.36h1v1h-1z"/></g></g></svg>