<svg xmlns="http://www.w3.org/2000/svg" viewBox="0 0 16 16"><g transform="translate(-421.71-531.79)"><path d="M14 2A12 12.00001 0 0 0 2 14H3A11 11 0 0 1 14 3V2" transform="translate(421.71 531.79)" fill="#4d4d4d"/><g fill="#1d99f3"><path d="m426.21429 534.79074a1.499998 1.499998 0 0 0 -1.5 1.5 1.499998 1.499998 0 0 0 1.5 1.5 1.499998 1.499998 0 0 0 1.5 -1.5 1.499998 1.499998 0 0 0 -1.5 -1.5m0 1a.5 .5 0 0 1 .5 .5 .5 .5 0 0 1 -.5 .5 .5 .5 0 0 1 -.5 -.5 .5 .5 0 0 1 .5 -.5"/><path d="m429.21429 537.79074a1.499998 1.499998 0 0 0 -1.5 1.5 1.499998 1.499998 0 0 0 1.5 1.5 1.499998 1.499998 0 0 0 1.5 -1.5 1.499998 1.499998 0 0 0 -1.5 -1.5m0 1a.5 .5 0 0 1 .5 .5 .5 .5 0 0 1 -.5 .5 .5 .5 0 0 1 -.5 -.5 .5 .5 0 0 1 .5 -.5"/></g></g></svg>