<svg xmlns="http://www.w3.org/2000/svg" viewBox="0 0 22 22"><g transform="translate(-326-534.36)"><g fill="#4d4d4d"><path d="m10.5 3v9h1v-9h-1m0 11v5h1v-5h-1" transform="translate(326 534.36)"/><g fill-rule="evenodd"><path d="m338.5 540.36l2-2v4z"/><path d="m335.5 540.36l-2-2v4z"/><path d="m18.467 7.252l-.006.002v.002l.006-.004m-.006.004l-6.893 4.744h.432v.92l7-4.813-.539-.852m-8.461 5.824l-6.699 4.611.582.809 6.545-4.5h-.428v-.92m-6.699 4.611l-.002-.004v.006l.002-.002" transform="translate(326 534.36)" shape-rendering="auto" mix-blend-mode="normal" color-interpolation-filters="linearRGB" isolation="auto" white-space="normal" solid-opacity="1" image-rendering="auto" solid-color="#000000" color="#000" color-rendering="auto" color-interpolation="sRGB"/></g></g><path d="m335 545.36v4h4v-4h-4m1 1h2v2h-2v-2" fill="#1d99f3"/></g></svg>