<svg xmlns="http://www.w3.org/2000/svg" viewBox="0 0 16 16"><g transform="translate(-421.71-531.79)"><path d="M8 2.025391A5.500002 5.500015 0 0 0 3.02734 7H4V7.5A4.5 4.5 0 0 1 8.5 3H8V2.025M8.5 3A4.5 4.5 0 0 1 13 7.5V7H13.975A5.500002 5.500015 0 0 0 9 2.027344V3H8.5M13 7.5A4.5 4.5 0 0 1 8.5 12H9V12.975A5.500002 5.500015 0 0 0 13.972656 8H13V7.5M8.5 12A4.5 4.5 0 0 1 4 7.5V8H3.03A5.500002 5.500015 0 0 0 8 12.972656V12H8.5" transform="translate(421.71 531.79)" fill="#4d4d4d"/><g fill="#1d99f3"><path d="m428.71 532.79v3h3v-3zm1 1h1v1h-1z"/><path d="m423.71 537.79v3h3v-3zm1 1h1v1h-1z"/><path d="m433.71 537.79v3h3v-3zm1 1h1v1h-1z"/><path d="m428.71 542.79v3h3v-3zm1 1h1v1h-1z"/></g></g></svg>