<svg xmlns="http://www.w3.org/2000/svg" viewBox="0 0 16 16"><g transform="translate(-421.71-531.79)"><g fill="#1d99f3"><path d="m432.71 533.79v3h3v-3zm1 1h1v1h-1z"/><path d="m423.71 533.79v3h3v-3zm1 1h1v1h-1z"/><path d="m432.71 542.79v3h3v-3zm1 1h1v1h-1z"/><path d="m423.71 542.79v3h3v-3zm1 1h1v1h-1z"/></g><g fill="#4d4d4d"><rect width="6" height="1" x="426.71" y="534.79" rx="0"/><rect width="6" height="1" x="426.71" y="543.79" rx="0"/><rect width="1" height="6" x="433.71" y="536.79" rx="0"/><rect width="1" height="6" x="424.71" y="536.79" rx="0"/></g></g></svg>