<svg xmlns="http://www.w3.org/2000/svg" viewBox="0 0 22 22"><defs><clipPath><path d="m0 706.47h1490.93v-706.47h-1490.93v706.47"/></clipPath><clipPath><path d="m22.2 686.12h1447.73v-667.19h-1447.73v667.19"/></clipPath></defs><g transform="matrix(.10946 0 0 .10946-16.02 5.218)" fill="#4d4d4d"><path d="m145.23 5.631c-.518-.515-1.127-.773-1.834-.773h-99.07c-.706 0-1.317.257-1.833.773-.516.517-.774 1.127-.774 1.833v15.644c0 .706.258 1.316.774 1.833.516.515 1.127.773 1.833.773h99.07c.707 0 1.317-.257 1.834-.773.516-.517.773-1.127.773-1.833v-15.644c0-.706-.258-1.317-.773-1.833" transform="translate(173.81-19.892)"/><path d="m143.39 46.572h-99.07c-.706 0-1.317.257-1.833.774-.516.516-.774 1.127-.774 1.833v15.644c0 .705.258 1.316.774 1.832.516.517 1.127.774 1.833.774h99.07c.707 0 1.317-.257 1.834-.774.516-.516.773-1.127.773-1.832v-15.644c0-.706-.258-1.318-.773-1.833-.518-.516-1.127-.774-1.834-.774" transform="translate(173.81-4.345)"/><g transform="translate(173.81 11.56)"><g transform="matrix(1.125 0 0 1.125 0-5.161)"><path d="m15.644-25.31c-4.346 0-8.04 1.521-11.08 4.562-3.041 3.042-4.562 6.735-4.562 11.08 0 4.346 1.52 8.04 4.562 11.08 3.042 3.041 6.736 4.562 11.08 4.562 4.345 0 8.04-1.521 11.08-4.562 3.041-3.042 4.562-6.735 4.562-11.08 0-4.345-1.521-8.04-4.562-11.08-3.041-3.041-6.734-4.562-11.08-4.562"/><path d="m15.643 41.36c-4.346 0-8.04 1.52-11.08 4.562-3.041 3.041-4.562 6.734-4.562 11.08 0 4.345 1.521 8.04 4.563 11.08 3.042 3.041 6.736 4.562 11.08 4.562 4.345 0 8.04-1.521 11.08-4.562 3.041-3.041 4.562-6.735 4.562-11.08 0-4.346-1.521-8.04-4.563-11.08-3.041-3.041-6.734-4.562-11.08-4.562" transform="translate(0-15.905)"/><path d="m15.644 76.58c-4.346 0-8.04 1.52-11.08 4.562-3.041 3.042-4.562 6.735-4.562 11.08 0 4.347 1.52 8.04 4.562 11.08 3.042 3.041 6.736 4.562 11.08 4.562 4.345 0 8.04-1.521 11.08-4.562 3.041-3.042 4.562-6.734 4.562-11.08 0-4.345-1.521-8.04-4.562-11.08-3.041-3.041-6.734-4.562-11.08-4.562"/></g><path d="m143.39 88.29h-99.07c-.706 0-1.317.258-1.833.774-.516.516-.774 1.127-.774 1.832v15.644c0 .707.258 1.317.774 1.834.516.515 1.127.772 1.833.772h99.07c.707 0 1.317-.257 1.834-.772.516-.517.773-1.127.773-1.834v-15.644c0-.705-.258-1.317-.773-1.832-.518-.515-1.127-.774-1.834-.774"/></g></g></svg>