<svg xmlns="http://www.w3.org/2000/svg" viewBox="0 0 22 22"><g transform="translate(-421.71-525.79)" fill="#4d4d4d"><path d="M4.5 3A1.499998 1.5 0 0 0 3 4.5 1.499998 1.5 0 0 0 4.5 6 1.499998 1.5 0 0 0 6 4.5 1.499998 1.5 0 0 0 4.5 3M4.5 4A.5 .5 0 0 1 5 4.5 .5 .5 0 0 1 4.5 5 .5 .5 0 0 1 4 4.5 .5 .5 0 0 1 4.5 4" transform="translate(421.71 525.79)"/><path d="m426.21429 541.79074a1.499998 1.5 0 0 0 -1.5 1.5 1.499998 1.5 0 0 0 1.5 1.5 1.499998 1.5 0 0 0 1.5 -1.5 1.499998 1.5 0 0 0 -1.5 -1.5m0 1a.5 .5 0 0 1 .5 .5 .5 .5 0 0 1 -.5 .5 .5 .5 0 0 1 -.5 -.5 .5 .5 0 0 1 .5 -.5"/><path d="m439.21429 528.79074a1.499998 1.5 0 0 0 -1.5 1.5 1.499998 1.5 0 0 0 1.5 1.5 1.499998 1.5 0 0 0 1.5 -1.5 1.499998 1.5 0 0 0 -1.5 -1.5m0 1a.5 .5 0 0 1 .5 .5 .5 .5 0 0 1 -.5 .5 .5 .5 0 0 1 -.5 -.5 .5 .5 0 0 1 .5 -.5"/><path d="m425.71 530.79h1v12h-1z"/><path d="m438.71 530.79h1v4h-1z"/><path d="m437.71 539.79h1v5h-1z"/><path d="m435.71 541.79h5v1h-5z"/><path d="M17 9A1 1 0 0 1 16 10H6A2 2 0 0 0 4 12H5A1 1 0 0 1 6 11H16A2 2 0 0 0 18 9H17" transform="translate(421.71 525.79)"/></g></svg>