<svg xmlns="http://www.w3.org/2000/svg" viewBox="0 0 22 22"><g transform="translate(-326-534.36)"><path d="M15 5.5A9.5 9.5 0 0 0 5.5 15H7V18H13V16.5A3.5 3.499991 0 0 1 16.5 13H18V7H15V5.5" transform="translate(326 534.36)" fill="#b3b3b3"/><g fill="#1d99f3" fill-rule="evenodd"><path d="m329 549.36v4h4v-4zm1 1h2v2h-2z"/><path d="m341 537.36v4h4v-4zm1 1h2v2h-2z"/></g><g fill="#4d4d4d"><path d="M15 4.5A10.5 10.5 0 0 0 4.5 15H5.5A9.5 9.5 0 0 1 15 5.5V4.5" transform="translate(326 534.36)"/><path d="m342.5 548.3622a2.499991 2.499991 0 0 0 -2.5 2.5 2.499991 2.499991 0 0 0 .41602 1.37695l.732-.732A1.5 1.5 0 0 1 341 550.8622a1.5 1.5 0 0 1 1.5 -1.5 1.5 1.5 0 0 1 .64453 .14844l.732-.732A2.499991 2.499991 0 0 0 342.5 548.3622m2.084 1.123l-.732.732A1.5 1.5 0 0 1 344 550.8622a1.5 1.5 0 0 1 -1.5 1.5 1.5 1.5 0 0 1 -.64453 -.14844l-.732.732a2.499991 2.499991 0 0 0 1.37695 .41602 2.499991 2.499991 0 0 0 2.5 -2.5 2.499991 2.499991 0 0 0 -.41602 -1.37695z"/></g></g></svg>