<svg xmlns="http://www.w3.org/2000/svg" viewBox="0 0 22 22"><defs><clipPath><path fill="#aade87" fill-opacity=".472" d="m-6 1028.36h32v32h-32z"/></clipPath><clipPath><path fill="#00f" fill-opacity=".514" d="m-7 1024.36h34v34h-34z"/></clipPath><clipPath><path d="m0 706.47h1490.93v-706.47h-1490.93v706.47"/></clipPath><clipPath><path d="m22.2 686.12h1447.73v-667.19h-1447.73v667.19"/></clipPath></defs><g fill="#4d4d4d"><path d="m432.21 528.79c-.654 0-1.202.418-1.408 1h-4.092-1v1 11.09c-.582.206-1 .754-1 1.408 0 .831.669 1.5 1.5 1.5.831 0 1.5-.669 1.5-1.5 0-.654-.418-1.202-1-1.408v-11.09h4.092c.15.425.483.758.908.908v6.092 1h1 .092c.206.582.754 1 1.408 1 .831 0 1.5-.669 1.5-1.5 0-.831-.669-1.5-1.5-1.5-.654 0-1.202.418-1.408 1h-.092v-6.092c.582-.206 1-.754 1-1.408 0-.831-.669-1.5-1.5-1.5" transform="matrix(1.01157 0 0 .99865-427.23-525.08)"/><path d="m345.44 248.29l-194.29 194.28c-12.359 12.365-32.397 12.365-44.75 0-12.354-12.354-12.354-32.391 0-44.744l171.91-171.91-171.91-171.9c-12.354-12.359-12.354-32.394 0-44.748 12.354-12.359 32.391-12.359 44.75 0l194.29 194.28c6.177 6.18 9.262 14.271 9.262 22.366 0 8.099-3.091 16.196-9.267 22.373" transform="matrix(-.00006-.01567.01567-.00006 12.534 20.526)"/></g></svg>