<svg xmlns="http://www.w3.org/2000/svg" viewBox="0 0 22 22"><path d="m432.71 528.79c-4.418 0-8 3.582-8 8 0 4.418 3.582 8 8 8 4.418 0 8-3.582 8-8 0-4.418-3.582-8-8-8m-2.667 4c.736 0 1.333.597 1.333 1.333 0 .736-.597 1.333-1.333 1.333-.736 0-1.333-.597-1.333-1.333 0-.736.597-1.333 1.333-1.333m5.333 0c.736 0 1.333.597 1.333 1.333 0 .736-.597 1.333-1.333 1.333-.736 0-1.333-.597-1.333-1.333 0-.736.597-1.333 1.333-1.333m-6.667 5.333h8c0 2.209-1.791 4-4 4-2.209 0-4-1.791-4-4" fill="#4d4d4d" color="#000" transform="translate(-421.71-525.79)"/></svg>