<svg xmlns="http://www.w3.org/2000/svg" viewBox="0 0 22 22"><defs><clipPath><path d="m0 706.47h1490.93v-706.47h-1490.93v706.47"/></clipPath><clipPath><path d="m22.2 686.12h1447.73v-667.19h-1447.73v667.19"/></clipPath></defs><path d="m3.727 3.813l-2.727 4.088v10.563h19.535v-10.988l-2.727-3.662h-5.516l-1.604 2.139-1.428-2.139h-5.535m12.535 8.607c.036.001.07.032.1.064l.42.432.42-.432c.06-.062.134-.083.219-.061.085.021.137.075.158.16l.148.584.58-.164c.085-.025.157-.006.217.059.064.06.085.134.061.219l-.166.578.586.15c.083.021.137.073.162.158.021.087 0 .161-.063.219l-.43.42.43.42c.062.058.083.132.063.219-.025.085-.079.137-.162.158l-.586.148.166.58c.025.085.004.159-.061.219-.06.064-.132.083-.217.059l-.58-.166-.148.586c-.021.083-.073.137-.158.162-.025.004-.046.006-.061.006-.064 0-.117-.023-.158-.068l-.42-.43-.42.43c-.058.062-.132.083-.219.063-.085-.023-.137-.077-.158-.162l-.15-.586-.578.166c-.085.025-.159.006-.219-.059-.064-.06-.084-.134-.059-.219l.164-.58-.584-.148c-.083-.021-.137-.073-.162-.158-.021-.087 0-.161.063-.219l.43-.42-.43-.42c-.062-.058-.083-.132-.063-.219.025-.085.079-.137.162-.158l.584-.15-.164-.578c-.025-.085-.006-.159.059-.219.06-.064.134-.084.219-.059l.578.164.15-.584c.021-.085.073-.139.158-.16.043-.012.083-.014.119-.004" transform="translate(0-.002)" fill="#4d4d4d"/></svg>