<?xml version="1.0" encoding="UTF-8" standalone="no"?>
<svg
   xmlns:dc="http://purl.org/dc/elements/1.1/"
   xmlns:cc="http://creativecommons.org/ns#"
   xmlns:rdf="http://www.w3.org/1999/02/22-rdf-syntax-ns#"
   xmlns:svg="http://www.w3.org/2000/svg"
   xmlns="http://www.w3.org/2000/svg"
   xmlns:sodipodi="http://sodipodi.sourceforge.net/DTD/sodipodi-0.dtd"
   xmlns:inkscape="http://www.inkscape.org/namespaces/inkscape"
   viewBox="0 0 22 22"
   id="svg2"
   version="1.1"
   inkscape:version="0.91 r13725"
   sodipodi:docname="xml-attribute-delete.svg">
  <metadata
     id="metadata12">
    <rdf:RDF>
      <cc:Work
         rdf:about="">
        <dc:format>image/svg+xml</dc:format>
        <dc:type
           rdf:resource="http://purl.org/dc/dcmitype/StillImage" />
      </cc:Work>
    </rdf:RDF>
  </metadata>
  <defs
     id="defs10" />
  <sodipodi:namedview
     pagecolor="#ffffff"
     bordercolor="#666666"
     borderopacity="1"
     objecttolerance="10"
     gridtolerance="10"
     guidetolerance="10"
     inkscape:pageopacity="0"
     inkscape:pageshadow="2"
     inkscape:window-width="1680"
     inkscape:window-height="1028"
     id="namedview8"
     showgrid="false"
     inkscape:zoom="10.727273"
     inkscape:cx="11"
     inkscape:cy="11"
     inkscape:window-x="1366"
     inkscape:window-y="22"
     inkscape:window-maximized="1"
     inkscape:current-layer="svg2" />
  <path
     d="m483.24 0h-150.29c-27.556 0-66.04 15.94-85.52 35.424l-232.81 232.81c-19.483 19.483-19.483 51.37 0 70.85l179.64 179.64c19.483 19.484 51.37 19.484 70.849 0l232.81-232.81c19.483-19.484 35.424-57.969 35.424-85.52v-150.29c-.0001-27.554-22.544-50.1-50.1-50.1m-66.57 166.67c-27.614 0-50-22.385-50-50 0-27.614 22.386-50 50-50 27.614 0 50 22.386 50 50 0 27.614-22.386 50-50 50z"
     fill="#1A1D20"
     transform="matrix(.02655 0 0 .02655 3.16 2.998)"
     id="path4" />
  <path
     inkscape:connector-curvature="0"
     style="fill:#da4453;fill-opacity:1;stroke:none"
     d="M 15.207499,11.701001 A 3.6484996,3.6485042 0 0 0 11.559,15.349501 3.6484996,3.6485042 0 0 0 15.207499,18.998 3.6484996,3.6485042 0 0 0 18.856,15.349501 a 3.6484996,3.6485042 0 0 0 -3.648501,-3.6485 z m -1.501798,1.82425 1.501798,1.5018 1.5018,-1.5018 0.322451,0.322451 -1.5018,1.501799 1.5018,1.5018 -0.322451,0.322449 -1.5018,-1.501798 -1.501798,1.501798 -0.322451,-0.322449 1.5018,-1.5018 -1.5018,-1.501799 0.322451,-0.322451 z"
     class="ColorScheme-NegativeText"
     id="path6-8" />
</svg>
