<svg xmlns="http://www.w3.org/2000/svg" viewBox="0 0 22 22"><path d="m4 3c-.554 0-1 .446-1 1v14c0 .554.446 1 1 1h14c.554 0 1-.446 1-1v-14c0-.554-.446-1-1-1h-14m6.977 2.182c1.458 0 2.713.99 2.713 2.877 0 1.227-.574 2.472-1.326 3.246h.004c-.289.877.173 1.085.246 1.109 1.748.6 3.959 2.098 3.91 4.404h-11.05c-.044-2.414 2.753-4.072 3.781-4.404.11-.04.637-.326.342-1.1-.757-.773-1.328-2.024-1.328-3.256 0-1.887 1.248-2.877 2.707-2.877" transform="matrix(.99999 0 0 .99999-.0001-.002)" fill="#4d4d4d"/></svg>