<svg xmlns="http://www.w3.org/2000/svg" viewBox="0 0 22 22"><path d="m4 3c-.554 0-1 .446-1 1v14c0 .554.446 1 1 1h14c.554 0 1-.446 1-1v-14c0-.554-.446-1-1-1h-14m10.08 4.633c.151 0 .279.052.385.158l.771.773c.106.106.158.232.158.383 0 .151-.052.279-.158.385l-4.104 4.107-.771.768c-.106.106-.234.158-.385.158-.151 0-.279-.052-.385-.158l-.771-.768-2.053-2.055c-.106-.106-.158-.232-.158-.383 0-.151.052-.283.158-.389l.771-.768c.106-.106.234-.162.385-.162.151 0 .281.056.387.162l1.666 1.67 3.719-3.725c.106-.106.234-.158.385-.158" transform="translate(0-.002)" fill="#4d4d4d" fill-rule="evenodd"/></svg>