<svg xmlns="http://www.w3.org/2000/svg" viewBox="0 0 22 22"><defs><clipPath><path d="m0 706.47h1490.93v-706.47h-1490.93v706.47"/></clipPath><clipPath><path d="m22.2 686.12h1447.73v-667.19h-1447.73v667.19"/></clipPath></defs><path d="m-14.04102 2.720703a8 8 0 0 0 -8 8 8 8 0 0 0 8 8 8 8 0 0 0 8 -8 8 8 0 0 0 -8 -8M-12.953 6.273L-8.887 10.25c-.08.087-3.99 4.08-3.99 4.08l-.146-2.711c-.339-.147-2.94-.183-3.785-.053-.576.089-1.415.356-1.988.635-.613.298-.757.279-.648-.092.097-.33.765-1.03 1.379-1.445 1.331-.899 2.848-1.445 4.438-1.602L-13 9-12.953 6.273" transform="translate(25.04.278)" opacity=".98" fill="#4d4d4d"/></svg>