<svg xmlns="http://www.w3.org/2000/svg" viewBox="0 0 22 22"><g transform="translate(-326-534.36)"><path d="m337 546.36v1h4 .5c1.385 0 2.5 1.115 2.5 2.5 0 .819-.396 1.535-1 1.99v-1.49h-1v1.949.051.951.049h1 2v-1h-1.076c.658-.632 1.076-1.51 1.076-2.5 0-1.939-1.561-3.5-3.5-3.5h-4.5" fill="#1d99f3"/><g fill="#4d4d4d"><path d="m3 3v16h8v-1h-7v-14h14v8h1v-9h-16" transform="translate(326 534.36)"/><path d="m331 539.36h12v1h-12z"/><path d="m331 541.36h9v1h-9z"/><path d="m331 544.36h12v1h-12z"/><path d="m331 546.36h4v1h-4z"/><path d="m331 549.36h9v1h-9z"/><path d="m338 551.36h3v1h-3z"/></g></g></svg>