<svg xmlns="http://www.w3.org/2000/svg" viewBox="0 0 22 22"><defs><clipPath><path fill="#00f" fill-opacity=".514" d="m-7 1024.36h34v34h-34z"/></clipPath><clipPath><path fill="#00f" fill-opacity=".514" d="m-7 1024.36h34v34h-34z"/></clipPath><clipPath><path fill="#aade87" fill-opacity=".472" d="m-6 1028.36h32v32h-32z"/></clipPath></defs><g fill="#4d4d4d"><path d="m313.17 546.36l3.712-9.845h1.43l2.671 7.177h-1.31-4.139l-.962 2.668zm2.791-3.85h3.272l-1.609-4.441h-.055z" transform="matrix(1.53456 0 0 1.53456-478.35-820.31)"/><path d="m321.26 549.27v-8.308h3.01q.975 0 1.682.65.719.638.719 1.613 0 .592-.313 1.044-.302.453-.812.685v.046q.615.209 1.01.719.394.511.394 1.183 0 1.021-.754 1.694-.743.673-1.764.673h-3.168m1.067-4.746h1.938q.603 0 .963-.394.371-.406.371-.882 0-.476-.36-.87-.348-.394-.928-.394h-1.984v2.541m0 3.725h2.147q.615 0 .998-.429.383-.429.383-.94 0-.511-.394-.928-.395-.429-1.033-.429h-2.1v2.727" transform="matrix(.85056 0 0 .85056-258.3-448.18)"/></g></svg>