<svg xmlns="http://www.w3.org/2000/svg" viewBox="0 0 22 22"><g transform="translate(-326-534.36)"><g fill="#4d4d4d"><path d="m3 3v16h9v-1h-8v-14h14v8h1v-9z" transform="translate(326 534.36)"/><path d="m331 539.36h12v1h-12z"/><path d="m331 541.36h9v1h-9z"/><path d="m331 544.36h12v1h-12z"/><path d="m331 546.36h4v1h-4z"/><path d="m331 549.36h7v1h-7z"/></g><path d="m339.98 547.36l-.99.99 2.01 2.01-2.01 2.01.99.99 2.01-2.01 2.01 2.01.99-.99-2.01-2.01 2.01-2.01-.99-.99-2.01 2.01-2.01-2.01" fill="#da4453"/></g></svg>