<svg xmlns="http://www.w3.org/2000/svg" viewBox="0 0 22 22"><g transform="translate(-.018-1031.36)" stroke-linejoin="round" stroke-linecap="round"><g transform="translate(0 1.765)" fill="#4d4d4d" stroke="#4d4d4d"><g stroke-width=".361"><rect width="10" height="1.104" x="2" y="1033.26" rx=".552"/><rect width="10" height="1.104" x="2" y="1035.56" rx=".552"/><rect width="10" height="1.104" x="2" y="1039.06" rx=".552"/></g><rect width="5" height="1.104" x="2" y="1041.36" stroke-width=".256" rx=".552"/><rect width="10" height="1.104" x="2" y="1044.56" stroke-width=".361" rx=".552"/><rect width="7" height="1.104" x="2" y="1046.86" stroke-width=".302" rx=".552"/></g><path transform="matrix(.99997 0 0 .99997-.007 1032.21)" d="m16.516 2.348c-.16-.028-.329.009-.453.133l-2.914 2.914c-.201.201-.201.527 0 .729.201.201.527.201.729 0l2.123-2.123v6.854 2.6 2.854l-2.123-2.121c-.201-.201-.528-.201-.729 0-.201.201-.201.526 0 .727l2.914 2.916c.124.124.293.161.453.133.16.028.329-.001.453-.133l2.914-2.916c.201-.201.201-.526 0-.727-.202-.201-.529-.203-.73-.002l-2.123 2.123v-2.854-2.6-6.854l2.123 2.123c.201.201.529.201.73 0 .201-.201.201-.527 0-.729l-2.914-2.914c-.124-.123-.293-.161-.453-.133" stroke-width=".37" fill="#1d99f3" stroke="#1d99f3"/></g></svg>