<svg xmlns="http://www.w3.org/2000/svg" viewBox="0 0 16 16"><g transform="translate(-421.71-531.79)"><g font-family="Sans" word-spacing="0" line-height="125%" letter-spacing="0" font-size="9"><text y="547.55" x="420.15"><tspan x="420.15" y="547.55"/></text><text y="541.68" x="420.89"><tspan x="420.89" y="541.68"/></text><text y="548.55" x="414.15"><tspan x="414.15" y="548.55"/></text></g><path d="m431.7 539.79l-.99.99 2.01 2.01-2.01 2.01.99.99 2.01-2.01 2.01 2.01.99-.99-2.01-2.01 2.01-2.01-.99-.99-2.01 2.01-2.01-2.01" fill="#da4453"/><g fill="#4d4d4d"><path d="m426.71 533.79h9v1h-9z"/><path d="m430.71 534.79h1v4h-1z"/><path d="m423.71 533.79h1v12h-1z"/><path d="m424.71 544.79h5v1h-5z"/></g></g></svg>