<svg xmlns="http://www.w3.org/2000/svg" viewBox="0 0 22 22"><defs><clipPath><path fill="#f2f2f2" d="m7 1023.36h1v1h-1z"/></clipPath></defs><path d="m546.57 744.93v1.125 2.25 1.125 2.25 1.125 2.25 1.125 2.25 1.125 2.25 1.125h16.875 1.125v-1.125-2.25-1.125-2.25-1.125-2.25-1.125-2.25-1.125-2.25-1.125h-1.125-16.875m1.125 1.125h15.75v2.25h-15.75v-2.25m0 3.375h15.75v2.25h-15.75v-2.25m0 3.375h15.75v2.25h-15.75v-2.25m0 3.375h15.75v2.25h-15.75v-2.25m0 3.375h15.75v2.25h-15.75v-2.25" fill="#4d4d4d" transform="translate(-544.57-742.93)"/></svg>