<svg xmlns="http://www.w3.org/2000/svg" viewBox="0 0 22 22"><g transform="translate(-421.71-525.79)"><g fill="#4d4d4d"><g font-family="Sans" word-spacing="0" line-height="125%" letter-spacing="0"><g font-size="9"><text y="549.41" x="408.1"><tspan x="408.1" y="549.41"/></text><text y="543.54" x="408.84"><tspan x="408.84" y="543.54"/></text><text y="550.41" x="402.1"><tspan x="402.1" y="550.41"/></text></g><g font-size="12.462"><text y="550.75" x="429.66"><tspan x="429.66" y="550.75"/></text><text y="542.63" x="430.68"><tspan x="430.68" y="542.63"/></text><text y="552.13" x="421.35"><tspan x="421.35" y="552.13"/></text></g><g font-size="9"><text x="411.91" y="546.78"><tspan y="546.78" x="411.91"/></text><text x="412.65" y="540.91"><tspan y="540.91" x="412.65"/></text><text x="405.91" y="547.78"><tspan y="547.78" x="405.91"/></text></g></g><path d="m424.71 536.79h1v8h-1z"/><path d="m426.71 536.79v8h1v-7h1a2 2 0 0 1 2 2v5h1v-5a3 3 0 0 0 -3 -3h-1-1"/><path d="m436.71 540.79h1a3 2.999998 0 0 1 3 -3v-1a3.999985 4 0 0 0 -4 4"/><path transform="scale(-1 1)" d="m-437.71 536.79h1v8h-1z"/><path d="m434.71 536.79h1v8h-1z"/></g><g fill="#1d99f3"><path d="m434.71 528.79l4 3-4 3z"/><path d="m431.71 528.79l-4 3 4 3z"/></g></g></svg>