<svg xmlns="http://www.w3.org/2000/svg" viewBox="0 0 22 22"><g transform="translate(-421.71-525.79)"><g fill="#4d4d4d"><g font-family="Sans" word-spacing="0" line-height="125%" letter-spacing="0"><g font-size="9"><text y="549.41" x="408.1"><tspan x="408.1" y="549.41"/></text><text y="543.54" x="408.84"><tspan x="408.84" y="543.54"/></text><text y="550.41" x="402.1"><tspan x="402.1" y="550.41"/></text></g><g font-size="12.462"><text y="550.75" x="429.66"><tspan x="429.66" y="550.75"/></text><text y="542.63" x="430.68"><tspan x="430.68" y="542.63"/></text><text y="552.13" x="421.35"><tspan x="421.35" y="552.13"/></text></g></g><path d="m426.71429 533.23845a4 4 0 0 0 -4 4 4 4 0 0 0 4 4 4 4 0 0 0 3 -1.36133v1.361h1v-4-4h-1v1.361a4 4 0 0 0 -3 -1.36133m0 1a3 3 0 0 1 3 3 3 3 0 0 1 -3 3 3 3 0 0 1 -3 -3 3 3 0 0 1 3 -3"/><path d="m436.38 532.69l-1.333 3.771-1.333 3.771.943.333.454-1.283a4 4 0 0 0 2.37465 2.28348 4 4 0 0 0 5.10457 -2.43791 4 4 0 0 0 -2.43791 -5.10457 4 4 0 0 0 -3.2822 .28348l.454-1.283-.943-.333m3.4379 2.27614a3 3 0 0 1 1.82843 3.82843 3 3 0 0 1 -3.82843 1.82843 3 3 0 0 1 -1.82843 -3.82843 3 3 0 0 1 3.82843 -1.82843"/></g><path d="m431.71 528.79v16h1v-2.42l9.359 2.105.232-1.027-9.592-2.158v-12.5z" fill="#1d99f3"/></g></svg>