<svg xmlns="http://www.w3.org/2000/svg" viewBox="0 0 22 22"><g transform="matrix(.48392 0 0 .48392 6.161-493.9)" fill="#4d4d4d"><circle r="3.5" cy="1043.36" cx="9.379"/><g transform="translate(32.12 1.764)"><path d="m-32.48 1038.5c0 1.06-.54 1.6-1.4 1.6h-4.22v-2.98h4.22c.86 0 1.4.72 1.4 1.38m-.74 10.02c3 0 4.56-1.88 4.56-4.18 0-1.48-.7-2.7-2.28-3.32.84-.74 1.1-1.62 1.1-2.52 0-2.04-1.42-3.82-4.04-3.82h-5.62c-.72 0-1.22.52-1.22 1.24v11.36c0 .7.5 1.24 1.22 1.24h6.28m-4.88-5.98c1.58 0 3.36 0 4.88 0 2.32 0 2.32 3.54 0 3.54h-4.88v-3.54"/><path d="m-10.326 1037.12c5.64 0 5.4 8.96 0 8.96h-3.32v-8.96h3.32m.18 11.4c8.76 0 8.96-13.84-.18-13.84h-4.58c-.66 0-1.38.52-1.38 1.24v11.36c0 .88.72 1.24 1.38 1.24h4.76"/></g></g></svg>