<svg xmlns="http://www.w3.org/2000/svg" viewBox="0 0 22 22"><defs><clipPath><rect width="32" height="32" x="8" y="8" fill="none" rx="16"/></clipPath><clipPath><rect width="32" height="32" x="392.57" y="507.8" fill="none" rx="16"/></clipPath><clipPath><rect y="507.8" x="392.57" height="32" width="32" fill="none" rx="16"/></clipPath><clipPath><rect width="32" height="32" x="392.57" y="507.8" fill="none" rx="16"/></clipPath><clipPath><rect width="32" height="32" x="392.57" y="507.8" fill="none" rx="16"/></clipPath><clipPath><rect y="507.8" x="392.57" height="32" width="32" fill="none" rx="16"/></clipPath><clipPath><rect y="8" x="8" height="32" width="32" fill="none" rx="16"/></clipPath><clipPath><rect y="507.8" x="392.57" height="32" width="32" fill="none" rx="16"/></clipPath><clipPath><rect width="32" height="32" x="392.57" y="507.8" fill="none" rx="16"/></clipPath><clipPath><rect width="32" height="32" x="392.57" y="507.8" fill="none" rx="16"/></clipPath><clipPath><rect width="32" height="32" x="8" y="8" fill="none" rx="16"/></clipPath><clipPath><path d="m0 706.47h1490.93v-706.47h-1490.93v706.47"/></clipPath><clipPath><path d="m22.2 686.12h1447.73v-667.19h-1447.73v667.19"/></clipPath><clipPath><rect width="32" height="32" x="392.57" y="507.8" fill="none" rx="16"/></clipPath><clipPath><rect width="32" height="32" x="392.57" y="507.8" fill="none" rx="16"/></clipPath><clipPath><rect width="32" height="32" x="392.57" y="507.8" fill="none" rx="16"/></clipPath><clipPath><rect width="32" height="32" x="392.57" y="507.8" fill="none" rx="16"/></clipPath><clipPath><rect width="32" height="32" x="8" y="8" fill="none" rx="16"/></clipPath></defs><path d="m11 3c-4.669 0-8.469 3.186-8.469 7.102 0 2.124 1.103 4.099 3.035 5.451.183 1.107-.452 2.265-.459 2.277-.145.256-.134.569.029.816.146.221.39.354.654.354.028 0 .057-.0001.086-.004.823-.091 2.151-.717 3.949-1.859.387.045.781.066 1.174.066 4.67 0 8.469-3.186 8.469-7.102 0-3.916-3.799-7.102-8.469-7.102m-.201 4.199c.086 0 .16.031.223.094.062.062.094.137.094.223v5.369c0 .086-.031.158-.094.221-.062.062-.137.094-.223.094-.086 0-.158-.031-.221-.094l-1.645-1.643h-1.291c-.086 0-.16-.031-.223-.094-.062-.062-.094-.137-.094-.223v-1.895c0-.086.031-.158.094-.221.062-.062.137-.094.223-.094h1.293l1.643-1.645c.062-.062.135-.094.221-.094m1.816.652c.043 0 .086.007.129.023.46.194.83.506 1.109.932.28.426.42.889.42 1.393 0 .503-.14.969-.42 1.395-.28.426-.649.736-1.109.93-.043.016-.084.025-.123.025-.089 0-.166-.031-.229-.094-.062-.062-.094-.137-.094-.223 0-.128.065-.225.193-.291.184-.095.309-.167.375-.217.243-.178.434-.4.57-.668.137-.268.205-.555.205-.857 0-.303-.069-.587-.205-.855-.137-.268-.327-.49-.57-.668-.066-.049-.191-.121-.375-.217-.128-.066-.193-.165-.193-.293 0-.086.031-.158.094-.221.063-.062.137-.094.223-.094m-.494 1.164c.049 0 .092.009.125.025.23.089.415.242.555.459.14.217.209.449.209.699 0 .25-.069.484-.209.699-.14.215-.324.369-.555.461-.033.016-.076.025-.125.025-.086 0-.158-.031-.221-.092-.062-.061-.094-.136-.094-.225 0-.069.019-.128.059-.176.039-.048.087-.089.143-.123.056-.035.112-.072.168-.113.056-.041.105-.1.145-.176.039-.076.059-.169.059-.281 0-.112-.019-.206-.059-.281-.039-.076-.089-.133-.145-.174-.056-.041-.112-.079-.168-.113-.056-.035-.103-.077-.143-.125-.04-.048-.059-.105-.059-.174 0-.089.031-.164.094-.225.062-.061.135-.092.221-.092" transform="matrix(.99999 0 0 .99999 0-.002)" fill="#4d4d4d"/></svg>