<svg xmlns="http://www.w3.org/2000/svg" viewBox="0 0 22 22"><defs><clipPath><path fill="#00f" fill-opacity=".514" d="m-7 1024.36h34v34h-34z"/></clipPath><clipPath><path fill="#aade87" fill-opacity=".472" d="m-6 1028.36h32v32h-32z"/></clipPath><clipPath><path fill="#00f" fill-opacity=".514" d="m-7 1024.36h34v34h-34z"/></clipPath><clipPath><path fill="#00f" fill-opacity=".514" d="m-7 1024.36h34v34h-34z"/></clipPath></defs><g fill="#4d4d4d"><path d="m321.26 549.27v-8.308h3.01q.975 0 1.682.65.719.638.719 1.613 0 .592-.313 1.044-.302.453-.812.685v.046q.615.209 1.01.719.394.511.394 1.183 0 1.021-.754 1.694-.743.673-1.764.673h-3.168m1.067-4.746h1.938q.603 0 .963-.394.371-.406.371-.882 0-.476-.36-.87-.348-.394-.928-.394h-1.984v2.541m0 3.725h2.147q.615 0 .998-.429.383-.429.383-.94 0-.511-.394-.928-.395-.429-1.033-.429h-2.1v2.727" transform="matrix(.88524 0 0 .88524-269.27-475.88)"/><path d="m307.9 544.21l3.133-8.308h1.207l3.133 8.308h-1.184l-.801-2.251h-3.493l-.812 2.251h-1.184m2.355-3.249h2.762l-1.358-3.748h-.046l-1.358 3.748" transform="matrix(1.89695 0 0 1.89695-582.23-1013.33)"/></g></svg>