<svg xmlns="http://www.w3.org/2000/svg" viewBox="0 0 22 22"><g transform="translate(-421.71-525.79)"><g fill="#4d4d4d"><path d="m13.379 4l-4.336 13.863-.043.137h1.137l1.564-5h4.861.32 1.162l-3.518-9h-1.148m.51 2h.258l2.346 6h-4.48l1.877-6" transform="translate(421.71 525.79)"/><g font-family="Sans" word-spacing="0" line-height="125%" letter-spacing="0" transform="scale(-1 1)"><g font-size="9"><text y="549.41" x="-455.76"><tspan x="-455.76" y="549.41"/></text><text y="543.54" x="-455.03"><tspan x="-455.03" y="543.54"/></text><text y="550.41" x="-461.76"><tspan x="-461.76" y="550.41"/></text></g><g font-size="12.462"><text y="550.75" x="-434.2"><tspan x="-434.2" y="550.75"/></text><text y="542.63" x="-433.18"><tspan x="-433.18" y="542.63"/></text><text y="552.13" x="-442.51"><tspan x="-442.51" y="552.13"/></text></g><g font-size="9"><text x="-451.96" y="546.78"><tspan y="546.78" x="-451.96"/></text><text x="-451.22" y="540.91"><tspan y="540.91" x="-451.22"/></text><text x="-457.96" y="547.78"><tspan y="547.78" x="-457.96"/></text></g></g><path d="m2 4c0 0 4.134 14.02 4.139 14 .011.007.353.002.609 0 .163-.0001.199.0001.387 0 .366.003.815.009.83 0 .005.017 4.139-14 4.139-14h-1.104l-3.721 12h-.463c0 0-3.714-12-3.713-12z" transform="translate(421.71 525.79)" shape-rendering="auto" mix-blend-mode="normal" color-interpolation-filters="linearRGB" isolation="auto" white-space="normal" solid-opacity="1" image-rendering="auto" solid-color="#000000" color="#000" fill-rule="evenodd" color-rendering="auto" color-interpolation="sRGB"/></g><path d="m436.7 539.79l-.99.99 2.01 2.01-2.01 2.01.99.99 2.01-2.01 2.01 2.01.99-.99-2.01-2.01 2.01-2.01-.99-.99-2.01 2.01-2.01-2.01" fill="#da4453"/></g></svg>