<svg xmlns="http://www.w3.org/2000/svg" viewBox="0 0 22 22"><path d="m11 3c-4.432 0-8 3.568-8 8 0 4.432 3.568 8 8 8 4.432 0 8-3.568 8-8 0-4.432-3.568-8-8-8m4.414 5.502c.014-.003.03 0 .041.001.011.001.016.025.014.039 0 .002-.029.195.033.457.057.241.206.593.586.896.486.389.842.798 1.057 1.217.191.374.265.747.223 1.105-.066.553-.414 1.027-.932 1.27-.006.003-.011.004-.018.004-.011 0-.021-.004-.029-.012-.013-.012-.02-.03-.014-.047.186-.529-.073-1.052-.266-1.201-.032.119-.138.356-.484.41-.013.002-.025-.0001-.035-.001-.001-.008-.015-.02-.016-.033-.004-.285-.152-.772-.527-.967.124.331-.035.512-.217.717-.206.233-.44.497-.373 1.082.0001.003.002.006.002.001 0 .024-.021.045-.045.045-.006 0-.012-.0001-.018-.004-.148-.066-.509-.264-.646-.686-.129-.394-.031-.876.289-1.432.064-.112.084-.208.059-.297-.051-.179-.283-.305-.453-.396-.013-.007-.022-.021-.023-.035-.0001-.015.004-.028.016-.037.181-.151.4-.229.65-.229.095 0 .194.011.297.033-.196-.488-.166-.997.086-1.41.229-.376.723-.495.744-.5m-4.414 1.498c.554 0 1 .446 1 1 0 .554-.446 1-1 1-.554 0-1-.446-1-1 0-.554.446-1 1-1" transform="translate(0-.002)" fill="#4d4d4d"/></svg>