<svg xmlns="http://www.w3.org/2000/svg" viewBox="0 0 22 22"><defs><clipPath><path d="m0 706.47h1490.93v-706.47h-1490.93v706.47"/></clipPath><clipPath><path d="m22.2 686.12h1447.73v-667.19h-1447.73v667.19"/></clipPath></defs><path d="m329.02 537.36c-.417 0-.753.335-.753.753v14.495c0 .417.336.753.753.753h15.957c.417 0 .753-.335.753-.753v-14.495c0-.417-.336-.753-.753-.753h-15.957m.66.146h2.771l2.165 2.118-2.165 1.916h-2.771l1.963-1.916-1.963-2.118m4.891 0h2.771l2.164 2.119-2.164 1.915h-2.771l1.963-1.915-1.963-2.119m4.996 0h2.771l2.165 2.119-2.165 1.915h-2.771l1.963-1.915-1.963-2.119" fill="#4d4d4d" transform="translate(-326-534.36)"/></svg>