<svg xmlns="http://www.w3.org/2000/svg" viewBox="0 0 22 22"><path d="m11 3c-4.432 0-8 3.568-8 8 0 4.432 3.568 8 8 8 4.432 0 8-3.568 8-8 0-4.432-3.568-8-8-8m3.072 6c.373 0 .676.301.676.674 0 .373-.303.676-.676.676-.373 0-.674-.303-.674-.676 0-.373.301-.674.674-.674m1.541 0c.373 0 .676.301.676.674 0 .373-.303.676-.676.676-.373 0-.674-.303-.674-.676 0-.373.301-.674.674-.674m-4.613 1c.554 0 1 .446 1 1 0 .554-.446 1-1 1-.554 0-1-.446-1-1 0-.554.446-1 1-1m2.65.59h2.385c.139 0 .25.139.25.311v.277c.0001.018.017.085.195.023l.982-.34c.031-.012.098-.026.098.074v1.715c0 .075-.041.078-.078.066l-1.016-.242c-.166-.039-.181.011-.182.025v.189c0 .172-.111.311-.25.311h-2.385c-.139 0-.252-.139-.252-.311v-1.789c0-.172.113-.311.252-.311" transform="translate(0-.002)" fill="#4d4d4d"/></svg>