<svg xmlns="http://www.w3.org/2000/svg" viewBox="0 0 22 22"><path d="M11 3.341797A7.657544 7.657544 0 0 0 3.341797 11 7.657544 7.657544 0 0 0 11 18.658203 7.657544 7.657544 0 0 0 18.658203 11 7.657544 7.657544 0 0 0 11 3.341797M8.336 7.111c.645 0 1.17.524 1.17 1.17 0 .646-.524 1.17-1.17 1.17-.646 0-1.17-.524-1.17-1.17 0-.646.524-1.17 1.17-1.17zm5.303 0c.645 0 1.168.524 1.168 1.17 0 .646-.522 1.17-1.168 1.17-.646 0-1.17-.524-1.17-1.17 0-.646.524-1.17 1.17-1.17m-2.641 4.457c1.902 0 3.6 1.084 4.324 2.76.124.287-.008.618-.295.742-.287.124-.62-.008-.744-.295-.545-1.261-1.835-2.076-3.285-2.076-1.484 0-2.781.815-3.305 2.076-.09.218-.3.348-.521.348-.072 0-.146-.014-.217-.043-.289-.12-.427-.45-.307-.738.7-1.684 2.407-2.773 4.35-2.773" transform="matrix(1.04463 0 0 1.04463-.49-.492)" fill="#4d4d4d" fill-rule="evenodd"/></svg>