<svg xmlns="http://www.w3.org/2000/svg" viewBox="0 0 22 22"><g transform="translate(-326-536.72)" fill="#4d4d4d"><g transform="matrix(.04923 0 0 .04923 329 539.72)"><path d="m319 55.26c3.314 0 6-2.687 6-6v-43.26c0-3.313-2.686-6-6-6h-43.26c-3.313 0-6 2.687-6 6v13.63h-79.61v-13.63c0-3.313-2.686-6-6-6h-43.26c-3.314 0-6 2.687-6 6v13.63h-79.61v-13.63c0-3.313-2.687-6-6-6h-43.26c-3.313 0-6 2.687-6 6v43.26c0 3.313 2.687 6 6 6h13.63v79.61h-13.63c-3.313 0-6 2.687-6 6v43.26c0 3.314 2.687 6 6 6h13.63v79.61h-13.63c-3.313 0-6 2.687-6 6v43.26c0 3.314 2.687 6 6 6h43.26c3.313 0 6-2.686 6-6v-13.63h79.61v13.63c0 3.314 2.686 6 6 6h43.26c3.314 0 6-2.686 6-6v-13.63h79.61v13.63c0 3.314 2.687 6 6 6h43.26c3.314 0 6-2.686 6-6v-43.26c0-3.313-2.686-6-6-6h-13.63v-79.61h13.63c3.314 0 6-2.686 6-6v-43.26c0-3.313-2.686-6-6-6h-13.63v-79.61h13.63m-29.63 79.61h-13.63c-3.313 0-6 2.687-6 6v43.26c0 3.314 2.687 6 6 6h13.63v79.61h-13.63c-3.313 0-6 2.687-6 6v13.63h-79.61v-13.63c0-3.313-2.686-6-6-6h-43.26c-3.314 0-6 2.687-6 6v13.63h-79.61v-13.63c0-3.313-2.687-6-6-6h-13.63v-79.61h13.63c3.313 0 6-2.686 6-6v-43.26c0-3.313-2.687-6-6-6h-13.63v-79.61h13.63c3.313 0 6-2.687 6-6v-13.63h79.61v13.63c0 3.313 2.686 6 6 6h43.26c3.314 0 6-2.687 6-6v-13.63h79.61v13.63c0 3.313 2.687 6 6 6h13.63v79.61"/><circle cx="162.5" cy="162.5" r="13.283"/></g><g stroke="#4d4d4d" stroke-linejoin="round" stroke-linecap="round"><rect y="542.08" x="336.88" height="5.219" width=".281" stroke-width=".533" rx=".141"/><rect transform="matrix(0 1-1 0 0 0)" ry=".153" y="-342.7" x="547.68" height="5.689" width=".281" stroke-width=".556" rx=".141"/></g></g></svg>