<svg xmlns="http://www.w3.org/2000/svg" viewBox="0 0 22 22"><g transform="matrix(5.0207 0 0 5.0207-1703.54-2745.19)" fill="#1A1D20" stroke="#1A1D20"><path d="m345.44 248.29l-194.29 194.28c-12.359 12.365-32.397 12.365-44.75 0-12.354-12.354-12.354-32.391 0-44.744l171.91-171.91-171.91-171.9c-12.354-12.359-12.354-32.394 0-44.748 12.354-12.359 32.391-12.359 44.75 0l194.29 194.28c6.177 6.18 9.262 14.271 9.262 22.366 0 8.099-3.091 16.196-9.267 22.373z" stroke-width="28.316" transform="matrix(.00664-.00002.00002.00664 340.34 547.47)"/><circle cx="340.69" cy="548.96" r=".421" fill-rule="evenodd" stroke-linecap="square" stroke-width=".158"/></g></svg>