<svg xmlns="http://www.w3.org/2000/svg" viewBox="0 0 22 22" xmlns:xlink="http://www.w3.org/1999/xlink"><path d="m345.44 248.29l-194.29 194.28c-12.359 12.365-32.397 12.365-44.75 0-12.354-12.354-12.354-32.391 0-44.744l171.91-171.91-171.91-171.9c-12.354-12.359-12.354-32.394 0-44.748 12.354-12.359 32.391-12.359 44.75 0l194.29 194.28c6.177 6.18 9.262 14.271 9.262 22.366 0 8.099-3.091 16.196-9.267 22.373z" fill="#1A1D20" stroke="#1A1D20" stroke-width="28.316" transform="matrix(.02548-.00009.00009.02548 11.561 5.26)" id="0"/><circle transform="matrix(3.8394 0 0 3.8394-1296.9-2096.7)" r=".421" cy="548.96" cx="340.64" fill="#1A1D20" fill-rule="evenodd" stroke="#1A1D20" stroke-linecap="square" stroke-width=".158"/><use transform="matrix(-1 0 0 1 21.986.017)" xlink:href="#0"/></svg>