<svg xmlns="http://www.w3.org/2000/svg" viewBox="0 0 22 22"><defs><clipPath><rect y="8" x="8" height="32" width="32" fill="none" rx="16"/></clipPath><clipPath><rect y="507.8" x="392.57" height="32" width="32" fill="none" rx="16"/></clipPath><clipPath><rect width="32" height="32" x="392.57" y="507.8" fill="none" rx="16"/></clipPath><clipPath><rect y="507.8" x="392.57" height="32" width="32" fill="none" rx="16"/></clipPath><clipPath><rect y="507.8" x="392.57" height="32" width="32" fill="none" rx="16"/></clipPath><clipPath><rect width="32" height="32" x="392.57" y="507.8" fill="none" rx="16"/></clipPath><clipPath><rect width="32" height="32" x="8" y="8" fill="none" rx="16"/></clipPath><clipPath><rect width="32" height="32" x="392.57" y="507.8" fill="none" rx="16"/></clipPath><clipPath><rect y="507.8" x="392.57" height="32" width="32" fill="none" rx="16"/></clipPath><clipPath><rect y="507.8" x="392.57" height="32" width="32" fill="none" rx="16"/></clipPath><clipPath><rect y="8" x="8" height="32" width="32" fill="none" rx="16"/></clipPath><clipPath><path d="m0 706.47h1490.93v-706.47h-1490.93v706.47"/></clipPath><clipPath><path d="m22.2 686.12h1447.73v-667.19h-1447.73v667.19"/></clipPath><clipPath><rect y="507.8" x="392.57" height="32" width="32" fill="none" rx="16"/></clipPath><clipPath><rect y="507.8" x="392.57" height="32" width="32" fill="none" rx="16"/></clipPath><clipPath><rect y="507.8" x="392.57" height="32" width="32" fill="none" rx="16"/></clipPath><clipPath><rect y="507.8" x="392.57" height="32" width="32" fill="none" rx="16"/></clipPath><clipPath><rect y="8" x="8" height="32" width="32" fill="none" rx="16"/></clipPath></defs><path d="m409.03 539.85c-.819 0-1.541.392-2.01.991l-4.375-2.247c.057-.215.099-.436.099-.669 0-.254-.049-.493-.117-.726l4.356-2.236c.469.627 1.21 1.036 2.051 1.036 1.425 0 2.577-1.157 2.577-2.586 0-1.428-1.153-2.586-2.577-2.586-1.422 0-2.575 1.158-2.575 2.586 0 .234.041.456.099.671l-4.374 2.247c-.472-.6-1.196-.993-2.02-.993-1.423 0-2.575 1.158-2.575 2.587 0 1.429 1.152 2.586 2.575 2.586.842 0 1.582-.411 2.053-1.038l4.354 2.236c-.068.232-.118.473-.118.728 0 1.429 1.154 2.586 2.575 2.586 1.425 0 2.577-1.158 2.577-2.586 0-1.43-1.153-2.587-2.577-2.587" stroke="none" transform="matrix(1.13059 0 0 1.1271-446.43-595.32)" stroke-opacity=".8" fill="#1A1D20"/></svg>