<svg xmlns="http://www.w3.org/2000/svg" viewBox="0 0 22 22"><path d="m4 3c-.554 0-1 .446-1 1v14c0 .554.446 1 1 1h14c.554 0 1-.446 1-1v-14c0-.554-.446-1-1-1h-14m6.998 3.254c.352 0 .635.303.635.678v5.115c0 .375-.283.676-.635.676-.352 0-.635-.301-.635-.676v-5.115c0-.375.283-.678.635-.678m.002 7.67c.252 0 .467.088.645.266.178.178.268.392.268.645 0 .252-.09.469-.268.646-.178.178-.392.266-.645.266-.252 0-.467-.088-.645-.266-.178-.178-.268-.394-.268-.646 0-.252.09-.467.268-.645.178-.178.392-.266.645-.266" transform="translate(0-.002)" fill="#4d4d4d" fill-rule="evenodd"/></svg>