<svg xmlns="http://www.w3.org/2000/svg" viewBox="0 0 22 22"><defs><clipPath><path fill="#00f" fill-opacity=".514" d="m-7 1024.36h34v34h-34z"/></clipPath><clipPath><path fill="#aade87" fill-opacity=".472" d="m-6 1028.36h32v32h-32z"/></clipPath></defs><path d="m3.285 3c-.449 0-.813.364-.813.813v14.375c0 .449.364.813.813.813h15.43c.449 0 .813-.364.813-.813v-14.375c0-.449-.364-.813-.813-.813h-15.43m7.715 1.156c.116-.007.234.032.322.121l1.928 2.129c.164.164.164.429 0 .594-.164.164-.43.164-.594 0l-1.656-1.83-1.656 1.83c-.164.164-.43.164-.594 0-.164-.164-.164-.429 0-.594l1.928-2.129c.089-.089.206-.128.322-.121m-.002 2.637c.382 0 .691.311.691.693 0 .382-.31.691-.691.691-.382 0-.691-.309-.691-.691 0-.382.31-.693.691-.693m0 1.979c.382 0 .691.309.691.691 0 .382-.31.691-.691.691-.382 0-.691-.309-.691-.691 0-.382.31-.691.691-.691m-2.578.902c.178-.017.367.075.523.279l3.215 4.205c.313.409.861.444 1.223.078l.785-.797c.361-.366.894-.322 1.189.1l2.037 2.912c.294.422.116.764-.398.764h-5.994-5.729c-.515 0-.744-.372-.512-.832l3.197-6.338c.116-.23.284-.354.463-.371" transform="translate(.029.008)" stroke="none" fill="#4d4d4d" stroke-opacity=".8"/></svg>