<svg xmlns="http://www.w3.org/2000/svg" viewBox="0 0 22 22"><g color="#4d4d4d"><path d="m12 6v1h7v7h-3-1v1 3h-4v-2h-1v1 1 1h6l4-4v-1-7-1z"/><path d="m429.71429 533.79074a3 3 0 0 0 -3 3 3 3 0 0 0 3 3 3 3 0 0 0 3 -3 3 3 0 0 0 -3 -3m0 1a2 2 0 0 1 2 2 2 2 0 0 1 -2 2 2 2 0 0 1 -2 -2 2 2 0 0 1 2 -2m0 6a5 4.5 0 0 0 -5 4.5 5 4.5 0 0 0 .0332 .5h.967.045 7.91.045.963a5 4.5 0 0 0 .0371 -.5 5 4.5 0 0 0 -5 -4.5m.00005 1a4 3.5 0 0 1 3.95508 3h-7.91a4 3.5 0 0 1 3.95508 -3" transform="translate(-421.71-530.79)"/></g></svg>