<svg xmlns="http://www.w3.org/2000/svg" viewBox="0 0 22 22"><path d="m415.75 517.87h-1.104c-.262 0-.475.213-.475.475v.591c0 .262-.212.475-.475.475h-1.029c-.262 0-.475-.213-.475-.475v-.591c0-.262-.212-.475-.475-.475h-12.391c-.262 0-.475.213-.475.475v.591c0 .262-.212.475-.475.475h-1.029c-.262 0-.475-.213-.475-.475v-.591c0-.262-.212-.475-.475-.475h-1.067c-.262 0-.475.213-.475.475v21.356c0 .262.212.475.475.475h1.067c.262 0 .475-.213.475-.475v-.434c0-.262.212-.475.475-.475h1.029c.262 0 .475.213.475.475v.434c0 .262.212.475.475.475h12.391c.262 0 .475-.213.475-.475v-.434c0-.262.212-.475.475-.475h1.029c.262 0 .475.213.475.475v.434c0 .262.212.475.475.475h1.104c.262 0 .475-.213.475-.475v-21.356c0-.262-.212-.475-.475-.475m-16.897 18.16c0 .262-.212.474-.475.474h-1.029c-.262 0-.475-.213-.475-.474v-1.029c0-.262.212-.474.475-.474h1.029c.262 0 .475.213.475.474v1.029m0-4.265c0 .262-.212.475-.475.475h-1.029c-.262 0-.475-.213-.475-.475v-1.029c0-.262.212-.474.475-.474h1.029c.262 0 .475.213.475.474v1.029m0-4.264c0 .262-.212.475-.475.475h-1.029c-.262 0-.475-.213-.475-.475v-1.029c0-.262.212-.475.475-.475h1.029c.262 0 .475.213.475.475v1.029m0-4.264c0 .262-.212.475-.475.475h-1.029c-.262 0-.475-.213-.475-.475v-1.029c0-.262.212-.475.475-.475h1.029c.262 0 .475.213.475.475v1.029m11.288 14.428c0 .262-.212.475-.475.475h-8.25c-.262 0-.475-.213-.475-.475v-3.814c0-.262.212-.475.475-.475h8.25c.262 0 .475.213.475.475v3.814m0-6.737c0 .262-.212.475-.475.475h-8.25c-.262 0-.475-.213-.475-.475v-3.814c0-.262.212-.475.475-.475h8.25c.262 0 .475.213.475.475v3.814m0-6.737c0 .262-.212.474-.475.474h-8.25c-.262 0-.475-.213-.475-.474v-3.814c0-.262.212-.475.475-.475h8.25c.262 0 .475.213.475.475v3.814m4.03 11.839c0 .262-.212.474-.475.474h-1.029c-.262 0-.475-.213-.475-.474v-1.029c0-.262.212-.474.475-.474h1.029c.262 0 .475.213.475.474v1.029m0-4.265c0 .262-.212.475-.475.475h-1.029c-.262 0-.475-.213-.475-.475v-1.029c0-.262.212-.474.475-.474h1.029c.262 0 .475.213.475.474v1.029m0-4.264c0 .262-.212.475-.475.475h-1.029c-.262 0-.475-.213-.475-.475v-1.029c0-.262.212-.475.475-.475h1.029c.262 0 .475.213.475.475v1.029m0-4.264c0 .262-.212.475-.475.475h-1.029c-.262 0-.475-.213-.475-.475v-1.029c0-.262.212-.475.475-.475h1.029c.262 0 .475.213.475.475v1.029" transform="matrix(.71733 0 0 .71733-279.9-368.49)" fill="#4d4d4d"/></svg>