<svg xmlns="http://www.w3.org/2000/svg" viewBox="0 0 22 22"><path d="m1.15 3c-.417 0-.752.337-.752.754v14.492c0 .417.335.754.752.754h19.699c.417 0 .752-.337.752-.754v-14.492c0-.417-.335-.754-.752-.754h-19.699m7.344 4.449c1.219 0 2.203.987 2.203 2.205 0 1.219-.985 2.203-2.203 2.203-.285 0-.546-.051-.779-.129l-1.166 1.166h-.777v.777h-.777v.777h-1.297v-1.295l2.723-2.723c-.078-.259-.131-.518-.131-.777 0-1.219.987-2.205 2.205-2.205m6.295.256c.118 0 .238.045.328.135l2.844 2.822c.09.09.134.208.135.326 0 .118-.043.236-.133.326l-2.824 2.844c-.18.181-.472.182-.652.002-.181-.18-.181-.472-.002-.652l2.498-2.516-2.516-2.498c-.181-.18-.181-.472-.002-.652.09-.09.206-.136.324-.137m-5.648.523c-.441 0-.777.337-.777.777 0 .441.337.777.777.777.441 0 .779-.337.779-.777 0-.441-.339-.777-.779-.777m4.385 1.521h.361c.015 0 .028.004.039.014.011.009.018.021.02.035l.045.299c.053.017.102.038.146.061l.23-.174c.001-.001.023-.014.039-.014.014 0 .028.005.041.016.14.129.23.222.27.277.008.009.001.02.001.035 0 .013-.003.025-.012.037-.016.023-.045.058-.084.107-.039.049-.068.088-.088.115.028.054.05.108.066.16l.299.045c.014.002.024.001.033.021.009.011.014.023.014.037v.361c0 .013-.005.025-.014.037-.009.012-.018.019-.031.021l-.301.045c-.021.059-.043.108-.064.148.038.054.096.129.174.225.011.013.018.027.018.041 0 .014-.006.026-.016.037-.029.04-.082.099-.16.176-.078.077-.13.115-.154.115-.013 0-.026-.004-.041-.014l-.225-.176c-.048.025-.097.046-.148.063-.017.148-.033.248-.047.303-.008.03-.027.045-.059.045h-.361c-.015 0-.03-.004-.041-.014-.011-.009-.016-.021-.018-.035l-.047-.299c-.053-.017-.102-.038-.146-.061l-.229.174c-.011.001-.025.014-.041.014-.015 0-.029-.006-.041-.018-.137-.124-.225-.215-.268-.273-.008-.011-.012-.023-.012-.037 0-.013.003-.025.012-.037.016-.023.045-.058.084-.107.039-.049.068-.088.088-.115-.029-.054-.051-.109-.066-.162l-.299-.043c-.014-.002-.025-.001-.033-.021-.009-.011-.014-.023-.014-.037v-.361c0-.013.005-.025.014-.037.009-.012.019-.019.031-.021l.303-.047c.015-.05.035-.099.063-.148-.043-.062-.101-.137-.174-.225-.011-.013-.016-.026-.016-.039 0-.011.004-.023.014-.037.028-.039.081-.098.16-.176.079-.078.13-.115.154-.115.014 0 .029.005.043.016l.225.174c.048-.025.095-.046.146-.063.017-.148.035-.248.049-.303.008-.03.027-.045.059-.045" transform="matrix(.99999 0 0 .99999.0001-.002)" stroke="none" fill="#4d4d4d"/></svg>