<svg xmlns="http://www.w3.org/2000/svg" viewBox="0 0 22 22"><path d="m1.15 3c-.417 0-.752.337-.752.754v14.492c0 .417.335.754.752.754h19.699c.417 0 .752-.337.752-.754v-14.492c0-.417-.335-.754-.752-.754h-19.699m11.943 1c.397 0 .719.322.719.719v12.563c0 .396-.322.719-.719.719-.396 0-.719-.322-.719-.719v-12.563c0-.396.323-.719.719-.719m-2.094 1.795c.396 0 .719.322.719.719v8.973c0 .397-.322.719-.719.719-.396 0-.719-.32-.719-.717v-8.975c0-.396.322-.719.719-.719m-4.188.896c.396 0 .717.322.717.719v7.18c0 .396-.32.719-.717.719-.396 0-.719-.322-.719-.719v-7.18c0-.396.322-.719.719-.719m8.375 0c.396 0 .719.322.719.719v7.18c0 .396-.323.719-.719.719-.397 0-.717-.322-.717-.719v-7.18c0-.396.32-.719.717-.719m-6.281.898c.396 0 .719.322.719.719v5.383c0 .396-.322.719-.719.719-.396 0-.719-.322-.719-.719v-5.383c0-.396.322-.719.719-.719m-4.188.898c.396 0 .717.32.717.717v3.59c0 .396-.32.719-.717.719-.396 0-.719-.322-.719-.719v-3.59c0-.396.322-.717.719-.717m12.563.896c.396 0 .719.322.719.719v1.795c0 .396-.322.717-.719.717-.396 0-.717-.321-.717-.717v-1.795c0-.396.32-.719.717-.719" transform="translate(0-.002)" fill="#4d4d4d"/></svg>