<svg xmlns="http://www.w3.org/2000/svg" viewBox="0 0 22 22"><path d="m1.15 3c-.417 0-.752.337-.752.754v14.492c0 .417.335.754.752.754h19.699c.417 0 .752-.337.752-.754v-14.492c0-.417-.335-.754-.752-.754h-19.699m7.629 4.449c1.219 0 2.203.987 2.203 2.205 0 1.219-.985 2.203-2.203 2.203-.285 0-.546-.051-.779-.129l-1.166 1.166h-.777v.777h-.777v.777h-1.297v-1.295l2.723-2.723c-.078-.259-.131-.518-.131-.777 0-1.219.987-2.205 2.205-2.205m7.846.047c.106 0 .212.043.295.125l.975.975c.165.165.165.425 0 .59l-.82.814-1.559-1.561.814-.818c.082-.082.189-.125.295-.125m-7.199.732c-.441 0-.777.337-.777.777 0 .441.337.777.777.777.441 0 .779-.337.779-.777 0-.441-.339-.777-.779-.777m5.531.771l1.559 1.559-3.938 3.938h-1.561v-1.559l3.939-3.938" transform="matrix(.99999 0 0 .99999.0001-.002)" stroke="none" fill="#4d4d4d"/></svg>