<svg xmlns="http://www.w3.org/2000/svg" viewBox="0 0 22 22"><path d="m1.15 3c-.417 0-.752.337-.752.754v14.492c0 .417.335.754.752.754h19.699c.417 0 .752-.337.752-.754v-14.492c0-.417-.335-.754-.752-.754h-19.699m7.244 4.449c1.219 0 2.203.987 2.203 2.205 0 1.219-.985 2.203-2.203 2.203-.285 0-.544-.051-.777-.129l-1.166 1.166h-.779v.777h-.777v.777h-1.297v-1.295l2.723-2.723c-.078-.259-.129-.518-.129-.777 0-1.219.985-2.205 2.203-2.205m6.406.551h1.201v2.4h2.4v1.199h-2.4v2.4h-1.201v-2.4h-2.398v-1.199h2.398v-2.4m-5.758.229c-.441 0-.777.337-.777.777 0 .441.337.777.777.777.441 0 .777-.337.777-.777 0-.441-.337-.777-.777-.777" transform="matrix(.99999 0 0 .99999.0001-.002)" stroke="none" fill="#4d4d4d"/></svg>