<svg xmlns="http://www.w3.org/2000/svg" viewBox="0 0 22 22"><path d="m4 3c-.554 0-1 .446-1 1v14c0 .554.446 1 1 1h14c.554 0 1-.446 1-1v-14c0-.554-.446-1-1-1h-14m1.932 3h2.035c.219 0 .395.13.395.289l-.008 9.424c0 .159-.178.287-.396.287h-2.035c-.219 0-.395-.13-.395-.289l.008-9.424c0-.159.178-.287.396-.287m4.131 2.576h2.035c.219 0 .395.128.395.287l-.008 6.828c0 .159-.178.289-.396.289l-2.035-.002c-.219 0-.395-.128-.395-.287l.008-6.828c0-.159.178-.287.396-.287m3.98 2.613l2.035.002c.219 0 .395.128.395.287l-.008 4.232c0 .159-.178.287-.396.287h-2.035c-.219 0-.395-.13-.395-.289l.008-4.23c0-.159.178-.289.396-.289" transform="translate(0-.002)" fill="#4d4d4d" fill-rule="evenodd"/></svg>