<svg xmlns="http://www.w3.org/2000/svg" viewBox="0 0 22 22" xmlns:xlink="http://www.w3.org/1999/xlink"><defs><path id="0" d="m117.18 31.592c-5.595-9.586-13.185-17.18-22.771-22.771-9.588-5.595-20.06-8.392-31.408-8.392-11.352 0-21.822 2.797-31.408 8.392-9.587 5.594-17.18 13.184-22.772 22.771-5.596 9.587-8.393 20.06-8.393 31.408 0 11.352 2.798 21.82 8.392 31.408 5.595 9.585 13.185 17.18 22.772 22.771 9.587 5.595 20.06 8.392 31.408 8.392 11.352 0 21.822-2.797 31.408-8.392 9.586-5.594 17.18-13.185 22.771-22.771 5.594-9.587 8.391-20.06 8.391-31.408 0-11.352-2.797-21.822-8.39-31.408"/><clipPath><path d="m0 706.47h1490.93v-706.47h-1490.93v706.47"/></clipPath><clipPath><path d="m22.2 686.12h1447.73v-667.19h-1447.73v667.19"/></clipPath><clipPath><path fill="#f2f2f2" d="m7 1023.36h1v1h-1z"/></clipPath><clipPath><path fill="#00f" fill-opacity=".514" d="m-7 1024.36h34v34h-34z"/></clipPath><clipPath><path fill="#aade87" fill-opacity=".472" d="m-6 1028.36h32v32h-32z"/></clipPath></defs><g transform="matrix(1.0033 0 0 1.0033-423.17-527.55)" fill="#1A1D20"><path d="m430.71 534.79h1v7h-1z"/><path d="m431.71 531.79h2v1h-2z"/><path d="m431.71 540.79h2.041v1h-2.041z"/><g transform="translate(-21.702-2.565)"><use transform="matrix(.05594 0 0 .05594 446.4 531.34)" xlink:href="#0"/><use transform="matrix(.05594 0 0 .05594 455.43 540.29)" xlink:href="#0"/><use transform="matrix(.05594 0 0 .05594 455.39 531.34)" xlink:href="#0"/></g><path d="m430.71 534.79h1v-2c-.103.798-.456 1.454-1 2" fill-rule="evenodd"/></g></svg>