<svg xmlns="http://www.w3.org/2000/svg" viewBox="0 0 22 22"><path d="m4 3c-.554 0-1 .446-1 1v14c0 .554.446 1 1 1h14c.554 0 1-.446 1-1v-14c0-.554-.446-1-1-1h-14m1.445 4.373h9.602c.295 0 .533.238.533.533 0 .295-.238.533-.533.533h-9.602c-.295 0-.533-.238-.533-.533 0-.295.238-.533.533-.533m0 2.133h7.467c.295 0 .533.238.533.533 0 .295-.238.535-.533.535h-7.467c-.295 0-.533-.24-.533-.535 0-.295.238-.533.533-.533m11.02.822c.072 0 .133.026.184.076l.365.365c.05.05.076.112.076.184 0 .072-.026.133-.076.184l-1.949 1.949-.367.367c-.05.05-.11.076-.182.076-.072 0-.133-.026-.184-.076l-.367-.367-.975-.975c-.05-.05-.076-.112-.076-.184 0-.072.026-.133.076-.184l.365-.365c.05-.05.112-.076.184-.076.072 0 .133.026.184.076l.793.795 1.766-1.77c.05-.05.112-.076.184-.076m-11.02 1.313h6.4c.295 0 .533.238.533.533 0 .295-.238.533-.533.533h-6.4c-.295 0-.533-.238-.533-.533 0-.295.238-.533.533-.533m1.066 1.92h6.4c.295 0 .533.238.533.533 0 .295-.238.533-.533.533h-6.4c-.295 0-.533-.238-.533-.533 0-.295.238-.533.533-.533" transform="translate(0-.002)" fill="#4d4d4d" fill-rule="evenodd"/></svg>