<svg xmlns="http://www.w3.org/2000/svg" viewBox="0 0 22 22"><g transform="translate(-421.71-525.79)"><path d="m426.31 528.79c-.884 0-1.6.716-1.6 1.6 0 .884.716 1.6 1.6 1.6.884 0 1.6-.716 1.6-1.6 0-.884-.716-1.6-1.6-1.6m0 6.4c-.884 0-1.6.716-1.6 1.6 0 .884.716 1.6 1.6 1.6.884 0 1.6-.716 1.6-1.6 0-.884-.716-1.6-1.6-1.6m0 6.4c-.884 0-1.6.716-1.6 1.6 0 .884.716 1.6 1.6 1.6.884 0 1.6-.716 1.6-1.6 0-.884-.716-1.6-1.6-1.6" fill="#4d4d4d"/><g fill="#fff" fill-rule="evenodd" stroke="#4d4d4d" stroke-linecap="square"><rect y="529.89" x="429.21" height="1" width="11" rx=".5"/><rect y="536.29" x="429.21" height="1" width="11" rx=".5"/><rect y="542.69" x="429.21" height="1" width="11" rx=".5"/></g></g></svg>