<svg xmlns="http://www.w3.org/2000/svg" viewBox="0 0 22 22"><g fill="#4d4d4d"><path d="m3.889 3c-.492 0-.889.358-.889.801v14.398c0 .443.396.801.889.801h14.223c.492 0 .889-.358.889-.801v-14.398c0-.443-.396-.801-.889-.801h-14.223m7.113 2c3.311 0 6 2.684 5.996 6 0 1.332-.433 2.561-1.164 3.555-.88 1.198-2.198 2.057-3.719 2.34-.358.07-.73.105-1.113.105-.78 0-1.526-.15-2.207-.418-1.466-.582-2.654-1.724-3.285-3.166-.328-.741-.508-1.556-.508-2.416 0-3.316 2.684-6 6-6" transform="translate(0 .0001)"/><path d="m351.68 559.99v-1.935q-1.598-.225-2.947-1.283-1.327-1.058-1.755-2.835l1.845-.742q.27 1.08 1.035 1.867.788.788 1.822.99v-5.4q-.067 0-.113-.045-4.03-1.575-4.03-4.5 0-1.53 1.125-2.7 1.125-1.192 3.01-1.372v-1.935h1.71v1.98q1.575.247 2.52 1.148.967.878 1.283 1.867l-1.845.788q-.158-.563-.675-1.058-.495-.518-1.283-.72v5.063q1.957.81 3.038 1.822 1.103.99 1.103 2.655 0 1.89-1.192 2.992-1.192 1.102-2.947 1.372v1.98h-1.71zm3.78-6.3q0-.788-.517-1.305-.517-.54-1.553-1.035v4.658q.945-.202 1.507-.788.563-.607.563-1.53zm-5.85-7.582q0 1.418 2.07 2.362v-4.433q-.945.158-1.507.72-.563.54-.563 1.35z" transform="matrix(.38296 0 0 .38296-124.08-199.64)" stroke="#4d4d4d"/></g></svg>