<svg xmlns="http://www.w3.org/2000/svg" viewBox="0 0 22 22"><path d="m4.6 3c-.443 0-.799.358-.799.801v14.398c0 .443.356.801.799.801h12.801c.443 0 .799-.358.799-.801v-14.398c0-.443-.356-.801-.799-.801h-12.801m2.707 4.063c.967 0 1.75.783 1.75 1.75 0 .967-.783 1.75-1.75 1.75-.967 0-1.75-.783-1.75-1.75 0-.967.783-1.75 1.75-1.75m3.637.5h5c.277 0 .5.223.5.5 0 .277-.223.5-.5.5h-5c-.277 0-.5-.223-.5-.5 0-.277.223-.5.5-.5m0 2h5c.277 0 .5.223.5.5 0 .277-.223.5-.5.5h-5c-.277 0-.5-.223-.5-.5 0-.277.223-.5.5-.5m-5.387 1.875h3.5v2.625.875h-.875-2.625v-3.5m5.387.125h5c.277 0 .5.223.5.5 0 .277-.223.5-.5.5h-5c-.277 0-.5-.223-.5-.5 0-.277.223-.5.5-.5m0 2h5c.277 0 .5.223.5.5 0 .277-.223.5-.5.5h-5c-.277 0-.5-.223-.5-.5 0-.277.223-.5.5-.5" transform="translate(0-.032)" stroke-opacity=".55" fill="#4d4d4d" stroke-width="2.8" stroke="none"/></svg>