<svg xmlns="http://www.w3.org/2000/svg" viewBox="0 0 22 22"><g transform="matrix(.44445 0 0 .4-170.6-198.55)" stroke="none" stroke-opacity=".55" stroke-width="2.8"><path d="m3.889 3c-.492 0-.889.358-.889.801v14.398c0 .443.396.801.889.801h14.223c.492 0 .889-.358.889-.801v-14.398c0-.443-.396-.801-.889-.801h-14.223m1.572 2h4.615c.255 0 .463.206.463.461v4.615c0 .255-.208.463-.463.463h-4.615c-.255 0-.461-.208-.461-.463v-4.615c0-.255.206-.461.461-.461m6.463 0h4.615c.255 0 .461.206.461.461v4.615c0 .255-.206.463-.461.463h-4.615c-.255 0-.463-.208-.463-.463v-4.615c0-.255.208-.461.463-.461m-6.463 6.461h4.615c.255 0 .463.207.463.463v4.615c0 .255-.208.461-.463.461h-4.615c-.255 0-.461-.206-.461-.461v-4.615c0-.255.206-.463.461-.463" transform="matrix(2.25 0 0 2.5 383.82 496.3)" fill="#4d4d4d"/><path d="m410.65 524.95h10.384c.574 0 1.038.515 1.037 1.152v11.538c0 .637-.468 1.157-1.042 1.157h-5.19-5.19c-.574 0-1.041-.52-1.041-1.157v-5.767-5.767c0-.637.468-1.157 1.041-1.157" fill="#da4453"/></g></svg>