<svg xmlns="http://www.w3.org/2000/svg" viewBox="0 0 22 22"><path d="m4 3c-.554 0-1 .446-1 1v14c0 .554.446 1 1 1h14c.554 0 1-.446 1-1v-14c0-.554-.446-1-1-1h-14m3.482 3.545h2.355c.112 0 .215.056.275.15l.445.707c.079.126.065.29-.037.398l-1.311 1.4-.314.338c-.064.069-.152.104-.238.104-.086 0-.172-.035-.236-.104l-1.623-1.738c-.103-.109-.117-.273-.037-.398l.445-.707c.06-.094.165-.15.275-.15m5.859 1.551c.977 0 1.897.381 2.588 1.076.691.695 1.07 1.62 1.07 2.604 0 .983-.38 1.907-1.07 2.602-.691.695-1.611 1.078-2.588 1.078-.033 0-.062-.0001-.094-.002-.835-.022-1.66-.341-2.293-.891-.8-.692-1.271-1.728-1.271-2.789 0-.614.149-1.203.428-1.73.177.151.332.33.457.529.104.169.185.348.242.537-.055.212-.084.437-.084.666 0 .718.304 1.423.824 1.916.481.455 1.132.715 1.791.715 1.442 0 2.617-1.18 2.617-2.631 0-1.451-1.175-2.633-2.617-2.633-.491 0-.948.138-1.342.375-.198-.296-.435-.566-.701-.797.599-.408 1.304-.625 2.043-.625m-6.381.416l.754.809c-.977.381-1.672 1.338-1.672 2.455 0 1.451 1.173 2.631 2.615 2.631.482 0 .934-.13 1.322-.359.137.203.292.396.465.574.077.079.156.154.236.225-.594.397-1.292.609-2.02.609-.977 0-1.898-.383-2.59-1.08-.691-.695-1.07-1.618-1.07-2.602 0-.983.38-1.907 1.07-2.602.266-.267.566-.49.891-.66m3.395.002c.176.092.342.199.498.318.902.69 1.465 1.792 1.467 2.943 0 .122-.008.245-.02.367-.047.472-.18.926-.396 1.34-.271-.233-.488-.531-.623-.865l-.082-.203c.155-.627.072-1.309-.23-1.879-.281-.531-.746-.954-1.297-1.187-.022-.009-.046-.018-.068-.027l.752-.807" transform="translate(0-.002)" fill="#4d4d4d" fill-rule="evenodd"/></svg>