<svg xmlns="http://www.w3.org/2000/svg" viewBox="0 0 22 22"><g fill="#4d4d4d"><path d="m3.889 3c-.492 0-.889.358-.889.801v14.398c0 .443.396.801.889.801h14.223c.492 0 .889-.358.889-.801v-14.398c0-.443-.396-.801-.889-.801h-14.223m8.291 2c.861 0 1.562.698 1.561 1.561 0 .347-.113.665-.303.924-.229.312-.571.536-.967.609-.093.018-.191.027-.291.027-.203 0-.397-.038-.574-.107-.381-.151-.689-.449-.854-.824-.085-.193-.133-.405-.133-.629 0-.862.698-1.561 1.561-1.561m-4.271 1.869c.594-.002 1.34.092 1.99.471.149-.037.301-.07.455-.096.009.025.021.052.031.076.098.233.238.441.416.619.035.035.072.069.109.102-.124.012-.234.025-.326.039-.168.026-.28.19-.24.355v.002c.035.146.177.241.326.219.506-.076 1.658-.169 2.689.318.136.065.3.013.375-.117.085-.147.025-.336-.129-.408-.151-.071-.308-.133-.473-.188.155-.087.297-.196.424-.322.096-.096.18-.201.254-.313.566.238 1.094.565 1.549.984.78.716 1.246 1.7 1.334 2.725.054.635-.036 1.286-.285 1.898-.494 1.21-1.164 2.371-1.779 3.527-.079.147-.232.238-.398.238h-1.156c-.25 0-.453-.204-.453-.453v-.553c-.384.074-.784.113-1.195.113-.261 0-.515-.016-.766-.047l-.291.668c-.072.164-.236.271-.416.271h-1.16c-.25 0-.453-.204-.453-.453v-1.268c-.947-.565-1.665-1.386-2.01-2.342l-.828-.432c-.128-.067-.209-.199-.209-.344v-1.432c0-.215.176-.39.391-.389l.639.002c.247-.692.686-1.311 1.268-1.818l-.523-1.074c-.118-.243.042-.529.311-.555.155-.015.335-.027.533-.027m.506 2.984c-.322 0-.582.26-.582.582 0 .322.26.582.582.582.322 0 .582-.26.582-.582 0-.322-.26-.582-.582-.582" transform="translate(0 .0001)"/><path d="m351.68 559.99v-1.935q-1.598-.225-2.947-1.283-1.327-1.058-1.755-2.835l1.845-.742q.27 1.08 1.035 1.867.788.788 1.822.99v-5.4q-.067 0-.113-.045-4.03-1.575-4.03-4.5 0-1.53 1.125-2.7 1.125-1.192 3.01-1.372v-1.935h1.71v1.98q1.575.247 2.52 1.148.967.878 1.283 1.867l-1.845.788q-.158-.563-.675-1.058-.495-.518-1.283-.72v5.063q1.957.81 3.038 1.822 1.103.99 1.103 2.655 0 1.89-1.192 2.992-1.192 1.102-2.947 1.372v1.98h-1.71zm3.78-6.3q0-.788-.517-1.305-.517-.54-1.553-1.035v4.658q.945-.202 1.507-.788.563-.607.563-1.53zm-5.85-7.582q0 1.418 2.07 2.362v-4.433q-.945.158-1.507.72-.563.54-.563 1.35z" transform="matrix(.20111 0 0 .20111-58.969-98.24)" stroke="#4d4d4d"/></g></svg>