<svg xmlns="http://www.w3.org/2000/svg" viewBox="0 0 22 22"><path d="m3.635 3c-.382 0-.691.307-.691.689v14.621c0 .382.309.689.691.689h14.73c.382 0 .691-.307.691-.689v-14.621c0-.382-.309-.689-.691-.689h-14.73m10.574 4.373c.162 0 .299.057.412.17l.824.824c.113.113.17.25.17.412 0 .162-.057.301-.17.414l-4.391 4.391-.826.826c-.113.113-.25.17-.412.17-.162 0-.299-.057-.412-.17l-.824-.826-2.197-2.195c-.113-.113-.17-.25-.17-.412 0-.162.057-.301.17-.414l.826-.824c.113-.113.25-.17.412-.17.162 0 .299.057.412.17l1.783 1.789 3.98-3.984c.113-.113.25-.17.412-.17" transform="translate(-.0001-.002)" fill="#4d4d4d"/></svg>