<svg xmlns="http://www.w3.org/2000/svg" viewBox="0 0 22 22"><path d="m1.15 3c-.417 0-.752.337-.752.754v14.492c0 .417.335.754.752.754h19.699c.417 0 .752-.337.752-.754v-14.492c0-.417-.335-.754-.752-.754h-19.699m.943 1.348h6.352c.253 0 .457.204.457.457v12.391c0 .253-.204.457-.457.457h-6.352c-.253 0-.457-.204-.457-.457v-12.391c0-.253.204-.457.457-.457m11.07 3.318c.15 0 .278.053.383.158l1.648 1.648 1.65-1.648c.105-.105.233-.158.383-.158.15 0 .276.053.381.158l.764.764c.105.105.156.231.156.381 0 .15-.051.276-.156.381l-1.65 1.65 1.65 1.65c.105.105.156.231.156.381 0 .15-.051.276-.156.381l-.764.764c-.105.105-.231.158-.381.158-.15 0-.278-.053-.383-.158l-1.65-1.648-1.648 1.648c-.105.105-.233.158-.383.158-.15 0-.276-.053-.381-.158l-.764-.764c-.105-.105-.156-.231-.156-.381 0-.15.052-.276.156-.381l1.65-1.65-1.65-1.65c-.105-.105-.156-.231-.156-.381 0-.15.052-.276.156-.381l.764-.764c.105-.105.231-.158.381-.158" transform="matrix(.99999 0 0 .99999 0-.002)" fill="#4d4d4d" fill-rule="evenodd"/></svg>