<svg xmlns="http://www.w3.org/2000/svg" viewBox="0 0 24 24"><g transform="translate(-326.65-531.73)" fill="#4d4d4d"><path d="m332.1 540.03c0 .438.761.427.761 0v-3.229c0-.409-.242-.519-.507-.404l-.813.3c-.525.173-.248.853.213.703l.346-.138v2.768"/><path d="m331.25 545.76c-.249.26-.104.607.254.607h2.243c.503 0 .445-.746 0-.746h-.671c-.254 0-.561.035-.815.035.41-.243.699-.451 1.121-.809 1.098-1.069.555-2.48-.815-2.48-.503 0-1.01.202-1.266.711-.231.52.376.763.607.399.15-.237.41-.387.659-.387.78 0 .786.832.254 1.249-.561.509-1.052.867-1.572 1.422"/><g stroke="#4d4d4d" stroke-linejoin="round" stroke-linecap="round"><rect y="536.56" x="337" height="1.104" width="9" stroke-width=".343" rx=".552"/><rect y="538.36" x="337" height="1.104" width="6" stroke-width=".28" rx=".552"/><rect y="542.36" x="337" height="1.104" width="9" stroke-width=".343" rx=".552"/><rect y="544.17" x="337" height="1.104" width="3" stroke-width=".198" rx=".552"/><rect y="548.06" x="337" height="1.104" width="9" stroke-width=".343" rx=".552"/><rect y="549.86" x="337" height="1.104" width="6" stroke-width=".28" rx=".552"/></g></g></svg>