<svg xmlns="http://www.w3.org/2000/svg" viewBox="0 0 22 22"><defs><clipPath><path d="m0 706.47h1490.93v-706.47h-1490.93v706.47"/></clipPath><clipPath><path d="m22.2 686.12h1447.73v-667.19h-1447.73v667.19"/></clipPath><clipPath><path fill="#f2f2f2" d="m7 1023.36h1v1h-1z"/></clipPath><clipPath><path fill="#00f" fill-opacity=".514" d="m-7 1024.36h34v34h-34z"/></clipPath><clipPath><path fill="#aade87" fill-opacity=".472" d="m-6 1028.36h32v32h-32z"/></clipPath></defs><g transform="matrix(.46715 0 0 .46715 3 2.998)" fill="#4d4d4d"><path d="m7.132 0h5.187v5.275h-5.187z"/><path d="m14.266 0h5.185v5.275h-5.185z"/><path d="m21.398 0h5.185v5.275h-5.185z"/><path d="m29.06 0h5.186v5.275h-5.186z"/><path d="m7.132 7.244h5.187v5.274h-5.187z"/><path d="m14.266 7.244h5.185v5.274h-5.185z"/><path d="m21.398 7.244h5.185v5.274h-5.185z"/><path d="m29.06 7.244h5.186v5.274h-5.186z"/><path d="m7.132 14.487h5.187v5.275h-5.187z"/><path d="m14.266 14.487h5.185v5.275h-5.185z"/><path d="m21.398 14.487h5.185v5.275h-5.185z"/><path d="m29.06 14.487h5.186v5.275h-5.186z"/><path d="m7.132 21.73h5.187v5.274h-5.187z"/><path d="m14.266 21.73h5.185v5.274h-5.185z"/><path d="m21.398 21.73h5.185v5.274h-5.185z"/><path d="m29.06 21.73h5.186v5.274h-5.186z"/><g><path d="m0 0h5.185v5.275h-5.185z"/><path d="m0 7.244h5.185v5.274h-5.185z"/><path d="m0 14.487h5.185v5.275h-5.185z"/><path d="m0 21.73h5.185v5.274h-5.185z"/><path d="m0 28.975h5.185v5.275h-5.185z"/></g><path d="m7.132 28.975h5.187v5.275h-5.187z"/><path d="m14.266 28.975h5.185v5.275h-5.185z"/><path d="m21.398 28.975h5.185v5.275h-5.185z"/><path d="m29.06 28.975h5.186v5.275h-5.186z"/></g></svg>