<svg xmlns="http://www.w3.org/2000/svg" viewBox="0 0 22 22"><path d="m1.15 3c-.417 0-.752.337-.752.754v14.492c0 .417.335.754.752.754h19.699c.417 0 .752-.337.752-.754v-14.492c0-.417-.335-.754-.752-.754h-19.699m7.344 4.449c1.219 0 2.203.987 2.203 2.205 0 1.219-.985 2.203-2.203 2.203-.285 0-.546-.051-.779-.129l-1.166 1.166h-.777v.777h-.777v.777h-1.297v-1.295l2.723-2.723c-.078-.259-.131-.518-.131-.777 0-1.219.987-2.205 2.205-2.205m7.584.256c.118 0 .236.046.326.137.18.181.179.473-.002.652l-2.516 2.498 2.498 2.516c.18.181.177.473-.004.652-.181.18-.473.179-.652-.002l-2.822-2.844c-.09-.09-.135-.208-.135-.326 0-.118.046-.236.137-.326l2.844-2.822c.09-.09.208-.135.326-.135m-6.938.523c-.441 0-.777.337-.777.777 0 .441.337.777.777.777.441 0 .779-.337.779-.777 0-.441-.339-.777-.779-.777m8.06445 1.839843a.924475 .924475 0 0 1 .923828 .923829 .924475 .924475 0 0 1 -.923828 .923828 .924475 .924475 0 0 1 -.923828 -.923828 .924475 .924475 0 0 1 .923828 -.923829" transform="matrix(.99999 0 0 .99999.0001-.002)" stroke="none" fill="#4d4d4d"/></svg>