<svg xmlns="http://www.w3.org/2000/svg" viewBox="0 0 22 22"><path d="m4 3c-.554 0-1 .446-1 1v14c0 .554.446 1 1 1h14c.554 0 1-.446 1-1v-14c0-.554-.446-1-1-1h-14m10.08 4.633c.151 0 .279.052.385.158l.771.771c.106.106.158.234.158.385 0 .151-.052.281-.158.387l-4.104 4.104-.771.771c-.106.106-.234.158-.385.158-.151 0-.281-.052-.387-.158l-.77-.771-2.053-2.053c-.106-.106-.158-.234-.158-.385 0-.151.052-.279.158-.385l.771-.771c.106-.106.234-.158.385-.158.151 0 .279.052.385.158l1.668 1.672 3.719-3.725c.106-.106.234-.158.385-.158" transform="translate(0-.002)" fill="#4d4d4d" fill-rule="evenodd"/></svg>