<svg xmlns="http://www.w3.org/2000/svg" viewBox="0 0 22 22"><path d="m1.15 3c-.417 0-.752.337-.752.754v14.492c0 .417.335.754.752.754h19.699c.417 0 .752-.337.752-.754v-14.492c0-.417-.335-.754-.752-.754h-19.699m7.309 4.449c1.219 0 2.203.987 2.203 2.205 0 1.219-.985 2.203-2.203 2.203-.285 0-.544-.051-.777-.129l-1.168 1.166h-.777v.777h-.777v.777h-1.297v-1.295l2.723-2.723c-.078-.259-.129-.518-.129-.777 0-1.219.985-2.205 2.203-2.205m5.873.051h1.012c.043 0 .079.013.111.039.032.026.05.058.053.098l.127.838c.149.049.286.106.41.17l.646-.488c.027-.027.064-.041.109-.041.039 0 .079.015.115.045.392.362.643.62.752.775.021.024.031.057.031.1 0 .036-.013.072-.037.105-.046.064-.123.164-.232.303-.109.138-.191.246-.246.322.079.152.142.299.188.445l.834.129c.039.006.071.025.096.057.024.032.037.068.037.107v1.012c0 .036-.013.07-.037.104-.024.033-.055.054-.092.061l-.842.127c-.058.164-.117.302-.178.414.106.152.268.362.486.629.03.036.047.076.047.115 0 .039-.014.073-.041.104-.082.112-.232.276-.451.492-.219.216-.363.324-.43.324-.036 0-.075-.014-.117-.041l-.629-.492c-.134.07-.273.128-.416.174-.049.413-.091.696-.131.848-.021.085-.076.127-.164.127h-1.012c-.043 0-.079-.013-.111-.039-.032-.026-.05-.058-.053-.098l-.129-.838c-.149-.049-.286-.106-.41-.17l-.643.488c-.03.027-.068.041-.113.041-.043 0-.08-.017-.113-.051-.383-.346-.633-.602-.752-.766-.021-.03-.033-.064-.033-.104 0-.036.013-.072.037-.105.046-.064.123-.164.232-.303.109-.138.191-.246.246-.322-.082-.152-.145-.302-.188-.451l-.834-.123c-.039-.006-.071-.025-.096-.057-.024-.032-.035-.068-.035-.107v-1.012c0-.036.011-.07.035-.104.024-.033.054-.054.088-.061l.848-.127c.043-.14.102-.28.178-.42-.122-.173-.285-.383-.488-.629-.03-.036-.045-.073-.045-.109 0-.03.014-.064.041-.104.079-.109.229-.273.449-.49.22-.217.363-.326.43-.326.039 0 .08.015.119.045l.629.488c.134-.07.271-.128.414-.174.049-.413.093-.696.133-.848.021-.085.076-.127.164-.127m-5.225.729c-.441 0-.777.337-.777.777 0 .441.337.777.777.777.441 0 .777-.337.777-.777 0-.441-.337-.777-.777-.777" transform="matrix(.99999 0 0 .99999.0001-.002)" stroke="none" fill="#4d4d4d"/></svg>