<svg xmlns="http://www.w3.org/2000/svg" viewBox="0 0 22 22"><path d="m4.6 3c-.443 0-.799.358-.799.801v14.398c0 .443.356.801.799.801h12.801c.443 0 .799-.358.799-.801v-14.398c0-.443-.356-.801-.799-.801h-12.801m3.563 4c.967 0 1.75.783 1.75 1.75 0 .967-.783 1.75-1.75 1.75-.967 0-1.75-.783-1.75-1.75 0-.967.783-1.75 1.75-1.75m5.775.125v3.375h2.25l-3.375 4.5v-3.375l-2.25.094 3.375-4.594m-7.525 4.25h3.5v2.625.875h-.875-2.625v-3.5" transform="translate(0-.032)" stroke-opacity=".55" fill="#4d4d4d" stroke-width="2.8" stroke="none"/></svg>