<svg xmlns="http://www.w3.org/2000/svg" viewBox="0 0 22 22"><path d="m3.889 3c-.492 0-.889.358-.889.801v14.398c0 .443.396.801.889.801h14.223c.492 0 .889-.358.889-.801v-14.398c0-.443-.396-.801-.889-.801h-14.223m1.514 2h.242c.178 0 .322.144.322.322v11.355c0 .178-.144.322-.322.322h-.242c-.178 0-.322-.144-.322-.322v-11.355c0-.178.144-.322.322-.322m1.611 0h.885c.178 0 .322.144.322.322v11.355c0 .178-.144.322-.322.322h-.885c-.178 0-.322-.144-.322-.322v-11.355c0-.178.144-.322.322-.322m2.094 0h.887c.178 0 .322.144.322.322v11.355c0 .178-.144.322-.322.322h-.887c-.178 0-.322-.144-.322-.322v-11.355c0-.178.144-.322.322-.322m2.094 0h.08c.178 0 .322.144.322.322v11.355c0 .178-.144.322-.322.322h-.08c-.178 0-.322-.144-.322-.322v-11.355c0-.178.144-.322.322-.322m1.289 0h2.818c.178 0 .322.144.322.322v11.355c0 .178-.144.322-.322.322h-2.818c-.178 0-.322-.144-.322-.322v-11.355c0-.178.144-.322.322-.322m4.03 0h.08c.178 0 .322.144.322.322v11.355c0 .178-.144.322-.322.322h-.08c-.178 0-.322-.144-.322-.322v-11.355c0-.178.144-.322.322-.322" transform="translate(0 .008)" fill="#4d4d4d"/></svg>