<svg xmlns="http://www.w3.org/2000/svg" viewBox="0 0 22 22"><path d="m1.15 3c-.417 0-.752.337-.752.754v14.492c0 .417.335.754.752.754h19.699c.417 0 .752-.337.752-.754v-14.492c0-.417-.335-.754-.752-.754h-19.699m7.596 4.449c1.219 0 2.203.987 2.203 2.205 0 1.219-.985 2.203-2.203 2.203-.285 0-.544-.051-.777-.129l-1.166 1.166h-.779v.777h-.777v.777h-1.297v-1.295l2.723-2.723c-.078-.259-.129-.518-.129-.777 0-1.219.985-2.205 2.203-2.205m3.805.102h5c.277 0 .5.223.5.5 0 .277-.223.5-.5.5h-5c-.277 0-.5-.223-.5-.5 0-.277.223-.5.5-.5m-3.156.678c-.441 0-.777.337-.777.777 0 .441.337.777.777.777.441 0 .777-.337.777-.777 0-.441-.337-.777-.777-.777m3.156 1.322h5c.277 0 .5.223.5.5 0 .277-.223.5-.5.5h-5c-.277 0-.5-.223-.5-.5 0-.277.223-.5.5-.5m0 2h5c.277 0 .5.223.5.5 0 .277-.223.5-.5.5h-5c-.277 0-.5-.223-.5-.5 0-.277.223-.5.5-.5m0 2h5c.277 0 .5.223.5.5 0 .277-.223.5-.5.5h-5c-.277 0-.5-.223-.5-.5 0-.277.223-.5.5-.5" transform="matrix(.99999 0 0 .99999.0001-.002)" stroke="none" fill="#4d4d4d"/></svg>