<svg xmlns="http://www.w3.org/2000/svg" viewBox="0 0 22 22"><path d="m4 3c-.554 0-1 .446-1 1v14c0 .554.446 1 1 1h14c.554 0 1-.446 1-1v-14c0-.554-.446-1-1-1h-14m8.471 2.957c.151 0 .279.052.385.158l.771.771c.106.106.158.234.158.385 0 .151-.052.279-.158.385l-4.104 4.105-.771.77c-.106.106-.234.158-.385.158-.151 0-.279-.052-.385-.158l-.771-.77-2.053-2.053c-.106-.106-.158-.234-.158-.385 0-.151.052-.281.158-.387l.771-.77c.106-.106.234-.16.385-.16.151 0 .281.054.387.16l1.666 1.672 3.719-3.725c.106-.106.234-.158.385-.158m1.283 4.676h1.082v2.164h2.164v1.082h-2.164v2.164h-1.082v-2.164h-2.164v-1.082h2.164v-2.164" transform="translate(0-.002)" fill="#4d4d4d" fill-rule="evenodd"/></svg>