<svg xmlns="http://www.w3.org/2000/svg" viewBox="0 0 22 22"><g transform="translate(-467.01-524.49)" fill-rule="evenodd"><path d="m4 3c-.554 0-1 .446-1 1v14c0 .554.446 1 1 1h14c.554 0 1-.446 1-1v-14c0-.554-.446-1-1-1h-14m3.119141 3a1.269762 1.269762 0 0 1 1.269531 1.269531 1.269762 1.269762 0 0 1 -1.269531 1.271484 1.269762 1.269762 0 0 1 -1.269531 -1.271484 1.269762 1.269762 0 0 1 1.269531 -1.269531m3.873047 0a1.269762 1.269762 0 0 1 1.269531 1.269531 1.269762 1.269762 0 0 1 -1.269531 1.271484 1.269762 1.269762 0 0 1 -1.269532 -1.271484 1.269762 1.269762 0 0 1 1.269532 -1.269531m3.888671 0a1.269762 1.269762 0 0 1 1.269532 1.269531 1.269762 1.269762 0 0 1 -1.269532 1.269531 1.269762 1.269762 0 0 1 -1.269531 -1.269531 1.269762 1.269762 0 0 1 1.269531 -1.269531m-7.761718 7.460938a1.269762 1.269762 0 0 1 1.269531 1.269531 1.269762 1.269762 0 0 1 -1.269531 1.269531 1.269762 1.269762 0 0 1 -1.269531 -1.269531 1.269762 1.269762 0 0 1 1.269531 -1.269531" transform="translate(467.01 524.49)" fill="#4d4d4d"/><g transform="matrix(1.26976 0 0 1.26976 75.46-171.07)" fill="#2ecc71"><circle cx="313.98" cy="556.42" r="1"/><circle cx="317.02" cy="556.42" r="1"/><circle cx="320.09" cy="556.42" r="1"/></g></g></svg>