<svg xmlns="http://www.w3.org/2000/svg" viewBox="0 0 22 22"><path d="m3.889 3c-.492 0-.889.358-.889.801v14.398c0 .443.396.801.889.801h14.223c.492 0 .889-.358.889-.801v-14.398c0-.443-.396-.801-.889-.801h-14.223m1.514 2h.242c.178 0 .322.144.322.322v11.355c0 .178-.144.322-.322.322h-.242c-.178 0-.322-.144-.322-.322v-11.355c0-.178.144-.322.322-.322m1.611 0h.885c.178 0 .322.144.322.322v11.355c0 .178-.144.322-.322.322h-.885c-.178 0-.322-.144-.322-.322v-11.355c0-.178.144-.322.322-.322m2.094 0h.887c.178 0 .322.144.322.322v11.355c0 .178-.144.322-.322.322h-.887c-.178 0-.322-.144-.322-.322v-11.355c0-.178.144-.322.322-.322m2.094 0h.08c.178 0 .322.144.322.322v11.355c0 .178-.144.322-.322.322h-.08c-.178 0-.322-.144-.322-.322v-11.355c0-.178.144-.322.322-.322m1.289 0h2.818c.178 0 .322.144.322.322v7.082c.0001.43-.412.412-.412.412h-.934c0 0-.296-.004-.303.316v3.531c.007.333-.326.336-.326.336h-1.166c-.178 0-.322-.144-.322-.322v-11.355c0-.178.144-.322.322-.322m4.03 0h.08c.178 0 .322.144.322.322v7.154c0 .178-.144.322-.322.322h-.08c-.178 0-.322-.144-.322-.322v-7.154c0-.178.144-.322.322-.322m-.518 8.361h.699v1.4h1.4v.701h-1.4v1.398h-.699v-1.398h-1.4v-.701h1.4v-1.4" transform="translate(0 .008)" fill="#4d4d4d"/></svg>