<svg xmlns="http://www.w3.org/2000/svg" viewBox="0 0 22 22"><path d="m1.15 3c-.417 0-.752.337-.752.754v14.492c0 .417.335.754.752.754h19.699c.417 0 .752-.337.752-.754v-14.492c0-.417-.335-.754-.752-.754h-19.699m.943 1.348h6.352c.253 0 .457.204.457.457v12.391c0 .253-.204.457-.457.457h-6.352c-.253 0-.457-.204-.457-.457v-12.391c0-.253.204-.457.457-.457m12.363 3.318h1.488c-.002.713 0 2.59 0 2.59h2.412v1.488h-2.412c0 0-.0001 1.874-.002 2.59h-1.488c.0001-.716.002-2.59.002-2.59 0 0-1.615-.0001-2.414 0v-1.486c.799-.002 2.414-.002 2.414-.002 0 0-.0001-1.877 0-2.59" transform="matrix(.99999 0 0 .99999 0-.002)" fill="#4d4d4d" fill-rule="evenodd"/></svg>