<svg xmlns="http://www.w3.org/2000/svg" viewBox="0 0 22 22"><path d="m3.889 3c-.492 0-.889.358-.889.801v14.398c0 .443.396.801.889.801h14.223c.492 0 .889-.358.889-.801v-14.398c0-.443-.396-.801-.889-.801h-14.223m6.752 4c.171.03.299.191.299.406l-.016 5.59c-.057.417-.412.813-.926.953-.644.175-1.278-.117-1.416-.641-.138-.523.266-1.088.91-1.264.357-.097.701-.038.969.109v-3.389l-3.34.936-.016 4.295c-.056.417-.41.813-.924.953-.644.175-1.28-.117-1.418-.641-.138-.523.266-1.09.91-1.266.357-.097.701-.038.969.109v-4.543c0-.287.214-.582.479-.656l3.52-.953m1.801 1h4.5c.178 0 .322.19.322.428 0 .237-.144.43-.322.43h-4.5c-.178 0-.32-.192-.32-.43 0-.237.142-.428.32-.428m0 1.715h4.5c.178 0 .322.19.322.428 0 .237-.144.43-.322.43h-4.5c-.178 0-.32-.192-.32-.43 0-.237.142-.428.32-.428m0 1.713h4.5c.178 0 .322.192.322.43 0 .237-.144.428-.322.428h-4.5c-.178 0-.32-.19-.32-.428 0-.237.142-.43.32-.43m0 1.715h4.5c.178 0 .322.192.322.43 0 .237-.144.428-.322.428h-4.5c-.178 0-.32-.19-.32-.428 0-.237.142-.43.32-.43" transform="translate(0-.032)" stroke-opacity=".55" fill="#4d4d4d" stroke-width="2.8" stroke="none"/></svg>