<svg xmlns="http://www.w3.org/2000/svg" viewBox="0 0 22 22"><defs><linearGradient gradientUnits="userSpaceOnUse" x1="433.01" y1="545.04" x2="432.42" y2="529.93"><stop stop-color="#d0d2d2"/><stop offset="1" stop-color="#f9fafb"/></linearGradient></defs><g transform="matrix(.11552 0 0 .11552-23.73-32.422)"><rect y="306.6" x="246.87" height="44.11" width="108.24" fill="#4d4d4d" rx="5.156"/><g transform="matrix(.59324 0 0 .59324 120.74 102.62)" fill="#898a8a"><g stroke-width="1"><rect y="367.94" x="299.18" height="9.486" width="67.64" opacity=".875" rx="4.743"/><rect y="380.9" x="298.98" height="9.486" width="27.03" opacity=".875" rx="4.743"/><rect y="394.4" x="299.22" height="9.486" width="27.03" opacity=".875" rx="4.743"/></g><path d="m.674 341.78l-56.2-8.239-25.19-51.36c-1.417-3.085-3.247-4.627-5.486-4.627-2.239 0-4.068 1.542-5.486 4.627l-25.19 51.36-56.2 8.239c-4.179.677-6.269 2.408-6.269 5.192 0 1.581.933 3.387 2.799 5.418l40.754 39.955-9.628 56.43c-.15 1.054-.224 1.808-.224 2.258 0 1.581.392 2.915 1.175 4.01.783 1.092 1.958 1.636 3.526 1.636 1.344 0 2.836-.449 4.479-1.353l50.27-26.639 50.27 26.639c1.569.903 3.062 1.353 4.477 1.353 1.497 0 2.633-.543 3.416-1.636.782-1.092 1.174-2.427 1.174-4.01 0-.978-.037-1.73-.113-2.258l-9.629-56.43 40.641-39.955c1.943-1.956 2.912-3.763 2.912-5.418 0-2.785-2.089-4.515-6.272-5.192" transform="matrix(.1754 0 0 .1754 363.88 334.1)" opacity=".837"/></g><g fill="#4d4d4d"><rect y="315.8" x="233.27" height="35.2" width="135.24" opacity="1" rx="5.712"/><path d="m2.682 5.369c-.448 0-.809.361-.809.809v12.01c0 .448.361.809.809.809h16.637c.448 0 .809-.361.809-.809v-12.01c0-.448-.361-.809-.809-.809h-16.637m8.318 3.131c2.216 0 4 1.784 4 4 0 2.216-1.784 4-4 4-2.216 0-4-1.784-4-4 0-2.216 1.784-4 4-4" transform="matrix(8.65628 0 0 8.65628 205.35 280.63)" opacity="1"/><path d="m9 1044.36l4-3-4-3z" transform="matrix(4.32814 0 0 4.32814 252.96-4118.33)"/></g></g></svg>