<svg xmlns="http://www.w3.org/2000/svg" viewBox="0 0 22 22"><path d="m4 3c-.554 0-1 .446-1 1v14c0 .554.446 1 1 1h14c.554 0 1-.446 1-1v-14c0-.554-.446-1-1-1h-14m3 4h8c.317 0 .572.256.572.572 0 .317-.256.57-.572.57h-8c-.317 0-.572-.254-.572-.57 0-.317.256-.572.572-.572m0 2.285h8c.317 0 .572.256.572.572 0 .317-.256.57-.572.57h-8c-.317 0-.572-.254-.572-.57 0-.317.256-.572.572-.572m0 2.287h8c.317 0 .572.254.572.57 0 .317-.256.572-.572.572h-8c-.317 0-.572-.256-.572-.572 0-.317.256-.57.572-.57m0 2.285h8c.317 0 .572.254.572.57 0 .317-.256.572-.572.572h-8c-.317 0-.572-.256-.572-.572 0-.317.256-.57.572-.57" transform="translate(0-.002)" fill="#4d4d4d" fill-rule="evenodd"/></svg>