<svg xmlns="http://www.w3.org/2000/svg" viewBox="0 0 22 22"><path d="m1.15 3c-.417 0-.752.337-.752.754v14.492c0 .417.335.754.752.754h19.699c.417 0 .752-.337.752-.754v-14.492c0-.417-.335-.754-.752-.754h-19.699m7.344 4.449c1.219 0 2.203.987 2.203 2.205 0 1.219-.985 2.203-2.203 2.203-.285 0-.546-.051-.779-.129l-1.166 1.166h-.777v.777h-.777v.777h-1.297v-1.295l2.723-2.723c-.078-.259-.131-.518-.131-.777 0-1.219.987-2.205 2.205-2.205m6.295.256c.118 0 .238.045.328.135l2.844 2.822c.09.09.134.208.135.326 0 .118-.043.236-.133.326l-2.824 2.844c-.18.181-.472.182-.652.002-.181-.18-.181-.472-.002-.652l2.498-2.516-2.516-2.498c-.181-.18-.181-.472-.002-.652.09-.09.206-.136.324-.137m-5.648.523c-.441 0-.777.337-.777.777 0 .441.337.777.777.777.441 0 .779-.337.779-.777 0-.441-.339-.777-.779-.777m4.523437 1.839843a.924475 .924475 0 0 1 .923829 .923829 .924475 .924475 0 0 1 -.923829 .923828 .924475 .924475 0 0 1 -.925781 -.923828 .924475 .924475 0 0 1 .925781 -.923829" transform="matrix(.99999 0 0 .99999.0001-.002)" stroke="none" fill="#4d4d4d"/></svg>