<svg xmlns="http://www.w3.org/2000/svg" viewBox="0 0 22 22"><path d="m4 3c-.554 0-1 .446-1 1v14c0 .554.446 1 1 1h14c.554 0 1-.446 1-1v-14c0-.554-.446-1-1-1h-14m7 3c.907 0 1.744.223 2.51.67.766.447 1.373 1.054 1.82 1.82.447.766.67 1.603.67 2.51 0 .907-.223 1.744-.67 2.51-.447.766-1.054 1.373-1.82 1.82-.766.447-1.603.67-2.51.67-.907 0-1.744-.223-2.51-.67-.766-.447-1.373-1.054-1.82-1.82-.447-.766-.67-1.603-.67-2.51 0-.907.223-1.744.67-2.51.447-.766 1.054-1.373 1.82-1.82.766-.447 1.603-.67 2.51-.67m-1.471 2.52c-.117 0-.218.041-.301.123l-.586.586c-.082.082-.123.184-.123.301 0 .113.041.211.123.293l1.18 1.178-1.18 1.178c-.082.082-.123.18-.123.293 0 .117.041.218.123.301l.586.586c.082.082.184.123.301.123.113 0 .211-.041.293-.123l1.178-1.18 1.178 1.18c.082.082.18.123.293.123.117 0 .218-.041.301-.123l.586-.586c.082-.082.123-.184.123-.301 0-.113-.041-.211-.123-.293l-1.18-1.178 1.18-1.178c.082-.082.123-.18.123-.293 0-.117-.041-.218-.123-.301l-.586-.586c-.082-.082-.184-.123-.301-.123-.113 0-.211.041-.293.123l-1.178 1.18-1.178-1.18c-.082-.082-.18-.123-.293-.123" transform="translate(0-.002)" fill="#4d4d4d" fill-rule="evenodd"/></svg>