<svg xmlns="http://www.w3.org/2000/svg" viewBox="0 0 22 22"><path d="m4.6 3c-.443 0-.799.358-.799.801v14.398c0 .443.356.801.799.801h12.801c.443 0 .799-.358.799-.801v-14.398c0-.443-.356-.801-.799-.801h-12.801m6.373 5.5h4.783c.139 0 .252.113.252.252v4.455c0 .139-.113.252-.252.252h-4.783c-.139 0-.252-.113-.252-.252v-4.455c0-.139.113-.252.252-.252m-4.715.041h3.719c.147 0 .266.157.266.354 0 .196-.118.354-.266.354h-3.719c-.147 0-.266-.157-.266-.354 0-.196.118-.354.266-.354m7.883.85c-.319 0-.578.259-.578.578 0 .319.259.578.578.578.319 0 .576-.259.576-.578 0-.319-.257-.578-.576-.578m-7.883.566h3.719c.147 0 .266.159.266.355 0 .196-.118.354-.266.354h-3.719c-.147 0-.266-.157-.266-.354 0-.196.118-.355.266-.355m6.307.611c-.055.005-.107.044-.143.115l-.992 1.965c-.072.142.0001.258.16.258h1.775 1.857c.16 0 .214-.105.123-.236l-.631-.902c-.091-.131-.257-.145-.369-.031l-.244.246c-.112.114-.28.103-.377-.023l-.998-1.303c-.048-.063-.107-.093-.162-.088m-6.307.807h3.719c.147 0 .266.157.266.354 0 .196-.118.354-.266.354h-3.719c-.147 0-.266-.157-.266-.354 0-.196.118-.354.266-.354m0 1.416h3.719c.147 0 .266.159.266.355 0 .196-.118.354-.266.354h-3.719c-.147 0-.266-.157-.266-.354 0-.196.118-.355.266-.355" transform="translate(0-.032)" stroke-opacity=".55" fill="#4d4d4d" stroke-width="2.8" stroke="none"/></svg>