<svg xmlns="http://www.w3.org/2000/svg" viewBox="0 0 22 22"><path d="m3.889 3c-.492 0-.889.358-.889.801v14.398c0 .443.396.801.889.801h14.223c.492 0 .889-.358.889-.801v-14.398c0-.443-.396-.801-.889-.801h-14.223m1.572 2h4.615c.255 0 .463.206.463.461v4.615c0 .255-.208.463-.463.463h-4.615c-.255 0-.461-.208-.461-.463v-4.615c0-.255.206-.461.461-.461m6.463 0h4.615c.255 0 .461.206.461.461v4.615c0 .255-.206.463-.461.463h-4.615c-.255 0-.463-.208-.463-.463v-4.615c0-.255.208-.461.463-.461m.461.924v3.691h3.691v-3.691h-3.691m-6.924 5.537h4.615c.255 0 .463.207.463.463v4.615c0 .255-.208.461-.463.461h-4.615c-.255 0-.461-.206-.461-.461v-4.615c0-.255.206-.463.461-.463m6.463 0h4.615c.255 0 .461.206.461.461v4.615c0 .255-.208.463-.463.463h-2.307-2.307c-.255 0-.463-.208-.463-.463v-2.307-2.307c0-.255.208-.463.463-.463m-4.744.924c.079.136.129.292.129.461 0 .51-.414.924-.924.924-.169 0-.325-.05-.461-.129v1.18c.136-.079.292-.129.461-.129.51 0 .924.414.924.924 0 .169-.05.325-.129.461h1.18c-.079-.136-.129-.292-.129-.461 0-.51.414-.924.924-.924.169 0 .325.05.461.129v-1.18c-.136.079-.292.129-.461.129-.51 0-.924-.414-.924-.924 0-.169.05-.325.129-.461h-1.18m5.205 0v.732l.732-.732h-.732m2.037 0l-2.037 2.037v1l3.039-3.039h-1m1.654.652l-3.039 3.039h1l2.037-2.037v-1m-8.306641.269532a.923153 .923153 0 0 1 .923828 .923828 .923153 .923153 0 0 1 -.923828 .923828 .923153 .923153 0 0 1 -.923828 -.923828 .923153 .923153 0 0 1 .923828 -.923828m8.307 2.037l-.732.732h.732v-.732" transform="translate(-.0001-.032)" stroke-opacity=".55" fill="#4d4d4d" stroke-width="2.8" stroke="none"/></svg>