<svg xmlns="http://www.w3.org/2000/svg" viewBox="0 0 22 22"><path d="m1.15 3c-.417 0-.752.337-.752.754v14.492c0 .417.335.754.752.754h19.699c.417 0 .752-.337.752-.754v-14.492c0-.417-.335-.754-.752-.754h-19.699m7.02 3.301c.398 0 .765.097 1.102.293.336.196.603.463.799.799.189.323.282.676.289 1.057v-.273h1.254v.318c0-.398.099-.765.295-1.102.196-.336.463-.603.799-.799.336-.196.703-.293 1.102-.293.398 0 .765.097 1.102.293.336.196.603.463.799.799.196.336.293.703.293 1.102 0 .398-.097.765-.293 1.102-.196.336-.463.603-.799.799-.336.196-.703.295-1.102.295-.398 0-.765-.099-1.102-.295-.336-.196-.603-.463-.799-.799-.196-.336-.295-.703-.295-1.102v.309h-1.254v1.254 3.764h1.281v.27c.003-.392.099-.754.293-1.086.196-.336.463-.603.799-.799.336-.196.703-.295 1.102-.295.398 0 .765.099 1.102.295.336.196.603.463.799.799.196.336.295.703.295 1.102 0 .398-.099.765-.295 1.102-.196.336-.463.603-.799.799-.336.196-.703.295-1.102.295-.398 0-.765-.099-1.102-.295-.336-.196-.603-.463-.799-.799-.194-.332-.29-.694-.293-1.086v.326h-1.281-.627v-4.391c.341-.342.563-.753.627-1.254v-.264c-.007.38-.101.734-.289 1.057-.196.336-.463.603-.799.799-.336.196-.703.295-1.102.295-.398 0-.765-.099-1.102-.295-.336-.196-.603-.463-.799-.799-.196-.336-.295-.703-.295-1.102 0-.398.099-.765.295-1.102.196-.336.463-.603.799-.799.336-.196.703-.293 1.102-.293m2.189 2.238c0-.015.006-.029.006-.045 0-.016-.006-.029-.006-.045v.09m1.281 5.582v-.031c0 .005-.002.001-.002.016 0 .005.002.001.002.016" transform="matrix(.99999 0 0 .99999.0001-.002)" stroke="none" fill="#4d4d4d"/></svg>