<svg xmlns="http://www.w3.org/2000/svg" viewBox="0 0 22 22"><path d="m3.889 3c-.492 0-.889.358-.889.801v14.398c0 .443.396.801.889.801h14.223c.492 0 .889-.358.889-.801v-14.398c0-.443-.396-.801-.889-.801h-14.223m7.111 2c1.234 0 2.378.372 3.33 1.01.238.158.46.335.672.525 0 0 .002.002.002.002.073.065.147.13.217.199.151.15.295.308.43.473.135.166.26.338.377.518.047.071.089.145.133.219.0001.002.003.004.004.006.084.143.162.289.234.439.019.04.04.081.059.121.0001.003.003.005.004.008.002.004.002.008.004.012.048.107.093.216.135.326.033.087.066.174.096.264.001.028.022.054.031.082.049.157.087.32.123.482.047.212.087.428.111.648.024.22.039.443.039.67 0 .282-.025.557-.063.828-.008.06-.019.12-.029.18-.028.168-.073.329-.113.492h-2.01c-.012-.035-.026-.074-.039-.102-.051-.111-.081-.211-.154-.295-.04-.046-.094-.079-.127-.121-.027-.034-.06-.099-.061-.125 0-.029.023-.048.031-.076.001-.037.012-.106.025-.164.006-.027.037-.091.031-.135-.005-.042-.07-.122-.123-.135-.07-.017-.14.021-.229.014-.076-.048-.072-.173-.182-.189-.144-.021-.29.037-.389.08-.057.025-.116.061-.166.064-.048.002-.095-.025-.141-.029-.06-.006-.136-.0001-.195.001-.058.001-.11.053-.16.057-.097.007-.189-.089-.25-.137-.037-.029-.076-.053-.111-.08-.037-.029-.084-.046-.113-.074-.039-.038-.04-.106-.061-.156-.024-.06-.098-.104-.154-.16-.042-.042-.142-.106-.152-.16-.005-.028.013-.06.012-.09-.003-.044-.036-.068-.035-.1.0001-.044.052-.078.064-.115.006-.019.003-.046.001-.07.014-.051.049-.082.041-.156-.003-.03-.03-.057-.031-.096-.0001-.026.019-.04.016-.064-.004-.043-.059-.05-.064-.1-.006-.051.048-.093.08-.15.014-.026.022-.064.035-.084.028-.043.074-.063.096-.105.016-.031.021-.076.035-.1.019-.03.053-.047.088-.086.028-.032.041-.07.061-.084.025-.018.064-.023.092-.035.093-.042.16-.099.205-.188-.014-.081.006-.114.039-.17.031-.051.053-.099.105-.129.063-.035.122-.039.166-.105.022-.033.052-.09.053-.125 0-.05-.05-.114-.094-.121-.045-.007-.115.036-.141-.014-.008-.016.004-.053 0-.07-.006-.033-.034-.056-.035-.08-.002-.047.047-.096.061-.15.019-.074-.0001-.132-.006-.217.07-.11.226-.053.381-.043.023.002.051-.006.076-.006.092.002.164.029.195-.051.012-.03.023-.142.016-.17-.008-.034-.074-.121-.105-.141-.05-.032-.122-.017-.15-.074.023-.099.133-.016.199-.039.034-.012.032-.071.063-.08.02-.007.046.02.074.02.024 0 .112-.045.135-.061.032-.022.042-.065.07-.084.019-.012.044-.012.064-.021.043-.018.096-.053.125-.088.041-.05.061-.114.111-.123.002 0 .005 0 .008 0-.207-.157-.422-.302-.652-.428-.007.009-.016.019-.018.033.006.046.086.018.096.061-.008.047-.048.054-.049.088 0 .03.06.088.09.127.022.029.06.048.08.078.017.026.021.057.035.07.026.025.085.03.09.066.006.048-.06.068-.051.121-.069.054-.183.025-.295.039-.051.007-.107.056-.16.014-.012-.034.044-.038.049-.07-.004-.03-.04-.024-.049-.049.015-.039.059-.047.055-.105.028-.03.082-.019.09-.061.006-.029-.016-.064-.045-.08-.016-.001-.042-.006-.061-.016-.049-.027-.065-.081-.094-.094.004-.055-.015-.093 0-.129.009-.022.074-.083.109-.096.03-.011.053-.016.078-.023-.737-.393-1.578-.617-2.475-.617-.195 0-.387.013-.576.033-.005.003-.009.008-.012.001-.017.008-.102.049-.131.045-.013-.002-.021-.018-.031-.029-.045.006-.09.014-.135.021.021.029.054.047.055.088.002.068-.036.073-.094.115-.041-.017-.077-.04-.131-.045-.032.038.053.051.025.1-.08.017-.143-.023-.217-.045-.023-.007-.055-.005-.074-.016-.028-.016-.037-.063-.061-.088-.125.034-.247.071-.367.113.038.012.072.024.117.021.024-.002.056-.025.08-.021.049.007.078.068.115.096.032.025.068.016.076.049-.001.056-.049.059-.045.111.004.046.051.079.074.084.037.007.089-.012.125-.029.067-.032.126-.127.182-.115.044.001.077.151.084.201.007.054-.007.095-.004.145.006.084.112.075.164.119.016.013.022.049.035.066.025.034.056.032.061.068.009.086-.079.095-.07.191-.018.037-.064.034-.061.084.006.079.12.02.15.082.017.033-.0001.058-.014.105.039.046.037.119-.031.119-.042 0-.054-.044-.096-.055-.023-.005-.054-.005-.084-.001-.026-.005-.058-.013-.082-.016-.062-.007-.127.001-.164-.025.06-.079.14-.156.217-.225.023-.02.07-.035.059-.076-.043-.037-.095.003-.135.025-.042.024-.093.059-.141.066-.083.012-.192-.025-.26.02-.009.038.077.023.064.08-.033.005-.064.007-.09-.016-.024-.021-.001-.052-.025-.064-.026-.021-.121-.027-.164-.02-.053.009-.099.039-.105.084.063.03.167-.029.189.047-.035.062-.116.094-.105.178.004.032.043.076.07.08.028.005.043-.021.07-.02.028.003.021.036.055.031.048-.021.076-.09.131-.086.066.08-.061.119-.131.145-.08.029-.183.045-.244.07-.032.013-.153.132-.17.041-.012-.065.059-.046.074-.1-.078-.015-.15.032-.221.059-.101.038-.271.063-.295.176-.004.023.011.065-.004.08-.012.012-.086.015-.117.025-.048.017-.089.05-.119.059-.023.007-.056.006-.07.012-.04.015-.054.07-.1.105-.019.015-.059.024-.074.039-.026.026-.03.092-.076.102-.029.003-.053-.023-.08-.006-.003.064.024.15-.004.215-.059.048-.125.082-.201.125-.042.024-.08.031-.131.057-.036.018-.068.06-.109.084-.096.056-.211.123-.211.266 0 .031.017.064.021.1.003.021-.002.043 0 .066.007.052.044.118 0 .154-.067-.028-.154-.036-.201-.084-.013-.049.025-.092.02-.137-.005-.036-.054-.101-.084-.105-.03-.005-.06.029-.092.027-.037-.003-.071-.057-.119-.063-.07-.008-.121.017-.199.006-.075.04-.099.113-.191.105-.033-.002-.062-.028-.1-.035-.041-.008-.104-.023-.146-.02-.082.006-.141.061-.211.1-.103.266-.189.541-.248.826.015.03.026.06.035.07.026.028.101.07.145.07.037.0001.08-.019.115-.025.041-.007.091-.009.129-.021.108-.035.089-.179.197-.229.047-.022.1-.025.184-.029.027.022.039.06.035.094-.003.026-.026.048-.039.084-.011.032-.014.07-.025.096-.015.034-.047.058-.059.09-.007.021-.005.048-.012.066-.011.033-.056.056-.035.09.107.042.238-.013.332.004.039.007.12.056.119.117 0 .046-.037.073-.041.123-.006.063-.032.141-.035.191-.004.083.123.225.211.225.095-.0001.151-.095.266-.045.038.016.079.079.121.076.035-.003.086-.063.109-.105.028-.051.03-.093.08-.119.054-.028.097-.015.166-.041.031-.011.056-.032.084-.051.024-.017.05-.06.08-.029.04.04-.049.061-.016.104.069.037.106-.07.156-.07.016 0 .071.034.1.053.039.026.053.062.096.07.027.006.073-.011.111-.006.051.007.08.05.119.049.047-.0001.069-.053.109-.061.088-.016.121.011.16.066.044.008.046-.05.086-.029-.022.044.006.063.023.1.011.023.011.041.021.051.024.023.07.023.105.045.037.023.057.065.1.113.044.05.118.102.176.105.055.004.099-.015.145-.001.104.013.168.065.24.121.04.031.079.052.092.09.001.026.003.061.014.09.022.062.113.093.08.201.015.032.048.042.084.064.029.018.054.054.086.059.02.003.041-.005.059-.004.057.004.097.026.146.045.031.012.07.015.09.029.025.017.029.077.061.092.02.001.067-.004.102 0 .054.006.125.038.174.039.029.0001.054-.011.08-.001.123.009.192.155.311.199.037.015.096.005.121.016.044.019.08.155.084.215.001.182-.128.241-.209.361-.017.025-.027.065-.051.1-.048.071-.102.087-.096.217.002.036.02.07.02.109 0 .048-.003.111-.014.154-.008.033-.037.06-.041.09-.005.031.008.054.004.08-.004.029-.031.071-.053.111-.046.085-.059.186-.152.221-.055.02-.129.008-.189.029-.024.009-.056.031-.086.045-.087.041-.21.096-.234.186-.021.08.03.143.016.234-.016.027-.037.055-.061.086-.022.028-.032.061-.055.09-.03.038-.077.055-.096.105-.006.017-.002.037-.001.064-.003.001-.022.027-.031.047-.008.018-.006.038-.014.053-.023.046-.091.152-.141.166-.104.029-.213-.043-.285-.029.001.05.047.045.07.08.014.021.02.048.039.07.022.026.042.037.045.066.006.062-.042.123-.074.145-.03.02-.091.03-.145.039-.037.006-.133.008-.15.031-.025.035.013.12-.006.154-.037.073-.137-.003-.189.02-.004.038.009.078.039.096.031.018.081-.004.102.031-.001.05-.065.055-.076.104.002.048.017.06.001.09-.003.015-.019.02-.029.029.563.205 1.169.324 1.805.324.523 0 1.024-.083 1.5-.225v.779c-.48.124-.98.195-1.5.195-.478 0-.942-.061-1.387-.166-.003-.0001-.005-.0001-.008-.002-.264-.062-.519-.143-.768-.238-.005-.002-.011-.002-.016-.004-.002-.0001-.002-.0001-.004-.002-2.238-.87-3.818-3.035-3.818-5.588 0-.358.036-.708.096-1.049.09-.514.246-1 .457-1.463.003-.006.005-.011.008-.018.1-.215.213-.421.336-.621.011-.019.022-.038.033-.057.262-.415.571-.796.924-1.133.009-.008.019-.015.027-.023.164-.154.337-.298.518-.434.024-.018.048-.035.072-.053.394-.287.822-.53 1.281-.715.0001-.0001.002.0001.004 0 .079-.032.16-.058.24-.086.199-.07.403-.132.611-.182.447-.106.912-.168 1.393-.168m-1.887 1.104c-.357.137-.696.306-1.01.514.041.019.086.042.125.047.069.009.145-.02.154.035.009.053-.065.072-.07.105.037.049-.024.072-.023.115 0 .035.041.087.078.09.05.004.125-.049.146-.1.025-.06.013-.142.059-.186.233.006.431-.106.416-.346-.002-.024-.012-.054-.008-.08.007-.039.074-.07.064-.119.035-.011.051-.044.068-.076m4.055.564c.061-.006.128.019.133.057.005.038-.034.042-.049.084-.014.038 0 .085-.018.111-.015.023-.054.021-.082.029-.063.019-.186.094-.236.012.007-.044.05-.055.064-.092.0001-.029-.03-.043-.025-.074.006-.037.036-.024.076-.039.029-.011.042-.047.08-.07.017-.001.036-.015.057-.018m-5.506.582c-.081-.021-.195.06-.289.086-.053.014-.103.014-.115.059.047.079.142-.016.211-.004.035.006.055.055.09.061.024.004.16-.011.17-.016.1-.042-.021-.174-.066-.186m.191.242c-.04-.003-.081.014-.096.033-.002.03.023.036.021.066-.049.035-.024.15.023.154.051.004.078-.129.146-.141.025-.004.038.015.07.012.039-.031.02-.094-.021-.105-.016-.004-.038.011-.064.001-.028-.002-.057-.028-.08-.029m-.227.014c-.042-.002-.111.019-.135.035-.022.015-.036.054-.059.082-.024.028-.05.05-.07.074-.018.022-.12.167-.041.184.034.007.105-.061.111-.088.023-.092.064-.158.135-.201.041-.025.083-.021.09-.074-.005-.006-.017-.011-.031-.012m7.131.031c-.019-.006-.047.019-.059.035-.024.109.065.118.105.166.028.033.04.082.068.104.03.023.073.019.111.035.027.011.043.045.068.061.048.029.126.034.131.09-.03.02-.096-.03-.119.02-.006.032.024.049.023.08-.0001.049-.054.104-.104.096-.005-.029.027-.052.025-.084-.002-.064-.132-.162-.197-.191-.03-.014-.066-.016-.094-.031-.049-.028-.134-.095-.164-.135-.036-.047-.068-.133-.146-.129-.032.002-.059.031-.086.045-.024.012-.05.025-.074.041-.029.019-.053.038-.08.039-.063.003-.116-.047-.17-.035-.018.004-.033.019-.055.039-.0001.029.008.048.004.08-.016.028-.066.028-.102.047-.052.027-.096.083-.139.125-.027.027-.051.049-.055.07-.003.017.014.048.001.07-.004.024-.05.073-.08.094-.018.012-.042.014-.061.025-.039.023-.057.054-.09.061-.088.016-.247-.018-.246.074.0001.062.086.064.137.061.071-.003.131.014.17.004.027-.007.056-.036.084-.049.018-.008.037-.009.051-.016.03-.015.047-.04.07-.051.046-.021.13-.036.18-.039.068-.005.139.008.227 0 .031-.002.06-.022.094-.025.054-.004.126.02.17.02.031-.0001.064-.03.1-.029.04.0001.084.029.092.055.005.015-.008.039-.004.061.006.036.037.051.035.074-.003.031-.081.072-.07.109.007.024.061.05.088.066.028.017.078.041.111.045.028.004.053-.009.08-.006.043.005.113.034.141.053.047.033.041.085.096.104.023.008.064.003.094.001.073.016.128.077.182.07.084-.001.045-.088.055-.145.021-.128.271-.122.32-.035.022.006.044.006.066.008-.068-.146-.142-.286-.223-.424-.043-.017-.069-.053-.068-.115-.043-.065-.098-.111-.137-.164-.014-.02-.035-.052-.039-.082-.0001-.006.0001-.013.002-.02-.036-.051-.075-.101-.113-.15-.014-.006-.027-.014-.039-.02-.059-.028-.134-.055-.176-.09-.03-.025-.044-.067-.07-.084-.022-.014-.05-.012-.07-.025-.027-.019-.023-.051-.059-.061h-.002m-6.537.15c-.025 0-.055.004-.078.006-.033.003-.071.001-.074.035.052.024.195.039.211-.027-.011-.001-.033-.013-.059-.014m-.324.121c-.051.002-.099.028-.143.033-.035.005-.1-.007-.092.045.006.043.073.028.111.016.079-.025.13-.047.176-.086-.018-.007-.036-.008-.053-.008m6.525 0c.011-.004.022 0 .035.014.006.042-.012.062-.035.076-.049-.009-.032-.079 0-.09m-.014.141c.048-.013.084.034.064.139-.016.042-.087.097-.119.035.011-.049.005-.085.004-.141.017-.018.035-.029.051-.033m.426.275h.002c.044.002.093.008.129.008-.013.038-.017.087-.047.109-.082-.015-.159-.034-.195-.094.026-.021.067-.025.111-.023m-8.883 2.035c-.052.0001-.105.051-.152.051-.03.226-.049.455-.049.689 0 1.958 1.064 3.656 2.645 4.559-.006-.019-.015-.036-.016-.057-.0001-.022.001-.048.006-.07-.011-.068-.085-.124-.09-.191-.002-.033.021-.061.025-.096.004-.023-.003-.049 0-.074.004-.032.02-.061.023-.09.006-.055 0-.149-.001-.195-.012-.058-.06-.107-.066-.17-.003-.023.007-.062.006-.092-.002-.027-.017-.051-.02-.082-.003-.029.007-.058.001-.092.005-.063-.011-.133-.001-.195.0001-.019.001-.033.001-.051-.0001-.052-.018-.103-.021-.154-.004-.095.012-.164-.004-.252-.012-.067-.025-.167-.049-.209-.027-.047-.134-.125-.188-.154-.035-.02-.075-.028-.113-.047-.082-.04-.24-.124-.275-.205-.001-.023-.001-.054-.021-.08-.022-.051-.067-.095-.1-.145-.062-.094-.112-.213-.176-.311-.032-.05-.059-.105-.094-.145-.021-.023-.087-.045-.096-.08-.011-.046-.044-.111-.039-.146.007-.048.1-.087.1-.131 0-.037-.05-.056-.061-.088-.025-.076.015-.122.045-.186.001-.021.019-.055.029-.07.018-.028.056-.037.08-.066.014-.017.023-.051.041-.074.038-.051.099-.07.115-.115.013-.037.019-.223.004-.285-.009-.036-.042-.065-.055-.1-.023-.06-.028-.126-.09-.125-.038.0001-.067.043-.092.07-.006.036-.002.073-.039.084-.057.017-.078-.06-.145-.08-.026-.008-.069-.006-.086-.014-.048-.022-.064-.093-.115-.121-.043-.023-.08-.016-.105-.051-.001-.024-.0001-.067-.004-.1-.055-.032-.1-.151-.164-.18-.042-.019-.109-.017-.162-.035-.025-.008-.044-.02-.07-.025-.032-.007-.063-.007-.088-.02-.099-.049-.153-.209-.275-.205m2.037.566c-.036.017-.018.081.02.076.04-.006.029-.098-.02-.076m5.479 2.248c.199 0 .383.048.551.146.168.098.3.232.398.4.093.16.14.334.145.521v-.131h.629v.145c.003-.193.051-.372.146-.535.098-.168.23-.302.398-.4.168-.098.352-.146.551-.146.199 0 .383.048.551.146.168.098.302.232.4.4.098.168.146.352.146.551 0 .199-.048.383-.146.551-.098.168-.232.3-.4.398-.168.098-.352.148-.551.148-.199 0-.383-.05-.551-.148-.168-.098-.3-.23-.398-.398-.095-.164-.144-.342-.146-.535v.139h-.629v.627 1.881h.641v.143c0-.199.048-.383.146-.551.098-.168.232-.3.4-.398.168-.098.352-.148.551-.148.199 0 .383.05.551.148.168.098.3.23.398.398.098.168.148.352.148.551 0 .199-.05.383-.148.551-.098.168-.23.302-.398.4-.168.098-.352.146-.551.146-.199 0-.383-.048-.551-.146-.168-.098-.302-.232-.4-.4-.098-.168-.146-.352-.146-.551v.172h-.641v-.002h-.313v-2.193c.069-.069.12-.15.168-.23-.098.168-.23.3-.398.398-.168.098-.352.148-.551.148-.199 0-.383-.05-.551-.148-.168-.098-.302-.23-.4-.398-.098-.168-.146-.352-.146-.551 0-.199.048-.383.146-.551.098-.168.232-.302.4-.4.168-.098.352-.146.551-.146m.949 1.648c.038-.063.062-.134.086-.205-.023.07-.048.14-.086.205m.086-.205c.011-.033.024-.066.031-.1-.008.035-.02.067-.031.1m.031-.1c.007-.032.023-.058.027-.092v-.125c-.002.075-.011.147-.027.217m.027-.217c0-.001.004-.019.004-.029 0-.001-.004-.019-.004-.029v.059m.629-.014v-.031c0 .005-.002.001-.002.016 0 .005.002.001.002.016" transform="translate(-.0001-.032)" stroke-opacity=".55" fill="#4d4d4d" stroke-width="2.8" stroke="none"/></svg>