<svg xmlns="http://www.w3.org/2000/svg" viewBox="0 0 22 22"><path d="m1.15 3c-.417 0-.752.337-.752.754v14.492c0 .417.335.754.752.754h19.699c.417 0 .752-.337.752-.754v-14.492c0-.417-.335-.754-.752-.754h-19.699m8.148 4.5c1.219 0 2.203.985 2.203 2.203 0 1.219-.985 2.205-2.203 2.205-.285 0-.544-.053-.777-.131l-1.166 1.168h-.779v.777h-.777v.777h-1.297v-1.297l2.723-2.721c-.078-.259-.129-.52-.129-.779 0-1.219.985-2.203 2.203-2.203m6.111.551c1.01 0 1.834.821 1.834 1.832v.746c.144.03.254.157.254.311v2.791c0 .176-.144.32-.32.32h-3.535c-.176 0-.318-.145-.318-.32v-2.791c0-.153.109-.28.254-.311v-.746c0-1.01.821-1.832 1.832-1.832m-5.463.227c-.441 0-.777.337-.777.777 0 .441.337.779.777.779.441 0 .777-.339.777-.779 0-.441-.337-.777-.777-.777m5.463.41c-.659 0-1.195.536-1.195 1.195v.738h2.391v-.738c0-.659-.536-1.195-1.195-1.195" transform="matrix(.99999 0 0 .99999.0001-.002)" stroke="none" fill="#4d4d4d"/></svg>