<svg xmlns="http://www.w3.org/2000/svg" viewBox="0 0 22 22"><path d="m1.15 3c-.417 0-.752.337-.752.754v14.492c0 .417.335.754.752.754h19.699c.417 0 .752-.337.752-.754v-14.492c0-.417-.335-.754-.752-.754h-19.699m11.643 4c.181 0 .363.069.502.207.277.276.277.724 0 1l-3.086 2.793 3.086 2.793c.277.276.277.724 0 1-.277.276-.725.276-1 0l-3.592-3.248c-.15-.15-.215-.349-.203-.545-.012-.195.053-.395.203-.545l3.592-3.248c.139-.138.319-.207.5-.207" transform="matrix(.99999 0 0 .99999 0-.002)" fill="#4d4d4d" fill-rule="evenodd"/></svg>