<svg xmlns="http://www.w3.org/2000/svg" viewBox="0 0 22 22"><path d="m1.15 3c-.417 0-.752.337-.752.754v14.492c0 .417.335.754.752.754h19.699c.417 0 .752-.337.752-.754v-14.492c0-.417-.335-.754-.752-.754h-19.699m8.957 4h1.785c-.003.856 0 3.107 0 3.107h2.895v1.785h-2.895c0 0 .0001 2.248 0 3.107h-1.785c.0001-.859 0-3.107 0-3.107 0 0-1.936-.0001-2.895 0v-1.783c.958-.003 2.895-.002 2.895-.002 0 0-.0001-2.252 0-3.107" transform="matrix(.99999 0 0 .99999 0-.002)" fill="#4d4d4d" fill-rule="evenodd"/></svg>