<svg xmlns="http://www.w3.org/2000/svg" viewBox="0 0 22 22"><defs><clipPath><path d="m0 706.47h1490.93v-706.47h-1490.93v706.47"/></clipPath><clipPath><path d="m22.2 686.12h1447.73v-667.19h-1447.73v667.19"/></clipPath></defs><g transform="matrix(.99375 0 0 1-547.77-606.65)" fill="#4d4d4d"><path transform="translate(550.29 606.65)" d="m17 3v2h-2v1h2v2h1v-2h2v-1h-2v-2h-1"/><path d="m559.2 611.65l-3.315 9.594-.123.406-1.473 4h1.657l1.627-4.438h5.432l1.627 4.438h1.657l-1.473-4-.123-.406-3.315-9.594h-.215-1.749-.215m1.105 1.938l2.179 6.344h-4.389l2.21-6.344" color="#000"/></g></svg>