<?xml version="1.0" encoding="UTF-8" standalone="no"?>
<svg
   xmlns:dc="http://purl.org/dc/elements/1.1/"
   xmlns:cc="http://creativecommons.org/ns#"
   xmlns:rdf="http://www.w3.org/1999/02/22-rdf-syntax-ns#"
   xmlns:svg="http://www.w3.org/2000/svg"
   xmlns="http://www.w3.org/2000/svg"
   xmlns:sodipodi="http://sodipodi.sourceforge.net/DTD/sodipodi-0.dtd"
   xmlns:inkscape="http://www.inkscape.org/namespaces/inkscape"
   viewBox="0 0 22 22"
   id="svg2"
   version="1.1"
   inkscape:version="0.91 r13725"
   sodipodi:docname="xml-node-delete.svg">
  <metadata
     id="metadata20">
    <rdf:RDF>
      <cc:Work
         rdf:about="">
        <dc:format>image/svg+xml</dc:format>
        <dc:type
           rdf:resource="http://purl.org/dc/dcmitype/StillImage" />
      </cc:Work>
    </rdf:RDF>
  </metadata>
  <defs
     id="defs18" />
  <sodipodi:namedview
     pagecolor="#ffffff"
     bordercolor="#666666"
     borderopacity="1"
     objecttolerance="10"
     gridtolerance="10"
     guidetolerance="10"
     inkscape:pageopacity="0"
     inkscape:pageshadow="2"
     inkscape:window-width="1680"
     inkscape:window-height="1028"
     id="namedview16"
     showgrid="false"
     inkscape:zoom="10.727273"
     inkscape:cx="11"
     inkscape:cy="11"
     inkscape:window-x="1366"
     inkscape:window-y="22"
     inkscape:window-maximized="1"
     inkscape:current-layer="g4" />
  <g
     transform="matrix(.67651 0 0 .67651-369.84-407.52)"
     id="g4">
    <g
       transform="matrix(.11355 0 0 .11346 543.83 596.08)"
       stroke="none"
       stroke-opacity=".8"
       fill="#1A1D20"
       id="g8">
      <path
         d="m129.53 225.56c-.133-.919-.625-1.747-1.368-2.303l-37.7-28.19 37.7-28.19c.743-.556 1.235-1.384 1.368-2.303.132-.919-.105-1.852-.662-2.597l-5.989-8.01c-1.159-1.548-3.351-1.865-4.899-.706l-52.16 39c-.883.66-1.404 1.699-1.404 2.803 0 1.104.521 2.143 1.404 2.803l52.16 39c.628.471 1.364.697 2.093.697 1.066 0 2.119-.484 2.806-1.403l5.989-8.01c.556-.745.794-1.678.662-2.597"
         id="path10" />
      <path
         d="m259.77 192.26l-52.16-39c-1.548-1.158-3.74-.841-4.898.706l-5.989 8.01c-.556.744-.794 1.678-.662 2.597.133.918.624 1.747 1.368 2.303l37.699 28.19-37.699 28.19c-.744.556-1.235 1.385-1.368 2.303-.132.919.105 1.853.662 2.597l5.989 8.01c.688.919 1.74 1.403 2.806 1.403.729 0 1.464-.227 2.093-.697l52.16-39c.883-.66 1.404-1.699 1.404-2.803 0-1.104-.522-2.143-1.405-2.803"
         id="path12" />
      <path
         d="m196.26 132.44l-9.211-3.895c-.854-.362-1.818-.368-2.679-.02-.86.349-1.547 1.025-1.908 1.88l-55 130.08c-.753 1.78.08 3.834 1.861 4.587l9.211 3.895c.435.185.899.276 1.363.276.447 0 .894-.086 1.316-.257.86-.349 1.546-1.025 1.908-1.88l55-130.08c.752-1.78-.081-3.833-1.861-4.586"
         id="path14" />
    </g>
    <path
       inkscape:connector-curvature="0"
       style="fill:#da4453;fill-opacity:1;stroke:none"
       d="m 572.26648,621.62717 a 2.4995931,2.4995962 0 0 0 -2.49959,2.4996 2.4995931,2.4995962 0 0 0 2.49959,2.49959 2.4995931,2.4995962 0 0 0 2.4996,-2.49959 2.4995931,2.4995962 0 0 0 -2.4996,-2.4996 z m -1.02888,1.2498 1.02888,1.02889 1.02889,-1.02889 0.22091,0.22091 -1.02889,1.02889 1.02889,1.02888 -0.22091,0.22091 -1.02889,-1.02888 -1.02888,1.02888 -0.22091,-0.22091 1.02888,-1.02888 -1.02888,-1.02889 0.22091,-0.22091 z"
       class="ColorScheme-NegativeText"
       id="path6-6" />
  </g>
</svg>
