<svg xmlns="http://www.w3.org/2000/svg" viewBox="0 0 22 22"><path d="m459 114.75h-420.75c-21.11 0-38.25 17.14-38.25 38.25v420.75c0 21.11 17.14 38.25 38.25 38.25h420.75c21.11 0 38.25-17.14 38.25-38.25v-420.75c0-21.11-17.14-38.25-38.25-38.25m114.75-114.75h-382.5c-21.11 0-38.25 17.14-38.25 38.25v38.25h38.25v-19.12c0-10.557 8.568-19.12 19.12-19.12h344.25c10.557 0 19.12 8.568 19.12 19.12v344.25c0 10.557-8.568 19.12-19.12 19.12h-19.12v38.25h38.25c21.11 0 38.25-17.14 38.25-38.25v-382.5c0-21.11-17.14-38.25-38.25-38.25" transform="matrix(.02614 0 0 .02614 3 2.998)" fill="#4d4d4d"/></svg>