<svg xmlns="http://www.w3.org/2000/svg" viewBox="0 0 22 22"><path d="m561.09 748.47c-.818 0-1.525.723-1.523 1.523-.002.8.706 1.477 1.523 1.477.818 0 1.478-.676 1.477-1.477.002-.8-.659-1.523-1.477-1.523m-7 1c-.818 0-1.525.723-1.523 1.523-.002.8.706 1.477 1.523 1.477.818 0 1.478-.676 1.477-1.477.002-.8-.659-1.523-1.477-1.523m-5 4c-.818 0-1.525.723-1.523 1.523-.002.8.706 1.477 1.523 1.477.647 0 1.191-.426 1.391-1h13.09v-1h-13.1c-.211-.566-.745-1-1.377-1m13 3c-.818 0-1.525.723-1.523 1.523-.002.8.706 1.477 1.523 1.477.818 0 1.478-.676 1.477-1.477.002-.8-.659-1.523-1.477-1.523m-5.5 1c-.818 0-1.525.723-1.523 1.523-.002.8.706 1.477 1.523 1.477.818 0 1.478-.676 1.477-1.477.002-.8-.659-1.523-1.477-1.523" color="#000" fill="#4d4d4d" transform="translate(-544.57-743.47)"/></svg>