<svg xmlns="http://www.w3.org/2000/svg" viewBox="0 0 8 8"><defs><clipPath><path d="m69.63 12.145h-.052c-22.727-.292-46.47 4.077-46.709 4.122-2.424.451-4.946 2.974-5.397 5.397-.044.237-4.414 23.983-4.122 46.71-.292 22.777 4.078 46.523 4.122 46.761.451 2.423 2.974 4.945 5.398 5.398.237.044 23.982 4.413 46.709 4.121 22.779.292 46.524-4.077 46.761-4.121 2.423-.452 4.946-2.976 5.398-5.399.044-.236 4.413-23.981 4.121-46.709.292-22.777-4.077-46.523-4.121-46.761-.453-2.423-2.976-4.946-5.398-5.397-.238-.045-23.984-4.414-46.71-4.122"/></clipPath><linearGradient gradientUnits="userSpaceOnUse" y1="986.67" x2="0" y2="-2.623"><stop stop-color="#ffce3b"/><stop offset="1" stop-color="#fef4ab"/></linearGradient><linearGradient y1="986.67" x2="0" y2="-2.623" gradientUnits="userSpaceOnUse"><stop stop-color="#ffce3b"/><stop offset="1" stop-color="#ffd762"/></linearGradient></defs><path d="m4 0c-2.216 0-4 1.784-4 4 0 2.216 1.784 4 4 4 2.216 0 4-1.784 4-4 0-2.216-1.784-4-4-4m-1.5 2.5h1v3h-1v-3m2 0h1v3h-1v-3" transform="translate(0-.002)" fill="#1A1D20"/></svg>