<svg xmlns="http://www.w3.org/2000/svg" viewBox="0 0 8 8"><path d="m1 0c-.554 0-1 .446-1 1v6c0 .554.446 1 1 1h6c.554 0 1-.446 1-1v-6c0-.554-.446-1-1-1h-6m1.525 1.639c.109 0 .201.039.277.115l1.203 1.203 1.203-1.203c.076-.076.17-.115.279-.115.109 0 .201.039.277.115l.557.557c.076.076.115.168.115.277 0 .109-.039.203-.115.279l-1.203 1.203 1.203 1.203c.076.076.115.168.115.277 0 .109-.039.203-.115.279l-.557.557c-.076.076-.168.113-.277.113-.109 0-.203-.037-.279-.113l-1.203-1.203-1.203 1.203c-.076.076-.168.113-.277.113-.109 0-.203-.037-.279-.113l-.557-.557c-.076-.076-.115-.17-.115-.279 0-.109.039-.201.115-.277l1.203-1.203-1.203-1.203c-.076-.076-.115-.17-.115-.279 0-.109.039-.201.115-.277l.557-.557c.076-.076.17-.115.279-.115" fill="#1A1D20"/></svg>