<svg xmlns="http://www.w3.org/2000/svg" viewBox="0 0 22 22"><path d="m388.44 545.99c-1.292 0-1.834.514-1.834 1.825v1.776c0 .81-.025 1.749-.739 1.749h-.369v.938h.369c.714 0 .739.939.739 1.749v1.776c0 1.312.542 1.825 1.834 1.825v-.861c-.861 0-.874-.348-.874-1.608v-1.466c0-.604-.149-1.504-.875-1.876.726-.373.875-1.274.875-1.878v-1.479c0-1.26.012-1.608.874-1.608v-.861m1.378 0v.861c.861 0 .885.348.885 1.608v1.479c0 .604.149 1.505.875 1.878-.726.373-.875 1.272-.875 1.876v1.466c0 1.26-.023 1.608-.885 1.608v.861c1.292 0 1.845-.514 1.845-1.825v-1.776c0-.81.05-1.749.751-1.749h.357v-.938h-.357c-.702 0-.751-.939-.751-1.749v-1.776c0-1.312-.553-1.825-1.845-1.825" fill="#1A1D20" transform="matrix(1.375 0 0 1.375-524.05-747.73)"/></svg>