<svg xmlns="http://www.w3.org/2000/svg" viewBox="0 0 16 16"><path d="m561.94 619.5c.925 0 .577 1.088 0 1.342-.969.426-1.961-.416-2.164-1.342-.307-1.396.819-2.666 2.164-2.863 1.757-.257 3.304 1.155 3.492 2.863.229 2.085-1.453 3.894-3.492 4.073-2.39.21-4.447-1.726-4.619-4.073-.196-2.679 1.981-4.972 4.619-5.137 2.954-.185 5.473 2.223 5.633 5.137.177 3.219-2.453 5.955-5.633 6.11-3.473.17-6.42-2.674-6.571-6.11-.163-3.72 2.887-6.87 6.571-7.02 3.959-.158 7.308 3.094 7.452 7.02.153 4.192-3.294 7.734-7.452 7.875-4.419.149-8.15-3.489-8.288-7.875-.146-4.642 3.679-8.557 8.288-8.692 4.859-.142 8.955 3.865 9.09 8.692.139 5.072-4.047 9.346-9.09 9.476-5.282.136-9.729-4.226-9.857-9.476-.134-5.487 4.401-10.11 9.857-10.232 5.689-.132 10.476 4.573 10.601 10.232.129 5.888-4.742 10.841-10.601 10.963-4.764.1-9.14-2.997-10.699-7.487" transform="matrix(.56333 0 0 .56604-308.54-342.86)" fill-rule="evenodd" stroke="none" fill="#1A1D20"/></svg>