<svg xmlns="http://www.w3.org/2000/svg" viewBox="0 0 16 16"><g transform="translate(-71.09-24.1)"><path d="m1.89 1042.32l.777.623-.731 1.437c-.365.663.262 1.308.662 1.533.394.221 1 .247 1.576.239l1.028-1.724.777.431-1.347-2.562-2.741.024m.114 3.517l1.667 3.161c.335.439.967.543 1.622.527h1.759v-2.993l-3.334-.024c-.518.032-1.195-.08-1.713-.671m10.489-5.825l-.907.395-.87-1.353c-.387-.649-1.242-.399-1.627-.149-.379.246-.698.782-.968 1.298l.971 1.758-.744.488 2.837.033 1.308-2.472m-3.053-1.603l-3.502-.036c-.537.088-.931.605-1.235 1.2l-.853 1.579 2.551 1.451 1.637-2.981c.224-.48.647-1.034 1.402-1.212m.152 12.197l.103-1.01 1.575-.125c.741-.033.942-.921.916-1.389-.026-.46-.328-1.01-.637-1.498l-1.969.019-.055-.904-1.403 2.531 1.472 2.372m2.846-1.963l1.729-3.126c.185-.524-.064-1.129-.424-1.69l-.932-1.531-2.474 1.586 1.747 2.915c.301.434.567 1.082.354 1.846" fill="#1A1D20" transform="matrix(.98097 0 0 .98097 71.21-992.5)"/></g></svg>