<svg xmlns="http://www.w3.org/2000/svg" viewBox="0 0 16 16"><path d="m.568 1.963c-.315 0-.568.254-.568.568v10.938c0 .315.254.568.568.568h14.863c.315 0 .568-.254.568-.568v-10.938c0-.315-.254-.568-.568-.568h-14.863m6.576 3.074c.143 0 .26.05.355.15l2.582 2.576c.098.098.146.218.146.357 0 .137-.049.256-.146.359l-2.582 2.578c-.098.098-.216.146-.355.146-.14 0-.26-.049-.357-.146l-.301-.297c-.098-.103-.146-.222-.146-.359 0-.14.049-.26.146-.357l1.924-1.924-1.924-1.92c-.098-.103-.146-.224-.146-.361 0-.14.049-.258.146-.355l.301-.297c.095-.1.215-.15.357-.15" transform="matrix(.74999 0 0 .74999 1.989 1.978)" fill="#1A1D20"/></svg>