<svg xmlns="http://www.w3.org/2000/svg" viewBox="0 0 16 16"><defs><linearGradient id="0" x1="15.37" y1="29.24" x2="14.99" y2=".736" gradientUnits="userSpaceOnUse"><stop stop-color="#e6c02a"/><stop offset="1" stop-opacity="0"/></linearGradient></defs><path d="m22.685 2.124c-7.107-4.244-16.309-1.931-20.558 5.174-4.248 7.104-1.932 16.309 5.171 20.555 7.108 4.248 16.307 1.93 20.555-5.174 4.248-7.104 1.932-16.302-5.168-20.555m-7.553 12.782l5.724 10.94c-.908.486-1.872.861-2.868 1.115-3.045.762-6.36.381-9.269-1.332l6.405-10.713-12.497-.5c.091-1.974.649-3.957 1.739-5.779 1.142-1.91 2.719-3.394 4.525-4.413l6.241 10.676 6.264-10.474c2.882 1.757 4.792 4.493 5.557 7.538.221.876.343 1.776.367 2.683l-12.188.259" fill="#1A1D20" transform="matrix(.19461-.34976.34976.19461-.16 10.298)" stroke="none"/></svg>