<svg xmlns="http://www.w3.org/2000/svg" viewBox="0 0 16 16"><g transform="translate(-71.09-24.1)"><path d="m477.83 539.38h-1.648v-1.483c0-.303-.246-.549-.549-.549h-7.963c-.303 0-.549.246-.549.549v1.483h-1.648c-.303 0-.549.246-.549.549v5.382c0 .303.246.549.549.549h1.648v1.945.949c0 .183.037.32.179.449.066.06.136.099.222.124.08.022.158.02.239.02h3.891 3.891c.08 0 .159.002.239-.02.086-.024.156-.063.222-.124.142-.13.178-.266.178-.45v-.949-1.944h1.648c.303 0 .549-.246.549-.549v-5.382c0-.303-.246-.549-.549-.549m-2.197 9.419h-7.963v-4.339h7.963zm0-9.419h-7.963v-.934-.549h7.964v.549c0 .311 0 .622 0 .934" fill="#1A1D20" transform="translate(-392.57-511.24)"/></g></svg>