<svg xmlns="http://www.w3.org/2000/svg" viewBox="0 0 16 16"><g transform="translate(-71.09-24.1)"><path d="m68.52 1026.73c-.309-.304-.995-.466-2.038-.479-.706-.011-1.556.054-2.45.179-.4-.231-.813-.482-1.137-.785-.871-.813-1.598-1.943-2.051-3.184.03-.116.055-.218.078-.322 0 0 .491-2.787.361-3.729-.018-.129-.029-.167-.064-.267l-.043-.109c-.133-.308-.395-.634-.805-.616l-.241-.011h-.007c-.458 0-.83.234-.928.584-.298 1.097.009 2.738.566 4.863l-.142.346c-.398.971-.898 1.949-1.338 2.812l-.057.112c-.463.907-.884 1.677-1.265 2.329l-.394.208c-.029.015-.703.372-.861.467-1.342.801-2.231 1.711-2.379 2.433-.047.23-.012.525.227.662l.381.191c.165.083.339.125.518.125.956 0 2.066-1.191 3.594-3.859 1.765-.575 3.774-1.052 5.536-1.316 1.342.756 2.993 1.281 4.03 1.281.185 0 .344-.018.474-.052.2-.053.368-.167.471-.321.202-.304.243-.723.188-1.152-.016-.127-.118-.285-.228-.392zm-14.277 5.086c.174-.477.864-1.419 1.884-2.255.064-.052.222-.2.367-.338-1.067 1.701-1.781 2.38-2.251 2.592m6.04-13.914c.307 0 .482.775.497 1.501.014.726-.155 1.236-.366 1.613-.174-.558-.259-1.438-.259-2.01 0 0-.013-1.1.128-1.1m-1.802 9.916c.214-.383.437-.787.664-1.216.555-1.049.905-1.87 1.166-2.544.519.944 1.165 1.747 1.925 2.39.095.08.195.161.301.241-1.545.306-2.88.677-4.056 1.129m9.74-.086c-.094.058-.364.093-.537.093-.56 0-1.252-.256-2.222-.672.373-.028.715-.042 1.021-.042.561 0 .727 0 1.276.138.549.14.556.424.462.483" transform="matrix(.79299 0 0 .79299 30.686-780.68)" fill="#1A1D20"/></g></svg>