<svg xmlns="http://www.w3.org/2000/svg" viewBox="0 0 16 16"><path d="m1.6 0c-.443 0-.799.358-.799.801v14.398c0 .443.356.801.799.801h12.801c.443 0 .799-.358.799-.801v-14.398c0-.443-.356-.801-.799-.801h-12.801m5.984.445h.889c.197 0 .355.159.355.355v.088c0 .197-.159.355-.355.355h-.889c-.197 0-.355-.159-.355-.355v-.088c0-.197.159-.355.355-.355zm-.004 1.156h.891c.197 0 .355.159.355.355v.09c0 .197-.159.355-.355.355h-.891c-.197 0-.355-.159-.355-.355v-.09c0-.197.159-.355.355-.355m-.001 1.143h.889c.197 0 .355.159.355.355v.09c0 .197-.159.355-.355.355h-.889c-.197 0-.355-.159-.355-.355v-.09c0-.197.159-.355.355-.355m.018 1.191h.889c.197 0 .355.159.355.355v.088c0 .197-.159.355-.355.355h-.889c-.197 0-.355-.159-.355-.355v-.088c0-.197.159-.355.355-.355m0 1.168h.889c.197 0 .355.159.355.355v.09c0 .197-.159.355-.355.355h-.889c-.197 0-.355-.159-.355-.355v-.09c0-.197.159-.355.355-.355m0 1.197h.889c.197 0 .355.159.355.355v.088c0 .197-.159.355-.355.355h-.889c-.197 0-.355-.159-.355-.355v-.088c0-.197.159-.355.355-.355m.072 1.209h.705c.14 0 .254.115.254.256v.504l.393 1.156c.11.322.057.681-.141.959-.198.277-.52.441-.859.441-.34 0-.66-.164-.857-.441-.198-.278-.25-.637-.141-.959l.393-1.156v-.504c0-.141.114-.256.254-.256m-.031 1.693l-.133.389c-.056.166-.028.351.074.494.204.286.681.286.885 0 .102-.143.129-.328.072-.494l-.131-.389h-.768" transform="matrix(.75 0 0 .75 1.991 1.978)" stroke-opacity=".55" fill="#1A1D20" stroke-width="2.8" stroke="none"/></svg>