<svg xmlns="http://www.w3.org/2000/svg" viewBox="0 0 16 16"><path d="m8.823 1038.3l-1.998.192v8.23l1.976-.299v-3.509l2.659 3.893 2.083-.662-2.723-3.744 2.745-3.53-2.126-.487-2.638 3.53.021-3.616m-4.529 2.01c-.023 0-.047.011-.064.026l-.785.785c-.033.034-.037.084-.013.124l.918 1.515c-.163.274-.295.568-.388.879l-1.686.35c-.047.011-.081.054-.081.102v1.11c0 .047.036.088.081.099l1.635.397c.087.361.222.706.401 1.02l-.948 1.443c-.026.04-.021.094.013.128l.785.785c.033.033.084.037.124.012l1.486-.901c.291.168.607.303.939.393l.346 1.665c.009.047.05.081.098.081h1.11c.047 0 .087-.031.098-.077l.41-1.673c.343-.092.666-.23.965-.406l1.464.96c.04.026.094.021.128-.012l.781-.785c.033-.033.041-.084.017-.124l-.534-.879-.175.055c-.025.011-.053-.011-.068-.026 0 0-.337-.496-.777-1.14-.526 1.029-1.599 1.733-2.834 1.733-1.756 0-3.18-1.424-3.18-3.18 0-1.292.772-2.401 1.878-2.899v-.82c-.201.071-.396.156-.581.256 0 0 0-.011 0-.011l-1.498-.982c-.02-.013-.041-.015-.064-.012z" fill="#1A1D20" stroke="none" transform="matrix(.99829 0 0 .99829.13-1034.55)"/></svg>