<svg xmlns="http://www.w3.org/2000/svg" viewBox="0 0 16 16"><g transform="translate(-71.09-24.1)"><path d="m470.58 538.78c-.397.111-.716.554-.716.984v6.817c-.402-.22-.919-.31-1.454-.164-.966.263-1.572 1.113-1.365 1.898.207.785 1.159 1.223 2.125.96.771-.21 1.302-.803 1.387-1.429l.022-6.442 5.01-1.406v5.083c-.402-.22-.919-.31-1.454-.164-.966.263-1.572 1.113-1.365 1.897.207.785 1.159 1.223 2.125.96.771-.21 1.302-.803 1.387-1.429l.022-8.386c0-.323-.19-.564-.447-.609l-5.28 1.429" fill="#1A1D20" transform="translate(-392.57-511.24)"/></g></svg>