<svg xmlns="http://www.w3.org/2000/svg" viewBox="0 0 16 16"><g transform="translate(-71.09-24.1)"><path d="m44.46 19.02c-.124.061-.235.259-.342.58-.286.857-2.301 6.78-13.711 7.07-5.445.135-7.762-4.643-7.762-4.643l-.137 6.145c0 0 .585 1.369-.581 2.799-.063-.099-.101-.211-.171-.307-.42-.581-.912-1.07-1.436-1.434-.602-.418-1.228-.694-1.846-.785-.712-.105-1.402.05-1.949.444-.548.394-.866.999-.992 1.707-.109.614-.071 1.278.137 1.98.181.611.469 1.228.889 1.809.443.614.996 1.157 1.573 1.536.651.427 1.341.678 2.02.717.209.012.423-.039.615-.068 4.381 3.467 13.08 6.703 18.84 3 .125.042.251.093.376.137.003.059-.016.118 0 .171l.274-.102c.049.015.087.054.137.068.011.003.023-.003.034 0l.103.102 2.599.922c-.107.901.34 1.924 1.47 2.355 2.036.778 3.932 1.775 3.932 1.775-.971-3.291-1.326-5.933-3.864-5.701-.472.043-.829.237-1.094.512l-2.291-1.468h-.103l-.034-.034c3.085-3.03 4.889-8.728 3.795-18.639-.063-.495-.272-.75-.479-.649" color="#000" transform="matrix(.46154 0 0 .46154 64.32 17.334)" fill="#1A1D20"/></g></svg>