<svg xmlns="http://www.w3.org/2000/svg" viewBox="0 0 16 16"><g transform="translate(-71.09-24.1)"><path d="m44.41 355.41h120.03v15.589h43.647v-15.589h120.55v17.622h43.646v-43.646h-16.1v-122.06h15.588v-43.647h-15.588v-113.32h16.11v-43.647h-43.646v8.878h-120.55v-15.588h-43.647v15.588h-120.03v-10.912h-43.647v43.647h15.588v115.35h-15.588v43.647h15.588v120.03h-15.588v43.648h43.647v-15.589m-12.47 0v3.118h-18.706v-18.706h3.118 12.471 3.118v3.118 12.47m144.97-339.82v-3.118h18.706v3.118 6.521 5.949 3.117h-18.706v-3.117-5.949-6.521m18.706 339.82v3.118h-18.706v-3.118-6.521-5.948-3.118h18.706v3.118 5.948 6.521m2.077-162.9c1.212 1.218 1.212 3.19 0 4.408-.615.608-1.406.913-2.21.913-.792 0-1.593-.305-2.205-.913l-7.01-7.01-7.01 7.01c-.612.608-1.409.913-2.207.913-.798 0-1.595-.305-2.208-.913-1.214-1.218-1.214-3.19 0-4.408l7.01-7.01-7.01-7.01c-1.214-1.214-1.214-3.194 0-4.409 1.215-1.215 3.194-1.215 4.409 0l7.02 7.01 7.01-7.01c1.218-1.215 3.191-1.215 4.409 0 1.218 1.215 1.218 3.194 0 4.409l-7.01 7.01 7.02 7.01m162.12 168.05h-18.705v-5.151-12.47-1.084h2.6 12.471 3.635v18.705zm-31.18-31.18v13.555h-97.65c54.43-15.431 97.29-58.3 112.72-112.73v99.17h-15.07m30.658-134.53h-3.117-6.521-5.949-3.117v-18.706h3.117 5.949 6.521 3.117v18.706m-18.19-175.67h15.07 3.635v18.706h-3.635-12.471-2.6v-9.828-8.878zm-12.471 8.878v22.298h15.07v90.43c-15.43-54.43-58.3-97.3-112.72-112.73h97.65zm-315.4-10.913h3.118 15.588v10.912 7.794h-3.118-12.471-3.118v-18.706zm31.18 31.18v-20.264h97.13c-54.43 15.432-97.29 58.29-112.72 112.72v-92.46h15.588m-31.18 127.82h3.118 6.521 5.949 3.118v18.706h-3.118-5.949-6.521-3.118v-18.706m15.588 54.07c15.433 54.43 58.29 97.3 112.72 112.73h-97.14v-15.589h-15.588v-97.14" transform="matrix(.0323 0 0 .03217 73.06 26.1)" fill="#1A1D20"/></g></svg>