<svg xmlns="http://www.w3.org/2000/svg" viewBox="0 0 16 16"><g transform="matrix(.39082 0 0 .39082-175.73-203.29)" stroke="#1f2a47"><circle r="14.449" cy="540.58" cx="470.1" fill="none" fill-rule="evenodd" stroke="#1A1D20" stroke-linejoin="round" stroke-linecap="round" stroke-width="1.806"/><path d="m-17.918 9.601q3.111 0 5.235 2.143 2.124 2.143 2.124 5.178 0 1.707-.74 2.826-.721 1.119-2.105 1.119-1.422 0-2.124-1.385-.929 1.385-2.655 1.385-1.555 0-2.617-1.081-1.062-1.1-1.062-2.788 0-1.669 1.062-2.769 1.062-1.1 2.542-1.1 1.46 0 2.428 1.119h.076v-.853h1.366v4.95q0 .493.266.891.284.398.853.398 1.347 0 1.347-2.712 0-2.504-1.745-4.23-1.745-1.726-4.249-1.726-2.504 0-4.249 1.726-1.745 1.726-1.745 4.23 0 2.504 1.745 4.23 1.745 1.726 4.249 1.726 1.347 0 2.409-.531l.531 1.29q-1.328.607-2.94.607-3.148 0-5.292-2.124-2.143-2.143-2.143-5.197 0-3.035 2.143-5.178 2.162-2.143 5.292-2.143m-1.764 9.161q.683.664 1.631.664.948 0 1.612-.664.683-.664.683-1.764 0-1.1-.683-1.764-.664-.664-1.612-.664-.948 0-1.631.664-.664.664-.664 1.764 0 1.1.664 1.764" fill="#1A1D20" transform="matrix(1.31063 0 0 1.31063 493.44 518.79)" stroke="none"/></g></svg>