<svg xmlns="http://www.w3.org/2000/svg" viewBox="0 0 16 16"><path d="m470.0961 529.0687a11.514281 11.514281 0 0 0 -11.51428 11.51428 11.514281 11.514281 0 0 0 11.51428 11.51428 11.514281 11.514281 0 0 0 11.51428 -11.51428 11.514281 11.514281 0 0 0 -11.51428 -11.51428m-.107 4.605c2.038 0 3.752.704 5.144 2.108 1.392 1.404 2.089 3.099 2.089 5.088 0 1.119-.241 2.047-.725 2.78-.472.733-1.164 1.099-2.072 1.099-.932 0-1.626-.453-2.086-1.361-.609.907-1.48 1.361-2.612 1.361-1.019 0-1.876-.354-2.572-1.063-.696-.721-1.046-1.635-1.046-2.741 0-1.094.35-2 1.046-2.721.696-.721 1.53-1.082 2.499-1.082.957 0 1.753.366 2.387 1.099h.073v-.838h1.344v4.866c0 .323.085.616.259.877.186.261.468.391.841.391.882 0 1.324-.89 1.324-2.668 0-1.641-.571-3.03-1.715-4.158-1.143-1.131-2.537-1.695-4.177-1.695-1.641 0-3.034.564-4.177 1.695-1.143 1.131-1.715 2.517-1.715 4.158 0 1.641.571 3.03 1.715 4.158 1.143 1.131 2.537 1.698 4.177 1.698.882 0 1.671-.175 2.367-.523l.523 1.268c-.87.398-1.833.596-2.89.596-2.063 0-3.796-.694-5.201-2.086-1.404-1.404-2.108-3.11-2.108-5.111 0-1.989.704-3.684 2.108-5.088 1.417-1.404 3.15-2.108 5.201-2.108m-.129 4.886c-.621 0-1.158.217-1.605.652-.435.435-.652 1.014-.652 1.734 0 .721.217 1.299.652 1.734.447.435.984.652 1.605.652.621 0 1.148-.217 1.583-.652.447-.435.672-1.014.672-1.734 0-.721-.224-1.299-.672-1.734-.435-.435-.961-.652-1.583-.652" fill="#1A1D20" fill-rule="evenodd" stroke="none" transform="matrix(.52109 0 0 .52109-236.97-273.71)"/></svg>