<svg xmlns="http://www.w3.org/2000/svg" viewBox="0 0 16 16"><path d="m6.645 1041.02c-.634.045-1.171.578-1.171 1.33v3.576c0 .13-.096.241-.236.241h-1.117c-2.418 0-2.203-3.087-.145-3.091h1.235v-.898h-1.28c-.82 0-1.428.306-1.838.762-.41.456-.616 1.071-.617 1.684-.0001.613.202 1.223.622 1.68.42.455 1.055.762 1.924.762h2.106c.139 0 .254-.12.254-.259v-4.361c-.0001-.224.126-.399.291-.45.165-.051.359.013.472.177l.005.001c.599.98 2.978 4.796 2.982 4.802.065.093.143.109.199.091.057-.019.114-.08.113-.232v-4.394c-.0001-.224.126-.399.291-.45.165-.051.354.013.468.177v.001h.009c.599.98 2.978 4.796 2.982 4.802.064.092.14.11.199.091.059-.019.119-.077.118-.227v-5.801h-.903v3.386c0 0-.539-.92-1.461-2.505-.904-1.552-2.61-.91-2.61.427v2.079c0 0-.529-.92-1.453-2.505-.395-.679-.946-.939-1.439-.903zm-2.555.023c-5.03 0-4.978 7.163.068 7.167h1.974c.849 0 1.39-.502 1.389-1.43v-1.816c0 0 1.108 1.832 1.544 2.55.738 1.22 2.524.98 2.519-.545v-2.01c0 0 1.105 1.832 1.539 2.55.738 1.22 2.528.98 2.524-.545v-5.928h-.903v5.801c.0001.222-.116.387-.277.44-.161.052-.346-.013-.458-.173h-.005v-.001c0 0-2.38-3.805-2.987-4.798-.002 0-.003 0-.005 0-.0001 0 .0001-.001 0-.001-.062-.084-.143-.102-.209-.081-.068.021-.132.079-.131.227v4.393c.0001.222-.113.396-.272.45-.159.054-.342-.017-.454-.177v-.001h-.005c0 0-2.382-3.813-2.987-4.803-.063-.09-.145-.112-.213-.091-.068.021-.132.079-.131.227v.001 4.361c0 .265-.218.486-.481.486h-2.106c-.924 0-1.625-.333-2.088-.835-.463-.502-.691-1.169-.69-1.834.0001-.665.229-1.336.681-1.838.452-.502 1.129-.834 2.01-.835h1.28v-.908h-1.121z" fill="#1A1D20" transform="translate(0-1036.36)"/></svg>