<svg xmlns="http://www.w3.org/2000/svg" viewBox="0 0 16 16"><path d="m.568 1.963c-.315 0-.568.254-.568.568v10.938c0 .315.254.568.568.568h14.863c.315 0 .568-.254.568-.568v-10.938c0-.315-.254-.568-.568-.568h-14.863m14.15039.654297a.647791 .647791 0 0 1 .648438 .648438 .647791 .647791 0 0 1 -.648438 .648438 .647791 .647791 0 0 1 -.648438 -.648438 .647791 .647791 0 0 1 .648438 -.648438m-1.591797.013672a.647791 .647791 0 0 1 .648438 .648437 .647791 .647791 0 0 1 -.648438 .648438 .647791 .647791 0 0 1 -.648437 -.648438 .647791 .647791 0 0 1 .648437 -.648438m-1.564453.015625a.647791 .647791 0 0 1 .648438 .648438 .647791 .647791 0 0 1 -.648438 .648438 .647791 .647791 0 0 1 -.646484 -.648438 .647791 .647791 0 0 1 .646484 -.648438" transform="matrix(.74999 0 0 .74999 1.989 2.01)" fill="#1A1D20"/></svg>