<svg xmlns="http://www.w3.org/2000/svg" viewBox="0 0 16 16"><g transform="translate(-71.09-24.1)"><g transform="matrix(0 .47215-.47215 0 562.93 21.496)" fill="#fff" fill-rule="evenodd"><path d="m1.563.506c-.744-.047-.729.262-.729.99v6.184l-.684 5.852c0 .706.334.712 1.078.666l13.791.049c.678 0 .878-.038.822-.764l-.551-5.869v-6.06c.055-.748-.013-1.051-.691-1.051h-13.04m8.5 3.943c.516-.002.947.151 1.291.459.344.302.516.688.518 1.158.002.568-.255.99-.77 1.268l.002.035c.281.119.511.301.691.547.186.246.28.537.281.875.002.522-.184.955-.559 1.301-.374.34-.833.511-1.377.514-.387.002-.763-.118-1.129-.363-.366-.245-.621-.611-.764-1.098l.707-.305c.091.321.241.569.449.746.208.177.452.265.732.264.314-.0001.583-.103.807-.305.229-.202.343-.452.342-.75-.0001-.292-.119-.539-.355-.738-.231-.2-.511-.298-.836-.297l-.496.002-.004-.74.439-.002c.303-.0001.55-.087.746-.26.201-.173.302-.403.301-.689-.0001-.269-.1-.481-.297-.635-.191-.154-.431-.232-.717-.23-.494.002-.826.258-.998.77l-.717-.305c.111-.316.309-.598.594-.846.285-.248.657-.373 1.117-.375m-4.396.02c.533-.002.971.161 1.314.492.344.331.518.729.52 1.193.002.573-.301 1.188-.91 1.844l-1.676 1.736 2.668-.012.002.758-3.668.016-.004-.791c1.095-1.134 1.796-1.873 2.104-2.219.274-.317.458-.556.553-.717.095-.167.14-.371.139-.611-.0001-.246-.096-.464-.287-.652-.192-.188-.448-.281-.768-.279-.292.0001-.528.091-.707.27-.179.173-.292.36-.342.561l-.709-.289c.094-.31.292-.604.594-.881.302-.277.695-.416 1.178-.418" transform="matrix(0-1.69458 1.69458 0 8.912 1038.36)" fill="#1A1D20"/><path d="m33.844 1036.94h-3.418l-2.708-2.274v-19.951l1.856-2.274h4.27c.848-.094.917.023.917 1.172v22.09c.053 1.261-.092 1.234-.917 1.234z" fill="none" stroke="#1A1D20" stroke-width=".812"/></g></g></svg>