<svg xmlns="http://www.w3.org/2000/svg" viewBox="0 0 16 16"><path d="m409 531l-5.244 6.733c-.983 1.262-.708 3.511.55 4.497 1.259.986 3.5.71 4.484-.552l5.244-6.733.655-.842c.656-.842.472-2.341-.367-2.998-.839-.658-2.334-.473-2.989.368l-.656.842-3.933 5.05-.656.842c-.328.421-.236 1.17.183 1.499.42.329 1.167.237 1.495-.184l4.589-5.891.839.658-4.589 5.891c-.656.842-2.15 1.026-2.989.368-.839-.658-1.023-2.157-.367-2.998l.656-.842 4.589-5.891c.983-1.262 3.225-1.538 4.484-.552 1.259.986 1.534 3.235.551 4.497l-.656.842-5.244 6.733c-1.311 1.683-4.3 2.051-5.978.736-1.678-1.315-2.045-4.313-.734-5.997l5.244-6.733.839.658" stroke-opacity=".8" stroke-width=".071" transform="matrix(.84782 0 0 .84521-338.85-445.68)" stroke="none" fill="#1A1D20"/></svg>