<svg xmlns="http://www.w3.org/2000/svg" viewBox="0 0 16 16" xmlns:xlink="http://www.w3.org/1999/xlink"><g transform="matrix(.44443 0 0 .44443-160.33-231.51)" fill="#1A1D20"><path d="m424.65 552.01q-4.992 0-8.214-3.358-3.222-3.404-3.222-8.486 0-5.083 3.222-8.441 3.222-3.404 8.214-3.404 3.721 0 6.172 1.815 2.451 1.815 3.585 4.583l-3.812 1.588q-1.724-4.175-6.217-4.175-2.768 0-4.901 2.269-2.088 2.269-2.088 5.763 0 3.494 2.088 5.763 2.133 2.269 4.901 2.269 4.674 0 6.444-4.175l3.721 1.588q-1.135 2.723-3.676 4.583-2.496 1.815-6.217 1.815" transform="matrix(.92871 0 0 .92871-18.508 37.28)"/><g transform="translate(-94.55-1.432)"><path d="m491.34 527.93v3.754h3.754v1.576h-3.754v3.754h-1.576v-3.754h-3.754v-1.576h3.754v-3.754h1.576" transform="matrix(.66042 0 0 .66042 159.83 180.71)" id="0"/><use transform="translate(0 8.25)" xlink:href="#0"/></g></g></svg>