<svg xmlns="http://www.w3.org/2000/svg" viewBox="0 0 16 16" xmlns:xlink="http://www.w3.org/1999/xlink"><g transform="matrix(.54546 0 0 .54546-251.53-286.73)" fill="#1A1D20"><path d="m420.65 528.23v7.557l-.134 2.274h.134q.669-1.17 2.107-1.973 1.438-.836 3.076-.836 3.043 0 4.648 1.873 1.605 1.873 1.605 5.02v10.03h-3.076v-9.564q0-4.548-4.046-4.548-1.906 0-3.11 1.538-1.204 1.505-1.204 3.511v9.06h-3.076v-23.943h3.076" transform="matrix(.91884 0 0 .91884 81.11 44)"/><path d="m491.34 527.93v3.754h3.754v1.576h-3.754v3.754h-1.576v-3.754h-3.754v-1.576h3.754v-3.754h1.576" transform="matrix(.66042 0 0 .66042 159.83 180.71)" id="0"/><use transform="translate(0 8.25)" xlink:href="#0"/></g></svg>