<svg xmlns="http://www.w3.org/2000/svg" viewBox="0 0 16 16"><path d="m.568 1.963c-.315 0-.568.254-.568.568v10.938c0 .315.254.568.568.568h14.863c.315 0 .568-.254.568-.568v-10.938c0-.315-.254-.568-.568-.568h-14.863m5.086 4.414c.14 0 .258.049.355.146l1.924 1.924 1.92-1.924c.103-.098.224-.146.361-.146.14 0 .258.049.355.146l.297.301c.1.095.15.215.15.357 0 .143-.05.26-.15.355l-2.576 2.582c-.098.098-.218.146-.357.146-.137 0-.256-.049-.359-.146l-2.578-2.582c-.098-.098-.146-.216-.146-.355 0-.14.049-.26.146-.357l.297-.301c.103-.098.224-.146.361-.146" transform="matrix(.74999 0 0 .74999 1.989 2.01)" fill="#1A1D20"/></svg>