<svg xmlns="http://www.w3.org/2000/svg" viewBox="0 0 16 16"><g transform="translate(-71.09-24.1)"><g fill="#1A1D20" transform="matrix(.97046 0 0 .97046 71.34-981.17)"><path d="m3.735 1046.37q-.343.342-.822.342-.48 0-.822-.342-.343-.343-.343-.822 0-.479.343-.822.343-.342.822-.342.48 0 .822.342.343.343.343.822 0 .479-.343.822"/><path d="m10.233 1046.89q-.959 0-1.73-.411-.754-.411-1.13-1.028h-.069l.069 1.165v3.699h-1.576v-12.09h1.507v1.165h.069q.377-.617 1.13-1.028.771-.411 1.73-.411 1.627 0 2.809 1.284 1.182 1.284 1.182 3.186 0 1.901-1.182 3.186-1.182 1.284-2.809 1.284m-.257-1.439q1.096 0 1.884-.822.788-.839.788-2.209 0-1.37-.788-2.192-.788-.839-1.884-.839-1.113 0-1.901.822-.771.822-.771 2.209 0 1.387.771 2.209.788.822 1.901.822"/></g></g></svg>