<svg xmlns="http://www.w3.org/2000/svg" viewBox="0 0 16 16"><g transform="translate(-71.09-24.1)"><g transform="matrix(.02834 0 0 .02834 71.976 25.569)" fill="#1A1D20"><path d="m8 .004c-4.419 0-8 3.58-8 7.996 0 .893.147 1.754.418 2.557h.557c.493 0 .951-.119 1.336-.32.097-.049.207-.08.324-.08.245 0 .455.097.59.316.115.199.223.317.355.4.114.074.27.133.492.123.106-.005.267-.031.307-.141.046-.126-.012-.22-.166-.283-.216-.09-.274-.224-.389-.428-.115-.204-.365-.312-.404-.695-.038-.378.259-.853.844-.701.423.11.696.631.799.811.053.094.243.204.396.064.153-.141.293-.142.408.037.098.152.819 1.111 1.598 1.137.792.025 1.213-.178 1.559-.166.242.009.358.131.496.152.243.039.417-.182.686-.168.217.001.453.156.695.156.243 0 .753-.295.746-.174-.012.214-.175.593-.215.768-.028.121-.005.414-.078.648-.065.239-.288.541-.346.627-.196.294-.338.382-.498.689-.178.345-.472.665-.549.768-.098.131.554-.005.785-.225.197-.186.541-.747 1.086-.867.367-.081.441-.223.396-.354-.008-.015-.001-.033-.001-.051 0-.05.028-.094.07-.115.38-.158.895-.256 1.461-.256.33 0 .659.046.967.117.812-1.253 1.283-2.745 1.283-4.348 0-4.416-3.582-7.996-8-7.996m1.201 1.65c.549-.021 1.082.135 1.412.475.456.469 1.084 1.916 1.385 2.998.153.549.112.812.035.998-.055.126-.088.207-.277.529-.033.057-.007.117.066.08.501-.257.612-.596.691-.861 1.359.306 2.166 1.014 1.992 1.971-.383 2.105-3.829 2.812-7.18 1.799-3.193-.967-5.996-2.893-5.672-4.02.189-.657 1.231-.937 2.619-.787-.21.429-.196.935.723 1.496 1.124.638 3.02 1.183 3.537 1.129.191-.019.362-.116.189-.23-.172-.115-.324-.345-.42-.746-.054-.224-.114-.535-1.32-.764-2.589-.494-2.49-1.225-2.414-1.646 0 0 .23-1.033.326-1.396.095-.364.343-1.2 2.01-.824.963.217 1.483-.051 1.748-.119.18-.046.366-.073.549-.08m.152.371c-.086 0-.178.004-.27.014-.306.03-.573.107-.752.201-.009.004-.014.012-.014.021 0 .013.011.025.025.025h.004c.051-.008.105-.016.16-.021.496-.05.913.032.934.184.015.114-.2.235-.52.309-.017.004-.029.019-.029.035 0 .016.011.029.027.033.134.039.29.062.455.066.514.011.935-.173.941-.412.006-.239-.405-.443-.918-.455h-.045zm-3.803.961c-.082.003-.17.054-.232.197-.126.29.107.602.301.643 0 0 .321.597.564.336.173-.184.27-.283 1.193-.35.44-.033.486-.134.473-.242-.015-.127-.28-.275-.676-.275-.391 0-.671.052-.914.059-.243.007-.428-.172-.516-.281-.036-.045-.111-.089-.193-.086" transform="matrix(29.93176 0 0 29.93176 11.558 19.04)"/><path d="m303.74 366.65c1.232 1.184 3.357 5.222.762 10.362-1.459 2.724-3.03 4.622-5.822 6.859-3.389 2.708-9.957 5.822-18.973.081-4.865-3.065-5.173-4.103-11.87-3.227-4.784.616-6.681-4.232-4.978-8.238 1.735-4.01 8.789-7.249 17.594-2.092 3.973 2.319 10.135 7.249 15.519 2.87 2.254-1.768 3.6-2.968 6.697-6.567.146-.146.341-.227.568-.227.195 0 .373.065.503.178"/></g></g></svg>