<svg xmlns="http://www.w3.org/2000/svg" viewBox="0 0 16 16"><g transform="translate(-71.09-24.1)"><path d="M34.542969 20.996094A13.456333 13.456333 0 0 0 21.08789 34.453125 13.456333 13.456333 0 0 0 34.542969 47.908203 13.456333 13.456333 0 0 0 48 34.453125 13.456333 13.456333 0 0 0 34.542969 20.996094m3.396 5.992c.05.003.108.025.154.039.237.068.438.271.506.51l2.451 8.928 1.285-1.742c.131-.194.33-.328.563-.334h.953.43.037c.028 0 .059.03.059.059v1.371c0 .028-.028.039-.057.039h-.039-.43-.582l-1.887 2.623c-.323.425-1.128.277-1.285-.234l-2.236-7.949-1.537 5.07c-.094.288-.398.484-.699.49h-1.07-.215-.525-.193-.545l-2.082 6.891c-.104.374-.545.621-.914.51-.237-.068-.438-.271-.506-.51l-2.471-8.945-1.264 1.742c-.131.194-.351.306-.584.313h-.934-.467-.059c-.028 0-.039-.011-.039-.039v-1.371c0-.028.011-.059.039-.059h.059.467.584l1.887-2.584c.323-.425 1.126-.277 1.283.234l2.219 7.949 1.555-5.09c.094-.288.38-.503.682-.51h1.09.193.525.215.525l2.1-6.852c.078-.28.339-.49.623-.529.047-.006.087-.02.137-.02z" transform="matrix(.4459 0 0 .44591 63.67 16.758)" stroke="none" fill="#1A1D20"/></g></svg>