<svg xmlns="http://www.w3.org/2000/svg" viewBox="0 0 16 16"><g transform="translate(-71.09-24.1)"><path d="m1128.88 896.24l-246.84-249.43c-23.517-23.723-16.186-49.09 16.22-56.46 0 0 26.767-6.098 59.737-39.41 70.783-71.47 70.72-187.51 0-258.88-70.816-71.51-185.51-71.51-256.3 0-33 33.31-38.973 60.31-38.973 60.31-7.297 32.804-32.472 40.14-55.923 16.352l-246.84-249.26c-23.484-23.757-61.96-23.757-85.44 0l-246.81 249.3c-23.45 23.791-16.186 49.22 16.22 56.56 0 0 26.801 6.099 59.737 39.34 70.68 71.47 70.783 187.44 0 258.98-70.75 71.47-185.61 71.41-256.3 0-32.937-33.34-38.974-60.38-38.974-60.38-7.264-32.771-32.472-40.11-55.956-16.386l-246.81 249.37c-23.484 23.723-23.484 62.53 0 86.25l246.81 249.37c23.484 23.724 16.186 49.16-16.22 56.53 0 0-26.767 6.098-59.737 39.41-70.783 71.51-70.783 187.41 0 258.88 70.75 71.44 185.51 71.51 256.3 0 33-33.31 38.974-60.31 38.974-60.31 7.297-32.804 32.473-40.14 55.923-16.352l246.84 249.26c23.484 23.757 61.96 23.757 85.44 0l246.88-249.33c23.484-23.724 16.186-49.22-16.22-56.53 0 0-26.834-6.098-59.771-39.34-70.816-71.51-70.783-187.44 0-258.98 70.75-71.47 185.51-71.54 256.3 0 32.97 33.31 38.94 60.38 38.94 60.38 7.297 32.771 32.439 40.18 55.956 16.452l246.84-249.43c23.484-23.723 23.484-62.53 0-86.25" stroke-opacity=".8" stroke-width="1634.15" transform="matrix(.00724 0 0 .00716 76.8 25.387)" stroke="none" fill="#1A1D20"/></g></svg>