<svg xmlns="http://www.w3.org/2000/svg" viewBox="0 0 16 16"><defs><clipPath><path fill="#f2f2f2" d="m7 1023.36h1v1h-1z"/></clipPath><clipPath><path fill="#f2f2f2" d="m7 1023.36h1v1h-1z"/></clipPath><clipPath><path fill="#f2f2f2" d="m7 1023.36h1v1h-1z"/></clipPath><clipPath><path fill="#f2f2f2" d="m7 1023.36h1v1h-1z"/></clipPath><clipPath><path fill="#f2f2f2" d="m7 1023.36h1v1h-1z"/></clipPath><clipPath><path fill="#f2f2f2" d="m7 1023.36h1v1h-1z"/></clipPath></defs><g transform="matrix(.38889 0 0 .38889 1 1)"><path d="m31.2 7h-26.4c-1 0-1.8.8-1.8 1.8v17.5c0 1 .8 1.8 1.8 1.8h26.5c1 0 1.8-.8 1.8-1.8v-17.5c-.1-1-.9-1.8-1.9-1.8" stroke-miterlimit="10" fill="none" stroke="#1A1D20" stroke-linejoin="round" fill-opacity=".12" stroke-width="2"/><path d="m33 30h-30c-1.7 0-3-1.3-3-3v-1h36v1c0 1.7-1.3 3-3 3" fill="#1A1D20"/></g></svg>