<svg xmlns="http://www.w3.org/2000/svg" viewBox="0 0 16 16"><g transform="matrix(.37943 0 0 .37943 1.17 1.768)" fill="#1A1D20"><path d="m31.8 27l-.5 5h-26.5l-.5-5h6.4 14.8 6.3m2.2-2h-10-22l.497 7.2c.1 1 .698 1.8 1.698 1.8h27.711c1 0 1.598-.8 1.698-1.8z" transform="matrix(1 0 0 .82172 0 4.457)"/><path d="m6.769.49c-1.063 0-1.699.743-1.806 1.806l-2.867 22.642.213 1.062h8.29 14.883 7.863l.64-1.062-2.873-22.642c-.213-1.063-.737-1.806-1.8-1.806h-22.544m8.163937 5.750869a.972189 .841378 0 0 1 .973981 .842658 .972189 .841378 0 0 1 -.973981 .842658 .972189 .841378 0 0 1 -.968511 -.842658 .972189 .841378 0 0 1 .968511 -.842658m4.864 0l5.833 5.05-5.833 5.05-1.948-1.68 3.89-3.365-3.89-3.365 1.948-1.685zm-7.780909 5.05048a1.944368 1.682748 0 0 1 1.947962 1.679844 1.944368 1.682748 0 0 1 -1.947962 1.685317 1.944368 1.682748 0 0 1 -1.942492 -1.685317 1.944368 1.682748 0 0 1 1.942492 -1.679844m3.890454 5.04501a1.944368 1.682748 0 0 1 1.942492 1.685317 1.944368 1.682748 0 0 1 -1.942492 1.679844 1.944368 1.682748 0 0 1 -1.942492 -1.679844 1.944368 1.682748 0 0 1 1.942492 -1.685317"/></g></svg>