<svg xmlns="http://www.w3.org/2000/svg" viewBox="0 0 16 16"><path d="m-17-2c-4.432 0-8 3.568-8 8 0 4.432 3.568 8 8 8 4.432 0 8-3.568 8-8 0-4.432-3.568-8-8-8m5.539 5.51c.297-.036.608.026.83.199.445.347.541 1.139.193 1.584l-.23.297-1.854 2.371c-.463.593-1.519.723-2.111.26-.593-.463-.723-1.519-.26-2.111l1.854-2.371.295.23-1.852 2.371c-.347.445-.251 1.237.193 1.584.445.347 1.237.251 1.584-.193l1.854-2.371.23-.297c.232-.296.167-.825-.129-1.057-.296-.232-.825-.166-1.057.131l-.23.295-1.391 1.779-.23.297c-.116.148-.084.412.064.527.148.116.412.084.527-.064l1.621-2.076.297.232-1.621 2.074c-.232.296-.758.362-1.055.131-.296-.232-.362-.76-.131-1.057l.232-.297 1.621-2.074c.174-.222.457-.358.754-.395m-5.539 1.49c.554 0 1 .446 1 1 0 .554-.446 1-1 1-.554 0-1-.446-1-1 0-.554.446-1 1-1" transform="matrix(.75 0 0 .75 20.75 3.498)" fill="#1A1D20"/></svg>