<svg xmlns="http://www.w3.org/2000/svg" viewBox="0 0 16 16"><g transform="matrix(.02948 0 0 .02948 1.992 1.988)" fill="#1A1D20"><path d="m402.12 84.01l-79.03-79.03c-3.189-3.189-7.514-4.981-12.03-4.981h-294.06c-9.392 0-17 7.614-17 17v373.09c0 9.392 7.613 17 17 17h373.09c9.392 0 17-7.613 17-17v-294.06c0-4.509-1.791-8.835-4.981-12.02m-101.45 79.56h-233.53v-124.7h233.53v124.7"/><path d="m214.05 148.16h43.08c3.131 0 5.668-2.538 5.668-5.669v-82.907c0-3.13-2.537-5.668-5.668-5.668h-43.08c-3.131 0-5.668 2.538-5.668 5.668v82.907c0 3.131 2.537 5.669 5.668 5.669"/></g></svg>