<svg xmlns="http://www.w3.org/2000/svg" viewBox="0 0 16 16"><path d="m8 1038.36c-3.324 0-6 2.676-6 6 0 3.324 2.676 6 6 6 3.324 0 6-2.676 6-6 0-3.324-2.676-6-6-6m3.259 4.125c.037 0 .077 0 .119.001h.002c.563.048.961.239 1.184.568.247.366.213.813.17 1.047-.004.021-.021.037-.042.041-.021 0-.042 0-.053-.024-.044-.075-.119-.19-.226-.305-.26-.278-.583-.425-.935-.425-.029 0-.059.0001-.089 0v2.077c0 .385-.289.701-.687.752-.036 0-.072.001-.108.001-.384 0-.708-.26-.751-.605-.023-.186.035-.37.164-.52.129-.15.314-.246.52-.273.118-.015.238 0 .35.029v-2.118c0-.122.1-.264.384-.264zm-3.259 1.125c.415 0 .75.334.75.75 0 .416-.335.75-.75.75-.415 0-.75-.334-.75-.75 0-.416.335-.75.75-.75" fill="#1A1D20" transform="translate(0-1036.36)"/></svg>