<svg xmlns="http://www.w3.org/2000/svg" viewBox="0 0 22 22"><g transform="matrix(.49215 0 0 .49215 2.141 2.02)"><circle r="2" cy="19" cx="18" fill="#1A1D20"/><g fill="none" stroke="#1A1D20" stroke-width="2" stroke-miterlimit="10"><path d="m15.5 24.5c-2.1-.9-3.5-3-3.5-5.5 0-3.3 2.7-6 6-6 3.3 0 6 2.7 6 6 0 2.4-1.4 4.4-3.4 5.4"/><path d="m13.5 29c-3.8-1.7-6.5-5.5-6.5-10 0-6.1 4.9-11 11-11 6.1 0 11 4.9 11 11 0 4.3-2.5 8.1-6.2 9.9"/><path d="m11.4 33.6c-5.5-2.5-9.4-8.1-9.4-14.6 0-8.8 7.2-16 16-16 8.8 0 16 7.2 16 16 0 6.3-3.7 11.8-9 14.4"/></g></g></svg>