<svg xmlns="http://www.w3.org/2000/svg" viewBox="0 0 16 16"><g transform="matrix(.03333 0 0 .03333 2 2)" fill="#fff"><path d="m180 0c-66.28 0-120 53.723-120 120v120c0 66.28 53.723 120 120 120 66.27 0 120-53.723 120-120v-120c0-66.28-53.723-120-120-120m69.36 224.13c2.705 2.168 4.279 5.448 4.279 8.915 0 3.467-1.574 6.746-4.279 8.915l-71.65 57.44c-2.067 1.657-4.597 2.511-7.148 2.511-1.68 0-3.369-.371-4.942-1.125-3.961-1.901-6.481-5.906-6.481-10.3v-82.02l-34.18 27.632c-2.114 1.709-4.653 2.541-7.176 2.541-3.331 0-6.634-1.45-8.892-4.243-3.967-4.907-3.204-12.1 1.703-16.07l47.38-38.31-47.38-38.31c-4.907-3.967-5.67-11.161-1.703-16.07 3.967-4.908 11.162-5.669 16.07-1.703l34.18 27.632v-82.05c0-4.394 2.52-8.399 6.481-10.3 3.962-1.901 8.663-1.362 12.09 1.386l71.65 57.44c2.705 2.168 4.279 5.448 4.279 8.914 0 3.466-1.574 6.746-4.279 8.915l-55.05 44.12 55.05 44.13z"/><path d="m223.95 126.96l-41.96-33.64v67.28z"/><path d="m223.95 233.04l-41.96-33.64v67.28z"/></g></svg>