<svg xmlns="http://www.w3.org/2000/svg" viewBox="0 0 16 16"><defs><clipPath><path d="m22.2 686.12h1447.73v-667.19h-1447.73v667.19"/></clipPath><clipPath><path fill="#f2f2f2" d="m7 1023.36h1v1h-1z"/></clipPath><clipPath><path d="m0 706.47h1490.93v-706.47h-1490.93v706.47"/></clipPath><clipPath><path fill="#aade87" fill-opacity=".472" d="m-6 1028.36h32v32h-32z"/></clipPath><clipPath><path fill="#00f" fill-opacity=".514" d="m-7 1024.36h34v34h-34z"/></clipPath><clipPath><path fill="#f2f2f2" d="m7 1023.36h1v1h-1z"/></clipPath></defs><path d="M8 2A6 6 0 0 0 2 8 6 6 0 0 0 8 14 6 6 0 0 0 14 8 6 6 0 0 0 8 2M7.996 4.625C8.569 4.625 9.03 4.79 9.393 5.119 9.752 5.442 9.932 5.857 9.932 6.363 9.932 6.583 9.872 6.806 9.752 7.03 9.632 7.257 9.526 7.418 9.432 7.516 9.343 7.607 9.216 7.725 9.05 7.871L9.01 7.918C8.622 8.253 8.43 8.588 8.43 8.924V9.289H7.541V8.859C7.541 8.585 7.601 8.351 7.721 8.156 7.84 7.955 8.05 7.719 8.354 7.451 8.524 7.299 8.644 7.186 8.713 7.113 8.788 7.03 8.86 6.927 8.93 6.793 9.01 6.653 9.04 6.51 9.04 6.363 9.04 6.083 8.949 5.856 8.76 5.686 8.577 5.515 8.324 5.43 7.996 5.43 7.455 5.43 7.082 5.723 6.881 6.309L6.068 5.979C6.201 5.631 6.427 5.319 6.748 5.04 7.08 4.764 7.492 4.625 7.996 4.625M7.986 10.131C8.169 10.131 8.32 10.193 8.439 10.314 8.565 10.436 8.629 10.583 8.629 10.754 8.629 10.925 8.565 11.07 8.439 11.191 8.32 11.313 8.169 11.375 7.986 11.375 7.804 11.375 7.649 11.313 7.523 11.191 7.404 11.07 7.344 10.925 7.344 10.754 7.344 10.583 7.404 10.436 7.523 10.314 7.649 10.193 7.804 10.131 7.986 10.131" transform="translate(-.002.003)" fill="#fff" fill-rule="evenodd"/></svg>