<?xml version="1.0" encoding="UTF-8" standalone="no"?>
<svg
   xmlns:dc="http://purl.org/dc/elements/1.1/"
   xmlns:cc="http://creativecommons.org/ns#"
   xmlns:rdf="http://www.w3.org/1999/02/22-rdf-syntax-ns#"
   xmlns:svg="http://www.w3.org/2000/svg"
   xmlns="http://www.w3.org/2000/svg"
   xmlns:sodipodi="http://sodipodi.sourceforge.net/DTD/sodipodi-0.dtd"
   xmlns:inkscape="http://www.inkscape.org/namespaces/inkscape"
   viewBox="0 0 22 22"
   id="svg2"
   version="1.1"
   inkscape:version="0.91 r13725"
   sodipodi:docname="audio-ready.svg">
  <metadata
     id="metadata30">
    <rdf:RDF>
      <cc:Work
         rdf:about="">
        <dc:format>image/svg+xml</dc:format>
        <dc:type
           rdf:resource="http://purl.org/dc/dcmitype/StillImage" />
      </cc:Work>
    </rdf:RDF>
  </metadata>
  <defs
     id="defs28" />
  <sodipodi:namedview
     pagecolor="#ffffff"
     bordercolor="#666666"
     borderopacity="1"
     objecttolerance="10"
     gridtolerance="10"
     guidetolerance="10"
     inkscape:pageopacity="0"
     inkscape:pageshadow="2"
     inkscape:window-width="1366"
     inkscape:window-height="746"
     id="namedview26"
     showgrid="false"
     inkscape:zoom="10.727273"
     inkscape:cx="0.13983051"
     inkscape:cy="11"
     inkscape:window-x="0"
     inkscape:window-y="22"
     inkscape:window-maximized="1"
     inkscape:current-layer="svg2" />
  <g
     transform="matrix(.14301 0 0 .14301 2.755 2.644)"
     fill-opacity=".8"
     id="g4">
    <g
       transform="matrix(6.29347 0 0 6.29347-11.573-10.795)"
       fill-opacity="0"
       id="g6">
      <g
         transform="matrix(1.17633 0 0 1.17633 1 1.589)"
         stroke-opacity=".85"
         fill="#000"
         stroke="none"
         stroke-width=".73"
         id="g8">
        <path
           d="m11.243 12.993c-.192 0-.384-.073-.53-.22-.293-.293-.293-.768 0-1.061 2.047-2.047 2.047-5.378 0-7.425-.293-.293-.293-.768 0-1.061.293-.293.768-.293 1.061 0 1.275 1.275 1.977 2.97 1.977 4.773 0 1.803-.702 3.498-1.977 4.773-.146.146-.338.22-.53.22z"
           id="path10" />
        <path
           d="m8.578 11.578c-.192 0-.384-.073-.53-.22-.293-.293-.293-.768 0-1.061 1.267-1.267 1.267-3.329 0-4.596-.293-.293-.293-.768 0-1.061.293-.293.768-.293 1.061 0 1.852 1.852 1.852 4.865 0 6.718-.146.146-.338.22-.53.22z"
           id="path12" />
      </g>
      <g
         transform="translate(16 4)"
         fill="#f2f2f2"
         id="g14">
        <path
           d="m-1.773 12.874c-.226 0-.452-.086-.623-.259-.345-.345-.345-.903 0-1.248 2.408-2.408 2.408-6.326 0-8.734-.345-.345-.345-.903 0-1.248.345-.345.903-.345 1.248 0 1.5 1.5 2.326 3.494 2.326 5.615 0 2.121-.826 4.115-2.326 5.615-.172.172-.398.259-.623.259z"
           id="path16" />
        <path
           d="m-4.908 11.209c-.226 0-.452-.086-.623-.259-.345-.345-.345-.903 0-1.248 1.49-1.49 1.49-3.916 0-5.406-.345-.345-.345-.903 0-1.248.345-.345.903-.345 1.248 0 2.179 2.179 2.179 5.723 0 7.903-.172.172-.398.259-.623.259z"
           id="path18" />
      </g>
    </g>
    <g
       transform="matrix(.46598 0 0 .46598 54.46 41.14)"
       fill="#1A1D20"
       fill-opacity=".8"
       id="g20"
       style="fill:#1a1d20;fill-opacity:1">
      <path
         d="m-7.353 15.235c-.153 0-.303-.06-.416-.172l-4.534-4.534h-2.109c-.325 0-.588-.263-.588-.588v-5.882c0-.325.263-.588.588-.588h2.109l4.534-4.534c.168-.168.421-.219.641-.127.22.092.363.306.363.543v15.292c0 .238-.144.453-.363.543-.073.031-.149.045-.225.045"
         transform="matrix(13.50576 0 0 13.50576 74.39-57.44)"
         id="path22"
         style="fill:#1a1d20;fill-opacity:1" />
      <path
         d="m121.36 2.114l-11.08-11.08c-1.52-1.521-3.368-2.281-5.54-2.281-2.173 0-4.02.76-5.541 2.281l-53.45 53.53-23.953-24.04c-1.521-1.521-3.368-2.281-5.54-2.281-2.173 0-4.02.76-5.541 2.281l-11.08 11.08c-1.521 1.521-2.281 3.368-2.281 5.541 0 2.172.76 4.02 2.281 5.54l29.493 29.493 11.08 11.08c1.52 1.521 3.367 2.281 5.54 2.281 2.172 0 4.02-.761 5.54-2.281l11.08-11.08 58.986-58.986c1.52-1.521 2.281-3.368 2.281-5.541.0001-2.172-.761-4.02-2.281-5.54"
         id="path24"
         style="fill:#1a1d20;fill-opacity:1" />
    </g>
  </g>
</svg>
