<svg xmlns="http://www.w3.org/2000/svg" viewBox="0 0 22 22"><g transform="translate(-553.72-583.12)"><path d="m7.525 2.947c-.854 0-1.549.695-1.549 1.549v1.553h-1.555c-.854 0-1.549.696-1.549 1.551 0 .854.695 1.549 1.549 1.549h1.555v3.596h-1.555c-.854 0-1.549.695-1.549 1.549 0 .854.695 1.549 1.549 1.549h1.555v1.555c0 .855.694 1.549 1.549 1.549.854 0 1.549-.694 1.549-1.549v-1.555h3.596v1.555c0 .855.695 1.549 1.549 1.549.854 0 1.551-.694 1.551-1.549v-1.555h1.555c.854 0 1.549-.695 1.549-1.549 0-.854-.695-1.549-1.549-1.549h-1.555v-3.596h1.555c.854 0 1.549-.695 1.549-1.549 0-.854-.695-1.551-1.549-1.551h-1.555v-1.553c0-.854-.697-1.549-1.551-1.549-.855 0-1.549.695-1.549 1.549v1.553h-3.596v-1.553c0-.854-.695-1.549-1.549-1.549m.861 5.512h4.973v4.975h-4.973v-4.975" transform="translate(553.72 583.12)" fill="#1A1D20"/><rect width="7.962" height="7.962" x="564.9" y="594.38" fill="#43be80" rx="3.981"/></g></svg>